<?xml version="1.0" encoding="UTF-8"?>
<svg xmlns="http://www.w3.org/2000/svg" width="603" height="466" viewBox="0 0 603 466" fill="none">
  <g clip-path="url(#clip0_5531_432)">
    <path opacity="0.84" d="M215.472 58.6619L227.296 65.5741C234.689 69.8961 234.12 79.5988 226.114 82.6399C180.924 99.8061 67.354 140.669 52.9588 148.703C52.2648 149.09 51.6469 149.416 50.9285 149.756C40.3599 154.76 46.3823 162.693 51.3725 166.567C51.8013 166.9 52.2421 167.166 52.7245 167.415C92.3116 187.831 179.624 233.526 208.796 248.139C212.574 250.032 214.943 253.86 214.943 258.086V447.953C214.943 456.291 206.035 461.661 198.6 457.887C137.218 426.735 28.8295 380.163 11.524 372.923C10.574 372.525 9.69121 372.017 8.9142 371.341C0.837006 364.315 -0.725525 356.172 -0.45726 352.159C-0.4198 351.599 -0.367065 351.062 -0.367065 350.501V150.206C-0.367065 149.552 -0.446289 148.95 -0.477066 148.297C-0.815353 141.121 8.93823 133.604 14.6547 130.272C15.117 130.003 15.6014 129.782 16.102 129.593L206.034 57.8677C209.139 56.6953 212.607 56.9871 215.472 58.6619Z" fill="url(#paint0_linear_5531_432)"></path>
    <path d="M197.062 247.06C169.533 236.169 68.0782 188.018 8.42748 159.945C-4.24317 153.982 -4.09935 135.105 8.44494 128.88C86.3738 90.2128 219.976 11.3045 240.27 1.04241C241.824 0.256751 243.42 0.000422761 245.161 0.000423809L474.441 0.000471006C474.441 0.000471006 585.903 -2.52905 601.316 -0.112946C602.697 0.103676 602.529 0.926756 601.32 1.63066C534.253 40.6902 247.137 226.324 214.484 248.072C212.414 249.451 210.296 250.398 207.813 250.541C201.957 250.879 200.496 248.587 197.062 247.06Z" fill="url(#paint1_linear_5531_432)"></path>
  </g>
  <path d="M53.152 299V277.182H61.3338C63.0099 277.182 64.4162 277.494 65.5526 278.119C66.696 278.744 67.5589 279.604 68.1413 280.697C68.7308 281.784 69.0256 283.02 69.0256 284.405C69.0256 285.804 68.7308 287.047 68.1413 288.134C67.5518 289.22 66.6818 290.076 65.5312 290.701C64.3807 291.319 62.9638 291.628 61.2805 291.628H55.858V288.379H60.7479C61.728 288.379 62.5305 288.208 63.1555 287.867C63.7805 287.526 64.2422 287.058 64.5405 286.461C64.8459 285.864 64.9986 285.179 64.9986 284.405C64.9986 283.631 64.8459 282.949 64.5405 282.359C64.2422 281.77 63.777 281.312 63.1449 280.985C62.5199 280.651 61.7138 280.484 60.7266 280.484H57.1044V299H53.152ZM70.1682 299V282.636H73.9075V285.364H74.078C74.3763 284.419 74.8876 283.691 75.6121 283.18C76.3436 282.661 77.1781 282.402 78.1156 282.402C78.3287 282.402 78.5666 282.413 78.8294 282.434C79.0993 282.448 79.323 282.473 79.5006 282.509V286.056C79.3372 285.999 79.078 285.95 78.7229 285.907C78.3749 285.857 78.0375 285.832 77.7108 285.832C77.0077 285.832 76.3756 285.985 75.8145 286.29C75.2605 286.589 74.8237 287.004 74.5041 287.537C74.1845 288.07 74.0247 288.684 74.0247 289.38V299H70.1682ZM86.4067 299.32C84.8087 299.32 83.4237 298.968 82.2518 298.265C81.08 297.562 80.1709 296.578 79.5246 295.314C78.8854 294.05 78.5658 292.572 78.5658 290.882C78.5658 289.192 78.8854 287.711 79.5246 286.44C80.1709 285.168 81.08 284.181 82.2518 283.478C83.4237 282.775 84.8087 282.423 86.4067 282.423C88.0047 282.423 89.3896 282.775 90.5615 283.478C91.7334 284.181 92.6389 285.168 93.2781 286.44C93.9244 287.711 94.2476 289.192 94.2476 290.882C94.2476 292.572 93.9244 294.05 93.2781 295.314C92.6389 296.578 91.7334 297.562 90.5615 298.265C89.3896 298.968 88.0047 299.32 86.4067 299.32ZM86.428 296.23C87.2944 296.23 88.0189 295.992 88.6013 295.516C89.1837 295.033 89.6169 294.387 89.901 293.577C90.1922 292.768 90.3378 291.866 90.3378 290.871C90.3378 289.87 90.1922 288.964 89.901 288.155C89.6169 287.338 89.1837 286.688 88.6013 286.205C88.0189 285.722 87.2944 285.481 86.428 285.481C85.5402 285.481 84.8015 285.722 84.2121 286.205C83.6297 286.688 83.1929 287.338 82.9017 288.155C82.6176 288.964 82.4756 289.87 82.4756 290.871C82.4756 291.866 82.6176 292.768 82.9017 293.577C83.1929 294.387 83.6297 295.033 84.2121 295.516C84.8015 295.992 85.5402 296.23 86.428 296.23ZM109.461 282.636L103.633 299H99.3719L93.5445 282.636H97.6567L101.417 294.792H101.588L105.359 282.636H109.461ZM116.697 299.32C115.056 299.32 113.639 298.979 112.446 298.297C111.26 297.608 110.348 296.635 109.708 295.378C109.069 294.114 108.75 292.626 108.75 290.914C108.75 289.231 109.069 287.754 109.708 286.482C110.355 285.204 111.257 284.21 112.414 283.499C113.572 282.782 114.932 282.423 116.495 282.423C117.503 282.423 118.455 282.587 119.35 282.913C120.252 283.233 121.047 283.73 121.736 284.405C122.432 285.08 122.979 285.939 123.377 286.983C123.774 288.02 123.973 289.256 123.973 290.69V291.873H110.561V289.273H120.277C120.269 288.535 120.11 287.878 119.797 287.303C119.485 286.72 119.048 286.262 118.487 285.928C117.933 285.594 117.287 285.428 116.548 285.428C115.76 285.428 115.067 285.619 114.47 286.003C113.874 286.379 113.409 286.876 113.075 287.494C112.748 288.105 112.581 288.776 112.574 289.508V291.777C112.574 292.729 112.748 293.545 113.096 294.227C113.444 294.902 113.931 295.42 114.556 295.783C115.181 296.138 115.912 296.315 116.75 296.315C117.311 296.315 117.819 296.237 118.274 296.081C118.728 295.918 119.122 295.68 119.456 295.367C119.79 295.055 120.042 294.668 120.213 294.206L123.814 294.611C123.586 295.562 123.153 296.393 122.514 297.104C121.882 297.807 121.072 298.354 120.085 298.744C119.098 299.128 117.968 299.32 116.697 299.32ZM128.972 289.412V299H125.116V282.636H128.802V285.417H128.994C129.37 284.501 129.97 283.773 130.794 283.233C131.625 282.693 132.651 282.423 133.873 282.423C135.002 282.423 135.986 282.665 136.824 283.148C137.669 283.631 138.323 284.33 138.784 285.246C139.253 286.163 139.484 287.274 139.477 288.581V299H135.62V289.178C135.62 288.084 135.336 287.228 134.768 286.61C134.207 285.992 133.429 285.683 132.435 285.683C131.76 285.683 131.16 285.832 130.634 286.131C130.116 286.422 129.708 286.844 129.409 287.398C129.118 287.952 128.972 288.624 128.972 289.412ZM57.6903 335.33C56.6534 335.33 55.7195 335.146 54.8885 334.776C54.0646 334.4 53.4112 333.846 52.9283 333.114C52.4524 332.383 52.2145 331.481 52.2145 330.408C52.2145 329.485 52.3849 328.722 52.7259 328.118C53.0668 327.514 53.532 327.031 54.1214 326.669C54.7109 326.307 55.375 326.033 56.1136 325.849C56.8594 325.657 57.63 325.518 58.4254 325.433C59.3842 325.334 60.1619 325.245 60.7585 325.167C61.3551 325.082 61.7884 324.954 62.0582 324.783C62.3352 324.606 62.4737 324.332 62.4737 323.963V323.899C62.4737 323.097 62.2358 322.475 61.7599 322.035C61.2841 321.594 60.5987 321.374 59.7038 321.374C58.7592 321.374 58.0099 321.58 57.456 321.992C56.9091 322.404 56.5398 322.891 56.348 323.452L52.7472 322.94C53.0313 321.946 53.5 321.115 54.1534 320.447C54.8068 319.773 55.6058 319.268 56.5504 318.935C57.495 318.594 58.5391 318.423 59.6825 318.423C60.4709 318.423 61.2557 318.516 62.0369 318.7C62.8182 318.885 63.532 319.19 64.1783 319.616C64.8246 320.036 65.343 320.607 65.7337 321.332C66.1314 322.056 66.3303 322.962 66.3303 324.048V335H62.6229V332.752H62.495C62.2607 333.207 61.9304 333.633 61.5043 334.031C61.0852 334.421 60.5561 334.737 59.9169 334.979C59.2848 335.213 58.5426 335.33 57.6903 335.33ZM58.6918 332.496C59.4659 332.496 60.1371 332.344 60.7053 332.038C61.2734 331.726 61.7102 331.314 62.0156 330.803C62.3281 330.291 62.4844 329.734 62.4844 329.13V327.202C62.3636 327.301 62.1577 327.393 61.8665 327.479C61.5824 327.564 61.2628 327.638 60.9077 327.702C60.5526 327.766 60.201 327.823 59.853 327.873C59.505 327.923 59.2031 327.965 58.9474 328.001C58.3722 328.079 57.8572 328.207 57.4027 328.384C56.9482 328.562 56.5895 328.81 56.3267 329.13C56.0639 329.442 55.9325 329.847 55.9325 330.344C55.9325 331.055 56.1918 331.591 56.7102 331.953C57.2287 332.315 57.8892 332.496 58.6918 332.496ZM76.2593 318.636V321.619H66.8523V318.636H76.2593ZM69.1747 314.716H73.0313V330.078C73.0313 330.597 73.1094 330.994 73.2657 331.271C73.429 331.541 73.6421 331.726 73.9049 331.825C74.1676 331.925 74.4588 331.974 74.7784 331.974C75.0199 331.974 75.2401 331.957 75.4389 331.921C75.6449 331.886 75.8012 331.854 75.9077 331.825L76.5576 334.84C76.3516 334.911 76.0568 334.989 75.6733 335.075C75.2969 335.16 74.8353 335.21 74.2884 335.224C73.3225 335.252 72.4524 335.107 71.6783 334.787C70.9041 334.46 70.2898 333.956 69.8353 333.274C69.3878 332.592 69.1676 331.74 69.1747 330.717V314.716ZM94.7137 319.18C94.6143 318.249 94.1952 317.525 93.4566 317.006C92.725 316.488 91.7733 316.229 90.6015 316.229C89.7776 316.229 89.0709 316.353 88.4814 316.602C87.892 316.85 87.441 317.187 87.1285 317.614C86.816 318.04 86.6562 318.526 86.6491 319.073C86.6491 319.528 86.752 319.922 86.958 320.256C87.1711 320.589 87.4587 320.874 87.8209 321.108C88.1831 321.335 88.5844 321.527 89.0248 321.683C89.4651 321.839 89.909 321.971 90.3564 322.077L92.4019 322.589C93.2258 322.781 94.0177 323.04 94.7776 323.366C95.5447 323.693 96.23 324.105 96.8337 324.602C97.4445 325.099 97.9275 325.7 98.2826 326.403C98.6377 327.106 98.8152 327.93 98.8152 328.874C98.8152 330.153 98.4885 331.278 97.8351 332.251C97.1817 333.217 96.2371 333.974 95.0013 334.521C93.7726 335.06 92.2847 335.33 90.5375 335.33C88.8401 335.33 87.3664 335.067 86.1164 334.542C84.8735 334.016 83.9005 333.249 83.1974 332.241C82.5013 331.232 82.1249 330.004 82.0681 328.555H85.9566C86.0134 329.315 86.2478 329.947 86.6597 330.451C87.0716 330.955 87.6079 331.332 88.2684 331.58C88.936 331.829 89.6817 331.953 90.5056 331.953C91.365 331.953 92.1178 331.825 92.7641 331.57C93.4175 331.307 93.9289 330.945 94.2982 330.483C94.6675 330.014 94.8557 329.467 94.8628 328.842C94.8557 328.274 94.6888 327.805 94.3621 327.436C94.0354 327.06 93.5773 326.747 92.9878 326.499C92.4054 326.243 91.7236 326.016 90.9424 325.817L88.4601 325.178C86.6633 324.716 85.2428 324.016 84.1988 323.079C83.1618 322.134 82.6434 320.881 82.6434 319.318C82.6434 318.033 82.9914 316.907 83.6874 315.941C84.3905 314.975 85.3458 314.226 86.5532 313.693C87.7606 313.153 89.1277 312.884 90.6547 312.884C92.203 312.884 93.5596 313.153 94.7243 313.693C95.8962 314.226 96.816 314.968 97.4836 315.92C98.1512 316.864 98.4956 317.951 98.517 319.18H94.7137ZM107.186 335.32C105.553 335.32 104.15 334.961 102.978 334.244C101.813 333.526 100.915 332.536 100.283 331.271C99.6578 330 99.3453 328.537 99.3453 326.882C99.3453 325.22 99.6649 323.754 100.304 322.482C100.943 321.204 101.845 320.21 103.01 319.499C104.182 318.782 105.567 318.423 107.165 318.423C108.493 318.423 109.668 318.668 110.691 319.158C111.721 319.641 112.541 320.327 113.152 321.214C113.763 322.095 114.111 323.125 114.196 324.304H110.51C110.361 323.516 110.006 322.859 109.445 322.333C108.891 321.8 108.149 321.534 107.218 321.534C106.43 321.534 105.737 321.747 105.141 322.173C104.544 322.592 104.079 323.196 103.745 323.984C103.418 324.773 103.255 325.717 103.255 326.818C103.255 327.933 103.418 328.892 103.745 329.695C104.072 330.49 104.53 331.104 105.119 331.538C105.716 331.964 106.416 332.177 107.218 332.177C107.786 332.177 108.294 332.07 108.742 331.857C109.196 331.637 109.576 331.321 109.882 330.909C110.187 330.497 110.396 329.996 110.51 329.407H114.196C114.104 330.565 113.763 331.591 113.173 332.486C112.584 333.374 111.781 334.07 110.766 334.574C109.75 335.071 108.557 335.32 107.186 335.32ZM119.952 335.33C118.915 335.33 117.981 335.146 117.15 334.776C116.326 334.4 115.673 333.846 115.19 333.114C114.714 332.383 114.476 331.481 114.476 330.408C114.476 329.485 114.646 328.722 114.987 328.118C115.328 327.514 115.793 327.031 116.383 326.669C116.972 326.307 117.636 326.033 118.375 325.849C119.121 325.657 119.891 325.518 120.687 325.433C121.646 325.334 122.423 325.245 123.02 325.167C123.616 325.082 124.05 324.954 124.32 324.783C124.597 324.606 124.735 324.332 124.735 323.963V323.899C124.735 323.097 124.497 322.475 124.021 322.035C123.545 321.594 122.86 321.374 121.965 321.374C121.021 321.374 120.271 321.58 119.717 321.992C119.17 322.404 118.801 322.891 118.609 323.452L115.008 322.94C115.293 321.946 115.761 321.115 116.415 320.447C117.068 319.773 117.867 319.268 118.812 318.935C119.756 318.594 120.8 318.423 121.944 318.423C122.732 318.423 123.517 318.516 124.298 318.7C125.08 318.885 125.793 319.19 126.44 319.616C127.086 320.036 127.604 320.607 127.995 321.332C128.393 322.056 128.592 322.962 128.592 324.048V335H124.884V332.752H124.756C124.522 333.207 124.192 333.633 123.766 334.031C123.347 334.421 122.817 334.737 122.178 334.979C121.546 335.213 120.804 335.33 119.952 335.33ZM120.953 332.496C121.727 332.496 122.398 332.344 122.967 332.038C123.535 331.726 123.972 331.314 124.277 330.803C124.589 330.291 124.746 329.734 124.746 329.13V327.202C124.625 327.301 124.419 327.393 124.128 327.479C123.844 327.564 123.524 327.638 123.169 327.702C122.814 327.766 122.462 327.823 122.114 327.873C121.766 327.923 121.464 327.965 121.209 328.001C120.633 328.079 120.119 328.207 119.664 328.384C119.209 328.562 118.851 328.81 118.588 329.13C118.325 329.442 118.194 329.847 118.194 330.344C118.194 331.055 118.453 331.591 118.972 331.953C119.49 332.315 120.151 332.496 120.953 332.496ZM134.206 313.182V335H130.349V313.182H134.206ZM143.296 335.32C141.655 335.32 140.238 334.979 139.045 334.297C137.859 333.608 136.947 332.635 136.307 331.378C135.668 330.114 135.349 328.626 135.349 326.914C135.349 325.231 135.668 323.754 136.307 322.482C136.954 321.204 137.856 320.21 139.013 319.499C140.171 318.782 141.531 318.423 143.094 318.423C144.102 318.423 145.054 318.587 145.949 318.913C146.851 319.233 147.646 319.73 148.335 320.405C149.031 321.08 149.578 321.939 149.976 322.983C150.373 324.02 150.572 325.256 150.572 326.69V327.873H137.16V325.273H146.876C146.868 324.535 146.709 323.878 146.396 323.303C146.084 322.72 145.647 322.262 145.086 321.928C144.532 321.594 143.886 321.428 143.147 321.428C142.359 321.428 141.666 321.619 141.069 322.003C140.473 322.379 140.008 322.876 139.674 323.494C139.347 324.105 139.18 324.776 139.173 325.508V327.777C139.173 328.729 139.347 329.545 139.695 330.227C140.043 330.902 140.53 331.42 141.155 331.783C141.78 332.138 142.511 332.315 143.349 332.315C143.91 332.315 144.418 332.237 144.873 332.081C145.327 331.918 145.721 331.68 146.055 331.367C146.389 331.055 146.641 330.668 146.812 330.206L150.412 330.611C150.185 331.562 149.752 332.393 149.113 333.104C148.481 333.807 147.671 334.354 146.684 334.744C145.697 335.128 144.567 335.32 143.296 335.32Z" fill="#313131"></path>
  <defs>
    <linearGradient id="paint0_linear_5531_432" x1="102.5" y1="455" x2="207.926" y2="247.012" gradientUnits="userSpaceOnUse">
      <stop stop-color="#FFD599"></stop>
      <stop offset="0.691739" stop-color="#FFA45B"></stop>
    </linearGradient>
    <linearGradient id="paint1_linear_5531_432" x1="246.002" y1="453.5" x2="263.392" y2="-54.5229" gradientUnits="userSpaceOnUse">
      <stop stop-color="#FFD599"></stop>
      <stop offset="1" stop-color="#FFA45B"></stop>
    </linearGradient>
    <clipPath id="clip0_5531_432">
      <rect width="603" height="466" fill="white" transform="matrix(-1 0 0 1 603 0)"></rect>
    </clipPath>
  </defs>
</svg>
