<?xml version="1.0" encoding="UTF-8"?>
<svg xmlns="http://www.w3.org/2000/svg" width="603" height="466" viewBox="0 0 603 466" fill="none">
  <g clip-path="url(#clip0_5531_430)">
    <path opacity="0.84" d="M215.472 58.6619L227.296 65.5741C234.689 69.8961 234.12 79.5988 226.114 82.6399C180.924 99.8061 67.354 140.669 52.9588 148.703C52.2648 149.09 51.6469 149.416 50.9285 149.756C40.3599 154.76 46.3823 162.693 51.3725 166.567C51.8013 166.9 52.2421 167.166 52.7245 167.415C92.3116 187.831 179.624 233.526 208.796 248.139C212.574 250.032 214.943 253.86 214.943 258.086V447.953C214.943 456.291 206.035 461.661 198.6 457.887C137.218 426.735 28.8295 380.163 11.524 372.923C10.574 372.525 9.69121 372.017 8.9142 371.341C0.837006 364.315 -0.725525 356.172 -0.45726 352.159C-0.4198 351.599 -0.367065 351.062 -0.367065 350.501V150.206C-0.367065 149.552 -0.446289 148.95 -0.477066 148.297C-0.815353 141.121 8.93823 133.604 14.6547 130.272C15.117 130.003 15.6014 129.782 16.102 129.593L206.034 57.8677C209.139 56.6953 212.607 56.9871 215.472 58.6619Z" fill="url(#paint0_linear_5531_430)"></path>
    <path d="M197.062 247.06C169.533 236.169 68.0782 188.018 8.42748 159.945C-4.24317 153.982 -4.09935 135.105 8.44494 128.88C86.3738 90.2128 219.976 11.3045 240.27 1.04241C241.824 0.256751 243.42 0.000422761 245.161 0.000423809L474.441 0.000471006C474.441 0.000471006 585.903 -2.52905 601.316 -0.112946C602.697 0.103676 602.529 0.926756 601.32 1.63066C534.253 40.6902 247.137 226.324 214.484 248.072C212.414 249.451 210.296 250.398 207.813 250.541C201.957 250.879 200.496 248.587 197.062 247.06Z" fill="url(#paint1_linear_5531_430)"></path>
  </g>
  <path d="M38.1044 283.182V305H34.152V283.182H38.1044ZM43.9505 295.412V305H40.094V288.636H43.78V291.417H43.9718C44.3482 290.501 44.9484 289.773 45.7722 289.233C46.6032 288.693 47.6295 288.423 48.8511 288.423C49.9803 288.423 50.964 288.665 51.8021 289.148C52.6472 289.631 53.3006 290.33 53.7623 291.246C54.231 292.163 54.4619 293.274 54.4548 294.581V305H50.5982V295.178C50.5982 294.084 50.3141 293.228 49.7459 292.61C49.1849 291.992 48.4072 291.683 47.4128 291.683C46.7381 291.683 46.138 291.832 45.6124 292.131C45.094 292.422 44.6856 292.844 44.3873 293.398C44.0961 293.952 43.9505 294.624 43.9505 295.412ZM64.4264 288.636V291.619H55.0194V288.636H64.4264ZM57.3419 284.716H61.1984V300.078C61.1984 300.597 61.2765 300.994 61.4328 301.271C61.5961 301.541 61.8092 301.726 62.072 301.825C62.3348 301.925 62.6259 301.974 62.9455 301.974C63.187 301.974 63.4072 301.957 63.6061 301.921C63.812 301.886 63.9683 301.854 64.0748 301.825L64.7247 304.84C64.5187 304.911 64.224 304.989 63.8404 305.075C63.464 305.16 63.0024 305.21 62.4555 305.224C61.4896 305.252 60.6196 305.107 59.8454 304.787C59.0713 304.46 58.4569 303.956 58.0024 303.274C57.5549 302.592 57.3348 301.74 57.3419 300.717V284.716ZM72.6002 305.32C70.9596 305.32 69.5427 304.979 68.3495 304.297C67.1634 303.608 66.2508 302.635 65.6116 301.378C64.9724 300.114 64.6528 298.626 64.6528 296.914C64.6528 295.231 64.9724 293.754 65.6116 292.482C66.2579 291.204 67.1599 290.21 68.3176 289.499C69.4752 288.782 70.8353 288.423 72.3978 288.423C73.4063 288.423 74.358 288.587 75.2529 288.913C76.1549 289.233 76.9504 289.73 77.6393 290.405C78.3353 291.08 78.8822 291.939 79.2799 292.983C79.6776 294.02 79.8765 295.256 79.8765 296.69V297.873H66.4639V295.273H76.1798C76.1727 294.535 76.0129 293.878 75.7004 293.303C75.3879 292.72 74.9511 292.262 74.39 291.928C73.836 291.594 73.1897 291.428 72.4511 291.428C71.6627 291.428 70.9703 291.619 70.3737 292.003C69.7771 292.379 69.3119 292.876 68.9781 293.494C68.6514 294.105 68.4845 294.776 68.4774 295.508V297.777C68.4774 298.729 68.6514 299.545 68.9994 300.227C69.3474 300.902 69.8339 301.42 70.4589 301.783C71.0839 302.138 71.8154 302.315 72.6535 302.315C73.2146 302.315 73.7224 302.237 74.1769 302.081C74.6315 301.918 75.0257 301.68 75.3595 301.367C75.6933 301.055 75.9454 300.668 76.1159 300.206L79.7167 300.611C79.4894 301.562 79.0562 302.393 78.417 303.104C77.7849 303.807 76.9752 304.354 75.988 304.744C75.0008 305.128 73.8715 305.32 72.6002 305.32ZM84.8756 283.182V305H81.0191V283.182H84.8756ZM90.5779 283.182V305H86.7214V283.182H90.5779ZM92.4236 305V288.636H96.2802V305H92.4236ZM94.3626 286.314C93.7518 286.314 93.2262 286.112 92.7859 285.707C92.3455 285.295 92.1253 284.801 92.1253 284.226C92.1253 283.643 92.3455 283.15 92.7859 282.745C93.2262 282.333 93.7518 282.127 94.3626 282.127C94.9805 282.127 95.506 282.333 95.9393 282.745C96.3796 283.15 96.5998 283.643 96.5998 284.226C96.5998 284.801 96.3796 285.295 95.9393 285.707C95.506 286.112 94.9805 286.314 94.3626 286.314ZM105.242 311.477C103.857 311.477 102.668 311.289 101.673 310.913C100.679 310.543 99.8802 310.046 99.2765 309.421C98.6728 308.796 98.2538 308.104 98.0194 307.344L101.492 306.502C101.649 306.822 101.876 307.138 102.174 307.45C102.473 307.77 102.874 308.033 103.378 308.239C103.889 308.452 104.532 308.558 105.306 308.558C106.4 308.558 107.306 308.292 108.023 307.759C108.74 307.234 109.099 306.367 109.099 305.16V302.06H108.907C108.708 302.457 108.417 302.866 108.034 303.285C107.657 303.704 107.156 304.055 106.531 304.339C105.914 304.624 105.136 304.766 104.198 304.766C102.941 304.766 101.801 304.471 100.779 303.881C99.763 303.285 98.9533 302.397 98.3496 301.218C97.753 300.032 97.4547 298.548 97.4547 296.765C97.4547 294.968 97.753 293.452 98.3496 292.216C98.9533 290.973 99.7665 290.032 100.789 289.393C101.812 288.746 102.952 288.423 104.209 288.423C105.168 288.423 105.956 288.587 106.574 288.913C107.199 289.233 107.696 289.62 108.066 290.075C108.435 290.522 108.715 290.945 108.907 291.342H109.12V288.636H112.923V305.266C112.923 306.665 112.59 307.823 111.922 308.739C111.254 309.656 110.342 310.341 109.184 310.795C108.026 311.25 106.713 311.477 105.242 311.477ZM105.274 301.74C106.091 301.74 106.787 301.541 107.362 301.143C107.938 300.746 108.374 300.174 108.673 299.428C108.971 298.683 109.12 297.788 109.12 296.744C109.12 295.714 108.971 294.812 108.673 294.038C108.382 293.263 107.948 292.663 107.373 292.237C106.805 291.804 106.105 291.587 105.274 291.587C104.415 291.587 103.698 291.811 103.122 292.259C102.547 292.706 102.114 293.32 101.823 294.102C101.531 294.876 101.386 295.756 101.386 296.744C101.386 297.745 101.531 298.622 101.823 299.375C102.121 300.121 102.558 300.703 103.133 301.122C103.715 301.534 104.429 301.74 105.274 301.74ZM122 305.32C120.36 305.32 118.943 304.979 117.75 304.297C116.563 303.608 115.651 302.635 115.012 301.378C114.372 300.114 114.053 298.626 114.053 296.914C114.053 295.231 114.372 293.754 115.012 292.482C115.658 291.204 116.56 290.21 117.718 289.499C118.875 288.782 120.235 288.423 121.798 288.423C122.806 288.423 123.758 288.587 124.653 288.913C125.555 289.233 126.35 289.73 127.039 290.405C127.735 291.08 128.282 291.939 128.68 292.983C129.078 294.02 129.277 295.256 129.277 296.69V297.873H115.864V295.273H125.58C125.573 294.535 125.413 293.878 125.1 293.303C124.788 292.72 124.351 292.262 123.79 291.928C123.236 291.594 122.59 291.428 121.851 291.428C121.063 291.428 120.37 291.619 119.774 292.003C119.177 292.379 118.712 292.876 118.378 293.494C118.051 294.105 117.884 294.776 117.877 295.508V297.777C117.877 298.729 118.051 299.545 118.399 300.227C118.747 300.902 119.234 301.42 119.859 301.783C120.484 302.138 121.215 302.315 122.053 302.315C122.615 302.315 123.122 302.237 123.577 302.081C124.031 301.918 124.426 301.68 124.759 301.367C125.093 301.055 125.345 300.668 125.516 300.206L129.117 300.611C128.889 301.562 128.456 302.393 127.817 303.104C127.185 303.807 126.375 304.354 125.388 304.744C124.401 305.128 123.272 305.32 122 305.32ZM134.276 295.412V305H130.419V288.636H134.105V291.417H134.297C134.673 290.501 135.274 289.773 136.097 289.233C136.928 288.693 137.955 288.423 139.176 288.423C140.305 288.423 141.289 288.665 142.127 289.148C142.972 289.631 143.626 290.33 144.087 291.246C144.556 292.163 144.787 293.274 144.78 294.581V305H140.923V295.178C140.923 294.084 140.639 293.228 140.071 292.61C139.51 291.992 138.732 291.683 137.738 291.683C137.063 291.683 136.463 291.832 135.938 292.131C135.419 292.422 135.011 292.844 134.712 293.398C134.421 293.952 134.276 294.624 134.276 295.412ZM153.718 305.32C152.085 305.32 150.682 304.961 149.51 304.244C148.345 303.526 147.447 302.536 146.815 301.271C146.19 300 145.877 298.537 145.877 296.882C145.877 295.22 146.197 293.754 146.836 292.482C147.475 291.204 148.377 290.21 149.542 289.499C150.714 288.782 152.099 288.423 153.697 288.423C155.025 288.423 156.2 288.668 157.223 289.158C158.253 289.641 159.073 290.327 159.684 291.214C160.295 292.095 160.643 293.125 160.728 294.304H157.042C156.893 293.516 156.538 292.859 155.977 292.333C155.423 291.8 154.681 291.534 153.75 291.534C152.962 291.534 152.269 291.747 151.673 292.173C151.076 292.592 150.611 293.196 150.277 293.984C149.95 294.773 149.787 295.717 149.787 296.818C149.787 297.933 149.95 298.892 150.277 299.695C150.604 300.49 151.062 301.104 151.651 301.538C152.248 301.964 152.948 302.177 153.75 302.177C154.318 302.177 154.826 302.07 155.274 301.857C155.728 301.637 156.108 301.321 156.413 300.909C156.719 300.497 156.928 299.996 157.042 299.407H160.728C160.636 300.565 160.295 301.591 159.705 302.486C159.116 303.374 158.313 304.07 157.298 304.574C156.282 305.071 155.089 305.32 153.718 305.32ZM169.019 305.32C167.379 305.32 165.962 304.979 164.768 304.297C163.582 303.608 162.67 302.635 162.03 301.378C161.391 300.114 161.072 298.626 161.072 296.914C161.072 295.231 161.391 293.754 162.03 292.482C162.677 291.204 163.579 290.21 164.736 289.499C165.894 288.782 167.254 288.423 168.817 288.423C169.825 288.423 170.777 288.587 171.672 288.913C172.574 289.233 173.369 289.73 174.058 290.405C174.754 291.08 175.301 291.939 175.699 292.983C176.097 294.02 176.295 295.256 176.295 296.69V297.873H162.883V295.273H172.599C172.592 294.535 172.432 293.878 172.119 293.303C171.807 292.72 171.37 292.262 170.809 291.928C170.255 291.594 169.609 291.428 168.87 291.428C168.082 291.428 167.389 291.619 166.793 292.003C166.196 292.379 165.731 292.876 165.397 293.494C165.07 294.105 164.903 294.776 164.896 295.508V297.777C164.896 298.729 165.07 299.545 165.418 300.227C165.766 300.902 166.253 301.42 166.878 301.783C167.503 302.138 168.234 302.315 169.072 302.315C169.633 302.315 170.141 302.237 170.596 302.081C171.05 301.918 171.445 301.68 171.778 301.367C172.112 301.055 172.364 300.668 172.535 300.206L176.136 300.611C175.908 301.562 175.475 302.393 174.836 303.104C174.204 303.807 173.394 304.354 172.407 304.744C171.42 305.128 170.29 305.32 169.019 305.32ZM33.1932 322.495V319.182H50.6009V322.495H43.8572V341H39.9368V322.495H33.1932ZM55.5228 331.412V341H51.6662V319.182H55.4375V327.417H55.6293C56.0128 326.494 56.6059 325.766 57.4084 325.233C58.2181 324.693 59.2479 324.423 60.4979 324.423C61.6343 324.423 62.625 324.661 63.4702 325.137C64.3154 325.613 64.9688 326.309 65.4304 327.225C65.8992 328.141 66.1336 329.26 66.1336 330.581V341H62.277V331.178C62.277 330.077 61.9929 329.221 61.4247 328.61C60.8637 327.992 60.0753 327.683 59.0597 327.683C58.3779 327.683 57.7671 327.832 57.2273 328.131C56.6946 328.422 56.2756 328.844 55.9702 329.398C55.6719 329.952 55.5228 330.624 55.5228 331.412ZM72.6535 341.33C71.6165 341.33 70.6826 341.146 69.8516 340.776C69.0278 340.4 68.3743 339.846 67.8914 339.114C67.4155 338.383 67.1776 337.481 67.1776 336.408C67.1776 335.485 67.3481 334.722 67.689 334.118C68.0299 333.514 68.4951 333.031 69.0846 332.669C69.6741 332.307 70.3381 332.033 71.0768 331.849C71.8225 331.657 72.5931 331.518 73.3886 331.433C74.3474 331.334 75.1251 331.245 75.7216 331.167C76.3182 331.082 76.7515 330.954 77.0214 330.783C77.2984 330.606 77.4368 330.332 77.4368 329.963V329.899C77.4368 329.097 77.1989 328.475 76.7231 328.035C76.2472 327.594 75.5618 327.374 74.667 327.374C73.7224 327.374 72.9731 327.58 72.4191 327.992C71.8722 328.404 71.5029 328.891 71.3111 329.452L67.7103 328.94C67.9944 327.946 68.4631 327.115 69.1165 326.447C69.7699 325.773 70.569 325.268 71.5136 324.935C72.4582 324.594 73.5022 324.423 74.6457 324.423C75.434 324.423 76.2188 324.516 77.0001 324.7C77.7813 324.885 78.4951 325.19 79.1414 325.616C79.7877 326.036 80.3062 326.607 80.6968 327.332C81.0945 328.056 81.2934 328.962 81.2934 330.048V341H77.586V338.752H77.4582C77.2238 339.207 76.8935 339.633 76.4674 340.031C76.0484 340.421 75.5192 340.737 74.88 340.979C74.2479 341.213 73.5057 341.33 72.6535 341.33ZM73.6549 338.496C74.429 338.496 75.1002 338.344 75.6684 338.038C76.2366 337.726 76.6734 337.314 76.9788 336.803C77.2913 336.291 77.4475 335.734 77.4475 335.13V333.202C77.3268 333.301 77.1208 333.393 76.8296 333.479C76.5455 333.564 76.2259 333.638 75.8708 333.702C75.5157 333.766 75.1641 333.823 74.8161 333.873C74.4681 333.923 74.1663 333.965 73.9106 334.001C73.3353 334.079 72.8204 334.207 72.3658 334.384C71.9113 334.562 71.5526 334.81 71.2898 335.13C71.027 335.442 70.8957 335.847 70.8957 336.344C70.8957 337.055 71.1549 337.591 71.6734 337.953C72.1918 338.315 72.8523 338.496 73.6549 338.496ZM91.2224 324.636V327.619H81.8154V324.636H91.2224ZM84.1379 320.716H87.9944V336.078C87.9944 336.597 88.0725 336.994 88.2288 337.271C88.3921 337.541 88.6052 337.726 88.868 337.825C89.1308 337.925 89.422 337.974 89.7416 337.974C89.983 337.974 90.2032 337.957 90.4021 337.921C90.608 337.886 90.7643 337.854 90.8708 337.825L91.5207 340.84C91.3147 340.911 91.02 340.989 90.6364 341.075C90.26 341.16 89.7984 341.21 89.2515 341.224C88.2856 341.252 87.4156 341.107 86.6414 340.787C85.8673 340.46 85.2529 339.956 84.7984 339.274C84.3509 338.592 84.1308 337.74 84.1379 336.717V320.716ZM102.411 341L96.2535 319.182H100.504L104.435 335.215H104.638L108.835 319.182H112.702L116.91 335.226H117.102L121.033 319.182H125.284L119.126 341H115.227L110.859 325.691H110.689L106.31 341H102.411ZM131.202 341.32C129.604 341.32 128.219 340.968 127.047 340.265C125.875 339.562 124.966 338.578 124.32 337.314C123.681 336.05 123.361 334.572 123.361 332.882C123.361 331.192 123.681 329.711 124.32 328.44C124.966 327.168 125.875 326.181 127.047 325.478C128.219 324.775 129.604 324.423 131.202 324.423C132.8 324.423 134.185 324.775 135.357 325.478C136.529 326.181 137.434 327.168 138.074 328.44C138.72 329.711 139.043 331.192 139.043 332.882C139.043 334.572 138.72 336.05 138.074 337.314C137.434 338.578 136.529 339.562 135.357 340.265C134.185 340.968 132.8 341.32 131.202 341.32ZM131.223 338.23C132.09 338.23 132.814 337.992 133.397 337.516C133.979 337.033 134.412 336.387 134.696 335.577C134.988 334.768 135.133 333.866 135.133 332.871C135.133 331.87 134.988 330.964 134.696 330.155C134.412 329.338 133.979 328.688 133.397 328.205C132.814 327.722 132.09 327.481 131.223 327.481C130.336 327.481 129.597 327.722 129.007 328.205C128.425 328.688 127.988 329.338 127.697 330.155C127.413 330.964 127.271 331.87 127.271 332.871C127.271 333.866 127.413 334.768 127.697 335.577C127.988 336.387 128.425 337.033 129.007 337.516C129.597 337.992 130.336 338.23 131.223 338.23ZM140.196 341V324.636H143.936V327.364H144.106C144.404 326.419 144.916 325.691 145.64 325.18C146.372 324.661 147.206 324.402 148.144 324.402C148.357 324.402 148.595 324.413 148.857 324.434C149.127 324.448 149.351 324.473 149.529 324.509V328.056C149.365 327.999 149.106 327.95 148.751 327.907C148.403 327.857 148.066 327.832 147.739 327.832C147.036 327.832 146.404 327.985 145.843 328.29C145.289 328.589 144.852 329.004 144.532 329.537C144.213 330.07 144.053 330.684 144.053 331.38V341H140.196ZM153.486 335.865L153.476 331.21H154.094L159.974 324.636H164.481L157.247 332.69H156.448L153.486 335.865ZM149.971 341V319.182H153.827V341H149.971ZM160.241 341L154.914 333.553L157.513 330.837L164.854 341H160.241ZM177.864 328.962L174.348 329.345C174.249 328.99 174.075 328.656 173.826 328.344C173.585 328.031 173.258 327.779 172.846 327.587C172.434 327.396 171.93 327.3 171.334 327.3C170.531 327.3 169.856 327.474 169.309 327.822C168.77 328.17 168.503 328.621 168.51 329.175C168.503 329.651 168.677 330.038 169.032 330.336C169.395 330.634 169.991 330.879 170.822 331.071L173.613 331.668C175.162 332.001 176.312 332.531 177.065 333.255C177.825 333.979 178.209 334.928 178.216 336.099C178.209 337.129 177.907 338.038 177.31 338.827C176.721 339.608 175.9 340.219 174.849 340.659C173.798 341.099 172.591 341.32 171.227 341.32C169.224 341.32 167.612 340.901 166.39 340.062C165.169 339.217 164.441 338.042 164.206 336.536L167.967 336.174C168.138 336.913 168.5 337.47 169.054 337.847C169.608 338.223 170.329 338.411 171.216 338.411C172.133 338.411 172.868 338.223 173.422 337.847C173.983 337.47 174.263 337.005 174.263 336.451C174.263 335.982 174.082 335.595 173.72 335.29C173.365 334.984 172.811 334.75 172.058 334.587L169.267 334.001C167.697 333.674 166.536 333.124 165.783 332.349C165.03 331.568 164.657 330.581 164.664 329.388C164.657 328.379 164.931 327.506 165.485 326.767C166.046 326.021 166.824 325.446 167.818 325.041C168.819 324.629 169.973 324.423 171.28 324.423C173.198 324.423 174.707 324.832 175.808 325.648C176.916 326.465 177.601 327.57 177.864 328.962Z" fill="#313131"></path>
  <defs>
    <linearGradient id="paint0_linear_5531_430" x1="102.5" y1="455" x2="207.926" y2="247.012" gradientUnits="userSpaceOnUse">
      <stop stop-color="#FFD599"></stop>
      <stop offset="0.691739" stop-color="#FFA45B"></stop>
    </linearGradient>
    <linearGradient id="paint1_linear_5531_430" x1="246.002" y1="453.5" x2="263.392" y2="-54.5229" gradientUnits="userSpaceOnUse">
      <stop stop-color="#FFD599"></stop>
      <stop offset="1" stop-color="#FFA45B"></stop>
    </linearGradient>
    <clipPath id="clip0_5531_430">
      <rect width="603" height="466" fill="white" transform="matrix(-1 0 0 1 603 0)"></rect>
    </clipPath>
  </defs>
</svg>
