<?xml version="1.0" encoding="UTF-8"?>
<svg xmlns="http://www.w3.org/2000/svg" width="609" height="466" viewBox="0 0 609 466" fill="none">
  <g clip-path="url(#clip0_5531_438)">
    <path d="M393.471 61.6478L381.647 68.56C374.253 72.882 374.822 82.5847 382.828 85.6258C428.019 102.792 541.588 143.655 555.984 151.689C556.678 152.076 557.296 152.402 558.014 152.742C568.582 157.746 562.56 165.679 557.57 169.553C557.141 169.885 556.7 170.152 556.218 170.401C516.631 190.817 429.318 236.512 400.147 251.125C396.368 253.018 394 256.846 394 261.072V450.939C394 459.277 402.908 464.647 410.343 460.873C471.725 429.72 580.113 383.148 597.418 375.909C598.368 375.511 599.251 375.003 600.028 374.327C608.105 367.301 609.668 359.158 609.4 355.145C609.362 354.585 609.309 354.048 609.309 353.486V153.191C609.309 152.538 609.389 151.936 609.419 151.283C609.758 144.107 600.004 136.59 594.288 133.258C593.825 132.989 593.341 132.767 592.84 132.578L402.908 60.8535C399.804 59.6811 396.336 59.973 393.471 61.6478Z" fill="url(#paint0_linear_5531_438)"></path>
    <path d="M411.881 250.046C439.41 239.154 540.865 191.003 600.515 162.931C613.186 156.968 613.049 138.075 600.509 131.841C521.157 92.3936 381.939 10.2272 361.258 -0.249727C359.705 -1.03655 358.175 -1.29295 356.433 -1.29178C289.49 -1.24694 136.243 0.499813 136.243 0.499813C136.243 0.499813 -6.32336 -4.1207 0.500595 0.499957C64.3168 37.3443 361.245 228.976 394.461 251.062C396.532 252.439 398.647 253.383 401.13 253.526C406.986 253.865 408.447 251.572 411.881 250.046Z" fill="url(#paint1_linear_5531_438)"></path>
  </g>
  <path d="M431.667 312V290.182H440.019C441.596 290.182 442.906 290.43 443.95 290.928C445.001 291.418 445.786 292.089 446.304 292.941C446.83 293.793 447.093 294.759 447.093 295.839C447.093 296.727 446.922 297.487 446.581 298.119C446.241 298.744 445.782 299.251 445.207 299.642C444.632 300.033 443.989 300.313 443.279 300.484V300.697C444.053 300.739 444.795 300.977 445.505 301.411C446.223 301.837 446.809 302.44 447.263 303.222C447.718 304.003 447.945 304.947 447.945 306.055C447.945 307.185 447.672 308.2 447.125 309.102C446.578 309.997 445.754 310.704 444.653 311.222C443.552 311.741 442.167 312 440.498 312H431.667ZM435.619 308.697H439.87C441.304 308.697 442.338 308.424 442.97 307.877C443.609 307.323 443.929 306.613 443.929 305.746C443.929 305.1 443.769 304.518 443.449 303.999C443.13 303.474 442.675 303.062 442.086 302.763C441.496 302.458 440.793 302.305 439.976 302.305H435.619V308.697ZM435.619 299.461H439.529C440.211 299.461 440.825 299.337 441.372 299.088C441.919 298.832 442.348 298.474 442.661 298.012C442.981 297.543 443.14 296.989 443.14 296.35C443.14 295.505 442.842 294.809 442.245 294.262C441.656 293.715 440.779 293.442 439.614 293.442H435.619V299.461ZM458.523 305.118V295.636H462.379V312H458.64V309.092H458.469C458.1 310.008 457.493 310.757 456.648 311.339C455.81 311.922 454.776 312.213 453.548 312.213C452.475 312.213 451.527 311.975 450.703 311.499C449.886 311.016 449.247 310.317 448.785 309.401C448.324 308.477 448.093 307.362 448.093 306.055V295.636H451.95V305.459C451.95 306.496 452.234 307.32 452.802 307.93C453.37 308.541 454.116 308.847 455.039 308.847C455.607 308.847 456.158 308.708 456.69 308.431C457.223 308.154 457.66 307.742 458.001 307.195C458.349 306.641 458.523 305.949 458.523 305.118ZM463.225 312V295.636H467.081V312H463.225ZM465.164 293.314C464.553 293.314 464.027 293.112 463.587 292.707C463.147 292.295 462.927 291.801 462.927 291.226C462.927 290.643 463.147 290.15 463.587 289.745C464.027 289.333 464.553 289.127 465.164 289.127C465.782 289.127 466.307 289.333 466.741 289.745C467.181 290.15 467.401 290.643 467.401 291.226C467.401 291.801 467.181 292.295 466.741 292.707C466.307 293.112 465.782 293.314 465.164 293.314ZM471.784 290.182V312H467.927V290.182H471.784ZM480.801 295.636V298.619H471.394V295.636H480.801ZM473.716 291.716H477.573V307.078C477.573 307.597 477.651 307.994 477.807 308.271C477.97 308.541 478.183 308.726 478.446 308.825C478.709 308.925 479 308.974 479.32 308.974C479.561 308.974 479.781 308.957 479.98 308.921C480.186 308.886 480.343 308.854 480.449 308.825L481.099 311.84C480.893 311.911 480.598 311.989 480.215 312.075C479.838 312.16 479.377 312.21 478.83 312.224C477.864 312.252 476.994 312.107 476.22 311.787C475.446 311.46 474.831 310.956 474.377 310.274C473.929 309.592 473.709 308.74 473.716 307.717V291.716ZM492.365 312.32C490.767 312.32 489.382 311.968 488.21 311.265C487.038 310.562 486.129 309.578 485.483 308.314C484.844 307.05 484.524 305.572 484.524 303.882C484.524 302.192 484.844 300.711 485.483 299.44C486.129 298.168 487.038 297.181 488.21 296.478C489.382 295.775 490.767 295.423 492.365 295.423C493.963 295.423 495.348 295.775 496.52 296.478C497.692 297.181 498.597 298.168 499.237 299.44C499.883 300.711 500.206 302.192 500.206 303.882C500.206 305.572 499.883 307.05 499.237 308.314C498.597 309.578 497.692 310.562 496.52 311.265C495.348 311.968 493.963 312.32 492.365 312.32ZM492.386 309.23C493.253 309.23 493.977 308.992 494.56 308.516C495.142 308.033 495.575 307.387 495.859 306.577C496.151 305.768 496.296 304.866 496.296 303.871C496.296 302.87 496.151 301.964 495.859 301.155C495.575 300.338 495.142 299.688 494.56 299.205C493.977 298.722 493.253 298.481 492.386 298.481C491.499 298.481 490.76 298.722 490.171 299.205C489.588 299.688 489.151 300.338 488.86 301.155C488.576 301.964 488.434 302.87 488.434 303.871C488.434 304.866 488.576 305.768 488.86 306.577C489.151 307.387 489.588 308.033 490.171 308.516C490.76 308.992 491.499 309.23 492.386 309.23ZM504.216 302.412V312H500.359V295.636H504.045V298.417H504.237C504.614 297.501 505.214 296.773 506.038 296.233C506.869 295.693 507.895 295.423 509.116 295.423C510.246 295.423 511.229 295.665 512.067 296.148C512.913 296.631 513.566 297.33 514.028 298.246C514.496 299.163 514.727 300.274 514.72 301.581V312H510.864V302.178C510.864 301.084 510.579 300.228 510.011 299.61C509.45 298.992 508.673 298.683 507.678 298.683C507.003 298.683 506.403 298.832 505.878 299.131C505.359 299.422 504.951 299.844 504.653 300.398C504.361 300.952 504.216 301.624 504.216 302.412ZM528.013 295.636V298.619H518.606V295.636H528.013ZM520.929 291.716H524.785V307.078C524.785 307.597 524.863 307.994 525.02 308.271C525.183 308.541 525.396 308.726 525.659 308.825C525.922 308.925 526.213 308.974 526.532 308.974C526.774 308.974 526.994 308.957 527.193 308.921C527.399 308.886 527.555 308.854 527.662 308.825L528.311 311.84C528.105 311.911 527.811 311.989 527.427 312.075C527.051 312.16 526.589 312.21 526.042 312.224C525.076 312.252 524.206 312.107 523.432 311.787C522.658 311.46 522.044 310.956 521.589 310.274C521.142 309.592 520.922 308.74 520.929 307.717V291.716ZM528.118 312V295.636H531.858V298.364H532.028C532.327 297.419 532.838 296.691 533.562 296.18C534.294 295.661 535.128 295.402 536.066 295.402C536.279 295.402 536.517 295.413 536.78 295.434C537.05 295.448 537.273 295.473 537.451 295.509V299.056C537.287 298.999 537.028 298.95 536.673 298.907C536.325 298.857 535.988 298.832 535.661 298.832C534.958 298.832 534.326 298.985 533.765 299.29C533.211 299.589 532.774 300.004 532.454 300.537C532.135 301.07 531.975 301.684 531.975 302.38V312H528.118ZM547.323 305.118V295.636H551.179V312H547.44V309.092H547.269C546.9 310.008 546.293 310.757 545.448 311.339C544.61 311.922 543.576 312.213 542.348 312.213C541.275 312.213 540.327 311.975 539.503 311.499C538.686 311.016 538.047 310.317 537.585 309.401C537.124 308.477 536.893 307.362 536.893 306.055V295.636H540.75V305.459C540.75 306.496 541.034 307.32 541.602 307.93C542.17 308.541 542.916 308.847 543.839 308.847C544.407 308.847 544.958 308.708 545.49 308.431C546.023 308.154 546.46 307.742 546.801 307.195C547.149 306.641 547.323 305.949 547.323 305.118ZM564.958 299.962L561.443 300.345C561.343 299.99 561.169 299.656 560.921 299.344C560.679 299.031 560.352 298.779 559.94 298.587C559.528 298.396 559.024 298.3 558.428 298.3C557.625 298.3 556.95 298.474 556.403 298.822C555.864 299.17 555.597 299.621 555.604 300.175C555.597 300.651 555.771 301.038 556.126 301.336C556.489 301.634 557.085 301.879 557.916 302.071L560.707 302.668C562.256 303.001 563.406 303.531 564.159 304.255C564.919 304.979 565.303 305.928 565.31 307.099C565.303 308.129 565.001 309.038 564.404 309.827C563.815 310.608 562.994 311.219 561.943 311.659C560.892 312.099 559.685 312.32 558.321 312.32C556.318 312.32 554.706 311.901 553.484 311.062C552.263 310.217 551.535 309.042 551.3 307.536L555.061 307.174C555.232 307.913 555.594 308.47 556.148 308.847C556.702 309.223 557.423 309.411 558.31 309.411C559.227 309.411 559.962 309.223 560.516 308.847C561.077 308.47 561.357 308.005 561.357 307.451C561.357 306.982 561.176 306.595 560.814 306.29C560.459 305.984 559.905 305.75 559.152 305.587L556.361 305.001C554.791 304.674 553.63 304.124 552.877 303.349C552.124 302.568 551.751 301.581 551.759 300.388C551.751 299.379 552.025 298.506 552.579 297.767C553.14 297.021 553.918 296.446 554.912 296.041C555.913 295.629 557.068 295.423 558.374 295.423C560.292 295.423 561.801 295.832 562.902 296.648C564.01 297.465 564.695 298.57 564.958 299.962ZM573.541 295.636V298.619H564.134V295.636H573.541ZM566.456 291.716H570.313V307.078C570.313 307.597 570.391 307.994 570.547 308.271C570.711 308.541 570.924 308.726 571.187 308.825C571.449 308.925 571.741 308.974 572.06 308.974C572.302 308.974 572.522 308.957 572.721 308.921C572.927 308.886 573.083 308.854 573.189 308.825L573.839 311.84C573.633 311.911 573.339 311.989 572.955 312.075C572.579 312.16 572.117 312.21 571.57 312.224C570.604 312.252 569.734 312.107 568.96 311.787C568.186 311.46 567.571 310.956 567.117 310.274C566.669 309.592 566.449 308.74 566.456 307.717V291.716ZM436.205 348.33C435.168 348.33 434.234 348.146 433.403 347.776C432.579 347.4 431.926 346.846 431.443 346.114C430.967 345.383 430.729 344.481 430.729 343.408C430.729 342.485 430.9 341.722 431.241 341.118C431.581 340.514 432.047 340.031 432.636 339.669C433.226 339.307 433.89 339.033 434.628 338.849C435.374 338.657 436.145 338.518 436.94 338.433C437.899 338.334 438.677 338.245 439.273 338.167C439.87 338.082 440.303 337.954 440.573 337.783C440.85 337.606 440.988 337.332 440.988 336.963V336.899C440.988 336.097 440.75 335.475 440.275 335.035C439.799 334.594 439.113 334.374 438.218 334.374C437.274 334.374 436.525 334.58 435.971 334.992C435.424 335.404 435.054 335.891 434.863 336.452L431.262 335.94C431.546 334.946 432.015 334.115 432.668 333.447C433.321 332.773 434.12 332.268 435.065 331.935C436.01 331.594 437.054 331.423 438.197 331.423C438.986 331.423 439.77 331.516 440.552 331.7C441.333 331.885 442.047 332.19 442.693 332.616C443.339 333.036 443.858 333.607 444.248 334.332C444.646 335.056 444.845 335.962 444.845 337.048V348H441.138V345.752H441.01C440.775 346.207 440.445 346.633 440.019 347.031C439.6 347.421 439.071 347.737 438.432 347.979C437.799 348.213 437.057 348.33 436.205 348.33ZM437.206 345.496C437.981 345.496 438.652 345.344 439.22 345.038C439.788 344.726 440.225 344.314 440.53 343.803C440.843 343.291 440.999 342.734 440.999 342.13V340.202C440.878 340.301 440.672 340.393 440.381 340.479C440.097 340.564 439.777 340.638 439.422 340.702C439.067 340.766 438.716 340.823 438.368 340.873C438.02 340.923 437.718 340.965 437.462 341.001C436.887 341.079 436.372 341.207 435.917 341.384C435.463 341.562 435.104 341.81 434.841 342.13C434.579 342.442 434.447 342.847 434.447 343.344C434.447 344.055 434.706 344.591 435.225 344.953C435.743 345.315 436.404 345.496 437.206 345.496ZM449.459 338.412V348H445.603V331.636H449.289V334.417H449.481C449.857 333.501 450.457 332.773 451.281 332.233C452.112 331.693 453.138 331.423 454.36 331.423C455.489 331.423 456.473 331.665 457.311 332.148C458.156 332.631 458.809 333.33 459.271 334.246C459.74 335.163 459.971 336.274 459.964 337.581V348H456.107V338.178C456.107 337.084 455.823 336.228 455.255 335.61C454.694 334.992 453.916 334.683 452.922 334.683C452.247 334.683 451.647 334.832 451.121 335.131C450.603 335.422 450.194 335.844 449.896 336.398C449.605 336.952 449.459 337.624 449.459 338.412ZM466.836 348.288C465.551 348.288 464.4 347.957 463.385 347.297C462.369 346.636 461.567 345.678 460.977 344.42C460.388 343.163 460.093 341.636 460.093 339.839C460.093 338.021 460.391 336.487 460.988 335.237C461.591 333.98 462.405 333.032 463.427 332.393C464.45 331.746 465.59 331.423 466.847 331.423C467.806 331.423 468.594 331.587 469.212 331.913C469.83 332.233 470.32 332.62 470.682 333.075C471.045 333.522 471.325 333.945 471.524 334.342H471.684V326.182H475.551V348H471.758V345.422H471.524C471.325 345.82 471.037 346.242 470.661 346.69C470.285 347.13 469.787 347.506 469.17 347.819C468.552 348.131 467.774 348.288 466.836 348.288ZM467.912 345.124C468.729 345.124 469.425 344.903 470.001 344.463C470.576 344.016 471.013 343.394 471.311 342.599C471.609 341.803 471.758 340.876 471.758 339.818C471.758 338.76 471.609 337.84 471.311 337.059C471.02 336.278 470.586 335.67 470.011 335.237C469.443 334.804 468.743 334.587 467.912 334.587C467.053 334.587 466.336 334.811 465.76 335.259C465.185 335.706 464.752 336.324 464.461 337.112C464.17 337.901 464.024 338.803 464.024 339.818C464.024 340.841 464.17 341.754 464.461 342.556C464.759 343.352 465.196 343.98 465.771 344.442C466.353 344.896 467.067 345.124 467.912 345.124ZM480.862 348V331.636H484.601V334.364H484.772C485.07 333.419 485.581 332.691 486.306 332.18C487.037 331.661 487.872 331.402 488.809 331.402C489.022 331.402 489.26 331.413 489.523 331.434C489.793 331.448 490.017 331.473 490.194 331.509V335.056C490.031 334.999 489.772 334.95 489.417 334.907C489.069 334.857 488.731 334.832 488.404 334.832C487.701 334.832 487.069 334.985 486.508 335.29C485.954 335.589 485.517 336.004 485.198 336.537C484.878 337.07 484.718 337.684 484.718 338.38V348H480.862ZM496.207 348.32C494.566 348.32 493.149 347.979 491.956 347.297C490.77 346.608 489.857 345.635 489.218 344.378C488.579 343.114 488.259 341.626 488.259 339.914C488.259 338.231 488.579 336.754 489.218 335.482C489.865 334.204 490.767 333.21 491.924 332.499C493.082 331.782 494.442 331.423 496.004 331.423C497.013 331.423 497.965 331.587 498.86 331.913C499.762 332.233 500.557 332.73 501.246 333.405C501.942 334.08 502.489 334.939 502.887 335.983C503.284 337.02 503.483 338.256 503.483 339.69V340.873H490.071V338.273H499.786C499.779 337.535 499.62 336.878 499.307 336.303C498.995 335.72 498.558 335.262 497.997 334.928C497.443 334.594 496.796 334.428 496.058 334.428C495.269 334.428 494.577 334.619 493.98 335.003C493.384 335.379 492.919 335.876 492.585 336.494C492.258 337.105 492.091 337.776 492.084 338.508V340.777C492.084 341.729 492.258 342.545 492.606 343.227C492.954 343.902 493.441 344.42 494.066 344.783C494.691 345.138 495.422 345.315 496.26 345.315C496.821 345.315 497.329 345.237 497.784 345.081C498.238 344.918 498.632 344.68 498.966 344.367C499.3 344.055 499.552 343.668 499.723 343.206L503.323 343.611C503.096 344.562 502.663 345.393 502.024 346.104C501.392 346.807 500.582 347.354 499.595 347.744C498.607 348.128 497.478 348.32 496.207 348.32ZM516.559 335.962L513.043 336.345C512.944 335.99 512.77 335.656 512.521 335.344C512.28 335.031 511.953 334.779 511.541 334.587C511.129 334.396 510.625 334.3 510.028 334.3C509.226 334.3 508.551 334.474 508.004 334.822C507.465 335.17 507.198 335.621 507.205 336.175C507.198 336.651 507.372 337.038 507.727 337.336C508.09 337.634 508.686 337.879 509.517 338.071L512.308 338.668C513.857 339.001 515.007 339.531 515.76 340.255C516.52 340.979 516.903 341.928 516.911 343.099C516.903 344.129 516.602 345.038 516.005 345.827C515.416 346.608 514.595 347.219 513.544 347.659C512.493 348.099 511.286 348.32 509.922 348.32C507.919 348.32 506.307 347.901 505.085 347.062C503.864 346.217 503.136 345.042 502.901 343.536L506.662 343.174C506.832 343.913 507.195 344.47 507.749 344.847C508.303 345.223 509.024 345.411 509.911 345.411C510.827 345.411 511.563 345.223 512.117 344.847C512.678 344.47 512.958 344.005 512.958 343.451C512.958 342.982 512.777 342.595 512.415 342.29C512.06 341.984 511.506 341.75 510.753 341.587L507.962 341.001C506.392 340.674 505.231 340.124 504.478 339.349C503.725 338.568 503.352 337.581 503.359 336.388C503.352 335.379 503.626 334.506 504.18 333.767C504.741 333.021 505.519 332.446 506.513 332.041C507.514 331.629 508.668 331.423 509.975 331.423C511.893 331.423 513.402 331.832 514.503 332.648C515.611 333.465 516.296 334.57 516.559 335.962ZM527.4 341.118V331.636H531.257V348H527.518V345.092H527.347C526.978 346.008 526.37 346.757 525.525 347.339C524.687 347.922 523.654 348.213 522.425 348.213C521.353 348.213 520.405 347.975 519.581 347.499C518.764 347.016 518.125 346.317 517.663 345.401C517.201 344.477 516.971 343.362 516.971 342.055V331.636H520.827V341.459C520.827 342.496 521.111 343.32 521.679 343.93C522.248 344.541 522.993 344.847 523.917 344.847C524.485 344.847 525.035 344.708 525.568 344.431C526.101 344.154 526.537 343.742 526.878 343.195C527.226 342.641 527.4 341.949 527.4 341.118ZM535.959 326.182V348H532.103V326.182H535.959ZM544.976 331.636V334.619H535.569V331.636H544.976ZM537.892 327.716H541.748V343.078C541.748 343.597 541.826 343.994 541.982 344.271C542.146 344.541 542.359 344.726 542.622 344.825C542.884 344.925 543.176 344.974 543.495 344.974C543.737 344.974 543.957 344.957 544.156 344.921C544.362 344.886 544.518 344.854 544.624 344.825L545.274 347.84C545.068 347.911 544.774 347.989 544.39 348.075C544.014 348.16 543.552 348.21 543.005 348.224C542.039 348.252 541.169 348.107 540.395 347.787C539.621 347.46 539.007 346.956 538.552 346.274C538.105 345.592 537.884 344.74 537.892 343.717V327.716ZM557.78 335.962L554.265 336.345C554.165 335.99 553.991 335.656 553.743 335.344C553.501 335.031 553.174 334.779 552.762 334.587C552.351 334.396 551.846 334.3 551.25 334.3C550.447 334.3 549.772 334.474 549.226 334.822C548.686 335.17 548.419 335.621 548.427 336.175C548.419 336.651 548.593 337.038 548.949 337.336C549.311 337.634 549.907 337.879 550.738 338.071L553.529 338.668C555.078 339.001 556.228 339.531 556.981 340.255C557.741 340.979 558.125 341.928 558.132 343.099C558.125 344.129 557.823 345.038 557.226 345.827C556.637 346.608 555.816 347.219 554.765 347.659C553.714 348.099 552.507 348.32 551.143 348.32C549.14 348.32 547.528 347.901 546.306 347.062C545.085 346.217 544.357 345.042 544.123 343.536L547.883 343.174C548.054 343.913 548.416 344.47 548.97 344.847C549.524 345.223 550.245 345.411 551.132 345.411C552.049 345.411 552.784 345.223 553.338 344.847C553.899 344.47 554.179 344.005 554.179 343.451C554.179 342.982 553.998 342.595 553.636 342.29C553.281 341.984 552.727 341.75 551.974 341.587L549.183 341.001C547.613 340.674 546.452 340.124 545.699 339.349C544.946 338.568 544.574 337.581 544.581 336.388C544.574 335.379 544.847 334.506 545.401 333.767C545.962 333.021 546.74 332.446 547.734 332.041C548.735 331.629 549.89 331.423 551.196 331.423C553.114 331.423 554.623 331.832 555.724 332.648C556.832 333.465 557.517 334.57 557.78 335.962Z" fill="black"></path>
  <defs>
    <linearGradient id="paint0_linear_5531_438" x1="495.685" y1="469.784" x2="423.984" y2="167.97" gradientUnits="userSpaceOnUse">
      <stop stop-color="#FFD599"></stop>
      <stop offset="1" stop-color="#FFA45B"></stop>
    </linearGradient>
    <linearGradient id="paint1_linear_5531_438" x1="358.616" y1="487.19" x2="347.262" y2="-44.0175" gradientUnits="userSpaceOnUse">
      <stop stop-color="#FFD599"></stop>
      <stop offset="1" stop-color="#FFA45B"></stop>
    </linearGradient>
    <clipPath id="clip0_5531_438">
      <rect width="609" height="466" fill="white"></rect>
    </clipPath>
  </defs>
</svg>
