<?xml version="1.0" encoding="UTF-8"?>
<svg xmlns="http://www.w3.org/2000/svg" width="609" height="466" viewBox="0 0 609 466" fill="none">
  <g clip-path="url(#clip0_5456_1264)">
    <path d="M393.471 61.6478L381.647 68.56C374.253 72.882 374.822 82.5847 382.828 85.6258C428.019 102.792 541.588 143.655 555.984 151.689C556.678 152.076 557.296 152.402 558.014 152.742C568.582 157.746 562.56 165.679 557.57 169.553C557.141 169.885 556.7 170.152 556.218 170.401C516.631 190.817 429.318 236.512 400.147 251.125C396.368 253.018 394 256.846 394 261.072V450.939C394 459.277 402.908 464.647 410.343 460.873C471.725 429.72 580.113 383.148 597.418 375.909C598.368 375.511 599.251 375.003 600.028 374.327C608.105 367.301 609.668 359.158 609.4 355.145C609.362 354.585 609.309 354.048 609.309 353.486V153.191C609.309 152.538 609.389 151.936 609.419 151.283C609.758 144.107 600.004 136.59 594.288 133.258C593.825 132.989 593.341 132.767 592.84 132.578L402.908 60.8535C399.804 59.6811 396.336 59.973 393.471 61.6478Z" fill="url(#paint0_linear_5456_1264)"></path>
    <path d="M411.881 250.046C439.41 239.154 540.865 191.003 600.515 162.931C613.186 156.968 613.049 138.075 600.509 131.841C521.157 92.3936 381.939 10.2272 361.258 -0.249727C359.705 -1.03655 358.175 -1.29295 356.433 -1.29178C289.49 -1.24694 136.243 0.499813 136.243 0.499813C136.243 0.499813 -6.32336 -4.1207 0.500595 0.499957C64.3168 37.3443 361.245 228.976 394.461 251.062C396.532 252.439 398.647 253.383 401.13 253.526C406.986 253.865 408.447 251.572 411.881 250.046Z" fill="url(#paint1_linear_5456_1264)"></path>
  </g>
  <path d="M432.744 316L426.586 294.182H430.837L434.768 310.215H434.97L439.168 294.182H443.035L447.243 310.226H447.435L451.366 294.182H455.616L449.459 316H445.56L441.192 300.691H441.021L436.643 316H432.744ZM460.534 316.32C458.936 316.32 457.552 315.968 456.38 315.265C455.208 314.562 454.299 313.578 453.652 312.314C453.013 311.05 452.694 309.572 452.694 307.882C452.694 306.192 453.013 304.711 453.652 303.44C454.299 302.168 455.208 301.181 456.38 300.478C457.552 299.775 458.936 299.423 460.534 299.423C462.132 299.423 463.517 299.775 464.689 300.478C465.861 301.181 466.767 302.168 467.406 303.44C468.052 304.711 468.375 306.192 468.375 307.882C468.375 309.572 468.052 311.05 467.406 312.314C466.767 313.578 465.861 314.562 464.689 315.265C463.517 315.968 462.132 316.32 460.534 316.32ZM460.556 313.23C461.422 313.23 462.147 312.992 462.729 312.516C463.311 312.033 463.745 311.387 464.029 310.577C464.32 309.768 464.466 308.866 464.466 307.871C464.466 306.87 464.32 305.964 464.029 305.155C463.745 304.338 463.311 303.688 462.729 303.205C462.147 302.722 461.422 302.481 460.556 302.481C459.668 302.481 458.929 302.722 458.34 303.205C457.757 303.688 457.321 304.338 457.03 305.155C456.745 305.964 456.603 306.87 456.603 307.871C456.603 308.866 456.745 309.768 457.03 310.577C457.321 311.387 457.757 312.033 458.34 312.516C458.929 312.992 459.668 313.23 460.556 313.23ZM468.529 316V299.636H472.268V302.364H472.438C472.737 301.419 473.248 300.691 473.973 300.18C474.704 299.661 475.539 299.402 476.476 299.402C476.689 299.402 476.927 299.413 477.19 299.434C477.46 299.448 477.683 299.473 477.861 299.509V303.056C477.698 302.999 477.438 302.95 477.083 302.907C476.735 302.857 476.398 302.832 476.071 302.832C475.368 302.832 474.736 302.985 474.175 303.29C473.621 303.589 473.184 304.004 472.865 304.537C472.545 305.07 472.385 305.684 472.385 306.38V316H468.529ZM480.819 310.865L480.808 306.21H481.426L487.307 299.636H491.813L484.579 307.69H483.78L480.819 310.865ZM477.303 316V294.182H481.16V316H477.303ZM487.573 316L482.246 308.553L484.846 305.837L492.186 316H487.573ZM494.796 297.495V294.182H512.204V297.495H505.46V316H501.54V297.495H494.796ZM516.126 306.412V316H512.269V294.182H516.041V302.417H516.232C516.616 301.494 517.209 300.766 518.012 300.233C518.821 299.693 519.851 299.423 521.101 299.423C522.237 299.423 523.228 299.661 524.073 300.137C524.918 300.613 525.572 301.309 526.034 302.225C526.502 303.141 526.737 304.26 526.737 305.581V316H522.88V306.178C522.88 305.077 522.596 304.221 522.028 303.61C521.467 302.992 520.678 302.683 519.663 302.683C518.981 302.683 518.37 302.832 517.83 303.131C517.298 303.422 516.879 303.844 516.573 304.398C516.275 304.952 516.126 305.624 516.126 306.412ZM532.257 316.33C531.22 316.33 530.286 316.146 529.455 315.776C528.631 315.4 527.977 314.846 527.495 314.114C527.019 313.383 526.781 312.481 526.781 311.408C526.781 310.485 526.951 309.722 527.292 309.118C527.633 308.514 528.098 308.031 528.688 307.669C529.277 307.307 529.941 307.033 530.68 306.849C531.426 306.657 532.196 306.518 532.992 306.433C533.95 306.334 534.728 306.245 535.325 306.167C535.921 306.082 536.355 305.954 536.624 305.783C536.901 305.606 537.04 305.332 537.04 304.963V304.899C537.04 304.097 536.802 303.475 536.326 303.035C535.85 302.594 535.165 302.374 534.27 302.374C533.325 302.374 532.576 302.58 532.022 302.992C531.475 303.404 531.106 303.891 530.914 304.452L527.313 303.94C527.598 302.946 528.066 302.115 528.72 301.447C529.373 300.773 530.172 300.268 531.117 299.935C532.061 299.594 533.105 299.423 534.249 299.423C535.037 299.423 535.822 299.516 536.603 299.7C537.384 299.885 538.098 300.19 538.745 300.616C539.391 301.036 539.909 301.607 540.3 302.332C540.698 303.056 540.897 303.962 540.897 305.048V316H537.189V313.752H537.061C536.827 314.207 536.497 314.633 536.071 315.031C535.651 315.421 535.122 315.737 534.483 315.979C533.851 316.213 533.109 316.33 532.257 316.33ZM533.258 313.496C534.032 313.496 534.703 313.344 535.272 313.038C535.84 312.726 536.276 312.314 536.582 311.803C536.894 311.291 537.051 310.734 537.051 310.13V308.202C536.93 308.301 536.724 308.393 536.433 308.479C536.149 308.564 535.829 308.638 535.474 308.702C535.119 308.766 534.767 308.823 534.419 308.873C534.071 308.923 533.769 308.965 533.514 309.001C532.938 309.079 532.423 309.207 531.969 309.384C531.514 309.562 531.156 309.81 530.893 310.13C530.63 310.442 530.499 310.847 530.499 311.344C530.499 312.055 530.758 312.591 531.276 312.953C531.795 313.315 532.455 313.496 533.258 313.496ZM549.826 299.636V302.619H540.419V299.636H549.826ZM542.741 295.716H546.598V311.078C546.598 311.597 546.676 311.994 546.832 312.271C546.995 312.541 547.208 312.726 547.471 312.825C547.734 312.925 548.025 312.974 548.345 312.974C548.586 312.974 548.806 312.957 549.005 312.921C549.211 312.886 549.367 312.854 549.474 312.825L550.124 315.84C549.918 315.911 549.623 315.989 549.24 316.075C548.863 316.16 548.402 316.21 547.855 316.224C546.889 316.252 546.019 316.107 545.245 315.787C544.47 315.46 543.856 314.956 543.402 314.274C542.954 313.592 542.734 312.74 542.741 311.717V295.716ZM427.193 333.495V330.182H444.601V333.495H437.857V352H433.937V333.495H427.193ZM442.967 352V335.636H446.706V338.364H446.877C447.175 337.419 447.686 336.691 448.411 336.18C449.142 335.661 449.977 335.402 450.914 335.402C451.128 335.402 451.365 335.413 451.628 335.434C451.898 335.448 452.122 335.473 452.299 335.509V339.056C452.136 338.999 451.877 338.95 451.522 338.907C451.174 338.857 450.836 338.832 450.51 338.832C449.806 338.832 449.174 338.985 448.613 339.29C448.059 339.589 447.623 340.004 447.303 340.537C446.983 341.07 446.824 341.684 446.824 342.38V352H442.967ZM462.171 345.118V335.636H466.028V352H462.288V349.092H462.118C461.749 350.008 461.141 350.757 460.296 351.339C459.458 351.922 458.425 352.213 457.196 352.213C456.124 352.213 455.175 351.975 454.352 351.499C453.535 351.016 452.896 350.317 452.434 349.401C451.972 348.477 451.742 347.362 451.742 346.055V335.636H455.598V345.459C455.598 346.496 455.882 347.32 456.45 347.93C457.019 348.541 457.764 348.847 458.688 348.847C459.256 348.847 459.806 348.708 460.339 348.431C460.872 348.154 461.308 347.742 461.649 347.195C461.997 346.641 462.171 345.949 462.171 345.118ZM470.73 330.182V352H466.873V330.182H470.73ZM473.973 358.136C473.447 358.136 472.961 358.094 472.513 358.009C472.073 357.93 471.721 357.838 471.459 357.732L472.353 354.727C472.915 354.891 473.415 354.969 473.856 354.962C474.296 354.955 474.683 354.816 475.017 354.546C475.358 354.283 475.645 353.843 475.88 353.225L476.21 352.341L470.276 335.636H474.367L478.138 347.994H478.309L482.091 335.636H486.192L479.64 353.982C479.335 354.848 478.93 355.59 478.426 356.208C477.922 356.833 477.304 357.309 476.572 357.636C475.848 357.969 474.981 358.136 473.973 358.136ZM508.908 337.543H504.924C504.81 336.89 504.601 336.311 504.295 335.807C503.99 335.295 503.61 334.862 503.155 334.507C502.701 334.152 502.182 333.886 501.6 333.708C501.025 333.523 500.403 333.431 499.736 333.431C498.55 333.431 497.498 333.729 496.582 334.326C495.666 334.915 494.949 335.782 494.43 336.925C493.912 338.062 493.653 339.45 493.653 341.091C493.653 342.76 493.912 344.166 494.43 345.31C494.956 346.446 495.673 347.305 496.582 347.888C497.498 348.463 498.546 348.751 499.725 348.751C500.378 348.751 500.989 348.665 501.557 348.495C502.133 348.317 502.648 348.058 503.102 347.717C503.564 347.376 503.951 346.957 504.263 346.46C504.583 345.963 504.803 345.395 504.924 344.756L508.908 344.777C508.759 345.814 508.436 346.787 507.939 347.696C507.449 348.605 506.806 349.408 506.01 350.104C505.215 350.793 504.285 351.332 503.219 351.723C502.154 352.107 500.971 352.298 499.672 352.298C497.754 352.298 496.042 351.854 494.537 350.967C493.031 350.079 491.845 348.797 490.979 347.121C490.112 345.445 489.679 343.435 489.679 341.091C489.679 338.74 490.116 336.73 490.989 335.061C491.863 333.385 493.052 332.103 494.558 331.215C496.064 330.327 497.768 329.884 499.672 329.884C500.886 329.884 502.015 330.054 503.059 330.395C504.104 330.736 505.034 331.237 505.851 331.897C506.667 332.55 507.339 333.353 507.864 334.305C508.397 335.249 508.745 336.329 508.908 337.543ZM516.375 352.32C514.777 352.32 513.392 351.968 512.22 351.265C511.048 350.562 510.139 349.578 509.493 348.314C508.854 347.05 508.534 345.572 508.534 343.882C508.534 342.192 508.854 340.711 509.493 339.44C510.139 338.168 511.048 337.181 512.22 336.478C513.392 335.775 514.777 335.423 516.375 335.423C517.973 335.423 519.358 335.775 520.53 336.478C521.702 337.181 522.607 338.168 523.246 339.44C523.893 340.711 524.216 342.192 524.216 343.882C524.216 345.572 523.893 347.05 523.246 348.314C522.607 349.578 521.702 350.562 520.53 351.265C519.358 351.968 517.973 352.32 516.375 352.32ZM516.396 349.23C517.263 349.23 517.987 348.992 518.57 348.516C519.152 348.033 519.585 347.387 519.869 346.577C520.161 345.768 520.306 344.866 520.306 343.871C520.306 342.87 520.161 341.964 519.869 341.155C519.585 340.338 519.152 339.688 518.57 339.205C517.987 338.722 517.263 338.481 516.396 338.481C515.509 338.481 514.77 338.722 514.18 339.205C513.598 339.688 513.161 340.338 512.87 341.155C512.586 341.964 512.444 342.87 512.444 343.871C512.444 344.866 512.586 345.768 512.87 346.577C513.161 347.387 513.598 348.033 514.18 348.516C514.77 348.992 515.509 349.23 516.396 349.23ZM534.799 345.118V335.636H538.655V352H534.916V349.092H534.746C534.376 350.008 533.769 350.757 532.924 351.339C532.086 351.922 531.052 352.213 529.824 352.213C528.751 352.213 527.803 351.975 526.979 351.499C526.163 351.016 525.523 350.317 525.062 349.401C524.6 348.477 524.369 347.362 524.369 346.055V335.636H528.226V345.459C528.226 346.496 528.51 347.32 529.078 347.93C529.646 348.541 530.392 348.847 531.315 348.847C531.883 348.847 532.434 348.708 532.966 348.431C533.499 348.154 533.936 347.742 534.277 347.195C534.625 346.641 534.799 345.949 534.799 345.118ZM543.358 342.412V352H539.501V335.636H543.187V338.417H543.379C543.755 337.501 544.356 336.773 545.179 336.233C546.01 335.693 547.037 335.423 548.258 335.423C549.388 335.423 550.371 335.665 551.209 336.148C552.054 336.631 552.708 337.33 553.169 338.246C553.638 339.163 553.869 340.274 553.862 341.581V352H550.005V342.178C550.005 341.084 549.721 340.228 549.153 339.61C548.592 338.992 547.814 338.683 546.82 338.683C546.145 338.683 545.545 338.832 545.02 339.131C544.501 339.422 544.093 339.844 543.794 340.398C543.503 340.952 543.358 341.624 543.358 342.412ZM562.834 335.636V338.619H553.427V335.636H562.834ZM555.749 331.716H559.606V347.078C559.606 347.597 559.684 347.994 559.84 348.271C560.003 348.541 560.216 348.726 560.479 348.825C560.742 348.925 561.033 348.974 561.353 348.974C561.594 348.974 561.814 348.957 562.013 348.921C562.219 348.886 562.375 348.854 562.482 348.825L563.132 351.84C562.926 351.911 562.631 351.989 562.248 352.075C561.871 352.16 561.41 352.21 560.863 352.224C559.897 352.252 559.027 352.107 558.253 351.787C557.478 351.46 556.864 350.956 556.41 350.274C555.962 349.592 555.742 348.74 555.749 347.717V331.716ZM575.638 339.962L572.122 340.345C572.023 339.99 571.849 339.656 571.6 339.344C571.359 339.031 571.032 338.779 570.62 338.587C570.208 338.396 569.704 338.3 569.107 338.3C568.305 338.3 567.63 338.474 567.083 338.822C566.543 339.17 566.277 339.621 566.284 340.175C566.277 340.651 566.451 341.038 566.806 341.336C567.168 341.634 567.765 341.879 568.596 342.071L571.387 342.668C572.935 343.001 574.086 343.531 574.839 344.255C575.599 344.979 575.982 345.928 575.989 347.099C575.982 348.129 575.68 349.038 575.084 349.827C574.494 350.608 573.674 351.219 572.623 351.659C571.572 352.099 570.364 352.32 569.001 352.32C566.998 352.32 565.386 351.901 564.164 351.062C562.942 350.217 562.214 349.042 561.98 347.536L565.741 347.174C565.911 347.913 566.273 348.47 566.827 348.847C567.381 349.223 568.102 349.411 568.99 349.411C569.906 349.411 570.641 349.223 571.195 348.847C571.756 348.47 572.037 348.005 572.037 347.451C572.037 346.982 571.856 346.595 571.494 346.29C571.138 345.984 570.584 345.75 569.832 345.587L567.04 345.001C565.471 344.674 564.31 344.124 563.557 343.349C562.804 342.568 562.431 341.581 562.438 340.388C562.431 339.379 562.705 338.506 563.258 337.767C563.82 337.021 564.597 336.446 565.592 336.041C566.593 335.629 567.747 335.423 569.054 335.423C570.972 335.423 572.481 335.832 573.582 336.648C574.69 337.465 575.375 338.57 575.638 339.962Z" fill="black"></path>
  <defs>
    <linearGradient id="paint0_linear_5456_1264" x1="495.685" y1="469.784" x2="423.984" y2="167.97" gradientUnits="userSpaceOnUse">
      <stop stop-color="#FFD599"></stop>
      <stop offset="1" stop-color="#FFA45B"></stop>
    </linearGradient>
    <linearGradient id="paint1_linear_5456_1264" x1="358.616" y1="487.19" x2="347.262" y2="-44.0175" gradientUnits="userSpaceOnUse">
      <stop stop-color="#FFD599"></stop>
      <stop offset="1" stop-color="#FFA45B"></stop>
    </linearGradient>
    <clipPath id="clip0_5456_1264">
      <rect width="609" height="466" fill="white"></rect>
    </clipPath>
  </defs>
</svg>
