<?xml version="1.0" encoding="UTF-8"?>
<svg xmlns="http://www.w3.org/2000/svg" width="350" height="350" viewBox="0 0 350 350" fill="none">
  <path d="M20.163 141.804H106.778C106.141 144.54 105.661 147.341 105.353 150.201C105.197 151.648 105.666 153.094 106.646 154.177C107.625 155.26 109.021 155.878 110.484 155.878H239.517C240.981 155.878 242.377 155.26 243.355 154.177C244.334 153.094 244.804 151.648 244.648 150.201C244.34 147.341 243.86 144.541 243.224 141.805H329.839C331.303 141.805 332.699 141.186 333.677 140.103C334.656 139.021 335.126 137.575 334.97 136.127C332.279 111.119 315.246 90.899 292.489 83.1421C300.966 76.8477 306.463 66.7968 306.463 55.4918C306.463 36.4735 290.902 21 271.774 21C252.646 21 237.084 36.4728 237.084 55.4918C237.084 66.7872 242.573 76.8323 251.039 83.1279C239.117 87.1815 228.635 94.7178 220.91 105.006C213.925 98.9927 205.736 94.3496 196.768 91.4526C206.555 84.6169 212.97 73.3163 212.97 60.5468C212.97 39.729 195.937 22.7923 175 22.7923C154.062 22.7923 137.029 39.7284 137.029 60.5468C137.029 73.3163 143.444 84.6169 153.231 91.4526C144.264 94.3502 136.075 98.9927 129.089 105.007C121.364 94.7184 110.882 87.1828 98.9606 83.1286C107.426 76.833 112.915 66.7885 112.915 55.4931C112.915 36.4741 97.3535 21.0006 78.2252 21.0006C59.0982 21.0006 43.5364 36.4735 43.5364 55.4931C43.5364 66.7968 49.0344 76.8477 57.5105 83.1421C34.7532 90.899 17.7204 111.119 15.0294 136.127C14.8733 137.575 15.343 139.021 16.3223 140.103C17.3017 141.186 18.6991 141.804 20.163 141.804ZM247.408 55.4918C247.408 42.1327 258.339 31.2639 271.775 31.2639C285.211 31.2639 296.142 42.1321 296.142 55.4918C296.142 68.8515 285.211 79.7203 271.775 79.7203C258.339 79.7203 247.408 68.8515 247.408 55.4918ZM271.775 89.9836C297.1 89.9836 318.527 107.485 323.784 131.54H239.974C237.119 124.486 233.148 118.033 228.286 112.381C238.268 98.289 254.253 89.9836 271.775 89.9836ZM147.354 60.5461C147.354 45.3876 159.756 33.0556 175.002 33.0556C190.247 33.0556 202.649 45.3876 202.649 60.5461C202.649 75.7046 190.246 88.036 175.001 88.036C159.756 88.036 147.354 75.7039 147.354 60.5461ZM175.001 98.2999C203.653 98.2999 227.859 118.273 233.497 145.614L116.504 145.615C122.14 118.271 146.346 98.2999 175.001 98.2999ZM53.8615 55.4924C53.8615 42.1333 64.7918 31.2639 78.2278 31.2639C91.6639 31.2639 102.595 42.1327 102.595 55.4924C102.595 68.8522 91.6639 79.7197 78.2272 79.7197C64.7918 79.7197 53.8615 68.8515 53.8615 55.4924ZM78.2272 89.9836C95.7484 89.9836 111.733 98.289 121.716 112.382C116.853 118.035 112.883 124.488 110.028 131.541H26.2171C31.4752 107.485 52.9021 89.9836 78.2272 89.9836ZM127.717 164.778C124.866 164.778 122.555 167.076 122.555 169.91C122.555 198.664 146.082 222.057 175 222.057C203.918 222.057 227.445 198.664 227.445 169.91C227.445 167.076 225.134 164.778 222.284 164.778H127.717ZM175.001 211.793C153.521 211.793 135.745 195.725 133.193 175.042H216.808C214.256 195.725 196.48 211.793 175.001 211.793ZM329.839 164.778H248.091C245.24 164.778 242.93 167.076 242.93 169.91C242.93 207.153 212.457 237.452 175.001 237.452C137.545 237.452 107.073 207.153 107.073 169.91C107.073 167.076 104.762 164.778 101.912 164.778H20.163C17.3127 164.778 15.0017 167.076 15.0017 169.91V190.745C15.0017 192.869 16.3165 194.772 18.3088 195.535L41.4558 204.394C44.6596 216.691 49.5602 228.446 56.0531 239.408L45.9796 261.959C45.1132 263.899 45.537 266.17 47.0467 267.671L76.682 297.138C78.1923 298.638 80.4749 299.06 82.4265 298.199L105.115 288.179C116.143 294.635 127.962 299.507 140.318 302.69L149.229 325.712C149.996 327.693 151.911 329 154.046 329H195.956C198.092 329 200.006 327.693 200.773 325.712L209.683 302.697C222.048 299.512 233.87 294.639 244.896 288.182L267.576 298.199C269.526 299.06 271.811 298.639 273.321 297.137L302.956 267.669C304.465 266.168 304.889 263.898 304.023 261.958L293.946 239.398C300.438 228.433 305.338 216.682 308.541 204.396L331.693 195.535C333.685 194.773 335 192.869 335 190.745V169.91C335 167.076 332.688 164.778 329.839 164.778ZM324.677 187.221L302.326 195.776C300.738 196.384 299.553 197.731 299.16 199.377C296.032 212.44 290.845 224.879 283.743 236.349C282.851 237.79 282.731 239.576 283.421 241.123L293.15 262.904L268.527 287.388L246.629 277.716C245.075 277.029 243.279 277.149 241.828 278.037C230.296 285.1 217.783 290.258 204.636 293.367C202.981 293.759 201.625 294.937 201.014 296.516L192.413 318.735H157.591L148.987 296.51C148.376 294.931 147.02 293.753 145.365 293.362C132.228 290.253 119.718 285.096 108.182 278.033C106.732 277.146 104.935 277.027 103.381 277.713L81.4755 287.387L56.8525 262.904L66.5782 241.131C67.2685 239.584 67.1485 237.798 66.2556 236.357C59.1544 224.893 53.9667 212.45 50.8376 199.375C50.4441 197.729 49.2589 196.382 47.6712 195.774L25.3242 187.222V175.042H96.9187C99.5832 215.563 133.586 247.716 175.001 247.716C216.415 247.716 250.419 215.563 253.084 175.042H324.677V187.221Z" fill="#FF7500"></path>
</svg>
