<?xml version="1.0" encoding="UTF-8"?>
<svg xmlns="http://www.w3.org/2000/svg" width="350" height="350" viewBox="0 0 350 350" fill="none">
  <path d="M174.862 53.4249C178.403 53.4249 181.274 50.5539 181.274 47.0125V18.4124C181.274 14.871 178.403 12 174.862 12C171.321 12 168.45 14.871 168.45 18.4124V47.0125C168.45 50.5539 171.321 53.4249 174.862 53.4249Z" fill="#FF7500"></path>
  <path d="M331.605 232.295L320.277 220.999C316.247 216.974 310.876 214.757 305.154 214.757C301.494 214.757 297.982 215.668 294.869 217.374L273.522 196.052L274.562 195.014C283.222 186.337 283.219 172.237 274.561 163.589C271.467 160.489 267.607 158.422 263.399 157.553C263.978 155.553 264.283 153.458 264.283 151.314C264.283 145.358 261.969 139.772 257.781 135.601C254.687 132.502 250.827 130.435 246.619 129.565C247.198 127.565 247.503 125.471 247.503 123.327C247.503 117.369 245.189 111.785 240.994 107.607C237.826 104.443 233.931 102.44 229.841 101.587C232.029 94.0439 230.16 85.5571 224.225 79.6127C219.286 74.694 212.583 72.5801 206.124 73.2652L163.823 65.2585C157.372 64.0347 149.316 63.2254 144.23 67.8639C143.909 68.1568 143.582 68.4937 143.26 68.8687C135.375 65.9945 126.178 67.706 119.864 74.0134C115.675 78.1972 113.367 83.78 113.367 89.7333C113.367 91.8778 113.671 93.9719 114.25 95.9725C110.046 96.8416 106.191 98.9058 103.107 101.995C98.9098 106.175 96.5953 111.752 96.5909 117.698C96.589 119.847 96.894 121.949 97.4759 123.954C93.2704 124.822 89.4125 126.882 86.3193 129.971C82.1221 134.164 79.8108 139.75 79.8108 145.7C79.8108 150.258 81.1715 154.6 83.6929 158.267C80.5093 159.346 77.5931 161.142 75.1513 163.582C66.4856 172.237 66.4824 186.337 75.157 195.027L76.193 196.059L54.8438 217.369C46.9097 213.633 37.1342 215.033 30.5868 221.572L19.2519 232.875C15.2202 236.902 13.0006 242.273 13 247.999C13 253.726 15.2202 259.098 19.2519 263.125L33.3979 277.254C35.9034 279.757 39.9637 279.754 42.466 277.249C44.969 274.743 44.9664 270.683 42.4609 268.18L28.315 254.052C26.7092 252.448 25.8248 250.298 25.8248 248C25.8248 245.702 26.7092 243.553 28.3112 241.953L39.6466 230.649C42.4788 227.82 46.8135 227.399 50.1054 229.367C50.3371 229.715 50.6052 230.046 50.9121 230.354C51.4616 230.904 52.0887 231.327 52.7548 231.635L117.759 296.544C118.068 297.217 118.492 297.851 119.045 298.405C119.584 298.944 120.198 299.361 120.85 299.668C122.225 301.222 122.985 303.208 122.985 305.325C122.985 307.624 122.1 309.773 120.495 311.377L109.171 322.687C105.825 326.019 100.382 326.018 97.0461 322.698L82.9002 308.55C80.396 306.046 76.3362 306.046 73.832 308.55C71.3278 311.055 71.3278 315.114 73.832 317.618L87.9882 331.776C92.1549 335.925 97.6268 337.999 103.101 337.999C108.577 337.999 114.055 335.922 118.227 331.769L129.558 320.451C133.59 316.424 135.81 311.053 135.81 305.325C135.81 301.238 134.674 297.335 132.56 293.969L156.588 269.972C156.613 269.945 156.638 269.919 156.665 269.893C159.416 267.049 167.077 267.581 174.487 268.096C179.751 268.462 185.621 268.869 191.355 268.208L217.667 294.488C215.962 297.596 215.052 301.105 215.052 304.758C215.052 310.479 217.272 315.847 221.304 319.874L232.636 331.192C236.665 335.217 242.036 337.434 247.759 337.434C253.481 337.434 258.851 335.217 262.881 331.192L331.609 262.547C335.641 258.521 337.861 253.149 337.861 247.423C337.86 241.697 335.64 236.325 331.605 232.295ZM161.436 77.8591L189.252 83.1242L172.602 99.7673C170.027 98.5295 166.497 96.2208 162.624 92.5164C157.324 87.4456 153.532 81.5909 153.187 77.9394C153.186 77.9374 153.186 77.9355 153.186 77.9336C153.186 77.933 153.186 77.9324 153.186 77.9317C153.161 77.6694 153.154 77.4599 153.158 77.3001C153.996 77.0963 156.223 76.8703 161.436 77.8591ZM128.926 83.0872C132.174 79.8419 137.221 79.4675 140.892 81.9532C142.972 90.675 150.412 98.5798 153.759 101.783C156.24 104.156 164.199 111.273 172.234 113.229C173.32 114.787 173.912 116.644 173.912 118.604C173.912 121.129 172.941 123.489 171.172 125.256C169.407 127.024 167.043 127.997 164.514 127.997C161.984 127.997 159.62 127.024 157.848 125.248L157.847 125.247L157.844 125.244L128.925 96.3781C127.162 94.6176 126.191 92.2572 126.191 89.7333C126.192 87.2087 127.163 84.8484 128.926 83.0872ZM112.17 111.069C113.934 109.302 116.296 108.329 118.821 108.329C121.35 108.329 123.719 109.304 125.495 111.078L148.781 134.318C152.448 137.99 152.448 143.966 148.793 147.626C147.02 149.393 144.647 150.366 142.114 150.366C139.58 150.366 137.208 149.393 135.441 147.634L135.441 147.633L117.775 129.971C117.748 129.944 117.718 129.918 117.69 129.89L112.163 124.366C110.39 122.595 109.414 120.23 109.416 117.707C109.418 115.193 110.391 112.84 112.17 111.069ZM95.3824 139.045C97.148 137.282 99.5147 136.311 102.048 136.311C104.559 136.311 106.906 137.268 108.664 139.001L126.384 156.712C128.15 158.472 129.124 160.83 129.124 163.351C129.124 165.872 128.15 168.23 126.377 169.997C124.612 171.759 122.247 172.73 119.719 172.73C117.187 172.73 114.815 171.757 113.047 169.997L106.624 163.58C106.622 163.579 106.62 163.577 106.619 163.576L95.383 152.353C93.6117 150.584 92.6362 148.22 92.6362 145.699C92.6362 143.178 93.6117 140.814 95.3824 139.045ZM84.2144 172.655C85.9876 170.884 88.3575 169.908 90.8872 169.908C93.4162 169.908 95.7854 170.883 97.5581 172.653L103.991 179.078C105.758 180.838 106.731 183.196 106.731 185.717C106.731 188.239 105.758 190.596 103.977 192.37C102.213 194.137 99.849 195.11 97.3199 195.11C94.7902 195.11 92.4261 194.137 90.649 192.357L89.8436 191.555C89.8328 191.544 89.8245 191.532 89.8143 191.522C89.8022 191.511 89.7895 191.501 89.7774 191.489L84.2207 185.954C80.5539 182.28 80.5507 176.314 84.2144 172.655ZM214.891 245.532C212.388 243.026 208.327 243.024 205.822 245.527L200.117 251.225C194.696 256.646 184.874 255.963 175.375 255.304C165.059 254.587 154.392 253.847 147.489 260.934L123.87 284.524L64.8066 225.547L85.7087 204.683C89.1636 206.8 93.1501 207.936 97.3212 207.936C103.28 207.936 108.868 205.626 113.042 201.444C117.243 197.26 119.558 191.675 119.558 185.718C119.558 185.662 119.554 185.608 119.554 185.552C119.61 185.553 119.665 185.556 119.72 185.556C125.671 185.556 131.254 183.253 135.434 179.079C139.636 174.894 141.95 169.309 141.95 163.353C141.95 163.297 141.946 163.242 141.946 163.187C142.002 163.187 142.058 163.191 142.115 163.191C148.064 163.191 153.65 160.89 157.858 156.7C162.226 152.325 164.386 146.565 164.345 140.818C164.402 140.818 164.459 140.822 164.517 140.822C170.476 140.821 176.063 138.512 180.243 134.324C184.432 130.14 186.739 124.557 186.739 118.604C186.739 114.44 185.607 110.46 183.496 107.013L201.817 88.6999C203.182 87.3405 204.865 86.4873 206.63 86.1352C206.821 86.1148 207.009 86.0843 207.196 86.0473C210.027 85.657 212.999 86.5306 215.164 88.6865C218.831 92.3597 218.831 98.336 215.178 101.996L209.598 107.552C209.58 107.571 209.56 107.587 209.541 107.606L203.115 114.022C200.609 116.524 200.606 120.584 203.109 123.09C205.613 125.596 209.673 125.598 212.177 123.095L217.779 117.501C217.781 117.5 217.782 117.499 217.783 117.497L218.63 116.654C222.307 113.01 228.264 113.018 231.937 116.686C233.705 118.446 234.678 120.804 234.678 123.325C234.678 125.846 233.705 128.204 231.923 129.978L226.312 135.601C226.311 135.601 226.311 135.602 226.31 135.603L219.884 142.003C217.375 144.502 217.367 148.562 219.866 151.071C222.365 153.58 226.425 153.588 228.934 151.089L235.389 144.66C237.153 142.893 239.517 141.92 242.047 141.92C244.576 141.92 246.941 142.893 248.718 144.673C250.486 146.434 251.458 148.791 251.458 151.313C251.458 153.834 250.486 156.191 248.708 157.961L237.521 169.153C235.017 171.658 235.018 175.718 237.522 178.221C238.774 179.473 240.415 180.098 242.055 180.098C243.697 180.098 245.338 179.472 246.59 178.219L252.073 172.735C252.104 172.705 252.138 172.679 252.169 172.647C253.933 170.88 256.298 169.907 258.827 169.907C261.356 169.907 263.72 170.88 265.491 172.654C269.154 176.313 269.151 182.279 265.491 185.945L259.917 191.513C259.915 191.515 259.912 191.517 259.91 191.519C259.908 191.521 259.906 191.523 259.905 191.525L251.057 200.362C248.551 202.865 248.549 206.926 251.051 209.431C252.303 210.685 253.946 211.312 255.588 211.312C257.228 211.312 258.868 210.687 260.12 209.437L264.448 205.114L285.19 225.832L226.131 284.819L204.97 263.684C206.446 262.735 207.857 261.62 209.182 260.295L214.884 254.6C217.391 252.098 217.393 248.038 214.891 245.532ZM322.546 253.474L253.818 322.118C252.21 323.724 250.058 324.608 247.758 324.608C245.458 324.608 243.306 323.724 241.698 322.117L230.366 310.8C228.76 309.197 227.876 307.051 227.876 304.758C227.876 302.466 228.76 300.32 230.366 298.716L299.094 230.072C300.702 228.465 302.854 227.581 305.154 227.581C307.454 227.581 309.606 228.465 311.218 230.075L322.546 241.371C324.152 242.975 325.036 245.124 325.036 247.422C325.036 249.721 324.151 251.87 322.546 253.474Z" fill="#FF7500"></path>
  <path d="M89.714 48.019C90.9658 49.2682 92.6047 49.8922 94.2436 49.8922C95.8863 49.8922 97.5297 49.2644 98.7821 48.0094C101.284 45.5027 101.28 41.443 98.7732 38.9413L75.4069 15.6215C72.9008 13.1198 68.8405 13.123 66.3388 15.6304C63.8371 18.1372 63.8409 22.1969 66.3477 24.6986L89.714 48.019Z" fill="#FF7500"></path>
  <path d="M255.48 49.892C257.12 49.892 258.76 49.2667 260.012 48.0168L283.36 24.6964C285.866 22.1941 285.868 18.1338 283.365 15.6283C280.863 13.1228 276.803 13.1202 274.297 15.6232L250.949 38.9436C248.443 41.4459 248.441 45.5063 250.943 48.0117C252.196 49.2654 253.838 49.892 255.48 49.892Z" fill="#FF7500"></path>
  <path d="M52.429 287.829C49.9465 290.354 49.9809 294.415 52.5067 296.897L52.5252 296.915C53.7712 298.14 55.3891 298.75 57.0064 298.75C58.6663 298.75 60.3262 298.108 61.5838 296.828C64.0663 294.303 64.0224 290.234 61.4972 287.751C58.9726 285.269 54.9129 285.304 52.429 287.829Z" fill="#FF7500"></path>
  <path d="M230.574 236.295C231.549 236.295 232.539 236.072 233.468 235.604C236.63 234.009 237.9 230.153 236.306 226.991C234.711 223.83 230.854 222.559 227.693 224.154L227.657 224.171C224.495 225.766 223.243 229.613 224.837 232.775C225.963 235.009 228.227 236.295 230.574 236.295Z" fill="#FF7500"></path>
</svg>
