<?xml version="1.0" encoding="UTF-8"?>
<svg xmlns="http://www.w3.org/2000/svg" width="350" height="350" viewBox="0 0 350 350" fill="none">
  <path d="M292.132 9H217.327C208.489 9 201.297 16.192 201.297 25.0297V35.7161C189.51 35.7161 179.924 45.3019 179.924 57.0891C179.924 68.8762 189.51 78.462 201.297 78.462V105.178H244.043V94.4916C244.043 88.5981 248.836 83.8052 254.729 83.8052C260.623 83.8052 265.416 88.5981 265.416 94.4916V105.178H292.132C300.969 105.178 308.161 97.9861 308.161 89.1484V25.0297C308.161 16.192 300.969 9 292.132 9ZM297.475 89.1484C297.475 92.0925 295.081 94.4916 292.132 94.4916H276.102C276.102 82.7045 266.516 73.1187 254.729 73.1187C242.942 73.1187 233.356 82.7045 233.356 94.4916H211.983V67.7755H201.297C195.403 67.7755 190.61 62.9826 190.61 57.0891C190.61 51.1955 195.403 46.4026 201.297 46.4026H211.983V25.0297C211.983 22.0856 214.377 19.6865 217.327 19.6865H292.132C295.081 19.6865 297.475 22.0856 297.475 25.0297V89.1484Z" fill="#FF7500"></path>
  <path d="M201.297 115.865C189.51 115.865 179.924 125.45 179.924 137.238H158.551V110.522H147.865C141.971 110.522 137.178 105.729 137.178 99.835C137.178 93.9415 141.971 89.1486 147.865 89.1486H158.551V41.0595H144.226C87.3098 41.0595 41 87.3693 41 144.285C41 175.372 54.8016 204.493 78.8621 224.177L99.7755 241.292V255.777C93.572 257.989 89.0891 263.867 89.0891 270.824C89.0891 278.213 94.1384 284.39 100.951 286.234C100.208 288.077 99.7755 290.081 99.7755 292.191C99.7755 299.255 104.397 305.197 110.751 307.329C112.963 325.859 128.752 340.28 147.865 340.28C166.977 340.28 182.767 325.859 184.979 307.329C191.332 305.197 195.954 299.255 195.954 292.191C195.954 290.081 195.521 288.077 194.778 286.228C201.591 284.379 206.64 278.208 206.64 270.818C206.64 263.861 202.157 257.984 195.954 255.772V241.286L216.867 224.172C240.928 204.493 254.729 175.372 254.729 144.285V137.238H222.67C222.67 125.45 213.084 115.865 201.297 115.865ZM144.226 51.746H147.865V78.4621C136.077 78.4621 126.492 88.0479 126.492 99.835C126.492 111.622 136.077 121.208 147.865 121.208V137.238H126.492C126.492 125.45 116.906 115.865 105.119 115.865C93.3316 115.865 83.7458 125.45 83.7458 137.238H51.9536C55.5656 89.4906 95.5704 51.746 144.226 51.746ZM85.6266 215.906C64.9964 199.027 52.7818 174.416 51.7613 147.924H94.4323V137.238C94.4323 131.344 99.2252 126.551 105.119 126.551C111.012 126.551 115.805 131.344 115.805 137.238V147.924H147.865V169.297C136.077 169.297 126.492 178.883 126.492 190.67C126.492 202.457 136.077 212.043 147.865 212.043V254.789H110.462V236.226L85.6266 215.906ZM147.865 329.594C134.966 329.594 124.173 320.398 121.688 308.221H174.041C171.556 320.398 160.763 329.594 147.865 329.594ZM179.924 297.534H115.805C112.856 297.534 110.462 295.135 110.462 292.191C110.462 289.247 112.856 286.848 115.805 286.848H179.924C182.873 286.848 185.267 289.247 185.267 292.191C185.267 295.135 182.873 297.534 179.924 297.534ZM190.61 276.162H179.924H115.805H105.119C102.169 276.162 99.7755 273.762 99.7755 270.818C99.7755 267.874 102.169 265.475 105.119 265.475H190.61C193.56 265.475 195.954 267.874 195.954 270.818C195.954 273.762 193.56 276.162 190.61 276.162ZM210.102 215.906L185.267 236.226V254.789H158.551V201.356H147.865C141.971 201.356 137.178 196.564 137.178 190.67C137.178 184.776 141.971 179.983 147.865 179.983H158.551V147.924H190.61V137.238C190.61 131.344 195.403 126.551 201.297 126.551C207.19 126.551 211.983 131.344 211.983 137.238V147.924H243.968C242.947 174.416 230.733 199.027 210.102 215.906Z" fill="#FF7500"></path>
</svg>
