<?xml version="1.0" encoding="UTF-8"?>
<svg xmlns="http://www.w3.org/2000/svg" width="350" height="350" viewBox="0 0 350 350" fill="none">
  <path d="M30.0514 147.955C23.6127 148.999 18.632 154.161 17.8188 160.634C16.7377 170.436 16.7268 180.328 17.7872 190.133C18.5263 196.706 23.5376 201.989 30.0617 203.074L46.767 205.809C49.9742 219.47 55.3881 232.516 62.7949 244.433L52.9621 258.167C49.0438 263.48 49.1387 270.75 53.1932 275.959C56.3226 279.788 59.6526 283.449 63.1681 286.927C66.3918 290.156 69.956 293.4 74.235 296.996C79.4028 300.97 86.5737 301.053 91.8328 297.201L105.635 287.299C117.54 294.705 130.573 300.121 144.222 303.332L146.962 320.064C148.004 326.505 153.167 331.488 159.641 332.302C162.634 332.638 165.674 332.874 168.734 333H169.18C171.916 332.998 174.548 331.945 176.53 330.06C178.591 328.09 179.754 325.362 179.748 322.51V280.437C179.717 274.815 175.279 270.207 169.663 269.964C119.414 267.34 80.0159 225.832 80.0159 175.515C80.0159 125.197 119.414 83.6888 169.663 81.0653C175.288 80.8186 179.728 76.1965 179.748 70.5654V28.5134C179.756 25.6593 178.591 22.9279 176.524 20.959C174.462 18.9351 171.646 17.8669 168.759 18.0136C165.704 18.1343 162.675 18.3546 159.567 18.6697C153.096 19.5036 147.959 24.5175 146.967 30.9649L144.232 47.6806C130.583 50.895 117.55 56.3121 105.644 63.7194L91.8426 53.8388C86.5349 49.9574 79.2944 50.073 74.1137 54.1223C70.3074 57.2382 66.6644 60.548 63.1992 64.0397C59.6277 67.5308 56.2656 71.2298 53.13 75.1169C49.1242 80.2915 49.0215 87.4909 52.8781 92.7779L62.7742 106.596C55.3736 118.512 49.9669 131.557 46.767 145.215L30.0514 147.955ZM56.2646 150.884C59.3167 136.056 65.1723 121.947 73.5161 109.315C74.7118 107.499 74.6636 105.133 73.3954 103.367L61.4204 86.6461C60.3134 85.1851 60.2812 83.1752 61.3416 81.6794C64.2192 78.1131 67.3066 74.721 70.5868 71.5206C73.7732 68.302 77.1197 65.2457 80.614 62.3646C82.1181 61.2181 84.2026 61.2181 85.7066 62.3646L102.402 74.3452C104.17 75.6103 106.535 75.6539 108.35 74.4556C120.971 66.1087 135.072 60.251 149.893 57.1989C152.024 56.7599 153.663 55.0516 154.014 52.9044L157.316 32.6867C157.554 30.8732 158.946 29.4272 160.75 29.1219C163.527 28.8332 166.341 28.6285 169.25 28.5129L169.134 70.57C113.241 73.4247 69.3958 119.592 69.4269 175.558C69.4574 231.524 113.353 277.643 169.25 280.436L169.176 322.509C166.357 322.394 163.564 322.174 160.808 321.864C158.996 321.599 157.576 320.17 157.322 318.356L154.014 298.128C153.663 295.981 152.024 294.273 149.893 293.834C135.072 290.779 120.971 284.92 108.35 276.572C106.534 275.375 104.169 275.421 102.402 276.687L85.6911 288.679C84.2658 289.787 82.286 289.84 80.8032 288.81C76.9446 285.56 73.6001 282.51 70.5868 279.501C67.3677 276.321 64.3135 272.978 61.436 269.484C60.3035 267.972 60.3035 265.894 61.436 264.381L73.4005 247.676C74.6672 245.909 74.7133 243.543 73.5161 241.728C65.1718 229.098 59.3162 214.991 56.2646 200.164C55.8261 198.035 54.1204 196.396 51.9752 196.043L31.7627 192.73C29.8814 192.419 28.4369 190.893 28.2296 188.997C27.2464 179.967 27.2568 170.856 28.2612 161.829C28.5224 160.015 29.9487 158.591 31.7627 158.332L51.9695 155.025C54.123 154.672 55.8328 153.024 56.2646 150.884Z" fill="#FF7500"></path>
  <path d="M316.247 159.762C309.597 159.789 303.681 163.992 301.463 170.262H179.749V154.512H263.748C272.446 154.512 279.498 147.46 279.498 138.762V111.547C286.73 108.99 291.068 101.594 289.77 94.0343C288.473 86.4741 281.918 80.9476 274.247 80.9476C266.577 80.9476 260.022 86.4741 258.724 94.0343C257.427 101.594 261.765 108.99 268.997 111.547V138.762C268.997 141.661 266.647 144.012 263.747 144.012H179.749V128.262H237.498C240.397 128.262 242.748 125.912 242.748 123.012C242.748 120.112 240.397 117.762 237.498 117.762H179.749V107.262H211.249C219.947 107.262 226.999 100.211 226.999 91.5118V59.047C234.231 56.4904 238.569 49.095 237.272 41.5348C235.974 33.9746 229.419 28.4481 221.748 28.4481C214.078 28.4481 207.523 33.9746 206.225 41.5348C204.928 49.095 209.266 56.4904 216.498 59.047V91.5128C216.498 94.4121 214.148 96.763 211.248 96.763H178.362C176.556 93.4061 172.952 91.418 169.149 91.6812C124.908 94.4836 90.4596 131.183 90.4596 175.512C90.4596 219.842 124.908 256.541 169.149 259.344H169.763C173.35 259.374 176.659 257.418 178.362 254.262H211.248C214.147 254.262 216.498 256.612 216.498 259.512V291.978C209.266 294.535 204.928 301.93 206.225 309.49C207.523 317.05 214.078 322.577 221.748 322.577C229.419 322.577 235.974 317.05 237.272 309.49C238.569 301.93 234.231 294.535 226.999 291.978V259.512C226.999 250.814 219.947 243.762 211.249 243.762H179.749V233.262H237.498C240.397 233.262 242.748 230.912 242.748 228.012C242.748 225.113 240.397 222.762 237.498 222.762H179.749V207.013H263.748C266.647 207.013 268.998 209.363 268.998 212.262V239.478C261.766 242.035 257.428 249.43 258.725 256.99C260.023 264.55 266.578 270.077 274.248 270.077C281.919 270.077 288.474 264.55 289.771 256.99C291.069 249.43 286.731 242.035 279.499 239.478V212.262C279.499 203.564 272.447 196.513 263.749 196.513H179.749V180.762H301.463C304.146 188.293 312.054 192.612 319.841 190.799C327.627 188.986 332.814 181.619 331.895 173.677C330.975 165.736 324.242 159.748 316.247 159.762ZM274.248 91.5128C277.147 91.5128 279.498 93.8632 279.498 96.763C279.498 99.6628 277.147 102.013 274.248 102.013C271.349 102.013 268.998 99.6628 268.998 96.763C268.998 93.8632 271.348 91.5128 274.248 91.5128ZM221.748 39.0133C224.648 39.0133 226.999 41.3637 226.999 44.2635C226.999 47.1633 224.648 49.5132 221.748 49.5132C218.849 49.5132 216.499 47.1628 216.499 44.2635C216.499 41.3643 218.849 39.0133 221.748 39.0133ZM221.748 312.011C218.849 312.011 216.499 309.66 216.499 306.76C216.499 303.861 218.849 301.51 221.748 301.51C224.648 301.51 226.999 303.861 226.999 306.76C226.999 309.66 224.648 312.011 221.748 312.011ZM274.248 259.511C271.349 259.511 268.998 257.161 268.998 254.261C268.998 251.361 271.349 249.011 274.248 249.011C277.147 249.011 279.498 251.362 279.498 254.261C279.498 257.16 277.147 259.511 274.248 259.511ZM100.999 175.512C101.043 136.974 130.813 104.998 169.249 102.202V248.823C130.813 246.026 101.043 214.049 100.999 175.512ZM316.247 180.762C313.348 180.762 310.997 178.411 310.997 175.511C310.997 172.612 313.348 170.262 316.247 170.262C319.147 170.262 321.498 172.612 321.498 175.511C321.498 178.411 319.147 180.762 316.247 180.762Z" fill="#FF7500"></path>
</svg>
