<?xml version="1.0" encoding="UTF-8"?>
<svg xmlns="http://www.w3.org/2000/svg" width="51" height="44" viewBox="0 0 51 44" fill="none">
  <path d="M0.585577 0.455552C0.492921 0.536411 0.462036 1.70438 0.462036 5.17235C0.462036 9.46688 0.472331 9.78133 0.647348 9.85321C0.740004 9.89813 1.49155 9.96102 2.31515 9.98797C7.65831 10.1856 13.2382 11.4794 17.9946 13.6266C18.602 13.8962 19.1167 14.1028 19.1373 14.0848C19.3844 13.8513 24.5526 5.86415 24.5114 5.78329C24.4496 5.64852 21.8964 4.5075 20.2286 3.86961C16.3988 2.42313 12.0852 1.34501 7.94657 0.796958C4.93011 0.401646 0.863545 0.212974 0.585577 0.455552Z" fill="#151515"></path>
  <path d="M23.4716 10.2036C22.1126 12.261 20.8772 14.1298 20.7228 14.3634L20.4448 14.7856L21.9067 15.6481C26.2513 18.1997 29.7619 21.2813 32.6651 25.0727C33.149 25.7016 33.5711 26.2048 33.602 26.1868C33.6328 26.1688 35.7742 25.0907 38.348 23.7969C40.9218 22.4942 43.0426 21.4251 43.0631 21.4161C43.1146 21.3801 42.3116 20.2481 41.4571 19.17C38.0494 14.8305 33.4887 10.8505 28.5162 7.87663C27.5278 7.28366 26.0351 6.4571 25.963 6.4571C25.9527 6.4571 24.8305 8.14616 23.4716 10.2036Z" fill="#151515"></path>
  <path d="M12.2808 19.7719L11.8278 20.7871L10.963 21.0297C10.4895 21.1645 9.68644 21.452 9.18198 21.6766L8.26572 22.0719L7.12296 21.6316L5.98021 21.1824L4.59037 22.3953L3.20053 23.6082L3.71529 24.6055L4.21974 25.6027L3.6844 26.5551C3.38584 27.0762 3.06669 27.777 2.97404 28.1094L2.78873 28.7113L1.62538 29.0977L0.462036 29.484L0.482626 31.2359L0.513512 32.9789L1.62538 33.3562L2.73725 33.7336L3.03581 34.5152C3.20053 34.9375 3.52997 35.6113 3.75647 36.0066C3.98296 36.4109 4.16827 36.7793 4.16827 36.8332C4.16827 36.8871 3.95207 37.3633 3.6844 37.8754L3.21083 38.8187L4.61096 40.0316L6.0008 41.2535L7.08178 40.8402C7.6686 40.6066 8.20395 40.418 8.26572 40.418C8.32749 40.418 8.74959 40.5797 9.21286 40.7773C9.66585 40.984 10.4483 41.2625 10.9424 41.3973L11.8381 41.6578L12.2705 42.6281L12.6926 43.6074L14.7001 43.6344L16.6974 43.6523L17.1401 42.6371L17.5828 41.6219L18.2725 41.4602C18.6535 41.3793 19.4565 41.1008 20.0536 40.8402L21.1346 40.373L22.2053 40.7953C22.7818 41.0289 23.3171 41.2176 23.3686 41.2176C23.4304 41.2266 24.0893 40.6875 24.8408 40.0316L26.2101 38.8367L25.6953 37.8395L25.1908 36.8422L25.6438 36.0426C25.9012 35.6023 26.2307 34.9016 26.3851 34.4883L26.663 33.7336L27.8264 33.3383L28.9794 32.943V31.218V29.493L27.8058 29.1066L26.6425 28.7203L26.4263 28.0824C26.3027 27.723 25.9836 27.0312 25.7056 26.5281L25.1908 25.6207L25.7056 24.6055L26.2101 23.5813L24.8305 22.3773L23.451 21.1734L22.2979 21.6316L21.1449 22.0809L20.1463 21.6496C19.5903 21.416 18.7873 21.1285 18.3549 21.0117L17.5725 20.8051L17.1298 19.7809L16.6871 18.7656H14.7104H12.7338L12.2808 19.7719ZM16.6768 24.6504C17.5622 24.857 18.8388 25.432 19.58 25.9531C20.8154 26.8246 21.8244 28.1902 22.2567 29.5469C22.5038 30.3375 22.5038 32.0715 22.2567 32.8711C21.6493 34.8836 19.8477 36.6984 17.6857 37.4891C15.6679 38.2258 13.2794 38.1629 11.3131 37.3184C7.63772 35.7461 5.94932 31.9008 7.51417 28.6395C8.5128 26.573 10.6748 25.0277 13.228 24.5516C14.0516 24.3988 15.8017 24.4527 16.6768 24.6504Z" fill="#151515"></path>
  <path d="M18.2005 28.3969C17.9946 28.5586 16.7283 29.5559 15.4002 30.6071L12.9809 32.5117L11.9411 31.6133C10.9528 30.7688 10.8704 30.7149 10.4586 30.7149C9.89237 30.7149 9.62469 30.9485 9.62469 31.4516C9.62469 31.811 9.67617 31.8649 11.0351 33.0598C12.4661 34.3266 12.7441 34.4883 13.2383 34.3176C13.3721 34.2727 14.6178 33.3383 16.0077 32.2422C19.7448 29.2864 19.8168 29.2235 19.8168 28.8731C19.8168 28.1094 18.9315 27.8489 18.2005 28.3969Z" fill="#151515"></path>
  <path d="M39.0686 24.9648C36.5463 26.2406 34.4461 27.3008 34.3946 27.3188C34.3432 27.3367 34.652 27.9746 35.0844 28.7383C37.4832 32.9969 38.8009 37.4531 39.0274 42.0352C39.0686 42.7539 39.1407 43.4098 39.1922 43.4906C39.2745 43.6434 39.6348 43.6523 44.5559 43.6523C48.5298 43.6523 49.8682 43.6254 49.9608 43.5445C50.2388 43.302 50.0226 39.7531 49.5696 37.1207C48.7769 32.5656 47.0885 27.9746 44.7 23.9316C44.2882 23.2398 43.8867 22.6648 43.8044 22.6559C43.722 22.6469 41.5909 23.6891 39.0686 24.9648Z" fill="#151515"></path>
</svg>
