<?xml version="1.0" encoding="UTF-8"?>
<svg xmlns="http://www.w3.org/2000/svg" width="47" height="47" viewBox="0 0 47 47" fill="none">
  <path d="M4.28539 0.784069C2.52596 1.16394 1.24638 2.27358 0.606586 3.97303C0.406651 4.50286 0.386658 4.71279 0.386658 7.68182C0.386658 10.6708 0.396654 10.8608 0.606586 11.4006C1.15641 12.8501 2.17607 13.8598 3.6256 14.4096C4.15543 14.6096 4.36536 14.6296 7.33439 14.6296C10.3034 14.6296 10.5134 14.6096 11.0432 14.4096C12.9826 13.6799 14.1422 12.1304 14.3021 10.051L14.3621 9.2813L27.6178 9.30129C38.9141 9.33128 40.9334 9.36127 41.2733 9.48123C41.8931 9.70116 42.6729 10.5409 42.8628 11.1807C43.1027 11.9704 43.1027 19.388 42.8628 20.1777C42.6729 20.8275 41.8831 21.6673 41.2733 21.8672C41.0534 21.9372 40.2237 22.0171 39.4239 22.0471L37.9744 22.1071L38.8441 21.1974C40.0137 19.9878 40.1837 19.348 39.5939 18.4683C39.184 17.8485 38.1843 17.5786 37.5445 17.9185C37.3946 17.9985 36.185 19.1581 34.8554 20.4976C31.4765 23.8965 31.4765 23.4567 34.8554 26.8556C36.185 28.1951 37.3946 29.3548 37.5445 29.4347C38.1843 29.7746 39.184 29.5047 39.5939 28.8849C40.1837 28.0052 40.0037 27.3354 38.8441 26.1558L37.9844 25.2761H39.6339C40.7835 25.2761 41.4633 25.2261 41.8731 25.1261C44.0024 24.5763 45.7219 22.7869 46.1717 20.6276C46.3817 19.6079 46.3817 11.7505 46.1717 10.7308C45.7219 8.57153 44.0024 6.78211 41.8731 6.23229C41.3533 6.10233 39.5439 6.08234 27.8177 6.08234H14.3621L14.3021 5.3026C14.1422 3.23327 12.9726 1.67378 11.0432 0.954014C10.5333 0.764076 10.2434 0.744081 7.58431 0.724089C5.99483 0.704096 4.50531 0.734085 4.28539 0.784069Z" fill="#FF7705"></path>
  <path d="M20.2802 16.7788C18.021 17.2586 16.5414 18.9681 16.3615 21.2973L16.3015 22.0771H10.7733H5.24512L4.45538 22.327C2.47602 22.9568 0.916532 24.6762 0.486672 26.7255C0.276741 27.7452 0.276741 35.6026 0.486672 36.6223C0.936526 38.7816 2.65596 40.571 4.78527 41.1208C5.2951 41.2508 6.66466 41.2708 14.5221 41.2708H23.6791L22.8094 42.1405C22.3395 42.6304 21.8997 43.1202 21.8397 43.2402C21.6498 43.61 21.7098 44.4598 21.9397 44.8396C22.3395 45.4894 23.3492 45.7593 24.059 45.4094C24.4988 45.1895 28.7974 40.9109 29.0374 40.4511C29.2773 39.9812 29.2773 39.3614 29.0374 38.8916C28.7974 38.4317 24.4988 34.1531 24.059 33.9332C23.3492 33.5833 22.3395 33.8532 21.9397 34.503C21.7098 34.8829 21.6498 35.7326 21.8397 36.1025C21.8997 36.2224 22.3395 36.7123 22.8194 37.2021L23.6791 38.0818L14.732 38.0418C7.24447 38.0219 5.71497 37.9919 5.38508 37.8719C4.76528 37.652 3.98553 36.8123 3.79559 36.1725C3.55567 35.3827 3.55567 27.9651 3.79559 27.1754C3.98553 26.5356 4.76528 25.6959 5.38508 25.4759C5.70497 25.366 6.81461 25.326 11.0432 25.306L16.3015 25.266L16.3615 26.0458C16.5214 28.1251 17.6811 29.6746 19.6204 30.4043C20.1503 30.6043 20.3602 30.6243 23.3292 30.6243C26.2983 30.6243 26.5082 30.6043 27.038 30.4043C28.4875 29.8545 29.5072 28.8448 30.057 27.3953C30.267 26.8555 30.277 26.6656 30.277 23.6765C30.277 20.6875 30.267 20.4976 30.057 19.9577C29.5072 18.5082 28.4775 17.4886 27.038 16.9487C26.5282 16.7588 26.2383 16.7388 23.5791 16.7188C21.9897 16.6988 20.5001 16.7288 20.2802 16.7788Z" fill="#FF7705"></path>
  <path d="M36.2749 32.7737C34.5155 33.1535 33.2359 34.2632 32.5961 35.9626C32.3962 36.4924 32.3762 36.7024 32.3762 39.6714C32.3762 42.6604 32.3862 42.8504 32.5961 43.3902C33.146 44.8397 34.1656 45.8494 35.6152 46.3992C36.145 46.5991 36.3549 46.6191 39.324 46.6191C42.293 46.6191 42.5029 46.5991 43.0327 46.3992C44.4823 45.8494 45.5019 44.8397 46.0518 43.3902C46.2617 42.8504 46.2717 42.6604 46.2717 39.6714C46.2717 36.6824 46.2617 36.4924 46.0518 35.9526C45.5019 34.5031 44.4723 33.4834 43.0327 32.9436C42.5229 32.7537 42.233 32.7337 39.5739 32.7137C37.9844 32.6937 36.4949 32.7237 36.2749 32.7737Z" fill="#FF7705"></path>
</svg>
