<?xml version="1.0" encoding="UTF-8"?>
<svg xmlns="http://www.w3.org/2000/svg" width="54" height="53" viewBox="0 0 54 53" fill="none">
  <path d="M25.2268 2.33662C23.4484 2.70883 21.9389 3.86681 21.2152 5.39701C20.6052 6.65839 20.5224 7.14433 20.5328 9.09843C20.5431 10.6493 20.5638 10.8871 20.8223 11.7349C21.2048 12.9963 21.7425 13.9785 22.4869 14.7746C23.2623 15.6018 23.9447 16.0463 24.989 16.3979C25.6713 16.6357 25.9815 16.677 26.9844 16.677C28.2872 16.6874 29.1039 16.5219 29.9621 16.0877C31.6267 15.2502 32.8674 13.5236 33.4154 11.3007C33.7256 10.0393 33.7256 7.85773 33.405 6.68941C32.7847 4.35275 31.1097 2.76052 28.8144 2.32628C27.8116 2.14017 26.1263 2.14017 25.2268 2.33662Z" fill="#151515"></path>
  <path d="M24.7408 20.4095C24.7718 20.4922 25.1026 20.9782 25.4645 21.4848C25.8367 21.9914 26.2193 22.56 26.3227 22.7565C26.6535 23.3665 26.5708 24.2143 25.9711 26.3338C25.6713 27.3678 25.4335 28.3086 25.4335 28.412C25.4335 28.6912 27.0154 31.338 27.1188 31.2346C27.2532 31.1002 28.742 28.5154 28.742 28.412C28.742 28.3707 28.4835 27.4194 28.1734 26.3132C27.5737 24.1833 27.491 23.5216 27.7598 22.8909C27.8425 22.6945 28.2561 22.0431 28.6903 21.4434C29.1142 20.8541 29.4658 20.3475 29.4658 20.3164C29.4658 20.2854 28.3905 20.2647 27.0774 20.2647C25.0509 20.2647 24.6994 20.2854 24.7408 20.4095Z" fill="#151515"></path>
  <path d="M18.5476 21.3919C16.3557 22.4672 14.7221 24.0801 13.6572 26.2203C12.7473 28.04 12.5095 29.3013 12.5095 32.217V34.3262H15.0426H17.5757V32.4858C17.5757 30.4903 17.6481 30.1905 18.1444 30.1905C18.6717 30.1905 18.713 30.3559 18.713 32.4238V34.3262H27.036H35.3591V32.4858C35.3591 30.4903 35.4314 30.1905 35.9277 30.1905C36.455 30.1905 36.4964 30.3559 36.4964 32.4238V34.3262H39.1018H41.697L41.6349 31.9688C41.5626 29.3737 41.4178 28.4535 40.8388 27.0267C39.8256 24.4936 37.8301 22.4051 35.3074 21.2368C34.8731 21.03 34.5009 20.8853 34.4802 20.9059C34.4699 20.9266 32.888 23.6251 30.9649 26.913C29.0418 30.2008 27.3772 32.9407 27.2635 33.0028C27.1084 33.0855 27.005 33.0648 26.8086 32.92C26.6742 32.8063 25.0199 30.0975 23.1382 26.882C21.2668 23.6665 19.6952 21.0093 19.6539 20.9576C19.6125 20.9163 19.1162 21.1127 18.5476 21.3919Z" fill="#151515"></path>
  <path d="M13.9467 37.1279C11.9512 37.4174 10.2556 38.958 9.71797 40.9534C9.52153 41.6772 9.57322 43.0626 9.81102 43.8484C10.9587 47.5291 15.694 48.6768 18.4339 45.9369C19.4058 44.9754 19.9537 43.6623 19.9537 42.3285C19.9537 41.6048 19.778 41.3566 19.2507 41.3566C18.8061 41.3566 18.6407 41.6461 18.589 42.5457C18.4959 43.9001 17.6378 45.1511 16.3661 45.7611C15.8388 46.0196 15.6423 46.0506 14.7842 46.061C13.9364 46.061 13.7296 46.0196 13.2333 45.7921C11.6411 45.0374 10.7415 43.4141 10.969 41.7185C11.1861 40.1263 12.5095 38.7719 14.1535 38.4617C14.8048 38.3376 15.3425 38.3996 16.1386 38.6891C16.9037 38.958 17.2759 38.9063 17.462 38.5237C17.6688 38.0895 17.4827 37.7793 16.821 37.4795C16.3144 37.2417 15.1874 37.0039 14.7325 37.0245C14.6187 37.0349 14.2672 37.0762 13.9467 37.1279Z" fill="#151515"></path>
  <path d="M37.9439 37.1177C36.0311 37.4175 34.4389 38.7409 33.8082 40.5709C32.8053 43.4866 34.625 46.7227 37.613 47.3431C39.3397 47.705 40.9836 47.25 42.2553 46.0714C43.3099 45.0891 43.9199 43.7554 43.9303 42.3906C43.9406 41.6669 43.7442 41.3567 43.2789 41.3567C42.7826 41.3567 42.6275 41.5945 42.5758 42.463C42.4724 43.8898 41.635 45.1098 40.3219 45.7405C39.7222 46.03 39.5465 46.061 38.7193 46.061C37.8715 46.061 37.7164 46.03 37.0961 45.7198C35.5142 44.9444 34.6147 43.2178 34.9455 41.6048C35.2867 39.9402 36.4757 38.7823 38.1507 38.4617C38.771 38.348 39.7119 38.4617 40.2082 38.7099C40.8906 39.0718 41.4592 38.834 41.4592 38.2033C41.4592 37.7794 41.2421 37.6036 40.3736 37.3348C39.5775 37.0866 38.6676 37.0039 37.9439 37.1177Z" fill="#151515"></path>
  <path d="M17.2656 39.9608L14.9393 42.2871L14.2156 41.5737C13.8227 41.1808 13.3884 40.8086 13.2644 40.7466C12.9749 40.6019 12.5406 40.7052 12.4062 40.943C12.1684 41.398 12.2821 41.6048 13.4711 42.7834C14.4223 43.7346 14.6912 43.9414 14.9393 43.9414C15.1978 43.9414 15.6217 43.5589 17.9066 41.2739C20.233 38.9476 20.5742 38.5754 20.5742 38.2962C20.5742 37.9033 20.295 37.6345 19.8918 37.6345C19.6333 37.6345 19.2404 37.986 17.2656 39.9608Z" fill="#151515"></path>
  <path d="M41.2317 39.9815L38.8848 42.3285L38.0163 41.4807C37.0961 40.5812 36.8583 40.4778 36.4964 40.8397C36.0725 41.2636 36.2069 41.5324 37.4579 42.7834C38.4091 43.7346 38.678 43.9414 38.9261 43.9414C39.1846 43.9414 39.6085 43.5589 41.8934 41.2739C44.2198 38.9476 44.561 38.5754 44.561 38.2962C44.561 37.9033 44.2818 37.6345 43.8786 37.6345C43.6201 37.6345 43.2169 37.9964 41.2317 39.9815Z" fill="#151515"></path>
  <path d="M25.5162 40.5813C23.1382 41.181 21.5666 43.2074 21.577 45.6475C21.5873 47.7257 22.6522 49.442 24.4512 50.3001C27.9562 51.9854 31.9471 49.504 31.9471 45.6475C31.9471 45.0685 31.8231 44.841 31.4198 44.717C31.2751 44.6653 31.0993 44.717 30.9236 44.841C30.6858 45.0271 30.6444 45.1409 30.5927 45.8439C30.4997 46.8985 30.0757 47.767 29.3106 48.4804C28.5352 49.1835 27.8011 49.4626 26.7155 49.4626C25.9608 49.473 25.816 49.4316 25.0923 49.0801C21.8458 47.4775 22.3317 42.8146 25.847 41.9151C26.6431 41.7083 27.5013 41.7703 28.194 42.0805C28.8247 42.3596 29.0935 42.339 29.352 42.0184C29.6208 41.6773 29.6208 41.5532 29.3623 41.2223C28.8867 40.6227 26.7569 40.2608 25.5162 40.5813Z" fill="#151515"></path>
  <path d="M29.3313 43.3006L26.9326 45.6889L26.0952 44.8721C25.206 44.0036 24.9682 43.9002 24.5236 44.2104C24.3685 44.3138 24.2961 44.4689 24.2961 44.7067C24.2961 44.9962 24.4512 45.1926 25.4645 46.1955C26.2916 47.0123 26.7155 47.3535 26.8913 47.3535C27.2531 47.3535 32.5675 42.0392 32.5675 41.667C32.5675 41.3051 32.371 41.0776 32.0195 40.9846C31.7403 40.9226 31.5646 41.0673 29.3313 43.3006Z" fill="#151515"></path>
</svg>
