<?xml version="1.0" encoding="UTF-8"?>
<svg xmlns="http://www.w3.org/2000/svg" width="46" height="46" viewBox="0 0 46 46" fill="none">
  <path d="M8.28359 5.92949C8.02305 6.01933 7.68164 6.18105 7.51094 6.27988C7.03477 6.57636 6.34297 7.36699 6.05547 7.95098L5.79492 8.49004V17.2498V26.0096L6.10039 26.6115C6.46875 27.3482 7.20547 28.076 7.95117 28.4443L8.49023 28.7049L11.1586 28.7318L13.818 28.7588L13.6742 28.3275C13.5484 27.9502 13.5215 27.2674 13.4945 23.2154C13.4676 17.9686 13.4766 17.8697 14.0875 16.6209C14.5457 15.6775 15.6777 14.5455 16.6211 14.0873C17.834 13.4854 17.9418 13.4764 23 13.4854C27.043 13.4854 27.6 13.5033 28.148 13.6471L28.759 13.8088L28.732 11.1494L28.7051 8.49004L28.4625 7.96894C28.1211 7.25019 27.3574 6.46855 26.6117 6.10019L26.0098 5.79473L17.3848 5.77676C9.09219 5.75879 8.7418 5.75879 8.28359 5.92949Z" fill="#FF7705"></path>
  <path d="M18.2832 17.4027C17.8879 17.6094 17.6184 17.8789 17.4207 18.2563C17.259 18.5707 17.25 18.8402 17.25 23.018C17.25 27.4383 17.25 27.4473 17.4566 27.8066C17.5645 27.9953 17.834 28.2828 18.0406 28.4355L18.4359 28.7051H23H27.5641L27.9504 28.4355C28.157 28.2828 28.4266 27.9863 28.5434 27.7707L28.75 27.3754V22.9551V18.5258L28.4625 18.0945C28.3008 17.852 28.0043 17.5645 27.8066 17.4566L27.4473 17.25L23 17.259C19.1187 17.259 18.5168 17.277 18.2832 17.4027Z" fill="#FF7705"></path>
  <path d="M32.3258 17.6723C32.4606 18.0496 32.4785 18.6695 32.4785 23C32.4785 27.8875 32.4785 27.8965 32.2719 28.5254C31.9485 29.4867 31.5711 30.0707 30.7805 30.8613C30.2414 31.3914 29.8731 31.6699 29.3789 31.9125C28.166 32.5145 28.0582 32.5234 23 32.5145C18.957 32.5145 18.4 32.4965 17.852 32.3527L17.241 32.191L17.268 34.8504L17.2949 37.5098L17.6004 38.1117C17.9688 38.8484 18.7055 39.5762 19.4512 39.9445L19.9902 40.2051H28.75H37.5098L38.0488 39.9445C38.7945 39.5762 39.5313 38.8484 39.8996 38.1117L40.2051 37.5098V28.75V19.9902L39.9625 19.4691C39.6211 18.7504 38.8574 17.9687 38.1117 17.6004L37.5098 17.2949L34.8414 17.268L32.182 17.241L32.3258 17.6723Z" fill="#FF7705"></path>
</svg>
