<?xml version="1.0" encoding="UTF-8"?>
<svg xmlns="http://www.w3.org/2000/svg" width="46" height="46" viewBox="0 0 46 46" fill="none">
  <g clip-path="url(#clip0_1585_65110)">
    <path d="M8.625 4.17773V8.35547H10.0625H11.5V6.63047V4.89648L19.4062 12.8027L27.3125 20.709L29.4508 18.5707L31.5801 16.4414L34.6258 19.4871L37.6715 22.5328L37.402 22.8832C37.0156 23.3684 35.8836 24.4285 35.3535 24.8148C34.2484 25.6055 32.8379 26.2164 31.4273 26.5129C30.6457 26.6746 30.2863 26.6926 29.1543 26.6566C27.5012 26.6027 26.45 26.3602 25.1113 25.7043C21.877 24.123 19.7656 21.0863 19.3883 17.4746L19.2805 16.4504L16.5672 13.7371L13.8539 11.0238L13.6293 11.7426C13.1891 13.1262 13.0094 14.3031 12.9645 16.127C12.9016 18.418 13.1172 19.9094 13.8 21.9668C14.3031 23.4762 15.4531 25.6055 16.4324 26.8094L16.7199 27.1688L14.7164 29.1723L12.7129 31.1758L11.527 29.9898L10.332 28.7949L5.16602 33.9609C2.32695 36.8 0 39.1629 0 39.2168C0 39.3336 6.66641 46 6.7832 46C6.83711 46 9.2 43.673 12.0391 40.834L17.2051 35.668L15.9922 34.4551L14.7793 33.2422L16.7738 31.2566L18.7594 29.2621L19.541 29.8461C21.6164 31.4094 24.159 32.4875 26.8184 32.9457C28.0402 33.1523 30.8883 33.1523 32.0742 32.9457C34.5719 32.5145 36.7371 31.6609 38.7137 30.3223C42.6668 27.6629 45.3172 23.3684 45.9102 18.6605C46.0809 17.3488 45.982 14.5816 45.7395 13.3418C44.6344 7.8793 40.8699 3.32422 35.7129 1.22187C30.1785 -1.02422 23.8086 -0.0988274 19.1008 3.64766L18.5707 4.06094L20.8617 6.35196L23.1527 8.64297L23.7727 8.21172C24.9047 7.43906 26.3062 6.86406 27.7527 6.59453C28.8848 6.37891 30.8344 6.45977 32.0023 6.76524C34.7695 7.49297 37.1953 9.45156 38.516 12.0301C39.4234 13.809 39.8008 15.9563 39.5312 17.834C39.4234 18.5527 39.1809 19.6039 39.091 19.6938C39.0551 19.7297 37.375 18.1035 35.3535 16.082C33.323 14.0516 31.634 12.3984 31.5801 12.3984C31.5352 12.3984 30.5469 13.3418 29.4059 14.4828L27.3125 16.5762L20.4125 9.67617L13.5215 2.78516H15.3004H17.0703V1.39258V0H12.8477H8.625V4.17773Z" fill="#FF7705"></path>
    <path d="M23.6289 39.0371V40.4297H34.8145H46V39.0371V37.6445H34.8145H23.6289V39.0371Z" fill="#FF7705"></path>
    <path d="M15.2734 44.5625V46H23.6738H32.0742V44.5625V43.125H23.6738H15.2734V44.5625Z" fill="#FF7705"></path>
  </g>
  <defs>
    <clipPath id="clip0_1585_65110">
      <rect width="46" height="46" fill="white"></rect>
    </clipPath>
  </defs>
</svg>
