<?xml version="1.0" encoding="UTF-8"?>
<svg xmlns="http://www.w3.org/2000/svg" width="47" height="46" viewBox="0 0 47 46" fill="none">
  <g clip-path="url(#clip0_1585_65037)">
    <path d="M9.11535 0.14381C6.95012 0.530138 5.21614 1.41061 3.76067 2.86608C2.27824 4.33951 1.37981 6.1274 1.02942 8.26568C0.499339 11.5719 1.53254 14.9501 3.76067 17.1692C5.10832 18.5079 6.75246 19.3704 8.81887 19.8286C9.3759 19.9454 9.93293 19.9903 11.047 19.9813C12.3497 19.9723 12.6372 19.9454 13.4099 19.7387C15.054 19.2985 16.5275 18.4719 17.7673 17.304C21.8642 13.4317 21.981 6.936 18.0279 2.95592C16.5544 1.46451 14.7845 0.521154 12.7361 0.134827C11.8466 -0.0358772 10.0857 -0.0268936 9.11535 0.14381ZM11.5861 3.22545C11.7568 3.31529 11.9814 3.53092 12.0802 3.69264C12.2419 3.97115 12.2599 4.18678 12.2868 6.39693L12.3138 8.80475H13.94C15.7458 8.80475 16.0513 8.87662 16.3568 9.37975C16.6353 9.83795 16.6622 10.1883 16.4376 10.6465C16.0872 11.3743 15.9435 11.4102 13.1404 11.4102C10.445 11.4102 10.3013 11.3833 9.89699 10.7903L9.69035 10.4758L9.71731 7.15162C9.74426 3.98014 9.75324 3.80943 9.92395 3.57584C10.3013 3.07272 11.02 2.91998 11.5861 3.22545Z" fill="black"></path>
    <path d="M37.9372 12.758C37.2095 13.1982 37.1017 14.4111 37.7396 14.9501C37.8923 15.0759 38.2337 15.2466 38.5032 15.3275L39.0064 15.4712L36.3649 16.9896C15.9884 28.7322 12.7989 30.6009 12.6013 30.8974C12.3138 31.3287 12.3138 32.0115 12.6192 32.4517C12.8888 32.847 13.4997 33.1076 13.9669 33.0357C14.2454 32.9908 17.9649 30.8615 38.5032 19.0021L40.3989 17.906L40.2732 18.4181C40.1114 19.038 40.2192 19.5322 40.5876 19.9005C40.8931 20.206 41.1446 20.3048 41.6208 20.3048C42.0521 20.3048 42.5013 20.0712 42.7259 19.7208C42.8966 19.4603 44.0196 15.3544 44.0196 14.9771C44.0196 14.8423 43.9657 14.5998 43.8939 14.438C43.6513 13.854 43.4446 13.7642 41.1806 13.1533C38.8896 12.5333 38.3954 12.4794 37.9372 12.758Z" fill="black"></path>
    <path d="M6.57276 33.4759L6.59972 45.0567L6.79737 45.3802C6.91417 45.5509 7.1298 45.7665 7.29151 45.8563C7.57003 46.0001 8.80089 46.0091 26.8864 45.9821L46.1939 45.9552L46.4903 45.6227C47.0204 45.0477 47.0204 44.2571 46.4903 43.6821L46.1939 43.3497L27.7669 43.3227L9.33995 43.3048V32.9368V22.5688L8.91769 22.5059C8.46847 22.4431 6.98605 22.0747 6.70753 21.9669C6.5548 21.904 6.5548 22.4341 6.57276 33.4759Z" fill="black"></path>
    <path d="M36.2122 24.3207C36.0415 24.4105 35.8169 24.5992 35.7181 24.734C35.5294 24.9855 35.5294 25.0574 35.5025 32.802L35.4845 40.6094H39.7521H44.0197V32.9008C44.0197 25.5785 44.0107 25.1832 43.849 24.8867C43.7591 24.716 43.5794 24.4914 43.4447 24.3926C43.2111 24.2219 43.0583 24.2129 39.8599 24.1859C36.8142 24.168 36.4907 24.177 36.2122 24.3207Z" fill="black"></path>
    <path d="M24.7482 30.9422C24.3888 31.1039 24.0923 31.4453 23.9845 31.8137C23.9306 31.9934 23.8947 33.8711 23.8947 36.3598V40.6094H28.2072H32.5286L32.5017 36.225C32.4747 32.0383 32.4657 31.8406 32.295 31.5441C32.1962 31.3734 31.9986 31.1578 31.8638 31.05C31.6122 30.8703 31.5044 30.8613 28.315 30.8434C25.7005 30.8254 24.9638 30.8434 24.7482 30.9422Z" fill="black"></path>
    <path d="M13.1224 37.6625C12.5115 37.9859 12.3947 38.2914 12.3947 39.5492V40.6094H16.6712H20.9478L20.9118 39.4953C20.8849 38.2824 20.822 38.1117 20.265 37.6984C20.0314 37.5187 19.8876 37.5098 16.77 37.4828C13.5177 37.4559 13.5087 37.4559 13.1224 37.6625Z" fill="black"></path>
  </g>
  <defs>
    <clipPath id="clip0_1585_65037">
      <rect width="46" height="46" fill="white" transform="translate(0.894653)"></rect>
    </clipPath>
  </defs>
</svg>
