<?xml version="1.0" encoding="UTF-8"?>
<svg xmlns="http://www.w3.org/2000/svg" width="46" height="46" viewBox="0 0 46 46" fill="none">
  <path d="M25.3532 0.098678C24.9306 0.143521 24.535 0.233207 24.4721 0.295987C24.4092 0.358768 24.1754 1.02244 23.9596 1.78478C23.7349 2.53814 23.5461 3.16594 23.5281 3.17491C23.5191 3.18388 23.0875 3.31841 22.5661 3.47984C21.5681 3.79374 20.5163 4.24217 19.6711 4.71751L19.1497 5.00451L17.8551 4.28702C17.1358 3.90137 16.4975 3.5785 16.4256 3.5785C16.2368 3.5785 14.6994 4.88791 13.8453 5.78477C12.9552 6.70854 12.3169 7.52468 12.3169 7.73096C12.3169 7.81168 12.6675 8.51123 13.0991 9.30047L13.8812 10.7265L16.1558 11.8655C17.4055 12.4843 18.5293 12.9955 18.6372 12.9955C18.7901 12.9955 18.9969 12.7982 19.4284 12.2601C21.5502 9.56953 25.1644 8.08074 28.5538 8.51123C33.1839 9.08522 36.7891 12.574 37.4994 17.157C37.6612 18.1884 37.5533 20.1435 37.2836 21.1839C36.7262 23.2915 35.4136 25.3005 33.7323 26.6188C33.2918 26.9686 32.9951 27.2646 32.9951 27.3632C32.9951 27.4529 33.5076 28.5561 34.1369 29.8117L35.2877 32.0897L36.6902 32.861C37.4544 33.2825 38.1916 33.6233 38.3265 33.6233C38.9288 33.6233 42.4352 30.1435 42.4352 29.5336C42.4352 29.444 42.1295 28.8162 41.7519 28.1345L41.0776 26.8969L41.662 25.7041C41.9766 25.0583 42.3902 24.0538 42.57 23.4888L42.9027 22.4484L44.3052 22.0449C45.5998 21.6771 45.7257 21.6233 45.8516 21.3812C46.0493 20.9866 46.0493 16.305 45.8516 15.9103C45.7257 15.6682 45.5998 15.6054 44.3322 15.2377C43.568 15.0045 42.9117 14.7713 42.8757 14.6906C42.8397 14.6278 42.6779 14.1615 42.5251 13.6682C42.3722 13.1749 41.9856 12.2332 41.662 11.5785L41.0776 10.3857L41.7609 9.13903C42.1295 8.45742 42.4352 7.82065 42.4352 7.72199C42.4352 7.17491 38.812 3.56056 38.2905 3.58747C38.2186 3.58747 37.5983 3.90137 36.906 4.28702L35.6563 4.9776L34.6494 4.47536C33.6604 3.97312 32.4377 3.49778 31.6375 3.30944L31.224 3.20182L30.8374 1.85652C30.6216 1.11213 30.3789 0.430516 30.3069 0.34083C30.0372 0.0269291 27.2322 -0.1076 25.3532 0.098678Z" fill="white"></path>
  <path d="M21.9189 13.1839C21.829 13.2287 21.7571 13.3812 21.7571 13.5068C21.7571 13.6951 22.0448 14.0359 23.0337 15.0314L24.3194 16.3139L19.923 20.6996C16.2459 24.3677 15.5356 25.1211 15.5356 25.3274C15.5356 25.5337 15.9582 26 17.999 28.0269C19.8691 29.9014 20.5164 30.4843 20.6782 30.4843C20.849 30.4843 21.9009 29.4888 25.3083 26.0897L29.7137 21.6951L30.9724 22.9507C31.6646 23.6413 32.303 24.2332 32.3839 24.2601C32.4738 24.287 32.6176 24.2601 32.7255 24.2063C32.9053 24.1077 32.9053 24.0538 32.9053 18.6906C32.9053 13.426 32.8964 13.2646 32.7345 13.1749C32.4918 13.0494 22.1347 13.0583 21.9189 13.1839Z" fill="white"></path>
  <path d="M9.59286 13.6861C9.5569 13.713 9.52993 13.8475 9.52993 13.9731C9.52993 14.1435 9.75469 14.4305 10.402 15.0762L11.2831 15.9552L8.15438 19.0762C6.23041 20.9955 5.03467 22.2601 5.03467 22.3677C5.03467 22.6099 8.6129 26.1794 8.85564 26.1794C8.97252 26.1794 10.1053 25.1121 12.1552 23.0673L15.2749 19.9552L16.2099 20.8699C16.7224 21.3722 17.2078 21.7847 17.2798 21.7847C17.3517 21.7847 17.4776 21.713 17.5585 21.6233C17.6933 21.4708 17.7113 21.0673 17.7113 17.6502C17.7113 14.8072 17.6843 13.8117 17.6034 13.7309C17.5225 13.6502 16.5066 13.6233 13.5757 13.6233C11.4179 13.6233 9.61984 13.6502 9.59286 13.6861Z" fill="white"></path>
  <path d="M3.35345 23.8745C2.88595 24.3408 2.51733 24.7893 2.51733 24.879C2.51733 25.1211 6.09556 28.6906 6.33831 28.6906C6.61701 28.6906 8.18137 27.0942 8.18137 26.8072C8.18137 26.4843 4.729 23.0404 4.40534 23.0404C4.25251 23.0404 3.95582 23.2826 3.35345 23.8745Z" fill="white"></path>
  <path d="M0.800157 26.4216C0.134858 27.0673 0 27.2467 0 27.4798C0 27.722 0.233754 27.9821 1.78012 29.5247C2.91293 30.6458 3.62318 31.2915 3.74006 31.2915C3.94684 31.2915 5.66403 29.5964 5.66403 29.3991C5.66403 29.3363 4.84589 28.4664 3.84794 27.4619C2.48138 26.0987 1.97792 25.6413 1.81609 25.6413C1.66325 25.6413 1.35757 25.8745 0.800157 26.4216Z" fill="white"></path>
  <path d="M14.2501 26.4484C13.9624 26.565 11.9575 28.6458 11.9575 28.8341C11.9575 28.9417 12.9195 29.9731 14.4569 31.4978C16.4168 33.444 17.0012 33.9821 17.181 33.9821C17.4957 33.9821 19.5995 31.8744 19.5995 31.5516C19.5995 31.3901 19.0061 30.7444 17.154 28.9058C15.8055 27.5695 14.6367 26.4484 14.5648 26.4305C14.4928 26.4036 14.349 26.4126 14.2501 26.4484Z" fill="white"></path>
  <path d="M24.3824 28.4394C24.1397 28.6816 24.2835 28.9327 25.1736 29.8116L26.0726 30.7085L22.9259 33.8565C20.3636 36.4036 19.7882 37.0314 19.8332 37.1749C19.8692 37.2645 20.6873 38.1435 21.6583 39.1121C22.9979 40.4663 23.4744 40.8879 23.6452 40.8879C23.816 40.8879 24.5622 40.1883 26.9717 37.7937L30.0734 34.6995L30.9725 35.5964C31.4669 36.0897 31.9344 36.4932 32.0243 36.4932C32.1053 36.4932 32.2401 36.4305 32.312 36.3497C32.4379 36.2242 32.4559 35.7399 32.4559 32.3767C32.4559 29.5157 32.4289 28.5202 32.348 28.4394C32.1952 28.287 24.5352 28.287 24.3824 28.4394Z" fill="white"></path>
  <path d="M9.45793 31.139C8.63979 31.9552 8.36108 32.296 8.36108 32.4574C8.36108 32.6368 8.92749 33.2466 10.8694 35.1839C13.0451 37.3543 13.4048 37.6771 13.5936 37.6323C13.8723 37.5605 16.003 35.4081 16.003 35.1928C16.003 35.0852 14.9961 34.009 13.5127 32.5292C11.5527 30.574 10.9683 30.0359 10.7885 30.0359C10.6177 30.0359 10.294 30.3049 9.45793 31.139Z" fill="white"></path>
  <path d="M18.1338 38.6368C17.6573 39.1211 17.2617 39.5695 17.2617 39.6413C17.2617 39.7041 18.0799 40.574 19.0778 41.5785C20.4444 42.9507 20.9478 43.3991 21.1187 43.3991C21.4513 43.3991 22.9527 41.9014 22.9527 41.5606C22.9527 41.3543 22.6381 41.0045 21.1546 39.5336C20.0218 38.3946 19.3026 37.7489 19.1857 37.7489C19.0778 37.7489 18.6642 38.0987 18.1338 38.6368Z" fill="white"></path>
  <path d="M15.5715 41.1839C14.9691 41.7848 14.7444 42.0718 14.7444 42.2422C14.7444 42.5471 18.2057 46 18.5114 46C18.7721 46 20.3005 44.5471 20.3814 44.2242C20.4264 44.0359 20.1926 43.7668 18.6013 42.1794C17.4236 41.0045 16.7043 40.3498 16.5874 40.3498C16.4796 40.3498 16.075 40.6816 15.5715 41.1839Z" fill="white"></path>
</svg>
