<?xml version="1.0" encoding="UTF-8"?>
<svg xmlns="http://www.w3.org/2000/svg" width="48" height="48" viewBox="0 0 48 48" fill="none">
  <path d="M6.09941 8.03822C6.22859 8.03777 6.35778 8.03731 6.49087 8.03684C6.63455 8.03685 6.77822 8.03687 6.92189 8.0369C7.07428 8.03656 7.22667 8.03618 7.37906 8.03576C7.79845 8.03473 8.21784 8.03435 8.63724 8.03408C9.08934 8.03368 9.54143 8.0327 9.99353 8.03181C11.0857 8.02979 12.1779 8.02876 13.27 8.02785C13.7844 8.0274 14.2987 8.02685 14.8131 8.02631C16.5229 8.02457 18.2328 8.02309 19.9427 8.02235C20.3864 8.02215 20.8301 8.02196 21.2739 8.02176C21.3842 8.02171 21.4945 8.02166 21.6081 8.02161C23.3945 8.02076 25.1809 8.01817 26.9673 8.01484C28.8015 8.01146 30.6356 8.00962 32.4698 8.00929C33.4995 8.00907 34.5293 8.00818 35.5591 8.00556C36.4361 8.00334 37.3132 8.00252 38.1902 8.00351C38.6375 8.00398 39.0848 8.00378 39.5321 8.0018C39.9421 7.99999 40.3521 8.0001 40.7621 8.00168C40.9099 8.00193 41.0578 8.00149 41.2056 8.00027C42.5793 7.98967 43.7132 8.2898 44.7343 9.26041C45.6163 10.2184 45.9802 11.323 45.9758 12.6115C45.9762 12.7081 45.9767 12.8048 45.9771 12.9044C45.9784 13.2273 45.9782 13.5502 45.9781 13.8731C45.9787 14.105 45.9794 14.337 45.9801 14.5689C45.9819 15.1984 45.9824 15.8279 45.9825 16.4574C45.9827 16.8509 45.9831 17.2445 45.9836 17.638C45.9854 18.941 45.9863 20.2439 45.9862 21.5469C45.9862 21.6171 45.9862 21.6872 45.9861 21.7595C45.9861 21.8298 45.9861 21.9 45.9861 21.9724C45.986 23.11 45.988 24.2477 45.9908 25.3853C45.9937 26.5553 45.995 27.7252 45.9949 28.8951C45.9949 29.5512 45.9954 30.2073 45.9976 30.8634C45.9995 31.4809 45.9995 32.0983 45.9981 32.7157C45.9979 32.9417 45.9983 33.1677 45.9995 33.3937C46.0082 35.0981 45.905 36.3877 44.7406 37.7198C43.5997 38.8005 42.3517 38.9784 40.8449 38.9748C40.6939 38.9752 40.543 38.9756 40.3921 38.9762C39.9786 38.9774 39.5651 38.9774 39.1516 38.9772C38.7051 38.9771 38.2586 38.9782 37.8122 38.9792C36.9379 38.9809 36.0636 38.9815 35.1893 38.9816C34.4784 38.9817 33.7676 38.9821 33.0567 38.9828C31.04 38.9846 29.0234 38.9855 27.0067 38.9853C26.8437 38.9853 26.8437 38.9853 26.6774 38.9853C26.5686 38.9853 26.4598 38.9853 26.3477 38.9853C24.5849 38.9852 22.8221 38.9872 21.0593 38.9901C19.2481 38.993 17.4369 38.9944 15.6257 38.9942C14.6094 38.9942 13.593 38.9947 12.5766 38.9969C11.7111 38.9988 10.8457 38.9992 9.98023 38.9978C9.53899 38.9972 9.09778 38.9972 8.65655 38.9989C8.25191 39.0006 7.84731 39.0003 7.44266 38.9985C7.29699 38.9982 7.15132 38.9985 7.00565 38.9997C5.55191 39.0104 4.35614 38.7243 3.25928 37.7198C2.38747 36.7675 2.01969 35.6686 2.02416 34.3879C2.0237 34.2912 2.02325 34.1946 2.02278 34.095C2.02151 33.7721 2.02167 33.4492 2.02183 33.1263C2.02123 32.8943 2.02055 32.6624 2.01979 32.4304C2.01801 31.8009 2.01753 31.1715 2.01741 30.542C2.01726 30.1484 2.01683 29.7549 2.0163 29.3613C2.01453 28.0584 2.0136 26.7554 2.01375 25.4525C2.01376 25.3823 2.01376 25.3121 2.01377 25.2399C2.01378 25.1696 2.01379 25.0993 2.0138 25.027C2.01388 23.8893 2.01195 22.7517 2.00911 21.614C2.00622 20.4441 2.00487 19.2742 2.005 18.1042C2.00505 17.4481 2.00449 16.792 2.00235 16.136C2.0004 15.5185 2.00039 14.9011 2.00185 14.2837C2.00206 14.0577 2.00159 13.8317 2.00037 13.6057C1.99156 11.8626 2.13231 10.5131 3.34423 9.17729C4.10545 8.44186 5.05528 8.03993 6.09941 8.03822ZM5.67567 9.99571C6.21148 10.5001 6.74767 10.9959 7.31806 11.4599C7.89671 11.9342 8.43536 12.4466 8.97736 12.9629C9.44765 13.4107 9.9343 13.8373 10.4251 14.2617C11.1136 14.8578 11.7903 15.4632 12.4545 16.0871C12.7419 16.3557 13.0343 16.6174 13.3295 16.8772C13.5603 17.0825 13.7867 17.2924 14.0135 17.5022C14.3556 17.8165 14.7045 18.117 15.0644 18.4101C15.6447 18.8869 16.1858 19.4012 16.7299 19.9195C17.2002 20.3673 17.6869 20.7939 18.1777 21.2182C18.8667 21.8148 19.5437 22.4208 20.2086 23.0449C20.6636 23.4705 21.1307 23.8809 21.6017 24.2881C22.3828 24.9642 23.148 25.654 23.8993 26.3642C24.3106 26.196 24.5975 25.8968 24.9124 25.5905C25.3167 25.2036 25.7239 24.8303 26.1583 24.478C26.7336 24.0088 27.2673 23.4999 27.8051 22.9878C28.2753 22.54 28.762 22.1133 29.2528 21.689C29.9418 21.0925 30.6188 20.4864 31.2837 19.8623C31.7387 19.4367 32.2058 19.0263 32.6768 18.6191C33.3656 18.023 34.0423 17.4171 34.707 16.7933C35.162 16.3676 35.629 15.9572 36.1 15.55C36.7888 14.9539 37.4655 14.348 38.1302 13.7242C38.5852 13.2986 39.0522 12.8881 39.5232 12.4809C40.4851 11.6485 41.435 10.8067 42.3242 9.89341C42.0512 9.7547 41.8384 9.77814 41.5326 9.77794C41.4061 9.77761 41.2795 9.77728 41.1492 9.77694C41.0074 9.77709 40.8657 9.77725 40.724 9.77742C40.5744 9.77723 40.4249 9.777 40.2754 9.77672C39.863 9.77609 39.4505 9.77611 39.0381 9.77623C38.5939 9.77625 38.1497 9.77569 37.7056 9.7752C36.8348 9.77435 35.964 9.77407 35.0933 9.77401C34.3859 9.77396 33.6785 9.77375 32.9711 9.77343C30.9675 9.77253 28.964 9.77206 26.9604 9.77213C26.8523 9.77214 26.7442 9.77214 26.6329 9.77215C26.4705 9.77215 26.4705 9.77215 26.3049 9.77216C24.5498 9.7722 22.7946 9.77122 21.0395 9.76978C19.2394 9.76831 17.4392 9.7676 15.6391 9.76769C14.6277 9.76772 13.6162 9.76744 12.6048 9.76634C11.7438 9.76541 10.8828 9.76519 10.0218 9.76588C9.58218 9.76622 9.14252 9.76622 8.70287 9.76534C8.30094 9.76454 7.89902 9.76467 7.49709 9.76557C7.35115 9.76573 7.20521 9.76554 7.05927 9.76497C6.86195 9.76426 6.66463 9.76491 6.46732 9.76564C6.30243 9.76561 6.30243 9.76561 6.13422 9.76557C5.86025 9.76485 5.86025 9.76485 5.67567 9.99571ZM4.16543 11.0187C3.81597 11.698 3.74787 12.1921 3.74923 12.9543C3.749 13.0475 3.74878 13.1408 3.74854 13.2368C3.7479 13.5498 3.74799 13.8629 3.74807 14.1759C3.74777 14.4001 3.74743 14.6243 3.74704 14.8484C3.74615 15.4578 3.74592 16.0671 3.74586 16.6765C3.74576 17.1847 3.74539 17.693 3.74503 18.2012C3.74426 19.3314 3.74396 20.4615 3.74403 21.5917C3.74403 21.6595 3.74403 21.7273 3.74404 21.7971C3.74404 21.865 3.74405 21.9329 3.74405 22.0029C3.74409 23.1037 3.74313 24.2045 3.74171 25.3054C3.74026 26.4355 3.73959 27.5657 3.73965 28.6958C3.73968 29.3304 3.73939 29.965 3.73833 30.5996C3.73736 31.1961 3.73734 31.7926 3.73808 32.3891C3.73818 32.6083 3.73794 32.8276 3.73734 33.0468C3.73656 33.3455 3.73702 33.6441 3.7378 33.9428C3.73728 34.03 3.73677 34.1173 3.73623 34.2073C3.7381 34.7668 3.7381 34.7668 3.96406 35.2645C4.49856 34.6828 5.02794 34.1016 5.51835 33.4806C5.9054 32.9916 6.31711 32.5337 6.73894 32.0761C7.05076 31.7359 7.34662 31.3885 7.63269 31.0253C8.03814 30.5117 8.47386 30.0344 8.91773 29.5554C9.32469 29.1138 9.70258 28.6552 10.0746 28.1828C10.3915 27.7956 10.7296 27.4307 11.0684 27.0632C11.3802 26.7231 11.676 26.3757 11.9621 26.0125C12.3675 25.4988 12.8032 25.0215 13.2471 24.5425C13.6528 24.1024 14.0297 23.6454 14.4005 23.1744C14.8587 22.6141 15.3538 22.0867 15.8446 21.5559C15.4126 21.0182 14.9567 20.5702 14.4351 20.1237C14.2082 19.928 13.9818 19.7318 13.7555 19.5354C13.695 19.483 13.6345 19.4305 13.5721 19.3764C13.0661 18.9356 12.5744 18.4804 12.0848 18.0209C11.6298 17.5953 11.1627 17.1849 10.6917 16.7777C10.0034 16.1819 9.32701 15.5767 8.66312 14.953C8.37566 14.6844 8.08323 14.4227 7.78804 14.1629C7.5573 13.9576 7.3309 13.7478 7.10411 13.5379C6.75763 13.2198 6.40429 12.9149 6.04065 12.6172C5.5578 12.2212 5.10025 11.8035 4.64824 11.3721C4.43889 11.1268 4.43889 11.1268 4.16543 11.0187ZM43.1234 11.5878C43.0026 11.702 42.8817 11.8162 42.7608 11.9303C42.7024 11.9854 42.6439 12.0406 42.5837 12.0974C42.1657 12.4896 41.733 12.8644 41.2997 13.239C40.6108 13.8354 39.9339 14.4413 39.2691 15.0653C38.8154 15.4898 38.3498 15.8993 37.8796 16.3049C37.2801 16.823 36.6883 17.3459 36.1134 17.8922C35.7295 18.257 35.3408 18.6066 34.9303 18.9408C34.4202 19.3567 33.9427 19.8016 33.4675 20.2575C33.0737 20.6348 32.6698 20.9969 32.256 21.3513C32.3946 21.6423 32.5324 21.8663 32.7468 22.1058C33.0863 22.4909 33.4176 22.8822 33.7473 23.2759C34.1219 23.722 34.5018 24.1613 34.8926 24.593C35.2118 24.9463 35.5161 25.3059 35.8113 25.68C36.2216 26.1972 36.6611 26.6794 37.1089 27.1627C37.5159 27.6043 37.8938 28.0629 38.2659 28.5353C38.5338 28.8628 38.8159 29.1736 39.1024 29.4844C39.4678 29.8808 39.819 30.2812 40.1533 30.7056C40.5066 31.1532 40.8803 31.5734 41.2671 31.9908C41.7316 32.4921 42.1682 33.0059 42.5917 33.5437C43.05 34.1041 43.545 34.6314 44.0359 35.1622C44.2986 34.7617 44.2658 34.4238 44.2641 33.9592C44.2648 33.8201 44.2648 33.8201 44.2655 33.6783C44.2668 33.3663 44.2666 33.0544 44.2665 32.7425C44.2671 32.5193 44.2678 32.2962 44.2685 32.073C44.2703 31.4657 44.2708 30.8585 44.2709 30.2512C44.2711 29.7442 44.2718 29.2373 44.2725 28.7304C44.2741 27.6025 44.2747 26.4745 44.2746 25.3465C44.2745 25.245 44.2745 25.245 44.2745 25.1413C44.2745 25.0397 44.2745 25.0397 44.2745 24.9359C44.2744 23.907 44.276 22.878 44.2787 21.8491C44.2817 20.6538 44.2834 19.4585 44.2833 18.2631C44.2832 17.6306 44.2838 16.9981 44.286 16.3655C44.2879 15.7701 44.2879 15.1747 44.2865 14.5793C44.2862 14.3611 44.2867 14.1429 44.2879 13.9248C44.2895 13.6261 44.2886 13.3275 44.287 13.0288C44.288 12.9432 44.2891 12.8577 44.2901 12.7695C44.2827 12.1194 44.1025 11.6057 43.8345 11.0187C43.5911 11.0187 43.3033 11.4162 43.1234 11.5878ZM17.1535 22.6813C16.7463 23.071 16.3773 23.4782 16.0271 23.9217C15.6798 24.3606 15.3173 24.7771 14.9385 25.1877C14.5731 25.5841 14.2219 25.9845 13.8876 26.4089C13.4822 26.9226 13.0464 27.3999 12.6026 27.8789C12.1956 28.3204 11.8177 28.779 11.4457 29.2514C11.1289 29.6387 10.7907 30.0036 10.452 30.371C10.1402 30.7112 9.84432 31.0586 9.55825 31.4218C9.15281 31.9354 8.71708 32.4127 8.27322 32.8917C7.86659 33.3329 7.48902 33.7912 7.11709 34.2631C6.74848 34.714 6.35315 35.139 5.95963 35.5674C5.62127 35.9361 5.29395 36.3142 4.97089 36.6967C5.69367 37.343 6.61347 37.2376 7.5178 37.2349C7.66561 37.2352 7.81342 37.2356 7.96122 37.2361C8.36655 37.2372 8.77187 37.2369 9.1772 37.2365C9.61467 37.2363 10.0521 37.2372 10.4896 37.2379C11.3463 37.2393 12.2031 37.2394 13.0598 37.2392C13.7562 37.239 14.4526 37.2392 15.149 37.2396C15.2977 37.2397 15.2977 37.2397 15.4493 37.2398C15.6507 37.2399 15.8521 37.2401 16.0534 37.2402C17.9418 37.2413 19.8302 37.2411 21.7185 37.2404C23.4458 37.2399 25.1731 37.2411 26.9004 37.243C28.6742 37.245 30.4481 37.2458 32.2219 37.2455C33.2177 37.2453 34.2135 37.2455 35.2093 37.247C36.057 37.2482 36.9047 37.2483 37.7524 37.2471C38.1848 37.2465 38.6172 37.2464 39.0496 37.2476C39.4457 37.2487 39.8418 37.2484 40.2379 37.247C40.3809 37.2467 40.524 37.2469 40.667 37.2478C41.4214 37.2518 42.1407 37.2555 42.8277 36.9014C42.8941 36.8338 42.9606 36.7663 43.029 36.6967C42.4462 35.998 41.8621 35.3024 41.2482 34.6315C40.9071 34.2585 40.5805 33.8777 40.2665 33.4806C39.8795 32.9916 39.4678 32.5337 39.046 32.0761C38.7341 31.7359 38.4383 31.3885 38.1522 31.0253C37.7989 30.5778 37.4252 30.1575 37.0384 29.7402C36.5726 29.2375 36.135 28.7221 35.7102 28.1828C35.4423 27.8553 35.1602 27.5445 34.8737 27.2337C34.5083 26.8373 34.1571 26.4369 33.8228 26.0125C33.418 25.4997 32.9835 25.0226 32.5396 24.545C32.1127 24.083 31.7209 23.6038 31.34 23.1017C31.1507 22.8884 31.0057 22.7871 30.7457 22.6813C30.6289 22.7906 30.6289 22.7906 30.5097 22.9022C29.8203 23.5469 29.1256 24.1827 28.4119 24.7996C27.7238 25.3952 27.0478 26.0005 26.3837 26.6235C25.8807 27.0943 25.3677 27.55 24.8369 27.9882C24.7659 28.047 24.6949 28.1059 24.6218 28.1664C24.3645 28.3326 24.2047 28.3963 23.8993 28.4102C23.4164 28.2254 23.0706 27.9248 22.7037 27.5662C22.5967 27.4643 22.4898 27.3624 22.3827 27.2605C22.3316 27.2115 22.2805 27.1625 22.2278 27.112C21.8182 26.7221 21.3888 26.3544 20.9614 25.9849C20.3762 25.4784 19.7951 24.9694 19.2301 24.4396C19.1804 24.393 19.1307 24.3464 19.0795 24.2984C19.0315 24.2533 18.9834 24.2083 18.934 24.1619C18.3632 23.6275 17.7934 23.1283 17.1535 22.6813Z" fill="#FF7705"></path>
</svg>
