<?xml version="1.0" encoding="UTF-8"?>
<svg xmlns="http://www.w3.org/2000/svg" width="48" height="48" viewBox="0 0 48 48" fill="none">
  <g clip-path="url(#clip0_48_62)">
    <mask id="mask0_48_62" style="mask-type:luminance" maskUnits="userSpaceOnUse" x="0" y="0" width="48" height="48">
      <path d="M0 0H48V48H0V0Z" fill="white"></path>
    </mask>
    <g mask="url(#mask0_48_62)">
      <path fill-rule="evenodd" clip-rule="evenodd" d="M20.3911 13.6817C20.0126 13.8154 19.6301 13.9728 19.2684 14.1481C18.8332 14.357 18.3534 14.3264 17.9512 14.0654L15.6694 12.5914C15.6046 12.5497 15.5311 12.5578 15.4784 12.6117L12.6191 15.4687C12.5664 15.5225 12.5583 15.596 12.5994 15.6597L14.0751 17.9404C14.3349 18.3443 14.3679 18.8246 14.1567 19.2575C13.9813 19.6221 13.8234 20.0005 13.6926 20.3813C13.5305 20.8339 13.1717 21.1516 12.7007 21.2534L10.049 21.824C9.97555 21.8402 9.92636 21.8975 9.92636 21.9733V26.0144C9.92636 26.0902 9.97555 26.1481 10.049 26.1637L12.7007 26.7343C13.1729 26.835 13.5305 27.1527 13.6926 27.607C13.8234 27.9872 13.9813 28.3645 14.1567 28.7303C14.3639 29.1637 14.3361 29.6435 14.0751 30.048L12.5994 32.3292C12.5583 32.3929 12.5664 32.4664 12.6191 32.5202L15.4784 35.3773C15.5311 35.4311 15.6046 35.4392 15.6694 35.3975L17.9512 33.9236C18.1752 33.7772 18.4269 33.7037 18.6793 33.7037C18.8783 33.7037 19.0774 33.7494 19.2684 33.8408C19.6353 34.0162 20.0126 34.1736 20.3911 34.3073C20.8459 34.4664 21.1636 34.8258 21.2614 35.2957L21.8349 37.9496C21.8505 38.0243 21.9084 38.0711 21.9813 38.0711H26.0236C26.1011 38.0711 26.1578 38.0243 26.174 37.9508L26.7435 35.2968C26.8448 34.8269 27.1625 34.4664 27.6139 34.3078C27.9964 34.1747 28.3749 34.0185 28.74 33.842C29.1712 33.6331 29.6515 33.6637 30.0577 33.9236L32.3349 35.3975C32.3997 35.4392 32.4738 35.4311 32.5265 35.3773L35.3853 32.5202C35.4379 32.467 35.446 32.3929 35.4055 32.3292L33.9333 30.048C33.6694 29.6435 33.6405 29.1637 33.8477 28.7303C34.0271 28.3657 34.1816 27.9872 34.3158 27.6082C34.4744 27.1551 34.8367 26.8373 35.3037 26.7355L37.9599 26.1649C38.0334 26.1493 38.0774 26.0914 38.0774 26.0156V21.9745C38.0774 21.8987 38.0323 21.8408 37.9599 21.8252L35.3037 21.2546C34.8355 21.1539 34.4744 20.8362 34.3158 20.3819C34.1816 20.0017 34.0271 19.6244 33.8477 19.2586C33.6405 18.8258 33.6688 18.3455 33.9333 17.9409L35.4055 15.6608C35.446 15.596 35.4379 15.5231 35.3853 15.4693L32.5265 12.6122C32.4738 12.5584 32.3997 12.5509 32.3349 12.5926L30.0577 14.0665C29.6515 14.3275 29.1712 14.357 28.74 14.1481C28.3737 13.9716 27.9964 13.8154 27.6139 13.6817C27.1625 13.5225 26.8448 13.162 26.7435 12.6933L26.174 10.0393C26.1578 9.96466 26.1011 9.91779 26.0236 9.91779H21.9813C21.9078 9.91779 21.8505 9.96466 21.8349 10.0382L21.2614 12.6921C21.1636 13.1632 20.8471 13.5225 20.3911 13.6817ZM7.80425 39.8437H5.27069C4.99812 41.0277 3.9362 41.9143 2.67173 41.9143C1.20009 41.9143 0.00390625 40.7176 0.00390625 39.2465C0.00390625 37.7754 1.20009 36.5787 2.67173 36.5787C3.9362 36.5787 4.99812 37.4647 5.27069 38.6487H7.80425C8.21976 38.6487 8.5612 38.5086 8.85402 38.2199L12.7556 34.3726L13.6011 35.2181L9.69141 39.07C9.17462 39.5833 8.53631 39.8437 7.80425 39.8437ZM4.14337 39.2465C4.14337 38.434 3.48423 37.7737 2.67173 37.7737C1.85807 37.7737 1.20009 38.4346 1.20009 39.2465C1.20009 40.059 1.85923 40.7193 2.67173 40.7193C3.48539 40.7193 4.14337 40.0578 4.14337 39.2465ZM26.6706 45.3264C26.6706 44.0601 25.7846 42.9988 24.6005 42.7268V39.2864H23.4044V42.7268C22.2215 42.9988 21.3338 44.0613 21.3338 45.3264C21.3338 46.7968 22.534 47.9942 24.0016 47.9942C25.475 47.9942 26.6706 46.798 26.6706 45.3264ZM24.0027 43.853C24.8164 43.853 25.475 44.5144 25.475 45.3264C25.475 46.1389 24.8152 46.7992 24.0027 46.7992C23.1931 46.7992 22.5311 46.1377 22.5311 45.3264C22.5299 44.5144 23.1931 43.853 24.0027 43.853ZM39.1515 38.2187C39.4443 38.5075 39.7898 38.6481 40.2053 38.6481H42.7348C43.0074 37.4641 44.0681 36.5775 45.3378 36.5775C46.806 36.5775 48.0056 37.7748 48.0056 39.2453C48.0056 40.7164 46.806 41.9132 45.3378 41.9132C44.0693 41.9132 43.0074 41.0272 42.7348 39.8431H40.2053C39.4692 39.8431 38.8349 39.5833 38.3141 39.07L34.4044 35.2181L35.2499 34.3726L39.1515 38.2187ZM43.861 39.2465C43.861 40.059 44.5242 40.7193 45.3372 40.7193C46.1468 40.7193 46.8089 40.0578 46.8089 39.2465C46.8089 38.434 46.1457 37.7737 45.3372 37.7737C44.5242 37.7725 43.861 38.434 43.861 39.2465ZM42.7348 23.3964H39.2933V24.5914H42.7348C43.0074 25.7754 44.0681 26.662 45.3378 26.662C46.806 26.662 48.0056 25.4647 48.0056 23.9942C48.0056 22.522 46.806 21.3264 45.3378 21.3264C44.0681 21.3264 43.0074 22.2123 42.7348 23.3964ZM43.861 23.9948C43.861 23.1823 44.5242 22.522 45.3372 22.522C46.1468 22.522 46.8089 23.1823 46.8089 23.9948C46.8089 24.8067 46.1457 25.4681 45.3372 25.4681C44.5242 25.4681 43.861 24.8067 43.861 23.9948ZM42.7348 8.1458C43.0074 6.96177 44.0681 6.07577 45.3378 6.07577C46.806 6.07577 48.0056 7.27253 48.0056 8.7436C48.0056 10.2152 46.806 11.4114 45.3378 11.4114C44.0693 11.4114 43.0074 10.5248 42.7348 9.34082H40.2053C39.7898 9.34082 39.4443 9.48145 39.1515 9.77022L35.2499 13.6174L34.4044 12.772L38.3141 8.91952C38.8349 8.40679 39.4692 8.14695 40.2053 8.14695H42.7348V8.1458ZM43.861 8.7436C43.861 9.5561 44.5242 10.2164 45.3372 10.2164C46.1468 10.2164 46.8089 9.55494 46.8089 8.7436C46.8089 7.9311 46.1457 7.2708 45.3372 7.2708C44.5242 7.26964 43.861 7.9311 43.861 8.7436ZM21.3349 2.66316C21.3349 3.92878 22.2215 4.99013 23.4055 5.26212V8.70251H24.6011V5.26212C25.7846 4.99013 26.6717 3.92878 26.6717 2.66316C26.6717 1.29568 25.6387 0.165473 24.3124 0.0126953H23.6972C22.3708 0.165473 21.3349 1.29568 21.3349 2.66316ZM24.0027 4.13596C23.1931 4.13596 22.5311 3.47566 22.5311 2.66316C22.5311 1.85008 23.1943 1.18978 24.0027 1.18978C24.8164 1.18978 25.475 1.85124 25.475 2.66316C25.475 3.4745 24.8164 4.13596 24.0027 4.13596ZM5.27069 9.34082C4.99812 10.5248 3.9362 11.4114 2.67173 11.4114C1.20009 11.4114 0.00390625 10.2147 0.00390625 8.7436C0.00390625 7.27253 1.20009 6.07577 2.67173 6.07577C3.9362 6.07577 4.99812 6.96177 5.27069 8.1458H7.80425C8.53631 8.1458 9.17462 8.40621 9.69141 8.91895L13.6011 12.7708L12.7556 13.6163L8.85402 9.77022C8.5612 9.48145 8.21976 9.34082 7.80425 9.34082H5.27069ZM4.14337 8.7436C4.14337 7.9311 3.48423 7.2708 2.67173 7.2708C1.85807 7.2708 1.20009 7.93168 1.20009 8.7436C1.20009 9.5561 1.85923 10.2164 2.67173 10.2164C3.48539 10.2164 4.14337 9.55494 4.14337 8.7436ZM5.27069 23.3964C4.99812 22.2123 3.9362 21.3264 2.67173 21.3264C1.20009 21.3264 0.00390625 22.5231 0.00390625 23.9942C0.00390625 25.4647 1.20009 26.662 2.67173 26.662C3.9362 26.662 4.99812 25.7754 5.27069 24.5914H8.71282V23.3964H5.27069ZM2.67173 22.522C3.48539 22.522 4.14337 23.1834 4.14337 23.9948C4.14337 24.8067 3.48423 25.4681 2.67173 25.4681C1.85807 25.4681 1.20009 24.8067 1.20009 23.9948C1.20009 23.1823 1.85807 22.522 2.67173 22.522ZM27.8864 20.82C27.8864 20.4895 28.1555 20.2228 28.4842 20.2228C28.8135 20.2228 29.0815 20.4895 29.0815 20.82V27.0729C29.0815 27.4027 28.8129 27.6707 28.4842 27.6707C28.1544 27.6707 27.8864 27.4027 27.8864 27.0729V20.82ZM23.185 20.6487L26.3124 26.9016C26.4588 27.1967 26.3413 27.5561 26.0433 27.7037C25.9576 27.7465 25.8679 27.7673 25.7794 27.7673C25.5595 27.7673 25.3482 27.6458 25.2429 27.4369L24.5676 26.0821H20.7365L20.0571 27.4369C19.9107 27.7314 19.5531 27.8518 19.2556 27.7037C18.9588 27.5561 18.8401 27.1979 18.9865 26.9016L22.1139 20.6487C22.2151 20.4467 22.4223 20.3183 22.6503 20.3183C22.8766 20.3183 23.0838 20.4467 23.185 20.6487ZM23.9698 24.8865H21.3349L22.6526 22.2523L23.9698 24.8865ZM24.0027 15.7413C28.5537 15.7413 32.2585 19.4438 32.2585 23.9948C32.2585 28.5463 28.5537 32.2488 24.0027 32.2488C19.4518 32.2488 15.751 28.5463 15.751 23.9948C15.751 19.4438 19.4518 15.7413 24.0027 15.7413Z" fill="#FF7705"></path>
    </g>
  </g>
  <defs>
    <clipPath id="clip0_48_62">
      <rect width="48" height="48" fill="white"></rect>
    </clipPath>
  </defs>
</svg>
