<?xml version="1.0" encoding="UTF-8"?>
<svg xmlns="http://www.w3.org/2000/svg" width="48" height="48" viewBox="0 0 48 48" fill="none">
  <g clip-path="url(#clip0_3599_241)">
    <path d="M10.0264 -0.111376C10.1134 -0.119768 10.2004 -0.128161 10.2901 -0.136808C10.5835 -0.164426 10.877 -0.189828 11.1707 -0.214879C11.2736 -0.223945 11.3764 -0.233011 11.4824 -0.242352C14.2861 -0.48754 17.0946 -0.634657 19.9069 -0.731236C20.1088 -0.738221 20.3107 -0.745453 20.5126 -0.752718C26.6821 -0.971587 32.5962 -1.1438 37.3941 3.3221C38.1954 4.08713 38.9309 4.90652 39.6504 5.74809C39.7093 5.81669 39.7682 5.88529 39.829 5.95597C44.073 10.9082 44.073 10.9082 44.0748 12.3261C44.0751 12.4335 44.0755 12.5408 44.0759 12.6515C44.0758 12.77 44.0757 12.8885 44.0756 13.0106C44.0759 13.1373 44.0762 13.2641 44.0765 13.3908C44.0772 13.7399 44.0774 14.089 44.0775 14.438C44.0776 14.8142 44.0784 15.1903 44.079 15.5665C44.0803 16.3893 44.0808 17.2121 44.0812 18.0349C44.0815 18.5485 44.0819 19.062 44.0823 19.5756C44.0835 20.9968 44.0844 22.418 44.0847 23.8393C44.0848 23.9302 44.0848 24.0212 44.0848 24.115C44.0848 24.2062 44.0848 24.2974 44.0849 24.3914C44.0849 24.5762 44.0849 24.761 44.085 24.9458C44.085 25.0375 44.085 25.1292 44.085 25.2236C44.0854 26.7098 44.0871 28.196 44.0892 29.6821C44.0915 31.2071 44.0926 32.7321 44.0927 34.2571C44.0928 35.1137 44.0934 35.9702 44.0951 36.8268C44.0965 37.5561 44.097 38.2853 44.0962 39.0145C44.0958 39.3868 44.0959 39.7589 44.0973 40.1312C44.0984 40.4718 44.0983 40.8124 44.0972 41.153C44.0969 41.3348 44.098 41.5167 44.0992 41.6985C44.0983 41.8603 44.0983 41.8603 44.0973 42.0254C44.0974 42.1185 44.0974 42.2116 44.0975 42.3075C44.0439 42.698 43.8685 42.944 43.5937 43.2188C43.4074 43.2413 43.4074 43.2413 43.1766 43.2401C43.0902 43.2401 43.0039 43.24 42.915 43.24C42.8216 43.2391 42.7282 43.2381 42.632 43.2371C42.5366 43.2368 42.4411 43.2366 42.3428 43.2363C42.0371 43.2352 41.7314 43.2329 41.4257 43.2305C41.2188 43.2296 41.0119 43.2287 40.805 43.2279C40.2971 43.2259 39.7891 43.2227 39.2812 43.2188C39.2822 43.3385 39.2832 43.4581 39.2842 43.5814C39.2876 44.0261 39.2897 44.4707 39.2915 44.9154C39.2925 45.1077 39.2937 45.3 39.2954 45.4923C39.2976 45.769 39.2987 46.0457 39.2995 46.3224C39.3005 46.4082 39.3015 46.4939 39.3025 46.5823C39.3025 47.0766 39.2865 47.4593 38.9819 47.8693C38.7357 48.0593 38.5503 48.0354 38.2416 48.0357C38.1214 48.0365 38.0012 48.0373 37.8774 48.0381C37.7433 48.0376 37.6091 48.037 37.475 48.0364C37.3331 48.0368 37.1912 48.0373 37.0493 48.0379C36.6584 48.0393 36.2674 48.0389 35.8765 48.0382C35.4553 48.0377 35.0341 48.0389 34.6129 48.0399C33.7873 48.0415 32.9617 48.0416 32.1362 48.0411C31.4653 48.0407 30.7945 48.0408 30.1237 48.0413C30.0284 48.0414 29.9331 48.0415 29.8348 48.0415C29.6412 48.0417 29.4475 48.0418 29.2538 48.042C27.4362 48.0433 25.6185 48.0427 23.8009 48.0417C22.1367 48.0407 20.4726 48.042 18.8084 48.0442C17.1011 48.0465 15.3938 48.0474 13.6865 48.0468C12.7274 48.0464 11.7683 48.0466 10.8092 48.0483C9.99269 48.0497 9.17623 48.0497 8.35976 48.0481C7.94294 48.0473 7.52615 48.0471 7.10933 48.0485C6.72806 48.0498 6.34684 48.0494 5.96557 48.0476C5.82734 48.0472 5.68912 48.0475 5.55089 48.0485C5.36357 48.0497 5.17623 48.0484 4.98891 48.047C4.88468 48.047 4.78046 48.047 4.67308 48.0469C4.34265 47.9889 4.23459 47.887 4.03121 47.625C3.91889 47.2881 3.92443 46.9818 3.92541 46.6311C3.92524 46.5575 3.92508 46.4839 3.92491 46.408C3.92447 46.1592 3.9247 45.9105 3.92493 45.6617C3.92475 45.4824 3.92454 45.303 3.92429 45.1237C3.92371 44.6293 3.92372 44.1348 3.92383 43.6404C3.92385 43.1078 3.92334 42.5752 3.92289 42.0426C3.92211 40.9985 3.92186 39.9545 3.9218 38.9104C3.92176 38.0621 3.92157 37.2138 3.92127 36.3654C3.92058 34.3536 3.92 32.3417 3.92005 30.3299C3.92005 30.2655 3.92005 30.2011 3.92005 30.1348C3.92006 29.8085 3.92007 29.4823 3.92008 29.156C3.92008 29.0912 3.92008 29.0264 3.92009 28.9596C3.92009 28.8286 3.92009 28.6975 3.9201 28.5665C3.92016 26.5273 3.91945 24.4881 3.91817 22.4489C3.91673 20.1591 3.91592 17.8692 3.91601 15.5794C3.91604 14.3665 3.91578 13.1536 3.91477 11.9408C3.91392 10.9082 3.91372 9.87567 3.91435 8.84312C3.91466 8.31598 3.91466 7.78885 3.91385 7.26171C3.91312 6.77955 3.91324 6.29739 3.91407 5.81522C3.91421 5.6404 3.91404 5.46558 3.91352 5.29077C3.91286 5.05385 3.91335 4.81696 3.91413 4.58004C3.91367 4.51156 3.9132 4.44309 3.91272 4.37253C3.91534 4.00028 3.94436 3.70392 4.12496 3.37504C4.42299 3.17636 4.49338 3.16439 4.83402 3.16625C4.92034 3.16627 5.00665 3.16628 5.09559 3.1663C5.23491 3.16775 5.23491 3.16775 5.37704 3.16923C5.52002 3.16963 5.52002 3.16963 5.6659 3.17003C5.97062 3.17108 6.27532 3.17344 6.58004 3.17582C6.78652 3.17676 6.99301 3.17762 7.19949 3.17839C7.70591 3.18045 8.21231 3.18359 8.71871 3.18754C8.71724 3.08046 8.71724 3.08046 8.71574 2.97122C8.71183 2.64685 8.7094 2.32248 8.707 1.99809C8.70542 1.88576 8.70385 1.77343 8.70224 1.65769C8.70133 1.495 8.70133 1.495 8.7004 1.32902C8.69893 1.17953 8.69893 1.17953 8.69743 1.02701C8.7248 0.670868 8.80074 0.408138 9.03088 0.131357C9.30839 -0.101374 9.67735 -0.0812959 10.0264 -0.111376ZM10.4062 1.68754C10.4062 14.836 10.4062 27.9844 10.4062 41.5313C20.9559 41.5313 31.5056 41.5313 42.375 41.5313C42.375 32.0644 42.375 22.5975 42.375 12.8438C38.8481 12.8129 35.3212 12.7819 31.6875 12.75C31.2862 12.3488 31.2081 12.1978 31.2039 11.6649C31.203 11.5771 31.202 11.4894 31.2011 11.399C31.2006 11.3025 31.2 11.206 31.1995 11.1066C31.1985 11.0034 31.1976 10.9002 31.1966 10.7939C31.1937 10.4593 31.1913 10.1246 31.1891 9.78996C31.1873 9.58361 31.1856 9.37726 31.1838 9.17091C31.1773 8.40497 31.1717 7.63903 31.166 6.87309C31.1524 5.16186 31.1389 3.45063 31.125 1.68754C24.2878 1.68754 17.4506 1.68754 10.4062 1.68754ZM32.8125 2.90629C32.8125 5.62879 32.8125 8.35129 32.8125 11.1563C35.535 11.1563 38.2575 11.1563 41.0625 11.1563C40.6149 10.6306 40.6149 10.6306 40.1447 10.1328C40.0801 10.068 40.0156 10.0032 39.9491 9.93648C39.8803 9.86783 39.8114 9.79918 39.7405 9.72846C39.6665 9.65429 39.5925 9.58013 39.5163 9.50372C39.2735 9.26052 39.0304 9.01766 38.7872 8.77482C38.618 8.60552 38.4487 8.4362 38.2795 8.26687C37.9259 7.91314 37.5722 7.55957 37.2183 7.20613C36.8088 6.79715 36.3996 6.38783 35.9907 5.97833C35.5967 5.58392 35.2025 5.18978 34.8082 4.79574C34.6405 4.62809 34.4728 4.46036 34.3053 4.29256C34.0721 4.05914 33.8386 3.82601 33.605 3.59296C33.5352 3.52298 33.4654 3.45301 33.3935 3.38091C33.3303 3.31796 33.2671 3.25502 33.202 3.19016C33.1468 3.13502 33.0916 3.07987 33.0348 3.02305C32.9236 2.89579 32.9236 2.89579 32.8125 2.90629ZM5.62496 4.87504C5.62496 18.5494 5.62496 32.2238 5.62496 46.3125C16.1747 46.3125 26.7243 46.3125 37.5937 46.3125C37.5937 45.2916 37.5937 44.2707 37.5937 43.2188C37.2398 43.2182 36.886 43.2177 36.5214 43.2171C33.2784 43.212 30.0353 43.2054 26.7923 43.1973C26.3675 43.1963 25.9427 43.1952 25.5179 43.1942C25.391 43.1939 25.391 43.1939 25.2616 43.1936C23.8912 43.1902 22.5207 43.1879 21.1503 43.1859C19.7447 43.1839 18.3391 43.1808 16.9335 43.1767C16.0658 43.1742 15.198 43.1726 14.3303 43.172C13.7357 43.1715 13.1412 43.17 12.5466 43.1676C12.2033 43.1663 11.8599 43.1655 11.5166 43.1658C11.1448 43.1662 10.773 43.1644 10.4012 43.1624C10.2376 43.1631 10.2376 43.1631 10.0706 43.1638C9.97128 43.1629 9.87191 43.162 9.76952 43.1611C9.68366 43.1609 9.5978 43.1608 9.50933 43.1606C9.23129 43.1173 9.10514 43.0415 8.90621 42.8438C8.77191 42.524 8.80021 42.178 8.79947 41.8355C8.7992 41.7716 8.79893 41.7077 8.79866 41.6419C8.79787 41.4268 8.79776 41.2116 8.79763 40.9965C8.7972 40.8411 8.79674 40.6857 8.79623 40.5303C8.79495 40.1025 8.79426 39.6748 8.79366 39.247C8.79291 38.786 8.79162 38.3249 8.7904 37.8639C8.78836 37.0649 8.78666 36.2659 8.78519 35.4669C8.78306 34.3117 8.78042 33.1565 8.77766 32.0013C8.77319 30.1271 8.76913 28.2529 8.76534 26.3787C8.76165 24.5579 8.75777 22.7371 8.75362 20.9162C8.75336 20.804 8.75311 20.6918 8.75285 20.5762C8.75156 20.0134 8.75028 19.4506 8.74899 18.8878C8.7383 14.2168 8.72832 9.54595 8.71871 4.87504C7.69778 4.87504 6.67684 4.87504 5.62496 4.87504Z" fill="#FF7705"></path>
    <path d="M19.8016 29.5181C19.881 29.5178 19.9605 29.5175 20.0424 29.5172C20.3097 29.5164 20.577 29.5163 20.8443 29.5161C21.0355 29.5157 21.2268 29.5152 21.418 29.5147C21.9383 29.5135 22.4586 29.5129 22.9788 29.5125C23.3038 29.5122 23.6287 29.5118 23.9536 29.5114C24.9697 29.5101 25.9859 29.5092 27.002 29.5089C28.1758 29.5084 29.3495 29.5068 30.5233 29.5041C31.4301 29.502 32.3368 29.5011 33.2436 29.501C33.7854 29.5009 34.3272 29.5003 34.869 29.4986C35.3787 29.4971 35.8883 29.4969 36.3979 29.4977C36.585 29.4978 36.7721 29.4974 36.9592 29.4965C37.2145 29.4953 37.4698 29.4958 37.7252 29.4968C37.8363 29.4957 37.8363 29.4957 37.9496 29.4945C38.3993 29.4985 38.7164 29.5633 39.0937 29.8125C39.2451 30.153 39.3057 30.3611 39.2226 30.7266C39.0701 30.9762 38.9746 31.0739 38.7187 31.2187C38.4465 31.2463 38.1945 31.2575 37.9223 31.2557C37.8005 31.2566 37.8005 31.2566 37.6764 31.2575C37.4039 31.259 37.1316 31.2586 36.8591 31.2581C36.664 31.2588 36.4689 31.2596 36.2738 31.2605C35.7435 31.2626 35.2132 31.2629 34.6828 31.2627C34.2404 31.2627 33.7979 31.2635 33.3555 31.2643C32.3119 31.2661 31.2683 31.2663 30.2247 31.2657C29.1474 31.2651 28.0701 31.2672 26.9927 31.2707C26.0684 31.2736 25.144 31.2747 24.2196 31.2743C23.6673 31.2741 23.1149 31.2746 22.5626 31.2769C22.0433 31.279 21.524 31.2788 21.0046 31.2769C20.8139 31.2766 20.6231 31.2771 20.4324 31.2784C20.1723 31.2801 19.9123 31.2789 19.6521 31.277C19.5764 31.2782 19.5007 31.2794 19.4227 31.2806C19.039 31.2745 18.8657 31.2364 18.5625 30.993C18.3784 30.7544 18.3123 30.6635 18.3223 30.3691C18.375 30 18.375 30 18.5449 29.7715C18.9425 29.4875 19.3332 29.5176 19.8016 29.5181Z" fill="#FF7705"></path>
    <path d="M19.7043 24.7368C19.8246 24.7364 19.8246 24.7364 19.9474 24.736C20.2178 24.7352 20.4882 24.735 20.7586 24.7349C20.9518 24.7345 21.145 24.734 21.3383 24.7335C21.8644 24.7322 22.3905 24.7316 22.9165 24.7312C23.245 24.731 23.5734 24.7306 23.9019 24.7302C24.9288 24.7289 25.9557 24.728 26.9826 24.7276C28.1693 24.7272 29.356 24.7255 30.5427 24.7228C31.4591 24.7208 32.3755 24.7198 33.2919 24.7197C33.8397 24.7196 34.3874 24.7191 34.9351 24.7174C35.4503 24.7159 35.9654 24.7156 36.4806 24.7165C36.6698 24.7165 36.8591 24.7161 37.0483 24.7152C37.3064 24.714 37.5644 24.7146 37.8225 24.7155C37.8976 24.7148 37.9727 24.714 38.0501 24.7133C38.4756 24.717 38.7603 24.7585 39.0937 25.0312C39.268 25.4161 39.3137 25.5969 39.1699 25.998C39 26.25 39 26.25 38.7187 26.4375C38.454 26.4563 38.1984 26.464 37.9335 26.4632C37.8525 26.4637 37.7714 26.4642 37.6879 26.4647C37.4152 26.4661 37.1425 26.4662 36.8698 26.4662C36.6747 26.4669 36.4796 26.4677 36.2845 26.4686C35.7538 26.4706 35.2231 26.4715 34.6923 26.4719C34.3609 26.4723 34.0296 26.4729 33.6982 26.4735C32.5427 26.4758 31.3872 26.4771 30.2318 26.4774C29.1537 26.4777 28.0757 26.4805 26.9977 26.4845C26.073 26.4877 25.1482 26.4892 24.2234 26.4892C23.6708 26.4893 23.1181 26.4901 22.5655 26.4928C22.0457 26.4952 21.5261 26.4955 21.0063 26.4939C20.8154 26.4938 20.6246 26.4944 20.4337 26.4959C20.1733 26.4978 19.9131 26.4968 19.6527 26.4951C19.577 26.4964 19.5012 26.4976 19.4231 26.4989C19.0393 26.4931 18.8659 26.4553 18.5625 26.2118C18.3784 25.9732 18.3123 25.8822 18.3223 25.5879C18.375 25.2187 18.375 25.2187 18.5508 24.9902C18.9294 24.7118 19.249 24.7363 19.7043 24.7368Z" fill="#FF7705"></path>
    <path d="M19.6515 19.9099C19.7327 19.9092 19.814 19.9086 19.8976 19.9079C20.1698 19.9062 20.4418 19.9079 20.714 19.9096C20.9091 19.9091 21.1042 19.9084 21.2993 19.9076C21.8293 19.9058 22.3592 19.9071 22.8892 19.9089C23.4435 19.9104 23.9978 19.9096 24.5521 19.9091C25.4831 19.9087 26.414 19.9102 27.3449 19.9128C28.4215 19.9158 29.4981 19.9158 30.5748 19.9142C31.61 19.9127 32.6452 19.9133 33.6804 19.9149C34.1212 19.9156 34.562 19.9155 35.0027 19.9148C35.5217 19.9141 36.0406 19.9152 36.5596 19.9178C36.7502 19.9184 36.9408 19.9184 37.1313 19.9178C37.3913 19.917 37.6511 19.9184 37.911 19.9205C37.9866 19.9198 38.0623 19.919 38.1402 19.9182C38.4899 19.9234 38.6982 19.956 38.9977 20.1424C39.2434 20.4031 39.2812 20.5494 39.2812 20.9063C39.1774 21.1906 39.0997 21.3963 38.851 21.5771C38.5173 21.694 38.1885 21.6824 37.8392 21.6807C37.7592 21.6811 37.6792 21.6814 37.5968 21.6818C37.3282 21.6828 37.0597 21.6824 36.7912 21.682C36.5989 21.6824 36.4066 21.6829 36.2142 21.6835C35.6914 21.6847 35.1687 21.6848 34.6459 21.6845C34.2097 21.6844 33.7736 21.6849 33.3374 21.6854C32.3086 21.6864 31.2799 21.6864 30.2511 21.6859C29.1891 21.6853 28.1271 21.6865 27.0652 21.6885C26.1539 21.6901 25.2427 21.6907 24.3315 21.6904C23.787 21.6902 23.2425 21.6904 22.698 21.6917C22.1861 21.6929 21.6742 21.6927 21.1622 21.6915C20.9742 21.6913 20.7862 21.6916 20.5982 21.6923C20.3417 21.6933 20.0854 21.6926 19.8289 21.6914C19.717 21.6924 19.717 21.6924 19.6028 21.6935C19.0585 21.6881 18.7563 21.5689 18.375 21.1875C18.3001 20.5349 18.3001 20.5349 18.5622 20.1941C18.9237 19.9048 19.2077 19.9034 19.6515 19.9099Z" fill="#FF7705"></path>
    <path d="M19.6557 15.1286C19.7782 15.1276 19.7782 15.1276 19.9032 15.1266C20.1769 15.125 20.4504 15.1267 20.7241 15.1284C20.9203 15.1279 21.1165 15.1272 21.3127 15.1263C21.8455 15.1246 22.3784 15.1258 22.9112 15.1276C23.4685 15.1292 24.0257 15.1284 24.5829 15.1279C25.5187 15.1275 26.4544 15.1289 27.3901 15.1316C28.4726 15.1346 29.5551 15.1346 30.6376 15.133C31.6782 15.1315 32.7188 15.1321 33.7594 15.1337C34.2027 15.1343 34.6459 15.1342 35.0891 15.1336C35.6107 15.1328 36.1323 15.134 36.654 15.1365C36.8457 15.1372 37.0374 15.1372 37.229 15.1365C37.4902 15.1357 37.7513 15.1372 38.0125 15.1393C38.0888 15.1385 38.1651 15.1377 38.2437 15.1369C38.578 15.1419 38.773 15.158 39.0445 15.3612C39.233 15.6265 39.2748 15.7995 39.2813 16.125C39.1717 16.4415 39.1022 16.631 38.804 16.7959C38.4481 16.8992 38.1085 16.9009 37.7413 16.8988C37.662 16.8991 37.5827 16.8994 37.501 16.8997C37.2353 16.9005 36.9697 16.8999 36.7041 16.8993C36.5136 16.8995 36.3231 16.8999 36.1326 16.9003C35.6152 16.9011 35.0979 16.9008 34.5805 16.9002C34.0393 16.8997 33.4981 16.9002 32.957 16.9005C32.0481 16.9008 31.1393 16.9004 30.2304 16.8995C29.1793 16.8985 28.1283 16.8988 27.0772 16.8998C26.1751 16.9007 25.2731 16.9008 24.371 16.9003C23.8321 16.9 23.2931 16.9 22.7542 16.9006C22.2476 16.9011 21.741 16.9007 21.2343 16.8997C21.0483 16.8994 20.8622 16.8995 20.6762 16.8999C20.4224 16.9004 20.1687 16.8998 19.915 16.8988C19.8412 16.8993 19.7673 16.8997 19.6913 16.9001C19.2146 16.8967 18.8431 16.8615 18.4864 16.5293C18.3248 16.2147 18.3261 16.005 18.375 15.6563C18.7398 15.1644 19.076 15.1202 19.6557 15.1286Z" fill="#FF7705"></path>
    <path d="M19.9001 34.2999C19.979 34.2997 20.0578 34.2995 20.1391 34.2993C20.4037 34.2987 20.6683 34.2988 20.933 34.2989C21.1225 34.2986 21.3121 34.2983 21.5017 34.2979C22.0169 34.2971 22.5321 34.2969 23.0473 34.2968C23.4772 34.2967 23.9071 34.2964 24.3369 34.296C25.3509 34.2953 26.3648 34.295 27.3787 34.2951C28.4254 34.2952 29.472 34.2942 30.5187 34.2927C31.4168 34.2915 32.3149 34.291 33.2129 34.291C33.7496 34.2911 34.2862 34.2908 34.8228 34.2898C35.3274 34.2889 35.8319 34.2889 36.3365 34.2896C36.5218 34.2897 36.7071 34.2894 36.8924 34.2889C37.1451 34.2881 37.3978 34.2886 37.6505 34.2893C37.724 34.2888 37.7975 34.2883 37.8733 34.2878C38.3389 34.2908 38.6938 34.3407 39.0703 34.623C39.2277 34.8355 39.2624 34.9865 39.2812 35.25C39.189 35.5727 39.0881 35.8052 38.8125 36C38.5429 36.028 38.2935 36.0387 38.0237 36.037C37.9423 36.0375 37.8608 36.0381 37.7769 36.0387C37.5029 36.0403 37.2289 36.0398 36.9549 36.0393C36.7589 36.04 36.5629 36.0408 36.3669 36.0418C35.8336 36.0438 35.3004 36.0441 34.7671 36.0439C34.3224 36.0439 33.8776 36.0447 33.4328 36.0455C32.3837 36.0473 31.3346 36.0476 30.2855 36.0469C29.2023 36.0463 28.1192 36.0485 27.0361 36.0519C26.107 36.0548 25.1778 36.0559 24.2487 36.0555C23.6934 36.0553 23.1381 36.0558 22.5828 36.0581C22.0607 36.0602 21.5385 36.0601 21.0163 36.0581C20.8245 36.0578 20.6327 36.0583 20.4409 36.0596C20.1793 36.0613 19.9179 36.0602 19.6563 36.0582C19.5421 36.06 19.5421 36.06 19.4256 36.0618C19.0467 36.0558 18.8654 36.0167 18.5619 35.7825C18.375 35.5312 18.375 35.5312 18.3223 35.2031C18.3832 34.8239 18.4725 34.6683 18.75 34.4062C19.127 34.2829 19.5076 34.2992 19.9001 34.2999Z" fill="#FF7705"></path>
    <path d="M14.7377 7.10986C14.8373 7.10896 14.9368 7.10806 15.0393 7.10713C15.1468 7.10673 15.2544 7.10634 15.3651 7.10592C15.5311 7.10512 15.5311 7.10512 15.7004 7.10431C15.9347 7.10342 16.169 7.10281 16.4033 7.10245C16.7613 7.10154 17.1192 7.09863 17.4773 7.09567C17.7049 7.09506 17.9325 7.09457 18.1601 7.09421C18.267 7.09305 18.374 7.09189 18.4841 7.0907C19.4488 7.0934 19.4488 7.0934 19.875 7.40622C20.0645 7.70297 20.0866 7.93979 20.0883 8.28819C20.0892 8.38958 20.0901 8.49097 20.091 8.59543C20.0909 8.70451 20.0908 8.8136 20.0907 8.92599C20.0911 9.03858 20.0915 9.15116 20.0919 9.26716C20.0925 9.5053 20.0925 9.74345 20.0921 9.9816C20.0918 10.3456 20.094 10.7095 20.0964 11.0735C20.0966 11.3049 20.0967 11.5363 20.0966 11.7678C20.0974 11.8765 20.0983 11.9852 20.0992 12.0972C20.0934 13.1047 20.0934 13.1047 19.7813 13.5C19.2794 13.7781 18.6729 13.7144 18.1139 13.7124C18.0076 13.7125 17.9013 13.7127 17.7918 13.7129C17.5676 13.713 17.3434 13.7127 17.1193 13.7119C16.7763 13.7109 16.4334 13.7119 16.0904 13.7131C15.8723 13.713 15.6543 13.7127 15.4362 13.7124C15.3337 13.7127 15.2313 13.7131 15.1257 13.7135C15.03 13.7129 14.9342 13.7123 14.8356 13.7117C14.7517 13.7116 14.6678 13.7114 14.5814 13.7113C14.2415 13.6772 13.9861 13.5785 13.7075 13.3815C13.5424 13.1452 13.5574 12.9629 13.5559 12.6764C13.5547 12.565 13.5535 12.4536 13.5523 12.3389C13.5526 12.2184 13.5528 12.098 13.5531 11.974C13.5526 11.8504 13.5521 11.7268 13.5516 11.5995C13.5508 11.338 13.551 11.0764 13.552 10.8148C13.553 10.4799 13.5511 10.1451 13.5484 9.81017C13.5463 9.49042 13.5469 9.17068 13.5473 8.85092C13.5462 8.7307 13.5452 8.61048 13.5441 8.48661C13.5449 8.37493 13.5458 8.26325 13.5467 8.14818C13.5467 8.04994 13.5468 7.95169 13.5468 7.85047C13.6059 7.52748 13.7135 7.41913 13.9688 7.21872C14.251 7.12464 14.4426 7.11202 14.7377 7.10986ZM15.2813 8.81247C15.2813 9.86434 15.2813 10.9162 15.2813 12C16.3022 12 17.3231 12 18.375 12C18.375 10.9481 18.375 9.89622 18.375 8.81247C17.3541 8.81247 16.3331 8.81247 15.2813 8.81247Z" fill="#FF7705"></path>
    <path d="M15.1699 24.7266C15.2635 24.7246 15.3571 24.7227 15.4535 24.7207C16.3359 24.716 16.3359 24.716 16.6875 25.0312C16.8319 25.3703 16.8987 25.5832 16.8164 25.9453C16.6695 26.1857 16.552 26.29 16.3125 26.4375C15.9417 26.4979 15.5686 26.4853 15.1933 26.4844C15.0916 26.487 14.99 26.4897 14.8852 26.4924C14.1427 26.4942 14.1427 26.4942 13.7607 26.224C13.5073 25.8367 13.5286 25.6745 13.5937 25.2187C14.0306 24.6509 14.5065 24.7299 15.1699 24.7266Z" fill="#FF7705"></path>
    <path d="M15.17 29.5079C15.2534 29.5059 15.3369 29.504 15.4228 29.502C15.9149 29.4991 16.2644 29.5316 16.6875 29.8125C16.8582 30.0871 16.8765 30.2455 16.8633 30.5684C16.7665 30.8935 16.6689 31.0074 16.4063 31.2188C16.0213 31.2957 15.6321 31.2753 15.2403 31.2715C15.1341 31.2738 15.0279 31.276 14.9186 31.2783C14.1454 31.2769 14.1454 31.2769 13.7578 31.0049C13.5084 30.6173 13.5289 30.4544 13.5938 30C14.007 29.4444 14.5383 29.5115 15.17 29.5079Z" fill="#FF7705"></path>
    <path d="M15.1875 19.916C15.2888 19.915 15.39 19.9139 15.4944 19.9129C16.2282 19.9197 16.2282 19.9197 16.6113 20.1427C16.834 20.4062 16.875 20.5615 16.875 20.9062C16.6927 21.4051 16.6927 21.4051 16.4253 21.577C16.1855 21.669 16.0007 21.6805 15.7441 21.6811C15.6089 21.6815 15.6089 21.6815 15.4709 21.6818C15.3774 21.6811 15.2839 21.6804 15.1875 21.6797C15.0472 21.6807 15.0472 21.6807 14.9041 21.6818C14.8139 21.6816 14.7237 21.6814 14.6309 21.6811C14.5488 21.6809 14.4667 21.6807 14.3822 21.6805C14.136 21.654 13.9886 21.6029 13.7812 21.4687C13.5832 21.1717 13.5627 20.9876 13.5414 20.6374C13.7556 19.8195 14.5008 19.9008 15.1875 19.916Z" fill="#FF7705"></path>
    <path d="M15.2402 15.1348C15.4 15.1333 15.4 15.1333 15.563 15.1317C16.3457 15.1386 16.3457 15.1386 16.6216 15.3615C16.8306 15.6246 16.8683 15.7896 16.875 16.125C16.7675 16.4356 16.6965 16.6281 16.407 16.7956C15.9996 16.9104 15.6088 16.9059 15.1875 16.9043C15.0624 16.9066 15.0624 16.9066 14.9348 16.9089C14.4724 16.9093 14.1562 16.8948 13.7812 16.5938C13.5443 16.3568 13.5608 16.1839 13.5414 15.8595C13.7575 15.0208 14.54 15.1201 15.2402 15.1348Z" fill="#FF7705"></path>
    <path d="M15.1816 34.2949C15.2564 34.2937 15.3313 34.2926 15.4084 34.2914C15.8907 34.2902 16.2603 34.3288 16.664 34.6172C16.8373 34.8597 16.8631 35.0475 16.8749 35.3437C16.7461 35.6136 16.6171 35.789 16.4062 36C16.0056 36.0456 15.602 36.0347 15.1992 36.0351C15.0869 36.0374 14.9746 36.0397 14.8589 36.0421C14.751 36.0424 14.6431 36.0428 14.5319 36.0432C14.3835 36.0443 14.3835 36.0443 14.232 36.0455C13.9051 35.989 13.7961 35.8825 13.5937 35.625C13.5249 35.3377 13.5404 35.0711 13.5937 34.7812C13.9848 34.2225 14.5624 34.2954 15.1816 34.2949Z" fill="#FF7705"></path>
  </g>
  <defs>
    <clipPath id="clip0_3599_241">
      <rect width="48" height="48" fill="white"></rect>
    </clipPath>
  </defs>
</svg>
