<?xml version="1.0" encoding="UTF-8"?>
<svg xmlns="http://www.w3.org/2000/svg" width="181" height="169" viewBox="0 0 181 169" fill="none">
  <g clip-path="url(#clip0_3369_15370)">
    <g clip-path="url(#clip1_3369_15370)">
      <path d="M153.633 3.5C166.611 3.50011 177.133 14.0214 177.133 27V106.121C177.132 114.656 172.505 122.52 165.045 126.664L101.636 161.889C94.5384 165.831 85.9085 165.831 78.8114 161.889L15.4041 126.664C7.94356 122.52 3.31637 114.656 3.31624 106.121V27C3.31624 14.0213 13.8375 3.5 26.8162 3.5H153.633Z" fill="white" stroke="url(#paint0_linear_3369_15370)" stroke-width="7"></path>
    </g>
    <path d="M97.661 140.497L89.3317 136.019L80.9204 140.341L82.6059 131.036L75.8957 124.372L85.2666 123.099L89.5308 114.658L93.6368 123.177L102.982 124.624L96.1493 131.162L97.661 140.497Z" fill="#C8C8C8"></path>
    <path d="M116.787 132.445L112.639 130.214L108.45 132.367L109.289 127.732L105.947 124.413L110.615 123.779L112.738 119.576L114.783 123.818L119.438 124.539L116.035 127.795L116.787 132.445Z" fill="#C8C8C8"></path>
    <path d="M62.5806 132.445L66.7289 130.214L70.9181 132.367L70.0788 127.732L73.4208 124.413L68.7534 123.779L66.6299 119.576L64.5847 123.818L59.9301 124.539L63.3334 127.795L62.5806 132.445Z" fill="#C8C8C8"></path>
    <path d="M29.8292 56.7648H29.5237C28.7258 56.7648 28.2302 57.2897 28.2302 58.1344V64.9298C28.2302 68.1516 27.3045 69.4658 25.0351 69.4658C22.7656 69.4658 21.8399 68.1457 21.8399 64.9095V58.1344C21.8399 57.2897 21.3443 56.7648 20.5465 56.7648H20.2408C19.443 56.7648 18.9474 57.2897 18.9474 58.1344V64.9298C18.9474 69.8378 20.9956 72.3263 25.0351 72.3263C29.0745 72.3263 31.1226 69.8378 31.1226 64.9298V58.1344C31.1226 57.2897 30.627 56.7648 29.8292 56.7648Z" fill="black"></path>
    <path d="M34.778 60.8882H34.5248C33.7072 60.8882 33.1994 61.4334 33.1994 62.311V70.9033C33.1994 71.7809 33.7072 72.3261 34.5248 72.3261H34.778C35.5955 72.3261 36.1033 71.7809 36.1033 70.9033V62.311C36.1033 61.4334 35.5955 60.8882 34.778 60.8882Z" fill="#FA4616"></path>
    <path d="M38.285 55.5692C36.4372 55.2535 34.9791 53.7023 34.6823 51.7367C34.6767 51.6996 34.6315 51.6996 34.6259 51.7367C34.3292 53.7023 32.8711 55.2535 31.0233 55.5692C30.9884 55.5751 30.9884 55.6233 31.0233 55.6292C32.8711 55.9449 34.3292 57.4961 34.6259 59.4618C34.6315 59.4989 34.6767 59.4989 34.6823 59.4618C34.9791 57.4961 36.4372 55.9449 38.285 55.6292C38.3199 55.6233 38.3199 55.5751 38.285 55.5692ZM36.4696 55.6142C35.5457 55.772 34.8166 56.5476 34.6682 57.5305C34.6654 57.549 34.6428 57.549 34.64 57.5305C34.4917 56.5476 33.7626 55.772 32.8387 55.6142C32.8212 55.6112 32.8212 55.5872 32.8387 55.5842C33.7626 55.4263 34.4917 54.6508 34.64 53.6679C34.6428 53.6494 34.6654 53.6494 34.6682 53.6679C34.8166 54.6508 35.5457 55.4263 36.4696 55.5842C36.487 55.5872 36.487 55.6112 36.4696 55.6142Z" fill="#FA4616"></path>
    <path d="M39.3921 52.5003C38.4682 52.6581 37.7391 53.4337 37.5907 54.4165C37.5879 54.4351 37.5653 54.4351 37.5625 54.4165C37.4141 53.4337 36.6851 52.6581 35.7612 52.5003C35.7437 52.4973 35.7437 52.4732 35.7612 52.4703C36.6851 52.3124 37.4141 51.5368 37.5625 50.554C37.5653 50.5354 37.5879 50.5354 37.5907 50.554C37.7391 51.5368 38.4682 52.3124 39.3921 52.4703C39.4095 52.4732 39.4095 52.4973 39.3921 52.5003Z" fill="#FA4616"></path>
    <path d="M42.4525 56.7648H39.6339C38.8276 56.7648 38.3267 57.2953 38.3267 58.149V70.942C38.3267 71.7958 38.8276 72.3263 39.6339 72.3263H39.9429C40.7492 72.3263 41.2501 71.7958 41.2501 70.942V67.9138H42.4717C47.3629 67.9138 49.358 66.2988 49.358 62.3393C49.358 58.3798 47.3573 56.7648 42.4525 56.7648ZM46.396 62.2984C46.396 64.3354 45.4837 65.0227 42.7805 65.0227H41.2501V59.5945H42.7805C45.4837 59.5945 46.396 60.2767 46.396 62.2984Z" fill="black"></path>
    <path d="M60.2146 59.6441H59.9829C59.1766 59.6441 58.6758 60.1746 58.6758 61.0284V61.0301C57.8476 60.0147 56.565 59.4193 55.0989 59.4193C53.6052 59.4193 52.2546 60.0004 51.2956 61.0558C50.2512 62.205 49.6991 63.8637 49.6991 65.8524C49.6991 67.8497 50.2544 69.518 51.305 70.6768C52.2693 71.7404 53.6236 72.3263 55.1182 72.3263C56.5565 72.3263 57.8487 71.7234 58.6767 70.7227C58.6768 70.7238 58.6768 71.0112 58.6769 71.0123C58.7037 71.8249 59.1989 72.3263 59.9829 72.3263H60.2146C61.0209 72.3263 61.5219 71.7959 61.5219 70.9422V61.0284C61.5219 60.1746 61.0209 59.6441 60.2146 59.6441ZM58.7336 65.8524C58.7336 68.1884 57.5554 69.6396 55.6587 69.6396C53.7383 69.6396 52.5452 68.1884 52.5452 65.8524C52.5452 63.5288 53.7235 62.0855 55.6201 62.0855C57.5115 62.0855 58.7336 63.5641 58.7336 65.8524Z" fill="black"></path>
    <path d="M70.1075 70.7607C70.0675 70.349 69.8347 69.7608 68.7265 69.7608C67.4161 69.7608 66.7924 69.3283 66.7924 66.8709V62.1405H68.7457C69.5513 62.1405 70.0517 61.6567 70.0517 60.8782C70.0517 60.1122 69.5513 59.6362 68.7457 59.6362H66.7947V58.1499C66.7947 57.2956 66.2905 56.7648 65.4788 56.7648H65.2456C64.4339 56.7648 63.9297 57.2956 63.9297 58.1499V59.6362H63.4806C62.7703 59.6362 62.3289 60.1122 62.3289 60.8782C62.3289 61.6567 62.8294 62.1405 63.6349 62.1405H63.9297V67.1369C63.9297 70.7743 65.2662 72.3263 68.3986 72.3263C68.4037 72.3263 68.4088 72.3261 68.4139 72.3259C68.596 72.3258 68.7911 72.3228 68.9898 72.304C69.3847 72.2644 69.6833 72.117 69.8775 71.8653C70.071 71.615 70.1484 71.1751 70.1075 70.7607Z" fill="black"></path>
    <path d="M77.0443 59.4316C75.5305 59.4316 74.4505 60.07 73.7743 60.8746V58.1499C73.7743 57.2956 73.2731 56.7648 72.4663 56.7648H72.2345C71.4277 56.7648 70.9264 57.2956 70.9264 58.1499V70.9412C70.9264 71.7954 71.4277 72.3263 72.2345 72.3263H72.4663C73.2731 72.3263 73.7743 71.7954 73.7743 70.9412V65.8073C73.7743 62.5205 75.2546 62.1405 76.3682 62.1405C78.2381 62.1405 79.0007 63.1259 79.0007 65.5415V70.9412C79.0007 71.7954 79.502 72.3263 80.3088 72.3263H80.5407C81.3475 72.3263 81.8486 71.7954 81.8486 70.9412V65.3573C81.8486 61.3699 80.2771 59.4316 77.0443 59.4316Z" fill="black"></path>
    <path d="M88.9189 70.8945V58.194C88.9189 57.2708 89.3966 56.7623 90.2646 56.7623H93.1881C98.2928 56.7623 100.22 58.4451 100.22 62.5154C100.22 66.5855 98.2928 68.2184 93.2217 68.2184H92.1148V70.8945C92.1148 71.8183 91.6372 72.3263 90.7691 72.3263H90.2646C89.3966 72.3263 88.9189 71.8183 88.9189 70.8945ZM96.9633 62.4579C96.9633 60.4709 95.9647 59.7117 93.7129 59.7117H92.1148V65.2401H93.7129C95.9647 65.2401 96.9633 64.4668 96.9633 62.4579Z" fill="black"></path>
    <path d="M100.61 66.1782C100.61 62.0501 102.78 59.8311 105.663 59.8311C107.28 59.8311 108.823 60.6823 109.423 62.1876V61.283C109.423 60.4881 109.914 60.0307 110.769 60.0307H111.145C112.013 60.0307 112.491 60.5383 112.491 61.4615V70.873C112.491 71.7967 112.013 72.3048 111.145 72.3048H110.769C109.921 72.3048 109.423 71.8537 109.423 71.0802V70.24C108.837 71.7027 107.28 72.5553 105.676 72.5553C102.8 72.5553 100.61 70.3132 100.61 66.1782ZM109.517 66.1711C109.517 63.905 108.33 62.4923 106.584 62.4923C104.858 62.4923 103.671 63.8977 103.671 66.1708C103.671 68.4658 104.851 69.871 106.611 69.871C108.344 69.871 109.517 68.4585 109.517 66.1711Z" fill="black"></path>
    <path d="M120.993 61.3812L120.968 61.6192C120.875 62.5054 120.394 62.7599 119.558 62.9143C118.03 63.1899 117.239 64.2763 117.239 66.5277V70.8943C117.239 71.818 116.761 72.3261 115.893 72.3261H115.516C114.648 72.3261 114.17 71.818 114.17 70.8943V61.4614C114.17 60.538 114.648 60.0296 115.516 60.0296H115.893C116.761 60.0296 117.239 60.4637 117.239 61.3463V61.8919C117.577 60.9245 118.408 59.9051 119.905 59.905C120.729 59.905 121.091 60.4518 120.993 61.3812Z" fill="black"></path>
    <path d="M122.725 67.4249V62.4997H122.23C121.504 62.4997 121.101 62.028 121.101 61.2541C121.101 60.4594 121.477 60.0299 122.136 60.0299H122.725V59.0406C122.725 58.1816 123.099 57.7362 123.978 57.5368L124.334 57.456C125.366 57.2219 125.813 57.654 125.813 58.6796V60.0299H127.634C128.569 60.0299 128.98 60.4594 128.98 61.2541C128.98 62.0557 128.569 62.4997 127.634 62.4997H125.813V67.1313C125.813 69.1634 126.371 69.9017 127.806 69.9567C128.534 69.9845 129.002 70.3242 129.041 71.0615C129.083 71.8679 128.737 72.3935 127.883 72.4836C127.685 72.5047 127.486 72.5128 127.304 72.5128C124.166 72.5128 122.725 71.1729 122.725 67.4249Z" fill="black"></path>
    <path d="M140.788 65.5622V70.8945C140.788 71.8182 140.311 72.3263 139.442 72.3263H139.066C138.197 72.3263 137.72 71.8182 137.72 70.8945V65.8626C137.72 63.6038 136.938 62.5639 135.212 62.5639C133.432 62.5639 132.73 63.7761 132.73 66.0495V70.8945C132.73 71.8182 132.253 72.3263 131.385 72.3263H131.008C130.14 72.3263 129.662 71.8182 129.662 70.8945V61.4615C129.662 60.5383 130.14 60.0298 131.008 60.0298H131.385C132.253 60.0298 132.73 60.5383 132.73 61.4188V62.0396C133.24 60.7726 134.562 59.8456 136.301 59.8456C139.407 59.8456 140.788 61.6784 140.788 65.5622Z" fill="black"></path>
    <path d="M141.723 66.1782C141.723 62.3946 144.141 59.8311 147.651 59.8311C151.012 59.8311 153.159 62.0226 153.37 65.491C153.428 66.4431 152.952 66.9228 152.023 66.9228H144.792C144.846 68.9379 146.005 70.1068 147.886 70.1068C148.931 70.1068 149.617 69.8057 150.274 69.2277C150.777 68.7862 151.087 68.4927 151.786 68.6735L152.063 68.7454C152.986 68.984 153.141 69.5319 152.561 70.3122C151.58 71.7331 149.924 72.5264 147.745 72.5264C144.101 72.5264 141.723 70.0331 141.723 66.1782ZM150.536 64.7884C150.415 63.1463 149.363 62.0991 147.725 62.0991C146.153 62.0991 145.034 63.0313 144.846 64.7884H150.536Z" fill="black"></path>
    <path d="M161.257 61.3812L161.232 61.6192C161.139 62.5054 160.659 62.7599 159.822 62.9143C158.294 63.1899 157.503 64.2763 157.503 66.5277V70.8943C157.503 71.818 157.025 72.3261 156.157 72.3261H155.781C154.913 72.3261 154.435 71.818 154.435 70.8943V61.4614C154.435 60.538 154.913 60.0296 155.781 60.0296H156.157C157.025 60.0296 157.503 60.4637 157.503 61.3463V61.8919C157.841 60.9245 158.672 59.9051 160.17 59.905C160.994 59.905 161.355 60.4518 161.257 61.3812Z" fill="black"></path>
    <path d="M88.9189 49.4729V44.6051C88.9189 44.2513 89.102 44.0563 89.4346 44.0563H90.5191C92.7884 44.0563 93.6714 45.0805 93.6714 47.0417C93.6714 48.9757 92.7884 50.0218 90.5191 50.0218H89.4346C89.102 50.0218 88.9189 49.827 88.9189 49.4729ZM92.4362 47.0308C92.4362 45.7968 91.9812 45.2031 90.5577 45.2031H90.1413V48.864H90.568C91.9812 48.864 92.4362 48.2731 92.4362 47.0308Z" fill="black"></path>
    <path d="M94.9178 49.4729V44.6051C94.9178 44.2513 95.1009 44.0563 95.4335 44.0563H95.6269C95.9597 44.0563 96.1428 44.2513 96.1428 44.6051V49.4729C96.1428 49.827 95.9597 50.0218 95.6269 50.0218H95.4335C95.1009 50.0218 94.9178 49.827 94.9178 49.4729Z" fill="black"></path>
    <path d="M101.987 50.0218H101.772C101.476 50.0218 101.287 49.8756 101.185 49.5755L100.983 48.9859H98.5602L98.3614 49.576C98.2606 49.8749 98.0685 50.0218 97.7721 50.0218H97.5657C97.1866 50.0218 97.0188 49.7627 97.1585 49.3891L98.9894 44.4914C99.1004 44.1946 99.2913 44.0563 99.5854 44.0563H99.9516C100.246 44.0563 100.436 44.1948 100.547 44.4914L102.386 49.3881C102.527 49.7622 102.361 50.0218 101.987 50.0218ZM99.7685 45.4749L98.8906 48.0254H100.651L99.7685 45.4749Z" fill="black"></path>
    <path d="M103.288 49.4352L104.03 44.558C104.081 44.2214 104.269 44.0563 104.584 44.0563H105.141C105.445 44.0563 105.632 44.2141 105.72 44.5216L106.897 48.6581L108.074 44.5216C108.162 44.2141 108.349 44.0563 108.653 44.0563H109.21C109.525 44.0563 109.713 44.2214 109.764 44.558L110.506 49.4352C110.563 49.8128 110.385 50.0218 110.034 50.0218H109.843C109.529 50.0218 109.342 49.8483 109.292 49.515L108.725 45.774L107.615 49.5593C107.526 49.8642 107.338 50.0218 107.034 50.0218H106.76C106.456 50.0218 106.268 49.8642 106.179 49.5593L105.069 45.774L104.502 49.515C104.452 49.8483 104.265 50.0218 103.951 50.0218H103.76C103.409 50.0218 103.231 49.8128 103.288 49.4352Z" fill="black"></path>
    <path d="M111.431 47.0472C111.431 44.9214 112.688 44 114.097 44C115.484 44 116.754 44.9214 116.754 47.0472C116.754 49.2143 115.491 50.0985 114.082 50.0985C112.672 50.0985 111.431 49.2143 111.431 47.0472ZM115.532 47.0444C115.532 45.8464 114.958 45.1509 114.092 45.1509C113.203 45.1509 112.635 45.8408 112.635 47.0444C112.635 48.2812 113.188 48.9519 114.082 48.9519C114.963 48.9519 115.532 48.2812 115.532 47.0444Z" fill="black"></path>
    <path d="M117.991 49.4729V44.6051C117.991 44.251 118.174 44.0563 118.506 44.0563H118.782C119.063 44.0563 119.245 44.1634 119.404 44.424L121.598 47.9778V44.6051C121.598 44.251 121.781 44.0563 122.114 44.0563H122.305C122.637 44.0563 122.82 44.251 122.82 44.6051V49.4729C122.82 49.827 122.637 50.0218 122.305 50.0218H122.039C121.758 50.0218 121.569 49.8982 121.417 49.654L119.216 46.0863V49.4729C119.216 49.827 119.032 50.0218 118.7 50.0218H118.506C118.174 50.0218 117.991 49.827 117.991 49.4729Z" fill="black"></path>
    <path d="M124.294 49.4729V44.6051C124.294 44.2513 124.477 44.0563 124.81 44.0563H125.894C128.163 44.0563 129.047 45.0805 129.047 47.0417C129.047 48.9757 128.163 50.0218 125.894 50.0218H124.81C124.477 50.0218 124.294 49.827 124.294 49.4729ZM127.811 47.0308C127.811 45.7968 127.356 45.2031 125.933 45.2031H125.516V48.864H125.943C127.356 48.864 127.811 48.2731 127.811 47.0308Z" fill="black"></path>
  </g>
  <defs>
    <linearGradient id="paint0_linear_3369_15370" x1="10.4603" y1="34.5004" x2="173.632" y2="35.1643" gradientUnits="userSpaceOnUse">
      <stop stop-color="#FDC391"></stop>
      <stop offset="1" stop-color="#FF7705"></stop>
    </linearGradient>
    <clipPath id="clip0_3369_15370">
      <rect width="181" height="169" fill="white"></rect>
    </clipPath>
    <clipPath id="clip1_3369_15370">
      <rect width="181" height="169" fill="white"></rect>
    </clipPath>
  </defs>
</svg>
