<?xml version="1.0" encoding="UTF-8"?>
<svg xmlns="http://www.w3.org/2000/svg" width="48" height="48" viewBox="0 0 48 48" fill="none">
  <path d="M25.8702 14.1796C26.3502 14.5461 26.6231 15.0375 26.9062 15.5624C26.9574 15.5432 27.0085 15.524 27.0611 15.5042C28.0204 15.1615 28.882 15.088 29.8517 15.4625C30.4216 15.746 30.8541 16.1675 31.2187 16.6874C31.2861 16.9009 31.2861 16.9009 31.3125 17.0624C31.3623 17.0364 31.4121 17.0105 31.4634 16.9837C31.5296 16.9497 31.5958 16.9158 31.6641 16.8808C31.7293 16.8471 31.7946 16.8134 31.8618 16.7786C32.577 16.4536 33.4597 16.4988 34.1953 16.7343C35.0498 17.0893 35.6428 17.714 36 18.5624C36.091 18.8605 36.1049 19.1288 36.1041 19.4398C36.1041 19.541 36.1042 19.6423 36.1043 19.7465C36.1041 19.8563 36.1039 19.9661 36.1036 20.0793C36.1045 20.3162 36.1055 20.553 36.1067 20.7899C36.107 20.8516 36.1073 20.9133 36.1077 20.9769C36.12 23.222 36.2261 25.3911 36.6523 27.6016C37.1964 30.4299 37.1702 33.592 35.5162 36.0691C35.2329 36.4715 34.9422 36.8702 34.5937 37.2187C34.5645 37.5063 34.5645 37.5063 34.5683 37.8492C34.5678 37.914 34.5673 37.9788 34.5668 38.0456C34.5659 38.1866 34.5653 38.3275 34.5651 38.4685C34.5648 38.692 34.5632 38.9155 34.5613 39.139C34.5561 39.7745 34.5533 40.41 34.551 41.0456C34.5495 41.4342 34.5466 41.8228 34.543 42.2115C34.5419 42.3593 34.5414 42.5071 34.5414 42.655C34.5413 42.8625 34.5396 43.07 34.5375 43.2775C34.5371 43.3954 34.5366 43.5133 34.5361 43.6348C34.4937 44.0264 34.3987 44.2761 34.2187 44.6249C33.9426 44.763 33.6968 44.7311 33.3884 44.7318C33.288 44.7323 33.288 44.7323 33.1857 44.7327C32.9604 44.7335 32.7351 44.7336 32.5099 44.7338C32.3488 44.7342 32.1878 44.7347 32.0267 44.7352C31.5884 44.7364 31.15 44.737 30.7117 44.7374C30.438 44.7377 30.1644 44.7381 29.8907 44.7385C29.035 44.7398 28.1794 44.7407 27.3237 44.7411C26.3349 44.7415 25.3461 44.7431 24.3573 44.7459C23.5937 44.7479 22.8301 44.7488 22.0665 44.749C21.6101 44.7491 21.1537 44.7496 20.6973 44.7513C20.2681 44.7528 19.8388 44.753 19.4096 44.7522C19.252 44.7521 19.0943 44.7525 18.9366 44.7535C18.7216 44.7547 18.5067 44.7541 18.2917 44.7531C18.1713 44.7533 18.0509 44.7534 17.9268 44.7536C17.6043 44.7163 17.4742 44.6681 17.25 44.4374C17.1367 44.0976 17.1434 43.7871 17.1444 43.4334C17.1443 43.3599 17.1441 43.2864 17.1439 43.2107C17.1435 43.0509 17.1433 42.8912 17.1433 42.7314C17.143 42.3909 17.141 42.0504 17.1391 41.7098C17.1355 41.076 17.1326 40.4422 17.1328 39.8084C17.1328 39.3674 17.1306 38.9264 17.127 38.4853C17.126 38.3179 17.1258 38.1504 17.1265 37.9829C17.1313 36.755 16.9957 35.9007 16.1308 34.9668C15.8336 34.6814 15.5134 34.4276 15.1912 34.1711C14.7141 33.7799 14.266 33.3583 13.8179 32.9346C13.7116 32.835 13.6031 32.7377 13.4941 32.641C12.2647 31.5141 11.6382 29.8715 11.5477 28.2384C11.5117 27.4038 11.5682 26.5739 11.6289 25.7416C11.6485 25.4694 11.666 25.1971 11.6832 24.9248C11.7989 23.2044 12.0596 21.6483 13.4062 20.4374C14.2398 19.7963 15.3206 19.1249 16.4062 19.1249C16.4048 19.0669 16.4033 19.0088 16.4018 18.949C16.3959 18.6815 16.3923 18.414 16.3887 18.1464C16.3863 18.0551 16.3839 17.9638 16.3815 17.8697C16.3713 16.8521 16.6266 16.11 17.3437 15.3749C18.2158 14.6652 19.0449 14.5285 20.1562 14.6249C20.6108 14.7466 20.9847 14.9272 21.375 15.1874C21.4098 15.1091 21.4098 15.1091 21.4453 15.0292C21.7942 14.3837 22.3554 13.9658 23.0471 13.72C24.0503 13.5589 25.0047 13.6246 25.8702 14.1796ZM23.1562 15.4687C22.819 15.773 22.5861 16.0493 22.5 16.4999C22.4924 16.6966 22.4899 16.8935 22.4908 17.0903C22.4911 17.2033 22.4914 17.3162 22.4917 17.4327C22.4925 17.5503 22.4933 17.6678 22.4941 17.789C22.4946 17.908 22.495 18.0271 22.4954 18.1497C22.4965 18.4435 22.4981 18.7374 22.5 19.0312C22.6248 19.0588 22.6248 19.0588 22.7522 19.0869C22.8616 19.1116 22.971 19.1362 23.0837 19.1615C23.2463 19.1978 23.2463 19.1978 23.4121 19.2349C24.3742 19.4782 24.8975 20.0559 25.5 20.8124C25.5095 20.212 25.5161 19.6116 25.5206 19.0111C25.5225 18.8071 25.525 18.603 25.5283 18.399C25.5329 18.1048 25.535 17.8107 25.5366 17.5165C25.5395 17.3808 25.5395 17.3808 25.5425 17.2424C25.5427 16.5473 25.398 16.0382 24.9141 15.5273C24.3062 15.1681 23.7748 15.0809 23.1562 15.4687ZM18.2519 16.8339C18.0383 17.1425 17.9882 17.374 17.9908 17.7403C17.9911 17.8081 17.9913 17.8759 17.9915 17.9458C17.9924 18.0313 17.9933 18.1169 17.9941 18.205C17.9961 18.4776 17.998 18.7503 18 19.0312C18.9591 19.0312 19.9181 19.0312 20.9062 19.0312C20.914 18.7508 20.9217 18.4704 20.9297 18.1816C20.9348 18.051 20.9348 18.051 20.94 17.9179C20.9474 17.3627 20.8572 17.0461 20.5312 16.5937C20.1313 16.2592 19.7516 16.1568 19.2319 16.1824C18.7959 16.2612 18.5394 16.5154 18.2519 16.8339ZM27.5079 17.2001C27.1614 17.6075 27.0819 17.8412 27.0771 18.3655C27.0759 18.4816 27.0747 18.5977 27.0735 18.7173C27.0727 18.8448 27.072 18.9722 27.0714 19.0997C27.071 19.1638 27.0706 19.228 27.0702 19.2941C27.0683 19.6341 27.0669 19.974 27.0661 20.3139C27.065 20.6641 27.0618 21.0141 27.0581 21.3643C27.0556 21.6343 27.0548 21.9043 27.0545 22.1743C27.0541 22.3033 27.053 22.4322 27.0512 22.5612C27.0317 23.5369 27.0317 23.5369 27.4687 24.3749C27.8715 24.7075 28.2464 24.8119 28.7681 24.7862C29.2041 24.7074 29.4606 24.4532 29.748 24.1347C29.9948 23.7783 30.0129 23.5031 30.0181 23.0799C30.0196 22.9679 30.0211 22.8558 30.0226 22.7404C30.0268 22.2275 30.0307 21.7145 30.0328 21.2016C30.0341 20.9312 30.0367 20.661 30.0405 20.3906C30.0451 20.0633 30.0474 19.7359 30.0481 19.4085C30.049 19.2243 30.0522 19.0401 30.0555 18.8558C30.0539 18.1713 30.0019 17.677 29.5312 17.1562C28.9229 16.6599 28.0878 16.6618 27.5079 17.2001ZM31.8926 18.7499C31.643 19.0922 31.5822 19.3192 31.5786 19.7313C31.5777 19.8158 31.5768 19.9003 31.5759 19.9874C31.5755 20.0785 31.5751 20.1696 31.5747 20.2635C31.5742 20.3575 31.5736 20.4515 31.5731 20.5483C31.5722 20.7473 31.5716 20.9463 31.5712 21.1452C31.5703 21.4489 31.5674 21.7526 31.5644 22.0563C31.5638 22.2497 31.5633 22.4431 31.563 22.6365C31.5618 22.7271 31.5607 22.8176 31.5595 22.9109C31.5613 23.4769 31.6151 23.909 32.0189 24.3416C32.5273 24.7303 32.8334 24.8239 33.4687 24.7499C33.9693 24.5795 34.2599 24.2763 34.5 23.8124C34.5541 23.4665 34.5526 23.1252 34.5498 22.7757C34.5503 22.6263 34.5503 22.6263 34.5509 22.4738C34.5511 22.2637 34.5504 22.0535 34.5489 21.8434C34.5469 21.5228 34.5489 21.2024 34.5513 20.8818C34.551 20.6772 34.5505 20.4725 34.5498 20.2679C34.5506 20.1725 34.5513 20.0772 34.5521 19.979C34.5444 19.3934 34.4673 19.0418 34.125 18.5624C33.8294 18.2816 33.4921 18.165 33.0879 18.1464C32.5626 18.2048 32.2378 18.3534 31.8926 18.7499ZM14.1127 22.0315C13.6825 22.5909 13.4218 23.2199 13.3683 23.9215C13.3594 24.0357 13.3594 24.0357 13.3503 24.1522C13.3414 24.275 13.3414 24.275 13.3323 24.4002C13.3259 24.4858 13.3196 24.5714 13.3131 24.6596C13.2998 24.8413 13.2867 25.0229 13.2739 25.2046C13.2542 25.4778 13.2332 25.751 13.2121 26.0242C13.0619 28.0645 13.1287 29.7608 14.5254 31.3886C15.0544 31.957 15.6491 32.4509 16.2403 32.9525C17.308 33.8608 18.3237 34.7636 18.6562 36.1874C20.5607 36.2137 22.4652 36.2336 24.3698 36.2457C25.2542 36.2515 26.1385 36.2594 27.0228 36.2723C27.7938 36.2835 28.5647 36.2908 29.3358 36.2933C29.7439 36.2947 30.1518 36.2982 30.5599 36.3064C30.9445 36.314 31.3288 36.3164 31.7135 36.3147C31.8542 36.315 31.9949 36.3172 32.1355 36.3215C32.7147 36.3385 33.195 36.3525 33.6442 35.9406C33.8671 35.6661 34.0459 35.3708 34.2187 35.0624C34.2776 34.9676 34.2776 34.9676 34.3376 34.8708C34.9593 33.8381 35.3002 32.6073 35.3437 31.4062C35.3475 31.3207 35.3512 31.2353 35.3551 31.1473C35.3936 29.376 35.0786 27.6141 34.7812 25.8749C34.7151 25.9015 34.6489 25.928 34.5808 25.9553C33.698 26.2953 32.7921 26.4773 31.8808 26.0917C31.7518 26.0233 31.6248 25.9509 31.5 25.8749C31.4282 25.8323 31.3564 25.7896 31.2825 25.7457C31.1026 25.6357 30.9255 25.5229 30.75 25.4062C30.7046 25.4435 30.6591 25.4809 30.6123 25.5193C29.7259 26.2199 28.9827 26.3626 27.8437 26.2499C27.5112 26.1565 27.2146 26.0285 26.9062 25.8749C26.8134 25.844 26.7206 25.8131 26.625 25.7812C26.5931 25.8299 26.5612 25.8786 26.5283 25.9288C26.0093 26.6755 25.4101 26.9936 24.5625 27.2812C24.576 27.3933 24.5896 27.5055 24.6035 27.621C24.6111 27.6841 24.6187 27.7472 24.6266 27.8122C24.6481 27.9712 24.6745 28.1296 24.7038 28.2874C24.7857 28.8302 24.7712 29.3758 24.7734 29.9238C24.7754 30.0441 24.7773 30.1644 24.7793 30.2883C24.78 30.4608 24.78 30.4608 24.7808 30.6368C24.7816 30.7417 24.7825 30.8466 24.7834 30.9547C24.75 31.2187 24.75 31.2187 24.6188 31.3933C24.3446 31.5881 24.0401 31.5509 23.7187 31.4999C23.5149 31.3552 23.4545 31.2527 23.3437 31.0312C23.3327 30.8744 23.327 30.7173 23.324 30.5602C23.2995 28.3578 23.2995 28.3578 22.1543 26.5546C21.0066 25.6075 19.4737 25.6439 18.0643 25.591C17.8438 25.5824 17.6235 25.5722 17.4031 25.5618C17.3016 25.5587 17.3016 25.5587 17.198 25.5556C16.9222 25.5419 16.7314 25.5319 16.5045 25.3668C16.3207 25.0898 16.3564 24.7871 16.4062 24.4687C16.5761 24.218 16.676 24.1913 16.9687 24.0937C17.1598 24.0841 17.3512 24.08 17.5425 24.0789C17.6608 24.0779 17.7791 24.077 17.901 24.076C17.9958 24.0755 17.9958 24.0755 18.0925 24.075C18.2907 24.0739 18.489 24.0721 18.6872 24.07C19.2509 24.0643 19.8146 24.0592 20.3783 24.056C20.7233 24.0541 21.0682 24.0508 21.4132 24.0466C21.5444 24.0453 21.6755 24.0445 21.8067 24.0442C21.9907 24.0437 22.1746 24.0414 22.3586 24.039C22.4631 24.0382 22.5675 24.0375 22.6752 24.0367C23.1668 23.9751 23.5306 23.773 23.8418 23.3906C23.9109 23.3079 23.9109 23.3079 23.9813 23.2236C24.2669 22.8143 24.2497 22.3208 24.1875 21.8437C23.9782 21.3141 23.6574 20.991 23.1562 20.7187C22.8511 20.617 22.6242 20.6112 22.303 20.6083C22.185 20.6071 22.0669 20.6059 21.9453 20.6047C21.816 20.6039 21.6867 20.6032 21.5574 20.6026C21.4919 20.6022 21.4265 20.6018 21.359 20.6014C21.0117 20.5995 20.6645 20.5981 20.3172 20.5973C19.9615 20.5962 19.606 20.593 19.2503 20.5893C18.9744 20.5868 18.6986 20.586 18.4227 20.5857C18.2918 20.5852 18.1609 20.5842 18.03 20.5824C16.5494 20.5638 15.1566 20.9234 14.1127 22.0315ZM25.4062 23.8124C25.3266 23.9404 25.2488 24.0696 25.1719 24.1991C24.7478 24.8475 24.127 25.1817 23.4375 25.4999C23.4684 25.5618 23.4994 25.6237 23.5312 25.6874C23.9959 25.7205 24.359 25.7403 24.7851 25.5351C25.1307 25.2225 25.3525 24.9111 25.5 24.4687C25.5037 24.25 25.5041 24.0311 25.5 23.8124C25.4691 23.8124 25.4381 23.8124 25.4062 23.8124ZM18.75 37.7812C18.75 39.5756 18.75 41.3699 18.75 43.2187C23.4216 43.2187 28.0931 43.2187 32.9062 43.2187C32.9062 41.4243 32.9062 39.6299 32.9062 37.7812C28.2347 37.7812 23.5631 37.7812 18.75 37.7812Z" fill="#FF7705"></path>
  <path d="M5.0625 14.3438C5.3616 14.4818 5.3616 14.4818 5.66455 14.658C5.71944 14.6896 5.77433 14.7213 5.83089 14.7538C6.00504 14.8545 6.17828 14.9566 6.35156 15.0587C6.46626 15.1251 6.581 15.1913 6.6958 15.2575C8.64133 16.384 8.64133 16.384 8.90625 16.7813C8.9456 17.1421 8.96199 17.3529 8.75977 17.6602C8.46146 17.8591 8.22974 17.9422 7.875 17.9063C7.48023 17.7464 7.12139 17.532 6.75586 17.3145C6.65247 17.2547 6.54907 17.1948 6.44254 17.1331C6.13746 16.9555 5.83412 16.7752 5.53125 16.5938C5.44798 16.5443 5.36472 16.4948 5.27893 16.4438C5.06731 16.3173 4.85658 16.1896 4.64648 16.0606C4.58564 16.0234 4.5248 15.9862 4.46212 15.9479C4.186 15.7738 4.02779 15.6511 3.84375 15.3751C3.79687 15.0587 3.79687 15.0587 3.84375 14.7188C4.24672 14.2471 4.475 14.2108 5.0625 14.3438Z" fill="#FF7705"></path>
  <path d="M43.9688 14.7188C44.2561 14.9104 44.327 15.0414 44.4316 15.3692C44.439 15.7289 44.373 15.839 44.1563 16.1251C43.9272 16.2828 43.7071 16.4192 43.4648 16.5528C43.3962 16.5919 43.3275 16.631 43.2568 16.6713C43.1071 16.7564 42.9571 16.8411 42.8068 16.9253C42.5457 17.0721 42.2857 17.2209 42.026 17.3702C41.6798 17.5691 41.3335 17.7676 40.9867 17.9653C40.9153 18.006 40.844 18.0467 40.7705 18.0886C40.409 18.2912 40.1704 18.3176 39.75 18.2813C39.4684 18.0887 39.3907 17.9554 39.2871 17.631C39.2799 17.2751 39.352 17.1596 39.5625 16.8751C39.8185 16.6909 39.8185 16.6909 40.1426 16.506C40.2681 16.434 40.3936 16.362 40.519 16.2899C40.5893 16.2499 40.6596 16.21 40.732 16.1688C41.0026 16.0117 41.269 15.8486 41.5356 15.6849C41.7353 15.564 41.935 15.4432 42.1348 15.3224C42.2302 15.2631 42.3256 15.2038 42.424 15.1428C42.9665 14.8188 43.3332 14.6255 43.9688 14.7188Z" fill="#FF7705"></path>
  <path d="M35.8125 6.37493C36.0937 6.61517 36.0937 6.61517 36.2812 6.93743C36.2565 7.4317 36.1202 7.77137 35.8733 8.19574C35.8417 8.25063 35.8101 8.30552 35.7775 8.36207C35.6769 8.53622 35.5748 8.70947 35.4726 8.88275C35.4063 8.99744 35.34 9.11219 35.2738 9.22699C34.1474 11.1725 34.1474 11.1725 33.75 11.4374C33.3893 11.4768 33.1785 11.4932 32.8711 11.291C32.6722 10.9926 32.5892 10.7609 32.625 10.4062C32.7849 10.0114 32.9993 9.65257 33.2168 9.28704C33.2766 9.18365 33.3365 9.08026 33.3982 8.97373C33.5758 8.66864 33.7561 8.3653 33.9375 8.06243C33.987 7.97917 34.0365 7.8959 34.0875 7.81012C34.214 7.59849 34.3417 7.38776 34.4707 7.17767C34.5079 7.11683 34.5451 7.05599 34.5834 6.99331C34.9184 6.4619 35.1746 6.28695 35.8125 6.37493Z" fill="#FF7705"></path>
  <path d="M40.3125 35.25C40.6116 35.3879 40.6116 35.3879 40.9145 35.5642C40.9694 35.5958 41.0243 35.6274 41.0809 35.6599C41.255 35.7606 41.4283 35.8627 41.6015 35.9648C41.7162 36.0312 41.831 36.0975 41.9458 36.1637C43.8913 37.2901 43.8913 37.2901 44.1562 37.6875C44.202 38.0383 44.1822 38.205 44.0039 38.5136C43.73 38.7659 43.5869 38.7886 43.2187 38.8125C42.9583 38.7218 42.9583 38.7218 42.6932 38.5785C42.5954 38.5261 42.4976 38.4738 42.3968 38.4199C42.2968 38.3638 42.1968 38.3077 42.0937 38.25C41.9977 38.1964 41.9017 38.1429 41.8027 38.0877C41.5134 37.9236 41.2262 37.7563 40.9394 37.5879C40.8427 37.5317 40.7459 37.4756 40.6463 37.4177C39.2552 36.6041 39.2552 36.6041 39.0937 36.2812C39.0393 35.6938 39.0393 35.6938 39.2695 35.4023C39.6481 35.1128 39.846 35.1546 40.3125 35.25Z" fill="#FF7705"></path>
  <path d="M8.24999 34.7813C8.5373 34.9729 8.60826 35.1039 8.71288 35.4317C8.72005 35.7828 8.63989 35.9048 8.43749 36.1876C8.24152 36.3378 8.24152 36.3378 8.01488 36.467C7.93085 36.5157 7.84681 36.5645 7.76023 36.6147C7.62561 36.6904 7.62561 36.6904 7.48827 36.7677C7.30123 36.8748 7.11422 36.982 6.92724 37.0892C6.83412 37.1422 6.74101 37.1952 6.64507 37.2499C6.39712 37.3935 6.1534 37.542 5.91063 37.6942C5.80497 37.7596 5.80497 37.7596 5.69718 37.8263C5.56712 37.9071 5.43776 37.9891 5.30927 38.0723C4.8631 38.3452 4.55406 38.3955 4.03124 38.3438C3.74394 38.1523 3.67297 38.0212 3.56835 37.6934C3.56101 37.334 3.62728 37.2235 3.84374 36.9376C4.07087 36.782 4.28911 36.6475 4.52929 36.5157C4.67244 36.435 4.8155 36.3542 4.95849 36.2733C5.07369 36.2084 5.07369 36.2084 5.19121 36.1423C5.45594 35.9894 5.71554 35.8297 5.97509 35.6683C6.06581 35.6125 6.15653 35.5567 6.25 35.4993C6.42787 35.3897 6.60505 35.2791 6.78142 35.1671C7.30035 34.8515 7.64033 34.6997 8.24999 34.7813Z" fill="#FF7705"></path>
  <path d="M13.4063 6.18759C13.688 6.50004 13.898 6.83774 14.1057 7.20236C14.1654 7.30659 14.2251 7.41083 14.2866 7.51822C14.3487 7.6274 14.4107 7.73659 14.4727 7.84579C14.5944 8.05909 14.7162 8.27235 14.8381 8.48556C14.8967 8.58838 14.9552 8.69119 15.0155 8.79712C15.218 9.14645 15.4299 9.48924 15.6464 9.83008C15.8236 10.1742 15.8156 10.4011 15.75 10.7813C15.5691 11.0426 15.4437 11.1317 15.1465 11.2384C14.855 11.2526 14.6984 11.1913 14.4375 11.0626C14.2959 10.9071 14.2959 10.9071 14.1753 10.7132C14.1281 10.6378 14.0809 10.5623 14.0323 10.4846C13.716 9.95013 13.4068 9.41202 13.1016 8.87118C13.0004 8.69245 12.8991 8.51377 12.7977 8.33515C12.7066 8.17465 12.6158 8.014 12.5251 7.85335C12.4187 7.6694 12.3054 7.48939 12.1875 7.31259C12.1242 6.64774 12.1242 6.64774 12.3574 6.33407C12.7259 6.07088 12.9789 6.06548 13.4063 6.18759Z" fill="#FF7705"></path>
  <path d="M42.6443 25.9308C42.7348 25.9296 42.8252 25.9284 42.9184 25.9272C43.064 25.9276 43.064 25.9276 43.2125 25.928C43.3128 25.9275 43.4132 25.927 43.5165 25.9265C43.7286 25.9259 43.9406 25.926 44.1527 25.9268C44.477 25.9276 44.8011 25.9249 45.1254 25.922C45.3315 25.9218 45.5377 25.9219 45.7438 25.9221C45.8407 25.9211 45.9375 25.92 46.0374 25.9189C46.4582 25.923 46.7101 25.9259 47.0766 26.1461C47.2743 26.3713 47.3137 26.469 47.3086 26.7655C47.3098 26.8361 47.311 26.9067 47.3123 26.9794C47.2147 27.3054 47.073 27.3868 46.7812 27.5624C46.4366 27.6185 46.0956 27.6149 45.7471 27.6122C45.5968 27.6127 45.5968 27.6127 45.4435 27.6133C45.232 27.6135 45.0205 27.6129 44.809 27.6113C44.4855 27.6093 44.1622 27.6113 43.8387 27.6137C43.6331 27.6134 43.4274 27.6129 43.2217 27.6122C43.1251 27.613 43.0285 27.6137 42.929 27.6145C42.5106 27.609 42.2582 27.6049 41.894 27.3861C41.6874 27.1519 41.6326 27.0302 41.625 26.7186C41.7705 26.163 42.0767 25.9344 42.6443 25.9308Z" fill="#FF7705"></path>
  <path d="M2.25293 25.4502C2.35312 25.4498 2.45331 25.4494 2.55653 25.4491C2.76803 25.4488 2.97953 25.4495 3.19102 25.4511C3.5145 25.4531 3.83778 25.4511 4.16125 25.4487C4.36694 25.449 4.57263 25.4494 4.77832 25.4502C4.87491 25.4494 4.97151 25.4486 5.07103 25.4479C5.48944 25.4533 5.7418 25.4575 6.10602 25.6763C6.31256 25.9105 6.3674 26.0322 6.375 26.3437C6.27591 26.7221 6.14202 26.8896 5.8125 27.0937C5.59616 27.1301 5.59616 27.1301 5.35567 27.1316C5.26525 27.1328 5.17482 27.134 5.08165 27.1352C4.98457 27.1349 4.88749 27.1347 4.78748 27.1344C4.68715 27.1349 4.58683 27.1354 4.48347 27.1359C4.27142 27.1365 4.05935 27.1363 3.8473 27.1355C3.523 27.1347 3.19886 27.1374 2.87457 27.1404C2.66846 27.1406 2.46234 27.1405 2.25623 27.1402C2.1109 27.1418 2.1109 27.1418 1.96263 27.1434C1.54179 27.1393 1.28987 27.1364 0.923424 26.9163C0.725741 26.6911 0.686329 26.5933 0.691406 26.2968C0.690198 26.2263 0.688989 26.1557 0.687744 26.083C0.903073 25.3635 1.64244 25.4454 2.25293 25.4502Z" fill="#FF7705"></path>
  <path d="M24.2344 3.22266C24.3049 3.22145 24.3755 3.22024 24.4482 3.21899C24.7742 3.31656 24.8557 3.45829 25.0312 3.75C25.0873 4.09461 25.0838 4.43565 25.081 4.78418C25.0814 4.88437 25.0818 4.98456 25.0821 5.08778C25.0824 5.29928 25.0817 5.51078 25.0801 5.72227C25.0781 6.04575 25.0801 6.36903 25.0825 6.6925C25.0823 6.89819 25.0818 7.10388 25.081 7.30957C25.0818 7.40616 25.0826 7.50276 25.0833 7.60228C25.0778 8.02208 25.0735 8.27352 24.8536 8.63887C24.6285 8.83687 24.5309 8.87617 24.2344 8.87109C24.1285 8.87291 24.1285 8.87291 24.0205 8.87476C23.6945 8.77719 23.613 8.63546 23.4375 8.34375C23.3814 7.99914 23.3849 7.6581 23.3877 7.30957C23.3873 7.20938 23.387 7.10919 23.3866 7.00597C23.3863 6.79447 23.387 6.58297 23.3886 6.37148C23.3906 6.048 23.3886 5.72472 23.3862 5.40125C23.3865 5.19556 23.3869 4.98987 23.3877 4.78418C23.3869 4.68759 23.3862 4.59099 23.3854 4.49147C23.3909 4.07167 23.3952 3.82023 23.6151 3.45488C23.8402 3.25688 23.9378 3.21758 24.2344 3.22266Z" fill="#FF7705"></path>
  <path d="M21.5039 39.5332C21.7732 39.7704 21.8676 39.8691 21.9375 40.2187C21.9504 40.6625 21.905 40.9706 21.6563 41.3437C21.2835 41.5922 20.9762 41.6517 20.5313 41.625C20.1921 41.5119 20.0244 41.4087 19.793 41.1387C19.6551 40.7941 19.6229 40.4876 19.6875 40.125C19.8384 39.834 19.9691 39.6359 20.2266 39.4336C20.7128 39.2985 21.0602 39.3113 21.5039 39.5332Z" fill="#FF7705"></path>
</svg>
