<?xml version="1.0" encoding="UTF-8"?>
<svg xmlns="http://www.w3.org/2000/svg" width="48" height="48" viewBox="0 0 48 48" fill="none">
  <g clip-path="url(#clip0_3599_274)">
    <path d="M5.06046 -0.0476665C5.21066 -0.0480992 5.36085 -0.0486952 5.51104 -0.0494392C5.92147 -0.0509978 6.33186 -0.050234 6.74228 -0.0490694C7.18579 -0.0482185 7.6293 -0.0495317 8.07282 -0.0505618C8.94075 -0.0522271 9.80867 -0.0518702 10.6766 -0.0507821C11.3822 -0.0499343 12.0877 -0.0498207 12.7933 -0.0502285C12.944 -0.0503147 12.944 -0.0503147 13.0979 -0.0504027C13.3021 -0.0505226 13.5063 -0.0506441 13.7105 -0.0507674C15.6242 -0.051836 17.538 -0.0506082 19.4517 -0.0485922C21.0929 -0.0469169 22.7341 -0.0472079 24.3752 -0.0489368C26.2822 -0.0509448 28.1893 -0.0517331 30.0963 -0.0505822C30.2997 -0.0504627 30.5032 -0.0503448 30.7066 -0.0502285C30.8568 -0.0501418 30.8568 -0.0501418 31.01 -0.0500532C31.7145 -0.0497298 32.4189 -0.0502752 33.1234 -0.0511584C33.9823 -0.0522114 34.8411 -0.0519228 35.7 -0.0499281C36.1379 -0.0489443 36.5759 -0.0485537 37.0139 -0.0497965C37.4152 -0.0509182 37.8165 -0.050293 38.2178 -0.0483049C38.3626 -0.0478878 38.5074 -0.0480951 38.6522 -0.0490084C40.0309 -0.0570347 41.228 0.282405 42.2578 1.24214C43.1816 2.23341 43.5581 3.41225 43.5476 4.74456C43.5485 4.91661 43.5485 4.91661 43.5493 5.09213C43.5506 5.40764 43.5501 5.72307 43.549 6.03857C43.5481 6.37988 43.5494 6.72119 43.5505 7.06251C43.5521 7.72982 43.5518 8.39712 43.5507 9.06443C43.5498 9.60663 43.5497 10.1488 43.5501 10.691C43.5502 10.7683 43.5502 10.8456 43.5503 10.9252C43.5504 11.0823 43.5505 11.2393 43.5507 11.3963C43.5517 12.8665 43.5505 14.3367 43.5485 15.807C43.5468 17.0687 43.5471 18.3304 43.5488 19.5921C43.5508 21.0583 43.5516 22.5244 43.5505 23.9905C43.5504 24.1467 43.5503 24.303 43.5501 24.4592C43.55 24.5745 43.55 24.5745 43.55 24.6921C43.5496 25.2341 43.5502 25.776 43.5511 26.3179C43.5521 26.9777 43.5518 27.6376 43.5498 28.2974C43.5488 28.6341 43.5485 28.9708 43.5497 29.3075C43.551 29.672 43.5494 30.0366 43.5476 30.4012C43.5488 30.5615 43.5488 30.5615 43.5501 30.7251C43.5486 30.8713 43.5486 30.8713 43.5471 31.0204C43.5471 31.1045 43.547 31.1887 43.547 31.2754C43.4848 31.5722 43.3563 31.6856 43.125 31.875C42.9375 31.9248 42.9375 31.9248 42.75 31.9218C42.6571 31.9233 42.6571 31.9233 42.5625 31.9248C42.375 31.875 42.375 31.875 42 31.5C42 25.56 42 19.62 42 13.5C28.635 13.5 15.27 13.5 1.49995 13.5C1.51155 17.6707 1.52316 21.8415 1.53511 26.1386C1.5383 27.4556 1.54148 28.7726 1.54477 30.1295C1.54851 31.3099 1.54851 31.3099 1.5525 32.4903C1.55426 33.0161 1.55553 33.542 1.55645 34.0678C1.55752 34.6746 1.55923 35.2815 1.56173 35.8883C1.56298 36.1985 1.56385 36.5087 1.5641 36.819C1.56441 37.1519 1.56587 37.4848 1.5676 37.8177C1.56741 37.9135 1.56723 38.0093 1.56705 38.108C1.57503 39.1412 1.67895 40.1328 2.373 40.9394C3.36054 41.7891 4.25588 41.9207 5.53019 41.9185C5.63308 41.9187 5.73598 41.9189 5.84199 41.9191C6.1863 41.9197 6.5306 41.9196 6.8749 41.9195C7.12192 41.9198 7.36894 41.9201 7.61597 41.9205C8.14762 41.9212 8.67927 41.9217 9.21092 41.922C10.0511 41.9225 10.8912 41.9241 11.7314 41.9259C12.019 41.9265 12.3065 41.9271 12.5941 41.9277C12.666 41.9278 12.7379 41.928 12.8119 41.9281C13.6291 41.9298 14.4462 41.9313 15.2634 41.9327C15.3381 41.9329 15.4128 41.933 15.4897 41.9331C16.7013 41.9352 17.9128 41.9362 19.1244 41.9369C20.3686 41.9376 21.6127 41.9398 22.8569 41.9433C23.6243 41.9453 24.3916 41.9462 25.159 41.9456C25.7464 41.9453 26.3338 41.9469 26.9212 41.9493C27.1625 41.9499 27.4038 41.9499 27.645 41.9493C27.9735 41.9484 28.3019 41.9499 28.6304 41.9519C28.7267 41.9511 28.8229 41.9503 28.922 41.9495C29.5657 41.957 29.5657 41.957 29.8715 42.1787C30.01 42.3903 30.0507 42.4991 30.0468 42.75C30.0478 42.8118 30.0488 42.8737 30.0498 42.9375C29.9715 43.2322 29.8756 43.3197 29.625 43.5C29.2832 43.558 28.9433 43.5505 28.5974 43.5476C28.4383 43.5485 28.4383 43.5485 28.2761 43.5493C27.9195 43.5508 27.5629 43.5497 27.2063 43.5485C26.9511 43.5488 26.696 43.5496 26.4408 43.5505C25.8188 43.5521 25.1967 43.5518 24.5747 43.5507C24.0688 43.5498 23.5629 43.5497 23.057 43.5501C22.9851 43.5502 22.9131 43.5502 22.8389 43.5503C22.6927 43.5504 22.5464 43.5505 22.4002 43.5507C21.0279 43.5517 19.6557 43.5505 18.2835 43.5485C17.1072 43.5468 15.931 43.5471 14.7548 43.5488C13.3885 43.5508 12.0222 43.5516 10.6559 43.5505C10.51 43.5504 10.3641 43.5502 10.2182 43.5501C10.1105 43.55 10.1105 43.55 10.0007 43.55C9.496 43.5496 8.99135 43.5502 8.48669 43.5511C7.87075 43.5521 7.25482 43.5518 6.63888 43.5498C6.32488 43.5489 6.01094 43.5487 5.69693 43.5497C5.35572 43.5507 5.01459 43.5494 4.67337 43.5476C4.52615 43.5488 4.52615 43.5488 4.37596 43.5501C3.20348 43.5377 2.10076 43.058 1.24214 42.2578C0.214352 41.155 -0.0568843 39.9007 -0.0476665 38.4394C-0.0480992 38.2892 -0.0486952 38.1391 -0.0494392 37.9889C-0.0509978 37.5784 -0.0502341 37.168 -0.0490694 36.7576C-0.0482186 36.3141 -0.0495317 35.8706 -0.0505618 35.4271C-0.0522271 34.5592 -0.0518702 33.6912 -0.0507821 32.8233C-0.0499343 32.1177 -0.0498207 31.4122 -0.0502285 30.7066C-0.050286 30.6061 -0.0503435 30.5056 -0.0504027 30.4021C-0.0505226 30.1978 -0.0506442 29.9936 -0.0507675 29.7894C-0.0518361 27.8757 -0.0506084 25.9619 -0.0485924 24.0482C-0.046917 22.407 -0.0472079 20.7658 -0.0489368 19.1247C-0.0509447 17.2177 -0.0517331 15.3106 -0.0505822 13.4036C-0.0504628 13.2002 -0.0503448 12.9967 -0.0502285 12.7933C-0.0501707 12.6932 -0.0501129 12.5931 -0.0500533 12.4899C-0.0497298 11.7854 -0.0502752 11.081 -0.0511583 10.3765C-0.0522114 9.51762 -0.0519228 8.65879 -0.0499281 7.79995C-0.0489443 7.36197 -0.0485536 6.92401 -0.0497965 6.48603C-0.0509181 6.0847 -0.0502929 5.6834 -0.0483048 5.28206C-0.0478877 5.13729 -0.0480951 4.99251 -0.0490083 4.84774C-0.0570347 3.46903 0.282405 2.27188 1.24214 1.24214C2.3449 0.214352 3.59919 -0.0568843 5.06046 -0.0476665ZM2.3437 2.43745C0.396606 4.97693 1.49995 9.60132 1.49995 12C14.865 12 28.23 12 42 12C42.5911 7.65418 42.5911 7.65418 41.0625 2.3437C40.2222 1.69945 39.4412 1.48856 38.383 1.48789C38.2621 1.48759 38.1412 1.48729 38.0166 1.48698C37.8836 1.48711 37.7506 1.48726 37.6176 1.48742C37.4754 1.48724 37.3332 1.48703 37.191 1.48677C36.8009 1.4862 36.4109 1.48621 36.0208 1.48632C35.5998 1.48634 35.1789 1.48582 34.7579 1.48538C33.9335 1.4846 33.109 1.48434 32.2845 1.48429C31.6143 1.48425 30.9441 1.48405 30.2739 1.48376C28.3734 1.48293 26.4729 1.4825 24.5724 1.48257C24.4699 1.48257 24.3675 1.48258 24.262 1.48258C24.1594 1.48258 24.0568 1.48259 23.9512 1.48259C22.2889 1.48263 20.6267 1.48173 18.9645 1.48041C17.2573 1.47906 15.5502 1.47842 13.8431 1.4785C12.8848 1.47853 11.9266 1.47827 10.9683 1.47726C10.1524 1.47641 9.33656 1.47621 8.5207 1.47684C8.10457 1.47715 7.68845 1.47715 7.27233 1.47634C6.89106 1.4756 6.5098 1.47574 6.12852 1.47655C5.99093 1.4767 5.85334 1.47653 5.71574 1.476C4.48347 1.47163 3.27398 1.53165 2.3437 2.43745Z" fill="#FF7705"></path>
    <path d="M32.7187 24.8437C33.0139 25.0419 33.2561 25.287 33.5062 25.5386C33.7423 25.7728 33.9859 25.9989 34.2287 26.2262C34.4373 26.4216 34.6452 26.6177 34.853 26.8139C35.1884 27.1301 35.5259 27.4439 35.8652 27.7558C36.319 28.1731 36.7695 28.5936 37.2187 29.0156C37.67 29.4395 38.1225 29.862 38.5781 30.2812C39.0987 30.7602 39.6149 31.2438 40.1305 31.7281C40.5176 32.0915 40.9062 32.453 41.2969 32.8125C41.8769 33.3463 42.4518 33.8854 43.0265 34.4249C43.8201 35.1698 44.6154 35.913 45.416 36.6504C45.8886 37.0858 46.359 37.5237 46.8281 37.9629C46.891 38.0217 46.9539 38.0804 47.0187 38.141C47.1368 38.2517 47.2545 38.3627 47.3718 38.4741C47.5152 38.6098 47.6605 38.7437 47.8059 38.8773C48.004 39.0982 48.0645 39.178 48.0586 39.4687C48.0598 39.5287 48.061 39.5886 48.0623 39.6504C47.9324 40.0537 47.5938 40.2791 47.2332 40.4716C47.1232 40.5178 47.0132 40.5641 46.8999 40.6117C46.8401 40.6372 46.7804 40.6627 46.7188 40.6889C46.5291 40.7696 46.3388 40.8487 46.1484 40.9277C46.0222 40.981 45.8959 41.0344 45.7698 41.0879C45.5863 41.1657 45.4027 41.2433 45.2188 41.3202C44.8206 41.4867 44.427 41.6611 44.0368 41.8454C43.875 41.9062 43.875 41.9062 43.5937 41.9062C43.6278 41.9823 43.6619 42.0584 43.697 42.1368C43.8238 42.4213 43.9494 42.7063 44.0744 42.9917C44.1285 43.1147 44.1831 43.2376 44.2381 43.3602C44.3174 43.5373 44.3952 43.715 44.4727 43.8929C44.5198 43.9995 44.5669 44.106 44.6155 44.2158C44.7321 44.5719 44.7711 44.8156 44.7187 45.1875C44.3831 45.649 43.9295 45.8323 43.4194 46.0481C43.3386 46.0833 43.2577 46.1185 43.1744 46.1549C42.9162 46.267 42.6573 46.3777 42.3984 46.4883C42.2288 46.5618 42.0593 46.6354 41.8898 46.7091C41.4755 46.8888 41.0603 47.0659 40.6445 47.2421C40.4122 47.3412 40.1808 47.4421 39.9494 47.5434C39.8082 47.6041 39.6671 47.6647 39.5259 47.7253C39.463 47.7533 39.4002 47.7813 39.3355 47.8102C38.928 47.9827 38.5972 48.0401 38.1562 48C37.5919 47.6257 37.3973 46.9441 37.1426 46.3418C37.0955 46.2337 37.0484 46.1256 36.9999 46.0142C36.6562 45.2169 36.6562 45.2169 36.6562 45C36.5974 45.0273 36.5386 45.0546 36.478 45.0827C35.4613 45.5539 34.4437 46.0239 33.416 46.4707C33.3454 46.5024 33.2748 46.5341 33.202 46.5668C32.7772 46.7486 32.4396 46.8301 31.9687 46.7812C31.747 46.6062 31.6256 46.4699 31.5 46.2187C31.4904 45.9482 31.4866 45.6798 31.4868 45.4092C31.4866 45.3244 31.4863 45.2396 31.486 45.1522C31.4852 44.8662 31.485 44.5803 31.4849 44.2944C31.4845 44.09 31.484 43.8857 31.4835 43.6814C31.4822 43.1251 31.4816 42.5688 31.4812 42.0125C31.481 41.6652 31.4806 41.3179 31.4802 40.9707C31.4788 39.8224 31.4779 38.6742 31.4775 37.526C31.4775 37.464 31.4775 37.4021 31.4775 37.3383C31.4775 37.2763 31.4774 37.2142 31.4774 37.1504C31.4771 36.208 31.4757 35.2657 31.4736 34.3234C31.4713 33.2296 31.4699 32.1358 31.4697 31.042C31.4696 30.4628 31.4691 29.8836 31.4674 29.3045C31.4659 28.7597 31.4656 28.215 31.4665 27.6703C31.4665 27.4702 31.4661 27.2701 31.4652 27.07C31.464 26.7971 31.4646 26.5243 31.4655 26.2515C31.4648 26.172 31.464 26.0925 31.4633 26.0106C31.4669 25.5763 31.4987 25.29 31.7812 24.9375C32.1007 24.7778 32.3784 24.7597 32.7187 24.8437ZM33.0937 27.4687C33.0937 33.1922 33.0937 38.9156 33.0937 44.8125C34.8292 44.0957 34.8292 44.0957 36.5306 43.3202C36.9096 43.1974 37.12 43.1921 37.5 43.3125C37.935 43.7845 38.1291 44.4476 38.3672 45.0351C38.4317 45.1923 38.4317 45.1923 38.4976 45.3526C38.6031 45.6099 38.708 45.8673 38.8125 46.125C39.2945 46.069 39.6809 45.9162 40.1173 45.7178C40.1866 45.6869 40.2559 45.656 40.3273 45.6242C40.5472 45.5261 40.7668 45.4272 40.9863 45.3281C41.2069 45.2292 41.4276 45.1305 41.6484 45.032C41.7854 44.9707 41.9223 44.9093 42.0591 44.8476C42.3186 44.731 42.5736 44.6213 42.8437 44.5312C42.7848 44.1756 42.6807 43.8739 42.5358 43.5443C42.4938 43.4468 42.4518 43.3494 42.4085 43.2489C42.3198 43.0454 42.2307 42.842 42.1412 42.6388C42.0993 42.5413 42.0574 42.4437 42.0143 42.3431C41.9756 42.2548 41.9369 42.1665 41.8971 42.0754C41.8005 41.7751 41.7709 41.5633 41.8125 41.25C42.0935 40.8425 42.541 40.6948 42.9829 40.5102C43.0594 40.4775 43.1358 40.4447 43.2146 40.411C43.4578 40.307 43.7015 40.2042 43.9453 40.1015C44.1108 40.0311 44.2762 39.9605 44.4415 39.8899C44.846 39.7173 45.251 39.5458 45.6562 39.375C45.6863 39.0975 45.6863 39.0975 45.5323 38.9449C45.4455 38.8654 45.4455 38.8654 45.3571 38.7843C45.2924 38.7243 45.2277 38.6642 45.161 38.6024C45.0905 38.5383 45.0199 38.4742 44.9473 38.4082C44.8751 38.3416 44.803 38.2749 44.7287 38.2063C44.5795 38.0685 44.4299 37.9309 44.2802 37.7936C44.0217 37.5563 43.7654 37.3166 43.5094 37.0766C42.9771 36.5777 42.4414 36.0825 41.9047 35.5883C41.4319 35.1523 40.9633 34.7121 40.4945 34.2719C40.1074 33.9085 39.7188 33.547 39.3281 33.1875C38.8076 32.7085 38.2914 32.2249 37.7758 31.7406C37.3887 31.3773 37 31.0157 36.6094 30.6562C36.1538 30.237 35.7013 29.8145 35.25 29.3906C34.7703 28.9405 34.2906 28.4906 33.8086 28.0429C33.7578 27.9955 33.7071 27.9481 33.6548 27.8992C33.3947 27.6557 33.3947 27.6557 33.0937 27.4687Z" fill="#FF7705"></path>
    <path d="M26.8517 24.5164C27.677 25.1108 28.2972 25.897 28.5 26.9063C28.6254 28.0704 28.5258 29.099 27.8262 30.0703C27.1875 30.8283 26.4089 31.4122 25.3996 31.521C24.1892 31.6049 23.1796 31.4581 22.225 30.6537C21.7337 30.1847 21.3922 29.7271 21.1688 29.0816C21.1367 28.9899 21.1046 28.8982 21.0715 28.8037C21.0479 28.7344 21.0243 28.6652 21 28.5938C20.9172 28.5936 20.8345 28.5935 20.7492 28.5934C18.7368 28.5899 16.7245 28.5844 14.7121 28.5765C13.739 28.5728 12.7658 28.5698 11.7926 28.5684C10.9446 28.5672 10.0965 28.5646 9.24844 28.5605C8.79927 28.5584 8.35011 28.5569 7.90093 28.557C7.47832 28.5571 7.05574 28.5554 6.63314 28.5524C6.47789 28.5516 6.32263 28.5515 6.16738 28.552C5.95562 28.5526 5.74401 28.5509 5.53226 28.5487C5.35441 28.5482 5.35441 28.5482 5.17297 28.5476C4.82274 28.4917 4.71226 28.4035 4.5 28.125C4.4502 27.9375 4.4502 27.9375 4.45312 27.75C4.45216 27.6882 4.45119 27.6263 4.4502 27.5625C4.52422 27.2839 4.65 27.1785 4.875 27C5.17297 26.9524 5.17297 26.9524 5.53226 26.9514C5.59843 26.9507 5.6646 26.95 5.73277 26.9492C5.95447 26.9473 6.17609 26.9481 6.3978 26.9489C6.55672 26.948 6.71564 26.9471 6.87456 26.9459C7.30609 26.9433 7.73759 26.943 8.16913 26.9431C8.62007 26.9428 9.071 26.9404 9.52194 26.9382C10.3759 26.9344 11.2298 26.9325 12.0838 26.9313C13.056 26.9298 14.0282 26.9262 15.0003 26.9224C17.0002 26.9147 19.0001 26.9096 21 26.9063C21.0236 26.837 21.0472 26.7677 21.0715 26.6964C21.1036 26.6047 21.1357 26.513 21.1688 26.4185C21.2002 26.3279 21.2315 26.2374 21.2638 26.1441C21.6414 25.2305 22.4444 24.5379 23.3379 24.1465C24.4888 23.7726 25.8255 23.8765 26.8517 24.5164ZM22.9167 26.5221C22.53 27.0834 22.5266 27.6515 22.5938 28.3125C22.76 28.9355 23.1981 29.3601 23.7188 29.7188C24.2811 29.9945 24.9265 30.0093 25.5293 29.8484C26.1039 29.5948 26.5537 29.118 26.8286 28.5572C27.0073 27.9941 27.006 27.3279 26.7656 26.7832C26.4389 26.2264 25.928 25.7891 25.3125 25.5938C24.2405 25.4666 23.6083 25.7132 22.9167 26.5221Z" fill="#FF7705"></path>
    <path d="M19.3085 32.6023C19.8025 33.1445 20.0558 33.7058 20.25 34.4063C20.3967 34.4068 20.3967 34.4068 20.5464 34.4073C21.4679 34.4108 22.3894 34.4162 23.3109 34.4235C23.7846 34.4272 24.2584 34.4302 24.7321 34.4317C25.1893 34.4331 25.6464 34.4363 26.1035 34.4408C26.278 34.4422 26.4524 34.4429 26.6269 34.443C26.8712 34.4432 27.1153 34.4458 27.3595 34.4488C27.468 34.4481 27.468 34.4481 27.5786 34.4474C27.9099 34.4539 28.0912 34.4739 28.3572 34.679C28.5121 34.8916 28.5509 34.9901 28.5469 35.25C28.5483 35.3428 28.5483 35.3428 28.5498 35.4375C28.4746 35.7205 28.3568 35.8213 28.125 36C27.8579 36.0378 27.6266 36.0529 27.3595 36.0512C27.2827 36.0522 27.2058 36.0531 27.1266 36.0541C26.873 36.0569 26.6194 36.057 26.3657 36.0571C26.1897 36.0585 26.0137 36.0601 25.8377 36.0618C25.3747 36.0659 24.9117 36.0678 24.4487 36.0692C23.9761 36.0711 23.5036 36.075 23.031 36.0787C22.104 36.0858 21.177 36.0905 20.25 36.0938C20.2264 36.163 20.2028 36.2323 20.1785 36.3037C20.1464 36.3954 20.1143 36.4871 20.0812 36.5816C20.0498 36.6721 20.0185 36.7626 19.9862 36.8559C19.6407 37.6918 18.9324 38.3565 18.1249 38.7455C17.0927 39.1517 16.0829 39.1974 15.0311 38.8154C14.0845 38.381 13.3738 37.6985 12.9375 36.75C12.8734 36.5317 12.8108 36.313 12.75 36.0938C12.6033 36.0932 12.6033 36.0932 12.4536 36.0927C11.5321 36.0893 10.6106 36.0839 9.68911 36.0765C9.21536 36.0728 8.74162 36.0698 8.26785 36.0684C7.81072 36.0669 7.35363 36.0637 6.89651 36.0592C6.72204 36.0578 6.54755 36.0571 6.37307 36.057C6.12882 36.0568 5.8847 36.0543 5.64047 36.0512C5.53204 36.0519 5.53204 36.0519 5.42142 36.0526C5.09014 36.0461 4.90884 36.0261 4.64277 35.821C4.48792 35.6084 4.44906 35.5099 4.45312 35.25C4.45216 35.1881 4.45119 35.1263 4.4502 35.0625C4.52535 34.7796 4.64315 34.6787 4.875 34.5C5.14205 34.4622 5.3734 34.4471 5.64047 34.4488C5.71734 34.4479 5.7942 34.4469 5.87339 34.4459C6.12704 34.4431 6.38062 34.443 6.63428 34.4429C6.8103 34.4415 6.98633 34.4399 7.16235 34.4382C7.62533 34.4341 8.0883 34.4322 8.5513 34.4308C9.02387 34.429 9.49643 34.425 9.96899 34.4213C10.896 34.4142 11.823 34.4095 12.75 34.4063C12.7736 34.337 12.7972 34.2677 12.8215 34.1963C12.8536 34.1046 12.8857 34.0129 12.9188 33.9185C12.9502 33.8279 12.9815 33.7374 13.0138 33.6441C13.3591 32.8087 14.0698 32.1356 14.8817 31.7545C16.4805 31.1376 18.0537 31.4253 19.3085 32.6023ZM14.6667 34.0221C14.28 34.5834 14.2766 35.1515 14.3438 35.8125C14.51 36.4355 14.9481 36.86 15.4688 37.2188C16.0311 37.4944 16.6765 37.5093 17.2793 37.3484C17.8539 37.0948 18.3037 36.618 18.5786 36.0571C18.7573 35.4941 18.756 34.8279 18.5156 34.2832C18.1889 33.7263 17.678 33.2891 17.0625 33.0938C15.9905 32.9666 15.3583 33.2132 14.6667 34.0221Z" fill="#FF7705"></path>
    <path d="M12.5585 17.6022C13.0525 18.1444 13.3058 18.7057 13.5 19.4062C13.6125 19.4064 13.6125 19.4064 13.7274 19.4066C15.552 19.4101 17.3766 19.4156 19.2012 19.4234C20.0835 19.4272 20.9659 19.4302 21.8482 19.4316C22.6172 19.4328 23.3862 19.4353 24.1551 19.4394C24.5624 19.4416 24.9696 19.443 25.3769 19.4429C25.7601 19.4429 26.1433 19.4445 26.5265 19.4475C26.6672 19.4483 26.8079 19.4485 26.9487 19.448C27.1407 19.4474 27.3327 19.4493 27.5247 19.4513C27.6322 19.4516 27.7397 19.452 27.8505 19.4523C28.184 19.5102 28.2944 19.6114 28.5 19.8749C28.5498 20.0624 28.5498 20.0624 28.5469 20.2499C28.5483 20.3428 28.5483 20.3428 28.5498 20.4374C28.4763 20.714 28.3465 20.8214 28.125 20.9999C27.8505 21.0475 27.8505 21.0475 27.5247 21.0486C27.3393 21.0505 27.3393 21.0505 27.1502 21.0525C27.0134 21.0521 26.8767 21.0516 26.7399 21.0511C26.5958 21.0519 26.4516 21.0529 26.3075 21.0541C25.9162 21.0567 25.525 21.057 25.1338 21.0569C24.7249 21.0572 24.316 21.0596 23.9071 21.0618C23.1328 21.0656 22.3585 21.0675 21.5843 21.0687C20.7028 21.0702 19.8213 21.0738 18.9398 21.0776C17.1265 21.0853 15.3133 21.0904 13.5 21.0937C13.4764 21.163 13.4528 21.2322 13.4285 21.3036C13.3964 21.3953 13.3643 21.487 13.3312 21.5815C13.2998 21.672 13.2685 21.7626 13.2362 21.8559C12.8907 22.6917 12.1824 23.3564 11.3749 23.7454C10.3427 24.1516 9.33292 24.1973 8.28113 23.8154C7.32512 23.3766 6.64044 22.6973 6.1875 21.7499C6.10628 21.5298 6.04997 21.3236 6 21.0937C5.88471 21.0901 5.88471 21.0901 5.76709 21.0864C5.66606 21.081 5.56503 21.0757 5.46094 21.0703C5.36087 21.0659 5.26081 21.0615 5.15771 21.0571C4.81947 20.9887 4.70444 20.8995 4.5 20.6249C4.4502 20.4374 4.4502 20.4374 4.45312 20.2499C4.45216 20.1881 4.45119 20.1262 4.4502 20.0624C4.52425 19.7836 4.64706 19.6735 4.875 19.4999C5.15771 19.4428 5.15771 19.4428 5.46094 19.4296C5.61248 19.4216 5.61248 19.4216 5.76709 19.4135C5.84395 19.4111 5.92081 19.4087 6 19.4062C6.01946 19.3415 6.03891 19.2769 6.05896 19.2103C6.39242 18.1931 6.95477 17.4382 7.875 16.8749C9.51942 16.1032 11.2299 16.356 12.5585 17.6022ZM7.91675 19.022C7.53002 19.5833 7.52662 20.1514 7.59375 20.8124C7.76001 21.4354 8.19812 21.86 8.71875 22.2187C9.28114 22.4944 9.92652 22.5092 10.5293 22.3483C11.1039 22.0947 11.5537 21.6179 11.8286 21.0571C12.0073 20.494 12.006 19.8278 11.7656 19.2831C11.4389 18.7263 10.928 18.289 10.3125 18.0937C9.24052 17.9665 8.6083 18.2131 7.91675 19.022Z" fill="#FF7705"></path>
    <path d="M37.8222 4.64061C38.3683 4.97061 38.8108 5.48339 39 6.09374C39.0755 6.82837 39.1054 7.55804 38.625 8.15624C38.1746 8.62923 37.7661 8.96301 37.0997 9.03148C36.3013 9.04028 35.7491 9.01102 35.1595 8.44957C34.5612 7.80234 34.4549 7.29358 34.4714 6.41673C34.5366 5.67966 34.8794 5.29221 35.4283 4.82298C36.0906 4.36666 37.0869 4.31474 37.8222 4.64061ZM36.2461 6.24608C36.0481 6.53547 36.0364 6.68701 36.0937 7.03124C36.2343 7.26561 36.2343 7.26561 36.4687 7.40624C36.8129 7.46361 36.9645 7.4519 37.2539 7.25389C37.4519 6.9645 37.4636 6.81296 37.4062 6.46874C37.2656 6.23436 37.2656 6.23436 37.0312 6.09374C36.687 6.03637 36.5355 6.04807 36.2461 6.24608Z" fill="#FF7705"></path>
    <path d="M31.8222 4.64061C32.3683 4.97061 32.8108 5.48339 33 6.09374C33.0755 6.82837 33.1054 7.55804 32.625 8.15624C32.1746 8.62923 31.7661 8.96301 31.0997 9.03148C30.3013 9.04028 29.7491 9.01102 29.1595 8.44957C28.5612 7.80234 28.4549 7.29358 28.4714 6.41673C28.5366 5.67966 28.8794 5.29221 29.4283 4.82298C30.0906 4.36666 31.0869 4.31474 31.8222 4.64061ZM30.2461 6.24608C30.0481 6.53547 30.0364 6.68701 30.0937 7.03124C30.2343 7.26561 30.2343 7.26561 30.4687 7.40624C30.8129 7.46361 30.9645 7.4519 31.2539 7.25389C31.4519 6.9645 31.4636 6.81296 31.4062 6.46874C31.2656 6.23436 31.2656 6.23436 31.0312 6.09374C30.687 6.03637 30.5355 6.04807 30.2461 6.24608Z" fill="#FF7705"></path>
    <path d="M25.8222 4.64061C26.3683 4.97061 26.8108 5.48339 27 6.09374C27.0755 6.82837 27.1054 7.55804 26.625 8.15624C26.1746 8.62923 25.7661 8.96301 25.0997 9.03148C24.3013 9.04028 23.7491 9.01102 23.1595 8.44957C22.5612 7.80234 22.4549 7.29358 22.4714 6.41673C22.5366 5.67966 22.8794 5.29221 23.4283 4.82298C24.0906 4.36666 25.0869 4.31474 25.8222 4.64061ZM24.2461 6.24608C24.0481 6.53547 24.0364 6.68701 24.0937 7.03124C24.2343 7.26561 24.2343 7.26561 24.4687 7.40624C24.8129 7.46361 24.9645 7.4519 25.2539 7.25389C25.4519 6.9645 25.4636 6.81296 25.4062 6.46874C25.2656 6.23436 25.2656 6.23436 25.0312 6.09374C24.687 6.03637 24.5355 6.04807 24.2461 6.24608Z" fill="#FF7705"></path>
  </g>
  <defs>
    <clipPath id="clip0_3599_274">
      <rect width="48" height="48" fill="white"></rect>
    </clipPath>
  </defs>
</svg>
