<?xml version="1.0" encoding="UTF-8"?>
<svg xmlns="http://www.w3.org/2000/svg" width="48" height="48" viewBox="0 0 48 48" fill="none">
  <g clip-path="url(#clip0_3698_789)">
    <path d="M3.78984 -0.012636C3.89592 -0.0129668 3.89592 -0.0129668 4.00414 -0.0133042C4.24246 -0.0139312 4.48077 -0.0138885 4.7191 -0.0138501C4.89115 -0.0141593 5.06321 -0.0145086 5.23527 -0.0148946C5.70916 -0.0158345 6.18305 -0.0161825 6.65694 -0.0164311C7.16763 -0.0167968 7.67832 -0.0176948 8.18901 -0.0185135C9.42288 -0.0203669 10.6567 -0.0213102 11.8906 -0.0221443C12.4715 -0.0225551 13.0524 -0.0230582 13.6334 -0.0235495C15.5642 -0.0251444 17.4951 -0.0265033 19.426 -0.0271822C19.9271 -0.0273612 20.4283 -0.0275411 20.9294 -0.0277246C20.9917 -0.0277471 21.054 -0.0277696 21.1181 -0.0277928C23.1364 -0.0285326 25.1547 -0.030729 27.1729 -0.0337767C29.3071 -0.0369935 31.4412 -0.0388401 33.5754 -0.0391488C34.7386 -0.0393518 35.9018 -0.040173 37.065 -0.042567C38.0556 -0.0446011 39.0462 -0.0453573 40.0368 -0.0444452C40.5422 -0.0440188 41.0476 -0.0441985 41.5529 -0.0460165C42.0159 -0.0476676 42.4788 -0.0475775 42.9417 -0.0461199C43.1089 -0.0458969 43.2761 -0.046304 43.4433 -0.0474164C44.7028 -0.0552752 45.7112 0.079699 46.6873 0.937447C46.7441 0.984458 46.8009 1.03147 46.8594 1.0799C47.4301 1.592 47.8559 2.3366 47.9998 3.0937C48.0088 3.32668 48.0129 3.557 48.0124 3.78996C48.0126 3.86068 48.0128 3.9314 48.0131 4.00426C48.0137 4.24258 48.0137 4.4809 48.0136 4.71922C48.0139 4.89127 48.0143 5.06333 48.0147 5.23539C48.0156 5.70928 48.016 6.18317 48.0162 6.65706C48.0166 7.16775 48.0175 7.67844 48.0183 8.18913C48.0201 9.423 48.0211 10.6569 48.0219 11.8907C48.0223 12.4717 48.0228 13.0526 48.0233 13.6335C48.0249 15.5643 48.0263 17.4952 48.027 19.4261C48.0271 19.9272 48.0273 20.4284 48.0275 20.9296C48.0275 20.9918 48.0275 21.0541 48.0276 21.1182C48.0283 23.1365 48.0305 25.1548 48.0336 27.173C48.0368 29.3072 48.0386 31.4413 48.0389 33.5755C48.0391 34.7387 48.0399 35.9019 48.0423 37.0651C48.0444 38.0557 48.0451 39.0463 48.0442 40.0369C48.0438 40.5423 48.044 41.0477 48.0458 41.5531C48.0474 42.016 48.0474 42.4789 48.0459 42.9419C48.0457 43.109 48.0461 43.2762 48.0472 43.4434C48.055 44.703 47.9201 45.7113 47.0623 46.6874C47.0153 46.7442 46.9683 46.801 46.9199 46.8596C46.4078 47.4302 45.6632 47.856 44.9061 47.9999C44.6731 48.0089 44.4428 48.013 44.2098 48.0125C44.1391 48.0127 44.0684 48.013 43.9955 48.0132C43.7572 48.0138 43.5189 48.0138 43.2806 48.0137C43.1085 48.0141 42.9364 48.0144 42.7644 48.0148C42.2905 48.0157 41.8166 48.0161 41.3427 48.0163C40.832 48.0167 40.3213 48.0176 39.8106 48.0184C38.5768 48.0203 37.3429 48.0212 36.109 48.022C35.5281 48.0225 34.9472 48.023 34.3663 48.0234C32.4354 48.025 30.5046 48.0264 28.5737 48.0271C28.0725 48.0273 27.5714 48.0274 27.0702 48.0276C27.0079 48.0276 26.9457 48.0277 26.8815 48.0277C24.8633 48.0284 22.845 48.0306 20.8267 48.0337C18.6926 48.0369 16.5584 48.0387 14.4243 48.039C13.2611 48.0392 12.0979 48.0401 10.9347 48.0425C9.94404 48.0445 8.95344 48.0453 7.96283 48.0443C7.45745 48.0439 6.95209 48.0441 6.44672 48.0459C5.98377 48.0476 5.52086 48.0475 5.05792 48.046C4.89072 48.0458 4.72353 48.0462 4.55634 48.0473C3.2968 48.0552 2.28846 47.9202 1.31233 47.0624C1.25553 47.0154 1.19873 46.9684 1.14021 46.92C0.569544 46.4079 0.143783 45.6633 -0.000174906 44.9062C-0.00914887 44.6732 -0.0132508 44.4429 -0.0127584 44.2099C-0.0129789 44.1392 -0.0131992 44.0685 -0.0134264 43.9956C-0.0140534 43.7573 -0.0140106 43.519 -0.0139722 43.2807C-0.0142814 43.1086 -0.0146308 42.9366 -0.0150168 42.7645C-0.0159568 42.2906 -0.0163046 41.8167 -0.0165532 41.3428C-0.0169189 40.8321 -0.0178169 40.3215 -0.0186357 39.8108C-0.0204891 38.5769 -0.0214326 37.343 -0.0222666 36.1092C-0.0226775 35.5282 -0.0231805 34.9473 -0.0236718 34.3664C-0.0252667 32.4355 -0.0266257 30.5047 -0.0273046 28.5738C-0.0274836 28.0726 -0.0276632 27.5715 -0.0278467 27.0703C-0.0278692 27.0081 -0.0278918 26.9458 -0.027915 26.8817C-0.0286548 24.8634 -0.0308512 22.8451 -0.0338989 20.8269C-0.0371156 18.6927 -0.0389624 16.5586 -0.0392711 14.4244C-0.0394742 13.2612 -0.0402953 12.098 -0.0426893 10.9348C-0.0447234 9.94416 -0.0454794 8.95356 -0.0445673 7.96295C-0.0441409 7.45758 -0.0443206 6.95222 -0.0461387 6.44684C-0.0477897 5.9839 -0.0476996 5.52098 -0.046242 5.05804C-0.046019 4.89085 -0.0464261 4.72365 -0.0475384 4.55646C-0.0553973 3.29692 0.0795768 2.28858 0.937325 1.31245C0.984336 1.25565 1.03135 1.19885 1.07978 1.14033C1.79153 0.347188 2.74706 -0.0148402 3.78984 -0.012636ZM2.2674 2.37299C2.21653 2.42291 2.16565 2.47282 2.11323 2.52424C1.745 3.01925 1.64571 3.49149 1.65167 4.09782C1.65123 4.168 1.6508 4.23818 1.65035 4.31048C1.64923 4.54528 1.65011 4.78003 1.65098 5.01483C1.65059 5.18501 1.65008 5.35519 1.64945 5.52537C1.64809 5.99276 1.64849 6.46013 1.64918 6.92752C1.64963 7.43168 1.64846 7.93584 1.6475 8.44C1.64588 9.42758 1.64581 10.4152 1.6463 11.4027C1.64668 12.2053 1.64654 13.0079 1.64604 13.8105C1.64597 13.9247 1.6459 14.0389 1.64583 14.1565C1.64568 14.3885 1.64554 14.6204 1.64539 14.8523C1.64411 17.028 1.64462 19.2036 1.64569 21.3793C1.64662 23.3702 1.64541 25.3611 1.64317 27.3521C1.64088 29.3959 1.63998 31.4397 1.6406 33.4835C1.64093 34.6311 1.64072 35.7787 1.63908 36.9264C1.6377 37.9033 1.63764 38.8802 1.63927 39.8571C1.64007 40.3556 1.64027 40.8541 1.63884 41.3526C1.63754 41.809 1.63798 42.2653 1.6398 42.7216C1.64015 42.8867 1.63987 43.0518 1.6389 43.2169C1.63385 44.1365 1.64127 44.8204 2.21943 45.5819C2.27007 45.6315 2.3207 45.6812 2.37287 45.7324C2.42278 45.7832 2.47269 45.8341 2.52412 45.8865C3.01913 46.2548 3.49137 46.3541 4.0977 46.3481C4.16787 46.3485 4.23805 46.349 4.31036 46.3494C4.54516 46.3505 4.7799 46.3497 5.0147 46.3488C5.18488 46.3492 5.35506 46.3497 5.52524 46.3503C5.99263 46.3517 6.46001 46.3513 6.9274 46.3506C7.43156 46.3501 7.93572 46.3513 8.43988 46.3523C9.42746 46.3539 10.415 46.354 11.4026 46.3535C12.2052 46.3531 13.0078 46.3532 13.8104 46.3537C13.9246 46.3538 14.0387 46.3539 14.1564 46.3539C14.3883 46.3541 14.6203 46.3542 14.8522 46.3544C17.0279 46.3557 19.2035 46.3552 21.3791 46.3541C23.3701 46.3531 25.361 46.3544 27.352 46.3566C29.3958 46.3589 31.4395 46.3598 33.4833 46.3592C34.631 46.3588 35.7786 46.3591 36.9263 46.3607C37.9032 46.3621 38.8801 46.3621 39.857 46.3605C40.3555 46.3597 40.854 46.3595 41.3525 46.3609C41.8088 46.3622 42.2651 46.3618 42.7215 46.36C42.8866 46.3596 43.0517 46.3599 43.2168 46.3609C44.1364 46.3659 44.8203 46.3585 45.5817 45.7803C45.6314 45.7297 45.6811 45.6791 45.7322 45.6269C45.8086 45.552 45.8086 45.552 45.8864 45.4757C46.2547 44.9806 46.3539 44.5084 46.348 43.9021C46.3486 43.7968 46.3486 43.7968 46.3493 43.6894C46.3504 43.4546 46.3495 43.2199 46.3487 42.9851C46.3491 42.8149 46.3496 42.6447 46.3502 42.4745C46.3516 42.0071 46.3512 41.5398 46.3505 41.0724C46.35 40.5682 46.3512 40.0641 46.3522 39.5599C46.3538 38.5723 46.3538 37.5847 46.3534 36.5972C46.353 35.7946 46.3531 34.992 46.3536 34.1894C46.3537 34.0752 46.3538 33.961 46.3538 33.8434C46.354 33.6114 46.3541 33.3795 46.3543 33.1476C46.3555 30.9719 46.355 28.7963 46.354 26.6206C46.353 24.6297 46.3542 22.6388 46.3565 20.6478C46.3588 18.604 46.3597 16.5602 46.359 14.5164C46.3587 13.3688 46.3589 12.2212 46.3606 11.0735C46.3619 10.0966 46.362 9.11968 46.3604 8.14276C46.3596 7.64425 46.3594 7.14576 46.3608 6.64726C46.3621 6.19093 46.3617 5.73463 46.3599 5.27831C46.3595 5.11321 46.3598 4.94811 46.3608 4.78302C46.3658 3.86338 46.3584 3.17948 45.7802 2.41804C45.7296 2.36837 45.6789 2.3187 45.6268 2.26753C45.5769 2.21665 45.527 2.16577 45.4755 2.11335C44.9805 1.74512 44.5083 1.64583 43.902 1.65179C43.8318 1.65136 43.7616 1.65092 43.6893 1.65047C43.4545 1.64935 43.2197 1.65023 42.9849 1.6511C42.8148 1.65071 42.6446 1.6502 42.4744 1.64957C42.007 1.64822 41.5396 1.64862 41.0723 1.64931C40.5681 1.64975 40.0639 1.64858 39.5598 1.64762C38.5722 1.646 37.5846 1.64593 36.597 1.64642C35.7944 1.6468 34.9918 1.64666 34.1893 1.64616C34.0751 1.64609 33.9609 1.64602 33.8433 1.64595C33.6113 1.6458 33.3794 1.64566 33.1474 1.64552C30.9718 1.64423 28.7961 1.64474 26.6205 1.64581C24.6296 1.64675 22.6386 1.64553 20.6477 1.64329C18.6039 1.641 16.5601 1.6401 14.5163 1.64073C13.3687 1.64105 12.221 1.64084 11.0734 1.6392C10.0965 1.63782 9.11956 1.63776 8.14264 1.6394C7.64413 1.6402 7.14564 1.64039 6.64713 1.63896C6.1908 1.63767 5.73451 1.6381 5.27819 1.63992C5.11309 1.64027 4.94799 1.63999 4.7829 1.63902C3.40319 1.6309 3.40319 1.6309 2.2674 2.37299Z" fill="#FF7705"></path>
    <path d="M34.3767 20.6587C35.2146 21.2531 35.678 22.0971 35.9998 23.0625C36.125 23.0627 36.125 23.0627 36.2529 23.0629C37.0405 23.0646 37.8281 23.0685 38.6157 23.0749C39.0207 23.0781 39.4255 23.0804 39.8305 23.0808C40.2214 23.0812 40.6122 23.0839 41.003 23.0881C41.1521 23.0893 41.3011 23.0897 41.4501 23.0893C41.6591 23.0889 41.8679 23.0913 42.0769 23.0944C42.2552 23.0954 42.2552 23.0954 42.4371 23.0963C42.8307 23.1718 42.9703 23.3172 43.2185 23.625C43.3161 23.9697 43.2659 24.287 43.0955 24.6035C42.7773 24.8981 42.4253 24.8579 42.0131 24.863C41.9481 24.8639 41.8831 24.8648 41.8162 24.8658C41.6016 24.8688 41.3871 24.8711 41.1725 24.8734C41.0236 24.8753 40.8748 24.8773 40.726 24.8793C40.3344 24.8845 39.9427 24.8891 39.5511 24.8936C39.1514 24.8983 38.7518 24.9036 38.3521 24.9087C37.568 24.9188 36.7839 24.9283 35.9998 24.9375C35.969 25.014 35.9382 25.0905 35.9065 25.1694C35.8654 25.2701 35.8242 25.3709 35.7819 25.4747C35.7414 25.5744 35.701 25.6742 35.6593 25.7769C35.2104 26.7761 34.4189 27.4176 33.4322 27.8489C32.4911 28.1893 31.3279 28.1613 30.411 27.7679C29.2952 27.2109 28.5921 26.485 28.1248 25.3125C28.0915 25.1566 28.06 25.0004 28.031 24.8437C27.8555 24.8444 27.8555 24.8444 27.6765 24.845C24.9005 24.8552 22.1244 24.8629 19.3484 24.8677C19.0068 24.8683 18.6652 24.8689 18.3236 24.8695C18.2555 24.8696 18.1875 24.8697 18.1175 24.8699C17.0159 24.8719 15.9144 24.8756 14.8129 24.8799C13.6829 24.8843 12.5528 24.8869 11.4228 24.8878C10.7879 24.8884 10.1531 24.8898 9.51831 24.8933C8.92111 24.8965 8.32394 24.8975 7.72673 24.8968C7.50727 24.8969 7.2878 24.8978 7.06834 24.8996C6.76918 24.9019 6.47016 24.9014 6.17099 24.9001C6.08372 24.9015 5.99644 24.9028 5.90652 24.9042C5.48114 24.8993 5.30664 24.8883 4.96169 24.6179C4.78723 24.3833 4.71664 24.2863 4.72241 24C4.7212 23.94 4.72 23.8801 4.71875 23.8183C4.82216 23.4972 4.98514 23.3637 5.24976 23.1562C5.55675 23.0878 5.85754 23.095 6.17099 23.0999C6.26442 23.0995 6.35785 23.0991 6.45411 23.0987C6.76752 23.0979 7.08082 23.1005 7.39422 23.103C7.61873 23.1032 7.84324 23.1031 8.06775 23.1028C8.61434 23.1027 9.16088 23.1047 9.70745 23.1077C10.3435 23.1111 10.9795 23.1118 11.6156 23.1123C12.7498 23.1133 13.8841 23.1164 15.0183 23.1209C16.1201 23.1252 17.2218 23.1285 18.3236 23.1305C18.3915 23.1306 18.4594 23.1307 18.5294 23.1309C18.8701 23.1315 19.2109 23.1321 19.5517 23.1326C22.3781 23.1375 25.2046 23.1458 28.031 23.1562C28.0499 23.0915 28.0687 23.0267 28.0882 22.9599C28.1256 22.8328 28.1256 22.8328 28.1639 22.7031C28.1885 22.619 28.2132 22.5349 28.2386 22.4482C28.5007 21.6315 29.188 20.8656 29.9305 20.4565C31.4337 19.7496 32.9549 19.7434 34.3767 20.6587ZM30.0382 22.6721C29.6711 23.2355 29.5671 23.7659 29.6658 24.4299C29.8382 25.1699 30.2311 25.6249 30.8435 26.0625C31.4241 26.3958 31.9891 26.4347 32.6376 26.3031C33.2333 26.1146 33.7163 25.7296 34.0676 25.2154C34.398 24.5745 34.4478 23.8638 34.2295 23.1771C33.9268 22.5107 33.5025 22.056 32.8298 21.7617C31.7308 21.4102 30.7467 21.7777 30.0382 22.6721Z" fill="#FF7705"></path>
    <path d="M14.126 8.48177C15.0126 9.05174 15.6525 9.85379 15.9373 10.875C15.9373 10.9678 15.9373 11.0606 15.9373 11.1562C16.0221 11.1559 16.0221 11.1559 16.1086 11.1557C19.4593 11.1452 22.8099 11.1371 26.1606 11.1323C26.5627 11.1317 26.9649 11.1311 27.367 11.1305C27.4871 11.1303 27.4871 11.1303 27.6097 11.1301C28.9067 11.128 30.2037 11.1243 31.5007 11.12C32.8312 11.1157 34.1617 11.1131 35.4922 11.1121C36.3135 11.1115 37.1347 11.1094 37.9559 11.1056C38.5188 11.1031 39.0816 11.1024 39.6445 11.103C39.9694 11.1033 40.2943 11.1028 40.6192 11.1003C40.9714 11.098 41.3234 11.0986 41.6755 11.0998C41.7784 11.0985 41.8814 11.0971 41.9875 11.0957C42.6789 11.1025 42.6789 11.1025 43.0478 11.3818C43.3103 11.7558 43.2755 11.9262 43.2185 12.375C43.0551 12.6783 42.9868 12.7335 42.656 12.8437C42.5056 12.8522 42.3548 12.8553 42.2041 12.8552C42.1105 12.8554 42.0169 12.8556 41.9204 12.8558C41.8172 12.8555 41.7141 12.8553 41.6078 12.855C41.4438 12.8551 41.4438 12.8551 41.2765 12.8552C40.9725 12.8554 40.6685 12.8551 40.3645 12.8546C40.0368 12.8542 39.7092 12.8543 39.3815 12.8544C38.8137 12.8544 38.2459 12.8541 37.6781 12.8536C36.8571 12.8529 36.0361 12.8526 35.2151 12.8525C33.8832 12.8523 32.5512 12.8517 31.2193 12.8508C29.9253 12.8499 28.6313 12.8493 27.3373 12.8489C27.2576 12.8488 27.1778 12.8488 27.0957 12.8488C26.6957 12.8487 26.2957 12.8485 25.8957 12.8484C22.5762 12.8475 19.2567 12.8458 15.9373 12.8437C15.9253 12.9013 15.9133 12.9589 15.901 13.0183C15.8767 13.1319 15.8767 13.1319 15.852 13.2478C15.8361 13.3228 15.8203 13.3978 15.804 13.4751C15.6054 14.2527 14.9915 14.9286 14.3435 15.375C13.2749 16.005 12.1549 16.2072 10.9352 15.9701C9.85701 15.6451 9.04548 15.007 8.43726 14.0625C8.23667 13.6624 8.06226 13.2952 8.06226 12.8437C7.93814 12.8474 7.93814 12.8474 7.81152 12.8511C7.50312 12.8592 7.19484 12.865 6.88638 12.8695C6.75315 12.8718 6.61993 12.875 6.48675 12.8791C6.29472 12.8848 6.10286 12.8874 5.91077 12.8895C5.73771 12.8932 5.73771 12.8932 5.56115 12.8969C5.16482 12.8292 5.03003 12.683 4.78101 12.375C4.71875 12.1816 4.71875 12.1816 4.72241 12C4.7212 11.94 4.72 11.8801 4.71875 11.8183C4.81886 11.5074 5.00094 11.3623 5.24976 11.1562C5.56115 11.103 5.56115 11.103 5.91077 11.1104C5.97253 11.1111 6.03429 11.1118 6.09793 11.1124C6.29383 11.1151 6.48948 11.1209 6.6853 11.1269C6.81866 11.1293 6.95202 11.1314 7.08539 11.1333C7.41109 11.1385 7.73665 11.1465 8.06226 11.1562C8.07239 11.1014 8.08253 11.0466 8.09297 10.9902C8.29185 9.99906 8.81864 9.20178 9.65601 8.62496C11.0747 7.78847 12.6699 7.68158 14.126 8.48177ZM10.2185 10.4062C9.72741 11.0517 9.55698 11.6669 9.65601 12.4687C9.88779 13.2238 10.2808 13.7573 10.9685 14.1562C11.5164 14.4053 12.1187 14.4476 12.6967 14.276C13.3963 13.9845 13.857 13.622 14.1783 12.925C14.4283 12.3124 14.4434 11.6998 14.1853 11.0859C13.7906 10.3062 13.2907 9.93027 12.4685 9.65621C11.5983 9.56039 10.8533 9.78955 10.2185 10.4062Z" fill="#FF7705"></path>
    <path d="M24.1873 32.8125C24.795 33.3161 25.2248 33.912 25.4661 34.6648C25.4903 34.7396 25.5145 34.8144 25.5394 34.8915C25.5662 34.9761 25.5662 34.9761 25.5935 35.0625C25.7255 35.0625 25.7255 35.0625 25.8601 35.0626C28.0001 35.064 30.14 35.068 32.2799 35.0749C33.3148 35.0781 34.3496 35.0805 35.3845 35.0808C36.2863 35.0811 37.1882 35.083 38.0901 35.0869C38.5677 35.0889 39.0453 35.0901 39.5229 35.0893C39.9724 35.0886 40.4218 35.0901 40.8713 35.0932C41.0363 35.094 41.2014 35.094 41.3664 35.0931C41.5917 35.092 41.8168 35.0938 42.0421 35.0963C42.1075 35.0953 42.1728 35.0943 42.2402 35.0933C42.6004 35.1007 42.7424 35.1502 43.0249 35.3821C43.2167 35.6227 43.2797 35.7064 43.2654 36.0058C43.2199 36.3636 43.1973 36.5092 42.9373 36.75C42.6097 36.8592 42.3152 36.8581 41.9744 36.8586C41.8696 36.8592 41.8696 36.8592 41.7626 36.86C41.5276 36.8614 41.2927 36.8622 41.0578 36.863C40.8896 36.8639 40.7215 36.8648 40.5534 36.8658C40.0963 36.8683 39.6392 36.8703 39.1821 36.8722C38.7046 36.8742 38.2272 36.8768 37.7497 36.8793C36.8453 36.884 35.9408 36.8882 35.0364 36.8922C34.0069 36.8969 32.9773 36.902 31.9478 36.9072C29.8297 36.9179 27.7116 36.9279 25.5935 36.9375C25.5582 37.0414 25.5582 37.0414 25.5222 37.1474C25.4741 37.2849 25.4741 37.2849 25.425 37.4253C25.3938 37.5158 25.3625 37.6064 25.3303 37.6996C24.9057 38.7217 24.0122 39.4178 23.026 39.8488C22.0918 40.1868 20.9232 40.1641 20.0114 39.7745C18.8899 39.1986 18.196 38.4886 17.7185 37.3125C17.6852 37.1566 17.6536 37.0004 17.6248 36.8437C17.5297 36.8444 17.5297 36.8444 17.4328 36.845C15.8914 36.8554 14.35 36.8631 12.8085 36.868C12.0631 36.8704 11.3177 36.8737 10.5723 36.8791C9.92257 36.8838 9.27287 36.8868 8.62314 36.8878C8.27911 36.8884 7.93513 36.8899 7.59112 36.8933C7.20704 36.8971 6.82305 36.8972 6.43896 36.8969C6.32493 36.8986 6.2109 36.9003 6.09341 36.902C5.23544 36.8968 5.23544 36.8968 4.94495 36.6181C4.78792 36.3852 4.71684 36.2764 4.72241 36C4.7212 35.94 4.72 35.8801 4.71875 35.8183C4.81898 35.507 4.9706 35.3175 5.24976 35.1562C5.64562 35.0864 6.03796 35.0971 6.43896 35.103C6.55973 35.1029 6.68049 35.1029 6.80492 35.1028C7.13537 35.1027 7.46573 35.1054 7.79616 35.1087C8.14174 35.1116 8.48732 35.1119 8.83291 35.1125C9.487 35.1139 10.1411 35.1178 10.7951 35.1225C11.5399 35.1277 12.2847 35.1303 13.0295 35.1326C14.5613 35.1375 16.093 35.1458 17.6248 35.1562C17.6436 35.0915 17.6624 35.0267 17.6818 34.96C17.7068 34.8753 17.7317 34.7906 17.7574 34.7033C17.782 34.6192 17.8067 34.5351 17.832 34.4485C17.966 34.0322 18.201 33.7158 18.4685 33.375C18.5135 33.3171 18.5584 33.2592 18.6047 33.1996C20.0472 31.5641 22.5173 31.6148 24.1873 32.8125ZM19.632 34.6655C19.2822 35.2197 19.1502 35.8071 19.2595 36.4541C19.4474 37.1742 19.8274 37.6403 20.4373 38.0625C20.9647 38.3612 21.528 38.4376 22.1248 38.3437C22.8129 38.1215 23.318 37.7257 23.7185 37.125C24.021 36.521 24.0116 35.762 23.8481 35.1145C23.5752 34.4984 23.031 34.0215 22.4177 33.7558C21.3242 33.4162 20.3387 33.7767 19.632 34.6655Z" fill="#FF7705"></path>
  </g>
  <defs>
    <clipPath id="clip0_3698_789">
      <rect width="48" height="48" fill="white"></rect>
    </clipPath>
  </defs>
</svg>
