<?xml version="1.0" encoding="UTF-8"?>
<svg xmlns="http://www.w3.org/2000/svg" width="48" height="48" viewBox="0 0 48 48" fill="none">
  <path d="M42.8507 29.3261C43.5703 29.7699 43.9729 30.3475 44.1914 31.1601C44.3495 32.0429 44.1785 32.8163 43.6875 33.5625C43.2084 34.1784 42.5239 34.6297 41.9095 35.1025C41.7113 35.2557 41.5144 35.4103 41.3177 35.5653C40.3447 36.3305 39.3546 37.0669 38.3437 37.7812C38.2599 37.8405 38.1761 37.8997 38.0898 37.9608C36.9217 38.7845 35.7421 39.5868 34.5375 40.3562C34.3142 40.4988 34.0916 40.6424 33.869 40.786C30.537 42.9248 27.618 44.1692 23.625 44.25C23.4693 44.2538 23.4693 44.2538 23.3105 44.2577C21.1224 44.3048 18.9436 44.1905 16.7591 44.076C15.3448 44.0022 13.9315 43.9374 12.5156 43.9043C12.4432 43.9025 12.3708 43.9008 12.2962 43.899C11.4474 43.8791 10.599 43.8709 9.74997 43.875C9.74951 43.9321 9.74906 43.9892 9.74859 44.048C9.736 44.615 9.5581 44.9066 9.17685 45.316C8.87458 45.577 8.62135 45.6793 8.22275 45.6835C8.14419 45.6847 8.06563 45.6859 7.98468 45.6871C7.9005 45.6873 7.81632 45.6875 7.72958 45.6877C7.59849 45.6887 7.59849 45.6887 7.46476 45.6896C7.27997 45.6906 7.09518 45.691 6.91039 45.691C6.62889 45.6914 6.34754 45.6948 6.06607 45.6983C5.8862 45.6989 5.70633 45.6993 5.52646 45.6994C5.44284 45.7008 5.35923 45.7021 5.27308 45.7035C4.6097 45.6987 4.20023 45.544 3.72067 45.0644C3.3444 44.4652 3.34745 43.8598 3.34922 43.1728C3.3485 43.0277 3.3485 43.0277 3.34777 42.8797C3.34647 42.5612 3.34655 42.2427 3.34677 41.9242C3.3464 41.702 3.346 41.4798 3.34555 41.2577C3.34485 40.7925 3.34488 40.3273 3.34537 39.8621C3.34592 39.2668 3.34433 38.6716 3.34215 38.0763C3.34077 37.6176 3.34069 37.159 3.34098 36.7003C3.34093 36.4808 3.34044 36.2614 3.3395 36.042C3.33834 35.7348 3.33898 35.4277 3.34006 35.1205C3.33935 35.0305 3.33863 34.9404 3.33789 34.8476C3.34369 34.1019 3.48364 33.4538 4.03122 32.9062C4.52435 32.5919 4.94471 32.5825 5.51071 32.5843C5.59806 32.5838 5.6854 32.5833 5.7754 32.5828C5.95946 32.5822 6.14353 32.5824 6.32759 32.5832C6.60846 32.584 6.88916 32.5813 7.17001 32.5783C7.34933 32.5781 7.52865 32.5782 7.70797 32.5785C7.83324 32.5769 7.83324 32.5769 7.96104 32.5753C8.60298 32.5824 8.94004 32.7656 9.41012 33.2109C9.4604 33.2651 9.51067 33.3192 9.56247 33.375C10.3051 33.189 10.9785 32.8855 11.6656 32.5543C15.3887 30.7636 19.3701 29.6181 23.4525 30.9587C24.0787 31.179 24.6632 31.4689 25.2445 31.7875C25.3929 31.8678 25.5439 31.9432 25.6952 32.0182C26.6558 32.5032 27.5484 33.2203 27.9668 34.2363C28.0312 34.5 28.0312 34.5 28.0312 34.875C32.2117 34.5163 36.2065 32.481 39.494 29.952C40.5302 29.1586 41.573 28.6534 42.8507 29.3261ZM40.1543 31.2656C37.2601 33.5232 32.7337 36.1687 28.9394 36.1941C28.1568 36.1673 28.1568 36.1673 27.4442 36.42C27.308 36.5883 27.308 36.5883 27.2017 36.7701C26.9932 37.0932 26.6341 37.2465 26.276 37.3667C25.1228 37.5803 24.1364 37.3554 23.0625 36.9375C21.6592 36.4311 20.1451 35.8878 18.6584 36.3332C18.2882 36.4147 17.9081 36.3889 17.5312 36.375C17.5103 36.2404 17.4911 36.1056 17.4726 35.9707C17.4617 35.8956 17.4509 35.8206 17.4397 35.7433C17.4375 35.5312 17.4375 35.5312 17.625 35.25C19.7033 34.417 21.8325 35.0081 23.8145 35.8126C24.4664 36.0664 25.0801 36.2091 25.7812 36.0937C26.1576 35.901 26.3984 35.7046 26.625 35.3437C26.6849 34.9914 26.647 34.8244 26.4843 34.5058C25.9225 33.8176 25.2541 33.3889 24.4687 32.9883C24.3736 32.9395 24.2785 32.8906 24.1805 32.8404C21.5236 31.508 18.4122 31.4866 15.5932 32.3847C14.8985 32.6258 14.2343 32.9383 13.5705 33.2529C13.0974 33.4767 12.6219 33.6953 12.1465 33.914C12.0511 33.958 11.9558 34.002 11.8576 34.0473C11.2591 34.3218 10.6599 34.5759 10.0404 34.7995C9.84791 34.8581 9.84791 34.8581 9.74997 34.9687C9.74106 35.2026 9.73819 35.4339 9.73932 35.6678C9.73931 35.741 9.7393 35.8142 9.73928 35.8896C9.73935 36.1325 9.74008 36.3755 9.74081 36.6185C9.74099 36.7865 9.74112 36.9545 9.74121 37.1226C9.74157 37.5657 9.74249 38.0088 9.74353 38.4519C9.74449 38.9037 9.74492 39.3555 9.74539 39.8073C9.7464 40.6944 9.748 41.5816 9.74997 42.4687C9.93171 42.4675 9.93171 42.4675 10.1171 42.4662C11.3581 42.4583 12.5943 42.4978 13.834 42.5508C14.0396 42.5592 14.2453 42.5676 14.451 42.576C15.4349 42.6165 16.4185 42.6604 17.4019 42.7104C19.4471 42.814 21.4833 42.882 23.5312 42.8437C23.629 42.8419 23.7268 42.8401 23.8275 42.8382C29.9051 42.6992 34.7866 38.6719 39.4687 35.1562C39.5386 35.1039 39.6084 35.0516 39.6804 34.9977C41.6371 33.7255 41.6371 33.7255 42.832 31.9105C42.8515 31.5403 42.7556 31.2514 42.5625 30.9375C42.2505 30.6407 42.0312 30.4807 41.6015 30.4394C41.0066 30.489 40.6082 30.902 40.1543 31.2656ZM4.96872 34.0312C4.77509 34.3217 4.75774 34.3825 4.75741 34.711C4.75688 34.7922 4.75635 34.8735 4.75581 34.9571C4.75618 35.046 4.75656 35.1348 4.75696 35.2264C4.75663 35.3201 4.7563 35.4139 4.75596 35.5105C4.75513 35.8211 4.75568 36.1317 4.75631 36.4424C4.75619 36.6578 4.75601 36.8732 4.75577 37.0886C4.75549 37.5404 4.7559 37.9921 4.75677 38.4438C4.75784 39.0236 4.75723 39.6034 4.7561 40.1831C4.75543 40.6281 4.75564 41.073 4.75613 41.5179C4.75625 41.7317 4.7561 41.9455 4.75566 42.1593C4.75519 42.4578 4.75591 42.7563 4.75696 43.0548C4.75658 43.1437 4.7562 43.2325 4.75581 43.3241C4.75633 43.4053 4.75686 43.4865 4.75741 43.5702C4.75748 43.6408 4.75755 43.7114 4.75762 43.7841C4.77115 43.9988 4.77115 43.9988 4.96872 44.25C5.22031 44.2762 5.45 44.2849 5.7015 44.2807C5.81002 44.2805 5.81002 44.2805 5.92073 44.2802C6.07369 44.2796 6.22666 44.2783 6.37961 44.2763C6.61459 44.2734 6.84951 44.2725 7.0845 44.2719C7.23288 44.2711 7.38125 44.2701 7.52963 44.269C7.63568 44.2684 7.63568 44.2684 7.74388 44.2678C8.07123 44.2927 8.07123 44.2927 8.34372 44.1562C8.35286 44.0274 8.35556 43.8981 8.35562 43.7689C8.35589 43.6855 8.35615 43.602 8.35642 43.516C8.35623 43.4237 8.35604 43.3314 8.35585 43.2363C8.35601 43.1397 8.35618 43.0431 8.35635 42.9435C8.35676 42.6223 8.35648 42.3011 8.35617 41.9798C8.35623 41.7576 8.35632 41.5354 8.35644 41.3132C8.35658 40.8467 8.35638 40.3802 8.35594 39.9137C8.3554 39.3146 8.35571 38.7155 8.35627 38.1163C8.35661 37.6572 8.35651 37.1981 8.35626 36.7389C8.3562 36.518 8.35628 36.297 8.35649 36.0761C8.35673 35.7676 8.35637 35.4592 8.35585 35.1508C8.35604 35.0587 8.35623 34.9666 8.35642 34.8717C8.35616 34.7879 8.35589 34.7042 8.35562 34.6179C8.35559 34.5449 8.35555 34.4719 8.35552 34.3967C8.3547 34.2105 8.3547 34.2105 8.24997 34.0312C7.7861 34.0243 7.32227 34.0192 6.85837 34.0158C6.70049 34.0144 6.54262 34.0124 6.38476 34.01C6.1581 34.0066 5.93148 34.005 5.7048 34.0038C5.59859 34.0016 5.59859 34.0016 5.49024 33.9994C5.27021 33.996 5.27021 33.996 4.96872 34.0312Z" fill="#FF7705"></path>
  <path d="M30.6699 1.03144C30.7984 1.0271 30.7984 1.0271 30.9294 1.02268C32.8895 0.964174 34.6448 0.915602 36.1751 2.28205C38.233 4.31458 38.233 4.31458 38.2935 5.18759C38.294 5.29683 38.294 5.29683 38.2944 5.40828C38.2949 5.49186 38.2955 5.57544 38.296 5.66155C38.2962 5.79947 38.2962 5.79947 38.2963 5.94018C38.2968 6.03684 38.2973 6.1335 38.2977 6.2331C38.2991 6.55414 38.2997 6.87518 38.3003 7.19623C38.3008 7.41907 38.3013 7.64191 38.3019 7.86475C38.3029 8.33274 38.3034 8.80072 38.3037 9.26871C38.3043 9.86768 38.3065 10.4666 38.3092 11.0656C38.3109 11.5263 38.3114 11.987 38.3116 12.4476C38.3118 12.6684 38.3126 12.8891 38.3138 13.1099C38.3154 13.4193 38.3152 13.7287 38.3146 14.0382C38.3155 14.129 38.3164 14.2198 38.3173 14.3134C38.3134 14.9441 38.245 15.5024 37.8216 16.0014C37.7587 16.0519 37.6957 16.1024 37.6308 16.1545C37.5681 16.2065 37.5054 16.2584 37.4408 16.312C36.0489 17.3004 34.8263 16.635 32.75 16.635C32.7809 19.4503 32.8118 22.2656 32.8437 25.1662C33.1222 24.8878 33.4006 24.6093 33.6875 24.3225C33.9538 24.1893 34.1426 24.1992 34.4375 24.2287C34.7408 24.4282 34.8017 24.5528 34.8769 24.9084C34.7309 25.705 33.8397 26.3409 33.2832 26.8947C33.2072 26.971 33.1313 27.0474 33.053 27.126C32.9804 27.1984 32.9079 27.2709 32.8331 27.3455C32.7676 27.411 32.702 27.4764 32.6345 27.5438C32.4298 27.7335 32.3103 27.7857 32.0351 27.8381C31.2696 27.7247 30.6107 26.7912 30.084 26.2619C30.0076 26.186 29.9313 26.11 29.8527 26.0317C29.7802 25.9592 29.7078 25.8866 29.6331 25.8118C29.5677 25.7463 29.5023 25.6808 29.4349 25.6132C29.2138 25.3747 29.1889 25.2757 29.1582 24.9435C29.1875 24.6037 29.1875 24.6037 29.3398 24.3752C29.5625 24.2287 29.5625 24.2287 29.8203 24.1643C30.3911 24.285 30.7554 24.7654 31.1562 25.1662C31.2026 20.9432 31.2026 20.9432 31.25 16.635C29.8887 16.635 28.5275 16.635 27.125 16.635C26.3927 16.1773 25.9258 15.8817 25.7187 15.0412C25.6909 14.651 25.6921 14.2616 25.693 13.8705C25.6925 13.7527 25.692 13.635 25.6915 13.5137C25.6903 13.1917 25.6902 12.8698 25.6904 12.5479C25.6905 12.2786 25.6901 12.0092 25.6896 11.7399C25.6886 11.1043 25.6886 10.4686 25.6891 9.83291C25.6897 9.17842 25.6885 8.52395 25.6865 7.86946C25.6849 7.30638 25.6843 6.74331 25.6846 6.18023C25.6848 5.84445 25.6846 5.50867 25.6832 5.17288C25.6818 4.79814 25.6827 4.42344 25.6838 4.0487C25.6831 3.93831 25.6824 3.82793 25.6816 3.71421C25.6863 2.98739 25.7347 2.40975 26.2285 1.84003C27.3639 0.870769 29.2308 1.07903 30.6699 1.03144ZM27.125 3.0412C27.0696 3.27286 27.0696 3.27286 27.0786 3.52867C27.0778 3.62724 27.077 3.72582 27.0762 3.82738C27.0773 3.93503 27.0783 4.04267 27.0794 4.15357C27.0791 4.26732 27.0787 4.38107 27.0783 4.49827C27.0778 4.80996 27.0789 5.12156 27.0808 5.43323C27.0824 5.7595 27.0821 6.08576 27.082 6.41203C27.0822 6.95992 27.0838 7.5078 27.0864 8.05569C27.0893 8.68898 27.0903 9.32226 27.0902 9.95556C27.09 10.63 27.0914 11.3044 27.0931 11.9788C27.0935 12.173 27.0936 12.3673 27.0937 12.5615C27.0939 12.9235 27.0957 13.2856 27.0977 13.6476C27.0976 13.7552 27.0976 13.8629 27.0975 13.9738C27.0983 14.0724 27.0991 14.1709 27.0999 14.2725C27.1002 14.3581 27.1005 14.4437 27.1008 14.5318C27.1267 14.7765 27.1806 14.9282 27.3125 15.135C27.6306 15.294 27.993 15.2425 28.343 15.2423C28.4303 15.2426 28.5177 15.243 28.6077 15.2433C28.8975 15.2442 29.1873 15.2444 29.4771 15.2445C29.678 15.2448 29.8788 15.2451 30.0797 15.2454C30.5011 15.246 30.9225 15.2461 31.3439 15.2461C31.8847 15.2461 32.4254 15.2473 32.9662 15.249C33.3811 15.25 33.796 15.2502 34.2109 15.2501C34.4104 15.2503 34.6098 15.2507 34.8092 15.2514C35.0878 15.2523 35.3663 15.252 35.6448 15.2515C35.7277 15.252 35.8105 15.2525 35.8959 15.2531C36.3665 15.252 36.3665 15.252 36.7812 15.0412C36.9059 14.6672 36.8872 14.3089 36.8856 13.9191C36.8856 13.8331 36.8856 13.7471 36.8857 13.6585C36.8856 13.3739 36.8849 13.0893 36.8841 12.8048C36.8839 12.6076 36.8838 12.4104 36.8837 12.2132C36.8834 11.694 36.8824 11.1747 36.8814 10.6555C36.8804 10.1258 36.88 9.59603 36.8795 9.06629C36.8785 8.02668 36.8769 6.98707 36.875 5.94745C36.7884 5.9456 36.7018 5.94374 36.6126 5.94182C36.2913 5.9345 35.97 5.92637 35.6487 5.9177C35.5097 5.91411 35.3707 5.91084 35.2316 5.9079C35.0317 5.90362 34.8318 5.89818 34.6319 5.89252C34.5116 5.88958 34.3914 5.88663 34.2674 5.8836C33.9687 5.8537 33.9687 5.8537 33.6875 5.6662C33.5823 5.35069 33.5742 5.09521 33.5641 4.76276C33.5601 4.64101 33.5562 4.51925 33.5522 4.3938C33.5484 4.2652 33.5447 4.1366 33.541 4.008C33.5369 3.8783 33.5328 3.7486 33.5287 3.6189C33.5188 3.30135 33.5092 2.98378 33.5 2.6662C32.7241 2.65751 31.9483 2.65085 31.1725 2.64678C30.8122 2.64482 30.452 2.64216 30.0917 2.63791C29.744 2.63384 29.3964 2.6316 29.0486 2.63063C28.916 2.62993 28.7834 2.62858 28.6508 2.62656C28.465 2.62383 28.2791 2.62368 28.0933 2.62363C27.9876 2.6228 27.8818 2.62197 27.7728 2.62111C27.4308 2.67763 27.3401 2.77416 27.125 3.0412ZM34.9062 3.69745C34.9062 3.97589 34.9062 4.25433 34.9062 4.5412C35.1847 4.5412 35.4631 4.5412 35.75 4.5412C35.663 4.43679 35.5759 4.33238 35.4863 4.2248C35.4374 4.16607 35.3884 4.10733 35.338 4.04682C35.1798 3.86413 35.1798 3.86413 34.9062 3.69745Z" fill="#FF7705"></path>
  <path d="M14.9882 1.03144C15.1167 1.0271 15.1167 1.0271 15.2478 1.02268C17.2078 0.964174 18.9632 0.915602 20.4935 2.28205C22.5513 4.31458 22.5513 4.31458 22.6119 5.18759C22.6123 5.29683 22.6123 5.29683 22.6127 5.40828C22.6133 5.49186 22.6138 5.57544 22.6144 5.66155C22.6145 5.79947 22.6145 5.79947 22.6147 5.94018C22.6151 6.03684 22.6156 6.1335 22.6161 6.2331C22.6175 6.55414 22.6181 6.87518 22.6186 7.19623C22.6192 7.41907 22.6197 7.64191 22.6202 7.86475C22.6212 8.33274 22.6218 8.80072 22.6221 9.26871C22.6226 9.86768 22.6249 10.4666 22.6275 11.0656C22.6293 11.5263 22.6298 11.987 22.6299 12.4476C22.6302 12.6684 22.6309 12.8891 22.6322 13.1099C22.6338 13.4193 22.6336 13.7287 22.633 14.0382C22.6339 14.129 22.6347 14.2198 22.6356 14.3134C22.6317 14.9441 22.5634 15.5024 22.14 16.0014C22.077 16.0519 22.0141 16.1024 21.9492 16.1545C21.8865 16.2065 21.8237 16.2584 21.7591 16.312C20.3672 17.3004 19.1446 16.635 17.0683 16.635C17.0993 19.4503 17.1302 22.2656 17.1621 25.1662C17.4405 24.8878 17.719 24.6093 18.0058 24.3225C18.2722 24.1893 18.461 24.1992 18.7558 24.2287C19.0591 24.4282 19.1201 24.5528 19.1953 24.9084C19.0492 25.705 18.1581 26.3409 17.6015 26.8947C17.5256 26.971 17.4496 27.0474 17.3714 27.126C17.2988 27.1984 17.2262 27.2709 17.1515 27.3455C17.0859 27.411 17.0204 27.4764 16.9529 27.5438C16.7482 27.7335 16.6286 27.7857 16.3535 27.8381C15.5879 27.7247 14.929 26.7912 14.4023 26.2619C14.326 26.186 14.2497 26.11 14.171 26.0317C14.0986 25.9592 14.0261 25.8866 13.9515 25.8118C13.8861 25.7463 13.8206 25.6808 13.7532 25.6132C13.5322 25.3747 13.5073 25.2757 13.4765 24.9435C13.5058 24.6037 13.5058 24.6037 13.6582 24.3752C13.8808 24.2287 13.8808 24.2287 14.1386 24.1643C14.7095 24.285 15.0737 24.7654 15.4746 25.1662C15.521 20.9432 15.521 20.9432 15.5683 16.635C14.2071 16.635 12.8458 16.635 11.4433 16.635C10.7111 16.1773 10.2442 15.8817 10.0371 15.0412C10.0093 14.651 10.0105 14.2616 10.0113 13.8705C10.0108 13.7527 10.0104 13.635 10.0099 13.5137C10.0086 13.1917 10.0086 12.8698 10.0088 12.5479C10.0089 12.2786 10.0084 12.0092 10.008 11.7399C10.007 11.1043 10.0069 10.4686 10.0075 9.83291C10.008 9.17842 10.0069 8.52395 10.0049 7.86946C10.0032 7.30638 10.0027 6.74331 10.003 6.18023C10.0032 5.84445 10.0029 5.50867 10.0016 5.17288C10.0002 4.79814 10.0011 4.42344 10.0022 4.0487C10.0015 3.93831 10.0007 3.82793 10 3.71421C10.0047 2.98739 10.0531 2.40975 10.5468 1.84003C11.6823 0.870769 13.5491 1.07903 14.9882 1.03144ZM11.4433 3.0412C11.3879 3.27286 11.3879 3.27286 11.397 3.52867C11.3962 3.62724 11.3954 3.72582 11.3946 3.82738C11.3956 3.93503 11.3967 4.04267 11.3978 4.15357C11.3974 4.26732 11.3971 4.38107 11.3967 4.49827C11.3961 4.80996 11.3972 5.12156 11.3991 5.43323C11.4008 5.7595 11.4004 6.08576 11.4004 6.41203C11.4005 6.95992 11.4022 7.5078 11.4047 8.05569C11.4077 8.68898 11.4087 9.32226 11.4085 9.95556C11.4084 10.63 11.4097 11.3044 11.4114 11.9788C11.4118 12.173 11.412 12.3673 11.412 12.5615C11.4123 12.9235 11.4141 13.2856 11.4161 13.6476C11.416 13.7552 11.4159 13.8629 11.4158 13.9738C11.4166 14.0724 11.4174 14.1709 11.4183 14.2725C11.4186 14.3581 11.4189 14.4437 11.4192 14.5318C11.4451 14.7765 11.499 14.9282 11.6308 15.135C11.949 15.294 12.3113 15.2425 12.6613 15.2423C12.7487 15.2426 12.836 15.243 12.926 15.2433C13.2159 15.2442 13.5057 15.2444 13.7955 15.2445C13.9963 15.2448 14.1972 15.2451 14.398 15.2454C14.8194 15.246 15.2408 15.2461 15.6622 15.2461C16.203 15.2461 16.7438 15.2473 17.2846 15.249C17.6995 15.25 18.1144 15.2502 18.5293 15.2501C18.7287 15.2503 18.9281 15.2507 19.1276 15.2514C19.4061 15.2523 19.6846 15.252 19.9632 15.2515C20.0461 15.252 20.1289 15.2525 20.2143 15.2531C20.6848 15.252 20.6848 15.252 21.0996 15.0412C21.2242 14.6672 21.2056 14.3089 21.204 13.9191C21.204 13.8331 21.204 13.7471 21.204 13.6585C21.2039 13.3739 21.2032 13.0893 21.2025 12.8048C21.2023 12.6076 21.2022 12.4104 21.2021 12.2132C21.2017 11.694 21.2008 11.1747 21.1998 10.6555C21.1988 10.1258 21.1984 9.59603 21.1979 9.06629C21.1969 8.02668 21.1953 6.98707 21.1933 5.94745C21.1068 5.9456 21.0202 5.94374 20.931 5.94182C20.6097 5.9345 20.2884 5.92637 19.9671 5.9177C19.8281 5.91411 19.689 5.91084 19.55 5.9079C19.35 5.90362 19.1502 5.89818 18.9503 5.89252C18.83 5.88958 18.7097 5.88663 18.5858 5.8836C18.2871 5.8537 18.2871 5.8537 18.0058 5.6662C17.9007 5.35069 17.8926 5.09521 17.8824 4.76276C17.8785 4.64101 17.8746 4.51925 17.8705 4.3938C17.8668 4.2652 17.8631 4.1366 17.8593 4.008C17.8553 3.8783 17.8512 3.7486 17.8471 3.6189C17.8371 3.30135 17.8275 2.98378 17.8183 2.6662C17.0425 2.65751 16.2667 2.65085 15.4908 2.64678C15.1306 2.64482 14.7703 2.64216 14.4101 2.63791C14.0624 2.63384 13.7147 2.6316 13.367 2.63063C13.2344 2.62993 13.1018 2.62858 12.9692 2.62656C12.7833 2.62383 12.5975 2.62368 12.4117 2.62363C12.3059 2.6228 12.2002 2.62197 12.0912 2.62111C11.7492 2.67763 11.6585 2.77416 11.4433 3.0412ZM19.2246 3.69745C19.2246 3.97589 19.2246 4.25433 19.2246 4.5412C19.503 4.5412 19.7815 4.5412 20.0683 4.5412C19.9813 4.43679 19.8943 4.33238 19.8047 4.2248C19.7557 4.16607 19.7068 4.10733 19.6563 4.04682C19.4981 3.86413 19.4981 3.86413 19.2246 3.69745Z" fill="#FF7705"></path>
  <path d="M29.8936 11.7236C29.9975 11.7227 30.1013 11.7219 30.2083 11.7209C30.3201 11.7215 30.4318 11.7221 30.5469 11.7227C30.662 11.7224 30.7771 11.7221 30.8957 11.7219C31.1391 11.7217 31.3824 11.7222 31.6258 11.7234C31.9986 11.7249 32.3713 11.7234 32.7442 11.7216C32.9805 11.7218 33.2168 11.7221 33.4532 11.7227C33.6207 11.7218 33.6207 11.7218 33.7917 11.7209C33.9475 11.7223 33.9475 11.7223 34.1065 11.7236C34.2434 11.724 34.2434 11.724 34.3832 11.7243C34.6695 11.7666 34.7982 11.835 35 12.0413C35.0641 12.5458 35.0641 12.5458 35 12.7913C34.8047 13.0338 34.6927 13.1529 34.3832 13.2139C34.2918 13.2142 34.2005 13.2145 34.1065 13.2148C34.0026 13.216 33.8987 13.2172 33.7917 13.2184C33.68 13.2176 33.5683 13.2169 33.4532 13.2161C33.2805 13.2166 33.2805 13.2166 33.1043 13.2172C32.861 13.2174 32.6176 13.2167 32.3743 13.2152C32.0014 13.2132 31.6287 13.2151 31.2559 13.2175C31.0196 13.2173 30.7832 13.2168 30.5469 13.2161C30.4352 13.2168 30.3235 13.2176 30.2083 13.2184C30.0525 13.2166 30.0525 13.2166 29.8936 13.2148C29.8023 13.2145 29.711 13.2142 29.6169 13.2139C29.3073 13.1529 29.1954 13.0338 29 12.7913C28.9276 12.5139 28.9627 12.335 29 12.0413C29.2803 11.7549 29.5019 11.7246 29.8936 11.7236Z" fill="#FF7705"></path>
  <path d="M14.2119 11.7236C14.3158 11.7227 14.4197 11.7219 14.5267 11.7209C14.6384 11.7215 14.7502 11.7221 14.8653 11.7227C14.9804 11.7224 15.0955 11.7221 15.2141 11.7219C15.4574 11.7217 15.7008 11.7222 15.9441 11.7234C16.317 11.7249 16.6897 11.7234 17.0625 11.7216C17.2989 11.7218 17.5352 11.7221 17.7715 11.7227C17.9391 11.7218 17.9391 11.7218 18.1101 11.7209C18.2659 11.7223 18.2659 11.7223 18.4248 11.7236C18.5618 11.724 18.5618 11.724 18.7015 11.7243C18.9878 11.7666 19.1165 11.835 19.3184 12.0413C19.3825 12.5458 19.3825 12.5458 19.3184 12.7913C19.1231 13.0338 19.0111 13.1529 18.7015 13.2139C18.6102 13.2142 18.5189 13.2145 18.4248 13.2148C18.321 13.216 18.2171 13.2172 18.1101 13.2184C17.9984 13.2176 17.8866 13.2169 17.7715 13.2161C17.5989 13.2166 17.5989 13.2166 17.4227 13.2172C17.1794 13.2174 16.936 13.2167 16.6927 13.2152C16.3198 13.2132 15.9471 13.2151 15.5743 13.2175C15.3379 13.2173 15.1016 13.2168 14.8653 13.2161C14.7535 13.2168 14.6418 13.2176 14.5267 13.2184C14.3709 13.2166 14.3709 13.2166 14.2119 13.2148C14.1206 13.2145 14.0293 13.2142 13.9353 13.2139C13.6257 13.1529 13.5137 13.0338 13.3184 12.7913C13.246 12.5139 13.2811 12.335 13.3184 12.0413C13.5987 11.7549 13.8203 11.7246 14.2119 11.7236Z" fill="#FF7705"></path>
  <path d="M30.0345 8.18243C30.1306 8.18153 30.2267 8.18063 30.3257 8.1797C30.4812 8.17911 30.4812 8.17911 30.6399 8.1785C30.8 8.17769 30.8 8.17769 30.9633 8.17688C31.1891 8.17599 31.415 8.17538 31.6408 8.17502C31.9863 8.17411 32.3317 8.1712 32.6772 8.16824C32.8965 8.16763 33.1159 8.16714 33.3352 8.16678C33.4386 8.16562 33.5419 8.16446 33.6484 8.16327C33.7934 8.16369 33.7934 8.16369 33.9413 8.16412C34.026 8.16378 34.1107 8.16344 34.198 8.16309C34.5176 8.20905 34.7704 8.34294 35 8.57254C35.0445 9.26166 35.0445 9.26166 34.8904 9.47265C34.6524 9.65452 34.49 9.63948 34.1922 9.64018C34.0842 9.64107 33.9763 9.64195 33.8651 9.64287C33.7485 9.6423 33.6319 9.64173 33.5118 9.64114C33.3921 9.64141 33.2725 9.64168 33.1493 9.64196C32.8961 9.64215 32.643 9.64177 32.3899 9.64046C32.0655 9.63885 31.7411 9.63978 31.4167 9.64146C31.1072 9.64272 30.7978 9.64184 30.4883 9.64114C30.3134 9.642 30.3134 9.642 30.135 9.64287C29.9731 9.64154 29.9731 9.64154 29.8079 9.64018C29.7128 9.63996 29.6177 9.63973 29.5196 9.6395C29.2813 9.60379 29.2813 9.60379 29.1101 9.47224C28.9357 9.23504 28.9616 9.03289 28.9726 8.74795C29 8.57254 29 8.57254 29.1231 8.3909C29.4252 8.20067 29.6874 8.18506 30.0345 8.18243Z" fill="#FF7705"></path>
  <path d="M14.3529 8.18243C14.449 8.18153 14.545 8.18063 14.644 8.1797C14.7996 8.17911 14.7996 8.17911 14.9583 8.1785C15.1183 8.17769 15.1183 8.17769 15.2816 8.17688C15.5075 8.17599 15.7333 8.17538 15.9592 8.17502C16.3047 8.17411 16.6501 8.1712 16.9955 8.16824C17.2149 8.16763 17.4342 8.16714 17.6536 8.16678C17.7569 8.16562 17.8603 8.16446 17.9667 8.16327C18.1117 8.16369 18.1117 8.16369 18.2596 8.16412C18.3444 8.16378 18.4291 8.16344 18.5164 8.16309C18.8359 8.20905 19.0888 8.34294 19.3184 8.57254C19.3629 9.26166 19.3629 9.26166 19.2088 9.47265C18.9708 9.65452 18.8083 9.63948 18.5105 9.64018C18.4026 9.64107 18.2947 9.64195 18.1835 9.64287C18.0669 9.6423 17.9503 9.64173 17.8301 9.64114C17.7105 9.64141 17.5909 9.64168 17.4676 9.64196C17.2145 9.64215 16.9614 9.64177 16.7082 9.64046C16.3838 9.63885 16.0595 9.63978 15.7351 9.64146C15.4256 9.64272 15.1161 9.64184 14.8067 9.64114C14.6318 9.642 14.6318 9.642 14.4533 9.64287C14.2914 9.64154 14.2914 9.64154 14.1263 9.64018C14.0311 9.63996 13.936 9.63973 13.838 9.6395C13.5997 9.60379 13.5997 9.60379 13.4284 9.47224C13.2541 9.23504 13.28 9.03289 13.2909 8.74795C13.3184 8.57254 13.3184 8.57254 13.4414 8.3909C13.7436 8.20067 14.0057 8.18506 14.3529 8.18243Z" fill="#FF7705"></path>
</svg>
