<?xml version="1.0" encoding="UTF-8"?>
<svg xmlns="http://www.w3.org/2000/svg" width="48" height="48" viewBox="0 0 48 48" fill="none">
  <path d="M11.2784 1.58163C11.4007 1.58133 11.523 1.58103 11.6489 1.58072C11.785 1.58085 11.921 1.581 12.057 1.58115C12.2012 1.58098 12.3454 1.58076 12.4897 1.58051C12.8866 1.57994 13.2835 1.57995 13.6805 1.58006C14.1084 1.58008 14.5362 1.57956 14.9641 1.57912C15.8025 1.57834 16.641 1.57808 17.4794 1.57803C18.1607 1.57798 18.842 1.57779 19.5233 1.57749C21.4538 1.57667 23.3843 1.57624 25.3148 1.57631C25.4189 1.57631 25.523 1.57631 25.6303 1.57632C25.7345 1.57632 25.8388 1.57633 25.9462 1.57633C27.6363 1.57637 29.3265 1.57547 31.0166 1.57415C32.751 1.5728 34.4853 1.57216 36.2196 1.57224C37.1938 1.57227 38.1679 1.57201 39.1421 1.571C39.9713 1.57015 40.8006 1.56994 41.6298 1.57058C42.0531 1.57089 42.4764 1.57089 42.8997 1.57008C43.287 1.56934 43.6742 1.56947 44.0615 1.57029C44.2018 1.57044 44.3421 1.57026 44.4824 1.56974C44.6728 1.56908 44.8631 1.56969 45.0535 1.57036C45.1593 1.57034 45.2652 1.57032 45.3742 1.5703C45.7695 1.60308 46.0309 1.68708 46.3125 1.96869C46.426 2.28725 46.4182 2.59879 46.4185 2.93438C46.4189 3.05659 46.4193 3.1788 46.4196 3.30471C46.4196 3.44066 46.4195 3.5766 46.4194 3.71255C46.4196 3.85671 46.4199 4.00087 46.4202 4.14504C46.421 4.5418 46.4212 4.93857 46.4212 5.33533C46.4214 5.763 46.4221 6.19067 46.4228 6.61833C46.424 7.55369 46.4246 8.48904 46.425 9.4244C46.4253 10.0082 46.4257 10.592 46.4261 11.1759C46.4272 12.7917 46.4282 14.4076 46.4285 16.0234C46.4285 16.1269 46.4285 16.2303 46.4286 16.3369C46.4286 16.4405 46.4286 16.5442 46.4286 16.651C46.4287 16.8611 46.4287 17.0712 46.4288 17.2813C46.4288 17.3856 46.4288 17.4898 46.4288 17.5972C46.4292 19.2866 46.4308 20.9761 46.433 22.6656C46.4352 24.3994 46.4364 26.1332 46.4365 27.867C46.4366 28.8408 46.4371 29.8146 46.4388 30.7884C46.4403 31.6174 46.4408 32.4464 46.44 33.2754C46.4396 33.6985 46.4397 34.1216 46.441 34.5447C46.4422 34.9319 46.4421 35.3191 46.441 35.7064C46.4408 35.8465 46.4411 35.9867 46.4419 36.1269C46.4429 36.3173 46.4421 36.5077 46.4411 36.6982C46.4412 36.804 46.4412 36.9098 46.4413 37.0188C46.4009 37.3574 46.3006 37.5841 46.125 37.8749C45.8064 38.0342 45.4432 37.9811 45.0928 37.98C44.9599 37.9801 44.9599 37.9801 44.8243 37.9802C44.5256 37.9804 44.2269 37.9798 43.9282 37.9793C43.7148 37.9793 43.5014 37.9793 43.2881 37.9794C42.7072 37.9794 42.1263 37.9789 41.5454 37.9782C40.939 37.9776 40.3325 37.9776 39.7261 37.9774C38.7076 37.9772 37.6892 37.9766 36.6708 37.9758C35.6217 37.9749 34.5726 37.9742 33.5235 37.9738C33.4265 37.9738 33.4265 37.9738 33.3276 37.9738C33.0033 37.9736 32.6791 37.9735 32.3548 37.9734C29.6636 37.9724 26.9724 37.9708 24.2812 37.9687C24.2821 38.0677 24.2829 38.1667 24.2838 38.2687C24.2914 39.2012 24.297 40.1337 24.3007 41.0663C24.3026 41.5457 24.3053 42.0251 24.3095 42.5045C24.3136 42.9671 24.3158 43.4297 24.3168 43.8923C24.3175 44.0689 24.3189 44.2454 24.3209 44.422C24.3236 44.6692 24.324 44.9162 24.3238 45.1634C24.3258 45.2731 24.3258 45.2731 24.3279 45.3851C24.3254 45.7141 24.3089 45.9006 24.1087 46.1675C23.6959 46.4631 23.2728 46.4196 22.7864 46.4187C22.6996 46.4189 22.6128 46.4192 22.5233 46.4194C22.2312 46.42 21.9391 46.4199 21.6469 46.4198C21.438 46.4201 21.229 46.4204 21.0201 46.4208C20.4516 46.4216 19.8831 46.4218 19.3146 46.4219C18.8405 46.422 18.3664 46.4223 17.8922 46.4226C16.8378 46.4234 15.7834 46.4236 14.729 46.4236C14.6657 46.4236 14.6024 46.4236 14.5372 46.4236C14.4738 46.4236 14.4105 46.4236 14.3452 46.4236C13.3182 46.4235 12.2913 46.4244 11.2644 46.4257C10.2102 46.4271 9.15596 46.4277 8.10176 46.4277C7.5098 46.4276 6.91785 46.4279 6.3259 46.4289C5.76925 46.4298 5.21261 46.4298 4.65596 46.4291C4.45146 46.429 4.24697 46.4292 4.04247 46.4298C3.76368 46.4305 3.48492 46.4301 3.20613 46.4294C3.12488 46.4299 3.04363 46.4303 2.95992 46.4308C2.45444 46.4279 2.06228 46.406 1.68748 46.0312C1.60383 45.7772 1.58195 45.5453 1.58167 45.279C1.58137 45.2044 1.58107 45.1298 1.58076 45.053C1.5809 44.9716 1.58105 44.8902 1.5812 44.8063C1.58098 44.7194 1.58077 44.6325 1.58055 44.543C1.57996 44.2512 1.58004 43.9593 1.58011 43.6675C1.57983 43.4585 1.57951 43.2496 1.57916 43.0406C1.57833 42.4725 1.57811 41.9044 1.57805 41.3363C1.57796 40.8624 1.57762 40.3885 1.57729 39.9146C1.57656 38.8607 1.57628 37.8068 1.57635 36.7529C1.57635 36.6897 1.57636 36.6265 1.57636 36.5613C1.57636 36.498 1.57637 36.4347 1.57637 36.3695C1.57641 35.3432 1.57551 34.3168 1.57419 33.2905C1.57284 32.2367 1.57221 31.1829 1.57228 30.1292C1.5723 29.5375 1.57203 28.9459 1.57104 28.3542C1.57014 27.798 1.57013 27.2417 1.57081 26.6855C1.57091 26.4811 1.57068 26.2768 1.57012 26.0724C1.5694 25.7938 1.56983 25.5153 1.57055 25.2367C1.57007 25.1555 1.56959 25.0743 1.56909 24.9907C1.57139 24.5923 1.57821 24.2614 1.78123 23.9062C2.13585 23.6698 2.41544 23.6936 2.82592 23.6974C2.90368 23.6974 2.98145 23.6974 3.06157 23.6973C3.31876 23.6975 3.57592 23.6989 3.83311 23.7004C4.01137 23.7007 4.18963 23.701 4.36789 23.7012C4.8372 23.7019 5.3065 23.7037 5.7758 23.7058C6.25464 23.7077 6.73348 23.7086 7.21232 23.7095C8.15196 23.7115 9.0916 23.7147 10.0312 23.7187C10.031 23.6074 10.0307 23.4962 10.0304 23.3815C10.0244 20.7414 10.0197 18.1013 10.0169 15.4612C10.0165 15.1364 10.0162 14.8116 10.0158 14.4867C10.0157 14.4221 10.0156 14.3574 10.0156 14.2908C10.0143 13.2432 10.0121 12.1955 10.0095 11.1479C10.0069 10.0733 10.0054 8.99862 10.0048 7.92397C10.0044 7.32022 10.0035 6.71648 10.0015 6.11274C9.99959 5.54486 9.999 4.97699 9.99942 4.40911C9.99934 4.20034 9.99878 3.99157 9.99771 3.7828C9.99631 3.49842 9.99664 3.21408 9.99741 2.92969C9.99659 2.84652 9.99577 2.76335 9.99493 2.67766C9.99734 2.34911 10.0008 2.12267 10.1505 1.8266C10.4782 1.54503 10.8628 1.58189 11.2784 1.58163ZM11.5312 3.18744C11.5312 9.96275 11.5312 16.7381 11.5312 23.7187C15.5561 23.7347 15.5561 23.7347 19.581 23.7466C20.3589 23.7509 20.3589 23.7509 20.7229 23.7533C20.9775 23.7547 21.232 23.7555 21.4866 23.7554C21.872 23.7553 22.2572 23.7582 22.6425 23.7613C22.8131 23.7606 22.8131 23.7606 22.9871 23.7598C23.0907 23.7611 23.1944 23.7624 23.3011 23.7638C23.3914 23.7641 23.4816 23.7645 23.5745 23.7648C23.8894 23.8278 23.9988 23.93 24.1875 24.1874C24.2351 24.4254 24.2351 24.4254 24.2361 24.6988C24.2374 24.8024 24.2387 24.9061 24.2401 25.0128C24.2394 25.1834 24.2394 25.1834 24.2387 25.3574C24.2396 25.4792 24.2406 25.601 24.2416 25.7264C24.2442 26.0556 24.2446 26.3848 24.2445 26.7141C24.2447 27.0231 24.247 27.332 24.2491 27.641C24.254 28.5445 24.2557 29.448 24.2578 30.3515C24.2655 32.3702 24.2733 34.3889 24.2812 36.4687C31.0565 36.4687 37.8319 36.4687 44.8125 36.4687C44.8125 25.4859 44.8125 14.5031 44.8125 3.18744C33.8297 3.18744 22.8469 3.18744 11.5312 3.18744ZM3.18748 25.2187C3.18748 31.6846 3.18748 38.1506 3.18748 44.8124C9.65342 44.8124 16.1194 44.8124 22.7812 44.8124C22.7812 42.554 22.7812 40.2956 22.7812 37.9687C21.8912 37.9652 21.0011 37.9617 20.0841 37.9581C19.5214 37.9552 18.9587 37.9523 18.396 37.9491C17.5022 37.944 16.6084 37.9392 15.7146 37.9362C15.0637 37.9341 14.4129 37.9309 13.762 37.9266C13.4172 37.9244 13.0725 37.9226 12.7278 37.922C12.3432 37.9214 11.9587 37.9185 11.5741 37.9155C11.4021 37.9157 11.4021 37.9157 11.2266 37.9159C11.122 37.9147 11.0175 37.9135 10.9099 37.9123C10.8189 37.9119 10.7279 37.9115 10.6341 37.911C10.4062 37.8749 10.4062 37.8749 10.2365 37.7635C10.0836 37.5307 10.0889 37.3678 10.0876 37.0901C10.0864 36.9856 10.0852 36.881 10.084 36.7734C10.0842 36.6587 10.0843 36.544 10.0844 36.4258C10.083 36.2447 10.083 36.2447 10.0816 36.0599C10.079 35.7287 10.0781 35.3975 10.0775 35.0663C10.0767 34.7202 10.0742 34.3741 10.0719 34.0281C10.0678 33.3726 10.0651 32.7172 10.063 32.0618C10.06 31.1762 10.0548 30.2906 10.0497 29.405C10.0417 28.0095 10.0367 26.6141 10.0312 25.2187C7.77279 25.2187 5.51436 25.2187 3.18748 25.2187ZM11.5312 25.2187C11.5312 28.9312 11.5312 32.6437 11.5312 36.4687C15.2437 36.4687 18.9562 36.4687 22.7812 36.4687C22.7812 32.7562 22.7812 29.0437 22.7812 25.2187C19.0687 25.2187 15.3562 25.2187 11.5312 25.2187Z" fill="#FF7705"></path>
  <path d="M35.3049 7.19157C35.4123 7.19037 35.5196 7.18917 35.6302 7.18794C35.8042 7.18763 35.8042 7.18763 35.9817 7.18731C36.1605 7.18637 36.1605 7.18637 36.3429 7.18542C36.5952 7.18447 36.8476 7.18395 37.0999 7.18406C37.4226 7.18408 37.7453 7.18152 38.068 7.17829C38.3765 7.1757 38.685 7.17581 38.9935 7.17559C39.1669 7.17357 39.1669 7.17357 39.3439 7.17151C39.4518 7.17209 39.5597 7.17266 39.6709 7.17326C39.813 7.17286 39.813 7.17286 39.9579 7.17245C40.2913 7.23168 40.448 7.35862 40.6875 7.5938C40.7833 7.88119 40.7943 8.0804 40.7964 8.38148C40.7973 8.48505 40.7982 8.58863 40.7991 8.69534C40.7997 8.86321 40.7997 8.86321 40.8003 9.03448C40.8009 9.1495 40.8014 9.26452 40.802 9.38302C40.8028 9.62654 40.8035 9.87005 40.8038 10.1136C40.8047 10.4862 40.8076 10.8588 40.8106 11.2314C40.8112 11.4678 40.8117 11.7043 40.8121 11.9407C40.8132 12.0523 40.8144 12.1638 40.8156 12.2787C40.8153 12.3829 40.815 12.487 40.8147 12.5944C40.8152 12.7314 40.8152 12.7314 40.8157 12.8713C40.7746 13.1745 40.6815 13.349 40.5 13.5938C40.1935 13.7471 40.0225 13.7991 39.6856 13.7286C39.4094 13.5569 39.3284 13.4186 39.1875 13.1251C39.1578 12.8773 39.1418 12.6503 39.1396 12.4025C39.1379 12.3345 39.1362 12.2665 39.1345 12.1964C39.1294 11.9806 39.1262 11.7648 39.1231 11.5489C39.12 11.402 39.1167 11.2551 39.1134 11.1081C39.1054 10.7492 39.0992 10.3903 39.0938 10.0313C39.0401 10.0853 38.9864 10.1394 38.9311 10.195C37.6255 11.5089 36.3188 12.8218 35.011 14.1335C34.3786 14.7679 33.7465 15.4026 33.1152 16.0381C32.5651 16.592 32.0143 17.1452 31.4627 17.6976C31.1706 17.9902 30.8789 18.2831 30.5879 18.5768C30.3141 18.8532 30.0394 19.1287 29.764 19.4035C29.6631 19.5046 29.5624 19.606 29.4621 19.7077C29.3252 19.8465 29.1872 19.9841 29.0488 20.1214C28.9333 20.2374 28.9333 20.2374 28.8155 20.3558C28.5741 20.5469 28.4292 20.6009 28.125 20.6251C27.8133 20.5508 27.6864 20.4737 27.4805 20.2266C27.3466 19.8992 27.3774 19.7462 27.4688 19.4063C27.6443 19.1731 27.6443 19.1731 27.8787 18.94C27.9216 18.8967 27.9646 18.8533 28.0089 18.8087C28.1526 18.6642 28.2979 18.5214 28.4433 18.3786C28.5469 18.2752 28.6503 18.1716 28.7537 18.068C29.0343 17.7873 29.3163 17.508 29.5986 17.229C29.8934 16.9371 30.187 16.6438 30.4807 16.3507C31.0369 15.7959 31.5942 15.2424 32.1521 14.6893C32.7871 14.0595 33.4208 13.4283 34.0545 12.797C35.3578 11.4986 36.6627 10.2019 37.9688 8.9063C37.8775 8.90494 37.7863 8.90357 37.6922 8.90216C37.3524 8.89671 37.0126 8.88947 36.6727 8.8817C36.5259 8.87859 36.3791 8.87596 36.2322 8.87383C36.0206 8.87067 35.8091 8.86576 35.5976 8.86053C35.4997 8.85963 35.4997 8.85963 35.3998 8.85871C34.9936 8.84653 34.7265 8.78588 34.4063 8.5313C34.2657 8.2149 34.2657 8.2149 34.2188 7.87505C34.4463 7.33627 34.7402 7.19584 35.3049 7.19157Z" fill="#FF7705"></path>
</svg>
