<?xml version="1.0" encoding="UTF-8"?>
<svg xmlns="http://www.w3.org/2000/svg" width="48" height="48" viewBox="0 0 48 48" fill="none">
  <path fill-rule="evenodd" clip-rule="evenodd" d="M29.3056 40.8167H18.6932L17.2929 43.6888H30.7065L29.3056 40.8167ZM13.2873 45.143H34.7115C35.4903 45.143 36.1279 45.7859 36.1279 46.5712C36.1279 47.3571 35.4903 48 34.7115 48H13.2873C12.5085 48 11.871 47.3571 11.871 46.5712C11.871 45.7859 12.5085 45.143 13.2873 45.143ZM16.8983 30.3592H19.4347C19.5858 30.3592 19.7087 30.4836 19.7087 30.6358V35.524C19.7087 35.6762 19.5858 35.8001 19.4347 35.8001H16.8983C16.7473 35.8001 16.6244 35.6762 16.6244 35.524V30.6358C16.6244 30.4836 16.7473 30.3592 16.8983 30.3592ZM35.2652 13.5986C34.8683 13.5928 34.5518 13.263 34.5582 12.8625C34.5639 12.4621 34.8913 12.1432 35.2882 12.1502L38.0083 12.2017C38.4058 12.2075 38.7223 12.5367 38.7154 12.9372L38.6642 15.6796C38.6585 16.0801 38.3317 16.3989 37.9342 16.3925C37.5374 16.3868 37.2209 16.0569 37.2272 15.6565L37.2467 14.6501C32.5175 18.9961 24.2708 24.2691 18.4451 26.7476C18.0792 26.9027 17.6582 26.7303 17.5031 26.3616C17.3492 25.993 17.5204 25.5682 17.8862 25.412C23.5477 23.0035 31.6249 17.8427 36.2347 13.616L35.2652 13.5986ZM36.8458 18.0719C36.6948 18.0719 36.5713 18.1957 36.5713 18.3479V35.5229C36.5713 35.6751 36.6948 35.7995 36.8458 35.7995H39.3822C39.5327 35.7995 39.6562 35.6751 39.6562 35.5229V18.3479C39.6562 18.1957 39.5327 18.0719 39.3822 18.0719H36.8458ZM31.8587 21.1436C31.7076 21.1436 31.5847 21.268 31.5847 21.4202C31.5847 26.1209 31.5847 30.8222 31.5847 35.5229C31.5847 35.6751 31.7076 35.7995 31.8587 35.7995C32.7041 35.7995 33.5496 35.7995 34.395 35.7995C34.5461 35.7995 34.669 35.6751 34.669 35.5229C34.669 30.8222 34.669 26.1209 34.669 21.4202C34.669 21.268 34.5461 21.1436 34.395 21.1436C33.5496 21.1436 32.7041 21.1436 31.8587 21.1436ZM26.8715 24.2159C26.7205 24.2159 26.5975 24.3397 26.5975 24.4919C26.5975 28.1689 26.5975 31.8459 26.5975 35.5229C26.5975 35.6751 26.7205 35.7995 26.8715 35.7995C27.717 35.7995 28.5624 35.7995 29.4079 35.7995C29.5589 35.7995 29.6818 35.6751 29.6818 35.5229C29.6818 31.8459 29.6818 28.1689 29.6818 24.4919C29.6818 24.3397 29.5589 24.2159 29.4079 24.2159C28.5624 24.2159 27.717 24.2159 26.8715 24.2159ZM21.8855 27.2875C22.731 27.2875 23.5764 27.2875 24.4219 27.2875C24.5729 27.2875 24.6958 27.412 24.6958 27.5641C24.6958 30.2169 24.6958 32.8702 24.6958 35.5229C24.6958 35.6751 24.5729 35.7995 24.4219 35.7995C23.5764 35.7995 22.731 35.7995 21.8855 35.7995C21.7344 35.7995 21.6115 35.6751 21.6115 35.5229C21.6115 32.8702 21.6115 30.2169 21.6115 27.5641C21.6115 27.412 21.7344 27.2875 21.8855 27.2875ZM23.0147 2.24879C22.77 2.00227 22.3703 2.00227 22.1256 2.24879L21.8327 2.5445C20.5116 3.87606 18.2584 2.93396 18.2584 1.05206V0.633087C18.2584 0.285294 17.9758 0 17.6301 0H15.0265C14.6813 0 14.3987 0.285294 14.3987 0.633087V1.05206C14.3987 2.93396 12.1438 3.87606 10.8245 2.5445L10.531 2.24879C10.2869 2.00227 9.88656 2.00227 9.64246 2.24879L7.80164 4.10465C7.55696 4.35117 7.55696 4.75451 7.80164 5.00046L8.09456 5.29617C9.41559 6.62773 8.48111 8.89967 6.61444 8.89967H6.19918C5.85342 8.89967 5.57083 9.18496 5.57083 9.53276V12.1577C5.57083 12.5061 5.85342 12.7908 6.19918 12.7908H6.61444C8.48111 12.7908 9.41559 15.0639 8.09456 16.3943L7.80164 16.69C7.55696 16.9365 7.55696 17.3399 7.80164 17.5858L9.64246 19.4422C9.88656 19.6882 10.2869 19.6882 10.531 19.4422L10.8245 19.1459C12.1449 17.815 14.3987 18.7565 14.3987 20.6384V21.0574C14.3987 21.4057 14.6813 21.6904 15.0265 21.6904H17.6301C17.9758 21.6904 18.2584 21.4057 18.2584 21.0574V20.6384C18.2584 18.7565 20.5128 17.815 21.8327 19.1459L22.1256 19.4422C22.3703 19.6882 22.77 19.6882 23.0147 19.4422L24.8555 17.5858C25.0996 17.3399 25.0996 16.9365 24.8555 16.69L24.562 16.3943C23.2416 15.0627 24.1755 12.7908 26.0421 12.7908H26.458C26.8032 12.7908 27.0857 12.5061 27.0857 12.1577V9.53276C27.0857 9.18496 26.8032 8.89967 26.458 8.89967H26.0421C24.1755 8.89967 23.2416 6.62658 24.562 5.29617L24.8555 5.00046C25.0996 4.75451 25.0996 4.35117 24.8555 4.10465L23.0147 2.24879ZM16.3291 4.89572C13.0702 4.89572 10.4282 7.55942 10.4282 10.8446C10.4282 14.1299 13.0702 16.7936 16.3291 16.7936C19.5875 16.7936 22.2295 14.1299 22.2295 10.8446C22.2295 7.55942 19.5875 4.89572 16.3291 4.89572ZM13.5378 25.8553C13.9358 25.8553 14.2592 26.1811 14.2592 26.5827C14.2592 26.9843 13.9358 27.3101 13.5378 27.3101H8.488C8.08997 27.3101 7.76661 26.9843 7.76661 26.5827C7.76661 26.1811 8.08997 25.8553 8.488 25.8553H13.5378ZM13.5378 32.233C13.9358 32.233 14.2592 32.5588 14.2592 32.9604C14.2592 33.3615 13.9358 33.6873 13.5378 33.6873H8.488C8.08997 33.6873 7.76661 33.3615 7.76661 32.9604C7.76661 32.5588 8.08997 32.233 8.488 32.233H13.5378ZM13.5378 29.0439C13.9358 29.0439 14.2592 29.3697 14.2592 29.7707C14.2592 30.1723 13.9358 30.4981 13.5378 30.4981H8.488C8.08997 30.4981 7.76661 30.1723 7.76661 29.7707C7.76661 29.3697 8.08997 29.0439 8.488 29.0439H13.5378ZM28.4315 8.89967C28.4952 9.09932 28.5285 9.3117 28.5285 9.53276V11.4916H42.4269V36.7699H5.57083V14.1478C4.73514 13.8787 4.12804 13.0888 4.12804 12.1577V9.53276C4.12804 9.37014 4.14642 9.21216 4.18203 9.05939C3.48878 9.36204 3 10.0594 3 10.8661V37.3944C3 38.4765 3.87819 39.3619 4.95167 39.3619H43.0483C44.1218 39.3619 45 38.4765 45 37.3944V10.8661C45 9.78391 44.1218 8.89851 43.0483 8.89851H28.4315V8.89967Z" fill="#FF7705"></path>
</svg>
