<?xml version="1.0" encoding="UTF-8"?>
<svg xmlns="http://www.w3.org/2000/svg" width="48" height="48" viewBox="0 0 48 48" fill="none">
  <path d="M24.2581 2.97075C24.3317 2.97095 24.4052 2.97115 24.481 2.97136C25.6543 2.97651 26.7868 3.03888 27.9378 3.2813C28.0277 3.29942 28.1175 3.31755 28.21 3.33623C33.1736 4.35829 33.1736 4.35829 34.2191 5.7188C34.268 6.09615 34.2522 6.31023 34.0785 6.65044C33.8076 6.87389 33.6483 6.88364 33.3036 6.87408C32.9237 6.81916 32.61 6.64028 32.2738 6.46294C27.8785 4.27244 22.7514 4.02758 18.1058 5.56059C15.1084 6.58862 12.5077 8.22555 10.2191 10.4063C10.1461 10.4743 10.0731 10.5424 9.99789 10.6125C6.84769 13.6342 4.75642 18.3163 4.66549 22.6692C4.58446 28.1693 6.14678 33.5548 10.0272 37.5861C10.1221 37.6827 10.2173 37.779 10.3128 37.875C10.3598 37.9224 10.4067 37.9697 10.4551 38.0185C13.9719 41.5161 19.0395 43.2655 23.9359 43.254C24.0589 43.2539 24.0589 43.2539 24.1845 43.2538C29.4962 43.2387 34.3863 41.1717 38.1372 37.4261C40.7793 34.6582 42.3273 31.1 43.0316 27.375C43.0469 27.2962 43.0623 27.2174 43.0781 27.1362C43.7744 23.4199 43.2907 19.3407 41.6316 15.9339C41.5861 15.8404 41.5861 15.8404 41.5398 15.7451C41.4552 15.5739 41.3679 15.4041 41.2804 15.2344C41.1291 14.8336 41.1191 14.5816 41.1566 14.1563C41.3956 13.8751 41.5437 13.7949 41.9066 13.7344C42.2713 13.7952 42.3906 13.8971 42.6566 14.1563C42.8323 14.4339 42.9703 14.7254 43.1078 15.0235C43.1481 15.11 43.1884 15.1966 43.23 15.2857C44.4814 18.0448 45.0419 20.9546 45.0296 23.9707C45.0294 24.1012 45.0294 24.1012 45.0291 24.2343C45.025 25.4889 44.9883 26.7078 44.7191 27.9375C44.703 28.0159 44.6869 28.0943 44.6703 28.175C43.9364 31.7148 42.3968 34.9493 40.0316 37.6875C39.9585 37.7729 39.8854 37.8582 39.81 37.9461C39.607 38.177 39.3994 38.4019 39.1878 38.625C39.1439 38.6715 39.1 38.718 39.0548 38.7659C38.3102 39.5482 37.5227 40.2312 36.6566 40.875C36.6043 40.9148 36.552 40.9545 36.4981 40.9954C33.0408 43.6205 28.6854 45.0202 24.3636 45.0235C24.2886 45.0235 24.2135 45.0236 24.1362 45.0237C22.8839 45.022 21.6714 44.9479 20.4378 44.7188C20.3526 44.7037 20.2675 44.6886 20.1797 44.6731C16.2684 43.9643 12.5183 42.2626 9.62362 39.5131C9.44594 39.3472 9.26927 39.1917 9.08163 39.0381C8.73003 38.7431 8.45155 38.4126 8.15658 38.0625C8.08709 37.9836 8.0176 37.9047 7.94601 37.8234C5.62847 35.1425 4.14428 31.8296 3.43978 28.3711C3.42598 28.3034 3.41217 28.2357 3.39794 28.1659C3.13864 26.7922 3.05857 25.4302 3.06478 24.0352C3.06509 23.912 3.06509 23.912 3.0654 23.7864C3.07048 22.4962 3.12085 21.2373 3.37533 19.9688C3.40252 19.8312 3.40252 19.8312 3.43026 19.6909C4.20196 15.9176 5.83163 12.4178 8.49643 9.61418C8.72105 9.37913 8.72105 9.37913 8.91574 9.12785C9.1879 8.78975 9.51412 8.53022 9.84408 8.25005C9.93001 8.17355 10.0159 8.09705 10.1045 8.01823C10.9301 7.28955 11.8196 6.68034 12.7503 6.0938C12.806 6.0584 12.8616 6.02301 12.919 5.98654C16.2317 3.90486 20.3735 2.95133 24.2581 2.97075Z" fill="#FF7705"></path>
  <path d="M27.2813 10.0312C27.3462 10.0468 27.4112 10.0624 27.4781 10.0785C30.6107 10.8536 30.6107 10.8536 31.3125 11.9062C31.3572 12.2484 31.3328 12.4282 31.1778 12.7383C30.9036 12.9656 30.7183 13.0206 30.3626 13.0019C29.9372 12.8999 29.5675 12.6915 29.1835 12.4884C27.8207 11.7717 26.2848 11.417 24.75 11.3437C24.6636 11.3388 24.5772 11.3338 24.4882 11.3287C21.2298 11.2318 17.9116 12.4904 15.5156 14.6894C15.3422 14.8539 15.1711 15.0205 15 15.1875C14.9012 15.2776 14.9012 15.2776 14.8004 15.3695C12.6434 17.387 11.4975 20.4183 11.3507 23.3251C11.2499 26.62 12.275 29.7505 14.4375 32.25C14.5338 32.3649 14.5338 32.3649 14.632 32.4822C16.7194 34.9031 19.837 36.3228 22.9915 36.613C26.3193 36.8561 29.5355 35.8816 32.0843 33.708C34.7268 31.3875 36.3668 28.1395 36.6413 24.6269C36.7761 22.3637 36.339 19.821 35.0625 17.9062C35.0122 17.6188 35.0122 17.35 35.0625 17.0625C35.3011 16.7748 35.4459 16.7017 35.8125 16.6406C36.1719 16.7005 36.2991 16.8108 36.5625 17.0625C36.7098 17.2904 36.8211 17.5298 36.9317 17.7773C36.9796 17.8827 36.9796 17.8827 37.0284 17.9902C37.3691 18.7574 37.6496 19.5353 37.875 20.3437C37.9048 20.4486 37.9048 20.4486 37.9352 20.5555C38.9165 24.187 38.1546 28.1771 36.3088 31.3904C35.7244 32.3701 35.0087 33.2128 34.2188 34.0312C34.1448 34.1111 34.0708 34.191 33.9946 34.2733C31.7037 36.6818 28.233 38.1723 24.9254 38.2764C23.594 38.3005 22.3007 38.2652 21 37.9687C20.926 37.9521 20.8521 37.9356 20.7759 37.9185C18.1734 37.3195 15.9115 36.1488 13.9688 34.3125C13.8928 34.2425 13.8167 34.1725 13.7384 34.1004C11.2626 31.7416 9.85441 28.1451 9.75002 24.75C9.74627 24.6383 9.74253 24.5267 9.73867 24.4116C9.67219 20.4546 11.0239 16.7294 13.768 13.8566C17.1201 10.4337 22.6112 8.87818 27.2813 10.0312Z" fill="#FF7705"></path>
  <path d="M39.1874 4.12495C39.4091 4.29999 39.5306 4.43626 39.6562 4.68745C39.684 4.93986 39.7072 5.19097 39.7269 5.44404C39.733 5.51869 39.7391 5.59333 39.7454 5.67024C39.7648 5.90902 39.7838 6.14784 39.8027 6.38667C39.8157 6.54841 39.8289 6.71016 39.842 6.8719C39.8742 7.26872 39.906 7.66557 39.9374 8.06245C40.0372 8.0695 40.137 8.07654 40.2398 8.0838C40.6112 8.11036 40.9824 8.13852 41.3536 8.16716C41.5141 8.17932 41.6746 8.19104 41.8351 8.20232C42.0663 8.21863 42.2973 8.23652 42.5284 8.25471C42.5998 8.25941 42.6712 8.26411 42.7447 8.26895C43.1585 8.30332 43.4494 8.37031 43.7812 8.62495C43.934 8.93062 43.9187 9.12914 43.8749 9.4687C43.3892 10.1854 42.6662 10.7849 42.0538 11.3961C41.9416 11.5083 41.8295 11.6205 41.7174 11.7327C41.4839 11.9663 41.2503 12.1997 41.0165 12.4331C40.7166 12.7324 40.4171 13.0322 40.1178 13.3322C39.8871 13.5632 39.6561 13.7941 39.4251 14.0248C39.3145 14.1354 39.204 14.246 39.0935 14.3567C38.9398 14.5106 38.7858 14.6642 38.6318 14.8177C38.5442 14.9052 38.4567 14.9927 38.3665 15.0828C38.0391 15.3917 37.8551 15.39 37.412 15.3925C37.2895 15.3943 37.1669 15.396 37.0406 15.3978C36.6824 15.3916 36.3568 15.3367 36.007 15.2602C35.2365 15.1115 34.457 14.9766 33.7295 15.3368C33.0269 15.8276 32.448 16.4507 31.8687 17.0774C31.6157 17.3479 31.3548 17.6105 31.0946 17.8741C30.6048 18.3728 30.1224 18.8779 29.6423 19.3859C29.0952 19.964 28.5406 20.5346 27.9852 21.1046C27.3081 21.7995 26.6321 22.4952 25.9624 23.1971C25.9153 23.2465 25.8682 23.2958 25.8196 23.3467C25.5989 23.5779 25.3785 23.8095 25.1585 24.0416C25.0823 24.1216 25.006 24.2017 24.9274 24.2842C24.8279 24.3892 24.8279 24.3892 24.7263 24.4963C24.4733 24.7432 24.3789 24.7496 24.0116 24.7792C23.7346 24.7737 23.6352 24.7561 23.3906 24.6093C23.2318 24.3447 23.1794 24.1333 23.1964 23.8238C23.3867 23.1167 24.2873 22.4971 24.8012 22.0124C24.982 21.8407 25.1626 21.6689 25.3432 21.497C25.4139 21.4299 25.4139 21.4299 25.4859 21.3614C26.1465 20.7328 26.7998 20.0965 27.4535 19.4608C27.9847 18.9446 28.5181 18.4313 29.0575 17.9236C29.5304 17.4784 29.9982 17.0284 30.4607 16.5724C30.7048 16.3321 30.9506 16.0946 31.2029 15.8628C32.4148 14.7854 32.4148 14.7854 32.8894 13.2991C32.8691 12.7573 32.7888 12.2358 32.6775 11.7058C32.6065 11.3432 32.5868 10.992 32.5722 10.623C32.5663 10.524 32.5603 10.425 32.5542 10.3231C32.7625 9.46322 33.8278 8.72086 34.4461 8.10383C34.5582 7.99164 34.6703 7.87943 34.7824 7.76721C35.0159 7.5336 35.2496 7.30016 35.4833 7.06684C35.7832 6.76746 36.0827 6.46766 36.3821 6.16774C36.6128 5.93668 36.8438 5.70584 37.0748 5.47506C37.1854 5.36452 37.2959 5.25392 37.4064 5.14324C37.56 4.98932 37.714 4.8357 37.8681 4.68216C37.9556 4.5947 38.0432 4.50723 38.1334 4.41712C38.4799 4.09019 38.7144 4.08417 39.1874 4.12495ZM38.0624 6.74995C37.5535 7.2107 37.0505 7.67721 36.5541 8.15143C36.3232 8.3716 36.0909 8.58949 35.8538 8.80295C34.687 9.78161 34.687 9.78161 34.1165 11.1246C34.1172 11.5444 34.1774 11.9441 34.2679 12.3533C34.3278 12.6345 34.347 12.9146 34.3652 13.2011C34.3784 13.332 34.3918 13.4629 34.4062 13.5937C34.7655 13.6255 35.1249 13.6565 35.4843 13.6874C35.5853 13.6964 35.6864 13.7053 35.7905 13.7145C35.8896 13.723 35.9886 13.7315 36.0907 13.7402C36.2262 13.752 36.2262 13.752 36.3645 13.764C36.4607 13.7697 36.557 13.7753 36.6562 13.7812C36.831 13.8085 36.831 13.8085 37.0094 13.8363C37.4961 13.8311 37.7492 13.5234 38.0772 13.1952C38.1574 13.1111 38.2376 13.027 38.3202 12.9404C38.4045 12.8551 38.4887 12.7697 38.5756 12.6818C38.7983 12.4556 39.0192 12.228 39.2395 11.9994C39.465 11.7662 39.6927 11.5351 39.9202 11.3038C40.3655 10.8503 40.8085 10.3947 41.2499 9.93745C41.0181 9.70564 40.9299 9.72027 40.6094 9.70051C40.5191 9.69392 40.4288 9.68734 40.3357 9.68055C40.1455 9.66829 39.9553 9.65633 39.7651 9.64466C38.8518 9.57712 38.8518 9.57712 38.5312 9.2812C38.4477 9.07429 38.4477 9.07429 38.414 8.83003C38.4009 8.73963 38.3879 8.64924 38.3744 8.5561C38.3293 8.10698 38.3019 7.65752 38.2822 7.20661C38.2766 6.92552 38.2766 6.92552 38.0624 6.74995Z" fill="#FF7705"></path>
  <path d="M26.7189 16.9688C26.9497 17.315 26.9695 17.5982 26.9064 18C26.7658 18.2344 26.7658 18.2344 26.5314 18.375C26.0577 18.4224 25.7016 18.3605 25.2412 18.2362C23.7776 17.8965 22.2505 18.1837 20.9643 18.9353C19.5586 19.8335 18.6575 21.1001 18.2261 22.7058C17.9815 24.3782 18.2488 25.9303 19.1251 27.375C19.3837 27.714 19.663 28.016 19.9689 28.3125C20.0217 28.3662 20.0745 28.4198 20.1289 28.4751C21.1469 29.4361 22.6319 29.8191 24.0001 29.8594C25.6753 29.8101 27.1273 29.2315 28.3126 28.0313C28.3655 27.9805 28.4183 27.9298 28.4727 27.8775C29.6316 26.6666 29.8586 25.031 29.8408 23.4331C29.8258 23.0043 29.7395 22.6315 29.6251 22.2188C29.5736 21.852 29.5694 21.5617 29.7658 21.2344C30.097 21.0357 30.3734 21.0192 30.7501 21.0938C31.1486 21.3523 31.2829 21.7768 31.4064 22.2188C31.8207 24.4179 31.4205 26.5013 30.2169 28.3707C30.0606 28.5816 29.896 28.775 29.7189 28.9688C29.6438 29.0524 29.5688 29.136 29.4915 29.2222C28.6014 30.1651 27.5662 30.7868 26.3439 31.2188C26.2643 31.2487 26.1846 31.2787 26.1026 31.3096C24.2582 31.8912 22.0907 31.5521 20.4016 30.6757C18.5979 29.6914 17.4317 28.2684 16.7748 26.3288C16.1729 24.2045 16.4535 22.0332 17.4728 20.0918C17.7327 19.6426 18.0401 19.2394 18.3751 18.8438C18.4219 18.7879 18.4687 18.7321 18.5169 18.6746C20.3009 16.7243 24.3099 15.5378 26.7189 16.9688Z" fill="#FF7705"></path>
</svg>
