<?xml version="1.0" encoding="UTF-8"?>
<svg xmlns="http://www.w3.org/2000/svg" width="48" height="48" viewBox="0 0 48 48" fill="none">
  <path d="M4.37974 23.5761C4.6396 23.5781 4.89922 23.5761 5.15908 23.5737C6.18538 23.572 7.0615 23.5885 7.86282 24.3046C8.22038 24.6969 8.53078 25.1452 8.53078 25.6875C8.64571 25.6455 8.76064 25.6036 8.87905 25.5604C11.0801 24.7786 13.9518 23.927 16.2428 24.8137C16.9239 25.1421 17.5236 25.4819 18.0757 26.0039C18.5826 26.4782 19.1414 26.8109 19.7406 27.1516C19.9995 27.299 20.2573 27.4482 20.515 27.5976C21.0376 27.9002 21.561 28.2016 22.0845 28.5026C22.3962 28.6819 22.7077 28.8615 23.0192 29.0412C23.1193 29.0989 23.2194 29.1567 23.3225 29.2162C23.5236 29.3323 23.7247 29.4486 23.9257 29.565C24.3952 29.8366 24.8653 30.1069 25.3387 30.3717C25.5045 30.4645 25.6699 30.5578 25.8354 30.6513C26.0416 30.7676 26.2483 30.883 26.4557 30.9973C27.2774 31.4629 28.1245 32.0164 28.5523 32.8886C28.5949 32.9724 28.6376 33.0561 28.6815 33.1424C28.8761 33.5983 28.8889 34.0073 28.8863 34.5C28.8866 34.5667 28.887 34.6334 28.8874 34.7021C28.8867 35.0259 28.8675 35.3136 28.7808 35.625C28.8573 35.6047 28.9339 35.5844 29.0128 35.5636C30.274 35.2387 31.5477 34.9732 32.8217 34.7039C33.1499 34.6344 33.4781 34.5647 33.8063 34.4949C34.3559 34.3782 34.9055 34.2617 35.4551 34.1453C36.2297 33.9813 37.0042 33.817 37.7787 33.6526C38.8739 33.4201 39.9693 33.1878 41.0647 32.9558C41.172 32.933 41.2792 32.9103 41.3898 32.8868C41.4884 32.866 41.5871 32.8451 41.6888 32.8236C41.7742 32.8055 41.8596 32.7874 41.9476 32.7687C42.0266 32.7522 42.1056 32.7357 42.187 32.7187C42.267 32.7016 42.3469 32.6845 42.4293 32.6669C43.4933 32.4699 44.6174 32.5495 45.562 33.0937C46.3896 33.6784 46.986 34.4523 47.2495 35.4375C47.378 36.5991 47.2679 37.6426 46.5698 38.6074C45.6723 39.6768 44.4849 39.997 43.1802 40.3396C43.034 40.3785 42.8878 40.4175 42.7416 40.4566C42.4262 40.5408 42.1106 40.6245 41.795 40.7079C41.2883 40.8418 40.7819 40.9767 40.2755 41.1117C39.7349 41.2557 39.1943 41.3997 38.6535 41.5434C37.2863 41.9066 35.9197 42.272 34.5534 42.6386C34.454 42.6653 34.3547 42.6919 34.2523 42.7194C33.7539 42.8531 33.2556 42.9869 32.7572 43.1206C32.2825 43.248 31.8077 43.3754 31.3329 43.5027C31.1502 43.5517 30.9675 43.6007 30.7847 43.6497C30.3377 43.7696 29.8905 43.8893 29.4432 44.0083C28.6211 44.2272 27.7999 44.4485 26.9809 44.6787C26.6 44.7855 26.2186 44.8909 25.8372 44.9961C25.6578 45.046 25.4786 45.0967 25.2997 45.1481C21.9467 46.1112 19.4683 44.7367 16.5603 43.1389C16.1319 42.9017 15.7079 42.6576 15.2847 42.4113C13.1258 41.1572 11.0518 40.1692 8.53078 40.0312C8.52728 40.0856 8.52378 40.14 8.52016 40.196C8.46235 40.883 8.27093 41.4032 7.78078 41.9062C7.30052 42.2156 6.84703 42.4784 6.2657 42.4838C6.18744 42.4847 6.10917 42.4856 6.02853 42.4865C5.94416 42.4869 5.85978 42.4873 5.77285 42.4877C5.68555 42.4883 5.59825 42.4888 5.5083 42.4894C5.32335 42.4903 5.13839 42.4909 4.95343 42.4912C4.67216 42.4921 4.39096 42.495 4.1097 42.498C3.92971 42.4986 3.74972 42.4991 3.56973 42.4995C3.4863 42.5006 3.40287 42.5018 3.31692 42.503C2.57437 42.5004 1.92717 42.3331 1.3801 41.8031C0.686267 41.0392 0.682311 40.1674 0.690369 39.1902C0.689887 39.0407 0.689203 38.8912 0.688336 38.7417C0.686609 38.3383 0.687808 37.9348 0.689657 37.5314C0.6912 37.1079 0.690366 36.6845 0.68989 36.2611C0.689467 35.5504 0.690949 34.8397 0.693573 34.1291C0.69658 33.3086 0.696576 32.4882 0.69496 31.6678C0.69347 30.8767 0.694105 30.0856 0.695704 29.2945C0.696346 28.9586 0.696252 28.6228 0.695559 28.2869C0.694838 27.8912 0.695984 27.4955 0.698544 27.0998C0.699188 26.955 0.699202 26.8102 0.698524 26.6654C0.69471 25.7429 0.734085 24.9984 1.4175 24.3046C2.28792 23.5313 3.27468 23.5659 4.37974 23.5761ZM2.53079 25.5C2.16115 26.1267 2.20977 26.7762 2.21314 27.4854C2.21276 27.6202 2.21226 27.755 2.21165 27.8898C2.21037 28.2545 2.21086 28.6192 2.21176 28.984C2.21247 29.3664 2.21181 29.7488 2.21137 30.1313C2.21086 30.7734 2.21153 31.4155 2.21287 32.0576C2.2144 32.7991 2.2139 33.5405 2.21235 34.282C2.21108 34.9196 2.2109 35.5572 2.21163 36.1948C2.21207 36.5752 2.21213 36.9555 2.2112 37.3359C2.21039 37.6936 2.21096 38.0512 2.21258 38.4089C2.21295 38.5398 2.21285 38.6708 2.21222 38.8017C2.19327 39.8651 2.19327 39.8651 2.68718 40.7728C3.0129 40.925 3.33217 40.9169 3.68472 40.9156C3.76007 40.9161 3.83542 40.9166 3.91305 40.9171C4.07214 40.9177 4.23124 40.9176 4.39034 40.9168C4.63317 40.916 4.8758 40.9187 5.11861 40.9216C5.27346 40.9218 5.42831 40.9217 5.58315 40.9215C5.69157 40.923 5.69157 40.923 5.80218 40.9247C6.15311 40.9201 6.35448 40.8878 6.65251 40.6963C6.9635 40.3762 6.94931 40.1793 6.95146 39.7414C6.95227 39.6195 6.95308 39.4977 6.95391 39.3722C6.95432 39.2363 6.95473 39.1005 6.95512 38.9647C6.95586 38.8223 6.95663 38.6798 6.95744 38.5374C6.9599 38.0689 6.96133 37.6004 6.96267 37.1319C6.96317 36.9707 6.96368 36.8096 6.96418 36.6484C6.96621 35.9781 6.96797 35.3077 6.96902 34.6374C6.97054 33.6762 6.97366 32.715 6.979 31.7538C6.98262 31.0782 6.98446 30.4026 6.98495 29.7271C6.98529 29.3234 6.98642 28.9198 6.98946 28.5162C6.99228 28.1364 6.99287 27.7567 6.99177 27.3769C6.99175 27.2376 6.99253 27.0983 6.99417 26.9589C6.9963 26.7686 6.99525 26.5783 6.99404 26.388C6.99435 26.2815 6.99466 26.175 6.99498 26.0653C6.9189 25.6923 6.75619 25.5526 6.46829 25.3125C6.1803 25.1685 5.87731 25.2015 5.56118 25.1997C5.48973 25.1991 5.41827 25.1986 5.34465 25.198C5.19327 25.1972 5.04188 25.1965 4.89049 25.1962C4.65961 25.1953 4.42882 25.1924 4.19796 25.1894C4.05081 25.1888 3.90365 25.1883 3.75649 25.1879C3.68773 25.1868 3.61896 25.1856 3.54811 25.1844C3.12906 25.1862 2.84964 25.2199 2.53079 25.5ZM8.53078 27.375C8.53078 31.0256 8.53078 34.6762 8.53078 38.4375C9.02578 38.4684 9.52078 38.4993 10.0308 38.5312C11.596 38.7839 13.0302 39.3842 14.4266 40.1151C14.6303 40.2217 14.8347 40.327 15.0391 40.4322C15.8641 40.8593 16.6765 41.3061 17.4839 41.7656C20.5959 43.6775 20.5959 43.6775 24.1084 43.8022C24.1975 43.7774 24.2865 43.7526 24.3782 43.727C24.4761 43.701 24.574 43.6749 24.6749 43.6481C25.0009 43.561 25.3264 43.4719 25.6519 43.3828C25.8884 43.3192 26.1249 43.2557 26.3614 43.1923C26.9372 43.0378 27.5126 42.8819 28.0878 42.7253C28.8201 42.5261 29.5528 42.3284 30.2855 42.1307C31.131 41.9025 31.9764 41.674 32.8216 41.4445C34.4205 41.0106 36.0206 40.5814 37.6224 40.1584C37.9152 40.081 38.2079 40.0036 38.5006 39.9261C38.5967 39.9007 38.6927 39.8753 38.7916 39.8491C38.9847 39.798 39.1778 39.7468 39.3709 39.6957C39.9386 39.5455 40.5064 39.3961 41.0744 39.2472C41.4286 39.1541 41.7826 39.0604 42.1365 38.9665C42.3014 38.923 42.4663 38.8797 42.6313 38.8367C42.8586 38.7775 43.0855 38.7173 43.3124 38.6568C43.3778 38.6401 43.4431 38.6233 43.5104 38.6061C44.1381 38.4366 44.7516 38.2052 45.1753 37.6933C45.2273 37.6325 45.2792 37.5717 45.3328 37.5091C45.7195 36.9478 45.7228 36.3797 45.6558 35.7187C45.4907 35.0908 45.0788 34.7267 44.5308 34.4062C43.6252 33.981 42.5616 34.2409 41.6255 34.4478C41.5103 34.4722 41.3952 34.4966 41.2765 34.5217C40.9635 34.5883 40.6508 34.6559 40.3382 34.7241C40.006 34.7962 39.6734 34.8669 39.341 34.9377C38.7089 35.0726 38.0771 35.2088 37.4453 35.3454C36.6707 35.5129 35.8958 35.6788 35.1208 35.8447C34.3061 36.0191 33.4914 36.1937 32.6768 36.3693C31.5544 36.6112 30.432 36.8528 29.3077 37.0861C29.18 37.1127 29.18 37.1127 29.0497 37.1398C28.6746 37.2177 28.2995 37.2952 27.924 37.3715C27.2862 37.5027 26.6766 37.6591 26.062 37.875C25.7288 37.9156 25.7288 37.9156 25.4175 37.916C25.2641 37.9187 25.2641 37.9187 25.1077 37.9215C24.135 37.7951 23.3148 37.2978 22.482 36.8085C22.3665 36.7415 22.251 36.6746 22.1355 36.6077C21.8432 36.4383 21.5514 36.2679 21.2598 36.0973C21.0051 35.9484 20.7498 35.8004 20.4945 35.6524C20.1251 35.438 19.7564 35.2223 19.3882 35.0057C19.0116 34.7844 18.6325 34.5682 18.2515 34.3546C18.1561 34.3003 18.0606 34.246 17.9623 34.19C17.781 34.0869 17.5989 33.985 17.416 33.8847C16.8181 33.5414 16.8181 33.5414 16.6284 33.1721C16.5889 32.8734 16.6175 32.6359 16.687 32.3437C17.1567 32.1871 17.5145 32.1607 17.9683 32.3595C18.2613 32.5204 18.5466 32.6905 18.8316 32.8652C18.9938 32.9618 19.1561 33.0584 19.3185 33.1548C19.4866 33.2549 19.6542 33.3557 19.8218 33.4565C20.345 33.7705 20.8747 34.0731 21.4038 34.3769C21.6049 34.4928 21.8059 34.6088 22.007 34.7248C22.5731 35.051 23.1396 35.3765 23.7066 35.7011C23.7879 35.7478 23.8693 35.7945 23.9531 35.8426C24.0282 35.8854 24.1032 35.9283 24.1804 35.9725C24.2779 36.0283 24.2779 36.0283 24.3774 36.0852C24.8994 36.3743 25.2749 36.4471 25.8745 36.375C26.4983 36.1847 26.8667 35.8173 27.1973 35.2631C27.3839 34.8147 27.3479 34.2798 27.2229 33.817C26.8489 32.958 25.8921 32.5504 25.1169 32.1157C24.944 32.0188 24.7715 31.9212 24.5991 31.8235C24.4197 31.7219 24.2402 31.6202 24.0607 31.5188C23.3715 31.1293 22.6864 30.733 22.0011 30.3367C21.5358 30.0677 21.0703 29.799 20.6036 29.5325C20.4392 29.4386 20.275 29.3446 20.1108 29.2505C19.9065 29.1336 19.702 29.0169 19.4973 28.9006C18.6058 28.3893 17.7273 27.8604 16.9624 27.1699C14.544 25.1042 11.1397 26.5053 8.53078 27.375Z" fill="#FF7705"></path>
  <path d="M33.1816 2.414C33.3029 2.41328 33.4242 2.41255 33.5491 2.41181C35.4992 2.41575 35.4992 2.41575 36.1648 3.05267C36.3722 3.29274 36.3902 3.47403 36.4047 3.7829C36.4106 3.90254 36.4106 3.90254 36.4166 4.0246C36.4203 4.10798 36.4239 4.19137 36.4277 4.27728C36.4318 4.36139 36.4358 4.44551 36.44 4.53217C36.45 4.74016 36.4595 4.94816 36.4688 5.15619C36.5751 5.19244 36.6814 5.2287 36.791 5.26605C36.9336 5.31534 37.0762 5.36466 37.2188 5.414C37.2885 5.43769 37.3582 5.46138 37.4301 5.48578C37.8604 5.63546 38.2492 5.80773 38.6415 6.04068C38.8175 6.11421 38.8175 6.11421 39.0071 6.02221C39.3419 5.80689 39.6165 5.52129 39.9056 5.24957C40.1962 5.00172 40.4334 4.95173 40.8047 4.93939C40.8728 4.93589 40.941 4.93238 41.0112 4.92877C41.6084 5.02861 42.0567 5.44917 42.4805 5.85346C42.5506 5.91881 42.5506 5.91881 42.6222 5.98547C43.0933 6.42649 43.544 6.8841 43.9805 7.35932C44.06 7.44536 44.1395 7.5314 44.2214 7.62006C44.6552 8.1318 44.7728 8.46206 44.7506 9.12738C44.6644 9.79724 44.0586 10.2429 43.5938 10.6874C43.7612 11.2172 43.9823 11.7152 44.209 12.2219C44.3525 12.5846 44.4444 12.9327 44.5312 13.3124C44.6465 13.3081 44.7618 13.3037 44.8806 13.2993C45.0337 13.2957 45.1868 13.2923 45.3398 13.289C45.4156 13.2859 45.4914 13.2827 45.5695 13.2795C46.0851 13.2711 46.3731 13.3422 46.7812 13.6874C47.5984 14.7033 47.3744 16.5139 47.2793 17.748C47.2701 17.8847 47.2701 17.8847 47.2607 18.0241C47.2035 18.6615 47.0805 19.0494 46.5879 19.4824C46.3054 19.6555 46.0729 19.699 45.7489 19.6966C45.6779 19.6963 45.6069 19.696 45.5338 19.6957C45.4601 19.6949 45.3864 19.6941 45.3105 19.6933C45.2358 19.6929 45.1611 19.6925 45.084 19.692C44.8998 19.6909 44.7155 19.6892 44.5312 19.6874C44.5089 19.7723 44.5089 19.7723 44.4861 19.859C44.3796 20.2568 44.2504 20.6338 44.0786 21.008C44.0482 21.0743 44.0177 21.1407 43.9864 21.209C43.9243 21.342 43.8611 21.4743 43.7964 21.606C43.626 21.9547 43.626 21.9547 43.6421 22.33C43.8191 22.5461 44.0074 22.7401 44.209 22.9335C44.5996 23.3097 44.7338 23.4727 44.748 24.0175C44.7516 24.1039 44.7551 24.1903 44.7587 24.2794C44.6688 24.9164 44.2398 25.3681 43.8105 25.8163C43.7609 25.8689 43.7112 25.9215 43.6601 25.9757C43.56 26.0812 43.4597 26.1864 43.359 26.2913C43.2353 26.4202 43.1128 26.5503 42.9906 26.6806C42.4091 27.2859 41.72 27.9886 40.8457 28.0546C40.2179 28.0121 39.8587 27.706 39.4336 27.2636C39.3517 27.1791 39.2697 27.0947 39.1853 27.0076C39.1242 26.9432 39.063 26.8788 39 26.8124C38.9438 26.8375 38.8876 26.8626 38.8297 26.8884C38.5724 27.0026 38.3145 27.1155 38.0566 27.2285C37.9682 27.2679 37.8798 27.3074 37.7888 27.348C37.3121 27.5556 36.8947 27.7103 36.375 27.7499C36.3794 27.872 36.3837 27.9941 36.3882 28.1198C36.3917 28.2817 36.3951 28.4435 36.3984 28.6054C36.4016 28.6857 36.4047 28.7659 36.408 28.8486C36.4161 29.3748 36.3606 29.6815 36 30.0937C34.9155 30.958 32.6947 30.6407 31.4062 30.5038C30.9483 30.4253 30.6427 30.3023 30.3032 29.9838C29.9804 29.5057 29.9753 29.0187 29.9883 28.4648C29.9891 28.3958 29.99 28.3268 29.9908 28.2557C29.993 28.0871 29.9964 27.9185 30 27.7499C29.8289 27.7209 29.8289 27.7209 29.6543 27.6913C29.1414 27.5792 28.6911 27.3622 28.2202 27.1347C27.9726 27.0167 27.7246 26.911 27.4688 26.8124C27.3652 26.9208 27.3652 26.9208 27.2596 27.0314C27.1673 27.1264 27.0749 27.2214 26.9824 27.3163C26.9372 27.364 26.8919 27.4116 26.8453 27.4606C26.4707 27.8428 26.1865 28.0065 25.6582 28.0663C24.7626 27.9753 24.1972 27.3617 23.5818 26.7648C23.4419 26.6292 23.3006 26.4952 23.1592 26.3613C21.7868 25.0341 21.7868 25.0341 21.6445 24.2636C21.6677 23.556 21.9676 23.1782 22.4326 22.6776C22.5928 22.501 22.7349 22.3176 22.875 22.1249C22.8309 22.0354 22.7868 21.9458 22.7413 21.8536C22.3977 21.1442 22.1066 20.4621 21.9375 19.6874C21.829 19.6907 21.7205 19.694 21.6086 19.6973C21.4644 19.7 21.3201 19.7025 21.1758 19.705C21.1045 19.7074 21.0332 19.7097 20.9597 19.7122C20.4943 19.7182 20.186 19.6611 19.7812 19.4062C19.044 18.669 19.1217 17.5034 19.1074 16.5292C19.1097 14.4477 19.1097 14.4477 19.5938 13.7812C19.949 13.4692 20.1654 13.3 20.6375 13.3033C20.713 13.3036 20.7885 13.3039 20.8663 13.3042C20.9847 13.3054 20.9847 13.3054 21.1055 13.3066C21.1851 13.307 21.2647 13.3074 21.3468 13.3079C21.5437 13.309 21.7406 13.3106 21.9375 13.3124C21.9568 13.2003 21.9762 13.0881 21.9961 12.9726C22.1362 12.333 22.4229 11.7516 22.6875 11.1562C22.7509 11.0003 22.8137 10.8442 22.875 10.6874C22.8027 10.6195 22.7305 10.5516 22.656 10.4816C22.561 10.3901 22.466 10.2986 22.3711 10.207C22.3235 10.1625 22.2759 10.118 22.2268 10.0722C21.9139 9.76752 21.7525 9.51974 21.6562 9.09369C21.6562 7.91047 22.6606 7.05414 23.4443 6.26654C24.846 4.92561 24.846 4.92561 25.8501 4.94342C26.4429 5.01394 26.8141 5.52953 27.1849 5.95197C27.3658 6.11825 27.3658 6.11825 27.6013 6.08234C27.8577 5.99519 28.0974 5.89401 28.3418 5.77728C29.476 5.24994 29.476 5.24994 30 5.24994C29.9967 5.14927 29.9935 5.0486 29.9901 4.94489C29.9875 4.81024 29.9849 4.6756 29.9824 4.54096C29.9801 4.47491 29.9777 4.40887 29.9753 4.34082C29.9668 3.7268 30.0977 3.29518 30.5215 2.83002C31.2465 2.29033 32.3297 2.40892 33.1816 2.414ZM31.5938 4.12494C31.5924 4.18595 31.591 4.24695 31.5896 4.30981C31.5826 4.58613 31.5736 4.86235 31.5645 5.13861C31.5623 5.23463 31.5602 5.33064 31.558 5.42957C31.5531 5.56779 31.5531 5.56779 31.548 5.7088C31.5455 5.79374 31.5431 5.87867 31.5405 5.96618C31.4919 6.23161 31.4345 6.31026 31.2188 6.46869C31.0269 6.55045 31.0269 6.55045 30.8068 6.61664C30.6848 6.65467 30.6848 6.65467 30.5605 6.69347C30.4741 6.71984 30.3878 6.74621 30.2988 6.77338C29.4059 7.05718 28.5456 7.3844 27.7562 7.89948C27.4358 8.01397 27.2319 7.96645 26.9062 7.87494C26.6613 7.69488 26.461 7.48319 26.2559 7.25971C26.2007 7.202 26.1455 7.14429 26.0887 7.08484C25.9536 6.9432 25.8204 6.79986 25.6875 6.65619C24.7478 7.08559 23.8881 8.05158 23.3438 8.90619C23.4306 8.99199 23.5175 9.0778 23.6071 9.1662C23.7205 9.27874 23.8339 9.39129 23.9473 9.50385C24.0046 9.5604 24.062 9.61696 24.121 9.67523C24.1757 9.72961 24.2304 9.784 24.2867 9.84003C24.3373 9.8901 24.3879 9.94018 24.44 9.99178C24.6366 10.2055 24.6567 10.3179 24.6826 10.6142C24.652 11.0258 24.5414 11.227 24.3281 11.5781C23.9161 12.2868 23.6619 13.0304 23.4179 13.811C23.3891 13.9003 23.3603 13.9895 23.3306 14.0815C23.3059 14.1614 23.2812 14.2413 23.2558 14.3236C23.1338 14.578 23.0265 14.6748 22.7812 14.8124C22.558 14.853 22.558 14.853 22.314 14.8604C22.2263 14.8637 22.1387 14.8671 22.0485 14.8705C21.9577 14.8726 21.8669 14.8747 21.7734 14.8769C21.6812 14.8801 21.589 14.8833 21.494 14.8866C21.2669 14.8943 21.0397 14.9008 20.8125 14.9062C20.6978 15.9819 20.6978 17.018 20.8125 18.0937C20.9033 18.095 20.9033 18.095 20.9959 18.0963C21.2708 18.1014 21.5455 18.1092 21.8203 18.1171C21.9155 18.1185 22.0108 18.1198 22.1089 18.1212C22.8038 18.144 22.8038 18.144 23.1152 18.3339C23.2946 18.6381 23.3783 18.9492 23.4609 19.289C23.6878 20.1409 24.053 20.8826 24.4688 21.6562C24.6675 22.0272 24.7206 22.2585 24.6562 22.6874C24.4247 23.0325 24.1318 23.3154 23.8279 23.5967C23.691 23.7243 23.5633 23.8615 23.4375 23.9999C23.4451 24.3915 23.7399 24.6398 23.9941 24.9081C24.0625 24.9816 24.0625 24.9816 24.1323 25.0566C24.5637 25.5137 25.0232 25.9341 25.5 26.3437C25.8789 26.1938 26.1262 25.9231 26.4023 25.6347C26.9726 25.0442 26.9726 25.0442 27.3468 25.0041C27.7236 25.0371 27.9776 25.1813 28.2949 25.371C28.9931 25.7668 29.7084 26.0289 30.468 26.2806C31.3884 26.5891 31.3884 26.5891 31.5 26.8124C31.5143 26.9686 31.5234 27.1252 31.5297 27.2819C31.5336 27.3744 31.5375 27.4668 31.5416 27.5621C31.5453 27.6589 31.5489 27.7557 31.5527 27.8554C31.5568 27.9529 31.5608 28.0505 31.565 28.1509C31.575 28.3923 31.5845 28.6336 31.5938 28.8749C32.1453 28.9705 32.6812 28.9828 33.2402 28.9804C33.3265 28.9808 33.4127 28.9811 33.5015 28.9815C33.9387 28.9809 34.3512 28.9651 34.7812 28.8749C34.7881 28.6902 34.7881 28.6902 34.7952 28.5018C34.8022 28.339 34.8093 28.1763 34.8164 28.0136C34.8193 27.9326 34.8222 27.8516 34.8252 27.7681C34.8649 26.9056 34.8649 26.9056 35.0625 26.6249C35.3167 26.5097 35.5478 26.4241 35.8125 26.3437C35.9527 26.295 36.0928 26.2457 36.2325 26.1957C36.3402 26.1577 36.3402 26.1577 36.45 26.1189C37.1958 25.8528 37.875 25.5639 38.5536 25.1517C38.8572 25.0104 39.0438 24.9873 39.375 25.0312C39.5709 25.1517 39.5709 25.1517 39.7441 25.3183C39.8382 25.4071 39.8382 25.4071 39.9342 25.4977C39.9972 25.5603 40.0601 25.6229 40.125 25.6874C40.1889 25.75 40.2529 25.8126 40.3187 25.8771C40.4744 26.0313 40.6285 26.1867 40.7812 26.3437C41.1631 26.1325 41.4816 25.8766 41.8008 25.582C41.8498 25.537 41.8989 25.492 41.9494 25.4456C42.359 25.0619 42.7088 24.6473 43.0312 24.1874C42.8648 23.7573 42.5148 23.492 42.1699 23.2036C41.8888 22.9444 41.7755 22.7441 41.7572 22.3707C41.7866 21.9131 41.9569 21.5953 42.1934 21.2109C42.6007 20.5049 42.8649 19.7907 43.0972 19.0106C43.1338 18.8905 43.1338 18.8905 43.1711 18.7679C43.1918 18.6965 43.2124 18.6252 43.2337 18.5517C43.3125 18.3749 43.3125 18.3749 43.5938 18.1874C43.8049 18.159 43.8049 18.159 44.0486 18.1519C44.1361 18.1487 44.2236 18.1455 44.3137 18.1422C44.4048 18.1397 44.496 18.1373 44.5898 18.1347C44.7708 18.1291 44.9517 18.1232 45.1326 18.1168C45.2128 18.1145 45.293 18.1123 45.3756 18.11C45.5624 18.1139 45.5624 18.1139 45.6562 17.9999C45.6657 17.7783 45.6693 17.5595 45.6687 17.3378C45.6688 17.2716 45.6689 17.2054 45.669 17.1371C45.669 16.9968 45.6689 16.8566 45.6685 16.7163C45.668 16.5008 45.6685 16.2854 45.6691 16.07C45.669 15.934 45.6689 15.798 45.6687 15.662C45.669 15.5648 45.669 15.5648 45.6693 15.4656C45.694 15.1596 45.694 15.1596 45.5625 14.9062C45.4275 14.8938 45.2919 14.8871 45.1564 14.8831C45.0738 14.88 44.9912 14.877 44.9061 14.8738C44.7315 14.8681 44.557 14.8627 44.3824 14.8577C44.2994 14.8545 44.2165 14.8513 44.131 14.848C44.055 14.8456 43.979 14.8433 43.9007 14.8408C43.6606 14.8089 43.5125 14.7622 43.3125 14.6249C43.2216 14.4467 43.2216 14.4467 43.1587 14.2287C43.1341 14.1481 43.1095 14.0674 43.0842 13.9843C43.059 13.898 43.0338 13.8116 43.0078 13.7226C42.5988 12.2955 42.5988 12.2955 41.8125 11.0624C41.7411 10.6886 41.7259 10.3537 41.9359 10.0264C42.1055 9.84279 42.2818 9.67556 42.4688 9.50971C42.5314 9.45091 42.594 9.39212 42.6584 9.33154C42.8122 9.18765 42.9676 9.0461 43.125 8.90619C42.786 8.41656 42.4144 7.98998 41.9941 7.57025C41.9229 7.49897 41.9229 7.49897 41.8503 7.42624C41.57 7.14999 41.2804 6.89636 40.9688 6.65619C40.6084 6.80301 40.3913 7.03315 40.125 7.31244C39.5842 7.87957 39.5842 7.87957 39.2812 7.96869C38.7322 7.94903 38.3697 7.7582 37.9102 7.48822C37.201 7.08726 36.482 6.82588 35.6982 6.60671C35.1037 6.43013 35.1037 6.43013 34.9164 6.17902C34.8561 5.78157 34.8308 5.3878 34.8164 4.98627C34.8128 4.90343 34.8092 4.82058 34.8054 4.73523C34.7966 4.53183 34.7888 4.32839 34.7812 4.12494C34.4766 4.02338 34.2525 4.01907 33.932 4.01874C33.7646 4.01856 33.7646 4.01856 33.5938 4.01837C33.4771 4.01874 33.3605 4.0191 33.2402 4.01947C33.1239 4.01911 33.0076 4.01875 32.8878 4.01837C32.7202 4.01855 32.7202 4.01855 32.5492 4.01874C32.4469 4.01884 32.3446 4.01895 32.2392 4.01906C32.0071 4.02947 31.8149 4.05752 31.5938 4.12494Z" fill="#FF7705"></path>
  <path d="M32.9444 8.89122C34.8768 8.82438 36.8355 9.50444 38.268 10.8047C39.7654 12.2217 40.6797 13.9503 40.804 16.0301C40.861 18.2308 40.1821 20.1063 38.7257 21.769C37.5736 22.9813 35.8482 23.9022 34.1621 24.0166C31.8618 24.0672 29.8756 23.7333 28.1254 22.125C28.0593 22.0653 27.9932 22.0056 27.9251 21.9441C26.6108 20.6974 25.7351 18.8961 25.6655 17.0779C25.6202 14.8196 26.197 12.8743 27.7674 11.1909C29.1539 9.75716 30.9735 9.02261 32.9444 8.89122ZM28.7113 12.5215C27.5951 13.8265 27.1619 15.4442 27.2618 17.1342C27.4107 18.7083 28.2405 20.1456 29.4437 21.1582C29.8265 21.4367 30.2364 21.6571 30.6566 21.873C30.7178 21.9047 30.7789 21.9364 30.842 21.969C32.1604 22.6174 33.8667 22.6147 35.2438 22.1492C36.7965 21.5131 38.0048 20.4554 38.7133 18.9129C39.3669 17.2285 39.3655 15.7277 38.6924 14.042C38.0046 12.5553 36.8494 11.4973 35.3441 10.875C32.9038 10.0508 30.5108 10.6881 28.7113 12.5215Z" fill="#FF7705"></path>
  <path d="M36.0933 13.7813C36.3687 13.9747 36.3687 13.9747 36.562 14.25C36.6033 14.6235 36.6052 14.8341 36.4104 15.1597C36.3406 15.2385 36.2707 15.3173 36.1988 15.3985C36.0831 15.5312 36.0831 15.5312 35.9651 15.6666C35.8837 15.756 35.8022 15.8454 35.7183 15.9375C35.6407 16.0231 35.5631 16.1087 35.4832 16.1968C35.3265 16.3687 35.1694 16.5402 35.0119 16.7114C34.7876 16.9612 34.5752 17.2171 34.3648 17.4786C34.048 17.8706 33.7201 18.249 33.3804 18.6211C33.3361 18.67 33.2917 18.7189 33.246 18.7692C32.9707 19.0682 32.8314 19.2007 32.4253 19.2657C31.894 19.1971 31.6813 18.9342 31.312 18.5625C31.2012 18.4549 31.0902 18.3474 30.9792 18.2399C30.8595 18.123 30.74 18.0059 30.6206 17.8887C30.5626 17.8319 30.5045 17.7751 30.4446 17.7166C30.3899 17.6618 30.3351 17.6071 30.2786 17.5507C30.2294 17.5019 30.1801 17.453 30.1294 17.4027C29.8778 17.107 29.8089 16.9338 29.8296 16.5411C29.9058 16.2188 29.9058 16.2188 30.0113 16.043C30.2935 15.8737 30.5156 15.8494 30.8433 15.8438C31.4461 16.1251 31.8872 16.684 32.3433 17.1563C33.1494 16.3588 33.8805 15.5059 34.5933 14.625C35.3599 13.6928 35.3599 13.6928 36.0933 13.7813Z" fill="#FF7705"></path>
  <path d="M5.15603 26.625C5.53437 26.8329 5.76919 27.0582 5.90603 27.4687C5.95714 27.9085 5.94807 28.2284 5.74783 28.6289C5.47529 28.9383 5.28185 29.1233 4.86453 29.1859C4.35422 29.2124 4.05038 29.1286 3.65603 28.7812C3.34359 28.4271 3.31667 28.0674 3.32828 27.6105C3.40592 27.2173 3.63751 26.9727 3.93728 26.7187C4.31205 26.5313 4.7497 26.5646 5.15603 26.625Z" fill="#FF7705"></path>
</svg>
