<?xml version="1.0" encoding="UTF-8"?>
<svg xmlns="http://www.w3.org/2000/svg" width="55" height="55" viewBox="0 0 55 55" fill="none">
  <path d="M29.6429 16.2476C30.1929 16.6675 30.5055 17.2306 30.83 17.832C30.8886 17.81 30.9471 17.788 31.0075 17.7653C32.1066 17.3726 33.0938 17.2885 34.205 17.7175C34.858 18.0423 35.3536 18.5254 35.7714 19.1211C35.8486 19.3657 35.8486 19.3657 35.8788 19.5508C35.9359 19.521 35.9929 19.4913 36.0517 19.4606C36.1276 19.4217 36.2035 19.3828 36.2816 19.3427C36.3564 19.304 36.4312 19.2654 36.5082 19.2256C37.3277 18.8532 38.3392 18.905 39.182 19.1748C40.1612 19.5816 40.8406 20.2974 41.2499 21.2695C41.3541 21.6111 41.3701 21.9185 41.3692 22.2749C41.3692 22.3909 41.3693 22.5068 41.3694 22.6263C41.3692 22.7521 41.3689 22.878 41.3687 23.0076C41.3696 23.279 41.3708 23.5504 41.3722 23.8219C41.3726 23.8926 41.3729 23.9632 41.3733 24.0361C41.3874 26.6086 41.509 29.094 41.9973 31.6269C42.6208 34.8677 42.5907 38.4909 40.6955 41.3293C40.371 41.7903 40.0378 42.2472 39.6386 42.6465C39.605 42.976 39.605 42.976 39.6094 43.3689C39.6089 43.4432 39.6083 43.5175 39.6077 43.594C39.6066 43.7555 39.606 43.9171 39.6058 44.0786C39.6054 44.3347 39.6036 44.5907 39.6014 44.8468C39.5955 45.575 39.5922 46.3032 39.5896 47.0315C39.5878 47.4768 39.5846 47.9221 39.5805 48.3674C39.5792 48.5368 39.5786 48.7062 39.5786 48.8756C39.5785 49.1134 39.5766 49.3511 39.5742 49.5889C39.5736 49.724 39.5731 49.8591 39.5725 49.9983C39.524 50.447 39.4151 50.7331 39.2089 51.1328C38.8924 51.2911 38.6108 51.2545 38.2574 51.2553C38.1425 51.2558 38.1425 51.2558 38.0252 51.2563C37.767 51.2572 37.5089 51.2574 37.2508 51.2576C37.0663 51.2581 36.8817 51.2586 36.6972 51.2592C36.1949 51.2606 35.6926 51.2613 35.1904 51.2618C34.8768 51.2621 34.5632 51.2625 34.2497 51.263C33.2692 51.2645 32.2888 51.2655 31.3083 51.2659C30.1753 51.2664 29.0423 51.2683 27.9093 51.2714C27.0344 51.2737 26.1594 51.2748 25.2844 51.2749C24.7614 51.2751 24.2385 51.2757 23.7155 51.2776C23.2237 51.2794 22.7319 51.2796 22.2401 51.2787C22.0594 51.2786 21.8788 51.2791 21.6981 51.2801C21.4518 51.2815 21.2055 51.2808 20.9591 51.2797C20.8212 51.2799 20.6832 51.28 20.5411 51.2802C20.1715 51.2375 20.0224 51.1823 19.7655 50.918C19.6357 50.5286 19.6434 50.1728 19.6446 49.7676C19.6444 49.6833 19.6442 49.5991 19.644 49.5123C19.6435 49.3293 19.6433 49.1462 19.6433 48.9632C19.6429 48.573 19.6406 48.1828 19.6384 47.7926C19.6343 47.0664 19.631 46.3402 19.6312 45.6139C19.6313 45.1085 19.6288 44.6032 19.6245 44.0979C19.6234 43.906 19.6233 43.7141 19.6241 43.5222C19.6295 42.1152 19.4741 41.1363 18.4832 40.0663C18.1426 39.7392 17.7757 39.4484 17.4064 39.1544C16.8598 38.7062 16.3463 38.2232 15.8329 37.7376C15.7111 37.6235 15.5868 37.512 15.4619 37.4013C14.0532 36.11 13.3353 34.2278 13.2317 32.3567C13.1904 31.4003 13.2551 30.4494 13.3247 29.4957C13.3472 29.1838 13.3672 28.8718 13.3869 28.5598C13.5195 26.5885 13.8182 24.8054 15.3612 23.418C16.3163 22.6833 17.5548 21.9141 18.7987 21.9141C18.797 21.8475 18.7954 21.781 18.7936 21.7125C18.7868 21.4059 18.7827 21.0994 18.7786 20.7929C18.7759 20.6882 18.7732 20.5836 18.7704 20.4758C18.7587 19.3098 19.0512 18.4595 19.8729 17.6172C20.8722 16.8039 21.8222 16.6473 23.0956 16.7578C23.6165 16.8973 24.0448 17.1042 24.4921 17.4024C24.532 17.3126 24.532 17.3126 24.5727 17.2211C24.9725 16.4815 25.6154 16.0026 26.4081 15.721C27.5576 15.5363 28.6512 15.6116 29.6429 16.2476ZM26.5331 17.7246C26.1467 18.0733 25.8798 18.3899 25.7812 18.9063C25.7724 19.1316 25.7696 19.3572 25.7707 19.5827C25.771 19.7122 25.7714 19.8416 25.7717 19.975C25.7726 20.1098 25.7735 20.2445 25.7744 20.3833C25.7749 20.5197 25.7754 20.6561 25.7759 20.7966C25.7772 21.1333 25.7789 21.47 25.7812 21.8067C25.9242 21.8383 25.9242 21.8383 26.0701 21.8705C26.1955 21.8988 26.3209 21.927 26.45 21.956C26.6363 21.9976 26.6363 21.9976 26.8263 22.0401C27.9287 22.3188 28.5283 22.9809 29.2187 23.8477C29.2296 23.1597 29.2371 22.4717 29.2423 21.7837C29.2444 21.5499 29.2473 21.3161 29.2511 21.0823C29.2563 20.7452 29.2587 20.4082 29.2606 20.0711C29.2639 19.9156 29.2639 19.9156 29.2673 19.757C29.2676 18.9605 29.1018 18.3771 28.5473 17.7918C27.8508 17.3802 27.2419 17.2803 26.5331 17.7246ZM20.9136 19.289C20.6688 19.6426 20.6114 19.9078 20.6144 20.3275C20.6147 20.4052 20.6149 20.4829 20.6152 20.563C20.6162 20.661 20.6172 20.759 20.6182 20.86C20.6204 21.1724 20.6226 21.4848 20.6249 21.8067C21.7238 21.8067 22.8228 21.8067 23.955 21.8067C23.9638 21.4854 23.9727 21.1641 23.9818 20.8331C23.9877 20.6836 23.9877 20.6836 23.9937 20.531C24.0021 19.8949 23.8988 19.5321 23.5253 19.0137C23.0671 18.6305 22.6319 18.5131 22.0365 18.5425C21.5369 18.6327 21.2429 18.924 20.9136 19.289ZM31.5194 19.7086C31.1224 20.1754 31.0312 20.4432 31.0258 21.0439C31.0244 21.1769 31.0231 21.31 31.0216 21.447C31.0208 21.5931 31.02 21.7391 31.0192 21.8851C31.0188 21.9587 31.0184 22.0322 31.0179 22.1079C31.0157 22.4975 31.0141 22.887 31.0131 23.2765C31.0119 23.6777 31.0082 24.0788 31.004 24.48C31.0011 24.7894 31.0003 25.0987 30.9999 25.4081C30.9994 25.5559 30.9981 25.7037 30.9961 25.8515C30.9737 26.9694 30.9737 26.9694 31.4745 27.9297C31.936 28.3108 32.3655 28.4304 32.9633 28.4009C33.4629 28.3107 33.7569 28.0194 34.0862 27.6544C34.3689 27.2461 34.3897 26.9307 34.3956 26.4459C34.3973 26.3175 34.3991 26.1891 34.4008 26.0568C34.4056 25.4691 34.4101 24.8813 34.4125 24.2936C34.4139 23.9838 34.4169 23.6741 34.4213 23.3643C34.4266 22.9892 34.4293 22.6142 34.43 22.2391C34.4311 22.0279 34.4348 21.8168 34.4385 21.6058C34.4367 20.8214 34.3771 20.2549 33.8378 19.6582C33.1408 19.0896 32.1838 19.0917 31.5194 19.7086ZM36.5435 21.4844C36.2575 21.8766 36.1878 22.1367 36.1838 22.6089C36.1827 22.7057 36.1817 22.8025 36.1806 22.9023C36.1802 23.0067 36.1797 23.1111 36.1793 23.2187C36.1786 23.3264 36.178 23.4341 36.1774 23.545C36.1764 23.773 36.1757 24.001 36.1753 24.229C36.1742 24.577 36.1709 24.9249 36.1675 25.2729C36.1668 25.4945 36.1662 25.7162 36.1658 25.9378C36.1645 26.0415 36.1632 26.1453 36.1618 26.2522C36.1639 26.9007 36.2255 27.3958 36.6882 27.8915C37.2707 28.3369 37.6215 28.4441 38.3495 28.3594C38.9231 28.1641 39.256 27.8167 39.5312 27.2852C39.5932 26.8888 39.5914 26.4978 39.5882 26.0972C39.5888 25.926 39.5888 25.926 39.5895 25.7514C39.5898 25.5106 39.589 25.2698 39.5872 25.029C39.5849 24.6616 39.5871 24.2945 39.5899 23.9272C39.5896 23.6927 39.5891 23.4582 39.5882 23.2237C39.5891 23.1145 39.59 23.0052 39.5909 22.8927C39.5821 22.2217 39.4937 21.8188 39.1015 21.2695C38.7628 20.9478 38.3763 20.8141 37.9131 20.7929C37.3112 20.8597 36.939 21.0301 36.5435 21.4844ZM16.1707 25.2446C15.6778 25.8854 15.379 26.6063 15.3177 27.4101C15.3076 27.541 15.3076 27.541 15.2972 27.6745C15.2869 27.8152 15.2869 27.8152 15.2765 27.9587C15.2692 28.0568 15.262 28.1548 15.2545 28.2559C15.2393 28.464 15.2243 28.6722 15.2095 28.8803C15.187 29.1934 15.163 29.5064 15.1388 29.8194C14.9667 32.1573 15.0432 34.1011 16.6436 35.9662C17.2498 36.6175 17.9311 37.1835 18.6086 37.7582C19.8319 38.799 20.9958 39.8334 21.3769 41.4649C23.5591 41.495 25.7412 41.5177 27.9236 41.5316C28.937 41.5383 29.9503 41.5473 30.9635 41.5621C31.847 41.575 32.7303 41.5833 33.6138 41.5861C34.0815 41.5878 34.5489 41.5917 35.0165 41.6012C35.4572 41.6099 35.8975 41.6126 36.3383 41.6107C36.4995 41.611 36.6607 41.6136 36.8219 41.6185C37.4855 41.6379 38.0358 41.654 38.5506 41.182C38.8059 40.8675 39.0108 40.5291 39.2089 40.1758C39.2763 40.0671 39.2763 40.0671 39.3451 39.9563C40.0575 38.7729 40.4481 37.3626 40.4979 35.9863C40.5022 35.8884 40.5065 35.7905 40.511 35.6897C40.5551 33.6601 40.1942 31.6412 39.8534 29.6485C39.7776 29.6788 39.7018 29.7092 39.6237 29.7406C38.6122 30.1302 37.5742 30.3387 36.5301 29.8969C36.3822 29.8184 36.2366 29.7355 36.0937 29.6485C36.0114 29.5996 35.9291 29.5507 35.8444 29.5003C35.6383 29.3743 35.4354 29.2451 35.2343 29.1113C35.1822 29.1541 35.1301 29.1969 35.0765 29.241C34.0609 30.0437 33.2093 30.2073 31.9042 30.0781C31.5232 29.9711 31.1833 29.8244 30.83 29.6485C30.7236 29.613 30.6173 29.5776 30.5077 29.541C30.4712 29.5968 30.4346 29.6526 30.3969 29.7101C29.8023 30.5657 29.1156 30.9303 28.1444 31.2598C28.1599 31.3883 28.1755 31.5168 28.1914 31.6492C28.2002 31.7215 28.2089 31.7938 28.2179 31.8682C28.2425 32.0505 28.2728 32.232 28.3063 32.4128C28.4002 33.0347 28.3836 33.6599 28.3861 34.2877C28.3883 34.4256 28.3906 34.5634 28.3928 34.7055C28.3937 34.9031 28.3937 34.9031 28.3945 35.1047C28.3955 35.2249 28.3965 35.3452 28.3976 35.469C28.3593 35.7715 28.3593 35.7715 28.2089 35.9716C27.8948 36.1948 27.5459 36.1522 27.1776 36.0938C26.944 35.928 26.8749 35.8105 26.7479 35.5567C26.7353 35.3771 26.7287 35.197 26.7253 35.017C26.6973 32.4934 26.6973 32.4934 25.385 30.4273C24.07 29.3421 22.3136 29.3837 20.6985 29.3231C20.4459 29.3133 20.1935 29.3016 19.9409 29.2897C19.8246 29.2861 19.8246 29.2861 19.7059 29.2825C19.3899 29.2668 19.1713 29.2554 18.9113 29.0662C18.7008 28.7488 18.7416 28.402 18.7987 28.0371C18.9933 27.7498 19.1078 27.7192 19.4433 27.6074C19.6622 27.5964 19.8815 27.5918 20.1007 27.5905C20.2363 27.5894 20.3718 27.5883 20.5114 27.5872C20.6201 27.5866 20.6201 27.5866 20.7309 27.586C20.958 27.5848 21.1852 27.5827 21.4124 27.5803C22.0583 27.5737 22.7041 27.5679 23.35 27.5643C23.7453 27.5621 24.1406 27.5583 24.5359 27.5535C24.6862 27.552 24.8365 27.551 24.9867 27.5507C25.1975 27.5502 25.4083 27.5475 25.6191 27.5448C25.7388 27.5439 25.8586 27.543 25.9819 27.5421C26.5453 27.4716 26.9621 27.24 27.3186 26.8018C27.3978 26.7071 27.3978 26.7071 27.4785 26.6104C27.8057 26.1415 27.786 25.5761 27.7147 25.0293C27.4749 24.4225 27.1073 24.0523 26.5331 23.7402C26.1834 23.6237 25.9235 23.6171 25.5555 23.6138C25.4202 23.6124 25.2849 23.6111 25.1456 23.6096C24.9974 23.6088 24.8492 23.608 24.7011 23.6072C24.6261 23.6068 24.5511 23.6064 24.4738 23.6059C24.0759 23.6037 23.678 23.6021 23.28 23.6011C22.8725 23.5999 22.4651 23.5963 22.0576 23.592C21.7415 23.5891 21.4254 23.5883 21.1092 23.5879C20.9592 23.5874 20.8093 23.5861 20.6593 23.5841C18.9627 23.5628 17.3669 23.9749 16.1707 25.2446ZM29.1112 27.2852C29.02 27.4318 28.9309 27.5798 28.8427 27.7283C28.3568 28.4712 27.6454 28.8541 26.8554 29.2188C26.8908 29.2897 26.9263 29.3606 26.9628 29.4336C27.4952 29.4715 27.9112 29.4942 28.3996 29.259C28.7955 28.9008 29.0497 28.544 29.2187 28.0371C29.2229 27.7865 29.2234 27.5358 29.2187 27.2852C29.1832 27.2852 29.1478 27.2852 29.1112 27.2852ZM21.4843 43.291C21.4843 45.3471 21.4843 47.4031 21.4843 49.5215C26.8371 49.5215 32.1899 49.5215 37.705 49.5215C37.705 47.4654 37.705 45.4094 37.705 43.291C32.3521 43.291 26.9993 43.291 21.4843 43.291Z" fill="#FF7705"></path>
  <path d="M5.80103 16.4355C6.14375 16.5935 6.14375 16.5935 6.49088 16.7955C6.55377 16.8318 6.61667 16.868 6.68147 16.9053C6.88102 17.0206 7.07952 17.1376 7.27808 17.2546C7.40949 17.3307 7.54097 17.4066 7.67252 17.4825C9.90177 18.7731 9.90177 18.7731 10.2053 19.2285C10.2504 19.6418 10.2692 19.8834 10.0375 20.2356C9.69566 20.4634 9.43015 20.5586 9.02368 20.5175C8.57134 20.3343 8.16017 20.0886 7.74133 19.8394C7.62286 19.7709 7.50439 19.7023 7.38232 19.6316C7.03275 19.428 6.68517 19.2215 6.33813 19.0136C6.24273 18.9569 6.14732 18.9002 6.04902 18.8417C5.80653 18.6968 5.56507 18.5505 5.32434 18.4027C5.25463 18.3601 5.18492 18.3174 5.11309 18.2735C4.79671 18.0741 4.61542 17.9335 4.40454 17.6172C4.35083 17.2546 4.35083 17.2546 4.40454 16.8652C4.86628 16.3246 5.12785 16.2831 5.80103 16.4355Z" fill="#FF7705"></path>
  <path d="M50.3806 16.8652C50.7098 17.0847 50.7911 17.2348 50.911 17.6105C50.9194 18.0226 50.8437 18.1488 50.5954 18.4766C50.3329 18.6573 50.0808 18.8135 49.8032 18.9667C49.7245 19.0115 49.6459 19.0562 49.5648 19.1024C49.3932 19.1999 49.2213 19.2969 49.0492 19.3934C48.7499 19.5616 48.4521 19.7322 48.1545 19.9032C47.7579 20.1311 47.361 20.3586 46.9636 20.5851C46.8819 20.6317 46.8001 20.6783 46.7159 20.7264C46.3016 20.9585 46.0283 20.9888 45.5466 20.9473C45.224 20.7265 45.1349 20.5738 45.0162 20.202C45.0079 19.7943 45.0905 19.6619 45.3317 19.3359C45.6251 19.1249 45.6251 19.1249 45.9964 18.913C46.1402 18.8305 46.284 18.748 46.4278 18.6654C46.5083 18.6196 46.5888 18.5738 46.6718 18.5266C46.9818 18.3466 47.2871 18.1597 47.5926 17.9722C47.8214 17.8337 48.0503 17.6952 48.2791 17.5568C48.3885 17.4888 48.4978 17.4209 48.6105 17.351C49.2322 16.9798 49.6523 16.7582 50.3806 16.8652Z" fill="#FF7705"></path>
  <path d="M41.0347 7.30473C41.3569 7.58 41.3569 7.58 41.5718 7.94926C41.5435 8.5156 41.3873 8.90482 41.1043 9.39106C41.0681 9.45396 41.0319 9.51685 40.9946 9.58166C40.8793 9.78121 40.7623 9.97971 40.6453 10.1783C40.5692 10.3097 40.4933 10.4412 40.4174 10.5727C39.1267 12.802 39.1267 12.802 38.6714 13.1055C38.2581 13.1506 38.0165 13.1694 37.6643 12.9377C37.4364 12.5959 37.3413 12.3303 37.3823 11.9239C37.5656 11.4715 37.8113 11.0604 38.0604 10.6415C38.129 10.523 38.1976 10.4046 38.2683 10.2825C38.4718 9.93294 38.6784 9.58536 38.8862 9.23832C38.943 9.14292 38.9997 9.04751 39.0582 8.94921C39.2031 8.70672 39.3494 8.46526 39.4972 8.22453C39.5398 8.15482 39.5825 8.0851 39.6264 8.01328C40.0102 7.40438 40.3037 7.20391 41.0347 7.30473Z" fill="#FF7705"></path>
  <path d="M46.1913 40.3906C46.534 40.5486 46.534 40.5486 46.8812 40.7506C46.9441 40.7868 47.007 40.8231 47.0718 40.8604C47.2713 40.9757 47.4698 41.0927 47.6684 41.2097C47.7998 41.2857 47.9313 41.3617 48.0628 41.4375C50.2921 42.7282 50.2921 42.7282 50.5956 43.1836C50.6481 43.5856 50.6254 43.7766 50.4211 44.1302C50.1073 44.4192 49.9433 44.4453 49.5214 44.4726C49.223 44.3688 49.223 44.3688 48.9193 44.2045C48.8072 44.1446 48.6951 44.0846 48.5796 44.0229C48.465 43.9586 48.3504 43.8943 48.2323 43.8281C48.1223 43.7667 48.0123 43.7054 47.8989 43.6422C47.5674 43.4542 47.2383 43.2625 46.9097 43.0694C46.7989 43.0051 46.688 42.9408 46.5738 42.8745C44.9798 41.9422 44.9798 41.9422 44.7948 41.5722C44.7325 40.8992 44.7325 40.8992 44.9963 40.5652C45.4301 40.2334 45.6568 40.2813 46.1913 40.3906Z" fill="#FF7705"></path>
  <path d="M9.45289 39.8535C9.78209 40.0729 9.86341 40.2231 9.98328 40.5987C9.9915 41.001 9.89965 41.1408 9.66773 41.4648C9.44319 41.6369 9.44319 41.6369 9.1835 41.785C9.0872 41.8408 8.99091 41.8967 8.8917 41.9542C8.73745 42.041 8.73745 42.041 8.58009 42.1295C8.36577 42.2522 8.15148 42.375 7.93723 42.4979C7.83054 42.5587 7.72385 42.6194 7.61392 42.682C7.3298 42.8466 7.05055 43.0167 6.77238 43.1911C6.65131 43.266 6.65131 43.266 6.52779 43.3425C6.37877 43.4351 6.23054 43.529 6.08331 43.6244C5.57208 43.937 5.21797 43.9947 4.6189 43.9355C4.2897 43.716 4.20839 43.5659 4.08851 43.1903C4.0801 42.7784 4.15603 42.6517 4.40406 42.3242C4.66432 42.1459 4.91438 41.9918 5.18958 41.8408C5.35361 41.7484 5.51753 41.6557 5.68137 41.563C5.81337 41.4887 5.81337 41.4887 5.94804 41.4129C6.25137 41.2378 6.54883 41.0548 6.84623 40.8698C6.95018 40.8059 7.05413 40.742 7.16123 40.6761C7.36504 40.5506 7.56806 40.4238 7.77015 40.2955C8.36475 39.9339 8.75432 39.7599 9.45289 39.8535Z" fill="#FF7705"></path>
  <path d="M15.3615 7.08981C15.6843 7.44783 15.925 7.83477 16.163 8.25257C16.2314 8.372 16.2998 8.49143 16.3703 8.61449C16.4413 8.73959 16.5124 8.86471 16.5834 8.98983C16.7229 9.23424 16.8625 9.4786 17.0022 9.7229C17.0693 9.84071 17.1364 9.95852 17.2055 10.0799C17.4375 10.4802 17.6803 10.873 17.9283 11.2635C18.1314 11.6579 18.1222 11.9178 18.0471 12.3535C17.8398 12.6529 17.6961 12.7549 17.3555 12.8772C17.0216 12.8935 16.842 12.8232 16.5431 12.6757C16.3809 12.4976 16.3809 12.4976 16.2427 12.2754C16.1886 12.189 16.1346 12.1025 16.0788 12.0135C15.7164 11.4011 15.3622 10.7845 15.0124 10.1648C14.8964 9.95996 14.7804 9.75522 14.6642 9.55056C14.5599 9.36665 14.4558 9.18257 14.3518 8.99849C14.2299 8.78771 14.1001 8.58146 13.965 8.37887C13.8925 7.61707 13.8925 7.61707 14.1597 7.25766C14.5819 6.95607 14.8718 6.94989 15.3615 7.08981Z" fill="#FF7705"></path>
  <path d="M48.8633 29.7124C48.9669 29.711 49.0705 29.7097 49.1773 29.7083C49.3441 29.7087 49.3441 29.7087 49.5144 29.7092C49.6293 29.7087 49.7443 29.7081 49.8627 29.7075C50.1057 29.7068 50.3487 29.707 50.5916 29.7079C50.9632 29.7088 51.3346 29.7057 51.7062 29.7023C51.9424 29.7021 52.1786 29.7022 52.4147 29.7025C52.5258 29.7013 52.6368 29.7001 52.7512 29.6989C53.2334 29.7035 53.522 29.7068 53.9419 29.9591C54.1684 30.2172 54.2136 30.3292 54.2078 30.6689C54.2091 30.7498 54.2105 30.8306 54.212 30.9139C54.1002 31.2875 53.9378 31.3808 53.6035 31.582C53.2086 31.6462 52.8179 31.6422 52.4185 31.639C52.2463 31.6397 52.2463 31.6397 52.0706 31.6403C51.8283 31.6406 51.586 31.6398 51.3436 31.638C50.973 31.6357 50.6025 31.638 50.2319 31.6407C49.9962 31.6404 49.7605 31.6399 49.5248 31.639C49.4142 31.6399 49.3035 31.6408 49.1894 31.6417C48.71 31.6354 48.4209 31.6306 48.0035 31.3799C47.7669 31.1116 47.704 30.9721 47.6953 30.6152C47.8621 29.9785 48.2128 29.7165 48.8633 29.7124Z" fill="#FF7705"></path>
  <path d="M2.58153 29.1617C2.69633 29.1613 2.81113 29.1609 2.9294 29.1605C3.17175 29.1602 3.41409 29.161 3.65643 29.1628C4.02708 29.1651 4.39751 29.1628 4.76815 29.16C5.00384 29.1603 5.23952 29.1609 5.4752 29.1617C5.58588 29.1609 5.69656 29.16 5.8106 29.1591C6.29003 29.1654 6.57919 29.1701 6.99652 29.4208C7.23319 29.6892 7.29603 29.8286 7.30473 30.1856C7.19119 30.6191 7.03778 30.8111 6.6602 31.045C6.41231 31.0866 6.41231 31.0866 6.13676 31.0884C6.03314 31.0897 5.92952 31.0911 5.82277 31.0925C5.71153 31.0922 5.6003 31.0919 5.48569 31.0915C5.37074 31.0921 5.25579 31.0927 5.13736 31.0932C4.89438 31.0939 4.65139 31.0938 4.40841 31.0929C4.03682 31.092 3.6654 31.0951 3.29383 31.0985C3.05765 31.0986 2.82148 31.0986 2.5853 31.0983C2.41878 31.1001 2.41878 31.1001 2.24889 31.1019C1.76667 31.0972 1.47803 31.0939 1.05814 30.8417C0.831624 30.5836 0.786465 30.4716 0.792282 30.1319C0.790897 30.051 0.789513 29.9701 0.788086 29.8868C1.03482 29.0625 1.882 29.1562 2.58153 29.1617Z" fill="#FF7705"></path>
  <path d="M27.7687 3.69267C27.8496 3.69129 27.9304 3.6899 28.0137 3.68848C28.3873 3.80027 28.4806 3.96267 28.6818 4.29692C28.746 4.69179 28.742 5.08256 28.7388 5.48192C28.7393 5.59672 28.7397 5.71152 28.7401 5.82979C28.7404 6.07214 28.7396 6.31448 28.7378 6.55682C28.7355 6.92747 28.7378 7.2979 28.7405 7.66854C28.7402 7.90423 28.7397 8.13991 28.7388 8.3756C28.7397 8.48627 28.7406 8.59695 28.7415 8.71099C28.7352 9.19201 28.7302 9.48012 28.4783 9.89875C28.2203 10.1256 28.1085 10.1707 27.7687 10.1648C27.6474 10.1669 27.6474 10.1669 27.5236 10.169C27.1501 10.0572 27.0568 9.89484 26.8556 9.56059C26.7913 9.16573 26.7954 8.77495 26.7985 8.3756C26.7981 8.2608 26.7977 8.146 26.7973 8.02772C26.797 7.78538 26.7978 7.54303 26.7996 7.30069C26.8019 6.93004 26.7996 6.55962 26.7969 6.18897C26.7971 5.95329 26.7977 5.7176 26.7985 5.48192C26.7977 5.37124 26.7968 5.26056 26.7959 5.14653C26.8022 4.6655 26.8072 4.3774 27.0591 3.95876C27.317 3.73189 27.4289 3.68685 27.7687 3.69267Z" fill="#FF7705"></path>
  <path d="M24.6394 45.2985C24.948 45.5703 25.0561 45.6834 25.1363 46.084C25.1511 46.5925 25.0991 46.9455 24.814 47.3731C24.3869 47.6578 24.0348 47.7259 23.5249 47.6954C23.1363 47.5658 22.9442 47.4475 22.679 47.1381C22.5211 46.7433 22.4842 46.3921 22.5581 45.9766C22.731 45.6432 22.8808 45.4162 23.1758 45.1844C23.733 45.0296 24.131 45.0443 24.6394 45.2985Z" fill="#FF7705"></path>
</svg>
