<?xml version="1.0" encoding="UTF-8"?>
<svg xmlns="http://www.w3.org/2000/svg" width="179" height="34" viewBox="0 0 179 34" fill="none">
  <path d="M144.701 15.8018C144.246 15.8018 143.801 15.6692 143.423 15.4208C143.045 15.1724 142.75 14.8193 142.576 14.4061C142.402 13.993 142.357 13.5384 142.445 13.0999C142.534 12.6613 142.753 12.2585 143.075 11.9423C143.396 11.6261 143.806 11.4108 144.252 11.3236C144.698 11.2363 145.16 11.2811 145.581 11.4522C146.001 11.6233 146.36 11.9131 146.612 12.2849C146.865 12.6567 147 13.0938 147 13.541C147 14.1406 146.758 14.7156 146.327 15.1396C145.895 15.5636 145.31 15.8018 144.701 15.8018ZM144.701 11.5141C144.292 11.5092 143.892 11.6238 143.55 11.8432C143.208 12.0627 142.94 12.3771 142.781 12.7466C142.621 13.116 142.577 13.5238 142.653 13.9181C142.73 14.3124 142.924 14.6754 143.211 14.961C143.498 15.2466 143.865 15.4419 144.265 15.522C144.665 15.6021 145.08 15.5635 145.458 15.411C145.835 15.2586 146.158 14.9991 146.386 14.6657C146.613 14.3323 146.734 13.9399 146.734 13.5385C146.733 13.0062 146.519 12.4957 146.139 12.1171C145.758 11.7384 145.242 11.5218 144.701 11.5141ZM145.312 14.728L144.683 13.7109H144.272V14.728H143.987V12.2849H144.801C144.901 12.28 145.001 12.2948 145.095 12.3284C145.19 12.3621 145.276 12.414 145.349 12.481C145.423 12.548 145.482 12.6288 145.523 12.7186C145.565 12.8085 145.587 12.9055 145.59 13.0041C145.589 13.1662 145.531 13.323 145.425 13.4475C145.32 13.5721 145.173 13.6565 145.011 13.6863L145.652 14.728H145.312ZM144.758 12.5534H144.257V13.4474H144.758C144.823 13.4569 144.89 13.4525 144.953 13.4345C145.017 13.4165 145.075 13.3853 145.125 13.343C145.175 13.3007 145.215 13.2483 145.243 13.1894C145.27 13.1304 145.284 13.0664 145.284 13.0016C145.284 12.9368 145.27 12.8728 145.243 12.8139C145.215 12.7549 145.175 12.7025 145.125 12.6602C145.075 12.6179 145.017 12.5867 144.953 12.5687C144.89 12.5507 144.823 12.5463 144.758 12.5558V12.5534ZM111.758 11.3368C111.681 11.3368 111.656 11.3614 110.962 11.3885C110.268 11.4156 108.898 11.4427 106.165 11.4427H102.847C100.114 11.4427 98.7639 11.418 98.0501 11.3885C97.3362 11.3589 97.3312 11.3368 97.2536 11.3368C96.9355 11.3368 96.9355 11.5461 96.9355 12.1446V14.5433C96.9355 14.6738 96.9355 14.9866 97.201 14.9866C97.4665 14.9866 97.5441 14.8807 98.0225 13.9178C98.3331 13.2503 98.9593 12.2849 102.564 12.2529C102.937 12.2652 103.095 12.349 103.095 12.9277V25.0447C103.095 26.0618 103.095 26.7686 101.767 26.8425C101.211 26.8942 100.843 26.9213 100.843 27.2858C100.843 27.6503 101.186 27.6749 101.399 27.6749C101.9 27.6749 104.049 27.5715 104.5 27.5715C105.376 27.5715 106.754 27.6749 107.628 27.6749C107.841 27.6749 108.184 27.6749 108.184 27.2858C108.184 26.8967 107.814 26.8671 107.255 26.8425C105.93 26.7637 105.93 26.0593 105.93 24.9929V13.11C105.93 12.4327 106.015 12.2899 106.789 12.2578C110.09 12.3465 110.689 13.2701 110.99 13.9178C111.468 14.8807 111.521 14.9866 111.811 14.9866C112.102 14.9866 112.077 14.6738 112.077 14.5433V12.1421C112.077 11.5461 112.077 11.3368 111.758 11.3368ZM83.1069 23.5325C82.8564 23.5325 82.8163 23.6359 82.3379 24.5472C81.1732 26.7637 79.5301 26.7637 78.3629 26.7637C76.1362 26.7637 75.5802 26.478 75.5802 24.626V20.1462C75.5802 19.3655 75.7906 19.3655 77.063 19.3655C79.2371 19.3655 79.981 19.3901 80.537 21.3997C80.6698 21.8923 80.8276 22.0253 81.038 22.0253C81.3561 22.0253 81.3561 21.6608 81.3561 21.5032C81.3561 21.2938 81.2759 20.3826 81.2759 20.2003C81.2759 19.6265 81.4613 16.9421 81.4613 16.58C81.4613 16.2944 81.3285 16.2131 81.1707 16.2131C81.0129 16.2131 80.9052 16.2673 80.7725 16.6047C80.2941 17.9863 80.0586 18.5577 77.1156 18.5577C75.5802 18.5577 75.5802 18.3483 75.5802 17.5159V13.7331C75.5802 12.4302 75.6854 12.2554 77.0104 12.2554C80.7675 12.2554 81.4087 13.2405 81.7293 13.9227C82.2077 14.8856 82.2603 14.9915 82.5508 14.9915C82.8414 14.9915 82.8163 14.6788 82.8163 14.5482V12.1421C82.8163 11.5436 82.8163 11.3343 82.4982 11.3343C82.4181 11.3343 82.393 11.3589 81.7042 11.386C81.0154 11.4131 79.6353 11.4402 76.9077 11.4402H75.6428C73.3885 11.4402 72.2489 11.4156 71.6678 11.386C71.4457 11.3809 71.2241 11.3636 71.004 11.3343C70.8187 11.3343 70.473 11.3343 70.473 11.7013C70.473 12.0682 70.8462 12.1175 71.4273 12.1421C72.7523 12.2209 72.7523 12.9228 72.7523 13.9916V24.9929C72.7523 26.0618 72.7523 26.7661 71.4273 26.8425C70.8713 26.8942 70.473 26.9213 70.473 27.2858C70.473 27.6503 70.8187 27.6749 71.0291 27.6749C71.2395 27.6749 71.4273 27.6478 71.8531 27.6232C72.2789 27.5986 72.9402 27.5715 74.0272 27.5715H74.3428C74.5031 27.5715 75.748 27.5961 77.2608 27.6232C78.7737 27.6503 80.6523 27.6749 82.0023 27.6749C82.7738 27.6749 83.0367 27.3892 83.0618 26.8917C83.1419 25.9288 83.435 24.259 83.435 23.9216C83.425 23.7689 83.3473 23.5325 83.1069 23.5325ZM126.366 23.5325C126.116 23.5325 126.075 23.6359 125.597 24.5472C124.432 26.7637 122.789 26.7637 121.622 26.7637C119.395 26.7637 118.839 26.478 118.839 24.626V20.1462C118.839 19.3655 119.05 19.3655 120.322 19.3655C122.496 19.3655 123.24 19.3901 123.796 21.3997C123.929 21.8923 124.087 22.0253 124.297 22.0253C124.615 22.0253 124.615 21.6608 124.615 21.5032C124.615 21.2938 124.535 20.3826 124.535 20.2003C124.535 19.6265 124.72 16.9421 124.72 16.58C124.72 16.2944 124.588 16.2131 124.43 16.2131C124.272 16.2131 124.164 16.2673 124.032 16.6047C123.553 17.9863 123.318 18.5577 120.375 18.5577C118.839 18.5577 118.839 18.3483 118.839 17.5159V13.7331C118.839 12.4302 118.945 12.2554 120.27 12.2554C124.027 12.2554 124.668 13.2405 124.988 13.9227C125.467 14.8856 125.519 14.9915 125.81 14.9915C126.101 14.9915 126.075 14.6788 126.075 14.5482V12.1421C126.075 11.5436 126.075 11.3343 125.757 11.3343C125.677 11.3343 125.652 11.3589 124.963 11.386C124.275 11.4131 122.894 11.4402 120.167 11.4402H118.897C116.643 11.4402 115.503 11.4156 114.922 11.386C114.7 11.3809 114.478 11.3636 114.258 11.3343C114.073 11.3343 113.727 11.3343 113.727 11.7013C113.727 12.0682 114.1 12.1175 114.681 12.1421C116.006 12.2209 116.006 12.9228 116.006 13.9916V24.9929C116.006 26.0618 116.006 26.7661 114.681 26.8425C114.125 26.8942 113.727 26.9213 113.727 27.2858C113.727 27.6503 114.073 27.6749 114.283 27.6749C114.494 27.6749 114.681 27.6478 115.107 27.6232C115.533 27.5986 116.194 27.5715 117.281 27.5715H117.597C117.757 27.5715 119.002 27.5961 120.515 27.6232C122.028 27.6503 123.906 27.6749 125.256 27.6749C126.028 27.6749 126.291 27.3892 126.316 26.8917C126.396 25.9288 126.689 24.259 126.689 23.9216C126.684 23.7689 126.604 23.5325 126.366 23.5325ZM91.4627 17.6341C89.2986 16.7574 87.7306 16.0924 87.7306 14.2034C87.7306 13.1691 88.5822 11.6643 90.6787 11.684C92.9329 11.7037 93.4088 13.1617 93.7344 14.2034C94.005 15.0285 94.1152 15.1886 94.3832 15.1886C94.7639 15.1886 94.7639 14.9743 94.7639 14.3906C94.7639 12.051 94.7639 11.8121 94.4383 11.6249C94.0601 11.4377 92.467 11.0141 90.8966 11.0141C87.4626 11.0141 85.569 13.1395 85.569 15.5851C85.569 18.405 87.7056 19.4393 89.8947 20.3974C91.8409 21.2741 93.6768 22.2839 93.6768 24.3575C93.6768 26.51 91.5453 27.239 90.4207 27.239C88.5021 27.239 86.6486 25.6431 86.1301 23.3281C86.0775 23.0818 86.0399 22.8158 85.7995 22.8158C85.4738 22.8158 85.4563 23.1877 85.4563 23.2936C85.4542 24.11 85.5019 24.9259 85.5991 25.7367C85.6717 26.3992 85.7794 26.9336 86.0775 27.1479C86.5634 27.4927 87.8984 28 90.0074 28C93.6042 28 95.8209 25.5372 95.8209 22.5819C95.8159 19.5723 92.978 18.2695 91.4627 17.6341ZM27.7474 11.0141C22.5426 11.0141 18.6352 14.6812 18.6352 19.4664C18.6352 24.5422 22.9809 28 27.6672 28C32.2233 28 36.6692 24.3846 36.6692 19.2275C36.6692 14.6541 32.7593 11.0141 27.7474 11.0141ZM27.8801 27.2686C24.3109 27.2686 21.7661 23.1951 21.7661 18.9123C21.7661 15.1565 24.1531 11.7431 27.4318 11.7431C31.6347 11.7431 33.5258 16.1761 33.5258 19.3334C33.5258 23.1705 31.5796 27.2686 27.8801 27.2686ZM16.9395 5C16.5721 5.05255 16.2012 5.07807 15.8299 5.07635C14.828 5.11329 12.8242 5.15023 8.84921 5.15023H8.01513C4.22047 5.15023 2.83285 5.11083 1.84098 5.07635C1.48164 5.0704 1.12292 5.04491 0.766447 5C0.500946 5 0 5 0 5.52704C0 6.05407 0.576087 6.09348 1.3776 6.16736C3.29372 6.28065 3.29372 7.29778 3.29372 8.84195V24.4363C3.29372 25.6874 3.29372 26.5543 1.66063 26.6529C0.974339 26.7169 0.520983 26.7489 0.520983 27.1996C0.520983 27.6503 0.941778 27.6798 1.20477 27.6798C1.82595 27.6798 4.52855 27.5518 5.08209 27.5518C6.16163 27.5518 7.91244 27.6798 8.98697 27.6798C9.23744 27.6798 9.67076 27.6798 9.67076 27.1996C9.67076 26.7193 9.21489 26.6726 8.5286 26.6504C6.89802 26.5543 6.89802 25.6874 6.89802 24.3723V18.5897C6.89802 17.5208 6.89802 17.0972 7.5217 16.9298C7.92997 16.8214 9.6958 16.8214 10.8204 16.8214C11.7772 16.8214 14.2294 16.8214 14.7654 18.8532C14.843 19.0428 15.096 20.0181 15.1862 20.2841C15.2513 20.4737 15.3991 20.9047 15.7973 20.885C16.2557 20.8628 16.2582 20.4343 16.2582 20.1708L16.1054 18.4C16.0303 17.5331 16.0303 16.8953 16.0303 16.5554C16.0303 15.9914 16.143 13.4301 16.143 12.9056C16.143 12.5287 16.0278 12.2849 15.6846 12.2628C15.3415 12.2406 15.1486 12.5657 15.0735 12.8662C14.585 14.8216 14.0265 15.654 10.9356 15.654C10.3621 15.654 8.08777 15.654 7.51168 15.5777C7.01073 15.5013 6.90053 15.4644 6.90053 13.4326V8.16222C6.90053 6.39394 7.55426 6.31759 8.85421 6.31759C14.813 6.31759 15.3114 7.12046 16.4536 9.63005C16.5963 9.94282 16.7466 10.3837 17.1674 10.3837C17.5882 10.3837 17.5882 9.78274 17.5882 9.66699V5.67727C17.5882 5.18717 17.5506 5 16.9395 5ZM52.1409 26.8942C51.3895 26.7858 51.0288 26.1381 50.5003 25.2269L47.9305 20.7446C47.3193 19.6511 47.0012 19.496 46.6556 19.2866C47.5573 19.1044 50.2874 18.4789 50.2874 15.4299C50.2874 14.5162 49.8892 11.3368 45.2003 11.3368C44.4038 11.3368 40.8797 11.4427 40.1633 11.4427C39.8452 11.4427 38.5478 11.3368 38.2823 11.3368C37.4081 11.3368 37.3004 11.3368 37.3004 11.7037C37.3004 12.0707 37.6736 12.0928 38.2547 12.1199C39.5522 12.1987 39.5522 12.9031 39.5522 13.9695V25.0176C39.5522 26.111 39.5522 26.7908 38.2547 26.8942C37.6987 26.9188 37.3004 26.9459 37.3004 27.3129C37.3004 27.6798 37.6461 27.6774 37.8565 27.6774C38.3349 27.6774 40.4814 27.5739 40.9323 27.5739C41.0375 27.5739 43.6098 27.6774 44.1133 27.6774C44.3237 27.6774 44.6693 27.702 44.6693 27.34C44.6693 26.9779 44.2961 26.9213 43.715 26.8967C42.39 26.8179 42.39 26.1135 42.39 25.02V20.3407C42.39 19.8974 42.4451 19.7423 42.891 19.7423C44.0857 19.7423 44.216 19.8457 44.7996 20.9737L48.0106 26.8942C48.3012 27.4409 48.4064 27.6774 48.8848 27.6774H52.3764C52.5617 27.6774 52.8247 27.633 52.8247 27.3646C52.8247 27.0962 52.697 26.9755 52.1409 26.8942ZM43.715 19.0502C42.39 19.0502 42.39 18.9985 42.39 18.0848V13.7084C42.39 12.6913 42.4151 12.0657 43.6424 12.0657C46.9286 12.0657 47.2993 14.8536 47.2993 15.7919C47.2943 19.0502 44.6693 19.0502 43.715 19.0502ZM68.7673 26.8942C68.0159 26.7858 67.6552 26.1381 67.1267 25.2269L64.5569 20.7446C63.9457 19.6511 63.6276 19.496 63.282 19.2866C64.1837 19.1044 66.9138 18.4789 66.9138 15.4299C66.9138 14.5162 66.5156 11.3368 61.8267 11.3368C61.0302 11.3368 57.5061 11.4427 56.7897 11.4427C56.4716 11.4427 55.1742 11.3368 54.9086 11.3368C54.0345 11.3368 53.9268 11.3368 53.9268 11.7037C53.9268 12.0707 54.3 12.0928 54.8811 12.1199C56.1785 12.1987 56.1785 12.9031 56.1785 13.9695V25.0176C56.1785 26.111 56.1785 26.7908 54.8811 26.8942C54.3251 26.9188 53.9268 26.9459 53.9268 27.3129C53.9268 27.6798 54.2724 27.6774 54.4828 27.6774C54.9613 27.6774 57.1078 27.5739 57.5587 27.5739C57.6639 27.5739 60.2362 27.6774 60.7397 27.6774C60.9501 27.6774 61.2957 27.702 61.2957 27.34C61.2957 26.9779 60.9225 26.9213 60.3414 26.8967C59.0164 26.8179 59.0164 26.1135 59.0164 25.02V20.3407C59.0164 19.8974 59.0715 19.7423 59.5173 19.7423C60.7121 19.7423 60.8424 19.8457 61.426 20.9737L64.6345 26.8942C64.9251 27.4409 65.0303 27.6774 65.5087 27.6774H69.0003C69.1856 27.6774 69.4486 27.633 69.4486 27.3646C69.4486 27.0962 69.3234 26.9755 68.7673 26.8942ZM60.3414 19.0502C59.0164 19.0502 59.0164 18.9985 59.0164 18.0848V13.7084C59.0164 12.6913 59.0415 12.0657 60.2688 12.0657C63.555 12.0657 63.9257 14.8536 63.9257 15.7919C63.9182 19.0502 61.2957 19.0502 60.3414 19.0502ZM143.02 26.8942C142.269 26.7858 141.908 26.1381 141.379 25.2269L138.81 20.7446C138.198 19.6511 137.88 19.496 137.535 19.2866C138.436 19.1044 141.166 18.4789 141.166 15.4299C141.166 14.5162 140.768 11.3368 136.079 11.3368C135.283 11.3368 131.759 11.4427 131.042 11.4427C130.724 11.4427 129.427 11.3368 129.161 11.3368C128.287 11.3368 128.179 11.3368 128.179 11.7037C128.179 12.0707 128.553 12.0928 129.134 12.1199C130.431 12.1987 130.431 12.9031 130.431 13.9695V25.0176C130.431 26.111 130.431 26.7908 129.134 26.8942C128.578 26.9188 128.179 26.9459 128.179 27.3129C128.179 27.6798 128.525 27.6774 128.736 27.6774C129.214 27.6774 131.36 27.5739 131.811 27.5739C131.917 27.5739 134.489 27.6774 134.992 27.6774C135.203 27.6774 135.548 27.702 135.548 27.34C135.548 26.9779 135.175 26.9213 134.594 26.8967C133.252 26.8154 133.252 26.111 133.252 25.0176V20.3383C133.252 19.895 133.307 19.7398 133.752 19.7398C134.947 19.7398 135.077 19.8432 135.661 20.9712L138.882 26.8942C139.173 27.4409 139.278 27.6774 139.756 27.6774H143.248C143.433 27.6774 143.696 27.633 143.696 27.3646C143.696 27.0962 143.571 26.9755 143.02 26.8942ZM134.589 19.0502C133.264 19.0502 133.264 18.9985 133.264 18.0848V13.7084C133.264 12.6913 133.289 12.0657 134.516 12.0657C137.803 12.0657 138.173 14.8536 138.173 15.7919C138.166 19.0502 135.543 19.0502 134.589 19.0502Z" fill="white"></path>
</svg>
