<?xml version="1.0" encoding="UTF-8"?>
<svg xmlns="http://www.w3.org/2000/svg" width="147" height="23" viewBox="0 0 147 23" fill="none">
  <path d="M82.9835 5.51338C84.4681 6.22275 85.2167 6.96162 85.9 8.45519C86.0309 9.51095 86.0132 10.5554 85.9949 11.6179C85.9936 11.9203 85.9922 12.2227 85.9908 12.5343C85.9853 13.4968 85.9731 14.4591 85.9608 15.4216C85.9559 16.0755 85.9514 16.7295 85.9475 17.3834C85.9368 18.9836 85.92 20.5836 85.9 22.1836C84.4028 22.1836 82.9057 22.1836 81.3632 22.1836C81.3567 21.8207 81.3503 21.4578 81.3437 21.0838C81.3191 19.7399 81.2903 18.3962 81.2603 17.0524C81.2479 16.4703 81.2366 15.8882 81.2264 15.306C81.2117 14.4702 81.1929 13.6346 81.1733 12.799C81.1695 12.5378 81.1658 12.2766 81.1619 12.0075C81.1776 10.5685 81.1776 10.5685 80.391 9.4358C78.6366 9.20325 78.6366 9.20325 77.1208 9.93456C76.2756 11.0396 76.307 12.0321 76.3048 13.3735C76.2994 13.6256 76.2941 13.8777 76.2885 14.1374C76.2728 14.94 76.2659 15.7424 76.2592 16.5452C76.2501 17.0904 76.2404 17.6356 76.2301 18.1808C76.2062 19.5151 76.1901 20.8492 76.1782 22.1836C74.681 22.1836 73.1839 22.1836 71.6414 22.1836C71.6414 16.7903 71.6414 11.397 71.6414 5.84025C73.1385 5.84025 74.6357 5.84025 76.1782 5.84025C76.2851 6.37958 76.3921 6.91891 76.5023 7.47459C76.8097 7.21167 77.1172 6.94874 77.4339 6.67785C79.1412 5.21785 80.7936 5.30549 82.9835 5.51338Z" fill="white"></path>
  <path d="M101.01 5.92188C102.563 5.92188 104.116 5.92188 105.717 5.92188C105.724 6.27327 105.73 6.62466 105.737 6.9867C105.763 8.29001 105.793 9.5932 105.824 10.8964C105.837 11.4605 105.848 12.0247 105.859 12.5888C105.874 13.3996 105.894 14.2102 105.914 15.0209C105.918 15.2733 105.922 15.5256 105.926 15.7857C105.961 17.0218 106.004 17.6193 106.726 18.672C108.547 18.9198 108.547 18.9198 110.119 18.1724C110.996 17.0677 110.963 16.075 110.965 14.7336C110.971 14.4814 110.976 14.2293 110.982 13.9695C110.999 13.1668 111.006 12.3642 111.013 11.5613C111.022 11.016 111.032 10.4707 111.043 9.92544C111.068 8.59094 111.084 7.25654 111.097 5.92188C112.65 5.92188 114.204 5.92188 115.804 5.92188C115.804 11.3162 115.804 16.7104 115.804 22.2682C114.251 22.2682 112.697 22.2682 111.097 22.2682C110.93 21.459 110.93 21.459 110.76 20.6335C110.448 20.8965 110.136 21.1595 109.815 21.4304C108.482 22.5534 107.244 22.7308 105.521 22.7062C104.127 22.5157 102.997 21.9401 102.018 20.9605C101.036 19.1376 100.871 17.6973 100.911 15.6594C100.913 15.3797 100.914 15.0999 100.915 14.8116C100.921 13.9256 100.934 13.0399 100.947 12.1539C100.952 11.5501 100.956 10.9462 100.96 10.3424C100.971 8.8688 100.989 7.39538 101.01 5.92188Z" fill="white"></path>
  <path d="M48.1582 6.25901C49.1548 7.14247 49.9461 8.08124 50.5487 9.2568C50.5487 9.91632 50.5487 10.5758 50.5487 11.2553C49.0837 11.2553 47.6187 11.2553 46.1093 11.2553C45.9543 10.9324 45.7994 10.6096 45.6397 10.2769C45.2016 9.23322 45.2016 9.23322 44.4018 8.92372C43.0932 8.7819 42.5135 8.82272 41.3924 9.52744C40.11 10.7783 40.2392 11.9927 40.2185 13.691C40.2097 14.1226 40.2009 14.5541 40.1918 14.9987C40.3107 16.328 40.6088 17.1242 41.3284 18.2502C42.4237 18.7844 43.5585 18.7915 44.7433 18.5833C45.6765 17.7197 46.0454 17.1046 46.4508 15.9186C47.9158 15.9186 49.3808 15.9186 50.8902 15.9186C50.4603 18.4345 49.828 19.9129 47.7981 21.4952C45.8262 22.7388 43.2685 22.8669 40.9869 22.5803C38.6507 21.8446 36.9463 20.4299 35.7577 18.3335C34.6782 15.7571 34.7273 12.5472 35.4709 9.88655C36.55 7.53171 38.2696 6.20977 40.624 5.13484C43.3665 4.58892 45.7113 4.86342 48.1582 6.25901Z" fill="white"></path>
  <path d="M29.0159 5.82771C30.6181 6.53034 31.7119 7.6612 32.466 9.21083C32.6749 9.99664 32.7484 10.683 32.7994 11.4994C31.3377 11.6113 29.9225 11.6783 28.465 11.4994C27.5689 10.539 27.5689 10.539 27.1313 9.53778C26.1682 9.06557 25.5321 9.08761 24.464 9.21083C23.4298 10.0446 22.8884 10.5765 22.4635 11.8264C22.4231 12.5681 22.405 13.311 22.401 14.0537C22.3939 14.6435 22.3939 14.6435 22.3866 15.2453C22.4641 16.4136 22.6408 17.2984 23.1303 18.3653C24.3651 18.7689 25.5142 18.8775 26.7979 18.6922C27.9628 17.8721 28.1096 17.4704 28.465 16.0767C29.8953 16.0767 31.3257 16.0767 32.7994 16.0767C32.6654 17.9815 32.4493 19.1637 31.1323 20.6539C28.6716 22.4539 26.527 22.9372 23.4637 22.6156C21.2732 21.9292 19.7333 20.8884 18.4625 19.0192C17.1432 16.4318 17.0975 13.2212 17.8998 10.4675C18.6893 8.39152 20.1884 7.0883 22.0311 5.90306C24.028 5.15041 26.9698 5.33425 29.0159 5.82771Z" fill="white"></path>
  <path d="M94.9429 0.676025C94.9429 2.30495 94.9429 3.93388 94.9429 5.61216C96.0327 5.61216 97.1226 5.61216 98.2454 5.61216C98.2454 6.69812 98.2454 7.78407 98.2454 8.90292C97.2646 8.90292 96.2837 8.90292 95.2731 8.90292C95.3821 11.9436 95.4911 14.9842 95.6034 18.1171C96.9184 18.3543 96.9184 18.3543 98.2454 18.4461C98.2454 19.6407 98.2454 20.8352 98.2454 22.066C97.4607 22.1018 96.6776 22.1277 95.8923 22.1482C95.6727 22.1593 95.453 22.1703 95.2267 22.1817C93.5303 22.2148 92.5957 21.8368 91.31 20.7497C90.4856 19.5537 90.5737 18.42 90.585 17.0013C90.5864 16.6535 90.5864 16.6535 90.5878 16.2986C90.5915 15.561 90.5998 14.8235 90.6082 14.0859C90.6115 13.5845 90.6146 13.0832 90.6173 12.5819C90.6245 11.3555 90.6359 10.1292 90.6495 8.90292C89.9956 8.90292 89.3417 8.90292 88.668 8.90292C88.668 7.81697 88.668 6.73102 88.668 5.61216C89.3219 5.61216 89.9758 5.61216 90.6495 5.61216C90.6495 4.52621 90.6495 3.44026 90.6495 2.32141C91.2405 2.04567 91.8324 1.77178 92.4246 1.49872C92.7542 1.346 93.0837 1.19329 93.4232 1.03595C94.2823 0.676025 94.2823 0.676025 94.9429 0.676025Z" fill="white"></path>
  <path d="M129.106 5.39968C129.106 6.92011 129.106 8.44054 129.106 10.007C128.289 10.1249 127.472 10.2427 126.655 10.3606C125.5 10.7738 125.149 11.2903 124.483 12.3107C124.272 13.4211 124.272 13.4211 124.281 14.6311C124.276 14.8479 124.27 15.0647 124.265 15.2881C124.249 15.9755 124.242 16.6626 124.235 17.35C124.226 17.8182 124.216 18.2863 124.205 18.7545C124.18 19.8976 124.166 21.0401 124.152 22.1836C122.627 22.1836 121.101 22.1836 119.529 22.1836C119.529 16.7535 119.529 11.3234 119.529 5.72877C121.054 5.72877 122.58 5.72877 124.152 5.72877C124.261 6.38039 124.37 7.032 124.483 7.70336C124.642 7.56464 124.801 7.42591 124.965 7.28299C125.174 7.10269 125.382 6.92239 125.597 6.73663C125.908 6.46746 125.908 6.46746 126.224 6.19285C127.307 5.31139 127.557 5.39968 129.106 5.39968Z" fill="white"></path>
  <path d="M2.46195 6.78137C5.0154 4.90563 9.62061 4.54783 12.4366 6.1632C13.6549 7.03625 14.7041 8.2889 14.959 9.77746C14.9957 10.5781 14.9926 11.3689 14.9727 12.17C14.9708 12.46 14.9688 12.7502 14.9668 13.0489C14.9594 13.9699 14.9419 14.8908 14.9248 15.8116C14.9181 16.4383 14.9127 17.0649 14.9073 17.6915C14.8926 19.2229 14.8694 20.7541 14.8418 22.2853H10.4922C10.3266 21.4689 10.3262 21.4688 10.1573 20.6359C9.97102 20.8399 9.78469 21.0438 9.59281 21.254C8.32662 22.4011 7.14191 22.7003 5.44632 22.6798C5.1348 22.6777 4.82294 22.6752 4.50199 22.673C4.18089 22.6674 3.85918 22.6621 3.52835 22.6564C3.20093 22.6534 2.87351 22.6506 2.53617 22.6476C1.73078 22.6398 0.925451 22.629 0.120152 22.6153C0.0810169 21.5573 0.0570743 20.4991 0.0361672 19.4405C0.0249582 19.1426 0.0145124 18.8442 0.00296408 18.5372C-0.0250915 16.6425 0.133027 15.5184 1.45804 14.0382C2.11539 13.4958 2.11556 13.4956 2.77542 13.1105C2.99237 12.9791 3.21011 12.8484 3.43363 12.713C4.95274 12.013 6.43169 12.0227 8.08695 12.0392C8.47548 12.0422 8.86438 12.0449 9.26468 12.048C9.55917 12.0518 9.85386 12.0557 10.1573 12.0597C10.047 10.4053 10.0468 10.4053 9.15335 9.09094C8.45098 8.9486 8.45076 8.94831 7.66898 8.9464C7.4073 8.93323 7.14562 8.91994 6.87601 8.90637C6.63406 8.96717 6.3919 9.02829 6.14261 9.09094C5.9917 9.36384 5.84106 9.63691 5.68558 9.91808C5.5053 10.1894 5.32445 10.4608 5.13871 10.7403C4.08942 10.9014 4.08931 10.9009 2.9014 10.8429C2.30945 10.8206 2.30902 10.8207 1.70511 10.798C1.4029 10.7788 1.10046 10.7601 0.789097 10.7403C1.03105 9.0775 1.34105 8.08481 2.46195 6.78137ZM8.54691 15.0079C7.27475 14.9916 6.32089 15.0024 5.2432 15.7501C4.59435 16.6337 4.66905 17.2649 4.80375 18.3273C5.13823 18.9456 5.13873 18.9456 5.80765 19.3165C7.44189 19.5244 8.11 19.5623 9.48832 18.6564C10.3585 17.3694 10.3585 17.3694 10.1573 15.0284C9.92053 15.0245 9.69075 15.0205 9.46097 15.0167C9.15036 15.0136 8.84838 15.0109 8.54691 15.0079Z" fill="white"></path>
  <path d="M57.2551 5.7373C59.2524 5.00075 62.2096 5.16873 64.2434 5.68847C66.1493 6.55403 67.3318 7.88267 68.1448 9.79101C68.3748 11.0692 68.3743 11.07 68.3743 15.0283H57.3333C58.0423 17.7397 58.0424 17.7402 58.9221 18.6768C60.2285 19.2134 61.4552 19.1665 62.7913 18.7393C63.5039 18.2839 63.5035 18.2832 64.0247 17.0068H68.3743C67.9683 19.0079 67.3816 20.0997 65.761 21.3779C63.4993 22.6021 61.2193 22.9483 58.6721 22.6143C56.479 21.8996 54.931 20.8769 53.6526 18.9863C52.4186 16.5532 52.2453 13.4757 52.8548 10.8428C53.693 8.4547 55.1515 7.10466 57.2551 5.7373ZM61.6829 8.43066C60.436 8.27375 59.8404 8.34066 58.7346 8.94629C58.0028 9.75023 58.0028 9.75063 57.6682 12.0596H63.6907V10.0801C63.0038 9.0643 62.8013 8.82883 61.6829 8.43066Z" fill="#F5F5F5"></path>
  <path d="M133.248 7.15437C136.502 4.57464 140.045 4.48611 143.654 6.44929C145.047 7.48313 145.671 8.45223 146.33 10.0772V15.0255H135.623C135.623 16.4838 135.53 16.8843 136.292 17.9942C137.26 18.9759 137.766 19.2896 139.158 19.4581C140.361 19.3071 140.815 19.1735 141.646 18.3243C141.873 17.8758 142.094 17.4403 142.315 17.005H146.664V17.0069H146.529C146.412 17.2355 146.299 17.4579 146.185 17.6798C146.041 17.9839 145.9 18.2791 145.76 18.5743C144.591 20.8229 143.273 21.8859 141.127 22.543C140.872 22.606 140.62 22.6672 140.37 22.7286C137.447 22.7368 135.293 22.4144 132.989 20.4884C130.733 17.8067 130.686 15.1053 130.867 11.7442C131.069 9.86371 131.898 8.45866 133.248 7.15437ZM139.973 8.42879C138.561 8.16212 138.077 8.3573 136.857 9.12898C135.958 10.0773 135.958 10.0777 135.623 12.0567H141.981C141.867 11.2718 141.756 10.51 141.646 9.74812C140.914 8.94416 140.914 8.94406 139.973 8.42879Z" fill="#F0F0F0"></path>
</svg>
