<?xml version="1.0" encoding="UTF-8"?>
<svg xmlns="http://www.w3.org/2000/svg" width="49" height="48" viewBox="0 0 49 48" fill="none">
  <g clip-path="url(#clip0_3384_19156)">
    <path d="M24.7902 7.18367C24.8599 7.18378 24.9296 7.18389 25.0014 7.18401C29.035 7.2017 32.4763 8.7718 35.4425 11.4376C35.5059 11.494 35.5692 11.5504 35.6344 11.6086C38.2691 14.099 39.8515 17.9811 39.963 21.5593C40.0491 25.917 38.5578 29.8306 35.5502 32.9869C34.9451 33.603 34.2685 34.1399 33.5793 34.6583C32.7232 35.3231 32.1694 36.1186 32.0157 37.2127C31.9594 37.7543 31.9629 38.2939 31.9639 38.8378C31.9626 39.0607 31.9612 39.2835 31.9597 39.5064C31.9576 39.8538 31.9562 40.2012 31.9574 40.5486C31.9582 40.8866 31.9555 41.2245 31.9522 41.5625C31.9533 41.6647 31.9545 41.767 31.9557 41.8724C31.9413 42.7946 31.6244 43.5649 31.0011 44.2501C30.6435 44.5752 30.2058 44.8666 29.7187 44.9323C29.439 45.0362 29.3888 45.2239 29.2609 45.4864C28.6698 46.6246 27.7442 47.3833 26.5363 47.8126C25.1864 48.214 23.6884 48.132 22.43 47.4914C21.49 46.9525 20.7575 46.2657 20.307 45.2601C20.1358 44.9545 20.0507 44.9139 19.7218 44.8184C18.9756 44.5552 18.3816 44.0116 18.005 43.3126C17.7632 42.7627 17.7881 42.2168 17.7853 41.6273C17.7839 41.5184 17.7826 41.4095 17.7812 41.2973C17.7768 40.9495 17.7736 40.6017 17.7707 40.254C17.7668 39.7977 17.7617 39.3414 17.756 38.8851C17.7553 38.7303 17.7553 38.7303 17.7545 38.5725C17.738 37.2685 17.5681 36.0278 16.6339 35.045C16.2478 34.6882 15.8224 34.3861 15.3994 34.0749C13.9386 32.9727 12.7647 31.5568 11.8175 30.0001C11.7842 29.9454 11.7509 29.8908 11.7166 29.8345C10.8232 28.3389 10.2669 26.6432 9.94254 24.9376C9.92151 24.8313 9.90048 24.7251 9.87882 24.6157C9.23462 20.7284 10.27 16.6579 12.5459 13.4707C12.8475 13.0573 13.1653 12.6639 13.505 12.2813C13.5468 12.2338 13.5885 12.1864 13.6315 12.1374C13.7629 11.9898 13.897 11.8453 14.0324 11.7012C14.1531 11.5716 14.1531 11.5716 14.2763 11.4394C14.6049 11.2001 14.7944 11.2059 15.1925 11.2501C15.4152 11.3497 15.4152 11.3497 15.5675 11.5313C15.6822 11.9113 15.7024 12.1035 15.5265 12.463C15.3412 12.6844 15.1599 12.8741 14.9523 13.0723C12.6505 15.3227 11.3875 18.7482 11.3156 21.9252C11.2942 25.0255 12.1789 28.1336 14.1613 30.5626C14.2054 30.6175 14.2495 30.6724 14.295 30.729C15.0662 31.6826 15.9 32.5122 16.8918 33.2403C18.1282 34.1548 18.8312 35.1598 19.2238 36.6563C19.2238 36.7491 19.2238 36.8419 19.2238 36.9376C19.3026 36.9365 19.3814 36.9355 19.4627 36.9344C20.2061 36.925 20.9496 36.9179 21.6931 36.9133C22.0753 36.9108 22.4575 36.9075 22.8397 36.9022C23.2087 36.8971 23.5776 36.8943 23.9467 36.8931C24.0873 36.8922 24.228 36.8905 24.3686 36.888C24.5659 36.8846 24.763 36.8841 24.9604 36.8844C25.0726 36.8833 25.1848 36.8823 25.3004 36.8812C25.6884 36.9545 25.8293 37.0972 26.0675 37.4063C26.0675 37.7492 26.05 37.9631 25.839 38.2384C25.5256 38.464 25.2989 38.4489 24.9158 38.4482C24.8554 38.4482 24.795 38.4482 24.7328 38.4483C24.5329 38.4482 24.3331 38.4475 24.1332 38.4467C23.9948 38.4466 23.8563 38.4464 23.7178 38.4463C23.3532 38.446 22.9885 38.445 22.6239 38.444C22.2519 38.4431 21.8799 38.4426 21.5078 38.4422C20.7777 38.4411 20.0476 38.4395 19.3175 38.4376C19.3217 39.0014 19.3282 39.5652 19.337 40.129C19.3396 40.3207 19.3416 40.5124 19.3429 40.7041C19.345 40.9801 19.3493 41.256 19.3542 41.5321C19.3543 41.6173 19.3544 41.7026 19.3545 41.7905C19.3664 42.3102 19.4274 42.6281 19.7863 43.0313C20.2683 43.4329 20.6299 43.4604 21.2299 43.4548C21.3169 43.4555 21.4038 43.4562 21.4934 43.4568C21.7799 43.4585 22.0662 43.4574 22.3527 43.4561C22.5523 43.4564 22.752 43.4567 22.9516 43.4572C23.3696 43.4578 23.7875 43.457 24.2055 43.4552C24.7408 43.4531 25.2761 43.4543 25.8114 43.4566C26.2235 43.4579 26.6356 43.4575 27.0477 43.4565C27.245 43.4563 27.4424 43.4566 27.6397 43.4574C27.9158 43.4584 28.1917 43.4569 28.4677 43.4548C28.5896 43.456 28.5896 43.456 28.7139 43.4571C29.2208 43.4501 29.5085 43.3669 29.9113 43.0313C30.3354 42.5548 30.3426 42.1402 30.3434 41.5321C30.345 41.4434 30.3465 41.3547 30.3481 41.2633C30.3526 40.9816 30.3547 40.6998 30.3566 40.418C30.3592 40.2264 30.362 40.0347 30.365 39.8431C30.3719 39.3746 30.3766 38.9061 30.38 38.4376C30.3087 38.439 30.2373 38.4405 30.1637 38.442C29.8393 38.4479 29.515 38.4515 29.1906 38.4552C29.0221 38.4587 29.0221 38.4587 28.8502 38.4623C28.7417 38.4632 28.6333 38.4641 28.5215 38.465C28.4219 38.4665 28.3222 38.468 28.2195 38.4695C27.9027 38.433 27.7288 38.3446 27.4738 38.1563C27.3289 37.8665 27.3525 37.6319 27.38 37.3126C27.5299 37.1061 27.5299 37.1061 27.755 36.9376C28.0472 36.895 28.0472 36.895 28.3864 36.901C28.5686 36.9028 28.5686 36.9028 28.7544 36.9046C28.8822 36.9077 29.01 36.9109 29.1378 36.9141C29.2671 36.916 29.3964 36.9177 29.5257 36.9193C29.8418 36.9237 30.1577 36.9299 30.4738 36.9376C30.4836 36.8785 30.4934 36.8195 30.5035 36.7587C30.6011 36.218 30.7352 35.7458 30.9836 35.2559C31.0324 35.1597 31.0324 35.1597 31.0822 35.0615C31.5986 34.0983 32.4096 33.4761 33.2819 32.8411C34.1467 32.187 34.8849 31.4304 35.5363 30.5626C35.6044 30.4724 35.6726 30.3823 35.7428 30.2894C37.8472 27.383 38.7938 23.7441 38.2433 20.1798C37.8081 17.6428 36.7657 15.3428 35.0675 13.4063C35.0024 13.3287 34.9373 13.2512 34.8701 13.1712C32.7364 10.6916 29.56 9.22028 26.3488 8.81257C24.6725 8.72528 23.008 8.74705 21.38 9.18757C21.3185 9.20363 21.257 9.21969 21.1937 9.23623C20.0034 9.5575 18.6996 10.0991 17.6868 10.8077C17.3652 11.0198 17.1643 11.0178 16.7863 10.9688C16.5636 10.8692 16.5636 10.8692 16.4113 10.6876C16.335 10.3877 16.2842 10.1532 16.367 9.85078C16.5818 9.54817 16.886 9.39181 17.2023 9.21101C17.2733 9.17019 17.3443 9.12937 17.4174 9.08732C19.6836 7.81505 22.195 7.17581 24.7902 7.18367ZM21.9425 45.0001C22.7479 45.9397 23.4634 46.4908 24.7195 46.5935C25.7732 46.5952 26.6453 46.2259 27.3918 45.4923C27.6354 45.279 27.6354 45.279 27.755 45.0001C25.8369 45.0001 23.9188 45.0001 21.9425 45.0001Z" fill="#FF7705"></path>
    <path d="M23.9724 12.9094C24.0761 12.9088 24.0761 12.9088 24.1819 12.9081C24.3277 12.9076 24.4736 12.9076 24.6194 12.908C24.8419 12.9083 25.0642 12.9061 25.2866 12.9037C25.4286 12.9035 25.5706 12.9034 25.7127 12.9035C25.7788 12.9026 25.8449 12.9018 25.9131 12.9009C26.3238 12.9047 26.5862 12.9638 26.9113 13.2188C27.0649 13.539 27.1087 13.8396 27.1391 14.1889C27.1855 15.0271 27.1855 15.0271 27.632 15.6896C28.0178 15.8584 28.3195 15.9823 28.7387 15.8812C29.0985 15.6805 29.4023 15.4106 29.708 15.1366C30.0453 14.8579 30.3521 14.7011 30.7971 14.727C31.3759 14.934 31.7967 15.4867 32.2082 15.9258C32.3117 16.0328 32.4155 16.1396 32.5194 16.2463C33.361 17.1156 33.361 17.1156 33.4214 17.5423C33.3645 18.0429 33.13 18.2917 32.8117 18.668C32.4024 19.1071 32.4024 19.1071 32.255 19.6557C32.286 19.7281 32.3169 19.8005 32.3488 19.8751C32.3939 19.9992 32.3939 19.9992 32.44 20.1259C32.4905 20.2483 32.4905 20.2483 32.5421 20.3731C32.6027 20.5196 32.6632 20.6661 32.7238 20.8126C32.781 20.8186 32.8382 20.8247 32.8971 20.8309C33.158 20.8598 33.4184 20.8918 33.6789 20.9239C33.7688 20.9334 33.8588 20.9429 33.9515 20.9526C34.0388 20.9638 34.1261 20.975 34.2161 20.9865C34.2961 20.9958 34.3761 21.0052 34.4586 21.0148C34.7983 21.1295 34.9459 21.2765 35.1613 21.5626C35.2081 21.8436 35.2272 22.0703 35.2235 22.3506C35.224 22.4259 35.2244 22.5011 35.2249 22.5786C35.2252 22.7371 35.2244 22.8957 35.2224 23.0542C35.2199 23.2962 35.2224 23.5379 35.2254 23.78C35.2251 23.9344 35.2245 24.0888 35.2235 24.2432C35.2245 24.3152 35.2254 24.3872 35.2264 24.4614C35.2184 24.8295 35.1747 25.0134 34.9518 25.3107C34.6803 25.509 34.5621 25.5585 34.2326 25.5678C34.1475 25.5732 34.0624 25.5785 33.9748 25.5841C33.8428 25.5918 33.8428 25.5918 33.7082 25.5997C33.0235 25.6518 33.0235 25.6518 32.4872 26.0355C32.3031 26.4749 32.1999 26.8213 32.3488 27.2813C32.4422 27.4443 32.4422 27.4443 32.5597 27.5984C32.6013 27.6556 32.6429 27.7128 32.6857 27.7717C32.7292 27.8303 32.7727 27.8889 32.8175 27.9493C33.4574 28.8219 33.4574 28.8219 33.38 29.3438C33.2618 29.5077 33.2618 29.5077 33.1021 29.6833C33.0425 29.749 32.9828 29.8146 32.9214 29.8823C32.5762 30.2518 32.2284 30.6178 31.8742 30.9786C31.8014 31.0549 31.7286 31.1312 31.6535 31.2098C31.5822 31.2823 31.5108 31.3547 31.4373 31.4294C31.3737 31.4948 31.3101 31.5602 31.2446 31.6277C30.9845 31.8195 30.7943 31.8554 30.4738 31.8751C30.1106 31.7153 29.8626 31.5422 29.5718 31.2704C29.2836 31.0144 29.0441 30.8167 28.6925 30.6563C28.2011 30.7235 27.8189 30.8907 27.38 31.1251C27.3652 31.2158 27.3652 31.2158 27.3501 31.3084C27.3045 31.5834 27.2573 31.8581 27.2101 32.1329C27.1946 32.2281 27.1791 32.3233 27.1631 32.4214C27.147 32.5133 27.131 32.6051 27.1145 32.6998C27.1003 32.7842 27.0861 32.8686 27.0714 32.9557C26.9972 33.215 26.9069 33.3655 26.7238 33.5626C26.3893 33.674 26.0826 33.6733 25.7343 33.6753C25.665 33.6759 25.5958 33.6764 25.5245 33.677C25.378 33.6779 25.2316 33.6785 25.0852 33.6788C24.862 33.6797 24.6388 33.6826 24.4156 33.6856C24.2731 33.6862 24.1306 33.6867 23.9882 33.6871C23.9218 33.6882 23.8553 33.6894 23.7869 33.6906C23.3741 33.6887 23.1147 33.6283 22.7863 33.3751C22.5446 32.9611 22.5148 32.4544 22.4464 31.9864C22.4339 31.9035 22.4213 31.8207 22.4084 31.7353C22.3776 31.532 22.3473 31.3286 22.3175 31.1251C21.9088 30.8772 21.4935 30.6393 21.005 30.6563C20.5544 30.8514 20.2042 31.1856 19.8419 31.5096C19.5494 31.7632 19.3437 31.8872 18.9425 31.8751C18.5591 31.6807 18.2821 31.4251 17.9801 31.1218C17.9352 31.0768 17.8903 31.0319 17.8441 30.9856C17.75 30.8912 17.6561 30.7965 17.5624 30.7017C17.4187 30.5563 17.2743 30.4117 17.1298 30.2672C16.3352 29.4686 16.3352 29.4686 16.2762 29.0516C16.3331 28.551 16.5676 28.3021 16.8859 27.9258C17.2951 27.4867 17.2951 27.4867 17.4425 26.9382C17.3961 26.8296 17.3961 26.8296 17.3488 26.7188C17.3187 26.636 17.2886 26.5532 17.2576 26.4679C17.2239 26.3864 17.1902 26.3048 17.1554 26.2208C17.0949 26.0743 17.0343 25.9278 16.9738 25.7813C16.9166 25.7747 16.8594 25.7682 16.8005 25.7614C16.5397 25.7306 16.2792 25.6974 16.0187 25.6641C15.9287 25.6538 15.8388 25.6436 15.7461 25.633C15.6587 25.6215 15.5714 25.61 15.4815 25.5982C15.3614 25.5835 15.3614 25.5835 15.239 25.5684C14.9196 25.4751 14.7603 25.3736 14.5363 25.1251C14.4887 24.8407 14.4704 24.6098 14.474 24.3256C14.4736 24.2482 14.4731 24.1708 14.4727 24.091C14.4724 23.9275 14.4732 23.7639 14.4752 23.6004C14.4777 23.3508 14.4752 23.1015 14.4722 22.8518C14.4725 22.6927 14.4731 22.5336 14.474 22.3744C14.4731 22.3001 14.4721 22.2258 14.4712 22.1492C14.4793 21.7614 14.5067 21.6023 14.7458 21.2817C15.0171 21.085 15.1364 21.0353 15.465 21.0261C15.5501 21.0207 15.6351 21.0153 15.7228 21.0098C15.8108 21.0046 15.8987 20.9995 15.9894 20.9942C16.674 20.942 16.674 20.942 17.2104 20.5584C17.3937 20.1207 17.5004 19.7707 17.3488 19.3126C17.2449 19.1475 17.2449 19.1475 17.114 18.9914C17.0678 18.9321 17.0216 18.8728 16.974 18.8118C16.8766 18.6891 16.7784 18.567 16.6795 18.4455C16.4528 18.1523 16.3265 17.9464 16.2447 17.58C16.3521 17.0937 16.63 16.8472 16.9738 16.5001C17.1084 16.3527 17.2429 16.2052 17.3773 16.0577C17.5199 15.908 17.6627 15.7586 17.8058 15.6094C17.8763 15.5323 17.9467 15.4552 18.0193 15.3758C18.6128 14.7629 18.6128 14.7629 19.0971 14.7342C19.5406 14.7803 19.8131 14.9785 20.1378 15.2696C20.725 15.7966 20.725 15.7966 21.4745 15.9159C21.8266 15.8079 22.0421 15.7174 22.3175 15.4688C22.488 15.0356 22.5134 14.5758 22.5493 14.1157C22.5828 13.7319 22.662 13.4509 22.88 13.1251C23.217 12.8892 23.5764 12.9088 23.9724 12.9094ZM24.005 14.5313C23.9784 14.667 23.9569 14.8038 23.9377 14.9407C23.9257 15.0238 23.9137 15.1068 23.9014 15.1923C23.8892 15.2797 23.877 15.3671 23.8644 15.4571C23.8402 15.6287 23.8158 15.8004 23.7912 15.972C23.7805 16.0485 23.7698 16.1249 23.7588 16.2037C23.7238 16.4063 23.7238 16.4063 23.63 16.6876C23.4447 16.7535 23.4447 16.7535 23.1964 16.8047C22.6536 16.9351 22.187 17.1508 21.698 17.4142C21.2688 17.6321 20.9975 17.6693 20.5363 17.5313C20.2845 17.3789 20.0632 17.1999 19.839 17.0098C19.7794 16.9611 19.7197 16.9123 19.6583 16.8621C19.5125 16.7426 19.368 16.6215 19.2238 16.5001C18.8322 16.8298 18.4555 17.1638 18.0988 17.5313C18.2721 18.0513 18.6068 18.4142 18.9521 18.8314C19.1674 19.1867 19.1825 19.372 19.13 19.7813C19.0202 20.0552 19.0202 20.0552 18.8722 20.3204C18.6259 20.779 18.4478 21.2252 18.3006 21.7241C18.1519 22.0178 18.0258 22.0865 17.7238 22.2188C17.435 22.2891 17.1448 22.3345 16.8507 22.377C16.7724 22.3892 16.694 22.4013 16.6132 22.4138C16.4211 22.4435 16.2287 22.4719 16.0363 22.5001C16.0363 23.026 16.0363 23.5519 16.0363 24.0938C16.2446 24.1279 16.2446 24.1279 16.4571 24.1627C16.6391 24.1943 16.8211 24.226 17.0031 24.2579C17.0946 24.2726 17.1862 24.2874 17.2805 24.3025C17.3684 24.3183 17.4563 24.334 17.5469 24.3502C17.6279 24.3639 17.7089 24.3776 17.7924 24.3918C18.062 24.4894 18.1405 24.6002 18.2863 24.8438C18.3654 25.0166 18.3654 25.0166 18.4269 25.1921C18.4501 25.2564 18.4733 25.3208 18.4972 25.3871C18.5204 25.4534 18.5436 25.5196 18.5675 25.5879C18.7461 26.1057 18.7461 26.1057 19.007 26.5844C19.1821 26.9091 19.1827 27.1037 19.13 27.4688C18.9861 27.74 18.8057 27.9735 18.6144 28.2129C18.5652 28.2771 18.516 28.3412 18.4654 28.4072C18.3446 28.5642 18.2219 28.7198 18.0988 28.8751C18.2578 29.2156 18.4492 29.4324 18.7199 29.6954C18.7965 29.7703 18.8731 29.8452 18.9521 29.9224C19.0108 29.979 19.0695 30.0355 19.13 30.0938C19.1812 30.0597 19.2323 30.0256 19.2849 29.9905C19.4337 29.8914 19.5828 29.7926 19.7321 29.6943C19.8897 29.588 20.0451 29.4785 20.1979 29.3654C20.269 29.3138 20.34 29.2622 20.4132 29.209C20.5095 29.1367 20.5095 29.1367 20.6077 29.0629C20.9028 28.9306 21.0703 28.9796 21.38 29.0626C21.578 29.1442 21.7734 29.2325 21.966 29.3262C22.4233 29.5447 22.881 29.7423 23.3557 29.9195C23.5363 30.0001 23.5363 30.0001 23.7238 30.1876C23.7694 30.3795 23.7694 30.3795 23.8003 30.6127C23.812 30.6963 23.8236 30.7799 23.8357 30.866C23.8471 30.9534 23.8585 31.0408 23.8703 31.1309C23.8935 31.3039 23.917 31.4769 23.9409 31.6498C23.951 31.7267 23.9611 31.8036 23.9715 31.8828C23.9875 32.0627 23.9875 32.0627 24.0988 32.1563C24.3498 32.1657 24.5978 32.1693 24.8488 32.168C24.9543 32.1686 24.9543 32.1686 25.0619 32.1691C25.4053 32.201 25.4053 32.201 25.6925 32.0626C25.7192 31.9268 25.7407 31.7901 25.7599 31.6531C25.7719 31.5701 25.7838 31.4871 25.7962 31.4015C25.8084 31.3142 25.8206 31.2268 25.8332 31.1368C25.8573 30.9651 25.8817 30.7935 25.9064 30.6219C25.9171 30.5454 25.9278 30.4689 25.9388 30.3901C25.9738 30.1876 25.9738 30.1876 26.0675 29.9063C26.2495 29.8404 26.2495 29.8404 26.4953 29.7891C27.058 29.6534 27.5581 29.4323 28.0764 29.1796C28.3343 29.0591 28.5491 28.9692 28.8361 28.967C29.1745 29.1067 29.446 29.3156 29.7355 29.5372C30.1513 29.8851 30.1513 29.8851 30.6613 30.0001C30.9037 29.7919 30.9037 29.7919 31.1476 29.5313C31.2321 29.4443 31.3166 29.3573 31.4036 29.2676C31.468 29.2 31.5324 29.1323 31.5988 29.0626C31.4255 28.5426 31.0908 28.1797 30.7455 27.7625C30.5302 27.4071 30.5151 27.2219 30.5675 26.8126C30.6774 26.5386 30.6774 26.5386 30.8253 26.2735C31.0717 25.8148 31.2498 25.3687 31.397 24.8698C31.5456 24.5761 31.6718 24.5073 31.9738 24.3751C32.2626 24.3047 32.5528 24.2593 32.8468 24.2169C32.9252 24.2047 33.0036 24.1926 33.0843 24.18C33.2765 24.1504 33.4689 24.122 33.6613 24.0938C33.6613 23.5679 33.6613 23.0419 33.6613 22.5001C32.9497 22.3763 32.2382 22.2526 31.505 22.1251C31.4122 21.8157 31.3194 21.5063 31.2238 21.1876C31.1475 20.9849 31.068 20.7834 30.9836 20.584C30.9254 20.445 30.9254 20.445 30.866 20.3032C30.7559 20.0481 30.7559 20.0481 30.5675 19.7813C30.5048 19.354 30.5536 19.1025 30.7931 18.7533C30.8882 18.628 30.985 18.5039 31.0832 18.3809C31.1323 18.3168 31.1815 18.2527 31.2322 18.1866C31.353 18.0296 31.4757 17.874 31.5988 17.7188C31.4398 17.3782 31.2483 17.1614 30.9777 16.8985C30.8628 16.7861 30.8628 16.7861 30.7455 16.6714C30.6868 16.6149 30.628 16.5583 30.5675 16.5001C29.9742 16.8802 29.9742 16.8802 29.4308 17.3262C29.1006 17.5775 28.918 17.6075 28.505 17.6251C28.2594 17.5339 28.0531 17.443 27.8253 17.3204C27.2525 17.031 26.6973 16.825 26.0675 16.6876C26.0224 16.4513 25.9775 16.2149 25.9328 15.9786C25.9201 15.9125 25.9075 15.8465 25.8945 15.7784C25.834 15.4581 25.7783 15.1391 25.7361 14.8158C25.7231 14.5434 25.7231 14.5434 25.5988 14.4376C25.3478 14.4282 25.0997 14.4245 24.8488 14.4258C24.7785 14.4255 24.7081 14.4251 24.6356 14.4247C24.2923 14.3929 24.2923 14.3929 24.005 14.5313Z" fill="#FF7705"></path>
    <path d="M27.1501 19.2587C27.5559 19.5154 27.9012 19.7988 28.2238 20.1563C28.2689 20.2021 28.3139 20.2479 28.3604 20.2951C29.2297 21.2217 29.4915 22.4011 29.4718 23.636C29.3784 24.7973 28.8494 25.8872 28.0363 26.7188C26.9751 27.5825 25.813 27.9845 24.4335 27.9233C23.17 27.7642 22.1053 27.2513 21.2621 26.29C20.3968 25.1708 20.1584 23.9829 20.255 22.5938C20.4113 21.789 20.73 21.1098 21.1925 20.4376C21.2505 20.3525 21.3086 20.2674 21.3683 20.1797C22.8296 18.6325 25.2861 18.2152 27.1501 19.2587ZM22.6222 21.1114C21.937 21.8273 21.7141 22.6234 21.7224 23.5965C21.8119 24.4472 22.219 25.1983 22.8701 25.7421C23.6045 26.286 24.4665 26.5332 25.3761 26.3976C26.3051 26.173 27.0388 25.6925 27.5404 24.8797C27.9518 24.1193 28.0758 23.3628 27.881 22.5129C27.5837 21.5864 26.9792 20.9475 26.1613 20.4376C24.9211 19.8834 23.5879 20.2071 22.6222 21.1114Z" fill="#FF7705"></path>
    <path d="M40.13 6.18752C40.3783 6.34473 40.407 6.45484 40.4933 6.7383C40.5097 7.14663 40.3568 7.35118 40.0871 7.65295C39.9163 7.83076 39.7424 8.00489 39.5672 8.17824C39.5035 8.24187 39.4398 8.30549 39.3742 8.37104C39.2401 8.50489 39.1058 8.63851 38.9712 8.77192C38.7647 8.97669 38.559 9.1822 38.3534 9.38784C38.2229 9.51789 38.0923 9.64789 37.9617 9.77785C37.9 9.83947 37.8383 9.90109 37.7747 9.96457C37.6888 10.0496 37.6888 10.0496 37.6011 10.1363C37.5508 10.1863 37.5004 10.2363 37.4485 10.2878C37.2304 10.4851 37.115 10.5014 36.8136 10.5293C36.4738 10.5 36.4738 10.5 36.2453 10.3594C36.0404 10.0316 36.0135 9.74523 36.0988 9.37502C36.2907 9.07977 36.5348 8.84934 36.7895 8.60781C36.8598 8.53834 36.9301 8.46888 37.0025 8.39731C37.2269 8.17647 37.4538 7.95841 37.6808 7.74026C37.833 7.59107 37.9849 7.44172 38.1367 7.2922C38.4143 7.02009 38.6923 6.74838 38.9724 6.47887C39.0286 6.42471 39.0848 6.37056 39.1427 6.31476C39.4699 6.02478 39.7172 6.10061 40.13 6.18752Z" fill="#FF7705"></path>
    <path d="M10.4113 6.18747C10.6938 6.38541 10.9302 6.62307 11.1726 6.86752C11.2425 6.93636 11.3123 7.0052 11.3842 7.07613C11.5311 7.22177 11.6772 7.36815 11.8226 7.51519C12.0453 7.73949 12.2713 7.96007 12.4978 8.18057C12.6403 8.32276 12.7825 8.46514 12.9246 8.60776C12.9923 8.67332 13.0599 8.73887 13.1296 8.80642C13.4332 9.11868 13.6394 9.33451 13.6501 9.78327C13.5988 10.125 13.5988 10.125 13.4523 10.3593C13.1201 10.5638 12.9528 10.5706 12.5675 10.5C11.8774 10.0231 11.2811 9.3374 10.6846 8.7488C10.5682 8.63441 10.4512 8.52061 10.3336 8.4074C10.162 8.24201 9.99223 8.07485 9.82278 7.9072C9.77025 7.85727 9.71772 7.80735 9.6636 7.75592C9.31923 7.40969 9.20801 7.16194 9.19254 6.65622C9.26634 6.40796 9.3353 6.31602 9.53824 6.15817C9.87111 6.05921 10.0731 6.10025 10.4113 6.18747Z" fill="#FF7705"></path>
    <path d="M41.9181 20.9516C42.0598 20.9498 42.0598 20.9498 42.2044 20.948C42.3059 20.9488 42.4073 20.9495 42.5119 20.9503C42.6166 20.9499 42.7213 20.9496 42.8292 20.9492C43.0504 20.949 43.2717 20.9496 43.493 20.9512C43.8319 20.9532 44.1706 20.9512 44.5096 20.9488C44.7245 20.9491 44.9395 20.9496 45.1544 20.9503C45.2559 20.9495 45.3574 20.9488 45.4619 20.948C45.5564 20.9492 45.6509 20.9504 45.7483 20.9516C45.8727 20.952 45.8727 20.952 45.9997 20.9525C46.2959 21.0154 46.4097 21.144 46.5988 21.3751C46.6652 21.6477 46.6306 21.8385 46.5988 22.1251C46.4289 22.3758 46.329 22.4025 46.0363 22.5001C45.8907 22.5101 45.7447 22.515 45.5987 22.5167C45.5102 22.5179 45.4216 22.5191 45.3303 22.5203C45.2348 22.521 45.1393 22.5217 45.0409 22.5224C44.8934 22.5236 44.8934 22.5236 44.7428 22.5247C44.5346 22.526 44.3264 22.527 44.1182 22.5278C43.7999 22.5294 43.4817 22.5335 43.1634 22.5376C42.9611 22.5386 42.7588 22.5394 42.5565 22.54C42.4614 22.5417 42.3663 22.5433 42.2683 22.545C41.8497 22.5437 41.6059 22.5423 41.2418 22.3218C41.0538 22.1096 41.0055 22.0293 41.0148 21.7501C41.0147 21.6882 41.0146 21.6264 41.0144 21.5626C41.1453 21.1006 41.4681 20.9532 41.9181 20.9516Z" fill="#FF7705"></path>
    <path d="M3.94931 20.9516C4.09104 20.9498 4.09104 20.9498 4.23563 20.948C4.3371 20.9488 4.43857 20.9495 4.54312 20.9503C4.64783 20.9499 4.75253 20.9496 4.86041 20.9492C5.08169 20.949 5.30297 20.9496 5.52425 20.9512C5.86316 20.9532 6.20189 20.9512 6.5408 20.9488C6.75577 20.9491 6.97073 20.9496 7.1857 20.9503C7.28717 20.9495 7.38864 20.9488 7.49319 20.948C7.58768 20.9492 7.68216 20.9504 7.77951 20.9516C7.90397 20.952 7.90397 20.952 8.03095 20.9525C8.32711 21.0154 8.44098 21.144 8.63004 21.3751C8.69649 21.6477 8.66188 21.8385 8.63004 22.1251C8.4602 22.3758 8.36026 22.4025 8.06754 22.5001C7.92191 22.5101 7.77591 22.515 7.62996 22.5167C7.5414 22.5179 7.45284 22.5191 7.3616 22.5203C7.26609 22.521 7.17058 22.5217 7.07217 22.5224C6.92462 22.5236 6.92462 22.5236 6.77408 22.5247C6.56587 22.526 6.35767 22.527 6.14946 22.5278C5.83114 22.5294 5.51291 22.5335 5.19461 22.5376C4.99234 22.5386 4.79007 22.5394 4.5878 22.54C4.49267 22.5417 4.39754 22.5433 4.29953 22.545C3.88095 22.5437 3.63717 22.5423 3.27308 22.3218C3.08507 22.1096 3.03678 22.0293 3.04605 21.7501C3.04593 21.6882 3.04581 21.6264 3.04569 21.5626C3.17652 21.1006 3.49931 20.9532 3.94931 20.9516Z" fill="#FF7705"></path>
    <path d="M24.8488 -0.0528564C24.9107 -0.0549109 24.9725 -0.0569653 25.0363 -0.059082C25.347 0.0386206 25.4305 0.190766 25.5988 0.468628C25.655 0.813212 25.6513 1.15429 25.6486 1.50281C25.649 1.603 25.6493 1.70318 25.6497 1.80641C25.6499 2.01791 25.6492 2.22941 25.6477 2.4409C25.6457 2.76438 25.6477 3.08766 25.6501 3.41113C25.6498 3.61682 25.6493 3.82251 25.6486 4.0282C25.6494 4.12479 25.6501 4.22138 25.6509 4.3209C25.6454 4.74157 25.6414 4.992 25.4199 5.3575C25.2093 5.544 25.1263 5.59514 24.8488 5.58972C24.756 5.59153 24.756 5.59153 24.6613 5.59338C24.3514 5.49049 24.2675 5.34206 24.0988 5.06238C24.0424 4.7099 24.0462 4.36074 24.049 4.00439C24.0486 3.9019 24.0483 3.79941 24.0479 3.69381C24.0476 3.47751 24.0483 3.2612 24.0499 3.0449C24.0519 2.7136 24.0499 2.3825 24.0475 2.05121C24.0478 1.84094 24.0482 1.63068 24.049 1.42041C24.0482 1.32128 24.0475 1.22216 24.0467 1.12002C24.0555 0.435325 24.0555 0.435325 24.2777 0.125351C24.4876 -0.00897427 24.6011 -0.0533401 24.8488 -0.0528564Z" fill="#FF7705"></path>
    <path d="M18.5675 3.84363C18.8548 4.1449 18.9947 4.52314 19.1476 4.90418C19.1732 4.96406 19.1987 5.02394 19.2251 5.08563C19.3907 5.49531 19.4539 5.83265 19.4113 6.28113C19.2179 6.56238 19.2179 6.56238 18.9425 6.74988C18.5869 6.75612 18.3803 6.72966 18.0977 6.50855C17.8524 6.20929 17.7366 5.90427 17.6066 5.54285C17.5815 5.47771 17.5563 5.41257 17.5304 5.34546C17.3876 4.95865 17.3085 4.63689 17.3488 4.21863C17.6476 3.6921 18.0126 3.7148 18.5675 3.84363Z" fill="#FF7705"></path>
    <path d="M32.0675 3.84382C32.255 3.98445 32.255 3.98445 32.3488 4.21882C32.3689 4.82153 32.1761 5.307 31.9445 5.85359C31.9168 5.92021 31.8891 5.98683 31.8605 6.05546C31.7419 6.32156 31.6482 6.52615 31.4106 6.70137C31.105 6.78104 30.8701 6.73335 30.5675 6.65632C30.3859 6.50398 30.3859 6.50398 30.2863 6.28132C30.2381 5.71843 30.371 5.31289 30.5851 4.80476C30.6125 4.73406 30.6399 4.66337 30.6681 4.59053C30.8035 4.2626 30.8974 4.06761 31.178 3.84199C31.5107 3.7109 31.7265 3.74909 32.0675 3.84382Z" fill="#FF7705"></path>
    <path d="M42.5558 14.3905C42.7972 14.6745 42.8102 14.8266 42.8173 15.1874C42.7194 15.4821 42.5414 15.5796 42.2863 15.7499C42.0537 15.8612 41.8282 15.9611 41.589 16.0546C41.5288 16.0797 41.4685 16.1049 41.4065 16.1308C41.031 16.2802 40.7209 16.3578 40.3175 16.3124C40.006 16.0822 39.8698 15.9444 39.7902 15.5624C39.8694 15.182 40.0245 15.0647 40.3175 14.8124C40.5524 14.6936 40.7707 14.5941 41.0148 14.5018C41.075 14.4771 41.1353 14.4524 41.1974 14.427C41.6882 14.2351 42.0778 14.1411 42.5558 14.3905Z" fill="#FF7705"></path>
    <path d="M8.16403 14.3059C8.37494 14.383 8.58142 14.4671 8.78824 14.5546C8.85936 14.5827 8.93048 14.6109 9.00375 14.6399C9.65651 14.9107 9.65651 14.9107 9.84879 15.2811C9.91276 15.657 9.8784 15.7988 9.66715 16.119C9.34694 16.3347 9.17186 16.3579 8.79373 16.2923C7.29462 15.8636 7.29462 15.8636 6.94254 15.3749C6.90571 15.0849 6.88347 14.9019 6.94254 14.6249C7.29453 14.2108 7.64791 14.1539 8.16403 14.3059Z" fill="#FF7705"></path>
  </g>
  <defs>
    <clipPath id="clip0_3384_19156">
      <rect width="48" height="48" fill="white" transform="translate(0.848785)"></rect>
    </clipPath>
  </defs>
</svg>
