<?xml version="1.0" encoding="UTF-8"?>
<svg xmlns="http://www.w3.org/2000/svg" width="48" height="48" viewBox="0 0 48 48" fill="none">
  <g clip-path="url(#clip0_3698_752)">
    <path d="M23.9417 7.18354C24.0114 7.18366 24.0811 7.18377 24.1529 7.18389C28.1865 7.20158 31.6278 8.77167 34.594 11.4374C34.6574 11.4939 34.7207 11.5503 34.7859 11.6085C37.4206 14.0989 39.003 17.9809 39.1146 21.5592C39.2006 25.9169 37.7093 29.8304 34.7017 32.9868C34.0966 33.6029 33.42 34.1398 32.7308 34.6582C31.8747 35.323 31.3209 36.1185 31.1672 37.2126C31.1109 37.7541 31.1144 38.2938 31.1154 38.8377C31.1141 39.0606 31.1127 39.2834 31.1112 39.5062C31.1091 39.8537 31.1077 40.201 31.1089 40.5485C31.1097 40.8865 31.107 41.2243 31.1037 41.5623C31.1048 41.6646 31.106 41.7669 31.1072 41.8723C31.0928 42.7944 30.7759 43.5648 30.1526 44.25C29.795 44.5751 29.3573 44.8664 28.8702 44.9322C28.5905 45.0361 28.5403 45.2238 28.4124 45.4863C27.8213 46.6245 26.8957 47.3832 25.6878 47.8125C24.3379 48.2139 22.8399 48.1319 21.5815 47.4913C20.6415 46.9524 19.909 46.2656 19.4585 45.26C19.2873 44.9544 19.2022 44.9138 18.8733 44.8183C18.1271 44.5551 17.5331 44.0115 17.1565 43.3125C16.9148 42.7626 16.9396 42.2166 16.9368 41.6271C16.9354 41.5182 16.9341 41.4093 16.9327 41.2971C16.9283 40.9494 16.9251 40.6016 16.9222 40.2539C16.9183 39.7975 16.9132 39.3413 16.9075 38.885C16.9068 38.7302 16.9068 38.7302 16.906 38.5723C16.8895 37.2684 16.7196 36.0277 15.7855 35.0449C15.3994 34.6881 14.9739 34.386 14.551 34.0748C13.0901 32.9725 11.9162 31.5567 10.969 30C10.9357 29.9453 10.9024 29.8906 10.8681 29.8343C9.97475 28.3388 9.41844 26.6431 9.09404 24.9375C9.07302 24.8312 9.05199 24.725 9.03032 24.6156C8.38612 20.7283 9.42154 16.6577 11.6974 13.4706C11.999 13.0571 12.3168 12.6638 12.6565 12.2812C12.6983 12.2337 12.74 12.1862 12.783 12.1373C12.9145 11.9897 13.0485 11.8451 13.1839 11.7011C13.3046 11.5715 13.3046 11.5715 13.4278 11.4393C13.7564 11.2 13.9459 11.2058 14.344 11.2499C14.5667 11.3496 14.5667 11.3496 14.719 11.5312C14.8338 11.9112 14.8539 12.1034 14.678 12.4628C14.4927 12.6843 14.3114 12.874 14.1038 13.0722C11.802 15.3226 10.539 18.7481 10.4671 21.9251C10.4457 25.0253 11.3304 28.1334 13.3128 30.5625C13.3569 30.6174 13.401 30.6723 13.4465 30.7288C14.2177 31.6825 15.0515 32.5121 16.0433 33.2402C17.2797 34.1547 17.9827 35.1596 18.3753 36.6562C18.3753 36.749 18.3753 36.8418 18.3753 36.9375C18.4541 36.9364 18.5329 36.9354 18.6142 36.9343C19.3576 36.9249 20.1011 36.9178 20.8446 36.9132C21.2268 36.9107 21.609 36.9074 21.9912 36.9021C22.3602 36.897 22.7291 36.8942 23.0982 36.893C23.2388 36.8921 23.3795 36.8904 23.5201 36.8879C23.7174 36.8845 23.9145 36.884 24.1119 36.8842C24.2241 36.8832 24.3363 36.8822 24.4519 36.8811C24.8399 36.9544 24.9808 37.0971 25.219 37.4062C25.219 37.7491 25.2015 37.963 24.9905 38.2382C24.6771 38.4639 24.4504 38.4488 24.0673 38.4481C24.0069 38.4481 23.9465 38.4481 23.8843 38.4481C23.6844 38.4481 23.4846 38.4473 23.2847 38.4466C23.1463 38.4464 23.0078 38.4463 22.8693 38.4462C22.5047 38.4458 22.14 38.4449 21.7754 38.4439C21.4034 38.4429 21.0314 38.4425 20.6594 38.442C19.9292 38.441 19.1991 38.4394 18.469 38.4375C18.4732 39.0013 18.4797 39.5651 18.4885 40.1289C18.4911 40.3206 18.4931 40.5122 18.4945 40.7039C18.4965 40.98 18.5008 41.2559 18.5057 41.5319C18.5058 41.6172 18.5059 41.7025 18.506 41.7903C18.5179 42.3101 18.5789 42.628 18.9378 43.0312C19.4198 43.4328 19.7814 43.4603 20.3814 43.4547C20.4684 43.4554 20.5553 43.456 20.6449 43.4567C20.9314 43.4584 21.2177 43.4573 21.5042 43.456C21.7038 43.4563 21.9035 43.4566 22.1031 43.4571C22.5211 43.4576 22.9391 43.4568 23.357 43.4551C23.8923 43.453 24.4276 43.4542 24.9629 43.4564C25.375 43.4578 25.7871 43.4574 26.1992 43.4564C26.3965 43.4561 26.5939 43.4564 26.7913 43.4573C27.0673 43.4583 27.3432 43.4568 27.6192 43.4547C27.7411 43.4559 27.7411 43.4559 27.8654 43.457C28.3723 43.4499 28.66 43.3668 29.0628 43.0312C29.4869 42.5547 29.4941 42.14 29.4949 41.5319C29.4965 41.4432 29.498 41.3546 29.4996 41.2632C29.5042 40.9814 29.5062 40.6997 29.5081 40.4179C29.5107 40.2263 29.5136 40.0346 29.5165 39.843C29.5234 39.3745 29.5281 38.906 29.5315 38.4375C29.4602 38.4389 29.3888 38.4404 29.3152 38.4419C28.9909 38.4478 28.6665 38.4514 28.3421 38.455C28.1736 38.4586 28.1736 38.4586 28.0017 38.4622C27.8932 38.4631 27.7848 38.464 27.673 38.4649C27.5734 38.4664 27.4737 38.4679 27.371 38.4694C27.0542 38.4329 26.8803 38.3444 26.6253 38.1562C26.4804 37.8663 26.504 37.6317 26.5315 37.3125C26.6814 37.106 26.6814 37.106 26.9065 36.9375C27.1987 36.8949 27.1987 36.8949 27.5379 36.9008C27.7201 36.9026 27.7201 36.9026 27.9059 36.9045C28.0337 36.9076 28.1616 36.9108 28.2894 36.914C28.4186 36.9159 28.5479 36.9176 28.6772 36.9191C28.9933 36.9236 29.3093 36.9297 29.6253 36.9375C29.6351 36.8784 29.6449 36.8194 29.655 36.7585C29.7526 36.2179 29.8867 35.7457 30.1351 35.2558C30.1839 35.1595 30.1839 35.1595 30.2337 35.0613C30.7501 34.0982 31.5611 33.476 32.4334 32.841C33.2982 32.1868 34.0364 31.4302 34.6878 30.5625C34.756 30.4723 34.8241 30.3821 34.8943 30.2893C36.9987 27.3829 37.9453 23.744 37.3948 20.1796C36.9596 17.6426 35.9172 15.3426 34.219 13.4062C34.1539 13.3286 34.0888 13.251 34.0217 13.1711C31.8879 10.6915 28.7115 9.22016 25.5003 8.81245C23.824 8.72516 22.1595 8.74692 20.5315 9.18745C20.47 9.20351 20.4086 9.21957 20.3452 9.23611C19.1549 9.55737 17.8511 10.099 16.8383 10.8076C16.5168 11.0197 16.3158 11.0177 15.9378 10.9687C15.7151 10.8691 15.7151 10.8691 15.5628 10.6874C15.4865 10.3876 15.4357 10.153 15.5185 9.85066C15.7333 9.54805 16.0375 9.39169 16.3538 9.21089C16.4248 9.17007 16.4958 9.12925 16.5689 9.0872C18.8351 7.81493 21.3465 7.17569 23.9417 7.18354ZM21.094 45C21.8994 45.9396 22.6149 46.4907 23.871 46.5933C24.9247 46.5951 25.7968 46.2257 26.5433 45.4921C26.7869 45.2789 26.7869 45.2789 26.9065 45C24.9884 45 23.0703 45 21.094 45Z" fill="#FF7705"></path>
    <path d="M23.1234 12.9094C23.227 12.9088 23.227 12.9088 23.3328 12.9081C23.4786 12.9076 23.6245 12.9076 23.7703 12.908C23.9928 12.9083 24.2151 12.9061 24.4375 12.9037C24.5795 12.9035 24.7216 12.9034 24.8636 12.9035C24.9297 12.9026 24.9958 12.9018 25.064 12.9009C25.4747 12.9047 25.7372 12.9638 26.0622 13.2188C26.2158 13.539 26.2596 13.8396 26.29 14.1889C26.3365 15.0271 26.3365 15.0271 26.7829 15.6896C27.1687 15.8584 27.4704 15.9823 27.8896 15.8812C28.2494 15.6805 28.5533 15.4106 28.859 15.1366C29.1962 14.8579 29.503 14.7011 29.948 14.727C30.5269 14.934 30.9476 15.4867 31.3591 15.9258C31.4626 16.0328 31.5664 16.1396 31.6704 16.2463C32.5119 17.1156 32.5119 17.1156 32.5723 17.5423C32.5154 18.0429 32.2809 18.2917 31.9626 18.668C31.5533 19.1071 31.5533 19.1071 31.406 19.6557C31.4369 19.7281 31.4678 19.8005 31.4997 19.8751C31.5448 19.9992 31.5448 19.9992 31.5909 20.1259C31.6415 20.2483 31.6415 20.2483 31.6931 20.3731C31.7536 20.5196 31.8142 20.6661 31.8747 20.8126C31.9319 20.8186 31.9891 20.8247 32.048 20.8309C32.3089 20.8598 32.5693 20.8918 32.8298 20.9239C32.9198 20.9334 33.0097 20.9429 33.1024 20.9526C33.1897 20.9638 33.2771 20.975 33.367 20.9865C33.447 20.9958 33.5271 21.0052 33.6095 21.0148C33.9493 21.1295 34.0968 21.2765 34.3122 21.5626C34.359 21.8436 34.3782 22.0703 34.3745 22.3506C34.3749 22.4259 34.3754 22.5011 34.3758 22.5786C34.3761 22.7371 34.3753 22.8957 34.3733 23.0542C34.3708 23.2962 34.3733 23.5379 34.3763 23.78C34.376 23.9344 34.3754 24.0888 34.3745 24.2432C34.3754 24.3152 34.3764 24.3872 34.3773 24.4614C34.3693 24.8295 34.3257 25.0134 34.1027 25.3107C33.8312 25.509 33.7131 25.5585 33.3835 25.5678C33.2984 25.5732 33.2134 25.5785 33.1257 25.5841C32.9937 25.5918 32.9937 25.5918 32.8591 25.5997C32.1744 25.6518 32.1744 25.6518 31.6381 26.0355C31.4541 26.4749 31.3509 26.8213 31.4997 27.2813C31.5931 27.4443 31.5931 27.4443 31.7106 27.5984C31.7522 27.6556 31.7938 27.7128 31.8366 27.7717C31.8801 27.8303 31.9236 27.8889 31.9685 27.9493C32.6083 28.8219 32.6083 28.8219 32.531 29.3438C32.4127 29.5077 32.4127 29.5077 32.253 29.6833C32.1934 29.749 32.1337 29.8146 32.0723 29.8823C31.7271 30.2518 31.3794 30.6178 31.0251 30.9786C30.9523 31.0549 30.8795 31.1312 30.8045 31.2098C30.7331 31.2823 30.6617 31.3547 30.5882 31.4294C30.5246 31.4948 30.4611 31.5602 30.3956 31.6277C30.1354 31.8195 29.9452 31.8554 29.6247 31.8751C29.2615 31.7153 29.0135 31.5422 28.7227 31.2704C28.4345 31.0144 28.195 30.8167 27.8435 30.6563C27.352 30.7235 26.9698 30.8907 26.531 31.1251C26.5161 31.2158 26.5161 31.2158 26.501 31.3084C26.4554 31.5834 26.4082 31.8581 26.361 32.1329C26.3455 32.2281 26.33 32.3233 26.314 32.4214C26.298 32.5133 26.2819 32.6051 26.2654 32.6998C26.2512 32.7842 26.237 32.8686 26.2223 32.9557C26.1481 33.215 26.0579 33.3655 25.8747 33.5626C25.5402 33.674 25.2335 33.6733 24.8852 33.6753C24.816 33.6759 24.7467 33.6764 24.6754 33.677C24.529 33.6779 24.3826 33.6785 24.2361 33.6788C24.0129 33.6797 23.7897 33.6826 23.5665 33.6856C23.424 33.6862 23.2816 33.6867 23.1391 33.6871C23.0727 33.6882 23.0063 33.6894 22.9378 33.6906C22.525 33.6887 22.2656 33.6283 21.9372 33.3751C21.6955 32.9611 21.6658 32.4544 21.5974 31.9864C21.5848 31.9035 21.5722 31.8207 21.5593 31.7353C21.5285 31.532 21.4982 31.3286 21.4685 31.1251C21.0597 30.8772 20.6444 30.6393 20.156 30.6563C19.7053 30.8514 19.3551 31.1856 18.9929 31.5096C18.7003 31.7632 18.4946 31.8872 18.0935 31.8751C17.71 31.6807 17.433 31.4251 17.131 31.1218C17.0862 31.0768 17.0413 31.0319 16.995 30.9856C16.9009 30.8912 16.807 30.7965 16.7133 30.7017C16.5696 30.5563 16.4252 30.4117 16.2807 30.2672C15.4861 29.4686 15.4861 29.4686 15.4271 29.0516C15.484 28.551 15.7185 28.3021 16.0368 27.9258C16.4461 27.4867 16.4461 27.4867 16.5935 26.9382C16.547 26.8296 16.547 26.8296 16.4997 26.7188C16.4696 26.636 16.4395 26.5532 16.4085 26.4679C16.3748 26.3864 16.3411 26.3048 16.3063 26.2208C16.2458 26.0743 16.1852 25.9278 16.1247 25.7813C16.0675 25.7747 16.0103 25.7682 15.9514 25.7614C15.6906 25.7306 15.4301 25.6974 15.1696 25.6641C15.0797 25.6538 14.9897 25.6436 14.897 25.633C14.8097 25.6215 14.7224 25.61 14.6324 25.5982C14.5124 25.5835 14.5124 25.5835 14.3899 25.5684C14.0705 25.4751 13.9112 25.3736 13.6872 25.1251C13.6396 24.8407 13.6213 24.6098 13.6249 24.3256C13.6245 24.2482 13.624 24.1708 13.6236 24.091C13.6233 23.9275 13.6241 23.7639 13.6261 23.6004C13.6286 23.3508 13.6261 23.1015 13.6231 22.8518C13.6234 22.6927 13.624 22.5336 13.6249 22.3744C13.624 22.3001 13.623 22.2258 13.6221 22.1492C13.6302 21.7614 13.6576 21.6023 13.8967 21.2817C14.168 21.085 14.2873 21.0353 14.6159 21.0261C14.701 21.0207 14.786 21.0153 14.8737 21.0098C14.9617 21.0046 15.0497 20.9995 15.1403 20.9942C15.825 20.942 15.825 20.942 16.3613 20.5584C16.5446 20.1207 16.6513 19.7707 16.4997 19.3126C16.3958 19.1475 16.3958 19.1475 16.265 18.9914C16.2187 18.9321 16.1725 18.8728 16.1249 18.8118C16.0275 18.6891 15.9294 18.567 15.8305 18.4455C15.6037 18.1523 15.4774 17.9464 15.3956 17.58C15.503 17.0937 15.7809 16.8472 16.1247 16.5001C16.2593 16.3527 16.3939 16.2052 16.5283 16.0577C16.6708 15.908 16.8136 15.7586 16.9567 15.6094C17.0272 15.5323 17.0976 15.4552 17.1702 15.3758C17.7637 14.7629 17.7637 14.7629 18.248 14.7342C18.6915 14.7803 18.964 14.9785 19.2888 15.2696C19.8759 15.7966 19.8759 15.7966 20.6254 15.9159C20.9775 15.8079 21.193 15.7174 21.4685 15.4688C21.639 15.0356 21.6643 14.5758 21.7003 14.1157C21.7337 13.7319 21.8129 13.4509 22.031 13.1251C22.3679 12.8892 22.7273 12.9088 23.1234 12.9094ZM23.156 14.5313C23.1293 14.667 23.1078 14.8038 23.0886 14.9407C23.0766 15.0238 23.0646 15.1068 23.0523 15.1923C23.0401 15.2797 23.0279 15.3671 23.0153 15.4571C22.9911 15.6287 22.9667 15.8004 22.9421 15.972C22.9314 16.0485 22.9207 16.1249 22.9097 16.2037C22.8747 16.4063 22.8747 16.4063 22.781 16.6876C22.5956 16.7535 22.5956 16.7535 22.3474 16.8047C21.8045 16.9351 21.3379 17.1508 20.849 17.4142C20.4197 17.6321 20.1484 17.6693 19.6872 17.5313C19.4354 17.3789 19.2141 17.1999 18.9899 17.0098C18.9303 16.9611 18.8707 16.9123 18.8092 16.8621C18.6634 16.7426 18.5189 16.6215 18.3747 16.5001C17.9831 16.8298 17.6064 17.1638 17.2497 17.5313C17.423 18.0513 17.7577 18.4142 18.103 18.8314C18.3183 19.1867 18.3334 19.372 18.281 19.7813C18.1711 20.0552 18.1711 20.0552 18.0231 20.3204C17.7768 20.779 17.5987 21.2252 17.4515 21.7241C17.3029 22.0178 17.1767 22.0865 16.8747 22.2188C16.5859 22.2891 16.2957 22.3345 16.0017 22.377C15.9233 22.3892 15.8449 22.4013 15.7642 22.4138C15.572 22.4435 15.3796 22.4719 15.1872 22.5001C15.1872 23.026 15.1872 23.5519 15.1872 24.0938C15.3955 24.1279 15.3955 24.1279 15.608 24.1627C15.79 24.1943 15.972 24.226 16.154 24.2579C16.2455 24.2726 16.3371 24.2874 16.4314 24.3025C16.5193 24.3183 16.6072 24.334 16.6978 24.3502C16.7788 24.3639 16.8598 24.3776 16.9433 24.3918C17.213 24.4894 17.2914 24.6002 17.4372 24.8438C17.5163 25.0166 17.5163 25.0166 17.5778 25.1921C17.601 25.2564 17.6242 25.3208 17.6481 25.3871C17.6713 25.4534 17.6945 25.5196 17.7185 25.5879C17.897 26.1057 17.897 26.1057 18.1579 26.5844C18.333 26.9091 18.3336 27.1037 18.281 27.4688C18.137 27.74 17.9566 27.9735 17.7653 28.2129C17.7161 28.2771 17.667 28.3412 17.6163 28.4072C17.4955 28.5642 17.3728 28.7198 17.2497 28.8751C17.4087 29.2156 17.6001 29.4324 17.8708 29.6954C17.9474 29.7703 18.024 29.8452 18.103 29.9224C18.1617 29.979 18.2204 30.0355 18.281 30.0938C18.3321 30.0597 18.3832 30.0256 18.4359 29.9905C18.5846 29.8914 18.7337 29.7926 18.883 29.6943C19.0406 29.588 19.1961 29.4785 19.3488 29.3654C19.4199 29.3138 19.4909 29.2622 19.5642 29.209C19.6604 29.1367 19.6604 29.1367 19.7586 29.0629C20.0537 28.9306 20.2212 28.9796 20.531 29.0626C20.7289 29.1442 20.9243 29.2325 21.1169 29.3262C21.5742 29.5447 22.0319 29.7423 22.5067 29.9195C22.6872 30.0001 22.6872 30.0001 22.8747 30.1876C22.9203 30.3795 22.9203 30.3795 22.9512 30.6127C22.9629 30.6963 22.9746 30.7799 22.9866 30.866C22.998 30.9534 23.0094 31.0408 23.0212 31.1309C23.0444 31.3039 23.0679 31.4769 23.0919 31.6498C23.102 31.7267 23.1121 31.8036 23.1225 31.8828C23.1384 32.0627 23.1384 32.0627 23.2497 32.1563C23.5007 32.1657 23.7487 32.1693 23.9997 32.168C24.1052 32.1686 24.1052 32.1686 24.2128 32.1691C24.5562 32.201 24.5562 32.201 24.8435 32.0626C24.8701 31.9268 24.8916 31.7901 24.9108 31.6531C24.9228 31.5701 24.9348 31.4871 24.9471 31.4015C24.9593 31.3142 24.9715 31.2268 24.9841 31.1368C25.0083 30.9651 25.0327 30.7935 25.0573 30.6219C25.068 30.5454 25.0787 30.4689 25.0897 30.3901C25.1247 30.1876 25.1247 30.1876 25.2185 29.9063C25.4005 29.8404 25.4005 29.8404 25.6462 29.7891C26.209 29.6534 26.7091 29.4323 27.2273 29.1796C27.4852 29.0591 27.7 28.9692 27.987 28.967C28.3254 29.1067 28.5969 29.3156 28.8864 29.5372C29.3022 29.8851 29.3022 29.8851 29.8122 30.0001C30.0547 29.7919 30.0547 29.7919 30.2985 29.5313C30.383 29.4443 30.4675 29.3573 30.5545 29.2676C30.6189 29.2 30.6833 29.1323 30.7497 29.0626C30.5764 28.5426 30.2417 28.1797 29.8964 27.7625C29.6811 27.4071 29.666 27.2219 29.7185 26.8126C29.8283 26.5386 29.8283 26.5386 29.9763 26.2735C30.2226 25.8148 30.4007 25.3687 30.5479 24.8698C30.6966 24.5761 30.8227 24.5073 31.1247 24.3751C31.4135 24.3047 31.7037 24.2593 31.9977 24.2169C32.0761 24.2047 32.1545 24.1926 32.2352 24.18C32.4274 24.1504 32.6198 24.122 32.8122 24.0938C32.8122 23.5679 32.8122 23.0419 32.8122 22.5001C32.1006 22.3763 31.3891 22.2526 30.656 22.1251C30.5631 21.8157 30.4703 21.5063 30.3747 21.1876C30.2984 20.9849 30.2189 20.7834 30.1345 20.584C30.0763 20.445 30.0763 20.445 30.0169 20.3032C29.9069 20.0481 29.9069 20.0481 29.7185 19.7813C29.6557 19.354 29.7045 19.1025 29.944 18.7533C30.0391 18.628 30.1359 18.5039 30.2341 18.3809C30.2833 18.3168 30.3324 18.2527 30.3831 18.1866C30.5039 18.0296 30.6266 17.874 30.7497 17.7188C30.5907 17.3782 30.3993 17.1614 30.1286 16.8985C30.0137 16.7861 30.0137 16.7861 29.8964 16.6714C29.8377 16.6149 29.779 16.5583 29.7185 16.5001C29.1251 16.8802 29.1251 16.8802 28.5817 17.3262C28.2515 17.5775 28.0689 17.6075 27.656 17.6251C27.4103 17.5339 27.2041 17.443 26.9763 17.3204C26.4034 17.031 25.8483 16.825 25.2185 16.6876C25.1733 16.4513 25.1285 16.2149 25.0837 15.9786C25.0711 15.9125 25.0584 15.8465 25.0454 15.7784C24.9849 15.4581 24.9292 15.1391 24.887 14.8158C24.874 14.5434 24.874 14.5434 24.7497 14.4376C24.4987 14.4282 24.2507 14.4245 23.9997 14.4258C23.9294 14.4255 23.859 14.4251 23.7866 14.4247C23.4432 14.3929 23.4432 14.3929 23.156 14.5313Z" fill="#FF7705"></path>
    <path d="M26.3009 19.2587C26.7067 19.5154 27.052 19.7988 27.3746 20.1563C27.4197 20.2021 27.4647 20.2479 27.5112 20.2951C28.3805 21.2217 28.6423 22.4011 28.6226 23.636C28.5292 24.7973 28.0002 25.8872 27.1871 26.7188C26.1259 27.5825 24.9638 27.9845 23.5843 27.9233C22.3208 27.7642 21.2561 27.2513 20.4129 26.29C19.5476 25.1708 19.3092 23.9829 19.4058 22.5938C19.5621 21.789 19.8808 21.1098 20.3433 20.4376C20.4013 20.3525 20.4594 20.2674 20.5191 20.1797C21.9804 18.6325 24.4369 18.2152 26.3009 19.2587ZM21.773 21.1114C21.0878 21.8273 20.8649 22.6234 20.8732 23.5965C20.9627 24.4472 21.3698 25.1983 22.0209 25.7421C22.7553 26.286 23.6173 26.5332 24.5269 26.3976C25.4559 26.173 26.1896 25.6925 26.6912 24.8797C27.1026 24.1193 27.2266 23.3628 27.0318 22.5129C26.7345 21.5864 26.13 20.9475 25.3121 20.4376C24.0719 19.8834 22.7387 20.2071 21.773 21.1114Z" fill="#FF7705"></path>
    <path d="M39.2809 6.18752C39.5291 6.34473 39.5579 6.45484 39.6441 6.7383C39.6605 7.14663 39.5077 7.35118 39.2379 7.65295C39.0671 7.83076 38.8933 8.00489 38.718 8.17824C38.6543 8.24187 38.5907 8.30549 38.5251 8.37104C38.3909 8.50489 38.2566 8.63851 38.122 8.77192C37.9155 8.97669 37.7098 9.1822 37.5042 9.38784C37.3737 9.51789 37.2431 9.64789 37.1125 9.77785C37.0508 9.83947 36.9891 9.90109 36.9255 9.96457C36.8396 10.0496 36.8396 10.0496 36.752 10.1363C36.7016 10.1863 36.6512 10.2363 36.5994 10.2878C36.3812 10.4851 36.2659 10.5014 35.9645 10.5293C35.6246 10.5 35.6246 10.5 35.3961 10.3594C35.1912 10.0316 35.1643 9.74523 35.2496 9.37502C35.4416 9.07977 35.6856 8.84934 35.9403 8.60781C36.0106 8.53834 36.0809 8.46888 36.1533 8.39731C36.3777 8.17647 36.6046 7.95841 36.8316 7.74026C36.9838 7.59107 37.1358 7.44172 37.2876 7.2922C37.5652 7.02009 37.8431 6.74838 38.1232 6.47887C38.1794 6.42471 38.2356 6.37056 38.2936 6.31476C38.6207 6.02478 38.868 6.10061 39.2809 6.18752Z" fill="#FF7705"></path>
    <path d="M9.5625 6.18747C9.84498 6.38541 10.0814 6.62307 10.3239 6.86752C10.3937 6.93636 10.4635 7.0052 10.5354 7.07613C10.6823 7.22177 10.8284 7.36815 10.9739 7.51519C11.1966 7.73949 11.4225 7.96007 11.649 8.18057C11.7915 8.32276 11.9338 8.46514 12.0758 8.60776C12.1435 8.67332 12.2111 8.73887 12.2808 8.80642C12.5845 9.11868 12.7906 9.33451 12.8013 9.78327C12.75 10.125 12.75 10.125 12.6035 10.3593C12.2713 10.5638 12.104 10.5706 11.7188 10.5C11.0287 10.0231 10.4323 9.3374 9.83585 8.7488C9.71942 8.63441 9.60241 8.52061 9.48484 8.4074C9.31318 8.24201 9.14344 8.07485 8.974 7.9072C8.92147 7.85727 8.86894 7.80735 8.81481 7.75592C8.47045 7.40969 8.35922 7.16194 8.34375 6.65622C8.41756 6.40796 8.48651 6.31602 8.68945 6.15817C9.02233 6.05921 9.22432 6.10025 9.5625 6.18747Z" fill="#FF7705"></path>
    <path d="M41.0694 20.9515C41.2111 20.9497 41.2111 20.9497 41.3557 20.9479C41.4572 20.9486 41.5586 20.9494 41.6632 20.9502C41.7679 20.9498 41.8726 20.9495 41.9805 20.9491C42.2018 20.9488 42.423 20.9495 42.6443 20.9511C42.9832 20.9531 43.322 20.9511 43.6609 20.9487C43.8758 20.949 44.0908 20.9494 44.3058 20.9502C44.4072 20.9494 44.5087 20.9487 44.6133 20.9479C44.7077 20.9491 44.8022 20.9502 44.8996 20.9515C45.024 20.9519 45.024 20.9519 45.151 20.9524C45.4472 21.0153 45.561 21.1439 45.7501 21.375C45.8166 21.6476 45.782 21.8383 45.7501 22.125C45.5803 22.3757 45.4803 22.4024 45.1876 22.5C45.042 22.51 44.896 22.5148 44.75 22.5166C44.6615 22.5178 44.5729 22.519 44.4817 22.5202C44.3862 22.5209 44.2906 22.5216 44.1922 22.5223C44.0447 22.5235 44.0447 22.5235 43.8941 22.5246C43.6859 22.5259 43.4777 22.5269 43.2695 22.5277C42.9512 22.5293 42.633 22.5334 42.3147 22.5375C42.1124 22.5385 41.9101 22.5393 41.7079 22.5399C41.6127 22.5415 41.5176 22.5432 41.4196 22.5449C41.001 22.5436 40.7572 22.5421 40.3931 22.3217C40.2051 22.1095 40.1568 22.0292 40.1661 21.75C40.166 21.6881 40.1659 21.6262 40.1658 21.5625C40.2966 21.1005 40.6194 20.9531 41.0694 20.9515Z" fill="#FF7705"></path>
    <path d="M3.10063 20.9515C3.24236 20.9497 3.24236 20.9497 3.38695 20.9479C3.48842 20.9486 3.58989 20.9494 3.69444 20.9502C3.79914 20.9498 3.90385 20.9495 4.01173 20.9491C4.23301 20.9488 4.45429 20.9495 4.67556 20.9511C5.01448 20.9531 5.35321 20.9511 5.69212 20.9487C5.90709 20.949 6.12205 20.9494 6.33702 20.9502C6.43849 20.9494 6.53996 20.9487 6.64451 20.9479C6.73899 20.9491 6.83348 20.9502 6.93083 20.9515C7.05529 20.9519 7.05529 20.9519 7.18227 20.9524C7.47843 21.0153 7.5923 21.1439 7.78135 21.375C7.84781 21.6476 7.8132 21.8383 7.78135 22.125C7.61151 22.3757 7.51158 22.4024 7.21885 22.5C7.07323 22.51 6.92723 22.5148 6.78128 22.5166C6.69272 22.5178 6.60416 22.519 6.51292 22.5202C6.41741 22.5209 6.3219 22.5216 6.22349 22.5223C6.07593 22.5235 6.07593 22.5235 5.92539 22.5246C5.71719 22.5259 5.50898 22.5269 5.30078 22.5277C4.98246 22.5293 4.66423 22.5334 4.34593 22.5375C4.14366 22.5385 3.94139 22.5393 3.73912 22.5399C3.64399 22.5415 3.54886 22.5432 3.45084 22.5449C3.03226 22.5436 2.78849 22.5421 2.4244 22.3217C2.23639 22.1095 2.1881 22.0292 2.19737 21.75C2.19725 21.6881 2.19713 21.6262 2.197 21.5625C2.32784 21.1005 2.65062 20.9531 3.10063 20.9515Z" fill="#FF7705"></path>
    <path d="M24.0003 -0.0527344C24.0622 -0.0547888 24.1241 -0.0568433 24.1878 -0.05896C24.4986 0.0387427 24.582 0.190888 24.7503 0.46875C24.8066 0.813334 24.8029 1.15441 24.8002 1.50293C24.8005 1.60312 24.8009 1.70331 24.8012 1.80653C24.8015 2.01803 24.8008 2.22953 24.7992 2.44102C24.7972 2.7645 24.7992 3.08778 24.8016 3.41125C24.8014 3.61694 24.8009 3.82263 24.8002 4.02832C24.8009 4.12491 24.8017 4.22151 24.8025 4.32103C24.797 4.74169 24.793 4.99212 24.5715 5.35762C24.3608 5.54412 24.2779 5.59526 24.0003 5.58984C23.9075 5.59166 23.9075 5.59166 23.8128 5.59351C23.5029 5.49061 23.419 5.34218 23.2503 5.0625C23.194 4.71002 23.1978 4.36087 23.2005 4.00452C23.2002 3.90203 23.1998 3.79953 23.1995 3.69394C23.1992 3.47763 23.1999 3.26132 23.2015 3.04502C23.2035 2.71373 23.2015 2.38262 23.1991 2.05133C23.1993 1.84106 23.1998 1.6308 23.2005 1.42053C23.1998 1.3214 23.199 1.22228 23.1982 1.12015C23.207 0.435447 23.207 0.435447 23.4292 0.125473C23.6392 -0.00885219 23.7527 -0.053218 24.0003 -0.0527344Z" fill="#FF7705"></path>
    <path d="M17.7185 3.84375C18.0057 4.14503 18.1456 4.52326 18.2986 4.9043C18.3241 4.96418 18.3497 5.02406 18.376 5.08576C18.5416 5.49544 18.6048 5.83277 18.5622 6.28125C18.3689 6.5625 18.3689 6.5625 18.0935 6.75C17.7379 6.75624 17.5312 6.72979 17.2486 6.50867C17.0033 6.20941 16.8875 5.9044 16.7575 5.54297C16.7324 5.47783 16.7073 5.41269 16.6814 5.34558C16.5386 4.95877 16.4595 4.63701 16.4997 4.21875C16.7986 3.69222 17.1635 3.71492 17.7185 3.84375Z" fill="#FF7705"></path>
    <path d="M31.2189 3.8437C31.4064 3.98433 31.4064 3.98433 31.5001 4.2187C31.5202 4.82141 31.3274 5.30687 31.0958 5.85347C31.0681 5.92009 31.0404 5.9867 31.0118 6.05534C30.8932 6.32144 30.7995 6.52603 30.5619 6.70125C30.2564 6.78092 30.0215 6.73323 29.7189 6.6562C29.5372 6.50386 29.5372 6.50386 29.4376 6.2812C29.3894 5.71831 29.5223 5.31277 29.7364 4.80464C29.7638 4.73394 29.7912 4.66324 29.8194 4.59041C29.9548 4.26248 30.0487 4.06749 30.3293 3.84187C30.662 3.71078 30.8778 3.74897 31.2189 3.8437Z" fill="#FF7705"></path>
    <path d="M41.707 14.3906C41.9484 14.6747 41.9615 14.8267 41.9685 15.1875C41.8707 15.4822 41.6927 15.5797 41.4375 15.75C41.205 15.8613 40.9794 15.9612 40.7402 16.0547C40.68 16.0798 40.6197 16.105 40.5577 16.1309C40.1822 16.2803 39.8721 16.3579 39.4688 16.3125C39.1572 16.0823 39.021 15.9445 38.9414 15.5625C39.0206 15.1822 39.1757 15.0649 39.4688 14.8125C39.7036 14.6937 39.9219 14.5942 40.166 14.502C40.2263 14.4773 40.2865 14.4525 40.3486 14.4271C40.8395 14.2352 41.229 14.1412 41.707 14.3906Z" fill="#FF7705"></path>
    <path d="M7.31555 14.3061C7.52646 14.3831 7.73293 14.4673 7.93975 14.5547C8.01087 14.5829 8.08199 14.611 8.15527 14.64C8.80802 14.9108 8.80802 14.9108 9.0003 15.2813C9.06427 15.6571 9.02991 15.7989 8.81866 16.1192C8.49846 16.3348 8.32338 16.3581 7.94525 16.2924C6.44614 15.8638 6.44614 15.8638 6.09405 15.375C6.05722 15.085 6.03498 14.902 6.09405 14.625C6.44604 14.2109 6.79943 14.154 7.31555 14.3061Z" fill="#FF7705"></path>
  </g>
  <defs>
    <clipPath id="clip0_3698_752">
      <rect width="48" height="48" fill="white"></rect>
    </clipPath>
  </defs>
</svg>
