<?xml version="1.0" encoding="UTF-8"?>
<svg xmlns="http://www.w3.org/2000/svg" width="48" height="48" viewBox="0 0 48 48" fill="none">
  <path d="M40.1968 8.34917C40.9102 8.83988 41.165 9.5614 41.4391 10.3721C41.4786 10.4859 41.5183 10.5996 41.558 10.7133C41.6406 10.95 41.7225 11.187 41.8038 11.4242C41.9577 11.8723 42.1159 12.3188 42.2738 12.7653C42.3905 13.0955 42.5066 13.4259 42.6225 13.7563C42.6419 13.8117 42.6613 13.8671 42.6813 13.9241C42.721 14.0373 42.7607 14.1505 42.8004 14.2636C42.9679 14.7414 43.1357 15.2191 43.3034 15.6968C43.3661 15.8754 43.4288 16.054 43.4915 16.2327C43.8021 17.1177 44.1138 18.0023 44.4262 18.8867C44.5371 19.2007 44.6477 19.5149 44.7579 19.8293C44.9728 20.442 45.1885 21.0539 45.4159 21.6617C46.1314 23.5924 46.1314 23.5924 45.729 24.61C45.3269 25.2747 44.7556 25.6326 44.0665 25.8885C43.994 25.9168 43.9215 25.9451 43.8469 25.9743C43.618 26.0632 43.3884 26.1499 43.1588 26.2366C43.0036 26.2967 42.8484 26.3568 42.6932 26.4172C42.4098 26.5268 42.1264 26.636 41.8423 26.7435C41.7856 26.765 41.729 26.7864 41.6707 26.8085C41.0078 27.0396 40.3163 27.0648 39.6813 26.7315C39.3401 26.4822 39.0898 26.1469 38.8334 25.8065C38.8058 25.7774 38.7782 25.7483 38.7498 25.7183C38.7537 25.7814 38.7575 25.8445 38.7615 25.9096C38.7935 26.8413 38.635 27.7499 38.0573 28.4839C37.5521 28.9977 37.0597 29.1742 36.3677 29.1701C36.2828 29.1706 36.2828 29.1706 36.1962 29.1711C35.938 29.1705 35.7369 29.1576 35.49 29.0708C35.4952 29.1691 35.5004 29.2673 35.5057 29.3686C35.503 30.1869 35.1984 30.9387 34.6722 31.5331C34.0232 32.1746 33.3081 32.4459 32.4275 32.4381C32.1251 32.4154 31.8523 32.3361 31.5616 32.2469C31.5766 32.3109 31.5916 32.3749 31.607 32.4409C31.7176 33.1566 31.4112 33.8615 31.0369 34.4414C30.5437 35.1106 29.8084 35.4588 29.0228 35.5663C28.9228 35.5772 28.8228 35.5881 28.7198 35.5994C28.7241 35.6811 28.7241 35.6811 28.7286 35.7645C28.7548 36.63 28.5612 37.3192 27.994 37.9652C27.5025 38.4652 27.0089 38.6444 26.3377 38.7203C25.7948 38.6589 25.2944 38.4634 24.7914 38.2461C24.7629 38.2963 24.7345 38.3464 24.7052 38.3981C24.3135 39.0566 23.8312 39.652 23.1197 39.9224C22.2714 40.108 21.5383 39.9626 20.812 39.4661C20.2283 38.9949 19.8566 38.4435 19.6092 37.7168C19.5475 37.7305 19.4857 37.7443 19.4221 37.7585C18.533 37.9385 17.7298 37.9597 16.9345 37.4521C16.422 37.0692 16.0848 36.6055 15.7644 36.0405C15.6957 36.0787 15.6957 36.0787 15.6256 36.1177C14.924 36.4645 14.184 36.5271 13.4293 36.3289C13.2214 36.247 13.0328 36.154 12.839 36.0405C12.7851 36.0096 12.7312 35.9786 12.6757 35.9468C12.045 35.53 11.7068 34.8458 11.5343 34.0992C11.4756 33.6245 11.5261 33.1604 11.5852 32.688C11.5245 32.7038 11.4639 32.7196 11.4014 32.7359C10.69 32.8584 10.0124 32.4957 9.43816 32.087C8.83756 31.4873 8.57628 30.8349 8.54234 29.9634C8.53304 29.319 8.60341 28.8367 8.91054 28.2768C8.97421 28.15 9.03739 28.0229 9.10024 27.8956C9.28534 27.5213 9.47347 27.1489 9.66279 26.777C9.60806 26.8088 9.55332 26.8407 9.49693 26.8735C9.42065 26.9144 9.34437 26.9554 9.26577 26.9975C9.19208 27.0385 9.11838 27.0794 9.04245 27.1216C8.04147 27.4446 7.11735 27.0562 6.16588 26.7195C5.92245 26.6336 5.67818 26.5509 5.43367 26.4685C5.27657 26.4142 5.11952 26.3596 4.96254 26.3048C4.89052 26.2806 4.8185 26.2563 4.7443 26.2312C4.12103 26.0072 3.60896 25.6832 3.22688 25.1062C2.65679 23.8604 3.29382 22.4317 3.68659 21.2354C3.75178 21.0319 3.81675 20.8283 3.88151 20.6247C4.01508 20.2049 4.14937 19.7853 4.28408 19.3659C4.55475 18.5197 4.81196 17.669 5.06814 16.8178C5.14932 16.5484 5.23093 16.2791 5.31267 16.0099C5.57876 15.133 5.84275 14.2554 6.10294 13.3765C6.23052 12.9461 6.35901 12.516 6.48761 12.0859C6.54897 11.8798 6.6099 11.6736 6.67036 11.4672C6.75452 11.18 6.84015 10.8934 6.92609 10.6068C6.95034 10.5226 6.97458 10.4385 6.99956 10.3518C7.23901 9.56347 7.55907 8.92138 8.25592 8.50356C9.21941 8.01784 10.2824 8.46816 11.22 8.80392C11.4446 8.88419 11.67 8.96157 11.8955 9.03859C12.0408 9.08926 12.1861 9.14008 12.3313 9.19109C12.4307 9.2253 12.4307 9.2253 12.5321 9.26021C13.2036 9.50317 13.7669 9.8259 14.1763 10.4555C14.427 11.0265 14.427 11.0265 14.427 11.3378C15.5367 11.2102 16.6382 11.0674 17.734 10.84C19.6942 10.4375 21.5648 10.6328 23.3215 11.6872C23.5835 11.7983 23.69 11.7845 23.9555 11.6907C24.1108 11.6123 24.264 11.5292 24.4152 11.4425C25.9351 10.6176 27.8238 10.4233 29.474 10.9249C30.4009 11.2408 31.3057 11.6363 32.2088 12.0202C32.6805 12.2135 33.0478 12.3302 33.5572 12.3193C33.6535 12.3177 33.7498 12.3161 33.8491 12.3144C33.9217 12.3124 33.9943 12.3103 34.0691 12.3082C34.0559 12.2584 34.0426 12.2086 34.029 12.1573C33.897 11.5437 33.9781 10.9964 34.1814 10.4131C34.7051 9.57226 35.529 9.31073 36.3833 8.98328C36.508 8.93396 36.6327 8.88451 36.7573 8.83492C39.321 7.82214 39.321 7.82214 40.1968 8.34917ZM38.2715 9.6491C38.1683 9.68946 38.1683 9.68946 38.063 9.73065C37.918 9.78763 37.7732 9.84521 37.6286 9.90334C37.4081 9.99199 37.1869 10.0788 36.9656 10.1653C36.8245 10.2211 36.6834 10.2769 36.5423 10.3328C36.4766 10.3588 36.4108 10.3847 36.3431 10.4114C35.7465 10.6302 35.7465 10.6302 35.2968 11.0692C35.0684 11.7856 35.5108 12.6346 35.7549 13.2985C35.8672 13.6039 35.9775 13.9102 36.0879 14.2164C36.1494 14.387 36.2111 14.5577 36.2728 14.7283C36.6342 15.7283 36.9856 16.7323 37.3373 17.7362C37.4811 18.1466 37.6254 18.5569 37.7698 18.9671C37.8521 19.201 37.9345 19.4348 38.0168 19.6687C38.0371 19.7264 38.0574 19.784 38.0783 19.8434C38.3325 20.5658 38.5848 21.2888 38.835 22.0128C38.9722 22.4094 39.1103 22.8055 39.2487 23.2016C39.3126 23.3854 39.376 23.5694 39.439 23.7536C39.5252 24.0057 39.613 24.2572 39.7012 24.5086C39.7258 24.5821 39.7505 24.6555 39.7759 24.7312C39.9207 25.1382 40.0426 25.4154 40.4214 25.6301C40.907 25.6977 41.296 25.5516 41.7438 25.3754C41.8124 25.349 41.8811 25.3226 41.9519 25.2955C42.0963 25.2397 42.2406 25.1834 42.3847 25.1266C42.6044 25.0403 42.8249 24.9564 43.0455 24.8727C43.1863 24.818 43.327 24.7632 43.4677 24.7082C43.5331 24.6834 43.5986 24.6587 43.6661 24.6332C44.0598 24.4756 44.3379 24.3166 44.6006 23.9538C44.7537 23.4926 44.6195 23.1381 44.4579 22.7021C44.4322 22.6296 44.4065 22.5572 44.38 22.4825C44.2927 22.2373 44.2037 21.9928 44.1148 21.7482C44.0517 21.5718 43.9887 21.3954 43.9258 21.2189C43.785 20.8238 43.6435 20.4289 43.5019 20.0341C43.2402 19.3034 42.9828 18.571 42.7259 17.8384C42.7028 17.7727 42.6798 17.707 42.656 17.6393C42.6092 17.5058 42.5624 17.3723 42.5155 17.2388C42.4922 17.1724 42.4689 17.1059 42.4449 17.0375C42.4099 16.9376 42.4099 16.9376 42.3741 16.8356C42.0944 16.0385 41.8133 15.2419 41.5322 14.4454C41.2843 13.7428 41.0372 13.04 40.7928 12.3361C40.6848 12.0254 40.576 11.715 40.4669 11.4047C40.4199 11.2703 40.3734 11.1358 40.3272 11.0011C40.2659 10.8224 40.2033 10.6442 40.1403 10.4662C40.1073 10.3711 40.0743 10.2759 40.0403 10.1779C39.8568 9.79411 39.6595 9.5446 39.2707 9.3976C38.9014 9.39655 38.6134 9.51017 38.2715 9.6491ZM8.49263 10.0144C8.36596 10.2808 8.36596 10.2808 8.27942 10.5916C8.26142 10.6498 8.24343 10.7079 8.22488 10.7678C8.1648 10.9629 8.10672 11.1586 8.04859 11.3543C8.00555 11.4954 7.96236 11.6365 7.91905 11.7775C7.82496 12.0844 7.73164 12.3917 7.63879 12.6991C7.48636 13.2027 7.33043 13.7052 7.1739 14.2075C6.53156 16.2703 5.90001 18.3368 5.27393 20.4052C5.24789 20.4913 5.22184 20.5773 5.195 20.666C5.14393 20.835 5.09302 21.0042 5.04227 21.1733C4.91255 21.6053 4.78011 22.036 4.64326 22.4656C4.61561 22.5536 4.58796 22.6417 4.55948 22.7324C4.50686 22.8998 4.45339 23.0669 4.39891 23.2337C4.21424 23.8098 4.21424 23.8098 4.31346 24.3949C4.66835 24.7909 5.03386 24.9502 5.51987 25.1107C5.58641 25.1336 5.65296 25.1565 5.72152 25.18C5.86149 25.2278 6.00163 25.275 6.14195 25.3216C6.35558 25.3928 6.56844 25.4662 6.78129 25.5399C6.918 25.5863 7.05474 25.6326 7.19153 25.6787C7.25459 25.7004 7.31764 25.7222 7.3826 25.7446C7.80964 25.8848 8.22962 25.9974 8.66592 25.8271C8.8636 25.6935 8.90968 25.5923 8.99764 25.3645C9.02528 25.2932 9.05293 25.2218 9.08141 25.1483C9.21015 24.7872 9.32762 24.4235 9.43947 24.0562C9.46502 23.9734 9.49058 23.8906 9.5169 23.8054C9.60077 23.5333 9.68403 23.2611 9.76727 22.9889C9.82667 22.7956 9.88609 22.6024 9.94554 22.4092C10.4113 20.8935 10.8735 19.3765 11.3311 17.858C11.592 16.9926 11.8544 16.128 12.1232 15.2653C12.2501 14.8577 12.3761 14.4499 12.502 14.042C12.5625 13.8472 12.6233 13.6526 12.6846 13.4582C12.7695 13.1888 12.8529 12.919 12.9359 12.6491C12.9614 12.5698 12.9868 12.4905 13.013 12.4088C13.148 11.9639 13.2251 11.6226 13.0897 11.1613C12.7872 10.7328 12.443 10.5987 11.978 10.4455C11.8783 10.4112 11.8783 10.4112 11.7766 10.3762C11.6365 10.3283 11.4962 10.2812 11.3557 10.2346C11.1422 10.1636 10.9295 10.0901 10.7169 10.0163C10.5801 9.9699 10.4432 9.92366 10.3063 9.87758C10.212 9.84492 10.212 9.84492 10.1158 9.8116C9.52325 9.61801 8.95353 9.47169 8.49263 10.0144ZM17.6189 12.2145C16.468 12.4389 15.3488 12.576 14.1763 12.5729C13.6623 14.2449 13.1489 15.9171 12.6364 17.5896C12.403 18.3511 12.1691 19.1124 11.9343 19.8734C11.8109 20.2739 11.6881 20.6746 11.5654 21.0753C11.5096 21.257 11.4536 21.4386 11.3974 21.6201C10.8431 23.3235 10.8431 23.3235 10.6658 25.1007C10.7686 25.0354 10.7686 25.0354 10.8734 24.9687C10.9635 24.9122 11.0536 24.8557 11.1464 24.7974C11.2802 24.713 11.2802 24.713 11.4167 24.6269C12.0319 24.2761 12.8422 24.2873 13.5132 24.4614C13.8901 24.6126 14.1609 24.773 14.427 25.1007C14.4822 25.1007 14.5374 25.1007 14.5942 25.1007C14.6293 25.1783 14.6293 25.1783 14.6651 25.2575C14.7546 25.4397 14.8545 25.5995 14.9651 25.7679C15.2217 26.1918 15.3258 26.6433 15.43 27.1299C15.5108 27.1258 15.5917 27.1217 15.6749 27.1175C16.3568 27.0975 16.9106 27.1273 17.5196 27.4828C17.6004 27.5276 17.6004 27.5276 17.6829 27.5734C18.2914 27.9658 18.5793 28.6438 18.7629 29.3465C18.7956 29.4895 18.8274 29.6328 18.857 29.7766C18.9117 29.7735 18.9664 29.7704 19.0228 29.7673C19.9471 29.7383 20.828 29.8957 21.5316 30.5706C22.0999 31.2572 22.2895 32.0638 22.3675 32.9527C22.6984 32.9527 23.0294 32.9527 23.3705 32.9527C23.2696 32.868 23.2696 32.868 23.1667 32.7817C22.9525 32.5998 22.9525 32.5998 22.869 32.5115C22.8308 31.9675 22.8308 31.9675 22.9578 31.723C23.21 31.5771 23.421 31.6097 23.7048 31.6293C23.9555 31.734 23.9555 31.734 24.2063 31.8816C24.3002 31.9359 24.3942 31.9902 24.491 32.0462C24.5911 32.1057 24.6912 32.1653 24.7914 32.2248C24.8949 32.2851 24.9985 32.3453 25.1022 32.4053C25.2606 32.497 25.419 32.5888 25.5771 32.6811C26.0909 32.9809 26.6105 33.2685 27.1317 33.5537C27.2114 33.5975 27.2912 33.6413 27.3733 33.6865C27.5712 33.7951 27.7691 33.9037 27.9675 34.0113C28.0259 34.0441 28.0842 34.0768 28.1444 34.1106C28.5523 34.3106 29.0833 34.2345 29.4982 34.0941C29.9389 33.7587 30.2928 33.3544 30.3914 32.7762C30.3979 32.2407 30.3075 31.8702 29.9735 31.4528C29.4817 30.9515 28.9368 30.6545 28.328 30.3335C28.2277 30.2796 28.1276 30.2255 28.0275 30.1714C27.8258 30.0622 27.6241 29.9533 27.4222 29.8447C27.2784 29.7673 27.2784 29.7673 27.1317 29.6884C27.044 29.6412 26.9563 29.5941 26.866 29.5455C26.6315 29.4184 26.3983 29.2891 26.1653 29.159C26.0958 29.122 26.0262 29.0849 25.9546 29.0468C25.643 28.8709 25.4906 28.7818 25.3278 28.4415C25.2876 28.1502 25.3309 28.0049 25.46 27.7474C25.9192 27.6426 26.1552 27.6691 26.5678 27.9029C26.6158 27.9295 26.6638 27.9561 26.7133 27.9835C26.8692 28.0706 27.0239 28.1598 27.1787 28.2492C27.2873 28.3104 27.3959 28.3715 27.5047 28.4324C27.7766 28.5854 28.0476 28.7403 28.3182 28.8959C28.5398 29.0232 28.7621 29.1493 28.9842 29.2755C29.5716 29.6106 30.1562 29.9506 30.7379 30.2966C30.8064 30.3373 30.8749 30.3779 30.9455 30.4197C31.0729 30.4955 31.2001 30.5716 31.3271 30.6483C31.894 30.9856 32.4255 31.238 33.0857 31.0455C33.591 30.8432 33.8936 30.5414 34.1527 30.0413C34.2855 29.5943 34.2753 29.1966 34.137 28.751C33.884 28.2537 33.544 27.9734 33.0818 27.7033C33.0324 27.6743 32.9831 27.6453 32.9322 27.6153C32.7545 27.5113 32.576 27.4087 32.3974 27.3063C32.2895 27.2442 32.2895 27.2442 32.1793 27.1807C31.4001 26.7326 30.6192 26.2878 29.8367 25.8461C29.7468 25.7952 29.6568 25.7442 29.5641 25.6916C29.3923 25.5943 29.2204 25.4974 29.0483 25.4008C28.6098 25.1521 28.183 24.9094 27.8004 24.5714C27.7386 24.3071 27.7616 24.1428 27.8004 23.8656C27.9675 23.6891 27.9675 23.6891 28.2601 23.6495C28.7286 23.6634 29.0764 23.9017 29.472 24.1468C29.6357 24.2446 29.7994 24.3424 29.9631 24.4401C30.0473 24.4909 30.1316 24.5418 30.2184 24.5942C30.6348 24.8434 31.0565 25.0819 31.478 25.3213C32.0513 25.6484 32.6238 25.9768 33.1954 26.3071C33.4963 26.4809 33.7976 26.6538 34.0991 26.8266C34.2477 26.912 34.3962 26.9977 34.5446 27.0837C34.76 27.2084 34.9761 27.3319 35.1923 27.4552C35.256 27.4925 35.3198 27.5297 35.3855 27.5681C35.7552 27.777 36.066 27.9011 36.493 27.9239C36.8861 27.7774 37.1023 27.5853 37.3289 27.2181C37.5548 26.7053 37.5793 26.143 37.4444 25.598C36.5868 23.2787 32.7176 21.9463 30.762 20.9301C30.6083 20.8501 30.4546 20.77 30.301 20.6899C30.2275 20.6515 30.1541 20.6132 30.0784 20.5737C29.5934 20.3185 29.1262 20.0461 28.667 19.7418C27.923 19.3248 27.0415 19.583 26.281 19.8164C25.8295 19.9678 25.3859 20.1434 24.9411 20.315C24.14 20.6237 23.3478 20.9289 22.5085 21.1031C22.4458 21.1161 22.3831 21.1292 22.3186 21.1427C21.0501 21.3759 19.8228 21.123 18.7456 20.3783C18.2304 19.9846 17.6779 19.4784 17.4576 18.8309C17.403 18.26 17.7832 17.8409 18.1047 17.4252C18.8057 16.5778 19.5615 15.7856 20.3158 14.9916C20.5143 14.7825 20.7124 14.573 20.9105 14.3634C21.0379 14.2289 21.1654 14.0944 21.293 13.96C21.3515 13.8981 21.41 13.8361 21.4703 13.7723C21.7192 13.5108 21.9671 13.2586 22.2413 13.0266C22.3105 12.9642 22.3797 12.9018 22.451 12.8376C22.451 12.7793 22.451 12.7211 22.451 12.6611C20.7855 11.9067 19.3849 11.8682 17.6189 12.2145ZM20.6247 16.4261C20.5377 16.5172 20.4506 16.6082 20.3633 16.6991C19.7937 17.293 19.2678 17.9063 18.7734 18.5721C19.3269 19.3211 19.9638 19.8141 20.863 19.9837C22.2424 20.152 23.5841 19.504 24.8527 19.0109C26.1896 18.4938 27.7205 17.9549 29.105 18.5828C29.3705 18.7194 29.6301 18.8651 29.89 19.0133C30.1265 19.1461 30.3635 19.2782 30.6004 19.4103C30.6664 19.4472 30.7324 19.4842 30.8004 19.5223C31.3053 19.8037 31.8152 20.0732 32.3272 20.34C36.4656 22.4971 36.4656 22.4971 38.0811 24.2185C38.1639 24.1894 38.2466 24.1602 38.3319 24.1302C38.2335 23.849 38.1351 23.5678 38.0367 23.2866C38.005 23.1961 37.9734 23.1056 37.9407 23.0123C37.7603 22.497 37.5795 21.9819 37.3982 21.4669C37.34 21.3016 37.2818 21.1363 37.2237 20.971C37.1836 20.8572 37.1435 20.7434 37.1034 20.6296C36.8409 19.8839 36.5806 19.1374 36.3226 18.39C36.1422 17.8674 35.9607 17.3453 35.7783 16.8235C35.6673 16.5054 35.5568 16.1871 35.4478 15.8682C35.3446 15.5664 35.2399 15.2653 35.1339 14.9645C35.0764 14.7998 35.0205 14.6344 34.9647 14.469C34.9299 14.3712 34.8951 14.2733 34.8593 14.1725C34.8296 14.0868 34.7999 14.0011 34.7694 13.9127C34.6692 13.7 34.6692 13.7 34.4503 13.647C34.1734 13.6271 33.9024 13.6407 33.6251 13.6536C32.4542 13.6727 31.4134 13.1311 30.3446 12.6829C26.1477 10.94 23.5041 13.4089 20.6247 16.4261ZM11.5016 26.0712C11.3775 26.255 11.3775 26.255 11.2669 26.4634C11.2238 26.5416 11.1807 26.6199 11.1364 26.7005C11.0914 26.784 11.0465 26.8674 11.0001 26.9534C10.9311 27.0801 10.9311 27.0801 10.8608 27.2094C10.7171 27.4758 10.5763 27.7437 10.4359 28.0121C10.3637 28.1465 10.3637 28.1465 10.29 28.2837C9.94224 28.9511 9.64215 29.6028 9.82474 30.3721C10.0193 30.8856 10.3642 31.1613 10.8225 31.4032C11.2974 31.4935 11.6848 31.4489 12.1128 31.2102C12.5166 30.8534 12.7649 30.4226 13.0123 29.9379C13.0432 29.8777 13.0741 29.8176 13.1059 29.7556C13.1707 29.6288 13.2352 29.5018 13.2995 29.3748C13.3973 29.1822 13.4969 28.9907 13.5966 28.7992C13.6597 28.6752 13.7226 28.5512 13.7855 28.427C13.8151 28.3708 13.8447 28.3145 13.8752 28.2565C14.1045 27.7953 14.2665 27.2719 14.1204 26.7559C13.9185 26.2561 13.549 25.8724 13.0897 25.6301C12.4555 25.5512 11.9766 25.6022 11.5016 26.0712ZM14.9472 28.8837C14.6074 29.3106 14.3855 29.7987 14.1502 30.2949C14.0552 30.4923 13.9602 30.6897 13.8651 30.887C13.8189 30.9833 13.7727 31.0796 13.725 31.1788C13.6059 31.4227 13.483 31.6633 13.3565 31.9029C13.3042 32.0026 13.3042 32.0026 13.2509 32.1042C13.1878 32.2239 13.1237 32.3431 13.0586 32.4615C12.8173 32.9237 12.6948 33.4171 12.7917 33.9443C12.9226 34.4202 13.2045 34.7137 13.5912 34.9818C14.0718 35.1509 14.6419 35.1763 15.1062 34.9377C15.5681 34.5764 15.7989 33.9998 16.0563 33.473C16.2095 33.1621 16.3669 32.8537 16.5245 32.5453C16.7655 32.0726 17.0064 31.5997 17.2454 31.1258C17.2962 31.0253 17.347 30.9248 17.3993 30.8212C17.6125 30.3772 17.6582 30.0024 17.6032 29.5119C17.4463 29.0348 17.1476 28.7435 16.7674 28.4532C16.0917 28.2155 15.4322 28.3147 14.9472 28.8837ZM18.3555 31.6293C18.1892 31.8922 18.1892 31.8922 18.0463 32.1917C18.0194 32.2452 17.9926 32.2987 17.9649 32.3538C17.88 32.5236 17.7965 32.694 17.7129 32.8644C17.6559 32.9789 17.5988 33.0933 17.5417 33.2077C17.3937 33.5043 17.2471 33.8016 17.1017 34.0996C17.0527 34.1973 17.0527 34.1973 17.0026 34.2971C16.8329 34.6843 16.8674 35.2139 16.9949 35.6111C17.2149 36.0453 17.5021 36.3004 17.9166 36.5092C18.3857 36.6139 18.7762 36.5667 19.207 36.3438C19.8149 35.7877 20.1534 35.0391 20.5129 34.2926C20.5618 34.1928 20.6107 34.093 20.661 33.9902C21.0525 33.2061 21.0525 33.2061 21.1137 32.3351C20.9236 31.7309 20.6024 31.368 20.0689 31.0724C19.3959 30.877 18.855 31.1496 18.3555 31.6293ZM25.2093 34.0113C25.2325 34.0582 25.2556 34.1051 25.2795 34.1533C25.3098 34.2157 25.34 34.278 25.3712 34.3422C25.4013 34.4036 25.4313 34.465 25.4623 34.5283C25.8114 35.3392 25.6001 36.1933 25.3765 37.011C25.8873 37.3018 26.2268 37.4362 26.7974 37.2756C27.1543 37.0496 27.3237 36.8046 27.466 36.3934C27.5137 35.9409 27.5007 35.6122 27.2581 35.2158C26.9917 34.9085 26.6407 34.7336 26.2959 34.5407C26.2124 34.491 26.1289 34.4413 26.0428 34.3901C25.6485 34.1226 25.6485 34.1226 25.2093 34.0113ZM21.5992 34.8509C21.3973 35.1435 21.2351 35.4494 21.0771 35.7703C21.0327 35.8587 21.0327 35.8587 20.9874 35.9489C20.7606 36.4359 20.6967 36.8515 20.829 37.389C21.0978 37.9454 21.486 38.3231 21.9913 38.6431C22.2952 38.7073 22.5783 38.7094 22.869 38.599C23.3243 38.2696 23.5486 37.8898 23.804 37.3804C23.8395 37.3126 23.875 37.2447 23.9116 37.1748C24.3834 36.2615 24.3834 36.2615 24.457 35.2465C24.2369 34.7623 23.911 34.4903 23.454 34.276C22.7291 34.0583 22.1069 34.2716 21.5992 34.8509Z" fill="#FF7705"></path>
</svg>
