<?xml version="1.0" encoding="UTF-8"?>
<svg xmlns="http://www.w3.org/2000/svg" width="48" height="48" viewBox="0 0 48 48" fill="none">
  <path fill-rule="evenodd" clip-rule="evenodd" d="M41.0401 31.7471L34.8713 24.5453C34.6237 24.2563 34.8299 23.8139 35.2127 23.8139H38.0859V10.0256C38.0859 9.53649 38.4884 9.13735 38.9824 9.13735H43.7816C44.2751 9.13735 44.6776 9.53649 44.6776 10.0256V23.8139H47.5508C47.9336 23.8139 48.1398 24.2569 47.8922 24.5459L41.7234 31.7477C41.5446 31.9565 41.2195 31.9565 41.0401 31.7471ZM24 9.06237C28.9798 9.06237 33.017 13.0636 33.017 17.9998C33.017 22.936 28.9798 26.9372 24 26.9372C19.0202 26.9372 14.983 22.936 14.983 17.9998C14.983 13.0636 19.0202 9.06237 24 9.06237ZM26.7649 15.62C26.3716 14.6919 25.623 14.156 24.8004 13.9496L24.7999 13.949V13.6813C24.7999 13.243 24.4416 12.8882 24 12.8882C23.5584 12.8882 23.2001 13.243 23.2001 13.6813V13.9599C22.0362 14.2622 21.1629 15.1868 21.2241 16.4315C21.2963 17.9162 22.5669 18.5426 23.8782 18.756C24.4241 18.8448 25.3218 19.0259 25.4028 19.6904C25.4081 19.7348 25.411 19.7619 25.4116 19.7729C25.4238 20.296 24.7195 20.4939 24.3047 20.5441C24.2097 20.5556 24.1317 20.5619 24.0711 20.5631C23.4407 20.5781 22.7329 20.3093 22.5657 19.6466C22.4609 19.222 22.0286 18.9631 21.6004 19.0675C21.1722 19.1719 20.9107 19.6004 21.0161 20.0244C21.2858 21.0978 22.1387 21.809 23.1996 22.0518V22.3183C23.1996 22.7561 23.5578 23.1114 24 23.1114C24.4416 23.1114 24.7999 22.7561 24.7999 22.3183V22.0679C25.99 21.828 27.0363 21.0447 27.0049 19.7354C27.0025 19.6443 26.9979 19.567 26.9903 19.5041C26.8045 17.9865 25.4867 17.4149 24.134 17.1946C23.6668 17.1185 22.8465 16.9472 22.8174 16.3571C22.7923 15.8489 23.2403 15.5577 23.6912 15.4677C24.3455 15.3373 25.0201 15.5975 25.2892 16.2331C25.4605 16.6368 25.9289 16.8266 26.3361 16.6576C26.7439 16.488 26.9356 16.0237 26.7649 15.62ZM24 10.3821C19.7554 10.3821 16.3148 13.7927 16.3148 17.9998C16.3148 22.207 19.7554 25.6175 24 25.6175C28.2446 25.6175 31.6852 22.207 31.6852 17.9998C31.6852 13.7927 28.2446 10.3821 24 10.3821ZM24 11.9683C20.6392 11.9683 17.9145 14.6682 17.9145 17.9998C17.9145 21.3314 20.6392 24.0314 24 24.0314C27.3608 24.0314 30.0855 21.3314 30.0855 17.9998C30.0855 14.6682 27.3608 11.9683 24 11.9683ZM23.4151 43.7318C23.7215 44.0894 24.2785 44.0894 24.5849 43.7318L35.1527 31.3947C35.5768 30.8993 35.2231 30.1413 34.5678 30.1413H29.6457V26.9124C28.0104 27.9328 26.0751 28.5229 24 28.5229C21.9249 28.5229 19.9896 27.9328 18.3543 26.9124V30.1413H13.4322C12.7769 30.1413 12.4232 30.8993 12.8473 31.3947L23.4151 43.7318ZM18.3543 9.08659C19.9896 8.06682 21.9249 7.47618 24 7.47618C26.0751 7.47618 28.0104 8.06682 29.6457 9.08717V6.52159C29.6457 5.6835 28.9565 5 28.1106 5H19.8894C19.0441 5 18.3543 5.6835 18.3543 6.52159V9.08659ZM6.27658 31.7471L0.107788 24.5453C-0.139803 24.2563 0.0664254 23.8139 0.449172 23.8139H3.32239V10.0256C3.32239 9.53649 3.72494 9.13735 4.21838 9.13735H9.01814C9.51157 9.13735 9.91413 9.53649 9.91413 10.0256V23.8139H12.7873C13.1695 23.8139 13.3763 24.2569 13.1287 24.5459L6.95993 31.7477C6.7805 31.9565 6.45543 31.9565 6.27658 31.7471Z" fill="#FF7705"></path>
</svg>
