<?xml version="1.0" encoding="UTF-8"?>
<svg xmlns="http://www.w3.org/2000/svg" width="48" height="48" viewBox="0 0 48 48" fill="none">
  <path d="M21.7502 5.24994C21.7502 7.47744 21.7502 9.70494 21.7502 11.9999C21.0077 12.0463 21.0077 12.0463 20.2502 12.0937C19.6359 12.234 19.6359 12.234 19.1721 12.6152C18.8938 13.0675 18.8796 13.4426 18.9377 13.9687C19.1434 14.3876 19.3584 14.6164 19.7815 14.8124C20.4279 14.9417 21.0923 14.9588 21.7502 14.9999C21.7502 16.2374 21.7502 17.4749 21.7502 18.7499C22.7402 18.7499 23.7302 18.7499 24.7502 18.7499C24.7502 18.5024 24.7502 18.2549 24.7502 17.9999C24.9674 17.1096 25.4688 16.505 26.2385 16.0352C27.0182 15.6525 27.9411 15.6226 28.7833 15.8144C29.6172 16.1218 30.1589 16.655 30.5627 17.4374C30.7778 17.9289 30.7502 18.1633 30.7502 18.7499C32.2352 18.7499 33.7202 18.7499 35.2502 18.7499C35.289 21.4079 35.0792 23.7577 33.844 26.1562C33.7903 26.2664 33.7367 26.3766 33.6814 26.4902C32.6299 28.6043 30.9547 30.3391 29.11 31.7841C28.7718 32.05 28.4413 32.325 28.1099 32.5993C27.844 32.8124 27.844 32.8124 27.6489 32.9274C27.2375 33.1838 27.2375 33.1838 27.0253 33.6043C26.9993 33.8704 26.9948 34.1272 27.0002 34.3945C26.9986 34.5315 26.9986 34.5315 26.997 34.6713C26.9948 34.8957 26.9959 35.1194 27.0002 35.3437C27.0696 35.3685 27.139 35.3932 27.2105 35.4188C27.7218 35.6411 28.1037 36.0109 28.4065 36.4746C28.6252 37.1065 28.6294 37.9583 28.3596 38.5722C28.0784 39.0367 27.6524 39.4929 27.1171 39.6273C27.0476 39.6368 26.9781 39.6464 26.9065 39.6562C26.9374 39.7181 26.9684 39.7799 27.0002 39.8437C27.0595 40.5836 27.1097 41.3033 26.6252 41.9062C26.2901 42.2578 25.9915 42.5696 25.5002 42.6562C25.4954 42.7132 25.4906 42.7703 25.4856 42.829C25.3005 44.2593 24.5417 45.4175 23.4377 46.3124C23.1067 46.5412 22.7756 46.7159 22.4065 46.8749C22.3266 46.9134 22.2467 46.9518 22.1644 46.9914C20.9209 47.5073 19.3528 47.4091 18.1138 46.9277C17.6606 46.7072 17.2656 46.4422 16.8752 46.1249C16.7972 46.0662 16.7191 46.0075 16.6387 45.947C15.7343 45.1795 15.1778 44.0315 15.0706 42.8638C15.0474 42.7953 15.0242 42.7268 15.0002 42.6562C14.7804 42.5422 14.7804 42.5422 14.5315 42.4687C14.0349 42.1445 13.6516 41.7378 13.5002 41.1562C13.4127 40.0187 13.4127 40.0187 13.594 39.6562C13.5245 39.6466 13.455 39.6371 13.3834 39.6273C12.8481 39.4929 12.4221 39.0367 12.1409 38.5722C11.8796 37.9738 11.8985 37.2397 12.0588 36.6155C12.2773 36.1152 12.6768 35.7396 13.1252 35.4374C13.2495 35.4033 13.3745 35.3716 13.5002 35.3437C13.6102 34.2316 13.6102 34.2316 13.2944 33.1986C12.9985 32.8938 12.6409 32.6808 12.2789 32.4628C11.967 32.2619 11.6968 32.0156 11.4202 31.7695C11.311 31.6744 11.2016 31.5796 11.092 31.4849C11.0397 31.4397 10.9874 31.3945 10.9335 31.3479C10.7091 31.1572 10.4786 30.9745 10.2483 30.791C8.74093 29.5569 7.63691 28.0679 6.75025 26.3437C6.72043 26.2868 6.69061 26.23 6.65988 26.1714C6.14428 25.1788 5.80791 24.1445 5.5315 23.0624C5.51455 22.998 5.4976 22.9335 5.48014 22.8671C4.98583 20.8918 5.0336 18.3738 5.5315 16.4062C5.54758 16.3409 5.56367 16.2757 5.58025 16.2084C6.21939 13.6679 7.55594 11.5057 9.2815 9.56244C9.33588 9.50117 9.39026 9.4399 9.44629 9.37677C11.1772 7.54587 13.6258 6.286 16.0315 5.62494C16.1029 5.60509 16.1743 5.58524 16.2479 5.56479C18.0455 5.09295 19.9095 5.22455 21.7502 5.24994ZM10.4534 10.6992C8.82574 12.3333 7.7196 14.3814 7.14282 16.6054C7.11368 16.716 7.11368 16.716 7.08396 16.8289C6.92423 17.4837 6.89751 18.0543 6.844 18.7499C8.29806 18.7499 9.75212 18.7499 11.2502 18.7499C11.3121 18.4096 11.374 18.0693 11.4377 17.7187C11.8162 16.8355 12.2981 16.2897 13.1978 15.9261C14.0147 15.7036 14.9801 15.7387 15.7462 16.107C16.4094 16.4938 16.7932 17.0156 17.0862 17.7187C17.1706 18.0564 17.2071 18.4046 17.2502 18.7499C18.2402 18.7499 19.2302 18.7499 20.2502 18.7499C20.2502 18.0074 20.2502 17.2649 20.2502 16.4999C19.9099 16.4381 19.5696 16.3762 19.219 16.3124C18.3358 15.9339 17.7901 15.4521 17.4264 14.5524C17.2039 13.7355 17.239 12.7701 17.6073 12.004C17.9941 11.3408 18.5159 10.957 19.219 10.664C19.5567 10.5796 19.9049 10.5431 20.2502 10.4999C20.2502 9.26244 20.2502 8.02494 20.2502 6.74994C16.4801 6.74994 13.1642 8.05093 10.4534 10.6992ZM13.219 17.7187C12.5858 18.523 12.7502 19.1742 12.7502 20.2499C10.8012 20.2499 8.85212 20.2499 6.844 20.2499C6.844 20.9503 6.85946 21.5275 7.0022 22.1953C7.01915 22.2762 7.0361 22.3571 7.05356 22.4405C7.54318 24.6933 8.55149 26.5582 10.0315 28.3124C10.1116 28.414 10.1917 28.5156 10.2717 28.6171C10.5721 28.956 10.9044 29.2397 11.2502 29.5312C11.3404 29.6087 11.4306 29.6861 11.5234 29.7659C11.9968 30.1716 12.4738 30.5711 12.9656 30.9543C13.0762 31.0409 13.186 31.1286 13.2949 31.2172C13.5617 31.4326 13.8071 31.6075 14.1111 31.7713C14.4655 31.9842 14.7329 32.1529 14.9065 32.5312C15.0731 33.4319 15.0167 34.3369 15.0002 35.2499C16.7327 35.2499 18.4652 35.2499 20.2502 35.2499C20.2502 33.2699 20.2502 31.2899 20.2502 29.2499C19.9099 29.1881 19.5696 29.1262 19.219 29.0624C18.3358 28.6839 17.7901 28.2021 17.4264 27.3024C17.2039 26.4855 17.239 25.5201 17.6073 24.754C17.9941 24.0908 18.5159 23.707 19.219 23.414C19.5567 23.3296 19.9049 23.2931 20.2502 23.2499C20.2502 22.2599 20.2502 21.2699 20.2502 20.2499C18.7652 20.2499 17.2802 20.2499 15.7502 20.2499C15.7502 19.7549 15.7502 19.2599 15.7502 18.7499C15.6073 18.0906 15.4599 17.8142 14.9065 17.4374C14.3352 17.1518 13.6732 17.3078 13.219 17.7187ZM26.719 17.7187C26.0858 18.523 26.2502 19.1742 26.2502 20.2499C24.7652 20.2499 23.2802 20.2499 21.7502 20.2499C21.7502 21.7349 21.7502 23.2199 21.7502 24.7499C21.2552 24.7499 20.7602 24.7499 20.2502 24.7499C19.5909 24.8929 19.3145 25.0403 18.9377 25.5937C18.7636 25.9419 18.8025 26.3386 18.844 26.7187C19.0641 27.1759 19.3397 27.4128 19.7815 27.6562C20.4157 27.799 20.4157 27.799 21.7502 27.7499C21.7502 30.2249 21.7502 32.6999 21.7502 35.2499C22.9877 35.2499 24.2252 35.2499 25.5002 35.2499C25.4828 34.8284 25.4654 34.4069 25.4475 33.9726C25.4506 32.6043 25.4506 32.6043 25.9188 32.0881C26.2496 31.7984 26.6114 31.5626 26.9894 31.3391C27.2569 31.1767 27.4893 30.9825 27.7268 30.7792C27.8069 30.7135 27.8871 30.6478 27.9696 30.58C28.0519 30.5123 28.1342 30.4447 28.219 30.3749C28.3139 30.2976 28.4087 30.2203 28.5065 30.1406C31.3149 27.8286 33.25 24.8657 33.6565 21.1874C33.6565 20.8781 33.6565 20.5687 33.6565 20.2499C32.2024 20.2499 30.7484 20.2499 29.2502 20.2499C29.2502 19.7549 29.2502 19.2599 29.2502 18.7499C29.1073 18.0906 28.9599 17.8142 28.4065 17.4374C27.8352 17.1518 27.1732 17.3078 26.719 17.7187ZM13.6877 37.0312C13.5546 37.2975 13.5645 37.4863 13.594 37.7812C13.8033 38.0482 13.9268 38.1421 14.2502 38.2499C14.4119 38.259 14.5739 38.2626 14.7358 38.2631C14.8867 38.2639 14.8867 38.2639 15.0405 38.2647C15.1508 38.2648 15.2612 38.2649 15.3748 38.265C15.5491 38.2657 15.5491 38.2657 15.7269 38.2665C16.0457 38.2676 16.3645 38.2683 16.6834 38.2687C16.8827 38.269 17.0819 38.2694 17.2812 38.2698C17.9049 38.2711 18.5286 38.272 19.1523 38.2723C19.8719 38.2728 20.5914 38.2744 21.311 38.2771C21.8674 38.2791 22.4239 38.2801 22.9804 38.2802C23.3126 38.2803 23.6448 38.2809 23.977 38.2825C24.3478 38.2844 24.7185 38.284 25.0893 38.2834C25.199 38.2842 25.3088 38.2851 25.4218 38.286C26.1569 38.2833 26.1569 38.2833 26.8127 37.9687C26.9459 37.7024 26.936 37.5136 26.9065 37.2187C26.6972 36.9517 26.5737 36.8578 26.2502 36.7499C26.0886 36.7409 25.9266 36.7373 25.7646 36.7368C25.6641 36.7362 25.5636 36.7357 25.46 36.7352C25.3497 36.735 25.2393 36.7349 25.1257 36.7348C25.0095 36.7344 24.8933 36.7339 24.7736 36.7334C24.4548 36.7323 24.1359 36.7316 23.8171 36.7312C23.6178 36.7309 23.4186 36.7305 23.2193 36.7301C22.5956 36.7288 21.9719 36.7279 21.3482 36.7275C20.6286 36.7271 19.9091 36.7255 19.1895 36.7228C18.633 36.7207 18.0766 36.7198 17.5201 36.7197C17.1879 36.7196 16.8557 36.719 16.5235 36.7173C16.1527 36.7155 15.782 36.7159 15.4112 36.7165C15.3015 36.7157 15.1917 36.7148 15.0786 36.7139C14.3436 36.7166 14.3436 36.7166 13.6877 37.0312ZM15.1877 40.0312C15.0546 40.2975 15.0645 40.4863 15.094 40.7812C15.3033 41.0482 15.4268 41.1421 15.7502 41.2499C16.034 41.26 16.3156 41.2647 16.5994 41.265C16.7298 41.2657 16.7298 41.2657 16.8628 41.2665C17.1508 41.2678 17.4387 41.2685 17.7267 41.269C17.9267 41.2695 18.1268 41.2701 18.3268 41.2706C18.7464 41.2716 19.1661 41.2721 19.5858 41.2725C20.1233 41.273 20.6608 41.2752 21.1983 41.2779C21.6116 41.2796 22.0249 41.2801 22.4382 41.2803C22.6363 41.2806 22.8345 41.2813 23.0326 41.2825C23.31 41.2841 23.5873 41.284 23.8647 41.2834C23.9464 41.2842 24.0281 41.2851 24.1122 41.286C24.5812 41.2828 24.9073 41.2316 25.3127 40.9687C25.4459 40.7024 25.436 40.5136 25.4065 40.2187C25.1972 39.9517 25.0737 39.8578 24.7502 39.7499C24.4665 39.7399 24.1849 39.7352 23.9011 39.7348C23.7707 39.7341 23.7707 39.7341 23.6377 39.7334C23.3497 39.7321 23.0618 39.7314 22.7738 39.7309C22.5738 39.7304 22.3737 39.7298 22.1737 39.7293C21.754 39.7283 21.3344 39.7277 20.9147 39.7274C20.3772 39.7269 19.8397 39.7247 19.3022 39.722C18.8889 39.7202 18.4756 39.7197 18.0623 39.7196C17.8642 39.7193 17.666 39.7186 17.4679 39.7173C17.1905 39.7157 16.9132 39.7159 16.6358 39.7165C16.5541 39.7157 16.4724 39.7148 16.3883 39.7139C15.9193 39.7171 15.5932 39.7683 15.1877 40.0312ZM16.6877 42.7499C16.8317 43.7579 17.2698 44.3523 18.038 45.008C18.932 45.6667 19.923 45.751 21.0002 45.6562C22.0311 45.446 22.7847 44.8212 23.3964 43.9881C23.6641 43.5782 23.8127 43.2501 23.8127 42.7499C21.4615 42.7499 19.1102 42.7499 16.6877 42.7499Z" fill="#FF7705"></path>
  <path d="M29.8437 0.724963C29.9427 0.724164 30.0416 0.723364 30.1436 0.72254C30.2512 0.722625 30.3588 0.72271 30.4696 0.722797C30.5837 0.722168 30.6978 0.721538 30.8153 0.720889C31.1276 0.719415 31.4398 0.718793 31.7521 0.718674C31.9474 0.71854 32.1428 0.718139 32.3381 0.717643C33.0204 0.715909 33.7027 0.715142 34.385 0.71529C35.0197 0.715403 35.6544 0.713425 36.2891 0.710463C36.8351 0.708006 37.381 0.707006 37.927 0.707125C38.2526 0.707173 38.5782 0.706646 38.9039 0.704655C39.2674 0.702492 39.6309 0.703357 39.9944 0.704487C40.1014 0.703433 40.2084 0.70238 40.3187 0.701294C41.0481 0.707045 41.5529 0.815172 42.1167 1.30924C42.1672 1.37027 42.2177 1.4313 42.2697 1.49417C42.3217 1.55496 42.3737 1.61575 42.4272 1.67838C42.7936 2.21009 42.778 2.70646 42.7774 3.33175C42.7781 3.4312 42.7787 3.53065 42.7794 3.63311C42.7811 3.96176 42.7815 4.2904 42.7817 4.61905C42.7823 4.8478 42.7829 5.07654 42.7836 5.30528C42.7847 5.78483 42.7851 6.26437 42.785 6.74392C42.7849 7.35771 42.7875 7.97145 42.7907 8.58522C42.7928 9.05774 42.7932 9.53024 42.7931 10.0028C42.7933 10.229 42.7941 10.4552 42.7956 10.6815C42.7974 10.9983 42.7969 11.3151 42.7958 11.6319C42.7968 11.7249 42.7979 11.8179 42.7989 11.9137C42.7928 12.5967 42.6453 13.098 42.191 13.6165C42.13 13.667 42.0689 13.7175 42.0061 13.7696C41.9453 13.8215 41.8845 13.8735 41.8219 13.927C41.4607 14.1758 41.1353 14.2737 40.6988 14.2713C40.5665 14.2713 40.5665 14.2713 40.4315 14.2713C40.3376 14.2703 40.2436 14.2693 40.1468 14.2683C40.0011 14.2679 40.0011 14.2679 39.8525 14.2675C39.543 14.2665 39.2335 14.2641 38.924 14.2618C38.7139 14.2608 38.5037 14.26 38.2936 14.2592C37.7791 14.2571 37.2647 14.254 36.7502 14.25C36.7448 14.1475 36.7394 14.0449 36.7338 13.9392C36.7261 13.8031 36.7184 13.6669 36.7107 13.5308C36.7072 13.4634 36.7037 13.396 36.7001 13.3265C36.663 12.6908 36.6072 12.1326 36.135 11.6719C35.6827 11.3936 35.3076 11.3793 34.7815 11.4375C34.3626 11.6432 34.1338 11.8582 33.9377 12.2813C33.8084 12.9277 33.7913 13.5921 33.7502 14.25C31.7702 14.25 29.7902 14.25 27.7502 14.25C27.7502 13.0125 27.7502 11.775 27.7502 10.5C27.5027 10.5 27.2552 10.5 27.0002 10.5C26.1099 10.2829 25.5053 9.78143 25.0355 9.01175C24.6528 8.23205 24.6229 7.30917 24.8147 6.46695C25.1221 5.63308 25.6553 5.09136 26.4377 4.68753C26.8946 4.48765 27.2607 4.49452 27.7502 4.50003C27.7482 4.43864 27.7463 4.37725 27.7443 4.314C27.7364 4.03228 27.7316 3.75058 27.7268 3.46878C27.7221 3.32395 27.7221 3.32395 27.7172 3.17618C27.7079 2.44116 27.8206 1.94142 28.3094 1.38358C28.3704 1.33306 28.4315 1.28255 28.4943 1.2305C28.5551 1.17854 28.6159 1.12657 28.6786 1.07303C29.0551 0.813619 29.3896 0.726628 29.8437 0.724963ZM29.4377 2.53128C29.2085 2.90456 29.2285 3.27233 29.2319 3.70206C29.2323 3.80095 29.2323 3.80095 29.2327 3.90183C29.2337 4.11102 29.2361 4.32016 29.2385 4.52933C29.2394 4.67173 29.2403 4.81412 29.2411 4.95652C29.2431 5.30437 29.2463 5.6522 29.2502 6.00003C29.1476 5.99881 29.0449 5.99759 28.9392 5.99633C28.803 5.99534 28.6668 5.99438 28.5306 5.99344C28.4631 5.99256 28.3957 5.99168 28.3262 5.99076C27.7512 5.98781 27.2002 6.01453 26.7552 6.41861C26.3719 6.86027 26.3106 7.16366 26.318 7.73075C26.3565 8.08359 26.483 8.27046 26.719 8.53128C27.5233 9.16447 28.1745 9.00003 29.2502 9.00003C29.2502 10.2375 29.2502 11.475 29.2502 12.75C30.2402 12.75 31.2302 12.75 32.2502 12.75C32.3121 12.4097 32.374 12.0694 32.4377 11.7188C32.8162 10.8356 33.2981 10.2898 34.1977 9.92618C35.0146 9.70366 35.9801 9.73879 36.7462 10.1071C37.4094 10.4939 37.7932 11.0156 38.0861 11.7188C38.1719 12.062 38.2084 12.3987 38.2502 12.75C38.6135 12.7582 38.9767 12.7632 39.3401 12.7676C39.494 12.7711 39.494 12.7711 39.651 12.7748C40.4021 12.7917 40.4021 12.7917 41.0627 12.4688C41.3017 12.0389 41.2773 11.6076 41.276 11.1296C41.2764 11.0426 41.2769 10.9557 41.2774 10.8661C41.2787 10.5792 41.2786 10.2922 41.2784 10.0053C41.2788 9.80552 41.2792 9.60575 41.2796 9.40599C41.2803 8.98744 41.2803 8.5689 41.2798 8.15036C41.2793 7.61433 41.2808 7.07833 41.283 6.54231C41.2844 6.1298 41.2845 5.7173 41.2842 5.30479C41.2842 5.10717 41.2847 4.90956 41.2857 4.71194C41.2868 4.43548 41.2862 4.15908 41.2851 3.88263C41.2858 3.80123 41.2865 3.71983 41.2873 3.63597C41.2833 3.17182 41.2455 2.82955 40.969 2.43753C40.5448 2.15176 39.9849 2.22309 39.4921 2.22429C39.3905 2.22381 39.2889 2.22333 39.1842 2.22283C38.8486 2.22153 38.513 2.22162 38.1773 2.22184C37.9439 2.22147 37.7105 2.22107 37.4771 2.22062C36.988 2.21992 36.4988 2.21995 36.0097 2.22044C35.5074 2.22094 35.0052 2.22028 34.503 2.21852C33.8964 2.21641 33.2898 2.21568 32.6832 2.21605C32.4521 2.216 32.221 2.21551 31.9899 2.21457C31.6668 2.21341 31.3436 2.21404 31.0205 2.21513C30.9251 2.21441 30.8296 2.2137 30.7313 2.21296C30.2312 2.21668 29.8667 2.24312 29.4377 2.53128Z" fill="#FF7705"></path>
</svg>
