<?xml version="1.0" encoding="UTF-8"?>
<svg xmlns="http://www.w3.org/2000/svg" width="48" height="48" viewBox="0 0 48 48" fill="none">
  <g clip-path="url(#clip0_3599_255)">
    <path d="M15.2481 0.890431C15.4581 0.890076 15.668 0.88956 15.8779 0.888896C16.4436 0.887596 17.0094 0.88863 17.5752 0.890182C18.1693 0.891488 18.7635 0.890874 19.3577 0.890544C20.3547 0.890292 21.3517 0.891541 22.3487 0.893727C23.3721 0.895971 24.3954 0.896633 25.4188 0.89565C26.6563 0.894463 27.8938 0.894704 29.1313 0.89618C29.6024 0.896719 30.0736 0.896714 30.5447 0.896268C31.0996 0.895819 31.6546 0.896776 32.2096 0.898795C32.4126 0.899314 32.6156 0.899363 32.8186 0.898893C34.1003 0.8963 35.2475 0.936232 36.4101 1.53512C36.5152 1.58806 36.6204 1.64099 36.7287 1.69552C37.8719 2.37369 38.5976 3.51135 38.9575 4.77358C39.0303 5.10798 39.0124 5.44896 39.0112 5.7897C39.0113 5.91537 39.0113 5.91537 39.0115 6.04357C39.0116 6.32485 39.0111 6.60611 39.0106 6.88739C39.0106 7.08879 39.0106 7.2902 39.0106 7.49161C39.0107 8.03896 39.0101 8.58631 39.0095 9.13367C39.0089 9.70547 39.0088 10.2773 39.0087 10.8491C39.0084 11.9321 39.0076 13.0152 39.0067 14.0982C39.0056 15.3311 39.0051 16.564 39.0047 17.7969C39.0037 20.3334 39.002 22.8698 38.9999 25.4062C39.085 25.4243 39.085 25.4243 39.1718 25.4427C39.2469 25.4589 39.3219 25.4752 39.3993 25.4919C39.4734 25.5078 39.5475 25.5237 39.6239 25.5401C41.2814 25.9443 42.6802 27.053 43.8749 28.2187C43.9652 28.3003 43.9652 28.3003 44.0573 28.3835C45.9876 30.1702 46.9551 33.0137 47.0888 35.581C47.1826 38.5655 46.1049 41.3807 44.0811 43.5626C44.0131 43.6347 43.945 43.7069 43.8749 43.7812C43.8175 43.8447 43.7601 43.9081 43.701 43.9735C41.942 45.845 39.276 46.8824 36.7499 47.0625C36.3188 47.0756 35.888 47.0759 35.4567 47.0756C35.3276 47.0759 35.1985 47.0762 35.0694 47.0765C34.7168 47.0772 34.3643 47.0774 34.0117 47.0775C33.6307 47.0776 33.2496 47.0784 32.8685 47.079C32.0364 47.0803 31.2042 47.0808 30.3721 47.0812C29.8521 47.0815 29.332 47.0819 28.812 47.0823C27.3707 47.0835 25.9294 47.0844 24.4882 47.0847C24.35 47.0848 24.35 47.0848 24.209 47.0848C24.1167 47.0848 24.0244 47.0848 23.9292 47.0849C23.7422 47.0849 23.5551 47.0849 23.368 47.085C23.2752 47.085 23.1824 47.085 23.0868 47.0851C21.583 47.0854 20.0792 47.0871 18.5754 47.0892C17.0297 47.0915 15.4839 47.0926 13.9381 47.0927C13.0709 47.0928 12.2038 47.0934 11.3366 47.0951C10.5983 47.0965 9.86006 47.097 9.12179 47.0962C8.7455 47.0959 8.36922 47.0959 7.99293 47.0973C7.64773 47.0985 7.30256 47.0983 6.95736 47.0972C6.77489 47.0969 6.59241 47.098 6.40994 47.0992C4.8089 47.0903 3.46005 46.6577 2.29462 45.5343C1.40741 44.5673 0.927354 43.3517 0.924861 42.0377C0.924443 41.935 0.924024 41.8322 0.923594 41.7264C0.923611 41.6145 0.923629 41.5026 0.923647 41.3874C0.923302 41.2677 0.922957 41.1481 0.922602 41.0248C0.921666 40.6934 0.921315 40.3619 0.921066 40.0304C0.920699 39.6727 0.919801 39.3149 0.918983 38.9571C0.917133 38.0933 0.916187 37.2295 0.915352 36.3657C0.914941 35.9585 0.914439 35.5512 0.913948 35.1439C0.912353 33.7891 0.910994 32.4343 0.910314 31.0795C0.910135 30.7281 0.909955 30.3767 0.909772 30.0254C0.909727 29.938 0.909681 29.8507 0.909635 29.7608C0.908857 28.3474 0.906483 26.9342 0.903436 25.5208C0.900331 24.0682 0.898647 22.6155 0.898348 21.1629C0.898145 20.3479 0.897332 19.533 0.894929 18.7181C0.892887 18.0238 0.892143 17.3294 0.893051 16.6351C0.893475 16.2814 0.893312 15.9277 0.89148 15.5739C0.880674 13.3492 0.93063 11.5052 2.57925 9.82588C2.6549 9.75118 2.73055 9.67648 2.80848 9.59952C2.88998 9.5172 2.97148 9.43488 3.05545 9.35007C3.27641 9.12742 3.49834 8.90585 3.72089 8.6848C3.95542 8.45147 4.18879 8.21698 4.42236 7.98269C4.81452 7.58968 5.20764 7.19766 5.60135 6.8062C6.05419 6.35591 6.50533 5.90394 6.95561 5.45108C7.34474 5.05982 7.73479 4.66948 8.1256 4.2799C8.35792 4.0483 8.58993 3.81641 8.8211 3.58367C9.07923 3.32392 9.33927 3.06614 9.5995 2.80851C9.6742 2.73286 9.7489 2.65721 9.82586 2.57927C11.4074 1.02658 13.148 0.880212 15.2481 0.890431ZM13.0312 3.09372C13.0309 3.16266 13.0305 3.23159 13.0302 3.30262C13.0266 3.9576 13.0212 4.61253 13.014 5.26747C13.0103 5.60405 13.0072 5.94061 13.0058 6.27721C13.0044 6.60306 13.0011 6.92885 12.9967 7.25467C12.9946 7.43726 12.9944 7.61987 12.9942 7.80247C12.9748 9.00299 12.6779 10.3857 11.7949 11.2672C11.6029 11.4195 11.6029 11.4195 11.6249 11.625C11.5719 11.6494 11.5188 11.6738 11.4642 11.6989C11.2305 11.8228 11.0332 11.9696 10.8222 12.1289C10.0419 12.6829 9.18669 12.9429 8.23427 12.9567C8.11981 12.9586 8.00535 12.9605 7.88742 12.9624C7.70341 12.9647 7.70341 12.9647 7.51569 12.9671C7.38814 12.9691 7.2606 12.971 7.13305 12.973C6.79846 12.9782 6.46386 12.9828 6.12926 12.9874C5.78738 12.9921 5.44551 12.9973 5.10364 13.0025C4.43367 13.0125 3.76368 13.022 3.09369 13.0312C2.98556 13.6329 2.98658 14.2242 2.98741 14.8343C2.9872 14.9497 2.98698 15.0652 2.98676 15.1841C2.98627 15.5035 2.9862 15.8228 2.98631 16.1421C2.98633 16.487 2.98582 16.8318 2.98537 17.1767C2.98459 17.8519 2.98433 18.5271 2.98428 19.2024C2.98424 19.7514 2.98404 20.3004 2.98375 20.8495C2.98292 22.4071 2.98249 23.9648 2.98256 25.5224C2.98256 25.6063 2.98257 25.6903 2.98257 25.7767C2.98258 25.8608 2.98258 25.9448 2.98258 26.0314C2.98262 27.3928 2.98173 28.7543 2.9804 30.1158C2.97906 31.5147 2.97841 32.9137 2.97849 34.3126C2.97852 35.0976 2.97827 35.8826 2.97725 36.6676C2.9764 37.3361 2.9762 38.0045 2.97683 38.6729C2.97714 39.0137 2.97715 39.3544 2.97633 39.6952C2.97545 40.0653 2.97604 40.4354 2.97677 40.8055C2.97628 40.9122 2.9758 41.0189 2.9753 41.1289C2.98027 42.2841 3.11632 43.2483 3.89972 44.139C4.75726 44.9479 5.85587 45.0146 6.9722 45.0112C7.11718 45.0114 7.11718 45.0114 7.26508 45.0115C7.58824 45.0116 7.91139 45.0111 8.23454 45.0106C8.46647 45.0106 8.6984 45.0106 8.93033 45.0107C9.42929 45.0107 9.92826 45.0104 10.4272 45.0099C11.1486 45.0091 11.87 45.0089 12.5915 45.0088C13.762 45.0086 14.9325 45.0079 16.1031 45.007C17.2399 45.0062 18.3768 45.0055 19.5136 45.0051C19.5837 45.0051 19.6538 45.0051 19.7261 45.005C20.0778 45.0049 20.4296 45.0048 20.7814 45.0047C23.698 45.0037 26.6146 45.0021 29.5312 45C29.2628 44.73 28.9953 44.4669 28.705 44.2207C26.4766 42.2713 25.2277 39.5767 25.0158 36.6298C24.8631 33.697 25.8597 30.8573 27.8027 28.664C27.9408 28.5151 28.0795 28.3666 28.2187 28.2187C28.2945 28.1339 28.2945 28.1339 28.3718 28.0473C29.8446 26.4635 32.1898 25.4168 34.3124 25.125C34.3801 25.1147 34.4478 25.1044 34.5175 25.0938C35.0535 25.0259 35.5867 25.0269 36.1259 25.029C36.2041 25.0292 36.2822 25.0293 36.3628 25.0295C36.5543 25.0299 36.7459 25.0305 36.9374 25.0312C36.9462 22.4927 36.9528 19.9542 36.9569 17.4157C36.9588 16.237 36.9614 15.0583 36.9657 13.8795C36.9695 12.852 36.9719 11.8245 36.9727 10.797C36.9732 10.2531 36.9744 9.7092 36.9771 9.16527C36.9796 8.65294 36.9804 8.14064 36.9799 7.62831C36.98 7.44064 36.9807 7.25296 36.9821 7.0653C36.9911 5.83555 36.968 4.85307 36.0805 3.9144C35.2312 3.11331 34.3214 2.98497 33.1844 2.98806C33.1012 2.98792 33.018 2.98777 32.9323 2.98762C32.6548 2.98725 32.3772 2.98754 32.0996 2.98784C31.9002 2.98771 31.7007 2.98754 31.5012 2.98734C30.9602 2.98691 30.4193 2.98708 29.8783 2.98737C29.3119 2.98761 28.7455 2.98739 28.1792 2.98724C27.2281 2.98707 26.277 2.9873 25.3259 2.98774C24.2266 2.98825 23.1273 2.98809 22.028 2.98757C21.0839 2.98715 20.1398 2.98709 19.1956 2.98733C18.6319 2.98748 18.0681 2.9875 17.5044 2.98719C16.9743 2.98692 16.4443 2.98711 15.9143 2.98765C15.7198 2.98777 15.5254 2.98774 15.3309 2.98753C15.0654 2.98727 14.7998 2.98759 14.5343 2.98806C14.4575 2.98785 14.3807 2.98764 14.3016 2.98743C13.8685 2.9889 13.4585 3.02209 13.0312 3.09372ZM10.4647 4.99129C10.4063 5.04988 10.3479 5.10847 10.2877 5.16883C10.2264 5.22994 10.1651 5.29106 10.102 5.35402C9.89836 5.55726 9.69505 5.76084 9.49177 5.96444C9.35109 6.10506 9.21039 6.24566 9.06968 6.38625C8.77438 6.68142 8.47925 6.97675 8.18423 7.27221C7.80506 7.65191 7.42547 8.03119 7.04576 8.41035C6.75502 8.70075 6.46451 8.99136 6.17406 9.28205C6.03414 9.42204 5.89415 9.56195 5.75409 9.70179C5.55877 9.89688 5.36375 10.0923 5.16881 10.2877C5.08092 10.3753 5.08092 10.3753 4.99127 10.4647C4.72085 10.682 4.72085 10.682 4.59369 10.9687C5.11058 10.9757 5.62744 10.9808 6.14437 10.9842C6.31985 10.9856 6.49533 10.9875 6.6708 10.9899C8.05032 11.0087 9.11539 10.9915 10.1835 10.0136C10.883 9.29402 10.9837 8.43625 10.9778 7.47763C10.9777 7.39506 10.9776 7.31248 10.9774 7.22741C10.9769 6.96474 10.9757 6.70208 10.9746 6.43942C10.9741 6.26089 10.9737 6.08236 10.9733 5.90384C10.9722 5.46713 10.9706 5.03042 10.9687 4.59372C10.7554 4.59372 10.6086 4.84803 10.4647 4.99129ZM29.9999 29.3437C29.8805 29.4519 29.8805 29.4519 29.7586 29.5623C28.3359 30.911 27.1926 32.9548 27.0786 34.9522C27.0288 36.7649 27.0288 36.7649 27.3749 38.5312C27.4068 38.631 27.4388 38.7309 27.4716 38.8337C28.3099 41.2071 30.0098 43.0407 32.2455 44.1694C34.3908 45.193 36.8726 45.2221 39.0937 44.4375C41.4573 43.474 43.3146 41.7162 44.3349 39.3654C45.1912 37.0963 45.1919 34.5513 44.1943 32.328C43.0991 30.1224 41.3339 28.3517 38.9897 27.5112C35.8801 26.4888 32.4212 27.0979 29.9999 29.3437Z" fill="#FF7705"></path>
    <path d="M10.5595 18.9237C10.685 18.9232 10.685 18.9232 10.8131 18.9227C11.0946 18.9216 11.3762 18.9213 11.6577 18.9209C11.8591 18.9203 12.0605 18.9197 12.262 18.9191C12.8099 18.9174 13.3579 18.9164 13.9059 18.9157C14.2481 18.9152 14.5902 18.9146 14.9324 18.914C16.0025 18.9122 17.0726 18.9109 18.1427 18.9101C19.379 18.9092 20.6152 18.9067 21.8514 18.9029C22.8063 18.9001 23.7613 18.8987 24.7162 18.8984C25.2868 18.8982 25.8575 18.8974 26.4281 18.895C26.9648 18.8928 27.5015 18.8924 28.0382 18.8934C28.2353 18.8934 28.4324 18.8928 28.6294 18.8916C28.8983 18.8899 29.1672 18.8906 29.4361 18.8918C29.5141 18.8908 29.5922 18.8897 29.6726 18.8887C30.1682 18.8942 30.4517 18.9823 30.8438 19.3125C31.0751 19.6596 31.0951 19.9411 31.0313 20.3438C30.75 20.8594 30.75 20.8594 30.4688 21C30.197 21.0098 29.9275 21.0139 29.6557 21.0138C29.5705 21.0142 29.4853 21.0145 29.3975 21.0149C29.1103 21.0159 28.823 21.0163 28.5358 21.0166C28.3306 21.0172 28.1253 21.0178 27.9201 21.0185C27.3613 21.0201 26.8024 21.0211 26.2436 21.0219C25.8948 21.0224 25.5459 21.0229 25.1971 21.0235C24.169 21.0252 23.1409 21.0265 22.1128 21.0273C21.9246 21.0274 21.7365 21.0275 21.5483 21.0277C21.486 21.0277 21.4237 21.0278 21.3595 21.0278C20.3501 21.0286 19.3408 21.031 18.3314 21.034C17.2954 21.0371 16.2595 21.0388 15.2235 21.0391C14.6417 21.0393 14.0599 21.0402 13.4781 21.0425C12.9309 21.0447 12.3838 21.0451 11.8366 21.0441C11.6356 21.0441 11.4345 21.0447 11.2335 21.046C10.9594 21.0476 10.6854 21.047 10.4113 21.0457C10.3315 21.0468 10.2516 21.0478 10.1693 21.0489C9.79186 21.0447 9.60742 21.0285 9.28096 20.8214C8.95351 20.4779 8.96338 20.1924 8.9667 19.7329C9.00003 19.5 9.00003 19.5 9.21683 19.2129C9.6511 18.8998 10.0445 18.9236 10.5595 18.9237Z" fill="#FF7705"></path>
    <path d="M10.3317 24.9237C10.4535 24.923 10.5754 24.9224 10.7009 24.9217C10.8363 24.9214 10.9716 24.9212 11.1069 24.9209C11.2492 24.9203 11.3915 24.9197 11.5338 24.9191C12.0013 24.9171 12.4689 24.9161 12.9364 24.9152C13.0974 24.9148 13.2583 24.9144 13.4193 24.914C14.1755 24.9122 14.9316 24.9109 15.6878 24.9101C16.5606 24.9092 17.4335 24.9067 18.3063 24.9029C18.981 24.9001 19.6557 24.8987 20.3304 24.8984C20.7333 24.8982 21.1363 24.8974 21.5392 24.895C21.9184 24.8928 22.2975 24.8924 22.6766 24.8934C22.8156 24.8934 22.9546 24.8928 23.0936 24.8915C23.2837 24.8899 23.4738 24.8908 23.6638 24.8918C23.7701 24.8916 23.8764 24.8913 23.9859 24.8911C24.3528 24.9487 24.5549 25.0829 24.8438 25.3125C25.0751 25.6596 25.0951 25.9411 25.0312 26.3438C24.75 26.8594 24.75 26.8594 24.4688 27C24.2738 27.0096 24.0786 27.0131 23.8835 27.0138C23.7924 27.0143 23.7924 27.0143 23.6995 27.0149C23.4952 27.0159 23.2909 27.0163 23.0866 27.0166C22.9404 27.0172 22.7943 27.0178 22.6482 27.0185C22.2505 27.0201 21.8528 27.0211 21.4552 27.0219C21.2068 27.0224 20.9585 27.0229 20.7101 27.0235C19.9334 27.0253 19.1567 27.0266 18.3799 27.0274C17.4828 27.0283 16.5856 27.0308 15.6885 27.0346C14.9954 27.0374 14.3023 27.0388 13.6093 27.0391C13.1951 27.0393 12.781 27.0402 12.3669 27.0425C11.9773 27.0447 11.5877 27.0451 11.1981 27.0441C11.0552 27.0441 10.9122 27.0447 10.7692 27.046C10.5739 27.0476 10.3788 27.047 10.1835 27.0457C10.0743 27.046 9.96501 27.0462 9.85245 27.0464C9.50109 26.9902 9.34603 26.871 9.09375 26.625C8.91951 26.2765 8.94571 25.8794 9 25.5C9.38707 24.9874 9.71565 24.926 10.3317 24.9237Z" fill="#FF7705"></path>
    <path d="M40.6874 32.1563C41.0162 32.3922 41.1787 32.5951 41.2558 32.9883C41.3182 33.3971 41.0927 33.7031 40.8749 34.0313C40.7057 34.2364 40.5213 34.4226 40.3321 34.6091C40.2788 34.6627 40.2256 34.7163 40.1707 34.7715C39.9961 34.9468 39.8205 35.1212 39.6448 35.2955C39.5224 35.4178 39.4001 35.5402 39.2778 35.6627C39.022 35.9184 38.7658 36.1737 38.5092 36.4286C38.1808 36.7549 37.8534 37.0822 37.5263 37.4099C37.2741 37.6625 37.0213 37.9146 36.7684 38.1665C36.6476 38.2871 36.5268 38.4077 36.4062 38.5285C36.2375 38.6972 36.0682 38.8653 35.8987 39.0333C35.8245 39.1078 35.8245 39.1078 35.7489 39.1838C35.3755 39.5519 35.0769 39.8222 34.5468 39.879C33.8824 39.8078 33.4999 39.3389 33.0512 38.8854C32.9855 38.8197 32.9198 38.7539 32.8521 38.6862C32.7138 38.5477 32.5758 38.4089 32.438 38.2699C32.2264 38.0566 32.0141 37.8441 31.8017 37.6317C31.6674 37.4969 31.5331 37.3621 31.3989 37.2272C31.3034 37.1316 31.3034 37.1316 31.2059 37.034C31.1474 36.9748 31.0889 36.9157 31.0285 36.8548C30.9769 36.8027 30.9252 36.7507 30.872 36.6971C30.6286 36.4287 30.6255 36.1779 30.6287 35.8224C30.6728 35.5054 30.8308 35.3042 31.0312 35.0626C31.2506 34.9529 31.4076 34.9371 31.6523 34.9219C31.7672 34.9118 31.7672 34.9118 31.8845 34.9014C32.3236 35.0103 32.5878 35.3149 32.9062 35.6251C32.9724 35.6893 33.0386 35.7535 33.1067 35.8196C33.3072 36.0169 33.5054 36.216 33.7031 36.4161C33.7712 36.4847 33.8394 36.5532 33.9096 36.6239C34.0754 36.7907 34.2409 36.9578 34.4062 37.1251C34.7547 36.9797 34.9721 36.7671 35.235 36.499C35.2788 36.4547 35.3227 36.4103 35.3678 36.3645C35.4626 36.2684 35.5571 36.1721 35.6515 36.0756C35.8013 35.9226 35.9517 35.7702 36.1023 35.6181C36.5303 35.1855 36.9573 34.7519 37.3834 34.3174C37.6444 34.0513 37.9063 33.7862 38.1688 33.5216C38.2683 33.421 38.3675 33.3199 38.4663 33.2186C38.6049 33.0763 38.7446 32.9353 38.8847 32.7944C39.0032 32.6738 39.0032 32.6738 39.1242 32.5508C39.6078 32.1516 40.0624 31.9711 40.6874 32.1563Z" fill="#FF7705"></path>
    <path d="M10.257 36.9237C10.3622 36.923 10.4675 36.9223 10.576 36.9216C10.6916 36.9214 10.8071 36.9211 10.9262 36.9209C11.0479 36.9203 11.1695 36.9196 11.2949 36.919C11.6985 36.917 12.1021 36.9161 12.5057 36.9151C12.6448 36.9148 12.7838 36.9144 12.9228 36.914C13.576 36.9122 14.2291 36.9109 14.8822 36.9101C15.6359 36.9092 16.3895 36.9067 17.1431 36.9029C17.7258 36.9001 18.3085 36.8987 18.8913 36.8984C19.2392 36.8982 19.5872 36.8973 19.9351 36.895C20.3234 36.8924 20.7116 36.8928 21.0999 36.8934C21.2724 36.8916 21.2724 36.8916 21.4484 36.8898C22.0429 36.8934 22.4281 36.9017 22.875 37.3125C23.063 37.5814 23.0875 37.78 23.0566 38.1035C23.0517 38.173 23.0467 38.2425 23.0416 38.3141C22.9336 38.6359 22.793 38.8337 22.5 39C22.0897 39.0718 21.6822 39.063 21.2666 39.0591C21.1398 39.0596 21.0131 39.0603 20.8863 39.0612C20.5427 39.0629 20.1991 39.0617 19.8554 39.0598C19.4956 39.0583 19.1357 39.0591 18.7758 39.0596C18.1715 39.06 17.5672 39.0586 16.9629 39.0559C16.2646 39.0529 15.5663 39.0529 14.8679 39.0545C14.1957 39.056 13.5235 39.0554 12.8513 39.0538C12.5654 39.0532 12.2796 39.0533 11.9937 39.0539C11.657 39.0547 11.3203 39.0535 10.9835 39.051C10.8012 39.05 10.6189 39.0509 10.4366 39.0518C10.3278 39.0506 10.219 39.0494 10.1069 39.0482C10.0125 39.048 9.91814 39.0477 9.82092 39.0474C9.49209 38.987 9.33353 38.8531 9.09375 38.625C8.91951 38.2765 8.94571 37.8794 9 37.5C9.36466 37.017 9.67318 36.9262 10.257 36.9237Z" fill="#FF7705"></path>
    <path d="M10.257 30.9237C10.3622 30.923 10.4675 30.9223 10.576 30.9216C10.6916 30.9214 10.8071 30.9211 10.9262 30.9209C11.0479 30.9203 11.1695 30.9196 11.2949 30.919C11.6985 30.917 12.1021 30.9161 12.5057 30.9151C12.6448 30.9148 12.7838 30.9144 12.9228 30.914C13.576 30.9122 14.2291 30.9109 14.8822 30.9101C15.6359 30.9092 16.3895 30.9067 17.1431 30.9029C17.7258 30.9001 18.3085 30.8987 18.8913 30.8984C19.2392 30.8982 19.5872 30.8973 19.9351 30.895C20.3234 30.8924 20.7116 30.8928 21.0999 30.8934C21.2724 30.8916 21.2724 30.8916 21.4484 30.8898C22.0429 30.8934 22.4281 30.9017 22.875 31.3125C23.063 31.5814 23.0875 31.78 23.0566 32.1035C23.0517 32.173 23.0467 32.2425 23.0416 32.3141C22.9336 32.6359 22.793 32.8337 22.5 33C22.0897 33.0718 21.6822 33.063 21.2666 33.0591C21.1398 33.0596 21.0131 33.0603 20.8863 33.0612C20.5427 33.0629 20.1991 33.0617 19.8554 33.0598C19.4956 33.0583 19.1357 33.0591 18.7758 33.0596C18.1715 33.06 17.5672 33.0586 16.9629 33.0559C16.2646 33.0529 15.5663 33.0529 14.8679 33.0545C14.1957 33.056 13.5235 33.0554 12.8513 33.0538C12.5654 33.0532 12.2796 33.0533 11.9937 33.0539C11.657 33.0547 11.3203 33.0535 10.9835 33.051C10.8012 33.05 10.6189 33.0509 10.4366 33.0518C10.3278 33.0506 10.219 33.0494 10.1069 33.0482C10.0125 33.048 9.91814 33.0477 9.82092 33.0474C9.49209 32.987 9.33353 32.8531 9.09375 32.625C8.91951 32.2765 8.94571 31.8794 9 31.5C9.36466 31.017 9.67318 30.9262 10.257 30.9237Z" fill="#FF7705"></path>
  </g>
  <defs>
    <clipPath id="clip0_3599_255">
      <rect width="48" height="48" fill="white"></rect>
    </clipPath>
  </defs>
</svg>
