<?xml version="1.0" encoding="UTF-8"?>
<svg xmlns="http://www.w3.org/2000/svg" width="48" height="48" viewBox="0 0 48 48" fill="none">
  <path d="M42.3282 4.01363C42.409 4.02018 42.4898 4.02674 42.5731 4.0335C43.0058 4.07624 43.3411 4.12037 43.6875 4.40621C43.8419 4.6667 43.9044 4.88527 43.9344 5.18514C43.9423 5.26222 43.9501 5.3393 43.9583 5.41871C43.9656 5.50031 43.9729 5.5819 43.9805 5.66597C43.9883 5.75077 43.9962 5.83557 44.0042 5.92294C44.5005 11.5973 42.2332 17.1671 38.6663 21.4971C38.35 21.8698 38.0162 22.2263 37.6802 22.5813C37.4768 22.7963 37.2826 23.0176 37.0899 23.2423C36.7555 23.6263 36.3967 23.9763 36.0235 24.3222C35.958 24.3833 35.8925 24.4443 35.825 24.5072C34.5886 25.6505 34.5886 25.6505 33.9834 26.0178C33.5956 26.2755 33.3251 26.4611 33.2016 26.9234C33.1777 27.2781 33.1804 27.6231 33.1934 27.9785C33.1951 28.2317 33.1935 28.4848 33.1923 28.738C33.1925 28.8591 33.1927 28.9802 33.1929 29.105C33.1416 32.2904 31.4027 35.4093 29.1874 37.5956C27.5099 39.2074 24.6753 41.1759 22.3008 41.3027C21.9375 41.25 21.9375 41.25 21.7032 41.0976C21.5276 40.8197 21.4754 40.6421 21.4688 40.3125C21.6402 39.9129 21.8505 39.6118 22.1368 39.2871C23.6841 37.4212 24.6128 35.0625 24.4688 32.625C24.4401 32.4059 24.4096 32.187 24.375 31.9687C23.8787 31.9687 23.5166 32.1771 23.0809 32.3917C22.6109 32.6106 22.2695 32.688 21.75 32.625C21.5352 32.5191 21.3764 32.401 21.1875 32.25C21.1317 32.3063 21.0759 32.3626 21.0184 32.4206C20.8114 32.6292 20.6041 32.8376 20.3968 33.0459C20.307 33.1361 20.2174 33.2264 20.1278 33.3168C19.9991 33.4466 19.87 33.5761 19.741 33.7056C19.6634 33.7837 19.5859 33.8618 19.5059 33.9422C19.2644 34.1704 19.163 34.2126 18.8321 34.2656C18.4518 34.2165 18.3946 34.1874 18.128 33.9438C18.0297 33.854 18.0297 33.854 17.9294 33.7625C17.5499 33.402 17.1777 33.0347 16.808 32.6641C16.682 32.5382 16.682 32.5382 16.5534 32.4098C16.3772 32.2336 16.2011 32.0574 16.0251 31.881C15.7995 31.6549 15.5735 31.4292 15.3474 31.2036C15.1309 30.9875 14.9148 30.7711 14.6987 30.5548C14.6174 30.4737 14.5362 30.3927 14.4525 30.3092C14.3779 30.2343 14.3034 30.1595 14.2266 30.0824C14.1608 30.0165 14.095 29.9506 14.0272 29.8828C13.82 29.6594 13.7833 29.544 13.7344 29.2382C13.8029 28.7073 14.0655 28.4935 14.4375 28.125C14.5495 28.0119 14.6615 27.8987 14.7734 27.7855C15.097 27.4592 15.423 27.1354 15.75 26.8125C15.6882 26.7351 15.6263 26.6578 15.5625 26.5781C15.3338 26.2284 15.3027 25.9071 15.375 25.5C15.4775 25.1765 15.6097 24.8711 15.75 24.5625C15.8037 24.4401 15.8037 24.4401 15.8584 24.3153C15.9461 24.1158 16.035 23.9171 16.125 23.7187C14.3045 23.1299 12.3447 23.7626 10.6875 24.5625C9.87803 24.993 9.1473 25.5136 8.44121 26.0969C8.09613 26.3732 7.84109 26.5343 7.39458 26.5253C7.06725 26.4186 6.93884 26.3529 6.75005 26.0625C6.65819 25.4316 6.82237 24.8962 7.05473 24.3164C7.08774 24.2323 7.12075 24.1482 7.15475 24.0616C7.98331 22.015 9.06434 20.2423 10.5938 18.6562C10.6609 18.5832 10.7279 18.5102 10.797 18.435C12.7989 16.3167 15.7068 15.1522 18.5625 14.8125C18.7748 14.8155 18.9871 14.8234 19.199 14.8355C20.5846 14.9395 20.5846 14.9395 21.7944 14.4184C22.0621 14.1091 22.2717 13.7681 22.4744 13.4136C22.6578 13.1143 22.8893 12.8719 23.1329 12.6211C23.4338 12.2994 23.7288 11.975 24.0176 11.6425C24.998 10.5536 26.1068 9.59135 27.2813 8.71871C27.3332 8.67975 27.385 8.64079 27.4385 8.60065C28.3474 7.92092 29.3022 7.323 30.2813 6.74996C30.3389 6.71589 30.3964 6.68183 30.4557 6.64673C31.5874 5.98379 32.8087 5.5279 34.0313 5.06246C34.098 5.0362 34.1647 5.00995 34.2334 4.9829C36.7217 4.00529 39.684 3.78166 42.3282 4.01363ZM36.5625 6.09371C36.8146 7.47979 37.4193 8.68025 38.4375 9.65621C38.4997 9.72122 38.5618 9.78624 38.6258 9.85323C39.5039 10.718 40.707 11.2194 41.9063 11.4375C42.6465 9.87023 42.5891 7.37912 42.2813 5.71871C40.6764 5.35004 38.0879 5.37479 36.5625 6.09371ZM26.8342 11.2456C26.6407 11.4231 26.4436 11.5948 26.2442 11.7656C25.5676 12.3562 24.9561 13.0038 24.375 13.6875C24.299 13.775 24.223 13.8624 24.1447 13.9526C21.3168 17.2246 19.0946 21.1092 17.3998 25.0759C17.3685 25.1487 17.3372 25.2215 17.305 25.2966C17.2377 25.5455 17.2518 25.6339 17.3438 25.875C17.5403 26.1169 17.5403 26.1169 17.793 26.3665C17.8397 26.4143 17.8863 26.462 17.9344 26.5112C18.0887 26.6687 18.2441 26.825 18.3996 26.9813C18.5074 27.0903 18.6152 27.1992 18.723 27.3082C18.9491 27.5364 19.1758 27.764 19.4028 27.9912C19.6937 28.2826 19.9824 28.5761 20.2706 28.8702C20.4925 29.096 20.7159 29.3202 20.9397 29.5441C21.0468 29.6517 21.1534 29.7598 21.2594 29.8685C21.4077 30.0203 21.558 30.1698 21.7089 30.319C21.8365 30.4476 21.8365 30.4476 21.9667 30.5787C22.209 30.7801 22.209 30.7801 22.5152 30.7365C22.7991 30.6508 23.0591 30.5483 23.328 30.4233C23.4849 30.3507 23.4849 30.3507 23.6449 30.2767C23.812 30.1977 23.812 30.1977 23.9825 30.1171C24.0402 30.09 24.098 30.0629 24.1575 30.0349C27.4025 28.5097 30.5017 26.7469 33.2813 24.4687C33.3306 24.4286 33.3799 24.3884 33.4307 24.3471C35.1943 22.9051 36.7868 21.3212 38.1563 19.5C38.1957 19.4482 38.235 19.3964 38.2756 19.343C39.6982 17.4617 40.8694 15.2991 41.5313 13.0312C41.4472 13.0128 41.3631 12.9945 41.2764 12.9755C39.1457 12.4649 37.2727 11.2806 36.0988 9.3978C35.5547 8.4938 35.2342 7.57814 34.9688 6.56246C32.2113 6.56246 28.7798 9.45546 26.8342 11.2456ZM11.8803 19.7076C10.9677 20.6411 9.92933 21.8943 9.56255 23.1562C9.61012 23.1355 9.6577 23.1147 9.70672 23.0933C12.1224 22.0444 14.3422 21.5368 16.9688 22.0312C16.997 21.979 17.0252 21.9269 17.0542 21.8731C19.0093 18.2596 19.0093 18.2596 19.8802 17.0099C20.09 16.7342 20.09 16.7342 20.1563 16.4062C17.0391 16.3618 14.149 17.5956 11.8803 19.7076ZM30.7325 28.2832C29.737 28.94 28.6988 29.5157 27.6563 30.0937C27.4854 30.1889 27.3145 30.2841 27.1436 30.3794C26.7523 30.5973 26.3607 30.8145 25.9688 31.0312C25.9891 31.1391 25.9891 31.1391 26.0098 31.2491C26.4447 33.8493 25.9188 36.0714 24.8438 38.4375C25.2887 38.3094 25.6552 38.1164 26.0391 37.8632C26.125 37.8072 26.125 37.8072 26.2126 37.7501C26.719 37.4151 27.1927 37.0483 27.6563 36.6562C27.7205 36.6046 27.7846 36.553 27.8508 36.4998C28.3939 36.0506 28.8192 35.524 29.25 34.9687C29.3129 34.8918 29.3757 34.815 29.4405 34.7358C30.3936 33.5179 30.9475 32.0518 31.3125 30.5625C31.3344 30.4736 31.3563 30.3848 31.3788 30.2933C31.5488 29.49 31.5596 28.6617 31.5938 27.8437C31.2624 27.8437 31.001 28.1025 30.7325 28.2832ZM16.7044 28.2773C16.6006 28.3823 16.4974 28.4878 16.3946 28.5937C16.3154 28.6742 16.3154 28.6742 16.2345 28.7563C16.1039 28.8892 15.9738 29.0226 15.8438 29.1562C16.3882 29.8236 17.0028 30.4194 17.6133 31.0253C17.7237 31.1353 17.8341 31.2452 17.9444 31.3551C18.2127 31.6224 18.4813 31.8894 18.75 32.1562C19.2534 31.7322 19.2534 31.7322 19.7286 31.2773C19.8078 31.1961 19.8871 31.1149 19.9688 31.0312C19.8491 30.7692 19.7251 30.5764 19.522 30.3727C19.4701 30.3201 19.4181 30.2676 19.3646 30.2135C19.2808 30.1303 19.2808 30.1303 19.1954 30.0454C19.1378 29.9876 19.0802 29.9299 19.0209 29.8704C18.8995 29.7488 18.7778 29.6275 18.6559 29.5064C18.4688 29.3203 18.2827 29.1332 18.0967 28.946C17.9786 28.828 17.8605 28.7101 17.7422 28.5922C17.6864 28.536 17.6305 28.4798 17.573 28.4218C17.1631 27.9687 17.1631 27.9687 16.7044 28.2773Z" fill="#FF7705"></path>
  <path d="M33.8438 13.875C34.649 14.6137 35.0722 15.6046 35.1563 16.6875C35.1693 17.9272 34.7673 18.9536 33.9376 19.875C33.1336 20.5937 32.114 21.0112 31.0313 21C29.944 20.9355 28.8978 20.572 28.1251 19.7813C27.3276 18.8131 26.9387 17.7633 27.0173 16.5059C27.1536 15.4263 27.6477 14.4134 28.4993 13.7238C30.1532 12.5378 32.2625 12.5843 33.8438 13.875ZM29.2501 15.375C28.7572 16.0369 28.6699 16.7244 28.7813 17.5313C29.0061 18.2749 29.5377 18.7295 30.1876 19.125C30.836 19.3412 31.5746 19.3133 32.1973 19.0313C32.7711 18.7029 33.1985 18.1733 33.3751 17.5313C33.5301 16.8276 33.4191 16.2677 33.0729 15.6339C32.6973 15.0783 32.2176 14.7483 31.5726 14.5661C30.7091 14.4211 29.8499 14.7472 29.2501 15.375Z" fill="#FF7705"></path>
  <path d="M14.6484 33.0703C14.8564 33.2189 14.919 33.3197 14.9999 33.5625C15.0656 34.066 14.9184 34.2865 14.6249 34.6875C14.4674 34.861 14.3052 35.0303 14.1393 35.1959C14.0922 35.2432 14.045 35.2906 13.9964 35.3393C13.842 35.4941 13.6869 35.6482 13.5318 35.8023C13.4237 35.9103 13.3156 36.0183 13.2075 36.1264C12.9817 36.352 12.7556 36.5774 12.5293 36.8025C12.2392 37.091 11.9497 37.3801 11.6605 37.6694C11.4376 37.8922 11.2146 38.1148 10.9914 38.3372C10.8846 38.4438 10.7778 38.5504 10.671 38.6571C10.5221 38.8058 10.3728 38.9543 10.2234 39.1026C10.1386 39.1871 10.0537 39.2716 9.96631 39.3587C9.66745 39.6402 9.52003 39.7442 9.10541 39.791C8.79215 39.7812 8.71324 39.7464 8.43744 39.5625C8.24884 39.2796 8.15803 39.0826 8.18115 38.7386C8.27224 38.4641 8.41513 38.314 8.61238 38.1028C8.68907 38.0204 8.76577 37.9381 8.84479 37.8532C9.26755 37.4125 9.6951 36.9769 10.1268 36.5449C10.2235 36.4479 10.3201 36.3509 10.4168 36.2539C10.6175 36.0527 10.8183 35.8517 11.0193 35.6508C11.2765 35.3936 11.533 35.1358 11.7893 34.8779C11.9879 34.6782 12.1869 34.479 12.386 34.28C12.4809 34.185 12.5755 34.0899 12.6701 33.9947C12.8017 33.8622 12.934 33.7303 13.0663 33.5984C13.1412 33.5234 13.2161 33.4483 13.2932 33.371C13.7114 32.9998 14.1022 32.8883 14.6484 33.0703Z" fill="#FF7705"></path>
  <path d="M16.0313 37.4063C16.3003 37.6921 16.3136 37.8379 16.3019 38.2316C16.2403 38.6555 16.035 38.8993 15.7321 39.1892C15.6815 39.2402 15.6309 39.2912 15.5788 39.3437C15.4122 39.5108 15.2434 39.6755 15.0744 39.8401C14.9576 39.9562 14.8409 40.0724 14.7243 40.1887C14.4803 40.4316 14.2352 40.6734 13.9893 40.9144C13.6741 41.2231 13.3609 41.5337 13.0483 41.845C12.7496 42.1422 12.4501 42.4385 12.1505 42.7347C12.0935 42.7912 12.0366 42.8477 11.9778 42.9059C11.8163 43.0657 11.6542 43.2248 11.4918 43.3837C11.4442 43.431 11.3966 43.4782 11.3476 43.5269C11.1135 43.7546 10.9043 43.9522 10.5938 44.0626C10.2386 44.0499 10.0095 44.015 9.70901 43.8223C9.541 43.5602 9.49156 43.3535 9.50979 43.0417C9.573 42.8045 9.6607 42.6944 9.82613 42.5136C9.88588 42.4483 9.94564 42.383 10.0072 42.3157C10.4377 41.8641 10.8752 41.4199 11.3156 40.978C11.3673 40.926 11.4189 40.8741 11.4722 40.8205C11.7447 40.5466 12.0175 40.273 12.2905 39.9996C12.572 39.7176 12.8526 39.4347 13.133 39.1516C13.3496 38.9332 13.5669 38.7155 13.7843 38.498C13.8881 38.3939 13.9916 38.2896 14.095 38.185C14.239 38.0394 14.3838 37.8947 14.529 37.7502C14.6111 37.6677 14.6932 37.5853 14.7778 37.5003C15.2097 37.1354 15.5152 37.1999 16.0313 37.4063Z" fill="#FF7705"></path>
  <path d="M10.4062 31.7812C10.6726 32.0218 10.7553 32.27 10.7812 32.625C10.6588 33.056 10.4055 33.321 10.0935 33.6274C10.0426 33.6785 9.99164 33.7296 9.93917 33.7823C9.77131 33.9504 9.60248 34.1175 9.43359 34.2846C9.31655 34.4014 9.19956 34.5182 9.08263 34.6351C8.8378 34.8795 8.59251 35.1234 8.34686 35.367C8.03159 35.6796 7.71714 35.993 7.40298 36.3068C7.16159 36.5478 6.91994 36.7885 6.67819 37.0291C6.56213 37.1447 6.4461 37.2602 6.33012 37.3759C6.16832 37.537 6.00621 37.6978 5.84399 37.8586C5.79587 37.9066 5.74775 37.9546 5.69817 38.0041C5.37755 38.3208 5.25203 38.4297 4.79297 38.4668C4.51304 38.4617 4.4207 38.4467 4.17773 38.291C3.97989 37.9824 3.9375 37.7731 3.9375 37.4062C4.17825 36.9904 4.47612 36.653 4.81533 36.3166C4.86431 36.2673 4.91329 36.218 4.96376 36.1672C5.12426 36.0059 5.28543 35.8453 5.44666 35.6847C5.55898 35.5722 5.67127 35.4597 5.78353 35.3472C6.01814 35.1124 6.25309 34.8778 6.48827 34.6435C6.78987 34.343 7.09062 34.0416 7.39113 33.74C7.62249 33.5079 7.8543 33.2763 8.08625 33.0449C8.19736 32.9339 8.30834 32.8228 8.41917 32.7115C8.57377 32.5564 8.72895 32.402 8.8843 32.2477C8.95291 32.1785 8.95291 32.1785 9.0229 32.1079C9.46365 31.6726 9.82267 31.6241 10.4062 31.7812Z" fill="#FF7705"></path>
</svg>
