<?xml version="1.0" encoding="UTF-8"?>
<svg xmlns="http://www.w3.org/2000/svg" width="48" height="48" viewBox="0 0 48 48" fill="none">
  <g clip-path="url(#clip0_3599_266)">
    <path d="M24.723 0.103844C25.005 0.250192 25.2754 0.409059 25.5468 0.574242C25.7545 0.695406 25.9623 0.816371 26.1701 0.937157C26.2762 0.9995 26.3823 1.06184 26.4916 1.12608C31.612 4.10121 37.2224 6.26801 42.8896 7.94405C43.0896 8.00359 43.289 8.06499 43.4882 8.12698C43.5924 8.15828 43.6966 8.18958 43.8039 8.22182C44.1152 8.36863 44.2491 8.52739 44.4375 8.81252C44.5287 9.08636 44.5432 9.26141 44.5438 9.54644C44.5442 9.63979 44.5446 9.73314 44.545 9.82931C44.5449 9.93171 44.5449 10.0341 44.5448 10.1396C44.5453 10.3016 44.5453 10.3016 44.5458 10.4669C44.5467 10.8262 44.5469 11.1855 44.547 11.5448C44.5472 11.7326 44.5474 11.9204 44.5477 12.1081C44.5484 12.7011 44.5487 13.2942 44.5486 13.8872C44.5485 14.4915 44.5495 15.0958 44.551 15.7001C44.5522 16.2233 44.5527 16.7464 44.5527 17.2696C44.5526 17.5799 44.553 17.8903 44.5539 18.2007C44.5599 20.4151 44.535 22.6762 44.1386 24.8614C44.1186 24.9758 44.0986 25.0903 44.078 25.2082C43.0371 30.9282 40.3893 36.5145 36.1856 40.5956C36.002 40.7792 35.8338 40.97 35.666 41.168C35.3971 41.4807 35.1092 41.7494 34.7948 42.0158C34.5782 42.2008 34.3696 42.393 34.1601 42.586C31.6089 44.8751 28.4435 46.9562 25.125 47.9063C25.0647 47.9248 25.0044 47.9433 24.9422 47.9623C23.8184 48.1828 22.7905 47.9389 21.75 47.5313C21.6896 47.5077 21.6292 47.4841 21.567 47.4598C19.9051 46.7957 18.3505 45.9138 16.875 44.9063C16.7897 44.8483 16.7897 44.8483 16.7027 44.7892C15.4571 43.9371 14.2906 42.9827 13.1887 41.9524C12.9586 41.7384 12.7239 41.5318 12.4863 41.3262C12.1599 41.038 11.875 40.7313 11.5942 40.3989C11.4436 40.2258 11.2862 40.0673 11.1211 39.9082C5.76226 34.6088 3.5053 26.5746 3.44297 19.2561C3.44044 18.7866 3.44023 18.3172 3.44052 17.8477C3.4403 17.6588 3.43997 17.4699 3.43964 17.281C3.43861 16.693 3.43855 16.105 3.43912 15.5171C3.43969 14.9134 3.43851 14.3098 3.43654 13.7062C3.43489 13.1823 3.43432 12.6585 3.43463 12.1346C3.4348 11.824 3.43443 11.5134 3.43325 11.2028C3.43209 10.859 3.43272 10.5153 3.43381 10.1715C3.43274 10.0195 3.43274 10.0195 3.43164 9.86431C3.43579 9.2727 3.47149 8.81247 3.90936 8.37032C4.21057 8.20226 4.52654 8.10829 4.85592 8.01272C4.92839 7.99096 5.00086 7.9692 5.07552 7.94679C5.23168 7.89991 5.38794 7.85334 5.54427 7.80704C5.9606 7.68348 6.37599 7.55685 6.79135 7.43008C6.87536 7.40445 6.95938 7.37882 7.04594 7.35242C12.2392 5.7609 17.4352 3.62412 22.092 0.806053C22.18 0.753582 22.268 0.701111 22.3587 0.647049C22.5249 0.547459 22.6902 0.44613 22.854 0.342682C23.483 -0.0336755 24.0224 -0.182217 24.723 0.103844ZM23.4232 2.5115C23.2724 2.59654 23.2724 2.59654 23.1185 2.6833C23.0646 2.71386 23.0108 2.74442 22.9552 2.77591C17.4437 5.89639 11.6645 8.17618 5.62497 10.0313C5.61834 11.5033 5.61341 12.9753 5.61039 14.4473C5.60896 15.131 5.607 15.8148 5.60375 16.4986C5.60091 17.0959 5.59912 17.6933 5.5985 18.2906C5.59814 18.6057 5.59717 18.9207 5.59523 19.2357C5.58271 21.361 5.70408 23.4709 6.15817 25.5528C6.18193 25.6641 6.20569 25.7755 6.23018 25.8902C6.7421 28.2058 7.52336 30.4442 8.62744 32.5438C8.71583 32.7132 8.80139 32.8838 8.88644 33.055C9.65343 34.5742 10.6447 35.9949 11.7187 37.3125C11.7569 37.3603 11.7952 37.408 11.8345 37.4572C12.4732 38.2513 13.1787 38.9772 13.8984 39.6973C13.9426 39.7416 13.9868 39.7859 14.0324 39.8316C16.4254 42.224 20.4063 45.6422 23.9487 45.958C26.4132 45.8601 29.1806 43.7725 31.0476 42.3195C31.2069 42.1966 31.368 42.0766 31.5304 41.9575C32.3935 41.3163 33.1672 40.5928 33.9375 39.8438C34.0407 39.7436 34.0407 39.7436 34.146 39.6415C34.9374 38.8706 35.7057 38.1003 36.375 37.2188C36.4618 37.1075 36.5488 36.9963 36.6357 36.8852C39.83 32.7583 41.719 27.8651 42.2812 22.6875C42.2895 22.6119 42.2978 22.5363 42.3063 22.4584C42.3731 21.7947 42.3877 21.1387 42.3856 20.4721C42.3856 20.3018 42.3856 20.3018 42.3857 20.128C42.3856 19.8201 42.3851 19.5122 42.3845 19.2043C42.3839 18.8812 42.3838 18.5582 42.3837 18.2351C42.3834 17.6249 42.3827 17.0147 42.3817 16.4044C42.3807 15.7091 42.3802 15.0137 42.3797 14.3183C42.3787 12.8893 42.3771 11.4603 42.375 10.0313C42.2148 9.98105 42.2148 9.98105 42.0513 9.92981C41.6454 9.80244 41.2396 9.67459 40.8338 9.54662C40.66 9.49186 40.4861 9.43723 40.3122 9.38274C36.1897 8.09039 32.1714 6.4699 28.3219 4.50565C28.0971 4.39222 27.8711 4.28143 27.6449 4.1708C26.6442 3.67951 25.6663 3.16336 24.7054 2.59765C24.6278 2.55218 24.5502 2.50671 24.4702 2.45986C24.4018 2.41929 24.3334 2.37873 24.263 2.33693C23.9208 2.16127 23.736 2.33369 23.4232 2.5115Z" fill="#FF7705"></path>
    <path d="M35.25 15.0937C36.0493 15.7556 36.4628 16.4956 36.5625 17.5312C36.5808 18.9521 35.8938 19.8783 34.9405 20.8625C34.6769 21.1309 34.4109 21.3967 34.1446 21.6624C34.0248 21.7826 33.9051 21.9028 33.7854 22.023C33.4626 22.3471 33.1391 22.6706 32.8155 22.994C32.5447 23.2648 32.2741 23.5358 32.0034 23.8069C31.3649 24.4465 30.7258 25.0856 30.0864 25.7244C29.4282 26.3821 28.7709 27.0405 28.114 27.6994C27.5483 28.2667 26.9821 28.8335 26.4154 29.3999C26.0777 29.7374 25.7402 30.0752 25.4032 30.4135C25.0864 30.7315 24.769 31.0487 24.451 31.3655C24.3348 31.4815 24.2189 31.5976 24.1033 31.714C23.1246 32.6988 22.2225 33.5352 20.7656 33.5976C18.921 33.5248 17.7474 32.0127 16.5308 30.7998C16.4713 30.7406 16.4118 30.6814 16.3506 30.6204C16.0366 30.3079 15.7229 29.995 15.4095 29.682C15.0878 29.3608 14.7652 29.0405 14.4424 28.7204C14.1921 28.4718 13.9425 28.2227 13.693 27.9733C13.5744 27.855 13.4555 27.7369 13.3364 27.619C12.2686 26.5615 11.4591 25.6735 11.4375 24.0937C11.5123 23.1778 11.8869 22.3298 12.568 21.706C13.4243 21.0306 14.3088 20.8299 15.3856 20.9498C16.5104 21.1583 17.3072 21.966 18.082 22.7512C18.158 22.8274 18.2339 22.9036 18.3121 22.9821C18.5523 23.2233 18.7918 23.4652 19.0312 23.707C19.1949 23.8716 19.3586 24.0362 19.5223 24.2007C19.9216 24.602 20.3204 25.0039 20.7188 25.4062C21.2901 24.934 21.8101 24.4188 22.3311 23.8923C22.4259 23.7969 22.5207 23.7015 22.6155 23.6062C22.8185 23.4019 23.0214 23.1975 23.2243 22.9929C23.5455 22.6691 23.8673 22.3457 24.1892 22.0225C24.2997 21.9115 24.4102 21.8004 24.5208 21.6894C24.5761 21.6339 24.6314 21.5783 24.6884 21.521C25.4368 20.7693 26.1848 20.017 26.9317 19.2639C27.4369 18.7545 27.9427 18.2459 28.4492 17.738C28.7167 17.4698 28.9839 17.2012 29.2502 16.9318C29.5007 16.6783 29.7521 16.4258 30.0042 16.1739C30.0961 16.0817 30.1876 15.9893 30.2788 15.8965C31.6744 14.4775 33.492 13.8625 35.25 15.0937ZM31.775 17.4219C31.7306 17.4661 31.6863 17.5103 31.6407 17.5559C31.4936 17.7028 31.3473 17.8504 31.2009 17.998C31.0951 18.104 30.9893 18.21 30.8834 18.3159C30.6561 18.5435 30.4292 18.7713 30.2025 18.9993C29.8441 19.3598 29.485 19.7196 29.1258 20.0794C28.5581 20.6482 27.9907 21.2175 27.4236 21.7869C26.4072 22.8075 25.3903 23.8275 24.3728 24.8471C24.0158 25.2049 23.659 25.563 23.3024 25.9214C23.0809 26.1439 22.8592 26.3662 22.6374 26.5885C22.5345 26.6917 22.4317 26.7951 22.3289 26.8985C22.1888 27.0394 22.0485 27.1801 21.9081 27.3207C21.8296 27.3995 21.7511 27.4784 21.6702 27.5596C21.3863 27.8279 21.1836 27.9689 20.7949 27.9902C20.4329 27.976 20.2629 27.9091 19.9979 27.6633C19.9332 27.6035 19.8684 27.5437 19.8017 27.4821C19.4214 27.1147 19.0471 26.7421 18.6757 26.3657C18.5454 26.2346 18.4152 26.1035 18.285 25.9725C17.9671 25.6525 17.6498 25.332 17.3327 25.0112C17.1535 24.83 16.9741 24.6491 16.7944 24.4684C16.626 24.299 16.458 24.1293 16.2905 23.9591C16.2141 23.8824 16.1377 23.8057 16.059 23.7267C15.9924 23.6594 15.9257 23.592 15.8571 23.5226C15.4663 23.1745 15.1608 23.0073 14.6243 23.0295C14.2117 23.1023 13.9553 23.3385 13.6992 23.6543C13.5602 23.9863 13.5506 24.2046 13.5938 24.5625C13.8443 25.0687 14.1461 25.4364 14.5461 25.831C14.6314 25.9168 14.6314 25.9168 14.7185 26.0044C14.9053 26.192 15.093 26.3785 15.2809 26.5649C15.4117 26.6957 15.5425 26.8265 15.6732 26.9574C15.9466 27.2308 16.2205 27.5037 16.4947 27.7762C16.8458 28.1252 17.1959 28.4753 17.5457 28.8257C17.8153 29.0956 18.0854 29.3651 18.3557 29.6344C18.4849 29.7633 18.6141 29.8923 18.7431 30.0215C18.9235 30.2019 19.1044 30.3817 19.2856 30.5613C19.3385 30.6145 19.3915 30.6677 19.446 30.7225C19.8242 31.0956 20.1914 31.4424 20.748 31.4648C21.0921 31.4441 21.2609 31.383 21.5137 31.1498C21.5789 31.0898 21.644 31.0299 21.711 30.9681C22.1985 30.4987 22.6788 30.0226 23.1571 29.544C23.279 29.4224 23.4009 29.3008 23.5228 29.1793C23.8519 28.851 24.1806 28.5225 24.5093 28.1938C24.7148 27.9885 24.9202 27.7832 25.1258 27.5779C25.8428 26.8618 26.5596 26.1454 27.2761 25.4288C27.9442 24.7606 28.6129 24.0929 29.2818 23.4255C29.8565 22.852 30.4308 22.2782 31.0049 21.704C31.3476 21.3613 31.6905 21.0187 32.0337 20.6765C32.3559 20.3552 32.6775 20.0336 32.9989 19.7115C33.1171 19.5933 33.2354 19.4751 33.3539 19.3572C33.5152 19.1966 33.6759 19.0355 33.8365 18.8742C33.8838 18.8273 33.9312 18.7804 33.98 18.7321C34.289 18.42 34.3938 18.2256 34.4355 17.7832C34.4004 17.3688 34.2971 17.1912 34.0312 16.875C33.7074 16.6051 33.4344 16.5602 33.015 16.5472C32.5122 16.6627 32.1286 17.0669 31.775 17.4219Z" fill="#FF7705"></path>
  </g>
  <defs>
    <clipPath id="clip0_3599_266">
      <rect width="48" height="48" fill="white"></rect>
    </clipPath>
  </defs>
</svg>
