<?xml version="1.0" encoding="UTF-8"?>
<svg xmlns="http://www.w3.org/2000/svg" width="42" height="42" viewBox="0 0 42 42" fill="none">
  <g clip-path="url(#clip0_2123_167264)">
    <path d="M27.7336 2.4905C29.2139 3.93762 30.1599 5.7474 30.3962 7.93468C30.4158 8.32981 30.417 8.72338 30.4147 9.11901C30.4153 9.2191 30.4159 9.31918 30.4165 9.4223C30.4153 10.0127 30.3737 10.5754 30.2818 11.1572C30.2022 11.6778 30.2511 12.0628 30.3637 12.5694C30.5954 13.7086 30.4503 14.8768 29.8952 15.8815C29.6269 16.2941 29.2947 16.6588 28.8344 16.7633C28.5879 16.89 28.5743 16.9187 28.4813 17.184C28.4425 17.315 28.4052 17.4466 28.3691 17.5785C27.7919 19.4756 26.7653 21.1924 25.3493 22.4542C25.4426 23.1301 25.6855 23.6836 26.0173 24.2589C26.0416 24.3077 26.0659 24.3566 26.0909 24.4069C26.418 24.9516 26.97 25.0173 27.5108 25.145C27.813 25.2168 28.1134 25.2965 28.414 25.3759C28.4749 25.3919 28.5358 25.4079 28.5986 25.4243C30.142 25.8347 31.6358 26.4597 33.0681 27.212C33.1325 27.2454 33.1968 27.2788 33.2632 27.3132C34.7946 28.1177 35.8154 29.2266 36.4821 30.9855C36.9855 32.6113 37.2694 34.9347 36.6491 36.5687C36.5963 36.6781 36.5406 36.7859 36.4821 36.8917C36.4378 36.9788 36.4378 36.9788 36.3925 37.0676C35.0654 39.4814 32.2021 40.423 29.8834 41.0641C28.6561 41.3877 27.4193 41.6185 26.1683 41.7925C26.0238 41.8127 25.8794 41.8336 25.735 41.8546C22.5533 42.2981 19.1016 42.2759 15.9235 41.8136C15.8215 41.7993 15.7195 41.7851 15.6175 41.7709C12.1521 41.2816 8.13264 40.4752 5.7373 37.4105C5.17202 36.5826 5.04814 35.6881 5.01338 34.6769C5.01125 34.6171 5.00912 34.5574 5.00692 34.4958C4.94647 32.5099 5.26808 30.6038 6.51631 29.0834C8.56708 26.681 12.2034 25.442 15.1071 24.9972C15.2308 24.9946 15.3546 24.9939 15.4782 24.9972C15.4976 24.9507 15.5171 24.9041 15.5371 24.8562C15.6339 24.6539 15.7481 24.4828 15.8725 24.2999C16.16 23.8521 16.3566 23.3831 16.5173 22.8644C16.5415 22.7962 16.5657 22.728 16.5906 22.6577C16.6122 22.4319 16.6122 22.4319 16.419 22.2421C16.3365 22.1648 16.2533 22.0886 16.1694 22.0133C14.8013 20.6976 13.8601 18.8649 13.3259 16.9581C13.3259 16.904 13.3259 16.8498 13.3259 16.7941C13.2616 16.7873 13.1973 16.7805 13.1311 16.7736C12.5899 16.6406 12.2272 16.2135 11.9157 15.7277C11.344 14.5304 11.3684 13.2297 11.6931 11.9542C11.7176 11.873 11.742 11.7918 11.7673 11.7081C11.745 11.5492 11.722 11.3903 11.6945 11.2324C11.2799 8.83978 11.545 6.40302 12.7321 4.32531C14.1986 1.96524 16.4766 0.705832 18.975 0.184632C21.9384 -0.362091 25.3994 0.276214 27.7336 2.4905ZM14.3557 4.25866C13.2704 5.64961 12.7892 7.48356 12.7971 9.29333C12.7966 9.39317 12.7966 9.39317 12.7962 9.49504C12.7968 9.88587 12.8216 10.2563 12.8806 10.6417C13.2235 10.6146 13.5663 10.5876 13.9196 10.5597C13.959 10.4311 13.9985 10.3025 14.0391 10.17C14.092 9.99913 14.145 9.82823 14.1979 9.65734C14.2238 9.57285 14.2496 9.48836 14.2762 9.40131C14.6764 8.11533 14.6764 8.11533 15.0329 7.85265C15.4278 7.87452 15.7016 8.0014 16.0441 8.21154C17.1143 8.83584 18.1866 8.89985 19.3376 8.5089C19.9664 8.26513 20.5788 7.97106 21.1887 7.67545C22.6011 6.99362 24.1313 6.47139 25.6462 7.11437C27.0738 7.80228 27.0738 7.80228 27.3127 8.34294C27.355 8.48235 27.355 8.48235 27.3982 8.62458C27.4298 8.72604 27.4614 8.8275 27.494 8.93204C27.526 9.03877 27.5579 9.14553 27.5898 9.25231C27.6538 9.46195 27.7184 9.67132 27.7832 9.88068C27.8111 9.97353 27.8391 10.0664 27.8679 10.162C27.9417 10.4072 27.9417 10.4072 28.0954 10.6417C28.3274 10.6717 28.3274 10.6717 28.5871 10.6571C28.6753 10.6549 28.7635 10.6527 28.8544 10.6504C28.9563 10.6461 28.9563 10.6461 29.0602 10.6417C29.4968 8.99121 29.0217 6.88705 28.332 5.41222C27.387 3.59898 25.8172 2.34157 24.013 1.76918C20.6198 0.76365 16.8358 1.37265 14.3557 4.25866ZM21.1188 9.08312C19.5702 9.92882 18.1533 10.2843 16.4431 9.8214C16.2373 9.73992 16.0406 9.65201 15.8432 9.54839C15.6878 9.4702 15.6878 9.4702 15.4782 9.57531C15.3854 9.79155 15.3854 9.79155 15.313 10.0592C15.2839 10.1577 15.2548 10.2563 15.2248 10.3578C15.1949 10.4627 15.1649 10.5676 15.135 10.6725C15.1045 10.7768 15.074 10.881 15.0433 10.9852C14.9873 11.1767 14.9317 11.3684 14.8765 11.5602C14.8307 11.7192 14.7838 11.8779 14.736 12.0362C14.352 12.1211 14.136 12.0941 13.7712 11.9542C13.5544 11.917 13.4016 11.9262 13.1774 11.9542C12.8529 12.2752 12.7463 12.674 12.7098 13.1449C12.7077 13.8987 12.7262 14.7037 13.1774 15.3175C13.4087 15.4666 13.5474 15.4816 13.8176 15.4764C14.0681 15.4816 14.0681 15.4816 14.1869 15.5794C14.313 15.7595 14.3618 15.9183 14.4215 16.1362C14.4445 16.2175 14.4675 16.2989 14.4912 16.3827C14.5153 16.4694 14.5395 16.5561 14.5644 16.6454C15.2082 18.8569 16.314 20.8552 18.2134 21.99C19.5939 22.7701 21.2145 23.0153 22.7134 22.4859C23.5682 22.1133 24.2995 21.6744 24.9782 20.9777C25.0798 20.8766 25.0798 20.8766 25.1835 20.7735C26.3948 19.5114 27.0778 17.84 27.5606 16.1041C27.5898 15.9999 27.5898 15.9999 27.6197 15.8936C27.6364 15.8318 27.6531 15.77 27.6704 15.7063C27.7243 15.5636 27.7243 15.5636 27.8727 15.4816C27.9933 15.4732 28.1139 15.4666 28.2346 15.4611C28.538 15.4279 28.538 15.4279 28.7912 15.2457C29.1891 14.3999 29.3938 13.5064 29.1252 12.5643C28.9479 12.2051 28.8725 12.0621 28.5407 11.8722C28.3225 11.9059 28.1286 11.9711 27.92 12.0491C27.6994 12.1271 27.5094 12.1389 27.279 12.1183C27.1673 11.8147 27.0636 11.509 26.9636 11.2006C26.9311 11.1006 26.8987 11.0007 26.8653 10.8977C26.7883 10.6558 26.7164 10.4124 26.6467 10.1678C26.6276 10.1018 26.6086 10.0358 26.5889 9.96774C26.5518 9.83835 26.5154 9.7087 26.4798 9.57877C26.3785 9.22812 26.2946 8.98013 26.0173 8.755C25.8328 8.65773 25.6556 8.5727 25.4653 8.49352C25.4166 8.47221 25.368 8.45091 25.3179 8.42895C24.8523 8.22923 24.4408 8.16267 23.9438 8.15514C23.894 8.15276 23.8442 8.15038 23.7929 8.14793C22.8327 8.13522 21.9592 8.62419 21.1188 9.08312ZM17.779 23.2745C17.7475 23.3529 17.716 23.4312 17.6836 23.512C17.0143 25.1524 17.0143 25.1524 16.6089 25.5291C16.4968 25.6526 16.4968 25.6526 16.5277 25.8534C17.0742 27.6544 19.4806 29.0947 20.822 30.0831C22.1823 29.9759 24.1618 27.6459 25.0524 26.5558C25.3295 26.1896 25.3295 26.1896 25.4116 25.7425C25.3299 25.5182 25.2112 25.3561 25.0756 25.1664C24.7441 24.6769 24.5281 24.1618 24.3102 23.6027C24.2616 23.4928 24.2125 23.3832 24.1618 23.2745C24.0918 23.3072 24.0217 23.3399 23.9496 23.3735C22.1026 24.2214 20.2318 24.3901 18.3556 23.5357C18.2878 23.5036 18.22 23.4716 18.1501 23.4386C18.0265 23.3836 17.9028 23.3288 17.779 23.2745ZM26.5368 26.3097C26.5124 26.3584 26.488 26.4072 26.4629 26.4574C25.4337 28.4395 23.6987 29.7497 21.9973 30.9661C21.9524 30.9996 21.9074 31.033 21.861 31.0675C21.81 31.1022 21.7589 31.1369 21.7063 31.1726C21.5508 31.2996 21.5508 31.2996 21.5276 31.4912C21.5279 31.5605 21.5282 31.6299 21.5285 31.7013C21.528 31.781 21.5276 31.8607 21.5272 31.9429C21.5283 32.0302 21.5294 32.1175 21.5305 32.2075C21.5304 32.2995 21.5304 32.3916 21.5303 32.4864C21.5305 32.7914 21.5328 33.0963 21.5352 33.4012C21.5357 33.6124 21.5361 33.8235 21.5364 34.0347C21.5375 34.5341 21.5398 35.0335 21.5428 35.5329C21.5461 36.1014 21.5477 36.67 21.5492 37.2385C21.5523 38.4081 21.5575 39.5776 21.5642 40.7472C23.5695 40.6436 23.5695 40.6436 25.5673 40.4344C25.6194 40.4276 25.6714 40.4207 25.7251 40.4136C30.869 39.7676 30.869 39.7676 35.0926 36.7482C35.8668 35.6304 35.7662 34.0062 35.6364 32.6754C35.4776 31.6131 35.0284 30.5913 34.3298 29.837C34.2922 29.7898 34.2546 29.7425 34.2158 29.6938C33.1463 28.3896 31.2132 27.6887 29.7282 27.212C29.6792 27.212 29.6302 27.212 29.5798 27.212C29.5963 27.3747 29.6128 27.5373 29.6295 27.6999C29.6477 27.8859 29.6645 28.0721 29.6806 28.2584C29.7061 28.5529 29.7366 28.8464 29.7692 29.14C29.7821 29.2633 29.7935 29.3868 29.8034 29.5104C29.8366 29.9161 29.8797 30.2807 30.0251 30.6573C30.2489 30.8385 30.4369 30.9202 30.7038 30.9996C31.0369 31.1063 31.1932 31.3167 31.361 31.6417C31.6917 32.3692 31.7741 33.122 31.5837 33.913C31.3818 34.4839 31.0052 34.9524 30.5029 35.2152C29.9121 35.4339 29.199 35.4598 28.6149 35.2049C28.036 34.8603 27.7136 34.3708 27.5017 33.6925C27.3305 33.0461 27.4221 32.4185 27.6501 31.8058C27.8124 31.5597 27.8124 31.5597 27.947 31.3956C27.947 31.3415 27.947 31.2873 27.947 31.2316C28.2438 31.0675 28.5407 30.9034 28.8376 30.7394C28.7138 29.3672 28.4868 28.0532 28.1696 26.7198C27.3656 26.4494 27.3656 26.4494 26.5368 26.3097ZM14.3417 26.5558C14.2797 26.5714 14.2177 26.5871 14.1537 26.6032C14.0014 26.6417 13.8492 26.6807 13.697 26.7198C13.5264 27.3322 13.3775 27.9413 13.2702 28.5707C13.2608 28.6253 13.2513 28.6799 13.2416 28.7362C13.1943 29.0245 13.1673 29.298 13.1774 29.5909C13.2716 29.6179 13.2716 29.6179 13.3676 29.6454C14.186 29.8983 14.7404 30.2493 15.1813 31.0675C15.5586 31.8718 15.7151 32.726 15.8137 33.6198C15.8198 33.6749 15.8259 33.73 15.8322 33.7868C15.8484 33.94 15.8628 34.0934 15.8771 34.2468C15.9256 34.5245 16.0144 34.6846 16.1462 34.923C16.1837 35.3016 16.111 35.593 15.9282 35.9125C15.606 36.1377 15.3303 36.1463 14.9587 36.0714C14.7409 35.924 14.6268 35.8299 14.5134 35.5792C14.5044 35.4445 14.5004 35.3093 14.4995 35.1742C14.4984 35.1024 14.4974 35.0306 14.4963 34.9566C14.5134 34.7589 14.5134 34.7589 14.6618 34.5128C14.6664 34.3042 14.6623 34.1098 14.6479 33.9027C14.6441 33.8442 14.6403 33.7857 14.6364 33.7255C14.5716 32.8629 14.4246 31.9721 13.8686 31.329C13.3908 30.9803 12.9631 30.846 12.3921 30.939C11.8539 31.0783 11.4764 31.3751 11.1735 31.8878C10.8013 32.7827 10.9118 34.0791 11.1735 35.005C11.2694 35.1176 11.3683 35.2273 11.4704 35.3331C11.5889 35.5951 11.5723 35.8684 11.5446 36.1534C11.4529 36.3865 11.3772 36.5161 11.1967 36.6713C10.8648 36.7803 10.5495 36.7589 10.218 36.6713C10.0603 36.5636 10.0603 36.5636 9.96284 36.3944C9.88522 36.0279 9.85494 35.6244 9.95414 35.2594C9.99829 35.0208 9.95593 34.829 9.91645 34.5897C9.73724 33.2887 9.69964 31.9018 10.3728 30.7602C10.6298 30.4023 10.9429 30.0651 11.3526 29.9514C11.5723 29.8843 11.7302 29.8205 11.9157 29.673C12.0655 29.314 12.107 28.9502 12.1523 28.5604C12.1748 28.4073 12.1748 28.4073 12.1977 28.251C12.2855 27.7261 12.2855 27.7261 12.2126 27.212C9.15363 28.2977 9.15363 28.2977 6.94306 30.7394C6.89212 30.8307 6.89212 30.8307 6.84014 30.9239C6.14323 32.2933 6.03463 34.254 6.38247 35.7552C6.68455 36.8747 7.46479 37.581 8.36634 38.1245C8.41099 38.1508 8.45565 38.1771 8.50166 38.2042C8.54784 38.2315 8.59403 38.2588 8.64161 38.2868C11.2364 39.7869 14.3072 40.2073 17.1853 40.5216C17.2468 40.5284 17.3084 40.5352 17.3719 40.5423C18.1041 40.6221 18.8349 40.6773 19.5701 40.7103C19.6481 40.7139 19.7262 40.7175 19.8066 40.7212C19.9966 40.73 20.1866 40.7387 20.3767 40.7472C20.415 39.5386 20.4437 38.3301 20.4613 37.121C20.4696 36.5594 20.4811 35.9982 20.4998 35.4369C20.518 34.8944 20.5274 34.3522 20.5316 33.8093C20.5346 33.6031 20.5404 33.3968 20.5493 33.1908C20.6189 32.0804 20.6189 32.0804 20.217 31.1077C19.826 30.7336 19.3946 30.4585 18.9364 30.1977C18.6765 30.043 18.4557 29.8597 18.2243 29.6576C18.115 29.5624 18.115 29.5624 18.0034 29.4653C17.575 29.0787 17.1539 28.6839 16.7399 28.2784C16.688 28.2281 16.636 28.1778 16.5825 28.1259C16.1661 27.6965 15.8655 27.1593 15.5524 26.6378C15.479 26.516 15.479 26.516 15.404 26.3917C15.0509 26.332 14.6847 26.4672 14.3417 26.5558ZM28.8376 32.2159C28.6117 32.5671 28.5677 32.8569 28.6149 33.2823C28.7008 33.5718 28.8107 33.7821 29.0429 33.953C29.3633 34.1113 29.629 34.1332 29.9636 34.0145C30.214 33.8744 30.3194 33.7093 30.4704 33.4464C30.5846 33.0508 30.5403 32.7609 30.3962 32.38C30.1738 32.1171 30.0109 31.9907 29.7004 31.8827C29.3517 31.8893 29.1165 31.9854 28.8376 32.2159Z" fill="white"></path>
  </g>
  <defs>
    <clipPath id="clip0_2123_167264">
      <rect width="42" height="42" fill="white"></rect>
    </clipPath>
  </defs>
</svg>
