<?xml version="1.0" encoding="UTF-8"?>
<svg xmlns="http://www.w3.org/2000/svg" width="50" height="29" viewBox="0 0 50 29" fill="none">
  <g clip-path="url(#clip0_2123_167290)">
    <path d="M21.3867 3.25408C21.0378 3.52114 20.7211 3.80694 20.4102 4.11547C20.3481 4.1742 20.286 4.23292 20.2221 4.29343C19.0962 5.43851 18.6513 7.04334 18.6468 8.59517C18.689 10.1849 19.3916 11.6785 20.5078 12.825C20.76 13.0591 21.0183 13.2818 21.2891 13.495C21.1992 13.5276 21.1093 13.5602 21.0167 13.5937C19.7021 14.082 18.5479 14.691 17.4805 15.6006C17.3993 15.6675 17.3181 15.7344 17.2344 15.8033C16.6205 16.3227 16.1208 16.8869 15.625 17.5148C15.3061 17.4393 15.3061 17.4393 15.1001 17.138C14.2497 16.1411 13.0975 15.5594 11.9141 15.0264C11.9987 14.9336 12.0833 14.8408 12.1704 14.7452C13.0849 13.6883 13.6226 12.5144 13.6009 11.1056C13.4602 9.57498 12.8297 8.36572 11.6211 7.3696C10.473 6.54816 9.1736 6.30804 7.76978 6.46035C6.48585 6.68983 5.39116 7.38457 4.58717 8.38053C3.77835 9.53355 3.558 10.7839 3.71094 12.1551C3.94258 13.2864 4.57434 14.1993 5.37109 15.0264C5.27303 15.0705 5.17496 15.1147 5.07393 15.1602C2.86803 16.1806 1.28725 17.7056 0.292969 19.9075C0.259735 19.9777 0.226501 20.048 0.192261 20.1203C-0.101284 20.8329 -0.134613 21.7028 0.0640869 22.4435C0.395645 23.162 0.970051 23.6319 1.69456 23.9404C2.15871 24.0888 2.61769 24.0729 3.10175 24.0665C3.21333 24.0666 3.32489 24.0666 3.43985 24.0667C3.80605 24.0664 4.17216 24.0635 4.53835 24.0604C4.79326 24.0597 5.04817 24.0592 5.30309 24.0588C5.90383 24.0576 6.50454 24.0545 7.10527 24.0506C7.78969 24.0463 8.47412 24.0442 9.15855 24.0423C10.5653 24.0383 11.9721 24.0316 13.3789 24.0231C13.3783 24.0782 13.3778 24.1334 13.3772 24.1902C13.3749 24.4423 13.3734 24.6944 13.372 24.9465C13.3711 25.0333 13.3702 25.1201 13.3693 25.2095C13.3667 25.8158 13.4022 26.3396 13.6719 26.8943C13.71 26.9743 13.7482 27.0542 13.7875 27.1366C14.256 28.0004 14.9757 28.5644 15.8987 28.9175C16.5564 29.0912 17.2436 29.0529 17.9199 29.0495C18.0917 29.05 18.2634 29.0507 18.4351 29.0515C18.8992 29.0533 19.3633 29.0526 19.8273 29.0514C20.3143 29.0504 20.8013 29.0513 21.2883 29.0519C22.1059 29.0526 22.9235 29.0517 23.7411 29.0499C24.6847 29.0478 25.6283 29.0485 26.5719 29.0506C27.3839 29.0523 28.1958 29.0525 29.0078 29.0515C29.492 29.051 29.9761 29.0509 30.4603 29.0521C30.9156 29.0532 31.3708 29.0525 31.8261 29.0503C31.9926 29.0498 32.1592 29.0499 32.3257 29.0507C33.6411 29.0568 34.6687 28.8797 35.6445 27.9472C36.246 27.2199 36.6369 26.4192 36.6306 25.4718C36.6303 25.387 36.63 25.3021 36.6297 25.2148C36.6289 25.1275 36.628 25.0402 36.6272 24.9502C36.6268 24.8611 36.6263 24.772 36.6259 24.6801C36.6247 24.4611 36.6231 24.2421 36.6211 24.0231C36.7082 24.0236 36.7082 24.0236 36.7971 24.0241C38.213 24.0326 39.6289 24.0389 41.0448 24.0429C41.7295 24.0449 42.4142 24.0476 43.099 24.0519C43.76 24.0562 44.421 24.0584 45.0821 24.0594C45.3341 24.0601 45.586 24.0615 45.8379 24.0635C46.1914 24.0663 46.5448 24.0667 46.8982 24.0665C47.0019 24.0679 47.1056 24.0693 47.2124 24.0707C47.9597 24.0667 48.5378 23.9151 49.1474 23.4832C49.7453 22.872 50.0195 22.3965 50.061 21.5346C50.0066 19.6865 48.7976 17.9796 47.4762 16.7346C46.6026 16.0009 45.694 15.4529 44.6289 15.0264C44.7016 14.9547 44.7016 14.9547 44.7758 14.8817C45.9291 13.687 46.3568 12.4712 46.3192 10.8675C46.2556 9.627 45.6582 8.46775 44.7338 7.62083C43.5511 6.7127 42.299 6.32213 40.7993 6.43643C39.7209 6.58878 38.9023 6.95218 38.0859 7.65672C38.0245 7.70904 37.9631 7.76135 37.8998 7.81524C36.9022 8.72436 36.4337 9.98877 36.3831 11.3116C36.4598 12.803 37.0401 13.8811 38.0859 14.9307C37.7897 15.1652 37.4913 15.3192 37.146 15.475C36.5415 15.7662 36.0534 16.1263 35.5469 16.5577C35.4718 16.6196 35.3968 16.6816 35.3195 16.7454C35.0238 16.9925 34.7873 17.1958 34.5703 17.5148C34.5059 17.5148 34.4414 17.5148 34.375 17.5148C34.233 17.3581 34.0978 17.1954 33.9661 17.0303C32.5853 15.3489 30.7912 14.1897 28.7109 13.495C28.7806 13.437 28.8502 13.379 28.9219 13.3193C30.3167 12.1234 31.1938 10.6425 31.3477 8.80524C31.4249 7.16331 30.9299 5.55139 29.8218 4.29455C27.6441 1.9638 24.078 1.49106 21.3867 3.25408ZM28.6133 5.4554C29.3784 6.45144 29.776 7.63987 29.6627 8.88674C29.4349 10.3148 28.717 11.3868 27.5391 12.2508C26.4266 12.9178 25.2088 13.0952 23.9281 12.8695C23.6914 12.8038 23.4691 12.7263 23.2422 12.6336C23.1767 12.6092 23.1113 12.5848 23.0438 12.5596C21.906 12.0772 21.0278 11.0306 20.5688 9.92385C20.1877 8.77247 20.2524 7.62394 20.7283 6.50709C21.334 5.34409 22.2496 4.46362 23.5229 4.03172C25.4188 3.4736 27.2827 4.04079 28.6133 5.4554ZM43.75 8.99666C43.9763 9.26962 44.1625 9.55038 44.3359 9.85804C44.3693 9.91689 44.4027 9.97575 44.437 10.0364C44.7815 10.7698 44.7527 11.7132 44.4885 12.4661C44.0487 13.3841 43.3371 13.9934 42.3828 14.3564C41.6116 14.6083 40.7033 14.532 39.9719 14.196C39.051 13.6791 38.505 13.1018 38.2019 12.1012C37.9908 11.2405 38.0802 10.5055 38.5048 9.72121C39.0021 8.94718 39.6252 8.40424 40.5273 8.13527C41.6783 7.89004 42.9126 8.15159 43.75 8.99666ZM11.1206 9.17013C11.7077 9.8785 11.9739 10.6718 11.9141 11.5808C11.7656 12.45 11.4192 13.189 10.725 13.7679C10.5088 13.9166 10.2919 14.0439 10.0586 14.165C9.96871 14.2136 9.96871 14.2136 9.87701 14.2633C9.12983 14.6028 8.16506 14.5732 7.39746 14.3145C6.46925 13.8874 5.82346 13.187 5.46875 12.2508C5.20115 11.4091 5.31981 10.5289 5.69534 9.74289C6.21865 8.8889 6.95731 8.37517 7.92236 8.11134C9.15243 7.87801 10.2655 8.27297 11.1206 9.17013ZM31.543 16.9406C31.6023 16.9862 31.6616 17.0318 31.7226 17.0789C33.4197 18.3989 34.6185 20.7037 34.9319 22.7984C34.9919 23.3513 35.0039 23.9042 35.0098 24.4597C35.0116 24.5736 35.0134 24.6874 35.0153 24.8047C35.0097 25.5499 34.94 26.2254 34.3966 26.7867C33.7397 27.3712 33.123 27.4802 32.2444 27.4814C32.1798 27.4816 32.1152 27.4818 32.0487 27.4821C31.8337 27.4827 31.6188 27.4826 31.4038 27.4825C31.2491 27.4828 31.0944 27.4831 30.9397 27.4835C30.5205 27.4843 30.1012 27.4846 29.6819 27.4846C29.4197 27.4847 29.1576 27.4849 28.8954 27.4851C27.9802 27.486 27.0649 27.4864 26.1497 27.4863C25.2975 27.4863 24.4454 27.4873 23.5932 27.4888C22.8607 27.4901 22.1282 27.4906 21.3957 27.4905C20.9586 27.4905 20.5215 27.4908 20.0844 27.4918C19.6732 27.4927 19.262 27.4927 18.8508 27.492C18.7003 27.4919 18.5497 27.4921 18.3992 27.4927C16.9714 27.5121 16.9714 27.5121 15.7227 26.8943C14.8405 25.9904 14.9916 24.9253 15.0089 23.7509C15.084 21.4246 16.1226 19.2691 17.7734 17.6105C17.854 17.5276 17.9346 17.4447 18.0176 17.3593C18.0981 17.2843 18.1787 17.2093 18.2617 17.132C18.3491 17.047 18.3491 17.047 18.4383 16.9604C20.2112 15.3121 22.8433 14.4729 25.259 14.5239C27.5901 14.6945 29.7725 15.4062 31.543 16.9406ZM46.7548 18.3526C47.5287 19.2089 48.3795 20.4516 48.3685 21.6299C48.3235 21.9313 48.1671 22.093 47.9492 22.3003C47.7137 22.4157 47.5672 22.4078 47.3041 22.4075C47.2093 22.4076 47.1145 22.4078 47.0169 22.4079C46.9126 22.4076 46.8083 22.4072 46.7008 22.4069C46.5912 22.4069 46.4817 22.4069 46.3688 22.4069C46.0052 22.4068 45.6417 22.4061 45.2782 22.4053C45.0267 22.4052 44.7751 22.405 44.5236 22.4049C43.9284 22.4046 43.3332 22.4039 42.738 22.4029C42.0604 22.4018 41.3829 22.4013 40.7053 22.4008C39.3113 22.3998 37.9174 22.3981 36.5234 22.396C36.415 22.0786 36.3075 21.7625 36.216 21.44C35.8243 20.0853 35.8243 20.0853 35.508 19.5019C35.4283 19.2734 35.4534 19.1738 35.5469 18.9505C36.6571 17.4931 38.3099 16.4863 40.1367 16.1749C40.2076 16.1625 40.2785 16.1502 40.3515 16.1375C42.735 15.7887 45.0755 16.716 46.7548 18.3526ZM14.2578 18.6633C14.3151 18.7239 14.3724 18.7845 14.4314 18.8469C14.5719 19.0391 14.5719 19.0391 14.5378 19.2645C14.4299 19.5962 14.3033 19.9192 14.1724 20.2425C13.9329 20.8471 13.7587 21.4361 13.6272 22.0726C13.5972 22.2948 13.5972 22.2948 13.4766 22.396C13.3319 22.406 13.1868 22.4094 13.0418 22.4101C12.9478 22.4108 12.8539 22.4115 12.7571 22.4122C12.6532 22.4124 12.5493 22.4127 12.4423 22.4129C12.3335 22.4136 12.2248 22.4142 12.1127 22.4148C11.751 22.4167 11.3893 22.4179 11.0275 22.4188C10.9043 22.4192 10.7811 22.4196 10.6542 22.42C10.0694 22.4218 9.48464 22.4232 8.89986 22.424C8.2247 22.4249 7.54958 22.4274 6.87443 22.4313C6.28987 22.4345 5.70532 22.4357 5.12074 22.436C4.87202 22.4365 4.62329 22.4376 4.37457 22.4394C4.02666 22.4417 3.67882 22.4416 3.3309 22.441C3.22779 22.4422 3.12469 22.4434 3.01846 22.4447C2.45043 22.4412 2.45043 22.4412 1.94026 22.2137C1.66656 21.9128 1.62025 21.6966 1.62697 21.292C1.83387 19.8212 3.02182 18.4272 4.1748 17.5447C5.36424 16.7062 6.72557 16.1456 8.20312 16.0792C8.26594 16.0742 8.32876 16.0693 8.39348 16.0642C10.6732 15.9621 12.7692 17.0215 14.2578 18.6633Z" fill="white"></path>
  </g>
  <defs>
    <clipPath id="clip0_2123_167290">
      <rect width="50" height="29" fill="white" transform="matrix(-1 0 0 1 50 0)"></rect>
    </clipPath>
  </defs>
</svg>
