<?xml version="1.0" encoding="UTF-8"?>
<svg xmlns="http://www.w3.org/2000/svg" width="56" height="50" viewBox="0 0 56 50" fill="none">
  <path d="M18.0457 4.95442C18.1369 4.95397 18.228 4.95353 18.3219 4.95308C18.6269 4.95184 18.9318 4.952 19.2368 4.95216C19.4556 4.95158 19.6744 4.95091 19.8932 4.95017C20.4875 4.94845 21.0817 4.94799 21.6759 4.94786C22.0473 4.94773 22.4187 4.94731 22.79 4.94679C24.0192 4.94508 25.2483 4.94417 26.4774 4.94432C26.5436 4.94432 26.6098 4.94433 26.678 4.94434C26.7443 4.94435 26.8106 4.94436 26.8789 4.94436C27.9527 4.94444 29.0265 4.94258 30.1003 4.93982C31.2041 4.93701 32.3078 4.9357 33.4116 4.93584C34.0308 4.93589 34.65 4.93533 35.2692 4.93326C35.8518 4.93137 36.4343 4.93136 37.0169 4.93278C37.2304 4.93298 37.4438 4.93252 37.6572 4.93134C37.9494 4.92983 38.2415 4.93074 38.5336 4.93224C38.6174 4.93124 38.7012 4.93023 38.7875 4.9292C39.7247 4.93979 40.4824 5.28933 41.1582 5.92925C41.7978 6.66724 41.953 7.44857 41.9493 8.39891C41.9494 8.51618 41.9494 8.51618 41.9495 8.63582C41.9497 8.89747 41.9492 9.15912 41.9486 9.42077C41.9486 9.60845 41.9486 9.79614 41.9487 9.98382C41.9487 10.4932 41.9481 11.0027 41.9474 11.5121C41.9468 12.0445 41.9468 12.5769 41.9467 13.1093C41.9464 14.1175 41.9456 15.1257 41.9446 16.1338C41.9435 17.2816 41.9429 18.4294 41.9425 19.5771C41.9414 21.9382 41.9397 24.2992 41.9375 26.6602C42.0281 26.6892 42.1186 26.7181 42.2119 26.7479C44.2258 27.4435 45.8621 29.3139 46.8204 31.1524C47.9302 33.5207 48.1171 36.1899 47.2632 38.6674C46.3288 41.2092 44.5233 43.1167 42.0821 44.2872C40.8383 44.8232 39.57 45.058 38.2205 45.0562C38.115 45.0563 38.0095 45.0563 37.9008 45.0564C36.8604 45.0423 35.8923 44.86 34.9063 44.5313C34.6747 44.5219 34.4428 44.5187 34.211 44.5185C34.1397 44.5183 34.0684 44.5181 33.995 44.5179C33.7555 44.5173 33.516 44.5174 33.2765 44.5175C33.105 44.5172 32.9335 44.5168 32.762 44.5164C32.3923 44.5157 32.0225 44.5152 31.6528 44.5148C31.0675 44.5143 30.4822 44.5126 29.8969 44.5108C29.6965 44.5102 29.496 44.5096 29.2956 44.5089C29.145 44.5085 29.145 44.5085 28.9914 44.508C27.6287 44.5039 26.266 44.5007 24.9033 44.4995C23.9843 44.4987 23.0654 44.4965 22.1464 44.4927C21.6603 44.4908 21.1743 44.4896 20.6882 44.4901C20.2303 44.4905 19.7725 44.4892 19.3147 44.4864C19.1472 44.4858 18.9798 44.4858 18.8124 44.4865C17.6066 44.4911 16.5531 44.4162 15.6405 43.541C15.0647 42.918 14.7651 42.3477 14.764 41.4776C14.763 41.2951 14.763 41.2951 14.7621 41.1089C14.7624 40.9747 14.7627 40.8404 14.763 40.7062C14.7626 40.563 14.7622 40.4198 14.7616 40.2765C14.7605 39.8834 14.7605 39.4902 14.7607 39.097C14.7608 38.6728 14.7597 38.2486 14.7587 37.8245C14.7571 36.9935 14.7566 36.1626 14.7565 35.3316C14.7564 34.6561 14.756 33.9806 14.7554 33.3051C14.7536 31.3896 14.7527 29.4742 14.7529 27.5588C14.7529 27.4039 14.7529 27.4039 14.7529 27.2459C14.7529 27.1425 14.7529 27.0391 14.7529 26.9326C14.753 25.2573 14.7511 23.582 14.7484 21.9067C14.7456 20.1863 14.7442 18.4659 14.7444 16.7454C14.7445 15.7796 14.7439 14.8139 14.7418 13.8481C14.7401 13.0257 14.7396 12.2034 14.741 11.3811C14.7416 10.9616 14.7416 10.5422 14.7399 10.1228C14.7384 9.73847 14.7387 9.35417 14.7404 8.96983C14.7407 8.83117 14.7403 8.6925 14.7392 8.55384C14.7315 7.50062 14.8583 6.60714 15.5993 5.81366C16.3316 5.15534 17.0802 4.95097 18.0457 4.95442ZM16.5103 6.86652C16.4652 6.92052 16.4202 6.97453 16.3737 7.03017C16.1053 7.47038 16.0342 7.90168 16.0338 8.41045C16.0332 8.52889 16.0326 8.64734 16.0321 8.76938C16.0324 8.89998 16.0328 9.03058 16.0332 9.16119C16.0329 9.30058 16.0325 9.43997 16.032 9.57936C16.031 9.96197 16.0313 10.3446 16.0317 10.7272C16.0319 11.14 16.031 11.5528 16.0303 11.9656C16.0291 12.7741 16.0289 13.5826 16.0291 14.3912C16.0293 15.0483 16.0291 15.7054 16.0287 16.3625C16.0286 16.456 16.0286 16.5495 16.0285 16.6459C16.0284 16.8358 16.0283 17.0257 16.0282 17.2157C16.0271 18.9972 16.0273 20.7786 16.0279 22.5601C16.0284 24.1902 16.0273 25.8202 16.0255 27.4502C16.0236 29.1237 16.0228 30.7972 16.0231 32.4708C16.0233 33.4104 16.0231 34.35 16.0217 35.2897C16.0205 36.0895 16.0204 36.8894 16.0216 37.6893C16.0221 38.0974 16.0223 38.5055 16.0211 38.9136C16.02 39.2872 16.0203 39.6609 16.0217 40.0345C16.022 40.1696 16.0217 40.3047 16.0209 40.4399C16.0164 41.2808 16.0155 41.8961 16.5835 42.5538C17.0418 42.9466 17.3439 43.1032 17.9541 43.1017C18.0805 43.1021 18.2069 43.1025 18.3371 43.1029C18.4765 43.1019 18.6158 43.1008 18.7552 43.0997C18.9025 43.0996 19.0497 43.0997 19.197 43.0999C19.5963 43.0999 19.9955 43.0982 20.3948 43.0962C20.8122 43.0943 21.2297 43.0942 21.6472 43.0938C22.4374 43.0929 23.2277 43.0905 24.018 43.0876C24.9178 43.0843 25.8176 43.0827 26.7174 43.0812C28.5681 43.0781 30.4188 43.073 32.2696 43.0665C31.925 42.7205 31.925 42.7205 31.5722 42.3829C30.399 41.2705 29.5442 39.8167 29.0469 38.2813C28.9277 38.2805 28.8084 38.2797 28.6856 38.2789C27.5633 38.2714 26.441 38.2628 25.3187 38.2532C24.7416 38.2483 24.1646 38.2438 23.5876 38.2401C23.031 38.2365 22.4744 38.232 21.9179 38.2268C21.7052 38.225 21.4926 38.2235 21.28 38.2224C20.9828 38.2207 20.6856 38.2179 20.3884 38.2148C20.3 38.2146 20.2115 38.2144 20.1204 38.2142C20.0395 38.2131 19.9585 38.212 19.8752 38.2108C19.8049 38.2103 19.7346 38.2098 19.6621 38.2092C19.4766 38.1837 19.4766 38.1837 19.1836 37.9883C19.1409 37.3902 19.1409 37.3902 19.2813 37.1094C19.6675 36.9807 20.0384 36.9944 20.4412 36.9917C20.5298 36.9908 20.6185 36.9898 20.7098 36.9888C21.003 36.9857 21.2963 36.9833 21.5896 36.9809C21.7928 36.9789 21.996 36.9768 22.1992 36.9747C22.7343 36.9693 23.2694 36.9645 23.8045 36.9598C24.3504 36.9549 24.8963 36.9495 25.4422 36.9441C26.5136 36.9336 27.5849 36.9237 28.6563 36.9141C28.6558 36.8316 28.6558 36.8316 28.6553 36.7474C28.654 36.494 28.6533 36.2406 28.6525 35.9872C28.652 35.9006 28.6515 35.8141 28.6509 35.725C28.6477 34.3337 28.8914 33.1319 29.3758 31.8327C29.4471 31.611 29.4895 31.3808 29.5352 31.1524C24.4112 31.1041 24.4112 31.1041 19.1836 31.0547C19.1836 30.1758 19.1836 30.1758 19.379 29.9805C19.5723 29.9585 19.5723 29.9585 19.8141 29.9619C19.9057 29.9626 19.9973 29.9634 20.0916 29.9641C20.2428 29.9668 20.2428 29.9668 20.3971 29.9695C20.6167 29.9717 20.8364 29.9739 21.056 29.9761C21.2314 29.9783 21.2314 29.9783 21.4104 29.9806C22.029 29.9876 22.6477 29.9886 23.2663 29.9906C24.054 29.9935 24.8415 29.9981 25.6291 30.0096C26.2651 30.0187 26.9009 30.0216 27.5369 30.0203C27.7789 30.021 28.0209 30.0239 28.2628 30.0292C29.6069 30.1188 29.6069 30.1188 30.7886 29.6089C30.9828 29.3989 31.1387 29.1801 31.2874 28.9363C32.2968 27.3139 34.5325 26.5538 36.28 26.093C36.9034 25.9644 37.5313 25.958 38.1656 25.9522C38.2474 25.9513 38.3292 25.9504 38.4135 25.9494C38.9239 25.952 39.4154 26.0012 39.9206 26.0759C40.0426 26.0938 40.1646 26.1117 40.2903 26.1301C40.3827 26.1439 40.4751 26.1577 40.5704 26.1719C40.5772 23.7628 40.5824 21.3537 40.5855 18.9446C40.587 17.826 40.5891 16.7074 40.5925 15.5889C40.5954 14.614 40.5973 13.6391 40.5979 12.6642C40.5983 12.1479 40.5992 11.6317 40.6013 11.1155C40.6033 10.6296 40.6039 10.1437 40.6035 9.65777C40.6036 9.47944 40.6042 9.3011 40.6053 9.12277C40.6067 8.8792 40.6064 8.63569 40.6056 8.39212C40.6064 8.32163 40.6073 8.25114 40.6082 8.17852C40.6034 7.64581 40.4738 7.2539 40.1198 6.85279C40.0651 6.80696 40.0103 6.76114 39.9539 6.71393C39.8729 6.64369 39.8729 6.64369 39.7903 6.57202C39.2633 6.2323 38.7354 6.22185 38.1307 6.2246C37.9998 6.22404 37.9998 6.22404 37.8662 6.22347C37.5743 6.22247 37.2824 6.22285 36.9905 6.22324C36.781 6.22282 36.5715 6.22231 36.3619 6.22173C35.7931 6.22042 35.2244 6.22036 34.6556 6.22061C34.1806 6.22072 33.7057 6.22024 33.2308 6.21977C32.1102 6.21869 30.9897 6.21865 29.8692 6.21924C28.7135 6.21983 27.5578 6.21862 26.4021 6.21654C25.4095 6.21482 24.4171 6.21424 23.4245 6.21455C22.8319 6.21473 22.2392 6.21447 21.6466 6.21312C21.0892 6.21189 20.5318 6.21208 19.9744 6.21335C19.77 6.21358 19.5656 6.21332 19.3612 6.21251C19.0818 6.21149 18.8025 6.21228 18.5231 6.21352C18.4023 6.21244 18.4023 6.21244 18.279 6.21134C17.6271 6.2174 16.9404 6.32576 16.5103 6.86652ZM32.0235 29.8943C30.4989 31.6663 29.7878 33.7753 29.9098 36.1163C30.0639 38.1541 30.974 39.8503 32.3672 41.3087C32.4211 41.3698 32.475 41.431 32.5305 41.494C33.7584 42.8375 35.8471 43.6305 37.6407 43.7501C37.7156 43.7551 37.7905 43.7601 37.8676 43.7653C39.1709 43.8121 40.4651 43.5105 41.6446 42.9688C41.7499 42.9207 41.8553 42.8726 41.9639 42.8231C42.8062 42.4054 43.4315 41.8719 44.086 41.211C44.1644 41.1347 44.2428 41.0584 44.3236 40.9798C45.8835 39.374 46.4808 37.2468 46.4503 35.0545C46.3826 32.8771 45.3982 31.0258 43.8907 29.4923C43.8237 29.424 43.7567 29.3558 43.6877 29.2855C42.0051 27.6839 39.8229 27.1782 37.5674 27.2164C35.438 27.2937 33.4846 28.3752 32.0235 29.8943Z" fill="white"></path>
  <path d="M38.5195 29.5899C38.6862 29.6979 38.6862 29.6979 38.8125 29.8829C38.8411 30.1892 38.8411 30.1892 38.8308 30.536C38.8269 30.7087 38.8269 30.7087 38.8228 30.885C38.8194 30.9732 38.816 31.0615 38.8125 31.1524C38.9092 31.1479 39.0059 31.1433 39.1055 31.1387C40.5193 31.0916 40.5193 31.0916 41.0586 31.543C41.3781 31.8609 41.5657 32.1868 41.6567 32.6295C41.6445 33.0079 41.6445 33.0079 41.437 33.3008C41.1563 33.4962 41.1563 33.4962 40.906 33.5511C40.5908 33.4784 40.4744 33.3589 40.2774 33.1055C40.2532 33.0028 40.2532 33.0028 40.2285 32.898C40.1975 32.703 40.1975 32.703 40.0269 32.6074C39.7048 32.4885 39.3984 32.4917 39.0597 32.4937C38.9897 32.4935 38.9196 32.4933 38.8474 32.4931C38.6997 32.493 38.5519 32.4933 38.4042 32.4941C38.1785 32.4952 37.9529 32.4941 37.7272 32.4929C37.5834 32.493 37.4396 32.4933 37.2958 32.4937C37.2285 32.4933 37.1613 32.4929 37.092 32.4925C36.7377 32.4959 36.4773 32.5215 36.1758 32.7149C36.1679 33.0039 36.1621 33.2926 36.1575 33.5816C36.155 33.6638 36.1526 33.746 36.15 33.8307C36.1491 33.9094 36.1482 33.9881 36.1472 34.0691C36.1456 34.1417 36.1441 34.2144 36.1425 34.2892C36.159 34.38 36.159 34.38 36.1758 34.4727C36.5269 34.7068 36.7837 34.6969 37.1894 34.6982C37.3353 34.7006 37.4812 34.7031 37.6271 34.7056C37.8557 34.7084 38.0843 34.7107 38.3129 34.7126C40.3616 34.7324 40.3616 34.7324 41.1013 35.2784C41.6709 35.8896 41.6932 36.4984 41.6873 37.2986C41.6892 37.3915 41.6912 37.4843 41.6932 37.58C41.6927 38.3081 41.5471 38.8503 41.0403 39.3861C40.3154 39.821 39.6474 39.8859 38.8125 39.8438C38.8176 39.9656 38.8176 39.9656 38.8228 40.0899C38.8255 40.196 38.8281 40.3021 38.8308 40.4114C38.8359 40.5695 38.8359 40.5695 38.8411 40.7307C38.8125 41.0157 38.8125 41.0157 38.6862 41.1976C38.4065 41.384 38.1604 41.3434 37.8359 41.3087C37.6692 41.1976 37.6692 41.1976 37.543 41.0157C37.5144 40.7307 37.5144 40.7307 37.5247 40.4114C37.5273 40.3053 37.53 40.1992 37.5327 40.0899C37.5361 40.0087 37.5395 39.9275 37.543 39.8438C37.442 39.8489 37.442 39.8489 37.3389 39.8541C36.5672 39.8763 35.8987 39.8016 35.2603 39.3372C34.8694 38.9185 34.7062 38.5318 34.7171 37.9578C34.8086 37.6954 34.8086 37.6954 34.9734 37.5062C35.2845 37.3632 35.4608 37.4035 35.7852 37.5001C36.0736 37.7061 36.1462 37.959 36.2734 38.2813C36.5753 38.4322 36.894 38.3949 37.2252 38.3954C37.3001 38.3957 37.375 38.396 37.4522 38.3964C37.6107 38.3969 37.7692 38.3971 37.9277 38.3971C38.1703 38.3973 38.4129 38.3991 38.6555 38.4009C38.8095 38.4012 38.9634 38.4014 39.1173 38.4015C39.2263 38.4025 39.2263 38.4025 39.3374 38.4036C39.7044 38.402 39.8664 38.3925 40.1797 38.1837C40.2249 37.9987 40.2249 37.9987 40.2186 37.7869C40.219 37.7091 40.2194 37.6313 40.2198 37.5512C40.2186 37.4699 40.2175 37.3885 40.2163 37.3048C40.2175 37.2234 40.2186 37.1421 40.2198 37.0583C40.2192 36.9416 40.2192 36.9416 40.2186 36.8226C40.2183 36.7512 40.2179 36.6798 40.2176 36.6063C40.1932 36.3855 40.1932 36.3855 39.8867 36.2305C39.6291 36.2117 39.381 36.2035 39.1234 36.2038C38.9686 36.2018 38.8138 36.1998 38.659 36.1977C38.4162 36.1955 38.1735 36.1939 37.9307 36.1933C35.9053 36.1852 35.9053 36.1852 35.2356 35.6044C34.6971 35.0057 34.6778 34.4202 34.6804 33.6548C34.6789 33.565 34.6773 33.4751 34.6757 33.3825C34.6752 32.6868 34.7707 32.2109 35.2297 31.6651C35.7475 31.2316 36.1802 31.1089 36.8472 31.1341C36.9144 31.1354 36.9816 31.1367 37.0509 31.1381C37.2149 31.1415 37.379 31.1468 37.543 31.1524C37.5379 31.02 37.5379 31.02 37.5327 30.885C37.53 30.7698 37.5274 30.6546 37.5247 30.536C37.5213 30.4215 37.5179 30.3071 37.5144 30.1892C37.543 29.8829 37.543 29.8829 37.6692 29.6979C37.95 29.5161 38.1964 29.5553 38.5195 29.5899Z" fill="white"></path>
  <path d="M20.3637 22.74C20.4346 22.7397 20.5055 22.7394 20.5786 22.7391C20.8167 22.7383 21.0549 22.7382 21.2931 22.738C21.4636 22.7376 21.6341 22.7371 21.8046 22.7365C22.2683 22.7353 22.7319 22.7346 23.1956 22.7342C23.4852 22.7339 23.7747 22.7335 24.0643 22.7331C24.9699 22.7317 25.8756 22.7308 26.7813 22.7304C27.8273 22.73 28.8734 22.7283 29.9195 22.7254C30.7277 22.7233 31.5359 22.7223 32.3441 22.7222C32.827 22.7221 33.3099 22.7215 33.7928 22.7198C34.247 22.7182 34.7011 22.718 35.1553 22.7188C35.322 22.7189 35.4887 22.7185 35.6554 22.7175C35.883 22.7163 36.1105 22.7168 36.338 22.7179C36.4654 22.7177 36.5927 22.7176 36.724 22.7174C37.0789 22.7564 37.2637 22.8272 37.543 23.0467C37.6467 23.3275 37.6467 23.3275 37.6406 23.6326C37.4899 23.8921 37.4899 23.8921 37.25 24.1209C36.9897 24.1698 36.791 24.1863 36.5309 24.1816C36.4583 24.1822 36.3856 24.1829 36.3108 24.1835C36.0672 24.185 35.8239 24.183 35.5803 24.181C35.4058 24.1814 35.2312 24.1819 35.0567 24.1827C34.5826 24.184 34.1084 24.1824 33.6343 24.1801C33.1384 24.1781 32.6425 24.1787 32.1467 24.1789C31.3139 24.1789 30.4811 24.177 29.6484 24.1739C28.6851 24.1703 27.7219 24.1694 26.7587 24.1701C25.8326 24.1707 24.9066 24.1696 23.9806 24.1677C23.5862 24.1669 23.1918 24.1667 22.7975 24.1668C22.3332 24.1669 21.869 24.1655 21.4047 24.163C21.2342 24.1623 21.0636 24.1621 20.8931 24.1624C20.6606 24.1628 20.4282 24.1613 20.1957 24.1594C20.094 24.1602 20.094 24.1602 19.9904 24.161C19.6987 24.1569 19.4978 24.1323 19.239 23.9934C19.0859 23.828 19.0859 23.828 19.0432 23.4862C19.0859 23.1444 19.0859 23.1444 19.2141 22.9613C19.5834 22.7151 19.9333 22.741 20.3637 22.74Z" fill="white"></path>
  <path d="M20.3637 17.0154C20.4346 17.0151 20.5055 17.0148 20.5786 17.0145C20.8167 17.0137 21.0549 17.0135 21.2931 17.0134C21.4636 17.0129 21.6341 17.0125 21.8046 17.0119C22.2683 17.0106 22.7319 17.01 23.1956 17.0096C23.4852 17.0093 23.7747 17.0089 24.0643 17.0085C24.9699 17.0071 25.8756 17.0062 26.7813 17.0058C27.8273 17.0054 28.8734 17.0036 29.9195 17.0008C30.7277 16.9987 31.5359 16.9977 32.3441 16.9976C32.827 16.9975 33.3099 16.9969 33.7928 16.9952C34.247 16.9936 34.7011 16.9933 35.1553 16.9942C35.322 16.9943 35.4887 16.9939 35.6554 16.9929C35.883 16.9917 36.1105 16.9922 36.338 16.9932C36.4654 16.9931 36.5927 16.993 36.724 16.9928C37.0789 17.0318 37.2637 17.1026 37.543 17.3221C37.6467 17.6029 37.6467 17.6029 37.6406 17.908C37.4899 18.1675 37.4899 18.1675 37.25 18.3963C36.9897 18.4452 36.791 18.4617 36.5309 18.457C36.4583 18.4576 36.3856 18.4583 36.3108 18.4589C36.0672 18.4604 35.8239 18.4584 35.5803 18.4564C35.4058 18.4567 35.2312 18.4573 35.0567 18.458C34.5826 18.4594 34.1084 18.4578 33.6343 18.4555C33.1384 18.4535 32.6425 18.4541 32.1467 18.4543C31.3139 18.4543 30.4811 18.4524 29.6484 18.4492C28.6851 18.4456 27.7219 18.4448 26.7587 18.4455C25.8326 18.4461 24.9066 18.445 23.9806 18.4431C23.5862 18.4423 23.1918 18.4421 22.7975 18.4422C22.3332 18.4423 21.869 18.4409 21.4047 18.4384C21.2342 18.4377 21.0636 18.4375 20.8931 18.4378C20.6606 18.4382 20.4282 18.4367 20.1957 18.4348C20.094 18.4356 20.094 18.4356 19.9904 18.4364C19.6987 18.4323 19.4978 18.4077 19.239 18.2688C19.0859 18.1033 19.0859 18.1033 19.0432 17.7616C19.0859 17.4198 19.0859 17.4198 19.2141 17.2367C19.5834 16.9904 19.9333 17.0164 20.3637 17.0154Z" fill="white"></path>
  <path d="M20.3637 11.8396C20.4346 11.8393 20.5055 11.8391 20.5786 11.8388C20.8167 11.8379 21.0549 11.8378 21.2931 11.8376C21.4636 11.8372 21.6341 11.8367 21.8046 11.8361C22.2683 11.8349 22.7319 11.8342 23.1956 11.8338C23.4852 11.8335 23.7747 11.8331 24.0643 11.8327C24.9699 11.8313 25.8756 11.8304 26.7813 11.83C27.8273 11.8296 28.8734 11.8279 29.9195 11.825C30.7277 11.8229 31.5359 11.8219 32.3441 11.8218C32.827 11.8217 33.3099 11.8211 33.7928 11.8194C34.247 11.8178 34.7011 11.8176 35.1553 11.8184C35.322 11.8185 35.4887 11.8181 35.6554 11.8171C35.883 11.8159 36.1105 11.8164 36.338 11.8175C36.4654 11.8173 36.5927 11.8172 36.724 11.817C37.0789 11.856 37.2637 11.9268 37.543 12.1463C37.6467 12.4271 37.6467 12.4271 37.6406 12.7323C37.4899 12.9917 37.4899 12.9917 37.25 13.2205C36.9897 13.2694 36.791 13.2859 36.5309 13.2812C36.4583 13.2819 36.3856 13.2825 36.3108 13.2831C36.0672 13.2846 35.8239 13.2826 35.5803 13.2806C35.4058 13.281 35.2312 13.2815 35.0567 13.2823C34.5826 13.2837 34.1084 13.282 33.6343 13.2797C33.1384 13.2777 32.6425 13.2783 32.1467 13.2785C31.3139 13.2785 30.4811 13.2766 29.6484 13.2735C28.6851 13.2699 27.7219 13.269 26.7587 13.2697C25.8326 13.2703 24.9066 13.2693 23.9806 13.2673C23.5862 13.2665 23.1918 13.2663 22.7975 13.2664C22.3332 13.2665 21.869 13.2651 21.4047 13.2626C21.2342 13.2619 21.0636 13.2617 20.8931 13.262C20.6606 13.2624 20.4282 13.261 20.1957 13.2591C20.094 13.2598 20.094 13.2598 19.9904 13.2606C19.6987 13.2565 19.4978 13.232 19.239 13.093C19.0859 12.9276 19.0859 12.9276 19.0432 12.5858C19.0859 12.244 19.0859 12.244 19.2141 12.0609C19.5834 11.8147 19.9333 11.8406 20.3637 11.8396Z" fill="white"></path>
</svg>
