<?xml version="1.0" encoding="UTF-8"?>
<svg xmlns="http://www.w3.org/2000/svg" width="44" height="44" viewBox="0 0 44 44" fill="none">
  <path d="M41.6796 10.3986C42.3591 10.7853 42.8088 11.3603 43.0174 12.1152C43.0844 12.4282 43.0889 12.7415 43.0965 13.0606C43.0989 13.1356 43.1013 13.2106 43.1037 13.2879C43.1115 13.5357 43.1182 13.7834 43.1248 14.0311C43.1301 14.2063 43.1354 14.3815 43.1408 14.5567C43.1549 15.0194 43.168 15.4821 43.181 15.9448C43.194 16.4045 43.2078 16.8641 43.2217 17.3238C43.2456 18.123 43.2687 18.9223 43.2914 19.7216C43.3063 20.2458 43.322 20.77 43.3383 21.2942C43.3794 22.6159 43.4183 23.9375 43.4238 25.2599C43.4248 25.4282 43.4266 25.5965 43.4291 25.7648C43.4568 27.6692 43.0513 28.9959 41.7094 30.3988C41.3745 30.7378 41.0325 31.0694 40.6901 31.4008C40.4297 31.6534 40.1711 31.9077 39.9123 32.1619C39.4325 32.6332 38.9521 33.1039 38.4685 33.5713C38.1301 33.8986 37.7941 34.2281 37.4595 34.5592C37.3323 34.6842 37.2043 34.8083 37.0755 34.9315C36.2422 35.6769 36.2422 35.6769 35.8861 36.6936C35.8916 36.9351 35.8916 36.9351 35.9218 37.1252C36.0007 37.1222 36.0796 37.1192 36.1609 37.1161C37.4964 37.0866 37.4964 37.0866 37.9843 37.5441C38.4164 38.018 38.5139 38.3495 38.5204 38.9873C38.5211 39.052 38.5218 39.1168 38.5225 39.1835C38.5237 39.3207 38.5247 39.4579 38.5253 39.595C38.5263 39.7345 38.5281 39.8739 38.5306 40.0133C38.5596 41.601 38.5596 41.601 37.9874 42.2005C37.9314 42.2396 37.8755 42.2787 37.8178 42.319C37.7621 42.3597 37.7064 42.4003 37.649 42.4422C37.3231 42.6176 36.9875 42.6359 36.6228 42.6339C36.5023 42.6336 36.5023 42.6336 36.3794 42.6332C36.293 42.6325 36.2067 42.6318 36.1177 42.6311C35.9811 42.6306 35.9811 42.6306 35.8416 42.63C35.6493 42.6292 35.457 42.6281 35.2647 42.6269C34.9904 42.6252 34.716 42.6241 34.4416 42.6233C33.3764 42.6197 32.3112 42.6127 31.246 42.6049C30.7135 42.601 30.181 42.5977 29.6484 42.5954C29.1273 42.5932 28.6062 42.5897 28.085 42.5854C27.8879 42.5839 27.6909 42.5829 27.4938 42.5824C27.2194 42.5816 26.945 42.5792 26.6706 42.5764C26.5502 42.5766 26.5502 42.5766 26.4274 42.5768C25.8293 42.5682 25.3785 42.4497 24.8574 42.1418C24.2444 41.4947 24.2698 40.7227 24.2827 39.8752C24.2821 39.7622 24.2815 39.6492 24.2808 39.5328C24.2854 38.8375 24.2923 38.1777 24.7355 37.6116C25.2657 37.1839 25.6252 37.032 26.3143 37.0362C26.4075 37.0366 26.5007 37.0371 26.5967 37.0375C26.7035 37.0384 26.7035 37.0384 26.8125 37.0392C26.8119 36.9603 26.8113 36.8813 26.8107 36.7999C26.8055 36.0504 26.8016 35.3009 26.7991 34.5513C26.7978 34.1661 26.796 33.7809 26.793 33.3957C26.7902 33.0229 26.7887 32.6501 26.788 32.2773C26.7875 32.1362 26.7866 31.995 26.7852 31.8538C26.769 30.1576 27.0191 28.5959 28.2465 27.3283C28.5798 27.0082 28.9352 26.7189 29.2949 26.4293C31.4262 24.7077 31.4262 24.7077 33.2685 22.693C33.6099 22.2763 34.1329 22.0809 34.6328 21.9142C35.3991 21.8487 36.1445 21.8752 36.7612 22.383C36.8146 22.4294 36.868 22.4758 36.9231 22.5236C37.004 22.5937 37.004 22.5937 37.0866 22.6652C37.1276 22.701 37.1686 22.7368 37.2109 22.7736C37.2114 22.6623 37.2119 22.5511 37.2124 22.4365C37.2174 21.3834 37.2236 20.3303 37.2312 19.2772C37.235 18.736 37.2384 18.1947 37.2407 17.6534C37.2429 17.1302 37.2464 16.607 37.2507 16.0838C37.2521 15.885 37.2531 15.6863 37.2537 15.4875C37.2592 13.6457 37.3229 11.9194 38.6987 10.5436C39.6869 9.9231 40.6314 9.88725 41.6796 10.3986ZM39.3432 12.0583C38.7933 12.8737 38.7317 13.8169 38.7358 14.7763C38.7355 14.865 38.7352 14.9538 38.7349 15.0452C38.7343 15.2362 38.7341 15.4272 38.7342 15.6181C38.7343 15.9214 38.7332 16.2247 38.7317 16.528C38.7277 17.3897 38.7256 18.2514 38.725 19.1131C38.7246 19.6419 38.7225 20.1707 38.7194 20.6994C38.7186 20.8997 38.7184 21.0999 38.7188 21.3002C38.7256 24.3774 37.268 25.99 35.1868 28.0935C35.0885 28.1932 34.9907 28.2933 34.8934 28.3939C34.7498 28.5422 34.6049 28.689 34.4596 28.8356C34.4168 28.8803 34.374 28.9251 34.3298 28.9712C34.0256 29.2737 33.7639 29.3979 33.3437 29.4767C33.0829 29.4188 32.9642 29.3665 32.7959 29.1598C32.7176 28.8701 32.7247 28.6382 32.8281 28.3595C33.033 28.0886 33.2739 27.8614 33.521 27.6291C33.5845 27.5671 33.648 27.5052 33.7135 27.4414C34.0171 27.1476 34.327 26.8634 34.6469 26.5874C34.9569 26.3188 35.2414 26.0347 35.519 25.7331C35.5849 25.6637 35.5849 25.6637 35.6521 25.5929C35.9797 25.2389 36.2318 24.8962 36.3032 24.4064C36.2423 23.9892 36.0466 23.7342 35.7231 23.4718C35.4201 23.345 35.2168 23.3351 34.8906 23.3752C34.328 23.6682 33.9088 24.1576 33.5048 24.6374C32.7435 25.5172 31.8103 26.2602 30.9292 27.0161C30.7631 27.1585 30.5973 27.3013 30.4316 27.4441C30.3245 27.5362 30.2174 27.6283 30.1103 27.7204C30.0615 27.7624 30.0127 27.8043 29.9625 27.8476C29.755 28.0255 29.5469 28.1997 29.3302 28.3663C28.6596 28.9274 28.3925 29.7553 28.2734 30.5939C28.2661 30.8105 28.2633 31.0274 28.2636 31.2441C28.2636 31.3071 28.2636 31.37 28.2636 31.4348C28.2637 31.6413 28.2643 31.8477 28.265 32.0542C28.2652 32.1979 28.2653 32.3417 28.2654 32.4855C28.2657 32.8627 28.2665 33.2399 28.2675 33.6171C28.2684 34.0025 28.2688 34.3879 28.2692 34.7733C28.2701 35.5286 28.2716 36.2839 28.2734 37.0392C28.5824 37.1355 28.8702 37.1355 29.1926 37.1349C29.2782 37.1349 29.2782 37.1349 29.3655 37.135C29.5533 37.1349 29.7412 37.1342 29.929 37.1336C30.0596 37.1334 30.1901 37.1333 30.3206 37.1332C30.6636 37.1329 31.0067 37.132 31.3497 37.1311C31.6999 37.1302 32.0502 37.1298 32.4004 37.1294C33.0872 37.1284 33.7741 37.127 34.4609 37.1252C34.4601 37.0153 34.4593 36.9054 34.4586 36.7922C34.461 36.6453 34.4636 36.4985 34.4663 36.3517C34.4653 36.2796 34.4644 36.2075 34.4634 36.1332C34.4747 35.7182 34.5281 35.4694 34.8142 35.1606C34.8687 35.1014 34.9233 35.0421 34.9794 34.9811C35.2364 34.7131 35.4961 34.4487 35.7607 34.1882C35.8187 34.1308 35.8766 34.0734 35.9363 34.0143C36.0609 33.8909 36.1855 33.7676 36.3103 33.6444C36.5083 33.4487 36.7058 33.2527 36.9033 33.0565C37.4642 32.4992 38.0254 31.9421 38.588 31.3864C38.9333 31.0454 39.2776 30.7035 39.6215 30.361C39.752 30.2314 39.8827 30.1021 40.0138 29.9731C40.9789 29.052 40.9789 29.052 41.6796 27.9299C41.7079 27.8737 41.7361 27.8175 41.7652 27.7596C42.0462 27.0967 41.9699 26.3365 41.9613 25.6307C41.9603 25.4757 41.9593 25.3207 41.9584 25.1657C41.9438 23.236 41.8827 21.3069 41.823 19.3782C41.8078 18.8844 41.7934 18.3906 41.7788 17.8968C41.7543 17.0657 41.7285 16.2347 41.7017 15.4037C41.6879 14.9733 41.6754 14.5429 41.6653 14.1124C41.6591 13.8519 41.6516 13.5914 41.6444 13.3309C41.643 13.2447 41.6416 13.1585 41.6401 13.0697C41.6226 12.5001 41.5104 12.2142 41.1103 11.7951C40.4664 11.2905 39.8651 11.5066 39.3432 12.0583ZM25.9531 38.5002C25.679 38.9113 25.753 39.3543 25.7544 39.8376C25.753 39.9374 25.7516 40.0373 25.7502 40.1402C25.7501 40.2354 25.7501 40.3306 25.75 40.4287C25.7497 40.5162 25.7495 40.6037 25.7492 40.6938C25.7598 40.7639 25.7703 40.8341 25.7812 40.9064C26.0642 41.0951 26.151 41.1005 26.4799 41.1034C26.5712 41.1046 26.6624 41.1058 26.7564 41.107C26.8564 41.1075 26.9565 41.1079 27.0596 41.1084C27.1649 41.1096 27.2703 41.1107 27.3789 41.1119C27.6679 41.1148 27.957 41.117 28.246 41.1187C28.5483 41.1207 28.8505 41.1235 29.1528 41.1262C29.6603 41.1305 30.1678 41.1342 30.6753 41.1374C31.2625 41.1412 31.8497 41.1462 32.4369 41.1518C32.9407 41.1566 33.4445 41.1607 33.9483 41.1643C34.2494 41.1664 34.5505 41.1688 34.8515 41.1717C35.1869 41.175 35.5223 41.1769 35.8577 41.1786C35.958 41.1797 36.0582 41.1809 36.1615 41.1821C36.2524 41.1823 36.3434 41.1825 36.4371 41.1828C36.5165 41.1834 36.5959 41.1839 36.6776 41.1845C36.885 41.1824 36.885 41.1824 37.039 40.9923C37.063 40.7503 37.063 40.7503 37.0558 40.468C37.0553 40.3639 37.0547 40.2597 37.0541 40.1524C37.0527 40.0432 37.0513 39.934 37.0498 39.8215C37.049 39.7116 37.0482 39.6017 37.0474 39.4884C37.0454 39.2163 37.0426 38.9442 37.039 38.672C36.7545 38.5298 36.4363 38.5706 36.1233 38.5685C36.0461 38.5676 35.969 38.5668 35.8894 38.5659C35.6321 38.5631 35.3748 38.561 35.1175 38.5589C34.937 38.5571 34.7566 38.5553 34.5761 38.5535C34.1955 38.5497 33.8149 38.5462 33.4343 38.5429C32.8604 38.5379 32.2865 38.5322 31.7126 38.5265C30.8963 38.5184 30.08 38.5117 29.2636 38.506C28.8054 38.5027 28.3471 38.4981 27.8889 38.4915C27.7002 38.4889 27.5114 38.4868 27.3227 38.485C27.1034 38.4829 26.8842 38.4798 26.665 38.4756C26.5716 38.475 26.4782 38.4743 26.382 38.4737C26.3024 38.4726 26.2228 38.4714 26.1407 38.4703C26.0788 38.4802 26.0169 38.49 25.9531 38.5002Z" fill="white"></path>
  <path d="M5.07031 10.3982C6.00848 11.0483 6.36855 11.9851 6.61719 13.0623C6.7049 13.5661 6.71773 14.0575 6.72077 14.5683C6.72162 14.6573 6.72247 14.7462 6.72335 14.8378C6.72605 15.1303 6.72819 15.4228 6.73032 15.7152C6.73209 15.9186 6.73389 16.122 6.73573 16.3254C6.74046 16.8595 6.74471 17.3937 6.74886 17.9279C6.75319 18.4734 6.75797 19.0189 6.76271 19.5645C6.77194 20.634 6.78066 21.7036 6.78906 22.7732C6.83005 22.7374 6.87103 22.7017 6.91326 22.6648C6.96719 22.6181 7.02112 22.5714 7.07669 22.5232C7.13008 22.4768 7.18347 22.4304 7.23848 22.3826C7.75328 21.9595 8.37111 21.8554 9.02176 21.8813C10.0647 22.0121 10.6687 22.563 11.3239 23.3321C12.0025 24.0915 12.7319 24.8033 13.5315 25.4339C13.7556 25.6136 13.9677 25.8021 14.1797 25.9959C14.4762 26.2665 14.7797 26.5233 15.0928 26.7747C16.3326 27.7871 16.9917 28.8925 17.1875 30.5076C17.1947 30.731 17.1984 30.9521 17.1973 31.1754C17.1973 31.2392 17.1973 31.303 17.1973 31.3687C17.1972 31.5775 17.1966 31.7863 17.1959 31.995C17.1957 32.1406 17.1956 32.2862 17.1955 32.4318C17.1952 32.8133 17.1944 33.1949 17.1934 33.5765C17.1925 33.9665 17.1921 34.3565 17.1917 34.7465C17.1908 35.5106 17.1893 36.2747 17.1875 37.0388C17.2576 37.0378 17.3278 37.0368 17.4001 37.0358C17.5386 37.0346 17.5386 37.0346 17.68 37.0335C17.7714 37.0325 17.8628 37.0315 17.957 37.0304C18.5167 37.0484 18.8561 37.2129 19.2393 37.6189C19.7502 38.2035 19.7142 38.9505 19.7163 39.6854C19.7173 39.8573 19.7216 40.0293 19.7258 40.2012C19.7296 40.891 19.6761 41.4591 19.25 42.0232C18.817 42.3832 18.405 42.5476 17.8422 42.5524C17.7299 42.5537 17.7299 42.5537 17.6153 42.555C17.4931 42.5557 17.4931 42.5557 17.3684 42.5565C17.2819 42.5573 17.1955 42.5582 17.1065 42.559C16.8197 42.5618 16.533 42.5639 16.2462 42.566C16.0455 42.5678 15.8448 42.5696 15.644 42.5714C15.2218 42.5752 14.7996 42.5787 14.3775 42.582C13.8422 42.5862 13.307 42.5908 12.7718 42.5956C12.2559 42.6002 11.7401 42.6046 11.2242 42.609C11.1284 42.6098 11.0326 42.6106 10.9339 42.6115C10.4757 42.6153 10.0176 42.6187 9.55936 42.621C9.19117 42.623 8.82317 42.6281 8.45504 42.6348C8.27102 42.6372 8.087 42.6395 7.90298 42.6419C7.81956 42.644 7.73615 42.6461 7.6502 42.6482C7.06264 42.6538 6.48314 42.5967 6.00522 42.2253C5.96789 42.1763 5.93055 42.1274 5.89209 42.0769C5.85321 42.0284 5.81432 41.9799 5.77426 41.9299C5.51608 41.5151 5.47262 41.1378 5.47113 40.6569C5.47056 40.5922 5.46999 40.5275 5.4694 40.4608C5.46853 40.3243 5.46812 40.1878 5.46815 40.0513C5.46778 39.8438 5.46465 39.6364 5.4614 39.429C5.46089 39.2958 5.46055 39.1626 5.46039 39.0295C5.45915 38.9681 5.45792 38.9068 5.45665 38.8436C5.46125 38.3315 5.61035 37.9751 5.96205 37.6002C6.43451 37.1761 6.89037 37.1024 7.50879 37.114C7.6158 37.1156 7.72282 37.1171 7.83307 37.1187C7.91394 37.1207 7.99481 37.1227 8.07813 37.1248C8.14467 36.6992 8.13099 36.3024 7.88597 35.9337C7.51808 35.4856 7.09166 35.0914 6.67325 34.6913C6.538 34.5585 6.40297 34.4254 6.26816 34.2921C5.91341 33.9424 5.55604 33.5956 5.19791 33.2494C4.62627 32.6958 4.05886 32.1379 3.49121 31.5802C3.29377 31.3869 3.09529 31.1948 2.89659 31.0029C1.77769 29.916 0.629234 28.6985 0.580091 27.04C0.5793 26.9031 0.579467 26.7662 0.580436 26.6293C0.580336 26.5536 0.580235 26.4778 0.580131 26.3998C0.580152 26.1488 0.581557 25.8978 0.583101 25.6467C0.583663 25.4673 0.584223 25.2878 0.584781 25.1083C0.594228 23.0548 0.653972 21.0025 0.716067 18.95C0.728243 18.5431 0.739867 18.1362 0.751475 17.7293C0.765639 17.2335 0.780093 16.7377 0.794588 16.2419C0.797213 16.1515 0.799839 16.0611 0.802544 15.9679C0.815088 15.5392 0.828313 15.1106 0.84303 14.682C0.854928 14.3353 0.863498 13.9888 0.870457 13.642C0.875229 13.4667 0.880046 13.2913 0.88491 13.116C0.885877 13.0368 0.886844 12.9577 0.88784 12.8762C0.91324 12.0867 1.1567 11.3955 1.70163 10.8128C2.67751 10.0033 3.94746 9.7659 5.07031 10.3982ZM2.49219 12.2029C2.41247 12.4421 2.39181 12.6024 2.38345 12.8507C2.38056 12.931 2.37767 13.0113 2.3747 13.0941C2.37193 13.1824 2.36916 13.2707 2.3663 13.3617C2.36307 13.4553 2.35984 13.549 2.35651 13.6455C2.34582 13.9595 2.33572 14.2736 2.32569 14.5877C2.31838 14.8097 2.31106 15.0318 2.30374 15.2538C2.28399 15.857 2.26505 16.4602 2.24629 17.0634C2.2363 17.3841 2.22615 17.7048 2.21595 18.0255C2.09418 21.7354 2.09418 21.7354 2.03221 25.4466C2.03095 25.5949 2.02913 25.7432 2.0267 25.8916C2.00643 27.2195 2.28987 28.2293 3.22799 29.2113C3.34157 29.3254 3.45585 29.4387 3.57071 29.5515C3.66491 29.6456 3.66491 29.6456 3.76102 29.7415C3.96646 29.9463 4.17278 30.1502 4.37912 30.3542C4.52275 30.4971 4.66631 30.6401 4.80981 30.7831C5.18601 31.1579 5.56294 31.5319 5.94007 31.9057C6.54537 32.5058 7.14956 33.1072 7.75372 33.7085C7.96491 33.9185 8.17642 34.1281 8.38799 34.3378C8.51665 34.4656 8.64531 34.5934 8.77396 34.7212C8.83311 34.7796 8.89225 34.838 8.9532 34.8983C9.0068 34.9516 9.06041 35.005 9.11563 35.0599C9.16242 35.1063 9.2092 35.1527 9.2574 35.2004C9.45434 35.415 9.46714 35.5836 9.48032 35.8659C9.48392 35.939 9.48752 36.0121 9.49123 36.0875C9.49461 36.1639 9.49798 36.2403 9.50147 36.3191C9.50518 36.3962 9.50889 36.4733 9.51271 36.5527C9.52184 36.7434 9.53061 36.9341 9.53906 37.1248C10.2951 37.1268 11.051 37.1283 11.807 37.1292C12.1581 37.1297 12.5091 37.1303 12.8602 37.1312C13.1989 37.1322 13.5377 37.1327 13.8765 37.1329C14.0058 37.1331 14.135 37.1334 14.2642 37.1339C14.4453 37.1345 14.6263 37.1346 14.8074 37.1345C14.9104 37.1347 15.0135 37.1349 15.1196 37.1351C15.3393 37.1265 15.518 37.1038 15.7266 37.0388C15.7326 36.2304 15.7371 35.4221 15.7399 34.6137C15.7413 34.2382 15.7431 33.8627 15.746 33.4872C15.7488 33.1239 15.7504 32.7606 15.751 32.3973C15.7515 32.2597 15.7524 32.122 15.7538 31.9844C15.7658 30.7586 15.7416 29.514 14.8403 28.5837C14.2841 28.0428 13.7156 27.5186 13.1108 27.0325C12.6034 26.6235 12.1298 26.1829 11.6544 25.7377C11.5214 25.6145 11.387 25.4932 11.2518 25.3725C10.7352 24.91 10.2551 24.4318 9.79753 23.9109C9.48351 23.5586 9.28833 23.3946 8.81934 23.3425C8.44564 23.3812 8.27812 23.4781 7.99219 23.7185C7.81112 23.9479 7.74245 24.1028 7.69141 24.3899C7.79971 25.0803 8.36898 25.6023 8.83545 26.0872C8.89333 26.1487 8.95121 26.2102 9.01085 26.2736C9.34825 26.6285 9.69771 26.9596 10.0691 27.2785C11.2095 28.2584 11.2095 28.2584 11.2578 28.8748C11.2202 29.1165 11.2202 29.1165 11.0859 29.3044C10.8066 29.4334 10.8066 29.4334 10.4844 29.4763C9.99262 29.295 9.67376 28.961 9.31247 28.5965C9.25059 28.5348 9.18871 28.4732 9.12495 28.4097C8.99412 28.279 8.86362 28.1481 8.73342 28.0168C8.53769 27.8197 8.34065 27.624 8.14342 27.4284C6.7794 26.0666 5.31957 24.5859 5.30415 22.5363C5.30448 22.4114 5.30448 22.4114 5.30482 22.2841C5.30437 22.1945 5.30392 22.105 5.30346 22.0127C5.30258 21.8192 5.30208 21.6257 5.30192 21.4322C5.3016 21.125 5.30016 20.8178 5.29842 20.5105C5.29367 19.6373 5.29102 18.764 5.28891 17.8908C5.28754 17.3556 5.28494 16.8205 5.28163 16.2853C5.28063 16.0824 5.28012 15.8795 5.28011 15.6767C5.32804 13.6034 5.32804 13.6034 4.46875 11.7732C3.72157 11.2439 3.04723 11.5686 2.49219 12.2029ZM14.478 38.5074C13.6538 38.5134 12.8297 38.5207 12.0055 38.5289C11.4284 38.5347 10.8512 38.54 10.274 38.545C9.89961 38.5484 9.52526 38.5521 9.15091 38.5559C8.97259 38.5576 8.79428 38.5592 8.61597 38.5607C8.36951 38.5628 8.12307 38.5653 7.87663 38.5681C7.76671 38.5688 7.76671 38.5688 7.65457 38.5696C7.29627 38.5648 7.29627 38.5648 6.96094 38.6716C6.95597 39.0548 6.9529 39.4379 6.9502 39.8211C6.94876 39.9303 6.94732 40.0395 6.94583 40.152C6.94528 40.2562 6.94473 40.3603 6.94415 40.4676C6.94325 40.5639 6.94235 40.6602 6.94143 40.7594C6.93683 41.0048 6.93683 41.0048 7.13281 41.1638C7.33043 41.1886 7.33043 41.1886 7.56283 41.1824C7.6538 41.1821 7.74477 41.1819 7.8385 41.1817C7.93873 41.1805 8.03896 41.1794 8.14222 41.1782C8.24745 41.1776 8.35267 41.1771 8.46108 41.1765C8.75016 41.1749 9.0392 41.1724 9.32826 41.1696C9.63047 41.1667 9.93269 41.1647 10.2349 41.1626C10.7426 41.1588 11.2502 41.1544 11.7579 41.1495C12.345 41.1439 12.9322 41.1395 13.5194 41.1358C14.0231 41.1325 14.5268 41.1286 15.0306 41.1242C15.3316 41.1215 15.6326 41.1191 15.9336 41.1172C16.2692 41.1151 16.6048 41.1116 16.9404 41.108C17.0405 41.1076 17.1405 41.1071 17.2436 41.1066C17.3348 41.1054 17.426 41.1042 17.52 41.103C17.5994 41.1023 17.6788 41.1016 17.7606 41.1009C17.9843 41.0906 17.9843 41.0906 18.2188 40.906C18.2574 40.6855 18.2574 40.6855 18.25 40.4283C18.2499 40.3331 18.2499 40.2379 18.2498 40.1398C18.2484 40.0399 18.247 39.9401 18.2456 39.8372C18.2459 39.7376 18.2462 39.6381 18.2464 39.5355C18.2623 38.9862 18.2623 38.9862 18.0469 38.4998C17.8512 38.4631 17.8512 38.4631 17.6179 38.4733C17.4779 38.4742 17.4779 38.4742 17.335 38.4752C17.23 38.4772 17.1251 38.4792 17.017 38.4813C16.8435 38.483 16.6699 38.4847 16.4964 38.4864C16.2996 38.4885 16.1027 38.4912 15.9059 38.494C15.4299 38.5006 14.9539 38.5041 14.478 38.5074Z" fill="white"></path>
  <path d="M23.4243 2.2617C23.5118 2.30011 23.5992 2.33852 23.6893 2.37809C23.8783 2.46121 24.0671 2.54481 24.2557 2.62884C24.6584 2.80829 25.0621 2.98548 25.4658 3.16277C25.6772 3.25561 25.8885 3.34855 26.0998 3.44163C27.2586 3.95181 28.4237 4.44684 29.5893 4.9412C29.7832 5.02345 29.977 5.10571 30.1708 5.18798C30.2631 5.22713 30.3553 5.26629 30.4504 5.30663C30.7126 5.41809 30.9747 5.5299 31.2368 5.6418C31.5369 5.7699 31.8376 5.89634 32.139 6.02113C32.2643 6.07382 32.3896 6.12652 32.5149 6.17924C32.5702 6.2016 32.6255 6.22396 32.6825 6.247C32.9963 6.3805 33.1665 6.49811 33.3437 6.78886C33.3762 6.98204 33.3762 6.98204 33.3765 7.19708C33.3772 7.27895 33.3779 7.36082 33.3787 7.44517C33.3779 7.57909 33.3779 7.57909 33.3771 7.71571C33.3778 7.85749 33.3778 7.85749 33.3785 8.00213C33.3796 8.31566 33.3788 8.62914 33.378 8.94267C33.3781 9.16156 33.3784 9.38045 33.3787 9.59935C33.3791 10.0594 33.3786 10.5194 33.3773 10.9795C33.3759 11.5069 33.3764 12.0342 33.3778 12.5616C33.3791 13.0724 33.379 13.5832 33.3782 14.094C33.3781 14.3094 33.3783 14.5248 33.3789 14.7402C33.3823 16.3053 33.3151 17.8509 32.8711 19.3626C32.8394 19.4716 32.8394 19.4716 32.8071 19.5828C32.4019 20.894 31.769 22.1945 30.9375 23.2889C30.8821 23.3621 30.8267 23.4353 30.7696 23.5108C28.8443 25.9781 26.3308 27.6975 23.2783 28.4451C23.2061 28.463 23.1339 28.4808 23.0595 28.4992C22.2501 28.6825 21.5236 28.6436 20.7217 28.4451C20.6441 28.4261 20.5665 28.407 20.4866 28.3874C17.1791 27.5352 14.334 25.4224 12.5468 22.5154C11.3356 20.46 10.6493 18.2435 10.6396 15.8493C10.6389 15.7518 10.6382 15.6544 10.6375 15.5539C10.6354 15.2333 10.634 14.9127 10.6327 14.5921C10.6323 14.4823 10.6318 14.3725 10.6313 14.2594C10.6295 13.7984 10.6279 13.3374 10.6269 12.8764C10.6255 12.2176 10.6226 11.5588 10.6178 10.9C10.614 10.3795 10.6127 9.859 10.6121 9.33847C10.6115 9.11743 10.6102 8.89639 10.6082 8.67536C10.6055 8.36678 10.6054 8.05831 10.6061 7.74972C10.6047 7.65833 10.6033 7.56693 10.6018 7.47277C10.607 6.85595 10.607 6.85595 10.8483 6.5268C11.0641 6.37454 11.2572 6.25598 11.5001 6.15379C11.5811 6.11911 11.662 6.08443 11.7454 6.04871C11.8771 5.99418 11.8771 5.99418 12.0114 5.93855C12.1046 5.89894 12.1979 5.85934 12.2939 5.81853C12.5486 5.71055 12.8036 5.60348 13.0588 5.4968C13.3268 5.38446 13.5944 5.27092 13.862 5.15745C14.1967 5.0156 14.5315 4.87387 14.8665 4.73264C15.6627 4.39696 16.4576 4.05824 17.2516 3.71727C17.3335 3.68209 17.3335 3.68209 17.4171 3.6462C17.6869 3.53033 17.9568 3.41441 18.2266 3.29846C18.7265 3.08367 19.2266 2.86916 19.7267 2.6548C19.8113 2.61844 19.896 2.58209 19.9833 2.54464C20.1446 2.47549 20.3062 2.40686 20.468 2.33882C20.6381 2.26555 20.8067 2.18881 20.9741 2.10953C21.9335 1.66941 22.4914 1.84061 23.4243 2.2617ZM21.5449 3.50007C21.4286 3.54956 21.4286 3.54956 21.3099 3.60004C21.1819 3.65507 21.1819 3.65507 21.0513 3.71122C20.9615 3.74954 20.8717 3.78785 20.7792 3.82733C20.4806 3.95483 20.1822 4.08278 19.8838 4.21073C19.6767 4.29929 19.4696 4.38782 19.2624 4.47633C18.8257 4.66301 18.3891 4.84993 17.9525 5.037C17.4406 5.25638 16.9285 5.47546 16.4164 5.69438C15.8637 5.93065 15.311 6.16708 14.7584 6.40358C14.5987 6.47194 14.4389 6.54028 14.2791 6.60861C13.9807 6.73628 13.6824 6.8641 13.3841 6.99195C13.2953 7.02991 13.2065 7.06787 13.1151 7.10698C13.0336 7.14195 12.952 7.17692 12.8681 7.21295C12.7973 7.24324 12.7266 7.27354 12.6537 7.30475C12.4719 7.38554 12.2948 7.47274 12.1172 7.5623C12.1112 8.72329 12.1066 9.88429 12.1038 11.0453C12.1025 11.5845 12.1007 12.1238 12.0977 12.663C12.0949 13.1846 12.0934 13.7061 12.0927 14.2277C12.0922 14.4255 12.0913 14.6233 12.0899 14.8211C12.0799 16.2862 12.168 17.6805 12.6059 19.0887C12.6278 19.1599 12.6497 19.2311 12.6723 19.3044C12.9005 20.0147 13.2096 20.665 13.5781 21.3123C13.6104 21.3699 13.6428 21.4275 13.6761 21.4868C14.1454 22.3114 14.6818 23.0122 15.3504 23.6845C15.456 23.7916 15.5586 23.9018 15.6607 24.0123C17.2011 25.6482 19.6987 27.0077 21.9641 27.1722C23.773 27.0201 25.63 26.1727 27.0703 25.0935C27.1463 25.0366 27.2223 24.9797 27.3006 24.921C29.8506 22.9179 31.4678 20.0979 31.8642 16.874C31.8984 16.5022 31.8939 16.1305 31.8925 15.7574C31.8926 15.624 31.8926 15.624 31.8926 15.4879C31.8925 15.1959 31.8919 14.9039 31.8912 14.6119C31.891 14.4086 31.8909 14.2054 31.8908 14.0021C31.8905 13.4686 31.8896 12.9352 31.8887 12.4017C31.8878 11.8567 31.8874 11.3118 31.887 10.7668C31.8861 9.69865 31.8846 8.63047 31.8828 7.5623C30.3531 6.87703 28.8176 6.20788 27.2744 5.55351C27.072 5.46758 26.8697 5.38163 26.6674 5.29567C26.3662 5.16776 26.0651 5.03988 25.7639 4.91209C25.1747 4.66206 24.5858 4.41114 23.9973 4.15937C23.8004 4.07525 23.6034 3.99116 23.4064 3.90709C23.2861 3.85567 23.1658 3.80415 23.0455 3.75252C22.8838 3.68309 22.7219 3.61406 22.5599 3.54505C22.4715 3.50723 22.3832 3.46941 22.2921 3.43044C21.9796 3.31057 21.844 3.37212 21.5449 3.50007Z" fill="white"></path>
  <path d="M20.77 8.279C20.8676 8.27859 20.9651 8.27818 21.0657 8.27776C21.2717 8.27747 21.4777 8.27826 21.6837 8.28005C21.9989 8.28235 22.3139 8.28007 22.6291 8.27732C22.8294 8.27761 23.0297 8.27816 23.23 8.279C23.3713 8.2777 23.3713 8.2777 23.5154 8.27637C23.9127 8.28248 24.164 8.29405 24.5094 8.50016C24.7317 8.88193 24.718 9.20061 24.706 9.63487C24.7054 9.71819 24.7048 9.80151 24.7042 9.88736C24.7018 10.1527 24.6964 10.4179 24.6909 10.6832C24.6888 10.8634 24.6868 11.0437 24.685 11.2239C24.6803 11.665 24.6729 12.106 24.6641 12.547C24.8325 12.5443 24.8325 12.5443 25.0044 12.5416C25.4216 12.5353 25.8388 12.5314 26.256 12.5281C26.4365 12.5264 26.6169 12.5241 26.7974 12.5211C27.057 12.5169 27.3166 12.515 27.5762 12.5134C27.6969 12.5108 27.6969 12.5108 27.8201 12.5081C28.1547 12.5079 28.3996 12.5282 28.7111 12.6562C28.9844 13.0473 28.9344 13.4623 28.9291 13.9274C28.9293 14.0291 28.9295 14.1308 28.9297 14.2356C28.9296 14.4505 28.9284 14.6655 28.9263 14.8805C28.9234 15.2098 28.9245 15.539 28.9262 15.8684C28.9256 16.0772 28.9248 16.286 28.9237 16.4948C28.9241 16.5934 28.9245 16.6921 28.925 16.7937C28.9236 16.8855 28.9222 16.9773 28.9208 17.0718C28.92 17.1928 28.92 17.1928 28.9192 17.3162C28.8609 17.6002 28.7611 17.7023 28.5313 17.8751C28.3431 17.9165 28.3431 17.9165 28.1372 17.9142C28.0598 17.9141 27.9824 17.9141 27.9027 17.9141C27.8199 17.9123 27.7371 17.9105 27.6517 17.9087C27.5664 17.9082 27.481 17.9077 27.3931 17.9072C27.1208 17.9053 26.8485 17.901 26.5762 17.8966C26.3914 17.8949 26.2067 17.8933 26.0219 17.8919C25.5693 17.8881 25.1167 17.8824 24.6641 17.8751C24.6648 17.9228 24.6656 17.9705 24.6664 18.0196C24.674 18.5159 24.6792 19.0122 24.6829 19.5085C24.6847 19.6937 24.687 19.8789 24.69 20.0641C24.6942 20.3304 24.6961 20.5965 24.6976 20.8628C24.7003 20.987 24.7003 20.987 24.703 21.1138C24.7031 21.2299 24.7031 21.2299 24.7031 21.3483C24.7039 21.4162 24.7046 21.4842 24.7054 21.5542C24.6466 21.8219 24.5368 21.9221 24.3203 22.0861C24.1051 22.1297 24.1051 22.1297 23.8608 22.1306C23.769 22.1316 23.6772 22.1327 23.5827 22.1338C23.484 22.1331 23.3853 22.1324 23.2837 22.1317C23.1311 22.1322 23.1311 22.1322 22.9755 22.1327C22.7605 22.133 22.5456 22.1323 22.3306 22.1309C22.0012 22.129 21.6721 22.1309 21.3427 22.1331C21.1339 22.1328 20.9251 22.1324 20.7163 22.1317C20.5683 22.1328 20.5683 22.1328 20.4174 22.1338C20.3256 22.1328 20.2338 22.1317 20.1393 22.1306C20.0586 22.1303 19.978 22.13 19.8949 22.1297C19.6106 22.072 19.5088 21.9723 19.3359 21.7423C19.2946 21.5542 19.2946 21.5542 19.2969 21.3483C19.2969 21.2709 19.297 21.1935 19.297 21.1138C19.2988 21.0309 19.3005 20.9481 19.3024 20.8628C19.3029 20.7775 19.3033 20.6921 19.3038 20.6042C19.3058 20.3318 19.3101 20.0596 19.3145 19.7872C19.3162 19.6025 19.3177 19.4178 19.3192 19.233C19.3229 18.7804 19.3287 18.3278 19.3359 17.8751C19.2644 17.8763 19.2644 17.8763 19.1914 17.8774C18.6952 17.8851 18.1989 17.8902 17.7026 17.894C17.5174 17.8957 17.3321 17.8981 17.1469 17.9011C16.8807 17.9052 16.6145 17.9072 16.3483 17.9087C16.2655 17.9105 16.1826 17.9123 16.0973 17.9141C16.0199 17.9141 15.9425 17.9141 15.8628 17.9142C15.7948 17.9149 15.7269 17.9157 15.6569 17.9165C15.3892 17.8576 15.289 17.7478 15.125 17.5314C15.0808 17.3162 15.0808 17.3162 15.0792 17.0718C15.0778 16.98 15.0764 16.8883 15.075 16.7937C15.0757 16.6457 15.0757 16.6457 15.0763 16.4948C15.0758 16.3931 15.0753 16.2914 15.0747 16.1866C15.0741 15.9716 15.0744 15.7566 15.0755 15.5416C15.0767 15.2123 15.0737 14.8831 15.0705 14.5538C15.0704 14.345 15.0705 14.1362 15.071 13.9274C15.0698 13.8287 15.0687 13.7301 15.0675 13.6284C15.0753 12.9619 15.0753 12.9619 15.2889 12.6562C15.672 12.4988 16.0135 12.5044 16.4238 12.5134C16.5071 12.5139 16.5904 12.5144 16.6763 12.5149C16.9416 12.5168 17.2069 12.5211 17.4722 12.5255C17.6524 12.5272 17.8326 12.5288 18.0128 12.5302C18.4539 12.534 18.8949 12.5399 19.3359 12.547C19.3337 12.4347 19.3314 12.3224 19.3291 12.2067C19.3213 11.7895 19.3164 11.3723 19.3123 10.9551C19.3102 10.7746 19.3072 10.5941 19.3035 10.4137C19.2983 10.1541 19.2959 9.89454 19.294 9.63487C19.2918 9.55438 19.2895 9.47388 19.2873 9.39095C19.2871 9.02864 19.3057 8.81767 19.4906 8.50016C19.9081 8.25109 20.2922 8.27459 20.77 8.279ZM20.7969 9.79701C20.7957 10.0588 20.7944 10.3205 20.7932 10.5903C20.7906 10.8442 20.7872 11.0982 20.7838 11.3522C20.7818 11.5285 20.7805 11.7048 20.7801 11.8811C20.7793 12.1348 20.7758 12.3883 20.7717 12.642C20.7722 12.7599 20.7722 12.7599 20.7727 12.8802C20.7645 13.2427 20.7411 13.4442 20.5454 13.7565C20.1721 13.9904 19.8638 13.9846 19.4309 13.9828C19.3495 13.9841 19.2681 13.9854 19.1842 13.9867C18.9251 13.9904 18.666 13.9912 18.4067 13.9918C18.2307 13.9938 18.0546 13.996 17.8785 13.9984C17.4476 14.0041 17.017 14.0059 16.5859 14.0079C16.5859 14.802 16.5859 15.5961 16.5859 16.4142C16.9693 16.419 16.9693 16.419 17.3604 16.4239C17.6084 16.4279 17.8564 16.4323 18.1044 16.4368C18.2765 16.4396 18.4487 16.442 18.6208 16.444C18.8685 16.4469 19.1161 16.4514 19.3638 16.4562C19.4405 16.4567 19.5173 16.4573 19.5963 16.4578C20.0068 16.4675 20.2935 16.4882 20.625 16.7579C20.7231 16.9542 20.7241 17.0703 20.7286 17.2886C20.7312 17.3995 20.7312 17.3995 20.7338 17.5127C20.7352 17.5926 20.7367 17.6726 20.7381 17.755C20.7399 17.8367 20.7417 17.9185 20.7435 18.0028C20.7492 18.2646 20.7542 18.5264 20.7593 18.7882C20.763 18.9655 20.7667 19.1427 20.7705 19.32C20.7798 19.755 20.7883 20.1901 20.7969 20.6251C21.5909 20.6251 22.385 20.6251 23.2031 20.6251C23.2063 20.3624 23.2096 20.0996 23.2129 19.8289C23.2168 19.5743 23.2212 19.3198 23.2257 19.0652C23.2285 18.8883 23.231 18.7114 23.2329 18.5346C23.2358 18.2803 23.2403 18.026 23.2451 17.7717C23.2456 17.6927 23.2462 17.6136 23.2468 17.5322C23.2593 16.9863 23.2593 16.9863 23.4046 16.7107C23.6394 16.505 23.8662 16.4888 24.1653 16.4825C24.2737 16.4799 24.2737 16.4799 24.3842 16.4773C24.4618 16.4759 24.5394 16.4744 24.6194 16.4729C24.6992 16.4712 24.7789 16.4694 24.8611 16.4675C25.1159 16.4619 25.3707 16.4568 25.6255 16.4518C25.7982 16.4481 25.9709 16.4443 26.1436 16.4405C26.5671 16.4313 26.9906 16.4228 27.4141 16.4142C27.4141 15.6201 27.4141 14.8261 27.4141 14.0079C27.1523 14.0067 26.8905 14.0055 26.6208 14.0043C26.3668 14.0016 26.1128 13.9983 25.8589 13.9948C25.6826 13.9928 25.5063 13.9916 25.33 13.9911C25.0763 13.9903 24.8227 13.9868 24.5691 13.9828C24.4511 13.9833 24.4511 13.9833 24.3308 13.9838C23.9684 13.9755 23.7668 13.9521 23.4546 13.7565C23.2207 13.3832 23.2264 13.0748 23.2283 12.642C23.227 12.5606 23.2257 12.4792 23.2244 12.3953C23.2207 12.1361 23.2199 11.877 23.2192 11.6178C23.2173 11.4417 23.2151 11.2657 23.2127 11.0896C23.2069 10.6587 23.2051 10.228 23.2031 9.79701C22.4091 9.79701 21.615 9.79701 20.7969 9.79701Z" fill="white"></path>
  <path d="M27.4141 39.0154C27.6507 39.1698 27.803 39.2778 27.9297 39.5311C27.9636 39.8904 27.9684 40.0733 27.7685 40.3797C27.5343 40.6139 27.4626 40.6437 27.1294 40.6751C26.763 40.6441 26.6389 40.5606 26.3828 40.3045C26.2496 40.0381 26.272 39.8251 26.2969 39.5311C26.614 39.0447 26.8386 38.9667 27.4141 39.0154Z" fill="white"></path>
  <path d="M17.1875 39.0154C17.4241 39.1698 17.5765 39.2778 17.7031 39.5311C17.737 39.8904 17.7418 40.0733 17.542 40.3797C17.3078 40.6139 17.236 40.6437 16.9028 40.6751C16.5365 40.6441 16.4123 40.5606 16.1562 40.3045C16.023 40.0381 16.0454 39.8251 16.0703 39.5311C16.3875 39.0447 16.612 38.9667 17.1875 39.0154Z" fill="white"></path>
</svg>
