<?xml version="1.0" encoding="UTF-8"?>
<svg xmlns="http://www.w3.org/2000/svg" width="48" height="48" viewBox="0 0 48 48" fill="none">
  <g clip-path="url(#clip0_4333_115)">
    <path d="M30.9547 0.25696C31.0109 0.295874 31.0671 0.334787 31.125 0.37488C31.1841 0.415727 31.2432 0.456574 31.3041 0.498659C32.2067 1.2001 32.4648 2.1914 32.625 3.28113C32.6477 3.73014 32.6474 4.17925 32.6484 4.62879C32.6487 4.72308 32.6487 4.72308 32.649 4.81928C32.6498 5.87449 32.5858 6.86741 32.25 7.87488C32.3849 7.8892 32.3849 7.8892 32.5225 7.90381C34.3651 8.16976 36.4185 9.2101 37.5937 10.6522C38.0892 11.3409 38.2805 11.9962 38.25 12.8436C38.051 14.0318 37.4072 14.851 36.4607 15.5631C35.2075 16.4199 33.8649 16.937 32.4375 17.4374C32.4517 17.4951 32.4659 17.5529 32.4805 17.6124C32.7606 18.7828 32.9524 19.9166 32.9531 21.1229C32.9537 21.225 32.9542 21.327 32.9548 21.4321C32.9362 22.6426 32.6757 23.7758 31.7856 24.6481C30.9839 25.2889 30.1627 25.4089 29.1647 25.3358C27.2294 25.1044 25.5758 23.6694 24.1875 22.4061C24.0985 22.4815 24.0096 22.557 23.918 22.6346C23.8569 22.6864 23.7959 22.7381 23.733 22.7914C23.5982 22.9098 23.4665 23.032 23.3382 23.1576C22.035 24.4134 20.1329 25.5505 18.2787 25.5255C17.443 25.4486 16.7749 25.0894 16.2187 24.4686C15.1149 23.0564 15.2397 21.0057 15.4015 19.317C15.4796 18.7443 15.6063 18.1844 15.75 17.6249C15.6862 17.6111 15.6224 17.5973 15.5566 17.5831C13.5841 17.1267 11.2996 16.268 10.1601 14.493C9.75143 13.7221 9.65135 12.9452 9.84374 12.0936C10.345 10.6434 11.5327 9.77757 12.8437 9.09363C13.4263 8.81642 14.0244 8.57845 14.625 8.34363C14.8184 8.26557 15.0117 8.18746 15.2051 8.10925C15.3242 8.06228 15.4433 8.01539 15.5625 7.96863C15.5365 7.84766 15.5105 7.72669 15.4838 7.60205C15.4494 7.44104 15.4151 7.28003 15.3809 7.11902C15.3638 7.03956 15.3467 6.9601 15.329 6.87824C15.015 5.39926 14.8105 3.59594 15.375 2.15613C15.4058 2.07419 15.4366 1.99226 15.4684 1.90784C15.8147 1.10972 16.3811 0.56626 17.1855 0.234255C18.469 -0.16504 19.7161 0.208363 20.8711 0.814333C21.8225 1.33517 22.6474 1.99514 23.4228 2.75122C23.6322 2.94415 23.6322 2.94415 24 2.90613C24.1604 2.77712 24.1604 2.77712 24.3105 2.59558C25.2281 1.63555 26.3722 0.94394 27.5625 0.37488C27.6903 0.31089 27.6903 0.31089 27.8207 0.245607C28.7233 -0.149891 30.0726 -0.236739 30.9547 0.25696ZM27.9375 1.96863C27.849 2.01153 27.7606 2.05443 27.6694 2.09863C26.6652 2.61635 25.8579 3.36504 25.0312 4.12488C25.2207 4.54842 25.5094 4.86825 25.8116 5.21655C25.9988 5.43919 26.1441 5.66581 26.287 5.91895C26.6351 6.4902 26.9508 6.92772 27.6114 7.13445C28.6341 7.36114 29.7062 7.41407 30.75 7.40613C31.1217 6.5327 31.1571 5.63161 31.1543 4.69324C31.1558 4.59106 31.1573 4.48888 31.1589 4.38361C31.1594 3.45485 31.0891 2.51519 30.431 1.80969C30.0725 1.5169 29.7613 1.45321 29.3079 1.46436C28.8154 1.53566 28.3817 1.7528 27.9375 1.96863ZM17.0449 2.28504C16.2232 3.67646 16.6113 5.59908 16.9654 7.07215C17.0461 7.412 17.0461 7.412 17.25 7.68738C17.7146 7.63651 18.1775 7.57846 18.6404 7.514C18.7975 7.49312 18.9548 7.47412 19.1123 7.45715C20.2082 7.34464 20.2082 7.34464 21.0537 6.69746C21.2378 6.4412 21.4005 6.177 21.5625 5.90613C21.6558 5.78134 21.7509 5.65784 21.8492 5.53699C21.9228 5.44224 21.9964 5.3475 22.0723 5.24988C22.1475 5.1532 22.2228 5.05652 22.3004 4.95691C22.4777 4.71753 22.6335 4.47699 22.7812 4.21863C21.8048 3.26804 20.6659 2.4109 19.4062 1.87488C19.3154 1.83427 19.2245 1.79367 19.1309 1.75183C18.2699 1.55855 17.6594 1.61784 17.0449 2.28504ZM23.8125 5.43738C23.631 5.63098 23.4602 5.82534 23.291 6.02918C23.2435 6.08495 23.1959 6.14072 23.1469 6.19818C22.9424 6.44191 22.789 6.6329 22.6875 6.93738C23.4919 6.90644 24.2962 6.8755 25.125 6.84363C24.7014 6.27206 24.7014 6.27206 24.2578 5.71863C24.2128 5.66449 24.1679 5.61035 24.1216 5.55457C24.0056 5.41569 24.0056 5.41569 23.8125 5.43738ZM21.3189 8.65949C21.2869 8.71478 21.2549 8.77006 21.2219 8.82703C21.1646 8.92279 21.1646 8.92279 21.1061 9.02048C21.0672 9.09103 21.0283 9.16157 20.9883 9.23425C20.946 9.30746 20.9037 9.38066 20.8602 9.45609C20.7163 9.70868 20.5767 9.96343 20.4375 10.2186C20.3824 10.3178 20.3272 10.4169 20.2704 10.5191C20.0972 10.8318 19.927 11.1459 19.7578 11.4608C19.7029 11.5612 19.648 11.6615 19.5915 11.765C19.5165 11.9081 19.5165 11.9081 19.4399 12.0541C19.3949 12.1386 19.35 12.2231 19.3036 12.3102C19.1785 12.6819 19.2493 12.9616 19.3884 13.321C19.4928 13.5239 19.5974 13.7264 19.7051 13.9276C19.7454 14.0037 19.7857 14.0799 19.8272 14.1583C20.618 15.6519 20.618 15.6519 21.6562 16.9686C21.7947 16.9783 21.9337 16.9816 22.0725 16.9822C22.1611 16.9828 22.2497 16.9834 22.3409 16.9841C22.4374 16.9842 22.5339 16.9843 22.6333 16.9844C22.7812 16.9848 22.7812 16.9848 22.9322 16.9853C23.1415 16.9858 23.3508 16.986 23.5602 16.986C23.8801 16.9862 24.2001 16.9879 24.52 16.9897C24.7231 16.99 24.9263 16.9901 25.1294 16.9902C25.2251 16.9909 25.3208 16.9916 25.4194 16.9923C25.5092 16.992 25.599 16.9917 25.6914 16.9914C25.77 16.9915 25.8487 16.9917 25.9297 16.9918C26.1917 16.965 26.3886 16.8963 26.625 16.7811C26.794 16.5798 26.794 16.5798 26.9282 16.33C26.9817 16.2376 27.0352 16.1453 27.0902 16.0501C27.1455 15.951 27.2008 15.852 27.2578 15.7499C27.3151 15.649 27.3724 15.5481 27.4314 15.4441C27.6022 15.1409 27.7704 14.8364 27.9375 14.5311C28.009 14.4013 28.009 14.4013 28.0819 14.2688C28.2061 14.041 28.3274 13.812 28.4473 13.5819C28.4832 13.515 28.5191 13.448 28.5561 13.379C28.7623 12.9695 28.828 12.72 28.6875 12.2811C28.5794 12.0387 28.4681 11.8105 28.3418 11.578C28.3058 11.5109 28.2699 11.4437 28.2328 11.3746C27.4157 9.81326 27.4157 9.81326 26.3437 8.43738C26.1591 8.40942 26.1591 8.40942 25.9456 8.41461C25.8221 8.41417 25.8221 8.41417 25.6961 8.41373C25.5622 8.41474 25.5622 8.41474 25.4257 8.41577C25.3338 8.41582 25.242 8.41586 25.1474 8.4159C24.9527 8.41619 24.7579 8.41693 24.5632 8.41809C24.2665 8.41979 23.9698 8.42001 23.6731 8.41998C23.4839 8.42045 23.2946 8.42099 23.1053 8.42163C23.017 8.42174 22.9287 8.42184 22.8377 8.42195C22.0311 8.38181 22.0311 8.38181 21.3189 8.65949ZM28.4062 8.62488C28.5696 9.08808 28.815 9.49796 29.0625 9.9198C29.1259 10.0307 29.1259 10.0307 29.1907 10.1437C29.2315 10.2135 29.2724 10.2833 29.3144 10.3552C29.3515 10.419 29.3886 10.4828 29.4269 10.5485C29.4613 10.5943 29.4958 10.6402 29.5312 10.6874C29.5931 10.6874 29.655 10.6874 29.7187 10.6874C29.8128 10.4258 29.9065 10.1641 30 9.90222C30.0402 9.79056 30.0402 9.79056 30.0813 9.67664C30.1194 9.56969 30.1194 9.56969 30.1582 9.46057C30.1818 9.39479 30.2053 9.329 30.2296 9.26122C30.2904 9.09299 30.2904 9.09299 30.2812 8.90613C30.0215 8.85896 29.7618 8.81213 29.5019 8.7655C29.4283 8.75209 29.3546 8.73868 29.2787 8.72486C29.2077 8.71217 29.1367 8.69948 29.0636 8.6864C28.9656 8.66873 28.9656 8.66873 28.8657 8.6507C28.6711 8.61816 28.6711 8.61816 28.4062 8.62488ZM18.3516 8.94715C18.2468 8.9679 18.2468 8.9679 18.1399 8.98908C17.9681 9.02321 17.7965 9.05832 17.625 9.09363C17.6907 9.52182 17.8418 9.89706 18.0059 10.2948C18.0323 10.3598 18.0587 10.4247 18.0859 10.4916C18.1506 10.6508 18.2159 10.8097 18.2812 10.9686C18.4762 10.718 18.6421 10.466 18.795 10.1879C18.8571 10.0755 18.8571 10.0755 18.9205 9.96082C18.984 9.8448 18.984 9.8448 19.0488 9.72644C19.114 9.60825 19.114 9.60825 19.1805 9.48767C19.2872 9.29396 19.3937 9.10011 19.5 8.90613C19.0965 8.78327 18.7559 8.86321 18.3516 8.94715ZM31.7812 9.37488C31.7605 9.43578 31.7397 9.49668 31.7183 9.55943C31.6225 9.83985 31.5261 10.1201 31.4297 10.4003C31.397 10.496 31.3644 10.5918 31.3308 10.6905C31.1777 11.1343 31.0208 11.5614 30.813 11.9827C30.5482 12.5751 30.7356 13.0102 30.9576 13.5914C31.042 13.7995 31.1271 14.0073 31.2129 14.2147C31.2556 14.3196 31.2983 14.4245 31.3423 14.5326C31.4218 14.7275 31.5015 14.9223 31.5816 15.1169C31.6808 15.3586 31.7784 15.6009 31.875 15.8436C33.4132 15.5919 35.3737 14.7576 36.334 13.4948C36.609 13.0628 36.7314 12.7146 36.6332 12.205C36.2889 11.2061 35.2821 10.6411 34.3843 10.1994C33.1338 9.5855 33.1338 9.5855 31.7812 9.37488ZM12.0029 11.6036C11.6323 12.0099 11.3778 12.3467 11.291 12.8964C11.4051 13.5933 11.8343 14.1012 12.375 14.5311C13.3977 15.2068 14.9758 16.1249 16.2187 16.1249C16.2423 16.0583 16.2659 15.9917 16.2902 15.9231C16.3989 15.6172 16.508 15.3115 16.6172 15.0057C16.6543 14.901 16.6914 14.7963 16.7296 14.6884C16.7665 14.5854 16.8033 14.4824 16.8413 14.3762C16.8776 14.2742 16.9139 14.1723 16.9513 14.0672C17.0509 13.8109 17.1669 13.578 17.2954 13.3355C17.4388 13.0206 17.4493 12.8488 17.3437 12.5188C17.2839 12.3759 17.2213 12.2342 17.1562 12.0936C17.0955 11.9451 17.035 11.7966 16.9746 11.648C16.9105 11.4975 16.846 11.3473 16.7812 11.1971C16.5491 10.6564 16.3275 10.115 16.125 9.56238C14.8018 9.56238 12.9202 10.7139 12.0029 11.6036ZM29.625 14.5311C29.4525 14.8394 29.2808 15.1481 29.1094 15.4569C29.0356 15.5887 29.0356 15.5887 28.9603 15.7231C28.8905 15.8491 28.8905 15.8491 28.8193 15.9777C28.7761 16.0552 28.7329 16.1328 28.6884 16.2127C28.58 16.3983 28.58 16.3983 28.5937 16.5936C29.2079 16.5507 29.7821 16.4802 30.375 16.3124C30.2042 15.6925 29.9951 15.1119 29.7187 14.5311C29.6878 14.5311 29.6569 14.5311 29.625 14.5311ZM18.2812 14.7186C18.1871 14.9802 18.0934 15.242 18 15.5038C17.9732 15.5782 17.9463 15.6527 17.9187 15.7294C17.8933 15.8007 17.8679 15.872 17.8418 15.9454C17.8182 16.0112 17.7947 16.077 17.7704 16.1448C17.7095 16.313 17.7095 16.313 17.7187 16.4999C17.9609 16.5472 18.203 16.594 18.4453 16.6405C18.5137 16.6539 18.5821 16.6673 18.6526 16.6812C18.9744 16.7426 19.2648 16.7811 19.5937 16.7811C19.4412 16.3501 19.2165 15.9793 18.9785 15.5917C18.5698 14.9207 18.5698 14.9207 18.4687 14.7186C18.4069 14.7186 18.345 14.7186 18.2812 14.7186ZM29.9934 17.8878C29.9016 17.9039 29.8097 17.92 29.7151 17.9365C29.6196 17.9536 29.5241 17.9706 29.4258 17.9882C29.2858 18.0126 29.2858 18.0126 29.1431 18.0376C28.9566 18.0705 28.7703 18.1042 28.5841 18.1389C28.4068 18.1705 28.2289 18.1986 28.0504 18.2225C27.6345 18.2848 27.4281 18.3261 27.1113 18.6169C27.0436 18.7169 26.976 18.8168 26.9062 18.9198C26.8292 19.0295 26.752 19.1391 26.6748 19.2487C26.6362 19.3052 26.5977 19.3618 26.558 19.4201C26.3563 19.7105 26.1386 19.9883 25.9219 20.2675C25.8823 20.3192 25.8428 20.371 25.8021 20.4243C25.6468 20.6274 25.4935 20.8188 25.3125 20.9999C25.3157 21.2993 25.4244 21.3933 25.6359 21.6074C25.7361 21.6932 25.8373 21.7777 25.9394 21.8612C25.9937 21.9061 26.048 21.951 26.1039 21.9973C27.1567 22.8516 28.4901 23.856 29.9062 23.8124C30.3286 23.749 30.5106 23.6744 30.8203 23.3788C31.6074 22.3121 31.4659 20.8716 31.2832 19.6346C31.2666 19.5107 31.2666 19.5107 31.2497 19.3843C31.1708 18.8359 31.0372 18.3314 30.8437 17.8124C30.5394 17.8124 30.29 17.8356 29.9934 17.8878ZM17.25 17.9999C17.2047 18.1892 17.1599 18.3787 17.1152 18.5682C17.0902 18.6737 17.0652 18.7792 17.0394 18.8879C16.8892 19.5907 16.8551 20.2661 16.8516 20.9823C16.8496 21.0788 16.8477 21.1753 16.8457 21.2747C16.8413 22.1366 16.9658 22.943 17.5312 23.6249C17.8888 23.9051 18.204 23.9851 18.6562 23.9999C20.3114 23.7436 21.8686 22.4563 22.9687 21.2811C22.7863 20.8637 22.4941 20.5866 22.1807 20.262C21.9912 20.0514 21.8692 19.8455 21.7471 19.5903C21.4809 19.081 21.2107 18.6085 20.6398 18.408C19.5617 18.1181 18.3652 17.9999 17.25 17.9999ZM24.6145 18.48C24.5136 18.4845 24.4127 18.489 24.3087 18.4937C24.1501 18.5016 24.1501 18.5016 23.9883 18.5096C23.8818 18.5145 23.7753 18.5194 23.6656 18.5245C23.4021 18.5367 23.1385 18.5493 22.875 18.5624C23.2994 19.1368 23.2994 19.1368 23.7539 19.6874C23.8351 19.7802 23.9163 19.873 24 19.9686C24.4126 19.824 24.6184 19.4985 24.8672 19.16C24.9102 19.1028 24.9532 19.0455 24.9976 18.9865C25.1032 18.8456 25.2079 18.7041 25.3125 18.5624C25.0642 18.4382 24.8916 18.4669 24.6145 18.48Z" fill="#FF7705"></path>
    <path d="M21.6328 39.619C21.8226 39.6188 22.0124 39.6185 22.2022 39.6182C22.5987 39.6178 22.9952 39.6184 23.3917 39.6197C23.8979 39.6213 24.4041 39.6204 24.9104 39.6187C25.3019 39.6177 25.6934 39.618 26.085 39.6187C26.2715 39.6189 26.4581 39.6187 26.6447 39.618C27.9376 39.6145 29.0593 39.6245 30.0937 40.5001C30.9139 41.3495 31.0887 42.311 31.081 43.4554C31.0814 43.5739 31.0818 43.6924 31.0821 43.8144C31.0824 44.0633 31.0819 44.312 31.0801 44.5609C31.078 44.8793 31.0792 45.1976 31.0815 45.516C31.0831 45.8213 31.082 46.1267 31.081 46.432C31.0818 46.5461 31.0826 46.6601 31.0833 46.7776C31.0816 46.9363 31.0816 46.9363 31.0798 47.0983C31.0795 47.1912 31.0792 47.2841 31.0788 47.3799C31.0166 47.7007 30.9096 47.7972 30.6562 48.0001C30.4032 48.0473 30.4032 48.0473 30.1083 48.0477C29.9963 48.0488 29.8843 48.0498 29.7689 48.0509C29.5851 48.0498 29.5851 48.0498 29.3976 48.0486C29.267 48.0491 29.1364 48.0498 29.0058 48.0506C28.6513 48.0523 28.2968 48.0517 27.9424 48.0505C27.5714 48.0495 27.2005 48.0504 26.8296 48.051C26.2067 48.0517 25.5837 48.0508 24.9608 48.049C24.2406 48.047 23.5204 48.0476 22.8002 48.0497C22.1819 48.0514 21.5636 48.0516 20.9453 48.0506C20.5759 48.0501 20.2067 48.05 19.8373 48.0512C19.4901 48.0523 19.143 48.0516 18.7958 48.0494C18.6075 48.0487 18.4193 48.0498 18.2311 48.0509C18.0631 48.0493 18.0631 48.0493 17.8917 48.0477C17.7944 48.0476 17.697 48.0474 17.5967 48.0473C17.2776 47.9878 17.1664 47.8779 16.9687 47.6251C16.9211 47.3799 16.9211 47.3799 16.9202 47.0983C16.919 46.9925 16.9178 46.8867 16.9166 46.7776C16.9178 46.6065 16.9178 46.6065 16.9189 46.432C16.9186 46.3141 16.9182 46.1961 16.9178 46.0746C16.9176 45.8247 16.9181 45.575 16.9198 45.3252C16.922 45.0074 16.9208 44.6898 16.9185 44.3721C16.9168 44.0665 16.918 43.761 16.9189 43.4554C16.9182 43.3425 16.9174 43.2296 16.9166 43.1132C16.9278 42.1004 17.191 41.2408 17.9062 40.5001C19.0158 39.5609 20.255 39.6141 21.6328 39.619ZM18.709 42.0118C17.9935 43.3282 18.4687 45.0019 18.4687 46.5001C22.1194 46.5001 25.77 46.5001 29.5312 46.5001C29.8395 43.839 29.8395 43.839 28.875 41.5314C28.3984 41.2325 28.0133 41.2088 27.4688 41.2107C27.3858 41.2099 27.3028 41.2092 27.2173 41.2083C26.9439 41.2061 26.6706 41.206 26.3972 41.2062C26.2064 41.2055 26.0156 41.2048 25.8249 41.204C25.4253 41.2027 25.0258 41.2026 24.6262 41.2031C24.1153 41.2037 23.6045 41.2008 23.0936 41.197C22.6997 41.1946 22.3058 41.1943 21.9118 41.1947C21.7235 41.1945 21.5352 41.1936 21.3469 41.192C21.083 41.1899 20.8193 41.1908 20.5554 41.1924C20.4784 41.1912 20.4013 41.1899 20.3219 41.1887C19.6225 41.1988 19.1388 41.4607 18.709 42.0118Z" fill="#FF7705"></path>
    <path d="M38.6015 39.619C38.7913 39.6188 38.9811 39.6185 39.1709 39.6182C39.5674 39.6178 39.9639 39.6184 40.3605 39.6197C40.8667 39.6213 41.3729 39.6204 41.8791 39.6187C42.2707 39.6177 42.6622 39.618 43.0537 39.6187C43.2403 39.6189 43.4269 39.6187 43.6134 39.618C44.9029 39.6145 46.0333 39.6217 47.0625 40.5001C47.8993 41.3776 48.0434 42.1848 48.0406 43.3639C48.0411 43.4847 48.0416 43.6055 48.0421 43.73C48.043 43.9844 48.0427 44.2387 48.0418 44.493C48.0407 44.8186 48.0426 45.1441 48.0454 45.4696C48.0475 45.7814 48.0468 46.0931 48.0465 46.4049C48.0475 46.5216 48.0486 46.6383 48.0497 46.7585C48.0488 46.8668 48.0479 46.9751 48.047 47.0867C48.047 47.1819 48.047 47.277 48.047 47.3751C47.9859 47.6999 47.8814 47.7952 47.625 48.0001C47.372 48.0473 47.372 48.0473 47.077 48.0477C46.965 48.0488 46.853 48.0498 46.7377 48.0509C46.5538 48.0498 46.5538 48.0498 46.3663 48.0486C46.2357 48.0491 46.1051 48.0498 45.9745 48.0506C45.62 48.0523 45.2656 48.0517 44.9111 48.0505C44.5402 48.0495 44.1693 48.0504 43.7983 48.051C43.1754 48.0517 42.5525 48.0508 41.9296 48.049C41.2094 48.047 40.4892 48.0476 39.769 48.0497C39.1507 48.0514 38.5323 48.0516 37.914 48.0506C37.5447 48.0501 37.1754 48.05 36.8061 48.0512C36.4589 48.0523 36.1117 48.0515 35.7645 48.0494C35.5763 48.0486 35.388 48.0498 35.1998 48.0509C35.0318 48.0493 35.0318 48.0493 34.8604 48.0477C34.7631 48.0476 34.6658 48.0474 34.5655 48.0473C34.2464 47.9878 34.1352 47.8777 33.9375 47.6251C33.8899 47.3841 33.8899 47.3841 33.889 47.1084C33.8878 47.0047 33.8866 46.9011 33.8854 46.7943C33.8861 46.6826 33.8869 46.5709 33.8877 46.4558C33.8873 46.3402 33.887 46.2245 33.8866 46.1054C33.8863 45.7977 33.8878 45.49 33.8899 45.1823C33.8911 44.8726 33.8882 44.5629 33.8862 44.2532C33.8865 44.0148 33.8869 43.7763 33.8877 43.5378C33.8869 43.4274 33.8862 43.317 33.8854 43.2033C33.8964 42.2217 34.0939 41.388 34.7897 40.6671C35.9441 39.5905 37.0935 39.6137 38.6015 39.619ZM35.8125 41.8126C34.9559 43.151 35.4375 45.1418 35.4375 46.5001C39.0881 46.5001 42.7387 46.5001 46.5 46.5001C46.7935 43.0098 46.7935 43.0098 46.125 41.8126C45.5816 41.2914 45.198 41.2356 44.4709 41.2305C44.3881 41.2296 44.3053 41.2287 44.22 41.2278C43.9456 41.2249 43.6711 41.2229 43.3967 41.2212C43.3029 41.2206 43.209 41.2199 43.1123 41.2193C42.6153 41.2163 42.1184 41.214 41.6214 41.2121C41.2107 41.2105 40.8001 41.2072 40.3894 41.2025C39.8931 41.1969 39.3968 41.194 38.9004 41.1931C38.7116 41.1923 38.5229 41.1905 38.3342 41.1878C36.9488 41.1207 36.9488 41.1207 35.8125 41.8126Z" fill="#FF7705"></path>
    <path d="M4.65745 39.6157C4.84679 39.6152 5.03613 39.6147 5.22547 39.6142C5.6212 39.6133 6.01692 39.6136 6.41265 39.6145C6.9172 39.6156 7.42169 39.6137 7.92623 39.6109C8.31696 39.6092 8.70769 39.6092 9.09843 39.6098C9.28433 39.6098 9.47023 39.6092 9.65613 39.6081C11.03 39.6006 12.1732 39.6413 13.2066 40.6531C13.9955 41.5303 14.0918 42.3527 14.094 43.5012C14.0949 43.6763 14.0949 43.6763 14.0959 43.8551C14.0968 44.1011 14.0973 44.3472 14.0972 44.5933C14.0972 44.8455 14.0985 45.0976 14.1011 45.3497C14.1045 45.714 14.1054 46.0782 14.1057 46.4426C14.107 46.5555 14.1084 46.6683 14.1098 46.7847C14.1092 46.8895 14.1086 46.9943 14.108 47.1024C14.1083 47.1945 14.1086 47.2866 14.1088 47.3815C14.0479 47.7017 13.9401 47.7977 13.6875 48.0001C13.4345 48.0472 13.4345 48.0472 13.1395 48.0477C13.0275 48.0487 12.9155 48.0498 12.8002 48.0509C12.6163 48.0497 12.6163 48.0497 12.4288 48.0486C12.2982 48.0491 12.1676 48.0498 12.037 48.0506C11.6825 48.0523 11.3281 48.0516 10.9736 48.0504C10.6027 48.0495 10.2318 48.0504 9.86083 48.0509C9.2379 48.0516 8.615 48.0507 7.99208 48.0489C7.27186 48.0469 6.55169 48.0476 5.83148 48.0496C5.21315 48.0513 4.59484 48.0516 3.97651 48.0506C3.6072 48.05 3.2379 48.0499 2.86859 48.0512C2.52138 48.0522 2.17421 48.0515 1.82701 48.0493C1.63877 48.0486 1.45053 48.0497 1.2623 48.0509C1.09432 48.0493 1.09432 48.0493 0.922947 48.0477C0.825609 48.0475 0.72827 48.0474 0.627983 48.0472C0.308731 47.9877 0.197515 47.8781 -1.90735e-05 47.6251C-0.0476379 47.3757 -0.0476379 47.3757 -0.048542 47.0881C-0.0497241 46.9801 -0.0509061 46.8721 -0.052124 46.7609C-0.0513649 46.6445 -0.0506059 46.5281 -0.0498238 46.4081C-0.0501825 46.2879 -0.0505413 46.1677 -0.0509109 46.0438C-0.0514635 45.7891 -0.050662 45.5345 -0.0489082 45.2799C-0.0467823 44.9556 -0.0479951 44.6315 -0.0502479 44.3072C-0.0519413 43.9958 -0.0507495 43.6844 -0.0498238 43.373C-0.0505828 43.2575 -0.0513419 43.1421 -0.052124 43.0231C-0.0448316 42.3478 0.0366517 41.8386 0.374981 41.2501C0.417883 41.1752 0.460784 41.1004 0.504986 41.0234C1.55439 39.5958 3.03808 39.6124 4.65745 39.6157ZM1.84568 41.8536C0.935305 43.236 1.49998 44.7575 1.49998 46.5001C5.15061 46.5001 8.80123 46.5001 12.5625 46.5001C12.8415 44.084 12.8415 44.084 12.0586 41.7364C11.528 41.2943 11.1839 41.2085 10.5092 41.2122C10.426 41.2115 10.3429 41.2109 10.2572 41.2102C9.98292 41.2085 9.70864 41.2089 9.43431 41.2094C9.24317 41.209 9.05204 41.2085 8.86091 41.2079C8.46041 41.2071 8.05992 41.2073 7.65942 41.2082C7.14693 41.2093 6.6345 41.2074 6.12202 41.2047C5.72728 41.203 5.33256 41.203 4.93781 41.2035C4.74891 41.2035 4.56 41.203 4.3711 41.2018C4.10654 41.2004 3.8421 41.2014 3.57754 41.203C3.49999 41.2021 3.42243 41.2012 3.34253 41.2003C2.7069 41.2083 2.29312 41.3819 1.84568 41.8536Z" fill="#FF7705"></path>
    <path d="M9.46875 31.2187C10.279 31.7859 10.8678 32.6859 11.0625 33.6562C11.2088 34.9605 11.0445 36.0825 10.248 37.1601C9.47091 38.0532 8.54001 38.5323 7.36084 38.6605C6.05165 38.7056 4.9897 38.3058 4.03162 37.4209C3.29801 36.651 2.92238 35.6186 2.87695 34.5644C2.91334 33.2612 3.48078 32.2015 4.40625 31.3125C5.8746 30.0847 7.9381 30.2347 9.46875 31.2187ZM5.0625 32.9062C4.59702 33.6215 4.42157 34.2076 4.5 35.0625C4.68236 35.8216 5.06704 36.3397 5.7074 36.7763C6.33777 37.1329 7.0002 37.2055 7.69922 37.0254C8.49183 36.7491 9.00298 36.2783 9.375 35.5312C9.66478 34.8689 9.62522 34.2484 9.37793 33.5844C9.04682 32.867 8.59189 32.4744 7.875 32.1562C6.83715 31.8103 5.8095 32.1422 5.0625 32.9062Z" fill="#FF7705"></path>
    <path d="M26.4258 31.1896C27.3312 31.9013 27.9066 32.818 28.1009 33.957C28.209 35.1291 27.95 36.1546 27.2578 37.1075C26.5703 37.9272 25.7187 38.4549 24.6563 38.6251C23.3872 38.7229 22.3337 38.5014 21.3227 37.7067C20.6213 37.0737 20.0366 36.2135 19.9522 35.2479C19.9098 33.77 20.0856 32.7455 21.0938 31.5939C22.5657 30.219 24.7584 30.0499 26.4258 31.1896ZM21.9027 33.1832C21.4764 33.8354 21.3723 34.4082 21.5054 35.1816C21.6899 35.8571 22.1174 36.4052 22.7025 36.7893C23.3745 37.1372 24.0473 37.2318 24.7852 37.0372C25.418 36.8025 25.9454 36.3416 26.2987 35.7694C26.6201 35.0495 26.6439 34.3713 26.3731 33.6329C26.0251 32.8676 25.6281 32.5236 24.8676 32.1699C23.7154 31.7647 22.595 32.1971 21.9027 33.1832Z" fill="#FF7705"></path>
    <path d="M43.8508 31.5652C44.656 32.387 45.0754 33.4181 45.1172 34.5586C45.0993 35.7521 44.6586 36.7121 43.8516 37.5761C42.9078 38.4754 41.8009 38.6822 40.5429 38.6543C39.4761 38.6004 38.5773 38.0546 37.8516 37.2949C37.0034 36.296 36.8687 35.216 36.9207 33.9547C37.0004 32.9838 37.5823 32.1287 38.2734 31.4765C39.934 30.0826 42.2119 30.1686 43.8508 31.5652ZM39.044 32.9124C38.58 33.5232 38.3448 34.1982 38.4375 34.9687C38.6324 35.7085 39.0118 36.3616 39.6647 36.7826C40.2924 37.1087 40.9098 37.2423 41.6052 37.0543C42.5422 36.7323 42.9476 36.307 43.4063 35.4375C43.6058 34.8389 43.5874 34.1565 43.3418 33.5742C42.9316 32.7852 42.3679 32.3414 41.5313 32.0625C40.5503 31.9629 39.7206 32.1704 39.044 32.9124Z" fill="#FF7705"></path>
  </g>
  <defs>
    <clipPath id="clip0_4333_115">
      <rect width="48" height="48" fill="white"></rect>
    </clipPath>
  </defs>
</svg>
