<?xml version="1.0" encoding="UTF-8"?>
<svg xmlns="http://www.w3.org/2000/svg" width="54" height="48" viewBox="0 0 54 48" fill="none">
  <path d="M42.3318 9.33826C43.0286 9.81364 43.2775 10.5126 43.5452 11.298C43.5838 11.4082 43.6225 11.5183 43.6613 11.6285C43.742 11.8578 43.822 12.0874 43.9014 12.3172C44.0517 12.7513 44.2062 13.1838 44.3605 13.6164C44.4745 13.9363 44.5879 14.2563 44.7011 14.5765C44.72 14.6301 44.739 14.6837 44.7585 14.739C44.7973 14.8486 44.836 14.9583 44.8748 15.0679C45.0384 15.5307 45.2023 15.9935 45.3661 16.4563C45.4273 16.6293 45.4886 16.8024 45.5498 16.9754C45.8532 17.8328 46.1577 18.6897 46.4628 19.5465C46.5711 19.8507 46.6791 20.1551 46.7868 20.4596C46.9967 21.0532 47.2073 21.646 47.4295 22.2348C48.1284 24.1052 48.1284 24.1052 47.7353 25.0909C47.3425 25.7349 46.7846 26.0816 46.1114 26.3295C46.0406 26.3569 45.9699 26.3843 45.8969 26.4126C45.6734 26.4987 45.4492 26.5827 45.2249 26.6667C45.0732 26.7249 44.9217 26.7832 44.7701 26.8416C44.4933 26.9478 44.2165 27.0537 43.939 27.1578C43.8837 27.1785 43.8283 27.1993 43.7713 27.2207C43.1239 27.4446 42.4484 27.469 41.8282 27.1461C41.495 26.9047 41.2505 26.5798 41 26.2501C40.9731 26.2218 40.9461 26.1936 40.9184 26.1646C40.9222 26.2257 40.926 26.2869 40.9299 26.3499C40.9611 27.2525 40.8063 28.1327 40.242 28.8438C39.7486 29.3415 39.2676 29.5125 38.5917 29.5085C38.5088 29.509 38.5088 29.509 38.4242 29.5095C38.172 29.509 37.9755 29.4965 37.7344 29.4123C37.7395 29.5075 37.7446 29.6027 37.7498 29.7008C37.7471 30.4936 37.4496 31.2219 36.9356 31.7977C36.3017 32.4191 35.6033 32.682 34.7431 32.6744C34.4477 32.6524 34.1814 32.5756 33.8974 32.4891C33.912 32.5512 33.9266 32.6132 33.9417 32.6771C34.0498 33.3704 33.7505 34.0533 33.3849 34.6151C32.9031 35.2634 32.185 35.6007 31.4176 35.7048C31.3199 35.7154 31.2223 35.726 31.1216 35.7369C31.1259 35.8161 31.1259 35.8161 31.1303 35.8968C31.1559 36.7353 30.9668 37.403 30.4127 38.0288C29.9327 38.5132 29.4506 38.6867 28.7949 38.7603C28.2646 38.7008 27.776 38.5114 27.2846 38.3009C27.2568 38.3495 27.229 38.3981 27.2004 38.4481C26.8179 39.0861 26.3467 39.6629 25.6518 39.9248C24.8232 40.1046 24.1071 39.9638 23.3978 39.4828C22.8276 39.0263 22.4646 38.4921 22.2229 37.7881C22.1626 37.8014 22.1023 37.8148 22.0402 37.8285C21.1718 38.0029 20.3872 38.0235 19.6105 37.5317C19.1099 37.1608 18.7805 36.7116 18.4675 36.1642C18.4004 36.2012 18.4004 36.2012 18.332 36.239C17.6467 36.575 16.9239 36.6356 16.1867 36.4437C15.9837 36.3643 15.7995 36.2742 15.6101 36.1642C15.5575 36.1343 15.5049 36.1043 15.4507 36.0734C14.8347 35.6696 14.5044 35.0069 14.3358 34.2836C14.2785 33.8238 14.3279 33.3742 14.3856 32.9165C14.3263 32.9318 14.2671 32.9471 14.206 32.9629C13.5111 33.0816 12.8493 32.7302 12.2884 32.3342C11.7018 31.7533 11.4466 31.1213 11.4134 30.277C11.4044 29.6528 11.4731 29.1855 11.7731 28.6431C11.8353 28.5203 11.897 28.3972 11.9584 28.2739C12.1392 27.9113 12.3229 27.5505 12.5078 27.1902C12.4544 27.221 12.4009 27.2519 12.3458 27.2837C12.2713 27.3233 12.1968 27.363 12.1201 27.4039C12.0481 27.4435 11.9761 27.4832 11.9019 27.524C10.9242 27.8369 10.0216 27.4606 9.09226 27.1345C8.85448 27.0513 8.6159 26.9712 8.37708 26.8914C8.22363 26.8387 8.07023 26.7859 7.9169 26.7328C7.84655 26.7093 7.77621 26.6858 7.70373 26.6615C7.09496 26.4444 6.5948 26.1306 6.2216 25.5717C5.66477 24.3647 6.28698 22.9807 6.67062 21.8218C6.73429 21.6247 6.79775 21.4275 6.86101 21.2302C6.99147 20.8235 7.12264 20.417 7.25421 20.0107C7.51859 19.1909 7.76982 18.3669 8.02005 17.5423C8.09934 17.2813 8.17904 17.0204 8.25888 16.7596C8.51879 15.9101 8.77664 15.0599 9.03078 14.2085C9.15539 13.7915 9.28089 13.3749 9.4065 12.9582C9.46643 12.7586 9.52594 12.5588 9.58501 12.3588C9.66721 12.0806 9.75084 11.803 9.83479 11.5253C9.85847 11.4438 9.88215 11.3623 9.90654 11.2783C10.1404 10.5146 10.453 9.89259 11.1337 9.48782C12.0748 9.01728 13.1131 9.45353 14.0289 9.7788C14.2482 9.85656 14.4683 9.93152 14.6887 10.0061C14.8306 10.0552 14.9724 10.1045 15.1142 10.1539C15.2113 10.187 15.2113 10.187 15.3104 10.2208C15.9663 10.4562 16.5165 10.7688 16.9164 11.3788C17.1613 11.9319 17.1613 11.9319 17.1613 12.2335C18.2452 12.1099 19.3211 11.9716 20.3914 11.7513C22.3059 11.3613 24.133 11.5506 25.8489 12.572C26.1048 12.6797 26.2088 12.6663 26.4682 12.5753C26.6199 12.4994 26.7695 12.4189 26.9172 12.3349C28.4017 11.5358 30.2465 11.3476 31.8583 11.8335C32.7636 12.1396 33.6474 12.5226 34.5295 12.8945C34.9902 13.0819 35.3491 13.1949 35.8465 13.1843C35.9406 13.1827 36.0347 13.1812 36.1316 13.1796C36.2026 13.1776 36.2735 13.1756 36.3466 13.1736C36.3336 13.1253 36.3207 13.0771 36.3074 13.0274C36.1785 12.433 36.2577 11.9027 36.4563 11.3377C36.9678 10.5231 37.7725 10.2698 38.607 9.95255C38.7288 9.90477 38.8506 9.85687 38.9723 9.80883C41.4763 8.82769 41.4763 8.82769 42.3318 9.33826ZM40.4512 10.5976C40.3504 10.6367 40.3504 10.6367 40.2476 10.6766C40.106 10.7318 39.9645 10.7875 39.8233 10.8439C39.6079 10.9297 39.3919 11.0139 39.1757 11.0977C39.0379 11.1517 38.9001 11.2057 38.7623 11.2599C38.6981 11.285 38.6338 11.3102 38.5677 11.336C37.9849 11.548 37.9849 11.548 37.5457 11.9733C37.3226 12.6673 37.7547 13.4898 37.9932 14.1329C38.1029 14.4288 38.2105 14.7255 38.3184 15.0221C38.3785 15.1874 38.4387 15.3527 38.499 15.518C38.8521 16.4868 39.1953 17.4594 39.5388 18.4319C39.6792 18.8295 39.8201 19.227 39.9612 19.6244C40.0416 19.8509 40.122 20.0775 40.2024 20.3041C40.2223 20.3599 40.2421 20.4157 40.2625 20.4733C40.5108 21.1731 40.7573 21.8736 41.0016 22.5749C41.1356 22.9591 41.2706 23.3428 41.4057 23.7265C41.4681 23.9046 41.5301 24.0828 41.5915 24.2613C41.6758 24.5055 41.7615 24.7492 41.8477 24.9928C41.8717 25.0639 41.8958 25.135 41.9206 25.2083C42.0621 25.6026 42.1811 25.8711 42.5512 26.0791C43.0255 26.1446 43.4054 26.0031 43.8427 25.8324C43.9098 25.8069 43.9769 25.7813 44.046 25.755C44.1871 25.7009 44.328 25.6464 44.4688 25.5914C44.6834 25.5078 44.8987 25.4266 45.1142 25.3455C45.2517 25.2925 45.3892 25.2393 45.5266 25.1861C45.5905 25.1621 45.6545 25.1381 45.7204 25.1134C46.1049 24.9607 46.3765 24.8067 46.6332 24.4552C46.7827 24.0085 46.6516 23.665 46.4938 23.2427C46.4687 23.1725 46.4435 23.1023 46.4176 23.0299C46.3324 22.7924 46.2455 22.5555 46.1586 22.3186C46.097 22.1477 46.0354 21.9768 45.974 21.8058C45.8365 21.423 45.6983 21.0405 45.56 20.658C45.3044 19.9501 45.053 19.2407 44.802 18.531C44.7795 18.4673 44.757 18.4037 44.7338 18.3381C44.6881 18.2088 44.6423 18.0794 44.5966 17.9501C44.5738 17.8857 44.551 17.8214 44.5276 17.7551C44.4934 17.6583 44.4934 17.6583 44.4584 17.5595C44.1853 16.7873 43.9106 16.0156 43.6361 15.244C43.3939 14.5634 43.1526 13.8825 42.9139 13.2006C42.8084 12.8996 42.7021 12.5989 42.5956 12.2983C42.5497 12.1681 42.5042 12.0378 42.4591 11.9073C42.3993 11.7342 42.3381 11.5616 42.2766 11.3891C42.2444 11.297 42.2121 11.2048 42.1789 11.1098C41.9997 10.738 41.807 10.4963 41.4272 10.3539C41.0665 10.3529 40.7852 10.463 40.4512 10.5976ZM11.3649 10.9514C11.2412 11.2096 11.2412 11.2096 11.1566 11.5107C11.1391 11.567 11.1215 11.6233 11.1034 11.6813C11.0447 11.8703 10.988 12.0598 10.9312 12.2495C10.8891 12.3862 10.847 12.5228 10.8047 12.6594C10.7128 12.9568 10.6216 13.2544 10.5309 13.5522C10.382 14.0402 10.2297 14.5269 10.0768 15.0135C9.44943 17.0119 8.83257 19.0138 8.22105 21.0176C8.19561 21.1009 8.17017 21.1843 8.14395 21.2702C8.09407 21.4339 8.04434 21.5978 7.99477 21.7617C7.86807 22.1801 7.73872 22.5974 7.60505 23.0135C7.57804 23.0988 7.55103 23.1842 7.52321 23.2721C7.47182 23.4342 7.41959 23.5961 7.36638 23.7576C7.186 24.3157 7.186 24.3157 7.28292 24.8826C7.62955 25.2662 7.98657 25.4205 8.46127 25.576C8.52627 25.5982 8.59126 25.6203 8.65823 25.6431C8.79494 25.6894 8.93183 25.7352 9.06888 25.7803C9.27755 25.8493 9.48545 25.9204 9.69335 25.9918C9.82688 26.0367 9.96045 26.0815 10.0941 26.1262C10.1556 26.1473 10.2172 26.1684 10.2807 26.1901C10.6978 26.3259 11.108 26.435 11.5342 26.27C11.7272 26.1406 11.7722 26.0425 11.8582 25.8219C11.8852 25.7528 11.9122 25.6836 11.94 25.6124C12.0657 25.2626 12.1805 24.9102 12.2897 24.5544C12.3147 24.4742 12.3396 24.394 12.3653 24.3114C12.4473 24.0479 12.5286 23.7842 12.6099 23.5204C12.6679 23.3333 12.726 23.1461 12.784 22.9589C13.239 21.4905 13.6904 20.021 14.1373 18.5499C14.3921 17.7116 14.6485 16.874 14.911 16.0383C15.035 15.6434 15.158 15.2483 15.2811 14.8532C15.3401 14.6645 15.3995 14.476 15.4594 14.2876C15.5423 14.0267 15.6237 13.7653 15.7049 13.5038C15.7297 13.427 15.7545 13.3502 15.7801 13.271C15.912 12.84 15.9873 12.5094 15.8551 12.0625C15.5596 11.6474 15.2234 11.5175 14.7692 11.3691C14.6718 11.3359 14.6718 11.3359 14.5725 11.302C14.4356 11.2556 14.2986 11.2099 14.1614 11.1648C13.9528 11.096 13.7451 11.0248 13.5374 10.9533C13.4038 10.9083 13.2701 10.8635 13.1364 10.8189C13.0443 10.7873 13.0443 10.7873 12.9503 10.755C12.3715 10.5675 11.8151 10.4257 11.3649 10.9514ZM20.2789 13.0828C19.1548 13.3002 18.0616 13.433 16.9164 13.43C16.4143 15.0497 15.9128 16.6697 15.4123 18.2899C15.1843 19.0276 14.9559 19.7651 14.7266 20.5024C14.606 20.8903 14.486 21.2785 14.3662 21.6667C14.3117 21.8427 14.257 22.0187 14.2021 22.1945C13.6607 23.8446 13.6607 23.8446 13.4875 25.5663C13.5879 25.503 13.5879 25.503 13.6903 25.4384C13.7783 25.3837 13.8663 25.3289 13.9569 25.2725C14.0877 25.1907 14.0877 25.1907 14.221 25.1073C14.8219 24.7675 15.6133 24.7783 16.2687 24.947C16.6369 25.0935 16.9014 25.2489 17.1613 25.5663C17.2152 25.5663 17.2691 25.5663 17.3246 25.5663C17.3588 25.6415 17.3588 25.6415 17.3938 25.7182C17.4812 25.8947 17.5788 26.0495 17.6868 26.2127C17.9375 26.6233 18.0392 27.0607 18.141 27.5321C18.2199 27.5281 18.2988 27.5241 18.3801 27.52C19.0462 27.5007 19.5871 27.5296 20.182 27.8739C20.2609 27.9174 20.2609 27.9174 20.3414 27.9617C20.9358 28.3419 21.217 28.9987 21.3963 29.6794C21.4282 29.818 21.4594 29.9568 21.4882 30.0961C21.5416 30.0931 21.5951 30.0901 21.6502 30.0871C22.553 30.059 23.4134 30.2114 24.1007 30.8653C24.6557 31.5304 24.8409 32.3118 24.917 33.1729C25.2403 33.1729 25.5636 33.1729 25.8967 33.1729C25.7982 33.0909 25.7982 33.0909 25.6977 33.0073C25.4885 32.831 25.4885 32.831 25.4069 32.7455C25.3696 32.2185 25.3696 32.2185 25.4936 31.9817C25.74 31.8403 25.9461 31.8719 26.2233 31.8909C26.4682 31.9923 26.4682 31.9923 26.7131 32.1353C26.8049 32.1879 26.8967 32.2405 26.9912 32.2948C27.089 32.3524 27.1868 32.4101 27.2846 32.4678C27.3857 32.5262 27.4869 32.5845 27.5882 32.6426C27.7429 32.7315 27.8976 32.8204 28.0521 32.9099C28.5539 33.2003 29.0614 33.4788 29.5705 33.7551C29.6484 33.7976 29.7263 33.84 29.8065 33.8837C29.9998 33.989 30.1931 34.0942 30.3869 34.1985C30.4439 34.2302 30.5009 34.2619 30.5596 34.2946C30.9581 34.4884 31.4767 34.4147 31.8819 34.2786C32.3124 33.9537 32.6581 33.5621 32.7544 33.0019C32.7607 32.4832 32.6724 32.1243 32.3462 31.7199C31.8658 31.2342 31.3336 30.9465 30.739 30.6356C30.6411 30.5834 30.5432 30.531 30.4454 30.4785C30.2485 30.3728 30.0514 30.2673 29.8542 30.162C29.7138 30.0871 29.7138 30.0871 29.5705 30.0106C29.4849 29.9649 29.3992 29.9192 29.311 29.8722C29.082 29.7491 28.8541 29.6238 28.6265 29.4978C28.5586 29.4619 28.4907 29.426 28.4208 29.3891C28.1164 29.2187 27.9676 29.1324 27.8086 28.8027C27.7693 28.5205 27.8116 28.3797 27.9377 28.1303C28.3862 28.0288 28.6167 28.0544 29.0197 28.2809C29.0666 28.3067 29.1135 28.3325 29.1618 28.3591C29.3141 28.4434 29.4652 28.5298 29.6164 28.6164C29.7225 28.6757 29.8286 28.7349 29.9348 28.7939C30.2004 28.9421 30.4651 29.0922 30.7294 29.2429C30.9459 29.3662 31.1629 29.4884 31.38 29.6106C31.9537 29.9353 32.5247 30.2647 33.0928 30.5999C33.1597 30.6392 33.2266 30.6786 33.2956 30.7191C33.42 30.7925 33.5443 30.8662 33.6683 30.9405C34.2221 31.2673 34.7412 31.5118 35.386 31.3253C35.8796 31.1294 36.1751 30.837 36.4282 30.3525C36.5579 29.9195 36.548 29.5342 36.4129 29.1025C36.1658 28.6208 35.8337 28.3492 35.3822 28.0876C35.334 28.0595 35.2858 28.0313 35.2361 28.0024C35.0625 27.9016 34.8882 27.8022 34.7138 27.703C34.6083 27.6428 34.6083 27.6428 34.5007 27.5813C33.7397 27.1472 32.9769 26.7163 32.2126 26.2884C32.1247 26.2391 32.0368 26.1897 31.9463 26.1388C31.7785 26.0445 31.6106 25.9506 31.4425 25.857C31.0143 25.6161 30.5973 25.381 30.2236 25.0535C30.1633 24.7975 30.1858 24.6383 30.2236 24.3698C30.3869 24.1988 30.3869 24.1988 30.6726 24.1604C31.1303 24.1739 31.47 24.4047 31.8564 24.6422C32.0162 24.737 32.1761 24.8317 32.336 24.9263C32.4183 24.9756 32.5006 25.0249 32.5854 25.0757C32.9921 25.3171 33.404 25.5481 33.8158 25.78C34.3757 26.0968 34.9349 26.415 35.4932 26.735C35.7871 26.9034 36.0814 27.0709 36.3758 27.2383C36.521 27.321 36.6661 27.404 36.811 27.4873C37.0214 27.6082 37.2324 27.7278 37.4436 27.8472C37.5059 27.8833 37.5682 27.9194 37.6323 27.9566C37.9934 28.1589 38.2971 28.2792 38.7141 28.3013C39.0981 28.1594 39.3093 27.9732 39.5305 27.6175C39.7512 27.1207 39.7751 26.576 39.6434 26.0481C38.8057 23.8012 35.0265 22.5105 33.1163 21.5261C32.9662 21.4485 32.8162 21.3709 32.6661 21.2933C32.5943 21.2562 32.5226 21.2191 32.4486 21.1808C31.9749 20.9335 31.5186 20.6696 31.0701 20.3748C30.3433 19.9709 29.4824 20.2211 28.7396 20.4472C28.2986 20.5938 27.8653 20.7639 27.4308 20.9301C26.6484 21.2292 25.8746 21.5248 25.0548 21.6936C24.9936 21.7063 24.9324 21.7189 24.8693 21.732C23.6303 21.9579 22.4316 21.7129 21.3794 20.9915C20.8762 20.6101 20.3366 20.1197 20.1214 19.4925C20.068 18.9394 20.4394 18.5334 20.7534 18.1307C21.4381 17.3098 22.1764 16.5423 22.9131 15.7731C23.107 15.5706 23.3005 15.3676 23.4939 15.1645C23.6184 15.0343 23.743 14.904 23.8675 14.7738C23.9247 14.7138 23.9818 14.6537 24.0407 14.5919C24.2839 14.3385 24.526 14.0942 24.7939 13.8695C24.8614 13.8091 24.929 13.7486 24.9987 13.6864C24.9987 13.63 24.9987 13.5736 24.9987 13.5155C23.3719 12.7846 22.0039 12.7473 20.2789 13.0828ZM23.2148 17.1628C23.1298 17.2511 23.0447 17.3392 22.9595 17.4272C22.4031 18.0026 21.8895 18.5967 21.4065 19.2418C21.9472 19.9674 22.5693 20.4449 23.4475 20.6092C24.7949 20.7722 26.1054 20.1445 27.3445 19.6668C28.6503 19.1659 30.1456 18.6439 31.498 19.2521C31.7573 19.3845 32.0108 19.5256 32.2646 19.6691C32.4957 19.7978 32.7271 19.9257 32.9585 20.0537C33.023 20.0895 33.0875 20.1253 33.1539 20.1623C33.6471 20.4349 34.1451 20.6959 34.6452 20.9543C38.6873 23.044 38.6873 23.044 40.2653 24.7116C40.3461 24.6834 40.4269 24.6552 40.5102 24.6262C40.4141 24.3537 40.318 24.0813 40.2219 23.8089C40.191 23.7212 40.16 23.6335 40.1281 23.5432C39.9519 23.044 39.7754 22.5449 39.5983 22.0461C39.5414 21.886 39.4846 21.7258 39.4278 21.5657C39.3886 21.4554 39.3495 21.3452 39.3103 21.2349C39.054 20.5125 38.7996 19.7894 38.5477 19.0653C38.3715 18.5591 38.1941 18.0533 38.016 17.5478C37.9076 17.2396 37.7997 16.9313 37.6932 16.6223C37.5924 16.33 37.4901 16.0382 37.3866 15.7469C37.3304 15.5873 37.2758 15.4271 37.2213 15.2668C37.1873 15.1721 37.1534 15.0773 37.1183 14.9796C37.0894 14.8966 37.0604 14.8135 37.0305 14.7279C36.9327 14.5218 36.9327 14.5218 36.7189 14.4705C36.4484 14.4512 36.1837 14.4644 35.9129 14.477C34.7692 14.4955 33.7526 13.9707 32.7087 13.5365C28.6094 11.8481 26.0273 14.2399 23.2148 17.1628ZM14.3039 26.5065C14.1826 26.6845 14.1826 26.6845 14.0746 26.8864C14.0326 26.9622 13.9905 27.038 13.9472 27.1161C13.9032 27.197 13.8593 27.2778 13.8141 27.3611C13.7467 27.4839 13.7467 27.4839 13.678 27.6091C13.5377 27.8672 13.4001 28.1268 13.263 28.3867C13.1924 28.517 13.1924 28.517 13.1205 28.6498C12.7808 29.2963 12.4877 29.9277 12.666 30.673C12.8561 31.1704 13.193 31.4376 13.6406 31.6719C14.1045 31.7593 14.4828 31.7161 14.9009 31.4849C15.2953 31.1392 15.5378 30.7219 15.7795 30.2523C15.8096 30.194 15.8398 30.1358 15.8708 30.0757C15.9341 29.9529 15.9972 29.8299 16.06 29.7068C16.1555 29.5203 16.2528 29.3348 16.3502 29.1493C16.4118 29.0291 16.4733 28.9089 16.5346 28.7887C16.5636 28.7342 16.5925 28.6797 16.6223 28.6235C16.8462 28.1767 17.0045 27.6697 16.8617 27.1697C16.6645 26.6856 16.3036 26.3139 15.8551 26.0791C15.2356 26.0027 14.7678 26.0521 14.3039 26.5065ZM17.6693 29.231C17.3375 29.6447 17.1207 30.1175 16.8909 30.5982C16.7981 30.7894 16.7053 30.9806 16.6125 31.1718C16.5673 31.265 16.5221 31.3583 16.4756 31.4544C16.3593 31.6907 16.2392 31.9238 16.1156 32.156C16.0646 32.2525 16.0646 32.2525 16.0125 32.351C15.9509 32.4669 15.8883 32.5823 15.8247 32.6971C15.589 33.1449 15.4693 33.6229 15.564 34.1335C15.6918 34.5945 15.9672 34.8789 16.3449 35.1386C16.8143 35.3024 17.3712 35.327 17.8246 35.0959C18.2758 34.7459 18.5013 34.1873 18.7526 33.6769C18.9023 33.3758 19.056 33.077 19.2099 32.7783C19.4454 32.3203 19.6807 31.8622 19.9141 31.4031C19.9637 31.3057 20.0133 31.2084 20.0644 31.108C20.2727 30.6779 20.3173 30.3149 20.2636 29.8397C20.1103 29.3775 19.8185 29.0953 19.4472 28.8141C18.7873 28.5838 18.1431 28.6799 17.6693 29.231ZM20.9984 31.8909C20.836 32.1456 20.836 32.1456 20.6963 32.4357C20.6701 32.4876 20.6439 32.5394 20.6169 32.5928C20.534 32.7572 20.4524 32.9223 20.3707 33.0874C20.3151 33.1983 20.2593 33.3091 20.2035 33.4199C20.059 33.7073 19.9158 33.9953 19.7738 34.284C19.7259 34.3787 19.7259 34.3787 19.677 34.4753C19.5112 34.8505 19.5449 35.3635 19.6695 35.7482C19.8843 36.1689 20.1648 36.416 20.5697 36.6183C21.0279 36.7197 21.4093 36.674 21.8301 36.458C22.4238 35.9193 22.7544 35.1941 23.1057 34.4709C23.1534 34.3742 23.2011 34.2776 23.2503 34.178C23.6327 33.4184 23.6327 33.4184 23.6925 32.5746C23.5068 31.9893 23.193 31.6378 22.672 31.3514C22.0146 31.1621 21.4863 31.4262 20.9984 31.8909ZM27.6928 34.1985C27.7154 34.2439 27.738 34.2893 27.7614 34.336C27.7909 34.3964 27.8205 34.4568 27.851 34.519C27.8803 34.5785 27.9097 34.638 27.9399 34.6993C28.2809 35.4849 28.0745 36.3123 27.8561 37.1044C28.355 37.3861 28.6867 37.5163 29.2439 37.3608C29.5926 37.1418 29.758 36.9045 29.8971 36.5061C29.9436 36.0678 29.931 35.7493 29.6939 35.3653C29.4337 35.0676 29.0909 34.8981 28.7541 34.7113C28.6725 34.6631 28.591 34.615 28.507 34.5654C28.1218 34.3063 28.1218 34.3063 27.6928 34.1985ZM24.1667 35.0118C23.9695 35.2953 23.8111 35.5916 23.6567 35.9025C23.6133 35.9881 23.6133 35.9881 23.569 36.0755C23.3476 36.5472 23.2851 36.9499 23.4144 37.4706C23.6769 38.0096 24.0561 38.3755 24.5497 38.6855C24.8465 38.7477 25.123 38.7497 25.4069 38.6428C25.8516 38.3237 26.0707 37.9558 26.3202 37.4623C26.3549 37.3965 26.3896 37.3308 26.4253 37.2631C26.8861 36.3783 26.8861 36.3783 26.958 35.395C26.743 34.926 26.4247 34.6625 25.9784 34.4549C25.2703 34.244 24.6626 34.4507 24.1667 35.0118Z" fill="#FF7705"></path>
</svg>
