<?xml version="1.0" encoding="UTF-8"?>
<svg xmlns="http://www.w3.org/2000/svg" width="425" height="81" viewBox="0 0 425 81" fill="none">
  <path d="M32.4944 35.831H31.5821C29.1996 35.831 27.7196 37.3044 27.7196 39.6756V58.7505C27.7196 67.7941 24.9554 71.483 18.1785 71.483C11.4016 71.483 8.63738 67.7774 8.63738 58.6935V39.6756C8.63738 37.3044 7.15735 35.831 4.77518 35.831H3.86232C1.48003 35.831 0 37.3044 0 39.6756V58.7505C0 72.5271 6.11629 79.5124 18.1785 79.5124C30.2407 79.5124 36.3567 72.5271 36.3567 58.7505V39.6756C36.3567 37.3044 34.8767 35.831 32.4944 35.831Z" fill="black"></path>
  <path d="M47.272 47.4059H46.516C44.0746 47.4059 42.5582 48.9365 42.5582 51.3997V75.5187C42.5582 77.9818 44.0746 79.5124 46.516 79.5124H47.272C49.7131 79.5124 51.2295 77.9818 51.2295 75.5187V51.3997C51.2295 48.9365 49.7131 47.4059 47.272 47.4059Z" fill="#FA4616"></path>
  <path d="M57.7443 32.4755C52.2266 31.5892 47.8725 27.2351 46.9863 21.7175C46.9696 21.6133 46.8346 21.6133 46.8179 21.7175C45.9318 27.2351 41.5776 31.5892 36.0599 32.4755C35.9557 32.4922 35.9557 32.6272 36.0599 32.6439C41.5776 33.53 45.9318 37.8843 46.8179 43.4019C46.8346 43.5061 46.9696 43.5061 46.9863 43.4019C47.8725 37.8843 52.2266 33.53 57.7443 32.6439C57.8485 32.6272 57.8485 32.4922 57.7443 32.4755ZM52.3232 32.6018C49.5644 33.0448 47.3873 35.222 46.9442 37.9808C46.9359 38.0329 46.8684 38.0329 46.86 37.9808C46.4169 35.222 44.2399 33.0448 41.481 32.6018C41.4289 32.5935 41.4289 32.5259 41.481 32.5176C44.2399 32.0745 46.4169 29.8974 46.86 27.1386C46.8684 27.0865 46.9359 27.0865 46.9442 27.1386C47.3873 29.8974 49.5644 32.0745 52.3232 32.5176C52.3753 32.5259 52.3753 32.5935 52.3232 32.6018Z" fill="#FA4616"></path>
  <path d="M61.05 23.8608C58.2912 24.3038 56.1141 26.4809 55.671 29.2398C55.6627 29.2918 55.5952 29.2918 55.5868 29.2398C55.1437 26.4809 52.9667 24.3038 50.2078 23.8608C50.1557 23.8524 50.1557 23.7849 50.2078 23.7765C52.9667 23.3334 55.1437 21.1563 55.5868 18.3975C55.5952 18.3454 55.6627 18.3454 55.671 18.3975C56.1141 21.1564 58.2912 23.3334 61.05 23.7765C61.1021 23.7849 61.1021 23.8524 61.05 23.8608Z" fill="#FA4616"></path>
  <path d="M70.1888 35.831H61.7723C59.3647 35.831 57.8688 37.3201 57.8688 39.7166V75.6268C57.8688 78.0233 59.3647 79.5124 61.7723 79.5124H62.695C65.1026 79.5124 66.5985 78.0233 66.5985 75.6268V67.1265H70.2464C84.8519 67.1265 90.8096 62.5931 90.8096 51.4787C90.8096 40.3644 84.8353 35.831 70.1888 35.831ZM81.9648 51.3641C81.9648 57.0818 79.2404 59.0112 71.1685 59.0112H66.5985V43.774H71.1685C79.2404 43.774 81.9648 45.689 81.9648 51.3641Z" fill="black"></path>
  <path d="M123.229 43.9133H122.537C120.129 43.9133 118.633 45.4025 118.633 47.799V47.804C116.16 44.9538 112.33 43.2825 107.952 43.2825C103.492 43.2825 99.459 44.9136 96.5955 47.8759C93.4766 51.1019 91.8281 55.7579 91.8281 61.3401C91.8281 66.9467 93.4863 71.6295 96.6234 74.8823C99.5031 77.868 103.547 79.5124 108.01 79.5124C112.305 79.5124 116.164 77.8203 118.636 75.0113C118.636 75.0144 118.637 75.821 118.637 75.824C118.717 78.105 120.196 79.5124 122.537 79.5124H123.229C125.636 79.5124 127.132 78.0238 127.132 75.6273V47.799C127.132 45.4025 125.636 43.9133 123.229 43.9133ZM118.806 61.3401C118.806 67.8972 115.288 71.971 109.624 71.971C103.889 71.971 100.327 67.8973 100.327 61.3401C100.327 54.8177 103.845 50.7663 109.509 50.7663C115.157 50.7663 118.806 54.917 118.806 61.3401Z" fill="black"></path>
  <path d="M152.77 75.1178C152.65 73.9621 151.955 72.311 148.646 72.311C144.733 72.311 142.871 71.0971 142.871 64.1991V50.9207H148.703C151.109 50.9207 152.603 49.5628 152.603 47.3774C152.603 45.2272 151.109 43.8911 148.703 43.8911H142.878V39.7191C142.878 37.3211 141.372 35.831 138.948 35.831H138.252C135.828 35.831 134.322 37.3211 134.322 39.7191V43.8911H132.981C130.86 43.8911 129.542 45.2272 129.542 47.3774C129.542 49.5628 131.037 50.9207 133.442 50.9207H134.322V64.9456C134.322 75.1561 138.313 79.5124 147.667 79.5124C147.682 79.5124 147.697 79.5119 147.712 79.5115C148.256 79.511 148.839 79.5025 149.432 79.4499C150.611 79.3386 151.503 78.9249 152.083 78.2186C152.661 77.5158 152.892 76.281 152.77 75.1178Z" fill="black"></path>
  <path d="M173.484 43.3169C168.964 43.3169 165.739 45.109 163.719 47.3674V39.7191C163.719 37.3211 162.223 35.831 159.813 35.831H159.121C156.712 35.831 155.215 37.3211 155.215 39.7191V75.6244C155.215 78.0223 156.712 79.5124 159.121 79.5124H159.813C162.223 79.5124 163.719 78.0223 163.719 75.6244V61.2135C163.719 51.9876 168.14 50.9207 171.465 50.9207C177.049 50.9207 179.326 53.6867 179.326 60.4675V75.6244C179.326 78.0223 180.823 79.5124 183.232 79.5124H183.925C186.334 79.5124 187.83 78.0223 187.83 75.6244V59.9504C187.83 48.7576 183.138 43.3169 173.484 43.3169Z" fill="black"></path>
  <path d="M208.943 75.4934V39.8426C208.943 37.2512 210.369 35.8239 212.961 35.8239H221.691C236.934 35.8239 242.689 40.5475 242.689 51.973C242.689 63.3978 236.934 67.9814 221.791 67.9814H218.486V75.4934C218.486 78.0863 217.06 79.5124 214.468 79.5124H212.961C210.369 79.5124 208.943 78.0863 208.943 75.4934ZM232.964 51.8116C232.964 46.2342 229.982 44.1031 223.258 44.1031H218.486V59.6212H223.258C229.982 59.6212 232.964 57.4506 232.964 51.8116Z" fill="black"></path>
  <path d="M243.853 62.2546C243.853 50.667 250.333 44.4382 258.941 44.4382C263.771 44.4382 268.378 46.8274 270.169 51.053V48.5138C270.169 46.2825 271.636 44.9985 274.188 44.9985H275.313C277.905 44.9985 279.332 46.4232 279.332 49.0147V75.4329C279.332 78.0258 277.905 79.452 275.313 79.452H274.188C271.656 79.452 270.169 78.1858 270.169 76.0145V73.6562C268.419 77.762 263.771 80.1551 258.982 80.1551C250.393 80.1551 243.853 73.8617 243.853 62.2546ZM270.451 62.2347C270.451 55.8737 266.907 51.9083 261.693 51.9083C256.539 51.9083 252.995 55.8531 252.995 62.2339C252.995 68.676 256.519 72.6204 261.774 72.6204C266.948 72.6204 270.451 68.6553 270.451 62.2347Z" fill="black"></path>
  <path d="M304.719 48.7894L304.644 49.4574C304.366 51.945 302.931 52.6595 300.434 53.0928C295.871 53.8664 293.509 56.916 293.509 63.2358V75.4927C293.509 78.0856 292.082 79.5118 289.49 79.5118H288.366C285.773 79.5118 284.347 78.0856 284.347 75.4927V49.0144C284.347 46.4226 285.773 44.9954 288.366 44.9954H289.49C292.082 44.9954 293.509 46.2139 293.509 48.6913V50.2231C294.518 47.5075 296.999 44.6459 301.471 44.6456C303.932 44.6456 305.011 46.1805 304.719 48.7894Z" fill="black"></path>
  <path d="M309.891 65.7539V51.9289H308.414C306.245 51.9289 305.043 50.6048 305.043 48.4324C305.043 46.2018 306.164 44.996 308.134 44.996H309.891V42.219C309.891 39.8078 311.008 38.5576 313.632 37.998L314.695 37.7712C317.777 37.114 319.113 38.3269 319.113 41.2059V44.996H324.551C327.343 44.996 328.57 46.2018 328.57 48.4324C328.57 50.6826 327.343 51.9289 324.551 51.9289H319.113V64.9299C319.113 70.634 320.779 72.7064 325.065 72.8607C327.237 72.9389 328.637 73.8923 328.752 75.9619C328.878 78.2256 327.843 79.7008 325.295 79.9539C324.702 80.013 324.108 80.0357 323.565 80.0357C314.194 80.0357 309.891 76.2747 309.891 65.7539Z" fill="black"></path>
  <path d="M363.83 60.5255V75.4934C363.83 78.0862 362.404 79.5124 359.812 79.5124H358.687C356.094 79.5124 354.668 78.0862 354.668 75.4934V61.3687C354.668 55.028 352.332 52.1092 347.178 52.1092C341.863 52.1092 339.769 55.5118 339.769 61.8934V75.4934C339.769 78.0862 338.342 79.5124 335.75 79.5124H334.626C332.033 79.5124 330.607 78.0862 330.607 75.4934V49.0147C330.607 46.4232 332.033 44.996 334.626 44.996H335.75C338.342 44.996 339.769 46.4232 339.769 48.8949V50.6375C341.291 47.0809 345.238 44.4788 350.432 44.4788C359.706 44.4788 363.83 49.6236 363.83 60.5255Z" fill="black"></path>
  <path d="M366.622 62.2546C366.622 51.6339 373.843 44.4382 384.322 44.4382C394.358 44.4382 400.771 50.5898 401.401 60.3257C401.574 62.9982 400.151 64.3448 397.379 64.3448H375.785C375.946 70.0012 379.409 73.2823 385.025 73.2823C388.145 73.2823 390.193 72.4369 392.157 70.8145C393.658 69.5753 394.583 68.7513 396.67 69.2589L397.499 69.4608C400.253 70.1306 400.717 71.6684 398.985 73.8589C396.056 77.8473 391.11 80.0741 384.603 80.0741C373.723 80.0741 366.622 73.0754 366.622 62.2546ZM392.937 58.3535C392.575 53.744 389.435 50.8045 384.543 50.8045C379.851 50.8045 376.51 53.4212 375.946 58.3535H392.937Z" fill="black"></path>
  <path d="M424.953 48.7894L424.879 49.4574C424.6 51.945 423.166 52.6595 420.668 53.0928C416.105 53.8664 413.743 56.916 413.743 63.2358V75.4927C413.743 78.0856 412.316 79.5118 409.724 79.5118H408.6C406.007 79.5118 404.581 78.0856 404.581 75.4927V49.0144C404.581 46.4226 406.007 44.9954 408.6 44.9954H409.724C412.316 44.9954 413.743 46.2139 413.743 48.6913V50.2231C414.752 47.5075 417.233 44.6459 421.706 44.6456C424.166 44.6456 425.245 46.1805 424.953 48.7894Z" fill="black"></path>
  <path d="M208.943 15.3625V1.69855C208.943 0.705335 209.49 0.157898 210.483 0.157898H213.721C220.497 0.157898 223.134 3.03302 223.134 8.53799C223.134 13.9669 220.497 16.9032 213.721 16.9032H210.483C209.49 16.9032 208.943 16.3564 208.943 15.3625ZM219.446 8.50742C219.446 5.04362 218.087 3.37712 213.836 3.37712H212.593V13.6533H213.867C218.087 13.6533 219.446 11.9947 219.446 8.50742Z" fill="black"></path>
  <path d="M226.856 15.3625V1.69855C226.856 0.705335 227.403 0.157898 228.396 0.157898H228.973C229.967 0.157898 230.514 0.705335 230.514 1.69855V15.3625C230.514 16.3564 229.967 16.9032 228.973 16.9032H228.396C227.403 16.9032 226.856 16.3564 226.856 15.3625Z" fill="black"></path>
  <path d="M247.964 16.9032H247.325C246.44 16.9032 245.876 16.4929 245.57 15.6504L244.968 13.9953H237.732L237.139 15.6519C236.838 16.4908 236.264 16.9032 235.379 16.9032H234.763C233.631 16.9032 233.13 16.1758 233.547 15.1272L239.014 1.37933C239.346 0.54608 239.916 0.157898 240.794 0.157898H241.887C242.765 0.157898 243.334 0.546794 243.667 1.37933L249.158 15.1243C249.577 16.1744 249.081 16.9032 247.964 16.9032ZM241.341 4.13998L238.719 11.2994H243.975L241.341 4.13998Z" fill="black"></path>
  <path d="M251.851 15.2566L254.065 1.56631C254.217 0.621445 254.781 0.157898 255.72 0.157898H257.383C258.292 0.157898 258.851 0.600828 259.112 1.46394L262.627 13.0753L266.142 1.46394C266.404 0.600828 266.963 0.157898 267.871 0.157898H269.535C270.474 0.157898 271.037 0.621445 271.19 1.56631L273.403 15.2566C273.575 16.3166 273.043 16.9032 271.995 16.9032H271.426C270.486 16.9032 269.93 16.4161 269.779 15.4805L268.087 4.97964L264.771 15.6049C264.504 16.4609 263.945 16.9032 263.036 16.9032H262.219C261.31 16.9032 260.75 16.4609 260.483 15.6049L257.168 4.97964L255.476 15.4805C255.325 16.4162 254.768 16.9032 253.829 16.9032H253.26C252.212 16.9032 251.679 16.3166 251.851 15.2566Z" fill="black"></path>
  <path d="M276.165 8.55357C276.165 2.58647 279.919 0 284.128 0C288.268 0 292.061 2.58647 292.061 8.55357C292.061 14.6365 288.291 17.1185 284.082 17.1185C279.873 17.1185 276.165 14.6365 276.165 8.55357ZM288.411 8.54575C288.411 5.1829 286.698 3.23061 284.113 3.23061C281.459 3.23061 279.761 5.16727 279.761 8.54575C279.761 12.0174 281.412 13.9 284.082 13.9C286.713 13.9 288.411 12.0174 288.411 8.54575Z" fill="black"></path>
  <path d="M295.754 15.3625V1.69855C295.754 0.704629 296.301 0.157898 297.294 0.157898H298.118C298.958 0.157898 299.5 0.458637 299.974 1.19021L306.526 11.1657V1.69855C306.526 0.704629 307.072 0.157898 308.066 0.157898H308.636C309.63 0.157898 310.176 0.704629 310.176 1.69855V15.3625C310.176 16.3564 309.63 16.9032 308.636 16.9032H307.842C307.003 16.9032 306.439 16.5562 305.987 15.8708L299.412 5.85624V15.3625C299.412 16.3564 298.865 16.9032 297.871 16.9032H297.294C296.301 16.9032 295.754 16.3564 295.754 15.3625Z" fill="black"></path>
  <path d="M314.577 15.3625V1.69855C314.577 0.705335 315.123 0.157898 316.117 0.157898H319.355C326.131 0.157898 328.768 3.03302 328.768 8.53799C328.768 13.9669 326.131 16.9032 319.355 16.9032H316.117C315.123 16.9032 314.577 16.3564 314.577 15.3625ZM325.08 8.50742C325.08 5.04362 323.721 3.37712 319.47 3.37712H318.227V13.6533H319.501C323.721 13.6533 325.08 11.9947 325.08 8.50742Z" fill="black"></path>
</svg>
