<?xml version="1.0" encoding="UTF-8"?>
<svg xmlns="http://www.w3.org/2000/svg" width="48" height="48" viewBox="0 0 48 48" fill="none">
  <path d="M39.791 0.146428C40.5246 0.590588 40.7661 1.16667 40.9688 1.96869C41.0774 2.44108 41.1744 2.91587 41.2704 3.39097C41.3149 3.61156 41.3601 3.832 41.4055 4.05243C41.4341 4.19281 41.4628 4.33319 41.4913 4.47358C41.5048 4.53939 41.5183 4.6052 41.5322 4.67301C41.625 5.13435 41.625 5.13435 41.625 5.34369C41.7265 5.31179 41.7265 5.31179 41.8301 5.27924C42.1723 5.24122 42.2949 5.32141 42.5625 5.53119C42.6914 5.70697 42.6914 5.70697 42.75 5.90619C42.7225 6.06315 42.6916 6.21958 42.6563 6.37494C42.7213 6.38718 42.7863 6.39942 42.8532 6.41202C43.4952 6.53323 44.1367 6.65687 44.7779 6.7824C45.0534 6.83585 45.3291 6.8874 45.605 6.93854C46.5045 7.11221 47.207 7.30384 47.7598 8.08002C48.092 8.678 48.1156 9.41197 47.9392 10.0707C47.6897 10.621 47.2666 10.9958 46.7402 11.2792C46.4114 11.3675 46.0888 11.403 45.75 11.4374C45.7487 11.4897 45.7474 11.5419 45.746 11.5956C45.7011 12.3134 45.4469 12.8229 44.9063 13.3007C44.4123 13.6506 43.9971 13.7211 43.4063 13.7812C43.4006 13.8388 43.3949 13.8965 43.3891 13.9559C43.3812 14.0316 43.3733 14.1074 43.3652 14.1855C43.3576 14.2605 43.35 14.3356 43.3422 14.4129C43.3125 14.6249 43.3125 14.6249 43.2188 14.9062C43.3258 15.1739 43.3258 15.1739 43.4883 15.4804C46.1004 20.8357 46.2969 27.2108 44.3771 32.8114C43.5047 35.2679 42.2735 37.5642 40.5938 39.5624C40.5055 39.6698 40.4172 39.7773 40.329 39.8847C39.3411 41.0744 38.2605 42.1836 37.0313 43.1249C36.9463 43.1917 36.8614 43.2584 36.7738 43.3271C33.7236 45.6779 30.1521 47.2289 26.3438 47.8124C26.1835 47.8375 26.1835 47.8375 26.0199 47.863C24.9635 48.0126 23.9176 48.0375 22.8516 48.0351C22.7611 48.035 22.6706 48.0349 22.5773 48.0349C19.4759 48.0256 16.5477 47.4347 13.6875 46.2187C13.6131 46.1871 13.5386 46.1555 13.4619 46.1229C9.04973 44.2144 5.27622 40.7288 2.90627 36.5624C2.87043 36.4996 2.8346 36.4368 2.79768 36.3721C1.47022 34.0196 0.596424 31.4495 0.187516 28.7812C0.170824 28.6744 0.154131 28.5676 0.136933 28.4576C-0.0130213 27.3991 -0.0374097 26.3512 -0.0351403 25.2831C-0.0350893 25.1926 -0.0350383 25.102 -0.0349858 25.0086C-0.0311385 23.5172 0.0602585 22.0873 0.375016 20.6249C0.395107 20.5295 0.415198 20.434 0.435899 20.3356C1.36007 16.0585 3.47213 12.3485 6.46877 9.18744C6.53529 9.11688 6.53529 9.11688 6.60317 9.0449C7.31476 8.29521 8.07508 7.64471 8.90627 7.03119C8.96829 6.98526 9.03032 6.93932 9.09422 6.89199C12.5271 4.36722 17.111 2.2372 21.4688 2.43744C21.75 2.57807 21.75 2.57807 21.9375 2.81244C22.0036 3.0767 22.0238 3.30268 21.9375 3.56244C21.606 3.87603 21.3688 3.98853 20.918 4.03962C20.8112 4.05289 20.7043 4.06616 20.5943 4.07983C20.4807 4.09278 20.3671 4.10574 20.25 4.11908C14.7527 4.82952 9.62851 7.50564 6.18752 11.9062C6.11464 11.9951 6.04177 12.0841 5.96669 12.1757C3.33785 15.4524 1.59776 19.9069 1.57472 24.1245C1.57406 24.2053 1.5734 24.2862 1.57272 24.3696C1.54572 26.7777 1.54572 26.7777 1.87502 29.1562C1.89314 29.2452 1.91127 29.3342 1.92995 29.4259C2.35098 31.4726 3.03416 33.4131 4.03127 35.2499C4.06361 35.3112 4.09595 35.3725 4.12927 35.4357C5.08857 37.2529 6.37723 38.8204 7.78127 40.3124C7.83903 40.3742 7.8968 40.436 7.95632 40.4996C8.42242 40.9824 8.9441 41.3955 9.46877 41.8124C9.55832 41.8859 9.64787 41.9594 9.74013 42.0351C14.0516 45.4887 19.7708 46.9554 25.2224 46.3568C30.6077 45.6999 35.8529 43.0288 39.2472 38.7286C39.3203 38.6325 39.3934 38.5364 39.4688 38.4374C39.5137 38.3789 39.5586 38.3204 39.6049 38.2601C41.7713 35.4176 43.1572 32.2046 43.7813 28.6874C43.8013 28.5772 43.8214 28.467 43.8421 28.3535C44.5007 24.1537 43.7287 19.8791 42 16.0312C41.9219 16.0344 41.8437 16.0376 41.7632 16.0409C40.891 16.0608 40.1101 15.9468 39.2578 15.7558C39.1344 15.7294 39.011 15.7031 38.8876 15.6769C38.0033 15.4859 38.0033 15.4859 37.7813 15.3749C37.8579 15.5064 37.8579 15.5064 37.9362 15.6404C39.2527 17.9221 40.9447 21.1737 40.5938 23.9062C40.3235 24.342 40.3235 24.342 40.0313 24.4339C39.9694 24.4319 39.9075 24.4298 39.8438 24.4277C39.7819 24.4278 39.72 24.4279 39.6563 24.428C39.3843 24.351 39.274 24.2156 39.0938 23.9999C39.0201 23.7435 39.0201 23.7435 38.981 23.4477C38.9649 23.3378 38.9489 23.2278 38.9324 23.1146C38.916 22.9968 38.8997 22.8791 38.8828 22.7578C38.4878 20.2323 37.573 17.9337 36.1203 15.8305C36.0381 15.7114 35.9575 15.5911 35.8783 15.47C35.6622 15.1477 35.5306 14.9693 35.1563 14.8652C34.9735 14.8271 34.9735 14.8271 34.7813 14.8124C34.7089 14.804 34.6366 14.7956 34.562 14.787C34.22 14.8219 34.1139 14.9572 33.8771 15.2021C33.7588 15.3226 33.7588 15.3226 33.6381 15.4456C33.5571 15.5306 33.4761 15.6155 33.3926 15.7031C33.2683 15.8305 33.2683 15.8305 33.1416 15.9605C32.937 16.1706 32.7337 16.3816 32.5313 16.5937C32.7565 16.9372 32.9894 17.2709 33.2345 17.6007C35.2268 20.3057 36.0766 23.7159 35.5905 27.0491C35.03 30.4808 33.2563 33.5884 30.4358 35.6671C29.1519 36.5819 27.7895 37.2052 26.2852 37.664C26.2248 37.6827 26.1644 37.7013 26.1022 37.7205C25.0189 38.0346 23.9273 38.0981 22.8047 38.0917C22.7386 38.0915 22.6726 38.0913 22.6045 38.091C21.609 38.0856 20.6512 38.0553 19.6875 37.7812C19.6112 37.7595 19.5348 37.7379 19.4562 37.7156C16.0961 36.7309 13.2693 34.6407 11.4961 31.5878C10.9957 30.6719 10.6386 29.7186 10.336 28.7226C10.3173 28.6623 10.2987 28.6019 10.2795 28.5397C9.96526 27.4564 9.90187 26.3647 9.90822 25.2421C9.90845 25.1761 9.90869 25.11 9.90893 25.0419C9.91435 24.0464 9.94465 23.0886 10.2188 22.1249C10.2404 22.0486 10.2621 21.9722 10.2844 21.8936C11.2994 18.4299 13.4687 15.5887 16.6322 13.8178C19.7331 12.1577 23.2662 11.9109 26.6283 12.8525C28.35 13.3884 29.9245 14.3267 31.3125 15.4687C31.5368 15.2861 31.7528 15.0985 31.9688 14.9062C32.019 14.8629 32.0692 14.8196 32.121 14.775C32.84 14.1961 32.84 14.1961 33.2483 13.4099C33.2237 13.1699 33.1797 12.9747 33.0938 12.7499C33.0628 12.6571 33.0319 12.5643 33 12.4687C32.7826 12.298 32.567 12.1418 32.3379 11.9882C32.2367 11.9199 32.2367 11.9199 32.1335 11.8502C28.549 9.46279 24.2246 8.3674 19.9467 9.14913C18.1443 9.51797 16.5253 10.1067 14.9063 10.9687C14.8495 10.9984 14.7927 11.0281 14.7341 11.0587C11.0531 12.9967 8.41875 16.5785 7.17189 20.4935C7.04615 20.9087 6.94119 21.3273 6.84377 21.7499C6.82842 21.8133 6.81307 21.8767 6.79726 21.9421C6.31326 24.0236 6.3249 26.615 6.84377 28.6874C6.86443 28.7723 6.8851 28.8571 6.90639 28.9446C8.00012 33.313 10.6796 36.9691 14.543 39.2929C16.0349 40.1617 17.6361 40.7576 19.3125 41.1562C19.3802 41.1729 19.4478 41.1895 19.5175 41.2067C21.5921 41.6952 24.1839 41.6676 26.25 41.1562C26.3659 41.1283 26.3659 41.1283 26.4841 41.0998C30.6758 40.0617 34.3664 37.5102 36.6391 33.8126C36.7077 33.6982 36.7759 33.5835 36.8438 33.4687C36.8788 33.4094 36.9138 33.3502 36.9499 33.2891C38.1259 31.2647 38.8027 28.992 39.0326 26.6649C39.112 26.3697 39.2291 26.2487 39.4688 26.0624C39.6563 26.0093 39.6563 26.0093 39.8438 26.0097C39.9366 26.0066 39.9366 26.0066 40.0313 26.0035C40.3299 26.0974 40.432 26.2703 40.5938 26.5312C41.0036 29.7225 38.8234 33.6389 37.0173 36.0853C36.5288 36.7144 35.9832 37.2954 35.4375 37.8749C35.376 37.9415 35.3145 38.0081 35.2511 38.0767C32.9332 40.5038 29.6721 42.0308 26.4375 42.7499C26.3705 42.7654 26.3034 42.7809 26.2344 42.7969C24.0184 43.2863 21.3338 43.2577 19.125 42.7499C19.0537 42.7344 18.9823 42.7188 18.9088 42.7027C14.8518 41.7982 11.1574 39.494 8.62502 36.1874C8.58273 36.1325 8.54045 36.0776 8.49689 36.021C6.18629 32.9875 4.92945 29.2983 4.93917 25.4904C4.93947 25.2499 4.93726 25.0096 4.93489 24.7692C4.92958 23.3853 5.08783 22.0209 5.45509 20.6835C5.47466 20.6116 5.49422 20.5396 5.51437 20.4654C6.60834 16.5901 8.92921 13.1568 12.1875 10.7812C12.2415 10.7418 12.2954 10.7025 12.351 10.6619C16.2239 7.87789 21.0076 6.83757 25.7033 7.54467C28.182 7.96414 30.4912 8.89318 32.625 10.2187C32.6073 10.1506 32.5895 10.0826 32.5712 10.0125C32.4922 9.70696 32.4176 9.40053 32.3438 9.09369C32.319 8.99125 32.319 8.99125 32.2936 8.88674C32.0592 7.90378 31.9213 7.01417 31.9688 5.99994C29.7826 5.07063 27.663 4.41427 25.3037 4.10846C23.8993 3.92008 23.8993 3.92008 23.625 3.56244C23.5882 3.27227 23.5676 3.08972 23.625 2.81244C23.8067 2.57807 23.8067 2.57807 24.0938 2.43744C26.7442 2.30479 29.7402 3.20711 32.1237 4.32526C32.191 4.35663 32.2583 4.388 32.3277 4.42032C32.4506 4.47884 32.5726 4.5394 32.6933 4.60246C33.1782 4.83665 33.4463 4.74853 33.9375 4.59369C34.0303 4.59369 34.1231 4.59369 34.2188 4.59369C34.2258 4.52795 34.2328 4.46221 34.24 4.39447C34.3444 3.64117 34.5578 3.15935 35.1427 2.66559C35.5959 2.34811 36.0147 2.26389 36.5625 2.24994C36.5695 2.1842 36.5765 2.11846 36.5838 2.05072C36.6847 1.32264 36.8906 0.818434 37.4645 0.342717C38.1153 -0.111702 39.0637 -0.183428 39.791 0.146428ZM38.2754 1.66053C38.1297 1.92276 38.1361 2.05116 38.1726 2.3466C38.1838 2.43779 38.1949 2.52898 38.2065 2.62293C38.2767 3.07999 38.3626 3.53217 38.4577 3.98468C38.488 4.13165 38.488 4.13165 38.519 4.28159C38.5615 4.48655 38.6043 4.69145 38.6473 4.8963C38.7133 5.21083 38.7779 5.52562 38.8424 5.84046C38.884 6.04024 38.9256 6.24001 38.9674 6.43976C38.9867 6.53399 39.0059 6.62822 39.0257 6.72531C39.0442 6.81206 39.0626 6.89881 39.0817 6.98819C39.0976 7.0646 39.1136 7.14102 39.13 7.21975C39.1775 7.42543 39.1775 7.42543 39.375 7.59369C39.536 7.45821 39.6935 7.31873 39.8496 7.17768C39.9377 7.10046 40.0258 7.02323 40.1166 6.94367C40.325 6.6379 40.3368 6.61397 40.2894 6.276C40.279 6.20119 40.2686 6.12637 40.2579 6.0493C40.192 5.65034 40.1165 5.25412 40.0349 4.8581C40.008 4.72667 40.008 4.72667 39.9806 4.59259C39.9428 4.40899 39.9049 4.22542 39.8667 4.04191C39.8084 3.76071 39.7517 3.47922 39.6951 3.1977C39.6581 3.01872 39.621 2.83977 39.5838 2.66083C39.567 2.57675 39.5503 2.49267 39.5331 2.40604C39.5165 2.32808 39.5 2.25012 39.4829 2.16979C39.4688 2.10134 39.4547 2.0329 39.4402 1.96238C39.3615 1.74373 39.2775 1.64141 39.0938 1.49994C38.6408 1.43164 38.6408 1.43164 38.2754 1.66053ZM35.9063 4.03119C35.6043 4.63507 35.9806 5.69391 36.1139 6.32843C36.1443 6.4754 36.1443 6.4754 36.1752 6.62534C36.2177 6.8303 36.2605 7.03521 36.3036 7.24005C36.3696 7.55458 36.4341 7.86937 36.4986 8.18421C36.5402 8.38399 36.5819 8.58376 36.6237 8.78351C36.6429 8.87774 36.6622 8.97197 36.682 9.06906C36.7004 9.15581 36.7189 9.24256 36.7379 9.33194C36.7539 9.40835 36.7698 9.48477 36.7863 9.5635C36.8338 9.76918 36.8338 9.76918 37.0313 9.93744C37.1922 9.80196 37.3498 9.66248 37.5059 9.52143C37.594 9.44421 37.6821 9.36698 37.7728 9.28742C37.9812 8.98165 37.9931 8.95772 37.9456 8.61975C37.9352 8.54494 37.9248 8.47012 37.9141 8.39305C37.8483 7.99409 37.7728 7.59787 37.6912 7.20185C37.6643 7.07042 37.6643 7.07042 37.6368 6.93634C37.5991 6.75274 37.5611 6.56917 37.5229 6.38566C37.4647 6.10446 37.408 5.82297 37.3513 5.54145C37.3143 5.36247 37.2772 5.18352 37.24 5.00458C37.2233 4.9205 37.2066 4.83642 37.1894 4.74979C37.1728 4.67183 37.1562 4.59387 37.1392 4.51354C37.1251 4.44509 37.111 4.37665 37.0965 4.30613C37.0192 4.09132 36.9238 3.98939 36.75 3.84369C36.3925 3.67687 36.2103 3.80936 35.9063 4.03119ZM33.5625 6.37494C33.2714 6.9571 33.6454 7.9795 33.7702 8.58979C33.7904 8.68998 33.8106 8.79017 33.8315 8.8934C33.874 9.10332 33.9168 9.3132 33.9598 9.52303C34.0257 9.8452 34.0903 10.1676 34.1549 10.4901C34.1965 10.6945 34.2382 10.899 34.2799 11.1035C34.3088 11.2483 34.3088 11.2483 34.3382 11.3961C34.3567 11.485 34.3751 11.574 34.3942 11.6656C34.4101 11.744 34.4261 11.8223 34.4425 11.9031C34.4893 12.1125 34.4893 12.1125 34.6875 12.2812C34.8487 12.148 35.0062 12.0104 35.1621 11.871C35.2502 11.7949 35.3383 11.7188 35.4291 11.6403C35.7962 11.0845 35.5283 10.3363 35.404 9.70926C35.3793 9.58909 35.3793 9.58909 35.354 9.4665C35.3365 9.38132 35.3191 9.29613 35.301 9.20837C35.2641 9.03012 35.2269 8.85192 35.1895 8.67379C35.1326 8.40135 35.0784 8.12848 35.0241 7.85553C34.9877 7.68155 34.9512 7.5076 34.9146 7.33368C34.891 7.21181 34.891 7.21181 34.8669 7.08747C34.7833 6.70506 34.7308 6.51288 34.4507 6.22713C34.0634 6.00431 33.9166 6.13886 33.5625 6.37494ZM41.1021 7.89252C41.0194 7.97953 40.9367 8.06655 40.8516 8.15619C40.7679 8.24321 40.6843 8.33022 40.5982 8.41987C40.5348 8.48754 40.4715 8.55522 40.4063 8.62494C40.6315 8.85014 40.7536 8.86425 41.0622 8.9284C41.1599 8.94903 41.2575 8.96966 41.3581 8.99092C41.4641 9.01251 41.57 9.0341 41.6792 9.05634C41.7879 9.07897 41.8966 9.10159 42.0086 9.1249C42.2389 9.17267 42.4694 9.22009 42.6999 9.26719C43.0521 9.33926 43.4041 9.41268 43.756 9.48627C43.9797 9.5325 44.2035 9.57864 44.4273 9.6247C44.5851 9.65765 44.5851 9.65765 44.746 9.69127C44.8449 9.71131 44.9437 9.73136 45.0455 9.752C45.1752 9.77864 45.1752 9.77864 45.3075 9.80581C45.6768 9.86067 46.0024 9.89856 46.3477 9.74408C46.5305 9.55942 46.5305 9.55942 46.541 9.23432C46.5292 8.9184 46.5292 8.9184 46.3843 8.75244C46.1828 8.59721 46.0286 8.55798 45.7797 8.50696C45.6908 8.48821 45.602 8.46946 45.5104 8.45014C45.3667 8.42156 45.3667 8.42156 45.2201 8.3924C45.1215 8.37199 45.0229 8.35158 44.9213 8.33055C44.7128 8.28759 44.5042 8.24515 44.2955 8.20318C43.976 8.13889 43.6568 8.07307 43.3376 8.00696C43.135 7.96543 42.9325 7.92398 42.7299 7.88263C42.6343 7.86301 42.5386 7.84339 42.4401 7.82317C42.3064 7.79637 42.3064 7.79637 42.17 7.76904C42.0917 7.75323 42.0134 7.73743 41.9328 7.72114C41.5579 7.66212 41.3985 7.64104 41.1021 7.89252ZM38.502 10.4999C38.3778 10.6305 38.3778 10.6305 38.2511 10.7636C38.1889 10.8313 38.1266 10.899 38.0625 10.9687C38.2877 11.1939 38.4098 11.208 38.7185 11.2721C38.8161 11.2928 38.9138 11.3134 39.0144 11.3347C39.1203 11.3563 39.2263 11.3778 39.3355 11.4001C39.4442 11.4227 39.5528 11.4453 39.6648 11.4686C39.8952 11.5164 40.1256 11.5638 40.3561 11.6109C40.7084 11.683 41.0603 11.7564 41.4122 11.83C41.636 11.8762 41.8597 11.9224 42.0835 11.9684C42.2413 12.0014 42.2413 12.0014 42.4023 12.035C42.5011 12.0551 42.5999 12.0751 42.7018 12.0958C42.8314 12.1224 42.8314 12.1224 42.9638 12.1496C43.4984 12.229 43.4984 12.229 43.9981 12.0703C44.1814 11.8801 44.2422 11.7957 44.25 11.5312C44.1332 11.2586 44.0487 11.1027 43.7803 10.9675C43.389 10.8383 42.9921 10.7557 42.5889 10.6721C42.5012 10.6536 42.4135 10.6351 42.3231 10.6161C42.1381 10.5773 41.9531 10.5387 41.7681 10.5003C41.4853 10.4415 41.2027 10.3818 40.9201 10.322C40.74 10.2843 40.56 10.2467 40.3799 10.2092C40.2535 10.1824 40.2535 10.1824 40.1245 10.155C39.2192 9.95817 39.2192 9.95817 38.502 10.4999ZM36.1582 12.8437C36.034 12.9742 36.034 12.9742 35.9074 13.1074C35.8451 13.175 35.7829 13.2427 35.7188 13.3124C35.944 13.5376 36.0661 13.5518 36.3747 13.6159C36.4724 13.6365 36.57 13.6572 36.6706 13.6784C36.7766 13.7 36.8825 13.7216 36.9917 13.7438C37.1004 13.7665 37.2091 13.7891 37.3211 13.8124C37.5514 13.8602 37.7819 13.9076 38.0124 13.9547C38.3646 14.0268 38.7166 14.1002 39.0685 14.1738C39.2922 14.22 39.516 14.2661 39.7398 14.3122C39.8976 14.3452 39.8976 14.3452 40.0585 14.3788C40.1574 14.3988 40.2562 14.4189 40.358 14.4395C40.4877 14.4661 40.4877 14.4661 40.62 14.4933C41.1547 14.5728 41.1547 14.5728 41.6543 14.414C41.8377 14.2239 41.8985 14.1395 41.9063 13.8749C41.8357 13.6188 41.8357 13.6188 41.625 13.4062C41.0845 13.1661 40.4927 13.0498 39.9155 12.9334C39.8367 12.9172 39.7578 12.9009 39.6766 12.8842C39.5115 12.8503 39.3464 12.8167 39.1812 12.7833C38.9289 12.7322 38.6768 12.6801 38.4247 12.6278C38.2635 12.5949 38.1022 12.562 37.9409 12.5291C37.866 12.5136 37.7911 12.4981 37.7139 12.4821C37.0022 12.3395 36.6877 12.2789 36.1582 12.8437ZM14.4122 17.462C12.4422 19.5494 11.3984 22.3187 11.4024 25.1718C11.4024 25.2335 11.4025 25.2951 11.4025 25.3586C11.4143 28.4804 12.6886 31.2127 14.8653 33.4295C17.085 35.6205 20.0169 36.5944 23.0871 36.5922C26.235 36.5715 28.9446 35.1735 31.1503 32.9754C33.165 30.8408 34.2327 27.9527 34.2188 25.0312C34.1181 22.378 33.225 19.6312 31.3125 17.7187C30.5081 18.5231 29.7038 19.3274 28.875 20.1562C29.0878 20.5286 29.2962 20.8867 29.5254 21.246C30.5879 23.0249 30.8324 25.1375 30.3721 27.1387C29.9752 28.5808 29.2759 29.7847 28.2188 30.8437C28.1545 30.9091 28.0902 30.9745 28.0239 31.0418C26.5785 32.4204 24.583 33.0396 22.613 33.0281C21.1255 32.9888 19.7398 32.5558 18.4688 31.7812C18.274 31.5377 18.2796 31.4329 18.2988 31.1191C18.4106 30.7149 18.4106 30.7149 18.6563 30.5624C19.1839 30.5001 19.5164 30.6833 19.9688 30.9199C21.4909 31.6713 23.1181 31.836 24.75 31.3124C25.6066 30.9683 26.4073 30.5277 27.0938 29.9062C27.1882 29.8246 27.1882 29.8246 27.2846 29.7414C28.4506 28.6675 29.0776 27.1357 29.1753 25.5699C29.1985 23.9324 28.7522 22.6235 27.8438 21.2812C27.3416 21.7034 26.8607 22.1419 26.3906 22.5996C26.3213 22.6646 26.2519 22.7297 26.1804 22.7968C26.1154 22.8604 26.0504 22.924 25.9834 22.9896C25.9243 23.0464 25.8651 23.1032 25.8042 23.1617C25.6623 23.342 25.6623 23.342 25.71 23.5859C25.7786 23.8151 25.7786 23.8151 25.875 24.041C26.2098 24.8988 26.1003 25.7831 25.7813 26.6249C25.3522 27.4545 24.7618 28.018 23.881 28.3351C22.9377 28.597 22.0159 28.5445 21.1366 28.0975C20.3364 27.5975 19.847 26.9747 19.5938 26.0624C19.4043 25.1033 19.5161 24.1925 20.0391 23.3554C20.6452 22.5339 21.3974 22.1061 22.4063 21.9374C23.0074 21.9074 23.6521 21.9294 24.189 22.2311C24.4312 22.337 24.5042 22.3139 24.75 22.2187C24.983 22.0245 24.983 22.0245 25.2173 21.7789C25.2605 21.7353 25.3036 21.6917 25.3481 21.6469C25.4854 21.508 25.6216 21.3683 25.7578 21.2285C25.8509 21.134 25.944 21.0396 26.0372 20.9452C26.2652 20.7142 26.4922 20.4823 26.7188 20.2499C25.3516 19.1541 23.7941 18.6907 22.0313 18.8437C20.2201 19.1081 18.6443 20.0621 17.5364 21.5214C16.592 22.9277 16.1796 24.5879 16.4674 26.2668C16.63 27.0834 16.895 27.7685 17.3163 28.486C17.4656 28.8495 17.4401 29.0604 17.3438 29.4374C17.1006 29.6806 16.9231 29.6509 16.5912 29.659C16.3435 29.6134 16.28 29.5422 16.125 29.3437C15.0109 27.4721 14.7054 25.2665 15.2299 23.1538C15.6151 21.7653 16.3361 20.6184 17.3438 19.5937C17.4082 19.5281 17.4726 19.4625 17.539 19.3948C19.0608 17.9464 21.1356 17.3675 23.1969 17.414C24.7371 17.4787 26.08 18.0401 27.375 18.8437C27.607 18.9829 27.607 18.9829 27.8438 19.1249C28.6481 18.3206 29.4525 17.5162 30.2813 16.6874C28.3503 14.7565 25.513 13.8101 22.8194 13.7786C19.552 13.8158 16.7045 15.1777 14.4122 17.462ZM21.334 24.0292C21.0093 24.4531 20.8779 24.8726 20.918 25.4062C21.0097 25.9515 21.2517 26.3141 21.6387 26.7011C22.1301 27.0383 22.5756 27.1481 23.1581 27.0501C23.7428 26.8921 24.1269 26.5606 24.4688 26.0624C24.6774 25.5504 24.6555 25.1864 24.5625 24.6562C24.1994 24.804 23.9768 25.0385 23.707 25.3183C23.1813 25.862 23.1813 25.862 22.793 25.9042C22.5 25.8749 22.5 25.8749 22.2774 25.7226C22.125 25.4999 22.125 25.4999 22.0606 25.2421C22.1593 24.7755 22.4516 24.519 22.7813 24.1874C22.8439 24.1235 22.9065 24.0596 22.971 23.9937C23.1251 23.838 23.2805 23.6839 23.4375 23.5312C22.6824 23.1287 21.894 23.4214 21.334 24.0292Z" fill="#FF7705"></path>
</svg>
