<?xml version="1.0" encoding="UTF-8"?>
<svg xmlns="http://www.w3.org/2000/svg" width="25" height="25" viewBox="0 0 25 25" fill="none">
  <path d="M12.456 0.0734356C12.7154 0.26491 12.869 0.460448 12.954 0.773631C12.9669 0.915513 12.9663 1.05657 12.9653 1.19895C12.9654 1.26248 12.9654 1.26248 12.9655 1.32729C12.9657 1.46894 12.9652 1.61057 12.9646 1.75222C12.9646 1.85386 12.9646 1.9555 12.9647 2.05714C12.9647 2.33294 12.9642 2.60874 12.9635 2.88454C12.9629 3.17282 12.9629 3.4611 12.9628 3.74938C12.9625 4.29522 12.9617 4.84105 12.9608 5.38689C12.9597 6.00834 12.9592 6.62978 12.9587 7.25122C12.9577 8.52953 12.9561 9.80783 12.954 11.0861C13.0068 11.086 13.0596 11.0859 13.114 11.0857C14.3988 11.0826 15.6836 11.0803 16.9683 11.0788C17.5896 11.0781 18.2109 11.0771 18.8322 11.0755C19.3738 11.0741 19.9153 11.0732 20.4568 11.0729C20.7436 11.0727 21.0303 11.0723 21.317 11.0713C21.587 11.0703 21.8569 11.07 22.1268 11.0702C22.2258 11.0702 22.3249 11.0699 22.4239 11.0694C22.5592 11.0687 22.6946 11.0688 22.8299 11.0692C22.8689 11.0688 22.908 11.0684 22.9482 11.068C23.2463 11.0703 23.514 11.1183 23.7483 11.3176C23.7739 11.3495 23.7996 11.3814 23.8261 11.4143C23.8526 11.4462 23.8791 11.4781 23.9065 11.5109C24.0691 11.7448 24.0357 12.0324 24.0165 12.3049C23.9372 12.5568 23.7673 12.7259 23.5478 12.8674C23.3074 12.9675 23.0968 12.9742 22.8412 12.9724C22.7988 12.9725 22.7565 12.9726 22.7128 12.9726C22.5712 12.9728 22.4296 12.9723 22.2879 12.9718C22.1863 12.9717 22.0846 12.9718 21.983 12.9718C21.7072 12.9718 21.4314 12.9713 21.1556 12.9706C20.8673 12.9701 20.579 12.97 20.2908 12.9699C19.7449 12.9696 19.1991 12.9688 18.6532 12.9679C18.0318 12.9668 17.4104 12.9663 16.7889 12.9658C15.5106 12.9649 14.2323 12.9632 12.954 12.9611C12.9541 13.0139 12.9543 13.0667 12.9544 13.1211C12.9575 14.4059 12.9598 15.6907 12.9613 16.9755C12.962 17.5968 12.963 18.2181 12.9646 18.8394C12.966 19.3809 12.9669 19.9224 12.9672 20.4639C12.9674 20.7507 12.9679 21.0374 12.9689 21.3242C12.9698 21.5941 12.9701 21.864 12.9699 22.134C12.9699 22.233 12.9702 22.332 12.9708 22.431C12.9715 22.5664 12.9713 22.7017 12.9709 22.837C12.9713 22.8761 12.9717 22.9151 12.9722 22.9553C12.9699 23.2534 12.9218 23.5211 12.7226 23.7554C12.6907 23.7811 12.6588 23.8067 12.6259 23.8332C12.594 23.8597 12.5621 23.8863 12.5292 23.9136C12.2953 24.0763 12.0078 24.0428 11.7353 24.0236C11.4833 23.9443 11.3143 23.7744 11.1728 23.5549C11.0726 23.3146 11.066 23.1039 11.0677 22.8483C11.0677 22.806 11.0676 22.7636 11.0675 22.72C11.0673 22.5783 11.0679 22.4367 11.0684 22.295C11.0684 22.1934 11.0684 22.0918 11.0683 21.9901C11.0683 21.7143 11.0688 21.4385 11.0695 21.1627C11.0701 20.8744 11.0701 20.5862 11.0703 20.2979C11.0705 19.752 11.0713 19.2062 11.0723 18.6604C11.0733 18.0389 11.0738 17.4175 11.0743 16.796C11.0753 15.5177 11.0769 14.2394 11.079 12.9611C11.0262 12.9613 10.9734 12.9614 10.919 12.9615C9.63423 12.9646 8.34946 12.967 7.06469 12.9684C6.44338 12.9691 5.82208 12.9701 5.20077 12.9717C4.65924 12.9731 4.11772 12.974 3.57619 12.9744C3.28945 12.9745 3.00272 12.975 2.71599 12.976C2.44605 12.977 2.17612 12.9772 1.90619 12.977C1.80717 12.9771 1.70816 12.9774 1.60914 12.9779C1.47379 12.9786 1.33846 12.9784 1.2031 12.978C1.16407 12.9785 1.12504 12.9789 1.08482 12.9793C0.786732 12.977 0.518988 12.929 0.284755 12.7297C0.259075 12.6978 0.233394 12.6659 0.206936 12.633C0.180409 12.6011 0.153883 12.5692 0.126552 12.5363C-0.0361302 12.3024 -0.00267573 12.0149 0.0165058 11.7424C0.0958185 11.4904 0.265738 11.3214 0.485256 11.1799C0.725579 11.0798 0.936214 11.0731 1.19183 11.0749C1.23418 11.0748 1.27653 11.0747 1.32017 11.0746C1.46181 11.0745 1.60345 11.075 1.74509 11.0755C1.84673 11.0755 1.94837 11.0755 2.05001 11.0754C2.32582 11.0754 2.60161 11.076 2.87742 11.0766C3.16569 11.0772 3.45397 11.0773 3.74225 11.0774C4.28809 11.0777 4.83393 11.0784 5.37977 11.0794C6.00121 11.0804 6.62265 11.0809 7.2441 11.0814C8.5224 11.0824 9.8007 11.084 11.079 11.0861C11.0789 11.0333 11.0787 10.9805 11.0786 10.9261C11.0755 9.64135 11.0732 8.35658 11.0717 7.07181C11.071 6.4505 11.07 5.8292 11.0684 5.2079C11.067 4.66637 11.0661 4.12484 11.0658 3.58332C11.0656 3.29658 11.0652 3.00985 11.0641 2.72311C11.0632 2.45318 11.0629 2.18325 11.0631 1.91331C11.0631 1.8143 11.0628 1.71528 11.0622 1.61627C11.0615 1.48091 11.0617 1.34558 11.0621 1.21023C11.0617 1.1712 11.0613 1.13216 11.0609 1.09195C11.0631 0.793857 11.1112 0.526113 11.3105 0.29188C11.3424 0.2662 11.3743 0.240519 11.4071 0.214061C11.439 0.187534 11.4709 0.161008 11.5038 0.133677C11.7669 -0.0493139 12.1626 -0.0189073 12.456 0.0734356Z" fill="white"></path>
</svg>
