<?xml version="1.0" encoding="UTF-8"?>
<svg xmlns="http://www.w3.org/2000/svg" width="44" height="43" viewBox="0 0 44 43" fill="none">
  <path d="M20.6723 0.434403C20.7277 0.453277 20.783 0.472151 20.8401 0.491597C21.9715 0.886359 22.9374 1.4673 23.852 2.23909C23.9027 2.27731 23.9535 2.31553 24.0057 2.3549C24.7905 2.96297 25.3927 3.89903 25.9145 4.73128C25.9849 4.70126 26.0554 4.67124 26.128 4.64031C26.2206 4.6012 26.3132 4.5621 26.4086 4.52181C26.5004 4.48292 26.5921 4.44404 26.6866 4.40398C27.6525 4.02238 29.0351 4.06078 29.9878 4.45064C30.0985 4.50448 30.0985 4.50448 30.2114 4.5594C30.294 4.59884 30.3766 4.63828 30.4618 4.67891C31.7852 5.35666 32.4661 6.40916 32.9882 7.77669C33.0743 8.22257 33.0607 8.66149 33.0473 9.11409C33.095 9.10033 33.1426 9.08658 33.1917 9.0724C34.7864 8.71842 36.5167 9.10414 37.8801 9.95647C39.2149 10.863 40.2286 12.2834 40.5722 13.8682C40.7886 15.688 40.6004 17.4729 39.4686 18.9705C38.4239 20.2512 37.0954 21.1246 35.4536 21.4032C34.895 21.4473 34.3335 21.4333 33.7737 21.4283C33.6134 21.4278 33.453 21.4275 33.2926 21.4272C32.8739 21.4262 32.4551 21.4237 32.0364 21.4209C31.6078 21.4182 31.1791 21.417 30.7505 21.4157C29.9119 21.413 29.0734 21.4086 28.2348 21.4032C28.2691 21.6362 28.3051 21.8688 28.3422 22.1014C28.3516 22.1668 28.3611 22.2321 28.3708 22.2995C28.4833 22.9865 28.7993 23.4033 29.352 23.8094C29.8078 24.0373 30.2865 24.0776 30.7905 24.0794C30.8855 24.08 30.9805 24.0806 31.0783 24.0812C31.1798 24.0816 31.2814 24.082 31.386 24.0823C31.6032 24.0843 31.8205 24.0864 32.0377 24.0885C32.3784 24.0915 32.7192 24.0941 33.0599 24.0952C33.39 24.0966 33.72 24.1 34.05 24.1038C34.1507 24.1036 34.2513 24.1035 34.355 24.1033C35.3694 24.1182 36.1746 24.3922 36.9145 25.0985C37.6862 25.9068 37.8986 26.7169 37.8774 27.8067C37.8727 27.9639 37.8664 28.121 37.8598 28.2782C37.9291 28.275 37.9984 28.2719 38.0698 28.2686C38.3865 28.256 38.7031 28.2483 39.02 28.2406C39.1835 28.233 39.1835 28.233 39.3503 28.2253C39.4566 28.2233 39.563 28.2214 39.6725 28.2194C39.7698 28.2163 39.867 28.2131 39.9671 28.2099C40.4068 28.3103 40.6395 28.5676 40.9536 28.8797C41.0114 28.9355 41.0693 28.9913 41.1289 29.0488C41.3128 29.2277 41.4944 29.4087 41.6756 29.5904C41.7412 29.6559 41.8068 29.7214 41.8744 29.7889C42.0116 29.9261 42.1487 30.0633 42.2858 30.2007C42.4963 30.4117 42.7072 30.6222 42.9182 30.8326C43.0519 30.9664 43.1856 31.1001 43.3192 31.2339C43.3824 31.2969 43.4456 31.36 43.5107 31.4249C43.5687 31.4832 43.6267 31.5414 43.6864 31.6015C43.7376 31.6527 43.7887 31.7039 43.8415 31.7567C44.0568 31.9917 44.0584 32.1594 44.0599 32.4693C44.0606 32.5558 44.0612 32.6423 44.0618 32.7314C44.0622 32.8743 44.0622 32.8743 44.0625 33.0201C44.0634 33.1702 44.0634 33.1702 44.0642 33.3233C44.0659 33.6555 44.0669 33.9877 44.0678 34.32C44.0681 34.4331 44.0685 34.5463 44.0688 34.6629C44.0705 35.2 44.0717 35.737 44.0724 36.2741C44.0733 36.8942 44.0755 37.5144 44.079 38.1345C44.0816 38.6137 44.0829 39.0929 44.0831 39.5721C44.0833 39.8584 44.0843 40.1447 44.0863 40.431C44.0884 40.7503 44.0883 41.0696 44.0877 41.3889C44.0888 41.4839 44.0899 41.5788 44.091 41.6766C44.0901 41.8071 44.0901 41.8071 44.0892 41.9402C44.0894 42.0157 44.0896 42.0912 44.0898 42.169C44.031 42.4495 43.9339 42.5479 43.7036 42.7156C43.4582 42.7589 43.4582 42.7589 43.1686 42.7593C43.0038 42.7608 43.0038 42.7608 42.8356 42.7622C42.7141 42.7616 42.5925 42.7609 42.4709 42.7601C42.3427 42.7606 42.2145 42.7612 42.0863 42.762C41.7383 42.7635 41.3903 42.7629 41.0423 42.7618C40.6782 42.761 40.3141 42.7618 39.95 42.7623C39.3385 42.7629 38.7271 42.7621 38.1156 42.7605C37.4085 42.7586 36.7015 42.7592 35.9945 42.7611C35.3875 42.7626 34.7806 42.7629 34.1737 42.762C33.8111 42.7614 33.4486 42.7614 33.086 42.7625C32.7452 42.7635 32.4044 42.7628 32.0635 42.7608C31.9384 42.7604 31.8132 42.7605 31.6881 42.7613C31.5174 42.7622 31.3467 42.7608 31.176 42.7593C31.0804 42.7592 30.9848 42.759 30.8864 42.7589C30.6411 42.7156 30.6411 42.7156 30.4385 42.5761C30.2524 42.307 30.2541 42.1371 30.2537 41.8109C30.2528 41.7266 30.2528 41.7266 30.252 41.6406C30.2507 41.4524 30.2517 41.2643 30.2528 41.0761C30.2524 40.9412 30.2517 40.8062 30.251 40.6712C30.2494 40.3048 30.25 39.9383 30.2511 39.5718C30.252 39.1885 30.2512 38.8051 30.2507 38.4217C30.25 37.7779 30.2508 37.1341 30.2525 36.4902C30.2544 35.7457 30.2538 35.0012 30.2519 34.2566C30.2503 33.6176 30.2501 32.9785 30.251 32.3395C30.2515 31.9577 30.2516 31.5759 30.2505 31.1942C30.2495 30.8353 30.2501 30.4764 30.2521 30.1175C30.2526 29.9857 30.2525 29.8539 30.2517 29.7222C30.2508 29.5424 30.2519 29.3627 30.2537 29.1829C30.2538 29.032 30.2538 29.032 30.254 28.878C30.3065 28.5673 30.3917 28.4654 30.6411 28.2782C30.9042 28.2368 30.9042 28.2368 31.2165 28.2391C31.2736 28.2391 31.3306 28.239 31.3894 28.239C31.5773 28.2392 31.7651 28.2419 31.9529 28.2446C32.0835 28.2452 32.214 28.2457 32.3445 28.2461C32.6876 28.2474 33.0306 28.2507 33.3736 28.2545C33.7238 28.2581 34.0741 28.2596 34.4243 28.2614C35.1112 28.265 35.798 28.2709 36.4848 28.2782C36.4505 28.0451 36.4145 27.8125 36.3774 27.5799C36.368 27.5145 36.3585 27.4492 36.3488 27.3818C36.2363 26.6948 35.9203 26.278 35.3676 25.8719C34.9118 25.644 34.4331 25.6037 33.9291 25.6019C33.8341 25.6013 33.7391 25.6007 33.6413 25.6001C33.5398 25.5997 33.4382 25.5993 33.3336 25.599C33.1164 25.597 32.8991 25.5949 32.6819 25.5928C32.3412 25.5898 32.0004 25.5872 31.6597 25.5861C31.3296 25.5847 30.9996 25.5813 30.6696 25.5775C30.5689 25.5777 30.4683 25.5778 30.3646 25.578C29.3502 25.5631 28.545 25.2891 27.8051 24.5828C26.8729 23.6063 26.8598 22.7944 26.8598 21.4032C25.4986 21.4032 24.1373 21.4032 22.7348 21.4032C22.7348 23.6719 22.7348 25.9407 22.7348 28.2782C23.5289 28.2782 24.3229 28.2782 25.1411 28.2782C25.9147 28.9551 25.9147 28.9551 26.1813 29.2214C26.2412 29.281 26.3011 29.3406 26.3628 29.402C26.4558 29.4953 26.4558 29.4953 26.5506 29.5904C26.6162 29.6559 26.6818 29.7214 26.7494 29.7889C26.8866 29.9261 27.0237 30.0633 27.1608 30.2007C27.3713 30.4117 27.5822 30.6222 27.7932 30.8326C27.9269 30.9664 28.0605 31.1001 28.1942 31.2339C28.2574 31.2969 28.3206 31.36 28.3857 31.4249C28.4437 31.4832 28.5017 31.5414 28.5614 31.6015C28.6126 31.6527 28.6637 31.7039 28.7165 31.7567C28.9318 31.9917 28.9334 32.1594 28.9349 32.4693C28.9356 32.5558 28.9362 32.6423 28.9368 32.7314C28.937 32.8267 28.9373 32.922 28.9375 33.0201C28.9381 33.1202 28.9386 33.2202 28.9392 33.3233C28.9409 33.6555 28.9419 33.9877 28.9428 34.32C28.9431 34.4331 28.9435 34.5463 28.9438 34.6629C28.9455 35.2 28.9467 35.737 28.9474 36.2741C28.9483 36.8942 28.9505 37.5144 28.954 38.1345C28.9566 38.6137 28.9579 39.0929 28.9581 39.5721C28.9583 39.8584 28.9593 40.1447 28.9613 40.431C28.9634 40.7503 28.9633 41.0696 28.9627 41.3889C28.9643 41.5313 28.9643 41.5313 28.966 41.6766C28.9651 41.8071 28.9651 41.8071 28.9642 41.9402C28.9644 42.0157 28.9646 42.0912 28.9648 42.169C28.906 42.4495 28.8089 42.5479 28.5786 42.7156C28.3332 42.7589 28.3332 42.7589 28.0436 42.7593C27.8788 42.7608 27.8788 42.7608 27.7106 42.7622C27.5891 42.7616 27.4675 42.7609 27.3459 42.7601C27.2177 42.7606 27.0895 42.7612 26.9613 42.762C26.6133 42.7635 26.2653 42.7629 25.9173 42.7618C25.5532 42.761 25.1891 42.7618 24.825 42.7623C24.2135 42.7629 23.6021 42.7621 22.9906 42.7605C22.2835 42.7586 21.5765 42.7592 20.8695 42.7611C20.2625 42.7626 19.6556 42.7629 19.0487 42.762C18.6861 42.7614 18.3236 42.7614 17.961 42.7625C17.6202 42.7635 17.2794 42.7628 16.9385 42.7608C16.8134 42.7604 16.6882 42.7605 16.5631 42.7613C16.3924 42.7622 16.2217 42.7608 16.051 42.7593C15.9554 42.7592 15.8599 42.759 15.7614 42.7589C15.5161 42.7156 15.5161 42.7156 15.3135 42.5761C15.1274 42.307 15.1291 42.1371 15.1287 41.8109C15.1281 41.7547 15.1276 41.6985 15.127 41.6406C15.1257 41.4524 15.1267 41.2643 15.1278 41.0761C15.1274 40.9412 15.1267 40.8062 15.126 40.6712C15.1244 40.3048 15.125 39.9383 15.1261 39.5718C15.127 39.1885 15.1262 38.8051 15.1257 38.4217C15.125 37.7779 15.1258 37.1341 15.1275 36.4902C15.1294 35.7457 15.1288 35.0012 15.1269 34.2566C15.1253 33.6176 15.1251 32.9785 15.126 32.3395C15.1265 31.9577 15.1266 31.5759 15.1255 31.1942C15.1245 30.8353 15.1251 30.4764 15.1271 30.1175C15.1276 29.9857 15.1275 29.8539 15.1267 29.7222C15.1258 29.5424 15.1269 29.3627 15.1287 29.1829C15.1288 29.0823 15.1289 28.9817 15.129 28.878C15.1815 28.5673 15.2667 28.4654 15.5161 28.2782C15.7792 28.2368 15.7792 28.2368 16.0915 28.2391C16.1495 28.2391 16.2074 28.239 16.2672 28.239C16.4541 28.2393 16.641 28.2419 16.8279 28.2446C16.9436 28.2451 17.0593 28.2454 17.175 28.2456C17.6032 28.2474 18.0313 28.2522 18.4594 28.2567C19.4165 28.2638 20.3737 28.2708 21.3598 28.2782C21.3598 26.0094 21.3598 23.7407 21.3598 21.4032C19.9986 21.4032 18.6373 21.4032 17.2348 21.4032C17.2348 21.8853 17.2348 22.3674 17.2348 22.8641C16.969 23.8847 16.4077 24.6198 15.5161 25.1844C14.8275 25.5186 14.1906 25.5778 13.4341 25.5745C13.2758 25.576 13.2758 25.576 13.1142 25.5775C12.7797 25.5806 12.4453 25.5814 12.1108 25.5819C11.7757 25.5833 11.4406 25.5852 11.1055 25.588C10.8978 25.5897 10.6902 25.5905 10.4825 25.5903C9.64566 25.5956 8.88358 25.6252 8.26239 26.2516C7.86409 26.702 7.76174 27.1169 7.685 27.7034C7.65993 27.895 7.63487 28.0866 7.6098 28.2782C7.67909 28.275 7.74839 28.2719 7.81978 28.2686C8.13647 28.256 8.45311 28.2483 8.76996 28.2406C8.93347 28.233 8.93347 28.233 9.10028 28.2253C9.20663 28.2233 9.31297 28.2214 9.42255 28.2194C9.51975 28.2163 9.61696 28.2131 9.71712 28.2099C10.1568 28.3103 10.3895 28.5676 10.7036 28.8797C10.7614 28.9355 10.8193 28.9913 10.8789 29.0488C11.0628 29.2277 11.2444 29.4087 11.4256 29.5904C11.4912 29.6559 11.5568 29.7214 11.6244 29.7889C11.7616 29.9261 11.8987 30.0633 12.0358 30.2007C12.2463 30.4117 12.4572 30.6222 12.6682 30.8326C12.8019 30.9664 12.9355 31.1001 13.0692 31.2339C13.1324 31.2969 13.1956 31.36 13.2607 31.4249C13.3187 31.4832 13.3767 31.5414 13.4364 31.6015C13.4876 31.6527 13.5387 31.7039 13.5915 31.7567C13.8068 31.9917 13.8084 32.1594 13.8099 32.4693C13.8106 32.5558 13.8112 32.6423 13.8118 32.7314C13.812 32.8267 13.8123 32.922 13.8125 33.0201C13.8131 33.1202 13.8136 33.2202 13.8142 33.3233C13.8159 33.6555 13.8169 33.9877 13.8178 34.32C13.8181 34.4331 13.8185 34.5463 13.8188 34.6629C13.8205 35.2 13.8217 35.737 13.8224 36.2741C13.8233 36.8942 13.8255 37.5144 13.829 38.1345C13.8316 38.6137 13.8329 39.0929 13.8331 39.5721C13.8333 39.8584 13.8343 40.1447 13.8363 40.431C13.8384 40.7503 13.8383 41.0696 13.8377 41.3889C13.8393 41.5313 13.8393 41.5313 13.841 41.6766C13.8401 41.8071 13.8401 41.8071 13.8392 41.9402C13.8394 42.0157 13.8396 42.0912 13.8398 42.169C13.781 42.4495 13.6839 42.5479 13.4536 42.7156C13.2082 42.7589 13.2082 42.7589 12.9186 42.7593C12.7538 42.7608 12.7538 42.7608 12.5856 42.7622C12.4641 42.7616 12.3425 42.7609 12.2209 42.7601C12.0927 42.7606 11.9645 42.7612 11.8363 42.762C11.4883 42.7635 11.1403 42.7629 10.7923 42.7618C10.4282 42.761 10.0641 42.7618 9.7 42.7623C9.08852 42.7629 8.47707 42.7621 7.8656 42.7605C7.15854 42.7586 6.45152 42.7592 5.74446 42.7611C5.13752 42.7626 4.53059 42.7629 3.92366 42.762C3.5611 42.7614 3.19856 42.7614 2.83601 42.7625C2.49516 42.7635 2.15436 42.7628 1.81351 42.7608C1.68838 42.7604 1.56325 42.7605 1.43812 42.7613C1.26741 42.7622 1.09669 42.7608 0.925979 42.7593C0.782633 42.7591 0.782633 42.7591 0.636391 42.7589C0.391052 42.7156 0.391051 42.7156 0.188471 42.5761C0.00240305 42.307 0.00407105 42.1371 0.00365094 41.8109C0.0031147 41.7547 0.00257874 41.6985 0.00202624 41.6406C0.000655898 41.4524 0.00174056 41.2643 0.0028222 41.0761C0.00235638 40.9412 0.00174431 40.8062 0.000996868 40.6712C-0.000571101 40.3048 3.72368e-05 39.9383 0.00112669 39.5718C0.0019965 39.1885 0.00119049 38.8051 0.000650687 38.4217C2.51543e-05 37.7779 0.000849866 37.1341 0.00248651 36.4902C0.00435731 35.7457 0.00375106 35.0012 0.0018584 34.2566C0.000298889 33.6176 7.87155e-05 32.9785 0.000978518 32.3395C0.00151466 31.9577 0.00158496 31.5759 0.000450064 31.1942C-0.000542327 30.8353 0.000144757 30.4764 0.00213247 30.1175C0.00258732 29.9857 0.00245588 29.8539 0.00169843 29.7222C0.000760216 29.5424 0.0019355 29.3627 0.00365095 29.1829C0.00378056 29.0823 0.00391082 28.9817 0.00404435 28.878C0.0565288 28.5673 0.141686 28.4654 0.391052 28.2782C0.65424 28.2368 0.65424 28.2368 0.966514 28.2391C1.02356 28.2391 1.08061 28.239 1.13939 28.239C1.32728 28.2392 1.51506 28.2419 1.70294 28.2446C1.83347 28.2452 1.96399 28.2457 2.09452 28.2461C2.43757 28.2474 2.78057 28.2507 3.1236 28.2545C3.47383 28.2581 3.82407 28.2596 4.17432 28.2614C4.86117 28.265 5.54798 28.2709 6.2348 28.2782C6.23324 28.1787 6.23169 28.0792 6.23008 27.9767C6.22882 27.8444 6.2276 27.7122 6.22641 27.5799C6.22528 27.5145 6.22416 27.4492 6.223 27.3818C6.2168 26.461 6.54649 25.7622 7.18011 25.0985C8.01554 24.3009 8.90635 24.1019 10.0355 24.1068C10.1939 24.1053 10.1939 24.1053 10.3554 24.1038C10.6899 24.1007 11.0243 24.0999 11.3588 24.0994C11.6939 24.098 12.029 24.0961 12.3641 24.0933C12.5718 24.0916 12.7794 24.0908 12.9871 24.091C13.8239 24.0857 14.586 24.0561 15.2072 23.4297C15.6055 22.9793 15.7079 22.5644 15.7846 21.9779C15.799 21.8701 15.8134 21.7623 15.8282 21.6512C15.8387 21.5694 15.8491 21.4875 15.8598 21.4032C15.7722 21.4039 15.6847 21.4047 15.5944 21.4055C14.7639 21.4125 13.9335 21.4176 13.103 21.421C12.6761 21.4227 12.2493 21.4252 11.8225 21.4291C11.4096 21.4329 10.9967 21.4349 10.5838 21.4358C10.4273 21.4364 10.2707 21.4376 10.1142 21.4395C8.31439 21.4602 6.71448 21.0655 5.38201 19.7875C4.09462 18.5017 3.46835 17.0545 3.4472 15.2318C3.45788 13.5108 3.99974 12.0274 5.22302 10.8026C6.22807 9.84288 7.54493 9.02815 8.9848 9.02815C8.98081 8.95205 8.97682 8.87594 8.97272 8.79753C8.9132 6.75477 9.70341 4.65091 11.0956 3.14681C11.2498 2.98583 11.4062 2.82735 11.5629 2.66878C11.6458 2.57655 11.6458 2.57655 11.7304 2.48247C13.8583 0.169944 17.7666 -0.561937 20.6723 0.434403ZM12.7661 3.52815C12.6846 3.59911 12.6846 3.59911 12.6016 3.67149C11.315 4.8611 10.4943 6.70881 10.4152 8.44438C10.4048 8.72298 10.3974 9.00095 10.3954 9.27973C10.3942 9.36465 10.393 9.44957 10.3917 9.53706C10.3916 9.65085 10.3916 9.65085 10.3915 9.76693C10.3526 10.0206 10.2822 10.1358 10.102 10.3172C9.94056 10.3731 9.94056 10.3731 9.75891 10.3921C9.69179 10.4003 9.62467 10.4086 9.55552 10.4171C9.48417 10.4249 9.41281 10.4327 9.33929 10.4408C7.87754 10.6412 6.73296 11.2023 5.80511 12.3636C4.9556 13.5707 4.75795 14.9686 5.00146 16.4033C5.18482 17.0537 5.4947 17.5939 5.89105 18.1375C5.92872 18.192 5.96638 18.2465 6.00519 18.3027C6.69865 19.2134 7.86898 19.8025 8.98756 19.9681C9.64468 20.0398 10.299 20.0391 10.9593 20.0365C11.0814 20.0364 11.2035 20.0363 11.3256 20.0362C11.644 20.0359 11.9625 20.035 12.2809 20.0341C12.607 20.0332 12.9331 20.0328 13.2592 20.0323C13.8969 20.0314 14.5346 20.03 15.1723 20.0282C15.408 18.0867 15.408 18.0867 14.8512 16.3171C14.4294 15.9137 14.0368 15.7763 13.4569 15.7622C13.2605 15.7687 13.0696 15.7891 12.8745 15.8115C12.4563 15.8455 12.1642 15.7021 11.8207 15.4735C11.6468 15.3234 11.6468 15.3234 11.5307 15.1781C11.491 15.1303 11.4514 15.0826 11.4105 15.0334C11.0469 14.4764 11.0756 13.883 11.1332 13.2391C11.2735 12.7058 11.6226 12.3336 12.0786 12.036C12.6336 11.7603 13.3311 11.7641 13.9245 11.9201C14.4198 12.1433 14.7594 12.5287 15.0189 12.9984C15.0948 13.2693 15.0682 13.4849 15.036 13.7616C14.9925 14.2024 14.9651 14.5957 15.2107 14.9811C15.5213 15.3463 15.8749 15.6609 16.2473 15.9617C16.4078 16.1036 16.4573 16.1975 16.475 16.4111C16.4763 16.4779 16.4776 16.5447 16.479 16.6135C16.4807 16.6892 16.4824 16.7649 16.4842 16.8429C16.4864 16.9656 16.4864 16.9656 16.4886 17.0908C16.4903 17.1745 16.4921 17.2582 16.494 17.3444C16.4996 17.6124 16.5047 17.8803 16.5097 18.1483C16.5134 18.3297 16.5172 18.511 16.521 18.6924C16.5302 19.1377 16.5387 19.5829 16.5473 20.0282C17.4548 20.0282 18.3623 20.0282 19.2973 20.0282C19.3487 19.2076 19.3934 18.3897 19.4155 17.5682C19.4171 17.5085 19.4187 17.4489 19.4203 17.3874C19.5111 15.5614 19.5111 15.5614 18.7545 13.9716C18.4092 13.624 18.0137 13.3372 17.59 13.0925C17.4067 12.9813 17.4067 12.9813 17.3207 12.8094C17.3144 12.6453 17.3136 12.481 17.3154 12.3169C17.3162 12.2136 17.3169 12.1103 17.3177 12.0039C17.3187 11.8917 17.3197 11.7796 17.3207 11.664C17.3211 11.428 17.3208 11.192 17.3204 10.956C17.3199 10.5828 17.3203 10.2096 17.3251 9.83638C17.329 9.53466 17.329 9.23315 17.3265 8.93143C17.3261 8.7611 17.3297 8.59077 17.3333 8.42048C17.341 7.85327 17.341 7.85327 17.0639 7.38673C16.8682 7.25717 16.6712 7.15564 16.4614 7.05159C15.9501 6.51413 15.9064 6.00545 15.9192 5.28551C15.9695 4.72339 16.173 4.38747 16.5849 4.01155C17.1621 3.53215 17.8043 3.54971 18.5239 3.61409C19.0572 3.75435 19.4293 4.10341 19.727 4.5594C20.0026 5.11443 19.9989 5.81191 19.8428 6.40538C19.5934 6.95878 19.1439 7.30609 18.6098 7.56722C18.238 10.3265 18.238 10.3265 19.0277 12.8393C19.3988 13.2577 19.8443 13.5957 20.3171 13.8917C20.5004 14.0125 20.5004 14.0125 20.5864 14.1844C20.5967 14.3695 20.6016 14.555 20.604 14.7404C20.6049 14.7974 20.6057 14.8544 20.6066 14.9131C20.6093 15.1019 20.6114 15.2907 20.6136 15.4795C20.6153 15.6103 20.6171 15.7411 20.619 15.8718C20.6237 16.2163 20.628 16.5607 20.6321 16.9051C20.6372 17.3183 20.6429 17.7314 20.6485 18.1446C20.6569 18.7724 20.6645 19.4003 20.6723 20.0282C21.5798 20.0282 22.4873 20.0282 23.4223 20.0282C23.4215 19.7135 23.4207 19.3989 23.42 19.0748C23.4212 18.7687 23.4236 18.4627 23.426 18.1567C23.4271 17.9446 23.4272 17.7326 23.4261 17.5205C23.4248 17.215 23.4274 16.9096 23.4307 16.6041C23.4295 16.5099 23.4282 16.4157 23.427 16.3186C23.4379 15.7342 23.536 15.4222 23.9561 15.0088C24.0068 14.9636 24.0576 14.9184 24.1098 14.8719C24.174 14.8103 24.2382 14.7488 24.3043 14.6854C24.386 14.615 24.386 14.615 24.4693 14.5433C25.2865 13.8546 25.2865 13.8546 25.6191 12.8846C25.5786 12.5782 25.5363 12.4321 25.3193 12.2112C25.1213 12.0753 25.1213 12.0753 24.9057 11.9665C24.508 11.757 24.3332 11.4165 24.1957 11.0047C24.1265 10.3306 24.1015 9.66479 24.5395 9.11409C24.922 8.7098 25.2863 8.45581 25.8517 8.39772C26.5628 8.38988 27.0819 8.41128 27.6111 8.912C28.1208 9.47055 28.1887 9.96149 28.1754 10.7083C28.1248 11.2734 27.9212 11.6075 27.5043 11.9823C27.3003 12.1483 27.0956 12.2644 26.8598 12.3797C26.8603 12.4308 26.8609 12.4819 26.8615 12.5345C26.8622 12.7694 26.8584 13.0041 26.8544 13.2391C26.8554 13.3194 26.8563 13.3997 26.8573 13.4825C26.8439 14.0297 26.7354 14.3316 26.349 14.7227C26.1771 14.8679 26.0031 14.9872 25.8128 15.1069C25.348 15.419 25.0149 15.7206 24.7973 16.2469C24.5733 17.4711 24.7208 18.796 24.7973 20.0282C25.7048 20.0282 26.6123 20.0282 27.5473 20.0282C27.5461 19.7051 27.5461 19.7051 27.545 19.3756C27.5462 19.1651 27.5486 18.9546 27.551 18.7441C27.5521 18.5988 27.5522 18.4534 27.5511 18.3081C27.5427 16.9447 27.5427 16.9447 27.9125 16.5121C28.0769 16.3645 28.0769 16.3645 28.2348 16.2469C28.31 16.1869 28.3852 16.1268 28.4627 16.065C28.5599 15.9902 28.5599 15.9902 28.6591 15.9139C28.9296 15.653 29.0291 15.4733 29.0452 15.1045C29.0445 14.9006 29.0357 14.7009 29.0174 14.4978C28.9766 13.9924 29.0705 13.6631 29.352 13.2391C29.502 13.0652 29.502 13.0652 29.6474 12.949C29.6951 12.9094 29.7429 12.8697 29.7921 12.8289C30.3491 12.4653 30.9425 12.494 31.5864 12.5516C32.1197 12.6918 32.4918 13.0409 32.7895 13.4969C33.0651 14.0519 33.0614 14.7494 32.9053 15.3429C32.6823 15.8376 32.2974 16.1779 31.8277 16.4366C31.5559 16.5133 31.3336 16.4914 31.0551 16.4625C30.4977 16.4153 30.0035 16.4347 29.5419 16.7782C29.1735 17.0929 28.949 17.4171 28.8854 17.905C28.8769 18.2277 28.882 18.5468 28.8934 18.8693C28.8955 18.9809 28.8976 19.0925 28.8997 19.2074C28.9052 19.4811 28.9127 19.7546 28.9223 20.0282C29.6186 20.0322 30.315 20.0352 31.0113 20.0371C31.3348 20.0379 31.6582 20.0392 31.9817 20.0411C32.2948 20.043 32.608 20.044 32.9212 20.0445C33.0396 20.0448 33.1581 20.0454 33.2765 20.0463C35.0221 20.0596 36.568 19.8076 37.8598 18.5672C38.9473 17.3896 39.221 16.112 39.1639 14.5682C39.102 13.6955 38.7095 12.9877 38.2036 12.2938C38.1471 12.212 38.1471 12.212 38.0894 12.1286C37.3468 11.1533 36.1648 10.6504 34.9916 10.4569C34.1463 10.3598 33.4056 10.4954 32.6116 10.7805C32.3729 10.8558 32.1773 10.8673 31.9301 10.8328C31.7451 10.732 31.7451 10.732 31.5864 10.575C31.5528 10.3557 31.5528 10.3557 31.5649 10.0943C31.5675 9.9986 31.5702 9.90289 31.5729 9.80428C31.5818 9.60464 31.5907 9.40502 31.5998 9.2054C31.6257 8.26552 31.4226 7.52591 30.8106 6.79948C30.1351 6.09188 29.4044 5.68044 28.4136 5.63616C27.5593 5.62403 26.8893 5.80832 26.1884 6.29964C25.9551 6.46305 25.8332 6.53498 25.5493 6.59505C25.2226 6.51338 25.1053 6.35774 24.8832 6.10628C24.7677 5.90289 24.6624 5.70383 24.561 5.49397C24.2518 4.88618 23.8821 4.37797 23.4223 3.8719C23.375 3.81762 23.3277 3.76334 23.279 3.70741C21.9923 2.31593 20.0134 1.54768 18.1476 1.46297C16.1123 1.48053 14.2774 2.15486 12.7661 3.52815ZM17.4604 5.12874C17.2789 5.39402 17.2681 5.53293 17.3207 5.84847C17.4496 6.06331 17.4496 6.06331 17.6645 6.19222C17.98 6.24481 18.1189 6.23407 18.3842 6.05257C18.5657 5.78729 18.5765 5.64838 18.5239 5.33284C18.395 5.118 18.395 5.118 18.1801 4.98909C17.8646 4.9365 17.7257 4.94723 17.4604 5.12874ZM25.7104 9.94124C25.5289 10.2065 25.5181 10.3454 25.5707 10.661C25.6996 10.8758 25.6996 10.8758 25.9145 11.0047C26.23 11.0573 26.3689 11.0466 26.6342 10.8651C26.8157 10.5998 26.8265 10.4609 26.7739 10.1453C26.645 9.9305 26.645 9.9305 26.4301 9.80159C26.1146 9.749 25.9757 9.75973 25.7104 9.94124ZM12.6479 13.3787C12.4664 13.644 12.4556 13.7829 12.5082 14.0985C12.6371 14.3133 12.6371 14.3133 12.852 14.4422C13.1675 14.4948 13.3064 14.4841 13.5717 14.3026C13.7532 14.0373 13.764 13.8984 13.7114 13.5828C13.5825 13.368 13.5825 13.368 13.3676 13.2391C13.0521 13.1865 12.9132 13.1972 12.6479 13.3787ZM30.5229 14.0662C30.3414 14.3315 30.3306 14.4704 30.3832 14.786C30.5121 15.0008 30.5121 15.0008 30.727 15.1297C31.0425 15.1823 31.1814 15.1716 31.4467 14.9901C31.6282 14.7248 31.639 14.5859 31.5864 14.2703C31.4575 14.0555 31.4575 14.0555 31.2426 13.9266C30.9271 13.874 30.7882 13.8847 30.5229 14.0662ZM1.4223 29.6532C1.4223 33.51 1.4223 37.3669 1.4223 41.3406C5.0523 41.3406 8.6823 41.3406 12.4223 41.3406C12.6077 38.1034 12.6077 38.1034 12.5969 34.8658C12.5928 34.7728 12.5888 34.6797 12.5846 34.5839C12.5071 33.0145 12.3767 31.6284 11.1871 30.488C10.1083 29.5826 8.70554 29.5458 7.36273 29.4813C7.28313 29.4774 7.20353 29.4736 7.12152 29.4696C5.21898 29.3911 3.32224 29.5554 1.4223 29.6532ZM16.5473 29.6532C16.5473 33.51 16.5473 37.3669 16.5473 41.3406C20.1773 41.3406 23.8073 41.3406 27.5473 41.3406C27.7327 38.1034 27.7327 38.1034 27.7219 34.8658C27.7178 34.7728 27.7138 34.6797 27.7096 34.5839C27.6321 33.0145 27.5017 31.6284 26.3121 30.488C25.2333 29.5826 23.8305 29.5458 22.4877 29.4813C22.4081 29.4774 22.3285 29.4736 22.2465 29.4696C20.344 29.3911 18.4472 29.5554 16.5473 29.6532ZM31.6723 29.6532C31.6723 33.51 31.6723 37.3669 31.6723 41.3406C35.3023 41.3406 38.9323 41.3406 42.6723 41.3406C42.8577 38.1034 42.8577 38.1034 42.8469 34.8658C42.8428 34.7728 42.8388 34.6797 42.8346 34.5839C42.7571 33.0145 42.6267 31.6284 41.4371 30.488C40.3583 29.5826 38.9555 29.5458 37.6127 29.4813C37.5331 29.4774 37.4535 29.4736 37.3715 29.4696C35.469 29.3911 33.5722 29.5554 31.6723 29.6532Z" fill="black"></path>
</svg>
