<?xml version="1.0" encoding="UTF-8"?>
<svg xmlns="http://www.w3.org/2000/svg" width="48" height="48" viewBox="0 0 48 48" fill="none">
  <path d="M34.7971 2.42101C35.7011 3.37329 35.7514 4.6507 35.9042 5.88867C35.9285 6.07817 35.953 6.26765 35.9776 6.45712C36.0416 6.95318 36.1043 7.44941 36.1665 7.9457C36.2668 8.74266 36.3694 9.53934 36.4717 10.336C36.5073 10.6142 36.5423 10.8925 36.5772 11.1708C36.5987 11.3403 36.6203 11.5097 36.6418 11.6792C36.6514 11.7568 36.661 11.8344 36.6709 11.9144C36.714 12.2972 36.714 12.2972 36.8435 12.6562C36.9097 12.5548 36.9097 12.5548 36.9773 12.4513C37.3956 11.8107 37.8149 11.1708 38.2352 10.5315C38.4933 10.1386 38.75 9.74477 39.0056 9.35015C39.1701 9.09661 39.3356 8.84376 39.5014 8.59103C39.5801 8.47053 39.6584 8.34974 39.7363 8.22866C40.3196 7.32198 40.9455 6.43092 42.0056 6.05822C42.9482 5.85893 43.9882 5.8915 44.8221 6.40209C45.6533 6.98535 46.1655 7.68755 46.3624 8.69384C46.516 9.94346 46.0605 10.8592 45.3846 11.8715C45.3194 11.9703 45.3194 11.9703 45.2528 12.0712C45.1122 12.2841 44.971 12.4965 44.8298 12.709C44.7318 12.8572 44.6339 13.0054 44.5359 13.1537C44.3419 13.4475 44.1476 13.7412 43.9533 14.0349C43.6123 14.5504 43.2743 15.0679 42.9372 15.5859C42.8824 15.6702 42.8275 15.7545 42.7709 15.8413C42.6624 16.0079 42.554 16.1745 42.4455 16.3411C42.2125 16.6989 41.9791 17.0565 41.7458 17.4141C41.2027 18.2465 40.66 19.0792 40.1191 19.9129C39.8376 20.3466 39.5548 20.7793 39.2707 21.2113C39.2061 21.3097 39.1416 21.4082 39.075 21.5096C38.9489 21.7016 38.8226 21.8935 38.696 22.0853C38.6391 22.172 38.5823 22.2587 38.5237 22.348C38.473 22.4249 38.4223 22.5019 38.3701 22.5811C38.1463 22.9532 38.1568 23.1919 38.2123 23.6115C38.2272 23.7261 38.2421 23.8407 38.2574 23.9588C38.2745 24.086 38.2917 24.2133 38.3089 24.3405C38.3265 24.4743 38.344 24.6081 38.3615 24.742C38.3993 25.0304 38.4375 25.3187 38.476 25.607C38.5369 26.0632 38.5969 26.5195 38.6567 26.9757C38.7731 27.8625 38.8905 28.7491 39.008 29.6357C39.1573 30.7628 39.3062 31.89 39.4542 33.0173C39.5138 33.4706 39.5738 33.9238 39.6341 34.377C39.6717 34.6595 39.7089 34.942 39.746 35.2245C39.7632 35.3552 39.7806 35.4859 39.7982 35.6165C39.8222 35.7954 39.8456 35.9744 39.869 36.1533C39.8889 36.3033 39.8889 36.3033 39.9092 36.4563C39.992 37.3233 39.8783 38.1284 39.4033 38.8748C38.68 39.7503 37.7574 40.0399 36.6603 40.1537C36.5628 40.1621 36.4653 40.1705 36.3649 40.1792C34.8583 40.3135 33.4739 40.6339 32.0315 41.0793C31.8392 41.1378 31.647 41.1961 31.4546 41.2543C31.0501 41.377 30.6458 41.5002 30.2417 41.624C29.6341 41.8099 29.026 41.9937 28.4176 42.1769C27.5982 42.4237 26.779 42.671 25.9599 42.9188C25.1 43.179 24.24 43.4388 23.3799 43.6981C23.2714 43.7308 23.1629 43.7635 23.0512 43.7972C22.6198 43.9273 22.1884 44.0574 21.757 44.1875C20.6187 44.5307 19.4806 44.8749 18.3436 45.2225C17.868 45.3679 17.3919 45.5119 16.9158 45.6557C16.7121 45.7176 16.5084 45.78 16.305 45.843C13.942 46.5745 13.942 46.5745 12.7128 46.0671C11.7558 45.5592 11.3128 44.771 10.9884 43.765C10.9345 43.5866 10.8815 43.4079 10.8293 43.229C10.7838 43.0769 10.7838 43.0769 10.7373 42.9218C10.6522 42.6368 10.5678 42.3516 10.4837 42.0663C10.3898 41.7486 10.2948 41.4311 10.1999 41.1137C10.0483 40.6061 9.89697 40.0984 9.746 39.5907C9.39079 38.396 9.03307 37.2022 8.67491 36.0084C8.62872 35.8544 8.62872 35.8544 8.58158 35.6973C8.45407 35.2723 8.32654 34.8473 8.19899 34.4223C8.00105 33.7628 7.80322 33.1033 7.60548 32.4437C6.73246 29.5317 5.85627 26.6208 4.97693 23.7108C4.75417 22.9736 4.53155 22.2363 4.30904 21.499C4.27855 21.398 4.24807 21.297 4.21666 21.1929C4.09691 20.7962 3.97716 20.3994 3.85743 20.0026C3.54935 18.9818 3.24095 17.961 2.9313 16.9406C2.75507 16.3598 2.57963 15.7787 2.40458 15.1975C2.33785 14.9765 2.27081 14.7556 2.20344 14.5347C2.1147 14.2438 2.02699 13.9525 1.93956 13.6611C1.91472 13.5807 1.88989 13.5002 1.8643 13.4173C1.58189 12.4662 1.47524 11.5527 1.89269 10.6274C2.64895 9.25092 4.11479 8.94708 5.53209 8.53234C5.69739 8.4834 5.69739 8.4834 5.86602 8.43346C6.09622 8.36541 6.32649 8.2976 6.55682 8.23001C6.91079 8.12611 7.26452 8.02139 7.61821 7.91656C7.84275 7.85029 8.0673 7.78406 8.29186 7.71789C8.3978 7.68655 8.50375 7.65521 8.6129 7.62292C8.71031 7.5944 8.80772 7.56588 8.90808 7.5365C8.99392 7.51127 9.07976 7.48603 9.16821 7.46004C9.37474 7.40624 9.37474 7.40624 9.56224 7.40624C9.53131 7.31343 9.50037 7.22062 9.46849 7.12499C9.53232 6.28314 9.85885 5.56703 10.4704 4.98632C11.3192 4.31944 12.3071 4.21178 13.3477 4.08091C13.5015 4.06063 13.6554 4.04024 13.8092 4.01975C14.2258 3.96459 14.6425 3.91095 15.0593 3.85759C15.5005 3.80081 15.9416 3.74262 16.3827 3.68459C17.2221 3.57438 18.0616 3.46543 18.9012 3.35694C19.8397 3.2356 20.778 3.1129 21.7163 2.99006C22.8884 2.83662 24.0605 2.68341 25.2328 2.53182C25.3188 2.5207 25.4048 2.50957 25.4935 2.49811C25.5786 2.48709 25.6638 2.47608 25.7515 2.46474C25.9206 2.44287 26.0896 2.421 26.2587 2.39913C26.341 2.3885 26.4232 2.37786 26.508 2.3669C27.5302 2.23461 28.552 2.09934 29.5733 1.9595C29.7781 1.93171 29.9829 1.90394 30.1877 1.87619C30.5384 1.82866 30.889 1.7798 31.2394 1.72999C32.5645 1.54717 33.7148 1.51193 34.7971 2.42101ZM30.2065 3.41688C30.0185 3.44156 29.8306 3.4662 29.6426 3.49078C29.1341 3.55745 28.6256 3.62487 28.1172 3.69245C27.5841 3.76321 27.0509 3.83332 26.5176 3.90352C25.6223 4.02149 24.7271 4.13992 23.8319 4.25866C22.7983 4.39575 21.7646 4.5322 20.7309 4.66828C19.7348 4.79942 18.7386 4.93092 17.7426 5.06262C17.3195 5.11856 16.8963 5.17439 16.4732 5.23014C15.9745 5.29587 15.4759 5.36192 14.9773 5.42821C14.7948 5.45243 14.6122 5.47654 14.4297 5.50054C12.6757 5.60882 12.6757 5.60882 11.2497 6.46874C10.7997 7.22277 11.1031 8.33148 11.214 9.15337C11.2306 9.27971 11.2471 9.40604 11.2635 9.53239C11.3085 9.87696 11.3543 10.2214 11.4003 10.5658C11.4499 10.9384 11.4987 11.311 11.5476 11.6836C11.6323 12.3286 11.7175 12.9736 11.8031 13.6185C11.927 14.5524 12.0502 15.4864 12.1731 16.4205C12.373 17.9382 12.5735 19.4558 12.7743 20.9733C12.9688 22.4435 13.1631 23.9138 13.357 25.384C13.3689 25.4745 13.3809 25.5651 13.3932 25.6583C13.4531 26.1126 13.513 26.5668 13.5729 27.0211C13.9391 29.7985 14.3057 32.5758 14.673 35.3531C14.7017 35.5705 14.7305 35.788 14.7592 36.0055C14.8039 36.3431 14.8485 36.6807 14.8932 37.0183C14.9167 37.1963 14.9402 37.3742 14.9638 37.5522C14.9924 37.7687 15.0212 37.9852 15.0502 38.2017C15.0812 38.4379 15.1112 38.6741 15.1401 38.9106C15.148 38.9739 15.156 39.0372 15.1641 39.1024C15.1863 39.2794 15.2079 39.4565 15.2296 39.6336C15.3201 40.1689 15.4972 40.5365 15.8962 40.916C16.5487 41.3343 17.3743 41.1564 18.1055 41.0585C18.1874 41.048 18.2692 41.0374 18.3536 41.0266C18.6257 40.9915 18.8977 40.9556 19.1697 40.9197C19.3656 40.8943 19.5616 40.8689 19.7575 40.8435C20.2881 40.7747 20.8186 40.7052 21.349 40.6354C21.7922 40.5773 22.2353 40.5194 22.6785 40.4615C23.7238 40.3249 24.7689 40.1877 25.8141 40.0502C26.8922 39.9083 27.9704 39.7676 29.0488 39.6275C29.9751 39.507 30.9014 39.3858 31.8276 39.2639C32.3806 39.1912 32.9336 39.1188 33.4867 39.0471C34.0064 38.9798 34.5261 38.9114 35.0456 38.8424C35.2363 38.8172 35.427 38.7923 35.6177 38.7679C35.8781 38.7344 36.1383 38.6997 36.3984 38.6647C36.4739 38.6553 36.5494 38.6459 36.6272 38.6363C37.1801 38.5598 37.69 38.4267 38.0447 37.9629C38.5997 37.2175 38.3258 36.1832 38.2088 35.3118C38.1944 35.2012 38.1801 35.0906 38.1654 34.9766C38.1263 34.6765 38.0867 34.3766 38.0468 34.0766C38.0134 33.8257 37.9805 33.5747 37.9476 33.3237C37.87 32.7322 37.7917 32.1408 37.7129 31.5495C37.6317 30.9394 37.5516 30.3291 37.472 29.7188C37.4035 29.1937 37.3344 28.6687 37.2647 28.1437C37.2231 27.8306 37.1818 27.5174 37.1411 27.2042C37.0957 26.8562 37.0492 26.5084 37.0025 26.1606C36.9891 26.0565 36.9758 25.9524 36.962 25.8451C36.9491 25.751 36.9363 25.6569 36.923 25.56C36.9067 25.4366 36.9067 25.4366 36.89 25.3108C36.8746 25.2495 36.8593 25.1882 36.8435 25.125C36.7816 25.0941 36.7197 25.0631 36.656 25.0312C36.6211 25.0864 36.5863 25.1415 36.5504 25.1983C35.9156 26.2014 35.28 27.2032 34.6158 28.1873C34.4761 28.3943 34.34 28.6026 34.2049 28.8127C33.6476 29.6759 33.0365 30.2599 32.2395 30.9012C31.9692 31.1244 31.7106 31.3563 31.4529 31.5937C30.9539 32.0527 30.4351 32.4826 29.906 32.9062C29.829 32.9734 29.752 33.0406 29.6727 33.1099C29.2452 33.421 28.7181 33.4899 28.1954 33.4545C27.7343 33.3601 27.3201 33.1612 26.9997 32.8125C26.6592 32.2198 26.5254 31.6602 26.6781 30.9819C26.7495 30.7175 26.8265 30.4554 26.906 30.1934C26.9328 30.1024 26.9597 30.0115 26.9873 29.9178C27.0532 29.6949 27.12 29.4724 27.1872 29.25C26.2102 29.3039 25.2468 29.4155 24.2774 29.5446C24.0173 29.5793 23.7571 29.6134 23.4969 29.6474C22.9457 29.7196 22.3946 29.7924 21.8435 29.8652C21.2017 29.95 20.5598 30.0346 19.9178 30.1186C19.6622 30.1521 19.4066 30.1861 19.151 30.2202C18.9942 30.2407 18.8374 30.2613 18.6805 30.2818C18.6101 30.2913 18.5397 30.3008 18.4671 30.3106C17.4411 30.4435 17.4411 30.4435 17.0681 30.1816C16.8747 29.9062 16.8747 29.9062 16.863 29.5664C16.9685 29.25 16.9685 29.25 17.1508 29.099C17.5513 28.9169 17.9423 28.8723 18.3766 28.8178C18.4708 28.8051 18.5651 28.7924 18.6622 28.7794C18.9734 28.7377 19.2847 28.6976 19.5961 28.6575C19.8126 28.6288 20.0292 28.6 20.2458 28.5711C20.8159 28.4953 21.3861 28.4207 21.9564 28.3465C22.536 28.2708 23.1154 28.194 23.6949 28.1173C24.3462 28.0311 24.9975 27.9449 25.649 27.8598C25.7482 27.8468 25.8474 27.8338 25.9497 27.8204C26.1343 27.7962 26.319 27.7721 26.5037 27.7481C26.9205 27.6934 27.3356 27.6352 27.7497 27.5625C27.7784 27.4592 27.807 27.3558 27.8365 27.2494C28.1418 26.2131 28.5719 25.3849 29.1892 24.5029C29.4251 24.1641 29.6546 23.821 29.8842 23.4779C30.0027 23.3008 30.1218 23.1242 30.2416 22.9479C30.3226 22.8279 30.3226 22.8279 30.4051 22.7054C30.4536 22.6341 30.502 22.5627 30.5519 22.4892C30.6719 22.3198 30.6719 22.3198 30.656 22.125C30.5667 22.137 30.5667 22.137 30.4756 22.1493C29.8505 22.2333 29.2253 22.3169 28.6001 22.4002C28.3674 22.4313 28.1347 22.4625 27.9021 22.4938C27.5658 22.539 27.2295 22.5838 26.8932 22.6285C26.7908 22.6424 26.6884 22.6563 26.5829 22.6706C26.0648 22.739 25.5462 22.7999 25.0259 22.8494C24.8791 22.8636 24.8791 22.8636 24.7293 22.8782C24.4555 22.8748 24.3187 22.8396 24.0935 22.6875C23.9505 22.4016 23.9777 22.1585 23.9997 21.8437C24.1945 21.5862 24.3622 21.5185 24.6751 21.4636C24.7587 21.449 24.8423 21.4343 24.9285 21.4192C25.448 21.34 25.9684 21.2688 26.4896 21.2018C26.6989 21.1749 26.9082 21.1475 27.1174 21.1201C27.5606 21.0622 28.0038 21.0047 28.447 20.9473C28.9633 20.8803 29.4795 20.8132 29.9957 20.7456C30.2016 20.7187 30.4077 20.6922 30.6137 20.6657C30.7396 20.6493 30.8654 20.6328 30.9912 20.6164C31.101 20.6022 31.2108 20.5879 31.324 20.5733C31.7384 20.5136 31.7384 20.5136 32.0295 20.234C32.0849 20.1453 32.1403 20.0565 32.1974 19.9651C32.2593 19.8668 32.3213 19.7686 32.3852 19.6674C32.4176 19.6152 32.45 19.563 32.4834 19.5092C32.6181 19.2922 32.7546 19.0764 32.891 18.8604C32.9588 18.753 33.0265 18.6455 33.0941 18.538C33.3459 18.1379 33.6033 17.742 33.8669 17.3496C33.9022 17.2965 33.9375 17.2435 33.9738 17.1888C34.1841 16.8736 34.4 16.563 34.6191 16.2539C34.6713 16.179 34.7235 16.104 34.7772 16.0268C34.8784 15.8816 34.9809 15.7373 35.085 15.5942C35.1309 15.5278 35.1768 15.4614 35.2241 15.3929C35.2653 15.3351 35.3064 15.2773 35.3489 15.2177C35.5849 14.6363 35.4032 13.8869 35.3212 13.2817C35.3089 13.1877 35.2965 13.0937 35.2838 12.9969C35.2431 12.688 35.2016 12.3791 35.16 12.0703C35.1313 11.8546 35.1025 11.6389 35.0738 11.4231C35.0135 10.9717 34.9528 10.5203 34.8919 10.069C34.8141 9.49159 34.7375 8.91405 34.6612 8.33646C34.6022 7.89113 34.5424 7.44591 34.4824 7.00072C34.4538 6.78786 34.4255 6.57496 34.3976 6.36203C34.3583 6.06398 34.3178 5.76611 34.2772 5.46826C34.2659 5.38096 34.2546 5.29367 34.243 5.20373C34.1104 4.24246 34.1104 4.24246 33.5622 3.4746C32.6603 2.8545 31.2295 3.28006 30.2065 3.41688ZM41.748 8.08302C41.7 8.15855 41.6519 8.23407 41.6024 8.31188C41.5534 8.38803 41.5044 8.46417 41.454 8.54262C41.3993 8.6298 41.3993 8.6298 41.3435 8.71874C41.4087 8.76222 41.4739 8.8057 41.5411 8.85049C43.5935 10.2187 43.5935 10.2187 43.8972 10.429C44.1312 10.6105 44.1312 10.6105 44.3435 10.5937C44.7425 10.0039 44.9233 9.5275 44.8122 8.81249C44.6172 8.26842 44.2829 7.92669 43.8044 7.61132C43.0683 7.34235 42.2459 7.42728 41.748 8.08302ZM8.85916 9.14034C8.7559 9.17104 8.65263 9.20174 8.54624 9.23337C8.4351 9.26705 8.32397 9.30074 8.20946 9.33544C8.0948 9.36993 7.98013 9.40441 7.86199 9.43995C7.61934 9.51313 7.37678 9.58655 7.13431 9.66032C6.82486 9.7544 6.51502 9.84715 6.20506 9.93955C5.90809 10.0283 5.61154 10.1185 5.31493 10.2085C5.14879 10.2579 5.14879 10.2579 4.9793 10.3083C4.31203 10.5131 3.80995 10.6884 3.33959 11.2207C3.03544 11.8407 3.18158 12.4824 3.38209 13.1179C3.40309 13.1878 3.42409 13.2576 3.44573 13.3296C3.51582 13.5618 3.58755 13.7935 3.65929 14.0251C3.71022 14.1927 3.76104 14.3603 3.81177 14.5279C3.92142 14.8895 4.03179 15.2509 4.14273 15.612C4.32125 16.1933 4.49815 16.775 4.67479 17.3567C4.86157 17.9716 5.04847 18.5864 5.23592 19.2011C5.67399 20.6375 6.10899 22.0748 6.54137 23.5129C6.57122 23.6122 6.60108 23.7115 6.63184 23.8138C6.78268 24.3156 6.93345 24.8173 7.08421 25.3191C7.35697 26.2268 7.63025 27.1344 7.90348 28.042C8.05467 28.5443 8.20584 29.0465 8.357 29.5488C8.38683 29.6479 8.41666 29.747 8.44739 29.8491C8.68871 30.651 8.92996 31.4529 9.17118 32.2547C9.40685 33.0381 9.64256 33.8215 9.87831 34.6049C10.0152 35.0599 10.1521 35.515 10.289 35.97C10.5625 36.8795 10.8364 37.7888 11.111 38.6979C11.278 39.2507 11.444 39.8039 11.6096 40.3571C11.7295 40.757 11.8499 41.1567 11.9704 41.5564C12.0283 41.7487 12.0859 41.941 12.1433 42.1335C12.223 42.4004 12.3034 42.667 12.3841 42.9336C12.4075 43.0127 12.4309 43.0919 12.455 43.1734C12.6614 43.8507 12.9001 44.3036 13.4997 44.7187C14.1716 44.924 14.7764 44.6648 15.4249 44.4642C15.5528 44.4258 15.6806 44.3874 15.8086 44.3492C16.083 44.2669 16.3572 44.1838 16.6312 44.1001C17.0673 43.9669 17.5042 43.836 17.9411 43.7054C18.7726 43.4566 19.6035 43.2059 20.4343 42.9547C20.8279 42.8358 21.2215 42.717 21.6152 42.5982C22.3788 42.3677 23.1424 42.1371 23.906 41.9062C23.906 41.8753 23.906 41.8444 23.906 41.8125C23.0675 41.8495 22.2418 41.9468 21.4106 42.059C21.2492 42.0807 21.2492 42.0807 21.0846 42.1028C20.6346 42.1636 20.1847 42.2249 19.735 42.2873C15.9121 42.8156 15.9121 42.8156 14.7829 41.9766C13.8194 40.9906 13.7633 39.6487 13.5941 38.3346C13.5773 38.207 13.5604 38.0794 13.5435 37.9518C13.4977 37.6053 13.4526 37.2587 13.4075 36.9121C13.3587 36.5369 13.3092 36.1616 13.2597 35.7864C13.1744 35.1377 13.0894 34.4889 13.0047 33.8401C12.8822 32.902 12.7592 31.964 12.6359 31.026C12.436 29.5039 12.2366 27.9817 12.0374 26.4595C11.8441 24.9815 11.6505 23.5036 11.4566 22.0257C11.4387 21.8888 11.4387 21.8888 11.4204 21.7492C11.3603 21.2915 11.3003 20.8338 11.2402 20.3762C10.7427 16.5842 10.246 12.7921 9.74974 8.99999C9.4029 8.99999 9.18633 9.04234 8.85916 9.14034ZM40.406 10.0312C40.2513 10.3097 40.0966 10.5881 39.9372 10.875C39.9953 10.9118 40.0534 10.9486 40.1132 10.9866C40.3808 11.1563 40.6483 11.3262 40.9158 11.4961C41.0071 11.554 41.0984 11.6119 41.1924 11.6715C41.7475 12.0242 42.2982 12.3824 42.8435 12.75C43.0698 12.4784 43.2547 12.2252 43.406 11.9062C43.3408 11.8628 43.2756 11.8193 43.2084 11.7745C41.156 10.4062 41.156 10.4062 40.8523 10.1959C40.6183 10.0145 40.6183 10.0145 40.406 10.0312ZM38.9997 12.1875C38.8703 12.3317 38.8703 12.3317 38.7591 12.5277C38.7141 12.6008 38.6692 12.6739 38.6228 12.7492C38.5513 12.8685 38.5513 12.8685 38.4783 12.9902C38.3764 13.156 38.2743 13.3216 38.1721 13.4872C38.1215 13.5696 38.071 13.6519 38.0188 13.7368C37.8271 14.0454 37.6269 14.3475 37.4236 14.6484C37.0317 15.2311 36.6466 15.8179 36.2634 16.4062C36.2035 16.4983 36.1435 16.5903 36.0818 16.6851C35.959 16.8737 35.8363 17.0623 35.7135 17.2509C35.4224 17.698 35.131 18.1449 34.8396 18.5918C34.7821 18.68 34.7246 18.7681 34.6654 18.8589C34.1529 19.6446 33.6396 20.4297 33.1261 21.2147C32.8026 21.7092 32.4794 22.2039 32.1571 22.6992C32.0973 22.7911 32.0375 22.883 31.9758 22.9776C31.8591 23.157 31.7425 23.3364 31.6261 23.516C31.3504 23.9401 31.0714 24.3612 30.7838 24.7775C30.7039 24.8939 30.7039 24.8939 30.6224 25.0128C30.5226 25.1577 30.4218 25.3021 30.3199 25.4456C30.2761 25.5094 30.2323 25.5731 30.1872 25.6388C30.1486 25.6938 30.1099 25.7488 30.0701 25.8055C29.9846 25.9689 29.9846 25.9689 30.015 26.1621C30.1122 26.3871 30.2043 26.4516 30.4117 26.5796C30.4777 26.6211 30.5436 26.6627 30.6115 26.7054C30.6823 26.7485 30.753 26.7916 30.8259 26.8359C30.971 26.9268 31.116 27.0177 31.261 27.1088C31.3329 27.1535 31.4049 27.1982 31.4791 27.2443C31.773 27.4288 32.0611 27.621 32.3494 27.8144C32.4394 27.8748 32.5294 27.9351 32.6222 27.9972C32.6849 28.0394 32.7476 28.0815 32.8122 28.125C33.0693 27.8117 33.3023 27.4928 33.5231 27.1531C33.5865 27.0557 33.65 26.9584 33.7153 26.8581C33.7834 26.753 33.8516 26.648 33.9197 26.543C33.9911 26.4333 34.0625 26.3236 34.1339 26.2139C34.2797 25.99 34.4254 25.7659 34.571 25.5418C34.8747 25.0743 35.1795 24.6075 35.4841 24.1406C35.5994 23.9639 35.7146 23.7871 35.8298 23.6103C36.2816 22.9177 36.7343 22.2256 37.187 21.5336C37.6772 20.7839 38.1667 20.0338 38.6558 19.2835C39.0338 18.7038 39.4123 18.1244 39.7911 17.5453C39.9924 17.2376 40.1935 16.9298 40.3946 16.6219C40.6465 16.2364 40.8993 15.8515 41.1527 15.4669C41.2651 15.2957 41.3776 15.1244 41.49 14.9531C41.542 14.8747 41.5939 14.7962 41.6475 14.7154C41.7176 14.6083 41.7176 14.6083 41.7892 14.499C41.8301 14.437 41.871 14.3749 41.9132 14.311C42.015 14.1585 42.015 14.1585 41.9997 13.9687C41.8349 13.8355 41.8349 13.8355 41.6193 13.7036C41.5385 13.6518 41.4577 13.5999 41.3744 13.5465C41.246 13.4655 41.246 13.4655 41.115 13.3828C40.9491 13.2769 40.7832 13.1709 40.6173 13.0649C40.4944 12.9871 40.4944 12.9871 40.3691 12.9076C40.0604 12.7084 39.7587 12.4996 39.4582 12.2883C39.2742 12.1643 39.2742 12.1643 38.9997 12.1875ZM29.2497 27.6562C29.1841 27.8355 29.1199 28.0153 29.0564 28.1953C29.0205 28.2954 28.9846 28.3954 28.9476 28.4985C28.8523 28.8412 28.8523 28.8412 28.9685 29.1562C29.2117 29.3089 29.2117 29.3089 29.5076 29.4316C29.9479 29.6376 30.2542 29.8134 30.5622 30.1875C30.861 30.0529 31.0893 29.8872 31.3357 29.6719C31.4019 29.6148 31.4681 29.5578 31.5364 29.499C31.709 29.3574 31.709 29.3574 31.6872 29.1562C31.475 28.9864 31.475 28.9864 31.2016 28.8098C31.101 28.7427 31.0003 28.6757 30.8966 28.6066C30.8437 28.5718 30.7908 28.537 30.7362 28.5012C30.5748 28.3951 30.4141 28.2878 30.2535 28.1803C29.7872 27.8181 29.7872 27.8181 29.2497 27.6562ZM28.3122 30.5625C28.2573 30.7258 28.2051 30.8901 28.154 31.0547C28.1247 31.146 28.0953 31.2374 28.0651 31.3315C28.0028 31.5986 28.0028 31.5986 28.1639 31.8149C28.2129 31.8657 28.2618 31.9165 28.3122 31.9687C28.8139 31.9383 29.0888 31.6409 29.4372 31.3125C29.0894 30.8434 29.0894 30.8434 28.5935 30.5625C28.5007 30.5625 28.4079 30.5625 28.3122 30.5625Z" fill="#FF7705"></path>
  <path d="M32.3435 14.0684C32.5785 14.4135 32.598 14.5902 32.531 15C32.3225 15.2835 32.1872 15.3667 31.8446 15.4576C31.712 15.4773 31.5792 15.495 31.4462 15.5115C31.3698 15.5223 31.2934 15.533 31.2147 15.5441C31.0369 15.5688 30.859 15.5928 30.681 15.6161C30.3433 15.6604 30.0058 15.7068 29.6683 15.7534C28.8919 15.86 28.1151 15.9635 27.3382 16.0665C27.1047 16.0974 26.8712 16.1284 26.6377 16.1594C25.9047 16.2567 25.1718 16.3538 24.4388 16.4506C23.5964 16.5619 22.7541 16.6739 21.912 16.7865C21.2573 16.874 20.6026 16.9608 19.9477 17.0471C19.558 17.0985 19.1683 17.1501 18.7787 17.2025C18.4134 17.2516 18.0481 17.2999 17.6826 17.3475C17.5489 17.3651 17.4152 17.3829 17.2816 17.4011C17.0987 17.426 16.9157 17.4496 16.7326 17.4732C16.5794 17.4936 16.5794 17.4936 16.4231 17.5143C16.0152 17.5375 15.6099 17.5561 15.2868 17.2852C15.1476 16.974 15.1511 16.7434 15.1872 16.4063C15.3246 16.166 15.4061 16.0531 15.67 15.9607C15.7493 15.9495 15.8285 15.9383 15.9101 15.9267C16.0025 15.9129 16.0948 15.899 16.1899 15.8848C16.2922 15.8712 16.3944 15.8577 16.4997 15.8438C16.6081 15.8281 16.7166 15.8125 16.8283 15.7965C17.2068 15.7428 17.5856 15.692 17.9646 15.6417C18.1095 15.6223 18.2544 15.6029 18.3992 15.5835C18.7897 15.5311 19.1802 15.4791 19.5707 15.4272C19.8976 15.3837 20.2244 15.3401 20.5513 15.2965C21.3225 15.1936 22.0937 15.0909 22.8649 14.9885C23.6591 14.8829 24.4533 14.7769 25.2474 14.6705C25.9311 14.579 26.6148 14.4879 27.2986 14.397C27.7061 14.3429 28.1137 14.2886 28.5212 14.2339C28.9042 14.1825 29.2872 14.1316 29.6702 14.0811C29.8103 14.0625 29.9505 14.0437 30.0906 14.0248C31.9209 13.7779 31.9209 13.7779 32.3435 14.0684Z" fill="#FF7705"></path>
  <path d="M31.494 7.59961C31.7361 7.94444 31.7549 8.11803 31.6873 8.53125C31.536 8.78572 31.4077 8.88072 31.1214 8.95738C30.5124 9.07368 29.9024 9.16525 29.2876 9.24562C29.1311 9.26646 29.1311 9.26646 28.9713 9.28772C28.6291 9.33315 28.2869 9.3781 27.9446 9.42298C27.7056 9.45446 27.4666 9.48594 27.2276 9.51743C26.728 9.58315 26.2284 9.64858 25.7288 9.71386C25.1521 9.78921 24.5756 9.86542 23.9992 9.94202C23.4426 10.0159 22.886 10.0889 22.3293 10.1616C22.0932 10.1925 21.8571 10.2237 21.621 10.2552C21.2915 10.2991 20.9619 10.3419 20.6322 10.3845C20.4863 10.4043 20.4863 10.4043 20.3373 10.4245C19.2579 10.5614 19.2579 10.5614 18.8084 10.2539C18.5963 9.94396 18.6101 9.74306 18.6561 9.375C18.7924 9.14041 18.8751 9.02313 19.132 8.92765C19.206 8.91596 19.2801 8.90426 19.3563 8.89221C19.4817 8.8715 19.4817 8.8715 19.6096 8.85037C19.7409 8.83162 19.7409 8.83162 19.8748 8.8125C19.9587 8.79987 20.0426 8.78723 20.1291 8.77421C20.4031 8.73451 20.6774 8.69798 20.9519 8.66213C21.0552 8.64838 21.1586 8.63464 21.265 8.62048C21.6037 8.57553 21.9424 8.53103 22.2812 8.48658C22.5179 8.45533 22.7546 8.42407 22.9913 8.39279C23.4861 8.3275 23.9809 8.26244 24.4757 8.19754C25.0464 8.12269 25.6171 8.04729 26.1877 7.97163C26.7389 7.89857 27.2901 7.82598 27.8414 7.75358C28.075 7.72284 28.3087 7.69196 28.5423 7.66095C28.8687 7.61768 29.1951 7.57496 29.5216 7.53237C29.6177 7.51951 29.7138 7.50666 29.8128 7.49341C31.1049 7.32646 31.1049 7.32646 31.494 7.59961Z" fill="#FF7705"></path>
  <path d="M24.6272 34.8281C24.7734 35.1065 24.7989 35.3145 24.8093 35.625C24.7161 35.9213 24.5363 36.017 24.2815 36.1875C24.0392 36.2476 23.8223 36.2884 23.5766 36.3168C23.4743 36.3305 23.4743 36.3305 23.3698 36.3444C23.1485 36.3737 22.927 36.4008 22.7054 36.4277C22.5528 36.4473 22.4003 36.4671 22.2477 36.4869C21.9434 36.5263 21.6389 36.5648 21.3343 36.6026C20.9568 36.6495 20.5799 36.7 20.2031 36.7518C20.004 36.7786 19.8049 36.8054 19.6058 36.832C19.5164 36.8444 19.4269 36.8568 19.3348 36.8696C18.3216 36.9995 18.3216 36.9995 17.8714 36.6914C17.6579 36.3794 17.6662 36.1827 17.719 35.8125C17.8712 35.5566 18.0002 35.4624 18.288 35.386C18.8669 35.2759 19.4461 35.1854 20.0302 35.1086C20.1221 35.0964 20.2141 35.0842 20.3088 35.0716C20.5019 35.0461 20.695 35.0207 20.8881 34.9955C21.1809 34.9572 21.4736 34.9178 21.7662 34.8783C21.9551 34.8535 22.144 34.8287 22.3329 34.804C22.462 34.7864 22.462 34.7864 22.5937 34.7685C24.1609 34.5678 24.1609 34.5678 24.6272 34.8281Z" fill="#FF7705"></path>
  <path d="M20.4373 22.2246C20.6723 22.5697 20.6919 22.7465 20.6248 23.1562C20.5018 23.373 20.5018 23.373 20.2498 23.5312C19.55 23.7006 18.8244 23.7789 18.1111 23.8711C18.0177 23.8837 17.9242 23.8962 17.8279 23.9092C16.6199 24.0667 16.6199 24.0667 16.2361 23.8535C15.9663 23.5528 15.9303 23.3705 15.9373 22.9687C16.0604 22.7051 16.0604 22.7051 16.3123 22.5C16.966 22.3098 17.6661 22.2472 18.3396 22.1602C18.4781 22.1413 18.4781 22.1413 18.6194 22.1221C20.0217 21.9388 20.0217 21.9388 20.4373 22.2246Z" fill="#FF7705"></path>
</svg>
