<?xml version="1.0" encoding="UTF-8"?>
<svg xmlns="http://www.w3.org/2000/svg" width="48" height="48" viewBox="0 0 48 48" fill="none">
  <g clip-path="url(#clip0_4462_132)">
    <path d="M23.9397 7.18367C24.0094 7.18378 24.0791 7.18389 24.151 7.18401C28.1846 7.2017 31.6258 8.7718 34.5921 11.4376C34.6554 11.494 34.7187 11.5504 34.784 11.6086C37.4187 14.099 39.0011 17.9811 39.1126 21.5593C39.1986 25.917 37.7074 29.8306 34.6998 32.9869C34.0947 33.603 33.418 34.1399 32.7288 34.6583C31.8727 35.3231 31.3189 36.1186 31.1653 37.2127C31.109 37.7543 31.1124 38.2939 31.1135 38.8378C31.1122 39.0607 31.1108 39.2835 31.1092 39.5064C31.1071 39.8538 31.1058 40.2012 31.1069 40.5486C31.1078 40.8866 31.105 41.2245 31.1017 41.5625C31.1029 41.6647 31.104 41.767 31.1052 41.8724C31.0909 42.7946 30.7739 43.5649 30.1507 44.2501C29.7931 44.5752 29.3554 44.8666 28.8682 44.9323C28.5886 45.0362 28.5383 45.2239 28.4104 45.4864C27.8193 46.6246 26.8937 47.3833 25.6858 47.8126C24.336 48.214 22.838 48.132 21.5795 47.4914C20.6396 46.9525 19.9071 46.2657 19.4566 45.2601C19.2853 44.9545 19.2003 44.9139 18.8714 44.8184C18.1252 44.5552 17.5311 44.0116 17.1546 43.3126C16.9128 42.7627 16.9377 42.2168 16.9349 41.6273C16.9335 41.5184 16.9321 41.4095 16.9307 41.2973C16.9264 40.9495 16.9232 40.6017 16.9202 40.254C16.9163 39.7977 16.9113 39.3414 16.9056 38.8851C16.9048 38.7303 16.9048 38.7303 16.9041 38.5725C16.8876 37.2685 16.7176 36.0278 15.7835 35.045C15.3974 34.6882 14.9719 34.3861 14.549 34.0749C13.0881 32.9727 11.9142 31.5568 10.9671 30.0001C10.9338 29.9454 10.9004 29.8908 10.8661 29.8345C9.97279 28.3389 9.41648 26.6432 9.09209 24.9376C9.07106 24.8313 9.05004 24.7251 9.02837 24.6157C8.38417 20.7284 9.41958 16.6579 11.6955 13.4707C11.9971 13.0573 12.3148 12.6639 12.6546 12.2813C12.6963 12.2338 12.7381 12.1864 12.7811 12.1374C12.9125 11.9898 13.0466 11.8453 13.1819 11.7012C13.3027 11.5716 13.3027 11.5716 13.4258 11.4394C13.7545 11.2001 13.944 11.2059 14.3421 11.2501C14.5647 11.3497 14.5647 11.3497 14.7171 11.5313C14.8318 11.9113 14.852 12.1035 14.6761 12.463C14.4908 12.6844 14.3095 12.8741 14.1019 13.0723C11.8001 15.3227 10.5371 18.7482 10.4652 21.9252C10.4437 25.0255 11.3284 28.1336 13.3108 30.5626C13.355 30.6175 13.3991 30.6724 13.4445 30.729C14.2158 31.6826 15.0496 32.5122 16.0413 33.2403C17.2777 34.1548 17.9807 35.1598 18.3733 36.6563C18.3733 36.7491 18.3733 36.8419 18.3733 36.9376C18.4522 36.9365 18.531 36.9355 18.6122 36.9344C19.3557 36.925 20.0991 36.9179 20.8426 36.9133C21.2249 36.9108 21.6071 36.9075 21.9893 36.9022C22.3583 36.8971 22.7272 36.8943 23.0962 36.8931C23.2369 36.8922 23.3775 36.8905 23.5182 36.888C23.7155 36.8846 23.9126 36.8841 24.1099 36.8844C24.2221 36.8833 24.3343 36.8823 24.45 36.8812C24.8379 36.9545 24.9788 37.0972 25.2171 37.4063C25.2171 37.7492 25.1996 37.9631 24.9886 38.2384C24.6751 38.464 24.4484 38.4489 24.0653 38.4482C24.0049 38.4482 23.9446 38.4482 23.8823 38.4483C23.6825 38.4482 23.4826 38.4475 23.2828 38.4467C23.1443 38.4466 23.0059 38.4464 22.8674 38.4463C22.5027 38.446 22.1381 38.445 21.7734 38.444C21.4014 38.4431 21.0294 38.4426 20.6574 38.4422C19.9273 38.4411 19.1972 38.4395 18.4671 38.4376C18.4712 39.0014 18.4778 39.5652 18.4865 40.129C18.4892 40.3207 18.4912 40.5124 18.4925 40.7041C18.4945 40.9801 18.4989 41.256 18.5037 41.5321C18.5038 41.6173 18.5039 41.7026 18.5041 41.7905C18.516 42.3102 18.5769 42.6281 18.9358 43.0313C19.4179 43.4329 19.7795 43.4604 20.3794 43.4548C20.4664 43.4555 20.5534 43.4562 20.643 43.4568C20.9294 43.4585 21.2158 43.4574 21.5022 43.4561C21.7019 43.4564 21.9015 43.4567 22.1011 43.4572C22.5191 43.4578 22.9371 43.457 23.3551 43.4552C23.8904 43.4531 24.4256 43.4543 24.9609 43.4566C25.373 43.4579 25.7851 43.4575 26.1972 43.4565C26.3946 43.4563 26.5919 43.4566 26.7893 43.4574C27.0653 43.4584 27.3412 43.4569 27.6172 43.4548C27.7391 43.456 27.7391 43.456 27.8635 43.4571C28.3703 43.4501 28.6581 43.3669 29.0608 43.0313C29.485 42.5548 29.4921 42.1402 29.493 41.5321C29.4945 41.4434 29.4961 41.3547 29.4977 41.2633C29.5022 40.9816 29.5042 40.6998 29.5062 40.418C29.5088 40.2264 29.5116 40.0347 29.5146 39.8431C29.5215 39.3746 29.5261 38.9061 29.5296 38.4376C29.4582 38.439 29.3868 38.4405 29.3133 38.442C28.9889 38.4479 28.6645 38.4515 28.3401 38.4552C28.1716 38.4587 28.1716 38.4587 27.9997 38.4623C27.8913 38.4632 27.7828 38.4641 27.6711 38.465C27.5714 38.4665 27.4717 38.468 27.3691 38.4695C27.0523 38.433 26.8783 38.3446 26.6233 38.1563C26.4784 37.8665 26.5021 37.6319 26.5296 37.3126C26.6795 37.1061 26.6795 37.1061 26.9046 36.9376C27.1967 36.895 27.1967 36.895 27.5359 36.901C27.7181 36.9028 27.7181 36.9028 27.904 36.9046C28.0318 36.9077 28.1596 36.9109 28.2874 36.9141C28.4167 36.916 28.5459 36.9177 28.6752 36.9193C28.9913 36.9237 29.3073 36.9299 29.6233 36.9376C29.6331 36.8785 29.6429 36.8195 29.653 36.7587C29.7506 36.218 29.8847 35.7458 30.1331 35.2559C30.1819 35.1597 30.1819 35.1597 30.2317 35.0615C30.7481 34.0983 31.5592 33.4761 32.4314 32.8411C33.2963 32.187 34.0344 31.4304 34.6858 30.5626C34.754 30.4724 34.8222 30.3823 34.8924 30.2894C36.9967 27.383 37.9434 23.7441 37.3929 20.1798C36.9576 17.6428 35.9152 15.3428 34.2171 13.4063C34.152 13.3287 34.0868 13.2512 34.0197 13.1712C31.886 10.6916 28.7095 9.22028 25.4983 8.81257C23.8221 8.72528 22.1576 8.74705 20.5296 9.18757C20.4681 9.20363 20.4066 9.21969 20.3432 9.23623C19.1529 9.5575 17.8491 10.0991 16.8364 10.8077C16.5148 11.0198 16.3138 11.0178 15.9358 10.9688C15.7132 10.8692 15.7132 10.8692 15.5608 10.6876C15.4845 10.3877 15.4337 10.1532 15.5165 9.85078C15.7314 9.54817 16.0356 9.39181 16.3519 9.21101C16.4228 9.17019 16.4938 9.12937 16.567 9.08732C18.8332 7.81505 21.3445 7.17581 23.9397 7.18367ZM21.0921 45.0001C21.8975 45.9397 22.613 46.4908 23.8691 46.5935C24.9227 46.5952 25.7949 46.2259 26.5413 45.4923C26.785 45.279 26.785 45.279 26.9046 45.0001C24.9865 45.0001 23.0683 45.0001 21.0921 45.0001Z" fill="#FF7705"></path>
    <path d="M23.1224 12.9094C23.226 12.9088 23.226 12.9088 23.3318 12.9081C23.4777 12.9076 23.6235 12.9076 23.7694 12.908C23.9918 12.9083 24.2141 12.9061 24.4365 12.9037C24.5786 12.9035 24.7206 12.9034 24.8626 12.9035C24.9287 12.9026 24.9949 12.9018 25.063 12.9009C25.4737 12.9047 25.7362 12.9638 26.0612 13.2188C26.2149 13.539 26.2586 13.8396 26.289 14.1889C26.3355 15.0271 26.3355 15.0271 26.7819 15.6896C27.1677 15.8584 27.4694 15.9823 27.8886 15.8812C28.2484 15.6805 28.5523 15.4106 28.858 15.1366C29.1952 14.8579 29.502 14.7011 29.947 14.727C30.5259 14.934 30.9466 15.4867 31.3581 15.9258C31.4617 16.0328 31.5654 16.1396 31.6694 16.2463C32.5109 17.1156 32.5109 17.1156 32.5714 17.5423C32.5145 18.0429 32.2799 18.2917 31.9616 18.668C31.5524 19.1071 31.5524 19.1071 31.405 19.6557C31.4359 19.7281 31.4669 19.8005 31.4987 19.8751C31.5439 19.9992 31.5439 19.9992 31.5899 20.1259C31.6405 20.2483 31.6405 20.2483 31.6921 20.3731C31.7526 20.5196 31.8132 20.6661 31.8737 20.8126C31.9309 20.8186 31.9881 20.8247 32.047 20.8309C32.3079 20.8598 32.5683 20.8918 32.8288 20.9239C32.9188 20.9334 33.0087 20.9429 33.1014 20.9526C33.1888 20.9638 33.2761 20.975 33.366 20.9865C33.4461 20.9958 33.5261 21.0052 33.6085 21.0148C33.9483 21.1295 34.0958 21.2765 34.3112 21.5626C34.358 21.8436 34.3772 22.0703 34.3735 22.3506C34.3739 22.4259 34.3744 22.5011 34.3748 22.5786C34.3752 22.7371 34.3743 22.8957 34.3723 23.0542C34.3698 23.2962 34.3723 23.5379 34.3753 23.78C34.375 23.9344 34.3744 24.0888 34.3735 24.2432C34.3744 24.3152 34.3754 24.3872 34.3764 24.4614C34.3683 24.8295 34.3247 25.0134 34.1017 25.3107C33.8302 25.509 33.7121 25.5585 33.3825 25.5678C33.2975 25.5732 33.2124 25.5785 33.1247 25.5841C32.9928 25.5918 32.9928 25.5918 32.8581 25.5997C32.1735 25.6518 32.1735 25.6518 31.6372 26.0355C31.4531 26.4749 31.3499 26.8213 31.4987 27.2813C31.5921 27.4443 31.5921 27.4443 31.7097 27.5984C31.7512 27.6556 31.7928 27.7128 31.8356 27.7717C31.8791 27.8303 31.9227 27.8889 31.9675 27.9493C32.6073 28.8219 32.6073 28.8219 32.53 29.3438C32.4117 29.5077 32.4117 29.5077 32.252 29.6833C32.1924 29.749 32.1328 29.8146 32.0713 29.8823C31.7261 30.2518 31.3784 30.6178 31.0241 30.9786C30.9513 31.0549 30.8785 31.1312 30.8035 31.2098C30.7321 31.2823 30.6607 31.3547 30.5872 31.4294C30.5237 31.4948 30.4601 31.5602 30.3946 31.6277C30.1344 31.8195 29.9443 31.8554 29.6237 31.8751C29.2605 31.7153 29.0125 31.5422 28.7217 31.2704C28.4336 31.0144 28.194 30.8167 27.8425 30.6563C27.351 30.7235 26.9688 30.8907 26.53 31.1251C26.5151 31.2158 26.5151 31.2158 26.5 31.3084C26.4545 31.5834 26.4073 31.8581 26.3601 32.1329C26.3445 32.2281 26.329 32.3233 26.313 32.4214C26.297 32.5133 26.281 32.6051 26.2645 32.6998C26.2502 32.7842 26.236 32.8686 26.2213 32.9557C26.1471 33.215 26.0569 33.3655 25.8737 33.5626C25.5392 33.674 25.2325 33.6733 24.8842 33.6753C24.815 33.6759 24.7457 33.6764 24.6744 33.677C24.528 33.6779 24.3816 33.6785 24.2352 33.6788C24.0119 33.6797 23.7887 33.6826 23.5655 33.6856C23.423 33.6862 23.2806 33.6867 23.1381 33.6871C23.0717 33.6882 23.0053 33.6894 22.9369 33.6906C22.5241 33.6887 22.2646 33.6283 21.9362 33.3751C21.6946 32.9611 21.6648 32.4544 21.5964 31.9864C21.5838 31.9035 21.5712 31.8207 21.5583 31.7353C21.5275 31.532 21.4973 31.3286 21.4675 31.1251C21.0587 30.8772 20.6435 30.6393 20.155 30.6563C19.7043 30.8514 19.3541 31.1856 18.9919 31.5096C18.6994 31.7632 18.4936 31.8872 18.0925 31.8751C17.709 31.6807 17.432 31.4251 17.1301 31.1218C17.0852 31.0768 17.0403 31.0319 16.994 30.9856C16.8999 30.8912 16.806 30.7965 16.7123 30.7017C16.5687 30.5563 16.4243 30.4117 16.2797 30.2672C15.4852 29.4686 15.4852 29.4686 15.4261 29.0516C15.483 28.551 15.7175 28.3021 16.0358 27.9258C16.4451 27.4867 16.4451 27.4867 16.5925 26.9382C16.5461 26.8296 16.5461 26.8296 16.4987 26.7188C16.4686 26.636 16.4385 26.5532 16.4075 26.4679C16.3738 26.3864 16.3401 26.3048 16.3054 26.2208C16.2448 26.0743 16.1843 25.9278 16.1237 25.7813C16.0665 25.7747 16.0094 25.7682 15.9504 25.7614C15.6896 25.7306 15.4292 25.6974 15.1686 25.6641C15.0787 25.6538 14.9887 25.6436 14.896 25.633C14.8087 25.6215 14.7214 25.61 14.6314 25.5982C14.5114 25.5835 14.5114 25.5835 14.3889 25.5684C14.0695 25.4751 13.9102 25.3736 13.6862 25.1251C13.6386 24.8407 13.6204 24.6098 13.624 24.3256C13.6235 24.2482 13.6231 24.1708 13.6226 24.091C13.6223 23.9275 13.6232 23.7639 13.6251 23.6004C13.6276 23.3508 13.6251 23.1015 13.6221 22.8518C13.6224 22.6927 13.623 22.5336 13.624 22.3744C13.623 22.3001 13.6221 22.2258 13.6211 22.1492C13.6293 21.7614 13.6566 21.6023 13.8957 21.2817C14.1671 21.085 14.2863 21.0353 14.6149 21.0261C14.7 21.0207 14.7851 21.0153 14.8727 21.0098C14.9607 21.0046 15.0487 20.9995 15.1393 20.9942C15.824 20.942 15.824 20.942 16.3603 20.5584C16.5436 20.1207 16.6504 19.7707 16.4987 19.3126C16.3949 19.1475 16.3949 19.1475 16.264 18.9914C16.2178 18.9321 16.1715 18.8728 16.1239 18.8118C16.0265 18.6891 15.9284 18.567 15.8295 18.4455C15.6028 18.1523 15.4764 17.9464 15.3946 17.58C15.502 17.0937 15.78 16.8472 16.1237 16.5001C16.2584 16.3527 16.3929 16.2052 16.5273 16.0577C16.6698 15.908 16.8127 15.7586 16.9558 15.6094C17.0262 15.5323 17.0967 15.4552 17.1693 15.3758C17.7628 14.7629 17.7628 14.7629 18.247 14.7342C18.6905 14.7803 18.9631 14.9785 19.2878 15.2696C19.8749 15.7966 19.8749 15.7966 20.6245 15.9159C20.9765 15.8079 21.192 15.7174 21.4675 15.4688C21.638 15.0356 21.6633 14.5758 21.6993 14.1157C21.7328 13.7319 21.8119 13.4509 22.03 13.1251C22.3669 12.8892 22.7264 12.9088 23.1224 12.9094ZM23.155 14.5313C23.1284 14.667 23.1068 14.8038 23.0876 14.9407C23.0756 15.0238 23.0637 15.1068 23.0513 15.1923C23.0391 15.2797 23.0269 15.3671 23.0143 15.4571C22.9902 15.6287 22.9658 15.8004 22.9411 15.972C22.9304 16.0485 22.9197 16.1249 22.9087 16.2037C22.8737 16.4063 22.8737 16.4063 22.78 16.6876C22.5947 16.7535 22.5947 16.7535 22.3464 16.8047C21.8035 16.9351 21.337 17.1508 20.848 17.4142C20.4187 17.6321 20.1474 17.6693 19.6862 17.5313C19.4344 17.3789 19.2132 17.1999 18.989 17.0098C18.9293 16.9611 18.8697 16.9123 18.8082 16.8621C18.6624 16.7426 18.5179 16.6215 18.3737 16.5001C17.9821 16.8298 17.6054 17.1638 17.2487 17.5313C17.422 18.0513 17.7567 18.4142 18.102 18.8314C18.3174 19.1867 18.3324 19.372 18.28 19.7813C18.1701 20.0552 18.1701 20.0552 18.0222 20.3204C17.7758 20.779 17.5977 21.2252 17.4505 21.7241C17.3019 22.0178 17.1757 22.0865 16.8737 22.2188C16.5849 22.2891 16.2947 22.3345 16.0007 22.377C15.9223 22.3892 15.8439 22.4013 15.7632 22.4138C15.571 22.4435 15.3786 22.4719 15.1862 22.5001C15.1862 23.026 15.1862 23.5519 15.1862 24.0938C15.3945 24.1279 15.3945 24.1279 15.607 24.1627C15.789 24.1943 15.971 24.226 16.153 24.2579C16.2446 24.2726 16.3361 24.2874 16.4304 24.3025C16.5183 24.3183 16.6063 24.334 16.6968 24.3502C16.7779 24.3639 16.8589 24.3776 16.9423 24.3918C17.212 24.4894 17.2905 24.6002 17.4362 24.8438C17.5153 25.0166 17.5153 25.0166 17.5768 25.1921C17.6001 25.2564 17.6233 25.3208 17.6472 25.3871C17.6704 25.4534 17.6936 25.5196 17.7175 25.5879C17.8961 26.1057 17.8961 26.1057 18.1569 26.5844C18.332 26.9091 18.3326 27.1037 18.28 27.4688C18.136 27.74 17.9556 27.9735 17.7643 28.2129C17.7152 28.2771 17.666 28.3412 17.6153 28.4072C17.4945 28.5642 17.3718 28.7198 17.2487 28.8751C17.4077 29.2156 17.5992 29.4324 17.8698 29.6954C17.9464 29.7703 18.0231 29.8452 18.102 29.9224C18.1607 29.979 18.2195 30.0355 18.28 30.0938C18.3311 30.0597 18.3822 30.0256 18.4349 29.9905C18.5836 29.8914 18.7327 29.7926 18.882 29.6943C19.0396 29.588 19.1951 29.4785 19.3478 29.3654C19.4189 29.3138 19.49 29.2622 19.5632 29.209C19.6594 29.1367 19.6594 29.1367 19.7576 29.0629C20.0527 28.9306 20.2203 28.9796 20.53 29.0626C20.728 29.1442 20.9233 29.2325 21.1159 29.3262C21.5732 29.5447 22.031 29.7423 22.5057 29.9195C22.6862 30.0001 22.6862 30.0001 22.8737 30.1876C22.9193 30.3795 22.9193 30.3795 22.9503 30.6127C22.9619 30.6963 22.9736 30.7799 22.9856 30.866C22.997 30.9534 23.0084 31.0408 23.0202 31.1309C23.0434 31.3039 23.067 31.4769 23.0909 31.6498C23.101 31.7267 23.1111 31.8036 23.1215 31.8828C23.1375 32.0627 23.1375 32.0627 23.2487 32.1563C23.4997 32.1657 23.7478 32.1693 23.9987 32.168C24.1042 32.1686 24.1042 32.1686 24.2119 32.1691C24.5552 32.201 24.5552 32.201 24.8425 32.0626C24.8691 31.9268 24.8907 31.7901 24.9099 31.6531C24.9218 31.5701 24.9338 31.4871 24.9461 31.4015C24.9583 31.3142 24.9705 31.2268 24.9831 31.1368C25.0073 30.9651 25.0317 30.7935 25.0563 30.6219C25.067 30.5454 25.0777 30.4689 25.0888 30.3901C25.1237 30.1876 25.1237 30.1876 25.2175 29.9063C25.3995 29.8404 25.3995 29.8404 25.6452 29.7891C26.208 29.6534 26.7081 29.4323 27.2263 29.1796C27.4843 29.0591 27.6991 28.9692 27.986 28.967C28.3244 29.1067 28.5959 29.3156 28.8854 29.5372C29.3012 29.8851 29.3012 29.8851 29.8112 30.0001C30.0537 29.7919 30.0537 29.7919 30.2976 29.5313C30.382 29.4443 30.4665 29.3573 30.5535 29.2676C30.6179 29.2 30.6824 29.1323 30.7487 29.0626C30.5754 28.5426 30.2407 28.1797 29.8955 27.7625C29.6801 27.4071 29.665 27.2219 29.7175 26.8126C29.8273 26.5386 29.8273 26.5386 29.9753 26.2735C30.2216 25.8148 30.3997 25.3687 30.5469 24.8698C30.6956 24.5761 30.8218 24.5073 31.1237 24.3751C31.4125 24.3047 31.7027 24.2593 31.9968 24.2169C32.0751 24.2047 32.1535 24.1926 32.2343 24.18C32.4264 24.1504 32.6188 24.122 32.8112 24.0938C32.8112 23.5679 32.8112 23.0419 32.8112 22.5001C32.0997 22.3763 31.3881 22.2526 30.655 22.1251C30.5622 21.8157 30.4694 21.5063 30.3737 21.1876C30.2974 20.9849 30.218 20.7834 30.1335 20.584C30.0753 20.445 30.0753 20.445 30.0159 20.3032C29.9059 20.0481 29.9059 20.0481 29.7175 19.7813C29.6547 19.354 29.7035 19.1025 29.9431 18.7533C30.0382 18.628 30.1349 18.5039 30.2331 18.3809C30.2823 18.3168 30.3315 18.2527 30.3821 18.1866C30.5029 18.0296 30.6256 17.874 30.7487 17.7188C30.5897 17.3782 30.3983 17.1614 30.1276 16.8985C30.0127 16.7861 30.0127 16.7861 29.8955 16.6714C29.8367 16.6149 29.778 16.5583 29.7175 16.5001C29.1242 16.8802 29.1242 16.8802 28.5808 17.3262C28.2505 17.5775 28.0679 17.6075 27.655 17.6251C27.4094 17.5339 27.2031 17.443 26.9753 17.3204C26.4024 17.031 25.8473 16.825 25.2175 16.6876C25.1724 16.4513 25.1275 16.2149 25.0827 15.9786C25.0701 15.9125 25.0575 15.8465 25.0444 15.7784C24.9839 15.4581 24.9283 15.1391 24.8861 14.8158C24.8731 14.5434 24.8731 14.5434 24.7487 14.4376C24.4977 14.4282 24.2497 14.4245 23.9987 14.4258C23.9284 14.4255 23.8581 14.4251 23.7856 14.4247C23.4422 14.3929 23.4422 14.3929 23.155 14.5313Z" fill="#FF7705"></path>
    <path d="M26.3018 19.2587C26.7077 19.5154 27.053 19.7988 27.3756 20.1563C27.4206 20.2021 27.4657 20.2479 27.5122 20.2951C28.3815 21.2217 28.6433 22.4011 28.6236 23.636C28.5301 24.7973 28.0012 25.8872 27.1881 26.7188C26.1269 27.5825 24.9648 27.9845 23.5853 27.9233C22.3218 27.7642 21.257 27.2513 20.4139 26.29C19.5485 25.1708 19.3102 23.9829 19.4068 22.5938C19.5631 21.789 19.8818 21.1098 20.3443 20.4376C20.4023 20.3525 20.4603 20.2674 20.5201 20.1797C21.9814 18.6325 24.4378 18.2152 26.3018 19.2587ZM21.774 21.1114C21.0888 21.8273 20.8659 22.6234 20.8742 23.5965C20.9637 24.4472 21.3707 25.1983 22.0219 25.7421C22.7563 26.286 23.6183 26.5332 24.5279 26.3976C25.4569 26.173 26.1906 25.6925 26.6922 24.8797C27.1036 24.1193 27.2276 23.3628 27.0328 22.5129C26.7355 21.5864 26.131 20.9475 25.3131 20.4376C24.0728 19.8834 22.7397 20.2071 21.774 21.1114Z" fill="#FF7705"></path>
    <path d="M39.2799 6.18752C39.5281 6.34473 39.5569 6.45484 39.6432 6.7383C39.6595 7.14663 39.5067 7.35118 39.2369 7.65295C39.0662 7.83076 38.8923 8.00489 38.717 8.17824C38.6534 8.24187 38.5897 8.30549 38.5241 8.37104C38.39 8.50489 38.2556 8.63851 38.121 8.77192C37.9146 8.97669 37.7088 9.1822 37.5032 9.38784C37.3727 9.51789 37.2422 9.64789 37.1116 9.77785C37.0498 9.83947 36.9881 9.90109 36.9245 9.96457C36.8386 10.0496 36.8386 10.0496 36.751 10.1363C36.7006 10.1863 36.6503 10.2363 36.5984 10.2878C36.3802 10.4851 36.2649 10.5014 35.9635 10.5293C35.6236 10.5 35.6236 10.5 35.3951 10.3594C35.1903 10.0316 35.1633 9.74523 35.2486 9.37502C35.4406 9.07977 35.6846 8.84934 35.9393 8.60781C36.0096 8.53834 36.0799 8.46888 36.1524 8.39731C36.3768 8.17647 36.6037 7.95841 36.8307 7.74026C36.9828 7.59107 37.1348 7.44172 37.2866 7.2922C37.5642 7.02009 37.8421 6.74838 38.1223 6.47887C38.1785 6.42471 38.2347 6.37056 38.2926 6.31476C38.6198 6.02478 38.867 6.10061 39.2799 6.18752Z" fill="#FF7705"></path>
    <path d="M9.5625 6.18747C9.84498 6.38541 10.0814 6.62307 10.3239 6.86752C10.3937 6.93636 10.4635 7.0052 10.5354 7.07613C10.6823 7.22177 10.8284 7.36815 10.9739 7.51519C11.1966 7.73949 11.4225 7.96007 11.649 8.18057C11.7915 8.32276 11.9338 8.46514 12.0758 8.60776C12.1435 8.67332 12.2111 8.73887 12.2808 8.80642C12.5845 9.11868 12.7906 9.33451 12.8013 9.78327C12.75 10.125 12.75 10.125 12.6035 10.3593C12.2713 10.5638 12.104 10.5706 11.7188 10.5C11.0287 10.0231 10.4323 9.3374 9.83585 8.7488C9.71942 8.63441 9.60241 8.52061 9.48484 8.4074C9.31318 8.24201 9.14344 8.07485 8.974 7.9072C8.92147 7.85727 8.86894 7.80735 8.81481 7.75592C8.47045 7.40969 8.35922 7.16194 8.34375 6.65622C8.41756 6.40796 8.48651 6.31602 8.68945 6.15817C9.02233 6.05921 9.22432 6.10025 9.5625 6.18747Z" fill="#FF7705"></path>
    <path d="M41.0684 20.9516C41.2101 20.9498 41.2101 20.9498 41.3547 20.948C41.4562 20.9488 41.5577 20.9495 41.6622 20.9503C41.7669 20.9499 41.8716 20.9496 41.9795 20.9492C42.2008 20.949 42.4221 20.9496 42.6433 20.9512C42.9823 20.9532 43.321 20.9512 43.6599 20.9488C43.8749 20.9491 44.0898 20.9496 44.3048 20.9503C44.4063 20.9495 44.5077 20.9488 44.6123 20.948C44.7068 20.9492 44.8013 20.9504 44.8986 20.9516C45.0231 20.952 45.0231 20.952 45.15 20.9525C45.4462 21.0154 45.5601 21.144 45.7491 21.3751C45.8156 21.6477 45.781 21.8385 45.7491 22.1251C45.5793 22.3758 45.4794 22.4025 45.1866 22.5001C45.041 22.5101 44.895 22.515 44.7491 22.5167C44.6605 22.5179 44.5719 22.5191 44.4807 22.5203C44.3852 22.521 44.2897 22.5217 44.1913 22.5224C44.0437 22.5236 44.0437 22.5236 43.8932 22.5247C43.685 22.526 43.4768 22.527 43.2686 22.5278C42.9502 22.5294 42.632 22.5335 42.3137 22.5376C42.1114 22.5386 41.9092 22.5394 41.7069 22.54C41.6118 22.5417 41.5166 22.5433 41.4186 22.545C41 22.5437 40.7563 22.5423 40.3922 22.3218C40.2042 22.1096 40.1559 22.0293 40.1651 21.7501C40.165 21.6882 40.1649 21.6264 40.1648 21.5626C40.2956 21.1006 40.6184 20.9532 41.0684 20.9516Z" fill="#FF7705"></path>
    <path d="M3.09965 20.9516C3.24138 20.9498 3.24138 20.9498 3.38597 20.948C3.48744 20.9488 3.58892 20.9495 3.69346 20.9503C3.79817 20.9499 3.90287 20.9496 4.01075 20.9492C4.23203 20.949 4.45331 20.9496 4.67459 20.9512C5.0135 20.9532 5.35223 20.9512 5.69114 20.9488C5.90611 20.9491 6.12108 20.9496 6.33604 20.9503C6.43751 20.9495 6.53899 20.9488 6.64353 20.948C6.73802 20.9492 6.8325 20.9504 6.92985 20.9516C7.05431 20.952 7.05431 20.952 7.18129 20.9525C7.47745 21.0154 7.59132 21.144 7.78038 21.3751C7.84683 21.6477 7.81223 21.8385 7.78038 22.1251C7.61054 22.3758 7.5106 22.4025 7.21788 22.5001C7.07225 22.5101 6.92625 22.515 6.7803 22.5167C6.69174 22.5179 6.60318 22.5191 6.51194 22.5203C6.41643 22.521 6.32092 22.5217 6.22252 22.5224C6.07496 22.5236 6.07496 22.5236 5.92442 22.5247C5.71621 22.526 5.50801 22.527 5.2998 22.5278C4.98148 22.5294 4.66325 22.5335 4.34495 22.5376C4.14268 22.5386 3.94041 22.5394 3.73814 22.54C3.64301 22.5417 3.54788 22.5433 3.44987 22.545C3.03129 22.5437 2.78751 22.5423 2.42342 22.3218C2.23541 22.1096 2.18712 22.0293 2.19639 21.7501C2.19627 21.6882 2.19615 21.6264 2.19603 21.5626C2.32686 21.1006 2.64965 20.9532 3.09965 20.9516Z" fill="#FF7705"></path>
    <path d="M24.0013 -0.0528564C24.0632 -0.0549109 24.1251 -0.0569653 24.1888 -0.059082C24.4995 0.0386206 24.583 0.190766 24.7513 0.468628C24.8075 0.813212 24.8039 1.15429 24.8011 1.50281C24.8015 1.603 24.8018 1.70318 24.8022 1.80641C24.8025 2.01791 24.8018 2.22941 24.8002 2.4409C24.7982 2.76438 24.8002 3.08766 24.8026 3.41113C24.8023 3.61682 24.8019 3.82251 24.8011 4.0282C24.8019 4.12479 24.8026 4.22138 24.8034 4.3209C24.7979 4.74157 24.794 4.992 24.5724 5.3575C24.3618 5.544 24.2788 5.59514 24.0013 5.58972C23.9085 5.59153 23.9085 5.59153 23.8138 5.59338C23.5039 5.49049 23.42 5.34206 23.2513 5.06238C23.1949 4.7099 23.1988 4.36074 23.2015 4.00439C23.2012 3.9019 23.2008 3.79941 23.2004 3.69381C23.2002 3.47751 23.2009 3.2612 23.2024 3.0449C23.2044 2.7136 23.2025 2.3825 23.2001 2.05121C23.2003 1.84094 23.2008 1.63068 23.2015 1.42041C23.2008 1.32128 23.2 1.22216 23.1992 1.12002C23.208 0.435325 23.208 0.435325 23.4302 0.125351C23.6402 -0.00897427 23.7537 -0.0533401 24.0013 -0.0528564Z" fill="#FF7705"></path>
    <path d="M17.7175 3.84363C18.0047 4.1449 18.1446 4.52314 18.2976 4.90418C18.3231 4.96406 18.3487 5.02394 18.375 5.08563C18.5407 5.49531 18.6039 5.83265 18.5613 6.28113C18.3679 6.56238 18.3679 6.56238 18.0925 6.74988C17.7369 6.75612 17.5302 6.72966 17.2477 6.50855C17.0024 6.20929 16.8865 5.90427 16.7566 5.54285C16.7314 5.47771 16.7063 5.41257 16.6804 5.34546C16.5376 4.95865 16.4585 4.63689 16.4988 4.21863C16.7976 3.6921 17.1625 3.7148 17.7175 3.84363Z" fill="#FF7705"></path>
    <path d="M31.2169 3.84382C31.4044 3.98445 31.4044 3.98445 31.4982 4.21882C31.5182 4.82153 31.3254 5.307 31.0939 5.85359C31.0661 5.92021 31.0384 5.98683 31.0099 6.05546C30.8913 6.32156 30.7976 6.52615 30.5599 6.70137C30.2544 6.78104 30.0195 6.73335 29.7169 6.65632C29.5353 6.50398 29.5353 6.50398 29.4357 6.28132C29.3874 5.71843 29.5203 5.31289 29.7345 4.80476C29.7619 4.73406 29.7892 4.66337 29.8174 4.59053C29.9529 4.2626 30.0468 4.06761 30.3274 3.84199C30.6601 3.7109 30.8759 3.74909 31.2169 3.84382Z" fill="#FF7705"></path>
    <path d="M41.707 14.3905C41.9484 14.6745 41.9615 14.8266 41.9685 15.1874C41.8707 15.4821 41.6927 15.5796 41.4375 15.7499C41.205 15.8612 40.9794 15.9611 40.7402 16.0546C40.68 16.0797 40.6197 16.1049 40.5577 16.1308C40.1822 16.2802 39.8721 16.3578 39.4688 16.3124C39.1572 16.0822 39.021 15.9444 38.9414 15.5624C39.0206 15.182 39.1757 15.0647 39.4688 14.8124C39.7036 14.6936 39.9219 14.5941 40.166 14.5018C40.2263 14.4771 40.2865 14.4524 40.3486 14.427C40.8395 14.2351 41.229 14.1411 41.707 14.3905Z" fill="#FF7705"></path>
    <path d="M7.31652 14.3059C7.52743 14.383 7.73391 14.4671 7.94073 14.5546C8.01185 14.5827 8.08297 14.6109 8.15624 14.6399C8.809 14.9107 8.809 14.9107 9.00128 15.2811C9.06525 15.657 9.03089 15.7988 8.81964 16.119C8.49943 16.3347 8.32435 16.3579 7.94622 16.2923C6.44711 15.8636 6.44711 15.8636 6.09503 15.3749C6.0582 15.0849 6.03596 14.9019 6.09503 14.6249C6.44702 14.2108 6.8004 14.1539 7.31652 14.3059Z" fill="#FF7705"></path>
  </g>
  <defs>
    <clipPath id="clip0_4462_132">
      <rect width="48" height="48" fill="white"></rect>
    </clipPath>
  </defs>
</svg>
