<?xml version="1.0" encoding="UTF-8"?>
<svg xmlns="http://www.w3.org/2000/svg" width="170" height="30" viewBox="0 0 170 30" fill="none">
  <path d="M12.3672 19.7142C12.3672 22.5515 11.2021 26.3665 7.76184 26.3665C6.03699 26.3665 5.02168 25.4775 5.02168 23.7104C5.02246 20.375 9.90575 19.7142 12.3672 19.7142ZM17.3015 29.4811V13.7136C17.3015 8.60167 13.9482 6.83534 9.25031 6.83534C4.65593 6.83534 0.829889 8.78794 0.829889 13.8599H5.86254C5.86254 11.6692 7.02603 10.466 9.2507 10.466C11.8039 10.466 12.3676 12.3186 12.3676 14.5069V16.6945C7.34552 16.8333 0 17.5333 0 24.1849C0 27.9509 2.97812 29.9972 6.50701 29.9972C8.9269 29.9972 11.1571 29.205 12.2782 26.9254H12.368V29.4815H17.3015M32.6013 14.9258H38.0875C38.0875 9.48207 35.0714 6.83534 29.6722 6.83534C23.035 6.83534 19.5359 11.0159 19.5359 17.4317C19.5359 25.1528 23.489 29.9972 31.3884 29.9972C33.5774 29.9972 35.7601 29.6294 37.8554 28.9733V25.8112C36.6426 26.2281 35.3873 26.3665 34.1419 26.3665C28.2704 26.3665 25.0229 22.088 25.0229 16.5097C25.0229 13.861 25.999 10.466 29.2555 10.466C31.9502 10.466 32.6013 12.65 32.6013 14.9258ZM52.4269 14.9258H57.919C57.919 9.48207 54.8903 6.83534 49.5002 6.83534C42.8536 6.83534 39.3651 11.0159 39.3651 17.4317C39.3651 25.1528 43.3138 29.9972 51.2187 29.9972C53.4019 29.9972 55.5928 29.6294 57.6799 28.9733V25.8112C56.4748 26.2281 55.2165 26.3665 53.9624 26.3665C48.1073 26.3665 44.8434 22.088 44.8434 16.5097C44.8434 13.861 45.8286 10.466 49.0791 10.466C51.7746 10.466 52.4269 12.65 52.4269 14.9258ZM72.6579 13.9473H64.5683C64.8043 11.7131 66.5174 10.1256 68.7319 10.1256C71.113 10.1256 72.6579 11.5778 72.6579 13.9473ZM77.54 17.0709V15.8097C77.54 10.4158 74.7508 6.83534 69.1235 6.83534C62.5259 6.83534 59.6341 10.9743 59.6341 17.2537C59.6341 24.548 62.9336 29.998 70.7899 29.998C72.8856 29.998 74.9884 29.7678 76.9689 29.1133V25.534C75.6658 25.9955 74.1409 26.3661 72.7473 26.3661C67.7295 26.3661 64.4178 21.766 64.4178 17.0713H77.54M92.8324 29.4811H98.0046V14.1348C98.0046 10.326 96.2202 6.83534 91.997 6.83534C88.8347 6.83534 86.61 8.65421 85.4418 11.4829H85.3505V7.33418H80.1794V29.4827H85.3505V19.9032C85.3505 16.9204 86.8401 11.6708 90.5454 11.6708C91.0762 11.6708 91.6599 11.7131 92.0449 12.0927C92.9163 12.9253 92.8324 15.7599 92.8324 16.8333V29.4811ZM108.727 10.9264H115.3V7.33418H108.727V-0.00488281L103.588 2.08656V7.33299H99.2579V10.9253H103.588V23.899C103.588 28.5082 105.842 29.9964 110.367 29.9964C111.768 29.9964 113.198 29.8619 114.585 29.6286V25.9944C113.807 26.1861 113.021 26.3642 112.217 26.3642C109.001 26.3642 108.726 23.9935 108.726 21.384V10.9264M130.231 29.4811H135.392V7.33378H130.231V16.9196C130.231 19.902 128.742 25.1532 125.015 25.1532C124.511 25.1532 123.897 25.1159 123.525 24.7418C122.637 23.9006 122.738 21.062 122.738 19.9981V7.33339H117.584V22.6939C117.584 26.5108 119.336 29.9976 123.577 29.9976C126.7 29.9976 128.976 28.1332 130.143 25.3512H130.231V29.4811ZM143.81 19.7644C143.81 14.554 145.76 12.2335 151.055 12.2335V6.83534C147.343 6.83534 145.613 8.37146 143.897 11.4316H143.81V7.33299H138.64V29.4815H143.81V19.7644M165.119 13.9473H157.027C157.26 11.7131 158.979 10.1256 161.206 10.1256C163.584 10.1256 165.119 11.5778 165.119 13.9473ZM170 17.0709V15.8097C170 10.4158 167.214 6.83534 161.582 6.83534C154.982 6.83534 152.098 10.9743 152.098 17.2537C152.098 24.548 155.4 29.998 163.25 29.998C165.345 29.998 167.441 29.7678 169.439 29.1133V25.534C168.139 25.9955 166.604 26.3661 165.219 26.3661C160.184 26.3661 156.884 21.766 156.884 17.0713H169.999" fill="#F5F5F5"></path>
</svg>
