<?xml version="1.0" encoding="UTF-8"?>
<svg xmlns="http://www.w3.org/2000/svg" width="48" height="48" viewBox="0 0 48 48" fill="none">
  <path d="M11.6824 4.38037C11.7979 4.38036 11.7979 4.38036 11.9158 4.38035C12.0047 4.37955 12.0936 4.37875 12.1852 4.37793C12.2833 4.37871 12.3813 4.37949 12.4824 4.38029C12.5862 4.37984 12.6901 4.37939 12.7971 4.37893C13.086 4.37773 13.3749 4.37856 13.6638 4.37972C13.9751 4.38062 14.2865 4.37966 14.5978 4.37892C15.2079 4.37779 15.818 4.37841 16.4282 4.37963C17.1382 4.381 17.8482 4.38074 18.5583 4.38043C19.8249 4.37995 21.0915 4.38111 22.3581 4.38311C23.588 4.38505 24.818 4.38563 26.0479 4.38478C27.3862 4.38385 28.7245 4.38369 30.0628 4.38486C30.2055 4.38499 30.3481 4.38511 30.4907 4.38523C30.5609 4.3853 30.6311 4.38536 30.7034 4.38542C31.1987 4.38581 31.694 4.38566 32.1893 4.38531C32.7926 4.38491 33.396 4.38539 33.9993 4.38701C34.3074 4.38781 34.6154 4.38822 34.9234 4.38759C35.2568 4.38691 35.5902 4.38811 35.9237 4.38952C36.0707 4.38878 36.0707 4.38878 36.2208 4.38804C36.3542 4.38907 36.3542 4.38907 36.4902 4.39011C36.5672 4.3902 36.6443 4.39028 36.7236 4.39037C36.9166 4.42101 36.9166 4.42101 37.0634 4.52769C37.2238 4.75446 37.19 5.00776 37.1841 5.27495C37.1838 5.33411 37.1835 5.39327 37.1831 5.45422C37.1817 5.64297 37.1787 5.83164 37.1756 6.02037C37.1744 6.14841 37.1732 6.27645 37.1722 6.4045C37.1696 6.71821 37.1654 7.03187 37.1603 7.34555C37.3028 7.34131 37.3028 7.34131 37.4482 7.33698C37.5739 7.3347 37.6997 7.33248 37.8255 7.33032C37.9192 7.32725 37.9192 7.32725 38.0148 7.32413C38.1063 7.32295 38.1063 7.32295 38.1996 7.32175C38.2553 7.32047 38.3111 7.3192 38.3685 7.31788C38.6166 7.35758 38.7509 7.4314 38.9476 7.58926C38.9891 7.8021 39.0018 7.96355 38.998 8.1768C38.9985 8.23736 38.999 8.29792 38.9996 8.36031C39.0008 8.56489 38.9991 8.76935 38.9975 8.97392C38.9978 9.1214 38.9983 9.26887 38.9989 9.41635C39.0001 9.82288 38.9988 10.2294 38.9971 10.6359C38.9957 11.0738 38.9966 11.5118 38.9972 11.9497C38.9981 12.8081 38.9968 13.6665 38.9948 14.5248C38.9925 15.5236 38.9924 16.5224 38.9924 17.5212C38.9923 19.3027 38.9903 21.0843 38.9871 22.8659C38.9841 24.5963 38.9824 26.3266 38.9821 28.057C38.9821 28.1636 38.9821 28.2701 38.9821 28.3799C38.9821 28.4863 38.9821 28.5927 38.982 28.7023C38.982 28.9164 38.982 29.1306 38.982 29.3448C38.9819 29.4504 38.9819 29.556 38.9819 29.6648C38.9816 31.3115 38.9801 32.9583 38.9785 34.605C38.9779 35.2027 38.9775 35.8004 38.9773 36.398C38.9769 37.346 38.976 38.294 38.9739 39.2419C38.973 39.6753 38.9724 40.1087 38.9724 40.5421C38.9724 40.9384 38.9717 41.3346 38.9704 41.7309C38.97 41.8747 38.9699 42.0185 38.9702 42.1624C38.9704 42.357 38.9697 42.5515 38.9687 42.7461C38.9692 42.831 38.9692 42.831 38.9696 42.9177C38.967 43.2109 38.9528 43.3257 38.7851 43.5773C38.5755 43.6079 38.5755 43.6079 38.3037 43.608C38.2005 43.6086 38.0973 43.6093 37.9909 43.6099C37.8753 43.6094 37.7597 43.6089 37.644 43.6083C37.522 43.6086 37.4 43.609 37.2781 43.6094C36.9416 43.6105 36.6051 43.61 36.2686 43.6092C35.9063 43.6087 35.5439 43.6095 35.1815 43.6102C34.4711 43.6113 33.7607 43.611 33.0503 43.6103C32.4732 43.6098 31.896 43.6097 31.3189 43.61C31.2369 43.61 31.1549 43.61 31.0704 43.6101C30.9039 43.6101 30.7373 43.6102 30.5707 43.6103C29.0073 43.611 27.4438 43.6102 25.8804 43.6089C24.5375 43.6078 23.1947 43.608 21.8519 43.6091C20.2942 43.6104 18.7365 43.6109 17.1788 43.6102C17.0129 43.6101 16.8469 43.61 16.6809 43.61C16.5993 43.6099 16.5176 43.6099 16.4335 43.6098C15.8567 43.6096 15.28 43.61 14.7033 43.6106C14.0008 43.6112 13.2984 43.6111 12.596 43.6098C12.2373 43.6091 11.8786 43.6089 11.5199 43.6097C11.192 43.6104 10.8641 43.61 10.5362 43.6087C10.4172 43.6084 10.2981 43.6086 10.179 43.6092C10.0181 43.6099 9.85707 43.609 9.6961 43.608C9.60642 43.608 9.51674 43.6079 9.42435 43.6079C9.35518 43.5978 9.28601 43.5877 9.21475 43.5773C9.02103 43.2868 9.02931 43.0814 9.03115 42.7461C9.03084 42.6855 9.03053 42.625 9.03021 42.5626C9.02937 42.358 9.02969 42.1535 9.03 41.949C9.02964 41.8015 9.02921 41.654 9.02871 41.5065C9.02756 41.1 9.02743 40.6935 9.02746 40.287C9.02733 39.8491 9.02627 39.4111 9.02534 38.9732C9.02348 38.0152 9.02284 37.0571 9.02243 36.0991C9.02216 35.5014 9.02163 34.9036 9.02104 34.3059C9.01945 32.6522 9.01812 30.9985 9.01789 29.3448C9.01787 29.2389 9.01786 29.133 9.01784 29.0239C9.01781 28.8093 9.01778 28.5946 9.01775 28.3799C9.01774 28.2733 9.01772 28.1668 9.01771 28.057C9.01769 27.9503 9.01768 27.8436 9.01766 27.7337C9.01737 26.0034 9.01518 24.2732 9.01214 22.543C9.00905 20.7682 9.00747 18.9935 9.00745 17.2187C9.0074 16.2216 9.00671 15.2244 9.00436 14.2273C9.00238 13.3785 9.00178 12.5297 9.003 11.681C9.00359 11.2476 9.0035 10.8142 9.00167 10.3808C9.00001 9.9845 9.0002 9.58827 9.0019 9.192C9.00219 9.04817 9.00178 8.90434 9.00063 8.76052C8.99917 8.56589 9.00018 8.37143 9.00184 8.1768C9.00082 8.12017 8.9998 8.06353 8.99875 8.00518C9.00164 7.84844 9.00164 7.84844 9.05228 7.58926C9.32969 7.36394 9.53619 7.31556 9.88908 7.32175C9.96841 7.32254 10.0477 7.32332 10.1295 7.32413C10.2113 7.32617 10.2931 7.32821 10.3775 7.33032C10.5026 7.33197 10.5026 7.33197 10.6302 7.33365C10.8354 7.33651 11.0405 7.34052 11.2457 7.34555C11.2444 7.2685 11.2431 7.19145 11.2418 7.11207C11.2377 6.82562 11.2346 6.5392 11.2323 6.25274C11.2311 6.12886 11.2294 6.005 11.2273 5.88114C11.2243 5.70287 11.223 5.52464 11.2219 5.34635C11.2206 5.23915 11.2193 5.13194 11.218 5.02148C11.2525 4.67838 11.3221 4.45623 11.6824 4.38037ZM12.3018 5.39586C12.3018 6.03926 12.3018 6.68265 12.3018 7.34555C20.1566 7.34555 28.0114 7.34555 36.1043 7.34555C36.1043 6.70215 36.1043 6.05875 36.1043 5.39586C28.2494 5.39586 20.3946 5.39586 12.3018 5.39586ZM10.1084 8.40163C10.1084 19.6879 10.1084 30.9742 10.1084 42.6025C19.2768 42.6025 28.4452 42.6025 37.8915 42.6025C37.8915 31.3162 37.8915 20.0299 37.8915 8.40163C28.7231 8.40163 19.5546 8.40163 10.1084 8.40163Z" fill="#FF7705"></path>
  <path d="M34.1546 11.245C34.671 11.7116 34.8987 12.191 34.9895 12.8777C35.0205 13.5031 34.7842 14.0934 34.3983 14.5757C33.9611 15.0307 33.5397 15.2806 32.9055 15.3269C32.4004 15.336 31.9479 15.325 31.4737 15.1444C31.4421 15.181 31.4105 15.2175 31.3779 15.2552C31.0888 15.5875 30.7957 15.9157 30.4989 16.2411C30.2174 16.5498 29.9393 16.8607 29.6653 17.176C29.4038 17.4756 29.1387 17.7721 28.8741 18.0689C28.8991 18.1306 28.924 18.1923 28.9497 18.2559C29.2308 18.9648 29.3306 19.6729 29.0553 20.4004C28.7621 20.9486 28.3011 21.4621 27.7079 21.6792C26.9895 21.831 26.2774 21.8245 25.6367 21.4435C25.0787 21.0437 24.7266 20.6184 24.5686 19.9374C24.545 19.6102 24.5483 19.2898 24.5686 18.9626C24.5252 18.9487 24.4819 18.9349 24.4372 18.9207C23.9579 18.7648 23.4911 18.5856 23.0251 18.3939C22.9866 18.4321 22.9482 18.4703 22.9086 18.5097C22.3244 19.0598 21.7862 19.2557 20.983 19.2364C20.5841 19.1847 20.2241 19.0405 19.8568 18.8813C19.8233 18.9158 19.7898 18.9502 19.7553 18.9857C19.4584 19.2872 19.1534 19.5718 18.8325 19.8473C18.6749 19.9863 18.521 20.1274 18.3679 20.2712C18.3204 20.3157 18.2729 20.3602 18.224 20.406C18.1287 20.4956 18.0337 20.5855 17.939 20.6757C17.6001 20.9935 17.6001 20.9935 17.4197 20.9935C17.4373 21.035 17.4549 21.0764 17.473 21.1191C17.7271 21.7825 17.776 22.4477 17.5416 23.126C17.266 23.7272 16.789 24.195 16.1704 24.4362C15.5864 24.5746 14.8779 24.5924 14.3222 24.3379C13.6798 23.9368 13.2702 23.4633 13.0532 22.7401C12.9841 22.0491 13.0236 21.4393 13.4299 20.8539C13.9223 20.2695 14.3892 19.9726 15.1451 19.8663C15.719 19.828 16.2338 19.9887 16.7698 20.1811C16.8201 20.1294 16.8201 20.1294 16.8713 20.0767C17.1179 19.8264 17.367 19.5832 17.6329 19.3535C17.9436 19.0839 18.2517 18.8117 18.557 18.5361C18.6048 18.4938 18.6527 18.4516 18.7019 18.4081C18.8208 18.3 18.9332 18.1849 19.0444 18.0689C19.0444 17.8483 19.0161 17.709 18.9581 17.5003C18.8158 16.8705 18.8736 16.255 19.1933 15.6896C19.3376 15.4782 19.5024 15.3129 19.6943 15.1444C19.7547 15.0874 19.815 15.0305 19.8771 14.9718C20.4606 14.5739 21.0781 14.4976 21.7637 14.6081C22.4424 14.7697 22.8984 15.1665 23.2884 15.7346C23.4332 15.9982 23.4539 16.2188 23.4515 16.5215C23.4516 16.8109 23.4646 17.0748 23.5937 17.3378C23.9552 17.6538 24.4408 17.7768 24.8935 17.9065C24.9739 17.9333 25.0544 17.9601 25.1372 17.9877C25.1372 17.9341 25.1372 17.8805 25.1372 17.8252C25.2623 17.7085 25.2623 17.7085 25.4317 17.5815C25.4864 17.5396 25.541 17.4977 25.5974 17.4546C26.0163 17.1968 26.3977 17.1531 26.8838 17.155C26.9869 17.1546 27.0899 17.1542 27.1961 17.1538C27.4853 17.1748 27.7114 17.2332 27.9805 17.3378C28.3249 17.0028 28.6516 16.6584 28.9655 16.2947C29.1326 16.1022 29.3026 15.9126 29.4733 15.7232C29.5342 15.6556 29.5952 15.5879 29.658 15.5182C29.7901 15.372 29.9226 15.2261 30.0553 15.0803C30.1542 14.9713 30.1542 14.9713 30.2552 14.8601C30.3155 14.7939 30.3758 14.7277 30.438 14.6595C30.5836 14.504 30.5836 14.504 30.6614 14.332C30.6136 14.2116 30.5601 14.0934 30.504 13.9766C30.2448 13.35 30.2392 12.7451 30.4735 12.1082C30.7439 11.5193 31.1221 11.1096 31.7174 10.8388C32.5796 10.5628 33.4488 10.6586 34.1546 11.245ZM31.7514 12.0926C31.4558 12.4342 31.3579 12.7275 31.3646 13.1788C31.4164 13.5099 31.5816 13.7573 31.7987 14.0071C32.1319 14.2494 32.4377 14.2942 32.8405 14.2794C33.2098 14.2197 33.4301 13.9964 33.6925 13.7481C33.8817 13.4328 33.9258 13.1542 33.9108 12.7885C33.7728 12.3485 33.4817 12.0581 33.0985 11.8137C32.6083 11.6622 32.1363 11.7438 31.7514 12.0926ZM20.3442 15.9568C20.0544 16.2912 19.9457 16.5703 19.938 17.0129C20.038 17.5164 20.2515 17.7818 20.6692 18.0689C21.0233 18.187 21.3645 18.2166 21.7202 18.0975C22.0958 17.9081 22.3236 17.6574 22.4564 17.2566C22.5215 16.8714 22.4976 16.6062 22.3193 16.2563C22.0304 15.9205 21.8191 15.7089 21.3749 15.6318C20.966 15.6039 20.6702 15.7119 20.3442 15.9568ZM25.8484 18.6817C25.6163 19.0326 25.5456 19.3607 25.6247 19.7749C25.7603 20.1699 25.982 20.4296 26.3567 20.6149C26.7671 20.7512 27.1686 20.734 27.5591 20.5467C27.8779 20.3349 28.0453 20.0611 28.143 19.6937C28.165 19.2681 28.0945 18.89 27.8181 18.5564C27.5185 18.2793 27.2819 18.2065 26.8838 18.1908C26.4255 18.2101 26.1443 18.3153 25.8484 18.6817ZM14.4292 21.3489C14.1578 21.6745 14.0704 21.9024 14.089 22.3237C14.1463 22.7376 14.3423 23.0016 14.6576 23.2681C15.0026 23.4758 15.3205 23.4931 15.7137 23.4306C16.0689 23.2874 16.3043 23.1078 16.5261 22.7959C16.6643 22.3555 16.6858 21.9938 16.4753 21.5825C16.2339 21.2114 15.9412 21.0334 15.5157 20.9173C15.059 20.9093 14.7742 21.0575 14.4292 21.3489Z" fill="#FF7705"></path>
  <path d="M13.7968 35.4325C13.9071 35.4316 13.9071 35.4316 14.0197 35.4307C14.1411 35.431 14.1411 35.431 14.265 35.4313C14.3509 35.4309 14.4368 35.4305 14.5253 35.43C14.8145 35.4288 15.1038 35.4287 15.393 35.4287C15.5998 35.4281 15.8066 35.4274 16.0134 35.4266C16.5762 35.4249 17.139 35.4241 17.7018 35.4237C18.053 35.4235 18.4043 35.4229 18.7556 35.4223C19.7278 35.4208 20.7 35.4194 21.6723 35.4192C21.7345 35.4192 21.7967 35.4192 21.8608 35.4191C21.987 35.4191 22.1131 35.4191 22.2393 35.4191C22.3332 35.419 22.3332 35.419 22.4291 35.419C22.4918 35.419 22.5545 35.419 22.6191 35.419C23.6356 35.4187 24.6521 35.4165 25.6686 35.4134C26.7119 35.4104 27.7551 35.4088 28.7983 35.4088C29.3842 35.4087 29.9701 35.408 30.556 35.4057C31.1068 35.4035 31.6576 35.4034 32.2085 35.4047C32.411 35.4048 32.6135 35.4043 32.816 35.403C33.0918 35.4013 33.3675 35.4022 33.6433 35.4036C33.7241 35.4026 33.8048 35.4015 33.888 35.4004C34.4276 35.407 34.4276 35.407 34.6946 35.6465C34.8045 35.8598 34.8045 35.8598 34.7994 36.073C34.7169 36.2819 34.6534 36.3703 34.4795 36.5097C34.3147 36.5403 34.3147 36.5403 34.1218 36.5406C34.0115 36.5416 34.0115 36.5416 33.8989 36.5426C33.8179 36.5421 33.737 36.5417 33.6536 36.5412C33.5677 36.5416 33.4818 36.542 33.3933 36.5425C33.1041 36.5436 32.8148 36.5431 32.5256 36.5425C32.3188 36.5429 32.112 36.5435 31.9052 36.5442C31.4009 36.5455 30.8966 36.5456 30.3924 36.5452C29.9826 36.5449 29.5728 36.545 29.163 36.5454C29.1048 36.5455 29.0465 36.5456 28.9865 36.5456C28.8681 36.5457 28.7497 36.5459 28.6314 36.546C27.5208 36.5471 26.4101 36.5467 25.2995 36.5457C24.283 36.5449 23.2665 36.546 22.25 36.5479C21.2067 36.5499 20.1635 36.5507 19.1203 36.5501C18.5344 36.5499 17.9485 36.55 17.3626 36.5515C16.8118 36.5528 16.2609 36.5524 15.7101 36.5509C15.5076 36.5506 15.3051 36.5508 15.1025 36.5517C14.8268 36.5527 14.5511 36.5518 14.2753 36.5504C14.1945 36.5512 14.1138 36.5519 14.0306 36.5527C13.4938 36.5469 13.4938 36.5469 13.224 36.363C13.1141 36.1847 13.1141 36.1847 13.1192 35.8902C13.2303 35.4903 13.4114 35.4334 13.7968 35.4325Z" fill="#FF7705"></path>
  <path d="M13.8852 27.8774C13.9584 27.8768 14.0315 27.8763 14.1068 27.8757C14.2268 27.876 14.2268 27.876 14.3493 27.8763C14.4345 27.8758 14.5198 27.8754 14.6076 27.875C14.8942 27.8737 15.1807 27.8737 15.4673 27.8736C15.6724 27.873 15.8775 27.8723 16.0825 27.8716C16.6403 27.8698 17.198 27.8691 17.7558 27.8687C18.104 27.8684 18.4522 27.8679 18.8004 27.8673C19.7644 27.8657 20.7284 27.8644 21.6924 27.8641C21.7849 27.8641 21.7849 27.8641 21.8793 27.8641C22.0044 27.8641 22.1294 27.864 22.2545 27.864C22.3165 27.864 22.3786 27.864 22.4426 27.864C22.5047 27.8639 22.5669 27.8639 22.6309 27.8639C23.6384 27.8636 24.646 27.8614 25.6535 27.8584C26.6878 27.8553 27.7221 27.8537 28.7564 27.8537C29.3372 27.8537 29.918 27.853 30.4988 27.8506C31.0448 27.8484 31.5908 27.8483 32.1368 27.8496C32.3375 27.8498 32.5382 27.8492 32.7388 27.8479C33.0122 27.8463 33.2856 27.8471 33.559 27.8486C33.6389 27.8475 33.7187 27.8464 33.8009 27.8453C34.1759 27.85 34.3452 27.859 34.6538 28.0886C34.8045 28.3047 34.8045 28.3047 34.8045 28.5637C34.7232 28.7921 34.7232 28.7921 34.4795 28.9546C34.3141 28.9752 34.3141 28.9752 34.1204 28.9755C34.0095 28.9763 34.0095 28.9763 33.8964 28.9771C33.7744 28.9767 33.7744 28.9767 33.65 28.9763C33.5637 28.9767 33.4774 28.9771 33.3885 28.9774C33.0979 28.9785 32.8074 28.9783 32.5168 28.9782C32.3091 28.9787 32.1014 28.9792 31.8936 28.9799C31.3871 28.9812 30.8806 28.9817 30.3741 28.9818C29.9625 28.9818 29.5509 28.9822 29.1394 28.9827C27.9732 28.9841 26.8071 28.9849 25.6409 28.9847C25.5466 28.9847 25.5466 28.9847 25.4504 28.9847C25.3874 28.9847 25.3244 28.9847 25.2596 28.9847C24.2385 28.9846 23.2175 28.9862 22.1964 28.9885C21.1487 28.9908 20.101 28.9919 19.0533 28.9918C18.4648 28.9917 17.8763 28.9922 17.2878 28.9939C16.7347 28.9956 16.1815 28.9955 15.6283 28.9943C15.4249 28.9942 15.2214 28.9946 15.0179 28.9955C14.7411 28.9968 14.4643 28.996 14.1874 28.9948C14.1061 28.9956 14.0248 28.9965 13.941 28.9973C13.8671 28.9966 13.7932 28.9958 13.717 28.995C13.6531 28.9951 13.5892 28.9951 13.5233 28.9952C13.3579 28.9546 13.3579 28.9546 13.2132 28.808C13.0623 28.5363 13.1142 28.3531 13.1954 28.061C13.425 27.9067 13.6123 27.8781 13.8852 27.8774Z" fill="#FF7705"></path>
  <path d="M13.8114 39.2498C13.9072 39.2503 13.9072 39.2503 14.0049 39.2507C14.0725 39.2504 14.1402 39.2501 14.2099 39.2498C14.4378 39.2489 14.6658 39.2493 14.8937 39.2496C15.0566 39.2492 15.2195 39.2488 15.3824 39.2483C15.8259 39.2472 16.2693 39.2472 16.7127 39.2474C17.0824 39.2475 17.4521 39.2471 17.8217 39.2467C18.6936 39.2458 19.5654 39.2458 20.4372 39.2463C21.3378 39.2467 22.2383 39.2457 23.1389 39.244C23.9111 39.2426 24.6832 39.2421 25.4554 39.2424C25.917 39.2425 26.3786 39.2423 26.8403 39.2412C27.2743 39.2401 27.7083 39.2403 28.1423 39.2414C28.3019 39.2416 28.4615 39.2413 28.6211 39.2407C28.8383 39.2398 29.0556 39.2405 29.2729 39.2415C29.3365 39.2409 29.4002 39.2403 29.4658 39.2397C29.8887 39.2439 29.8887 39.2439 30.0913 39.3804C30.2218 39.594 30.2044 39.7593 30.1739 40.003C30.0912 40.1382 30.0912 40.1382 29.9302 40.2467C29.7052 40.2709 29.4985 40.28 29.2734 40.2782C29.2057 40.2787 29.138 40.2791 29.0682 40.2796C28.8405 40.2807 28.6128 40.2801 28.3851 40.2796C28.2222 40.28 28.0593 40.2806 27.8964 40.2813C27.4533 40.2827 27.0102 40.2826 26.5671 40.2822C26.1976 40.2819 25.8282 40.2824 25.4587 40.2829C24.5874 40.284 23.7161 40.2839 22.8447 40.283C21.9447 40.282 21.0448 40.2832 20.1448 40.2854C19.373 40.2872 18.6012 40.2877 17.8294 40.2872C17.368 40.287 16.9067 40.2872 16.4453 40.2886C16.0116 40.2898 15.578 40.2895 15.1443 40.288C14.9848 40.2877 14.8254 40.2879 14.6659 40.2888C14.4488 40.2898 14.2318 40.2889 14.0147 40.2875C13.9192 40.2886 13.9192 40.2886 13.8219 40.2898C13.5512 40.2861 13.3986 40.2838 13.194 40.0976C13.0812 39.8493 13.1224 39.6925 13.1954 39.4344C13.4012 39.2286 13.5307 39.2521 13.8114 39.2498Z" fill="#FF7705"></path>
  <path d="M20.98 31.6944C21.0377 31.694 21.0954 31.6935 21.1548 31.6931C21.3491 31.6919 21.5433 31.6918 21.7376 31.6918C21.8765 31.6912 22.0154 31.6905 22.1543 31.6897C22.5323 31.6879 22.9103 31.6872 23.2882 31.6868C23.5242 31.6865 23.7601 31.686 23.9961 31.6854C24.8186 31.6834 25.6411 31.6824 26.4636 31.6821C27.2313 31.6818 27.9989 31.6794 28.7666 31.676C29.4249 31.6732 30.0832 31.6719 30.7416 31.6718C31.1351 31.6718 31.5286 31.6711 31.9222 31.6688C32.2922 31.6666 32.6621 31.6664 33.0321 31.6678C33.1681 31.6679 33.3042 31.6674 33.4402 31.6661C33.6255 31.6644 33.8106 31.6653 33.9959 31.6667C34.0997 31.6666 34.2035 31.6664 34.3105 31.6662C34.5607 31.7167 34.5607 31.7167 34.7211 31.9067C34.8045 32.1229 34.8045 32.1229 34.7537 32.3818C34.642 32.6103 34.642 32.6103 34.3983 32.7728C34.1537 32.7937 34.1537 32.7937 33.8474 32.7945C33.7629 32.795 33.7629 32.795 33.6767 32.7956C33.4876 32.7966 33.2985 32.7965 33.1093 32.7964C32.9739 32.7968 32.8384 32.7974 32.703 32.798C32.3347 32.7994 31.9665 32.7998 31.5982 32.7999C31.291 32.8001 30.9837 32.8007 30.6764 32.8013C29.9515 32.8026 29.2267 32.803 28.5018 32.8029C27.7537 32.8028 27.0057 32.8045 26.2576 32.807C25.6156 32.8092 24.9737 32.81 24.3317 32.8099C23.9481 32.8099 23.5646 32.8104 23.1811 32.8121C22.8203 32.8137 22.4596 32.8137 22.0989 32.8125C21.9665 32.8123 21.8341 32.8127 21.7017 32.8137C21.5209 32.8149 21.3402 32.8142 21.1594 32.8129C21.0583 32.813 20.9571 32.8131 20.8529 32.8132C20.5372 32.765 20.399 32.6797 20.1818 32.4478C20.193 31.7986 20.3652 31.6966 20.98 31.6944Z" fill="#FF7705"></path>
  <path d="M13.7676 31.6922C13.853 31.6909 13.9384 31.6896 14.0264 31.6882C14.119 31.6878 14.2116 31.6874 14.307 31.6869C14.4017 31.6862 14.4965 31.6854 14.5941 31.6847C14.7948 31.6835 14.9955 31.6828 15.1962 31.6825C15.504 31.6815 15.8117 31.6775 16.1194 31.6734C16.3141 31.6727 16.5088 31.6721 16.7035 31.6717C16.7959 31.6701 16.8883 31.6685 16.9835 31.6669C17.0692 31.6674 17.1548 31.6679 17.2431 31.6684C17.3185 31.668 17.394 31.6675 17.4717 31.6671C17.6634 31.7171 17.6634 31.7171 17.8118 31.9099C17.9071 32.1232 17.9071 32.1232 17.902 32.3365C17.8078 32.5752 17.7181 32.64 17.5009 32.7731C17.3135 32.8046 17.3135 32.8046 17.1051 32.806C17.0267 32.807 16.9483 32.808 16.8676 32.8091C16.7835 32.8088 16.6994 32.8086 16.6127 32.8084C16.5258 32.8088 16.4388 32.8092 16.3493 32.8097C16.1655 32.8102 15.9818 32.8101 15.798 32.8094C15.517 32.8087 15.2361 32.811 14.9551 32.8136C14.7765 32.8137 14.5979 32.8137 14.4193 32.8134C14.2934 32.8148 14.2934 32.8148 14.1649 32.8162C13.8037 32.8127 13.5796 32.8066 13.2607 32.6266C13.1141 32.4482 13.1141 32.4482 13.1192 32.1537C13.2364 31.7319 13.3561 31.6969 13.7676 31.6922Z" fill="#FF7705"></path>
</svg>
