<?xml version="1.0" encoding="UTF-8"?>
<svg xmlns="http://www.w3.org/2000/svg" width="48" height="48" viewBox="0 0 48 48" fill="none">
  <path d="M28.1701 20.4375C28.5993 20.8794 28.9676 21.3291 28.9966 21.9599C28.9653 22.3601 28.8053 22.61 28.5394 22.9038C28.2152 23.1421 27.8622 23.1773 27.4665 23.1494C26.9342 23.0269 26.634 22.6444 26.2894 22.2522C25.3274 21.1674 24.0469 20.6334 22.6061 20.4916C21.2318 20.4201 19.7642 20.8055 18.6962 21.6859C18.5846 21.7885 18.5846 21.7885 18.4708 21.8932C18.4297 21.9309 18.3887 21.9686 18.3464 22.0074C17.8966 22.4223 17.4588 22.8491 17.0225 23.2776C16.9328 23.3654 16.8431 23.4532 16.7534 23.5409C16.4629 23.8253 16.1728 24.11 15.8828 24.3948C15.7821 24.4936 15.6813 24.5925 15.5806 24.6913C15.1077 25.1553 14.6351 25.6196 14.1627 26.084C13.6201 26.6174 13.0769 27.1501 12.5332 27.6822C12.1106 28.0958 11.6887 28.5101 11.2672 28.9247C11.0164 29.1715 10.7653 29.418 10.5136 29.6638C10.277 29.8949 10.0413 30.1267 9.80602 30.3591C9.72014 30.4436 9.63399 30.528 9.54755 30.612C8.29964 31.8257 7.56837 33.198 7.55579 34.9401C7.57113 36.5157 8.15682 37.8188 9.26336 38.9569C10.0293 39.6788 10.9542 40.1186 11.9771 40.3638C12.0371 40.3789 12.0971 40.3939 12.1589 40.4095C13.6726 40.6383 15.2052 40.3445 16.4551 39.4599C16.8686 39.1461 17.2454 38.8141 17.6113 38.448C17.667 38.393 17.7227 38.3379 17.78 38.2812C17.8995 38.163 18.0188 38.0446 18.138 37.926C18.3266 37.7383 18.5156 37.5511 18.7049 37.3641C19.1058 36.9675 19.5062 36.5704 19.9064 36.1732C20.3718 35.7113 20.8374 35.2497 21.3038 34.7887C21.49 34.6043 21.6758 34.4194 21.8616 34.2345C21.9754 34.1219 22.0893 34.0092 22.2032 33.8966C22.2547 33.8451 22.3062 33.7936 22.3592 33.7406C22.407 33.6935 22.4548 33.6465 22.504 33.598C22.5451 33.5571 22.5863 33.5163 22.6287 33.4742C22.9912 33.1713 23.341 33.1776 23.8003 33.1859C24.1147 33.2195 24.2838 33.3117 24.5123 33.5252C24.7198 33.8134 24.7897 34.0224 24.7967 34.3751C24.8018 34.4901 24.8018 34.4901 24.807 34.6075C24.6809 35.1879 24.1448 35.6395 23.7292 36.0471C23.6509 36.1247 23.6509 36.1247 23.5712 36.2038C23.4003 36.3731 23.2289 36.5418 23.0574 36.7105C22.937 36.8293 22.8167 36.9481 22.6963 37.0669C22.4445 37.3155 22.1923 37.5637 21.9399 37.8118C21.6189 38.1274 21.2988 38.4438 20.979 38.7605C20.7307 39.0061 20.4818 39.2512 20.2328 39.4961C20.1147 39.6124 19.9968 39.729 19.879 39.8456C19.0225 40.694 18.1527 41.5325 17.057 42.0783C17.0004 42.1071 16.9438 42.1359 16.8855 42.1655C14.9654 43.114 12.6233 43.2905 10.5764 42.6336C9.58469 42.285 8.71002 41.82 7.9051 41.1498C7.84345 41.1018 7.7818 41.0537 7.71828 41.0043C6.22995 39.7939 5.27956 37.9077 5.03078 36.0405C4.90707 34.2724 5.10105 32.748 5.90904 31.167C5.9499 31.0857 5.99076 31.0043 6.03286 30.9205C6.83159 29.459 8.23348 28.3037 9.41491 27.1416C9.61346 26.9462 9.81177 26.7506 10.0101 26.555C10.4783 26.0931 10.947 25.6316 11.416 25.1704C11.897 24.6973 12.3773 24.2235 12.8573 23.7493C13.2723 23.3393 13.6878 22.9298 14.1037 22.5206C14.3508 22.2775 14.5978 22.0342 14.8442 21.7904C15.076 21.5613 15.3083 21.3327 15.541 21.1046C15.6255 21.0216 15.7098 20.9384 15.7939 20.855C19.323 17.355 24.4554 16.9725 28.1701 20.4375Z" fill="#FF7705"></path>
  <path d="M34.7617 5.02607C34.8571 5.02646 34.9524 5.02684 35.0507 5.02724C35.7498 5.03636 36.3882 5.08942 37.0616 5.2862C37.1992 5.32629 37.1992 5.32629 37.3395 5.36719C38.4008 5.71022 39.3323 6.21445 40.1748 6.93534C40.2595 7.00086 40.3443 7.06631 40.4292 7.13167C41.8574 8.3806 42.855 10.3375 42.9862 12.2137C43.0452 13.9085 42.8657 15.3144 42.0905 16.8302C42.0497 16.9115 42.0088 16.9928 41.9667 17.0765C41.1722 18.5294 39.7796 19.6781 38.6042 20.8334C38.4077 21.0266 38.2115 21.2201 38.0152 21.4136C37.5516 21.8705 37.0876 22.327 36.6234 22.7833C36.1474 23.251 35.6722 23.7195 35.1974 24.1883C34.7866 24.5939 34.3753 24.999 33.9636 25.4037C33.7191 25.6441 33.4748 25.8847 33.2309 26.1257C33.0015 26.3524 32.7716 26.5784 32.5412 26.8041C32.4576 26.8861 32.3743 26.9683 32.2912 27.0507C30.5243 28.8019 28.4826 29.9648 25.9294 30.0257C23.6573 30.0334 21.6728 29.2057 20.0084 27.6962C19.5319 27.2267 19.0598 26.7469 18.9966 26.0624C19.0346 25.6355 19.1744 25.4049 19.4655 25.0906C19.7892 24.8472 20.1398 24.8122 20.5382 24.8403C21.0701 24.9626 21.3703 25.3444 21.7143 25.7363C22.5559 26.6827 23.7705 27.3413 25.0576 27.4493C26.5724 27.5307 28.1017 27.3276 29.2863 26.3119C29.8621 25.7906 30.4241 25.2579 30.9785 24.7147C31.068 24.6272 31.1575 24.5398 31.2471 24.4524C31.5371 24.1691 31.8267 23.8853 32.1163 23.6016C32.2169 23.503 32.3175 23.4045 32.4181 23.3059C32.8367 22.8958 33.2552 22.4856 33.6734 22.075C34.2687 21.4906 34.8647 20.9069 35.4617 20.3241C35.8839 19.9118 36.3053 19.4988 36.7261 19.0851C36.9764 18.8391 37.2271 18.5935 37.4786 18.3486C37.7151 18.1183 37.9506 17.8871 38.1854 17.6552C38.2711 17.5709 38.357 17.487 38.4434 17.4034C39.6851 16.2007 40.4202 14.804 40.4392 13.0754C40.4293 11.4943 39.8458 10.1873 38.737 9.04769C37.9713 8.32639 37.0465 7.88705 36.0239 7.64212C35.934 7.61949 35.934 7.61949 35.8422 7.59641C34.3283 7.36777 32.797 7.6618 31.5468 8.54521C31.1344 8.85772 30.7603 9.18825 30.3973 9.55484C30.3423 9.60969 30.2873 9.66454 30.2306 9.72105C30.1125 9.83893 29.9945 9.95698 29.8767 10.0752C29.6898 10.2625 29.5023 10.4492 29.3146 10.6356C28.7814 11.1655 28.2489 11.6959 27.718 12.228C27.3921 12.5545 27.0651 12.8799 26.7373 13.2045C26.6131 13.3279 26.4894 13.4518 26.3661 13.5761C26.1937 13.7499 26.0198 13.9222 25.8455 14.0943C25.7955 14.1454 25.7454 14.1966 25.6939 14.2493C25.3028 14.6306 24.8779 14.8629 24.3161 14.8694C23.8003 14.7396 23.55 14.5211 23.2522 14.0816C23.2197 13.8745 23.2197 13.8745 23.2123 13.635C23.2081 13.5569 23.204 13.4789 23.1998 13.3985C23.3177 12.815 23.8582 12.3628 24.2746 11.9547C24.3267 11.9031 24.3789 11.8514 24.4326 11.7981C24.6034 11.629 24.7748 11.4604 24.9462 11.2919C25.0666 11.1732 25.1869 11.0545 25.3072 10.9358C25.559 10.6875 25.8111 10.4395 26.0634 10.1917C26.3844 9.8764 26.7044 9.56025 27.0241 9.24384C27.2724 8.99845 27.5212 8.75361 27.7702 8.50892C27.8882 8.39271 28.0061 8.27632 28.1238 8.15973C28.9787 7.31361 29.8481 6.47617 30.9402 5.92917C31.0247 5.88604 31.0247 5.88604 31.1109 5.84203C31.6889 5.55699 32.284 5.36231 32.9108 5.20767C32.9696 5.19316 33.0284 5.17866 33.089 5.16371C33.647 5.03885 34.1909 5.02334 34.7617 5.02607Z" fill="#FF7705"></path>
</svg>
