<?xml version="1.0" encoding="UTF-8"?>
<svg xmlns="http://www.w3.org/2000/svg" width="48" height="48" viewBox="0 0 48 48" fill="none">
  <g clip-path="url(#clip0_5243_405)">
    <path d="M19.0314 8.4375C19.1116 8.4682 19.1917 8.49889 19.2742 8.53052C20.6271 9.11611 21.5581 10.3587 22.1212 11.677C22.3984 12.5929 22.4248 13.4646 22.3713 14.4141C22.3519 14.793 22.3326 15.172 22.3127 15.5625C24.0297 15.6089 24.0297 15.6089 25.7814 15.6563C25.7505 15.5944 25.7196 15.5325 25.6877 15.4688C25.6501 15.0988 25.6392 14.7269 25.6232 14.3555C25.6176 14.254 25.612 14.1524 25.6062 14.0479C25.5334 12.3765 25.99 11.0096 27.0789 9.73572C27.9969 8.75765 29.2498 8.09635 30.6008 8.04016C31.5578 8.01938 32.386 8.05993 33.2814 8.4375C33.3637 8.47037 33.446 8.50324 33.5308 8.53711C34.8349 9.11761 35.7827 10.3723 36.6444 11.469C36.8772 11.7603 37.1177 12.0443 37.3596 12.3281C37.7243 12.7565 38.0795 13.1908 38.4289 13.6318C38.6616 13.9201 38.9007 14.2024 39.1408 14.4844C39.5056 14.9127 39.8607 15.347 40.2102 15.7881C40.4428 16.0763 40.6819 16.3586 40.9221 16.6406C41.2868 17.069 41.642 17.5033 41.9914 17.9443C42.2241 18.2326 42.4632 18.5149 42.7033 18.7969C43.0688 19.226 43.4247 19.6611 43.7745 20.1031C43.9547 20.3261 44.1395 20.5445 44.3264 20.7619C46.9007 23.7624 48.155 26.5511 48.0002 30.5625C47.9608 31.0773 47.8606 31.566 47.7189 32.0625C47.7013 32.1246 47.6837 32.1868 47.6655 32.2508C47.2183 33.7758 46.4602 35.2089 45.3752 36.375C45.3314 36.4232 45.2875 36.4713 45.2424 36.5209C43.4562 38.4695 40.9171 39.7868 38.2576 39.9548C36.4225 40.0334 34.6854 39.8636 33.0002 39.0938C32.8914 39.0444 32.7827 38.9951 32.6706 38.9443C31.5423 38.4071 30.623 37.6997 29.7189 36.8438C29.6511 36.7798 29.5833 36.7159 29.5135 36.65C29.0118 36.1636 29.0118 36.1636 28.8579 35.913C28.6076 35.513 28.6076 35.513 28.2169 35.2724C27.9909 35.2442 27.7748 35.2391 27.547 35.2422C27.4623 35.2405 27.3777 35.2387 27.2904 35.2369C27.0113 35.2322 26.7326 35.233 26.4534 35.2343C26.2587 35.233 26.0639 35.2316 25.8692 35.2301C25.4612 35.2277 25.0533 35.2282 24.6452 35.2305C24.1237 35.2332 23.6026 35.2278 23.0811 35.2202C22.6789 35.2154 22.2767 35.2153 21.8744 35.2167C21.6823 35.2167 21.4901 35.2151 21.298 35.2118C20.2273 35.1494 20.2273 35.1494 19.2933 35.5708C19.0804 35.8294 18.9146 36.0839 18.7502 36.375C17.143 38.3008 14.6292 39.6247 12.1489 39.9158C9.34156 40.167 6.70967 39.6308 4.40644 37.9688C4.29514 37.8913 4.29514 37.8913 4.18159 37.8124C3.20745 37.1002 2.31441 36.1871 1.68769 35.1562C1.65536 35.1053 1.62303 35.0543 1.58973 35.0017C1.11657 34.2506 0.757603 33.4906 0.474799 32.6484C0.448333 32.5698 0.421867 32.4913 0.394599 32.4103C0.0591339 31.3551 -0.0341221 30.3244 -0.0291073 29.2207C-0.0286465 29.1007 -0.0281858 28.9807 -0.0277111 28.857C-0.0172524 28.0144 0.0405643 27.2489 0.28144 26.4375C0.312256 26.3254 0.343073 26.2132 0.374823 26.0977C0.798981 24.6887 1.51166 23.4499 2.43769 22.3125C2.50512 22.2283 2.57256 22.144 2.64204 22.0573C3.06501 21.5342 3.50045 21.0217 3.93618 20.5093C4.25386 20.1347 4.56142 19.7531 4.8664 19.3682C5.14246 19.0262 5.4278 18.6924 5.71271 18.3578C5.96998 18.0549 6.22214 17.749 6.46894 17.4375C6.76757 17.0611 7.07327 16.6915 7.383 16.3242C7.42615 16.2729 7.46929 16.2215 7.51374 16.1686C8.17821 15.384 8.17821 15.384 8.57831 15.334C9.06184 15.3944 9.06184 15.3944 9.28144 15.6563C9.37519 15.9668 9.37519 15.9668 9.37519 16.3125C9.12703 16.7344 8.8216 17.0986 8.50214 17.4668C8.09093 17.9463 7.69407 18.4338 7.31269 18.9375C7.4304 18.9115 7.5481 18.8855 7.66938 18.8588C9.33907 18.4949 9.33907 18.4949 10.0314 18.4688C10.1323 18.4639 10.2333 18.4591 10.3372 18.4541C13.2949 18.3787 16.053 19.4781 18.211 21.4874C18.8849 22.1393 19.4849 22.8695 19.9363 23.6925C19.9778 23.7678 20.0192 23.8432 20.0619 23.9208C20.0931 23.9779 20.1243 24.0349 20.1564 24.0938C20.206 23.3512 20.2549 22.6087 20.3031 21.8661C20.3256 21.5211 20.3482 21.1761 20.3712 20.8312C20.7165 17.5656 20.7165 17.5656 19.5002 14.625C19.4441 14.5438 19.388 14.4626 19.3303 14.3789C18.2629 13.22 16.7401 12.5872 15.1877 12.4688C14.1976 12.4483 13.3843 12.6912 12.4689 13.0313C12.3665 13.0594 12.264 13.0876 12.1584 13.1166C11.9002 13.1923 11.9002 13.1923 11.8046 13.3843C11.7764 13.4534 11.7481 13.5225 11.7189 13.5938C11.0109 14.536 11.0109 14.536 10.5661 14.7085C10.2288 14.7263 10.0505 14.6412 9.79706 14.4258C9.63242 14.1102 9.62235 13.9457 9.65644 13.5938C9.78425 13.3766 9.78425 13.3766 9.96699 13.166C10.0353 13.0857 10.1035 13.0053 10.1739 12.9225C10.2506 12.8346 10.3274 12.7468 10.4064 12.6563C10.5347 12.5056 10.6623 12.3544 10.79 12.2032C10.8784 12.0986 10.967 11.9941 11.0558 11.8898C11.3181 11.5815 11.5738 11.2692 11.8244 10.9512C13.6347 8.67537 16.1073 7.20929 19.0314 8.4375ZM14.1564 10.5938C14.0589 10.7158 13.9638 10.8401 13.8752 10.9688C13.9864 10.9655 14.0976 10.9622 14.2121 10.9589C16.5706 10.9106 18.5627 11.5112 20.2974 13.1763C20.47 13.3459 20.6424 13.5155 20.8127 13.6875C21.0097 13.2934 20.8223 12.7839 20.7189 12.375C20.2683 11.2067 19.5851 10.4147 18.4689 9.84375C16.9814 9.24363 15.359 9.53509 14.1564 10.5938ZM27.9435 11.1035C27.3823 11.8917 27.2062 12.6379 27.0939 13.5938C27.1868 13.5938 27.2796 13.5938 27.3752 13.5938C27.5152 13.456 27.5152 13.456 27.6506 13.2715C28.8251 11.8836 30.5699 11.1724 32.3439 10.9688C32.6546 10.9584 32.9648 10.9598 33.2756 10.9629C33.3576 10.9633 33.4396 10.9637 33.5241 10.9642C33.7244 10.9653 33.9248 10.9669 34.1252 10.9688C33.4879 10.1614 32.7076 9.73202 31.6877 9.5625C30.209 9.40152 28.888 9.95651 27.9435 11.1035ZM29.3439 13.6875C29.2856 13.7306 29.2272 13.7738 29.1671 13.8182C28.2776 14.5118 27.7264 15.5402 27.3752 16.5938C27.2874 18.0828 27.4513 19.5922 27.549 21.0783C27.572 21.4297 27.5944 21.7811 27.6169 22.1325C27.6608 22.8175 27.7053 23.5025 27.7502 24.1875C27.9872 23.959 28.1442 23.7331 28.3127 23.4492C29.8574 20.9907 32.2309 19.4455 35.0305 18.7929C36.7564 18.4154 38.6115 18.4399 40.2999 18.9855C40.5159 19.0531 40.5159 19.0531 40.7814 18.9375C40.719 18.8647 40.6565 18.792 40.5921 18.717C40.1316 18.1782 39.6801 17.6349 39.2463 17.0742C38.827 16.5333 38.3858 16.0153 37.9351 15.5004C37.6468 15.1706 37.3638 14.8382 37.09 14.4961C37.0028 14.3871 37.0028 14.3871 36.9139 14.276C36.8034 14.1319 36.6973 13.9845 36.5953 13.8344C36.1766 13.2345 35.7472 12.9915 35.0627 12.75C34.9873 12.7212 34.9119 12.6925 34.8342 12.6628C32.9701 12.019 30.8618 12.4704 29.3439 13.6875ZM22.1252 17.1563C22.0943 17.8988 22.0633 18.6413 22.0314 19.4063C23.3308 19.4063 24.6302 19.4063 25.9689 19.4063C25.938 18.6638 25.9071 17.9213 25.8752 17.1563C24.6377 17.1563 23.4002 17.1563 22.1252 17.1563ZM3.91212 22.949C2.21638 24.7343 1.43388 27.0623 1.46245 29.5C1.53967 32.1086 2.70037 34.3866 4.57636 36.1641C6.55725 37.8745 9.03045 38.6247 11.6252 38.4375C13.916 38.1832 15.8231 37.1459 17.4377 35.5312C17.5002 35.4688 17.5626 35.4063 17.627 35.3419C19.4305 33.4082 19.9673 30.881 19.8916 28.324C19.7971 26.6362 19.098 25.0594 18.0939 23.7188C18.0247 23.6253 17.9554 23.5319 17.8841 23.4357C16.3624 21.4956 14.0735 20.3198 11.6431 20.0182C8.68037 19.7627 5.9968 20.8439 3.91212 22.949ZM31.3127 22.2188C31.2537 22.2624 31.1947 22.306 31.134 22.351C29.7948 23.3838 28.8776 25.1393 28.4064 26.7188C28.3765 26.8151 28.3465 26.9114 28.3156 27.0106C27.6831 29.4088 28.201 31.9308 29.4283 34.0379C29.7332 34.5422 30.0773 34.998 30.4689 35.4375C30.5639 35.5441 30.5639 35.5441 30.6608 35.6528C31.8713 36.934 33.5443 37.835 35.2502 38.25C35.3359 38.271 35.4216 38.2921 35.5098 38.3137C37.8795 38.7976 40.3865 38.2613 42.404 36.953C44.5187 35.4967 45.9153 33.3388 46.4149 30.8236C46.8107 28.5562 46.3485 26.1788 45.1057 24.2402C44.7345 23.7165 44.3182 23.2448 43.8752 22.7812C43.7907 22.6863 43.7907 22.6863 43.7045 22.5894C42.1107 20.8644 39.7786 20.1271 37.5002 19.9688C35.1745 19.9688 33.1066 20.7543 31.3127 22.2188ZM21.9377 21C21.8064 21.8087 21.8064 21.8087 21.8439 23.25C23.2671 23.25 24.6902 23.25 26.1564 23.25C26.194 21.8087 26.194 21.8087 26.0627 21C24.7014 21 23.3402 21 21.9377 21ZM21.6564 24.8438C21.6385 25.0158 21.6267 25.1885 21.6173 25.3612C21.611 25.4721 21.6047 25.583 21.5983 25.6973C21.5917 25.8187 21.5852 25.94 21.5784 26.0651C21.5711 26.1912 21.5638 26.3174 21.5563 26.4435C21.5247 26.9792 21.4937 27.5149 21.4648 28.0507C21.369 29.813 21.2736 31.5265 20.6003 33.1813C20.5157 33.3849 20.5157 33.3849 20.5314 33.6562C22.8208 33.6562 25.1102 33.6562 27.4689 33.6562C27.3747 33.1853 27.237 32.7424 27.085 32.2885C26.7672 31.3057 26.6805 30.3142 26.6219 29.2874C26.614 29.1587 26.6061 29.0301 26.5981 28.9015C26.5775 28.5665 26.5575 28.2315 26.5377 27.8965C26.5058 27.357 26.4734 26.8176 26.4401 26.2783C26.4287 26.0903 26.4178 25.9022 26.4069 25.7141C26.4 25.6011 26.3931 25.4881 26.386 25.3716C26.3801 25.2717 26.3743 25.1717 26.3682 25.0687C26.3682 24.8484 26.3682 24.8484 26.2502 24.75C26.1097 24.7408 25.9688 24.738 25.8279 24.7379C25.7382 24.7376 25.6484 24.7373 25.5559 24.737C25.4582 24.7372 25.3606 24.7374 25.26 24.7375C25.1604 24.7375 25.0609 24.7374 24.9584 24.7373C24.7475 24.7372 24.5366 24.7374 24.3257 24.7378C24.0016 24.7383 23.6775 24.7378 23.3535 24.7372C23.1491 24.7372 22.9448 24.7374 22.7404 24.7375C22.6428 24.7374 22.5451 24.7372 22.4445 24.737C22.3098 24.7374 22.3098 24.7374 22.1724 24.7379C22.093 24.7379 22.0135 24.738 21.9317 24.7381C21.7496 24.73 21.7496 24.73 21.6564 24.8438Z" fill="#FF7705"></path>
    <path d="M41.8242 23.3145C41.9458 23.4173 42.067 23.5207 42.1874 23.625C42.2803 23.6927 42.3731 23.7604 42.4687 23.8301C43.7608 24.9366 44.5174 26.7563 44.7187 28.4062C44.8841 30.6907 44.1991 32.6211 42.7353 34.366C41.4503 35.742 39.5561 36.5707 37.69 36.6713C35.484 36.7285 33.5994 36.0004 31.9921 34.4824C30.474 32.8914 29.836 30.9337 29.8828 28.7556C29.961 26.8103 30.9118 25.0191 32.2965 23.6799C34.9762 21.3626 38.9894 21.1397 41.8242 23.3145ZM32.707 25.5333C31.7781 26.6644 31.3179 28.1121 31.371 29.5723C31.5531 31.3014 32.2908 32.7765 33.6566 33.8848C34.9496 34.8554 36.4072 35.2669 38.017 35.113C39.644 34.8613 41.11 34.0528 42.0937 32.7187C43.0512 31.3089 43.4244 29.7365 43.1249 28.0547C42.837 26.8382 42.2478 25.8 41.3437 24.9375C41.2841 24.8772 41.2245 24.8169 41.1632 24.7548C40.0206 23.6643 38.4854 23.2977 36.9525 23.3243C35.1897 23.3901 33.8495 24.2668 32.707 25.5333Z" fill="#FF7705"></path>
    <path d="M15.1407 23.2559C15.251 23.3466 15.3604 23.4384 15.4689 23.5312C15.5276 23.5756 15.5863 23.62 15.6468 23.6656C17.0255 24.7582 17.8926 26.5917 18.0939 28.3125C18.2309 30.5918 17.692 32.5603 16.1625 34.3103C14.6853 35.8556 12.8093 36.6336 10.6876 36.6914C8.52364 36.6347 6.66142 35.7558 5.15636 34.2187C3.77199 32.7421 3.23151 30.8334 3.26195 28.8497C3.31621 27.1997 3.93578 25.7376 4.96886 24.4687C5.01164 24.4107 5.05443 24.3527 5.0985 24.293C7.44733 21.255 12.1921 21.1077 15.1407 23.2559ZM8.81261 23.625C8.73297 23.65 8.65333 23.675 8.57128 23.7008C7.03336 24.244 5.94251 25.4745 5.25011 26.9062C5.01492 27.484 4.826 28.0626 4.78136 28.6875C4.77544 28.7657 4.76952 28.8439 4.76342 28.9244C4.69395 30.5939 5.34841 32.1548 6.46886 33.375C7.65185 34.5747 9.15486 35.129 10.826 35.1628C12.5526 35.0966 13.9999 34.3302 15.1876 33.0937C16.1712 31.9108 16.6658 30.4758 16.6265 28.9384C16.4516 27.0897 15.6319 25.6575 14.2091 24.4805C12.6182 23.3219 10.6795 23.0081 8.81261 23.625Z" fill="#FF7705"></path>
    <path d="M25.5257 27.5735C25.9809 28.0699 26.1828 28.5908 26.209 29.2617C26.1726 29.9914 25.9489 30.4305 25.418 30.9258C24.8298 31.4005 24.2708 31.4773 23.5313 31.4063C22.9148 31.2845 22.5096 30.9561 22.1251 30.4688C21.7634 29.8737 21.7309 29.1617 21.891 28.489C22.1371 27.8563 22.5503 27.4353 23.16 27.1644C23.9634 26.8555 24.8697 27.0147 25.5257 27.5735ZM23.4903 28.7402C23.3138 28.9704 23.3138 28.9704 23.3438 29.3027C23.4129 29.6215 23.4129 29.6215 23.5958 29.8125C23.8969 29.9427 24.0651 29.9114 24.3751 29.8125C24.5884 29.6133 24.6471 29.4899 24.6973 29.2031C24.6416 28.8845 24.5436 28.7801 24.2813 28.5938C23.9383 28.5366 23.7839 28.552 23.4903 28.7402Z" fill="#FF7705"></path>
  </g>
  <defs>
    <clipPath id="clip0_5243_405">
      <rect width="48" height="48" fill="white"></rect>
    </clipPath>
  </defs>
</svg>
