<?xml version="1.0" encoding="UTF-8"?>
<svg xmlns="http://www.w3.org/2000/svg" width="48" height="48" viewBox="0 0 48 48" fill="none">
  <g clip-path="url(#clip0_4393_150)">
    <path d="M23.4224 1.96126C24.4315 2.73669 25.274 3.7503 25.6885 4.96895C25.711 5.24598 25.711 5.24598 25.7098 5.55573C25.7097 5.67207 25.7097 5.7884 25.7097 5.90826C25.7088 6.03425 25.7078 6.16023 25.7068 6.28621C25.7064 6.41586 25.7062 6.5455 25.706 6.67515C25.7053 7.01531 25.7034 7.35544 25.7013 7.69559C25.6994 8.04312 25.6986 8.39064 25.6976 8.73817C25.6956 9.41927 25.6924 10.1004 25.6885 10.7814C26.0789 10.7889 26.4688 10.7908 26.8592 10.7877C26.9918 10.7875 27.1244 10.7887 27.2569 10.7914C28.038 10.8247 28.038 10.8247 28.7232 10.5097C28.8884 10.2829 28.9983 10.1173 29.0635 9.84395C28.9837 9.57536 28.8753 9.37409 28.7295 9.13496C28.377 8.53725 28.4403 7.79583 28.501 7.1252C28.6798 6.54939 28.9783 6.11008 29.4385 5.71895C29.54 5.62034 29.54 5.62034 29.6435 5.51973C30.2417 5.12095 30.9769 4.95969 31.6885 5.0627C32.5229 5.25526 33.2198 5.66227 33.6957 6.38985C34.0717 7.11216 34.1611 7.89576 33.9714 8.69331C33.6529 9.57262 33.131 10.1129 32.2913 10.5086C31.9523 10.6356 31.6969 10.7049 31.3358 10.6441C30.9998 10.5898 30.7961 10.5819 30.4697 10.6877C30.1061 11.0688 29.872 11.5588 29.643 12.0287C29.495 12.2411 29.4053 12.2943 29.1572 12.3752C28.8888 12.391 28.6299 12.397 28.3618 12.3935C28.2853 12.3932 28.2089 12.393 28.1301 12.3927C27.8865 12.3917 27.643 12.3893 27.3994 12.3869C27.234 12.386 27.0686 12.3851 26.9032 12.3844C26.4983 12.3824 26.0934 12.3788 25.6885 12.3752C25.6885 13.4889 25.6885 14.6027 25.6885 15.7502C26.8532 15.7698 28.0175 15.7833 29.1824 15.7864C29.7234 15.7881 30.2641 15.7923 30.805 15.8026C31.3279 15.8124 31.8504 15.8153 32.3733 15.8135C32.572 15.814 32.7706 15.817 32.9692 15.8225C34.1546 15.8787 34.1546 15.8787 35.1648 15.3499C35.4331 15.0593 35.6575 14.7467 35.8771 14.4186C36.0673 14.1601 36.2961 13.9716 36.54 13.7639C37.2723 12.912 37.0619 11.5578 37.0322 10.5002C36.9228 10.4804 36.9228 10.4804 36.8112 10.4601C36.2764 10.3442 35.7884 9.97041 35.4502 9.54512C34.9823 8.80591 34.8785 7.9702 35.0635 7.1252C35.3742 6.18124 35.8827 5.70825 36.751 5.2502C37.4457 5.01861 38.3883 5.03661 39.0537 5.34981C39.6686 5.71874 40.1722 6.18767 40.4387 6.86446C40.6389 7.70273 40.6263 8.612 40.178 9.36421C39.8035 9.87419 39.4139 10.2682 38.8135 10.5002C38.7207 10.5002 38.6278 10.5002 38.5322 10.5002C38.5366 10.6391 38.5366 10.6391 38.5411 10.7809C38.5514 11.1275 38.5578 11.4741 38.5631 11.8208C38.5659 11.9703 38.5698 12.1198 38.5747 12.2693C38.6194 13.6708 38.6194 13.6708 38.2858 14.1224C38.1832 14.2303 38.0779 14.3355 37.9697 14.4377C37.8715 14.5518 37.7742 14.6667 37.6778 14.7823C37.5781 14.8961 37.4781 15.0098 37.3779 15.1232C36.9358 15.628 36.5049 16.1385 36.0856 16.6624C36.0267 16.7326 35.9679 16.8029 35.9072 16.8752C35.8612 16.9406 35.8151 17.006 35.7677 17.0733C35.3986 17.3506 35.0356 17.2995 34.586 17.2928C34.49 17.2928 34.3939 17.2929 34.2949 17.2929C33.9773 17.2927 33.6598 17.2898 33.3423 17.2868C33.1221 17.2861 32.902 17.2856 32.6818 17.2852C32.1023 17.2838 31.5228 17.2801 30.9433 17.2759C30.352 17.2721 29.7606 17.2704 29.1693 17.2685C28.009 17.2645 26.8487 17.2579 25.6885 17.2502C25.6885 18.1474 25.6885 19.0446 25.6885 19.9689C28.906 19.9689 32.1235 19.9689 35.4385 19.9689C35.5003 19.8452 35.5622 19.7214 35.626 19.5939C35.7811 19.4155 35.9376 19.2434 36.1006 19.0725C36.4406 18.7093 36.7674 18.3417 37.0791 17.9533C37.4242 17.5247 37.7866 17.1176 38.1611 16.7148C38.4633 16.3898 38.7537 16.0575 39.0354 15.7147C39.3295 15.4227 39.5689 15.29 39.9858 15.2495C40.1707 15.2517 40.1707 15.2517 40.3592 15.254C40.4252 15.2544 40.4911 15.2548 40.559 15.2552C40.7682 15.2568 40.9773 15.2603 41.1865 15.2639C41.3289 15.2653 41.4713 15.2666 41.6137 15.2677C41.9616 15.2708 42.3094 15.2757 42.6572 15.2814C42.6697 15.2097 42.6821 15.1379 42.6949 15.0639C42.8396 14.4151 43.3585 13.9713 43.876 13.5939C44.5368 13.1955 45.3406 13.233 46.0809 13.3501C46.8347 13.5534 47.4204 14.1014 47.8193 14.76C48.1436 15.4911 48.1378 16.4013 47.9178 17.163C47.6035 17.846 47.1314 18.376 46.4482 18.6975C45.625 18.9869 44.6928 18.9699 43.8994 18.5993C43.2352 18.1888 42.8865 17.6606 42.5635 16.9689C41.1022 16.77 41.1022 16.77 39.7642 17.1832C39.4929 17.4549 39.2971 17.7691 39.0947 18.0939C38.9565 18.2678 38.8159 18.4397 38.6728 18.6096C38.5713 18.7357 38.5713 18.7357 38.4678 18.8645C38.1914 19.1968 37.8991 19.5121 37.6044 19.8281C37.2329 20.229 36.8903 20.6478 36.5518 21.0771C36.3559 21.3047 36.2041 21.4561 35.8976 21.492C35.8211 21.4918 35.7446 21.4917 35.6658 21.4915C35.5339 21.4919 35.5339 21.4919 35.3993 21.4923C35.303 21.4916 35.2067 21.4909 35.1075 21.4902C35.006 21.4903 34.9044 21.4903 34.7998 21.4903C34.4635 21.4902 34.1272 21.4887 33.7909 21.4873C33.558 21.4869 33.3251 21.4866 33.0922 21.4865C32.5413 21.4858 31.9905 21.4843 31.4397 21.4825C30.6411 21.4798 29.8424 21.4788 29.0438 21.4776C27.9254 21.4758 26.8069 21.4722 25.6885 21.4689C25.6885 23.1396 25.6885 24.8102 25.6885 26.5314C26.4242 26.5238 27.1599 26.5162 27.918 26.5084C28.3845 26.505 28.8511 26.5019 29.3176 26.4994C30.0579 26.4955 30.7982 26.4909 31.5384 26.4819C32.1353 26.4748 32.7322 26.4709 33.3292 26.4692C33.5567 26.468 33.7843 26.4656 34.0118 26.4621C34.331 26.4573 34.65 26.4566 34.9692 26.4569C35.0629 26.4546 35.1566 26.4522 35.2532 26.4498C35.8626 26.4561 36.1684 26.5924 36.6009 27.024C36.6504 27.078 36.6999 27.132 36.751 27.1877C36.8263 27.2646 36.9015 27.3414 36.9791 27.4206C37.3297 27.817 37.6722 28.2175 38.0049 28.6291C38.4269 29.1507 38.872 29.6479 39.3376 30.1311C39.4697 30.2814 39.4697 30.2814 39.6013 30.4791C39.8407 30.8153 40.0048 31.0028 40.4155 31.1C40.7566 31.1262 41.0905 31.1306 41.4326 31.1252C41.6093 31.1268 41.6093 31.1268 41.7895 31.1285C42.0789 31.1307 42.3679 31.1295 42.6572 31.1252C42.6697 31.0534 42.6821 30.9816 42.6949 30.9077C42.8386 30.2635 43.3547 29.8056 43.876 29.4377C44.5558 29.0782 45.3582 29.0385 46.0985 29.218C46.8171 29.4741 47.4084 29.8991 47.7607 30.5861C48.0914 31.3275 48.1362 32.2128 47.9259 32.9998C47.6102 33.6952 47.0391 34.2727 46.3428 34.5939C45.5576 34.8337 44.642 34.7899 43.8994 34.4431C43.2352 34.0326 42.8865 33.5044 42.5635 32.8127C42.475 32.8113 42.3866 32.81 42.2955 32.8086C41.9661 32.8028 41.6368 32.7959 41.3075 32.7881C41.1652 32.785 41.0229 32.7824 40.8806 32.7802C40.6755 32.7771 40.4705 32.7722 40.2655 32.7669C40.1423 32.7645 40.019 32.762 39.8921 32.7595C39.442 32.704 39.2022 32.556 38.9006 32.2242C38.8371 32.1419 38.7735 32.0596 38.708 31.9748C38.3971 31.5828 38.0765 31.2092 37.7353 30.8439C37.4078 30.492 37.094 30.1345 36.792 29.76C36.6936 29.6425 36.6936 29.6425 36.5932 29.5227C36.376 29.2502 36.376 29.2502 36.2085 28.9791C35.9346 28.5879 35.6889 28.2866 35.2212 28.1603C34.5559 28.0642 33.8844 28.0869 33.2141 28.0977C32.9968 28.0976 32.7796 28.0969 32.5623 28.0958C31.9929 28.0943 31.4237 28.0988 30.8544 28.1047C30.2724 28.1096 29.6905 28.1086 29.1085 28.1082C27.9684 28.1081 26.8285 28.1151 25.6885 28.1252C25.6885 28.9605 25.6885 29.7958 25.6885 30.6564C25.9728 30.6555 26.2572 30.6545 26.5502 30.6535C27.4895 30.6504 28.4287 30.6483 29.3679 30.6467C29.9374 30.6458 30.5069 30.6444 31.0764 30.6423C31.6259 30.6403 32.1754 30.6391 32.7249 30.6387C32.9346 30.6383 33.1444 30.6376 33.3541 30.6366C33.6477 30.6353 33.9412 30.6351 34.2348 30.6352C34.3217 30.6345 34.4085 30.6338 34.498 30.6331C35.0645 30.6349 35.4401 30.6685 35.8677 31.0721C35.9521 31.1652 36.0355 31.2591 36.1182 31.3537C36.1629 31.4037 36.2077 31.4537 36.2538 31.5053C36.6129 31.9098 36.9551 32.3275 37.2941 32.749C37.5752 33.0903 37.8721 33.4161 38.1715 33.7414C38.5339 34.1521 38.5578 34.4382 38.5505 34.9642C38.5501 35.0728 38.5501 35.0728 38.5497 35.1837C38.5487 35.4149 38.5463 35.646 38.5439 35.8772C38.543 36.034 38.5421 36.1908 38.5414 36.3475C38.5393 36.7318 38.5361 37.116 38.5322 37.5002C38.604 37.5126 38.6758 37.5251 38.7497 37.5379C39.3992 37.6828 39.8387 38.2038 40.2197 38.7189C40.6251 39.4353 40.6954 40.1863 40.4775 40.9748C40.2178 41.7671 39.727 42.3254 39.0193 42.7605C38.2891 43.0927 37.35 43.0543 36.6103 42.7795C35.8359 42.4157 35.3628 41.871 35.0525 41.0755C34.8403 40.3216 34.8975 39.5416 35.2272 38.8328C35.5923 38.1879 36.0625 37.7848 36.751 37.5002C36.8438 37.5002 36.9366 37.5002 37.0322 37.5002C37.1585 35.8487 37.1585 35.8487 36.5869 34.383C36.4253 34.2319 36.2609 34.0837 36.0947 33.9377C35.8695 33.6932 35.6545 33.4403 35.4385 33.1877C35.3845 33.1269 35.3305 33.0661 35.2749 33.0034C35.1992 32.9177 35.1992 32.9177 35.1221 32.8303C35.0769 32.7794 35.0317 32.7285 34.9851 32.6761C34.876 32.5314 34.876 32.5314 34.7822 32.2502C31.7813 32.2502 28.7803 32.2502 25.6885 32.2502C25.6885 33.3639 25.6885 34.4777 25.6885 35.6252C25.9402 35.6198 26.1919 35.6143 26.4513 35.6087C26.6958 35.6051 26.9403 35.6022 27.1848 35.5994C27.3544 35.5971 27.524 35.5939 27.6935 35.5898C27.9377 35.5841 28.1817 35.5815 28.4259 35.5794C28.5392 35.5758 28.5392 35.5758 28.6547 35.5721C29.052 35.5719 29.2029 35.5867 29.5238 35.8433C29.744 36.125 29.941 36.4143 30.124 36.7209C30.1577 36.7753 30.1913 36.8298 30.226 36.8859C30.4697 37.2874 30.4697 37.2874 30.4697 37.5002C30.5625 37.4693 30.6553 37.4383 30.751 37.4064C31.5405 37.3391 32.222 37.3937 32.8735 37.8679C33.5394 38.4325 33.975 39.0165 34.0546 39.9062C34.0773 40.8118 33.8885 41.555 33.2617 42.2313C32.4834 42.9021 31.6434 43.0129 30.6535 42.9577C29.9058 42.8763 29.4144 42.4012 28.9408 41.8574C28.4284 41.1071 28.4055 40.343 28.501 39.4689C28.6194 39.1258 28.7791 38.8384 28.9697 38.5314C29.0007 38.4386 29.0316 38.3458 29.0635 38.2502C28.9504 38.0364 28.9504 38.0364 28.7881 37.8225C28.501 37.4242 28.501 37.4242 28.501 37.2189C27.5419 37.2189 26.5828 37.2189 25.5947 37.2189C25.6023 37.6729 25.6099 38.1268 25.6178 38.5944C25.6211 38.8841 25.6243 39.1738 25.6268 39.4635C25.6307 39.922 25.6353 40.3806 25.6442 40.8391C25.6514 41.2093 25.6553 41.5794 25.657 41.9497C25.6582 42.09 25.6605 42.2304 25.6641 42.3708C25.6971 43.7222 25.2254 44.5758 24.3049 45.5459C23.0634 46.7528 21.591 47.204 19.8951 47.1962C18.8852 47.1707 18.0682 46.8992 17.1777 46.4204C17.1091 46.3848 17.0404 46.3493 16.9697 46.3127C16.8953 46.2737 16.8208 46.2346 16.7441 46.1944C16.4189 46.1018 16.2515 46.1757 15.9385 46.2951C14.4271 46.86 12.797 46.6919 11.3447 46.0314C9.88837 45.2671 8.90613 44.001 8.36816 42.4543C8.23533 41.9894 8.23104 41.5409 8.25097 41.0627C8.13882 41.0569 8.02667 41.0511 7.91113 41.0451C6.36779 40.868 4.87858 39.9625 3.91265 38.7573C2.70771 37.1344 2.42395 35.288 2.66918 33.3074C2.83034 32.6031 3.14887 31.9565 3.46972 31.3127C3.38742 31.2889 3.30512 31.2651 3.22033 31.2406C1.95718 30.7752 1.0737 29.6517 0.469719 28.5002C-0.164449 26.9458 -0.227596 25.234 0.417351 23.6732C0.756325 22.9199 1.19575 22.3287 1.78222 21.7502C1.83684 21.6955 1.89147 21.6407 1.94775 21.5843C1.98594 21.5462 2.02412 21.5082 2.06347 21.4689C2.04643 21.4189 2.02939 21.3689 2.01183 21.3173C1.34146 19.3303 1.14224 17.5253 2.02172 15.5451C2.24454 15.1115 2.51392 14.7275 2.81347 14.3439C2.86133 14.2795 2.90918 14.2151 2.95849 14.1488C3.66203 13.2658 4.68572 12.6938 5.71972 12.2814C5.70473 12.1929 5.68975 12.1043 5.67431 12.013C5.51257 10.8714 5.52083 9.62233 5.90722 8.53145C5.93332 8.45132 5.95943 8.3712 5.98632 8.28865C6.54037 6.73875 7.75442 5.60749 9.17675 4.85176C10.1133 4.41004 10.943 4.2891 11.9717 4.2834C12.063 4.28287 12.1544 4.28234 12.2485 4.2818C12.8176 4.28751 13.3248 4.35773 13.876 4.5002C13.9108 4.37784 13.9108 4.37784 13.9463 4.25301C14.4051 3.0184 15.6173 1.97012 16.7822 1.40645C19.0229 0.500871 21.3918 0.584203 23.4224 1.96126ZM16.0322 3.9377C15.6123 4.44688 15.6123 4.44688 15.4697 5.0627C15.5219 5.08892 15.5741 5.11515 15.6279 5.14217C16.7479 5.73052 17.397 6.46982 17.8428 7.6584C18.1209 8.55765 18.2907 9.80476 17.9167 10.7023C17.7676 10.9519 17.6221 10.9917 17.3447 11.0627C17.0929 11.0447 16.9344 11.0062 16.7218 10.8708C16.5204 10.5806 16.5741 10.2709 16.5889 9.93184C16.6103 8.89353 16.519 7.95563 15.8037 7.14864C15.7244 7.07903 15.6451 7.00942 15.5635 6.9377C15.4533 6.83909 15.4533 6.83909 15.3408 6.73848C14.8997 6.42337 14.4285 6.26402 13.9027 6.14449C13.7442 6.1071 13.5868 6.06483 13.4303 6.01997C12.1001 5.64884 10.8331 5.75937 9.60522 6.41475C9.17035 6.69539 8.80372 7.04183 8.43847 7.40645C8.38324 7.46059 8.32801 7.51473 8.27111 7.57051C7.36991 8.52933 7.15621 9.80206 7.18383 11.0664C7.22469 11.8251 7.40774 12.6271 7.92614 13.2006C8.4123 13.6336 8.82094 13.7878 9.46972 13.7814C9.69113 13.739 9.90642 13.6841 10.1245 13.6273C10.3917 13.5802 10.5551 13.6395 10.7822 13.7814C10.9317 14.0804 10.9114 14.3936 10.876 14.7189C10.7276 14.9808 10.5884 15.0023 10.301 15.0983C9.3673 15.3285 8.34458 15.3033 7.50097 14.8127C7.34089 14.6926 7.18281 14.5695 7.03222 14.4377C6.97034 14.4377 6.90847 14.4377 6.84472 14.4377C6.81765 14.3816 6.79058 14.3256 6.76269 14.2678C6.65277 14.0446 6.65277 14.0446 6.46972 13.7814C5.26315 14.1137 4.30295 14.7649 3.63378 15.8322C2.88975 17.15 2.71703 18.4343 3.09948 19.9074C3.19384 20.1715 3.31775 20.3902 3.46972 20.6252C3.57607 20.5943 3.68241 20.5633 3.79199 20.5314C5.06881 20.2531 6.26943 20.379 7.38378 21.0764C7.81227 21.3792 8.2935 21.7415 8.53222 22.2189C8.57447 22.8844 8.57447 22.8844 8.43847 23.1564C8.12099 23.3152 7.83724 23.3486 7.50097 23.2502C7.31272 23.0808 7.16708 22.8971 7.01135 22.6976C6.59133 22.2 5.98891 21.9094 5.34472 21.8439C4.2876 21.8169 3.48997 22.2261 2.72961 22.9408C1.82525 23.929 1.47769 25.0183 1.50097 26.3439C1.66977 27.5844 2.24591 28.6564 3.23241 29.4322C3.81167 29.8266 4.4094 30.0585 5.07555 30.2591C5.34472 30.3752 5.34472 30.3752 5.47582 30.5576C5.57085 30.8821 5.52963 31.0793 5.43847 31.4064C5.34192 31.541 5.23969 31.6717 5.13378 31.799C4.45111 32.6233 4.06428 33.7699 4.10326 34.8463C4.25584 36.3007 4.78992 37.5623 5.93881 38.5089C6.78473 39.1398 7.8404 39.6067 8.90722 39.5627C9.94306 39.3436 11.3878 38.8721 12.0284 37.9895C12.1513 37.7535 12.2738 37.518 12.3877 37.2775C12.4697 37.1252 12.4697 37.1252 12.6572 37.0314C13.3305 36.978 13.3305 36.978 13.6006 37.1662C13.739 37.5446 13.6987 37.8648 13.5947 38.2502C12.959 39.6193 11.6167 40.2022 10.2912 40.715C10.1055 40.7897 9.92732 40.8743 9.75097 40.9689C9.80263 42.183 10.261 43.2118 11.1587 44.0521C11.3401 44.1939 11.5229 44.3183 11.7197 44.4377C11.7772 44.473 11.8348 44.5083 11.894 44.5446C12.9584 45.134 14.0353 45.2163 15.1866 44.9035C16.1067 44.6083 16.9784 44.0921 17.4853 43.2424C17.7871 42.5886 17.8504 41.8466 17.6293 41.1546C17.5586 40.9807 17.4878 40.8069 17.4169 40.6331C17.3447 40.4064 17.3447 40.4064 17.3975 40.0725C17.5322 39.8439 17.5322 39.8439 17.8135 39.6564C18.1145 39.6244 18.3034 39.6146 18.5686 39.7674C18.7931 39.977 18.8587 40.1516 18.956 40.4416C18.9864 40.5293 19.0167 40.6171 19.048 40.7075C19.4057 41.9067 19.2431 43.0479 18.6631 44.1447C18.4704 44.489 18.2529 44.7904 18.001 45.0939C18.1785 45.1707 18.3563 45.2467 18.5342 45.3225C18.6331 45.3649 18.7321 45.4073 18.8341 45.451C19.8751 45.8494 20.9261 45.6922 21.9385 45.2814C22.8852 44.8226 23.7011 44.1213 24.0947 43.1252C24.1772 42.5497 24.1727 41.98 24.169 41.3997C24.1699 41.2257 24.1711 41.0518 24.1724 40.8778C24.1754 40.4078 24.1748 39.9377 24.1734 39.4676C24.1725 39.0748 24.1734 38.682 24.1743 38.2891C24.1765 37.3627 24.1758 36.4364 24.1732 35.51C24.1706 34.5543 24.1724 33.5988 24.1765 32.6432C24.1798 31.8219 24.1806 31.0006 24.1793 30.1794C24.1786 29.6891 24.1788 29.199 24.1813 28.7088C24.1836 28.2484 24.1826 27.788 24.1792 27.3276C24.1785 27.1586 24.1789 26.9897 24.1805 26.8207C24.1825 26.5901 24.1805 26.3598 24.1774 26.1292C24.1797 26.0288 24.1797 26.0288 24.1821 25.9263C24.1748 25.6537 24.1473 25.4597 23.9522 25.2621C23.2999 24.7859 22.6446 24.6544 21.8447 24.7502C21.6206 24.8331 21.4145 24.9331 21.2013 25.0406C20.8656 25.1824 20.6114 25.1687 20.251 25.1252C20.0635 25.0314 20.0635 25.0314 19.9697 24.8439C19.9324 24.5879 19.9175 24.3481 19.9697 24.0939C20.3409 23.5982 21.0894 23.4036 21.6682 23.2832C22.2656 23.2161 22.8005 23.2726 23.3843 23.3908C23.453 23.4042 23.5216 23.4177 23.5924 23.4315C23.76 23.4643 23.9274 23.4978 24.0947 23.5314C24.1078 22.6595 24.1178 21.7875 24.1239 20.9155C24.1268 20.5105 24.1308 20.1056 24.1372 19.7007C24.1433 19.3099 24.1466 18.9191 24.1481 18.5282C24.1491 18.3791 24.1512 18.2301 24.1542 18.0811C24.1583 17.8721 24.1588 17.6633 24.1586 17.4543C24.1598 17.3354 24.1611 17.2165 24.1624 17.0941C24.0676 16.6559 23.8968 16.5633 23.5322 16.3127C23.0368 16.0375 22.4184 15.9744 21.8667 16.082C21.5048 16.1868 21.2226 16.29 20.9072 16.5002C20.7256 16.5251 20.7256 16.5251 20.5322 16.5236C20.4684 16.5241 20.4046 16.5246 20.3389 16.5251C20.1572 16.5002 20.1572 16.5002 19.876 16.3127C19.7447 15.7672 19.7447 15.7672 19.8478 15.4631C20.1563 15.0036 20.9191 14.7609 21.4404 14.6516C22.1702 14.5628 22.8437 14.5852 23.5554 14.768C23.6565 14.7937 23.7575 14.8195 23.8617 14.8461C23.9386 14.866 24.0155 14.8859 24.0947 14.9064C24.1157 13.6823 24.1365 12.4581 24.1537 11.2339C24.1547 11.1645 24.1557 11.0951 24.1567 11.0236C24.1606 10.7445 24.1644 10.4654 24.1683 10.1864C24.1785 9.43338 24.1904 8.68053 24.2086 7.9277C24.2159 7.60956 24.2211 7.29142 24.2257 6.97323C24.2282 6.83432 24.2317 6.69543 24.2363 6.55658C24.273 5.42263 23.982 4.74208 23.2803 3.86739C22.4915 3.02755 21.3282 2.39251 20.166 2.32161C18.5489 2.28242 17.1705 2.73372 16.0322 3.9377ZM30.1885 7.1252C29.9492 7.45141 29.9608 7.76111 30.001 8.15645C30.1366 8.53163 30.3076 8.76178 30.6279 9.0002C31.0392 9.12435 31.3687 9.11311 31.7822 9.0002C32.1189 8.79243 32.2862 8.61016 32.4385 8.2502C32.5107 7.87454 32.5208 7.54256 32.3191 7.20906C31.9758 6.7987 31.9758 6.7987 31.4849 6.63081C30.8748 6.60678 30.603 6.6692 30.1885 7.1252ZM36.8096 7.03145C36.5528 7.34748 36.5308 7.65688 36.5375 8.05684C36.5814 8.3838 36.7234 8.56933 36.9385 8.8127C37.3427 9.10413 37.6679 9.13347 38.1462 9.06099C38.5679 8.93185 38.7673 8.60075 39.001 8.2502C39.0414 7.74898 39.046 7.43648 38.7197 7.03145C38.0906 6.41936 37.474 6.47195 36.8096 7.03145ZM44.2158 15.34C44.0205 15.7456 43.9988 16.0581 44.0635 16.5002C44.1891 16.8535 44.3712 17.009 44.6846 17.1975C45.0664 17.3698 45.3468 17.3625 45.7462 17.248C46.1201 17.07 46.3176 16.7732 46.501 16.4064C46.5364 15.9364 46.5133 15.656 46.2197 15.2814C45.8139 14.9221 45.8139 14.9221 45.3057 14.7893C44.8188 14.8267 44.5424 14.9791 44.2158 15.34ZM44.3447 31.0314C44.093 31.3294 43.9697 31.6087 43.9697 32.0012C44.0333 32.3983 44.135 32.5998 44.4033 32.9064C44.8016 33.1425 45.0069 33.1877 45.4697 33.1877C45.9086 33.0358 46.1681 32.8363 46.4072 32.4377C46.5247 32.0481 46.5292 31.7691 46.3955 31.383C46.1262 30.988 45.901 30.7955 45.4404 30.6564C44.9909 30.6564 44.6985 30.7533 44.3447 31.0314ZM30.0947 39.5627C29.9816 39.902 29.9707 40.1432 30.001 40.5002C30.2552 40.9724 30.4996 41.2657 31.0146 41.426C31.4947 41.4448 31.8336 41.2746 32.1924 40.9631C32.4667 40.636 32.4705 40.3829 32.4645 39.9677C32.4237 39.6263 32.2914 39.4396 32.0635 39.1877C31.3085 38.6953 30.6601 38.8783 30.0947 39.5627ZM36.7158 39.4338C36.5212 39.838 36.4966 40.1531 36.5635 40.5939C36.7267 40.9891 36.9281 41.1647 37.3135 41.3439C37.6769 41.4546 37.8493 41.446 38.2158 41.3322C38.5995 41.1191 38.8059 40.8903 39.001 40.5002C39.0364 40.0302 39.0133 39.7497 38.7197 39.3752C38.3139 39.0158 38.3139 39.0158 37.8057 38.883C37.3188 38.9205 37.0424 39.0728 36.7158 39.4338Z" fill="#F5F5F5"></path>
    <path d="M16.1244 27.1877C16.4696 27.4548 16.555 27.68 16.6342 28.1018C16.8149 28.8991 17.1412 29.437 17.8119 29.9065C18.3389 30.1902 18.8208 30.2399 19.4057 30.2815C19.7358 30.312 19.9146 30.34 20.1909 30.5217C20.3765 30.8002 20.3913 30.985 20.4022 31.3127C20.3068 31.6161 20.1422 31.7129 19.8744 31.8752C18.7508 32.0426 17.7007 31.8193 16.7514 31.1955C15.815 30.4887 15.2026 29.5698 14.9994 28.4065C14.9554 27.9975 14.9284 27.6841 15.1401 27.3225C15.4604 27.1383 15.764 27.092 16.1244 27.1877Z" fill="#F5F5F5"></path>
    <path d="M15.7852 18.492C16.2458 18.8399 16.7073 19.2581 16.9688 19.781C17.015 20.1893 17.0112 20.3755 16.7754 20.7185C16.5 20.906 16.5 20.906 16.1719 20.9178C15.7827 20.7927 15.6448 20.6471 15.375 20.3435C14.7838 19.7737 14.1615 19.4045 13.3125 19.406C12.8885 19.4595 12.5082 19.5677 12.123 19.7517C11.7677 19.8925 11.6088 19.9086 11.25 19.781C10.9858 19.5377 10.8885 19.3845 10.8223 19.031C10.8963 18.6361 11.0238 18.5242 11.3438 18.281C12.782 17.5784 14.4288 17.5966 15.7852 18.492Z" fill="#F5F5F5"></path>
    <path d="M9.65716 27.2285C10.0076 27.2942 10.1629 27.398 10.4072 27.6563C10.5158 27.9488 10.4983 28.2165 10.4892 28.5234C10.4866 29.316 10.7556 29.8853 11.2952 30.4622C11.655 30.7569 12.0524 30.9206 12.4832 31.0887C12.7666 31.2264 12.8805 31.321 13.0322 31.5938C13.0772 31.9543 13.0835 32.1629 12.8974 32.4785C12.5275 32.704 12.2254 32.7102 11.8134 32.625C10.7071 32.2136 9.81355 31.5653 9.28179 30.4889C9.25098 30.4204 9.22016 30.3518 9.18841 30.2813C9.15856 30.2214 9.12871 30.1616 9.09795 30.1C8.88856 29.6049 8.87242 29.1007 8.86028 28.5703C8.85741 28.4971 8.85453 28.4239 8.85156 28.3484C8.85143 27.9484 8.87284 27.7941 9.12689 27.4677C9.37591 27.2813 9.37591 27.2813 9.65716 27.2285Z" fill="#F5F5F5"></path>
  </g>
  <defs>
    <clipPath id="clip0_4393_150">
      <rect width="48" height="48" fill="white"></rect>
    </clipPath>
  </defs>
</svg>
