<?xml version="1.0" encoding="UTF-8"?>
<svg xmlns="http://www.w3.org/2000/svg" width="46" height="46" viewBox="0 0 46 46" fill="none">
  <g clip-path="url(#clip0_3959_149)">
    <path d="M25.3134 2.56616C26.1235 3.19856 26.6711 4.01625 26.8632 5.03125C26.9841 6.28611 26.7641 7.30927 25.9764 8.31897C25.4299 8.93665 24.8504 9.17238 24.0781 9.52344C24.0484 10.7983 24.0188 12.0732 23.9882 13.3867C24.3532 13.3853 24.7182 13.3839 25.0942 13.3824C26.3016 13.378 27.509 13.375 28.7164 13.3728C29.4483 13.3714 30.1802 13.3695 30.912 13.3664C31.5503 13.3637 32.1885 13.362 32.8268 13.3614C33.1644 13.361 33.502 13.3602 33.8396 13.3582C34.1581 13.3564 34.4766 13.3558 34.7951 13.3562C34.9663 13.3561 35.1375 13.3547 35.3086 13.3532C36.7072 13.3582 37.9489 13.8045 38.9693 14.7807C39.6527 15.5339 40.2633 16.5924 40.2602 17.6372C40.2602 17.7127 40.2602 17.7882 40.2601 17.866C40.2597 17.9467 40.2592 18.0274 40.2587 18.1105C40.2585 18.2354 40.2586 18.2354 40.2584 18.3628C40.2579 18.6283 40.2567 18.8937 40.2556 19.1592C40.2551 19.3393 40.2547 19.5195 40.2544 19.6996C40.2534 20.1409 40.2518 20.5822 40.25 21.0234C40.394 21.0213 40.394 21.0213 40.5409 21.0192C40.9009 21.0142 41.2609 21.0112 41.6209 21.0086C41.776 21.0073 41.9311 21.0055 42.0861 21.0031C43.2216 20.9864 44.1859 20.9764 45.0977 21.7397C45.7461 22.3832 46.0181 23.0615 46.0263 23.9662C46.0262 24.0571 46.0262 24.148 46.0261 24.2416C46.027 24.387 46.027 24.387 46.0279 24.5353C46.0296 24.8552 46.03 25.175 46.0301 25.4949C46.0307 25.7178 46.0313 25.9407 46.032 26.1636C46.033 26.6307 46.0334 27.0978 46.0333 27.5649C46.0332 28.1625 46.0357 28.76 46.0388 29.3576C46.0408 29.818 46.0412 30.2783 46.0411 30.7387C46.0413 30.959 46.0421 31.1792 46.0435 31.3995C46.0452 31.708 46.0447 32.0165 46.0436 32.3251C46.0446 32.4154 46.0456 32.5058 46.0467 32.5988C46.0391 33.4509 45.763 34.077 45.1847 34.6986C44.5187 35.3173 43.8271 35.517 42.9347 35.5058C42.8577 35.5056 42.7807 35.5053 42.7014 35.5051C42.457 35.5041 42.2126 35.5018 41.9682 35.4995C41.8019 35.4986 41.6355 35.4978 41.4692 35.4971C41.0628 35.4951 40.6564 35.492 40.25 35.4883C40.2514 35.5979 40.2528 35.7075 40.2542 35.8204C40.2592 36.2306 40.2622 36.6409 40.2648 37.0511C40.2661 37.228 40.268 37.4049 40.2703 37.5818C40.2736 37.8374 40.2751 38.0929 40.2763 38.3485C40.2777 38.4264 40.2791 38.5043 40.2805 38.5846C40.2809 39.8964 39.6978 40.9735 38.797 41.8939C38.0265 42.6304 37.0087 43.1353 35.9268 43.1368C35.8334 43.1372 35.74 43.1375 35.6437 43.1379C35.5412 43.1378 35.4387 43.1377 35.3331 43.1376C35.2241 43.1379 35.1151 43.1382 35.0028 43.1384C34.7001 43.1391 34.3974 43.1393 34.0946 43.1394C33.7682 43.1395 33.4418 43.1402 33.1153 43.1408C32.4014 43.142 31.6874 43.1426 30.9735 43.143C30.5276 43.1432 30.0817 43.1436 29.6358 43.144C28.4009 43.1451 27.1661 43.146 25.9313 43.1463C25.8127 43.1464 25.8127 43.1464 25.6918 43.1464C25.6125 43.1464 25.5333 43.1464 25.4517 43.1465C25.2911 43.1465 25.1306 43.1465 24.9701 43.1466C24.8905 43.1466 24.8108 43.1466 24.7288 43.1466C23.4391 43.147 22.1493 43.1486 20.8596 43.1507C19.5351 43.1528 18.2106 43.1539 16.8861 43.154C16.1426 43.1541 15.3991 43.1546 14.6556 43.1562C14.0223 43.1576 13.3891 43.1581 12.7558 43.1573C12.4329 43.157 12.11 43.1571 11.7871 43.1583C11.4365 43.1597 11.0859 43.159 10.7353 43.158C10.5833 43.1591 10.5833 43.1591 10.4283 43.1602C9.09263 43.1519 8.00002 42.6419 7.03375 41.7247C6.30932 40.9607 5.73651 39.9547 5.73977 38.8745C5.73978 38.799 5.73978 38.7235 5.73979 38.6457C5.74025 38.565 5.74072 38.4843 5.74119 38.4012C5.74132 38.3179 5.74145 38.2347 5.74158 38.1489C5.74208 37.8835 5.74321 37.618 5.74435 37.3525C5.7448 37.1724 5.74521 36.9922 5.74558 36.8121C5.74657 36.3708 5.74812 35.9295 5.74997 35.4883C5.59922 35.4918 5.59922 35.4918 5.44543 35.4954C5.06769 35.5036 4.68996 35.5087 4.31216 35.513C4.14957 35.5152 3.98699 35.5182 3.82442 35.5222C2.66018 35.5495 1.67262 35.522 0.76364 34.6965C0.306491 34.1947 -0.00867009 33.6085 -0.0144624 32.9215C-0.015365 32.8372 -0.0162689 32.753 -0.0171988 32.6662C-0.0177226 32.5739 -0.0182465 32.4817 -0.0187863 32.3866C-0.0196653 32.2893 -0.0205429 32.1919 -0.0214486 32.0917C-0.0241416 31.7687 -0.0260635 31.4457 -0.0277575 31.1228C-0.0283479 31.0124 -0.0289396 30.902 -0.0295479 30.7882C-0.0321755 30.2636 -0.0343213 29.739 -0.0358733 29.2144C-0.0375161 28.6708 -0.0405035 28.1273 -0.0456341 27.5838C-0.0510559 26.9997 -0.0538073 26.4158 -0.0546766 25.8317C-0.0554434 25.6097 -0.0571286 25.3876 -0.0597736 25.1656C-0.0864989 22.7937 -0.0864974 22.7937 0.716834 21.9048C1.33445 21.295 2.11789 21.0132 2.97329 21.0133C3.07958 21.014 3.07958 21.014 3.18802 21.0147C3.29793 21.0149 3.29793 21.0149 3.41007 21.0151C3.64349 21.0156 3.8769 21.0167 4.11032 21.0178C4.26883 21.0183 4.42735 21.0187 4.58586 21.0191C4.9739 21.02 5.36193 21.0216 5.74997 21.0234C5.74809 20.9148 5.7462 20.8061 5.74426 20.6942C5.7377 20.2863 5.73361 19.8784 5.73023 19.4705C5.72843 19.2948 5.72599 19.1192 5.72286 18.9435C5.69346 17.2524 5.96634 15.9407 7.15167 14.66C8.02972 13.8649 9.12403 13.3748 10.3108 13.3759C10.4143 13.3758 10.5177 13.3757 10.6242 13.3755C10.7369 13.3759 10.8495 13.3762 10.9656 13.3765C11.086 13.3765 11.2065 13.3765 11.3269 13.3765C11.6532 13.3765 11.9795 13.377 12.3058 13.3776C12.6471 13.3782 12.9883 13.3782 13.3296 13.3783C13.9755 13.3786 14.6214 13.3793 15.2673 13.3802C16.0028 13.3813 16.7383 13.3817 17.4737 13.3822C18.9864 13.3831 20.499 13.3848 22.0117 13.3867C21.982 12.1118 21.9524 10.837 21.9218 9.52344C21.5068 9.3159 21.0917 9.10836 20.664 8.89453C19.7612 8.1422 19.2181 7.30609 19.1026 6.1185C19.0521 4.99966 19.3119 4.08247 20.006 3.19331C21.4091 1.6582 23.5944 1.41775 25.3134 2.56616ZM21.5625 4.49219C21.2136 4.97671 21.0888 5.42018 21.1132 6.01953C21.2398 6.61487 21.5288 7.03389 22.0229 7.38965C22.4736 7.62611 22.9719 7.69998 23.4709 7.5939C24.033 7.40089 24.4438 7.10038 24.7256 6.56316C24.913 6.07859 24.9494 5.58624 24.78 5.09302C24.5351 4.54731 24.1953 4.17214 23.6289 3.95313C22.8347 3.76269 22.1493 3.90539 21.5625 4.49219ZM8.2877 16.454C7.80175 17.1426 7.69964 17.7487 7.7025 18.5738C7.7021 18.6602 7.70169 18.7467 7.70127 18.8358C7.70014 19.1248 7.70028 19.4138 7.70043 19.7027C7.69989 19.9103 7.69928 20.1178 7.6986 20.3253C7.69701 20.8885 7.69659 21.4517 7.69648 22.0149C7.69635 22.3669 7.69597 22.7189 7.69549 23.071C7.69391 24.236 7.69308 25.4011 7.69321 26.5661C7.69322 26.6289 7.69323 26.6916 7.69323 26.7563C7.69324 26.8191 7.69325 26.8819 7.69326 26.9466C7.69333 27.9644 7.69161 28.9822 7.68908 30C7.68649 31.0464 7.68529 32.0927 7.68541 33.139C7.68546 33.726 7.68494 34.3129 7.68304 34.8998C7.6813 35.452 7.68129 36.0041 7.6826 36.5562C7.68278 36.7585 7.68236 36.9608 7.68127 37.1631C7.67988 37.44 7.68072 37.7167 7.6821 37.9936C7.68118 38.073 7.68026 38.1525 7.6793 38.2344C7.68886 39.1049 8.00485 39.802 8.59865 40.4314C9.10643 40.87 9.73758 41.1591 10.4102 41.1605C10.5009 41.1609 10.5917 41.1613 10.6852 41.1617C10.7851 41.1617 10.8851 41.1617 10.9881 41.1617C11.1471 41.1622 11.1471 41.1622 11.3093 41.1627C11.604 41.1635 11.8988 41.1639 12.1935 41.1641C12.5112 41.1645 12.8288 41.1653 13.1465 41.1661C13.9141 41.1679 14.6816 41.1688 15.4492 41.1696C15.8107 41.17 16.1722 41.1705 16.5337 41.171C17.7357 41.1725 18.9376 41.1738 20.1395 41.1744C20.4515 41.1746 20.7634 41.1748 21.0754 41.175C21.1529 41.175 21.2304 41.175 21.3103 41.1751C22.5658 41.1758 23.8212 41.1781 25.0767 41.181C26.3658 41.184 27.655 41.1856 28.9442 41.1859C29.6679 41.1861 30.3916 41.1869 31.1153 41.1892C31.7318 41.1911 32.3483 41.1919 32.9648 41.191C33.2792 41.1906 33.5935 41.1907 33.9078 41.1925C34.2492 41.1941 34.5906 41.1934 34.9319 41.1923C35.0798 41.1937 35.0798 41.1937 35.2307 41.1952C36.1646 41.1875 36.8754 40.9188 37.5564 40.2763C37.9665 39.8015 38.2841 39.1753 38.2852 38.5403C38.2856 38.4664 38.2859 38.3925 38.2863 38.3164C38.2861 38.1946 38.2861 38.1946 38.286 38.0704C38.2863 37.9842 38.2866 37.8979 38.2868 37.8091C38.2876 37.5188 38.2877 37.2285 38.2879 36.9382C38.2883 36.7306 38.2887 36.5229 38.2892 36.3153C38.2904 35.7503 38.291 35.1852 38.2914 34.6201C38.2917 34.2671 38.292 33.9142 38.2924 33.5612C38.2935 32.5836 38.2944 31.606 38.2948 30.6285C38.2948 30.5659 38.2948 30.5033 38.2948 30.4388C38.2948 30.3761 38.2948 30.3134 38.2949 30.2488C38.2949 30.1217 38.2949 29.9946 38.295 29.8675C38.295 29.8044 38.295 29.7414 38.295 29.6764C38.2954 28.6556 38.297 27.6348 38.2991 26.614C38.3012 25.5656 38.3023 24.5171 38.3024 23.4687C38.3025 22.8802 38.303 22.2917 38.3046 21.7032C38.3061 21.1494 38.3063 20.5956 38.3055 20.0418C38.3055 19.8387 38.3059 19.6357 38.3067 19.4326C38.3079 19.1549 38.3074 18.8773 38.3064 18.5996C38.3075 18.4797 38.3075 18.4797 38.3086 18.3573C38.3015 17.4505 38.0222 16.7257 37.375 16.082C36.5483 15.461 35.8119 15.3364 34.8032 15.3393C34.6984 15.3388 34.5936 15.3384 34.4857 15.338C34.196 15.3371 33.9064 15.3369 33.6168 15.3372C33.3039 15.3372 32.9911 15.3362 32.6782 15.3354C32.0657 15.3339 31.4532 15.3334 30.8407 15.3333C30.3427 15.3332 29.8446 15.3328 29.3465 15.3322C27.9333 15.3307 26.5202 15.3298 25.107 15.33C24.9928 15.33 24.9928 15.33 24.8762 15.33C24.8 15.33 24.7238 15.33 24.6452 15.33C23.4102 15.3301 22.1752 15.3284 20.9402 15.3258C19.671 15.3232 18.4018 15.322 17.1326 15.3222C16.4205 15.3222 15.7084 15.3217 14.9962 15.3198C14.3899 15.3182 13.7835 15.3178 13.1771 15.319C12.868 15.3196 12.5589 15.3196 12.2498 15.318C11.914 15.3166 11.5782 15.3175 11.2424 15.3189C11.1457 15.3179 11.0491 15.317 10.9495 15.3161C9.92399 15.3254 8.95363 15.6413 8.2877 16.454ZM2.07435 23.411C1.91431 23.7675 1.9376 24.1243 1.9388 24.5106C1.93804 24.6001 1.93728 24.6895 1.9365 24.7817C1.93439 25.0776 1.93431 25.3734 1.93442 25.6693C1.93378 25.875 1.93309 26.0807 1.93234 26.2864C1.93113 26.7176 1.93099 27.1488 1.93152 27.5801C1.93205 28.1326 1.9293 28.685 1.92567 29.2375C1.92335 29.6623 1.92309 30.0871 1.92342 30.512C1.92326 30.7157 1.92239 30.9193 1.92079 31.123C1.9188 31.408 1.91967 31.6929 1.92126 31.9778C1.92006 32.0619 1.91887 32.1459 1.91764 32.2325C1.92267 32.6225 1.94083 32.8908 2.18775 33.2033C3.11421 34.0542 4.57963 33.5117 5.74997 33.5117C5.74997 30.0429 5.74997 26.574 5.74997 23C3.82431 22.7856 3.82431 22.7856 2.07435 23.411ZM40.25 23C40.25 26.4689 40.25 29.9377 40.25 33.5117C42.4396 33.783 42.4396 33.783 43.9144 33.1008C44.0914 32.7467 44.0616 32.3901 44.0597 31.9997C44.0603 31.9101 44.0609 31.8205 44.0616 31.7282C44.0632 31.4318 44.0629 31.1356 44.0624 30.8392C44.0628 30.6333 44.0632 30.4274 44.0638 30.2216C44.0646 29.7899 44.0644 29.3583 44.0635 28.9267C44.0624 28.3734 44.0643 27.8201 44.0669 27.2669C44.0685 26.8416 44.0685 26.4164 44.068 25.9912C44.068 25.7872 44.0685 25.5832 44.0696 25.3792C44.071 25.094 44.07 24.8089 44.0685 24.5237C44.0698 24.3972 44.0698 24.3972 44.0711 24.2681C44.067 23.9044 44.0529 23.6822 43.8746 23.3596C42.9551 22.574 41.1033 23 40.25 23Z" fill="#FF7705"></path>
    <path d="M30.3149 21.4224C30.9682 21.894 31.4147 22.4874 31.625 23.2694C31.7162 24.2933 31.6348 25.0803 30.9736 25.8973C30.4585 26.451 29.8482 26.8092 29.089 26.8965C28.132 26.9152 27.3525 26.7391 26.6387 26.0714C25.9671 25.3342 25.8175 24.5508 25.8388 23.5793C25.883 22.8412 26.2262 22.2459 26.7566 21.7421C27.788 20.9304 29.1629 20.7356 30.3149 21.4224ZM27.9414 23.4491C27.7999 23.732 27.8203 23.945 27.8515 24.2577C28.0735 24.6209 28.2055 24.7678 28.6152 24.8922C29.0472 24.8845 29.2379 24.7532 29.5417 24.4598C29.6974 24.1648 29.6888 23.9575 29.6484 23.6288C29.4871 23.3814 29.3742 23.2221 29.1094 23.0897C28.5823 23.0465 28.3273 23.0515 27.9414 23.4491Z" fill="#FF7705"></path>
    <path d="M18.8149 21.4224C19.4682 21.894 19.9147 22.4874 20.125 23.2694C20.2162 24.2933 20.1348 25.0803 19.4736 25.8973C18.9585 26.451 18.3482 26.8092 17.589 26.8965C16.632 26.9152 15.8525 26.7391 15.1387 26.0714C14.4671 25.3342 14.3175 24.5508 14.3388 23.5793C14.383 22.8412 14.7262 22.2459 15.2566 21.7421C16.288 20.9304 17.6629 20.7356 18.8149 21.4224ZM16.4414 23.4491C16.2999 23.732 16.3203 23.945 16.3515 24.2577C16.5735 24.6209 16.7055 24.7678 17.1152 24.8922C17.5472 24.8845 17.7379 24.7532 18.0417 24.4598C18.1974 24.1648 18.1888 23.9575 18.1484 23.6288C17.9871 23.3814 17.8742 23.2221 17.6094 23.0897C17.0823 23.0465 16.8273 23.0515 16.4414 23.4491Z" fill="#FF7705"></path>
    <path d="M18.7072 32.4072C18.9292 32.496 19.1481 32.5901 19.3669 32.6863C20.0953 32.9921 20.7786 33.2119 21.5625 33.3321C21.6676 33.3494 21.6676 33.3494 21.7748 33.3672C23.5892 33.6192 25.4857 33.2773 27.1328 32.4954C27.475 32.3371 27.7404 32.2925 28.1211 32.3438C28.439 32.4921 28.5533 32.5878 28.75 32.8828C28.7802 33.0899 28.7802 33.0899 28.7837 33.3208C28.7862 33.3966 28.7888 33.4723 28.7914 33.5503C28.7341 33.8697 28.6216 34.0032 28.3906 34.2305C28.1661 34.3534 27.9576 34.455 27.7224 34.5506C27.6583 34.5773 27.5943 34.6041 27.5283 34.6317C24.5685 35.8463 21.2795 35.8207 18.3281 34.5899C17.521 34.2047 17.521 34.2047 17.25 33.7813C17.1904 33.4757 17.1955 33.1892 17.25 32.8828C17.6521 32.3643 18.0604 32.2015 18.7072 32.4072Z" fill="#FF7705"></path>
  </g>
  <defs>
    <clipPath id="clip0_3959_149">
      <rect width="46" height="46" fill="white"></rect>
    </clipPath>
  </defs>
</svg>
