<?xml version="1.0" encoding="UTF-8"?>
<svg xmlns="http://www.w3.org/2000/svg" width="48" height="48" viewBox="0 0 48 48" fill="none">
  <path d="M18.5633 1.3456C18.6952 1.34496 18.8271 1.34413 18.959 1.34311C19.3154 1.34098 19.6717 1.3418 20.0282 1.34329C20.4022 1.34448 20.7762 1.34337 21.1502 1.34264C21.7781 1.34179 22.406 1.34291 23.034 1.34514C23.7587 1.34769 24.4833 1.34687 25.208 1.34429C25.8316 1.34216 26.4552 1.34186 27.0788 1.34309C27.4506 1.34381 27.8224 1.34392 28.1943 1.34237C28.5439 1.34101 28.8936 1.34196 29.2432 1.34466C29.4318 1.34557 29.6205 1.34419 29.8091 1.34272C30.4838 1.35058 31.0028 1.38765 31.5008 1.875C31.9548 2.38853 32.0378 2.85682 32.0287 3.52591C32.0297 3.65616 32.0297 3.65616 32.0307 3.78905C32.0323 4.07406 32.0305 4.35892 32.0285 4.64392C32.0286 4.84306 32.0288 5.0422 32.0292 5.24134C32.0294 5.65783 32.0281 6.07427 32.0255 6.49075C32.0223 7.02373 32.0229 7.55662 32.0246 8.0896C32.0256 8.50051 32.0248 8.9114 32.0234 9.32231C32.0229 9.5188 32.0229 9.71529 32.0235 9.91178C32.024 10.1866 32.0221 10.4614 32.0195 10.7362C32.0204 10.8572 32.0204 10.8572 32.0214 10.9805C32.0118 11.5858 31.8626 11.9816 31.4513 12.4413C31.0071 12.7895 30.6447 12.9588 30.0798 12.9674C29.9859 12.9693 29.8921 12.9711 29.7955 12.973C29.6954 12.9741 29.5953 12.9752 29.4921 12.9763C29.337 12.979 29.337 12.979 29.1788 12.9818C28.8493 12.9874 28.5198 12.9918 28.1902 12.9961C27.9665 12.9997 27.7428 13.0033 27.5191 13.0071C26.9714 13.0161 26.4236 13.0241 25.8758 13.0313C25.8403 13.1098 25.8049 13.1883 25.7684 13.2692C25.6364 13.5606 25.5037 13.8517 25.3705 14.1425C25.313 14.2684 25.2558 14.3944 25.1989 14.5206C25.1171 14.702 25.0342 14.8829 24.9511 15.0637C24.8767 15.2272 24.8767 15.2272 24.8008 15.394C24.657 15.6563 24.657 15.6563 24.3758 15.8438C24.0476 15.8379 24.0476 15.8379 23.7195 15.75C23.4982 15.4358 23.3439 15.0924 23.1852 14.7433C23.1396 14.6433 23.094 14.5433 23.047 14.4403C23.0001 14.3369 22.9533 14.2335 22.9051 14.127C22.8572 14.0218 22.8092 13.9166 22.7599 13.8082C22.642 13.5493 22.5244 13.2903 22.407 13.0313C22.3161 13.0307 22.3161 13.0307 22.2234 13.0302C21.5907 13.0263 20.958 13.0198 20.3253 13.0118C20.0895 13.0092 19.8536 13.0072 19.6177 13.0058C19.2779 13.0038 18.9382 12.9995 18.5984 12.9946C18.4936 12.9945 18.3888 12.9944 18.2808 12.9943C17.5656 12.981 17.0479 12.8798 16.4953 12.3922C16.4526 12.3382 16.41 12.2842 16.366 12.2285C16.3217 12.1743 16.2773 12.12 16.2316 12.0641C15.9674 11.6701 16.0162 11.2335 16.0139 10.7788C16.0132 10.6922 16.0124 10.6056 16.0116 10.5163C16.0093 10.2293 16.0077 9.94222 16.0064 9.65516C16.0059 9.55706 16.0054 9.45896 16.0049 9.35789C16.0024 8.83851 16.0006 8.31915 15.9992 7.79977C15.9979 7.37028 15.9953 6.94083 15.9915 6.51135C15.9869 5.99251 15.9846 5.47371 15.9839 4.95485C15.9833 4.75738 15.9818 4.55992 15.9796 4.36247C15.9766 4.08555 15.9766 3.80878 15.9773 3.53186C15.9758 3.45084 15.9742 3.36982 15.9727 3.28635C15.9786 2.70755 16.1139 2.31154 16.5008 1.875C17.091 1.2975 17.7797 1.33952 18.5633 1.3456ZM17.2508 2.90625C17.2307 3.17248 17.2223 3.42968 17.222 3.69613C17.2213 3.77785 17.2205 3.85957 17.2197 3.94376C17.2174 4.21487 17.2166 4.48596 17.216 4.75708C17.2151 4.94509 17.2143 5.13309 17.2134 5.3211C17.2119 5.71563 17.2111 6.11015 17.2109 6.50469C17.2104 7.0106 17.2068 7.51644 17.2026 8.02233C17.1998 8.41079 17.1991 8.79922 17.199 9.18769C17.1986 9.37421 17.1974 9.56073 17.1955 9.74725C17.193 10.0081 17.1934 10.2688 17.1946 10.5296C17.1932 10.6069 17.1918 10.6841 17.1904 10.7637C17.195 11.1221 17.2171 11.3049 17.4551 11.5797C17.7515 11.7356 17.9229 11.7632 18.2558 11.758C18.3613 11.7575 18.4667 11.7569 18.5753 11.7563C18.6883 11.7541 18.8013 11.7518 18.9178 11.7495C19.1576 11.749 19.3975 11.7487 19.6374 11.7484C20.0151 11.7459 20.3928 11.7423 20.7706 11.7365C21.1354 11.7317 21.5001 11.7315 21.865 11.7319C22.0345 11.7274 22.0345 11.7274 22.2074 11.7229C22.9722 11.7273 22.9722 11.7273 23.2355 11.9737C23.358 12.1663 23.4475 12.3509 23.532 12.5625C23.5877 12.6679 23.6434 12.7733 23.7008 12.8818C23.771 13.0254 23.771 13.0254 23.8426 13.1719C23.8905 13.2695 23.9385 13.3672 23.988 13.4678C24.0231 13.5403 24.0583 13.6128 24.0945 13.6875C24.4192 13.3013 24.5945 12.8533 24.796 12.3961C25.0127 11.9159 25.0127 11.9159 25.2195 11.8125C25.3788 11.8032 25.5385 11.7998 25.6981 11.7992C25.8478 11.7982 25.8478 11.7982 26.0006 11.7972C26.1089 11.7968 26.2172 11.7964 26.3288 11.796C26.5567 11.7938 26.7847 11.7916 27.0127 11.7892C27.3731 11.786 27.7336 11.7832 28.094 11.7819C28.4412 11.7805 28.7883 11.7767 29.1354 11.7726C29.2431 11.7728 29.3509 11.7729 29.4619 11.7731C29.5626 11.7716 29.6633 11.77 29.7671 11.7684C29.8554 11.7679 29.9437 11.7673 30.0347 11.7668C30.3757 11.7006 30.521 11.6056 30.7508 11.3438C30.797 11.0587 30.8131 10.8261 30.8084 10.5412C30.8092 10.42 30.8092 10.42 30.81 10.2963C30.8111 10.0292 30.8089 9.76221 30.8064 9.49512C30.8063 9.30949 30.8063 9.12385 30.8064 8.93822C30.8063 8.5492 30.8045 8.16023 30.8016 7.77123C30.7979 7.27248 30.7975 6.7738 30.7982 6.27504C30.7984 5.89173 30.7973 5.50843 30.7957 5.12512C30.795 4.94122 30.7948 4.75732 30.7948 4.57342C30.7947 4.31643 30.7927 4.05953 30.7901 3.80256C30.7904 3.72647 30.7907 3.65039 30.791 3.572C30.7864 3.26939 30.7711 3.03948 30.6311 2.7682C30.3277 2.49935 29.9808 2.51941 29.5899 2.51872C29.4875 2.51832 29.3851 2.51792 29.2796 2.51751C29.1118 2.51757 29.1118 2.51757 28.9406 2.51764C28.8224 2.51732 28.7043 2.51701 28.5825 2.51668C28.2586 2.51585 27.9348 2.51563 27.6109 2.51557C27.4085 2.51551 27.2061 2.51531 27.0037 2.51506C26.2975 2.51419 25.5912 2.51381 24.8849 2.51388C24.2268 2.51394 23.5687 2.51295 22.9106 2.51147C22.3453 2.51024 21.78 2.50974 21.2147 2.5098C20.8772 2.50982 20.5397 2.50956 20.2022 2.50856C19.8258 2.50749 19.4494 2.50791 19.0731 2.50848C18.9614 2.50795 18.8497 2.50743 18.7346 2.50688C18.632 2.50728 18.5293 2.50767 18.4236 2.50808C18.3346 2.50802 18.2456 2.50797 18.154 2.50792C17.7771 2.54353 17.5191 2.63793 17.2508 2.90625Z" fill="#FF7705"></path>
  <path d="M28.6474 19.8994C28.9885 20.1887 29.3082 20.4965 29.6246 20.8125C29.6873 20.8741 29.75 20.9358 29.8147 20.9993C31.1546 22.4151 31.7443 24.4597 31.7105 26.3712C31.577 28.3512 30.8222 30.0726 29.4371 31.5C29.3854 31.5586 29.3337 31.6172 29.2804 31.6776C28.0653 33.01 26.1374 33.673 24.3739 33.7764C22.2705 33.8258 20.2668 33.1599 18.7176 31.7039C18.0699 31.0723 17.576 30.4307 17.1559 29.625C17.1099 29.5373 17.064 29.4495 17.0167 29.3591C16.1329 27.5448 16.1094 25.4859 16.6933 23.58C17.1461 22.3293 17.8206 21.3678 18.7496 20.4375C18.8112 20.3748 18.8729 20.3121 18.9364 20.2474C21.4761 17.8439 25.933 17.7291 28.6474 19.8994ZM19.7809 21.1875C19.7062 21.2525 19.6315 21.3175 19.5545 21.3845C18.3245 22.5254 17.6409 24.1002 17.51 25.7655C17.4584 27.4421 17.9979 28.8912 19.0309 30.1875C19.0761 30.2482 19.1213 30.3088 19.1678 30.3713C20.0829 31.5403 21.5728 32.2018 22.9918 32.502C24.9415 32.6644 26.5882 32.2555 28.1246 31.0313C28.1853 30.9861 28.2459 30.9409 28.3084 30.8943C29.524 29.9427 30.1451 28.4288 30.4391 26.959C30.5965 25.1644 30.1928 23.4281 29.0306 22.0173C28.9791 21.9601 28.9276 21.9028 28.8746 21.8438C28.8096 21.7691 28.7446 21.6944 28.6776 21.6174C27.6197 20.4769 26.0387 19.6736 24.4684 19.5938C24.3692 19.5867 24.3692 19.5867 24.268 19.5795C22.64 19.5122 20.9953 20.0961 19.7809 21.1875Z" fill="#FF7705"></path>
  <path d="M22.3588 35.6305C22.915 36.0625 23.5309 36.2578 24.2338 36.2227C24.8915 36.124 25.3712 35.8586 25.8744 35.4316C26.7254 34.7288 27.5437 34.7327 28.6034 34.8212C30.941 35.0658 33.1387 36.2022 34.6635 37.998C35.9625 39.6729 36.7562 41.5926 36.7684 43.73C36.769 43.8033 36.7695 43.8766 36.7701 43.9521C36.7709 44.1059 36.7716 44.2597 36.7719 44.4135C36.7728 44.6491 36.7758 44.8846 36.7787 45.1201C36.7793 45.27 36.7798 45.4199 36.7802 45.5698C36.7813 45.6401 36.7825 45.7104 36.7837 45.7829C36.7816 46.2637 36.7816 46.2637 36.6274 46.4973C36.3562 46.6615 36.1188 46.6266 35.8119 46.5937C35.6529 46.4938 35.6529 46.4938 35.5307 46.3125C35.504 46.0765 35.4937 45.8625 35.4959 45.6266C35.4946 45.4866 35.4932 45.3466 35.4918 45.2067C35.4915 45.1336 35.4913 45.0606 35.491 44.9853C35.4757 42.4353 34.9975 40.3009 33.2155 38.3676C31.8343 37.0168 30.0364 36.2439 28.1185 36.0996C28.0527 36.0942 27.9868 36.0887 27.919 36.0831C27.2339 36.0488 26.8265 36.3481 26.3021 36.75C25.3568 37.449 24.5099 37.5689 23.3432 37.5C22.6445 37.3858 22.124 37.0724 21.5619 36.6562C20.706 36.033 20.0493 36.0665 19.0307 36.1875C17.641 36.43 16.3426 37.0393 15.2807 37.9687C15.2177 38.0184 15.1547 38.0681 15.0899 38.1193C13.6229 39.3092 12.7892 41.2864 12.5619 43.125C12.5517 43.3761 12.5448 43.6254 12.5421 43.8765C12.5395 44.0183 12.5368 44.1602 12.5341 44.302C12.5302 44.5232 12.5267 44.7443 12.5243 44.9655C12.5217 45.1806 12.5174 45.3957 12.5128 45.6108C12.5125 45.677 12.5122 45.7433 12.5119 45.8115C12.5052 46.0797 12.4975 46.269 12.3452 46.4948C12.0756 46.6633 11.8381 46.6267 11.5307 46.5937C11.3719 46.4955 11.3719 46.4955 11.2494 46.3125C11.2213 46.0672 11.21 45.8448 11.212 45.5995C11.2118 45.5285 11.2115 45.4576 11.2112 45.3845C11.211 45.2336 11.2116 45.0826 11.2127 44.9317C11.2142 44.7062 11.2128 44.4808 11.211 44.2553C11.2075 41.8832 11.8822 39.812 13.4057 37.9687C13.4453 37.9155 13.4849 37.8622 13.5258 37.8072C14.7892 36.1778 17.0014 35.1395 19.0098 34.8706C20.3541 34.7101 21.2953 34.7282 22.3588 35.6305Z" fill="#FF7705"></path>
  <path d="M33.5625 30.8438C33.946 31.0236 34.3098 31.2345 34.6758 31.4473C34.8318 31.5364 34.8318 31.5364 34.991 31.6273C35.2968 31.8024 35.6017 31.9791 35.9062 32.1563C35.9861 32.2025 36.0659 32.2488 36.1481 32.2964C36.7357 32.6374 37.3214 32.9806 37.8966 33.342C37.9609 33.382 38.0253 33.422 38.0916 33.4631C38.2132 33.5389 38.3343 33.6157 38.4546 33.6935C38.7612 33.886 38.7612 33.886 39.1124 33.932C39.3149 33.8261 39.4485 33.7014 39.6094 33.5391C40.3265 32.8925 41.2288 32.6021 42.1875 32.625C43.4097 32.7156 44.3771 33.1986 45.1875 34.125C45.8678 35.1806 46.0939 36.2638 45.8379 37.4883C45.5861 38.4118 45.051 39.216 44.25 39.75C43.1966 40.3118 42.121 40.494 40.9424 40.2484C39.9315 39.9062 39.0926 39.1921 38.5957 38.2441C38.1194 37.2593 38.1006 36.0943 38.4375 35.0625C38.3587 35.0397 38.2799 35.0168 38.1987 34.9933C37.8368 34.8611 37.5226 34.6819 37.1953 34.4824C37.0548 34.3982 36.9141 34.3141 36.7734 34.2301C36.696 34.1838 36.6185 34.1375 36.5387 34.0898C36.1478 33.8586 35.7538 33.6329 35.3599 33.4069C34.9441 33.1682 34.5294 32.9276 34.1146 32.6872C33.884 32.5544 33.6524 32.4239 33.42 32.2943C33.3093 32.2308 33.1986 32.1672 33.0879 32.1035C32.9528 32.0279 32.9528 32.0279 32.8151 31.9508C32.625 31.7813 32.625 31.7813 32.5444 31.4934C32.5305 31.2038 32.5535 31.0785 32.7187 30.8438C33.0128 30.6967 33.2586 30.7542 33.5625 30.8438ZM40.125 34.6875C39.5693 35.4571 39.382 36.085 39.4687 37.0312C39.6546 37.8374 40.1067 38.3922 40.7871 38.8484C41.4374 39.1903 42.1634 39.1864 42.8745 39.0527C43.477 38.863 43.9728 38.4513 44.3042 37.9182C44.6416 37.2608 44.8423 36.6863 44.658 35.9421C44.3903 35.1163 43.9965 34.547 43.2246 34.1309C42.165 33.6608 40.9452 33.8089 40.125 34.6875Z" fill="#FF7705"></path>
  <path d="M44.4739 12.5552C45.2511 13.1733 45.6809 13.9595 45.9142 14.9121C46.023 16.1913 45.7548 17.2606 44.9477 18.278C44.2625 19.0289 43.3353 19.4437 42.3315 19.5168C41.1648 19.5492 40.1778 19.1743 39.2982 18.4061C39.1876 18.2812 39.1876 18.2812 39.1876 18.0937C37.8209 18.8528 36.462 19.6227 35.1135 20.4137C35.0291 20.4629 34.9447 20.512 34.8577 20.5627C34.6698 20.6738 34.4834 20.7876 34.2982 20.903C34.2001 20.9632 34.102 21.0233 34.001 21.0853C33.9125 21.1407 33.8241 21.196 33.733 21.2531C33.4311 21.3924 33.2353 21.4096 32.9064 21.375C32.6778 21.2227 32.6778 21.2227 32.5314 21C32.5255 20.7187 32.5255 20.7187 32.6251 20.4375C32.9241 20.1715 33.2403 19.9655 33.5871 19.7677C33.6832 19.7126 33.7793 19.6575 33.8782 19.6008C33.981 19.5424 34.0837 19.484 34.1896 19.4238C34.3522 19.3308 34.5148 19.2378 34.6774 19.1447C34.7899 19.0804 34.9024 19.0161 35.0149 18.9519C35.4169 18.7223 35.8176 18.4906 36.2176 18.2578C36.3286 18.1933 36.4396 18.1289 36.5506 18.0644C36.762 17.9415 36.9733 17.8185 37.1845 17.6952C37.2806 17.6395 37.3766 17.5838 37.4756 17.5265C37.5597 17.4775 37.6439 17.4285 37.7306 17.3781C37.9616 17.2539 38.1923 17.1546 38.4376 17.0625C38.3912 16.9204 38.3912 16.9204 38.3439 16.7754C38.0736 15.6708 38.2116 14.6359 38.7489 13.6472C39.3248 12.7126 40.1098 12.1879 41.1454 11.8484C42.3624 11.6283 43.4579 11.8712 44.4739 12.5552ZM39.9376 14.0625C39.5023 14.747 39.3708 15.4128 39.4689 16.2187C39.7013 16.9085 40.0438 17.5359 40.6876 17.9062C41.5057 18.2905 42.1974 18.3969 43.0662 18.1157C43.7325 17.8028 44.2829 17.2516 44.5683 16.5721C44.8525 15.7417 44.7125 15.0286 44.3439 14.25C43.9797 13.6589 43.4147 13.2751 42.7549 13.0675C41.6224 12.8539 40.6988 13.2084 39.9376 14.0625Z" fill="#FF7705"></path>
  <path d="M15.2812 30.8437C15.4792 31.0665 15.4697 31.1944 15.4583 31.4908C15.3458 31.883 15.191 31.9481 14.8396 32.1456C14.7851 32.177 14.7306 32.2083 14.6744 32.2406C14.5597 32.3064 14.4445 32.3713 14.3289 32.4354C14.059 32.5852 13.7928 32.7415 13.5256 32.8964C13.3102 33.019 13.0946 33.1414 12.8789 33.2637C12.6494 33.3941 12.4199 33.5246 12.1904 33.6551C12.1342 33.6871 12.078 33.7191 12.0201 33.752C11.6694 33.9517 11.32 34.1536 10.9717 34.3575C10.8891 34.4058 10.8065 34.4541 10.7214 34.5039C10.5696 34.5929 10.4179 34.6823 10.2665 34.772C9.77056 35.0625 9.77056 35.0625 9.5625 35.0625C9.60891 35.2046 9.60891 35.2046 9.65625 35.3496C9.9224 36.4393 9.81475 37.5779 9.25452 38.5536C8.65193 39.418 7.80223 40.1145 6.75 40.3125C5.41869 40.3977 4.34944 40.2425 3.28125 39.375C2.48453 38.6364 2.07952 37.6061 2.0332 36.5332C2.06679 35.3992 2.48009 34.4064 3.30469 33.6269C4.19329 32.8951 5.13714 32.5917 6.29443 32.6363C7.13672 32.7433 7.99163 33.0651 8.57812 33.6973C8.65547 33.7765 8.73281 33.8558 8.8125 33.9375C9.13757 33.9083 9.40048 33.7385 9.68079 33.5804C9.82536 33.4993 9.82536 33.4993 9.97286 33.4164C10.0753 33.3583 10.1777 33.3001 10.2832 33.2402C10.3886 33.1808 10.4939 33.1214 10.6025 33.0602C11.1985 32.7231 11.7915 32.3816 12.3809 32.0332C12.4432 31.9965 12.5055 31.9599 12.5697 31.9221C12.8229 31.773 13.0759 31.6237 13.3268 31.4708C13.5282 31.3481 13.7308 31.2277 13.9336 31.1074C13.9935 31.07 14.0535 31.0325 14.1153 30.994C14.5382 30.7466 14.8095 30.7167 15.2812 30.8437ZM4.21875 34.5C3.63814 35.0849 3.33427 35.6573 3.25195 36.4805C3.32152 37.3431 3.66492 38.0506 4.3125 38.625C5.00966 39.1267 5.72339 39.1778 6.5625 39.0937C7.2901 38.8696 7.89866 38.4159 8.27966 37.7545C8.62082 37.0044 8.65758 36.2766 8.37305 35.5019C8.03547 34.7611 7.57886 34.3559 6.84375 34.0312C5.90727 33.713 4.98895 33.8698 4.21875 34.5Z" fill="#FF7705"></path>
  <path d="M8.33879 12.5922C9.05554 13.1772 9.58624 13.9828 9.7509 14.9062C9.78757 15.6466 9.79525 16.3525 9.5634 17.0625C9.62972 17.0873 9.69604 17.1121 9.76438 17.1377C10.0461 17.2558 10.3017 17.3947 10.5664 17.547C10.671 17.6069 10.7755 17.6668 10.8832 17.7285C10.996 17.7936 11.1088 17.8587 11.2216 17.9238C11.3379 17.9908 11.4543 18.0578 11.5706 18.1248C11.7507 18.2285 11.9307 18.3322 12.1107 18.436C12.4684 18.6422 12.8272 18.8465 13.1872 19.0488C13.3564 19.1439 13.5253 19.2395 13.6942 19.3351C13.9051 19.4545 14.1163 19.5732 14.3281 19.691C14.4234 19.7453 14.5188 19.7996 14.6171 19.8556C14.7006 19.9025 14.784 19.9494 14.87 19.9977C15.1282 20.1799 15.2937 20.363 15.4696 20.625C15.4638 20.9238 15.4638 20.9238 15.3759 21.1875C15.0464 21.4072 14.92 21.4116 14.5321 21.375C14.2832 21.2682 14.2832 21.2682 14.0297 21.1168C13.934 21.0605 13.8383 21.0043 13.7396 20.9463C13.5867 20.854 13.5867 20.854 13.4306 20.7598C13.2682 20.6639 13.1059 20.568 12.9434 20.4722C12.7743 20.3723 12.6054 20.2718 12.4366 20.1713C11.8863 19.8444 11.331 19.5262 10.7763 19.207C10.6767 19.1494 10.5771 19.0918 10.4744 19.0325C9.92364 18.7142 9.37079 18.4003 8.8134 18.0937C8.77298 18.1813 8.77298 18.1813 8.73175 18.2706C8.45456 18.7895 7.77682 19.117 7.23723 19.3008C7.1069 19.3379 6.97609 19.3733 6.84465 19.4062C6.7673 19.4275 6.68996 19.4488 6.61027 19.4707C5.35711 19.6273 4.27778 19.2828 3.28544 18.5134C2.52488 17.8311 2.14378 16.8293 2.04326 15.8313C1.99647 14.7871 2.34281 13.835 3.0009 13.0312C4.49544 11.5614 6.62215 11.3629 8.33879 12.5922ZM3.89152 13.8926C3.46024 14.468 3.19088 15.2204 3.28215 15.9375C3.41158 16.7471 3.79862 17.273 4.40715 17.8125C4.98819 18.205 5.58399 18.3375 6.28215 18.2812C7.07796 18.0758 7.67348 17.7873 8.13444 17.0969C8.5488 16.3588 8.69298 15.6891 8.46952 14.8619C8.1721 14.1047 7.66303 13.5215 6.91935 13.1898C5.83812 12.7738 4.69652 13.0552 3.89152 13.8926Z" fill="#FF7705"></path>
  <path d="M6.37595 22.2188C6.61695 22.5428 6.58841 22.8843 6.59069 23.2758C6.59164 23.3779 6.59164 23.3779 6.5926 23.482C6.59438 23.7064 6.59475 23.9308 6.59495 24.1553C6.59555 24.3115 6.59618 24.4677 6.59684 24.6239C6.59796 24.9511 6.59831 25.2783 6.5982 25.6055C6.59818 26.0248 6.60074 26.4441 6.60397 26.8634C6.60605 27.1859 6.60643 27.5084 6.60633 27.8309C6.60655 27.9855 6.60738 28.1401 6.60883 28.2947C6.61067 28.5108 6.61013 28.7268 6.609 28.9429C6.60927 29.0659 6.60954 29.1888 6.60981 29.3155C6.56345 29.625 6.56345 29.625 6.39105 29.8526C6.11832 30.051 5.95589 30.0491 5.62595 30C5.47048 29.9005 5.47048 29.9005 5.3447 29.7188C5.31647 29.4783 5.30531 29.2605 5.30682 29.02C5.30586 28.9137 5.30586 28.9137 5.30487 28.8051C5.30316 28.5706 5.30352 28.3361 5.30405 28.1016C5.30363 27.9387 5.30313 27.7758 5.30257 27.613C5.30173 27.2715 5.30196 26.9302 5.30289 26.5888C5.30396 26.1508 5.30207 25.713 5.29933 25.2751C5.29761 24.9387 5.29764 24.6024 5.29817 24.2661C5.29819 24.1046 5.29762 23.9431 5.29646 23.7816C5.29507 23.556 5.29606 23.3306 5.29767 23.105C5.29676 23.0381 5.29586 22.9711 5.29492 22.9022C5.29939 22.6038 5.30848 22.4458 5.5139 22.2216C5.8297 22.0734 6.04654 22.1273 6.37595 22.2188Z" fill="#FF7705"></path>
  <path d="M41.707 22.1016C42 22.125 42 22.125 42.1699 22.2422C42.4216 22.6131 42.3942 23.0445 42.4047 23.4785C42.4066 23.548 42.4086 23.6174 42.4106 23.689C42.4169 23.9177 42.4224 24.1463 42.4277 24.375C42.4296 24.4531 42.4315 24.5311 42.4335 24.6116C42.4472 25.1889 42.4586 25.7663 42.4687 26.3438C42.4702 26.4256 42.4716 26.5075 42.4731 26.5919C42.4812 27.0657 42.4872 27.5395 42.4904 28.0133C42.4916 28.1616 42.4932 28.31 42.4953 28.4583C42.4981 28.665 42.4991 28.8716 42.4995 29.0782C42.5008 29.2541 42.5008 29.2541 42.5022 29.4335C42.4687 29.7188 42.4687 29.7188 42.3438 29.8976C42.1016 30.0563 41.9068 30.0294 41.625 30C41.3437 29.8125 41.3437 29.8125 41.25 29.5312C41.2348 29.3139 41.2249 29.0962 41.2177 28.8785C41.2154 28.8125 41.2131 28.7464 41.2107 28.6784C41.2033 28.46 41.1966 28.2416 41.1899 28.0232C41.1864 27.9112 41.1864 27.9112 41.1829 27.7969C41.1705 27.4019 41.1587 27.0069 41.1474 26.6118C41.1355 26.204 41.1219 25.7962 41.1079 25.3884C41.0974 25.0746 41.0882 24.7607 41.0794 24.4469C41.075 24.2965 41.0701 24.1462 41.0646 23.9959C41.0571 23.7854 41.0515 23.575 41.0463 23.3645C41.0426 23.2448 41.0389 23.1251 41.0352 23.0018C41.0751 22.5429 41.2216 22.1438 41.707 22.1016Z" fill="#FF7705"></path>
  <path d="M31.7818 41.8125C31.9316 41.9622 31.8882 42.1196 31.8892 42.327C31.8898 42.4165 31.8904 42.506 31.891 42.5982C31.8911 42.6955 31.8912 42.7929 31.8913 42.8932C31.8916 42.9925 31.8919 43.0918 31.8922 43.1941C31.8927 43.4046 31.8929 43.6151 31.8929 43.8256C31.8931 44.1487 31.8948 44.4717 31.8966 44.7947C31.8969 44.9988 31.8971 45.2028 31.8972 45.4069C31.8978 45.504 31.8985 45.6012 31.8992 45.7013C31.8989 45.7911 31.8986 45.8809 31.8983 45.9734C31.8985 46.0526 31.8986 46.1318 31.8987 46.2135C31.8756 46.4062 31.8756 46.4062 31.6881 46.5937C31.1494 46.6536 31.1494 46.6536 30.9381 46.5937C30.5839 46.1672 30.6159 45.7374 30.6194 45.2106C30.6192 45.1226 30.6189 45.0347 30.6186 44.9441C30.6184 44.7587 30.619 44.5733 30.6201 44.3879C30.6216 44.1042 30.6201 43.8205 30.6184 43.5368C30.6185 43.3564 30.6189 43.1761 30.6194 42.9957C30.6189 42.911 30.6183 42.8262 30.6177 42.7388C30.6243 42.1555 30.6243 42.1555 30.7822 41.8557C31.1362 41.5446 31.3779 41.6545 31.7818 41.8125Z" fill="#FF7705"></path>
  <path d="M17.1556 41.8125C17.3214 42.0738 17.3669 42.2774 17.3688 42.5841C17.3697 42.6614 17.3706 42.7387 17.3715 42.8183C17.3714 42.901 17.3714 42.9837 17.3713 43.069C17.3717 43.1547 17.3721 43.2405 17.3725 43.3288C17.373 43.51 17.3731 43.6912 17.3727 43.8723C17.3724 44.1491 17.3746 44.4257 17.3769 44.7025C17.3772 44.8787 17.3772 45.0549 17.3771 45.2311C17.378 45.3136 17.3789 45.3961 17.3797 45.4812C17.3764 45.9264 17.3577 46.2353 17.0618 46.5938C16.7929 46.6699 16.5963 46.6254 16.3118 46.5938C16.0807 46.3626 16.0996 46.2946 16.0956 45.9763C16.0941 45.8872 16.0926 45.798 16.0911 45.7061C16.0906 45.6095 16.0901 45.513 16.0895 45.4135C16.0887 45.3145 16.0878 45.2156 16.087 45.1136C16.0856 44.9041 16.0848 44.6945 16.0844 44.485C16.0833 44.1637 16.0787 43.8426 16.074 43.5214C16.0731 43.3181 16.0724 43.1148 16.072 42.9115C16.0701 42.8151 16.0683 42.7187 16.0664 42.6194C16.068 42.3728 16.0733 42.1475 16.1243 41.9063C16.4856 41.5651 16.7221 41.5909 17.1556 41.8125Z" fill="#FF7705"></path>
  <path d="M34.6875 10.6875C34.9996 10.8393 35.2838 11.0283 35.5723 11.2207C35.6876 11.2953 35.6876 11.2953 35.8054 11.3714C36.028 11.5162 36.2486 11.6639 36.4688 11.8125C36.5342 11.8554 36.5996 11.8982 36.667 11.9423C37.1121 12.2424 37.1121 12.2424 37.2363 12.6152C37.2188 12.9375 37.2188 12.9375 37.0781 13.1719C36.7402 13.3746 36.5684 13.3091 36.1875 13.2188C35.9085 13.0784 35.6541 12.9084 35.3965 12.7324C35.3297 12.6884 35.2629 12.6443 35.1942 12.5989C34.8492 12.3693 34.5104 12.1312 34.1752 11.8876C34.114 11.8431 34.0529 11.7987 33.9899 11.7529C33.8438 11.625 33.8438 11.625 33.7383 11.3789C33.7515 11.1284 33.7969 10.9884 33.9375 10.7813C34.2174 10.6413 34.3728 10.6495 34.6875 10.6875Z" fill="#FF7705"></path>
  <path d="M14.063 10.6875C14.2505 10.875 14.2505 10.875 14.2974 11.1855C14.2448 11.5734 14.1662 11.6394 13.8689 11.871C13.5135 12.1245 13.1447 12.3557 12.7739 12.5859C12.6931 12.6367 12.6122 12.6875 12.5289 12.7397C11.6937 13.2626 11.6937 13.2626 11.1567 13.2188C10.981 13.1191 10.981 13.1191 10.8755 12.9375C10.7993 12.6328 10.7993 12.6328 10.8755 12.2813C11.1513 12.008 11.4816 11.8242 11.813 11.625C11.9431 11.5431 12.0729 11.461 12.2026 11.3785C13.498 10.558 13.498 10.558 14.063 10.6875Z" fill="#FF7705"></path>
  <path d="M23.9933 6.52734C24.2664 6.53529 24.3474 6.54141 24.5676 6.71484C24.6877 7.01932 24.6606 7.18997 24.5617 7.5C24.4035 7.68164 24.4035 7.68164 24.1867 7.78125C23.8604 7.77459 23.6903 7.74508 23.4426 7.5293C23.3068 7.23384 23.3495 7.05849 23.4367 6.75C23.6242 6.5625 23.6242 6.5625 23.9933 6.52734Z" fill="#FF7705"></path>
  <path d="M27.7507 6.56251C28.0319 6.75001 28.0319 6.75001 28.114 6.9668C28.1295 7.30098 28.0619 7.43495 27.8444 7.68751C27.5422 7.78396 27.3658 7.81072 27.0652 7.70509C26.9069 7.59376 26.9069 7.59376 26.8132 7.40626C26.7716 6.91721 26.7716 6.91721 26.9128 6.66798C27.1952 6.504 27.4315 6.53401 27.7507 6.56251Z" fill="#FF7705"></path>
  <path d="M20.9064 6.5625C21.0881 6.66797 21.0881 6.66797 21.1877 6.84375C21.2243 7.13636 21.2401 7.32185 21.0822 7.57617C20.8325 7.73433 20.6384 7.76923 20.3439 7.78125C20.1039 7.65799 20.0009 7.56837 19.8869 7.32422C19.8713 7.0587 19.9421 6.89102 20.0627 6.65625C20.3486 6.51329 20.5917 6.54041 20.9064 6.5625Z" fill="#FF7705"></path>
</svg>
