<?xml version="1.0" encoding="UTF-8"?>
<svg xmlns="http://www.w3.org/2000/svg" width="48" height="48" viewBox="0 0 48 48" fill="none">
  <path d="M5.75707 5.01141C5.87352 5.01113 5.98996 5.01084 6.10993 5.01055C6.23808 5.01068 6.36624 5.01082 6.4944 5.01096C6.63137 5.0108 6.76833 5.01059 6.9053 5.01036C7.28105 5.00982 7.65679 5.00983 8.03254 5.00993C8.43803 5.00995 8.84352 5.00946 9.24901 5.00904C10.0432 5.00831 10.8374 5.00807 11.6316 5.00802C12.2771 5.00798 12.9227 5.0078 13.5683 5.00752C15.399 5.00674 17.2296 5.00633 19.0603 5.0064C19.1589 5.0064 19.2576 5.0064 19.3593 5.00641C19.4581 5.00641 19.5569 5.00642 19.6586 5.00642C21.2598 5.00645 22.861 5.00561 24.4622 5.00437C26.1066 5.0031 27.7509 5.00249 29.3953 5.00256C30.3184 5.00259 31.2415 5.00235 32.1645 5.0014C32.9504 5.0006 33.7363 5.00041 34.5222 5.001C34.923 5.00129 35.3239 5.0013 35.7247 5.00053C36.092 4.99984 36.4592 4.99996 36.8265 5.00073C36.959 5.00087 37.0916 5.00071 37.2241 5.00022C38.4164 4.99608 39.3408 5.04284 40.2405 5.87611C40.9034 6.58494 40.9178 7.31789 40.8978 8.24444C40.8966 8.35071 40.8954 8.45698 40.8942 8.56647C40.891 8.82694 40.8867 9.08733 40.8811 9.34776C40.9851 9.34591 41.089 9.34406 41.1961 9.34216C41.5842 9.33573 41.9723 9.3317 42.3605 9.32836C42.528 9.3266 42.6955 9.32419 42.8631 9.32112C43.1048 9.31681 43.3465 9.31483 43.5882 9.31328C43.6623 9.31146 43.7364 9.30964 43.8127 9.30776C44.4231 9.30753 44.8837 9.4726 45.3451 9.87425C45.393 9.93171 45.4408 9.98916 45.4902 10.0484C45.5394 10.1056 45.5887 10.1628 45.6394 10.2218C45.982 10.7158 45.9719 11.1732 45.9713 11.7541C45.9719 11.8452 45.9725 11.9362 45.9731 12.03C45.9748 12.3309 45.9752 12.6317 45.9754 12.9325C45.9759 13.1419 45.9765 13.3513 45.9771 13.5608C45.9782 13.9998 45.9785 14.4388 45.9784 14.8778C45.9784 15.4397 45.9808 16.0015 45.9839 16.5633C45.9859 16.9959 45.9862 17.4285 45.9861 17.8611C45.9864 18.0682 45.9871 18.2753 45.9885 18.4824C45.9903 18.7725 45.9897 19.0625 45.9887 19.3525C45.9897 19.4376 45.9907 19.5227 45.9917 19.6103C45.9859 20.2299 45.8469 20.6961 45.4412 21.1743C44.9516 21.5678 44.5269 21.8088 43.8815 21.7994C43.802 21.7985 43.7225 21.7976 43.6406 21.7966C43.5802 21.7955 43.5199 21.7943 43.4577 21.7932C43.4591 21.8497 43.4605 21.9062 43.462 21.9644C43.4675 22.2218 43.471 22.4791 43.4744 22.7365C43.4778 22.8699 43.4778 22.8699 43.4812 23.0059C43.4893 23.822 43.4893 23.822 43.1912 24.1763C43.1024 24.2646 43.1024 24.2646 42.8884 24.2746C42.7958 24.2741 42.7032 24.2737 42.6078 24.2732C42.5079 24.2729 42.4079 24.2726 42.305 24.2723C42.1998 24.2716 42.0946 24.2709 41.9862 24.2701C41.8807 24.2697 41.7751 24.2693 41.6664 24.2689C41.4046 24.2678 41.1429 24.2664 40.8811 24.2646C40.8819 24.3411 40.8827 24.4177 40.8835 24.4966C40.8907 25.2211 40.8961 25.9456 40.8996 26.6701C40.9014 27.0425 40.9039 27.4149 40.908 27.7873C40.9118 28.1473 40.9139 28.5073 40.9149 28.8673C40.9155 29.004 40.9168 29.1408 40.9187 29.2775C40.9342 30.4194 40.7561 31.2787 39.976 32.1643C39.0201 33.0084 38.0882 33.2215 36.8269 33.2094C36.6655 33.2095 36.6654 33.2095 36.5008 33.2095C36.209 33.2094 35.9172 33.2081 35.6254 33.2062C35.3192 33.2045 35.013 33.2044 34.7069 33.2041C34.1285 33.2033 33.5502 33.2011 32.9719 33.1984C32.3129 33.1955 31.6539 33.194 30.9948 33.1927C29.6405 33.1899 28.2862 33.1853 26.9319 33.1794C26.9711 33.5275 27.0115 33.8754 27.052 34.2234C27.063 34.3207 27.0739 34.418 27.0852 34.5182C27.2416 35.8484 27.5898 37.0567 28.087 38.2987C28.2051 38.2993 28.2051 38.2993 28.3257 38.2998C28.6222 38.3022 28.9185 38.3066 29.2149 38.3122C29.3424 38.3142 29.47 38.3155 29.5975 38.316C30.463 38.3199 31.2239 38.3753 31.8982 38.9791C32.3722 39.469 32.541 40.0015 32.5738 40.6709C32.5542 41.3155 32.3531 41.8049 31.913 42.28C31.23 42.9033 30.5694 42.9904 29.6603 42.9886C29.5875 42.9888 29.5147 42.989 29.4397 42.9892C29.1964 42.9898 28.9531 42.9897 28.7098 42.9896C28.5351 42.9899 28.3604 42.9902 28.1857 42.9905C27.7115 42.9913 27.2373 42.9915 26.7632 42.9916C26.4668 42.9916 26.1704 42.9918 25.874 42.9921C24.8396 42.9929 23.8052 42.9932 22.7707 42.9932C21.8072 42.9931 20.8436 42.994 19.8801 42.9954C19.0523 42.9966 18.2244 42.9971 17.3966 42.997C16.9024 42.997 16.4082 42.9972 15.9141 42.9982C15.4492 42.999 14.9843 42.999 14.5194 42.9984C14.3491 42.9983 14.1788 42.9985 14.0085 42.999C13.7753 42.9997 13.5422 42.9993 13.309 42.9986C13.2423 42.9991 13.1755 42.9995 13.1066 43C12.3049 42.9949 11.6243 42.8656 11.0413 42.2827C10.4728 41.6657 10.3627 41.2106 10.3794 40.3737C10.4452 39.6119 10.7784 39.2011 11.3467 38.7073C11.7894 38.4106 12.2238 38.3634 12.7488 38.3505C12.8394 38.3479 12.8394 38.3479 12.9318 38.3453C13.1228 38.34 13.3137 38.3359 13.5047 38.3318C13.635 38.3285 13.7653 38.325 13.8955 38.3215C14.2132 38.3131 14.5309 38.3056 14.8486 38.2987C15.1529 37.4733 15.4151 36.6532 15.5816 35.7887C15.5949 35.7206 15.6083 35.6526 15.6221 35.5825C15.7182 35.0529 15.7753 34.5207 15.8307 33.9858C15.8388 33.9081 15.8469 33.8305 15.8553 33.7504C15.8752 33.5601 15.895 33.3697 15.9147 33.1794C15.8593 33.1796 15.8039 33.1799 15.7468 33.1801C14.3948 33.186 13.0428 33.1903 11.6907 33.1931C11.0369 33.1944 10.383 33.1963 9.7292 33.1993C9.15894 33.202 8.58869 33.2037 8.01842 33.2043C7.7168 33.2046 7.41521 33.2054 7.1136 33.2074C6.77589 33.2093 6.43823 33.2095 6.10052 33.2094C5.95251 33.2109 5.95251 33.2109 5.8015 33.2123C4.71781 33.2081 3.77012 32.9473 2.94251 32.2309C1.88033 31.1346 1.991 29.8192 1.99831 28.3987C1.99785 28.173 1.9972 27.9473 1.99638 27.7216C1.99491 27.1742 1.9955 26.6268 1.9971 26.0793C1.99835 25.6342 1.99869 25.1891 1.99839 24.744C1.99835 24.6804 1.99831 24.6169 1.99826 24.5514C1.99817 24.4223 1.99808 24.2932 1.99798 24.1641C1.99722 23.0246 1.9987 21.8852 2.00134 20.7457C2.0039 19.6416 2.00453 18.5375 2.00316 17.4334C2.00167 16.229 2.00132 15.0246 2.00287 13.8202C2.00304 13.6916 2.0032 13.5631 2.00336 13.4345C2.00344 13.3713 2.00352 13.308 2.00361 13.2429C2.0041 12.7985 2.00381 12.3542 2.00322 11.9098C2.00246 11.3112 2.00362 10.7127 2.00605 10.1141C2.00666 9.89472 2.00667 9.67532 2.00603 9.45593C2.00526 9.15594 2.00668 8.85604 2.00865 8.55605C2.00792 8.46971 2.00719 8.38337 2.00643 8.29441C2.01767 7.36315 2.36477 6.5631 3.03171 5.90542C3.88458 5.26011 4.6862 5.01207 5.75707 5.01141ZM3.7425 7.14113C3.32845 7.7675 3.2848 8.39025 3.28757 9.12746C3.2875 9.20162 3.28742 9.27579 3.28734 9.3522C3.28719 9.60079 3.28768 9.84938 3.28817 10.098C3.2882 10.2792 3.28818 10.4604 3.28814 10.6417C3.28812 11.1268 3.28863 11.6119 3.28926 12.0971C3.28976 12.5524 3.28979 13.0077 3.28985 13.463C3.29032 14.7944 3.29156 16.1257 3.2927 17.4571C3.29454 20.4318 3.29637 23.4064 3.29826 26.4712C15.2608 26.4712 27.2234 26.4712 39.5484 26.4712C39.5484 25.743 39.5484 25.0148 39.5484 24.2646C38.166 24.2486 36.7836 24.2356 35.4011 24.228C34.7591 24.2244 34.1172 24.2194 33.4753 24.2113C32.9158 24.2043 32.3563 24.1997 31.7968 24.1981C31.5005 24.1972 31.2044 24.1947 30.9081 24.1899C30.5772 24.1848 30.2467 24.1841 29.9158 24.1844C29.8177 24.1819 29.7196 24.1793 29.6185 24.1767C29.3556 24.1795 29.138 24.1877 28.8866 24.2646C28.7216 24.4326 28.6286 24.5851 28.5305 24.798C28.3508 25.1502 28.0034 25.2926 27.6427 25.412C27.2359 25.4353 26.8285 25.4325 26.4211 25.4341C26.3088 25.4359 26.1966 25.4377 26.0809 25.4396C25.4933 25.4421 25.0505 25.4315 24.533 25.1472C24.4451 25.1181 24.3571 25.089 24.2665 25.059C24.1721 24.8659 24.1721 24.8659 24.0888 24.6176C24.0558 24.5394 24.0228 24.4611 23.9888 24.3804C23.8172 23.735 23.846 23.0887 24.1776 22.4993C24.447 22.1754 24.6665 22.0087 25.0661 21.8814C25.4469 21.8492 25.8271 21.8523 26.2092 21.8536C26.3925 21.8538 26.5756 21.8518 26.7589 21.8495C26.8755 21.8495 26.992 21.8494 27.1121 21.8494C27.2181 21.8491 27.3242 21.8488 27.4334 21.8486C27.8198 21.8911 28.1215 22.0137 28.4077 22.2786C28.5739 22.4958 28.7342 22.7135 28.8866 22.9406C29.0822 22.98 29.0822 22.98 29.3127 22.9724C29.4027 22.9728 29.4926 22.9732 29.5853 22.9735C29.6844 22.9726 29.7834 22.9716 29.8855 22.9707C29.9895 22.9707 30.0935 22.9707 30.2007 22.9708C30.4863 22.9706 30.7719 22.9693 31.0576 22.9674C31.3559 22.9658 31.6542 22.9656 31.9526 22.9653C32.5177 22.9645 33.0829 22.9623 33.648 22.9597C34.2913 22.9567 34.9346 22.9553 35.5779 22.9539C36.9014 22.9512 38.2249 22.9465 39.5484 22.9406C39.5567 20.9128 39.563 18.8849 39.5668 16.8571C39.5687 15.9155 39.5712 14.974 39.5752 14.0325C39.5788 13.2118 39.5811 12.3912 39.5819 11.5706C39.5823 11.136 39.5834 10.7015 39.586 10.267C39.5884 9.85792 39.5891 9.44891 39.5886 9.03986C39.5887 8.88978 39.5894 8.7397 39.5908 8.58962C39.5926 8.38453 39.5921 8.17955 39.5912 7.97445C39.5915 7.85973 39.5918 7.74501 39.5921 7.62681C39.5267 7.16394 39.3103 6.89585 38.9709 6.58395C38.5981 6.33399 38.2771 6.33563 37.8329 6.33514C37.717 6.3348 37.601 6.33446 37.4815 6.33411C37.3525 6.33418 37.2235 6.33426 37.0945 6.33435C36.9577 6.33412 36.8209 6.33385 36.6841 6.33355C36.3076 6.33284 35.9311 6.33268 35.5546 6.33262C35.1487 6.33245 34.7428 6.33179 34.337 6.33119C33.4492 6.32999 32.5615 6.32946 31.6737 6.32907C31.1195 6.32883 30.5652 6.32845 30.011 6.32806C28.4766 6.32698 26.9423 6.32607 25.4079 6.32577C25.2606 6.32574 25.2606 6.32574 25.1103 6.32571C25.0118 6.32569 24.9134 6.32568 24.8119 6.32566C24.6124 6.32562 24.4129 6.32558 24.2134 6.32554C24.1144 6.32552 24.0155 6.3255 23.9135 6.32548C22.31 6.32513 20.7064 6.32359 19.1028 6.32153C17.4568 6.31944 15.8107 6.31834 14.1646 6.31824C13.2403 6.31816 12.316 6.31765 11.3917 6.31605C10.6046 6.31469 9.8175 6.31424 9.0304 6.31496C8.62884 6.31531 8.2273 6.31523 7.82574 6.31399C7.45793 6.31286 7.09014 6.31297 6.72232 6.31404C6.58947 6.31421 6.45661 6.31394 6.32375 6.31317C5.32269 6.30774 4.43471 6.34629 3.7425 7.14113ZM40.8811 10.6717C40.8811 13.9049 40.8811 17.138 40.8811 20.4692C43.7582 20.8 43.7582 20.8 44.5239 20.1161C44.7329 19.6851 44.7269 19.2658 44.7246 18.7975C44.7249 18.7199 44.7252 18.6423 44.7256 18.5624C44.7263 18.3071 44.7258 18.0517 44.7252 17.7964C44.7253 17.6183 44.7255 17.4403 44.7257 17.2622C44.726 16.8895 44.7256 16.5167 44.7248 16.144C44.7238 15.6667 44.7244 15.1895 44.7254 14.7122C44.7261 14.3447 44.7259 13.9771 44.7254 13.6096C44.7253 13.4336 44.7254 13.2577 44.7258 13.0817C44.7263 12.8356 44.7256 12.5895 44.7246 12.3434C44.725 12.2711 44.7253 12.1987 44.7257 12.1241C44.721 11.4882 44.6393 11.1394 44.1685 10.6717C43.0837 10.6717 41.9989 10.6717 40.8811 10.6717ZM40.8811 21.7932C40.8811 22.1718 40.8811 22.5505 40.8811 22.9406C41.2916 22.9406 41.7021 22.9406 42.125 22.9406C42.125 22.5619 42.125 22.1833 42.125 21.7932C41.7145 21.7932 41.3041 21.7932 40.8811 21.7932ZM25.3327 23.1171C25.1271 23.4234 25.1248 23.5518 25.155 23.9115C25.2429 24.0426 25.2429 24.0426 25.3327 24.1763C25.5448 24.2145 25.5448 24.2145 25.7908 24.2053C25.8816 24.2048 25.9724 24.2044 26.066 24.2039C26.1612 24.2021 26.2564 24.2003 26.3544 24.1984C26.4972 24.1977 26.4972 24.1977 26.6428 24.197C27.1133 24.2125 27.1133 24.2125 27.5539 24.088C27.5563 23.9428 27.558 23.7975 27.5594 23.6522C27.5605 23.5713 27.5615 23.4904 27.5626 23.4071C27.5769 23.2084 27.5769 23.2084 27.465 23.1171C27.1121 23.0924 26.7581 23.0967 26.4044 23.0951C26.3046 23.0932 26.2048 23.0914 26.1019 23.0895C25.9591 23.0889 25.9591 23.0889 25.8134 23.0882C25.6816 23.0869 25.6816 23.0869 25.5472 23.0857C25.441 23.1012 25.441 23.1012 25.3327 23.1171ZM3.29826 27.7952C3.17484 29.5737 3.17484 29.5737 3.83135 31.1493C4.6017 31.8972 5.37527 31.894 6.39659 31.889C6.5315 31.8893 6.66641 31.8897 6.80132 31.8903C7.17097 31.8914 7.54059 31.8908 7.91024 31.89C8.30931 31.8894 8.70837 31.8903 9.10744 31.8911C9.88881 31.8922 10.6702 31.892 11.4516 31.8912C12.0867 31.8906 12.7218 31.8905 13.3569 31.8908C13.4925 31.8909 13.4925 31.8909 13.6309 31.8909C13.8146 31.891 13.9983 31.8911 14.182 31.8912C15.9042 31.892 17.6265 31.8911 19.3487 31.8897C20.8261 31.8885 22.3035 31.8887 23.7808 31.8899C25.4968 31.8913 27.2128 31.8919 28.9288 31.8911C29.1118 31.891 29.2948 31.8909 29.4779 31.8908C29.6129 31.8908 29.6129 31.8908 29.7507 31.8907C30.385 31.8905 31.0192 31.8909 31.6534 31.8915C32.4265 31.8922 33.1996 31.892 33.9727 31.8906C34.3671 31.8899 34.7614 31.8896 35.1558 31.8905C35.517 31.8913 35.8782 31.8909 36.2395 31.8895C36.3699 31.8892 36.5004 31.8893 36.6308 31.89C37.4692 31.8938 38.2217 31.8789 38.9098 31.3589C39.9115 30.3052 39.5484 29.2873 39.5484 27.7952C27.5859 27.7952 15.6233 27.7952 3.29826 27.7952ZM17.2475 33.1794C17.1595 33.9658 17.0715 34.7522 16.9809 35.5625C16.8255 36.3778 16.6705 37.1759 16.4048 37.9622C16.3468 38.1369 16.3468 38.1369 16.359 38.387C19.7308 38.387 23.1026 38.387 26.5765 38.387C26.4886 38.0666 26.4006 37.7462 26.31 37.4161C25.9224 35.9978 25.7652 34.6634 25.5992 33.1794C22.8431 33.1794 20.0871 33.1794 17.2475 33.1794ZM11.9166 39.9758C11.7086 40.2414 11.7012 40.5302 11.7111 40.8615C11.757 41.1485 11.8798 41.2857 12.0943 41.4763C12.5159 41.6539 12.907 41.6781 13.3585 41.6758C13.4307 41.6762 13.5029 41.6765 13.5773 41.6769C13.8186 41.6778 14.0598 41.6774 14.301 41.6771C14.4743 41.6774 14.6476 41.6779 14.8208 41.6784C15.2909 41.6796 15.7611 41.6797 16.2312 41.6794C16.6238 41.6793 17.0163 41.6798 17.4089 41.6802C18.3351 41.6812 19.2613 41.6812 20.1875 41.6807C21.1427 41.6802 22.098 41.6812 23.0533 41.6831C23.8737 41.6847 24.6942 41.6852 25.5146 41.6849C26.0045 41.6848 26.4944 41.685 26.9843 41.6862C27.445 41.6873 27.9056 41.6872 28.3663 41.686C28.5353 41.6858 28.7042 41.686 28.8732 41.6868C29.104 41.6877 29.3349 41.687 29.5657 41.6859C29.6324 41.6865 29.699 41.6872 29.7676 41.6878C30.2253 41.6832 30.531 41.595 30.9301 41.388C31.1492 41.1353 31.1927 40.9737 31.2411 40.6433C31.1821 40.2259 31.0495 40.0943 30.7524 39.7993C30.4724 39.6602 30.1723 39.6983 29.8649 39.6986C29.7536 39.6982 29.7535 39.6982 29.64 39.6978C29.3899 39.697 29.1397 39.6969 28.8896 39.6968C28.7109 39.6964 28.5321 39.6959 28.3534 39.6954C27.8667 39.6943 27.3801 39.6937 26.8934 39.6933C26.5896 39.6931 26.2858 39.6927 25.9819 39.6923C25.032 39.6911 24.082 39.6902 23.132 39.6899C22.0343 39.6895 20.9365 39.688 19.8387 39.6854C18.991 39.6835 18.1433 39.6826 17.2955 39.6825C16.7888 39.6824 16.2822 39.6819 15.7755 39.6803C15.2989 39.6788 14.8224 39.6786 14.3458 39.6794C14.1707 39.6795 13.9957 39.6791 13.8207 39.6782C13.5819 39.6771 13.3432 39.6776 13.1045 39.6786C13.035 39.6778 12.9656 39.6771 12.894 39.6764C12.4928 39.68 12.2368 39.7313 11.9166 39.9758Z" fill="#FF7705"></path>
  <path d="M16.0994 9.00993C16.2303 9.00955 16.3612 9.0091 16.4921 9.00858C16.8459 9.00741 17.1998 9.00736 17.5537 9.00758C17.8497 9.00767 18.1458 9.00725 18.4419 9.00683C19.1407 9.00586 19.8395 9.00582 20.5383 9.00635C21.2578 9.00688 21.9772 9.0058 22.6967 9.00394C23.3159 9.0024 23.935 9.00188 24.5541 9.00217C24.9233 9.00232 25.2924 9.0021 25.6616 9.00088C26.0088 8.99978 26.3561 8.99996 26.7033 9.00109C26.8303 9.0013 26.9572 9.00106 27.0842 9.00034C27.908 8.99598 28.5859 9.02705 29.2845 9.48671C29.8476 10.0738 29.971 10.6893 29.9721 11.4799C29.9726 11.5502 29.973 11.6205 29.9735 11.693C29.9747 11.9253 29.9753 12.1577 29.9758 12.3901C29.9763 12.5521 29.9768 12.7141 29.9773 12.8761C29.9783 13.2159 29.9788 13.5557 29.9791 13.8955C29.9796 14.3295 29.9817 14.7635 29.9842 15.1974C29.9858 15.5322 29.9862 15.8671 29.9864 16.2019C29.9866 16.3618 29.9873 16.5217 29.9885 16.6816C29.99 16.9061 29.9898 17.1306 29.9893 17.3551C29.9901 17.4203 29.9909 17.4855 29.9917 17.5527C29.9871 18.137 29.8602 18.7148 29.4981 19.1866C29.0188 19.6533 28.6478 19.8097 27.9894 19.8138C27.9064 19.8125 27.8234 19.8113 27.7379 19.81C27.649 19.81 27.56 19.8101 27.4684 19.8101C27.1759 19.8099 26.8834 19.8072 26.591 19.8044C26.3876 19.8038 26.1842 19.8033 25.9808 19.8029C25.4466 19.8016 24.9124 19.7982 24.3782 19.7943C23.8326 19.7907 23.2871 19.7891 22.7415 19.7874C21.6719 19.7836 20.6023 19.7777 19.5327 19.7703C19.5329 19.8255 19.533 19.8806 19.5332 19.9374C19.5337 20.1896 19.5341 20.4418 19.5344 20.694C19.5347 20.7807 19.5349 20.8674 19.5351 20.9568C19.5368 22.5385 19.5368 22.5385 19.3229 22.8005C19.1276 22.9563 18.9939 22.9882 18.7443 23C18.1273 22.7412 17.6724 22.112 17.2447 21.6181C16.9949 21.3315 16.7394 21.0505 16.4808 20.7718C16.2912 20.5559 16.2912 20.5559 16.1509 20.3483C16.0042 20.1387 15.892 20.0003 15.678 19.8576C15.3426 19.806 15.0192 19.7975 14.6801 19.7925C14.1299 19.7539 13.8328 19.5077 13.4604 19.1266C13.111 18.5851 13.0106 18.1582 13.013 17.5258C13.0122 17.4522 13.0115 17.3786 13.0107 17.3028C13.0087 17.0609 13.0086 16.819 13.0087 16.5772C13.0081 16.4079 13.0074 16.2387 13.0067 16.0694C13.0055 15.7151 13.0054 15.3608 13.0059 15.0065C13.0064 14.5542 13.0037 14.102 13.0002 13.6497C12.9979 13.3002 12.9977 12.9507 12.998 12.6012C12.9978 12.4346 12.997 12.2679 12.9954 12.1013C12.9803 10.2929 12.9803 10.2929 13.639 9.56513C14.2974 8.90935 15.233 9.00826 16.0994 9.00993ZM14.4515 10.6924C14.3169 10.9606 14.3494 11.2425 14.3484 11.5369C14.3478 11.606 14.3472 11.6752 14.3466 11.7464C14.3449 11.9757 14.3439 12.2051 14.343 12.4344C14.3426 12.5127 14.3423 12.5909 14.3419 12.6715C14.3401 13.0858 14.3388 13.5 14.338 13.9142C14.3371 14.3422 14.334 14.7701 14.3306 15.1981C14.3283 15.527 14.3275 15.856 14.3272 16.1849C14.3268 16.3427 14.3258 16.5005 14.3241 16.6582C14.322 16.8791 14.3221 17.0999 14.3227 17.3208C14.3216 17.3858 14.3205 17.4509 14.3193 17.518C14.3224 17.8311 14.3572 18.0136 14.5213 18.2835C14.7947 18.535 15.0558 18.5194 15.4097 18.5156C15.946 18.5156 16.2886 18.5557 16.6872 18.9378C16.8362 19.0905 16.9803 19.2467 17.1235 19.4048C17.1722 19.4575 17.2209 19.5103 17.271 19.5646C17.5016 19.8156 17.7259 20.0698 17.9421 20.3333C18.0044 20.4068 18.0668 20.4802 18.131 20.5559C18.1599 20.5559 18.1888 20.5559 18.2186 20.5559C18.219 20.5044 18.2193 20.4529 18.2197 20.3998C18.2226 20.1663 18.2288 19.9329 18.235 19.6994C18.2355 19.6183 18.2361 19.5373 18.2366 19.4538C18.2391 19.3758 18.2417 19.2979 18.2443 19.2176C18.2463 19.11 18.2463 19.11 18.2484 19.0002C18.3062 18.8102 18.3062 18.8102 18.4713 18.6692C18.8693 18.4929 19.2342 18.5142 19.665 18.5189C19.7577 18.5188 19.8503 18.5188 19.9457 18.5187C20.1466 18.5188 20.3475 18.5194 20.5483 18.5205C20.8661 18.5221 21.1838 18.5218 21.5015 18.5211C22.4048 18.5192 23.308 18.5201 24.2112 18.5234C24.7639 18.5253 25.3165 18.5247 25.8691 18.5225C26.0799 18.5222 26.2906 18.5229 26.5013 18.5246C26.7956 18.5268 27.0898 18.5259 27.3841 18.5243C27.4714 18.5258 27.5588 18.5273 27.6487 18.5288C28.1389 18.5249 28.1389 18.5249 28.5228 18.2385C28.6602 17.8969 28.6928 17.6061 28.6879 17.2437C28.6883 17.1763 28.6888 17.1088 28.6893 17.0392C28.6904 16.8174 28.689 16.5957 28.6874 16.3739C28.6874 16.2192 28.6875 16.0644 28.6878 15.9096C28.6879 15.5858 28.6868 15.2621 28.6848 14.9383C28.6823 14.5236 28.6825 14.109 28.6837 13.6944C28.6843 13.375 28.6836 13.0556 28.6825 12.7363C28.6821 12.5834 28.6821 12.4305 28.6824 12.2776C28.6827 12.0639 28.6812 11.8502 28.6793 11.6365C28.6797 11.5736 28.6801 11.5107 28.6805 11.4459C28.6748 11.0637 28.6178 10.8209 28.3811 10.5178C28.0739 10.3138 27.9507 10.321 27.5874 10.3199C27.4208 10.3188 27.4208 10.3188 27.2509 10.3176C27.1276 10.3177 27.0043 10.3178 26.881 10.3179C26.7514 10.3173 26.6217 10.3167 26.492 10.3161C26.1396 10.3145 25.7872 10.3141 25.4348 10.314C25.1406 10.3139 24.8465 10.3132 24.5524 10.3126C23.8584 10.3112 23.1645 10.3108 22.4706 10.3109C21.7546 10.311 21.0387 10.3091 20.3227 10.3064C19.7081 10.3041 19.0936 10.3032 18.479 10.3033C18.1119 10.3033 17.7448 10.3028 17.3777 10.301C17.0324 10.2993 16.6871 10.2993 16.3418 10.3005C16.2151 10.3007 16.0885 10.3003 15.9618 10.2993C15.7887 10.2979 15.6157 10.2989 15.4426 10.3001C15.3458 10.3 15.249 10.2999 15.1493 10.2998C14.8288 10.3534 14.6829 10.4697 14.4515 10.6924Z" fill="#FF7705"></path>
  <path d="M21.5144 29.0088C21.6125 29.0083 21.7105 29.0078 21.8116 29.0074C22.5299 29.0116 22.5299 29.0116 22.761 29.1276C22.9528 29.2928 22.9725 29.4342 22.9917 29.6385C22.8928 29.822 22.8505 29.8847 22.5824 29.9722C22.2292 29.9916 21.8751 29.9907 21.5208 29.993C21.4226 29.9949 21.3245 29.9969 21.2234 29.9989C20.5018 30.0031 20.5018 30.0031 20.1642 29.8499C19.9722 29.6514 19.9654 29.5352 20.0243 29.3049C20.38 28.9394 20.9189 29.0007 21.5144 29.0088Z" fill="#FF7705"></path>
  <path d="M21.7768 14.0586C21.9424 14.202 21.9645 14.2852 21.9917 14.5018C21.9649 14.7147 21.9341 14.7993 21.7768 14.9449C21.5845 15.0153 21.485 15.0156 21.2872 14.9607C21.14 14.8816 21.14 14.8816 21.0126 14.6917C20.9847 14.4741 20.9847 14.4741 21.0126 14.2485C21.2461 13.9672 21.4336 13.9575 21.7768 14.0586Z" fill="#FF7705"></path>
  <path d="M25.4914 14.045C25.8177 14.1526 25.8672 14.2304 25.9893 14.419C25.9972 14.618 25.9972 14.618 25.7917 14.7971C25.4573 14.9522 25.3119 15 24.8591 15C24.4986 14.9198 24.2863 14.8498 24.0529 14.6896C23.9495 14.5126 23.9849 14.4103 24.1003 14.236C24.5319 13.9714 24.8411 13.9648 25.4914 14.045Z" fill="#FF7705"></path>
  <path d="M17.7712 14.0554C17.8938 14.1231 17.8938 14.1231 17.9674 14.2466C18.0027 14.4752 18.016 14.6794 17.8898 14.8801C17.6717 15.0047 17.5139 15.029 17.2683 14.9678C17.1171 14.8841 17.1171 14.8841 17.0271 14.7765C16.966 14.5562 16.9904 14.4019 17.0516 14.1829C17.2905 13.9701 17.4675 13.9653 17.7712 14.0554Z" fill="#FF7705"></path>
</svg>
