<?xml version="1.0" encoding="UTF-8"?>
<svg xmlns="http://www.w3.org/2000/svg" width="48" height="48" viewBox="0 0 48 48" fill="none">
  <path d="M20.3854 3.02709C20.4561 3.02675 20.5268 3.02641 20.5997 3.02606C20.8358 3.02515 21.0719 3.0255 21.3081 3.02585C21.4777 3.02547 21.6473 3.02501 21.8169 3.02448C22.2772 3.0233 22.7374 3.02325 23.1977 3.02347C23.5821 3.02357 23.9665 3.02313 24.3509 3.02271C25.258 3.02173 26.1651 3.02169 27.0721 3.02223C28.0074 3.02276 28.9426 3.02167 29.8779 3.01979C30.6813 3.01823 31.4847 3.0177 32.2882 3.01799C32.7678 3.01815 33.2475 3.01792 33.7271 3.01669C34.1783 3.01558 34.6294 3.01575 35.0806 3.0169C35.2459 3.01711 35.4112 3.01687 35.5766 3.01614C35.8028 3.01521 36.0289 3.01593 36.2551 3.01705C36.3526 3.01607 36.3526 3.01607 36.452 3.01508C37.1079 3.02188 37.6945 3.22139 38.1733 3.68254C38.7303 4.30107 38.7244 5.04074 38.7182 5.83205C38.7185 5.95033 38.719 6.06861 38.7197 6.1869C38.7209 6.50597 38.7199 6.825 38.7184 7.14407C38.7172 7.47914 38.7178 7.81421 38.7181 8.14928C38.7183 8.7117 38.7172 9.27411 38.7151 9.83652C38.7127 10.4854 38.7126 11.1343 38.7136 11.7832C38.7146 12.4093 38.714 13.0354 38.7128 13.6615C38.7123 13.9271 38.7123 14.1927 38.7127 14.4583C38.7131 14.7714 38.7122 15.0845 38.7103 15.3976C38.7096 15.5664 38.7102 15.7351 38.7108 15.9039C38.7051 16.5626 38.6634 17.1025 38.2692 17.6538C38.2204 17.7007 38.1716 17.7475 38.1214 17.7958C38.0735 17.8437 38.0257 17.8917 37.9764 17.9411C37.4781 18.3056 37.0332 18.3813 36.4339 18.3686C36.3661 18.3682 36.2983 18.3679 36.2285 18.3675C36.0141 18.366 35.7998 18.3627 35.5855 18.3593C35.4393 18.358 35.293 18.3567 35.1468 18.3557C34.7903 18.3528 34.4338 18.3482 34.0772 18.3427C34.0791 18.4533 34.0809 18.5639 34.0829 18.6779C34.0893 19.0884 34.0933 19.499 34.0967 19.9095C34.0984 20.0872 34.1009 20.2648 34.1039 20.4425C34.1082 20.6979 34.1102 20.9532 34.1118 21.2087C34.1136 21.2881 34.1154 21.3675 34.1173 21.4493C34.1175 21.9977 34.1175 21.9977 33.9191 22.2819C33.6818 22.4362 33.4862 22.4649 33.2046 22.4495C32.8527 22.3737 32.6006 22.1674 32.3204 21.9504C32.256 21.9028 32.1916 21.8551 32.1253 21.8061C31.9892 21.7054 31.8537 21.604 31.7186 21.5021C31.3887 21.2543 31.0532 21.0145 30.7182 20.7736C30.5855 20.6775 30.4528 20.5814 30.3201 20.4853C29.8689 20.1595 29.4144 19.8386 28.9587 19.5191C28.9022 19.4795 28.8458 19.4398 28.7876 19.399C28.7316 19.361 28.6755 19.3231 28.6178 19.2839C28.4199 19.1383 28.4199 19.1383 28.2349 18.9608C27.4447 18.2582 26.6348 18.3381 25.6371 18.3551C25.4618 18.3554 25.2865 18.3552 25.1113 18.3548C24.6521 18.3543 24.1931 18.3576 23.734 18.3622C22.9985 18.3691 22.2629 18.3712 21.5273 18.371C21.2715 18.3717 21.0158 18.3748 20.76 18.3781C20.6023 18.3787 20.4447 18.3793 20.287 18.3797C20.1815 18.3821 20.1815 18.3821 20.0739 18.3845C19.4999 18.3827 19.0528 18.2104 18.6089 17.8441C18.551 17.7737 18.551 17.7737 18.4918 17.7018C18.4521 17.6558 18.4123 17.6098 18.3713 17.5623C17.9623 16.8915 17.9509 16.2756 17.9548 15.5082C17.9543 15.3938 17.9538 15.2795 17.9534 15.1616C17.9522 14.8497 17.9526 14.5378 17.9535 14.2258C17.9541 13.8982 17.9535 13.5706 17.9531 13.243C17.9526 12.6929 17.9533 12.1428 17.9545 11.5928C17.956 10.9584 17.9555 10.324 17.954 9.6896C17.9528 9.14336 17.9527 8.59712 17.9534 8.05088C17.9538 7.72533 17.9538 7.39978 17.9529 7.07423C17.952 6.71097 17.9533 6.34775 17.9548 5.9845C17.9542 5.87771 17.9537 5.77092 17.9531 5.6609C17.959 4.88055 18.0319 4.15644 18.6079 3.58051C19.1769 3.14751 19.6796 3.02348 20.3854 3.02709ZM19.4918 4.99485C19.4272 5.22759 19.4272 5.22759 19.4375 5.47853C19.4366 5.57458 19.4358 5.67062 19.4349 5.76957C19.4362 5.87406 19.4375 5.97854 19.4388 6.08619C19.4385 6.19691 19.4382 6.30763 19.4378 6.4217C19.4373 6.72473 19.4388 7.02763 19.4412 7.33065C19.4433 7.64795 19.443 7.96526 19.4431 8.28257C19.4435 8.8153 19.4456 9.348 19.4488 9.88072C19.4525 10.4965 19.454 11.1122 19.4543 11.728C19.4546 12.3839 19.4563 13.0398 19.4585 13.6957C19.459 13.8845 19.4593 14.0734 19.4596 14.2623C19.4602 14.6142 19.4624 14.9662 19.4647 15.3181C19.4648 15.4228 19.4649 15.5274 19.4649 15.6353C19.4658 15.731 19.4667 15.8268 19.4676 15.9255C19.468 16.0087 19.4684 16.0919 19.4688 16.1776C19.4932 16.4111 19.5424 16.5547 19.6686 16.7516C19.9558 16.8952 20.2718 16.8535 20.5874 16.8539C20.6641 16.8544 20.7409 16.8548 20.82 16.8553C20.9871 16.8562 21.1542 16.857 21.3213 16.8576C21.5858 16.8586 21.8503 16.8603 22.1149 16.8623C22.8672 16.8677 23.6195 16.8725 24.3718 16.8755C24.8316 16.8773 25.2915 16.8804 25.7514 16.8844C25.9266 16.8856 26.1018 16.8864 26.2771 16.8867C26.5225 16.8871 26.7679 16.8891 27.0134 16.8916C27.1217 16.8912 27.1217 16.8912 27.2322 16.8907C27.8146 16.8992 28.2106 17.089 28.6785 17.4335C28.7409 17.4791 28.8033 17.5247 28.8675 17.5716C28.9331 17.62 28.9987 17.6685 29.0663 17.7184C29.2078 17.8218 29.3494 17.9252 29.491 18.0285C29.5626 18.0808 29.6343 18.1332 29.7081 18.1871C30.1025 18.4732 30.5016 18.7526 30.9005 19.0325C31.3459 19.3457 31.7851 19.6662 32.2206 19.9932C32.3869 20.1269 32.3869 20.1269 32.5745 20.1106C32.5758 20.0326 32.5771 19.9546 32.5784 19.8742C32.5838 19.5834 32.5904 19.2927 32.5977 19.0019C32.6006 18.8763 32.6031 18.7507 32.6051 18.6251C32.6081 18.444 32.6127 18.263 32.6177 18.082C32.62 17.9732 32.6223 17.8644 32.6247 17.7524C32.6657 17.4371 32.7335 17.2662 32.9281 17.0168C33.1667 16.9372 33.3056 16.917 33.5505 16.9158C33.6219 16.9152 33.6933 16.9146 33.7668 16.9139C33.8436 16.9136 33.9204 16.9132 33.9996 16.9128C34.1622 16.9108 34.3249 16.9087 34.4876 16.9064C34.7441 16.9033 35.0005 16.9007 35.257 16.8996C35.5045 16.8982 35.752 16.8946 35.9995 16.8907C36.1145 16.891 36.1145 16.891 36.2317 16.8912C36.3392 16.8891 36.3392 16.8891 36.4489 16.8868C36.5117 16.8863 36.5745 16.8858 36.6392 16.8853C36.8991 16.8193 37.0019 16.6913 37.1711 16.4864C37.2241 16.2591 37.2241 16.2591 37.2166 16.0066C37.2183 15.8605 37.2183 15.8605 37.22 15.7114C37.2192 15.5518 37.2192 15.5518 37.2183 15.3889C37.219 15.2764 37.2198 15.164 37.2206 15.0482C37.2226 14.74 37.2223 14.432 37.2215 14.1239C37.2211 13.8666 37.2217 13.6094 37.2224 13.3521C37.2239 12.7453 37.2236 12.1385 37.2221 11.5317C37.2206 10.9056 37.222 10.2796 37.2248 9.65351C37.2272 9.11591 37.2278 8.57833 37.2271 8.04073C37.2267 7.71967 37.2268 7.39864 37.2287 7.07759C37.2306 6.71969 37.2289 6.36189 37.2269 6.00399C37.2279 5.89753 37.229 5.79108 37.23 5.6814C37.2289 5.58399 37.2278 5.48658 37.2267 5.38622C37.2266 5.30161 37.2265 5.217 37.2265 5.12982C37.1857 4.89095 37.1857 4.89095 36.9896 4.70252C36.6673 4.51732 36.4031 4.50324 36.0413 4.50738C35.9727 4.50676 35.904 4.50615 35.8333 4.50552C35.6036 4.5039 35.3739 4.50481 35.1442 4.50572C34.9794 4.50509 34.8146 4.50432 34.6498 4.50341C34.2023 4.50142 33.7549 4.50168 33.3074 4.50246C32.934 4.50292 32.5605 4.50227 32.187 4.50163C31.3061 4.50012 30.4252 4.50044 29.5443 4.50192C28.6352 4.50341 27.7262 4.50201 26.817 4.49916C26.0367 4.4968 25.2563 4.49615 24.4759 4.4969C24.0098 4.49734 23.5436 4.49714 23.0775 4.49533C22.6392 4.49371 22.201 4.49423 21.7628 4.49641C21.6019 4.49685 21.441 4.49654 21.2801 4.49542C21.0605 4.49402 20.8412 4.49534 20.6216 4.49734C20.5578 4.49629 20.4941 4.49525 20.4284 4.49417C19.9682 4.50272 19.7621 4.62575 19.4918 4.99485Z" fill="#FF7705"></path>
  <path d="M10.5634 30.945C11.2953 31.559 11.9401 32.3011 12.5265 33.0534C12.9602 33.437 13.5796 33.5387 14.129 33.6625C14.2885 33.6998 14.4481 33.7372 14.6076 33.7747C14.8561 33.8324 15.1047 33.8896 15.3535 33.9462C15.5957 34.0016 15.8375 34.0585 16.0792 34.1155C16.1525 34.1317 16.2257 34.1479 16.3012 34.1646C17.112 34.358 17.8255 34.7362 18.3423 35.4035C18.7494 36.0773 18.9666 36.7332 18.8727 37.525C18.709 38.0479 18.4317 38.3631 17.9887 38.6741C17.2604 38.9169 16.3616 38.7775 15.602 38.7625C15.5349 38.7613 15.4677 38.7601 15.3985 38.7588C14.9491 38.7503 14.5001 38.7375 14.051 38.7207C13.9008 38.7155 13.7507 38.7112 13.6005 38.708C12.5464 38.6839 11.8252 38.5125 10.917 37.967C10.6526 37.8183 10.3871 37.6716 10.1215 37.525C10.1211 37.6104 10.1208 37.6958 10.1205 37.7838C10.1172 38.5889 10.1121 39.3939 10.1052 40.199C10.1017 40.6129 10.0989 41.0268 10.0975 41.4407C10.0962 41.8402 10.0931 42.2397 10.0889 42.6392C10.0876 42.7915 10.0869 42.9439 10.0868 43.0962C10.0866 43.3098 10.0842 43.5232 10.0813 43.7368C10.082 43.8311 10.082 43.8311 10.0827 43.9273C10.0762 44.2373 10.0375 44.4128 9.87225 44.6781C9.60626 44.9317 9.42411 44.9503 9.06071 44.9503C8.80015 44.8313 8.65914 44.7659 8.53033 44.5083C8.51974 44.2382 8.51455 43.9701 8.51328 43.7C8.51219 43.5743 8.51219 43.5743 8.51109 43.446C8.50889 43.1679 8.50743 42.8897 8.50616 42.6116C8.50569 42.5167 8.50521 42.4218 8.50473 42.3241C8.50237 41.8221 8.50065 41.3201 8.49938 40.8181C8.49791 40.299 8.49395 39.7801 8.48945 39.2611C8.48647 38.8624 8.48545 38.4638 8.48495 38.0651C8.48436 37.8738 8.48301 37.6824 8.48089 37.4911C8.47811 37.2234 8.47809 36.9558 8.47875 36.688C8.4773 36.6089 8.47585 36.5298 8.47435 36.4482C8.47827 36.0577 8.49278 35.8949 8.73577 35.5746C9.04868 35.3482 9.21149 35.3496 9.59108 35.4035C9.88152 35.521 9.88152 35.521 10.1774 35.6842C10.2304 35.713 10.2834 35.7418 10.338 35.7715C10.506 35.8631 10.6728 35.9564 10.8397 36.0499C10.9523 36.1116 11.065 36.1732 11.1777 36.2348C12.0102 36.6908 12.0102 36.6908 12.281 36.8777C12.5743 37.0286 12.8459 37.0457 13.1691 37.0592C13.2327 37.0627 13.2963 37.0663 13.3618 37.0699C13.5671 37.081 13.7724 37.0904 13.9778 37.0996C14.1182 37.1067 14.2586 37.1139 14.399 37.1211C15.36 37.1688 16.3194 37.1945 17.2816 37.1714C17.2169 36.7251 17.1412 36.4575 16.8396 36.1106C16.298 35.7963 15.7053 35.6597 15.0986 35.5316C14.9187 35.4913 14.7388 35.451 14.5589 35.4105C14.2788 35.3485 13.9986 35.2872 13.7181 35.2274C13.4448 35.1687 13.1723 35.1073 12.8997 35.0454C12.8165 35.0284 12.7332 35.0114 12.6474 34.994C12.0591 34.8575 11.7421 34.6287 11.359 34.1659C11.3036 34.1052 11.2483 34.0444 11.1912 33.9819C11.1481 33.9314 11.1051 33.8809 11.0607 33.8289C11.0097 33.7701 10.9588 33.7113 10.9063 33.6507C10.8241 33.5557 10.8241 33.5557 10.7402 33.4587C9.85092 32.4359 8.97143 31.5098 7.53587 31.4045C6.28657 31.3798 5.3537 31.6962 4.40332 32.514C3.6267 33.4166 3.25916 34.3311 3.27089 35.5236C3.2704 35.6187 3.26991 35.7138 3.26941 35.8119C3.26859 36.0165 3.26857 36.2212 3.26929 36.4259C3.27041 36.7499 3.2694 37.0739 3.26787 37.3979C3.26552 37.9683 3.26501 38.5386 3.26514 39.109C3.26533 40.0237 3.26409 40.9383 3.26022 41.853C3.25935 42.1721 3.26012 42.4912 3.26099 42.8104C3.26045 43.0056 3.25984 43.2008 3.25915 43.396C3.25983 43.4847 3.26051 43.5733 3.26122 43.6646C3.25565 44.4263 3.25565 44.4263 2.96135 44.7735C2.65035 44.9808 2.53194 45.0015 2.16578 44.9503C1.90654 44.7701 1.74781 44.626 1.6831 44.3088C1.6667 44.0531 1.66512 43.8008 1.66801 43.5446C1.66738 43.4474 1.66675 43.3501 1.6661 43.25C1.6646 42.9282 1.66632 42.6066 1.66821 42.2849C1.66813 42.0606 1.66792 41.8363 1.66756 41.612C1.66731 41.1412 1.66856 40.6705 1.67103 40.1997C1.67385 39.6585 1.67387 39.1173 1.67234 38.576C1.67093 38.0528 1.67155 37.5297 1.67304 37.0065C1.6735 36.7852 1.67346 36.5639 1.67291 36.3427C1.6698 34.3581 1.88218 32.7898 3.32771 31.3134C3.97859 30.691 4.6775 30.3088 5.52485 30.0113C5.618 29.9785 5.618 29.9785 5.71304 29.945C7.3597 29.4809 9.22634 29.9341 10.5634 30.945Z" fill="#FF7705"></path>
  <path d="M44.1259 30.8278C45.2491 31.7314 46.0174 32.9103 46.2761 34.3427C46.3018 34.6783 46.303 35.0127 46.3032 35.3491C46.304 35.4477 46.3047 35.5462 46.3055 35.6478C46.3076 35.9718 46.3084 36.2959 46.3089 36.62C46.3097 36.8458 46.3105 37.0716 46.3114 37.2975C46.3128 37.77 46.3135 38.2425 46.3138 38.715C46.3141 39.2606 46.3167 39.8062 46.3204 40.3518C46.3239 40.878 46.3249 41.4041 46.325 41.9303C46.3253 42.1537 46.3264 42.3772 46.3283 42.6006C46.3306 42.9125 46.3302 43.2243 46.3291 43.5362C46.3311 43.6747 46.3311 43.6747 46.3331 43.816C46.3288 44.2374 46.3261 44.4412 46.0684 44.7869C45.8342 44.9503 45.8342 44.9503 45.569 45C45.2435 44.939 45.0944 44.8293 44.8618 44.5967C44.7783 44.3463 44.7622 44.193 44.7618 43.9337C44.7613 43.8114 44.7613 43.8114 44.7607 43.6866C44.7608 43.5527 44.7608 43.5527 44.7609 43.4161C44.7606 43.3219 44.7603 43.2278 44.7599 43.1307C44.7593 42.9258 44.7588 42.7209 44.7585 42.516C44.7579 42.1912 44.7565 41.8664 44.7548 41.5416C44.7502 40.6179 44.746 39.6942 44.7446 38.7704C44.7437 38.2056 44.7411 37.6407 44.7374 37.0758C44.7363 36.861 44.7359 36.6462 44.7361 36.4313C44.7363 36.1297 44.7343 35.8281 44.7319 35.5264C44.7324 35.4386 44.733 35.3507 44.7336 35.2602C44.7194 34.1826 44.2907 33.3206 43.5966 32.514C42.6718 31.7182 41.7324 31.354 40.5021 31.3918C39.0135 31.5466 38.0675 32.468 37.1216 33.5471C37.0504 33.6267 37.0504 33.6267 36.9779 33.7078C36.8136 33.8963 36.8136 33.8963 36.6905 34.1088C36.0335 35.0536 34.9017 35.1263 33.8454 35.3482C33.5479 35.4133 33.2507 35.4794 32.9537 35.5465C32.7697 35.5878 32.5854 35.6278 32.4008 35.6663C31.8552 35.7854 31.2929 35.909 30.9373 36.3758C30.9124 36.4342 30.8876 36.4925 30.862 36.5526C30.8358 36.611 30.8096 36.6693 30.7826 36.7294C30.7189 36.9046 30.6739 37.0788 30.63 37.2598C31.1519 37.2365 31.6738 37.2129 32.1957 37.1891C32.3728 37.1811 32.5499 37.1731 32.727 37.1652C33.1488 37.1464 33.5705 37.1266 33.9921 37.1043C34.2441 37.0911 34.4934 37.0825 34.7458 37.0803C35.5237 37.0603 36.1101 36.7193 36.768 36.3427C36.8786 36.2813 36.9892 36.22 37.1 36.159C37.472 35.9529 37.8434 35.7469 38.2027 35.5193C38.4979 35.3534 38.6948 35.3559 39.0276 35.4035C39.2718 35.5799 39.4413 35.7206 39.5099 36.0234C39.526 36.2452 39.5273 36.4629 39.524 36.6852C39.5245 36.7692 39.525 36.8532 39.5255 36.9398C39.5265 37.2169 39.5244 37.494 39.5221 37.7712C39.522 37.9639 39.522 38.1567 39.5221 38.3494C39.522 38.7531 39.5203 39.1568 39.5175 39.5605C39.514 40.0783 39.5136 40.5959 39.5143 41.1137C39.5146 41.5116 39.5135 41.9095 39.512 42.3073C39.5114 42.4983 39.5111 42.6892 39.5112 42.8801C39.511 43.1467 39.5091 43.4133 39.5067 43.68C39.507 43.759 39.5073 43.838 39.5075 43.9195C39.5002 44.4533 39.5002 44.4533 39.345 44.7327C39.1315 44.9289 38.9558 44.9425 38.6744 44.9658C38.389 44.9408 38.2462 44.7992 38.0553 44.5967C37.9227 44.3315 37.951 44.0579 37.9487 43.7669C37.9479 43.6996 37.947 43.6323 37.9461 43.563C37.9433 43.3402 37.9411 43.1173 37.9389 42.8944C37.9371 42.74 37.9352 42.5857 37.9333 42.4314C37.9285 42.0248 37.9241 41.6182 37.9198 41.2115C37.9154 40.7968 37.9105 40.382 37.9056 39.9673C37.8961 39.1532 37.8871 38.3391 37.8785 37.525C37.8002 37.5685 37.8002 37.5685 37.7204 37.6128C37.4841 37.744 37.2476 37.8748 37.0111 38.0056C36.929 38.0513 36.8469 38.0969 36.7623 38.1439C36.6834 38.1875 36.6045 38.2311 36.5232 38.276C36.4505 38.3163 36.3778 38.3566 36.3029 38.398C35.9212 38.595 35.5603 38.6117 35.1399 38.633C35.0694 38.6369 34.999 38.6407 34.9264 38.6446C34.6968 38.6568 34.4672 38.6684 34.2377 38.6797C34.1599 38.6835 34.0822 38.6874 34.0021 38.6913C33.0553 38.7375 32.1082 38.7827 31.1604 38.7957C31.0778 38.798 30.9953 38.8003 30.9103 38.8026C30.387 38.8041 30.0871 38.7118 29.6576 38.4089C29.295 38.0268 29.1208 37.6802 29.0996 37.1548C29.1248 36.2637 29.4622 35.626 30.0637 34.9891C30.6825 34.4054 31.4726 34.2326 32.2798 34.0482C32.3578 34.0303 32.4357 34.0124 32.5161 33.994C32.8426 33.9198 33.1692 33.8461 33.4966 33.7753C34.7685 33.5323 34.7685 33.5323 35.757 32.7516C35.83 32.676 35.903 32.6005 35.9783 32.5226C36.0384 32.4542 36.0984 32.3857 36.1603 32.3151C36.227 32.2399 36.2938 32.1647 36.3626 32.0872C36.48 31.9515 36.5958 31.8146 36.7093 31.6756C38.4914 29.5171 41.8877 29.1754 44.1259 30.8278Z" fill="#FF7705"></path>
  <path d="M13.0013 6.54784C13.1075 6.54738 13.2137 6.54691 13.3231 6.54644C13.5468 6.54587 13.7705 6.54599 13.9942 6.54674C14.337 6.54749 14.6797 6.54494 15.0225 6.54214C15.2401 6.542 15.4577 6.54205 15.6753 6.54232C15.8291 6.54083 15.8291 6.54083 15.9861 6.53931C16.0814 6.54014 16.1767 6.54097 16.2749 6.54182C16.3586 6.54183 16.4424 6.54185 16.5286 6.54186C16.8198 6.59973 16.9231 6.70944 17.1051 6.93975C17.1935 7.24362 17.1935 7.24362 17.1935 7.55853C17.0374 7.80621 16.9256 7.95766 16.6632 8.08891C16.5197 8.09806 16.3758 8.10181 16.232 8.10285C16.0975 8.10421 16.0975 8.10421 15.9603 8.1056C15.8146 8.10657 15.8146 8.10657 15.6659 8.10755C15.4619 8.11003 15.2578 8.11257 15.0537 8.11515C14.7307 8.11881 14.4077 8.12207 14.0847 8.12439C13.7738 8.12682 13.463 8.13087 13.1522 8.13518C13.0064 8.13561 13.0064 8.13561 12.8578 8.13605C12.7681 8.13751 12.6784 8.13898 12.586 8.14049C12.5069 8.1412 12.4277 8.14192 12.3462 8.14265C12.2515 8.15981 12.2515 8.15981 12.1549 8.1773C11.9649 8.46238 11.956 8.53705 11.9557 8.86524C11.9552 8.95224 11.9547 9.03924 11.9542 9.12888C11.9545 9.22422 11.9549 9.31956 11.9553 9.41779C11.955 9.51828 11.9546 9.61877 11.9543 9.7223C11.9535 10.0554 11.9541 10.3884 11.9547 10.7215C11.9545 10.9523 11.9544 11.1832 11.9541 11.4141C11.9538 11.8983 11.9542 12.3825 11.9551 12.8667C11.9561 13.4266 11.9557 13.9865 11.9548 14.5464C11.9539 15.0849 11.954 15.6234 11.9545 16.1619C11.9546 16.3911 11.9545 16.6203 11.954 16.8496C11.9536 17.1696 11.9543 17.4896 11.9553 17.8096C11.9549 17.9049 11.9545 18.0003 11.9542 18.0985C11.9547 18.1855 11.9552 18.2725 11.9557 18.3621C11.9558 18.4757 11.9558 18.4757 11.9559 18.5915C11.9662 18.8107 11.9662 18.8107 12.1549 19.0501C12.4064 19.0767 12.6397 19.0869 12.8915 19.086C12.9647 19.0869 13.038 19.0879 13.1135 19.0889C13.3483 19.0919 13.5831 19.0933 13.8179 19.0943C14.126 19.0956 14.4341 19.0985 14.7423 19.1026C14.8482 19.1022 14.8482 19.1022 14.9563 19.1017C15.3613 19.1072 15.6263 19.1422 15.956 19.4037C16.0793 19.6504 16.0637 19.8635 16.0723 20.1391C16.076 20.2502 16.0798 20.3613 16.0836 20.4758C16.087 20.5924 16.0905 20.7089 16.0941 20.829C16.0979 20.9475 16.1018 21.0659 16.1057 21.1844C16.1151 21.4747 16.1241 21.7651 16.1328 22.0555C16.1731 22.0263 16.2134 21.997 16.255 21.9669C17.1867 21.2914 18.122 20.6216 19.0637 19.9601C19.2129 19.8553 19.3619 19.7502 19.5108 19.645C19.5903 19.5891 19.6697 19.5331 19.7515 19.4755C19.8179 19.4286 19.8844 19.3818 19.9528 19.3336C20.2883 19.1067 20.5806 19.1248 20.974 19.1242C21.0448 19.1238 21.1157 19.1233 21.1887 19.1229C21.4239 19.1216 21.659 19.121 21.8941 19.1205C22.0573 19.12 22.2204 19.1195 22.3836 19.119C22.7261 19.1181 23.0686 19.1175 23.4111 19.1172C23.8499 19.1167 24.2886 19.1146 24.7273 19.1121C25.0646 19.1105 25.4018 19.11 25.739 19.1099C25.9008 19.1096 26.0625 19.1089 26.2242 19.1077C26.4506 19.1062 26.677 19.1064 26.9034 19.107C27.0035 19.1057 27.0035 19.1057 27.1057 19.1045C27.4999 19.1076 27.7532 19.1592 28.0663 19.4037C28.2046 19.6803 28.2163 19.988 28.1547 20.2876C28.017 20.474 28.017 20.474 27.8011 20.6412C27.5666 20.671 27.3704 20.6796 27.1371 20.6712C27.0706 20.6703 27.0041 20.6694 26.9356 20.6684C26.7913 20.6663 26.647 20.6634 26.5027 20.6598C26.2727 20.6546 26.0429 20.6523 25.8129 20.6508C25.1589 20.6466 24.5051 20.64 23.8514 20.6246C21.5648 20.4853 21.5648 20.4853 19.578 21.4327C19.4735 21.5339 19.3708 21.637 19.2707 21.7425C19.094 21.9243 18.897 22.0632 18.6876 22.2051C18.6286 22.2478 18.5696 22.2906 18.5088 22.3346C17.9159 22.7638 17.3212 23.1904 16.7239 23.6135C16.6621 23.6575 16.6003 23.7014 16.5366 23.7467C15.5732 24.4269 15.5732 24.4269 15.072 24.3539C14.6694 24.1033 14.6694 24.1033 14.5743 23.8543C14.5272 23.5546 14.5308 23.2571 14.533 22.9547C14.5331 22.8885 14.5333 22.8223 14.5334 22.7541C14.5339 22.5433 14.535 22.3326 14.5361 22.1218C14.5366 21.9787 14.537 21.8355 14.5373 21.6923C14.5383 21.3419 14.5398 20.9916 14.5416 20.6412C14.4659 20.6435 14.3902 20.6458 14.3122 20.6482C14.0272 20.6558 13.7423 20.6613 13.4572 20.6655C13.3346 20.6677 13.212 20.6707 13.0894 20.6745C12.3106 20.6984 11.6572 20.6725 11.0058 20.1992C10.8065 19.9976 10.8065 19.9976 10.6909 19.8014C10.6506 19.7367 10.6104 19.672 10.569 19.6053C10.4033 19.2483 10.3759 18.8976 10.3746 18.5078C10.3741 18.4184 10.3736 18.3289 10.3731 18.2367C10.373 18.1396 10.3729 18.0424 10.3728 17.9423C10.3723 17.8392 10.3719 17.736 10.3714 17.6298C10.3701 17.2888 10.3695 16.9478 10.369 16.6067C10.3687 16.4294 10.3683 16.2522 10.3679 16.0749C10.3669 15.5809 10.3662 15.0869 10.3659 14.5929C10.3655 13.9557 10.3639 13.3184 10.3614 12.6812C10.3595 12.1875 10.3586 11.6938 10.3585 11.2001C10.3584 10.9058 10.3577 10.6115 10.3563 10.3172C10.3548 9.98838 10.3549 9.65964 10.3555 9.33086C10.3543 9.18617 10.3543 9.18617 10.353 9.03856C10.3565 8.39718 10.4216 7.80692 10.7917 7.26641C10.8405 7.2206 10.8892 7.17479 10.9395 7.1276C11.0113 7.05683 11.0113 7.05683 11.0845 6.98464C11.6989 6.5455 12.2667 6.54597 13.0013 6.54784Z" fill="#FF7705"></path>
  <path d="M39.9928 20.098C41.2848 20.039 42.4406 20.513 43.4182 21.328C44.2131 22.0935 44.7568 23.1401 44.7994 24.2489C44.8011 24.3982 44.8014 24.5477 44.8004 24.697C44.7999 24.7753 44.7994 24.8536 44.7989 24.9342C44.7772 26.1027 44.3369 27.1333 43.5318 27.9929C42.5536 28.9107 41.3553 29.3411 40.0236 29.323C38.7295 29.2412 37.6238 28.716 36.7422 27.7657C35.9217 26.7785 35.5778 25.6209 35.6338 24.3455C35.7673 22.9994 36.4192 21.8794 37.4469 21.0141C38.1974 20.4761 39.0785 20.1703 39.9928 20.098ZM37.8779 22.675C37.2829 23.4654 37.0735 24.2556 37.1707 25.2385C37.3634 26.0956 37.8101 26.7912 38.5243 27.3047C39.2442 27.7448 40.0054 27.9183 40.8364 27.7605C41.7862 27.5143 42.5248 26.9436 43.0332 26.1072C43.4007 25.3414 43.4173 24.3273 43.143 23.5258C42.7423 22.692 42.0983 22.1102 41.2369 21.791C40.0076 21.3716 38.7636 21.7412 37.8779 22.675Z" fill="#FF7705"></path>
  <path d="M10.7324 21.178C11.4122 21.8057 11.8177 22.4276 12.1547 23.2933C12.1903 23.3844 12.1903 23.3844 12.2265 23.4773C12.5679 24.5653 12.335 25.8245 11.8785 26.8402C11.2861 27.9467 10.3085 28.6966 9.14923 29.1275C7.83222 29.524 6.53088 29.2978 5.3323 28.661C4.2785 28.0173 3.5813 27.0275 3.26327 25.8402C3.03987 24.3228 3.29648 23.0761 4.13412 21.7964C4.85175 20.8605 5.96477 20.3617 7.08849 20.1331C8.41814 20.0328 9.68826 20.2981 10.7324 21.178ZM5.21594 22.9218C4.74417 23.6129 4.57674 24.3633 4.69626 25.1828C4.86324 25.9812 5.21403 26.69 5.87856 27.1827C6.70864 27.67 7.47553 27.9565 8.43619 27.7442C9.32563 27.4791 9.97093 27.0364 10.4558 26.2377C10.8481 25.4947 10.9584 24.7488 10.7708 23.9214C10.53 23.1793 10.0908 22.4934 9.42754 22.0613C7.88153 21.2967 6.31774 21.5822 5.21594 22.9218Z" fill="#FF7705"></path>
  <path d="M13.2895 39.1601C13.3805 39.1593 13.3805 39.1593 13.4734 39.1584C13.6767 39.157 13.88 39.1581 14.0833 39.1592C14.2291 39.1588 14.3749 39.1581 14.5207 39.1574C14.9166 39.1558 15.3125 39.1564 15.7085 39.1575C16.1227 39.1584 16.5368 39.1576 16.951 39.157C17.6466 39.1564 18.3421 39.1572 19.0376 39.1589C19.8421 39.1608 20.6464 39.1602 21.4509 39.1583C22.1412 39.1566 22.8316 39.1564 23.5219 39.1573C23.9344 39.1579 24.3468 39.158 24.7593 39.1568C25.147 39.1558 25.5347 39.1565 25.9225 39.1585C26.0649 39.159 26.2073 39.1589 26.3497 39.1581C26.5439 39.1571 26.738 39.1583 26.9322 39.1601C27.0953 39.1603 27.0953 39.1603 27.2617 39.1605C27.5885 39.2135 27.6902 39.2997 27.8897 39.5586C28.0076 39.8573 27.9865 39.9767 27.8787 40.2823C27.6849 40.573 27.5991 40.6093 27.2709 40.7077C26.9955 40.73 26.9955 40.73 26.6805 40.7302C26.5932 40.7306 26.5932 40.7306 26.5042 40.731C26.3099 40.7317 26.1156 40.7312 25.9213 40.7306C25.7818 40.7309 25.6422 40.7312 25.5027 40.7316C25.1241 40.7324 24.7455 40.732 24.3669 40.7315C23.9705 40.731 23.5742 40.7315 23.1779 40.7317C22.5124 40.7321 21.8469 40.7316 21.1814 40.7308C20.4121 40.7298 19.6428 40.7301 18.8735 40.7311C18.2128 40.7319 17.5522 40.732 16.8916 40.7316C16.497 40.7313 16.1025 40.7312 15.708 40.7318C15.3371 40.7323 14.9662 40.732 14.5953 40.731C14.4592 40.7307 14.3231 40.7308 14.187 40.7312C14.0012 40.7317 13.8154 40.7311 13.6296 40.7302C13.4736 40.7301 13.4736 40.7301 13.3145 40.73C12.975 40.7026 12.7246 40.6101 12.4369 40.4315C12.2959 40.2088 12.2956 39.9975 12.2881 39.7385C12.4165 39.2118 12.8109 39.1607 13.2895 39.1601Z" fill="#FF7705"></path>
  <path d="M22.2448 8.7406C22.4121 8.73892 22.4121 8.73892 22.5828 8.73721C22.7062 8.73821 22.8296 8.73926 22.953 8.74035C23.0831 8.73989 23.2132 8.73925 23.3434 8.73843C23.6966 8.73679 24.0498 8.73794 24.403 8.73967C24.7726 8.74112 25.1421 8.74034 25.5117 8.73989C26.1324 8.73949 26.753 8.7409 27.3736 8.74337C28.0913 8.7462 28.8089 8.7462 29.5265 8.74467C30.2168 8.74327 30.907 8.74387 31.5972 8.74538C31.891 8.74598 32.1848 8.74589 32.4786 8.74524C32.8246 8.74456 33.1705 8.74563 33.5164 8.74805C33.6434 8.74866 33.7704 8.74867 33.8974 8.74803C34.0707 8.74727 34.244 8.74889 34.4173 8.75064C34.5627 8.75101 34.5627 8.75101 34.7112 8.75139C35.019 8.80658 35.1233 8.90717 35.3144 9.14972C35.3787 9.392 35.3651 9.61205 35.3144 9.85689C35.1192 10.1193 35.0062 10.1953 34.6956 10.2989C34.525 10.3075 34.3542 10.3108 34.1834 10.3113C34.0766 10.3118 33.9698 10.3123 33.8597 10.3128C33.7411 10.3129 33.6226 10.313 33.504 10.3131C33.3793 10.3135 33.2545 10.314 33.1298 10.3144C32.7908 10.3156 32.4519 10.3162 32.1129 10.3166C31.9011 10.3168 31.6894 10.3172 31.4776 10.3176C30.8151 10.3188 30.1526 10.3196 29.49 10.32C28.7252 10.3204 27.9603 10.3219 27.1954 10.3245C26.6042 10.3264 26.013 10.3273 25.4218 10.3274C25.0687 10.3275 24.7156 10.328 24.3625 10.3296C24.0303 10.3311 23.6982 10.3313 23.366 10.3305C23.2442 10.3304 23.1224 10.3308 23.0005 10.3317C22.8341 10.3328 22.6676 10.3321 22.5011 10.3314C22.408 10.3315 22.3149 10.3316 22.2189 10.3317C21.8428 10.2828 21.6122 10.1214 21.3477 9.85689C21.3079 9.50502 21.3065 9.30585 21.4926 9.00022C21.7577 8.74095 21.8785 8.7408 22.2448 8.7406Z" fill="#FF7705"></path>
  <path d="M22.607 11.9653C22.72 11.9648 22.72 11.9648 22.8353 11.9644C23.0851 11.9635 23.335 11.9633 23.5849 11.9633C23.7582 11.963 23.9315 11.9627 24.1048 11.9624C24.4685 11.9618 24.8322 11.9617 25.1959 11.9617C25.6622 11.9617 26.1284 11.9605 26.5947 11.959C26.9528 11.958 27.3109 11.9578 27.669 11.9579C27.8409 11.9578 28.0128 11.9574 28.1847 11.9567C28.4251 11.9558 28.6655 11.9561 28.9059 11.9566C28.9771 11.9561 29.0483 11.9556 29.1216 11.9551C29.7441 11.9586 29.7441 11.9586 30.0109 12.1549C30.2319 12.4864 30.2351 12.6463 30.1877 13.0389C30.0136 13.275 29.8735 13.4495 29.5793 13.5216C29.3757 13.5384 29.1765 13.5406 28.9723 13.538C28.8568 13.5392 28.8568 13.5392 28.7391 13.5404C28.4853 13.5423 28.2316 13.541 27.9778 13.5395C27.8011 13.5398 27.6244 13.5403 27.4478 13.5408C27.0777 13.5415 26.7077 13.5405 26.3376 13.5385C25.8635 13.5359 25.3895 13.5374 24.9153 13.54C24.5506 13.5416 24.1858 13.5411 23.821 13.54C23.6462 13.5397 23.4714 13.5401 23.2966 13.5411C23.0522 13.5422 22.8079 13.5405 22.5635 13.538C22.4554 13.5394 22.4554 13.5394 22.345 13.5407C21.9725 13.5338 21.8291 13.5109 21.5238 13.276C21.3481 13.0389 21.3481 13.0389 21.2983 12.7239C21.355 12.3776 21.4272 12.2764 21.7016 12.0665C21.9856 11.9245 22.295 11.9651 22.607 11.9653Z" fill="#FF7705"></path>
  <path d="M32.5745 39.1496C32.6516 39.1494 32.7288 39.1491 32.8083 39.1489C32.9711 39.149 33.134 39.1502 33.2969 39.1524C33.546 39.1554 33.7949 39.1542 34.0441 39.1525C34.2025 39.1531 34.3609 39.154 34.5192 39.1551C34.5936 39.1547 34.668 39.1542 34.7447 39.1538C35.2605 39.1641 35.2605 39.1641 35.5384 39.374C35.719 39.6306 35.7188 39.7928 35.7029 40.0978C35.649 40.3603 35.5309 40.4695 35.3148 40.6195C34.8232 40.7903 34.265 40.7243 33.7503 40.7243C33.5534 40.7245 33.3565 40.7261 33.1596 40.7278C33.0338 40.728 32.9079 40.7282 32.782 40.7283C32.6111 40.7288 32.6111 40.7288 32.4368 40.7294C32.0796 40.7042 31.828 40.6212 31.5303 40.4261C31.3573 40.1621 31.3883 39.9538 31.4254 39.6471C31.7115 39.1222 32.0305 39.141 32.5745 39.1496Z" fill="#FF7705"></path>
  <path d="M31.5907 11.9512C31.7518 11.949 31.7518 11.949 31.916 11.9467C32.24 11.9809 32.4051 12.0488 32.6625 12.244C32.8013 12.5215 32.7821 12.7336 32.7509 13.0396C32.5062 13.3662 32.376 13.4706 31.9688 13.5372C31.8446 13.5375 31.7204 13.5355 31.5963 13.5313C31.5338 13.5323 31.4713 13.5332 31.4069 13.5342C31.1007 13.5299 30.9254 13.5049 30.6792 13.3179C30.4987 13.0698 30.4589 12.904 30.4526 12.5976C30.7067 12.0388 31.0017 11.9531 31.5907 11.9512Z" fill="#FF7705"></path>
  <path d="M29.5686 39.1605C29.6315 39.1591 29.6944 39.1578 29.7592 39.1563C30.0639 39.1586 30.2446 39.1822 30.494 39.3621C30.6763 39.6264 30.6801 39.7852 30.6639 40.0973C30.61 40.3598 30.4918 40.469 30.2758 40.619C29.7878 40.7711 29.3016 40.771 28.8227 40.5969C28.5841 40.434 28.4909 40.3666 28.4194 40.0886C28.432 39.7879 28.4685 39.6128 28.6453 39.3677C28.9431 39.1431 29.2105 39.1527 29.5686 39.1605Z" fill="#FF7705"></path>
</svg>
