<?xml version="1.0" encoding="UTF-8"?>
<svg xmlns="http://www.w3.org/2000/svg" width="48" height="48" viewBox="0 0 48 48" fill="none">
  <path d="M8.18105 3.94376C8.32312 3.94358 8.4652 3.94332 8.60728 3.943C8.99666 3.94233 9.38603 3.94266 9.77541 3.94316C10.1957 3.94353 10.6161 3.94296 11.0364 3.94252C11.8594 3.9418 12.6824 3.94195 13.5055 3.94242C14.1744 3.94279 14.8433 3.94284 15.5122 3.94266C15.6074 3.94264 15.7026 3.94261 15.8007 3.94259C15.9942 3.94253 16.1876 3.94248 16.381 3.94243C18.1946 3.94197 20.0083 3.9425 21.8219 3.94337C23.378 3.94409 24.9341 3.94396 26.4901 3.94322C28.2973 3.94235 30.1045 3.94201 31.9116 3.94251C32.1043 3.94256 32.2971 3.94261 32.4898 3.94266C32.5846 3.94269 32.6794 3.94271 32.7771 3.94274C33.4452 3.94288 34.1133 3.94264 34.7813 3.94226C35.5955 3.94181 36.4097 3.94193 37.2239 3.94279C37.6393 3.94321 38.0547 3.94338 38.4701 3.94285C38.8505 3.94236 39.2308 3.94263 39.6111 3.94349C39.7486 3.94367 39.8861 3.94358 40.0236 3.94319C41.2572 3.93994 42.2126 4.05132 43.1457 4.9234C43.9041 5.71367 43.9936 6.68278 43.9884 7.73635C43.9888 7.84568 43.9892 7.95501 43.9898 8.06434C43.9909 8.36245 43.9906 8.66055 43.99 8.95867C43.9896 9.28109 43.9906 9.6035 43.9915 9.92591C43.9928 10.5567 43.9929 11.1874 43.9925 11.8181C43.9922 12.331 43.9923 12.8439 43.9927 13.3568C43.9928 13.43 43.9928 13.5031 43.9929 13.5784C43.993 13.727 43.9931 13.8756 43.9933 14.0242C43.9944 15.4161 43.9939 16.808 43.993 18.1999C43.9922 19.4718 43.9932 20.7437 43.9952 22.0157C43.9972 23.3234 43.9979 24.6311 43.9974 25.9388C43.9971 26.6723 43.9973 27.4058 43.9987 28.1393C43.9999 28.7637 43.9999 29.3881 43.9985 30.0125C43.9978 30.3308 43.9977 30.649 43.9989 30.9672C44 31.2592 43.9996 31.5511 43.9981 31.8431C43.9976 31.9973 43.9988 32.1516 44 32.3059C43.9905 33.4226 43.7049 34.2819 42.9071 35.0672C42.1064 35.7621 41.1314 35.8452 40.1111 35.8338C39.9971 35.8337 39.8831 35.8338 39.7692 35.834C39.4632 35.8341 39.1573 35.8322 38.8514 35.8299C38.5304 35.8279 38.2094 35.8277 37.8884 35.8273C37.2821 35.8263 36.6758 35.8237 36.0695 35.8204C35.3786 35.8168 34.6877 35.815 33.9968 35.8134C32.577 35.81 31.1572 35.8044 29.7374 35.7972C29.868 36.1246 29.9986 36.4521 30.1294 36.7795C30.1737 36.8904 30.218 37.0013 30.2622 37.1123C30.3265 37.2736 30.3909 37.4348 30.4554 37.5961C30.4765 37.649 30.4976 37.7019 30.5193 37.7564C30.6863 38.1736 30.8613 38.5872 31.0404 38.9995C31.1109 39.1905 31.1109 39.1905 31.1109 39.4329C31.1845 39.4312 31.2582 39.4295 31.3341 39.4278C31.6116 39.4222 31.8891 39.4182 32.1667 39.4151C32.286 39.4135 32.4053 39.4113 32.5246 39.4085C33.4274 39.3877 34.2399 39.4204 34.9435 40.054C35.4923 40.6693 35.6157 41.2228 35.5902 42.0458C35.5081 42.727 35.1936 43.179 34.6645 43.6017C34.0725 44.0201 33.5415 44.0502 32.8423 44.0495C32.764 44.0497 32.6857 44.05 32.6051 44.0502C32.3425 44.0509 32.0799 44.051 31.8173 44.0512C31.6291 44.0515 31.4409 44.0519 31.2527 44.0524C30.7412 44.0534 30.2297 44.054 29.7182 44.0543C29.3986 44.0546 29.079 44.0549 28.7594 44.0553C27.8738 44.0562 26.9883 44.0571 26.1027 44.0573C26.0177 44.0574 26.0177 44.0574 25.9311 44.0574C25.8743 44.0574 25.8175 44.0574 25.759 44.0574C25.644 44.0575 25.5289 44.0575 25.4139 44.0576C25.3568 44.0576 25.2997 44.0576 25.2409 44.0576C24.3168 44.0579 23.3926 44.0593 22.4684 44.0612C21.5187 44.0631 20.569 44.0641 19.6193 44.0642C19.0864 44.0643 18.5536 44.0648 18.0207 44.0662C17.5193 44.0676 17.0179 44.0677 16.5165 44.067C16.3327 44.067 16.149 44.0673 15.9652 44.0681C15.7138 44.0692 15.4624 44.0687 15.2109 44.0678C15.1387 44.0685 15.0666 44.0691 14.9922 44.0698C14.1564 44.0633 13.5457 43.852 12.9432 43.2674C12.5311 42.7928 12.3579 42.2403 12.3666 41.6143C12.4248 41.0162 12.6483 40.4445 13.0767 40.0152C13.8339 39.4043 14.6718 39.3921 15.6035 39.3773C15.7208 39.3747 15.8382 39.3719 15.9555 39.369C16.2404 39.3622 16.5253 39.3568 16.8103 39.3521C16.9396 39.0406 17.0688 38.7291 17.1979 38.4176C17.2416 38.3122 17.2853 38.2069 17.329 38.1015C17.3929 37.9477 17.4567 37.7938 17.5204 37.6399C17.5585 37.5481 17.5966 37.4563 17.6358 37.3617C17.8495 36.8419 18.0563 36.3192 18.2646 35.7972C18.1767 35.7976 18.1767 35.7976 18.0871 35.7981C16.658 35.8052 15.2289 35.8105 13.7998 35.8139C13.1087 35.8156 12.4176 35.8178 11.7265 35.8215C11.1237 35.8248 10.5209 35.8268 9.91816 35.8276C9.59935 35.828 9.28057 35.829 8.96177 35.8313C8.6609 35.8335 8.36005 35.8342 8.05917 35.8337C7.89775 35.8338 7.73634 35.8356 7.57494 35.8374C6.50164 35.8325 5.63464 35.5929 4.86099 34.8399C4.29243 34.2366 4.03526 33.5744 4.03423 32.7479C4.03392 32.6547 4.03361 32.5615 4.03329 32.4655C4.03336 32.3635 4.03343 32.2615 4.0335 32.1564C4.03329 32.0467 4.03305 31.9369 4.03277 31.8272C4.03212 31.5256 4.03198 31.2241 4.03192 30.9226C4.03177 30.5974 4.03116 30.2722 4.03061 29.9469C4.02952 29.2358 4.02903 28.5247 4.02867 27.8135C4.02845 27.3694 4.02811 26.9253 4.02774 26.4812C4.02676 25.2513 4.02593 24.0214 4.02565 22.7915C4.02564 22.7128 4.02562 22.6341 4.0256 22.553C4.02558 22.4741 4.02556 22.3953 4.02555 22.314C4.02551 22.1541 4.02547 21.9943 4.02544 21.8344C4.02542 21.7551 4.0254 21.6758 4.02538 21.5941C4.02506 20.3094 4.02365 19.0248 4.02177 17.7401C4.01986 16.4208 4.01885 15.1015 4.01876 13.7823C4.01868 13.0417 4.01822 12.3011 4.01675 11.5605C4.01551 10.9298 4.01509 10.2991 4.01576 9.66846C4.01608 9.34682 4.016 9.02519 4.01487 8.70356C4.01384 8.40875 4.01394 8.11397 4.01491 7.81916C4.01515 7.66275 4.01419 7.50634 4.01318 7.34993C4.01875 6.36518 4.23401 5.57821 4.92443 4.85491C5.88061 3.972 6.94235 3.94023 8.18105 3.94376ZM5.51176 5.99676C5.30178 6.3316 5.23653 6.62106 5.23597 7.01399C5.23545 7.10727 5.23493 7.20055 5.23439 7.29665C5.23464 7.39878 5.23489 7.5009 5.23515 7.60612C5.23485 7.71598 5.23448 7.82585 5.23404 7.93571C5.23305 8.23754 5.23308 8.53936 5.23327 8.8412C5.2333 9.16675 5.23241 9.4923 5.23164 9.81785C5.2303 10.4557 5.22985 11.0935 5.22976 11.7313C5.22969 12.2497 5.22936 12.7681 5.22884 13.2865C5.22742 14.7563 5.22668 16.226 5.2268 17.6958C5.2268 17.775 5.22681 17.8543 5.22682 17.9359C5.22682 18.0153 5.22683 18.0946 5.22684 18.1763C5.2269 19.4622 5.22536 20.748 5.22308 22.0338C5.22076 23.354 5.21964 24.6742 5.21978 25.9944C5.21983 26.7356 5.21939 27.4768 5.21765 28.218C5.21618 28.8491 5.21583 29.4802 5.21692 30.1113C5.21745 30.4333 5.21746 30.7552 5.21606 31.0771C5.21479 31.372 5.21502 31.6669 5.21643 31.9618C5.21679 32.1187 5.21557 32.2755 5.21429 32.4324C5.21946 33.0862 5.2956 33.5336 5.73868 34.0392C5.81758 34.1045 5.81758 34.1045 5.89806 34.1712C5.95045 34.216 6.00284 34.2607 6.05681 34.3069C6.43766 34.5693 6.76256 34.6055 7.22073 34.606C7.30912 34.6065 7.30912 34.6064 7.3993 34.6069C7.59734 34.6076 7.79537 34.6072 7.99341 34.6068C8.1366 34.6071 8.27979 34.6075 8.42298 34.608C8.81692 34.6089 9.21087 34.6089 9.60482 34.6087C10.0295 34.6087 10.4542 34.6096 10.8789 34.6104C11.7111 34.6117 12.5433 34.6121 13.3755 34.6122C14.0519 34.6123 14.7282 34.6126 15.4046 34.6132C17.3214 34.6146 19.2383 34.6153 21.1551 34.6152C21.2585 34.6152 21.3619 34.6152 21.4684 34.6152C21.6236 34.6152 21.6236 34.6152 21.782 34.6152C23.4597 34.6151 25.1374 34.6166 26.815 34.6189C28.5369 34.6212 30.2588 34.6224 31.9807 34.6222C32.9477 34.6222 33.9147 34.6226 34.8817 34.6243C35.705 34.6258 36.5283 34.6262 37.3516 34.6251C37.7717 34.6245 38.1918 34.6245 38.612 34.6259C38.9966 34.6272 39.3811 34.627 39.7657 34.6256C39.9049 34.6253 40.044 34.6256 40.1831 34.6265C41.2713 34.6376 41.2713 34.6376 42.1992 34.1033C42.2428 34.0507 42.2863 33.9981 42.3311 33.9439C42.3759 33.8916 42.4207 33.8392 42.4669 33.7852C42.6992 33.448 42.7654 33.1537 42.766 32.7474C42.7665 32.6542 42.767 32.5609 42.7676 32.4648C42.7673 32.3627 42.7671 32.2605 42.7668 32.1553C42.7671 32.0455 42.7675 31.9356 42.7679 31.8257C42.7689 31.5239 42.7689 31.2221 42.7687 30.9202C42.7687 30.5947 42.7696 30.2691 42.7703 29.9436C42.7717 29.3058 42.7721 28.668 42.7722 28.0302C42.7723 27.5117 42.7726 26.9933 42.7731 26.4749C42.7746 25.0051 42.7753 23.5354 42.7752 22.0656C42.7752 21.9864 42.7752 21.9072 42.7752 21.8255C42.7751 21.7065 42.7751 21.7065 42.7751 21.5851C42.7751 20.2993 42.7766 19.0134 42.7789 17.7276C42.7812 16.4074 42.7823 15.0872 42.7822 13.767C42.7821 13.0258 42.7826 12.2846 42.7843 11.5434C42.7858 10.9123 42.7861 10.2812 42.785 9.65012C42.7845 9.32817 42.7845 9.00624 42.7859 8.68429C42.7872 8.38939 42.787 8.09453 42.7855 7.79963C42.7852 7.64278 42.7864 7.48592 42.7877 7.32907C42.7826 6.68917 42.7102 6.24525 42.2866 5.7427C42.243 5.70739 42.1994 5.67209 42.1544 5.63571C42.1114 5.59936 42.0684 5.56302 42.0241 5.52557C41.5761 5.2396 41.2142 5.14589 40.6835 5.14524C40.5953 5.14464 40.5953 5.14464 40.5054 5.14403C40.3088 5.14298 40.1122 5.14366 39.9156 5.14433C39.773 5.14393 39.6305 5.14343 39.4879 5.14284C39.0965 5.14151 38.7051 5.1417 38.3136 5.14214C37.8914 5.14236 37.4691 5.14118 37.0468 5.14019C36.2197 5.13849 35.3925 5.13813 34.5653 5.13827C33.893 5.13838 33.2206 5.13807 32.5483 5.13747C32.3547 5.1373 32.1611 5.13713 31.9674 5.13696C31.8229 5.13683 31.8229 5.13683 31.6754 5.1367C29.8525 5.13518 28.0296 5.13526 26.2068 5.13581C24.5391 5.13626 22.8715 5.13458 21.2039 5.13191C19.4917 5.12918 17.7794 5.12795 16.0672 5.12833C15.1059 5.12851 14.1446 5.12809 13.1832 5.12607C12.3648 5.12438 11.5464 5.12409 10.728 5.12561C10.3104 5.12635 9.89291 5.12645 9.47538 5.12478C9.09297 5.12327 8.7106 5.12363 8.32819 5.12547C8.19003 5.12581 8.05188 5.12547 7.91373 5.12437C6.94619 5.11721 6.15827 5.1999 5.51176 5.99676ZM19.5573 35.7972C18.8141 37.6088 18.8141 37.6088 18.103 39.4329C21.9957 39.4329 25.8883 39.4329 29.899 39.4329C29.6323 38.7663 29.3657 38.0998 29.091 37.413C28.8777 36.8798 28.6644 36.3465 28.4447 35.7972C25.5118 35.7972 22.579 35.7972 19.5573 35.7972ZM13.6189 41.3214C13.5509 41.6788 13.5579 42.0077 13.7439 42.3235C13.9676 42.6058 14.1871 42.8012 14.5494 42.8467C14.6074 42.8468 14.6654 42.8469 14.7252 42.847C14.7925 42.8475 14.8599 42.8481 14.9292 42.8486C15.0028 42.8484 15.0763 42.8481 15.1521 42.8478C15.2306 42.8482 15.309 42.8486 15.3898 42.849C15.6534 42.85 15.917 42.8498 16.1806 42.8497C16.3694 42.8502 16.5581 42.8507 16.7468 42.8514C17.2599 42.8528 17.773 42.8532 18.2862 42.8533C18.7143 42.8534 19.1423 42.854 19.5704 42.8546C20.5225 42.8558 21.4746 42.8563 22.4266 42.8562C22.5123 42.8562 22.5123 42.8562 22.5998 42.8562C22.6569 42.8562 22.7141 42.8562 22.7731 42.8562C23.7001 42.8561 24.6271 42.8576 25.5541 42.8599C26.506 42.8622 27.4579 42.8634 28.4098 42.8632C28.9442 42.8632 29.4786 42.8636 30.013 42.8653C30.5155 42.8669 31.018 42.8669 31.5206 42.8657C31.7051 42.8656 31.8897 42.866 32.0742 42.8669C32.3259 42.8682 32.5776 42.8674 32.8294 42.8662C32.9391 42.8674 32.9391 42.8674 33.0511 42.8687C33.5721 42.863 33.8597 42.727 34.2467 42.3667C34.3983 42.0715 34.4424 41.7835 34.4234 41.4527C34.248 41.0951 34.0321 40.8566 33.6963 40.6448C33.436 40.5972 33.1793 40.6005 32.9154 40.6027C32.8362 40.6021 32.7571 40.6014 32.6756 40.6008C32.4102 40.5991 32.1448 40.5998 31.8794 40.6004C31.6892 40.5997 31.499 40.5989 31.3089 40.5979C30.792 40.5957 30.2752 40.5957 29.7584 40.5961C29.2726 40.5964 28.7868 40.5953 28.3009 40.5944C27.2799 40.5926 26.2588 40.593 25.2377 40.594C24.304 40.5948 23.3702 40.593 22.4365 40.5899C21.4774 40.5868 20.5183 40.5854 19.5592 40.586C19.0208 40.5863 18.4825 40.5859 17.9442 40.5837C17.4379 40.5816 16.9317 40.5819 16.4255 40.5841C16.2396 40.5844 16.0538 40.584 15.868 40.5827C15.6143 40.581 15.3608 40.5823 15.1071 40.5843C15.0336 40.5831 14.9601 40.5819 14.8843 40.5807C14.2905 40.5908 13.9363 40.8189 13.6189 41.3214Z" fill="#FF7705"></path>
  <path d="M7.53451 6.42778C7.59242 6.42731 7.65033 6.42685 7.70999 6.42636C7.90459 6.42518 8.0991 6.4263 8.29369 6.42742C8.43439 6.42704 8.57509 6.42653 8.71578 6.42589C9.10284 6.42454 9.48986 6.42521 9.87692 6.42621C10.2942 6.42694 10.7114 6.42581 11.1287 6.42492C11.9462 6.42348 12.7638 6.42379 13.5813 6.42473C14.2456 6.42546 14.9099 6.42556 15.5742 6.42521C15.7159 6.42513 15.7159 6.42513 15.8604 6.42506C16.0523 6.42495 16.2442 6.42485 16.4361 6.42474C18.2363 6.42382 20.0365 6.42488 21.8367 6.42662C23.3822 6.42806 24.9277 6.42781 26.4733 6.42632C28.2669 6.42459 30.0606 6.42391 31.8543 6.4249C32.0454 6.42501 32.2366 6.42511 32.4278 6.42521C32.5689 6.42528 32.5689 6.42528 32.7128 6.42536C33.3765 6.42564 34.0402 6.42517 34.7039 6.42441C35.5125 6.4235 36.321 6.42374 37.1295 6.42547C37.5423 6.42632 37.955 6.42665 38.3677 6.42558C38.7453 6.42462 39.1228 6.42514 39.5004 6.42687C39.6372 6.42723 39.7741 6.42704 39.9109 6.42626C40.0965 6.42528 40.2819 6.42628 40.4675 6.42778C40.6223 6.42786 40.6223 6.42786 40.7802 6.42794C41.0999 6.4762 41.2344 6.55482 41.4525 6.79163C41.503 6.9749 41.503 6.9749 41.5029 7.18001C41.5039 7.25841 41.5048 7.33681 41.5058 7.41759C41.5048 7.50351 41.5038 7.58943 41.5027 7.67795C41.5033 7.76939 41.5038 7.86082 41.5043 7.95503C41.5055 8.26258 41.5039 8.57005 41.5022 8.8776C41.5023 9.09761 41.503 9.31763 41.5036 9.53764C41.5048 10.0739 41.5038 10.6101 41.502 11.1463C41.5001 11.7706 41.5002 12.3948 41.5005 13.019C41.5008 14.1327 41.4991 15.2463 41.4963 16.36C41.4936 17.4411 41.4925 18.5221 41.493 19.6032C41.4935 20.7799 41.4933 21.9567 41.4918 23.1334C41.4916 23.2267 41.4916 23.2267 41.4915 23.3219C41.4913 23.4468 41.4912 23.5718 41.491 23.6967C41.4904 24.132 41.4904 24.5673 41.4905 25.0026C41.4906 25.533 41.4898 26.0633 41.4879 26.5937C41.487 26.8644 41.4865 27.1351 41.4869 27.4058C41.4872 27.6989 41.486 27.9921 41.4844 28.2853C41.4848 28.3712 41.4852 28.4571 41.4857 28.5456C41.4846 28.6632 41.4846 28.6632 41.4835 28.7832C41.4833 28.8509 41.4832 28.9186 41.4831 28.9883C41.4446 29.2193 41.3734 29.3281 41.2101 29.4948C40.9295 29.6138 40.6214 29.5858 40.3209 29.586C40.2636 29.5861 40.2064 29.5862 40.1474 29.5864C39.9545 29.5868 39.7616 29.5866 39.5687 29.5864C39.4294 29.5865 39.2901 29.5867 39.1508 29.5869C38.7673 29.5874 38.3837 29.5874 38.0002 29.5873C37.5869 29.5873 37.1735 29.5877 36.7602 29.5881C35.9501 29.5888 35.1401 29.589 34.33 29.5891C33.6718 29.5891 33.0136 29.5893 32.3554 29.5895C30.4905 29.5902 28.6256 29.5906 26.7607 29.5905C26.6601 29.5905 26.5595 29.5905 26.4559 29.5905C26.3551 29.5905 26.2544 29.5905 26.1507 29.5905C24.5178 29.5905 22.8849 29.5913 21.2519 29.5924C19.5765 29.5936 17.9011 29.5941 16.2257 29.594C15.2845 29.594 14.3434 29.5942 13.4023 29.5951C12.6011 29.5958 11.8 29.596 10.9988 29.5955C10.5899 29.5952 10.1809 29.5952 9.77196 29.5959C9.39784 29.5965 9.02373 29.5964 8.64962 29.5957C8.51402 29.5956 8.37842 29.5958 8.24283 29.5962C8.05897 29.5968 7.87513 29.5963 7.69127 29.5957C7.58901 29.5957 7.48675 29.5957 7.38139 29.5957C7.11849 29.5758 6.94245 29.5384 6.71107 29.414C6.53864 29.1553 6.52916 29.0901 6.52847 28.7932C6.5279 28.7149 6.52733 28.6367 6.52674 28.5561C6.52693 28.4699 6.52713 28.3838 6.52733 28.295C6.52691 28.2036 6.52648 28.1122 6.52605 28.0181C6.52483 27.7103 6.52478 27.4026 6.52473 27.0948C6.5242 26.8748 6.52343 26.6548 6.52269 26.4348C6.52084 25.836 6.5202 25.2373 6.51979 24.6385C6.51953 24.2648 6.519 23.8911 6.51842 23.5174C6.51684 22.4831 6.51551 21.4488 6.51528 20.4145C6.51526 20.3483 6.51525 20.2821 6.51523 20.2139C6.5152 20.0796 6.51517 19.9454 6.51514 19.8112C6.51513 19.7446 6.51511 19.678 6.5151 19.6093C6.51508 19.5426 6.51507 19.4759 6.51506 19.4072C6.51477 18.3256 6.51258 17.2441 6.50957 16.1626C6.50649 15.0528 6.50492 13.943 6.5049 12.8331C6.50485 12.2098 6.50416 11.5864 6.50183 10.9631C6.49985 10.4324 6.49926 9.90176 6.50048 9.3711C6.50106 9.10022 6.50076 8.82943 6.49915 8.55855C6.49751 8.26516 6.49834 7.97188 6.49981 7.67849C6.49875 7.59252 6.49768 7.50655 6.49658 7.41797C6.49749 7.33952 6.49839 7.26106 6.49932 7.18023C6.49926 7.1125 6.49919 7.04477 6.49912 6.97499C6.6384 6.46786 7.07605 6.42802 7.53451 6.42778ZM7.6806 7.68036C7.6806 14.5058 7.6806 21.3313 7.6806 28.3636C18.4521 28.3636 29.2235 28.3636 40.3214 28.3636C40.3214 21.5382 40.3214 14.7127 40.3214 7.68036C29.5499 7.68036 18.7785 7.68036 7.6806 7.68036Z" fill="#FF7705"></path>
  <path d="M15.197 8.96077C17.0604 8.91041 18.7389 9.53717 20.1106 10.8121C21.4275 12.184 22.0247 13.906 21.9985 15.7806C21.9427 17.4976 21.1523 19.0622 19.9309 20.2456C18.5709 21.4874 16.8671 21.9877 15.0619 21.932C14.4597 21.8982 13.907 21.7658 13.3362 21.5773C13.2249 21.5423 13.2249 21.5423 13.1115 21.5066C11.5437 20.9509 10.3309 19.63 9.6004 18.1754C8.90721 16.7092 8.82227 14.8659 9.35304 13.3347C9.63373 12.5835 9.99823 11.9388 10.5084 11.3164C10.574 11.2311 10.574 11.2311 10.6409 11.1441C11.606 9.94943 13.1321 9.22926 14.6289 8.9936C14.818 8.97757 15.0074 8.97055 15.197 8.96077ZM16.0832 10.1853C16.0832 11.7317 16.0832 13.2781 16.0832 14.8714C17.6296 14.8714 19.176 14.8714 20.7692 14.8714C20.5515 13.565 20.1566 12.5425 19.1533 11.6396C19.1081 11.596 19.0629 11.5523 19.0164 11.5074C18.1911 10.7372 17.1902 10.3435 16.0832 10.1853ZM11.7399 11.6958C10.6061 12.9109 10.2198 14.2766 10.2442 15.8914C10.2807 16.9194 10.7004 17.7333 11.2355 18.5879C12.0013 18.5879 12.7339 17.6967 13.2756 17.2043C13.3154 17.1683 13.3553 17.1323 13.3964 17.0952C14.4252 16.1552 15.0952 15.2803 15.1761 13.8539C15.2304 12.6321 15.1171 11.3946 14.9521 10.1853C13.799 10.1853 12.5437 10.9205 11.7399 11.6958ZM13.7098 17.7396C13.6726 17.7811 13.6353 17.8226 13.597 17.8654C13.1359 18.3838 12.7001 18.9202 12.2859 19.4766C12.4433 19.8494 12.7013 19.9609 13.0534 20.128C13.1122 20.1564 13.1711 20.1847 13.2317 20.2139C14.4663 20.7971 15.7577 20.9415 17.0751 20.5238C18.6117 19.968 19.6589 19.0062 20.3956 17.5622C20.5531 17.202 20.6349 16.8505 20.6963 16.4626C20.7171 16.333 20.7171 16.333 20.7383 16.2007C20.7485 16.1353 20.7587 16.0699 20.7692 16.0025C20.0089 15.8959 19.2482 15.8254 18.4817 15.7853C18.4252 15.7824 18.3687 15.7794 18.3105 15.7763C16.2541 15.6808 15.0776 16.2132 13.7098 17.7396Z" fill="#FF7705"></path>
  <path d="M29.4163 16.3101C29.4813 16.3088 29.5463 16.3075 29.6133 16.3062C29.9097 16.3026 30.2061 16.2993 30.5025 16.2974C30.6588 16.2961 30.815 16.2939 30.9713 16.2908C31.1969 16.2863 31.4225 16.2846 31.6481 16.2834C31.7178 16.2816 31.7874 16.2797 31.8591 16.2778C31.9246 16.2781 31.9901 16.2783 32.0576 16.2785C32.1148 16.2779 32.172 16.2772 32.231 16.2766C32.5266 16.3606 32.6296 16.4787 32.8077 16.7297C32.8673 17.0471 32.8612 17.3604 32.8574 17.6826C32.8578 17.7791 32.8583 17.8756 32.8587 17.975C32.8595 18.2389 32.8585 18.5028 32.8566 18.7667C32.855 19.0431 32.8555 19.3195 32.8557 19.596C32.8556 20.0601 32.8541 20.5241 32.8515 20.9882C32.8485 21.5246 32.8478 22.0609 32.8483 22.5973C32.8488 23.1136 32.848 23.63 32.8464 24.1463C32.8457 24.3659 32.8455 24.5855 32.8456 24.8051C32.8455 25.1117 32.8438 25.4182 32.8416 25.7248C32.8418 25.8159 32.8421 25.9071 32.8423 26.001C32.8414 26.0844 32.8405 26.1679 32.8395 26.2539C32.8392 26.3264 32.8389 26.3988 32.8386 26.4735C32.8013 26.707 32.7258 26.8191 32.5653 26.9905C32.4003 27.0315 32.4003 27.0315 32.2092 27.0323C32.1374 27.0333 32.0657 27.0344 31.9918 27.0354C31.9145 27.0348 31.8373 27.0341 31.7577 27.0334C31.6781 27.0337 31.5985 27.034 31.5165 27.0344C31.3481 27.0346 31.1798 27.034 31.0114 27.0326C30.7537 27.0309 30.4962 27.0326 30.2385 27.0347C30.075 27.0345 29.9114 27.0341 29.7479 27.0334C29.6708 27.0341 29.5937 27.0347 29.5143 27.0354C29.4423 27.0344 29.3703 27.0334 29.2961 27.0323C29.233 27.0321 29.1699 27.0318 29.1048 27.0315C28.8583 26.9738 28.7665 26.8606 28.6064 26.6673C28.5659 26.4733 28.5659 26.4733 28.5659 26.2534C28.5651 26.1698 28.5643 26.0862 28.5635 26.0001C28.5643 25.9088 28.565 25.8175 28.5658 25.7235C28.5654 25.6271 28.565 25.5306 28.5645 25.4312C28.5637 25.167 28.5643 24.9028 28.5656 24.6385C28.5667 24.3619 28.5662 24.0852 28.5659 23.8086C28.5657 23.344 28.5668 22.8794 28.5687 22.4149C28.5708 21.8779 28.571 21.341 28.57 20.804C28.5692 20.2873 28.5697 19.7706 28.5708 19.2538C28.5713 19.034 28.5713 18.8142 28.5709 18.5944C28.5706 18.2874 28.572 17.9804 28.5737 17.6735C28.5734 17.5822 28.573 17.491 28.5726 17.3969C28.5734 17.3133 28.5742 17.2297 28.5751 17.1436C28.5753 17.0711 28.5754 16.9985 28.5757 16.9237C28.613 16.688 28.6849 16.5781 28.8488 16.4065C29.0643 16.3346 29.1949 16.3141 29.4163 16.3101ZM29.8183 17.5376C29.8183 20.2838 29.8183 23.03 29.8183 25.8594C30.4049 25.8594 30.9914 25.8594 31.5958 25.8594C31.5958 23.1132 31.5958 20.367 31.5958 17.5376C31.0092 17.5376 30.4226 17.5376 29.8183 17.5376Z" fill="#FF7705"></path>
  <path d="M29.7375 10.7506C29.9309 10.8998 30.0866 11.0381 30.2541 11.2122C30.3263 11.2843 30.3263 11.2843 30.4 11.3579C30.5581 11.5163 30.7144 11.6764 30.8708 11.8366C30.9804 11.947 31.0901 12.0574 31.1998 12.1677C31.488 12.4577 31.7746 12.749 32.0609 13.0408C32.3536 13.3384 32.6477 13.6347 32.9416 13.931C33.5177 14.5124 34.0923 15.0952 34.6659 15.679C35.0066 15.5232 35.2382 15.2888 35.4978 15.0245C35.5458 14.9763 35.5937 14.9281 35.6432 14.8784C35.7958 14.7249 35.9479 14.5707 36.1 14.4166C36.2036 14.3122 36.3072 14.2078 36.4109 14.1035C36.6645 13.8481 36.9176 13.5922 37.1705 13.336C37.1141 13.3271 37.0576 13.3183 36.9995 13.3092C36.9259 13.2963 36.8524 13.2835 36.7766 13.2703C36.667 13.2521 36.667 13.2521 36.5551 13.2334C36.3626 13.1744 36.3626 13.1744 36.201 12.932C36.1735 12.6737 36.1711 12.5067 36.2886 12.2729C36.5174 12.0529 36.6935 12.0823 37.0064 12.0811C37.0884 12.0807 37.0884 12.0807 37.1721 12.0802C37.2875 12.08 37.403 12.0806 37.5184 12.0819C37.6951 12.0837 37.8715 12.082 38.0482 12.0799C38.1604 12.0801 38.2727 12.0805 38.3849 12.0811C38.5381 12.0817 38.5381 12.0817 38.6944 12.0823C38.948 12.1241 38.948 12.1241 39.102 12.255C39.2754 12.6323 39.2322 13.0466 39.2308 13.4549C39.2308 13.6183 39.2341 13.7814 39.2377 13.9448C39.2379 14.048 39.2381 14.1512 39.2383 14.2575C39.2389 14.352 39.2395 14.4464 39.2401 14.5436C39.1904 14.7903 39.1904 14.7903 39.0012 14.9855C38.7864 15.1135 38.7864 15.1135 38.5339 15.1084C38.1953 14.998 38.1953 14.998 38.0592 14.7903C38.0295 14.6292 38.0024 14.4676 37.9785 14.3055C37.9434 14.3408 37.9083 14.376 37.8722 14.4123C37.5081 14.7782 37.1437 15.1438 36.7792 15.5092C36.643 15.6458 36.507 15.7824 36.371 15.919C36.1759 16.1152 35.9805 16.311 35.785 16.5068C35.724 16.5683 35.663 16.6297 35.6001 16.693C35.5435 16.7496 35.4869 16.8062 35.4286 16.8645C35.3787 16.9146 35.3288 16.9647 35.2774 17.0162C35.089 17.1902 34.9889 17.2141 34.7289 17.2479C34.334 17.2042 34.1625 17.0292 33.8995 16.7543C33.8505 16.7054 33.8016 16.6565 33.7512 16.6062C33.5902 16.4449 33.4314 16.2817 33.2725 16.1183C33.1611 16.0059 33.0496 15.8936 32.938 15.7814C32.6449 15.4862 32.3536 15.1893 32.0626 14.892C31.7652 14.5888 31.4662 14.2872 31.1673 13.9855C30.5814 13.3935 29.9973 12.7998 29.4143 12.2049C29.0434 12.5143 28.6931 12.8352 28.3559 13.181C28.2614 13.2771 28.1669 13.3732 28.0724 13.4693C28.0232 13.5194 27.9741 13.5696 27.9234 13.6212C27.6604 13.8892 27.3962 14.1558 27.1322 14.4228C26.7975 14.7613 26.4632 15.1002 26.1301 15.4404C25.8597 15.7165 25.588 15.9914 25.3156 16.2656C25.2124 16.3699 25.1095 16.4747 25.0072 16.58C24.8641 16.7269 24.7196 16.8723 24.5747 17.0174C24.533 17.0609 24.4914 17.1045 24.4485 17.1493C24.1536 17.4402 23.9294 17.5294 23.5163 17.5373C23.279 17.411 23.279 17.411 23.1123 17.2141C23.0517 16.9919 23.0517 16.9919 23.1123 16.7293C23.2226 16.582 23.2226 16.582 23.3645 16.4248C23.4158 16.3679 23.4672 16.311 23.5201 16.2524C23.7517 16.0038 23.9884 15.7612 24.229 15.5214C24.2809 15.4694 24.3327 15.4174 24.3861 15.3639C24.5552 15.1945 24.7245 15.0253 24.8939 14.8562C25.0123 14.7378 25.1306 14.6194 25.249 14.5009C25.4958 14.254 25.7428 14.0071 25.9899 13.7604C26.3071 13.4437 26.6239 13.1267 26.9406 12.8095C27.1843 12.5655 27.4283 12.3216 27.6723 12.0778C27.7892 11.9609 27.9061 11.8439 28.023 11.7269C28.1856 11.5641 28.3485 11.4015 28.5114 11.239C28.5598 11.1904 28.6082 11.1419 28.6581 11.0918C29.0483 10.7037 29.187 10.6165 29.7375 10.7506Z" fill="#FF7705"></path>
  <path d="M23.7933 20.0798C23.8634 20.0785 23.9335 20.0772 24.0057 20.0759C24.1184 20.0765 24.1184 20.0765 24.2333 20.0771C24.3109 20.0766 24.3886 20.0761 24.4687 20.0756C24.6327 20.075 24.7968 20.0753 24.9609 20.0763C25.212 20.0774 25.4629 20.0747 25.7141 20.0716C25.8735 20.0715 26.033 20.0717 26.1925 20.0721C26.2676 20.071 26.3427 20.0699 26.42 20.0688C26.5252 20.0704 26.5252 20.0704 26.6325 20.0719C26.7247 20.072 26.7247 20.072 26.8187 20.0721C27.0882 20.1518 27.1711 20.2894 27.3135 20.5269C27.3535 20.8033 27.3535 20.8033 27.3528 21.1238C27.3531 21.1825 27.3534 21.2411 27.3537 21.3015C27.3543 21.4946 27.3526 21.6875 27.3508 21.8805C27.3506 22.015 27.3505 22.1495 27.3505 22.284C27.3503 22.5655 27.349 22.847 27.3468 23.1285C27.344 23.4892 27.3434 23.8499 27.3435 24.2106C27.3435 24.4882 27.3426 24.7658 27.3414 25.0434C27.3409 25.1764 27.3406 25.3094 27.3405 25.4424C27.3401 25.6282 27.3387 25.8141 27.337 25.9999C27.3361 26.1585 27.3361 26.1585 27.3351 26.3202C27.315 26.5678 27.2913 26.707 27.1519 26.9096C26.9641 27.0035 26.8513 27.0021 26.6421 27.0047C26.5701 27.0057 26.4981 27.0068 26.4239 27.0078C26.346 27.0084 26.2681 27.009 26.1878 27.0096C26.1079 27.0103 26.028 27.0109 25.9457 27.0116C25.7765 27.0127 25.6073 27.0136 25.4381 27.0142C25.1789 27.0156 24.9197 27.0192 24.6604 27.0227C24.4963 27.0236 24.3321 27.0242 24.1679 27.0248C24.0902 27.0262 24.0124 27.0276 23.9323 27.0291C23.8239 27.0287 23.8239 27.0287 23.7133 27.0284C23.6498 27.0288 23.5862 27.0293 23.5207 27.0298C23.3546 26.9904 23.3546 26.9904 23.2131 26.8641C23.077 26.5983 23.0777 26.3563 23.0796 26.0646C23.079 26.0044 23.0785 25.9442 23.0779 25.8821C23.0764 25.6834 23.0767 25.4848 23.0772 25.2861C23.0768 25.1479 23.0764 25.0097 23.0759 24.8714C23.0752 24.5818 23.0754 24.2922 23.0762 24.0026C23.0771 23.6315 23.0755 23.2604 23.0731 22.8893C23.0717 22.6038 23.0717 22.3184 23.0721 22.033C23.0722 21.8962 23.0717 21.7593 23.0707 21.6225C23.0695 21.4312 23.0703 21.24 23.0717 21.0487C23.0709 20.9922 23.0701 20.9357 23.0693 20.8775C23.0734 20.6125 23.0974 20.4666 23.254 20.2495C23.4556 20.1088 23.5504 20.0818 23.7933 20.0798ZM24.2434 21.254C24.2434 22.7737 24.2434 24.2935 24.2434 25.8593C24.8566 25.8593 25.4698 25.8593 26.1016 25.8593C26.1016 24.3395 26.1016 22.8198 26.1016 21.254C25.4884 21.254 24.8752 21.254 24.2434 21.254Z" fill="#FF7705"></path>
  <path d="M34.9104 21.9666C35.0079 21.9651 35.0079 21.9651 35.1074 21.9635C35.2123 21.9626 35.2123 21.9626 35.3193 21.9617C35.4276 21.9607 35.4276 21.9607 35.5382 21.9597C35.691 21.9586 35.8438 21.9577 35.9966 21.9571C36.23 21.9557 36.4632 21.9521 36.6966 21.9486C36.8451 21.9478 36.9937 21.9471 37.1422 21.9465C37.2118 21.9451 37.2815 21.9437 37.3532 21.9422C37.652 21.9433 37.8656 21.9677 38.144 22.0825C38.4086 22.4543 38.3559 22.8549 38.3497 23.2992C38.3497 23.3968 38.3497 23.4944 38.3497 23.595C38.3493 23.8012 38.3479 24.0075 38.3455 24.2137C38.3422 24.5301 38.3422 24.8463 38.3428 25.1627C38.3419 25.3629 38.3409 25.5632 38.3396 25.7634C38.3396 25.8584 38.3396 25.9533 38.3396 26.0511C38.3383 26.139 38.337 26.2269 38.3357 26.3175C38.335 26.3949 38.3343 26.4723 38.3336 26.5521C38.296 26.7828 38.2452 26.8526 38.0594 26.9902C37.745 27.0949 37.4459 27.0841 37.1182 27.0845C37.0496 27.0848 36.981 27.0851 36.9102 27.0853C36.765 27.0858 36.6198 27.0859 36.4746 27.0859C36.253 27.0861 36.0314 27.0876 35.8098 27.0891C35.6686 27.0893 35.5274 27.0895 35.3862 27.0896C35.2871 27.0905 35.2871 27.0905 35.186 27.0913C34.8479 27.09 34.5604 27.0876 34.262 26.9094C34.1057 26.6618 34.0798 26.4676 34.0783 26.1777C34.0775 26.0965 34.0767 26.0153 34.0759 25.9317C34.076 25.8445 34.0761 25.7573 34.0762 25.6675C34.0758 25.5774 34.0755 25.4874 34.0751 25.3946C34.0746 25.2043 34.0746 25.0139 34.0749 24.8235C34.0752 24.5324 34.0733 24.2413 34.0713 23.9501C34.0711 23.7651 34.071 23.5801 34.0711 23.3951C34.0704 23.3081 34.0696 23.2211 34.0688 23.1314C34.0736 22.3598 34.0736 22.3598 34.3428 22.0617C34.559 21.9897 34.6883 21.9697 34.9104 21.9666ZM35.3124 23.1928C35.3124 24.0727 35.3124 24.9525 35.3124 25.859C35.9256 25.859 36.5388 25.859 37.1706 25.859C37.1706 24.9792 37.1706 24.0994 37.1706 23.1928C36.5574 23.1928 35.9442 23.1928 35.3124 23.1928Z" fill="#FF7705"></path>
  <path d="M10.4467 23.1513C10.5469 23.1507 10.6472 23.1502 10.7505 23.1496C11.025 23.1484 11.2994 23.1487 11.5738 23.1497C11.8613 23.1505 12.1488 23.1498 12.4363 23.1493C12.9191 23.1487 13.4018 23.1494 13.8846 23.151C14.4424 23.1527 15.0001 23.1522 15.5578 23.1504C16.0371 23.1489 16.5164 23.1487 16.9957 23.1496C17.2818 23.1501 17.5679 23.1501 17.8539 23.1491C18.1729 23.148 18.4918 23.1495 18.8107 23.1513C18.9527 23.1503 18.9527 23.1503 19.0975 23.1493C19.7348 23.156 19.7348 23.156 20.0602 23.3425C20.2035 23.5163 20.2035 23.5163 20.254 23.7536C20.1831 24.1009 20.0876 24.1953 19.7995 24.405C19.4704 24.4659 19.1446 24.4593 18.8107 24.456C18.7105 24.4566 18.6102 24.4572 18.5069 24.4578C18.2324 24.4589 17.9581 24.4582 17.6836 24.4566C17.3961 24.4553 17.1086 24.456 16.8211 24.4564C16.3383 24.4568 15.8556 24.4555 15.3728 24.4532C14.8151 24.4507 14.2573 24.4507 13.6996 24.4521C13.1625 24.4533 12.6255 24.4528 12.0885 24.4514C11.8601 24.4509 11.6318 24.4509 11.4035 24.4515C11.0845 24.4523 10.7656 24.4503 10.4467 24.4481C10.3047 24.4489 10.3047 24.4489 10.16 24.4497C9.52398 24.4422 9.52398 24.4422 9.19726 24.2584C9.05391 24.0818 9.05391 24.0818 9.00342 23.7991C9.05391 23.5163 9.05391 23.5163 9.19726 23.3396C9.6013 23.1125 9.99064 23.1481 10.4467 23.1513Z" fill="#FF7705"></path>
  <path d="M7.74766 26.1077C7.81935 26.1071 7.89104 26.1064 7.96491 26.1057C8.20155 26.1041 8.43808 26.1052 8.67473 26.1064C8.83934 26.1062 9.00396 26.1058 9.16857 26.1054C9.51345 26.1048 9.85828 26.1056 10.2032 26.1074C10.6452 26.1095 11.0871 26.1083 11.5291 26.106C11.869 26.1047 12.2088 26.1051 12.5487 26.1061C12.7117 26.1063 12.8747 26.106 13.0376 26.1051C13.2654 26.1042 13.4931 26.1056 13.7209 26.1077C13.8219 26.1066 13.8219 26.1066 13.9249 26.1054C14.2397 26.1108 14.4111 26.1368 14.6671 26.3259C14.8773 26.623 14.8576 26.8328 14.8124 27.1875C14.7145 27.3459 14.7145 27.3459 14.5312 27.4688C14.2824 27.497 14.0555 27.5081 13.8066 27.5066C13.733 27.5073 13.6593 27.5079 13.5834 27.5086C13.3398 27.5103 13.0961 27.5099 12.8525 27.5094C12.6833 27.5098 12.5141 27.5103 12.3449 27.5109C11.9903 27.5117 11.6357 27.5115 11.281 27.5106C10.8261 27.5095 10.3712 27.5114 9.91626 27.5141C9.56689 27.5158 9.21753 27.5158 8.86816 27.5153C8.7004 27.5153 8.53265 27.5158 8.36489 27.517C8.13054 27.5184 7.89632 27.5174 7.66197 27.5158C7.59242 27.5167 7.52286 27.5176 7.4512 27.5185C7.14576 27.5141 6.98115 27.51 6.75408 27.2959C6.61942 27.0179 6.61167 26.8364 6.65617 26.5313C6.95662 26.1134 7.26576 26.1023 7.74766 26.1077Z" fill="#FF7705"></path>
  <path d="M23.9999 32.0977C24.3849 32.1779 24.5206 32.308 24.7499 32.625C24.8091 32.9998 24.8136 33.1882 24.5975 33.5039C24.3221 33.6923 24.1462 33.7432 23.8124 33.75C23.3844 33.5503 23.3844 33.5503 23.2499 33.2812C23.2035 32.8712 23.2037 32.6888 23.4491 32.3496C23.7186 32.1562 23.7186 32.1562 23.9999 32.0977Z" fill="#FF7705"></path>
</svg>
