<?xml version="1.0" encoding="UTF-8"?>
<svg xmlns="http://www.w3.org/2000/svg" width="48" height="48" viewBox="0 0 48 48" fill="none">
  <path d="M11.2031 1.59376C11.9064 2.00805 12.2525 2.5419 12.5625 3.28126C12.6232 3.28157 12.6839 3.28188 12.7464 3.2822C14.222 3.28981 15.6976 3.29844 17.1732 3.30821C17.8868 3.31292 18.6004 3.31727 19.314 3.32081C19.9358 3.32389 20.5576 3.32763 21.1794 3.33214C21.5087 3.33452 21.8381 3.33656 22.1675 3.33782C22.5348 3.33924 22.902 3.34211 23.2693 3.34512C23.434 3.34542 23.434 3.34542 23.602 3.34573C23.7016 3.34678 23.8013 3.34782 23.904 3.3489C24.0344 3.34968 24.0344 3.34968 24.1674 3.35047C24.375 3.37501 24.375 3.37501 24.5625 3.56251C24.585 3.82708 24.585 3.82708 24.5837 4.169C24.5838 4.23121 24.5838 4.29341 24.5838 4.3575C24.5837 4.56346 24.5822 4.76939 24.5808 4.97535C24.5804 5.11801 24.5801 5.26067 24.58 5.40333C24.5792 5.77909 24.5774 6.15484 24.5753 6.53059C24.5734 6.91391 24.5726 7.29723 24.5716 7.68055C24.5696 8.43288 24.5664 9.18519 24.5625 9.93751C24.6845 9.93316 24.8066 9.92881 24.9323 9.92432C25.0942 9.92081 25.2561 9.91739 25.4179 9.91407C25.4982 9.91093 25.5784 9.90779 25.6611 9.90455C26.187 9.89646 26.4937 9.95248 26.9062 10.3125C27.2138 10.8559 27.3131 11.4635 27.4394 12.0703C27.4605 12.1678 27.4816 12.2654 27.5033 12.3659C27.6562 13.0843 27.6562 13.0843 27.6562 13.4063C27.7849 13.4517 27.9139 13.4965 28.0429 13.541C28.1147 13.566 28.1865 13.5911 28.2605 13.6168C28.3395 13.6402 28.4185 13.6635 28.5 13.6875C28.5877 13.7151 28.6754 13.7426 28.7658 13.771C29.1984 13.786 29.4254 13.5909 29.7656 13.3418C29.8254 13.2998 29.8852 13.2578 29.9469 13.2145C30.06 13.1351 30.1727 13.0549 30.2847 12.9739C30.4687 12.8438 30.4687 12.8438 30.7667 12.7253C31.0878 12.4139 31.0772 12.3111 31.1037 11.8754C31.1075 11.6231 31.1084 11.3719 31.1066 11.1196C31.1077 10.9856 31.109 10.8517 31.1105 10.7177C31.1139 10.3656 31.114 10.0137 31.1133 9.66164C31.1132 9.30216 31.1163 8.94272 31.1191 8.58326C31.1241 7.87842 31.1257 7.17362 31.125 6.46876C31.0156 6.44893 31.0156 6.44893 30.9039 6.4287C30.2841 6.29436 29.7855 5.84772 29.4349 5.33497C29.0703 4.62034 29.0097 3.73777 29.2558 2.97071C29.5624 2.28981 30.0845 1.8139 30.75 1.50001C31.4847 1.27127 32.2529 1.32077 32.9472 1.64063C33.6587 2.04144 34.0435 2.5674 34.2685 3.34827C34.4045 4.01147 34.3428 4.64462 34.0312 5.25001C33.6211 5.83551 33.1947 6.20564 32.5312 6.46876C32.4693 6.46876 32.4075 6.46876 32.3437 6.46876C32.2657 7.40365 32.2179 8.33765 32.1972 9.2754C32.1957 9.34404 32.1942 9.41268 32.1926 9.48341C32.1639 11.1025 32.1893 12.5143 33.3343 13.7753C33.9166 14.3604 34.5604 14.8819 35.2381 15.3524C35.5312 15.5625 35.5312 15.5625 35.625 15.75C35.7611 16.6274 35.4723 17.1463 34.9746 17.8477C34.852 18.0257 34.73 18.2042 34.6087 18.3831C34.5542 18.4605 34.4997 18.5378 34.4436 18.6176C34.2575 18.9386 34.2047 19.1821 34.2442 19.5506C34.3289 19.83 34.4112 20.0202 34.5937 20.25C35.0244 20.4536 35.4749 20.5323 35.9414 20.6133C36.1866 20.6601 36.4312 20.7094 36.676 20.759C36.7845 20.7786 36.8931 20.7982 37.005 20.8183C37.3564 20.9188 37.5896 21.0539 37.875 21.2813C38.0625 21.6563 38.0625 21.6563 38.0625 23.4375C39.8259 23.4375 41.5893 23.4375 43.4062 23.4375C43.4062 19.8178 43.4062 16.1981 43.4062 12.4688C43.2515 12.4378 43.0968 12.4069 42.9375 12.375C42.2785 12.0169 41.7689 11.4939 41.5371 10.7754C41.3299 9.93123 41.47 9.26546 41.8828 8.51368C42.416 7.84715 42.9682 7.4872 43.823 7.3766C44.573 7.34015 45.2301 7.57322 45.8261 8.02735C46.4089 8.58385 46.6225 9.18599 46.6523 9.98438C46.6198 10.8334 46.3827 11.413 45.7617 11.9941C45.4445 12.2642 45.1011 12.4022 44.7187 12.5625C44.7184 12.6232 44.7181 12.6839 44.7178 12.7465C44.7102 14.2221 44.7015 15.6977 44.6917 17.1733C44.687 17.8869 44.6827 18.6004 44.6792 19.314C44.6761 19.9358 44.6723 20.5576 44.6678 21.1794C44.6654 21.5088 44.6634 21.8382 44.6621 22.1676C44.6607 22.5348 44.6578 22.9021 44.6548 23.2694C44.6545 23.434 44.6545 23.434 44.6542 23.602C44.6532 23.7017 44.6521 23.8013 44.6511 23.904C44.6505 23.9909 44.65 24.0779 44.6495 24.1675C44.625 24.375 44.625 24.375 44.4375 24.5625C44.1729 24.5851 44.1729 24.5851 43.831 24.5838C43.7688 24.5838 43.7066 24.5838 43.6425 24.5839C43.4365 24.5837 43.2306 24.5823 43.0246 24.5808C42.882 24.5805 42.7393 24.5802 42.5966 24.58C42.2209 24.5793 41.8451 24.5775 41.4694 24.5754C41.0861 24.5735 40.7027 24.5726 40.3194 24.5717C39.5671 24.5697 38.8148 24.5665 38.0625 24.5625C38.0668 24.6846 38.0712 24.8066 38.0756 24.9324C38.0792 25.0942 38.0826 25.2561 38.0859 25.418C38.089 25.4982 38.0922 25.5785 38.0954 25.6611C38.1037 26.2025 38.0433 26.492 37.6875 26.9063C36.9053 27.3914 35.5168 27.6563 34.5937 27.6563C34.5482 27.785 34.5034 27.9139 34.4589 28.043C34.4339 28.1148 34.4089 28.1865 34.3831 28.2605C34.3481 28.3791 34.3481 28.3791 34.3125 28.5C34.2849 28.5877 34.2573 28.6755 34.229 28.7659C34.214 29.1984 34.4091 29.4255 34.6582 29.7656C34.7002 29.8255 34.7421 29.8853 34.7854 29.9469C34.8649 30.06 34.945 30.1727 35.0261 30.2847C35.1562 30.4688 35.1562 30.4688 35.2747 30.7667C35.5861 31.0879 35.6888 31.0773 36.1246 31.1037C36.3769 31.1076 36.6281 31.1085 36.8803 31.1067C37.0143 31.1078 37.1483 31.1091 37.2823 31.1106C37.6343 31.114 37.9863 31.114 38.3383 31.1133C38.6978 31.1133 39.0572 31.1163 39.4167 31.1192C40.1215 31.1242 40.8263 31.1257 41.5312 31.125C41.551 31.0156 41.551 31.0156 41.5713 30.904C41.7056 30.2842 42.1522 29.7856 42.665 29.4349C43.3796 29.0703 44.2622 29.0098 45.0293 29.2559C45.7102 29.5625 46.1861 30.0846 46.5 30.75C46.7287 31.4848 46.6792 32.2529 46.3593 32.9473C45.9585 33.6588 45.4326 34.0435 44.6517 34.2686C43.9903 34.4042 43.3516 34.3476 42.75 34.0313C42.2389 33.672 41.8501 33.3551 41.6591 32.7496C41.6349 32.6736 41.6106 32.5976 41.5856 32.5193C41.5676 32.4614 41.5497 32.4034 41.5312 32.3438C40.5963 32.2658 39.6623 32.2179 38.7246 32.1973C38.6559 32.1958 38.5873 32.1942 38.5166 32.1927C36.8974 32.164 35.4857 32.1894 34.2247 33.3343C33.6395 33.9167 33.1181 34.5605 32.6475 35.2381C32.4375 35.5313 32.4375 35.5313 32.25 35.625C31.3725 35.7611 30.8537 35.4724 30.1523 34.9746C29.9743 34.8521 29.7958 34.7301 29.6169 34.6088C29.5008 34.527 29.5008 34.527 29.3824 34.4436C29.1434 34.3051 28.9611 34.2484 28.6875 34.2188C28.4604 34.2864 28.4604 34.2864 28.248 34.4004C27.858 34.5938 27.858 34.5938 27.6562 34.5938C27.6424 34.6878 27.6424 34.6878 27.6284 34.7838C27.536 35.3771 27.4232 35.9648 27.2929 36.5508C27.2789 36.6176 27.2649 36.6844 27.2505 36.7533C27.1499 37.1922 27.0071 37.5185 26.7187 37.875C26.3437 38.0625 26.3437 38.0625 24.5625 38.0625C24.5625 39.8259 24.5625 41.5894 24.5625 43.4063C28.1821 43.4063 31.8018 43.4063 35.5312 43.4063C35.5621 43.2516 35.5931 43.0969 35.625 42.9375C35.9751 42.2933 36.4981 41.7767 37.1953 41.5313C37.8992 41.3582 38.6114 41.3974 39.2636 41.7246C39.8945 42.1242 40.3533 42.6471 40.5527 43.3737C40.7116 44.2262 40.5595 44.9213 40.1015 45.657C39.7408 46.1304 39.2875 46.4241 38.7187 46.5938C37.8538 46.7083 37.0864 46.6596 36.375 46.125C35.9113 45.7045 35.6791 45.2953 35.4375 44.7188C35.3767 44.7184 35.316 44.7181 35.2535 44.7178C33.7779 44.7102 32.3023 44.7016 30.8267 44.6918C30.1131 44.6871 29.3995 44.6827 28.6859 44.6792C28.0641 44.6761 27.4423 44.6724 26.8205 44.6679C26.4912 44.6655 26.1618 44.6635 25.8324 44.6622C25.4651 44.6608 25.0979 44.6579 24.7306 44.6549C24.5659 44.6546 24.5659 44.6546 24.3979 44.6543C24.2983 44.6532 24.1986 44.6522 24.0959 44.6511C24.009 44.6506 23.9221 44.6501 23.8325 44.6495C23.625 44.625 23.625 44.625 23.4375 44.4375C23.4149 44.1729 23.4149 44.1729 23.4162 43.831C23.4161 43.7688 23.4161 43.7066 23.4161 43.6425C23.4162 43.4366 23.4177 43.2306 23.4191 43.0247C23.4195 42.882 23.4198 42.7393 23.4199 42.5967C23.4207 42.2209 23.4225 41.8452 23.4246 41.4694C23.4265 41.0861 23.4274 40.7028 23.4283 40.3195C23.4303 39.5671 23.4335 38.8148 23.4375 38.0625C23.3154 38.0669 23.1933 38.0712 23.0676 38.0757C22.9057 38.0792 22.7439 38.0826 22.582 38.0859C22.5017 38.0891 22.4215 38.0922 22.3388 38.0955C21.8129 38.1036 21.5062 38.0475 21.0937 37.6875C20.7861 37.1441 20.6868 36.5366 20.5605 35.9297C20.5289 35.7834 20.5289 35.7834 20.4966 35.6342C20.3437 34.9157 20.3437 34.9157 20.3437 34.5938C20.215 34.5483 20.086 34.5035 19.957 34.459C19.8493 34.4215 19.8493 34.4215 19.7395 34.3832C19.6209 34.3482 19.6209 34.3482 19.5 34.3125C19.4122 34.285 19.3245 34.2574 19.2341 34.229C18.8015 34.2141 18.5745 34.4091 18.2343 34.6582C18.1745 34.7002 18.1147 34.7422 18.0531 34.7855C17.9399 34.8649 17.8272 34.9451 17.7152 35.0261C17.5312 35.1563 17.5312 35.1563 17.2332 35.2747C16.9121 35.5861 16.9227 35.6889 16.8962 36.1246C16.8924 36.3769 16.8915 36.6281 16.8933 36.8804C16.8922 37.0144 16.8909 37.1484 16.8894 37.2823C16.886 37.6344 16.886 37.9863 16.8866 38.3384C16.8867 38.6979 16.8836 39.0573 16.8808 39.4168C16.8758 40.1216 16.8742 40.8264 16.875 41.5313C16.9844 41.5511 16.9844 41.5511 17.096 41.5713C17.7158 41.7057 18.2144 42.1523 18.565 42.665C18.9297 43.3797 18.9902 44.2622 18.7441 45.0293C18.4375 45.7102 17.9154 46.1861 17.25 46.5C16.5152 46.7287 15.747 46.6792 15.0527 46.3594C14.3412 45.9586 13.9564 45.4326 13.7314 44.6517C13.5957 43.9904 13.6523 43.3516 13.9687 42.75C14.328 42.239 14.6448 41.8501 15.2504 41.6592C15.3264 41.6349 15.4024 41.6107 15.4807 41.5857C15.5386 41.5677 15.5965 41.5498 15.6562 41.5313C15.7342 40.5964 15.782 39.6624 15.8027 38.7246C15.8042 38.656 15.8057 38.5873 15.8073 38.5166C15.836 36.8975 15.8106 35.4857 14.6656 34.2247C14.0833 33.6396 13.4395 33.1181 12.7619 32.6476C12.4687 32.4375 12.4687 32.4375 12.375 32.25C12.2661 31.4386 12.4588 30.9439 12.9199 30.2871C12.9712 30.21 13.0225 30.1328 13.0753 30.0533C13.2614 29.7752 13.4481 29.5017 13.6584 29.2414C13.8067 29.064 13.8067 29.064 13.7695 28.8106C13.6661 28.4192 13.541 28.0378 13.4062 27.6563C13.3121 27.6425 13.3121 27.6425 13.2161 27.6284C12.6228 27.536 12.0352 27.4233 11.4492 27.293C11.3823 27.279 11.3155 27.265 11.2467 27.2506C10.8077 27.1499 10.4815 27.0072 10.125 26.7188C9.93745 26.3438 9.93745 26.3438 9.93745 24.5625C8.17402 24.5625 6.41058 24.5625 4.5937 24.5625C4.5937 28.1822 4.5937 31.8019 4.5937 35.5313C4.74839 35.5622 4.90308 35.5931 5.06245 35.625C5.72144 35.9832 6.23099 36.5061 6.46284 37.2246C6.6571 38.0235 6.54545 38.64 6.18745 39.375C5.78705 39.9832 5.29451 40.3478 4.59846 40.5542C3.76939 40.7248 3.05365 40.544 2.34297 40.1016C1.86952 39.7408 1.57586 39.2875 1.4062 38.7188C1.2917 37.8539 1.34037 37.0865 1.87495 36.375C2.29547 35.9114 2.70469 35.6792 3.2812 35.4375C3.28151 35.3768 3.28182 35.3161 3.28214 35.2536C3.28975 33.7779 3.29838 32.3023 3.30816 30.8267C3.31286 30.1132 3.31722 29.3996 3.32075 28.686C3.32384 28.0642 3.32757 27.4424 3.33209 26.8206C3.33446 26.4912 3.3365 26.1618 3.33777 25.8325C3.33919 25.4652 3.34206 25.0979 3.34506 24.7306C3.34526 24.6209 3.34547 24.5111 3.34568 24.398C3.34672 24.2983 3.34777 24.1987 3.34885 24.096C3.34937 24.0091 3.34988 23.9221 3.35042 23.8326C3.37495 23.625 3.37495 23.625 3.56245 23.4375C3.82702 23.415 3.82702 23.415 4.16894 23.4162C4.23115 23.4162 4.29336 23.4162 4.35745 23.4161C4.56341 23.4163 4.76934 23.4177 4.9753 23.4192C5.11796 23.4195 5.26062 23.4198 5.40328 23.42C5.77904 23.4207 6.15478 23.4226 6.53054 23.4246C6.91385 23.4265 7.29717 23.4274 7.6805 23.4284C8.43282 23.4304 9.18514 23.4336 9.93745 23.4375C9.9331 23.3155 9.92875 23.1934 9.92427 23.0676C9.92075 22.9058 9.91734 22.7439 9.91402 22.582C9.91087 22.5018 9.90773 22.4216 9.90449 22.3389C9.8964 21.813 9.95243 21.5062 10.3125 21.0938C10.8559 20.7862 11.4634 20.6869 12.0703 20.5606C12.1678 20.5395 12.2653 20.5184 12.3658 20.4967C13.0843 20.3438 13.0843 20.3438 13.4062 20.3438C13.4517 20.215 13.4965 20.0861 13.541 19.957C13.566 19.8853 13.591 19.8135 13.6168 19.7395C13.6401 19.6605 13.6634 19.5814 13.6875 19.5C13.715 19.4123 13.7426 19.3245 13.7709 19.2341C13.7859 18.8016 13.5908 18.5745 13.3418 18.2344C13.2998 18.1746 13.2578 18.1147 13.2145 18.0531C13.135 17.94 13.0549 17.8273 12.9738 17.7153C12.8437 17.5313 12.8437 17.5313 12.7252 17.2333C12.4138 16.9122 12.3111 16.9227 11.8753 16.8963C11.623 16.8924 11.3718 16.8915 11.1196 16.8933C10.9856 16.8923 10.8516 16.891 10.7176 16.8894C10.3656 16.886 10.0136 16.886 9.66158 16.8867C9.30211 16.8868 8.94267 16.8837 8.58321 16.8809C7.87836 16.8758 7.17357 16.8743 6.4687 16.875C6.44888 16.9844 6.44888 16.9844 6.42865 17.096C6.29431 17.7159 5.84767 18.2144 5.33491 18.5651C4.62028 18.9297 3.73772 18.9902 2.97066 18.7441C2.28976 18.4375 1.81384 17.9155 1.49995 17.25C1.27122 16.5152 1.32071 15.7471 1.64058 15.0527C2.04139 14.3412 2.56734 13.9565 3.34822 13.7315C4.01142 13.5954 4.64457 13.6572 5.24995 13.9688C5.83545 14.3789 6.20558 14.8052 6.4687 15.4688C6.4687 15.5306 6.4687 15.5925 6.4687 15.6563C7.40359 15.7342 8.33759 15.7821 9.27534 15.8027C9.34399 15.8043 9.41263 15.8058 9.48335 15.8074C11.1025 15.836 12.5142 15.8107 13.7752 14.6657C14.3604 14.0833 14.8818 13.4396 15.3524 12.7619C15.5625 12.4688 15.5625 12.4688 15.75 12.375C16.5614 12.2662 17.0561 12.4589 17.7128 12.9199C17.79 12.9712 17.8672 13.0225 17.9467 13.0754C18.2247 13.2614 18.4982 13.4481 18.7586 13.6585C18.936 13.8067 18.936 13.8067 19.1894 13.7695C19.5808 13.6662 19.9621 13.5411 20.3437 13.4063C20.3575 13.3122 20.3575 13.3122 20.3715 13.2162C20.4639 12.6229 20.5767 12.0352 20.707 11.4492C20.721 11.3824 20.735 11.3156 20.7494 11.2467C20.85 10.8078 20.9928 10.4816 21.2812 10.125C21.6562 9.93751 21.6562 9.93751 23.4375 9.93751C23.4375 8.17407 23.4375 6.41063 23.4375 4.59376C19.8178 4.59376 16.1981 4.59376 12.4687 4.59376C12.4378 4.74845 12.4068 4.90313 12.375 5.06251C12.0232 5.70969 11.4998 6.2247 10.7988 6.46876C10.0003 6.66441 9.27421 6.54461 8.55867 6.14759C7.92753 5.71429 7.54649 5.15905 7.4062 4.40626C7.29955 3.57305 7.51835 2.84183 8.0273 2.17384C8.85202 1.31024 10.1123 1.10492 11.2031 1.59376ZM8.91206 3.0586C8.67199 3.45144 8.59776 3.76061 8.62495 4.21876C8.78329 4.7031 9.04888 4.96743 9.4687 5.25001C9.86417 5.36505 10.0707 5.36058 10.4648 5.23829C10.8874 5.00353 11.1882 4.77895 11.3437 4.31251C11.3908 3.73833 11.353 3.45702 10.9687 3.00001C10.2926 2.34169 9.57635 2.46499 8.91206 3.0586ZM30.5273 3.25196C30.3301 3.65401 30.2984 3.9665 30.375 4.40626C30.57 4.8197 30.8171 5.0777 31.2191 5.28516C31.6641 5.42451 32.0894 5.31067 32.5136 5.1504C32.8839 4.82246 33.0562 4.41878 33.1464 3.93751C33.0527 3.43765 32.7915 3.05428 32.414 2.71876C31.6318 2.43432 31.0726 2.6349 30.5273 3.25196ZM42.955 9.16407C42.7207 9.51221 42.6562 9.70659 42.6562 10.125C42.8079 10.6137 43.0171 10.9192 43.4062 11.25C43.7557 11.3665 44.0744 11.3934 44.4375 11.3438C44.8411 11.1342 45.1502 10.8977 45.375 10.5C45.4528 10.0258 45.4299 9.67051 45.2109 9.24024C44.8275 8.80362 44.5714 8.66421 43.9914 8.61951C43.526 8.63168 43.2766 8.84965 42.955 9.16407ZM22.0312 11.1563C21.8616 11.9945 21.8616 11.9945 21.6947 12.8334C21.6728 12.9386 21.6509 13.0437 21.6284 13.1521C21.6068 13.2591 21.5852 13.3662 21.5629 13.4764C21.4392 13.8766 21.2689 14.2123 20.9283 14.4679C20.8734 14.4924 20.8185 14.517 20.7619 14.5422C20.7003 14.5701 20.6386 14.598 20.5751 14.6268C20.5103 14.6533 20.4456 14.6798 20.3789 14.707C20.3117 14.7348 20.2445 14.7627 20.1753 14.7913C19.6627 14.9928 19.2041 15.1543 18.6562 15C18.1427 14.7651 17.6851 14.4514 17.2229 14.1299C17.1235 14.0612 17.0242 13.9926 16.9218 13.9219C16.8319 13.8571 16.742 13.7923 16.6494 13.7256C16.4244 13.5729 16.4244 13.5729 16.2202 13.6181C15.9041 13.7342 15.6921 13.9828 15.4581 14.2167C15.4043 14.2698 15.3505 14.3228 15.2951 14.3775C15.1818 14.4898 15.0689 14.6024 14.9564 14.7154C14.7834 14.8884 14.6086 15.0593 14.4336 15.2302C14.3238 15.3395 14.2141 15.4489 14.1046 15.5585C14.0519 15.6096 13.9993 15.6607 13.9451 15.7133C13.7827 15.8731 13.7827 15.8731 13.5937 16.125C13.5971 16.4088 13.7371 16.6058 13.8885 16.8417C13.9288 16.9052 13.9691 16.9687 14.0106 17.0341C14.0529 17.0996 14.0951 17.165 14.1386 17.2324C15.1499 18.8139 15.1499 18.8139 15 19.5938C14.9163 19.8618 14.8155 20.12 14.707 20.3789C14.6672 20.476 14.6672 20.476 14.6267 20.575C14.5988 20.6367 14.5709 20.6984 14.5422 20.762C14.5176 20.8169 14.4931 20.8718 14.4678 20.9284C14.1358 21.3709 13.6745 21.523 13.1521 21.6284C13.0469 21.6503 12.9417 21.6722 12.8333 21.6948C12.7014 21.7208 12.5695 21.7467 12.4335 21.7734C12.012 21.8585 11.5905 21.9436 11.1562 22.0313C11.1562 23.3306 11.1562 24.63 11.1562 25.9688C11.9945 26.1384 11.9945 26.1384 12.8333 26.3052C12.9911 26.3381 12.9911 26.3381 13.1521 26.3716C13.2591 26.3932 13.3661 26.4148 13.4764 26.4371C13.8765 26.5607 14.2123 26.7311 14.4678 27.0716C14.4924 27.1266 14.5169 27.1815 14.5422 27.238C14.5701 27.2997 14.598 27.3614 14.6267 27.4249C14.6532 27.4897 14.6797 27.5544 14.707 27.6211C14.7348 27.6883 14.7626 27.7554 14.7913 27.8246C14.9928 28.3372 15.1542 28.7958 15 29.3438C14.765 29.8573 14.4513 30.3148 14.1298 30.7771C14.0612 30.8764 13.9926 30.9758 13.9218 31.0781C13.8571 31.168 13.7923 31.258 13.7255 31.3506C13.5728 31.5755 13.5728 31.5755 13.6181 31.7797C13.7341 32.0959 13.9827 32.3079 14.2166 32.5419C14.2962 32.6226 14.2962 32.6226 14.3775 32.7049C14.4897 32.8182 14.6024 32.9311 14.7153 33.0436C14.8883 33.2165 15.0592 33.3913 15.2301 33.5664C15.3394 33.6762 15.4489 33.7858 15.5584 33.8954C15.6095 33.948 15.6606 34.0006 15.7132 34.0549C15.8731 34.2172 15.8731 34.2172 16.125 34.4063C16.4088 34.4029 16.6058 34.2629 16.8416 34.1115C16.9051 34.0712 16.9686 34.0309 17.0341 33.9893C17.1322 33.926 17.1322 33.926 17.2324 33.8613C18.8139 32.8501 18.8139 32.8501 19.5937 33C19.8618 33.0836 20.12 33.1844 20.3789 33.293C20.4436 33.3195 20.5083 33.346 20.5749 33.3733C20.6675 33.4151 20.6675 33.4151 20.7619 33.4578C20.8168 33.4823 20.8717 33.5069 20.9283 33.5322C21.3708 33.8642 21.5229 34.3255 21.6284 34.8479C21.6503 34.9531 21.6722 35.0583 21.6947 35.1666C21.7207 35.2986 21.7467 35.4305 21.7734 35.5664C21.8585 35.9879 21.9435 36.4095 22.0312 36.8438C23.3306 36.8438 24.63 36.8438 25.9687 36.8438C26.1383 36.0055 26.1383 36.0055 26.3052 35.1666C26.3271 35.0615 26.349 34.9563 26.3715 34.8479C26.3931 34.7409 26.4147 34.6339 26.437 34.5236C26.5607 34.1234 26.731 33.7877 27.0716 33.5322C27.1265 33.5076 27.1814 33.4831 27.238 33.4578C27.2997 33.4299 27.3613 33.402 27.4249 33.3732C27.522 33.3335 27.522 33.3335 27.621 33.293C27.6882 33.2652 27.7554 33.2374 27.8246 33.2087C28.3372 33.0072 28.7958 32.8457 29.3437 33C29.8572 33.235 30.3148 33.5486 30.7771 33.8701C30.8764 33.9388 30.9757 34.0074 31.0781 34.0781C31.168 34.1429 31.2579 34.2077 31.3505 34.2744C31.5755 34.4271 31.5755 34.4271 31.7797 34.3819C32.0959 34.2658 32.3078 34.0172 32.5418 33.7833C32.5956 33.7303 32.6494 33.6772 32.7048 33.6225C32.8181 33.5102 32.931 33.3976 33.0436 33.2846C33.2165 33.1116 33.3913 32.9407 33.5663 32.7698C33.6761 32.6605 33.7858 32.5511 33.8953 32.4415C33.9743 32.3649 33.9743 32.3649 34.0548 32.2867C34.2172 32.1269 34.2172 32.1269 34.4062 31.875C34.4029 31.5912 34.2628 31.3942 34.1114 31.1583C34.0509 31.0631 34.0509 31.0631 33.9893 30.9659C33.9259 30.8677 33.9259 30.8677 33.8613 30.7676C32.85 29.1861 32.85 29.1861 33 28.4063C33.0836 28.1382 33.1844 27.88 33.2929 27.6211C33.3194 27.5564 33.3459 27.4917 33.3732 27.425C33.4151 27.3325 33.4151 27.3325 33.4577 27.238C33.4945 27.1557 33.4945 27.1557 33.5321 27.0716C33.8641 26.6292 34.3254 26.477 34.8479 26.3716C34.953 26.3497 35.0582 26.3278 35.1666 26.3052C35.2985 26.2793 35.4304 26.2533 35.5664 26.2266C35.9879 26.1415 36.4094 26.0564 36.8437 25.9688C36.8437 24.6694 36.8437 23.37 36.8437 22.0313C36.0054 21.8617 36.0054 21.8617 35.1666 21.6948C35.0614 21.6729 34.9562 21.651 34.8479 21.6284C34.7408 21.6068 34.6338 21.5852 34.5235 21.563C34.1234 21.4393 33.7876 21.2689 33.5321 20.9284C33.5076 20.8735 33.483 20.8185 33.4577 20.762C33.4298 20.7003 33.4019 20.6386 33.3732 20.5751C33.3334 20.478 33.3334 20.478 33.2929 20.3789C33.2651 20.3118 33.2373 20.2446 33.2086 20.1754C33.0071 19.6628 32.8457 19.2042 33 18.6563C33.2349 18.1427 33.5486 17.6852 33.8701 17.2229C33.9387 17.1236 34.0074 17.0242 34.0781 16.9219C34.1429 16.832 34.2076 16.7421 34.2744 16.6494C34.4271 16.4245 34.4271 16.4245 34.3818 16.2203C34.2658 15.9041 34.0172 15.6921 33.7833 15.4581C33.7302 15.4043 33.6771 15.3505 33.6224 15.2951C33.5102 15.1819 33.3975 15.069 33.2846 14.9564C33.1116 14.7835 32.9407 14.6087 32.7698 14.4337C32.6605 14.3239 32.551 14.2142 32.4415 14.1046C32.3648 14.0257 32.3649 14.0257 32.2867 13.9452C32.1268 13.7828 32.1268 13.7828 31.875 13.5938C31.5911 13.5971 31.3941 13.7372 31.1583 13.8886C31.063 13.949 31.063 13.949 30.9658 14.0107C30.9004 14.0529 30.835 14.0952 30.7675 14.1387C29.186 15.1499 29.186 15.1499 28.4062 15C28.1381 14.9164 27.8799 14.8156 27.621 14.707C27.524 14.6673 27.524 14.6673 27.425 14.6267C27.3633 14.5988 27.3016 14.571 27.238 14.5422C27.1556 14.5054 27.1556 14.5054 27.0716 14.4679C26.6291 14.1358 26.477 13.6745 26.3715 13.1521C26.3387 12.9943 26.3387 12.9943 26.3052 12.8334C26.2792 12.7014 26.2533 12.5695 26.2265 12.4336C26.1414 12.0121 26.0564 11.5906 25.9687 11.1563C24.6693 11.1563 23.37 11.1563 22.0312 11.1563ZM2.7187 15.5859C2.58249 15.9605 2.56307 16.294 2.62495 16.6875C2.84649 17.1391 3.11085 17.4035 3.56245 17.625C3.99907 17.7018 4.31502 17.668 4.71675 17.4785C5.06902 17.159 5.32844 16.8718 5.35542 16.3803C5.32181 15.9593 5.25449 15.6039 4.9687 15.2813C4.12228 14.712 3.39649 14.8234 2.7187 15.5859ZM42.9104 30.8914C42.644 31.2809 42.6189 31.5956 42.7001 32.0556C42.7902 32.4072 42.8896 32.6235 43.1967 32.8301C43.5809 33.0412 43.9012 33.1767 44.3437 33.0938C44.7424 32.9146 45.0267 32.7192 45.2812 32.3613C45.4404 31.8538 45.4636 31.4898 45.2226 31.0078C44.9328 30.6723 44.6848 30.4185 44.2335 30.3391C43.6635 30.3104 43.2919 30.4451 42.9104 30.8914ZM2.7773 37.2305C2.55162 37.6298 2.55312 37.9893 2.62495 38.4375C2.81032 38.8016 3.00809 39.0929 3.37495 39.2813C3.78917 39.3834 4.115 39.4089 4.52339 39.2754C4.94198 38.9805 5.19912 38.706 5.3437 38.209C5.3437 37.6769 5.17389 37.3469 4.82808 36.9492C4.48716 36.6594 4.19849 36.6234 3.75545 36.6299C3.33887 36.6868 3.07876 36.9608 2.7773 37.2305ZM15.2812 43.0313C15.0472 43.3547 14.9268 43.6717 14.8535 44.0625C14.9516 44.5859 15.2059 44.9736 15.6386 45.2813C16.1462 45.4405 16.5102 45.4636 16.9921 45.2227C17.3277 44.9329 17.5814 44.6848 17.6608 44.2335C17.6797 43.8587 17.6403 43.6264 17.4785 43.2832C17.1169 42.8846 16.8013 42.6859 16.2656 42.6094C15.8734 42.6654 15.577 42.7691 15.2812 43.0313ZM36.9008 43.1763C36.6279 43.5952 36.5938 43.9463 36.6562 44.4375C36.8658 44.8411 37.1023 45.1502 37.5 45.375C37.9742 45.4529 38.3295 45.43 38.7597 45.2109C39.1963 44.8276 39.3358 44.5715 39.3804 43.9915C39.3684 43.5287 39.1507 43.2784 38.8418 42.9551C38.1737 42.5139 37.4559 42.5589 36.9008 43.1763Z" fill="#F5F5F5"></path>
  <path d="M27.6047 19.1948C27.6956 19.2686 27.7866 19.3425 27.8802 19.4185C28.0102 19.5229 28.0102 19.5229 28.1428 19.6293C29.242 20.6143 29.8592 22.0851 29.9936 23.5375C30.0613 25.1576 29.594 26.6194 28.5731 27.8786C28.5036 27.9653 28.4342 28.052 28.3626 28.1413C27.3783 29.2414 25.9086 29.8591 24.4574 29.9936C22.8386 30.0613 21.3779 29.5937 20.1198 28.572C20.0331 28.5025 19.9465 28.4329 19.8572 28.3613C18.758 27.3762 18.1408 25.9054 18.0064 24.4531C17.9387 22.833 18.406 21.3711 19.4269 20.112C19.4964 20.0253 19.5658 19.9386 19.6374 19.8492C21.6634 17.5849 25.225 17.4402 27.6047 19.1948ZM20.6741 21.4989C20.0053 22.378 19.7106 23.4526 19.8426 24.55C20.1541 25.8882 20.8411 26.7752 21.9213 27.6012C22.8429 28.1437 23.8224 28.3248 24.8737 28.0823C26.2256 27.6632 27.1492 26.8478 27.8629 25.6335C28.2906 24.5634 28.2642 23.551 27.8662 22.4822C27.4273 21.4606 26.6047 20.5601 25.5899 20.0876C23.623 19.4476 22.0573 19.9827 20.6741 21.4989Z" fill="#F5F5F5"></path>
</svg>
