<?xml version="1.0" encoding="UTF-8"?>
<svg xmlns="http://www.w3.org/2000/svg" width="48" height="48" viewBox="0 0 48 48" fill="none">
  <g clip-path="url(#clip0_4393_102)">
    <path d="M27.074 23.0979C28.1484 23.8857 28.6727 24.9996 28.9186 26.2913C28.9454 26.4969 28.96 26.699 28.9687 26.9061C28.9736 26.9803 28.9784 27.0545 28.9834 27.131C29.0452 28.8457 28.5294 30.5281 27.4687 31.8749C27.3817 31.9996 27.3817 31.9996 27.293 32.1268C27.0948 32.3425 26.8913 32.5071 26.6594 32.6853C26.5829 32.7442 26.5064 32.8032 26.4276 32.8639C26.3397 32.9312 26.3397 32.9312 26.25 32.9999C26.3117 33.0088 26.3733 33.0177 26.4369 33.0269C31.7175 33.8006 31.7175 33.8006 33.2413 35.7102C34.0595 36.9094 34.0607 38.125 34.0594 39.5246C34.0598 39.6936 34.0602 39.8626 34.0607 40.0316C34.0614 40.3844 34.0613 40.7372 34.0608 41.0899C34.0603 41.5403 34.0619 41.9906 34.0641 42.4409C34.0654 42.7894 34.0655 43.1379 34.0652 43.4864C34.0653 43.6524 34.0658 43.8184 34.0667 43.9844C34.0759 45.8188 34.0759 45.8188 33.5449 46.6229C32.757 47.3758 31.9095 47.3031 30.8887 47.2969C30.7214 47.2973 30.5541 47.2978 30.3868 47.2984C29.934 47.2997 29.4812 47.2987 29.0283 47.2972C28.5539 47.2959 28.0794 47.2965 27.605 47.2968C26.8085 47.297 26.0121 47.2958 25.2157 47.2936C24.2952 47.2911 23.3748 47.291 22.4544 47.2921C21.5682 47.2931 20.682 47.2925 19.7958 47.2912C19.4189 47.2906 19.0421 47.2906 18.6652 47.2911C18.2215 47.2915 17.7778 47.2906 17.3341 47.2885C17.1714 47.288 17.0087 47.288 16.8459 47.2884C16.6236 47.289 16.4014 47.2878 16.1791 47.2862C16.1149 47.2868 16.0506 47.2873 15.9844 47.2879C15.3602 47.2797 14.8798 47.0243 14.4375 46.5936C14.0577 45.9755 13.9547 45.451 13.9536 44.7296C13.9532 44.6555 13.9527 44.5813 13.9522 44.5049C13.9509 44.2598 13.9502 44.0146 13.9497 43.7694C13.9492 43.5982 13.9486 43.4269 13.9481 43.2557C13.9471 42.8964 13.9466 42.537 13.9462 42.1776C13.9457 41.7197 13.9435 41.2619 13.9408 40.804C13.939 40.4499 13.9386 40.0959 13.9384 39.7418C13.9381 39.5732 13.9374 39.4045 13.9361 39.2359C13.926 37.744 14.0349 36.4639 15.1036 35.3198C16.8886 33.6549 19.4231 33.3073 21.75 32.9999C21.691 32.9577 21.632 32.9155 21.5713 32.8721C20.0864 31.7562 19.3252 30.0971 19.0547 28.2889C18.9495 26.7108 19.103 25.0626 20.1683 23.8116C21.9072 21.9602 24.9556 21.7233 27.074 23.0979ZM21.5859 24.6854C20.9952 25.391 20.6969 26.0758 20.625 26.9999C20.6199 27.0613 20.6148 27.1227 20.6096 27.1859C20.5538 28.5368 21.0027 29.886 21.8437 30.9374C22.4428 31.5638 23.0091 31.9829 23.8971 32.0616C24.7471 32.0648 25.3779 31.6925 25.9845 31.1208C26.967 30.0793 27.4191 28.6729 27.3948 27.2482C27.3165 26.2649 27.1054 25.2506 26.3335 24.5774C24.8865 23.557 22.9646 23.5261 21.5859 24.6854ZM16.3136 36.4536C15.4576 37.3486 15.5204 38.4032 15.5251 39.5642C15.525 39.7281 15.5247 39.8921 15.5243 40.056C15.5239 40.3981 15.5245 40.7401 15.5258 41.0822C15.5274 41.5205 15.5265 41.9588 15.5248 42.3971C15.5238 42.7349 15.5241 43.0728 15.5249 43.4107C15.525 43.5723 15.5248 43.734 15.5242 43.8957C15.5234 44.1212 15.5245 44.3466 15.5261 44.5721C15.5255 44.6386 15.525 44.7052 15.5244 44.7738C15.5281 45.0592 15.5483 45.2554 15.6878 45.5071C15.9649 45.7719 16.2398 45.7611 16.6036 45.759C16.7419 45.7586 16.7419 45.7586 16.8829 45.7581C16.9789 45.7573 17.0749 45.7565 17.1738 45.7557C17.2709 45.7553 17.368 45.7549 17.4681 45.7544C17.7079 45.7533 17.9477 45.7518 18.1875 45.7499C18.1878 45.6755 18.1882 45.6012 18.1885 45.5246C18.1921 44.8238 18.1974 44.1231 18.2047 43.4224C18.2084 43.0621 18.2115 42.7019 18.2129 42.3416C18.2143 41.9939 18.2175 41.6462 18.222 41.2985C18.2234 41.1659 18.2242 41.0333 18.2242 40.9007C18.2245 40.7149 18.2272 40.529 18.2301 40.3432C18.2309 40.2375 18.2317 40.1317 18.2326 40.0227C18.2922 39.6883 18.3868 39.5766 18.6562 39.3749C19.0193 39.323 19.2188 39.3047 19.5173 39.5282C19.7378 39.8154 19.7358 39.9833 19.7387 40.3432C19.7415 40.5259 19.7415 40.5259 19.7443 40.7122C19.7445 40.8411 19.7446 40.9701 19.7446 41.099C19.7461 41.2166 19.7476 41.3341 19.7491 41.4553C19.754 41.8946 19.7557 42.334 19.7578 42.7733C19.7655 43.7556 19.7733 44.7378 19.7812 45.7499C22.5656 45.7499 25.35 45.7499 28.2187 45.7499C28.2347 43.7922 28.2347 43.7922 28.2467 41.8344C28.2494 41.5893 28.2523 41.3441 28.2554 41.099C28.2554 41.0354 28.2554 40.9719 28.2555 40.9064C28.2557 40.7187 28.2585 40.5309 28.2613 40.3432C28.2622 40.2375 28.263 40.1317 28.2638 40.0227C28.3235 39.6883 28.4181 39.5766 28.6875 39.3749C29.0506 39.323 29.25 39.3047 29.5486 39.5282C29.7691 39.8154 29.7671 39.9833 29.7699 40.3432C29.7718 40.4633 29.7736 40.5834 29.7755 40.7071C29.7757 40.8378 29.7758 40.9684 29.7759 41.099C29.7773 41.233 29.7788 41.367 29.7806 41.5009C29.7847 41.853 29.7865 42.205 29.788 42.557C29.7898 42.9165 29.7937 43.2759 29.7975 43.6354C29.8045 44.3402 29.8093 45.045 29.8125 45.7499C30.1465 45.7581 30.4804 45.763 30.8144 45.7674C30.9089 45.7698 31.0033 45.7722 31.1006 45.7746C31.7718 45.7909 31.7718 45.7909 32.3437 45.4686C32.4835 45.1892 32.4529 44.9029 32.4541 44.5963C32.455 44.4904 32.455 44.4904 32.456 44.3824C32.4578 44.1479 32.4589 43.9134 32.4598 43.6789C32.4602 43.5987 32.4606 43.5184 32.461 43.4358C32.463 43.0103 32.4643 42.5848 32.4652 42.1593C32.4662 41.7218 32.4694 41.2843 32.4732 40.8468C32.4756 40.5089 32.4764 40.171 32.4767 39.8331C32.4772 39.672 32.4783 39.5109 32.48 39.3498C32.4909 38.2836 32.4809 37.3089 31.7578 36.451C28.5159 33.5428 19.4795 33.524 16.3136 36.4536Z" fill="#FF7705"></path>
    <path d="M18.9966 0.694231C19.1041 0.692116 19.1041 0.692116 19.2138 0.689958C19.4508 0.68592 19.6877 0.684729 19.9247 0.683908C20.09 0.682464 20.2554 0.680978 20.4208 0.679452C20.7677 0.676783 21.1146 0.675714 21.4615 0.675554C21.9042 0.67507 22.3466 0.66899 22.7892 0.661465C23.131 0.656568 23.4728 0.655533 23.8147 0.655538C23.9777 0.654926 24.1408 0.652945 24.3038 0.649521C25.7342 0.62206 25.7342 0.62206 26.3077 1.12993C26.4475 1.28183 26.5844 1.43647 26.7179 1.59394C26.8488 1.72307 26.9808 1.8511 27.1139 1.97787C27.2429 2.10624 27.3716 2.23486 27.5001 2.36372C27.5691 2.43261 27.6381 2.5015 27.7091 2.57247C27.8529 2.7162 27.9966 2.86004 28.1402 3.00399C28.3603 3.22464 28.5809 3.44477 28.8016 3.66487C28.942 3.80534 29.0824 3.94584 29.2228 4.08637C29.2886 4.152 29.3544 4.21762 29.4222 4.28524C29.483 4.34631 29.5438 4.40738 29.6064 4.4703C29.6598 4.52376 29.7131 4.57721 29.7681 4.63229C30.0553 4.94434 30.1165 5.13662 30.118 5.54956C30.1192 5.70078 30.1192 5.70078 30.1204 5.85506C30.1203 6.02097 30.1203 6.02097 30.1201 6.19023C30.1208 6.30671 30.1214 6.4232 30.122 6.54321C30.1235 6.86281 30.1241 7.1824 30.1242 7.50201C30.1244 7.76877 30.1251 8.03554 30.1258 8.3023C30.1273 8.93162 30.1278 9.56094 30.1276 10.1903C30.1275 10.8396 30.1295 11.4889 30.1325 12.1382C30.1349 12.6956 30.1359 13.253 30.1358 13.8105C30.1357 14.1434 30.1363 14.4763 30.1383 14.8093C30.1404 15.1805 30.1396 15.5518 30.1384 15.923C30.1395 16.0334 30.1405 16.1439 30.1416 16.2576C30.1408 16.3587 30.1401 16.4598 30.1392 16.5639C30.1393 16.6517 30.1395 16.7395 30.1396 16.8299C30.0784 17.1352 29.9577 17.2453 29.7179 17.4377C29.4466 17.5281 29.2751 17.5434 28.9931 17.544C28.8563 17.5446 28.8563 17.5446 28.7167 17.5452C28.5668 17.5451 28.5668 17.5451 28.4139 17.5451C28.3085 17.5454 28.2031 17.5457 28.0946 17.546C27.7453 17.5469 27.396 17.5471 27.0467 17.5472C26.8045 17.5475 26.5622 17.5478 26.3199 17.5481C25.8115 17.5487 25.3032 17.5489 24.7949 17.5488C24.2076 17.5488 23.6204 17.5497 23.0332 17.5512C22.468 17.5526 21.9028 17.5529 21.3376 17.5529C21.0973 17.553 20.857 17.5534 20.6166 17.5541C20.2806 17.555 19.9447 17.5548 19.6087 17.5542C19.5091 17.5547 19.4096 17.5553 19.307 17.5558C19.1694 17.5552 19.1694 17.5552 19.029 17.5546C18.9496 17.5547 18.8702 17.5547 18.7884 17.5548C18.5243 17.5276 18.3296 17.4639 18.0929 17.3439C17.864 17.0006 17.8814 16.8359 17.8803 16.4263C17.8799 16.3613 17.8795 16.2962 17.879 16.2292C17.8778 16.0107 17.878 15.7922 17.8782 15.5737C17.8776 15.4173 17.877 15.2608 17.8762 15.1044C17.8746 14.679 17.8741 14.2536 17.874 13.8283C17.8739 13.4734 17.8732 13.1186 17.8725 12.7638C17.871 11.9268 17.8705 11.0898 17.8706 10.2528C17.8708 9.38879 17.8688 8.52477 17.8658 7.66073C17.8634 6.9194 17.8624 6.17808 17.8625 5.43675C17.8625 4.99376 17.862 4.55079 17.86 4.1078C17.8582 3.69127 17.8582 3.27477 17.8595 2.85824C17.8597 2.70525 17.8593 2.55226 17.8582 2.39928C17.8567 2.19062 17.8576 1.9821 17.859 1.77344C17.8589 1.65663 17.8588 1.53981 17.8587 1.41945C17.9642 0.75413 18.4047 0.694032 18.9966 0.694231ZM19.4991 2.25019C19.4991 6.76707 19.4991 11.2839 19.4991 15.9377C22.4691 15.9377 25.4391 15.9377 28.4991 15.9377C28.4991 12.7202 28.4991 9.50269 28.4991 6.18769C27.3545 6.15675 26.2098 6.12582 25.0304 6.09394C24.7491 5.90644 24.7491 5.90644 24.6554 5.62519C24.641 5.36938 24.6313 5.11546 24.6257 4.85945C24.624 4.79338 24.6222 4.72732 24.6204 4.65925C24.614 4.41289 24.6084 4.1665 24.6027 3.92011C24.5891 3.36904 24.5756 2.81797 24.5616 2.25019C22.891 2.25019 21.2204 2.25019 19.4991 2.25019ZM26.1554 3.46894C26.1554 3.84019 26.1554 4.21144 26.1554 4.59394C26.5266 4.59394 26.8979 4.59394 27.2804 4.59394C26.9304 4.16899 26.5881 3.8089 26.1554 3.46894Z" fill="#FF7705"></path>
    <path d="M36.3174 9.15604C36.3866 9.15496 36.4559 9.15387 36.5273 9.15276C36.756 9.14955 36.9847 9.14781 37.2134 9.14636C37.3309 9.14538 37.3309 9.14538 37.4509 9.14439C37.8657 9.14104 38.2805 9.13883 38.6953 9.13754C39.1226 9.13599 39.5498 9.13052 39.977 9.12412C40.3066 9.11991 40.6362 9.11865 40.9658 9.11817C41.1232 9.11744 41.2807 9.1156 41.4381 9.11262C41.6592 9.10871 41.8799 9.10901 42.1009 9.11026C42.1652 9.1082 42.2294 9.10613 42.2955 9.104C42.8111 9.11388 43.0459 9.32287 43.3984 9.66108C43.5928 9.84401 43.7934 9.99861 44.0096 10.1549C45.5402 11.2816 47.1741 12.5891 47.5099 14.5536C47.7042 16.067 47.621 17.6102 47.5336 19.1287C47.4942 19.8296 47.4793 20.5304 47.465 21.2321C47.4417 22.3217 47.4072 23.411 47.3496 24.4993C47.3452 24.6053 47.3409 24.7113 47.3363 24.8205C47.3305 24.9174 47.3247 25.0144 47.3187 25.1144C47.3143 25.1985 47.3099 25.2825 47.3054 25.3692C47.2304 25.6683 47.1187 25.7843 46.8741 25.969C46.6521 26.0164 46.6521 26.0164 46.4015 26.0172C46.3062 26.0184 46.2109 26.0196 46.1127 26.0209C45.9567 26.0199 45.9567 26.0199 45.7976 26.019C45.6327 26.0202 45.6327 26.0202 45.4644 26.0214C45.1632 26.0232 44.8621 26.0233 44.5608 26.0224C44.3092 26.022 44.0576 26.0227 43.806 26.0233C43.2123 26.0249 42.6186 26.0246 42.0249 26.023C41.4128 26.0214 40.8008 26.0229 40.1887 26.026C39.6628 26.0285 39.1369 26.0291 38.611 26.0283C38.2971 26.0279 37.9832 26.0281 37.6692 26.03C37.3191 26.0316 36.969 26.0303 36.6189 26.0282C36.5151 26.0292 36.4113 26.0303 36.3043 26.0315C36.2088 26.0303 36.1132 26.0291 36.0148 26.0279C35.9321 26.0278 35.8493 26.0278 35.7641 26.0277C35.4164 25.9404 35.2772 25.7821 35.0615 25.5002C35.0033 25.1976 35.0033 25.1976 35.0039 24.8485C35.0034 24.784 35.0029 24.7196 35.0023 24.6532C35.0011 24.4378 35.0032 24.2225 35.0054 24.0072C35.0052 23.8525 35.0048 23.6979 35.0042 23.5433C35.0033 23.1237 35.0053 22.7042 35.0078 22.2847C35.0101 21.8457 35.0098 21.4067 35.0098 20.9677C35.0103 20.2306 35.0125 19.4935 35.0159 18.7563C35.0198 17.9039 35.0214 17.0515 35.0218 16.1991C35.0221 15.2917 35.0239 14.3844 35.0262 13.4771C35.0268 13.2155 35.0271 12.954 35.0274 12.6924C35.028 12.2816 35.0295 11.8707 35.0318 11.4599C35.0325 11.309 35.0328 11.1582 35.0329 11.0073C35.033 10.8016 35.0343 10.5958 35.0358 10.3901C35.0363 10.2749 35.0367 10.1597 35.0372 10.041C35.0605 9.76246 35.0969 9.60632 35.249 9.37524C35.5719 9.13662 35.9314 9.15816 36.3174 9.15604ZM36.6553 10.7815C36.6553 15.2674 36.6553 19.7534 36.6553 24.3752C39.6562 24.3752 42.6572 24.3752 45.7491 24.3752C45.7491 21.1887 45.7491 18.0021 45.7491 14.719C44.6044 14.688 43.4597 14.6571 42.2803 14.6252C42.1565 14.5324 42.0328 14.4396 41.9053 14.344C41.8654 14.0645 41.8486 13.8172 41.8482 13.5372C41.8467 13.4675 41.8452 13.3977 41.8437 13.3259C41.8388 13.0657 41.8371 12.8054 41.835 12.5452C41.8273 11.9631 41.8195 11.3811 41.8115 10.7815C40.11 10.7815 38.4084 10.7815 36.6553 10.7815ZM43.4053 12.0002C43.4053 12.3715 43.4053 12.7427 43.4053 13.1252C43.7765 13.1252 44.1478 13.1252 44.5303 13.1252C44.1803 12.7003 43.838 12.3402 43.4053 12.0002Z" fill="#FF7705"></path>
    <path d="M1.92523 9.13912C1.9948 9.13846 2.06437 9.1378 2.13605 9.13713C2.3652 9.13548 2.59423 9.13657 2.82338 9.13784C2.98321 9.13758 3.14304 9.13722 3.30287 9.13675C3.63757 9.1362 3.97223 9.137 4.30692 9.13875C4.73514 9.14089 5.16327 9.13966 5.59149 9.13741C5.92149 9.13605 6.25147 9.13649 6.58147 9.13746C6.73931 9.13771 6.89716 9.13741 7.055 9.13653C7.27603 9.13557 7.49693 9.13704 7.71795 9.13912C7.78269 9.13836 7.84743 9.1376 7.91414 9.13682C8.57388 9.14829 8.95695 9.49683 9.40465 9.9435C9.47908 10.0173 9.55351 10.0912 9.63019 10.1673C9.70873 10.2462 9.78726 10.3251 9.86818 10.4064C9.95017 10.4882 10.0322 10.57 10.1166 10.6543C10.2893 10.8268 10.4617 10.9995 10.6338 11.1725C10.8103 11.3496 10.9869 11.5264 11.1641 11.7028C11.4201 11.9576 11.6755 12.2132 11.9307 12.4689C12.0496 12.5873 12.0496 12.5873 12.171 12.708C12.2442 12.7819 12.3175 12.8557 12.3929 12.9318C12.4574 12.9964 12.5219 13.0611 12.5884 13.1277C12.8838 13.4667 12.9605 13.7306 12.9627 14.178C12.9637 14.2773 12.9646 14.3765 12.9656 14.4787C12.9656 14.5871 12.9657 14.6955 12.9658 14.8071C12.9665 14.9216 12.9673 15.0362 12.9681 15.1541C12.97 15.4679 12.971 15.7817 12.9715 16.0955C12.9718 16.2916 12.9724 16.4877 12.9731 16.6839C12.9754 17.3683 12.9766 18.0526 12.9769 18.737C12.9773 19.3747 12.9801 20.0123 12.984 20.65C12.9872 21.1978 12.9887 21.7455 12.9888 22.2933C12.9888 22.6204 12.9897 22.9474 12.9923 23.2744C12.9952 23.6391 12.9944 24.0038 12.9932 24.3685C12.9953 24.5308 12.9953 24.5308 12.9974 24.6963C12.9934 25.1313 12.9829 25.4187 12.7672 25.8015C12.3115 26.0567 11.8939 26.0335 11.3797 26.0281C11.2696 26.0287 11.1595 26.0294 11.046 26.0301C10.7448 26.0314 10.4437 26.0306 10.1425 26.0288C9.82696 26.0272 9.51146 26.0281 9.19596 26.0285C8.66627 26.029 8.13662 26.0275 7.60694 26.0249C6.99477 26.0218 6.38266 26.0218 5.77049 26.0235C5.18117 26.025 4.59187 26.0243 4.00254 26.0227C3.75191 26.0221 3.5013 26.0222 3.25067 26.0229C2.90074 26.0234 2.5509 26.0215 2.20098 26.0189C2.09699 26.0195 1.99301 26.0201 1.88587 26.0208C1.79058 26.0196 1.6953 26.0184 1.59712 26.0171C1.51442 26.0169 1.43173 26.0166 1.34652 26.0163C1.03832 25.9505 0.932227 25.8495 0.749528 25.5939C0.702075 25.2984 0.702075 25.2984 0.701278 24.9427C0.700627 24.8772 0.699976 24.8117 0.699305 24.7442C0.69759 24.5246 0.698555 24.3052 0.699517 24.0857C0.698855 23.9283 0.698036 23.7709 0.69707 23.6135C0.694958 23.186 0.695237 22.7585 0.696068 22.331C0.696547 21.9743 0.695864 21.6176 0.69518 21.2609C0.693586 20.4196 0.693922 19.5783 0.695489 18.7369C0.697076 17.8684 0.69559 17 0.692562 16.1315C0.690061 15.3862 0.689376 14.6409 0.690172 13.8956C0.690635 13.4503 0.690424 13.005 0.688505 12.5597C0.686787 12.1411 0.687338 11.7226 0.689649 11.3039C0.690119 11.1502 0.689788 10.9965 0.688603 10.8427C0.687115 10.633 0.688506 10.4235 0.690635 10.2138C0.69069 10.0964 0.690745 9.97905 0.690802 9.8581C0.749528 9.56264 0.749528 9.56264 0.967169 9.33742C1.28887 9.14554 1.56116 9.13486 1.92523 9.13912ZM2.24953 10.7814C2.24953 15.2673 2.24953 19.7533 2.24953 24.3751C5.25047 24.3751 8.2514 24.3751 11.3433 24.3751C11.3433 21.1886 11.3433 18.002 11.3433 14.7189C10.1986 14.688 9.0539 14.657 7.87453 14.6251C7.45047 14.2011 7.44321 14.012 7.4424 13.4547C7.44093 13.3869 7.43947 13.3191 7.43796 13.2492C7.43304 12.997 7.43132 12.7446 7.42922 12.4923C7.42148 11.9277 7.41375 11.3631 7.40578 10.7814C5.70422 10.7814 4.00265 10.7814 2.24953 10.7814ZM8.99953 12.0001C8.99953 12.3714 8.99953 12.7426 8.99953 13.1251C9.37078 13.1251 9.74203 13.1251 10.1245 13.1251C9.77456 12.7002 9.4322 12.3401 8.99953 12.0001Z" fill="#FF7705"></path>
    <path d="M41.4375 28.0311C41.6711 28.109 41.7768 28.1658 41.9147 28.3699C42.0312 28.6756 42.0286 28.9679 42.0282 29.2905C42.0286 29.3575 42.029 29.4245 42.0294 29.4936C42.03 29.635 42.03 29.7765 42.0296 29.9179C42.0293 30.1336 42.0315 30.3491 42.0339 30.5647C42.0341 30.7025 42.0342 30.8402 42.0341 30.978C42.0349 31.0421 42.0358 31.1061 42.0367 31.1722C42.0307 31.7925 41.7661 32.1307 41.3444 32.5607C41.2696 32.6373 41.1948 32.7139 41.1177 32.7928C41.0371 32.8742 40.9565 32.9556 40.8735 33.0394C40.7902 33.1238 40.7068 33.2083 40.6209 33.2952C40.4447 33.4733 40.2682 33.6511 40.0914 33.8285C39.8655 34.0554 39.6415 34.2839 39.4178 34.5129C39.2031 34.732 38.9864 34.949 38.77 35.1663C38.6902 35.2485 38.6104 35.3306 38.5282 35.4152C37.9 36.0387 37.9 36.0387 37.5074 36.1047C37.1577 36.0912 37.0092 36.0493 36.75 35.8123C36.6035 35.5077 36.6035 35.5077 36.5625 35.1561C36.8274 34.5636 37.2248 34.2098 37.7091 33.7898C39.6716 32.1979 39.6716 32.1979 40.5596 29.973C40.5368 29.5534 40.4821 29.1445 40.4143 28.7301C40.4062 28.4998 40.4062 28.4998 40.6143 28.1974C40.9246 27.9995 41.076 27.9772 41.4375 28.0311Z" fill="#FF7705"></path>
    <path d="M7.12521 28.0311C7.38632 28.1977 7.38632 28.1977 7.59396 28.4998C7.58442 28.7285 7.58442 28.7285 7.5383 28.9978C7.41042 29.8334 7.34581 30.6251 7.84036 31.3479C8.64778 32.3506 9.62991 33.2237 10.5982 34.068C10.9723 34.3984 11.2706 34.6709 11.4377 35.1561C11.3858 35.5386 11.332 35.7375 11.0451 35.9998C10.7013 36.122 10.461 36.1345 10.1252 35.9998C9.78075 35.7363 9.48467 35.4291 9.18258 35.1187C9.09347 35.029 9.00425 34.9394 8.91493 34.85C8.72858 34.6628 8.54319 34.4747 8.35852 34.2858C8.1218 34.0438 7.88346 33.8034 7.64449 33.5636C7.46054 33.3789 7.27713 33.1936 7.09391 33.0082C6.96352 32.8762 6.83295 32.7444 6.70238 32.6126C6.62379 32.5323 6.54521 32.4519 6.46425 32.369C6.39482 32.2983 6.32539 32.2276 6.25386 32.1548C5.95283 31.8042 5.98517 31.4342 5.98446 30.9963C5.98415 30.9289 5.98384 30.8615 5.98352 30.7921C5.98304 30.6497 5.98282 30.5073 5.98284 30.3649C5.98263 30.1474 5.98093 29.93 5.97915 29.7125C5.97888 29.574 5.97869 29.4355 5.9786 29.297C5.97793 29.2322 5.97726 29.1673 5.97656 29.1005C5.97817 28.7604 5.99362 28.5038 6.18771 28.2186C6.48954 28.003 6.76198 27.9792 7.12521 28.0311Z" fill="#FF7705"></path>
    <path d="M21.6511 12.0784C21.8233 12.0771 21.8233 12.0771 21.999 12.0757C22.1245 12.0752 22.25 12.0748 22.3755 12.0745C22.5043 12.074 22.633 12.0734 22.7618 12.0729C23.0318 12.0719 23.3018 12.0713 23.5718 12.071C23.9172 12.0705 24.2626 12.0682 24.608 12.0656C24.8741 12.0638 25.1401 12.0633 25.4062 12.0632C25.5335 12.0629 25.6608 12.0622 25.7881 12.0609C25.9664 12.0593 26.1448 12.0597 26.3232 12.0601C26.4245 12.0598 26.5259 12.0594 26.6304 12.0591C26.947 12.0987 27.1195 12.1851 27.3742 12.3748C27.5692 12.6672 27.5881 12.7064 27.55 13.031C27.544 13.0948 27.5379 13.1587 27.5317 13.2244C27.4416 13.4813 27.3262 13.5487 27.093 13.6873C26.8155 13.723 26.8155 13.723 26.4884 13.7237C26.3657 13.7246 26.2431 13.7254 26.1167 13.7264C25.9832 13.7259 25.8496 13.7253 25.716 13.7246C25.5787 13.7248 25.4415 13.7251 25.3042 13.7255C25.0167 13.7259 24.7292 13.7253 24.4417 13.724C24.0735 13.7223 23.7053 13.7233 23.3371 13.725C23.0537 13.726 22.7703 13.7256 22.4868 13.7249C22.3511 13.7247 22.2153 13.725 22.0796 13.7256C21.8898 13.7263 21.6999 13.725 21.5101 13.7237C21.3482 13.7233 21.3482 13.7233 21.183 13.723C20.8777 13.6837 20.7494 13.6181 20.5305 13.406C20.4307 13.1576 20.4139 12.922 20.4367 12.656C20.7546 12.1225 21.0619 12.0822 21.6511 12.0784Z" fill="#FF7705"></path>
    <path d="M38.7612 20.5752C38.9418 20.5729 38.9418 20.5729 39.1262 20.5707C39.2569 20.571 39.3876 20.5715 39.5183 20.5721C39.6531 20.5716 39.788 20.571 39.9228 20.5703C40.2049 20.5693 40.487 20.5698 40.7691 20.5711C41.1301 20.5727 41.491 20.5705 41.852 20.5672C42.1303 20.5652 42.4085 20.5653 42.6868 20.5661C42.8199 20.5662 42.9529 20.5655 43.086 20.5641C43.2722 20.5625 43.4584 20.5642 43.6446 20.566C43.7504 20.5661 43.8562 20.5662 43.9652 20.5663C44.3414 20.6441 44.4828 20.7966 44.7185 21.0939C44.7686 21.4507 44.7706 21.6559 44.5955 21.9728C44.2956 22.2616 43.976 22.232 43.5807 22.2355C43.4621 22.2367 43.3436 22.2379 43.2214 22.2392C43.0918 22.2399 42.9621 22.2406 42.8325 22.2413C42.7672 22.2416 42.7018 22.242 42.6345 22.2424C42.2887 22.2444 41.9429 22.2457 41.5971 22.2466C41.2403 22.2476 40.8836 22.2509 40.5268 22.2546C40.2521 22.257 39.9774 22.2578 39.7026 22.2581C39.5711 22.2586 39.4396 22.2597 39.3081 22.2614C39.124 22.2637 38.9397 22.2634 38.7555 22.263C38.5985 22.2638 38.5985 22.2638 38.4383 22.2646C38.0915 22.2085 37.9352 22.0881 37.6873 21.8439C37.625 21.6359 37.625 21.6359 37.6287 21.422C37.6275 21.3515 37.6262 21.2809 37.625 21.2082C37.7865 20.6686 38.2586 20.5779 38.7612 20.5752Z" fill="#FF7705"></path>
    <path d="M4.35539 20.5661C4.47584 20.5649 4.5963 20.5637 4.7204 20.5625C4.85111 20.5637 4.98182 20.5649 5.11253 20.5663C5.24736 20.5662 5.38219 20.566 5.51702 20.5656C5.79917 20.5653 6.08124 20.5667 6.36337 20.5693C6.72435 20.5725 7.0852 20.5719 7.44619 20.5701C7.72448 20.5691 8.00274 20.57 8.28102 20.5714C8.41408 20.5719 8.54715 20.5718 8.68021 20.5713C8.86641 20.5707 9.05262 20.5729 9.23881 20.5752C9.34461 20.5758 9.45041 20.5764 9.55942 20.577C9.90632 20.6358 10.0642 20.7555 10.3127 21.0002C10.375 21.2082 10.375 21.2082 10.3713 21.4221C10.3731 21.528 10.3731 21.528 10.375 21.636C10.282 21.9467 10.1108 22.0422 9.84398 22.219C9.56298 22.266 9.56298 22.266 9.24742 22.266C9.12884 22.2669 9.01027 22.2678 8.8881 22.2687C8.75946 22.2677 8.63082 22.2666 8.50218 22.2655C8.36945 22.2655 8.23672 22.2656 8.10399 22.2659C7.82627 22.266 7.5486 22.2649 7.27089 22.2627C6.9156 22.2601 6.56039 22.2603 6.2051 22.2615C5.93116 22.2622 5.65723 22.2614 5.38329 22.2603C5.25232 22.2598 5.12135 22.2598 4.99039 22.2602C4.8071 22.2604 4.62381 22.2587 4.44053 22.2569C4.3364 22.2563 4.23227 22.2558 4.12498 22.2553C3.80829 22.2144 3.6306 22.1264 3.37523 21.9377C3.2281 21.6435 3.24848 21.4185 3.28148 21.094C3.61261 20.6737 3.82484 20.5665 4.35539 20.5661Z" fill="#FF7705"></path>
    <path d="M38.8187 16.7674C38.9357 16.7668 39.0527 16.7662 39.1732 16.7656C39.3011 16.7655 39.4289 16.7654 39.5568 16.7653C39.6879 16.765 39.819 16.7647 39.9501 16.7644C40.2249 16.7638 40.4997 16.7636 40.7745 16.7637C41.1265 16.7637 41.4784 16.7624 41.8303 16.7608C42.1011 16.7598 42.3719 16.7596 42.6427 16.7596C42.7724 16.7595 42.9021 16.7591 43.0319 16.7584C43.2134 16.7575 43.3949 16.7578 43.5765 16.7583C43.6797 16.7582 43.7829 16.758 43.8893 16.7579C44.1588 16.7812 44.3089 16.8183 44.5317 16.9686C44.7662 17.3202 44.7695 17.4897 44.7192 17.9061C44.4824 18.2066 44.3412 18.3563 43.9618 18.4337C43.854 18.4338 43.7463 18.4339 43.6352 18.434C43.5126 18.4352 43.39 18.4363 43.2636 18.4375C43.1305 18.4364 42.9975 18.4351 42.8644 18.4338C42.7272 18.4339 42.5901 18.4341 42.4529 18.4345C42.166 18.4347 41.8791 18.4334 41.5921 18.4308C41.2246 18.4276 40.8573 18.4281 40.4898 18.4299C40.2067 18.4309 39.9237 18.4301 39.6407 18.4286C39.5052 18.4282 39.3697 18.4282 39.2342 18.4288C39.0448 18.4293 38.8555 18.4271 38.6661 18.4248C38.5585 18.4242 38.4508 18.4237 38.3398 18.4231C38.0046 18.3646 37.8936 18.2659 37.688 17.9998C37.6415 17.7885 37.6415 17.7885 37.647 17.5721C37.6471 17.5004 37.6472 17.4288 37.6473 17.3549C37.6976 17.1091 37.7726 17.027 37.9692 16.8748C38.2742 16.7732 38.4978 16.7686 38.8187 16.7674Z" fill="#FF7705"></path>
    <path d="M4.40026 16.7659C4.51698 16.765 4.6337 16.7641 4.75396 16.7632C4.88199 16.7627 5.01003 16.7623 5.13806 16.762C5.26909 16.7615 5.40012 16.7609 5.53115 16.7604C5.80612 16.7594 6.08108 16.7588 6.35606 16.7585C6.70787 16.758 7.05966 16.7557 7.41147 16.7531C7.68227 16.7513 7.95306 16.7508 8.22387 16.7507C8.35353 16.7504 8.48319 16.7497 8.61284 16.7484C8.79458 16.7468 8.97633 16.7472 9.15807 16.7476C9.31305 16.7471 9.31305 16.7471 9.47116 16.7466C9.81493 16.789 10.0663 16.9094 10.313 17.156C10.3353 17.3366 10.3353 17.3366 10.3423 17.5603C10.3475 17.67 10.3475 17.67 10.3529 17.7819C10.297 18.0872 10.1793 18.183 9.93799 18.3748C9.66115 18.423 9.66115 18.423 9.33486 18.4248C9.15136 18.427 9.15136 18.427 8.96414 18.4293C8.83087 18.4289 8.6976 18.4285 8.56433 18.4279C8.42726 18.4284 8.2902 18.429 8.15313 18.4296C7.86603 18.4306 7.57897 18.4302 7.29186 18.4288C6.92446 18.4272 6.55719 18.4294 6.18981 18.4327C5.90677 18.4348 5.62377 18.4346 5.34074 18.4339C5.20532 18.4338 5.0699 18.4344 4.93449 18.4358C4.74491 18.4374 4.55532 18.4358 4.36575 18.434C4.258 18.4339 4.15025 18.4338 4.03924 18.4337C3.65997 18.3563 3.51914 18.2058 3.28174 17.906C3.229 17.5721 3.229 17.5721 3.28174 17.2498C3.62199 16.8188 3.86834 16.7692 4.40026 16.7659Z" fill="#FF7705"></path>
    <path d="M21.5113 8.30737C21.6339 8.30649 21.7566 8.3056 21.8829 8.30469C22.0165 8.30519 22.1501 8.30577 22.2836 8.30641C22.4209 8.30622 22.5582 8.30595 22.6955 8.3056C22.983 8.30518 23.2705 8.30578 23.558 8.3071C23.9262 8.3087 24.2943 8.30778 24.6626 8.30609C24.946 8.30508 25.2294 8.3054 25.5128 8.30613C25.6486 8.30632 25.7843 8.30609 25.9201 8.30543C26.1099 8.30472 26.2998 8.306 26.4896 8.30737C26.6515 8.30771 26.6515 8.30771 26.8167 8.30805C27.1245 8.34766 27.2532 8.40502 27.4692 8.62502C27.5695 8.98613 27.5976 9.19454 27.4575 9.54494C27.198 9.84765 26.9399 9.92619 26.5462 9.96133C26.4487 9.96147 26.3512 9.96162 26.2508 9.96178C26.1397 9.96237 26.0287 9.96296 25.9142 9.96357C25.7951 9.96319 25.6759 9.96281 25.5532 9.96242C25.4301 9.9626 25.307 9.96278 25.1802 9.96296C24.9202 9.96324 24.6601 9.96284 24.4001 9.96196C24.0675 9.96089 23.7349 9.96151 23.4024 9.96263C23.0841 9.96347 22.7659 9.96288 22.4477 9.96242C22.3286 9.9628 22.2094 9.96318 22.0866 9.96357C21.92 9.96268 21.92 9.96268 21.7501 9.96178C21.6526 9.96163 21.5551 9.96148 21.4547 9.96133C21.061 9.92619 20.8029 9.84765 20.5434 9.54494C20.4032 9.19454 20.4314 8.98613 20.5317 8.62502C20.8356 8.31543 21.0887 8.30825 21.5113 8.30737Z" fill="#FF7705"></path>
    <path d="M5.05696 13.1076C5.16881 13.1064 5.28066 13.1053 5.39589 13.1041C5.55714 13.1038 5.55714 13.1038 5.72164 13.1035C5.82 13.1032 5.91836 13.1028 6.01971 13.1024C6.28373 13.1253 6.43525 13.1705 6.65657 13.3127C6.87217 13.6145 6.89596 13.8869 6.84407 14.2502C6.68999 14.4975 6.62587 14.5856 6.37532 14.7189C5.93718 14.7902 5.5058 14.7842 5.06282 14.7775C4.88409 14.7802 4.88409 14.7802 4.70174 14.783C3.73205 14.7779 3.73205 14.7779 3.43685 14.5017C3.23332 14.172 3.22614 13.975 3.28157 13.5939C3.64555 12.9353 4.39848 13.1079 5.05696 13.1076Z" fill="#FF7705"></path>
    <path d="M38.739 13.0752C38.9049 13.0745 38.9049 13.0745 39.0741 13.0737C39.2461 13.0759 39.2461 13.0759 39.4216 13.0781C39.5363 13.0767 39.651 13.0752 39.7692 13.0737C39.8797 13.0742 39.9903 13.0747 40.1042 13.0752C40.2552 13.0758 40.2552 13.0758 40.4091 13.0765C40.752 13.1363 40.9092 13.259 41.156 13.5C41.2642 13.7813 41.2616 13.9237 41.1853 14.2148C41.0432 14.4719 40.9385 14.5682 40.6873 14.7188C40.2695 14.7779 39.8489 14.7622 39.4275 14.7598C39.3124 14.7616 39.1973 14.7635 39.0787 14.7654C38.9122 14.7654 38.9122 14.7654 38.7423 14.7653C38.5905 14.7655 38.5905 14.7655 38.4356 14.7658C38.0914 14.7079 37.9343 14.5858 37.6873 14.3438C37.625 14.1357 37.625 14.1357 37.6287 13.9219C37.6275 13.8513 37.6262 13.7807 37.625 13.708C37.783 13.1802 38.244 13.0773 38.739 13.0752Z" fill="#FF7705"></path>
    <path d="M21.6647 4.56909C21.7537 4.56885 21.8427 4.56861 21.9344 4.56836C22.0263 4.56908 22.1182 4.56981 22.2129 4.57056C22.3044 4.56983 22.396 4.56911 22.4903 4.56836C22.9612 4.56964 23.3797 4.57307 23.8125 4.78149C24.0134 5.08284 24.0281 5.26658 24.0432 5.62195C23.979 5.90529 23.8503 6.00777 23.625 6.18774C23.3388 6.23478 23.3388 6.23478 23.0068 6.23425C22.8272 6.23434 22.8272 6.23434 22.6439 6.23444C22.5818 6.23346 22.5197 6.23249 22.4557 6.23148C22.2662 6.22877 22.0769 6.22955 21.8873 6.23077C20.9725 6.22477 20.9725 6.22477 20.6856 6.06435C20.4406 5.81382 20.4434 5.59215 20.4375 5.25024C20.5586 4.94741 20.64 4.81987 20.9343 4.67648C21.1935 4.59204 21.3931 4.56981 21.6647 4.56909Z" fill="#FF7705"></path>
    <path d="M24.2822 17.7186C24.5302 17.8729 24.5302 17.8729 24.7509 18.0936C24.8116 18.3626 24.8116 18.3626 24.8132 18.6707C24.8138 18.782 24.8144 18.8933 24.815 19.008C24.8132 19.1239 24.8114 19.2398 24.8095 19.3592C24.8122 19.5331 24.8122 19.5331 24.815 19.7104C24.8144 19.8217 24.8138 19.933 24.8132 20.0477C24.8126 20.1494 24.8121 20.2511 24.8116 20.3559C24.7509 20.6248 24.7509 20.6248 24.5335 20.8455C24.2038 21.0479 24.0064 21.0552 23.6259 20.9998C23.3599 20.7988 23.2624 20.6868 23.2009 20.3559C23.1976 20.0235 23.1952 19.6916 23.1982 19.3592C23.1959 19.2433 23.1937 19.1274 23.1914 19.008C23.1916 18.8967 23.1918 18.7854 23.192 18.6707C23.1919 18.569 23.1918 18.4673 23.1917 18.3626C23.2509 18.0936 23.2509 18.0936 23.4714 17.8729C23.7771 17.6829 23.928 17.6596 24.2822 17.7186Z" fill="#FF7705"></path>
  </g>
  <defs>
    <clipPath id="clip0_4393_102">
      <rect width="48" height="48" fill="white"></rect>
    </clipPath>
  </defs>
</svg>
