<?xml version="1.0" encoding="UTF-8"?>
<svg xmlns="http://www.w3.org/2000/svg" width="48" height="48" viewBox="0 0 48 48" fill="none">
  <g clip-path="url(#clip0_3791_49)">
    <path d="M5.64285 0.726197C5.80771 0.725981 5.97257 0.725683 6.13743 0.725311C6.58925 0.724529 7.04106 0.724915 7.49288 0.725496C7.98062 0.72592 8.46835 0.725265 8.95609 0.72475C9.91109 0.723916 10.8661 0.724096 11.8211 0.72464C12.5973 0.725063 13.3734 0.72512 14.1496 0.724916C14.2601 0.724888 14.3706 0.724859 14.4844 0.724829C14.7088 0.724769 14.9333 0.724709 15.1577 0.724647C17.2622 0.724112 19.3667 0.724727 21.4711 0.725734C23.2767 0.726572 25.0823 0.726427 26.8879 0.725562C28.9849 0.724559 31.0819 0.724164 33.1788 0.724739C33.4024 0.724799 33.626 0.724858 33.8497 0.724916C33.9597 0.724945 34.0697 0.724974 34.1831 0.725004C34.9583 0.725166 35.7335 0.724893 36.5087 0.724451C37.4535 0.723925 38.3982 0.724068 39.343 0.725067C39.825 0.725559 40.307 0.725752 40.789 0.725132C41.2303 0.724573 41.6716 0.724882 42.113 0.725878C42.2725 0.726087 42.4321 0.725982 42.5916 0.725526C44.023 0.721757 45.1316 0.850998 46.2144 1.86292C47.0943 2.77992 47.1982 3.90443 47.1922 5.12696C47.1926 5.25382 47.1931 5.38068 47.1938 5.50753C47.1951 5.85346 47.1947 6.19936 47.194 6.54528C47.1936 6.9194 47.1948 7.29351 47.1957 7.66762C47.1973 8.39951 47.1974 9.13139 47.1969 9.86328C47.1965 10.4584 47.1967 11.0536 47.1972 11.6487C47.1972 11.7336 47.1973 11.8184 47.1974 11.9059C47.1975 12.0783 47.1977 12.2507 47.1978 12.4231C47.1991 14.0382 47.1986 15.6533 47.1975 17.2684C47.1966 18.7443 47.1978 20.2202 47.2 21.6961C47.2023 23.2135 47.2032 24.7309 47.2026 26.2483C47.2023 27.0994 47.2025 27.9505 47.2041 28.8016C47.2055 29.5262 47.2056 30.2507 47.2039 30.9753C47.2031 31.3445 47.2029 31.7138 47.2044 32.0831C47.2057 32.4218 47.2052 32.7606 47.2034 33.0994C47.2029 33.2784 47.2042 33.4574 47.2056 33.6364C47.1947 34.9321 46.8632 35.9293 45.9375 36.8405C45.0083 37.6469 43.8771 37.7433 42.6931 37.7301C42.5609 37.73 42.4286 37.73 42.2963 37.7302C41.9414 37.7304 41.5864 37.7282 41.2314 37.7255C40.859 37.7232 40.4865 37.723 40.114 37.7225C39.4105 37.7214 38.707 37.7183 38.0034 37.7145C37.2017 37.7103 36.4 37.7083 35.5983 37.7064C33.9508 37.7025 32.3034 37.6959 30.6559 37.6875C30.8074 38.0675 30.959 38.4474 31.1108 38.8273C31.1622 38.9561 31.2135 39.0848 31.2649 39.2135C31.3395 39.4007 31.4142 39.5878 31.489 39.7749C31.5135 39.8363 31.538 39.8977 31.5632 39.9609C31.757 40.4451 31.96 40.925 32.1679 41.4034C32.2496 41.625 32.2496 41.625 32.2496 41.9063C32.3351 41.9043 32.4206 41.9023 32.5087 41.9003C32.8307 41.8939 33.1526 41.8892 33.4747 41.8857C33.6132 41.8838 33.7517 41.8812 33.8901 41.878C34.9376 41.8538 35.8804 41.8917 36.6969 42.627C37.3337 43.3409 37.4769 43.9832 37.4473 44.9381C37.3519 45.7286 36.987 46.2531 36.3732 46.7435C35.6862 47.229 35.0701 47.264 34.2588 47.2632C34.1679 47.2635 34.077 47.2637 33.9834 47.264C33.6787 47.2648 33.374 47.265 33.0693 47.2651C32.851 47.2655 32.6326 47.266 32.4142 47.2665C31.8207 47.2678 31.2272 47.2684 30.6337 47.2688C30.2628 47.2691 29.892 47.2694 29.5211 47.2699C28.4935 47.271 27.466 47.272 26.4384 47.2723C26.3398 47.2723 26.3398 47.2723 26.2392 47.2723C26.1733 47.2724 26.1074 47.2724 26.0396 47.2724C25.9061 47.2724 25.7726 47.2725 25.6391 47.2725C25.5729 47.2725 25.5067 47.2726 25.4384 47.2726C24.3661 47.273 23.2937 47.2746 22.2213 47.2768C21.1193 47.279 20.0173 47.2802 18.9153 47.2803C18.297 47.2804 17.6787 47.2809 17.0604 47.2826C16.4785 47.2842 15.8967 47.2844 15.3149 47.2835C15.1017 47.2835 14.8885 47.2839 14.6753 47.2848C14.3835 47.286 14.0918 47.2854 13.8 47.2845C13.7163 47.2852 13.6325 47.286 13.5462 47.2867C12.5764 47.2792 11.8678 47.034 11.1687 46.3557C10.6905 45.8049 10.4895 45.1639 10.4996 44.4375C10.5671 43.7435 10.8265 43.0801 11.3236 42.5819C12.2022 41.8731 13.1744 41.859 14.2555 41.8418C14.3917 41.8387 14.5278 41.8355 14.664 41.8321C14.9946 41.8242 15.3252 41.8179 15.6559 41.8125C15.8059 41.4511 15.9558 41.0897 16.1056 40.7282C16.1563 40.6059 16.207 40.4837 16.2578 40.3614C16.3319 40.1829 16.4059 40.0044 16.4799 39.8258C16.524 39.7193 16.5682 39.6127 16.6138 39.503C16.8618 38.8998 17.1017 38.2933 17.3434 37.6875C17.2414 37.688 17.2414 37.688 17.1374 37.6886C15.4792 37.6969 13.8209 37.7031 12.1627 37.7069C11.3607 37.7089 10.5588 37.7115 9.75684 37.7158C9.0574 37.7195 8.35797 37.722 7.65853 37.7228C7.2886 37.7233 6.91869 37.7244 6.54877 37.7272C6.19965 37.7297 5.85056 37.7305 5.50143 37.7299C5.31413 37.7301 5.12683 37.7321 4.93955 37.7342C3.69414 37.7286 2.68811 37.4505 1.7904 36.5768C1.13067 35.8767 0.832262 35.1083 0.831061 34.1493C0.8307 34.0412 0.83034 33.933 0.829969 33.8216C0.830051 33.7033 0.830132 33.5849 0.830215 33.4629C0.829973 33.3356 0.829691 33.2082 0.829371 33.0809C0.828616 32.731 0.828447 32.3812 0.828378 32.0313C0.828204 31.6539 0.827497 31.2765 0.826865 30.8992C0.825592 30.074 0.825027 29.2488 0.824614 28.4237C0.824355 27.9083 0.823958 27.393 0.823536 26.8777C0.822393 25.4506 0.821427 24.0234 0.82111 22.5963C0.821089 22.505 0.821069 22.4137 0.821048 22.3196C0.821027 22.2281 0.821007 22.1365 0.820985 22.0422C0.820944 21.8567 0.820902 21.6712 0.82086 21.4857C0.820839 21.3937 0.820818 21.3017 0.820797 21.2069C0.820427 19.7162 0.818791 18.2255 0.816607 16.7349C0.814383 15.204 0.813216 13.6732 0.813107 12.1424C0.813021 11.283 0.812483 10.4237 0.81078 9.5643C0.809335 8.83249 0.808857 8.1007 0.80963 7.36889C0.809996 6.99567 0.809911 6.62247 0.808594 6.24926C0.807397 5.90718 0.807514 5.56512 0.808649 5.22305C0.808918 5.04155 0.807809 4.86006 0.806641 4.67857C0.813097 3.53591 1.06287 2.62274 1.86401 1.78345C2.97352 0.758957 4.20551 0.722097 5.64285 0.726197ZM2.54553 3.10841C2.30188 3.49694 2.22616 3.83282 2.22551 4.28875C2.22491 4.39699 2.2243 4.50523 2.22368 4.61675C2.22397 4.73525 2.22426 4.85375 2.22456 4.97584C2.22421 5.10332 2.22378 5.2308 2.22327 5.35828C2.22213 5.70851 2.22215 6.05873 2.22237 6.40897C2.22241 6.78673 2.22138 7.16448 2.22049 7.54224C2.21893 8.28232 2.21841 9.02239 2.21831 9.76247C2.21822 10.364 2.21784 10.9656 2.21724 11.5672C2.21559 13.2726 2.21472 14.978 2.21487 16.6835C2.21487 16.7754 2.21488 16.8674 2.21489 16.9621C2.2149 17.0542 2.2149 17.1462 2.21491 17.2411C2.21499 18.7331 2.21319 20.2251 2.21055 21.7171C2.20786 23.249 2.20656 24.7809 2.20672 26.3128C2.20679 27.1729 2.20627 28.033 2.20425 28.893C2.20255 29.6253 2.20214 30.3576 2.20341 31.0899C2.20402 31.4635 2.20403 31.837 2.20241 32.2106C2.20093 32.5528 2.2012 32.8949 2.20283 33.2371C2.20326 33.4191 2.20184 33.6012 2.20035 33.7831C2.20636 34.5418 2.2947 35.061 2.80884 35.6477C2.90038 35.7235 2.90038 35.7235 2.99377 35.8008C3.05456 35.8528 3.11535 35.9047 3.17798 35.9583C3.6199 36.2628 3.9969 36.3048 4.52854 36.3054C4.63111 36.3059 4.63111 36.3059 4.73575 36.3064C4.96555 36.3072 5.19532 36.3068 5.42512 36.3063C5.59127 36.3067 5.75742 36.3071 5.92358 36.3076C6.3807 36.3088 6.83781 36.3087 7.29493 36.3085C7.78772 36.3085 8.28051 36.3095 8.7733 36.3104C9.73897 36.312 10.7046 36.3125 11.6703 36.3126C12.4551 36.3127 13.2399 36.3131 14.0247 36.3136C16.249 36.3153 18.4732 36.3162 20.6974 36.316C20.8174 36.316 20.9373 36.316 21.0609 36.316C21.241 36.316 21.241 36.316 21.4248 36.316C23.3715 36.3159 25.3182 36.3177 27.2649 36.3203C29.2629 36.323 31.261 36.3243 33.259 36.3242C34.3811 36.3241 35.5031 36.3246 36.6252 36.3266C37.5805 36.3283 38.5358 36.3288 39.4911 36.3275C39.9786 36.3269 40.4661 36.3269 40.9536 36.3285C41.3999 36.33 41.8461 36.3297 42.2924 36.3281C42.4538 36.3278 42.6153 36.3281 42.7767 36.3292C44.0394 36.342 44.0394 36.342 45.1161 35.7221C45.1666 35.661 45.2171 35.6 45.2692 35.5371C45.3211 35.4763 45.3731 35.4155 45.4266 35.3529C45.6962 34.9616 45.7731 34.6201 45.7738 34.1488C45.7744 34.0405 45.775 33.9323 45.7756 33.8208C45.7753 33.7023 45.775 33.5838 45.7747 33.4617C45.7751 33.3342 45.7755 33.2067 45.776 33.0792C45.7771 32.729 45.7771 32.3788 45.7769 32.0285C45.7769 31.6508 45.7779 31.273 45.7788 30.8953C45.7803 30.1552 45.7808 29.4151 45.781 28.675C45.781 28.0735 45.7814 27.4719 45.782 26.8704C45.7837 25.1649 45.7845 23.4595 45.7844 21.754C45.7844 21.6621 45.7844 21.5702 45.7844 21.4754C45.7844 21.3373 45.7844 21.3373 45.7844 21.1964C45.7843 19.7044 45.7861 18.2124 45.7887 16.7204C45.7914 15.1885 45.7927 13.6566 45.7925 12.1247C45.7925 11.2646 45.793 10.4046 45.795 9.54448C45.7967 8.81218 45.7971 8.0799 45.7959 7.34761C45.7952 6.97403 45.7952 6.60048 45.7969 6.2269C45.7983 5.88471 45.7981 5.54257 45.7964 5.20038C45.796 5.01837 45.7974 4.83636 45.7989 4.65436C45.793 3.91185 45.709 3.39675 45.2175 2.81361C45.1669 2.77264 45.1163 2.73167 45.0641 2.68946C45.0142 2.64728 44.9643 2.60511 44.9128 2.56165C44.3931 2.22983 43.9731 2.12109 43.3574 2.12034C43.255 2.11964 43.255 2.11964 43.1506 2.11893C42.9225 2.11772 42.6944 2.1185 42.4662 2.11928C42.3008 2.11882 42.1354 2.11824 41.97 2.11755C41.5158 2.11601 41.0616 2.11623 40.6074 2.11674C40.1174 2.11699 39.6275 2.11563 39.1375 2.11448C38.1777 2.11251 37.2179 2.11208 36.258 2.11225C35.4779 2.11237 34.6977 2.11202 33.9176 2.11132C33.6929 2.11112 33.4682 2.11093 33.2436 2.11073C33.0758 2.11058 33.0758 2.11058 32.9047 2.11043C30.7895 2.10866 28.6743 2.10876 26.5591 2.1094C24.6241 2.10992 22.689 2.10797 20.754 2.10487C18.7672 2.1017 16.7804 2.10028 14.7936 2.10071C13.6781 2.10092 12.5627 2.10043 11.4472 2.0981C10.4975 2.09613 9.54785 2.09579 8.59817 2.09756C8.11368 2.09842 7.62923 2.09853 7.14474 2.09659C6.701 2.09484 6.25732 2.09526 5.81358 2.0974C5.65328 2.09779 5.49297 2.09739 5.33267 2.09612C4.20998 2.08782 3.29571 2.18377 2.54553 3.10841ZM18.8434 37.6875C17.981 39.7896 17.981 39.7896 17.1559 41.9063C21.6728 41.9063 26.1896 41.9063 30.8434 41.9063C30.534 41.1328 30.2246 40.3594 29.9059 39.5625C29.6584 38.9438 29.4109 38.325 29.1559 37.6875C25.7528 37.6875 22.3496 37.6875 18.8434 37.6875ZM11.9528 44.0977C11.8738 44.5123 11.882 44.894 12.0978 45.2604C12.3573 45.588 12.612 45.8147 13.0324 45.8675C13.0997 45.8676 13.167 45.8677 13.2364 45.8679C13.3145 45.8685 13.3927 45.8691 13.4732 45.8697C13.5585 45.8694 13.6438 45.8691 13.7318 45.8688C13.8228 45.8693 13.9138 45.8697 14.0076 45.8701C14.3135 45.8713 14.6194 45.8711 14.9252 45.871C15.1442 45.8716 15.3632 45.8722 15.5821 45.8729C16.1776 45.8746 16.773 45.875 17.3684 45.8751C17.8651 45.8753 18.3619 45.876 18.8586 45.8766C19.9633 45.8781 21.0681 45.8787 22.1728 45.8785C22.2723 45.8785 22.2723 45.8785 22.3737 45.8785C22.4401 45.8785 22.5064 45.8785 22.5748 45.8785C23.6505 45.8784 24.7262 45.8802 25.8018 45.8828C26.9064 45.8855 28.0109 45.8868 29.1154 45.8867C29.7355 45.8866 30.3556 45.8872 30.9757 45.8891C31.5588 45.8909 32.1419 45.891 32.725 45.8896C32.9392 45.8894 33.1533 45.8899 33.3674 45.891C33.6596 45.8924 33.9516 45.8916 34.2437 45.8901C34.3711 45.8916 34.3711 45.8916 34.501 45.893C35.1055 45.8864 35.4393 45.7286 35.8883 45.3106C36.0642 44.968 36.1154 44.6339 36.0934 44.25C35.8898 43.835 35.6393 43.5583 35.2496 43.3125C34.9476 43.2573 34.6498 43.2611 34.3435 43.2636C34.2517 43.2629 34.1599 43.2622 34.0653 43.2615C33.7573 43.2595 33.4494 43.2603 33.1414 43.261C32.9207 43.2602 32.7 43.2592 32.4794 43.2581C31.8797 43.2556 31.28 43.2555 30.6803 43.256C30.1166 43.2563 29.5528 43.255 28.9891 43.254C27.8043 43.252 26.6195 43.2524 25.4347 43.2535C24.3512 43.2545 23.2677 43.2524 22.1843 43.2488C21.0714 43.2452 19.9585 43.2436 18.8456 43.2443C18.2209 43.2447 17.5963 43.2442 16.9716 43.2416C16.3841 43.2392 15.7968 43.2396 15.2093 43.242C14.9937 43.2425 14.7781 43.242 14.5625 43.2404C14.2681 43.2384 13.974 43.24 13.6796 43.2423C13.5943 43.241 13.509 43.2396 13.4211 43.2382C12.7319 43.2499 12.321 43.5146 11.9528 44.0977Z" fill="#FF7705"></path>
    <path d="M4.89382 3.60906C4.96101 3.60851 5.02821 3.60797 5.09744 3.60741C5.32324 3.60603 5.54895 3.60734 5.77474 3.60863C5.938 3.6082 6.10126 3.6076 6.26452 3.60686C6.71364 3.60529 7.16273 3.60607 7.61185 3.60723C8.09601 3.60807 8.58016 3.60677 9.06432 3.60573C10.013 3.60406 10.9616 3.60443 11.9103 3.60551C12.6811 3.60636 13.4519 3.60648 14.2228 3.60607C14.3872 3.60598 14.3872 3.60598 14.5549 3.60589C14.7775 3.60577 15.0002 3.60565 15.2228 3.60553C17.3117 3.60446 19.4006 3.60569 21.4895 3.6077C23.2828 3.60938 25.0762 3.60909 26.8695 3.60736C28.9508 3.60535 31.0321 3.60456 33.1134 3.60571C33.3353 3.60583 33.5571 3.60595 33.7789 3.60607C33.9426 3.60615 33.9426 3.60615 34.1097 3.60624C34.8798 3.60657 35.6499 3.60602 36.42 3.60514C37.3582 3.60409 38.2964 3.60437 39.2346 3.60637C39.7135 3.60736 40.1924 3.60774 40.6713 3.6065C41.1095 3.60539 41.5475 3.60599 41.9856 3.60799C42.1444 3.60841 42.3032 3.60819 42.462 3.60729C42.6773 3.60615 42.8925 3.60731 43.1079 3.60906C43.2875 3.60915 43.2875 3.60915 43.4707 3.60924C43.8416 3.66524 43.9978 3.75646 44.2508 4.03125C44.3094 4.2439 44.3094 4.2439 44.3093 4.48191C44.3104 4.57288 44.3115 4.66386 44.3127 4.75759C44.3115 4.85728 44.3103 4.95698 44.3091 5.05969C44.3097 5.1658 44.3103 5.2719 44.3109 5.38121C44.3123 5.73808 44.3104 6.09485 44.3085 6.45172C44.3086 6.70701 44.3094 6.96231 44.3101 7.2176C44.3115 7.83983 44.3103 8.46202 44.3083 9.08425C44.306 9.80858 44.3062 10.5329 44.3064 11.2572C44.3068 12.5495 44.3048 13.8417 44.3016 15.134C44.2985 16.3884 44.2972 17.6428 44.2978 18.8973C44.2984 20.2627 44.2982 21.6281 44.2964 22.9935C44.2962 23.1018 44.2962 23.1018 44.2961 23.2122C44.2959 23.3572 44.2957 23.5022 44.2955 23.6472C44.2948 24.1523 44.2948 24.6574 44.2949 25.1625C44.295 25.7779 44.2941 26.3933 44.2919 27.0087C44.2908 27.3228 44.2903 27.6369 44.2907 27.951C44.291 28.2912 44.2896 28.6314 44.2878 28.9716C44.2883 29.0712 44.2888 29.1709 44.2893 29.2737C44.288 29.4101 44.2881 29.4101 44.2868 29.5493C44.2866 29.6279 44.2865 29.7064 44.2863 29.7873C44.2416 30.0554 44.1591 30.1816 43.9696 30.375C43.6439 30.5131 43.2865 30.4806 42.9377 30.4808C42.8713 30.481 42.8048 30.4811 42.7364 30.4813C42.5126 30.4817 42.2887 30.4815 42.0649 30.4813C41.9033 30.4815 41.7417 30.4817 41.58 30.4819C41.135 30.4825 40.6899 30.4825 40.2449 30.4824C39.7653 30.4824 39.2857 30.4829 38.806 30.4833C37.8661 30.4841 36.9261 30.4844 35.9862 30.4844C35.2224 30.4845 34.4586 30.4846 33.6949 30.4849C31.5309 30.4858 29.367 30.4862 27.203 30.4861C27.0863 30.4861 26.9696 30.4861 26.8493 30.4861C26.7325 30.4861 26.6156 30.4861 26.4952 30.4861C24.6005 30.4861 22.7057 30.487 20.8109 30.4883C18.8669 30.4896 16.9228 30.4903 14.9787 30.4902C13.8866 30.4902 12.7946 30.4904 11.7025 30.4914C10.7729 30.4923 9.84331 30.4925 8.91369 30.4919C8.43915 30.4916 7.96461 30.4916 7.49006 30.4924C7.05595 30.4931 6.62185 30.493 6.18774 30.4921C6.0304 30.492 5.87306 30.4922 5.71572 30.4927C5.50238 30.4934 5.28907 30.4929 5.07572 30.4921C4.95706 30.4921 4.8384 30.4921 4.71614 30.4921C4.41108 30.469 4.20682 30.4256 3.93833 30.2812C3.73825 29.9811 3.72726 29.9054 3.72645 29.5609C3.72579 29.4701 3.72513 29.3793 3.72445 29.2858C3.72467 29.1858 3.7249 29.0858 3.72513 28.9828C3.72464 28.8768 3.72415 28.7708 3.72364 28.6616C3.72223 28.3044 3.72217 27.9473 3.72211 27.5902C3.7215 27.3349 3.72061 27.0796 3.71974 26.8243C3.7176 26.1296 3.71686 25.4348 3.71639 24.74C3.71608 24.3063 3.71547 23.8727 3.71479 23.4391C3.71296 22.2389 3.71142 21.0388 3.71115 19.8386C3.71113 19.7618 3.71111 19.685 3.71109 19.6058C3.71106 19.4501 3.71103 19.2943 3.71099 19.1386C3.71097 19.0613 3.71096 18.984 3.71094 18.9043C3.71092 18.8269 3.71091 18.7495 3.71089 18.6698C3.71056 17.4148 3.70802 16.1599 3.70452 14.9049C3.70095 13.6171 3.69913 12.3293 3.6991 11.0415C3.69905 10.3182 3.69825 9.59492 3.69554 8.87161C3.69325 8.25585 3.69256 7.64011 3.69397 7.02435C3.69465 6.71004 3.6943 6.39582 3.69243 6.08151C3.69053 5.74107 3.69149 5.40076 3.6932 5.06033C3.69197 4.96057 3.69073 4.86081 3.68945 4.75803C3.6905 4.66699 3.69155 4.57596 3.69263 4.48217C3.69256 4.40358 3.69248 4.32499 3.6924 4.24401C3.85401 3.65556 4.36184 3.60933 4.89382 3.60906ZM5.06333 5.0625C5.06333 12.9825 5.06333 20.9025 5.06333 29.0625C17.5621 29.0625 30.0608 29.0625 42.9383 29.0625C42.9383 21.1425 42.9383 13.2225 42.9383 5.0625C30.4396 5.0625 17.9408 5.0625 5.06333 5.0625Z" fill="#FF7705"></path>
    <path d="M13.7834 6.54785C15.9457 6.48941 17.8934 7.21668 19.485 8.69604C21.0131 10.2879 21.7061 12.2861 21.6757 14.4613C21.6109 16.4537 20.6938 18.2691 19.2765 19.6423C17.6984 21.0832 15.7214 21.6637 13.6267 21.5991C12.9279 21.5598 12.2866 21.4063 11.6243 21.1875C11.4952 21.1469 11.4952 21.1469 11.3635 21.1055C9.54433 20.4607 8.13707 18.9279 7.28942 17.2401C6.48508 15.5388 6.38652 13.3999 7.00241 11.6231C7.32811 10.7515 7.75105 10.0034 8.34301 9.28125C8.41915 9.18227 8.41915 9.18227 8.49682 9.0813C9.61669 7.69504 11.3875 6.85939 13.1243 6.58593C13.3437 6.56733 13.5634 6.55919 13.7834 6.54785ZM14.8118 7.96875C14.8118 9.76312 14.8118 11.5575 14.8118 13.4062C16.6061 13.4062 18.4005 13.4062 20.2493 13.4062C19.9966 11.8903 19.5384 10.704 18.3743 9.65625C18.3218 9.60561 18.2694 9.55497 18.2153 9.5028C17.2577 8.60918 16.0963 8.15225 14.8118 7.96875ZM9.77197 9.72143C8.45639 11.1314 8.0082 12.7161 8.03649 14.5898C8.07883 15.7827 8.56586 16.7271 9.18676 17.7187C10.0753 17.7187 10.9254 16.6846 11.554 16.1133C11.6002 16.0715 11.6464 16.0297 11.6941 15.9866C12.8879 14.8959 13.6654 13.8807 13.7593 12.2256C13.8222 10.8079 13.6907 9.37199 13.4993 7.96875C12.1613 7.96875 10.7047 8.82189 9.77197 9.72143ZM12.0579 16.7344C12.0146 16.7826 11.9714 16.8308 11.9269 16.8804C11.3919 17.4819 10.8862 18.1043 10.4055 18.75C10.5882 19.1826 10.8876 19.312 11.2961 19.5059C11.3644 19.5387 11.4327 19.5716 11.503 19.6055C12.9356 20.2822 14.4341 20.4497 15.9628 19.9651C17.7457 19.3201 18.9609 18.2041 19.8157 16.5286C19.9984 16.1106 20.0934 15.7028 20.1647 15.2527C20.1888 15.1022 20.1888 15.1022 20.2134 14.9488C20.2252 14.8729 20.2371 14.797 20.2493 14.7187C19.367 14.5951 18.4843 14.5133 17.595 14.4668C17.5294 14.4633 17.4638 14.4599 17.3962 14.4563C15.0101 14.3455 13.645 14.9632 12.0579 16.7344Z" fill="#FF7705"></path>
    <path d="M30.2845 15.0757C30.36 15.0742 30.4354 15.0726 30.5131 15.0711C30.857 15.0669 31.2009 15.0631 31.5449 15.0609C31.7262 15.0594 31.9075 15.0568 32.0888 15.0532C32.3507 15.0481 32.6124 15.046 32.8742 15.0447C32.955 15.0425 33.0358 15.0404 33.119 15.0382C33.195 15.0385 33.271 15.0388 33.3494 15.039C33.4158 15.0383 33.4821 15.0375 33.5506 15.0367C33.8935 15.1343 34.0131 15.2713 34.2197 15.5625C34.2889 15.9309 34.2818 16.2944 34.2774 16.6683C34.2779 16.7802 34.2784 16.8922 34.279 17.0075C34.2799 17.3138 34.2787 17.6199 34.2765 17.9262C34.2746 18.2469 34.2752 18.5677 34.2754 18.8884C34.2754 19.427 34.2735 19.9654 34.2705 20.5039C34.2671 21.1263 34.2662 21.7487 34.2669 22.3711C34.2675 22.9702 34.2665 23.5693 34.2646 24.1684C34.2639 24.4233 34.2636 24.6781 34.2638 24.9329C34.2636 25.2886 34.2616 25.6443 34.2591 26.0001C34.2593 26.1058 34.2596 26.2116 34.2599 26.3205C34.2588 26.4174 34.2578 26.5142 34.2567 26.614C34.2563 26.6981 34.256 26.7822 34.2556 26.8688C34.2124 27.1398 34.1247 27.2699 33.9385 27.4687C33.747 27.5164 33.747 27.5164 33.5252 27.5173C33.442 27.5184 33.3587 27.5196 33.273 27.5208C33.1833 27.5201 33.0937 27.5193 33.0013 27.5185C32.909 27.5189 32.8166 27.5193 32.7215 27.5196C32.5261 27.5199 32.3307 27.5192 32.1354 27.5176C31.8364 27.5156 31.5376 27.5176 31.2386 27.52C31.0488 27.5198 30.859 27.5193 30.6693 27.5185C30.5798 27.5193 30.4904 27.5201 30.3982 27.5208C30.3147 27.5197 30.2311 27.5185 30.1451 27.5173C30.0718 27.517 29.9986 27.5167 29.9231 27.5164C29.637 27.4494 29.5305 27.3181 29.3447 27.0937C29.2978 26.8686 29.2978 26.8686 29.2977 26.6134C29.2968 26.5164 29.2959 26.4194 29.2949 26.3195C29.2958 26.2136 29.2967 26.1077 29.2977 25.9986C29.2972 25.8867 29.2967 25.7747 29.2961 25.6594C29.2952 25.3528 29.2959 25.0462 29.2974 24.7396C29.2987 24.4186 29.2981 24.0976 29.2978 23.7765C29.2975 23.2375 29.2988 22.6984 29.301 22.1594C29.3035 21.5363 29.3036 20.9133 29.3025 20.2902C29.3015 19.6906 29.3021 19.091 29.3034 18.4914C29.304 18.2364 29.304 17.9813 29.3035 17.7262C29.3032 17.37 29.3048 17.0139 29.3068 16.6576C29.3064 16.5518 29.306 16.4459 29.3055 16.3368C29.3065 16.2398 29.3074 16.1428 29.3084 16.0428C29.3086 15.9586 29.3088 15.8744 29.309 15.7877C29.3524 15.5141 29.4358 15.3867 29.626 15.1875C29.876 15.1041 30.0275 15.0803 30.2845 15.0757ZM30.751 16.5C30.751 19.6866 30.751 22.8731 30.751 26.1562C31.4316 26.1562 32.1122 26.1562 32.8135 26.1562C32.8135 22.9697 32.8135 19.7831 32.8135 16.5C32.1328 16.5 31.4522 16.5 30.751 16.5Z" fill="#FF7705"></path>
    <path d="M30.6562 8.625C30.8808 8.79821 31.0614 8.95861 31.2557 9.16061C31.3395 9.2443 31.3395 9.2443 31.425 9.32968C31.6085 9.51353 31.7899 9.69929 31.9713 9.88514C32.0985 10.0133 32.2257 10.1414 32.3531 10.2694C32.6875 10.6058 33.0201 10.944 33.3523 11.2824C33.6919 11.6278 34.0331 11.9716 34.3742 12.3155C35.0427 12.99 35.7094 13.6663 36.375 14.3438C36.7703 14.1629 37.0391 13.891 37.3403 13.5842C37.396 13.5283 37.4516 13.4724 37.509 13.4148C37.6861 13.2366 37.8626 13.0578 38.0391 12.8789C38.1593 12.7578 38.2795 12.6367 38.3998 12.5156C38.6941 12.2192 38.9878 11.9223 39.2812 11.625C39.2157 11.6147 39.1502 11.6045 39.0828 11.5939C38.9974 11.579 38.9121 11.5641 38.8242 11.5488C38.697 11.5276 38.697 11.5276 38.5671 11.506C38.3438 11.4375 38.3438 11.4375 38.1562 11.1563C38.1244 10.8565 38.1216 10.6627 38.2579 10.3914C38.5234 10.1362 38.7277 10.1702 39.0908 10.169C39.186 10.1684 39.186 10.1684 39.2831 10.1679C39.417 10.1676 39.551 10.1683 39.685 10.1699C39.89 10.1719 40.0947 10.1699 40.2997 10.1675C40.4299 10.1677 40.5602 10.1682 40.6904 10.169C40.8682 10.1696 40.8682 10.1696 41.0495 10.1702C41.3438 10.2188 41.3438 10.2188 41.5225 10.3707C41.7237 10.8085 41.6736 11.2893 41.672 11.763C41.6719 11.9526 41.6758 12.1419 41.6799 12.3314C41.6802 12.4512 41.6804 12.5709 41.6807 12.6943C41.6813 12.8039 41.682 12.9134 41.6827 13.0263C41.625 13.3125 41.625 13.3125 41.4055 13.539C41.1562 13.6875 41.1562 13.6875 40.8633 13.6816C40.4704 13.5535 40.4704 13.5535 40.3125 13.3125C40.278 13.1256 40.2465 12.9381 40.2188 12.75C40.1781 12.7909 40.1374 12.8318 40.0954 12.8739C39.673 13.2985 39.2502 13.7227 38.8271 14.1468C38.6692 14.3052 38.5113 14.4637 38.3535 14.6223C38.1271 14.8498 37.9004 15.0771 37.6736 15.3043C37.6028 15.3756 37.532 15.4469 37.459 15.5204C37.3933 15.586 37.3277 15.6517 37.26 15.7194C37.2021 15.7775 37.1442 15.8356 37.0846 15.8954C36.8659 16.0973 36.7498 16.125 36.4482 16.1642C35.9899 16.1135 35.7909 15.9105 35.4857 15.5914C35.4289 15.5347 35.3721 15.478 35.3136 15.4196C35.1269 15.2324 34.9426 15.043 34.7582 14.8535C34.6289 14.7231 34.4996 14.5927 34.37 14.4626C34.03 14.12 33.6919 13.7755 33.3542 13.4306C33.0091 13.0787 32.6622 12.7288 32.3154 12.3787C31.6355 11.6918 30.9577 11.0028 30.2812 10.3125C29.8509 10.6716 29.4444 11.044 29.0532 11.4451C28.9435 11.5566 28.8338 11.6681 28.7242 11.7797C28.6671 11.8378 28.6101 11.896 28.5513 11.956C28.2462 12.2669 27.9395 12.5763 27.6332 12.8861C27.2448 13.2789 26.8569 13.6722 26.4704 14.0669C26.1566 14.3873 25.8414 14.7063 25.5253 15.0244C25.4055 15.1455 25.2862 15.2671 25.1674 15.3892C25.0014 15.5597 24.8338 15.7284 24.6656 15.8968C24.6173 15.9473 24.5689 15.9978 24.5191 16.0498C24.1769 16.3873 23.9168 16.4909 23.4375 16.5C23.1621 16.3535 23.1621 16.3535 22.9688 16.125C22.8984 15.8672 22.8984 15.8672 22.9688 15.5625C23.0967 15.3916 23.0967 15.3916 23.2613 15.2092C23.3209 15.1431 23.3805 15.0771 23.4419 15.009C23.7106 14.7206 23.9853 14.4391 24.2645 14.1609C24.3247 14.1005 24.3848 14.0402 24.4468 13.9781C24.643 13.7815 24.8395 13.5853 25.036 13.389C25.1734 13.2516 25.3107 13.1142 25.448 12.9768C25.7345 12.6902 26.0211 12.4038 26.3078 12.1175C26.6758 11.75 27.0434 11.3821 27.4109 11.0141C27.6937 10.7309 27.9768 10.448 28.2599 10.1651C28.3956 10.0294 28.5313 9.89369 28.6668 9.75789C28.8555 9.56895 29.0445 9.3803 29.2336 9.19174C29.2898 9.1354 29.3459 9.07905 29.4038 9.021C29.8565 8.57058 30.0176 8.46941 30.6562 8.625Z" fill="#FF7705"></path>
    <path d="M23.76 19.45C23.8413 19.4485 23.9227 19.447 24.0065 19.4455C24.1372 19.4462 24.1372 19.4462 24.2705 19.4469C24.3606 19.4463 24.4508 19.4457 24.5436 19.4451C24.734 19.4445 24.9244 19.4448 25.1148 19.446C25.4062 19.4473 25.6973 19.4441 25.9887 19.4405C26.1738 19.4404 26.3589 19.4406 26.5439 19.441C26.631 19.4398 26.7182 19.4386 26.8079 19.4373C26.9299 19.439 26.9299 19.439 27.0544 19.4408C27.1614 19.441 27.1614 19.441 27.2705 19.4411C27.5832 19.5336 27.6794 19.6933 27.8447 19.9687C27.8911 20.2895 27.8911 20.2895 27.8903 20.6615C27.8906 20.7295 27.891 20.7976 27.8913 20.8677C27.892 21.0916 27.89 21.3155 27.8879 21.5394C27.8877 21.6955 27.8876 21.8516 27.8877 22.0076C27.8874 22.3343 27.8858 22.6609 27.8833 22.9876C27.8801 23.4061 27.8794 23.8246 27.8795 24.2432C27.8795 24.5653 27.8785 24.8874 27.8771 25.2095C27.8765 25.3638 27.8761 25.5182 27.876 25.6725C27.8756 25.8882 27.8739 26.1038 27.8719 26.3194C27.8709 26.5034 27.8709 26.5034 27.8698 26.6911C27.8465 26.9785 27.8189 27.14 27.6572 27.375C27.4393 27.484 27.3084 27.4823 27.0656 27.4853C26.9821 27.4865 26.8985 27.4877 26.8125 27.489C26.722 27.4897 26.6316 27.4904 26.5384 27.4911C26.4457 27.4918 26.353 27.4926 26.2575 27.4934C26.0612 27.4947 25.8649 27.4957 25.6686 27.4964C25.3677 27.498 25.067 27.5022 24.7662 27.5063C24.5757 27.5072 24.3852 27.508 24.1947 27.5087C24.1044 27.5103 24.0142 27.5119 23.9212 27.5136C23.7955 27.5132 23.7955 27.5132 23.6672 27.5128C23.5934 27.5134 23.5197 27.5139 23.4437 27.5145C23.251 27.4687 23.251 27.4687 23.0867 27.3222C22.9288 27.0138 22.9296 26.733 22.9318 26.3945C22.9312 26.3246 22.9305 26.2547 22.9299 26.1828C22.9282 25.9522 22.9285 25.7218 22.9291 25.4912C22.9286 25.3308 22.9281 25.1704 22.9276 25.01C22.9267 24.6739 22.927 24.3379 22.9279 24.0019C22.929 23.5712 22.9271 23.1406 22.9243 22.71C22.9226 22.3788 22.9226 22.0476 22.9232 21.7164C22.9232 21.5576 22.9226 21.3988 22.9215 21.2401C22.9201 21.0181 22.9211 20.7962 22.9227 20.5743C22.9218 20.5087 22.9209 20.4432 22.9199 20.3756C22.9246 20.0681 22.9525 19.8989 23.1342 19.6469C23.3681 19.4837 23.4781 19.4523 23.76 19.45ZM24.2822 20.8125C24.2822 22.5759 24.2822 24.3394 24.2822 26.1562C24.9938 26.1562 25.7053 26.1562 26.4385 26.1562C26.4385 24.3928 26.4385 22.6294 26.4385 20.8125C25.7269 20.8125 25.0153 20.8125 24.2822 20.8125Z" fill="#FF7705"></path>
    <path d="M36.6581 21.6397C36.7713 21.6379 36.7713 21.6379 36.8867 21.636C37.0084 21.635 37.0084 21.635 37.1326 21.6339C37.2583 21.6328 37.2583 21.6328 37.3866 21.6316C37.5639 21.6303 37.7412 21.6293 37.9185 21.6286C38.1893 21.627 38.46 21.6228 38.7308 21.6187C38.9031 21.6178 39.0755 21.617 39.2479 21.6163C39.3286 21.6147 39.4094 21.613 39.4926 21.6114C39.8394 21.6126 40.0873 21.6409 40.4103 21.7741C40.7173 22.2055 40.6562 22.6704 40.649 23.1859C40.649 23.2992 40.649 23.4124 40.649 23.5291C40.6485 23.7684 40.6468 24.0078 40.6441 24.2471C40.6402 24.6142 40.6403 24.9811 40.6409 25.3482C40.6399 25.5806 40.6387 25.8129 40.6373 26.0453C40.6372 26.1554 40.6372 26.2656 40.6372 26.3791C40.6357 26.4811 40.6342 26.5831 40.6327 26.6882C40.6319 26.778 40.6311 26.8679 40.6303 26.9605C40.5867 27.2281 40.5277 27.3091 40.3121 27.4687C39.9473 27.5903 39.6002 27.5777 39.22 27.5782C39.1404 27.5786 39.0607 27.5789 38.9787 27.5792C38.8102 27.5797 38.6417 27.5799 38.4732 27.5799C38.216 27.5801 37.9589 27.5818 37.7017 27.5836C37.5379 27.5838 37.3741 27.584 37.2103 27.5841C37.0952 27.5851 37.0952 27.5851 36.9779 27.5861C36.5857 27.5846 36.252 27.5819 35.9058 27.375C35.7244 27.0877 35.6943 26.8624 35.6926 26.526C35.6917 26.4318 35.6908 26.3376 35.6899 26.2406C35.6899 26.1394 35.69 26.0382 35.6901 25.934C35.6897 25.8295 35.6893 25.725 35.6889 25.6173C35.6884 25.3965 35.6883 25.1756 35.6887 24.9547C35.689 24.6168 35.6868 24.2791 35.6844 23.9412C35.6842 23.7266 35.6842 23.5119 35.6843 23.2972C35.6834 23.1963 35.6825 23.0953 35.6816 22.9912C35.6872 22.0959 35.6872 22.0959 35.9996 21.75C36.2504 21.6664 36.4005 21.6432 36.6581 21.6397ZM37.1246 23.0625C37.1246 24.0834 37.1246 25.1044 37.1246 26.1562C37.8361 26.1562 38.5477 26.1562 39.2808 26.1562C39.2808 25.1353 39.2808 24.1144 39.2808 23.0625C38.5693 23.0625 37.8577 23.0625 37.1246 23.0625Z" fill="#FF7705"></path>
    <path d="M8.27234 23.014C8.3887 23.0133 8.50506 23.0127 8.62494 23.012C8.94341 23.0106 9.26178 23.0109 9.58024 23.0121C9.91384 23.0131 10.2474 23.0122 10.581 23.0116C11.1412 23.0109 11.7014 23.0118 12.2616 23.0136C12.9088 23.0156 13.5559 23.015 14.2031 23.0129C14.7593 23.0112 15.3154 23.011 15.8716 23.012C16.2035 23.0125 16.5355 23.0126 16.8674 23.0114C17.2375 23.0101 17.6076 23.0119 17.9777 23.014C18.1423 23.0128 18.1423 23.0128 18.3103 23.0117C19.0498 23.0194 19.0498 23.0194 19.4274 23.2358C19.5938 23.4375 19.5938 23.4375 19.6523 23.7129C19.5701 24.1158 19.4593 24.2254 19.125 24.4687C18.7431 24.5394 18.3651 24.5318 17.9777 24.5279C17.8613 24.5286 17.7449 24.5293 17.6251 24.5299C17.3066 24.5313 16.9882 24.5305 16.6698 24.5286C16.3362 24.5271 16.0026 24.5279 15.669 24.5284C15.1088 24.5288 14.5486 24.5273 13.9884 24.5247C13.3412 24.5217 12.6941 24.5217 12.0469 24.5233C11.4237 24.5248 10.8006 24.5242 10.1774 24.5226C9.91246 24.5219 9.64753 24.522 9.38258 24.5227C9.01248 24.5236 8.64243 24.5213 8.27234 24.5188C8.10766 24.5197 8.10766 24.5197 7.93965 24.5206C7.2017 24.5119 7.2017 24.5119 6.82258 24.2986C6.65625 24.0937 6.65625 24.0937 6.59766 23.7656C6.65625 23.4375 6.65625 23.4375 6.82258 23.2325C7.29142 22.9689 7.74319 23.0103 8.27234 23.014Z" fill="#FF7705"></path>
    <path d="M7.74864 26.1077C7.82033 26.1071 7.89202 26.1064 7.96588 26.1057C8.20252 26.1041 8.43906 26.1052 8.6757 26.1064C8.84032 26.1062 9.00493 26.1058 9.16955 26.1054C9.51442 26.1048 9.85926 26.1056 10.2041 26.1074C10.6461 26.1095 11.0881 26.1083 11.5301 26.106C11.8699 26.1047 12.2098 26.1051 12.5497 26.1061C12.7127 26.1063 12.8756 26.106 13.0386 26.1051C13.2664 26.1042 13.4941 26.1056 13.7219 26.1077C13.8229 26.1066 13.8229 26.1066 13.9259 26.1054C14.2406 26.1108 14.4121 26.1368 14.6681 26.3259C14.8783 26.623 14.8585 26.8328 14.8134 27.1875C14.7155 27.3459 14.7155 27.3459 14.5321 27.4688C14.2834 27.497 14.0565 27.5081 13.8076 27.5066C13.7339 27.5073 13.6603 27.5079 13.5844 27.5086C13.3407 27.5103 13.0971 27.5099 12.8534 27.5094C12.6843 27.5098 12.5151 27.5103 12.3459 27.5109C11.9913 27.5117 11.6366 27.5115 11.282 27.5106C10.827 27.5095 10.3722 27.5114 9.91723 27.5141C9.56786 27.5158 9.21851 27.5158 8.86914 27.5153C8.70138 27.5153 8.53362 27.5158 8.36587 27.517C8.13152 27.5184 7.89729 27.5174 7.66295 27.5158C7.59339 27.5167 7.52384 27.5176 7.45218 27.5185C7.14673 27.5141 6.98213 27.51 6.75505 27.2959C6.6204 27.0179 6.61265 26.8364 6.65715 26.5313C6.9576 26.1134 7.26674 26.1023 7.74864 26.1077Z" fill="#FF7705"></path>
    <path d="M24.0004 32.0977C24.3854 32.1779 24.5211 32.308 24.7504 32.625C24.8096 32.9998 24.8141 33.1882 24.598 33.5039C24.3226 33.6923 24.1467 33.7432 23.8129 33.75C23.3849 33.5503 23.3849 33.5503 23.2504 33.2812C23.204 32.8712 23.2042 32.6888 23.4496 32.3496C23.7191 32.1562 23.7191 32.1562 24.0004 32.0977Z" fill="#FF7705"></path>
  </g>
  <defs>
    <clipPath id="clip0_3791_49">
      <rect width="48" height="48" fill="white"></rect>
    </clipPath>
  </defs>
</svg>
