<?xml version="1.0" encoding="UTF-8"?>
<svg xmlns="http://www.w3.org/2000/svg" width="48" height="48" viewBox="0 0 48 48" fill="none">
  <g clip-path="url(#clip0_4393_136)">
    <path d="M12.6277 19.0069C12.7288 19.0065 12.8299 19.0062 12.934 19.0058C13.2728 19.0048 13.6115 19.0052 13.9503 19.0056C14.1931 19.0052 14.436 19.0047 14.6789 19.0041C15.2701 19.0029 15.8613 19.0028 16.4525 19.003C16.933 19.0031 17.4136 19.003 17.8942 19.0026C17.9626 19.0025 18.031 19.0025 18.1015 19.0024C18.2405 19.0023 18.3795 19.0022 18.5186 19.0021C19.8218 19.001 21.1251 19.0013 22.4284 19.0018C23.6204 19.0023 24.8124 19.0013 26.0044 18.9995C27.2287 18.9977 28.4531 18.9969 29.6774 18.9972C30.3646 18.9974 31.0519 18.9972 31.7391 18.9959C32.3852 18.9946 33.0313 18.9949 33.6775 18.9961C33.9147 18.9963 34.1519 18.996 34.3892 18.9953C34.7128 18.9943 35.0365 18.995 35.3601 18.9962C35.4541 18.9955 35.5481 18.9949 35.645 18.9941C36.2513 18.9988 36.7308 19.061 37.2117 19.4638C37.2546 19.5164 37.2975 19.569 37.3417 19.6231C37.4078 19.7009 37.4078 19.7009 37.4753 19.7802C37.7516 20.2207 37.8046 20.6526 37.8049 21.164C37.8052 21.2253 37.8055 21.2865 37.8058 21.3497C37.8066 21.5537 37.806 21.7577 37.8054 21.9617C37.8056 22.1085 37.806 22.2553 37.8064 22.4021C37.8072 22.8 37.8069 23.1978 37.8063 23.5957C37.8058 24.0125 37.8063 24.4294 37.8066 24.8462C37.8069 25.5463 37.8064 26.2463 37.8056 26.9464C37.8045 27.755 37.8049 28.5636 37.8059 29.3722C37.8068 30.0671 37.8069 30.762 37.8064 31.457C37.8061 31.8717 37.806 32.2864 37.8067 32.7012C37.8072 33.0912 37.8068 33.4813 37.8057 33.8714C37.8055 34.0142 37.8056 34.1571 37.806 34.3C37.8065 34.4956 37.8059 34.6911 37.8049 34.8867C37.8048 35.0506 37.8048 35.0506 37.8047 35.2179C37.7561 35.8637 37.5841 36.2908 37.1249 36.7501C36.7091 36.9998 36.4031 37.0666 35.9207 37.067C35.8584 37.0675 35.7962 37.0679 35.7321 37.0684C35.5248 37.0695 35.3176 37.0686 35.1103 37.0677C34.9612 37.0681 34.8121 37.0686 34.663 37.0692C34.2589 37.0705 33.8549 37.07 33.4509 37.0691C33.0279 37.0684 32.6049 37.069 32.1819 37.0695C31.4719 37.07 30.7618 37.0693 30.0517 37.068C29.2307 37.0665 28.4096 37.0669 27.5885 37.0685C26.8834 37.0698 26.1783 37.07 25.4732 37.0692C25.0521 37.0688 24.6311 37.0687 24.21 37.0697C23.8143 37.0705 23.4186 37.0699 23.023 37.0683C22.8777 37.0679 22.7324 37.068 22.5871 37.0686C22.389 37.0694 22.1909 37.0684 21.9927 37.067C21.8264 37.0669 21.8264 37.0669 21.6566 37.0667C21.346 37.0277 21.2173 36.9723 20.9999 36.7501C20.9061 36.4337 20.9061 36.4337 20.9061 36.0938C21.0717 35.8311 21.1902 35.6705 21.4686 35.5313C21.7204 35.5226 21.9697 35.5195 22.2214 35.5207C22.2992 35.5207 22.3769 35.5206 22.457 35.5206C22.7147 35.5207 22.9724 35.5214 23.2301 35.5222C23.4085 35.5223 23.5869 35.5225 23.7653 35.5226C24.2353 35.5229 24.7054 35.5238 25.1755 35.5249C25.7392 35.526 26.3029 35.5264 26.8667 35.527C27.7236 35.5279 28.5805 35.5297 29.4374 35.5313C29.4374 34.2938 29.4374 33.0563 29.4374 31.7813C23.5902 31.7813 17.743 31.7813 11.7186 31.7813C11.7495 33.0188 11.7805 34.2563 11.8124 35.5313C12.3348 35.527 12.8572 35.5226 13.3955 35.5181C13.7266 35.5162 14.0577 35.5144 14.3888 35.513C14.9143 35.5108 15.4398 35.5081 15.9653 35.503C16.3889 35.499 16.8126 35.4967 17.2363 35.4957C17.3979 35.495 17.5595 35.4937 17.7211 35.4917C17.9475 35.4889 18.1739 35.4886 18.4004 35.4887C18.4671 35.4874 18.5338 35.486 18.6025 35.4847C18.9385 35.4874 19.1157 35.5254 19.4008 35.7098C19.5936 35.9063 19.5936 35.9063 19.6526 36.0938C19.6495 36.1866 19.6495 36.1866 19.6463 36.2813C19.6465 36.3432 19.6466 36.4051 19.6467 36.4688C19.5673 36.7491 19.4489 36.8528 19.2186 37.0313C18.958 37.0688 18.7342 37.0836 18.4736 37.0813C18.3989 37.0821 18.3242 37.0829 18.2471 37.0838C18.0001 37.0859 17.7532 37.0853 17.5062 37.0844C17.3341 37.0849 17.162 37.0855 16.9898 37.0862C16.6289 37.0872 16.268 37.0867 15.907 37.0854C15.4457 37.0837 14.9845 37.0859 14.5232 37.0892C14.1675 37.0913 13.8119 37.0912 13.4562 37.0904C13.2862 37.0903 13.1162 37.091 12.9463 37.0923C11.2958 37.1037 11.2958 37.1037 10.6874 36.5626C10.2534 36.0284 10.2072 35.582 10.2054 34.9105C10.2052 34.8494 10.2049 34.7883 10.2046 34.7253C10.2038 34.5212 10.2036 34.3171 10.2035 34.1131C10.2031 33.9664 10.2026 33.8198 10.2021 33.6732C10.2009 33.2753 10.2003 32.8774 10.1998 32.4796C10.1996 32.2308 10.1992 31.9821 10.1988 31.7333C10.1975 30.9545 10.1966 30.1758 10.1962 29.397C10.1958 28.4989 10.1941 27.6009 10.1914 26.7028C10.1894 26.008 10.1885 25.3132 10.1883 24.6183C10.1882 24.2036 10.1877 23.7889 10.186 23.3742C10.1845 22.984 10.1843 22.5938 10.1851 22.2036C10.1852 22.0607 10.1848 21.9179 10.1838 21.775C10.1745 20.2534 10.1745 20.2534 10.6306 19.5916C10.6745 19.5498 10.7183 19.508 10.7635 19.4649C10.8067 19.4216 10.8498 19.3784 10.8943 19.3338C11.4249 18.9708 12.0121 19.0046 12.6277 19.0069ZM11.7186 20.7188C11.7186 21.9254 11.7186 23.1319 11.7186 24.3751C17.5658 24.3751 23.413 24.3751 29.4374 24.3751C29.4374 23.1066 29.4374 21.8382 29.4374 20.5313C27.1548 20.5271 24.8723 20.5236 22.5897 20.5216C21.5299 20.5206 20.4702 20.5193 19.4104 20.5172C18.487 20.5153 17.5636 20.5141 16.6402 20.5137C16.151 20.5134 15.6618 20.5129 15.1727 20.5115C14.7127 20.5102 14.2527 20.5098 13.7927 20.5101C13.6234 20.5101 13.4542 20.5097 13.285 20.509C13.0547 20.508 12.8245 20.5083 12.5942 20.5088C12.5265 20.5082 12.4589 20.5077 12.3892 20.5071C12.0119 20.4988 12.0119 20.4988 11.7186 20.7188ZM30.9374 20.5313C30.9374 21.7998 30.9374 23.0682 30.9374 24.3751C32.7008 24.3751 34.4642 24.3751 36.2811 24.3751C36.285 23.7757 36.2888 23.1762 36.2928 22.5587C36.2945 22.3695 36.2962 22.1803 36.298 21.9854C36.2985 21.8359 36.299 21.6864 36.2994 21.5369C36.3009 21.42 36.3009 21.42 36.3023 21.3006C36.3024 21.1066 36.2927 20.9125 36.2811 20.7188C36.1117 20.51 36.1117 20.51 35.8753 20.5088C35.7385 20.5094 35.7385 20.5094 35.599 20.51C35.4442 20.5101 35.4442 20.5101 35.2862 20.5101C35.1185 20.5115 35.1185 20.5115 34.9474 20.513C34.8332 20.5133 34.719 20.5135 34.6014 20.5138C34.2355 20.5149 33.8696 20.5172 33.5038 20.5196C33.2562 20.5205 33.0086 20.5214 32.7611 20.5222C32.1532 20.5241 31.5453 20.5277 30.9374 20.5313ZM11.7186 25.8751C11.7186 27.3291 11.7186 28.7832 11.7186 30.2813C17.5658 30.2813 23.413 30.2813 29.4374 30.2813C29.4374 28.8273 29.4374 27.3732 29.4374 25.8751C23.5902 25.8751 17.743 25.8751 11.7186 25.8751ZM30.9374 25.8751C30.9374 27.3291 30.9374 28.7832 30.9374 30.2813C32.7008 30.2813 34.4642 30.2813 36.2811 30.2813C36.2811 28.8273 36.2811 27.3732 36.2811 25.8751C34.5177 25.8751 32.7542 25.8751 30.9374 25.8751ZM30.9374 31.7813C30.9374 33.0188 30.9374 34.2563 30.9374 35.5313C32.6699 35.5313 34.4024 35.5313 36.1874 35.5313C36.3411 35.2239 36.2924 34.8839 36.2903 34.5462C36.2902 34.4764 36.2901 34.4065 36.29 34.3346C36.2895 34.0733 36.2882 33.8121 36.287 33.5508C36.285 32.9669 36.2831 32.383 36.2811 31.7813C34.5177 31.7813 32.7542 31.7813 30.9374 31.7813Z" fill="#FF7705"></path>
    <path d="M8.73396 -0.0624797C8.86821 -0.0627962 9.00246 -0.0632518 9.13671 -0.0638387C9.41589 -0.0645244 9.69499 -0.0635416 9.97416 -0.0613353C10.3316 -0.0586475 10.6888 -0.060216 11.0462 -0.0630098C11.3225 -0.0647035 11.5987 -0.064165 11.875 -0.0629499C12.0069 -0.0626381 12.1387 -0.0630181 12.2705 -0.0641122C12.4542 -0.065304 12.6379 -0.063165 12.8216 -0.0608775C12.9781 -0.0603181 12.9781 -0.0603181 13.1377 -0.0597474C13.4072 -0.000223808 13.4072 -0.000223808 13.6316 0.216702C13.7822 0.468526 13.7822 0.468526 13.7763 0.80837C13.6885 1.12455 13.6619 1.21821 13.4072 1.40603C13.1762 1.44151 13.1762 1.44151 12.8981 1.4421C12.7939 1.44305 12.6896 1.44399 12.5822 1.44497C12.413 1.44455 12.413 1.44455 12.2404 1.44411C12.1242 1.44513 12.008 1.44614 11.8883 1.44719C11.5157 1.45041 11.1431 1.45192 10.7705 1.4529C10.2819 1.45419 9.79341 1.45744 9.30488 1.46169C9.19323 1.46141 9.08158 1.46112 8.96655 1.46083C7.95059 1.46421 7.95059 1.46421 7.06816 1.91381C6.67295 2.3661 6.64345 2.75198 6.64486 3.32545C6.64467 3.39779 6.64447 3.47012 6.64427 3.54465C6.64374 3.78902 6.64388 4.03339 6.64401 4.27777C6.64377 4.45395 6.64349 4.63012 6.64317 4.8063C6.64241 5.292 6.64224 5.77769 6.64218 6.26339C6.642 6.7866 6.64129 7.3098 6.64066 7.83301C6.63939 8.97775 6.63882 10.1225 6.63841 11.2672C6.63815 11.9816 6.63776 12.696 6.63733 13.4103C6.63619 15.387 6.63522 17.3637 6.63491 19.3405C6.63489 19.4683 6.63487 19.5962 6.63484 19.724C6.63482 19.8522 6.6348 19.9803 6.63478 20.1085C6.63474 20.3656 6.6347 20.6227 6.63466 20.8799C6.63465 20.9436 6.63464 21.0074 6.63463 21.0731C6.63429 23.1407 6.63279 25.2083 6.63061 27.276C6.6283 29.4614 6.62702 31.6467 6.6269 33.8321C6.62682 35.0237 6.62628 36.2152 6.62458 37.4068C6.62314 38.4212 6.62265 39.4357 6.62343 40.4502C6.62379 40.968 6.6237 41.4859 6.62239 42.0037C6.6212 42.4775 6.6213 42.9513 6.62245 43.4251C6.62263 43.5967 6.62234 43.7684 6.62152 43.9401C6.62049 44.173 6.62118 44.4058 6.62231 44.6387C6.6216 44.7057 6.62089 44.7728 6.62015 44.8418C6.62586 45.3858 6.76408 45.7629 7.14937 46.1482C7.83334 46.5835 8.56111 46.5265 9.34677 46.5242C9.47821 46.5245 9.60965 46.5249 9.7411 46.5253C10.1014 46.5263 10.4617 46.5261 10.822 46.5257C11.211 46.5254 11.5999 46.5263 11.9889 46.527C12.7505 46.5282 13.5121 46.5283 14.2738 46.5281C14.8929 46.528 15.512 46.5281 16.1311 46.5285C16.2193 46.5286 16.3074 46.5286 16.3982 46.5287C16.5772 46.5288 16.7563 46.5289 16.9353 46.529C18.6143 46.53 20.2932 46.5298 21.9721 46.5293C23.5077 46.5288 25.0433 46.5298 26.5789 46.5316C28.156 46.5334 29.7332 46.5342 31.3103 46.5339C32.1956 46.5337 33.0809 46.5339 33.9662 46.5352C34.7198 46.5364 35.4735 46.5365 36.2271 46.5354C36.6115 46.5348 36.9959 46.5347 37.3803 46.5358C37.7325 46.5368 38.0847 46.5366 38.4369 46.5352C38.624 46.5349 38.8112 46.5359 38.9983 46.537C40.0335 46.5402 40.0335 46.5402 40.9334 46.0857C41.2372 45.7388 41.3562 45.4449 41.357 44.9918C41.3574 44.914 41.3577 44.8362 41.3581 44.756C41.3581 44.671 41.358 44.5859 41.358 44.4983C41.3583 44.4085 41.3586 44.3187 41.359 44.2261C41.3597 44.0309 41.3602 43.8357 41.3605 43.6405C41.3612 43.3316 41.3626 43.0227 41.3644 42.7138C41.3693 41.8355 41.3738 40.9572 41.3752 40.0788C41.3762 39.5417 41.3789 39.0047 41.3829 38.4676C41.384 38.2629 41.3845 38.0581 41.3843 37.8533C41.3841 37.5669 41.3861 37.2807 41.3887 36.9943C41.3881 36.9096 41.3875 36.8249 41.3869 36.7377C41.3927 36.3478 41.4067 36.1445 41.6173 35.8065C41.829 35.6103 41.9048 35.5626 42.1884 35.572C42.2503 35.5719 42.3122 35.5718 42.3759 35.5717C42.6635 35.6531 42.7591 35.7578 42.9384 35.9998C42.9956 36.3039 42.9896 36.6052 42.987 36.9139C42.9879 37.053 42.9879 37.053 42.9889 37.1949C42.9906 37.5019 42.9895 37.8088 42.9882 38.1157C42.9885 38.3295 42.9888 38.5432 42.9893 38.7569C42.9899 39.2053 42.9891 39.6537 42.9873 40.1022C42.9852 40.6753 42.9864 41.2483 42.9887 41.8214C42.99 42.2631 42.9896 42.7048 42.9886 43.1465C42.9884 43.3577 42.9887 43.5689 42.9895 43.7801C42.9905 44.0765 42.989 44.3727 42.987 44.6691C42.9877 44.7555 42.9885 44.8418 42.9893 44.9307C42.9787 45.7478 42.7351 46.4771 42.1826 47.0916C42.1196 47.1647 42.0566 47.2378 41.9918 47.3131C41.1643 47.9758 40.3354 48.0683 39.3049 48.0599C39.1672 48.0605 39.0294 48.0614 38.8917 48.0623C38.5156 48.0645 38.1396 48.0637 37.7636 48.0624C37.3571 48.0616 36.9506 48.0634 36.5441 48.0649C35.7487 48.0673 34.9533 48.0672 34.1579 48.0662C33.5112 48.0654 32.8645 48.0654 32.2178 48.0662C32.0796 48.0663 32.0796 48.0663 31.9385 48.0665C31.7513 48.0667 31.564 48.0669 31.3768 48.0671C29.6223 48.0689 27.8678 48.0678 26.1133 48.0657C24.6092 48.064 23.1051 48.065 21.601 48.068C19.8528 48.0714 18.1045 48.073 16.3563 48.0718C16.1697 48.0716 15.9832 48.0715 15.7966 48.0714C15.7048 48.0713 15.613 48.0713 15.5184 48.0712C14.8729 48.0709 14.2273 48.072 13.5818 48.0736C12.7945 48.0755 12.0073 48.0754 11.2201 48.0728C10.8187 48.0715 10.4174 48.0711 10.0161 48.0731C9.64806 48.075 9.28016 48.0742 8.91217 48.0714C8.77963 48.0709 8.64709 48.0712 8.51456 48.0727C7.52359 48.0827 6.71372 47.9046 5.95658 47.231C5.00916 46.2729 5.00913 45.1749 5.01581 43.9053C5.01538 43.7265 5.01478 43.5477 5.01404 43.3689C5.01247 42.879 5.01324 42.3891 5.01441 41.8992C5.01526 41.3703 5.01395 40.8414 5.01291 40.3125C5.01125 39.277 5.01161 38.2414 5.01269 37.2059C5.01354 36.3642 5.01366 35.5226 5.01325 34.681C5.01319 34.5611 5.01313 34.4413 5.01307 34.3179C5.01295 34.0745 5.01283 33.8311 5.01271 33.5877C5.01167 31.3707 5.01275 29.1537 5.01471 26.9367C5.01649 24.9137 5.01633 22.8908 5.01454 20.8678C5.01253 18.5939 5.01174 16.32 5.01289 14.0461C5.01301 13.8036 5.01313 13.5611 5.01325 13.3186C5.01331 13.1993 5.01336 13.08 5.01342 12.9571C5.01375 12.1165 5.0132 11.2759 5.01232 10.4353C5.01127 9.41083 5.01155 8.38637 5.01355 7.36191C5.01453 6.83926 5.01492 6.31663 5.01368 5.79399C5.01256 5.3154 5.01318 4.83684 5.01517 4.35825C5.01559 4.18528 5.01538 4.0123 5.01447 3.83932C5.00911 2.73589 5.0438 1.77044 5.81929 0.907979C5.88225 0.834865 5.94521 0.761751 6.01008 0.686422C6.84736 0.0159224 7.69097 -0.0712377 8.73396 -0.0624797Z" fill="#FF7705"></path>
    <path d="M16.464 -0.0487243C16.5665 -0.0494416 16.669 -0.0501589 16.7746 -0.0508979C17.1194 -0.0528382 17.464 -0.0520856 17.8088 -0.0513421C18.0555 -0.0521569 18.3022 -0.0531287 18.5488 -0.054246C19.1503 -0.0566387 19.7517 -0.0569721 20.3531 -0.0565335C20.8422 -0.0561992 21.3314 -0.0565271 21.8205 -0.0573256C21.8902 -0.0574372 21.9598 -0.0575488 22.0315 -0.0576638C22.1729 -0.057891 22.3144 -0.0581186 22.4558 -0.0583467C23.7829 -0.0603871 25.11 -0.0599799 26.4372 -0.058837C27.6498 -0.0578691 28.8624 -0.0599744 30.075 -0.063543C31.3208 -0.0671811 32.5667 -0.0687235 33.8125 -0.0680198C34.5117 -0.0676619 35.2108 -0.0681225 35.9099 -0.0707788C36.5055 -0.073019 37.1011 -0.0732692 37.6968 -0.0710057C38.0004 -0.0699055 38.3039 -0.0699922 38.6074 -0.0719436C41.0956 -0.0867801 41.0956 -0.08678 42.0406 0.768927C42.7619 1.48314 42.9792 2.29232 42.988 3.28762C42.9871 3.4072 42.9863 3.52678 42.9854 3.64998C42.9859 3.78046 42.9865 3.91093 42.9872 4.0414C42.9888 4.39772 42.988 4.754 42.9868 5.11032C42.986 5.49542 42.9873 5.88051 42.9883 6.2656C42.99 7.01896 42.9896 7.77231 42.9885 8.52568C42.9877 9.13778 42.9876 9.74988 42.988 10.362C42.988 10.4492 42.9881 10.5364 42.9882 10.6262C42.9883 10.8033 42.9884 10.9804 42.9885 11.1576C42.9896 12.817 42.9884 14.4764 42.9864 16.1358C42.9847 17.5602 42.985 18.9845 42.9867 20.4089C42.9887 22.0633 42.9895 23.7178 42.9883 25.3722C42.9882 25.5485 42.9881 25.7248 42.988 25.9011C42.9879 26.0312 42.9879 26.0312 42.9878 26.1639C42.9875 26.7757 42.988 27.3875 42.9889 27.9992C42.99 28.7442 42.9897 29.4891 42.9877 30.234C42.9867 30.6142 42.9863 30.9943 42.9876 31.3745C42.9887 31.7223 42.9881 32.07 42.9861 32.4177C42.9854 32.6036 42.9867 32.7895 42.988 32.9754C42.9865 33.1403 42.9865 33.1403 42.985 33.3084C42.9849 33.4035 42.9849 33.4985 42.9848 33.5964C42.9252 33.9104 42.8075 34.0201 42.5628 34.2189C42.3153 34.3307 42.2118 34.3191 41.9476 34.2482C41.6862 34.1075 41.5905 34.0031 41.4378 33.7502C41.4026 33.5047 41.4026 33.5047 41.4025 33.2195C41.4018 33.1107 41.4011 33.0019 41.4004 32.8897C41.401 32.7701 41.4016 32.6505 41.4023 32.5272C41.402 32.3989 41.4016 32.2706 41.401 32.1423C41.3999 31.7894 41.4005 31.4364 41.4014 31.0835C41.402 30.703 41.401 30.3225 41.4002 29.942C41.399 29.2825 41.3988 28.623 41.3993 27.9635C41.3999 27.0093 41.3988 26.0552 41.3971 25.1011C41.3944 23.5523 41.3928 22.0035 41.392 20.4547C41.3919 20.362 41.3919 20.2693 41.3918 20.1738C41.3915 19.5156 41.3912 18.8575 41.3909 18.1994C41.3906 17.4479 41.3903 16.6965 41.3899 15.945C41.3898 15.8062 41.3898 15.8062 41.3897 15.6646C41.3889 14.1219 41.387 12.5792 41.3843 11.0365C41.3827 10.0847 41.3821 9.13283 41.3827 8.18101C41.3831 7.52888 41.3825 6.87677 41.3812 6.22465C41.3804 5.84825 41.3801 5.47187 41.3811 5.09547C41.3819 4.75092 41.3815 4.4064 41.38 4.06185C41.3796 3.87812 41.3805 3.69438 41.3815 3.51065C41.3771 2.83193 41.3532 2.35304 40.8519 1.85172C40.2441 1.46494 39.6315 1.47329 38.9325 1.47657C38.8323 1.47629 38.7321 1.47602 38.6288 1.47573C38.2936 1.47501 37.9583 1.47562 37.6231 1.47622C37.3825 1.47596 37.142 1.47561 36.9014 1.47519C36.3837 1.47443 35.8661 1.47421 35.3484 1.47443C34.5995 1.47472 33.8506 1.47363 33.1017 1.47213C31.886 1.4697 30.6704 1.46782 29.4547 1.46656C29.382 1.46648 29.3093 1.4664 29.2344 1.46633C28.2016 1.46527 27.1688 1.46478 26.1361 1.46451C26.0269 1.46448 26.0269 1.46448 25.9155 1.46445C25.8428 1.46443 25.7701 1.46441 25.6952 1.46439C24.4836 1.46404 23.2721 1.46226 22.0605 1.45929C21.3133 1.45751 20.5661 1.45695 19.8189 1.45796C19.2469 1.45862 18.675 1.45735 18.103 1.45537C17.8681 1.45487 17.6331 1.45501 17.3982 1.45584C17.0783 1.45688 16.7585 1.45563 16.4387 1.4538C16.345 1.45465 16.2513 1.45551 16.1548 1.45639C15.5311 1.44941 15.5311 1.44941 15.2239 1.23645C15.032 0.933401 15.044 0.725819 15.0941 0.375156C15.4169 -0.140771 15.9184 -0.0527404 16.464 -0.0487243Z" fill="#FF7705"></path>
    <path d="M30.5801 40.8338C31.0973 41.2821 31.513 41.7957 31.875 42.3749C32.094 42.3732 32.094 42.3732 32.3438 42.2811C32.513 42.086 32.6567 41.9014 32.8008 41.6893C33.1732 41.1416 33.5188 40.8029 34.1803 40.6203C34.8103 40.5606 35.2893 40.6112 35.7975 41.0104C36.1095 41.3039 36.3355 41.6105 36.5566 41.9764C36.8393 42.426 37.0945 42.5063 37.5938 42.6561C37.8263 43.0049 37.8247 43.1809 37.7813 43.5936C37.6465 43.8221 37.6465 43.8221 37.4063 43.9686C36.9023 44.0646 36.4444 43.986 35.9982 43.7375C35.6156 43.441 35.3466 43.0435 35.0625 42.6561C34.9381 42.4994 34.8133 42.343 34.6875 42.1874C34.4013 42.2159 34.3217 42.27 34.1349 42.4961C34.0756 42.5856 34.0162 42.6752 33.9551 42.7674C33.596 43.2827 33.2417 43.763 32.625 43.9686C31.9643 44.0337 31.3764 44.0217 30.8438 43.5936C30.4982 43.2176 30.2015 42.8091 29.9077 42.3921C29.8454 42.3245 29.783 42.257 29.7188 42.1874C29.595 42.1874 29.4713 42.1874 29.3438 42.1874C29.3191 42.2407 29.2944 42.2939 29.269 42.3489C28.9245 43.001 28.3753 43.7289 27.6563 43.9686C27.2771 44.0049 26.9318 44.0193 26.5781 43.869C26.3629 43.591 26.3438 43.3792 26.3438 43.0311C26.5308 42.6882 26.665 42.5823 27.0322 42.4463C27.4182 42.2874 27.6163 42.0169 27.8438 41.6776C28.2067 41.1399 28.5425 40.8396 29.1687 40.6159C29.6618 40.553 30.1353 40.6158 30.5801 40.8338Z" fill="#FF7705"></path>
    <path d="M12.9366 3.75016C13.4406 4.06276 13.7233 4.55503 14.044 5.03922C14.1 5.12249 14.1561 5.20575 14.2138 5.29154C14.3512 5.49607 14.488 5.70102 14.6241 5.90641C14.6192 5.75378 14.6192 5.75378 14.6142 5.59806C14.6116 5.46257 14.609 5.32707 14.6065 5.19157C14.6042 5.12474 14.6018 5.05791 14.5994 4.98905C14.5932 4.53778 14.6565 4.23557 14.9054 3.84391C15.1952 3.69899 15.4298 3.72264 15.7491 3.75016C15.9866 3.9352 16.1063 4.05424 16.1804 4.34876C16.1866 4.47609 16.1866 4.47609 16.193 4.606C16.2007 4.75521 16.2007 4.75521 16.2085 4.90743C16.2116 5.02053 16.2147 5.13363 16.2179 5.25016C16.2206 5.34466 16.2206 5.34466 16.2233 5.44107C16.2346 5.86446 16.2393 6.28765 16.2404 6.71118C16.2413 6.93374 16.2442 7.15622 16.2472 7.37876C16.2478 7.52165 16.2483 7.66453 16.2486 7.80741C16.2498 7.87324 16.2509 7.93906 16.2521 8.00688C16.2503 8.41768 16.1852 8.67186 15.9366 9.00016C15.7023 9.1779 15.5823 9.1881 15.2862 9.1818C14.6625 8.99087 14.3322 8.36389 13.9854 7.84586C13.9384 7.77644 13.8913 7.70701 13.8428 7.63548C13.7278 7.46568 13.6132 7.29557 13.4991 7.12516C13.4967 7.24263 13.4943 7.36009 13.4918 7.48112C13.4865 7.63591 13.4811 7.79069 13.4757 7.94547C13.4737 8.06149 13.4737 8.06149 13.4716 8.17985C13.4486 8.75239 13.4486 8.75239 13.234 9.0518C12.9356 9.25092 12.7246 9.23148 12.3741 9.18766C12.0755 9.02265 12.0148 8.95339 11.9054 8.62516C11.8959 8.48527 11.8915 8.345 11.8903 8.2048C11.8894 8.11999 11.8885 8.03519 11.8875 7.94781C11.8871 7.8564 11.8867 7.76499 11.8863 7.67082C11.8858 7.57661 11.8853 7.48239 11.8847 7.38533C11.8838 7.18595 11.8832 6.98657 11.8828 6.78719C11.8819 6.48247 11.879 6.1778 11.8761 5.87309C11.8755 5.67936 11.875 5.48564 11.8746 5.29191C11.8734 5.20088 11.8723 5.10985 11.8711 5.01606C11.8726 4.55197 11.8741 4.21584 12.1866 3.84391C12.4541 3.71017 12.6399 3.72107 12.9366 3.75016Z" fill="#FF7705"></path>
    <path d="M25.218 4.12496C25.8157 4.59315 26.1959 5.13443 26.4133 5.85934C26.5041 6.76673 26.3651 7.52325 25.7805 8.24996C25.1407 8.91258 24.5991 9.19417 23.677 9.22848C22.8392 9.20526 22.2456 8.91746 21.6361 8.34811C21.1466 7.78922 20.8839 7.11798 20.9055 6.37496C20.9816 5.51973 21.2963 4.91499 21.9192 4.33004C22.8608 3.5635 24.1708 3.48768 25.218 4.12496ZM22.6267 5.79708C22.4015 6.15561 22.4298 6.5295 22.4993 6.93746C22.6536 7.23754 22.8719 7.42947 23.1438 7.62887C23.5846 7.75851 23.899 7.74144 24.304 7.5234C24.6598 7.23224 24.8086 7.07017 24.9251 6.62106C24.9419 6.13183 24.7828 5.86591 24.468 5.50192C23.8448 4.97605 23.1205 5.24452 22.6267 5.79708Z" fill="#FF7705"></path>
    <path d="M34.2194 4.12506C34.4714 4.34185 34.4714 4.34185 34.5944 4.59381C34.5888 4.91889 34.5579 5.14583 34.4011 5.4317C34.1049 5.59414 33.7957 5.57192 33.4694 5.53131C33.3437 5.47033 33.2186 5.4079 33.0944 5.34381C32.607 5.29867 32.2831 5.3473 31.8757 5.62506C31.6316 5.95573 31.5724 6.21352 31.5944 6.61529C31.6437 6.91934 31.6991 7.04759 31.8757 7.31256C32.2477 7.56056 32.5538 7.6492 33.0007 7.59381C33.2055 7.48706 33.3835 7.36223 33.5709 7.22759C33.7507 7.12506 33.7507 7.12506 34.1081 7.12506C34.5604 7.26693 34.5604 7.26693 34.6882 7.50006C34.7256 7.78973 34.7459 7.97256 34.6882 8.25006C34.3389 8.70215 33.8516 9.07978 33.2819 9.18756C32.3623 9.26981 31.6017 9.1329 30.862 8.5606C30.356 8.09045 30.0397 7.46739 29.9784 6.78155C29.9557 5.87633 30.144 5.13193 30.7716 4.45648C31.7531 3.60872 33.0904 3.47442 34.2194 4.12506Z" fill="#FF7705"></path>
    <path d="M30.1858 11.9817C30.272 11.9809 30.3581 11.9802 30.4469 11.9794C30.7322 11.9771 31.0176 11.9755 31.303 11.9742C31.4004 11.9737 31.4978 11.9732 31.5982 11.9726C32.1136 11.9701 32.629 11.9683 33.1444 11.967C33.6771 11.9654 34.2097 11.9612 34.7424 11.9564C35.1517 11.9533 35.5611 11.9522 35.9705 11.9517C36.1669 11.951 36.3633 11.9496 36.5596 11.9474C36.8344 11.9444 37.1089 11.9444 37.3837 11.9451C37.4648 11.9436 37.546 11.942 37.6296 11.9404C38.0365 11.9447 38.2013 11.9627 38.5352 12.2167C38.7188 12.4685 38.7188 12.4685 38.7715 12.8025C38.7188 13.1248 38.7188 13.1248 38.5823 13.3293C38.2249 13.5847 37.9032 13.553 37.4738 13.5498C37.3418 13.551 37.3418 13.551 37.2072 13.5523C36.9162 13.5544 36.6253 13.5537 36.3344 13.5529C36.1321 13.5534 35.9299 13.554 35.7277 13.5547C35.3038 13.5556 34.8799 13.5552 34.4559 13.5538C33.9126 13.5522 33.3694 13.5544 32.8261 13.5577C32.4084 13.5598 31.9908 13.5596 31.5732 13.5589C31.3728 13.5588 31.1725 13.5594 30.9722 13.5608C30.6921 13.5624 30.4122 13.5611 30.132 13.559C30.0493 13.5601 29.9665 13.5612 29.8813 13.5623C29.469 13.5559 29.3005 13.5386 28.9634 13.2797C28.7812 13.031 28.7812 13.031 28.7344 12.7439C28.7857 12.4424 28.8476 12.3085 29.0625 12.0935C29.4362 11.969 29.796 11.9836 30.1858 11.9817Z" fill="#FF7705"></path>
    <path d="M36.5954 3.7002C36.6891 3.69971 36.7827 3.69923 36.8792 3.69873C36.976 3.70018 37.0728 3.70163 37.1726 3.70312C37.3178 3.70095 37.3178 3.70095 37.4659 3.69873C37.8912 3.70093 38.1731 3.70656 38.5488 3.91699C38.7788 4.19741 38.7901 4.34567 38.7626 4.69629C38.7194 4.875 38.7194 4.875 38.5554 5.10938C38.0886 5.32479 37.6315 5.27904 37.1257 5.25C37.1257 5.40469 37.1257 5.55938 37.1257 5.71875C37.1947 5.71331 37.2637 5.70787 37.3348 5.70227C38.0805 5.66779 38.0805 5.66779 38.4558 5.91797C38.6582 6.23905 38.7031 6.37816 38.6257 6.75C38.4558 7.01953 38.4558 7.01953 38.1569 7.21875C37.8096 7.25729 37.4736 7.24617 37.1257 7.21875C37.1257 7.37344 37.1257 7.52813 37.1257 7.6875C37.2093 7.68315 37.2929 7.6788 37.3791 7.67432C37.4888 7.67093 37.5986 7.66755 37.7116 7.66406C37.8204 7.65971 37.9291 7.65536 38.0412 7.65088C38.3444 7.6875 38.3444 7.6875 38.5682 7.85303C38.7265 8.07234 38.7727 8.171 38.7722 8.4375C38.7742 8.49937 38.7763 8.56125 38.7784 8.625C38.6784 8.94303 38.5413 9.02487 38.2507 9.1875C37.8903 9.24242 37.5364 9.23983 37.1726 9.23438C37.0758 9.23583 36.979 9.23728 36.8792 9.23877C36.7387 9.23804 36.7387 9.23804 36.5954 9.2373C36.4681 9.23667 36.4681 9.23667 36.3381 9.23602C35.9886 9.16644 35.8554 9.08999 35.6257 8.8125C35.5548 8.46333 35.56 8.11895 35.5634 7.76367C35.563 7.66105 35.5625 7.55842 35.5621 7.45269C35.5617 7.23582 35.5626 7.01895 35.5646 6.80209C35.5671 6.46993 35.5646 6.13806 35.5616 5.80591C35.5619 5.59521 35.5625 5.38452 35.5634 5.17383C35.5625 5.07441 35.5615 4.97499 35.5605 4.87255C35.5714 4.19052 35.5714 4.19052 35.8326 3.87506C36.1111 3.74203 36.2883 3.70173 36.5954 3.7002Z" fill="#FF7705"></path>
    <path d="M17.8129 3.75006C18.2672 4.0675 18.3754 4.58309 18.5395 5.08599C18.5691 5.17373 18.5987 5.26147 18.6292 5.35186C18.7019 5.56762 18.7735 5.78366 18.8442 6.00006C19.0001 5.76621 19.0767 5.61507 19.1599 5.35589C19.1829 5.28659 19.206 5.21728 19.2298 5.14587C19.2772 5.00103 19.3241 4.85601 19.3704 4.71081C19.5055 4.30883 19.6183 4.01406 19.9692 3.75006C20.3198 3.69038 20.4857 3.72607 20.8012 3.89068C21.0326 4.16286 21.034 4.31045 21.024 4.6593C20.9808 5.05472 20.856 5.42072 20.7298 5.79644C20.6878 5.92461 20.6878 5.92461 20.6449 6.05537C20.5856 6.23488 20.5258 6.41419 20.4654 6.59332C20.3735 6.86712 20.2845 7.14175 20.1957 7.41656C20.1376 7.59142 20.0793 7.76623 20.0208 7.94098C19.9945 8.02281 19.9682 8.10465 19.9412 8.18897C19.7841 8.64607 19.6552 8.93363 19.2192 9.18756C18.8911 9.24029 18.8911 9.24029 18.5629 9.18756C18.0805 8.81184 17.9286 8.37294 17.7375 7.81427C17.7067 7.72701 17.676 7.63975 17.6443 7.54985C17.5798 7.36585 17.516 7.18161 17.4529 6.99716C17.3562 6.71578 17.2566 6.43556 17.1567 6.15533C17.0943 5.97595 17.032 5.79651 16.9699 5.617C16.9402 5.53368 16.9104 5.45036 16.8797 5.36451C16.7148 4.87485 16.6491 4.53539 16.7817 4.03131C17.0703 3.68721 17.3848 3.69654 17.8129 3.75006Z" fill="#FF7705"></path>
    <path d="M28.5008 3.75006C28.7777 3.94206 28.9439 4.09394 29.0134 4.43196C29.0317 4.69989 29.0345 4.96393 29.0318 5.23248C29.0323 5.33058 29.0327 5.42869 29.0332 5.52977C29.0335 5.73686 29.0326 5.94395 29.0307 6.15103C29.0282 6.46775 29.0306 6.78417 29.0336 7.10089C29.0333 7.3023 29.0327 7.50372 29.0318 7.70513C29.0328 7.79968 29.0337 7.89422 29.0347 7.99162C29.0273 8.43481 29.0212 8.65002 28.7489 9.01287C28.5008 9.18756 28.5008 9.18756 28.2196 9.24615C27.8254 9.16402 27.7109 9.04228 27.4696 8.71881C27.4006 8.37303 27.4061 8.03295 27.4106 7.68133C27.4103 7.53071 27.4103 7.53071 27.4099 7.37706C27.41 7.16516 27.4113 6.95326 27.4136 6.74138C27.4168 6.41686 27.4155 6.09258 27.4137 5.76806C27.4144 5.56207 27.4153 5.35607 27.4165 5.15008C27.416 5.053 27.4155 4.95593 27.415 4.85591C27.426 4.1884 27.426 4.1884 27.6402 3.87679C27.9475 3.68619 28.1469 3.69417 28.5008 3.75006Z" fill="#FF7705"></path>
    <path d="M10.3119 3.75C10.6105 3.91501 10.6712 3.98427 10.7806 4.3125C10.7901 4.45239 10.7945 4.59265 10.7957 4.73286C10.7966 4.81767 10.7975 4.90247 10.7985 4.98985C10.7989 5.08125 10.7993 5.17266 10.7997 5.26684C10.8002 5.36105 10.8007 5.45526 10.8013 5.55233C10.8022 5.75171 10.8028 5.95108 10.8031 6.15046C10.8041 6.45519 10.807 6.75986 10.8099 7.06457C10.8105 7.2583 10.811 7.45202 10.8114 7.64575C10.8125 7.73678 10.8137 7.82781 10.8149 7.92159C10.8134 8.38569 10.8119 8.72182 10.4994 9.09375C10.2095 9.23867 9.97491 9.21502 9.65562 9.1875C9.44999 9.06372 9.44999 9.06372 9.28062 8.8125C9.22356 8.46323 9.22812 8.1169 9.23082 7.76367C9.23046 7.66104 9.2301 7.55842 9.22973 7.45269C9.22947 7.23582 9.23016 7.01895 9.23173 6.80209C9.23374 6.46996 9.23175 6.13803 9.22935 5.8059C9.2296 5.59521 9.23008 5.38452 9.23082 5.17382C9.23006 5.0744 9.2293 4.97498 9.22852 4.87255C9.23724 4.18887 9.23724 4.18887 9.45073 3.87451C9.75181 3.69154 9.96676 3.70686 10.3119 3.75Z" fill="#FF7705"></path>
    <path d="M34.6056 15.0787C34.6829 15.0778 34.7602 15.0769 34.8398 15.076C34.923 15.0756 35.0062 15.0752 35.0919 15.0748C35.1778 15.0743 35.2637 15.0737 35.3522 15.0732C35.5339 15.0723 35.7156 15.0717 35.8974 15.0713C36.1749 15.0704 36.4524 15.0675 36.73 15.0645C36.9066 15.0639 37.0833 15.0634 37.2599 15.0631C37.3427 15.0619 37.4256 15.0608 37.5109 15.0596C37.9587 15.0612 38.2641 15.0796 38.6259 15.3751C38.7708 15.6649 38.7471 15.8996 38.7196 16.2188C38.5907 16.4245 38.5907 16.4245 38.3446 16.5938C38.0226 16.6503 37.7041 16.6464 37.3778 16.6436C37.2835 16.644 37.1892 16.6444 37.0921 16.6447C36.8929 16.645 36.6936 16.6443 36.4944 16.6427C36.1895 16.6407 35.8847 16.6427 35.5797 16.6451C35.3861 16.6449 35.1925 16.6444 34.9989 16.6436C34.9077 16.6444 34.8165 16.6452 34.7225 16.6459C34.0947 16.6372 34.0947 16.6372 33.7868 16.4237C33.5967 16.1234 33.6136 15.9104 33.6571 15.5626C33.8872 15.1462 34.1501 15.083 34.6056 15.0787Z" fill="#FF7705"></path>
  </g>
  <defs>
    <clipPath id="clip0_4393_136">
      <rect width="48" height="48" fill="white"></rect>
    </clipPath>
  </defs>
</svg>
