<?xml version="1.0" encoding="UTF-8"?>
<svg xmlns="http://www.w3.org/2000/svg" width="48" height="48" viewBox="0 0 48 48" fill="none">
  <path d="M11.1351 0.924655C11.2278 0.924179 11.3205 0.923704 11.416 0.923214C11.5182 0.923167 11.6203 0.92312 11.7256 0.923072C11.888 0.922456 11.888 0.922456 12.0537 0.921827C12.3549 0.92079 12.656 0.920176 12.9571 0.919748C13.2817 0.919189 13.6063 0.918101 13.9309 0.917096C14.7151 0.914796 15.4994 0.913425 16.2836 0.912215C16.5052 0.911867 16.7267 0.911494 16.9482 0.911113C18.3242 0.908747 19.7002 0.90668 21.0762 0.905514C21.3949 0.905239 21.7137 0.904961 22.0324 0.904679C22.1116 0.904609 22.1908 0.904539 22.2725 0.904467C23.5552 0.903281 24.838 0.900167 26.1207 0.89626C27.438 0.89228 28.7552 0.890073 30.0725 0.889584C30.812 0.889264 31.5514 0.888165 32.2909 0.885074C32.9208 0.882445 33.5507 0.881419 34.1806 0.882467C34.5018 0.882953 34.823 0.882689 35.1442 0.880361C35.493 0.878235 35.8418 0.879011 36.1906 0.8805C36.2913 0.879199 36.392 0.877897 36.4957 0.876556C37.2416 0.884385 37.8595 1.06318 38.429 1.5638C38.819 1.96502 39.0935 2.52586 39.0935 3.09375C39.1549 3.09313 39.2162 3.0925 39.2794 3.09186C39.9212 3.08561 40.5631 3.08138 41.2049 3.0783C41.4441 3.07689 41.6832 3.07498 41.9224 3.07253C42.2673 3.0691 42.6121 3.06752 42.957 3.06628C43.0629 3.06483 43.1688 3.06338 43.2779 3.06189C44.386 3.06165 45.2744 3.32636 46.1013 4.07813C46.2057 4.19414 46.2057 4.19414 46.3123 4.3125C46.3761 4.38018 46.4399 4.44785 46.5056 4.51758C47.0133 5.25455 47.1171 5.96822 47.1099 6.84665C47.1108 7.01166 47.1108 7.01166 47.1117 7.18002C47.1129 7.48288 47.1124 7.78569 47.1113 8.08855C47.1104 8.41614 47.1117 8.74373 47.1128 9.07131C47.1144 9.71207 47.1141 10.3528 47.113 10.9936C47.1121 11.5145 47.112 12.0355 47.1124 12.5565C47.1125 12.6307 47.1126 12.705 47.1126 12.7815C47.1127 12.9325 47.1129 13.0834 47.113 13.2343C47.114 14.6479 47.1128 16.0615 47.1108 17.4751C47.1091 18.6868 47.1094 19.8985 47.1111 21.1102C47.1132 22.5189 47.1139 23.9276 47.1128 25.3363C47.1127 25.4866 47.1126 25.6369 47.1124 25.7873C47.1124 25.8982 47.1124 25.8982 47.1123 26.0114C47.1119 26.5315 47.1125 27.0515 47.1134 27.5716C47.1144 28.2058 47.1141 28.84 47.1121 29.4741C47.1112 29.7974 47.1108 30.1207 47.112 30.444C47.113 30.7951 47.1117 31.146 47.1099 31.4971C47.1111 31.6491 47.1111 31.6491 47.1124 31.8041C47.1018 32.8374 46.7511 33.6633 46.031 34.4062C45.0564 35.2359 43.988 35.2912 42.7578 35.2819C42.6089 35.2819 42.4601 35.2819 42.3112 35.2821C41.9098 35.2821 41.5083 35.2805 41.1068 35.2785C40.6863 35.2768 40.2658 35.2766 39.8452 35.2763C39.0501 35.2754 38.2549 35.2731 37.4597 35.2703C36.554 35.2671 35.6482 35.2656 34.7425 35.2642C32.8803 35.2612 31.0182 35.2563 29.156 35.25C29.1976 35.6517 29.2404 36.0533 29.2834 36.4548C29.2951 36.5674 29.3067 36.68 29.3187 36.796C29.4747 38.2381 29.7634 39.5523 30.5623 40.7812C30.6253 40.8804 30.6253 40.8804 30.6897 40.9816C31.1093 41.5505 31.8251 41.9143 32.5096 42.0525C32.8211 42.095 33.1213 42.1087 33.4356 42.1135C33.553 42.1162 33.6705 42.1188 33.7915 42.1216C34.0364 42.1265 34.2812 42.1306 34.5261 42.134C35.3302 42.1539 36.0869 42.1927 36.7073 42.7756C37.2871 43.4646 37.4576 44.1421 37.4646 45.0234C37.4656 45.1021 37.4666 45.1808 37.4677 45.2619C37.4558 45.7837 37.3792 46.2801 37.031 46.6875C36.4727 47.0853 36.0352 47.1161 35.3607 47.1101C35.2595 47.1107 35.1583 47.1113 35.0541 47.1119C34.7156 47.1134 34.3772 47.1122 34.0387 47.111C33.7958 47.1115 33.553 47.1122 33.3101 47.113C32.7192 47.1147 32.1283 47.1143 31.5375 47.1132C31.0571 47.1124 30.5768 47.1123 30.0965 47.1127C30.0281 47.1127 29.9597 47.1128 29.8892 47.1129C29.7502 47.113 29.6113 47.1131 29.4723 47.1132C28.1696 47.1143 26.867 47.1131 25.5643 47.111C24.4471 47.1094 23.3298 47.1097 22.2126 47.1114C20.9145 47.1134 19.6164 47.1142 18.3184 47.113C18.1799 47.1129 18.0414 47.1128 17.903 47.1127C17.8348 47.1126 17.7667 47.1126 17.6965 47.1125C17.2169 47.1122 16.7373 47.1127 16.2577 47.1136C15.6119 47.1148 14.9662 47.1139 14.3204 47.1118C14.0833 47.1113 13.8463 47.1114 13.6092 47.1123C13.2857 47.1133 12.9623 47.112 12.6389 47.1101C12.498 47.1114 12.4979 47.1114 12.3542 47.1127C11.7799 47.1062 11.439 47.0228 10.9685 46.6875C10.5636 46.2137 10.5271 45.6222 10.5349 45.0234C10.5361 44.9002 10.5361 44.9002 10.5373 44.7744C10.565 43.9745 10.7658 43.3308 11.3406 42.7515C11.8729 42.3215 12.4058 42.1666 13.0885 42.1553C13.2641 42.1511 13.2641 42.1511 13.4432 42.1469C13.5643 42.1448 13.6855 42.1427 13.8103 42.1406C15.0782 42.1189 16.1983 42.0988 17.1538 41.1621C18.2668 39.8285 18.5374 38.1342 18.7135 36.4636C18.7262 36.3466 18.7388 36.2297 18.7518 36.1092C18.7827 35.8228 18.8133 35.5364 18.8435 35.25C18.7666 35.2503 18.6897 35.2505 18.6104 35.2508C16.7363 35.257 14.8622 35.2617 12.9881 35.2646C12.0818 35.266 11.1755 35.268 10.2692 35.2712C9.47904 35.274 8.68887 35.2758 7.89868 35.2765C7.48051 35.2768 7.06235 35.2777 6.64418 35.2797C6.25004 35.2817 5.85593 35.2822 5.46179 35.2818C5.31766 35.2819 5.17352 35.2824 5.0294 35.2835C3.78519 35.2924 2.83952 35.1437 1.87476 34.3125C1.09932 33.5104 0.880711 32.5848 0.889005 31.4984C0.888029 31.3335 0.888028 31.3335 0.887032 31.1654C0.885621 30.8629 0.885873 30.5604 0.886859 30.2579C0.887518 29.9307 0.886012 29.6035 0.884797 29.2763C0.882773 28.6363 0.882779 27.9962 0.883543 27.3561C0.884135 26.8356 0.884026 26.3151 0.883424 25.7946C0.883339 25.7204 0.883255 25.6461 0.883168 25.5697C0.882994 25.4189 0.88282 25.2681 0.882644 25.1172C0.881091 23.7045 0.881905 22.2919 0.883486 20.8791C0.884863 19.5884 0.883493 18.2976 0.880789 17.0068C0.878029 15.6796 0.877006 14.3524 0.8779 13.0251C0.877996 12.8748 0.878089 12.7245 0.878179 12.5743C0.878224 12.5003 0.878268 12.4264 0.878314 12.3502C0.878517 11.8308 0.877601 11.3114 0.876232 10.792C0.874585 10.1583 0.874606 9.52459 0.876734 8.89089C0.877775 8.56795 0.878083 8.24506 0.87633 7.92212C0.874832 7.5711 0.876243 7.22021 0.878362 6.86919C0.877253 6.76842 0.876143 6.66764 0.875 6.56382C0.885111 5.73567 1.11338 4.94828 1.61694 4.27734C2.39049 3.53895 3.28171 3.08058 4.36144 3.08311C4.46276 3.08311 4.56408 3.08312 4.66847 3.08313C4.83095 3.08385 4.83095 3.08385 4.9967 3.08459C5.16426 3.08479 5.16426 3.08479 5.3352 3.085C5.69149 3.08552 6.04777 3.0867 6.40405 3.08789C6.64581 3.08836 6.88757 3.08879 7.12933 3.08917C7.72156 3.09021 8.31378 3.09177 8.90601 3.09375C8.91821 3.03551 8.93041 2.97727 8.94298 2.91727C8.95934 2.84103 8.97571 2.76479 8.99257 2.68625C9.00864 2.61061 9.02471 2.53496 9.04126 2.45703C9.18073 1.90438 9.58171 1.52468 10.0486 1.22461C10.4141 1.01194 10.7121 0.925807 11.1351 0.924655ZM10.5239 2.38147C9.6404 3.57881 10.1248 4.21406 10.1248 6.1875C19.2823 6.1875 28.4398 6.1875 37.8748 6.1875C38.1054 3.45012 38.1054 3.45012 37.5935 2.53125C37.166 2.11501 36.785 2.05094 36.2048 2.05044C36.1161 2.05014 36.0274 2.04984 35.9361 2.04952C35.8394 2.04967 35.7427 2.04982 35.6431 2.04996C35.5398 2.04975 35.4365 2.04954 35.3301 2.04932C34.9832 2.04873 34.6364 2.0488 34.2896 2.04888C34.0412 2.0486 33.7928 2.04829 33.5444 2.04793C32.9394 2.04715 32.3343 2.04689 31.7292 2.04684C31.2374 2.04679 30.7456 2.0466 30.2537 2.0463C28.8591 2.04548 27.4645 2.04505 26.0698 2.04512C25.9571 2.04512 25.9571 2.04512 25.842 2.04513C25.7668 2.04513 25.6915 2.04514 25.614 2.04514C24.3941 2.04518 23.1742 2.04428 21.9543 2.04296C20.7016 2.04161 19.4488 2.04096 18.1961 2.04105C17.4928 2.04108 16.7896 2.04082 16.0863 2.03981C15.4876 2.03896 14.8889 2.03875 14.2902 2.03939C13.9848 2.0397 13.6794 2.0396 13.374 2.03889C13.0427 2.03817 12.7115 2.0386 12.3802 2.03932C12.284 2.03884 12.1877 2.03836 12.0885 2.03786C11.2569 2.03311 11.2569 2.03311 10.5239 2.38147ZM2.62476 5.0625C2.06042 5.87612 2.04826 6.63157 2.04972 7.59251C2.04951 7.69539 2.04929 7.79827 2.04908 7.90427C2.04848 8.24856 2.04856 8.59284 2.04864 8.93713C2.04836 9.18416 2.04804 9.43119 2.04768 9.67823C2.04691 10.2793 2.04665 10.8805 2.04659 11.4816C2.04655 11.9704 2.04636 12.4592 2.04606 12.948C2.04523 14.3349 2.0448 15.7218 2.04487 17.1087C2.04488 17.1834 2.04488 17.2581 2.04488 17.3351C2.04489 17.4099 2.04489 17.4847 2.04489 17.5618C2.04493 18.7739 2.04404 19.986 2.04271 21.1981C2.04137 22.4438 2.04072 23.6894 2.0408 24.9351C2.04083 25.634 2.04058 26.3329 2.03957 27.0318C2.03871 27.6269 2.03851 28.2219 2.03914 28.817C2.03945 29.1203 2.03936 29.4237 2.03864 29.727C2.03792 30.0565 2.03835 30.386 2.03908 30.7155C2.03859 30.8105 2.03811 30.9054 2.03762 31.0032C2.04171 31.851 2.0889 32.6291 2.6449 33.304C3.19688 33.8475 3.73724 34.0428 4.5036 34.0438C4.57155 34.0441 4.6395 34.0443 4.70951 34.0445C4.93897 34.0451 5.16842 34.0451 5.39788 34.045C5.56335 34.0454 5.72882 34.0457 5.89428 34.0461C6.3504 34.047 6.80651 34.0474 7.26262 34.0476C7.75401 34.048 8.2454 34.0489 8.73679 34.0497C9.92426 34.0516 11.1117 34.0525 12.2992 34.0533C12.8582 34.0538 13.4172 34.0543 13.9761 34.0547C15.834 34.0563 17.6918 34.0577 19.5497 34.0584C20.0319 34.0586 20.5142 34.0587 20.9965 34.0589C21.1164 34.059 21.2363 34.059 21.3598 34.0591C23.3018 34.0598 25.2439 34.0622 27.1859 34.0653C29.179 34.0684 31.1722 34.07 33.1653 34.0703C34.2847 34.0705 35.404 34.0714 36.5234 34.0738C37.4767 34.0758 38.4299 34.0766 39.3832 34.0756C39.8696 34.0752 40.356 34.0754 40.8423 34.0772C41.2878 34.0789 41.7333 34.0788 42.1788 34.0773C42.3397 34.0771 42.5006 34.0775 42.6616 34.0786C43.5936 34.0847 44.4675 34.0853 45.2283 33.472C45.9163 32.6034 45.9514 31.8284 45.9498 30.7506C45.95 30.6477 45.9502 30.5447 45.9504 30.4386C45.951 30.0941 45.951 29.7496 45.9509 29.4051C45.9512 29.158 45.9515 28.9108 45.9518 28.6636C45.9526 28.0621 45.9529 27.4606 45.9529 26.8592C45.953 26.3702 45.9532 25.8811 45.9535 25.3921C45.9543 24.0047 45.9547 22.6173 45.9546 21.2299C45.9546 21.1552 45.9546 21.0805 45.9546 21.0035C45.9546 20.9287 45.9546 20.8538 45.9546 20.7767C45.9546 19.564 45.9555 18.3512 45.9568 17.1384C45.9581 15.8922 45.9588 14.6461 45.9587 13.3999C45.9587 12.7006 45.9589 12.0013 45.9599 11.3021C45.9608 10.7067 45.961 10.1114 45.9604 9.51612C45.9601 9.21259 45.9602 8.90908 45.9609 8.60556C45.9616 8.27602 45.9612 7.94649 45.9604 7.61695C45.9612 7.47412 45.9612 7.47412 45.9619 7.32841C45.9573 6.3696 45.8161 5.62237 45.1873 4.875C44.4697 4.27959 43.7282 4.28585 42.838 4.29419C42.6771 4.29459 42.6771 4.29459 42.5129 4.29499C42.1719 4.29604 41.831 4.29839 41.49 4.30078C41.2581 4.30172 41.0262 4.30258 40.7944 4.30335C40.2274 4.30541 39.6605 4.30864 39.0935 4.3125C39.0935 4.65281 39.0935 4.99313 39.0935 5.34375C39.2382 5.34512 39.383 5.34648 39.5321 5.34789C40.0699 5.35333 40.6077 5.36058 41.1454 5.36835C41.378 5.37147 41.6106 5.3741 41.8433 5.37623C42.1779 5.37938 42.5125 5.38428 42.8472 5.38953C42.9509 5.39013 43.0546 5.39072 43.1615 5.39134C44.1027 5.40924 44.1027 5.40925 44.531 5.71875C44.6982 5.98911 44.7421 6.19346 44.7429 6.50901C44.7439 6.63363 44.7439 6.63363 44.7449 6.76076C44.7447 6.85164 44.7444 6.94252 44.7442 7.03615C44.7447 7.13299 44.7452 7.22984 44.7457 7.32962C44.7471 7.65515 44.7472 7.98066 44.7472 8.30619C44.7479 8.53917 44.7487 8.77214 44.7496 9.00511C44.7517 9.63869 44.7525 10.2723 44.753 10.9058C44.7533 11.3014 44.7539 11.697 44.7546 12.0925C44.7564 13.1876 44.7579 14.2828 44.7582 15.3779C44.7582 15.448 44.7582 15.518 44.7582 15.5902C44.7583 15.7323 44.7583 15.8743 44.7584 16.0164C44.7584 16.0869 44.7584 16.1574 44.7584 16.23C44.7584 16.3359 44.7584 16.3359 44.7585 16.444C44.7588 17.5885 44.7613 18.733 44.7648 19.8776C44.7684 21.0526 44.7702 22.2275 44.7702 23.4025C44.7703 24.0623 44.7711 24.722 44.7738 25.3818C44.7763 26.0021 44.7765 26.6223 44.775 27.2426C44.7748 27.4706 44.7754 27.6985 44.7769 27.9264C44.7788 28.2371 44.7778 28.5476 44.7761 28.8582C44.7774 28.9489 44.7786 29.0395 44.7799 29.1329C44.7744 29.5655 44.767 29.7507 44.4922 30.1007C44.1052 30.3889 43.8971 30.3869 43.4141 30.3876C43.3463 30.3878 43.2785 30.388 43.2087 30.3883C42.9792 30.3889 42.7497 30.3888 42.5202 30.3888C42.3549 30.3891 42.1897 30.3895 42.0244 30.3898C41.5684 30.3908 41.1124 30.3911 40.6565 30.3914C40.1654 30.3917 39.6743 30.3926 39.1833 30.3935C37.9964 30.3953 36.8096 30.3963 35.6228 30.3971C35.0644 30.3975 34.506 30.398 33.9476 30.3985C32.0921 30.4001 30.2366 30.4015 28.3811 30.4021C27.8993 30.4023 27.4175 30.4025 26.9358 30.4027C26.816 30.4027 26.6963 30.4028 26.5729 30.4028C24.6321 30.4036 22.6913 30.406 20.7506 30.409C18.7595 30.4121 16.7685 30.4138 14.7775 30.4141C13.659 30.4143 12.5405 30.4151 11.422 30.4175C10.4696 30.4195 9.51725 30.4203 8.56488 30.4194C8.07874 30.419 7.59261 30.4192 7.10647 30.421C6.66164 30.4226 6.21685 30.4225 5.77202 30.4211C5.61089 30.4208 5.44975 30.4213 5.28862 30.4224C5.0699 30.4238 4.85131 30.4229 4.63259 30.4214C4.45023 30.4215 4.45023 30.4215 4.26418 30.4217C3.87934 30.3667 3.67527 30.2421 3.37476 30C3.26648 29.7834 3.26917 29.661 3.26895 29.4201C3.26864 29.3373 3.26834 29.2545 3.26803 29.1693C3.26818 29.0778 3.26832 28.9863 3.26847 28.892C3.26826 28.7953 3.26804 28.6985 3.26783 28.5988C3.26723 28.2725 3.26731 27.9462 3.26739 27.6199C3.26711 27.3868 3.26679 27.1537 3.26643 26.9206C3.26569 26.3518 3.2654 25.7831 3.26534 25.2144C3.2653 24.7522 3.26511 24.29 3.26481 23.8279C3.26398 22.5183 3.26355 21.2088 3.26362 19.8993C3.26363 19.8286 3.26363 19.758 3.26363 19.6852C3.26364 19.6145 3.26364 19.5438 3.26364 19.4709C3.26368 18.3244 3.26279 17.178 3.26146 16.0316C3.26012 14.8552 3.25947 13.6789 3.25955 12.5025C3.25958 11.8418 3.25932 11.181 3.25832 10.5203C3.25737 9.899 3.2574 9.27773 3.25808 8.65644C3.25818 8.42802 3.25796 8.1996 3.25739 7.97118C3.25667 7.66012 3.2571 7.34909 3.25783 7.03804C3.25734 6.94697 3.25686 6.8559 3.25637 6.76207C3.2568 6.67882 3.25723 6.59557 3.25767 6.50979C3.25765 6.43799 3.25763 6.36618 3.25761 6.29219C3.28469 6.0625 3.34705 5.91491 3.46851 5.71875C3.98176 5.34785 4.54493 5.39303 5.15234 5.38953C5.25975 5.38784 5.36716 5.38616 5.47783 5.38443C5.81977 5.37936 6.1617 5.37618 6.50366 5.37305C6.73596 5.36994 6.96826 5.3667 7.20056 5.36334C7.76903 5.35539 8.3375 5.34912 8.90601 5.34375C8.90601 5.00344 8.90601 4.66313 8.90601 4.3125C8.22718 4.30552 7.54838 4.30043 6.86953 4.29705C6.63884 4.29564 6.40816 4.29373 6.17748 4.29128C5.84492 4.28785 5.51239 4.28627 5.17981 4.28503C5.07753 4.28358 4.97525 4.28213 4.86987 4.28064C3.98963 4.28044 3.25492 4.4037 2.62476 5.0625ZM4.31226 6.5625C4.31226 14.0494 4.31226 21.5363 4.31226 29.25C17.306 29.25 30.2998 29.25 43.6873 29.25C43.6873 21.7631 43.6873 14.2763 43.6873 6.5625C42.1713 6.5625 40.6554 6.5625 39.0935 6.5625C39.0922 7.32193 39.0922 7.32193 39.0909 8.0967C39.0877 9.76934 39.0825 11.442 39.0763 13.1146C39.0725 14.1287 39.0695 15.1429 39.0681 16.157C39.0669 17.0411 39.0644 17.9252 39.0603 18.8094C39.0581 19.2773 39.0567 19.7452 39.0568 20.2132C39.0568 20.6541 39.0552 21.095 39.0522 21.5359C39.0514 21.6973 39.0512 21.8587 39.0517 22.02C39.0544 22.957 39.0497 23.8259 38.4504 24.6002C38.392 24.6477 38.3335 24.6952 38.2732 24.7441C38.2157 24.7933 38.1581 24.8425 38.0989 24.8932C37.4227 25.3097 36.82 25.3532 36.0443 25.3488C35.9371 25.3493 35.83 25.3499 35.7196 25.3504C35.3613 25.3517 35.0031 25.351 34.6448 25.3504C34.3876 25.3508 34.1304 25.3516 33.8732 25.3523C33.2476 25.3539 32.622 25.354 31.9964 25.3535C31.4877 25.3531 30.979 25.3533 30.4703 25.3538C30.3978 25.3539 30.3254 25.3539 30.2507 25.354C30.1034 25.3541 29.9562 25.3543 29.8089 25.3544C28.4288 25.3557 27.0487 25.3552 25.6686 25.3541C24.4071 25.3532 23.1456 25.3544 21.8841 25.3567C20.5876 25.3589 19.2911 25.3598 17.9946 25.3592C17.2672 25.3589 16.5398 25.3591 15.8123 25.3607C15.1931 25.3621 14.5738 25.3622 13.9546 25.3606C13.6389 25.3598 13.3232 25.3598 13.0075 25.361C12.6647 25.3622 12.3219 25.3611 11.979 25.3595C11.8801 25.3604 11.7812 25.3613 11.6793 25.3622C10.9511 25.355 10.2982 25.2169 9.71204 24.7632C9.6408 24.6754 9.6408 24.6754 9.56812 24.5859C9.51893 24.5284 9.46974 24.4709 9.41907 24.4116C9.08171 23.864 8.95782 23.3435 8.96237 22.7067C8.96175 22.6371 8.96113 22.5676 8.96049 22.4959C8.95875 22.265 8.95898 22.0342 8.95922 21.8033C8.95837 21.6369 8.95741 21.4706 8.95633 21.3042C8.95375 20.8541 8.95287 20.404 8.95231 19.9539C8.95143 19.4829 8.94897 19.012 8.94668 18.541C8.94259 17.6499 8.93991 16.7588 8.93775 15.8677C8.93521 14.8528 8.93109 13.838 8.92684 12.8232C8.91814 10.7363 8.91163 8.64942 8.90601 6.5625C7.39007 6.5625 5.87413 6.5625 4.31226 6.5625ZM10.1248 7.40625C10.117 10.0089 10.1093 12.6115 10.1013 15.293C10.0979 16.115 10.0945 16.937 10.091 17.784C10.0897 18.5203 10.0897 18.5203 10.089 19.2567C10.0886 19.5848 10.0872 19.913 10.0852 20.2412C10.0826 20.6598 10.0818 21.0785 10.0824 21.4971C10.0822 21.6507 10.0815 21.8044 10.0801 21.958C10.0782 22.1656 10.0786 22.3732 10.0797 22.5809C10.0793 22.6972 10.079 22.8135 10.0786 22.9333C10.1511 23.4311 10.3749 23.6979 10.7391 24.0322C11.1992 24.2533 11.6039 24.2394 12.1084 24.2351C12.267 24.236 12.267 24.236 12.4289 24.2369C12.7834 24.2384 13.1379 24.2372 13.4924 24.236C13.7465 24.2363 14.0006 24.2372 14.2547 24.238C14.8733 24.2397 15.4919 24.2393 16.1106 24.2382C16.6134 24.2374 17.1161 24.2373 17.6189 24.2377C17.6905 24.2377 17.7621 24.2378 17.8358 24.2379C17.9812 24.238 18.1266 24.2381 18.272 24.2382C19.6353 24.2393 20.9986 24.2381 22.3619 24.236C23.5315 24.2344 24.7011 24.2347 25.8707 24.2364C27.2291 24.2384 28.5876 24.2392 29.946 24.238C30.0908 24.2379 30.2357 24.2378 30.3806 24.2377C30.4519 24.2376 30.5231 24.2376 30.5966 24.2375C31.0987 24.2372 31.6009 24.2377 32.103 24.2386C32.715 24.2397 33.327 24.2394 33.939 24.2374C34.2513 24.2364 34.5634 24.2362 34.8757 24.2372C35.2142 24.2383 35.5526 24.237 35.8911 24.2351C35.9897 24.236 36.0884 24.2368 36.19 24.2377C36.7346 24.2318 37.0811 24.1968 37.4998 23.8125C37.8459 23.3987 37.9214 23.1155 37.9199 22.5809C37.9202 22.5158 37.9205 22.4508 37.9208 22.3838C37.9214 22.1664 37.9194 21.9491 37.9173 21.7317C37.9172 21.573 37.9173 21.4143 37.9175 21.2556C37.9176 20.8312 37.9154 20.4069 37.9127 19.9825C37.9106 19.5841 37.9105 19.1856 37.9102 18.7871C37.9083 17.6224 37.903 16.4577 37.8982 15.293C37.8905 12.6904 37.8827 10.0877 37.8748 7.40625C28.7173 7.40625 19.5598 7.40625 10.1248 7.40625ZM20.0623 35.25C19.9694 36.1472 19.8766 37.0444 19.781 37.9688C19.6437 38.5792 19.5097 39.1609 19.3123 39.75C19.2777 39.8541 19.2431 39.9581 19.2075 40.0653C18.9566 40.7323 18.5853 41.2861 18.1678 41.8575C17.9907 42.0582 17.9907 42.0582 17.9998 42.1875C21.9598 42.1875 25.9198 42.1875 29.9998 42.1875C29.7832 41.8472 29.5666 41.5069 29.3435 41.1562C28.3102 39.2962 28.1118 37.3449 27.9373 35.25C25.3385 35.25 22.7398 35.25 20.0623 35.25ZM12.0935 43.7812C11.8062 44.2065 11.7758 44.5823 11.7947 45.082C11.7959 45.1466 11.7972 45.2111 11.7985 45.2776C11.8018 45.4351 11.8068 45.5926 11.8123 45.75C12.0879 45.9074 12.2849 45.961 12.6013 45.9611C12.6841 45.9616 12.7669 45.9621 12.8523 45.9626C12.9428 45.9622 13.0334 45.9617 13.1267 45.9613C13.2233 45.9616 13.3198 45.9619 13.4192 45.9622C13.7437 45.9629 14.0681 45.9624 14.3926 45.9618C14.6248 45.962 14.857 45.9624 15.0892 45.9628C15.655 45.9635 16.2208 45.9634 16.7866 45.9629C17.2464 45.9624 17.7062 45.9624 18.166 45.9626C18.2641 45.9626 18.2641 45.9626 18.3642 45.9627C18.4971 45.9627 18.63 45.9628 18.7629 45.9629C20.0092 45.9634 21.2555 45.9628 22.5018 45.9618C23.5715 45.9609 24.6412 45.9611 25.7109 45.9619C26.9527 45.9629 28.1945 45.9633 29.4363 45.9628C29.5687 45.9627 29.7011 45.9626 29.8335 45.9626C29.9312 45.9625 29.9312 45.9625 30.0309 45.9625C30.4902 45.9623 30.9495 45.9626 31.4088 45.9631C32.0269 45.9636 32.6449 45.9632 33.263 45.9621C33.4902 45.9619 33.7174 45.962 33.9446 45.9624C34.254 45.9629 34.5634 45.9622 34.8728 45.9613C34.9634 45.9617 35.0539 45.9621 35.1473 45.9626C35.2715 45.9618 35.2715 45.9618 35.3982 45.9611C35.4696 45.9611 35.541 45.961 35.6146 45.961C35.839 45.9343 35.9922 45.8614 36.1873 45.75C36.2718 44.6475 36.2718 44.6475 35.8123 43.6875C35.379 43.3368 34.9615 43.3664 34.4296 43.3699C34.337 43.3694 34.2443 43.3689 34.1489 43.3684C33.8381 43.367 33.5274 43.3677 33.2166 43.3684C32.9939 43.3678 32.7712 43.3672 32.5485 43.3664C32.0063 43.3649 31.4641 43.3647 30.9218 43.3652C30.4811 43.3656 30.0403 43.3655 29.5996 43.365C29.5368 43.3649 29.4741 43.3648 29.4094 43.3648C29.282 43.3646 29.1545 43.3645 29.0271 43.3643C27.8319 43.363 26.6367 43.3635 25.4415 43.3646C24.3483 43.3656 23.2551 43.3643 22.1618 43.3621C21.0391 43.3598 19.9163 43.3589 18.7936 43.3595C18.1633 43.3599 17.533 43.3596 16.9028 43.358C16.3102 43.3566 15.7176 43.3569 15.125 43.3587C14.9074 43.359 14.6898 43.3587 14.4722 43.3578C14.1754 43.3565 13.8786 43.3576 13.5818 43.3593C13.4955 43.3584 13.4092 43.3575 13.3202 43.3565C12.8034 43.3625 12.501 43.4321 12.0935 43.7812Z" fill="#FF7705"></path>
</svg>
