<?xml version="1.0" encoding="UTF-8"?>
<svg xmlns="http://www.w3.org/2000/svg" width="48" height="48" viewBox="0 0 48 48" fill="none">
  <path d="M27.2811 3.56251C27.5591 3.81553 27.826 4.07674 28.0582 4.37293C28.1966 4.54138 28.1966 4.54138 28.4999 4.68751C28.9197 4.64135 29.3138 4.52315 29.7186 4.40626C31.9229 4.00877 34.2078 4.54558 36.0936 5.71876C36.4196 5.95437 36.7263 6.2066 37.0311 6.46876C37.0896 6.5148 37.1481 6.56084 37.2084 6.60828C38.7133 7.81153 39.6593 9.84826 39.9374 11.7188C39.9873 12.2178 40.0122 12.7177 40.0311 13.2188C40.1399 13.2517 40.2486 13.2847 40.3607 13.3187C42.363 13.9437 43.9056 15.0101 44.9464 16.8677C45.7719 18.4858 45.8844 20.2979 45.3749 22.0313C44.7843 23.7769 43.6543 25.151 42.027 26.0079C41.0169 26.4938 40.1141 26.7491 38.9896 26.74C38.8989 26.7401 38.8083 26.7401 38.7149 26.7401C38.4182 26.74 38.1214 26.7385 37.8247 26.7371C37.6178 26.7367 37.4109 26.7365 37.204 26.7363C36.6617 26.7355 36.1193 26.7337 35.577 26.7316C35.0227 26.7297 34.4684 26.7289 33.9141 26.7279C32.8281 26.7259 31.7421 26.7226 30.6561 26.7188C30.6561 27.3994 30.6561 28.08 30.6561 28.7813C30.8127 28.7804 30.9692 28.7796 31.1305 28.7787C32.6038 28.7711 34.0772 28.7655 35.5505 28.7618C36.308 28.7599 37.0655 28.7573 37.823 28.753C38.4832 28.7492 39.1434 28.7468 39.8036 28.746C40.1532 28.7455 40.5028 28.7443 40.8524 28.7416C41.2426 28.7386 41.6327 28.7385 42.0228 28.7387C42.197 28.7367 42.197 28.7367 42.3747 28.7346C42.4809 28.7351 42.5872 28.7356 42.6966 28.7362C42.7889 28.7358 42.8812 28.7355 42.9763 28.7351C43.2879 28.7944 43.3993 28.9106 43.5936 29.1563C43.6372 29.3891 43.6372 29.3891 43.6329 29.6531C43.632 29.8019 43.632 29.8019 43.6312 29.9538C43.6289 30.0605 43.6267 30.1673 43.6244 30.2772C43.6239 30.5037 43.6235 30.7302 43.6233 30.9567C43.6207 31.3135 43.6171 31.6702 43.6113 32.0269C43.6065 32.3715 43.6064 32.7158 43.6068 33.0604C43.6023 33.2197 43.6023 33.2197 43.5977 33.3822C43.5939 33.9442 43.5939 33.9442 43.8532 34.4232C44.0504 34.5972 44.0504 34.5972 44.2578 34.7356C44.46 34.8926 44.5334 35.013 44.6249 35.25C44.7087 35.9415 44.6792 36.4742 44.2499 37.0313C43.8787 37.3926 43.52 37.5893 42.9941 37.5971C42.3387 37.5568 41.9489 37.3802 41.5018 36.8848C41.1595 36.3902 41.1938 35.8303 41.2499 35.25C41.4139 34.9219 41.4139 34.9219 41.6249 34.6875C41.6906 34.614 41.7564 34.5406 41.8241 34.4649C41.9999 34.3125 41.9999 34.3125 42.1874 34.3125C42.1874 32.9513 42.1874 31.59 42.1874 30.1875C38.3821 30.1875 34.5767 30.1875 30.6561 30.1875C30.6561 30.5278 30.6561 30.8681 30.6561 31.2188C30.7791 31.2168 30.9021 31.2148 31.0288 31.2128C31.4852 31.206 31.9415 31.2017 32.3979 31.1982C32.5954 31.1963 32.7929 31.1937 32.9904 31.1905C33.2744 31.1859 33.5582 31.1838 33.8421 31.1821C33.9746 31.1792 33.9746 31.1792 34.1097 31.1763C34.1923 31.1762 34.2748 31.1762 34.3599 31.1762C34.4323 31.1754 34.5048 31.1745 34.5794 31.1737C34.8731 31.2393 34.9794 31.3525 35.1561 31.5938C35.2004 31.8771 35.2004 31.8771 35.1969 32.2126C35.1968 32.2739 35.1967 32.3353 35.1966 32.3985C35.1962 32.5313 35.195 32.6641 35.1931 32.7968C35.1901 33.0074 35.1898 33.2177 35.1902 33.4283C35.1908 34.0266 35.187 34.6249 35.1809 35.2232C35.1774 35.5896 35.177 35.9559 35.1786 36.3223C35.1785 36.4616 35.1772 36.6009 35.1746 36.7401C35.133 37.4937 35.133 37.4937 35.3944 38.1714C35.5646 38.3221 35.5646 38.3221 35.7473 38.4278C36.0332 38.6141 36.0949 38.872 36.1874 39.1875C36.2532 39.7802 36.1559 40.1958 35.8124 40.6875C35.5004 41.0165 35.2001 41.2275 34.7386 41.2723C34.1288 41.2885 33.772 41.2457 33.2811 40.875C32.898 40.4711 32.7378 40.1328 32.6835 39.5801C32.6966 39.1458 32.8342 38.7851 33.0936 38.4375C33.1877 38.3814 33.2818 38.3254 33.3787 38.2676C33.5921 38.0906 33.6505 37.9947 33.7095 37.7201C33.7304 37.397 33.734 37.0778 33.7316 36.754C33.7328 36.6361 33.7341 36.5181 33.7354 36.3966C33.7384 36.0842 33.7389 35.7719 33.7382 35.4594C33.7381 35.1401 33.7412 34.8209 33.744 34.5017C33.7493 33.876 33.7495 33.2507 33.7499 32.625C32.7289 32.625 31.708 32.625 30.6561 32.625C30.6561 32.9344 30.6561 33.2438 30.6561 33.5625C30.4686 33.9375 30.4686 33.9375 30.3191 34.0536C29.9816 34.1605 29.6484 34.1479 29.2982 34.1433C29.2217 34.1431 29.1453 34.1428 29.0665 34.1425C28.8229 34.1415 28.5794 34.1391 28.3358 34.1367C28.1704 34.1358 28.005 34.1349 27.8396 34.1342C27.4347 34.1321 27.0298 34.1289 26.6249 34.125C26.6219 35.3621 26.6225 36.5992 26.6275 37.8363C26.6298 38.4107 26.6308 38.9851 26.6291 39.5595C26.6274 40.1139 26.629 40.6683 26.6327 41.2226C26.6336 41.4341 26.6333 41.6456 26.6319 41.8571C26.63 42.1535 26.6323 42.4495 26.6355 42.7458C26.634 42.8332 26.6325 42.9206 26.631 43.0107C26.6372 43.4715 26.6372 43.4715 26.8637 43.8574C27.0358 44.0053 27.0358 44.0053 27.2159 44.1234C27.4049 44.2739 27.4743 44.4016 27.5624 44.625C27.6227 45.1677 27.6421 45.6721 27.41 46.1719C26.9286 46.6786 26.6042 46.9392 25.8983 46.9981C25.39 46.9895 24.9707 46.8031 24.6019 46.4535C24.1911 45.9801 24.1546 45.5842 24.161 44.9806C24.212 44.4741 24.436 44.1799 24.8085 43.834C25.0311 43.6875 25.0311 43.6875 25.2186 43.6875C25.2186 40.5319 25.2186 37.3763 25.2186 34.125C24.4142 34.125 23.6099 34.125 22.7811 34.125C22.7811 36.0431 22.7811 37.9613 22.7811 39.9375C22.9358 39.9994 23.0905 40.0613 23.2499 40.125C23.7558 40.6743 23.856 41.0853 23.8417 41.8209C23.7872 42.3282 23.5156 42.5974 23.1503 42.9199C22.6761 43.273 22.2282 43.2773 21.6561 43.2188C21.2111 43.0979 20.9001 42.8857 20.6249 42.5156C20.3533 42.0231 20.3562 41.5153 20.4374 40.9688C20.5604 40.6028 20.7349 40.3662 21.0564 40.1434C21.3034 39.9564 21.3034 39.9564 21.341 39.6717C21.3417 39.5693 21.3423 39.4669 21.3429 39.3614C21.3448 39.245 21.3466 39.1287 21.3485 39.0088C21.3482 38.8823 21.3478 38.7559 21.3474 38.6294C21.3486 38.4996 21.3501 38.3698 21.3517 38.2401C21.3554 37.8991 21.3564 37.5583 21.3568 37.2173C21.3576 36.8691 21.3611 36.521 21.3644 36.1729C21.3705 35.4902 21.3736 34.8077 21.3749 34.125C21.2717 34.126 21.1686 34.127 21.0624 34.128C20.6794 34.1314 20.2964 34.1335 19.9135 34.1353C19.7478 34.1362 19.5821 34.1375 19.4164 34.1392C19.1781 34.1414 18.9398 34.1425 18.7015 34.1433C18.5906 34.1448 18.5906 34.1448 18.4775 34.1462C17.8002 34.1464 17.8002 34.1464 17.5311 33.9375C17.3436 33.5625 17.3436 33.5625 17.3436 32.625C16.3227 32.625 15.3017 32.625 14.2499 32.625C14.2483 33.3116 14.2474 33.9977 14.2525 34.6842C14.2547 35.0039 14.2558 35.3235 14.2541 35.6432C14.2521 36.0105 14.2554 36.3776 14.259 36.7449C14.2577 36.8589 14.2563 36.9729 14.255 37.0903C14.2501 37.6611 14.2501 37.6611 14.4889 38.1584C14.6601 38.3083 14.6601 38.3083 14.8415 38.4203C15.1218 38.6167 15.1879 38.8694 15.2811 39.1875C15.347 39.7802 15.2497 40.1958 14.9061 40.6875C14.5942 41.0165 14.2939 41.2275 13.8324 41.2723C13.2225 41.2885 12.8657 41.2457 12.3749 40.875C11.9917 40.4711 11.8316 40.1328 11.7772 39.5801C11.7903 39.1458 11.9279 38.7851 12.1874 38.4375C12.2817 38.3858 12.3761 38.3341 12.4733 38.2809C12.7045 38.0887 12.7473 37.9835 12.8007 37.6827C12.818 37.3013 12.8178 36.9232 12.8121 36.5416C12.8122 36.4003 12.8126 36.2589 12.8133 36.1176C12.8146 35.7461 12.8128 35.3747 12.8101 35.0032C12.8058 34.4084 12.8044 33.8136 12.8063 33.2187C12.8063 33.0112 12.8038 32.8037 12.8013 32.5962C12.8012 32.4688 12.8012 32.3415 12.8014 32.2141C12.8005 32.1031 12.7996 31.9921 12.7987 31.8777C12.8436 31.5938 12.8436 31.5938 13.0074 31.3701C13.2455 31.1995 13.3508 31.1729 13.6398 31.1762C13.7224 31.1762 13.805 31.1762 13.89 31.1763C13.9783 31.1782 14.0666 31.1801 14.1576 31.1821C14.2486 31.1827 14.3396 31.1832 14.4334 31.1837C14.7238 31.1858 15.0142 31.1905 15.3046 31.1953C15.5016 31.1972 15.6986 31.1989 15.8956 31.2004C16.3783 31.2046 16.8609 31.2111 17.3436 31.2188C17.3436 30.8784 17.3436 30.5381 17.3436 30.1875C13.5383 30.1875 9.73299 30.1875 5.81236 30.1875C5.81236 31.5488 5.81236 32.91 5.81236 34.3125C5.93611 34.3744 6.05986 34.4363 6.18736 34.5C6.59845 34.9078 6.76471 35.2137 6.7733 35.7891C6.76577 36.4196 6.66221 36.7482 6.20494 37.1953C5.67239 37.5712 5.2664 37.6326 4.63097 37.5505C4.09755 37.4307 3.77095 37.093 3.46861 36.6563C3.29349 36.1309 3.30592 35.5587 3.47447 35.0332C3.6473 34.7935 3.75421 34.7146 3.99113 34.5561C4.21428 34.3666 4.30172 34.2626 4.37138 33.9755C4.3911 33.6718 4.39094 33.3739 4.38377 33.0696C4.38417 32.9036 4.38417 32.9036 4.38457 32.7342C4.38506 32.3813 4.38126 32.0286 4.37682 31.6758C4.37386 31.3223 4.37187 30.9689 4.37207 30.6154C4.37206 30.3956 4.37015 30.1759 4.36616 29.9562C4.3659 29.8567 4.36563 29.7572 4.36535 29.6546C4.3642 29.5672 4.36305 29.4798 4.36187 29.3898C4.42111 29.0771 4.53554 28.9798 4.78111 28.7813C5.02345 28.7351 5.02345 28.7351 5.30313 28.7362C5.46246 28.7354 5.46246 28.7354 5.625 28.7346C5.74112 28.7359 5.85724 28.7373 5.97688 28.7387C6.09947 28.7386 6.22205 28.7386 6.34835 28.7385C6.68421 28.7384 7.02002 28.7406 7.35587 28.7432C7.70696 28.7456 8.05804 28.7458 8.40914 28.7462C9.07385 28.7474 9.73854 28.7505 10.4032 28.7542C11.16 28.7584 11.9168 28.7605 12.6736 28.7624C14.2303 28.7663 15.787 28.773 17.3436 28.7813C17.3436 28.1006 17.3436 27.42 17.3436 26.7188C17.1044 26.7207 16.8652 26.7227 16.6187 26.7247C15.8228 26.731 15.0269 26.7351 14.231 26.7382C13.7491 26.7401 13.2672 26.7428 12.7852 26.747C12.319 26.7512 11.8528 26.7534 11.3865 26.7543C11.2098 26.755 11.0331 26.7564 10.8565 26.7584C8.42781 26.7854 6.35868 26.0838 4.57017 24.4043C3.06525 22.8202 2.29016 20.8215 2.31045 18.635C2.37903 16.3545 3.33335 14.4079 4.96861 12.8438C6.02252 11.9273 7.54714 10.9688 8.99986 10.9688C8.99684 10.8757 8.99382 10.7826 8.99071 10.6868C9.05227 8.16994 10.6196 5.72347 12.3536 4.0072C16.4498 0.11572 22.9458 0.103304 27.2811 3.56251ZM12.5267 5.91976C11.3279 7.29387 10.5791 9.07434 10.3585 10.8772C10.3506 10.9412 10.3428 11.0051 10.3347 11.071C10.3135 11.2518 10.2953 11.4329 10.2772 11.614C10.2186 11.9063 10.2186 11.9063 10.1201 12.0773C9.82724 12.2539 9.50191 12.2876 9.16978 12.3457C7.94358 12.59 6.83616 13.1246 5.90611 13.9688C5.84206 14.0253 5.77801 14.0819 5.71202 14.1401C4.51009 15.2644 3.86295 16.8126 3.71983 18.434C3.666 20.126 4.17289 21.7276 5.29088 23.0098C5.43116 23.1546 5.5737 23.2973 5.71861 23.4375C5.78725 23.5048 5.8559 23.5721 5.92662 23.6415C7.09342 24.7323 8.5586 25.3306 10.1596 25.3232C10.2374 25.3232 10.3152 25.3232 10.3953 25.3232C10.6515 25.3231 10.9076 25.3224 11.1638 25.3217C11.3418 25.3215 11.5198 25.3214 11.6978 25.3213C12.1655 25.3209 12.6333 25.32 13.1011 25.3189C13.5787 25.318 14.0563 25.3176 14.5339 25.3171C15.4704 25.3161 16.407 25.3145 17.3436 25.3125C17.3471 25.1365 17.3471 25.1365 17.3507 24.957C17.3596 24.5216 17.369 24.0862 17.3785 23.6508C17.3826 23.4624 17.3865 23.274 17.3902 23.0856C17.3957 22.8147 17.4016 22.5438 17.4077 22.273C17.4093 22.1888 17.4108 22.1046 17.4124 22.0178C17.4143 21.939 17.4162 21.8602 17.4181 21.779C17.4196 21.7099 17.421 21.6408 17.4225 21.5696C17.4377 21.3706 17.4771 21.1918 17.5311 21C17.9471 20.899 18.3581 20.8859 18.7839 20.8766C18.8582 20.8746 18.9324 20.8727 19.0089 20.8707C19.2448 20.8646 19.4807 20.859 19.7167 20.8535C19.8771 20.8495 20.0376 20.8454 20.198 20.8413C20.5903 20.8312 20.9826 20.8217 21.3749 20.8125C21.3758 20.756 21.3768 20.6995 21.3778 20.6413C21.3879 20.0527 21.3987 19.4641 21.4098 18.8756C21.4138 18.656 21.4177 18.4364 21.4215 18.2168C21.4269 17.901 21.4329 17.5852 21.4389 17.2694C21.4405 17.1714 21.4421 17.0733 21.4437 16.9723C21.4456 16.8803 21.4474 16.7884 21.4494 16.6937C21.4508 16.6131 21.4523 16.5325 21.4538 16.4495C21.4692 16.2095 21.51 15.9846 21.5624 15.75C22.1446 15.6244 22.1446 15.6244 22.4715 15.7651C22.6874 15.9375 22.6874 15.9375 22.7473 16.1564C22.7482 16.2854 22.7482 16.2854 22.7492 16.4169C22.7519 16.5633 22.7519 16.5633 22.7548 16.7126C22.7542 16.8704 22.7542 16.8704 22.7536 17.0314C22.7551 17.1392 22.7565 17.247 22.7579 17.3581C22.762 17.7029 22.7628 18.0477 22.7635 18.3926C22.7657 18.6262 22.7681 18.8597 22.7707 19.0933C22.777 19.6664 22.7789 20.2393 22.7811 20.8125C23.5855 20.8125 24.3899 20.8125 25.2186 20.8125C25.2199 20.4639 25.2213 20.1152 25.2226 19.756C25.2255 19.419 25.2292 19.0821 25.2329 18.7451C25.2351 18.5106 25.2364 18.2761 25.2369 18.0415C25.2378 17.7048 25.2417 17.3681 25.2461 17.0314C25.2457 16.9262 25.2453 16.821 25.245 16.7126C25.2477 16.5663 25.2477 16.5663 25.2505 16.4169C25.2512 16.331 25.2518 16.245 25.2524 16.1564C25.3124 15.9375 25.3124 15.9375 25.5283 15.7651C25.8622 15.6213 26.0878 15.6746 26.4374 15.75C26.5085 16.0688 26.5445 16.3673 26.5504 16.6937C26.5522 16.7856 26.5541 16.8775 26.556 16.9723C26.5584 17.1193 26.5584 17.1193 26.5608 17.2694C26.5627 17.3707 26.5647 17.472 26.5667 17.5764C26.5728 17.8992 26.5783 18.2221 26.5838 18.5449C26.5879 18.7641 26.592 18.9833 26.5961 19.2025C26.6061 19.7391 26.6157 20.2758 26.6249 20.8125C26.7246 20.8149 26.8244 20.8172 26.9272 20.8196C27.2985 20.8285 27.6698 20.8379 28.0411 20.8474C28.2016 20.8515 28.3621 20.8554 28.5225 20.8591C28.7536 20.8646 28.9847 20.8705 29.2158 20.8766C29.2872 20.8782 29.3586 20.8797 29.4322 20.8813C29.7875 20.8912 30.1227 20.916 30.4686 21C30.5431 21.2647 30.5758 21.5044 30.5816 21.779C30.5835 21.8578 30.5854 21.9366 30.5873 22.0178C30.5896 22.1441 30.5896 22.1441 30.592 22.273C30.5949 22.4033 30.5949 22.4033 30.5979 22.5362C30.6041 22.8132 30.6096 23.0902 30.6151 23.3672C30.6192 23.5552 30.6232 23.7432 30.6274 23.9312C30.6374 24.3916 30.6469 24.852 30.6561 25.3125C31.8118 25.319 32.9674 25.324 34.123 25.3271C34.6597 25.3285 35.1964 25.3305 35.7331 25.3337C36.2516 25.3368 36.7701 25.3385 37.2886 25.3392C37.4859 25.3397 37.6831 25.3407 37.8803 25.3422C39.3098 25.3708 39.3098 25.3708 40.6874 25.0313C40.748 25.008 40.8086 24.9848 40.8711 24.9608C42.3045 24.3667 43.3148 23.3253 43.9137 21.9042C44.4164 20.4483 44.3757 19.0026 43.7108 17.6016C42.98 16.2402 41.8918 15.3083 40.4164 14.8158C39.9424 14.6828 39.4625 14.5788 38.979 14.4869C38.8124 14.4375 38.8124 14.4375 38.6249 14.25C38.6009 14.0359 38.6009 14.0359 38.5992 13.7684C38.5976 13.6705 38.596 13.5725 38.5943 13.4716C38.5928 13.3669 38.5913 13.2622 38.5897 13.1543C38.5234 10.8978 37.758 9.10284 36.1229 7.5293C34.5856 6.20106 32.5811 5.57472 30.5624 5.71876C29.9832 5.79778 29.4092 5.91515 28.8547 6.10108C28.5272 6.20949 28.2804 6.22493 27.9374 6.18751C27.6243 5.99969 27.422 5.75639 27.1932 5.47852C25.6502 3.69763 23.2314 2.6284 20.9061 2.43751C17.6271 2.24226 14.7386 3.50374 12.5267 5.91976ZM18.7499 22.2188C18.7499 25.6838 18.7499 29.1488 18.7499 32.7188C22.2149 32.7188 25.6799 32.7188 29.2499 32.7188C29.2499 29.2538 29.2499 25.7888 29.2499 22.2188C25.7849 22.2188 22.3199 22.2188 18.7499 22.2188Z" fill="#FF7705"></path>
  <path d="M25.1894 25.1016C25.2952 25.1684 25.3991 25.2384 25.5 25.3125C25.5831 25.3666 25.6663 25.4208 25.7519 25.4766C26.3349 26.0437 26.6092 26.7005 26.6312 27.5101C26.5919 28.2705 26.3143 28.9602 25.7461 29.4785C25.1289 29.9473 24.4859 30.1096 23.7187 30.0937C22.9788 29.9813 22.3665 29.6544 21.8873 29.0764C21.4367 28.417 21.3141 27.7318 21.4178 26.9458C21.5783 26.23 21.9843 25.637 22.5996 25.2422C23.2965 24.8195 24.4426 24.7353 25.1894 25.1016ZM23.0625 26.7187C22.7959 27.1186 22.8057 27.4684 22.875 27.9375C23.011 28.2482 23.2095 28.4345 23.5188 28.5853C23.8797 28.7026 24.0732 28.6933 24.4453 28.5879C24.7779 28.3896 24.9429 28.2799 25.125 27.9375C25.1986 27.4765 25.1992 27.1229 24.955 26.7187C24.5468 26.3455 24.2944 26.3032 23.7605 26.3133C23.4377 26.3561 23.2795 26.4814 23.0625 26.7187Z" fill="#FF7705"></path>
</svg>
