<?xml version="1.0" encoding="UTF-8"?>
<svg xmlns="http://www.w3.org/2000/svg" width="48" height="48" viewBox="0 0 48 48" fill="none">
  <path d="M36.5339 4.7986C37.9404 6.00215 38.9505 7.73846 39.1647 9.59157C39.1725 9.70565 39.1802 9.81973 39.1882 9.93727C39.2636 9.95467 39.2636 9.95467 39.3405 9.97243C41.4369 10.5241 43.2665 11.9436 44.3829 13.7927C45.6206 16.0311 46.0096 18.5176 45.3757 20.9998C44.644 23.5058 43.004 25.5106 40.7468 26.8064C39.1751 27.6351 37.8113 27.8435 36.0007 27.8435C36.0007 29.6379 36.0007 31.4323 36.0007 33.281C36.9597 33.2501 37.9188 33.2191 38.9069 33.1873C39.0616 32.8779 39.2163 32.5685 39.3757 32.2498C39.8253 31.6058 40.4052 31.2385 41.1569 31.031C42.2142 30.93 43.066 31.0343 43.905 31.7048C44.5612 32.3253 44.8382 33.0722 44.9421 33.9548C44.8391 35.0015 44.492 35.7789 43.6882 36.4685C43.4469 36.6347 43.2143 36.7476 42.9382 36.8435C42.8241 36.8841 42.71 36.9247 42.5925 36.9666C41.7833 37.1414 40.9562 37.016 40.2399 36.6102C39.6594 36.2147 39.2351 35.732 39.0007 35.0623C39.0007 34.9695 39.0007 34.8766 39.0007 34.781C38.8867 34.7825 38.7727 34.784 38.6553 34.7855C38.2316 34.7906 37.8079 34.7938 37.3842 34.7965C37.201 34.7979 37.0177 34.7998 36.8345 34.8022C36.5708 34.8057 36.3072 34.8072 36.0435 34.8085C35.921 34.8107 35.921 34.8107 35.7961 34.8129C35.3497 34.813 35.0477 34.7949 34.6882 34.4998C34.4616 34.16 34.4779 34.0056 34.4794 33.6014C34.4793 33.5392 34.4793 33.4769 34.4793 33.4128C34.4794 33.2074 34.4809 33.002 34.4824 32.7965C34.4827 32.654 34.483 32.5115 34.4832 32.3689C34.4839 31.9939 34.4857 31.619 34.4878 31.244C34.49 30.794 34.4909 30.344 34.492 29.894C34.4938 29.2105 34.4974 28.527 34.5007 27.8435C33.1394 27.8435 31.7782 27.8435 30.3757 27.8435C30.3185 29.1147 30.3185 29.1147 30.2854 30.3859C30.2771 30.9073 30.2664 31.4275 30.2384 31.9482C30.0914 34.1973 30.0914 34.1973 31.0471 36.1526C31.635 36.7971 32.3017 37.3551 33.0007 37.8748C33.0965 37.845 33.0965 37.845 33.1942 37.8146C33.2782 37.7888 33.3623 37.763 33.4489 37.7365C33.5321 37.7108 33.6153 37.6851 33.701 37.6587C34.4495 37.453 35.3089 37.5181 36.0007 37.8748C36.7803 38.3433 37.2068 38.9592 37.5358 39.7966C37.6887 40.6526 37.6305 41.4674 37.178 42.2265C36.6849 42.9095 36.067 43.3716 35.2507 43.5935C34.236 43.6905 33.3768 43.601 32.5553 42.9724C31.9316 42.3855 31.5587 41.6345 31.5007 40.781C31.5072 40.338 31.5216 39.9187 31.6984 39.5084C31.7949 39.2455 31.7804 39.1647 31.6882 38.906C31.5757 38.7539 31.5757 38.7539 31.4294 38.6168C31.3483 38.5362 31.3483 38.5362 31.2654 38.4538C31.1774 38.3684 31.1774 38.3684 31.0876 38.2813C31.0276 38.2219 30.9676 38.1625 30.9058 38.1014C30.7141 37.9119 30.5215 37.7234 30.3288 37.5349C30.1362 37.3457 29.9439 37.1562 29.7518 36.9665C29.6322 36.8485 29.5123 36.7308 29.3921 36.6134C28.8794 36.1093 28.8794 36.1093 28.8644 35.6676C28.8641 35.5216 28.8644 35.3757 28.865 35.2298C28.865 35.1502 28.865 35.0706 28.865 34.9886C28.865 34.7248 28.8658 34.4611 28.8665 34.1973C28.8667 34.0147 28.8668 33.8321 28.8669 33.6495C28.8673 33.1683 28.8682 32.6871 28.8692 32.206C28.8704 31.6289 28.8708 31.0519 28.8713 30.4749C28.8722 29.5978 28.874 28.7206 28.8757 27.8435C27.5144 27.8435 26.1532 27.8435 24.7507 27.8435C24.7507 31.6488 24.7507 35.4541 24.7507 39.3748C24.9363 39.4366 25.1219 39.4985 25.3132 39.5623C26.1333 39.9792 26.607 40.5746 26.8952 41.4431C27.1153 42.2935 27.007 43.0372 26.6019 43.8209C26.1965 44.4781 25.6303 44.992 24.8873 45.2367C23.8815 45.4302 22.9684 45.3283 22.1092 44.7745C21.449 44.266 21.0305 43.4774 20.9069 42.656C20.8478 41.7834 21.073 41.0309 21.5815 40.3163C22.0245 39.8148 22.5296 39.5839 23.1569 39.3748C23.1569 35.5695 23.1569 31.7641 23.1569 27.8435C21.7957 27.8435 20.4344 27.8435 19.0319 27.8435C19.0395 28.4236 19.0471 29.0037 19.055 29.6013C19.0583 29.9696 19.0615 30.3379 19.064 30.7062C19.0679 31.2903 19.0725 31.8744 19.0814 32.4585C19.0886 32.9296 19.0925 33.4006 19.0942 33.8717C19.0954 34.0512 19.0977 34.2306 19.1013 34.41C19.1314 35.9926 19.1314 35.9926 18.735 36.4574C18.6186 36.5589 18.4989 36.6567 18.3757 36.7498C18.2801 36.8416 18.1854 36.9343 18.0916 37.0281C17.9989 37.1141 17.9059 37.1999 17.8128 37.2855C17.7114 37.3816 17.6101 37.4779 17.509 37.5743C17.3528 37.723 17.196 37.8706 17.0368 38.016C16.4124 38.538 16.4124 38.538 16.0983 39.2421C16.1473 39.4604 16.2174 39.6419 16.3132 39.8435C16.4852 40.8077 16.3652 41.6075 15.8287 42.4378C15.3897 42.9956 14.7719 43.4655 14.0632 43.5935C12.9628 43.6922 12.1339 43.5809 11.2682 42.8787C10.6801 42.3218 10.3634 41.6455 10.2941 40.8411C10.276 39.9155 10.5439 39.1413 11.1569 38.4373C11.9369 37.7616 12.6172 37.576 13.6343 37.5595C14.0792 37.6047 14.4836 37.7349 14.9069 37.8748C16.0366 37.2925 17.0872 36.4778 17.5319 35.2498C17.8139 33.9978 17.7597 32.6579 17.7429 31.3826C17.7412 31.2531 17.7412 31.2531 17.7394 31.121C17.7231 30.0269 17.677 28.9372 17.6257 27.8435C16.2644 27.8435 14.9032 27.8435 13.5007 27.8435C13.5039 28.2983 13.5072 28.753 13.5106 29.2216C13.512 29.51 13.5133 29.7983 13.5144 30.0867C13.5161 30.5443 13.5181 31.0019 13.5219 31.4595C13.5249 31.8284 13.5266 32.1974 13.5273 32.5664C13.5279 32.707 13.5289 32.8477 13.5304 32.9883C13.5324 33.1856 13.5327 33.3828 13.5326 33.5801C13.5335 33.7484 13.5335 33.7484 13.5345 33.9201C13.4972 34.2487 13.4167 34.4244 13.2194 34.6873C13.0075 34.7932 12.8846 34.7953 12.6492 34.8003C12.5704 34.8021 12.4915 34.804 12.4103 34.8059C12.2826 34.8083 12.2826 34.8083 12.1523 34.8107C12.0216 34.8136 12.0216 34.8136 11.8882 34.8166C11.6093 34.8227 11.3304 34.8282 11.0514 34.8338C10.8626 34.8378 10.6738 34.8419 10.4849 34.846C10.0214 34.8561 9.55792 34.8656 9.09441 34.8748C9.06309 34.9388 9.03177 35.0029 8.9995 35.0689C8.95795 35.1531 8.9164 35.2373 8.87359 35.3241C8.8121 35.4492 8.8121 35.4492 8.74937 35.5769C8.39057 36.2596 7.8538 36.665 7.14471 36.9483C6.38073 37.1588 5.48688 37.1556 4.78045 36.7732C4.71906 36.7345 4.65766 36.6959 4.59441 36.656C4.52915 36.6173 4.4639 36.5787 4.39666 36.5388C3.76247 36.1192 3.35984 35.499 3.15301 34.7693C2.99106 33.7652 3.16812 32.9089 3.76275 32.0725C4.29396 31.4737 4.96775 31.076 5.76775 30.9995C6.75293 30.9892 7.54643 31.1082 8.28802 31.7953C8.64083 32.2023 8.92415 32.6765 9.09441 33.1873C10.0535 33.2182 11.0125 33.2491 12.0007 33.281C12.0007 31.5176 12.0007 29.7541 12.0007 27.9373C10.8691 27.952 10.8691 27.952 9.73769 27.9711C7.64546 27.9946 5.84662 27.4418 4.31316 25.9685C2.94171 24.5635 2.3055 22.758 2.32464 20.8156C2.39773 18.9426 3.22429 17.2983 4.57574 16.0186C5.09754 15.5755 5.63052 15.1579 6.29949 14.9774C6.99297 14.8211 6.99297 14.8211 7.49924 14.3724C7.6361 13.9735 7.68205 13.5576 7.74273 13.1418C7.94895 12.0652 8.75046 11.0198 9.63059 10.3832C10.2456 9.97851 10.9068 9.64144 11.6257 9.46852C11.6974 9.45112 11.7692 9.43371 11.8432 9.41578C12.1433 9.36678 12.4291 9.36584 12.7331 9.36891C12.842 9.36976 12.9509 9.3706 13.063 9.37147C13.1456 9.37256 13.2281 9.37365 13.3132 9.37477C13.3228 9.3083 13.3325 9.24183 13.3425 9.17335C13.7125 7.63866 15.2203 6.26083 16.5182 5.46657C17.8904 4.65932 19.4932 4.0906 21.0944 4.03102C21.1888 4.02619 21.2832 4.02135 21.3804 4.01637C22.0324 3.99832 22.6601 4.05027 23.3034 4.14821C23.3797 4.15981 23.4559 4.17141 23.5345 4.18336C23.998 4.26113 24.3969 4.38881 24.8327 4.57008C25.215 4.69897 25.3428 4.7175 25.7127 4.54298C25.9808 4.36408 26.2285 4.16119 26.4778 3.95737C29.4336 1.68217 33.8716 2.61677 36.5339 4.7986ZM26.3268 5.94703C26.0286 6.18767 25.8955 6.27685 25.5124 6.35719C25.0851 6.31123 24.7078 6.1075 24.3189 5.93532C22.4445 5.21056 20.2345 5.42232 18.4167 6.21657C16.5434 7.08617 15.2491 8.35305 14.5026 10.2888C14.4778 10.3618 14.4531 10.4348 14.4275 10.51C14.3444 10.6873 14.3444 10.6873 14.0632 10.8748C13.8259 10.881 13.5966 10.8784 13.36 10.8689C12.1808 10.8485 11.24 11.161 10.3366 11.9412C9.51011 12.9054 9.16101 13.7158 9.0729 14.9851C9.03013 15.5243 9.03013 15.5243 8.8791 15.7187C8.70237 15.8568 8.57649 15.9031 8.35906 15.9537C8.2541 15.9797 8.2541 15.9797 8.14703 16.0062C8.07294 16.0241 7.99886 16.0419 7.92254 16.0603C6.4606 16.4432 5.32426 17.1646 4.54424 18.4934C3.86856 19.7547 3.68758 21.1043 4.03191 22.4998C4.46162 23.8924 5.35889 25.0344 6.64739 25.7156C6.71241 25.7488 6.77743 25.782 6.84441 25.8162C6.93614 25.8632 6.93614 25.8632 7.02972 25.9111C7.87696 26.3209 8.69452 26.3711 9.62574 26.3686C9.74332 26.369 9.86089 26.3694 9.98203 26.3699C10.3064 26.371 10.6309 26.371 10.9553 26.3708C11.306 26.3707 11.6566 26.3718 12.0073 26.3727C12.6937 26.3742 13.3801 26.3747 14.0664 26.3748C14.6248 26.3749 15.1832 26.3753 15.7416 26.3759C17.3269 26.3776 18.9121 26.3784 20.4974 26.3783C20.5828 26.3783 20.6682 26.3783 20.7561 26.3783C20.8416 26.3783 20.9271 26.3782 21.0152 26.3782C22.3994 26.3782 23.7836 26.38 25.1677 26.3826C26.5912 26.3853 28.0146 26.3866 29.438 26.3864C30.2363 26.3864 31.0346 26.3869 31.8328 26.3889C32.5127 26.3906 33.1926 26.391 33.8725 26.3897C34.2189 26.3891 34.5652 26.3891 34.9115 26.3907C36.8933 26.4079 36.8933 26.4079 38.8132 25.9685C38.9687 25.9139 38.9687 25.9139 39.1274 25.8582C41.0854 25.1329 42.6101 23.551 43.4948 21.6912C44.3471 19.8016 44.3133 17.7446 43.6332 15.8084C42.9082 13.9498 41.4952 12.4815 39.6891 11.6511C39.2218 11.4474 38.7655 11.2618 38.2741 11.1267C37.9694 10.9685 37.9694 10.9685 37.8522 10.6228C37.8281 10.4569 37.8047 10.2909 37.7819 10.1248C37.4537 8.46953 36.8497 7.17557 35.6257 5.99977C35.5437 5.91675 35.5437 5.91675 35.4601 5.83204C34.2459 4.68527 32.5331 4.17147 30.9001 4.11342C29.1546 4.17223 27.6459 4.80724 26.3268 5.94703ZM4.93938 33.0474C4.65437 33.4759 4.6018 33.9029 4.68816 34.406C4.81768 34.7961 5.0197 35.0631 5.36199 35.2908C5.75785 35.4853 6.13146 35.5224 6.56316 35.4373C6.96991 35.271 7.24227 35.066 7.50066 34.7107C7.66094 34.1898 7.69615 33.7034 7.44793 33.2048C7.22026 32.8626 6.95323 32.6605 6.56316 32.531C5.92124 32.4208 5.37586 32.5489 4.93938 33.0474ZM40.6581 33.0474C40.3731 33.4759 40.3205 33.9029 40.4069 34.406C40.5364 34.7961 40.7384 35.0631 41.0807 35.2908C41.5311 35.5136 41.9924 35.5334 42.4683 35.3754C42.8357 35.1936 43.0695 34.9598 43.2513 34.5924C43.4093 34.1165 43.3895 33.6552 43.1667 33.2048C42.939 32.8626 42.672 32.6605 42.2819 32.531C41.64 32.4208 41.0946 32.5489 40.6581 33.0474ZM12.1589 39.7088C11.89 40.0972 11.8755 40.4108 11.9069 40.8748C12.0804 41.3567 12.3317 41.6159 12.7507 41.906C13.1527 42.0881 13.4224 42.1162 13.8405 41.9998C14.3723 41.7941 14.6064 41.4911 14.8483 40.9744C14.9453 40.4991 14.8802 40.1625 14.6608 39.7322C14.3481 39.3619 14.048 39.1389 13.5717 39.0576C12.9378 39.0256 12.5842 39.2374 12.1589 39.7088ZM33.3405 39.7263C33.1273 40.1528 33.012 40.5144 33.1567 40.9824C33.371 41.4513 33.6239 41.7702 34.1084 41.9796C34.535 42.119 34.8496 42.1047 35.2606 41.924C35.6623 41.6713 35.9452 41.3225 36.0944 40.8748C36.147 40.3277 36.0479 39.9893 35.7194 39.5623C35.3072 39.1802 34.986 39.0581 34.4186 39.0675C33.9449 39.1293 33.6456 39.373 33.3405 39.7263ZM22.7409 41.408C22.5267 41.862 22.4194 42.2761 22.5596 42.7699C22.7579 43.2155 22.9887 43.4752 23.4382 43.6873C23.8885 43.8151 24.2544 43.8267 24.6862 43.6345C25.0985 43.3931 25.3304 43.1132 25.4629 42.6461C25.5474 42.1699 25.4912 41.8295 25.2465 41.4116C24.9568 41.0236 24.6183 40.8635 24.153 40.781C23.55 40.7393 23.1392 40.9688 22.7409 41.408Z" fill="#F5F5F5"></path>
</svg>
