<?xml version="1.0" encoding="UTF-8"?>
<svg xmlns="http://www.w3.org/2000/svg" width="48" height="48" viewBox="0 0 48 48" fill="none">
  <path d="M36.5339 4.79883C37.9404 6.00238 38.9505 7.73869 39.1647 9.59179C39.1725 9.70588 39.1802 9.81996 39.1882 9.9375C39.2636 9.9549 39.2636 9.9549 39.3405 9.97265C41.4369 10.5243 43.2665 11.9438 44.3829 13.793C45.6206 16.0313 46.0096 18.5179 45.3757 21C44.644 23.506 43.004 25.5108 40.7468 26.8066C39.1751 27.6353 37.8113 27.8437 36.0007 27.8437C36.0007 29.6381 36.0007 31.4325 36.0007 33.2812C36.9597 33.2503 37.9188 33.2194 38.9069 33.1875C39.0616 32.8781 39.2163 32.5687 39.3757 32.25C39.8253 31.606 40.4052 31.2387 41.1569 31.0312C42.2142 30.9302 43.066 31.0345 43.905 31.7051C44.5612 32.3256 44.8382 33.0725 44.9421 33.9551C44.8391 35.0017 44.492 35.7792 43.6882 36.4687C43.4469 36.6349 43.2143 36.7478 42.9382 36.8437C42.8241 36.8843 42.71 36.925 42.5925 36.9668C41.7833 37.1417 40.9562 37.0163 40.2399 36.6105C39.6594 36.2149 39.2351 35.7322 39.0007 35.0625C39.0007 34.9697 39.0007 34.8769 39.0007 34.7812C38.8867 34.7827 38.7727 34.7842 38.6553 34.7857C38.2316 34.7908 37.8079 34.794 37.3842 34.7967C37.201 34.7981 37.0177 34.8 36.8345 34.8025C36.5708 34.8059 36.3072 34.8075 36.0435 34.8087C35.921 34.8109 35.921 34.8109 35.7961 34.8131C35.3497 34.8132 35.0477 34.7951 34.6882 34.5C34.4616 34.1602 34.4779 34.0058 34.4794 33.6016C34.4793 33.5394 34.4793 33.4772 34.4793 33.4131C34.4794 33.2076 34.4809 33.0022 34.4824 32.7967C34.4827 32.6542 34.483 32.5117 34.4832 32.3692C34.4839 31.9942 34.4857 31.6192 34.4878 31.2442C34.49 30.7942 34.4909 30.3442 34.492 29.8942C34.4938 29.2107 34.4974 28.5273 34.5007 27.8437C33.1394 27.8437 31.7782 27.8437 30.3757 27.8437C30.3185 29.115 30.3185 29.115 30.2854 30.3862C30.2771 30.9075 30.2664 31.4277 30.2384 31.9484C30.0914 34.1975 30.0914 34.1975 31.0471 36.1528C31.635 36.7973 32.3017 37.3553 33.0007 37.875C33.0965 37.8452 33.0965 37.8452 33.1942 37.8148C33.2782 37.789 33.3623 37.7633 33.4489 37.7367C33.5321 37.711 33.6153 37.6854 33.701 37.6589C34.4495 37.4532 35.3089 37.5183 36.0007 37.875C36.7803 38.3435 37.2068 38.9594 37.5358 39.7969C37.6887 40.6528 37.6305 41.4676 37.178 42.2267C36.6849 42.9097 36.067 43.3718 35.2507 43.5937C34.236 43.6907 33.3768 43.6012 32.5553 42.9727C31.9316 42.3857 31.5587 41.6347 31.5007 40.7812C31.5072 40.3382 31.5216 39.9189 31.6984 39.5087C31.7949 39.2457 31.7804 39.1649 31.6882 38.9062C31.5757 38.7542 31.5757 38.7542 31.4294 38.6171C31.3483 38.5364 31.3483 38.5364 31.2654 38.4541C31.1774 38.3686 31.1774 38.3686 31.0876 38.2815C31.0276 38.2221 30.9676 38.1628 30.9058 38.1016C30.7141 37.9121 30.5215 37.7236 30.3288 37.5352C30.1362 37.3459 29.9439 37.1564 29.7518 36.9667C29.6322 36.8487 29.5123 36.731 29.3921 36.6136C28.8794 36.1095 28.8794 36.1095 28.8644 35.6678C28.8641 35.5219 28.8644 35.3759 28.865 35.23C28.865 35.1504 28.865 35.0708 28.865 34.9888C28.865 34.7251 28.8658 34.4613 28.8665 34.1975C28.8667 34.0149 28.8668 33.8323 28.8669 33.6497C28.8673 33.1685 28.8682 32.6874 28.8692 32.2062C28.8704 31.6292 28.8708 31.0522 28.8713 30.4751C28.8722 29.598 28.874 28.7209 28.8757 27.8437C27.5144 27.8437 26.1532 27.8437 24.7507 27.8437C24.7507 31.6491 24.7507 35.4544 24.7507 39.375C24.9363 39.4369 25.1219 39.4987 25.3132 39.5625C26.1333 39.9794 26.607 40.5749 26.8952 41.4434C27.1153 42.2937 27.007 43.0374 26.6019 43.8212C26.1965 44.4783 25.6303 44.9922 24.8873 45.2369C23.8815 45.4304 22.9684 45.3285 22.1092 44.7748C21.449 44.2662 21.0305 43.4777 20.9069 42.6562C20.8478 41.7836 21.073 41.0311 21.5815 40.3165C22.0245 39.815 22.5296 39.5841 23.1569 39.375C23.1569 35.5697 23.1569 31.7644 23.1569 27.8437C21.7957 27.8437 20.4344 27.8437 19.0319 27.8437C19.0395 28.4238 19.0471 29.0039 19.055 29.6016C19.0583 29.9698 19.0615 30.3381 19.064 30.7064C19.0679 31.2905 19.0725 31.8746 19.0814 32.4587C19.0886 32.9298 19.0925 33.4008 19.0942 33.872C19.0954 34.0514 19.0977 34.2308 19.1013 34.4102C19.1314 35.9928 19.1314 35.9928 18.735 36.4576C18.6186 36.5591 18.4989 36.657 18.3757 36.75C18.2801 36.8418 18.1854 36.9346 18.0916 37.0283C17.9989 37.1143 17.9059 37.2001 17.8128 37.2858C17.7114 37.3819 17.6101 37.4781 17.509 37.5745C17.3528 37.7232 17.196 37.8709 17.0368 38.0162C16.4124 38.5382 16.4124 38.5382 16.0983 39.2423C16.1473 39.4606 16.2174 39.6421 16.3132 39.8437C16.4852 40.808 16.3652 41.6077 15.8287 42.438C15.3897 42.9958 14.7719 43.4657 14.0632 43.5937C12.9628 43.6924 12.1339 43.5811 11.2682 42.8789C10.6801 42.322 10.3634 41.6457 10.2941 40.8413C10.276 39.9158 10.5439 39.1415 11.1569 38.4375C11.9369 37.7618 12.6172 37.5763 13.6343 37.5597C14.0792 37.6049 14.4836 37.7351 14.9069 37.875C16.0366 37.2927 17.0872 36.478 17.5319 35.25C17.8139 33.998 17.7597 32.6581 17.7429 31.3828C17.7412 31.2533 17.7412 31.2533 17.7394 31.1212C17.7231 30.0271 17.677 28.9374 17.6257 27.8437C16.2644 27.8437 14.9032 27.8437 13.5007 27.8437C13.5039 28.2985 13.5072 28.7533 13.5106 29.2218C13.512 29.5102 13.5133 29.7986 13.5144 30.087C13.5161 30.5446 13.5181 31.0021 13.5219 31.4597C13.5249 31.8287 13.5266 32.1976 13.5273 32.5666C13.5279 32.7073 13.5289 32.8479 13.5304 32.9886C13.5324 33.1858 13.5327 33.383 13.5326 33.5803C13.5335 33.7486 13.5335 33.7486 13.5345 33.9204C13.4972 34.249 13.4167 34.4247 13.2194 34.6875C13.0075 34.7934 12.8846 34.7956 12.6492 34.8005C12.5704 34.8024 12.4915 34.8042 12.4103 34.8062C12.2826 34.8085 12.2826 34.8085 12.1523 34.8109C12.0216 34.8138 12.0216 34.8138 11.8882 34.8168C11.6093 34.823 11.3304 34.8285 11.0514 34.834C10.8626 34.838 10.6738 34.8421 10.4849 34.8462C10.0214 34.8563 9.55792 34.8658 9.09441 34.875C9.06309 34.9391 9.03177 35.0031 8.9995 35.0692C8.95795 35.1534 8.9164 35.2376 8.87359 35.3243C8.8121 35.4495 8.8121 35.4495 8.74937 35.5771C8.39057 36.2599 7.8538 36.6652 7.14471 36.9485C6.38073 37.159 5.48688 37.1559 4.78045 36.7734C4.71906 36.7348 4.65766 36.6961 4.59441 36.6562C4.52915 36.6176 4.4639 36.5789 4.39666 36.5391C3.76247 36.1194 3.35984 35.4992 3.15301 34.7695C2.99106 33.7654 3.16812 32.9091 3.76275 32.0728C4.29396 31.4739 4.96775 31.0762 5.76775 30.9998C6.75293 30.9894 7.54643 31.1084 8.28802 31.7955C8.64083 32.2026 8.92415 32.6767 9.09441 33.1875C10.0535 33.2184 11.0125 33.2494 12.0007 33.2812C12.0007 31.5178 12.0007 29.7544 12.0007 27.9375C10.8691 27.9522 10.8691 27.9522 9.73769 27.9713C7.64546 27.9949 5.84662 27.442 4.31316 25.9687C2.94171 24.5637 2.3055 22.7582 2.32464 20.8158C2.39773 18.9428 3.22429 17.2986 4.57574 16.0188C5.09754 15.5758 5.63052 15.1581 6.29949 14.9777C6.99297 14.8214 6.99297 14.8214 7.49924 14.3726C7.6361 13.9738 7.68205 13.5578 7.74273 13.1421C7.94895 12.0654 8.75046 11.0201 9.63059 10.3834C10.2456 9.97874 10.9068 9.64167 11.6257 9.46875C11.6974 9.45135 11.7692 9.43394 11.8432 9.41601C12.1433 9.36701 12.4291 9.36607 12.7331 9.36914C12.842 9.36998 12.9509 9.37083 13.063 9.3717C13.1456 9.37279 13.2281 9.37388 13.3132 9.375C13.3228 9.30853 13.3325 9.24206 13.3425 9.17358C13.7125 7.63889 15.2203 6.26105 16.5182 5.4668C17.8904 4.65955 19.4932 4.09083 21.0944 4.03125C21.1888 4.02641 21.2832 4.02158 21.3804 4.0166C22.0324 3.99855 22.6601 4.0505 23.3034 4.14844C23.3797 4.16004 23.4559 4.17164 23.5345 4.18359C23.998 4.26136 24.3969 4.38904 24.8327 4.57031C25.215 4.6992 25.3428 4.71773 25.7127 4.54321C25.9808 4.36431 26.2285 4.16142 26.4778 3.95759C29.4336 1.6824 33.8716 2.617 36.5339 4.79883ZM26.3268 5.94726C26.0286 6.18789 25.8955 6.27708 25.5124 6.35742C25.0851 6.31145 24.7078 6.10773 24.3189 5.93554C22.4445 5.21079 20.2345 5.42255 18.4167 6.21679C16.5434 7.0864 15.2491 8.35328 14.5026 10.2891C14.4778 10.3621 14.4531 10.435 14.4275 10.5103C14.3444 10.6875 14.3444 10.6875 14.0632 10.875C13.8259 10.8813 13.5966 10.8786 13.36 10.8691C12.1808 10.8487 11.24 11.1612 10.3366 11.9414C9.51011 12.9056 9.16101 13.716 9.0729 14.9853C9.03013 15.5246 9.03013 15.5246 8.8791 15.719C8.70237 15.8571 8.57649 15.9034 8.35906 15.954C8.2541 15.9799 8.2541 15.9799 8.14703 16.0064C8.07294 16.0243 7.99886 16.0421 7.92254 16.0605C6.4606 16.4435 5.32426 17.1649 4.54424 18.4936C3.86856 19.7549 3.68758 21.1046 4.03191 22.5C4.46162 23.8927 5.35889 25.0346 6.64739 25.7158C6.71241 25.749 6.77743 25.7822 6.84441 25.8164C6.93614 25.8634 6.93614 25.8634 7.02972 25.9113C7.87696 26.3211 8.69452 26.3713 9.62574 26.3688C9.74332 26.3692 9.86089 26.3697 9.98203 26.3701C10.3064 26.3712 10.6309 26.3712 10.9553 26.371C11.306 26.371 11.6566 26.372 12.0073 26.3729C12.6937 26.3744 13.3801 26.375 14.0664 26.3751C14.6248 26.3752 15.1832 26.3755 15.7416 26.3761C17.3269 26.3778 18.9121 26.3787 20.4974 26.3785C20.5828 26.3785 20.6682 26.3785 20.7561 26.3785C20.8416 26.3785 20.9271 26.3785 21.0152 26.3785C22.3994 26.3784 23.7836 26.3802 25.1677 26.3828C26.5912 26.3855 28.0146 26.3868 29.438 26.3867C30.2363 26.3866 31.0346 26.3871 31.8328 26.3891C32.5127 26.3908 33.1926 26.3912 33.8725 26.39C34.2189 26.3894 34.5652 26.3893 34.9115 26.391C36.8933 26.4082 36.8933 26.4082 38.8132 25.9687C38.9687 25.9142 38.9687 25.9142 39.1274 25.8585C41.0854 25.1331 42.6101 23.5513 43.4948 21.6914C44.3471 19.8018 44.3133 17.7448 43.6332 15.8086C42.9082 13.95 41.4952 12.4817 39.6891 11.6514C39.2218 11.4477 38.7655 11.262 38.2741 11.127C37.9694 10.9687 37.9694 10.9687 37.8522 10.623C37.8281 10.4571 37.8047 10.2911 37.7819 10.125C37.4537 8.46976 36.8497 7.1758 35.6257 6C35.5437 5.91697 35.5437 5.91697 35.4601 5.83227C34.2459 4.6855 32.5331 4.1717 30.9001 4.11365C29.1546 4.17246 27.6459 4.80747 26.3268 5.94726ZM4.93938 33.0476C4.65437 33.4761 4.6018 33.9032 4.68816 34.4062C4.81768 34.7963 5.0197 35.0633 5.36199 35.291C5.75785 35.4856 6.13146 35.5227 6.56316 35.4375C6.96991 35.2713 7.24227 35.0662 7.50066 34.7109C7.66094 34.19 7.69615 33.7037 7.44793 33.2051C7.22026 32.8628 6.95323 32.6608 6.56316 32.5312C5.92124 32.421 5.37586 32.5491 4.93938 33.0476ZM40.6581 33.0476C40.3731 33.4761 40.3205 33.9032 40.4069 34.4062C40.5364 34.7963 40.7384 35.0633 41.0807 35.291C41.5311 35.5138 41.9924 35.5336 42.4683 35.3756C42.8357 35.1939 43.0695 34.9601 43.2513 34.5926C43.4093 34.1167 43.3895 33.6554 43.1667 33.2051C42.939 32.8628 42.672 32.6608 42.2819 32.5312C41.64 32.421 41.0946 32.5491 40.6581 33.0476ZM12.1589 39.709C11.89 40.0974 11.8755 40.411 11.9069 40.875C12.0804 41.357 12.3317 41.6162 12.7507 41.9062C13.1527 42.0883 13.4224 42.1165 13.8405 42C14.3723 41.7944 14.6064 41.4913 14.8483 40.9746C14.9453 40.4993 14.8802 40.1627 14.6608 39.7324C14.3481 39.3621 14.048 39.1392 13.5717 39.0579C12.9378 39.0258 12.5842 39.2376 12.1589 39.709ZM33.3405 39.7266C33.1273 40.153 33.012 40.5146 33.1567 40.9827C33.371 41.4515 33.6239 41.7704 34.1084 41.9799C34.535 42.1193 34.8496 42.1049 35.2606 41.9242C35.6623 41.6715 35.9452 41.3227 36.0944 40.875C36.147 40.3279 36.0479 39.9895 35.7194 39.5625C35.3072 39.1804 34.986 39.0584 34.4186 39.0677C33.9449 39.1296 33.6456 39.3732 33.3405 39.7266ZM22.7409 41.4082C22.5267 41.8622 22.4194 42.2764 22.5596 42.7701C22.7579 43.2157 22.9887 43.4755 23.4382 43.6875C23.8885 43.8153 24.2544 43.8269 24.6862 43.6348C25.0985 43.3933 25.3304 43.1135 25.4629 42.6464C25.5474 42.1701 25.4912 41.8297 25.2465 41.4119C24.9568 41.0238 24.6183 40.8637 24.153 40.7812C23.55 40.7396 23.1392 40.9691 22.7409 41.4082Z" fill="#FF7705"></path>
</svg>
