<?xml version="1.0" encoding="UTF-8"?>
<svg xmlns="http://www.w3.org/2000/svg" width="48" height="48" viewBox="0 0 48 48" fill="none">
  <g clip-path="url(#clip0_4462_147)">
    <path d="M19.2649 15.0805C19.3513 15.08 19.4378 15.0794 19.5269 15.0789C19.6216 15.0788 19.7163 15.0787 19.8138 15.0785C19.9636 15.0778 19.9636 15.0778 20.1165 15.0771C20.4475 15.0758 20.7785 15.0751 21.1095 15.0746C21.3392 15.0741 21.5689 15.0735 21.7986 15.073C22.2804 15.072 22.7623 15.0715 23.2441 15.0711C23.8619 15.0706 24.4797 15.0684 25.0975 15.0657C25.572 15.064 26.0465 15.0635 26.521 15.0633C26.7488 15.063 26.9766 15.0623 27.2044 15.061C27.5229 15.0595 27.8413 15.0596 28.1598 15.0602C28.2541 15.0594 28.3484 15.0585 28.4455 15.0576C29.2538 15.0625 29.2538 15.0625 29.6239 15.3749C29.7466 15.6201 29.7298 15.8001 29.7303 16.0749C29.7307 16.1845 29.7311 16.294 29.7315 16.4069C29.7315 16.5283 29.7315 16.6497 29.7315 16.7747C29.7318 16.9042 29.7321 17.0336 29.7325 17.163C29.7335 17.52 29.7338 17.8769 29.7341 18.2338C29.7344 18.6183 29.7353 19.0028 29.7361 19.3872C29.738 20.3163 29.7389 21.2453 29.7398 22.1743C29.7402 22.6114 29.7407 23.0486 29.7412 23.4857C29.7428 24.9381 29.7441 26.3905 29.7448 27.843C29.745 28.22 29.7452 28.5971 29.7454 28.9741C29.7454 29.0679 29.7454 29.1616 29.7455 29.2581C29.7463 30.7774 29.7486 32.2967 29.7517 33.8159C29.7548 35.3745 29.7565 36.9331 29.7568 38.4917C29.757 39.3673 29.7578 40.2428 29.7602 41.1184C29.7622 41.8639 29.763 42.6093 29.7621 43.3548C29.7617 43.7353 29.7618 44.1159 29.7636 44.4964C29.7653 44.8445 29.7652 45.1926 29.7638 45.5408C29.7634 45.7269 29.7649 45.913 29.7665 46.0991C29.7653 46.2642 29.7653 46.2642 29.7641 46.4326C29.7642 46.5277 29.7643 46.6229 29.7644 46.7209C29.705 47.0358 29.5905 47.147 29.3427 47.3437C29.1307 47.3908 29.1307 47.3908 28.8944 47.3913C28.7595 47.3929 28.7595 47.3929 28.622 47.3945C28.475 47.3933 28.475 47.3933 28.325 47.3922C28.1694 47.3932 28.1694 47.3932 28.0108 47.3942C27.6676 47.3958 27.3245 47.3947 26.9814 47.3935C26.7432 47.3937 26.505 47.3941 26.2668 47.3945C25.7675 47.3951 25.2681 47.3943 24.7688 47.3925C24.1917 47.3905 23.6147 47.3912 23.0376 47.3932C22.4822 47.3951 21.9268 47.3949 21.3714 47.3938C21.1351 47.3936 20.8989 47.3939 20.6627 47.3948C20.3327 47.3957 20.0028 47.3943 19.6729 47.3922C19.5749 47.3929 19.4769 47.3937 19.3759 47.3945C19.286 47.3934 19.1961 47.3924 19.1035 47.3913C19.0255 47.3911 18.9475 47.391 18.8672 47.3908C18.5724 47.3252 18.4693 47.2014 18.2802 46.9687C18.2333 46.7211 18.2333 46.7211 18.2333 46.4331C18.2323 46.3232 18.2314 46.2132 18.2305 46.1C18.2314 45.9791 18.2323 45.8583 18.2332 45.7338C18.2328 45.6042 18.2323 45.4746 18.2316 45.345C18.2302 44.9885 18.2312 44.632 18.2325 44.2754C18.2336 43.8911 18.2325 43.5068 18.2316 43.1224C18.2303 42.3694 18.231 41.6163 18.2324 40.8633C18.234 39.9867 18.2337 39.1102 18.2334 38.2337C18.2328 36.6701 18.2341 35.1064 18.2364 33.5428C18.2387 32.0246 18.2394 30.5065 18.2384 28.9883C18.2373 27.3361 18.2371 25.6839 18.2385 24.0317C18.2386 23.8557 18.2388 23.6796 18.2389 23.5035C18.239 23.4168 18.239 23.3302 18.2391 23.2409C18.2396 22.6296 18.2394 22.0182 18.239 21.4069C18.2385 20.6621 18.2391 19.9174 18.2409 19.1726C18.2419 18.7925 18.2423 18.4123 18.2416 18.0321C18.241 17.6843 18.2416 17.3366 18.2433 16.9888C18.2438 16.8029 18.243 16.617 18.2421 16.4311C18.2429 16.3211 18.2437 16.2112 18.2445 16.098C18.2446 16.0029 18.2447 15.9079 18.2448 15.8099C18.286 15.5216 18.3593 15.3946 18.5614 15.1874C18.8267 15.099 18.9901 15.0815 19.2649 15.0805ZM19.8739 16.6874C19.8739 26.278 19.8739 35.8687 19.8739 45.7499C22.5964 45.7499 25.3189 45.7499 28.1239 45.7499C28.1239 36.1593 28.1239 26.5687 28.1239 16.6874C25.4014 16.6874 22.6789 16.6874 19.8739 16.6874Z" fill="#FF7705"></path>
    <path d="M36.7304 23.1911C36.8203 23.1899 36.9102 23.1887 37.0028 23.1875C37.1498 23.1891 37.1498 23.1891 37.2998 23.1908C37.4035 23.1902 37.5072 23.1895 37.614 23.1888C37.9572 23.1872 38.3003 23.189 38.6434 23.191C38.8816 23.1909 39.1198 23.1907 39.358 23.1903C39.8573 23.1901 40.3566 23.1914 40.856 23.194C41.4331 23.197 42.0101 23.197 42.5872 23.1954C43.1426 23.1939 43.698 23.1946 44.2534 23.1962C44.4897 23.1966 44.7259 23.1966 44.9621 23.196C45.2921 23.1955 45.622 23.1974 45.9519 23.2C46.0499 23.1994 46.1479 23.1988 46.2489 23.1981C46.3388 23.1993 46.4287 23.2005 46.5213 23.2017C46.5993 23.202 46.6773 23.2023 46.7576 23.2025C47.0699 23.2724 47.1654 23.3574 47.3446 23.625C47.4002 23.9344 47.3952 24.2401 47.3922 24.5538C47.3928 24.6492 47.3934 24.7445 47.394 24.8428C47.3955 25.1634 47.3943 25.4839 47.3931 25.8045C47.3936 26.0339 47.3943 26.2634 47.3951 26.4928C47.3967 27.0518 47.3964 27.6109 47.3953 28.1699C47.3945 28.6242 47.3944 29.0785 47.3948 29.5328C47.3948 29.5975 47.3949 29.6621 47.395 29.7287C47.3951 29.86 47.3952 29.9913 47.3953 30.1225C47.3964 31.354 47.3952 32.5854 47.3932 33.8168C47.3915 34.8737 47.3918 35.9306 47.3935 36.9875C47.3955 38.2145 47.3963 39.4415 47.3951 40.6685C47.395 40.7993 47.3949 40.9301 47.3948 41.0609C47.3947 41.1252 47.3947 41.1896 47.3946 41.2559C47.3943 41.7097 47.3948 42.1636 47.3957 42.6174C47.3969 43.2281 47.3961 43.8387 47.3939 44.4494C47.3934 44.6739 47.3935 44.8984 47.3944 45.1228C47.3954 45.4286 47.3941 45.7342 47.3922 46.0399C47.3931 46.1294 47.3939 46.2189 47.3948 46.3111C47.3877 46.9044 47.3877 46.9044 47.1821 47.2113C46.9385 47.3631 46.8068 47.391 46.5213 47.392C46.4314 47.3932 46.3415 47.3944 46.2489 47.3956C46.1509 47.395 46.0529 47.3944 45.9519 47.3937C45.8482 47.3946 45.7445 47.3954 45.6377 47.3962C45.2945 47.3983 44.9514 47.3977 44.6083 47.3968C44.3701 47.3973 44.1319 47.3979 43.8937 47.3986C43.3944 47.3996 42.8951 47.3992 42.3957 47.3978C41.8186 47.3962 41.2416 47.3977 40.6646 47.4007C40.1091 47.4035 39.5537 47.4037 38.9983 47.4028C38.762 47.4027 38.5258 47.4034 38.2896 47.4048C37.9596 47.4064 37.6298 47.405 37.2998 47.4029C37.2018 47.404 37.1038 47.4051 37.0028 47.4062C36.9129 47.405 36.823 47.4039 36.7304 47.4026C36.6524 47.4026 36.5745 47.4025 36.4941 47.4025C36.2821 47.3437 36.2821 47.3437 36.0696 47.164C35.8389 46.7536 35.8551 46.4062 35.8595 45.9427C35.8586 45.8007 35.8586 45.8007 35.8577 45.6559C35.8562 45.3384 35.8574 45.021 35.8586 44.7035C35.8581 44.4761 35.8574 44.2486 35.8566 44.0212C35.8551 43.4673 35.8553 42.9135 35.8564 42.3596C35.8572 41.9095 35.8573 41.4593 35.8569 41.0092C35.8569 40.9451 35.8568 40.881 35.8568 40.815C35.8566 40.6849 35.8565 40.5547 35.8564 40.4246C35.8553 39.2041 35.8565 37.9837 35.8586 36.7633C35.8602 35.7161 35.8599 34.6689 35.8582 33.6218C35.8562 32.4057 35.8554 31.1896 35.8566 29.9736C35.8567 29.8439 35.8568 29.7142 35.8569 29.5845C35.857 29.5207 35.857 29.4569 35.8571 29.3912C35.8574 28.9416 35.8569 28.492 35.856 28.0424C35.8548 27.4373 35.8557 26.8322 35.8578 26.227C35.8583 26.0047 35.8582 25.7824 35.8574 25.56C35.8563 25.257 35.8576 24.9541 35.8595 24.6511C35.8582 24.5184 35.8582 24.5184 35.857 24.3831C35.8616 23.9971 35.8774 23.7715 36.0696 23.4298C36.3143 23.2228 36.4141 23.1913 36.7304 23.1911ZM37.5009 24.75C37.5009 31.68 37.5009 38.61 37.5009 45.75C40.2234 45.75 42.9459 45.75 45.7509 45.75C45.7509 38.82 45.7509 31.89 45.7509 24.75C43.0284 24.75 40.3059 24.75 37.5009 24.75Z" fill="#FF7705"></path>
    <path d="M1.57659 28.9205C1.66491 28.9193 1.75322 28.9181 1.84421 28.9169C1.93997 28.9175 2.03574 28.9181 2.1344 28.9187C2.23613 28.9179 2.33785 28.9171 2.44267 28.9163C2.77878 28.9142 3.11481 28.9148 3.45093 28.9156C3.68455 28.9151 3.91817 28.9146 4.15179 28.9139C4.70404 28.9128 5.25627 28.9137 5.80853 28.9152C6.24872 28.9163 6.68887 28.9151 7.12906 28.9128C7.73626 28.9096 8.34341 28.9087 8.95062 28.9097C9.18207 28.9097 9.41352 28.9091 9.64496 28.9077C9.9684 28.9061 10.2917 28.9074 10.6151 28.9096C10.7109 28.9085 10.8066 28.9074 10.9053 28.9062C10.9936 28.9074 11.0819 28.9086 11.1729 28.9098C11.2493 28.9099 11.3257 28.91 11.4044 28.91C11.7443 29.0006 11.8824 29.1604 12.0935 29.4375C12.1396 29.6955 12.1567 29.8954 12.1524 30.1527C12.1531 30.224 12.1537 30.2953 12.1544 30.3687C12.1561 30.6072 12.1544 30.8455 12.1527 31.084C12.1532 31.2551 12.1538 31.4262 12.1547 31.5973C12.1564 32.0618 12.1552 32.5262 12.1534 32.9907C12.1518 33.4767 12.1527 33.9627 12.1531 34.4487C12.1536 35.2649 12.1521 36.081 12.1495 36.8972C12.1465 37.8409 12.1465 38.7846 12.1481 39.7283C12.1496 40.636 12.1489 41.5437 12.1473 42.4513C12.1467 42.8377 12.1468 43.224 12.1475 43.6104C12.1482 44.0653 12.1471 44.5202 12.1445 44.9752C12.1438 45.1422 12.1438 45.3092 12.1445 45.4762C12.1453 45.7041 12.1438 45.9319 12.1418 46.1598C12.1425 46.2259 12.1433 46.2921 12.1441 46.3603C12.1387 46.6822 12.0958 46.8712 11.931 47.1504C11.6864 47.373 11.5954 47.4024 11.2702 47.4026C11.1803 47.4038 11.0904 47.405 10.9978 47.4062C10.8998 47.4051 10.8018 47.404 10.7008 47.4029C10.5971 47.4036 10.4934 47.4042 10.3866 47.4049C10.0434 47.4065 9.70035 47.4047 9.35718 47.4027C9.11899 47.4028 8.88081 47.403 8.64263 47.4034C8.14328 47.4037 7.64396 47.4023 7.14462 47.3997C6.56755 47.3967 5.99053 47.3967 5.41346 47.3983C4.85802 47.3998 4.30261 47.3992 3.74718 47.3976C3.51094 47.3971 3.27471 47.3971 3.03847 47.3977C2.70851 47.3982 2.37865 47.3963 2.04871 47.3937C1.90171 47.3947 1.90171 47.3947 1.75174 47.3956C1.66184 47.3944 1.57194 47.3932 1.47932 47.392C1.40134 47.3917 1.32335 47.3915 1.24301 47.3912C0.939717 47.3233 0.835544 47.2217 0.656005 46.9687C0.618956 46.7186 0.604883 46.507 0.607755 46.2571C0.607104 46.185 0.606453 46.113 0.605782 46.0388C0.604066 45.7972 0.605033 45.5558 0.605994 45.3142C0.605333 45.1411 0.604513 44.968 0.603547 44.7949C0.601434 44.3246 0.601715 43.8544 0.602546 43.3841C0.603024 42.9917 0.602342 42.5994 0.601658 42.207C0.600063 41.2816 0.6004 40.3562 0.601966 39.4308C0.603553 38.4755 0.602067 37.5201 0.599039 36.5647C0.596539 35.745 0.595853 34.9252 0.59665 34.1055C0.597113 33.6156 0.596901 33.1258 0.594982 32.636C0.593265 32.1755 0.593815 31.7151 0.596126 31.2546C0.596597 31.0855 0.596265 30.9163 0.595081 30.7471C0.593593 30.5165 0.594983 30.2861 0.597112 30.0554C0.596003 29.9882 0.594893 29.921 0.59375 29.8517C0.600131 29.5124 0.633581 29.3682 0.865821 29.1148C1.13388 28.9636 1.27297 28.9215 1.57659 28.9205ZM2.24976 30.5625C2.24976 35.5744 2.24976 40.5862 2.24976 45.75C4.97225 45.75 7.69475 45.75 10.4998 45.75C10.4998 40.7381 10.4998 35.7262 10.4998 30.5625C7.77725 30.5625 5.05475 30.5625 2.24976 30.5625Z" fill="#FF7705"></path>
    <path d="M41.4377 9.18751C42.0565 9.51441 42.2853 9.88552 42.4935 10.5385C42.5307 10.6544 42.5678 10.7704 42.6061 10.8898C42.6344 10.98 42.6344 10.98 42.6632 11.0719C42.7209 11.2559 42.7799 11.4394 42.839 11.623C43.1252 12.5239 43.1252 12.5239 43.1252 12.8438C43.2217 12.8423 43.3181 12.8408 43.4175 12.8393C43.7771 12.8342 44.1366 12.831 44.4962 12.8283C44.6515 12.8269 44.8068 12.825 44.9621 12.8225C45.186 12.8191 45.4099 12.8175 45.6338 12.8163C45.7371 12.8141 45.7371 12.8141 45.8425 12.8119C46.2895 12.8118 46.5898 12.8886 46.969 13.125C47.3413 13.5268 47.387 13.8598 47.3938 14.3848C47.249 15.0832 46.6923 15.4237 46.1428 15.8027C46.0695 15.8544 45.9962 15.9061 45.9207 15.9593C45.7767 16.0607 45.6324 16.1618 45.4878 16.2624C45.1985 16.4641 44.9119 16.6695 44.6252 16.875C44.7757 17.6154 45.0006 18.3174 45.2448 19.0316C45.4233 19.5724 45.5848 20.0695 45.4067 20.6353C45.1764 21.0285 44.9804 21.2283 44.5315 21.375C43.5907 21.4795 42.9854 20.9131 42.258 20.3789C42.1091 20.2702 41.9602 20.1616 41.8113 20.053C41.7462 20.0053 41.6812 19.9576 41.6141 19.9085C41.3254 19.6679 41.3254 19.6679 40.9751 19.6127C40.7545 19.6979 40.5919 19.8056 40.4021 19.9468C40.3305 19.9994 40.259 20.0519 40.1853 20.1061C40.1113 20.1613 40.0374 20.2165 39.9612 20.2735C39.5438 20.583 39.1267 20.892 38.6919 21.1769C38.6351 21.2141 38.5784 21.2513 38.5199 21.2896C38.1877 21.4509 37.857 21.4464 37.5002 21.375C37.0893 21.1696 36.8251 20.9623 36.6565 20.5313C36.5442 19.7131 36.8163 18.9862 37.0783 18.2227C37.1191 18.1005 37.1598 17.9783 37.2003 17.8561C37.299 17.5599 37.399 17.2641 37.5002 16.9688C36.8949 16.4777 36.2816 16.0062 35.6435 15.5587C35.2426 15.2709 34.913 14.9817 34.6877 14.5313C34.6549 14.0306 34.6427 13.7176 34.969 13.3125C35.4508 12.8895 35.7341 12.8303 36.3613 12.8346C36.4339 12.8347 36.5064 12.8349 36.5812 12.835C36.8133 12.8355 37.0454 12.8367 37.2776 12.8379C37.4348 12.8384 37.592 12.8388 37.7492 12.8392C38.135 12.8402 38.5207 12.8418 38.9065 12.8438C38.9306 12.7516 38.9306 12.7516 38.9552 12.6575C39.1319 11.9948 39.3312 11.343 39.551 10.6934C39.5816 10.5983 39.6122 10.5033 39.6437 10.4053C39.9352 9.54722 39.9352 9.54722 40.4065 9.28126C40.7558 9.16483 41.0749 9.13735 41.4377 9.18751ZM40.969 11.5313C40.8484 11.8882 40.7283 12.2453 40.6085 12.6024C40.5677 12.724 40.5267 12.8454 40.4857 12.9669C40.4268 13.1413 40.3683 13.3159 40.3098 13.4905C40.2744 13.5956 40.2391 13.7006 40.2027 13.8089C40.1161 14.0482 40.1161 14.0482 40.1252 14.25C39.8038 14.3572 39.5401 14.3634 39.2013 14.3734C39.1082 14.3763 39.1082 14.3763 39.0133 14.3793C38.8156 14.3854 38.6179 14.391 38.4201 14.3965C38.2859 14.4005 38.1517 14.4046 38.0175 14.4088C37.6888 14.4188 37.3602 14.4283 37.0315 14.4375C37.3035 14.7181 37.5684 14.9712 37.8913 15.1915C37.9613 15.2399 38.0313 15.2883 38.1034 15.3382C38.175 15.3871 38.2467 15.436 38.3205 15.4863C38.4648 15.585 38.6089 15.6839 38.7527 15.7833C38.816 15.8265 38.8793 15.8697 38.9445 15.9141C39.094 16.0313 39.094 16.0313 39.1877 16.2188C39.238 16.9141 39.0931 17.439 38.8537 18.0879C38.7905 18.2624 38.7278 18.437 38.6659 18.612C38.6379 18.6881 38.6099 18.7642 38.5811 18.8426C38.508 19.036 38.508 19.036 38.6252 19.2188C38.6739 19.1833 38.7225 19.1479 38.7727 19.1113C38.9949 18.9497 39.2173 18.7883 39.4397 18.627C39.5162 18.5712 39.5928 18.5154 39.6717 18.458C39.8843 18.3038 40.0982 18.1515 40.3127 18C40.3965 17.9407 40.4802 17.8813 40.5665 17.8202C40.8562 17.6835 41.0263 17.6701 41.344 17.7188C41.575 17.8558 41.7727 17.9888 41.9826 18.1524C42.0977 18.2384 42.2128 18.3243 42.328 18.4102C42.3837 18.4522 42.4394 18.4943 42.4968 18.5376C42.8215 18.7789 43.1613 18.9982 43.5002 19.2188C43.3788 18.6004 43.204 18.011 43.0012 17.4152C42.8768 17.0361 42.7792 16.7096 42.844 16.3125C43.1817 15.89 43.6398 15.587 44.0744 15.2695C44.2077 15.1719 44.3407 15.074 44.4736 14.9758C44.532 14.9332 44.5904 14.8905 44.6505 14.8465C44.8112 14.72 44.9526 14.585 45.094 14.4375C45.0107 14.4366 44.9275 14.4358 44.8417 14.4349C44.5321 14.4307 44.2225 14.4249 43.9129 14.4181C43.7791 14.4154 43.6452 14.4134 43.5114 14.4121C43.3186 14.4101 43.126 14.4057 42.9333 14.4009C42.8175 14.3989 42.7016 14.397 42.5822 14.3949C42.222 14.3336 42.1203 14.2611 41.9065 13.9688C41.7864 13.7024 41.7864 13.7024 41.6853 13.3989C41.63 13.2358 41.63 13.2358 41.5736 13.0693C41.5365 12.9562 41.4994 12.8431 41.4612 12.7266C41.4226 12.612 41.3841 12.4974 41.3443 12.3794C41.2495 12.097 41.1556 11.8143 41.0627 11.5313C41.0318 11.5313 41.0008 11.5313 40.969 11.5313Z" fill="#FF7705"></path>
    <path d="M24.7483 0.656358C25.2505 0.870247 25.3833 1.14502 25.5859 1.61874C25.7754 2.10475 25.9292 2.6019 26.0843 3.09972C26.1184 3.2077 26.1524 3.31568 26.1876 3.42693C26.2708 3.69077 26.3535 3.95474 26.4358 4.21886C26.5351 4.21973 26.6344 4.22061 26.7367 4.22151C27.1068 4.22526 27.4769 4.23143 27.8469 4.23831C28.0067 4.24095 28.1666 4.24294 28.3265 4.24426C28.5569 4.24628 28.7872 4.25066 29.0176 4.25548C29.0886 4.25559 29.1595 4.25571 29.2325 4.25583C29.7131 4.26898 29.993 4.36992 30.3733 4.68761C30.6793 5.20084 30.688 5.53055 30.5608 6.09386C30.3385 6.60815 29.911 6.85795 29.4651 7.16612C29.3182 7.26945 29.1714 7.37284 29.0246 7.4763C28.953 7.52644 28.8814 7.57658 28.8077 7.62824C28.4809 7.86032 28.1611 8.10129 27.8421 8.34386C27.9707 8.83845 28.1062 9.32868 28.2673 9.81383C28.2927 9.89113 28.3181 9.96844 28.3443 10.0481C28.3953 10.2021 28.4472 10.3558 28.5 10.5092C28.6836 11.0664 28.817 11.6027 28.5745 12.1642C28.2287 12.5934 27.9528 12.7815 27.3975 12.864C26.7012 12.7977 26.1578 12.3131 25.6214 11.9064C25.5031 11.8179 25.5031 11.8179 25.3824 11.7276C24.7892 11.2835 24.7892 11.2835 24.5495 11.0874C24.4914 11.0483 24.4332 11.0092 24.3733 10.9689C23.958 11.06 23.6545 11.3339 23.3304 11.5958C21.704 12.871 21.704 12.871 20.9046 12.8439C20.5094 12.6994 20.2382 12.5089 19.9671 12.1876C19.6803 11.3272 20.0069 10.5748 20.3011 9.76183C20.382 9.53578 20.4623 9.30947 20.5417 9.08287C20.5775 8.98367 20.6134 8.88447 20.6503 8.78226C20.7435 8.52466 20.7435 8.52466 20.6233 8.25011C20.4672 8.10818 20.4672 8.10818 20.2714 7.97582C20.199 7.92427 20.1265 7.87273 20.0519 7.81963C19.9756 7.76639 19.8992 7.71316 19.8206 7.65831C19.5254 7.44968 19.2304 7.24084 18.9358 7.03136C18.829 6.9554 18.829 6.9554 18.72 6.87792C18.6532 6.82933 18.5865 6.78075 18.5176 6.7307C18.4583 6.68782 18.3989 6.64494 18.3377 6.60076C18.0745 6.37209 17.9905 6.1448 17.9046 5.81261C17.8819 5.28136 18.0299 4.91225 18.3733 4.50011C18.7228 4.25457 19.1121 4.27998 19.5233 4.27379C19.6348 4.27107 19.6348 4.27107 19.7486 4.26829C19.9855 4.2627 20.2224 4.25834 20.4593 4.25401C20.6202 4.25043 20.7811 4.24677 20.942 4.24303C21.3357 4.23404 21.7295 4.22616 22.1233 4.21886C22.1665 4.08123 22.1665 4.08123 22.2106 3.94081C22.3182 3.59924 22.4279 3.25837 22.5382 2.91766C22.5856 2.77035 22.6324 2.62286 22.6786 2.47519C22.7454 2.26245 22.8141 2.05045 22.8832 1.83849C22.9034 1.77275 22.9235 1.70701 22.9443 1.63929C23.0864 1.2124 23.2466 0.994746 23.6233 0.750108C23.9723 0.575624 24.3675 0.616515 24.7483 0.656358ZM24.1858 3.09386C24.1623 3.16622 24.1387 3.23859 24.1143 3.31315C24.0067 3.64089 23.8971 3.96795 23.7874 4.29503C23.7503 4.40893 23.7132 4.52283 23.675 4.64018C23.6381 4.74925 23.6013 4.85832 23.5633 4.97069C23.5132 5.12166 23.5132 5.12166 23.4621 5.27567C23.3274 5.56266 23.2485 5.66925 22.9671 5.81261C22.675 5.85314 22.675 5.85314 22.3358 5.86058C22.2143 5.86391 22.0928 5.86723 21.9677 5.87065C21.8399 5.87282 21.7121 5.87495 21.5843 5.87706C21.455 5.88017 21.3257 5.88341 21.1965 5.88677C20.8804 5.8945 20.5644 5.90098 20.2483 5.90636C20.4839 6.15167 20.7163 6.35852 20.9987 6.54759C21.0681 6.59503 21.1376 6.64246 21.2091 6.69133C21.3538 6.78916 21.4989 6.88658 21.6442 6.98357C22.3546 7.47103 22.3546 7.47103 22.4983 7.87511C22.4754 8.5033 22.2307 9.09661 22.0292 9.68675C22.004 9.76325 21.9787 9.83975 21.9527 9.91856C21.9292 9.98754 21.9058 10.0565 21.8816 10.1276C21.8218 10.331 21.8218 10.331 21.9358 10.5939C21.9855 10.5579 22.0351 10.522 22.0863 10.485C22.3115 10.322 22.5368 10.1591 22.762 9.9962C22.8402 9.93964 22.9183 9.88309 22.9988 9.82481C23.074 9.77043 23.1492 9.71605 23.2267 9.66002C23.296 9.60994 23.3652 9.55987 23.4365 9.50827C23.7844 9.2603 24.0044 9.13231 24.4431 9.14375C24.8697 9.23221 25.1865 9.52041 25.5218 9.78526C25.6686 9.89753 25.8156 10.0096 25.9627 10.1214C26.0267 10.1715 26.0906 10.2216 26.1565 10.2732C26.337 10.4027 26.5159 10.5006 26.7171 10.5939C26.6361 10.1813 26.543 9.7819 26.4095 9.38316C26.3772 9.28573 26.3772 9.28573 26.3442 9.18633C26.3006 9.05665 26.2558 8.92735 26.2098 8.79851C26.0636 8.36163 26.0299 8.03905 26.1546 7.59386C26.326 7.39537 26.326 7.39537 26.553 7.23058C26.6364 7.16882 26.7198 7.10707 26.8057 7.04344C27.6561 6.45081 27.6561 6.45081 27.925 6.27023C28.0551 6.18239 28.1832 6.09154 28.3108 6.00011C28.3108 5.96917 28.3108 5.93823 28.3108 5.90636C28.191 5.90578 28.191 5.90578 28.0687 5.90519C27.7708 5.90265 27.4729 5.89805 27.175 5.89205C27.0464 5.88989 26.9177 5.88853 26.789 5.88802C26.6035 5.88715 26.4181 5.88305 26.2326 5.87889C26.1212 5.87742 26.0097 5.87595 25.8949 5.87443C25.5018 5.79417 25.3692 5.65648 25.1233 5.34386C25.0013 5.0841 25.0013 5.0841 24.9135 4.80589C24.865 4.65589 24.865 4.65589 24.8155 4.50285C24.7837 4.39947 24.7519 4.29608 24.7191 4.18956C24.6854 4.08436 24.6517 3.97916 24.6171 3.87077C24.5345 3.61218 24.4534 3.35324 24.3733 3.09386C24.3115 3.09386 24.2496 3.09386 24.1858 3.09386Z" fill="#FF7705"></path>
    <path d="M6.96168 14.4961C7.04917 14.4915 7.13667 14.4869 7.22681 14.4822C7.59743 14.5486 7.82391 14.7198 8.06324 15C8.18152 15.2352 8.2694 15.439 8.35035 15.6855C8.37302 15.7502 8.3957 15.8148 8.41906 15.8813C8.49027 16.0869 8.55839 16.2932 8.62574 16.5C8.6489 16.5703 8.67206 16.6407 8.69592 16.7132C9.09449 17.9315 9.09449 17.9315 9.09449 18.1875C9.24343 18.1846 9.24343 18.1846 9.39538 18.1815C9.76542 18.1747 10.1355 18.1704 10.5055 18.1669C10.6654 18.165 10.8253 18.1625 10.9851 18.1592C11.2155 18.1546 11.4458 18.1525 11.6763 18.1509C11.7472 18.1489 11.8181 18.147 11.8912 18.145C12.376 18.1448 12.6474 18.2428 13.032 18.5625C13.306 18.9735 13.3657 19.2917 13.3132 19.7812C13.125 20.2553 12.8953 20.4891 12.4871 20.7891C12.4345 20.8281 12.3819 20.8672 12.3277 20.9075C12.1572 21.0335 11.9854 21.1575 11.8132 21.2812C11.7521 21.3255 11.6909 21.3697 11.6279 21.4152C11.2538 21.6853 10.878 21.9529 10.5007 22.2188C10.5263 22.2962 10.5519 22.3736 10.5782 22.4534C10.6736 22.7449 10.7678 23.0367 10.8612 23.3288C10.9017 23.4544 10.9426 23.5799 10.984 23.7052C11.5506 25.4216 11.5506 25.4216 11.198 26.1973C10.9153 26.4944 10.7082 26.6069 10.3132 26.7188C9.83124 26.7265 9.56793 26.6494 9.17323 26.3778C9.09963 26.3273 9.02603 26.2768 8.9502 26.2248C8.57222 25.9589 8.1967 25.6899 7.82301 25.418C7.74633 25.3624 7.66965 25.3068 7.59065 25.2495C7.40432 25.1144 7.21811 24.9791 7.03199 24.8438C6.67201 25.0164 6.35802 25.2366 6.0359 25.4707C5.97781 25.5123 5.91973 25.5538 5.85989 25.5967C5.596 25.7856 5.33456 25.9763 5.07642 26.1731C4.59393 26.5342 4.26913 26.7388 3.65699 26.7188C3.16858 26.5722 2.90378 26.3965 2.62574 25.9688C2.43413 25.3939 2.54684 24.8897 2.73707 24.3314C2.75788 24.2678 2.77869 24.2043 2.80013 24.1388C2.86609 23.9379 2.93339 23.7375 3.00074 23.5371C3.046 23.4001 3.09116 23.2631 3.13624 23.126C3.24631 22.792 3.35757 22.4584 3.46949 22.125C3.36232 22.0849 3.36232 22.0849 3.25299 22.044C2.93172 21.9084 2.67907 21.708 2.40894 21.4922C2.30107 21.4073 2.19316 21.3225 2.08521 21.2377C2.00736 21.1762 2.00736 21.1762 1.92793 21.1136C1.74011 20.9674 1.54739 20.8285 1.35426 20.6895C0.695363 20.1852 0.695363 20.1852 0.615242 19.7333C0.584971 19.2509 0.608645 18.9279 0.926522 18.5508C1.30997 18.1636 1.63644 18.1692 2.16358 18.1578C2.23823 18.1559 2.31287 18.1539 2.38978 18.1519C2.62858 18.1458 2.86739 18.1403 3.10621 18.1348C3.26795 18.1307 3.4297 18.1266 3.59144 18.1225C3.98828 18.1125 4.38513 18.103 4.78199 18.0938C4.82517 17.9611 4.82517 17.9611 4.86922 17.8258C4.977 17.496 5.08664 17.1668 5.19684 16.8378C5.24416 16.6956 5.29098 16.5533 5.33728 16.4109C5.40416 16.2054 5.47284 16.0005 5.54188 15.7958C5.56202 15.7326 5.58215 15.6694 5.6029 15.6043C5.84487 14.8996 6.22236 14.5224 6.96168 14.4961ZM6.93824 16.875C6.78242 17.2814 6.63437 17.6881 6.49915 18.1018C6.47214 18.1831 6.44513 18.2645 6.41731 18.3483C6.36163 18.5164 6.30696 18.6849 6.25324 18.8536C6.22611 18.9342 6.19898 19.0149 6.17103 19.0979C6.14729 19.1707 6.12355 19.2435 6.09909 19.3185C5.97048 19.5558 5.88132 19.6031 5.62574 19.6875C5.3422 19.7174 5.3422 19.7174 5.0149 19.7263C4.89768 19.7299 4.78045 19.7336 4.65968 19.7373C4.53762 19.7402 4.41556 19.7431 4.2898 19.7461C4.10454 19.7515 4.10454 19.7515 3.91554 19.7571C3.61062 19.7659 3.3057 19.7739 3.00074 19.7812C3.36632 20.168 3.7601 20.4825 4.19019 20.7949C4.25358 20.842 4.31696 20.8891 4.38227 20.9376C4.69072 21.1918 4.69072 21.1918 5.06324 21.2812C5.20376 22.0225 5.09623 22.5469 4.82887 23.2441C4.76466 23.4166 4.70114 23.5893 4.63844 23.7623C4.59556 23.8749 4.59556 23.8749 4.55183 23.9897C4.47762 24.203 4.47762 24.203 4.59449 24.4688C4.85237 24.2872 5.11016 24.1055 5.36793 23.9238C5.47724 23.8469 5.47724 23.8469 5.58875 23.7684C5.65945 23.7185 5.73015 23.6687 5.80299 23.6173C5.86779 23.5717 5.9326 23.526 5.99937 23.479C6.12861 23.3864 6.25481 23.2896 6.37808 23.1892C6.61626 23.0262 6.8234 23.0077 7.1088 23.0191C7.50853 23.104 7.80411 23.3558 8.12183 23.6016C8.25779 23.7027 8.39377 23.8038 8.52979 23.9048C8.59363 23.9531 8.65747 24.0013 8.72324 24.0511C8.96611 24.2314 9.21591 24.3977 9.46949 24.5625C9.32224 24.0059 9.16411 23.4569 8.98316 22.9102C8.92453 22.7115 8.86771 22.5123 8.81324 22.3125C8.79125 22.236 8.76925 22.1595 8.74659 22.0807C8.70627 21.8267 8.70856 21.7057 8.81324 21.4688C9.1842 21.1023 9.59907 20.8192 10.032 20.5312C10.2138 20.4046 10.3955 20.2777 10.5769 20.1504C10.6529 20.099 10.7289 20.0477 10.8073 19.9948C10.8608 19.9552 10.9143 19.9157 10.9695 19.875C10.9695 19.8441 10.9695 19.8131 10.9695 19.7812C10.8924 19.7799 10.8154 19.7785 10.736 19.7771C10.386 19.7701 10.0362 19.7611 9.68629 19.752C9.50438 19.7488 9.50438 19.7488 9.31879 19.7455C9.20187 19.7422 9.08495 19.7389 8.96449 19.7355C8.85697 19.733 8.74945 19.7306 8.63867 19.728C8.30547 19.6821 8.13473 19.6208 7.87574 19.4062C7.74507 19.142 7.74507 19.142 7.64539 18.8251C7.60884 18.7118 7.57228 18.5985 7.53462 18.4818C7.4979 18.3622 7.46121 18.2426 7.42457 18.123C7.38621 18.0023 7.3477 17.8817 7.30903 17.761C7.21515 17.4661 7.12288 17.1708 7.03199 16.875C7.00105 16.875 6.97012 16.875 6.93824 16.875Z" fill="#FF7705"></path>
  </g>
  <defs>
    <clipPath id="clip0_4462_147">
      <rect width="48" height="48" fill="white"></rect>
    </clipPath>
  </defs>
</svg>
