<?xml version="1.0" encoding="UTF-8"?>
<svg xmlns="http://www.w3.org/2000/svg" width="48" height="48" viewBox="0 0 48 48" fill="none">
  <g clip-path="url(#clip0_3684_529)">
    <path d="M8.11594 -0.0251079C8.23363 -0.0255327 8.35132 -0.0259575 8.47258 -0.0263952C8.79776 -0.0275376 9.12292 -0.0275178 9.4481 -0.0272962C9.79941 -0.0272578 10.1507 -0.0282939 10.502 -0.029182C11.1898 -0.0307371 11.8775 -0.0312547 12.5652 -0.0313593C13.1246 -0.0314485 13.6839 -0.0318344 14.2432 -0.0324282C15.8305 -0.0340788 17.4177 -0.0349444 19.005 -0.0348037C19.0905 -0.0347962 19.176 -0.0347888 19.2641 -0.034781C19.3497 -0.0347734 19.4353 -0.0347657 19.5235 -0.0347578C20.9103 -0.0346816 22.2971 -0.0364752 23.6839 -0.0391195C25.1094 -0.0418159 26.5348 -0.0431075 27.9602 -0.0429456C28.7599 -0.0428835 29.5596 -0.0433939 30.3593 -0.0454165C31.0402 -0.0471279 31.7212 -0.0475282 32.4022 -0.0462585C32.7493 -0.0456484 33.0963 -0.045628 33.4433 -0.0472622C33.8206 -0.0490203 34.1978 -0.047836 34.575 -0.0463939C34.7374 -0.0478406 34.7375 -0.0478406 34.9032 -0.0493164C36.3395 -0.0372386 37.665 0.497129 38.7131 1.48165C39.5168 2.33704 40.219 3.48618 40.219 4.68746C40.2861 4.68879 40.3531 4.69012 40.4222 4.69149C41.9175 4.76307 43.2012 5.42935 44.2261 6.5024C45.3991 7.87438 45.5976 12.4912 45.5923 14.2317C45.592 14.4399 45.5943 14.6479 45.5966 14.856C45.5968 14.99 45.5969 45.1239 45.5968 15.2578C45.5972 15.4369 45.5972 41.4369 45.5976 41.6196C45.5603 41.9595 45.4842 42.1344 45.2815 42.4062C45.0391 42.5901 44.9264 42.5949 44.6194 42.5761C44.3223 42.494 44.2364 42.4666 44.0627 42.2187C44.035 41.9785 44.0236 41.7599 44.0247 41.5196C44.0236 41.4503 44.0226 41.381 44.0216 41.3096C44.0184 41.0872 44.0169 14.8649 44.0159 14.6425C44.0082 13.0443 43.9532 8.59081 42.8323 7.3359C41.8908 6.45289 40.7141 6.25252 39.4786 6.25677C39.3122 6.25624 39.3122 6.25624 39.1424 6.25569C38.8361 6.25489 38.5298 6.25493 38.2235 6.25533C37.8926 6.25556 37.5616 6.25471 37.2306 6.25401C36.5828 6.25282 35.935 6.25265 35.2871 6.25287C34.7603 6.25304 34.2336 6.25287 33.7068 6.25247C33.6317 6.25242 33.5567 6.25236 33.4793 6.2523C33.3269 6.25219 33.1744 6.25208 33.0219 6.25196C31.5926 6.25094 30.1633 6.25114 28.734 6.25172C27.4277 6.2522 26.1214 6.25115 24.8151 6.24936C23.4725 6.24755 22.1299 6.24677 20.7873 6.24712C20.0341 6.2473 19.2809 6.24707 18.5276 6.24575C17.8863 6.24463 17.245 6.2445 16.6037 6.24563C16.2768 6.24618 15.9499 6.24629 15.623 6.24516C15.2678 6.24418 14.9127 6.24494 14.5576 6.24613C14.4553 6.24544 14.3531 6.24475 14.2477 6.24403C13.0784 6.25224 11.9203 6.57122 11.0627 7.40621C10.1586 8.46899 9.9745 9.61478 9.98387 10.975C9.98344 11.1136 9.98284 11.2522 9.9821 11.3909C9.98054 11.7684 9.9813 12.146 9.98247 12.5235C9.98332 12.932 9.982 13.3405 9.98097 13.749C9.97931 14.5479 9.97966 15.3468 9.98075 16.1457C9.9816 16.7953 9.98171 17.4449 9.98131 18.0945C9.98125 18.1871 9.98119 18.2798 9.98113 18.3752C9.98101 18.5634 9.98089 18.7516 9.98077 18.9398C9.9797 20.7026 9.98093 22.4653 9.98294 24.228C9.98462 25.7388 9.98433 27.2497 9.9826 28.7605C9.98059 30.5172 9.9798 32.2738 9.98095 34.0304C9.98107 34.2179 9.98119 34.4054 9.98131 34.5929C9.98137 34.6852 9.98142 34.7774 9.98148 34.8724C9.98181 35.5209 9.98126 36.1693 9.98038 36.8177C9.97932 37.6085 9.97962 38.3992 9.98161 39.19C9.98259 39.5931 9.98299 39.9961 9.98174 40.3992C9.98061 40.7688 9.98125 41.1384 9.98323 41.5081C9.98365 41.6411 9.98344 41.7742 9.98253 41.9072C9.9742 43.218 10.2218 44.3919 11.1389 45.3684C12.208 46.3728 13.41 46.5097 14.8215 46.5223C14.9154 46.5231 15.0092 46.524 15.1059 46.5248C15.4989 46.5276 15.8919 46.5295 16.285 46.5286C16.5746 46.5284 36.864 46.531 37.1536 46.534C37.2424 46.5331 37.3313 46.5321 37.4229 46.5311C38.0332 46.5402 38.0332 46.5402 38.3406 46.8106C38.5159 47.1545 38.4772 47.3516 38.3752 47.7187C38.2173 47.9353 38.1362 47.9931 37.8691 48.0363C37.7801 48.0368 37.6911 48.0373 37.5995 48.0378C37.4983 48.039 37.3972 48.0402 37.2929 48.0414C37.1834 48.0412 17.0738 48.0409 16.9609 48.0406C16.8477 48.0411 16.7345 48.0416 16.6178 48.0421C16.3774 48.0427 16.137 48.0426 15.8967 48.0418C15.5323 48.041 15.168 48.0437 14.8036 48.0467C14.5696 48.0468 14.3356 48.0468 14.1016 48.0465C13.9939 48.0475 13.8862 48.0486 13.7753 48.0497C12.3053 48.0372 11.0004 47.5022 9.94946 46.4707C9.30915 45.7971 8.93912 45.114 8.62524 44.25C8.57198 44.2467 8.51872 44.2435 8.46385 44.2402C6.67936 44.1238 5.11449 43.7705 3.83557 42.4076C2.6463 40.9459 2.42331 39.4508 2.42457 37.6308C2.42433 37.4912 2.42405 37.3516 2.42373 37.2119C2.42298 36.8294 2.4228 36.4469 2.42274 36.0644C2.42256 35.6513 2.42185 35.2383 2.42122 34.8252C2.41995 33.9226 2.41938 33.0199 2.41897 32.1173C2.41871 31.5532 2.41831 30.9892 2.41789 30.4251C2.41675 28.8623 2.41578 27.2994 2.41547 25.7365C2.41545 25.6366 2.41543 25.5366 2.4154 25.4336C2.41538 25.3334 2.41536 25.2332 2.41534 25.13C2.4153 24.927 2.41526 24.724 2.41522 24.521C2.41519 24.3699 2.41519 24.3699 2.41515 24.2158C2.41478 22.5848 2.41315 20.9538 2.41096 19.3228C2.40874 17.6468 2.40757 15.9707 2.40746 14.2946C2.40738 13.3542 2.40684 12.4137 2.40514 11.4733C2.40369 10.6724 2.40322 9.87147 2.40399 9.07055C2.40435 8.66234 2.40427 8.25414 2.40295 7.84593C2.40175 7.47134 2.40188 7.09678 2.40301 6.72219C2.40319 6.58755 2.40291 6.45292 2.40208 6.31829C2.39182 4.52571 2.72539 2.92853 4.01574 1.6036C4.08281 1.53846 4.14989 1.47333 4.21899 1.40621C4.26962 1.35364 4.32026 1.30107 4.37243 1.24691C5.4011 0.2597 6.74386 -0.0287518 8.11594 -0.0251079ZM4.89355 2.83407C3.98227 3.9837 3.9091 5.23028 3.91393 6.64539C3.91371 6.78444 3.91342 6.92348 3.91304 7.06253C3.91226 7.44213 3.91265 7.82172 3.91323 8.20131C3.91365 8.61166 3.913 9.022 3.91248 9.43234C3.91165 10.2352 3.91183 11.038 3.91237 11.8409C3.9128 12.4935 3.91285 13.1462 3.91265 13.7988C3.91262 13.8918 3.91259 13.9848 3.91256 14.0806C3.9125 14.2696 3.91244 14.4585 3.91238 14.6474C3.91185 16.4177 3.91246 18.188 3.91347 19.9583C3.9143 21.4764 3.91416 22.9945 3.91329 24.5126C3.91229 26.2769 3.9119 28.0411 3.91247 29.8053C3.91253 29.9935 3.91259 30.1817 3.91265 30.3699C3.91268 30.4625 3.91271 30.5551 3.91274 30.6505C3.9129 31.3022 3.91263 31.9539 3.91218 32.6056C3.91166 33.4 3.9118 34.1944 3.9128 34.9888C3.91329 35.3939 3.91349 35.7991 3.91286 36.2042C3.9123 36.5754 3.91262 36.9465 3.91361 37.3177C3.91382 37.4517 3.91372 37.5856 3.91326 37.7195C3.90887 39.1136 4.09673 40.4675 5.09204 41.5312C5.90174 42.2469 6.81982 42.6762 7.90527 42.6628C8.00535 42.6619 8.10543 42.6609 8.20854 42.6599C8.28417 42.6587 8.35981 42.6575 8.43774 42.6562C8.43782 42.5517 8.43782 42.5517 8.43791 42.4451C8.44128 38.3131 8.44659 34.1811 8.45442 30.0491C8.45536 29.5526 8.45628 29.056 8.45719 28.5594C8.45738 28.4605 8.45756 28.3617 8.45775 28.2598C8.46065 26.661 8.46224 25.0621 8.46335 23.4633C8.46452 21.8216 8.4671 20.18 8.47098 18.5384C8.47334 17.5261 8.47459 16.5139 8.47443 15.5016C8.47443 14.8066 8.47581 14.1117 8.47825 13.4167C8.47962 13.0163 8.4804 12.6159 8.47953 12.2154C8.47875 11.8478 8.47973 11.4802 8.48202 11.1126C8.48255 10.9806 8.48247 10.8485 8.48166 10.7165C8.47375 9.29355 8.73917 8.02805 9.56274 6.84371C9.60383 6.78256 9.64492 6.72141 9.68725 6.65841C10.4424 5.66214 11.736 5.04157 12.9387 4.82389C13.4097 4.75999 13.8817 4.76683 14.3562 4.76638C14.4605 4.76592 14.5648 4.76545 14.6723 4.76498C15.0213 4.76354 15.3704 4.76275 15.7195 4.76196C15.9699 4.76107 16.2203 4.76013 16.4707 4.75915C17.0095 4.75712 17.5484 4.75541 18.0873 4.75394C18.8664 4.75181 19.6455 4.74917 20.4246 4.74641C21.6887 4.74194 22.9528 4.73789 24.217 4.73409C25.4447 4.73039 26.6725 4.72651 27.9003 4.72237C27.976 4.72211 28.0517 4.72186 28.1298 4.72159C28.5096 4.72031 28.8895 4.71902 29.2693 4.71774C32.4192 4.70706 35.5691 4.69704 38.719 4.68746C38.6753 4.53719 38.6312 4.38701 38.587 4.23689C38.5625 4.15325 38.538 4.06961 38.5127 3.98344C38.2022 3.01667 37.4903 2.34987 36.636 1.84603C35.7358 1.40085 34.7116 1.37831 33.7267 1.3824C33.5617 1.38197 33.5617 1.38197 33.3934 1.38152C33.0915 1.3809 32.7897 1.38112 32.4878 1.3817C32.1609 1.38213 31.834 1.38147 31.5071 1.38096C30.8681 1.38013 30.229 1.3803 29.5899 1.38085C29.0702 1.38127 28.5504 1.38133 28.0307 1.38112C27.9565 1.38109 27.8823 1.38107 27.8059 1.38104C27.6552 1.38098 27.5045 1.38092 27.3538 1.38085C25.9428 1.38032 24.5318 1.38093 23.1208 1.38194C21.9121 1.38278 20.7034 1.38263 19.4947 1.38177C18.0887 1.38076 16.6826 1.38037 15.2766 1.38095C15.1264 1.38101 14.9762 1.38106 14.8261 1.38112C14.7522 1.38115 14.6783 1.38118 14.6022 1.38121C14.0836 1.38137 13.565 1.3811 13.0464 1.38066C12.4136 1.38013 11.7809 1.38028 11.1481 1.38127C10.8257 1.38176 10.5034 1.38196 10.181 1.38134C9.83048 1.38082 9.47997 1.38147 9.12944 1.3824C9.02907 1.38199 8.9287 1.38157 8.82528 1.38114C7.2692 1.38911 5.98748 1.66099 4.89355 2.83407Z" fill="#FF7705"></path>
    <path d="M16.8543 28.9507C16.9175 28.9499 16.9807 28.9492 17.0457 28.9484C17.2544 28.946 17.463 28.9445 17.6717 28.9431C17.7434 28.9426 17.8151 28.9421 17.8889 28.9416C18.2689 28.9391 18.6489 28.9373 19.0289 28.9359C19.3415 28.9347 19.6541 28.9321 19.9667 28.9283C20.3458 28.9236 20.7249 28.9213 21.1041 28.9206C21.2476 28.92 21.3911 28.9186 21.5346 28.9163C22.7448 28.8983 23.7531 29.1043 24.6583 29.97C25.2463 30.6603 25.5086 31.3445 25.5179 32.2381C25.5191 32.3342 25.5191 32.3342 25.5202 32.4323C25.5226 32.644 25.5241 32.8557 25.5255 33.0674C25.526 33.1401 25.5265 33.2128 25.527 33.2878C25.5295 33.6732 25.5313 34.0587 25.5327 34.4442C25.5339 34.7613 25.5365 35.0784 25.5403 35.3956C25.545 35.7802 25.5473 36.1648 25.548 36.5494C25.5486 36.695 25.55 36.8406 25.5523 36.9862C25.5695 38.1603 25.3978 39.1812 24.5506 40.0613C23.5845 40.9267 22.5081 41.0123 21.2547 41.0061C21.1175 41.0063 20.9802 41.0066 20.843 41.0069C20.5568 41.0073 20.2706 41.0068 19.9845 41.0054C19.6201 41.0038 19.2558 41.0048 18.8914 41.0064C18.6085 41.0075 18.3255 41.0071 18.0425 41.0064C17.9083 41.0062 17.7741 41.0064 17.6398 41.0071C16.3739 41.012 15.3839 40.8361 14.4395 39.9514C13.7604 39.2261 13.4907 38.4407 13.4847 37.4562C13.4838 37.3354 13.4829 37.2146 13.482 37.0901C13.4815 36.9588 13.4811 36.8275 13.4808 36.6962C13.4805 36.6295 13.4803 36.5629 13.48 36.4942C13.4786 36.1411 13.4777 35.7881 13.4773 35.4351C13.4768 35.0727 13.4745 34.7103 13.4719 34.348C13.4701 34.0673 13.4696 33.7867 13.4695 33.5061C13.4692 33.3726 13.4685 33.2392 13.4672 33.1057C13.456 31.809 13.6589 30.8132 14.5487 29.8418C15.2026 29.2151 15.9674 28.9601 16.8543 28.9507ZM15.4334 31.1602C15.3685 31.2367 15.3685 31.2367 15.3023 31.3147C15.0404 31.7368 14.9761 32.1572 14.9726 32.6466C14.9714 32.7602 14.9702 32.8738 14.969 32.9908C14.9688 33.1124 14.9686 33.234 14.9683 33.3593C14.9677 33.4868 14.9671 33.6143 14.9664 33.7417C14.9653 34.0085 14.965 34.2752 14.9651 34.542C14.9651 34.8818 14.9625 35.2215 14.9593 35.5613C14.9572 35.8246 14.9569 36.0878 14.957 36.3511C14.9566 36.5366 14.9546 36.7221 14.9525 36.9076C14.9563 37.6576 15.0066 38.3249 15.5389 38.8943C16.0107 39.3319 16.4433 39.4912 17.0889 39.4975C17.2645 39.4997 17.2645 39.4997 17.4437 39.502C17.5708 39.5026 17.698 39.5031 17.8251 39.5036C17.9568 39.5044 18.0884 39.5053 18.22 39.5061C18.4957 39.5077 18.7714 39.5084 19.0472 39.5087C19.3982 39.5092 19.7492 39.5127 20.1002 39.517C20.3722 39.5198 20.6441 39.5204 20.916 39.5205C21.0453 39.5209 21.1746 39.5221 21.3039 39.5241C22.1083 39.5354 22.7703 39.4845 23.4373 39C23.8797 38.5331 24.011 38.1059 24.0164 37.4745C24.0176 37.3531 24.0188 37.2316 24.0201 37.1065C24.0208 36.9736 24.0215 36.8408 24.0222 36.7079C24.0227 36.6073 24.0227 36.6073 24.0233 36.5047C24.0253 36.1494 24.0266 35.7942 24.0275 35.4389C24.0285 35.0733 24.0318 34.7078 24.0355 34.3423C24.0379 34.0601 24.0387 33.7778 24.0391 33.4956C24.0395 33.3609 24.0406 33.2263 24.0423 33.0916C24.0515 32.3359 24.0475 31.7658 23.6248 31.125C23.4445 30.9302 23.4445 30.9302 23.244 30.8028C23.181 30.7584 23.118 30.714 23.0532 30.6684C22.7047 30.4616 22.4108 30.4556 22.0142 30.4522C21.8946 30.451 21.775 30.4498 21.6519 30.4485C21.5211 30.4478 21.3903 30.4471 21.2595 30.4464C21.1934 30.446 21.1274 30.4457 21.0594 30.4453C20.7096 30.4433 20.3598 30.442 20.01 30.4411C19.6501 30.4401 19.2903 30.4368 18.9304 30.4331C18.6525 30.4306 18.3747 30.4299 18.0968 30.4295C17.9642 30.4291 17.8316 30.428 17.6991 30.4263C16.8223 30.4154 16.0306 30.4249 15.4334 31.1602Z" fill="#FF7705"></path>
    <path d="M16.8573 14.5147C16.9525 14.5138 16.9525 14.5138 17.0496 14.5128C17.2592 14.511 17.4687 14.5099 17.6783 14.5089C17.7862 14.5084 17.7862 14.5084 17.8962 14.5078C18.2772 14.5058 18.6582 14.5045 19.0392 14.5036C19.4307 14.5026 19.8222 14.4994 20.2137 14.4956C20.5164 14.4932 20.8191 14.4924 21.1219 14.4921C21.2661 14.4916 21.4103 14.4905 21.5545 14.4888C22.7361 14.4753 23.6744 14.6421 24.5623 15.4688C25.445 16.4168 25.558 17.4376 25.5529 18.6848C25.5534 18.8321 25.554 18.9794 25.5547 19.1267C25.5557 19.4342 25.5552 19.7416 25.5539 20.0491C25.5523 20.4402 25.5545 20.8311 25.5578 21.2222C25.5598 21.5261 25.5597 21.8299 25.5589 22.1338C25.5588 22.2779 25.5595 22.4219 25.5609 22.5659C25.57 23.6775 25.4227 24.7143 24.6162 25.5513C24.5675 25.5963 24.5188 25.6412 24.4686 25.6875C24.3999 25.7521 24.3999 25.7521 24.3298 25.8179C23.4401 26.5472 22.2502 26.5876 21.154 26.5778C21.0193 26.5778 20.8845 26.5779 20.7498 26.5782C20.4697 26.5783 20.1896 26.5772 19.9095 26.575C19.5531 26.5724 19.1967 26.5726 18.8402 26.5738C18.5628 26.5745 18.2854 26.5737 18.0079 26.5726C17.8766 26.5721 17.7452 26.5721 17.6138 26.5725C16.3544 26.5744 15.3841 26.3852 14.4395 25.5172C13.7511 24.7922 13.4908 23.9183 13.4847 22.9336C13.4838 22.8146 13.4829 22.6957 13.482 22.5731C13.4815 22.4439 13.4811 22.3147 13.4808 22.1855C13.4805 22.1198 13.4803 22.0542 13.48 21.9866C13.4786 21.639 13.4777 21.2915 13.4773 20.9439C13.4768 20.5872 13.4745 20.2305 13.4719 19.8738C13.4701 19.5975 13.4696 19.3213 13.4695 19.045C13.4692 18.9136 13.4685 18.7822 13.4672 18.6509C13.4559 17.3616 13.6643 16.3698 14.5487 15.4043C15.2038 14.7765 15.9688 14.5218 16.8573 14.5147ZM15.4393 16.7227C15.3952 16.7737 15.3511 16.8247 15.3056 16.8772C15.038 17.2965 14.9761 17.7197 14.9726 18.2091C14.9714 18.3227 14.9702 18.4363 14.969 18.5533C14.9688 18.6749 14.9685 18.7965 14.9683 18.9218C14.9677 19.0493 14.9671 19.1768 14.9664 19.3043C14.9653 19.571 14.965 19.8377 14.9651 20.1045C14.9651 20.4443 14.9625 20.784 14.9593 21.1238C14.9572 21.3871 14.9568 21.6503 14.9569 21.9136C14.9566 22.0991 14.9546 22.2846 14.9525 22.4702C14.9563 23.2211 15.0089 23.8832 15.5362 24.4568C16.0205 24.9152 16.5246 25.0538 17.1877 25.0585C17.3614 25.0603 17.3614 25.0603 17.5386 25.0621C17.6638 25.0624 17.7889 25.0626 17.9141 25.0628C18.044 25.0634 18.1738 25.064 18.3036 25.0647C18.5751 25.0658 18.8467 25.0661 19.1182 25.066C19.4646 25.066 19.8108 25.0686 20.1571 25.0718C20.4251 25.0739 20.6931 25.0743 20.9611 25.0742C21.1503 25.0745 21.3396 25.0765 21.5288 25.0786C22.3592 25.0745 22.8669 24.9797 23.5135 24.4336C23.8958 23.9749 24.0348 23.5917 24.0392 22.9965C24.0407 22.8732 24.0422 22.7499 24.0437 22.6229C24.0438 22.4894 24.0439 22.3559 24.0438 22.2224C24.0444 22.0842 24.0452 21.946 24.0459 21.8078C24.0472 21.5186 24.0473 21.2294 24.0468 20.9402C24.0462 20.5711 24.0491 20.2022 24.0529 19.8332C24.0553 19.5478 24.0556 19.2624 24.0553 18.9771C24.0554 18.8411 24.0563 18.7051 24.058 18.5691C24.0663 17.8129 24.0648 17.1801 23.5311 16.5938C23.0558 16.1423 22.6317 16.0084 21.9828 16.004C21.8611 16.0028 21.7393 16.0017 21.6139 16.0004C21.4817 16.0001 21.3495 15.9999 21.2174 15.9998C21.0809 15.9992 20.9444 15.9986 20.8079 15.9979C20.5222 15.9968 20.2364 15.9964 19.9507 15.9965C19.5857 15.9966 19.2209 15.994 18.8559 15.9908C18.5741 15.9887 18.2923 15.9883 18.0105 15.9884C17.876 15.9882 17.7415 15.9874 17.607 15.9859C16.7093 15.9771 16.0469 15.9936 15.4393 16.7227Z" fill="#FF7705"></path>
    <path d="M28.9578 17.9862C29.0545 17.9855 29.1513 17.9848 29.251 17.9841C29.3575 17.9839 29.4641 17.9836 29.5739 17.9834C29.7417 17.9825 29.7417 17.9825 29.9129 17.9815C30.2203 17.98 30.5278 17.9789 30.8352 17.9781C31.0272 17.9776 31.2192 17.9771 31.4112 17.9765C32.0117 17.9747 32.6123 17.9734 33.2129 17.9726C33.9065 17.9717 34.6 17.9692 35.2936 17.9654C35.8295 17.9626 36.3654 17.9612 36.9013 17.9609C37.2215 17.9607 37.5416 17.9598 37.8618 17.9575C38.2189 17.9552 38.576 17.9553 38.9331 17.9559C39.0393 17.9547 39.1455 17.9535 39.2549 17.9523C39.3522 17.9529 39.4494 17.9536 39.5496 17.9542C39.6341 17.954 39.7185 17.9538 39.8055 17.9536C40.1033 18.0148 40.215 18.1444 40.4062 18.375C40.518 18.6225 40.5064 18.726 40.4355 18.9902C40.2957 19.25 40.1875 19.3464 39.9375 19.5C39.7155 19.5356 39.7155 19.5356 39.4649 19.5363C39.3696 19.5372 39.2743 19.5382 39.1762 19.5391C39.0722 19.5387 38.9682 19.5383 38.861 19.5378C38.7511 19.5385 38.6412 19.5391 38.5279 19.5398C38.2267 19.5412 37.9255 19.5414 37.6243 19.5408C37.3727 19.5405 37.1211 19.5411 36.8694 19.5417C36.2758 19.543 35.6821 19.5429 35.0884 19.5418C34.4763 19.5407 33.8642 19.542 33.2521 19.5445C32.7262 19.5466 32.2003 19.5472 31.6744 19.5467C31.3605 19.5464 31.0466 19.5466 30.7327 19.5482C30.3825 19.5496 30.0325 19.5486 29.6823 19.547C29.5266 19.5484 29.5266 19.5484 29.3678 19.5498C28.6674 19.543 28.6674 19.543 28.2972 19.3267C28.0738 19.0649 28.0312 18.9059 28.0312 18.5625C28.2616 18.0688 28.4322 17.9887 28.9578 17.9862Z" fill="#FF7705"></path>
    <path d="M28.9578 32.4237C29.0545 32.423 29.1513 32.4223 29.251 32.4216C29.3575 32.4214 29.4641 32.4211 29.5739 32.4209C29.7417 32.42 29.7417 32.42 29.9129 32.419C30.2203 32.4175 30.5278 32.4164 30.8352 32.4156C31.0272 32.4151 31.2192 32.4146 31.4112 32.414C32.0117 32.4122 32.6123 32.4109 33.2129 32.4101C33.9065 32.4092 34.6 32.4067 35.2936 32.4029C35.8295 32.4001 36.3654 32.3987 36.9013 32.3984C37.2215 32.3982 37.5416 32.3973 37.8618 32.395C38.2189 32.3927 38.576 32.3928 38.9331 32.3934C39.0393 32.3922 39.1455 32.391 39.2549 32.3898C39.3522 32.3904 39.4494 32.3911 39.5496 32.3917C39.6341 32.3915 39.7185 32.3913 39.8055 32.3911C40.1033 32.4523 40.215 32.5819 40.4062 32.8125C40.518 33.06 40.5064 33.1635 40.4355 33.4277C40.2957 33.6875 40.1875 33.7839 39.9375 33.9375C39.7155 33.9731 39.7155 33.9731 39.4649 33.9738C39.3696 33.9747 39.2743 33.9757 39.1762 33.9766C39.0722 33.9762 38.9682 33.9758 38.861 33.9753C38.7511 33.976 38.6412 33.9766 38.5279 33.9773C38.2267 33.9787 37.9255 33.9789 37.6243 33.9783C37.3727 33.978 37.1211 33.9786 36.8694 33.9792C36.2758 33.9805 35.6821 33.9804 35.0884 33.9793C34.4763 33.9782 33.8642 33.9795 33.2521 33.982C32.7262 33.9841 32.2003 33.9847 31.6744 33.9842C31.3605 33.9839 31.0466 33.9841 30.7327 33.9857C30.3825 33.9871 30.0325 33.9861 29.6823 33.9845C29.5266 33.9859 29.5266 33.9859 29.3678 33.9873C28.666 33.9805 28.666 33.9805 28.2972 33.7609C28.0911 33.5234 28.0312 33.4088 28.0312 33.0937C28.2535 32.5435 28.3791 32.4264 28.9578 32.4237Z" fill="#FF7705"></path>
    <path d="M23.6013 9.98123C23.6829 9.98042 23.7645 9.97961 23.8486 9.97878C24.1178 9.97665 24.3868 9.97729 24.656 9.97814C24.8434 9.97765 25.0308 9.97706 25.2181 9.97638C25.6106 9.9754 26.003 9.97583 26.3955 9.9772C26.8984 9.97881 27.4011 9.97661 27.904 9.97331C28.2908 9.97125 28.6776 9.97138 29.0645 9.97216C29.2499 9.97224 29.4353 9.97159 29.6207 9.97021C29.8799 9.96858 30.139 9.96994 30.3982 9.97207C30.4747 9.97098 30.5511 9.96988 30.6299 9.96875C31.0273 9.97539 31.1764 9.99829 31.5005 10.2517C31.6873 10.5 31.6873 10.5 31.7458 10.7812C31.6654 11.1675 31.5282 11.289 31.2185 11.5312C30.9446 11.5983 30.6791 11.5944 30.3982 11.5904C30.3166 11.5911 30.235 11.5917 30.1509 11.5924C29.8817 11.594 29.6127 11.5922 29.3435 11.5902C29.1561 11.5903 28.9688 11.5905 28.7814 11.5909C28.3889 11.5912 27.9965 11.5898 27.604 11.5872C27.1012 11.584 26.5984 11.5846 26.0956 11.5863C25.7087 11.5873 25.3219 11.5865 24.935 11.5851C24.7496 11.5846 24.5642 11.5846 24.3788 11.5852C24.1196 11.5857 23.8605 11.5838 23.6013 11.5812C23.4866 11.5822 23.4866 11.5822 23.3696 11.5831C22.9985 11.5769 22.8206 11.5564 22.4993 11.3523C22.2986 11.1419 22.2481 11.0669 22.2537 10.7812C22.2525 10.7194 22.2512 10.6575 22.25 10.5937C22.4576 9.96842 23.051 9.97682 23.6013 9.98123Z" fill="#FF7705"></path>
    <path d="M22.2188 18.2813C22.4755 18.4304 22.4953 18.547 22.582 18.832C22.5986 19.2452 22.4421 19.4496 22.1685 19.754C21.9865 19.943 21.8014 20.1284 21.6149 20.313C21.547 20.3808 21.4792 20.4486 21.4093 20.5184C21.2664 20.6611 21.1232 20.8035 20.9798 20.9458C20.7597 21.1641 20.5404 21.3832 20.3212 21.6024C20.1822 21.741 20.0431 21.8796 19.9039 22.0181C19.8381 22.0838 19.7723 22.1495 19.7045 22.2172C19.6435 22.2776 19.5824 22.3381 19.5196 22.4003C19.4659 22.4537 19.4122 22.507 19.3569 22.5619C19.1676 22.7341 19.038 22.78 18.7852 22.8281C18.2968 22.7558 18.0612 22.4652 17.7188 22.125C17.6205 22.0292 17.5222 21.9333 17.424 21.8375C16.5146 20.9435 16.5146 20.9435 16.4707 20.5488C16.5078 20.1706 16.5891 20.0305 16.875 19.7813C17.1797 19.711 17.1797 19.711 17.5312 19.7813C17.8098 19.9729 18.0442 20.1974 18.2812 20.4375C18.3973 20.5506 18.3973 20.5506 18.5156 20.666C18.562 20.7144 18.6084 20.7627 18.6562 20.8125C19.03 20.6627 19.2778 20.4009 19.5535 20.1178C19.6269 20.0436 19.6269 20.0436 19.7018 19.968C19.8577 19.8105 20.0129 19.6524 20.168 19.4942C20.3238 19.3357 20.4798 19.1774 20.6361 19.0194C20.7332 18.9211 20.83 18.8226 20.9266 18.7239C21.3421 18.3025 21.6252 18.2156 22.2188 18.2813Z" fill="#FF7705"></path>
    <path d="M22.125 32.7188C22.3477 32.8242 22.3477 32.8242 22.5 33C22.5995 33.305 22.6341 33.4758 22.4971 33.7703C22.2391 34.1351 21.9319 34.4368 21.6149 34.7505C21.547 34.8183 21.4792 34.8861 21.4093 34.9559C21.2664 35.0986 21.1232 35.241 20.9798 35.3833C20.7597 35.6016 20.5404 35.8207 20.3212 36.0399C20.1822 36.1785 20.0431 36.3171 19.9039 36.4556C19.8381 36.5213 19.7723 36.587 19.7045 36.6547C19.6435 36.7152 19.5824 36.7756 19.5196 36.8378C19.4659 36.8912 19.4122 36.9445 19.3569 36.9995C19.1676 37.1716 19.038 37.2175 18.7852 37.2656C18.2968 37.1933 18.0612 36.9027 17.7188 36.5625C17.6205 36.4667 17.5222 36.3709 17.424 36.275C16.5179 35.3843 16.5179 35.3843 16.4648 34.9864C16.5 34.6875 16.5 34.6875 16.6992 34.418C16.9688 34.2188 16.9688 34.2188 17.2324 34.1485C17.6895 34.256 17.9544 34.5502 18.2812 34.875C18.3973 34.9881 18.3973 34.9881 18.5156 35.1035C18.562 35.1519 18.6084 35.2002 18.6562 35.25C19.03 35.1003 19.2778 34.8384 19.5535 34.5553C19.6269 34.4811 19.6269 34.4811 19.7018 34.4055C19.8577 34.248 20.0129 34.0899 20.168 33.9317C20.3238 33.7732 20.4798 33.6149 20.6361 33.4569C20.7332 33.3586 20.83 33.2601 20.9266 33.1614C21.3354 32.7469 21.5351 32.6781 22.125 32.7188Z" fill="#FF7705"></path>
    <path d="M29.0476 35.9819C29.2199 35.9797 29.2199 35.9797 29.3957 35.9774C29.5216 35.9763 29.6476 35.9753 29.7735 35.9744C29.8369 35.9739 29.9003 35.9734 29.9656 35.9729C30.301 35.9704 30.6365 35.9685 30.972 35.9672C31.2495 35.9659 31.5269 35.9633 31.8043 35.9595C32.1395 35.9549 32.4746 35.9525 32.8097 35.9519C32.9373 35.9513 33.0649 35.9498 33.1924 35.9476C34.3165 35.9289 34.3165 35.9289 34.6254 36.2199C34.8194 36.5292 34.8561 36.6729 34.7815 37.0313C34.6269 37.2748 34.5597 37.3666 34.3127 37.5C33.8851 37.5689 33.4613 37.5589 33.0292 37.5524C32.9025 37.552 32.7759 37.5518 32.6492 37.5517C32.3843 37.5511 32.1195 37.549 31.8547 37.5457C31.5155 37.5414 31.1765 37.54 30.8374 37.5397C30.5761 37.5393 30.3148 37.5378 30.0535 37.536C29.8678 37.5348 29.6821 37.534 29.4964 37.5333C29.3269 37.531 29.3269 37.531 29.1541 37.5287C29.0547 37.5277 28.9554 37.5267 28.853 37.5257C28.5897 37.4996 28.436 37.4622 28.219 37.3125C28.0474 36.9245 27.9997 36.7421 28.1487 36.3399C28.4075 35.9515 28.6015 35.9872 29.0476 35.9819Z" fill="#FF7705"></path>
    <path d="M29.0473 21.5444C29.2195 21.5422 29.2195 21.5422 29.3953 21.5399C29.5212 21.5388 29.6472 21.5378 29.7732 21.5369C29.8365 21.5364 29.8999 21.5359 29.9652 21.5354C30.3007 21.5329 30.6361 21.531 30.9716 21.5297C31.2491 21.5284 31.5265 21.5258 31.8039 21.522C32.1391 21.5174 32.4742 21.5151 32.8094 21.5144C32.9369 21.5138 33.0645 21.5123 33.1921 21.5101C34.316 21.4914 34.316 21.4914 34.6257 21.782C34.8155 22.0864 34.8411 22.2412 34.7811 22.5938C34.6142 22.8878 34.5445 22.9539 34.2186 23.0625C34.0385 23.0727 33.8581 23.0774 33.6777 23.0791C33.5667 23.0803 33.4556 23.0815 33.3411 23.0828C33.1609 23.0838 33.1609 23.0838 32.9771 23.0848C32.8538 23.0856 32.7304 23.0864 32.6034 23.0871C32.3422 23.0885 32.081 23.0895 31.8199 23.0902C31.4858 23.0912 31.1518 23.0944 30.8177 23.0982C30.4985 23.1012 30.1792 23.1016 29.8599 23.1024C29.6803 23.1049 29.6803 23.1049 29.4971 23.1074C29.3854 23.1071 29.2738 23.1069 29.1587 23.1066C29.0607 23.1071 28.9626 23.1077 28.8616 23.1082C28.5243 23.0507 28.3682 22.9234 28.1248 22.6875C27.9877 22.3618 28.0205 22.2449 28.1541 21.9141C28.4022 21.5097 28.5958 21.5498 29.0473 21.5444Z" fill="#FF7705"></path>
  </g>
  <defs>
    <clipPath id="clip0_3684_529">
      <rect width="48" height="48" fill="white"></rect>
    </clipPath>
  </defs>
</svg>
