<?xml version="1.0" encoding="UTF-8"?>
<svg xmlns="http://www.w3.org/2000/svg" width="48" height="48" viewBox="0 0 48 48" fill="none">
  <g clip-path="url(#clip0_5230_123)">
    <path d="M23.9883 -0.0410185C24.1241 -0.0398516 24.1241 -0.0398516 24.2627 -0.0386611C24.9503 -0.0223994 25.5343 0.0663218 26.1563 0.374997C26.2511 0.421645 26.346 0.468293 26.4437 0.516355C27.7273 1.20715 28.598 2.28736 29.0625 3.66797C29.325 4.82598 29.2871 6.14049 28.7813 7.21875C28.7437 7.30479 28.7061 7.39084 28.6674 7.47949C28.0914 8.66818 27.0682 9.52655 25.8516 10.0137C25.5 10.125 25.5 10.125 24.9375 10.2187C24.9685 12.5081 24.9994 14.7975 25.0313 17.1562C25.4953 17.28 25.9594 17.4037 26.4375 17.5312C26.7065 17.6359 26.9468 17.7337 27.1992 17.8652C27.2605 17.8966 27.3219 17.9279 27.385 17.9602C28.2711 18.4355 29.1037 19.0999 29.625 19.9687C29.8416 19.9378 30.0581 19.9069 30.2813 19.875C30.407 20.1031 30.5319 20.3317 30.6563 20.5605C30.692 20.6253 30.7278 20.69 30.7647 20.7566C31.0313 21.2494 31.0313 21.2494 31.0313 21.5625C30.8456 21.6553 30.8456 21.6553 30.6563 21.75C30.6966 22.0929 30.7372 22.4323 30.8013 22.7717C31.0436 24.0981 30.8477 25.2603 30.4688 26.5312C30.437 26.6561 30.4056 26.7811 30.375 26.9062C31.5011 27.638 32.6323 28.3614 33.7659 29.0814C34.1127 29.3017 34.4594 29.5224 34.806 29.743C34.9766 29.8515 35.1471 29.9601 35.3177 30.0686C35.7617 30.351 36.2055 30.6338 36.6489 30.917C36.7862 31.0045 36.7862 31.0045 36.9262 31.0939C37.0993 31.2044 37.2724 31.315 37.4454 31.4257C37.9893 31.7725 38.539 32.1084 39.0938 32.4375C39.1345 32.3929 39.1752 32.3483 39.2172 32.3023C40.0503 31.4027 41.1658 30.8744 42.3926 30.8214C43.9976 30.7842 45.3573 31.1383 46.5703 32.2559C47.5467 33.2961 48.0569 34.5671 48.041 35.9883C48.0403 36.0788 48.0395 36.1694 48.0387 36.2627C48.0224 36.9503 47.9337 37.5343 47.625 38.1562C47.5784 38.2511 47.5317 38.346 47.4837 38.4437C46.7929 39.7273 45.7127 40.598 44.332 41.0625C42.9327 41.3792 41.455 41.225 40.2012 40.5293C38.9585 39.7196 38.1106 38.6555 37.7457 37.2008C37.6794 36.7937 37.6514 36.4003 37.6465 35.9883C37.6451 35.8894 37.6451 35.8894 37.6436 35.7884C37.6536 35.1803 37.8071 34.6149 37.9688 34.0312C36.5858 33.1453 35.2018 32.2609 33.8158 31.3798C33.4736 31.1622 33.1314 30.9445 32.7893 30.7266C32.6187 30.6181 32.4479 30.5097 32.2771 30.4015C31.824 30.1141 31.3732 29.8237 30.9251 29.5287C30.831 29.4674 30.737 29.406 30.6402 29.3428C30.4591 29.2246 30.2787 29.1055 30.0989 28.9854C30.0177 28.9327 29.9365 28.8799 29.8528 28.8256C29.7815 28.7784 29.7102 28.7313 29.6367 28.6828C29.4425 28.5757 29.4425 28.5757 29.2339 28.617C29.0084 28.7098 28.901 28.8386 28.7402 29.0215C27.7577 30.0368 26.4012 30.5883 25.0313 30.8437C25.0003 31.1531 24.9694 31.4625 24.9375 31.7812C24.3188 31.7812 23.7 31.7812 23.0625 31.7812C23.0316 31.4719 23.0006 31.1625 22.9688 30.8437C22.8426 30.8162 22.8426 30.8162 22.7139 30.7881C21.3152 30.4529 20.1836 29.9276 19.1675 28.8959C18.9382 28.6881 18.8609 28.6228 18.5625 28.5937C18.3543 28.6803 18.3543 28.6803 18.1472 28.8256C18.066 28.8783 17.9848 28.9311 17.9011 28.9854C17.8139 29.0437 17.7266 29.102 17.6367 29.1621C17.4495 29.2843 17.2622 29.4065 17.075 29.5287C16.9793 29.5917 16.8836 29.6546 16.785 29.7195C16.3492 30.0051 15.9089 30.2837 15.4688 30.5625C15.2969 30.6718 15.125 30.7812 14.9531 30.8906C13.9219 31.5469 13.9219 31.5469 13.6636 31.7112C13.4932 31.8197 13.3228 31.9282 13.1524 32.0368C12.7012 32.3242 12.2494 32.6106 11.7968 32.8956C11.7023 32.9553 11.6079 33.0149 11.5106 33.0764C11.3291 33.1909 11.1475 33.3052 10.9657 33.4191C10.8841 33.4707 10.8026 33.5222 10.7186 33.5753C10.6468 33.6205 10.575 33.6656 10.501 33.7122C10.323 33.8364 10.1789 33.9664 10.0313 34.125C10.0516 34.1799 10.0719 34.2347 10.0928 34.2913C10.5339 35.6514 10.4239 37.1213 9.81703 38.4126C9.12107 39.6611 8.08527 40.5232 6.74416 41.0156C5.25966 41.4187 3.75487 41.2067 2.41408 40.4824C1.21804 39.7365 0.435904 38.6332 0.0535736 37.2803C-0.0373842 36.8573 -0.045807 36.4431 -0.0410003 36.0117C-0.0402224 35.9212 -0.0394444 35.8306 -0.0386429 35.7373C-0.0223812 35.0497 0.06634 34.4657 0.375015 33.8437C0.421663 33.7489 0.468311 33.654 0.516373 33.5563C1.20779 32.2715 2.29 31.3981 3.67384 30.9375C5.15345 30.5999 6.66849 30.8252 7.96877 31.5937C8.34398 31.8471 8.68195 32.1157 9.00002 32.4375C9.06901 32.3924 9.06901 32.3924 9.1394 32.3464C10.3134 31.5801 11.4929 30.8229 12.6767 30.0718C13.1076 29.7983 13.5382 29.5241 13.9688 29.25C14.5018 28.9107 15.035 28.5715 15.5684 28.2327C15.7081 28.1438 15.7081 28.1438 15.8507 28.0532C16.0287 27.9401 16.2066 27.8271 16.3847 27.7141C16.8013 27.4493 17.2157 27.1822 17.625 26.9062C17.6069 26.8484 17.5888 26.7905 17.5701 26.7308C17.0645 25.0864 16.8948 23.5107 17.4375 21.8437C17.2828 21.7509 17.1281 21.6581 16.9688 21.5625C17.0253 21.1399 17.1906 20.8257 17.3965 20.4551C17.4274 20.3991 17.4583 20.343 17.4901 20.2853C17.5657 20.1482 17.6422 20.0116 17.7188 19.875C17.8197 19.899 17.9206 19.9231 18.0246 19.9479C18.3739 20.0097 18.3739 20.0097 18.5702 19.7992C18.6237 19.7179 18.6773 19.6365 18.7324 19.5527C19.29 18.7913 19.953 18.3134 20.7832 17.8828C20.8393 17.8531 20.8954 17.8233 20.9531 17.7927C21.6129 17.4677 22.2247 17.3547 22.9688 17.1562C22.9997 14.8669 23.0306 12.5775 23.0625 10.2187C22.6913 10.1259 22.32 10.0331 21.9375 9.9375C21.2319 9.61331 20.7086 9.16691 20.1563 8.625C20.102 8.57303 20.0477 8.52107 19.9918 8.46753C19.01 7.437 18.7869 6.04904 18.8148 4.68969C18.8744 3.36766 19.5098 2.12993 20.4705 1.22827C21.5214 0.394318 22.6415 -0.056025 23.9883 -0.0410185ZM21.2578 3.1289C20.6987 3.96765 20.4884 4.86799 20.6682 5.8645C20.9098 6.77694 21.4357 7.53082 22.2188 8.0625C23.2679 8.58949 24.1839 8.64688 25.2949 8.28039C26.1513 7.92463 26.7891 7.24425 27.1699 6.40429C27.4916 5.50695 27.4544 4.63203 27.0938 3.75C26.6139 2.77795 25.9375 2.26036 24.9375 1.875C23.4826 1.39003 22.2303 2.10238 21.2578 3.1289ZM20.1658 20.5646C19.143 21.8516 18.7813 23.2193 18.9375 24.8437C19.1631 26.0899 19.8188 27.2415 20.8125 28.0312C22.1718 28.9482 23.557 29.2954 25.1836 29.001C26.591 28.6085 27.7039 27.805 28.4414 26.543C29.1263 25.2969 29.3008 23.8917 28.916 22.5117C28.3473 20.9327 27.3662 19.9357 25.875 19.2187C23.9442 18.3897 21.5655 19.0707 20.1658 20.5646ZM2.49428 33.8342C1.85146 34.6757 1.68849 35.6251 1.78127 36.6562C2.02665 37.5883 2.57042 38.3699 3.37502 38.9062C4.26283 39.3599 5.1182 39.5294 6.09962 39.2695C6.98332 38.9717 7.75979 38.3839 8.183 37.5414C8.59674 36.5434 8.61882 35.731 8.28041 34.7051C7.92465 33.8487 7.24427 33.2109 6.40431 32.8301C4.96633 32.3146 3.53836 32.7495 2.49428 33.8342ZM40.2363 33.8203C39.7031 34.465 39.4273 35.3107 39.4431 36.1468C39.5548 37.1407 39.9442 37.9397 40.6861 38.6041C41.4797 39.2332 42.3068 39.4555 43.3125 39.375C44.2441 39.1966 45.0759 38.7284 45.6563 37.9687C46.1686 37.0236 46.4188 36.1033 46.1371 35.0336C45.7652 34.0764 45.1422 33.3241 44.2031 32.8887C42.7601 32.2844 41.2975 32.7027 40.2363 33.8203Z" fill="#FF7705"></path>
    <path d="M23.0625 40.2188C23.6813 40.2188 24.3 40.2188 24.9375 40.2188C24.9375 40.5591 24.9375 40.8994 24.9375 41.25C25.0632 41.2867 25.1889 41.3235 25.3184 41.3613C26.1702 41.6497 26.6991 42.1761 27.115 42.9694C27.5267 43.8594 27.632 44.7987 27.3047 45.7383C26.9218 46.6733 26.294 47.335 25.4063 47.8125C24.4817 48.1349 23.3659 48.1494 22.4561 47.7616C21.5818 47.2584 20.9715 46.5319 20.6426 45.5859C20.3634 44.5383 20.5371 43.6584 21.0234 42.7086C21.4235 42.0369 22.0349 41.5241 22.793 41.3027C22.8819 41.2853 22.9709 41.2679 23.0625 41.25C23.0625 40.9097 23.0625 40.5694 23.0625 40.2188ZM22.5527 43.6641C22.3024 44.1848 22.2514 44.6087 22.418 45.1641C22.6872 45.6307 23.0301 46.0072 23.5313 46.2188C24.07 46.3134 24.4668 46.261 24.9317 45.9668C25.3835 45.6241 25.5828 45.3382 25.6758 44.7773C25.7197 44.2379 25.5296 43.8747 25.2363 43.4297C24.8708 43.0537 24.5291 42.92 24.0117 42.8906C23.368 42.912 22.9706 43.1927 22.5527 43.6641Z" fill="#FF7705"></path>
    <path d="M46.6289 10.8516C46.7451 10.9498 46.8584 11.0515 46.9688 11.1563C47.0275 11.2113 47.0862 11.2662 47.1467 11.3229C47.879 12.0783 48.0583 12.9279 48.0439 13.9495C48.0009 14.9528 47.5854 15.6995 46.875 16.4063C45.9529 17.1047 45.0142 17.254 43.875 17.1563C43.2039 16.9859 42.5607 16.6439 42.0938 16.125C42.0067 16.154 41.9197 16.183 41.8301 16.2129C41.6367 16.2774 41.4434 16.3418 41.25 16.4063C40.9716 15.8803 40.6931 15.3544 40.4062 14.8125C40.8281 14.4961 40.8281 14.4961 41.1562 14.4375C41.1519 14.3412 41.1475 14.2449 41.1431 14.1456C41.1084 13.066 41.203 12.2558 41.9297 11.4024C43.1833 10.1034 45.0936 9.76051 46.6289 10.8516ZM43.2188 12.6563C42.8752 13.1144 42.8726 13.6038 42.9375 14.1563C43.1232 14.7031 43.4675 15.0062 43.9618 15.2919C44.3064 15.4392 44.6333 15.434 45 15.375C45.4792 15.1712 45.8378 14.874 46.125 14.4375C46.2853 13.9567 46.2793 13.4943 46.1191 13.0137C45.854 12.6289 45.5147 12.3042 45.0938 12.0938C44.3207 11.9894 43.7927 12.1206 43.2188 12.6563Z" fill="#FF7705"></path>
    <path d="M5.53123 10.875C6.20381 11.402 6.66394 12.0972 6.84373 12.9375C6.85023 13.1962 6.85256 13.4524 6.84959 13.711C6.84917 13.7808 6.84875 13.8507 6.84831 13.9226C6.84721 14.0943 6.84553 14.2659 6.84373 14.4375C6.93268 14.4646 7.02163 14.4917 7.11327 14.5196C7.40623 14.625 7.40623 14.625 7.59373 14.8125C7.3153 15.3385 7.03686 15.8644 6.74998 16.4063C6.47155 16.3135 6.19311 16.2206 5.90623 16.125C5.59478 16.3387 5.59478 16.3387 5.42137 16.5279C4.79046 17.1156 3.90668 17.1985 3.08714 17.1819C2.20542 17.1206 1.46074 16.7571 0.843735 16.125C0.0732771 15.1115 -0.11075 14.1832 -1.51452e-05 12.9375C0.165081 12.0289 0.703739 11.3932 1.40404 10.8161C2.69146 9.92864 4.25204 10.0758 5.53123 10.875ZM1.87498 13.0313C1.73153 13.4616 1.69298 13.9102 1.84862 14.3441C2.1153 14.842 2.48953 15.1519 2.99998 15.375C3.46496 15.4581 3.84068 15.4121 4.24803 15.1699C4.63798 14.8957 4.90973 14.6145 5.06248 14.1563C5.13591 13.5657 5.09237 13.1158 4.73766 12.6277C4.42594 12.2835 4.14876 12.1233 3.6859 12.0586C2.81533 12.0208 2.37872 12.3548 1.87498 13.0313Z" fill="#FF7705"></path>
    <path d="M23.0625 36.8438C23.6812 36.8438 24.3 36.8438 24.9375 36.8438C24.9375 37.4316 24.9375 38.0194 24.9375 38.625C24.3188 38.625 23.7 38.625 23.0625 38.625C23.0625 38.0372 23.0625 37.4494 23.0625 36.8438Z" fill="#FF7705"></path>
    <path d="M23.0625 33.375C23.6812 33.375 24.3 33.375 24.9375 33.375C24.9375 33.9628 24.9375 34.5506 24.9375 35.1562C24.3188 35.1562 23.7 35.1562 23.0625 35.1562C23.0625 34.5684 23.0625 33.9806 23.0625 33.375Z" fill="#FF7705"></path>
    <path d="M36.1875 16.9688C36.435 17.4947 36.6825 18.0206 36.9375 18.5625C36.5982 18.751 36.5982 18.751 36.252 18.9434C36.1811 18.9834 36.1102 19.0234 36.0372 19.0646C35.8723 19.1544 35.7017 19.2337 35.5312 19.3125C35.25 19.2188 35.25 19.2188 35.079 18.9324C35.0198 18.8135 34.9616 18.6941 34.9043 18.5742C34.8743 18.5144 34.8442 18.4546 34.8133 18.3929C34.6797 18.1201 34.5938 17.9325 34.5938 17.625C34.8063 17.5149 35.0192 17.4057 35.2324 17.2969C35.3228 17.2499 35.3228 17.2499 35.415 17.202C35.6902 17.0623 35.8745 16.9688 36.1875 16.9688Z" fill="#FF7705"></path>
    <path d="M39.0937 15.4688C39.2192 15.7146 39.3441 15.9607 39.4687 16.207C39.5045 16.277 39.5403 16.347 39.5771 16.4191C39.611 16.4861 39.6448 16.5532 39.6797 16.6223C39.7111 16.6842 39.7425 16.746 39.7749 16.8098C39.8437 16.9688 39.8437 16.9688 39.8437 17.1562C39.6335 17.269 39.4225 17.38 39.2109 17.4902C39.1515 17.5223 39.092 17.5544 39.0308 17.5875C38.7956 17.7087 38.5899 17.8087 38.3236 17.826C38.0453 17.6476 37.9356 17.364 37.7988 17.0742C37.7684 17.0144 37.738 16.9546 37.7067 16.8929C37.4876 16.4434 37.4876 16.4434 37.5937 16.125C37.8097 15.9975 38.0186 15.8864 38.2441 15.7793C38.3047 15.7493 38.3654 15.7192 38.4278 15.6883C38.8786 15.4688 38.8786 15.4688 39.0937 15.4688Z" fill="#FF7705"></path>
    <path d="M14.8125 18.375C15.3075 18.6225 15.8025 18.87 16.3125 19.125C16.2286 19.5447 16.1248 19.8116 15.9316 20.1855C15.8803 20.2857 15.8289 20.3859 15.776 20.4891C15.7365 20.5649 15.697 20.6407 15.6562 20.7188C15.2252 20.6682 14.9186 20.5532 14.543 20.3379C14.4523 20.2865 14.3617 20.2352 14.2683 20.1823C14.2004 20.1427 14.1325 20.1032 14.0625 20.0625C14.1466 19.4333 14.5088 18.9217 14.8125 18.375Z" fill="#FF7705"></path>
    <path d="M33.0938 18.375C33.3699 18.6154 33.5146 18.8887 33.6797 19.2129C33.7304 19.3104 33.7812 19.4079 33.8335 19.5084C33.9375 19.7812 33.9375 19.7812 33.9408 19.9852C33.7884 20.2537 33.5732 20.3295 33.2988 20.4609C33.1996 20.5098 33.1004 20.5586 32.9982 20.6089C32.7188 20.7188 32.7188 20.7188 32.3438 20.7188C32.231 20.5085 32.12 20.2975 32.0098 20.0859C31.9777 20.0265 31.9456 19.967 31.9125 19.9058C31.7913 19.6707 31.6916 19.4643 31.6729 19.1982C31.8546 18.9183 32.149 18.8138 32.4434 18.6797C32.5055 18.6501 32.5677 18.6205 32.6318 18.59C32.7852 18.5171 32.9394 18.4459 33.0938 18.375Z" fill="#FF7705"></path>
    <path d="M11.8125 16.9688C12.2322 17.0527 12.4991 17.1564 12.873 17.3496C12.9732 17.401 13.0734 17.4523 13.1766 17.5052C13.2524 17.5448 13.3282 17.5843 13.4062 17.625C13.2798 18.0337 13.1204 18.4044 12.9258 18.7852C12.8753 18.8845 12.8248 18.9838 12.7727 19.0862C12.7343 19.1609 12.6958 19.2356 12.6562 19.3125C12.0759 19.1351 11.5907 18.8588 11.0625 18.5625C11.31 18.0366 11.5575 17.5106 11.8125 16.9688Z" fill="#FF7705"></path>
    <path d="M8.90625 15.4688C9.48661 15.6461 9.97181 15.9224 10.5 16.2188C10.2525 16.7447 10.005 17.2706 9.75 17.8125C9.33031 17.7286 9.06345 17.6248 8.68945 17.4316C8.58927 17.3803 8.48908 17.3289 8.38586 17.276C8.31009 17.2365 8.23432 17.197 8.15625 17.1562C8.28267 16.7475 8.4421 16.3769 8.63672 15.9961C8.68723 15.8968 8.73775 15.7974 8.78979 15.6951C8.82823 15.6204 8.86666 15.5457 8.90625 15.4688Z" fill="#FF7705"></path>
  </g>
  <defs>
    <clipPath id="clip0_5230_123">
      <rect width="48" height="48" fill="white"></rect>
    </clipPath>
  </defs>
</svg>
