<?xml version="1.0" encoding="UTF-8"?>
<svg xmlns="http://www.w3.org/2000/svg" width="48" height="48" viewBox="0 0 48 48" fill="none">
  <path d="M21.6207 12.0644C21.7072 12.0646 21.7938 12.0648 21.8829 12.0651C23.199 12.07 24.4877 12.1082 25.7809 12.375C25.8723 12.3936 25.9637 12.4122 26.0578 12.4314C28.0652 12.8556 30.1121 13.545 31.6871 14.9062C31.7587 14.9667 31.8302 15.0271 31.9039 15.0893C32.5966 15.7212 33.1442 16.5892 33.2809 17.5312C33.2939 17.8474 33.2927 18.1631 33.2915 18.4795C33.2915 18.5746 33.2916 18.6698 33.2916 18.7679C33.2915 19.0819 33.2908 19.3958 33.29 19.7098C33.2899 19.9278 33.2897 20.1457 33.2896 20.3636C33.2893 20.9368 33.2884 21.51 33.2873 22.0832C33.2864 22.6682 33.2859 23.2533 33.2855 23.8383C33.2845 24.986 33.2829 26.1336 33.2809 27.2812C33.3482 27.281 33.4155 27.2808 33.4849 27.2806C33.7929 27.2797 34.101 27.2792 34.409 27.2786C34.5149 27.2783 34.6208 27.2779 34.73 27.2776C35.457 27.2766 36.168 27.2982 36.8903 27.3867C36.9939 27.399 37.0975 27.4113 37.2043 27.424C39.9388 27.7759 43.1377 28.6186 45.0146 30.7976C45.62 31.6177 45.9008 32.4145 45.8919 33.4312C45.8929 33.5729 45.8929 33.5729 45.8939 33.7175C45.8955 34.0271 45.8945 34.3366 45.8932 34.6461C45.8934 34.863 45.8938 35.0799 45.8943 35.2968C45.8948 35.7503 45.894 36.2038 45.8923 36.6573C45.8901 37.2364 45.8914 37.8155 45.8936 38.3947C45.895 38.8423 45.8945 39.2899 45.8936 39.7375C45.8933 39.9509 45.8936 40.1644 45.8945 40.3778C45.8955 40.6771 45.894 40.9762 45.8919 41.2754C45.8927 41.3623 45.8934 41.4492 45.8942 41.5387C45.8809 42.5845 45.5012 43.3848 44.8121 44.1562C44.7652 44.2118 44.7184 44.2674 44.67 44.3247C42.6679 46.5291 38.9418 47.2697 36.1109 47.4547C35.5055 47.4813 34.9005 47.4826 34.2946 47.4785C34.2032 47.4782 34.1119 47.4779 34.0179 47.4776C30.8398 47.463 27.6573 46.9236 24.9371 45.1875C24.843 45.0899 24.843 45.0899 24.747 44.9904C24.3311 44.7249 23.9591 44.7711 23.4763 44.7858C23.3783 44.787 23.2802 44.7882 23.1792 44.7894C22.8647 44.7933 22.5504 44.7997 22.236 44.8066C20.246 44.8484 18.2876 44.7879 16.3531 44.2676C16.2138 44.2312 16.2138 44.2312 16.0716 44.1941C14.4845 43.7671 12.8651 43.1032 11.6246 42C11.5536 41.9398 11.4825 41.8796 11.4093 41.8176C10.714 41.1853 10.1704 40.3182 10.0309 39.375C10.0172 39.0819 10.0174 38.7891 10.0177 38.4957C10.0174 38.4067 10.0172 38.3178 10.0169 38.2261C10.0161 37.9279 10.0159 37.6297 10.0158 37.3315C10.0153 37.1177 10.0149 36.904 10.0144 36.6902C10.0131 36.1093 10.0125 35.5284 10.0121 34.9474C10.0118 34.5844 10.0115 34.2214 10.011 33.8584C10.0099 32.8526 10.0089 31.8467 10.0086 30.8409C10.0086 30.7765 10.0086 30.7122 10.0085 30.6459C10.0085 30.5814 10.0085 30.5169 10.0085 30.4505C10.0084 30.3198 10.0084 30.1891 10.0084 30.0585C10.0083 29.9937 10.0083 29.9288 10.0083 29.8621C10.0079 28.8124 10.0063 27.7628 10.0041 26.7131C10.0019 25.6344 10.0007 24.5558 10.0006 23.4771C10.0005 22.8718 9.99996 22.2666 9.99828 21.6614C9.99673 21.0919 9.99653 20.5224 9.99736 19.9529C9.99743 19.7442 9.99702 19.5355 9.99609 19.3269C9.9949 19.0413 9.99545 18.7557 9.99643 18.4701C9.99567 18.3882 9.99492 18.3062 9.99414 18.2218C10.004 16.985 10.5093 16.0153 11.3492 15.1289C12.8931 13.6107 15.1438 12.8939 17.2145 12.4453C17.2792 12.4311 17.3438 12.417 17.4105 12.4024C18.8069 12.1194 20.2003 12.0585 21.6207 12.0644ZM11.9059 16.125C11.8567 16.1731 11.8075 16.2212 11.7568 16.2707C11.326 16.7343 11.1035 17.3353 11.0153 17.9531C11.1648 19.0002 11.7315 19.8102 12.5621 20.4434C14.8732 22.0217 17.7579 22.7768 20.5452 22.8036C20.6248 22.8045 20.7044 22.8054 20.7865 22.8064C24.3517 22.839 28.4573 22.563 31.2004 19.983C31.2682 19.9164 31.336 19.8498 31.4059 19.7812C31.4553 19.733 31.5047 19.6848 31.5557 19.6351C31.9857 19.1709 32.2082 18.571 32.2965 17.9531C32.1769 17.116 31.8128 16.5236 31.2184 15.9375C31.1588 15.8759 31.0992 15.8142 31.0378 15.7507C29.6149 14.3734 27.4801 13.7996 25.5934 13.4062C25.5194 13.3906 25.4454 13.375 25.3692 13.3589C21.1218 12.5122 15.1232 12.9136 11.9059 16.125ZM11.0621 20.4375C11.0538 20.748 11.0489 21.0585 11.0446 21.3691C11.0422 21.456 11.0398 21.5428 11.0374 21.6323C11.026 22.7191 11.3627 23.4318 12.1047 24.208C14.7615 26.7557 19.0484 27.0875 22.5319 27.0267C25.5416 26.9578 29.1336 26.2696 31.352 24.0762C31.9475 23.4255 32.2642 22.816 32.2588 21.9298C32.2585 21.8425 32.2582 21.7552 32.2579 21.6652C32.2571 21.5752 32.2563 21.4853 32.2555 21.3926C32.2549 21.2549 32.2549 21.2549 32.2542 21.1144C32.2531 20.8888 32.2516 20.6631 32.2496 20.4375C32.2074 20.474 32.1652 20.5104 32.1217 20.548C30.1379 22.256 27.7879 23.1289 25.2184 23.5312C25.1123 23.5479 25.0062 23.5646 24.8969 23.5818C23.8378 23.7319 22.789 23.7562 21.7203 23.7539C21.6298 23.7538 21.5393 23.7538 21.446 23.7537C18.6907 23.7466 15.9925 23.3547 13.4996 22.125C13.4034 22.0776 13.3072 22.0302 13.2081 21.9814C12.6294 21.6809 12.1246 21.3233 11.6246 20.9062C11.5753 20.8652 11.5259 20.8241 11.4751 20.7818C11.3373 20.6671 11.1997 20.5523 11.0621 20.4375ZM11.0621 24.6562C10.9779 26.5515 10.9779 26.5515 11.8473 28.1836C14.026 30.4196 17.7785 31.1799 20.7827 31.2306C21.1031 31.2346 21.4234 31.236 21.7438 31.2363C21.8064 31.2364 21.8691 31.2365 21.9337 31.2366C22.822 31.3046 22.822 31.3046 23.5909 30.9748C23.6407 30.9122 23.6905 30.8496 23.7418 30.7851C25.5101 28.693 28.556 27.8908 31.1801 27.5613C31.2546 27.5516 31.3291 27.542 31.4059 27.5321C31.4716 27.5243 31.5374 27.5165 31.6051 27.5084C31.8108 27.473 31.8108 27.473 32.0621 27.2812C32.2849 26.7259 32.2719 26.1913 32.2614 25.5996C32.2605 25.5087 32.2597 25.4177 32.2588 25.324C32.2566 25.1014 32.2535 24.8788 32.2496 24.6562C32.2086 24.6921 32.1677 24.7279 32.1254 24.7649C30.3616 26.2944 28.3283 27.118 26.0563 27.5859C25.9879 27.6001 25.9195 27.6143 25.8491 27.6289C24.4727 27.892 23.0895 27.9733 21.691 27.9668C21.6139 27.9666 21.5367 27.9664 21.4572 27.9663C18.0157 27.9535 14.2172 27.3561 11.5309 25.0312C11.3751 24.9057 11.2189 24.7806 11.0621 24.6562ZM24.5621 31.3125C24.5056 31.3694 24.449 31.4263 24.3907 31.485C23.9229 31.9857 23.7102 32.4965 23.6774 33.1816C23.7128 34.1469 24.2654 34.7748 24.9258 35.4228C27.6016 37.8878 32.0912 38.1928 35.5309 38.0625C38.4892 37.8748 41.865 37.2157 44.0621 35.0625C44.6082 34.3889 44.8637 33.7898 44.8477 32.9187C44.7901 32.4426 44.6033 32.085 44.3434 31.6875C44.3059 31.63 44.2685 31.5724 44.2299 31.5132C42.6759 29.46 39.3548 28.7683 36.9606 28.4359C33.0571 27.9481 27.4766 28.2455 24.5621 31.3125ZM11.0621 28.875C11.0538 29.1855 11.0489 29.496 11.0446 29.8066C11.0422 29.8935 11.0398 29.9803 11.0374 30.0698C11.0267 31.084 11.3045 31.7926 11.9996 32.5312C12.7443 33.2585 13.5885 33.711 14.5309 34.125C14.5904 34.1512 14.65 34.1774 14.7114 34.2045C16.1897 34.8392 17.8107 35.172 19.4059 35.3437C19.4976 35.3541 19.5893 35.3645 19.6838 35.3752C20.6824 35.4703 21.6853 35.4436 22.6871 35.4375C22.7181 34.3856 22.749 33.3337 22.7809 32.25C22.2124 32.2326 22.2124 32.2326 21.6324 32.2148C17.7733 32.0754 14.0812 31.4327 11.0621 28.875ZM11.0621 33.0937C10.956 34.6065 10.956 34.6065 11.4371 36C11.4805 36.0702 11.5239 36.1404 11.5686 36.2128C12.9866 38.2479 15.8809 38.9291 18.1728 39.3559C19.0381 39.5101 19.8874 39.5858 20.7653 39.6211C20.9184 39.6283 20.9184 39.6283 21.0747 39.6357C21.1746 39.6398 21.2746 39.644 21.3776 39.6482C21.4671 39.652 21.5565 39.6558 21.6487 39.6598C21.9964 39.6555 22.3422 39.6056 22.6871 39.5625C22.6871 38.5416 22.6871 37.5206 22.6871 36.4687C21.9272 36.4339 21.9272 36.4339 21.152 36.3984C18.4516 36.2559 15.8578 35.8821 13.4059 34.6875C13.2647 34.6197 13.2647 34.6197 13.1206 34.5505C12.5406 34.2544 12.0548 33.8871 11.5602 33.4643C11.3397 33.2711 11.3397 33.2711 11.0621 33.0937ZM23.7184 35.7187C23.6186 37.7163 23.6186 37.7163 24.609 39.3926C26.8455 41.4342 30.3416 42.2027 33.2809 42.2812C33.35 42.2832 33.419 42.2851 33.4902 42.2871C36.8401 42.3671 41.058 41.9593 43.6578 39.6094C44.1688 39.1096 44.7878 38.495 44.8228 37.7389C44.8223 37.65 44.8218 37.5612 44.8213 37.4696C44.821 37.3732 44.8207 37.2768 44.8204 37.1775C44.8196 37.0771 44.8188 36.9766 44.818 36.873C44.8174 36.7207 44.8174 36.7207 44.8167 36.5652C44.8156 36.3143 44.8141 36.0634 44.8121 35.8125C44.7649 35.8483 44.7177 35.8842 44.6691 35.9211C40.7768 38.8611 35.7721 39.453 31.0265 38.8037C28.279 38.3964 25.8604 37.5162 23.7184 35.7187ZM11.0621 37.2187C11.0538 37.5293 11.0489 37.8398 11.0446 38.1504C11.0422 38.2372 11.0398 38.324 11.0374 38.4135C11.0272 39.3796 11.2773 40.0537 11.9059 40.7812C11.9717 40.8619 11.9717 40.8619 12.0388 40.9442C13.4252 42.4945 15.8529 43.1223 17.8121 43.5C17.888 43.5153 17.9639 43.5307 18.0422 43.5465C19.818 43.8926 21.6368 43.8085 23.4371 43.7812C23.3976 43.6965 23.3581 43.6118 23.3174 43.5245C23.2403 43.3587 23.2403 43.3587 23.1617 43.1894C23.1106 43.0796 23.0595 42.9697 23.0068 42.8566C22.8554 42.5198 22.7694 42.2503 22.7512 41.8846C22.7473 41.8094 22.7434 41.7342 22.7393 41.6567C22.7356 41.5785 22.7319 41.5004 22.7281 41.4199C22.7221 41.3011 22.7221 41.3011 22.7159 41.1799C22.7059 40.9845 22.6965 40.7891 22.6871 40.5937C22.622 40.5948 22.5569 40.5959 22.4897 40.597C18.7729 40.63 14.2453 40.2116 11.3826 37.5384C11.2756 37.4321 11.1688 37.3254 11.0621 37.2187ZM23.7184 39.9375C23.7046 40.2773 23.6964 40.617 23.6891 40.957C23.6852 41.052 23.6812 41.147 23.6772 41.2449C23.6614 42.2291 24.0291 42.9512 24.6995 43.6604C25.6469 44.5158 26.7448 45.0432 27.9371 45.4687C27.9976 45.4908 28.0581 45.5129 28.1204 45.5357C32.363 47.0608 37.6903 46.8749 41.787 45.0164C43.0269 44.4234 44.1232 43.644 44.7184 42.375C44.814 42.0882 44.8229 41.8946 44.8213 41.5946C44.821 41.4982 44.8207 41.4018 44.8204 41.3025C44.8196 41.2021 44.8188 41.1016 44.818 40.998C44.8174 40.8457 44.8174 40.8457 44.8167 40.6902C44.8156 40.4393 44.8141 40.1884 44.8121 39.9375C44.7483 39.9929 44.7483 39.9929 44.6832 40.0494C41.3903 42.8928 36.6958 43.4525 32.4949 43.1752C29.5327 42.9449 26.526 42.218 24.1871 40.3125C24.0995 40.2424 24.0119 40.1723 23.9216 40.1001C23.8546 40.0464 23.7875 39.9928 23.7184 39.9375Z" fill="#FF7705"></path>
  <path d="M36.4453 9.23474C36.5488 9.23454 36.5488 9.23454 36.6543 9.23433C36.7996 9.23449 36.9449 9.23556 37.0902 9.23751C37.3118 9.24023 37.5332 9.23944 37.7549 9.23822C37.8965 9.23881 38.0381 9.23959 38.1797 9.2406C38.2455 9.24033 38.3114 9.24005 38.3792 9.23977C38.788 9.24758 39.0543 9.30439 39.375 9.5625C39.5764 9.87464 39.5853 10.1295 39.5838 10.4964C39.5838 10.609 39.5838 10.7216 39.5837 10.8376C39.5828 10.9587 39.5818 11.0798 39.5808 11.2046C39.5805 11.3302 39.5802 11.4557 39.58 11.5813C39.5793 11.9112 39.5775 12.241 39.5754 12.5708C39.5735 12.9076 39.5726 13.2445 39.5717 13.5813C39.5696 14.2417 39.5664 14.9021 39.5625 15.5625C39.6591 15.5604 39.6591 15.5604 39.7577 15.5582C39.8422 15.5571 39.9266 15.556 40.0137 15.5548C40.1393 15.5527 40.1393 15.5527 40.2675 15.5505C40.5694 15.5661 40.7388 15.6497 40.9688 15.8438C41.1596 16.13 41.2258 16.3114 41.2134 16.6553C41.0812 17.1635 40.6625 17.5316 40.3125 17.9063C40.2573 17.9659 40.202 18.0255 40.1451 18.0869C39.8481 18.4069 39.5492 18.7249 39.2483 19.0411C38.905 19.4039 38.5764 19.7784 38.25 20.1563C37.8635 20.5993 37.8635 20.5993 37.5 20.7129C37.1107 20.721 36.8946 20.6574 36.598 20.3987C36.2545 20.0636 35.9396 19.704 35.6265 19.3407C35.3958 19.0774 35.1591 18.8199 34.9219 18.5625C33.5025 17.0175 33.5025 17.0175 33.4219 16.4531C33.4809 16.0402 33.6185 15.9145 33.9375 15.6563C34.1742 15.5379 34.3418 15.5533 34.6055 15.5566C34.7334 15.5579 34.7334 15.5579 34.864 15.5592C34.9295 15.5603 34.995 15.5614 35.0625 15.5625C35.0621 15.4954 35.0617 15.4283 35.0612 15.3592C35.0575 14.7261 35.0546 14.093 35.0528 13.4599C35.0518 13.1344 35.0505 12.809 35.0484 12.4835C35.0459 12.1091 35.045 11.7347 35.0442 11.3602C35.0427 11.1855 35.0427 11.1855 35.0413 11.0071C35.0412 10.8983 35.0412 10.7895 35.0412 10.6774C35.0408 10.5818 35.0404 10.4863 35.04 10.3878C35.0743 9.98775 35.1763 9.73485 35.4507 9.44236C35.7866 9.24045 36.0646 9.22865 36.4453 9.23474ZM36.0938 10.3125C36.0914 10.4966 36.0891 10.6807 36.0866 10.8704C36.0788 11.4773 36.0705 12.0843 36.0619 12.6912C36.0568 13.0594 36.0517 13.4275 36.0471 13.7956C36.0427 14.1506 36.0378 14.5056 36.0325 14.8606C36.0306 14.9963 36.0289 15.1321 36.0273 15.2678C36.025 15.4573 36.0222 15.6468 36.0192 15.8362C36.0178 15.9443 36.0163 16.0523 36.0148 16.1636C36 16.4063 36 16.4063 35.9062 16.5C35.7016 16.522 35.4964 16.5388 35.291 16.5527C35.1787 16.5606 35.0665 16.5684 34.9508 16.5765C34.8639 16.5822 34.777 16.5879 34.6875 16.5938C35.0074 17.0449 35.3418 17.4486 35.7389 17.8334C36.0305 18.1237 36.2943 18.4382 36.5625 18.75C36.6854 18.8907 36.8085 19.0314 36.9316 19.1719C37.0273 19.2813 37.123 19.3906 37.2188 19.5C37.4903 19.3781 37.6736 19.253 37.8739 19.0334C37.9244 18.9787 37.9748 18.9239 38.0268 18.8674C38.1054 18.7803 38.1054 18.7803 38.1855 18.6914C38.2397 18.6321 38.2939 18.5727 38.3498 18.5116C38.5046 18.3416 38.6587 18.1709 38.8125 18C38.916 17.886 38.916 17.886 39.0216 17.7697C39.3561 17.3953 39.653 17.0075 39.9375 16.5938C39.8506 16.5881 39.7637 16.5824 39.6742 16.5765C39.5058 16.5648 39.5058 16.5648 39.334 16.5527C39.1659 16.5413 39.1659 16.5413 38.9945 16.5297C38.7188 16.5 38.7188 16.5 38.625 16.4063C38.6134 16.2165 38.6083 16.0263 38.6058 15.8362C38.6029 15.6532 38.6029 15.6532 38.6001 15.4665C38.5985 15.3324 38.5969 15.1982 38.5953 15.0641C38.5934 14.9276 38.5914 14.7911 38.5894 14.6546C38.5842 14.2947 38.5796 13.9349 38.5751 13.575C38.5704 13.208 38.5652 12.841 38.56 12.4741C38.5499 11.7535 38.5404 11.033 38.5312 10.3125C37.7269 10.3125 36.9225 10.3125 36.0938 10.3125Z" fill="#FF7705"></path>
  <path d="M5.12036 9.24645C5.18925 9.24561 5.25813 9.24476 5.3291 9.24389C5.47456 9.24253 5.62002 9.2417 5.76549 9.24135C5.98695 9.24024 6.20816 9.23562 6.42957 9.23089C6.57129 9.23 6.71301 9.22933 6.85474 9.22888C6.92038 9.22705 6.98602 9.22521 7.05365 9.22333C7.40768 9.22655 7.63959 9.2814 7.91533 9.49546C8.27231 9.87261 8.26175 10.1596 8.26064 10.6667C8.26063 10.83 8.26063 10.83 8.26062 10.9965C8.26014 11.1135 8.25965 11.2305 8.25916 11.3511C8.25902 11.4712 8.25889 11.5914 8.25875 11.7152C8.2584 12.0339 8.25748 12.3526 8.25644 12.6714C8.25548 12.9969 8.25505 13.3224 8.25458 13.6479C8.25357 14.2861 8.25197 14.9243 8.25 15.5625C8.3138 15.5605 8.3776 15.5584 8.44334 15.5563C8.56933 15.5539 8.56933 15.5539 8.69788 15.5515C8.78101 15.5495 8.86415 15.5474 8.94981 15.5453C9.31387 15.5716 9.47793 15.7003 9.75 15.9375C9.89576 16.229 9.8706 16.459 9.84375 16.7812C9.56931 17.2588 9.20945 17.6389 8.83008 18.0352C8.71159 18.1604 8.59318 18.2858 8.47485 18.4112C8.41899 18.4704 8.36313 18.5295 8.30557 18.5905C8.13648 18.7711 7.97222 18.9553 7.81055 19.1426C7.73894 19.2245 7.73894 19.2245 7.66589 19.3081C7.57126 19.4176 7.47703 19.5274 7.38405 19.6382C7.25233 19.7947 7.11848 19.9491 6.98438 20.1035C6.9432 20.1535 6.90203 20.2035 6.85961 20.255C6.63022 20.5155 6.47307 20.6237 6.1377 20.722C5.58423 20.7164 5.30641 20.4251 4.93359 20.0449C4.61933 19.7234 4.31852 19.3938 4.02612 19.0525C3.84252 18.8423 3.65379 18.6375 3.46369 18.4332C3.24451 18.197 3.0284 17.958 2.8125 17.7187C2.74253 17.6418 2.67256 17.5648 2.60046 17.4855C2.32535 17.1624 2.1177 16.9104 2.0918 16.4766C2.1626 16.0904 2.24759 15.9237 2.53125 15.6562C2.8139 15.562 3.00392 15.5528 3.29883 15.5566C3.42554 15.5579 3.42554 15.5579 3.55481 15.5592C3.61922 15.5603 3.68364 15.5614 3.75 15.5625C3.74938 15.4931 3.74875 15.4236 3.74811 15.3521C3.74247 14.6969 3.73819 14.0417 3.73543 13.3866C3.73396 13.0497 3.73197 12.7129 3.72878 12.3761C3.72572 12.0509 3.72404 11.7257 3.72332 11.4005C3.72255 11.2164 3.72035 11.0323 3.71814 10.8482C3.71811 10.7356 3.71809 10.6231 3.71807 10.5071C3.71745 10.4082 3.71682 10.3093 3.71618 10.2074C3.75515 9.89643 3.84922 9.72139 4.03125 9.46874C4.35594 9.22414 4.72934 9.24943 5.12036 9.24645ZM4.78125 10.3125C4.7789 10.4966 4.77655 10.6807 4.77413 10.8704C4.76628 11.4773 4.758 12.0843 4.74944 12.6912C4.74426 13.0594 4.73925 13.4275 4.73463 13.7956C4.73017 14.1506 4.72526 14.5056 4.72004 14.8606C4.71812 14.9963 4.71637 15.1321 4.71477 15.2678C4.71253 15.4573 4.70965 15.6467 4.70675 15.8362C4.70529 15.9443 4.70383 16.0523 4.70233 16.1636C4.6875 16.4062 4.6875 16.4062 4.59375 16.5C4.3891 16.522 4.18387 16.5388 3.97852 16.5527C3.86625 16.5606 3.75398 16.5684 3.63831 16.5765C3.55141 16.5822 3.46452 16.5879 3.375 16.5937C3.74775 17.1122 4.14684 17.5856 4.58789 18.0469C4.70333 18.169 4.81869 18.2912 4.93396 18.4134C4.98848 18.4712 5.043 18.529 5.09917 18.5885C5.37635 18.8852 5.64334 19.1906 5.90625 19.5C6.2854 19.3526 6.51617 19.0827 6.7793 18.7852C6.82483 18.7345 6.87036 18.6839 6.91727 18.6318C7.04967 18.4843 7.18124 18.336 7.3125 18.1875C7.37522 18.1167 7.43794 18.0459 7.50256 17.9729C7.60723 17.8538 7.7115 17.7343 7.81531 17.6144C7.92753 17.485 8.04071 17.3565 8.15442 17.2284C8.21496 17.1601 8.27551 17.0918 8.33789 17.0215C8.39288 16.9597 8.44786 16.898 8.50452 16.8343C8.63491 16.7071 8.63491 16.7071 8.625 16.5937C8.53811 16.5881 8.45122 16.5824 8.36169 16.5765C8.19329 16.5647 8.19329 16.5647 8.02148 16.5527C7.85344 16.5413 7.85344 16.5413 7.68201 16.5297C7.40625 16.5 7.40625 16.5 7.3125 16.4062C7.3009 16.2165 7.29581 16.0263 7.29325 15.8362C7.29045 15.6532 7.29045 15.6532 7.28758 15.4665C7.28599 15.3324 7.28441 15.1982 7.28284 15.0641C7.28091 14.9276 7.27894 14.7911 7.27693 14.6546C7.27175 14.2947 7.26712 13.9349 7.2626 13.575C7.2579 13.208 7.25268 12.841 7.2475 12.4741C7.2374 11.7535 7.22794 11.033 7.21875 10.3125C6.41437 10.3125 5.61 10.3125 4.78125 10.3125Z" fill="#FF7705"></path>
  <path d="M21.3991 0.529679C21.5583 0.528128 21.7175 0.52557 21.8767 0.521989C22.1066 0.516845 22.3363 0.514802 22.5663 0.513429C22.6371 0.511303 22.7079 0.509178 22.7809 0.506989C23.16 0.508502 23.323 0.545609 23.6209 0.788224C23.9001 1.14229 23.9178 1.31046 23.9169 1.75639C23.9169 1.9253 23.9169 1.9253 23.9169 2.09761C23.9164 2.21969 23.9159 2.34176 23.9154 2.46753C23.9152 2.59338 23.9151 2.71922 23.915 2.84507C23.9146 3.17643 23.9137 3.5078 23.9127 3.83916C23.9117 4.17724 23.9113 4.51532 23.9108 4.85339C23.9098 5.51685 23.9082 6.1803 23.9062 6.84375C23.9839 6.84158 24.0616 6.8394 24.1416 6.83716C24.2941 6.83462 24.2941 6.83462 24.4497 6.83203C24.5506 6.82986 24.6515 6.82768 24.7554 6.82544C25.0312 6.84375 25.0312 6.84375 25.3359 7.03125C25.5029 7.31742 25.581 7.52727 25.5549 7.86145C25.3321 8.67694 24.4095 9.38061 23.8414 9.98218C23.5096 10.3342 23.1894 10.6949 22.875 11.0625C22.7561 11.2014 22.637 11.3401 22.5176 11.4785C22.4648 11.5403 22.412 11.602 22.3575 11.6657C22.1313 11.905 22.019 11.9075 21.6797 11.9414C21.3204 11.9349 21.1223 11.8418 20.8572 11.5873C20.6518 11.3651 20.4511 11.14 20.2548 10.9098C20.0242 10.6432 19.7859 10.384 19.5469 10.125C19.1497 9.69293 18.7537 9.26092 18.375 8.8125C18.3206 8.75111 18.2662 8.68972 18.2102 8.62647C17.9541 8.3191 17.7756 8.0772 17.748 7.66992C17.8125 7.3125 17.8125 7.3125 17.9766 7.03125C18.3221 6.81859 18.4657 6.82347 18.8628 6.83203C18.9645 6.83372 19.0661 6.83542 19.1709 6.83716C19.2485 6.83933 19.3262 6.84151 19.4062 6.84375C19.4054 6.77453 19.4046 6.70531 19.4037 6.63399C19.3962 5.98022 19.3905 5.32647 19.3868 4.67267C19.3849 4.33658 19.3822 4.00052 19.378 3.66444C19.3739 3.33984 19.3716 3.01527 19.3707 2.69064C19.3696 2.50712 19.3667 2.32361 19.3638 2.1401C19.3635 1.09488 19.3635 1.09488 19.7812 0.656251C20.2279 0.432904 20.9026 0.533227 21.3991 0.529679ZM20.4375 1.5C20.4066 3.57281 20.3756 5.64563 20.3438 7.78125C19.9106 7.81219 19.4775 7.84313 19.0312 7.875C19.379 8.28854 19.7375 8.69051 20.1035 9.08789C21.1646 10.2406 21.1646 10.2406 21.4277 10.6143C21.4722 10.6694 21.5167 10.7245 21.5625 10.7813C21.7573 10.8033 21.7573 10.8033 21.8756 10.6567C21.9498 10.5676 21.9498 10.5676 22.0254 10.4766C22.3168 10.1335 22.6165 9.79939 22.9219 9.46875C23.6438 8.70597 23.6438 8.70597 24.2812 7.875C23.6316 7.82859 23.6316 7.82859 22.9688 7.78125C22.9378 5.70844 22.9069 3.63563 22.875 1.5C22.0706 1.5 21.2663 1.5 20.4375 1.5Z" fill="#FF7705"></path>
  <path d="M34.5937 28.9687C34.8449 29.3455 34.7958 29.5539 34.7812 30C34.9378 30.0087 34.9378 30.0087 35.0976 30.0176C35.7119 30.0952 36.271 30.3599 36.7031 30.8027C36.7495 30.8781 36.7959 30.9535 36.8437 31.0312C36.8843 31.0912 36.9249 31.1511 36.9667 31.2129C37.0574 31.4848 36.9999 31.6938 36.9374 31.9687C36.7518 32.0306 36.5662 32.0925 36.3749 32.1562C35.9062 31.6875 35.9062 31.6875 35.7363 31.4883C35.472 31.2414 35.472 31.2414 34.7812 31.0312C34.7812 31.6191 34.7812 32.2069 34.7812 32.8125C35.0596 32.8744 35.3381 32.9362 35.6249 33C36.2078 33.2349 36.585 33.5056 36.9374 34.0312C37.0937 34.5 37.0852 34.9019 36.8906 35.3555C36.5944 35.8955 36.1226 36.1105 35.5605 36.3105C35.2883 36.367 35.0576 36.3917 34.7812 36.375C34.7851 36.4929 34.7889 36.6109 34.7929 36.7324C34.8036 37.0585 34.7868 37.1167 34.5937 37.4062C34.3059 37.443 34.1143 37.4506 33.8554 37.3125C33.6839 37.0075 33.733 36.7206 33.7499 36.375C33.6977 36.3658 33.6455 36.3566 33.5917 36.3472C32.6436 36.1614 32.1071 35.8604 31.5585 35.0625C31.4747 34.7943 31.5324 34.5822 31.5937 34.3125C31.7793 34.2506 31.9649 34.1887 32.1562 34.125C32.3931 34.3619 32.6283 34.5974 32.8535 34.8457C33.1159 35.1116 33.1159 35.1116 33.6562 35.25C33.6562 34.7241 33.6562 34.1981 33.6562 33.6562C33.4841 33.606 33.312 33.5557 33.1347 33.5039C32.5447 33.3049 32.0955 33.0891 31.7698 32.5422C31.5721 32.0939 31.538 31.6868 31.6874 31.2187C31.9317 30.6712 32.3244 30.4249 32.8579 30.1813C33.1613 30.0687 33.4277 30.021 33.7499 30C33.7441 29.882 33.7383 29.7641 33.7324 29.6426C33.7343 29.2778 33.7343 29.2778 33.8554 29.0625C34.1143 28.9244 34.3059 28.932 34.5937 28.9687ZM32.8124 31.4062C32.6652 31.6479 32.6652 31.6479 32.6249 31.875C32.9967 32.2746 32.9967 32.2746 33.4687 32.5312C33.5615 32.5312 33.6543 32.5312 33.7499 32.5312C33.7499 32.0362 33.7499 31.5412 33.7499 31.0312C33.4042 31.0312 33.0959 31.2183 32.8124 31.4062ZM34.7812 33.8437C34.7812 34.3387 34.7812 34.8337 34.7812 35.3437C35.4142 35.2745 35.4142 35.2745 35.9062 34.9687C35.9893 34.7258 35.9893 34.7258 35.9999 34.5C35.6174 34.1534 35.2627 34.007 34.7812 33.8437Z" fill="#FF7705"></path>
  <path d="M21.762 13.7168C22.0315 13.7812 22.0315 13.7812 22.1253 13.875C22.132 14.0331 22.1332 14.1914 22.1311 14.3496C22.1303 14.4358 22.1295 14.5219 22.1286 14.6107C22.1275 14.6773 22.1264 14.7439 22.1253 14.8125C22.2105 14.8129 22.2105 14.8129 22.2974 14.8132C22.9779 14.8446 23.4696 15.0386 24.0003 15.4687C24.2036 15.6926 24.2668 15.8305 24.3753 16.125C24.3519 16.4941 24.3519 16.4941 24.2815 16.7812C23.9769 16.8574 23.9769 16.8574 23.6253 16.875C23.4144 16.6641 23.4144 16.6641 23.2503 16.4062C22.9367 16.0539 22.9367 16.0539 22.219 15.8437C22.219 16.4316 22.219 17.0194 22.219 17.625C22.4356 17.6559 22.6522 17.6869 22.8753 17.7187C23.5468 17.963 24.0495 18.2859 24.3753 18.9375C24.4468 19.5791 24.3932 20.0142 24.0003 20.5312C23.5229 20.9609 22.7696 21.1875 22.1253 21.1875C22.1286 21.2462 22.1318 21.305 22.1352 21.3655C22.1377 21.4421 22.1403 21.5187 22.1429 21.5977C22.1478 21.7119 22.1478 21.7119 22.1528 21.8284C22.1437 21.8953 22.1346 21.9623 22.1253 22.0312C21.844 22.2187 21.844 22.2187 21.5511 22.1895C21.2815 22.125 21.2815 22.125 21.1878 22.0312C21.181 21.8732 21.1799 21.7148 21.1819 21.5566C21.1828 21.4705 21.1836 21.3843 21.1845 21.2955C21.1856 21.2289 21.1867 21.1624 21.1878 21.0937C21.066 21.0879 20.9442 21.0821 20.8186 21.0762C20.1773 21.0034 19.6395 20.7254 19.219 20.2324C18.9357 19.834 18.9114 19.6167 18.9378 19.125C19.1253 18.9375 19.1253 18.9375 19.3831 18.8789C19.6878 18.9375 19.6878 18.9375 19.8167 19.092C19.8592 19.1571 19.9018 19.2221 19.9456 19.2891C20.2704 19.7788 20.6389 19.8845 21.1878 20.0625C21.1878 19.5056 21.1878 18.9487 21.1878 18.375C20.8629 18.3286 20.8629 18.3286 20.5315 18.2812C19.86 18.037 19.3573 17.7141 19.0315 17.0625C18.9722 16.5307 18.9788 16.066 19.2817 15.6123C19.6433 15.1966 20.0895 14.9379 20.6253 14.8125C20.9417 14.8008 20.9417 14.8008 21.1878 14.8125C21.1845 14.747 21.1813 14.6815 21.1779 14.614C21.1754 14.5287 21.1728 14.4434 21.1702 14.3555C21.1653 14.2282 21.1653 14.2282 21.1603 14.0984C21.1694 14.0247 21.1785 13.9509 21.1878 13.875C21.469 13.6875 21.469 13.6875 21.762 13.7168ZM20.1565 16.2187C20.0579 16.5119 20.0579 16.5119 20.0628 16.7812C20.4524 17.1354 20.6376 17.1865 21.1878 17.3437C21.1878 16.8487 21.1878 16.3537 21.1878 15.8437C20.7516 15.8437 20.4863 15.9324 20.1565 16.2187ZM22.1253 18.6562C22.1253 19.1512 22.1253 19.6462 22.1253 20.1562C22.7042 20.0615 22.7042 20.0615 23.2151 19.7988C23.3653 19.6002 23.3653 19.6002 23.344 19.3535C23.1969 18.9949 22.9775 18.8911 22.6351 18.7324C22.4022 18.6414 22.4022 18.6414 22.1253 18.6562Z" fill="#FF7705"></path>
</svg>
