<?xml version="1.0" encoding="UTF-8"?>
<svg xmlns="http://www.w3.org/2000/svg" width="48" height="48" viewBox="0 0 48 48" fill="none">
  <g clip-path="url(#clip0_3750_1225)">
    <path d="M24.9255 -0.0292969C25.0374 -0.0308679 25.1493 -0.032439 25.2646 -0.0340576C25.8138 0.0228247 26.1624 0.237972 26.5133 0.65625C26.5681 0.720059 26.6228 0.783867 26.6792 0.849609C27.0442 1.34829 26.963 2.03886 26.9059 2.625C26.7148 3.16467 26.3757 3.47769 25.8747 3.75C25.7819 3.78094 25.689 3.81188 25.5934 3.84375C25.5625 5.79281 25.5315 7.74188 25.4997 9.75C25.9019 9.75 26.304 9.75 26.7184 9.75C27.0604 9.78976 27.3936 9.8333 27.7321 9.89062C27.816 9.90404 27.9 9.91745 27.9864 9.93127C28.1889 9.96376 28.3912 9.99738 28.5934 10.0312C28.5875 9.84897 28.5875 9.84897 28.5815 9.663C28.5679 9.21035 28.5593 8.75771 28.5522 8.30491C28.5485 8.10929 28.5434 7.91369 28.5368 7.71815C28.5277 7.43627 28.5235 7.15468 28.5202 6.87268C28.5163 6.78584 28.5124 6.699 28.5085 6.60952C28.5082 6.24793 28.5135 6.00485 28.7463 5.71749C28.9382 5.54895 29.1361 5.39892 29.3434 5.25C29.4386 5.16811 29.5326 5.08486 29.625 4.99988C29.7108 4.92193 29.7966 4.84398 29.885 4.76367C30.0294 4.62859 30.173 4.49284 30.3161 4.35649C30.4137 4.2647 30.5125 4.1742 30.6126 4.08504C31.2543 3.51229 31.2543 3.51229 31.5752 2.72974C31.5988 2.36043 31.5988 2.36043 31.5819 2.0105C31.5992 1.52447 31.7803 1.23178 32.0973 0.873047C32.5509 0.473456 32.851 0.33586 33.4626 0.339844C33.5736 0.339119 33.6847 0.338394 33.7991 0.337646C34.3454 0.400326 34.6948 0.614337 35.0446 1.03125C35.0993 1.09506 35.1541 1.15887 35.2105 1.22461C35.5755 1.72329 35.4943 2.41386 35.4372 3C35.246 3.53967 34.907 3.85269 34.4059 4.125C34.0808 4.23338 33.8227 4.23119 33.4801 4.23047C33.3663 4.23071 33.2525 4.23095 33.1352 4.2312C32.8122 4.21875 32.8122 4.21875 32.5906 4.14132C32.3231 4.09659 32.3231 4.09659 32.0881 4.31792C31.9958 4.41102 31.9049 4.50564 31.8153 4.60144C31.7667 4.65107 31.7181 4.7007 31.668 4.75183C31.5129 4.91076 31.3598 5.07149 31.2067 5.23242C31.0526 5.39193 30.8981 5.55105 30.7434 5.71C30.6472 5.80902 30.5515 5.90844 30.4563 6.0083C30.2501 6.2232 30.0614 6.39633 29.8122 6.5625C29.7872 6.84851 29.7796 7.11527 29.7847 7.40112C29.7851 7.48409 29.7855 7.56706 29.7859 7.65255C29.7875 7.91813 29.791 8.18365 29.7946 8.44922C29.796 8.62903 29.7973 8.80884 29.7984 8.98865C29.8015 9.42996 29.8064 9.87122 29.8122 10.3125C29.8671 10.3307 29.922 10.3489 29.9785 10.3676C31.0975 10.7394 32.1515 11.1536 33.1872 11.7188C33.2861 11.7717 33.3851 11.8246 33.4871 11.8792C35.4502 12.9723 37.151 14.6002 38.3434 16.5C38.396 16.5833 38.396 16.5833 38.4496 16.6683C39.3005 18.0399 40.2657 19.9094 40.2184 21.5625C40.2803 21.5625 40.3422 21.5625 40.4059 21.5625C41.2427 26.0813 39.0882 30.681 37.4231 34.7567C37.2923 35.0773 37.1615 35.398 37.0309 35.7188C36.9964 35.8034 36.9619 35.8881 36.9264 35.9754C36.8233 36.229 36.7207 36.4829 36.6182 36.7368C36.5715 36.8516 36.5715 36.8515 36.5238 36.9686C35.7965 38.7773 35.8574 40.6828 36.2809 42.5625C36.2965 42.6317 36.3121 42.7009 36.3282 42.7722C36.6758 44.2565 37.247 45.6365 38.112 46.894C38.2726 47.1999 38.2986 47.378 38.2497 47.7188C38.1552 47.8737 38.1552 47.8737 37.9684 48C37.7028 48.0276 37.4577 48.0379 37.192 48.0357C37.0718 48.0364 37.0718 48.0364 36.9492 48.037C36.6797 48.0382 36.4103 48.0373 36.1408 48.0364C35.948 48.0368 35.7553 48.0373 35.5625 48.0379C35.0382 48.0392 34.5139 48.0387 33.9895 48.0378C33.4417 48.0371 32.8939 48.0377 32.3461 48.0382C31.4261 48.0387 30.5061 48.038 29.5862 48.0367C28.5212 48.0351 27.4563 48.0356 26.3914 48.0372C25.4784 48.0385 24.5653 48.0386 23.6522 48.0379C23.1064 48.0375 22.5605 48.0374 22.0146 48.0383C21.5016 48.0391 20.9886 48.0386 20.4755 48.037C20.2868 48.0366 20.0981 48.0367 19.9093 48.0373C19.6526 48.0381 19.3959 48.0371 19.1392 48.0357C19.0259 48.0367 19.0259 48.0367 18.9104 48.0376C18.703 48.0354 18.703 48.0354 18.3747 48C18.1404 47.6485 18.1503 47.3752 18.1872 46.9688C18.2439 46.7227 18.3055 46.4844 18.3747 46.2422C18.6555 45.1521 18.8254 43.7687 18.2985 42.7295C17.9816 42.2542 17.6378 42.1498 17.1065 42.0374C16.7408 41.9784 16.3842 41.9823 16.0148 41.9916C15.8522 41.9935 15.6896 41.9954 15.527 41.9973C15.2755 42.0013 15.024 42.0058 14.7724 42.0109C12.128 42.0603 12.128 42.0603 11.0622 41.25C10.6364 40.8397 10.245 40.4385 10.1935 39.8309C10.194 39.7211 10.1945 39.6112 10.195 39.498C10.1945 39.3894 10.194 39.2808 10.1935 39.1688C10.2142 38.873 10.2583 38.6812 10.3448 38.4056C10.4565 37.9369 10.3046 37.6744 10.0604 37.2751C10.0101 37.1985 9.95974 37.1219 9.90788 37.043C9.81043 36.8871 9.71314 36.7311 9.61601 36.575C9.5721 36.5072 9.52819 36.4394 9.48296 36.3696C9.20656 35.9049 9.23785 35.3988 9.28092 34.875C9.40671 34.5794 9.5118 34.4463 9.76139 34.248C10.0338 33.912 10.067 33.5195 10.0309 33.0938C9.89846 32.7813 9.82048 32.6554 9.50578 32.5203C9.41224 32.4968 9.3187 32.4734 9.22233 32.4492C8.59187 32.2589 8.05491 31.9819 7.66667 31.4319C7.40774 30.9068 7.42716 30.3539 7.60514 29.8125C7.8591 29.2056 8.24583 28.758 8.75907 28.3546C10.8469 26.4229 11.0659 22.5752 11.1911 19.9219C11.3411 17.5929 12.3625 15.5482 13.9684 13.875C14.0396 13.7979 14.1108 13.7208 14.1841 13.6414C15.7409 12.0056 17.8947 10.8932 20.0622 10.3125C20.124 10.3125 20.1859 10.3125 20.2497 10.3125C20.2548 9.79036 20.2551 9.26853 20.2508 8.74638C20.2501 8.56898 20.2506 8.39157 20.2526 8.21418C20.3016 7.22223 20.3016 7.22223 19.9975 6.31114C19.8084 6.14705 19.6245 6.02712 19.4059 5.90625C19.2635 5.76744 19.1225 5.62711 18.984 5.48438C18.4373 4.93109 17.8492 4.43211 17.2497 3.9375C17.1569 3.98391 17.1569 3.98391 17.0622 4.03125C16.359 4.09585 15.7267 4.13679 15.1447 3.69653C14.7574 3.33862 14.4661 2.97293 14.4057 2.44189C14.3981 1.8049 14.3943 1.25926 14.8122 0.75C15.4075 0.203756 15.8762 0.0578126 16.6802 0.0684814C17.1927 0.113417 17.5371 0.271537 17.8858 0.650757C18.103 0.929652 18.2623 1.16301 18.3747 1.5C18.3531 1.65267 18.3531 1.65267 18.3311 1.80842C18.2662 2.28437 18.2087 2.76339 18.4973 3.17478C18.8507 3.54146 19.2591 3.84912 19.6572 4.16542C20.5503 4.88981 21.3965 5.62019 21.5535 6.80933C21.6315 7.88609 21.532 8.96562 21.3747 10.0312C21.4734 10.0109 21.5721 9.99064 21.6739 9.96973C21.8105 9.94329 21.947 9.91693 22.0837 9.89062C22.1479 9.87721 22.2121 9.8638 22.2783 9.84998C22.9746 9.71883 23.669 9.73738 24.3747 9.75C24.3798 8.98797 24.3809 8.22608 24.3769 7.46405C24.3751 7.11017 24.3748 6.75641 24.3776 6.40253C24.3802 6.06085 24.3792 5.71935 24.3757 5.37767C24.375 5.24749 24.3756 5.11729 24.3776 4.98712C24.4163 4.27421 24.4163 4.27421 24.1174 3.66727C23.9226 3.54059 23.9226 3.54059 23.7186 3.45912C23.4046 3.31837 23.2602 3.08853 23.0622 2.8125C22.8826 2.27373 22.8544 1.61441 23.0567 1.07886C23.5019 0.339213 24.066 -0.0265244 24.9255 -0.0292969ZM24.3278 1.36523C24.1324 1.68271 24.1349 1.8838 24.1872 2.25C24.314 2.49405 24.314 2.49405 24.5622 2.625C24.9414 2.70039 25.2164 2.68484 25.5465 2.47852C25.7419 2.16104 25.7395 1.95995 25.6872 1.59375C25.5603 1.3497 25.5603 1.3497 25.3122 1.21875C24.9329 1.14336 24.6579 1.15891 24.3278 1.36523ZM15.7965 1.45312C15.5977 1.78461 15.5818 2.06053 15.6559 2.4375C15.7809 2.6875 15.7809 2.6875 16.0309 2.8125C16.4079 2.88666 16.6838 2.87077 17.0153 2.67188C17.2142 2.34039 17.2301 2.06447 17.1559 1.6875C17.0309 1.4375 17.0309 1.4375 16.7809 1.3125C16.404 1.23834 16.128 1.25423 15.7965 1.45312ZM32.9587 1.74023C32.7556 2.05708 32.7594 2.25561 32.8122 2.625C32.945 2.86719 32.945 2.86719 33.1872 3C33.5566 3.05277 33.7551 3.05662 34.0719 2.85352C34.275 2.53667 34.2712 2.33814 34.2184 1.96875C34.0856 1.72656 34.0856 1.72656 33.8434 1.59375C33.474 1.54098 33.2755 1.53713 32.9587 1.74023ZM22.1364 11.1094C22.0245 11.1295 22.0245 11.1295 21.9104 11.15C21.7317 11.1823 21.5531 11.216 21.3747 11.25C21.3712 11.3685 21.3712 11.3685 21.3676 11.4895C21.3587 11.7818 21.3493 12.0741 21.3398 12.3664C21.3357 12.493 21.3318 12.6197 21.3281 12.7464C21.3227 12.9282 21.3166 13.1099 21.3106 13.2916C21.3054 13.4558 21.3054 13.4558 21.3002 13.6234C21.2809 13.875 21.2809 13.875 21.1872 13.9688C21.0173 13.9812 21.0173 13.9812 20.8122 13.9805C20.7445 13.9807 20.6768 13.981 20.6071 13.9812C20.4372 13.9688 20.4372 13.9688 20.3434 13.875C20.3286 13.7082 20.3199 13.541 20.3138 13.3737C20.3098 13.2724 20.3059 13.1712 20.3019 13.067C20.2982 12.9604 20.2945 12.8539 20.2907 12.7441C20.2866 12.6372 20.2826 12.5304 20.2784 12.4202C20.2684 12.1552 20.2589 11.8901 20.2497 11.625C19.7003 11.6769 19.2488 11.8347 18.7438 12.0527C18.6267 12.103 18.6267 12.103 18.5072 12.1542C17.3758 12.6494 16.4047 13.2492 15.4684 14.0625C15.4113 14.1061 15.3541 14.1498 15.2952 14.1947C13.6447 15.4706 12.6815 17.6769 12.4113 19.6959C12.3617 20.1925 12.3245 20.6899 12.2868 21.1875C12.0646 24.1095 11.6578 27.3228 9.39108 29.4156C9.07881 29.7084 8.87969 29.9779 8.71842 30.375C8.71842 30.6877 8.77613 30.8027 8.9821 31.0371C9.2731 31.214 9.51972 31.3008 9.84342 31.4004C10.3666 31.5666 10.6957 31.7222 10.9607 32.2262C11.2808 32.9729 11.3234 33.7012 11.0658 34.4703C10.9685 34.6874 10.8573 34.8526 10.7106 35.0391C10.471 35.3188 10.471 35.3188 10.5136 35.6115C10.6009 35.9337 10.7236 36.1516 10.9098 36.4277C11.3963 37.1575 11.6975 37.6305 11.6247 38.5312C11.5632 38.7503 11.5007 38.9691 11.4372 39.1875C11.3887 39.5895 11.3799 39.7644 11.6188 40.0957C12.2179 40.5481 12.846 40.7478 13.5876 40.8105C13.6663 40.818 13.745 40.8255 13.8261 40.8333C14.619 40.8964 15.4072 40.861 16.1999 40.8077C17.1272 40.752 17.9797 40.7927 18.7493 41.3599C19.5032 42.0476 19.7973 42.9781 19.8747 43.9688C19.8747 44.8125 19.8747 44.8125 19.5934 46.875C25.1931 46.875 30.7928 46.875 36.5622 46.875C36.2837 46.2562 36.0053 45.6375 35.7184 45C35.0872 43.3167 34.7658 41.5821 34.7575 39.7852C34.7546 39.6323 34.7546 39.6323 34.7516 39.4764C34.7456 38.2066 35.0723 37.0972 35.5485 35.9297C35.5951 35.8131 35.6417 35.6966 35.6883 35.58C35.9303 34.9769 36.1844 34.381 36.4567 33.791C38.407 29.5493 40.2668 24.4552 38.6345 19.8552C38.0966 18.4239 37.3731 17.0972 36.3747 15.9375C36.2708 15.8142 36.2708 15.8142 36.1648 15.6885C34.4679 13.7354 32.2027 12.3432 29.7184 11.625C29.7149 11.7265 29.7149 11.7265 29.7113 11.8301C29.7005 12.1348 29.6889 12.4395 29.6774 12.7441C29.6737 12.8507 29.67 12.9572 29.6662 13.067C29.6623 13.1682 29.6584 13.2694 29.6543 13.3737C29.6492 13.5143 29.6492 13.5143 29.6439 13.6578C29.6247 13.875 29.6247 13.875 29.5309 13.9688C29.361 13.9812 29.361 13.9812 29.1559 13.9805C29.0882 13.9807 29.0206 13.981 28.9508 13.9812C28.7809 13.9688 28.7809 13.9688 28.6872 13.875C28.6723 13.6877 28.6636 13.4999 28.6575 13.3121C28.6516 13.1413 28.6516 13.1413 28.6456 12.967C28.6419 12.847 28.6382 12.7271 28.6344 12.6035C28.6304 12.4832 28.6263 12.3629 28.6222 12.239C28.6122 11.9406 28.6026 11.6422 28.5934 11.3438C27.5197 11.1055 26.6098 10.9688 25.4997 10.9688C25.4687 11.9278 25.4378 12.8869 25.4059 13.875C25.0965 13.875 24.7872 13.875 24.4684 13.875C24.4375 12.9159 24.4065 11.9569 24.3747 10.9688C23.2372 10.9653 23.2372 10.9653 22.1364 11.1094Z" fill="#FF7705"></path>
    <path d="M24.1787 17.018C24.2425 17.0174 24.3063 17.0168 24.3721 17.0162C24.5074 17.0152 24.6426 17.0144 24.7779 17.0138C24.9843 17.0125 25.1907 17.0092 25.3972 17.0059C25.5286 17.0051 25.66 17.0045 25.7914 17.004C25.853 17.0027 25.9146 17.0014 25.9781 17C26.2796 17.0011 26.4266 17.013 26.6876 17.1786C26.9299 17.4324 26.9218 17.5832 26.9202 17.9273C26.9199 18.0148 26.9197 18.1023 26.9194 18.1925C26.9188 18.2842 26.9182 18.376 26.9175 18.4705C26.9172 18.5629 26.9168 18.6552 26.9165 18.7504C26.9156 18.979 26.9144 19.2077 26.9128 19.4363C27.0181 19.452 27.0181 19.452 27.1255 19.4679C27.4369 19.5249 27.664 19.6648 27.9355 19.8217C28.108 19.9066 28.108 19.9066 28.2583 19.8306C28.4195 19.7325 28.5356 19.6299 28.6669 19.4947C28.7126 19.4481 28.7583 19.4015 28.8055 19.3536C28.8524 19.3051 28.8993 19.2566 28.9476 19.2066C29.0414 19.1102 29.1353 19.014 29.2295 18.918C29.2708 18.8753 29.3121 18.8327 29.3546 18.7887C29.578 18.578 29.8026 18.5708 30.0987 18.5779C30.322 18.6171 30.4026 18.6792 30.5671 18.8324C30.6186 18.8801 30.6702 18.9277 30.7233 18.9768C30.7778 19.0295 30.8323 19.0821 30.8885 19.1363C30.9458 19.1915 31.003 19.2467 31.062 19.3036C31.2416 19.4793 31.4193 19.6568 31.5965 19.8349C31.6575 19.8956 31.7186 19.9564 31.7815 20.019C31.8395 20.0771 31.8975 20.1351 31.9572 20.195C32.0095 20.2474 32.0619 20.2999 32.1158 20.3539C32.3449 20.601 32.3702 20.8376 32.3698 21.1666C32.2509 21.6339 31.8284 21.9629 31.4886 22.2868C31.3631 22.4113 31.2384 22.5367 31.1136 22.6619C31.1281 22.7082 31.1426 22.7545 31.1575 22.8023C31.1771 22.8658 31.1966 22.9293 31.2167 22.9948C31.2359 23.0566 31.255 23.1184 31.2747 23.182C31.3578 23.4813 31.4235 23.7835 31.4886 24.0872C31.5777 24.0848 31.5777 24.0848 31.6686 24.0824C31.9384 24.0762 32.2081 24.0723 32.4779 24.0684C32.5713 24.0659 32.6648 24.0634 32.7611 24.0608C32.8963 24.0593 32.8963 24.0593 33.0343 24.0579C33.1587 24.0555 33.1587 24.0555 33.2855 24.0531C33.566 24.0949 33.6878 24.1917 33.8891 24.3872C34.0123 24.6338 33.9795 24.9075 33.982 25.1787C33.9826 25.2425 33.9832 25.3063 33.9838 25.3721C33.9848 25.5074 33.9856 25.6426 33.9862 25.7779C33.9875 25.9843 33.9908 26.1907 33.9941 26.3972C33.9949 26.5286 33.9955 26.66 33.996 26.7914C33.9973 26.853 33.9986 26.9146 34 26.9781C33.9989 27.2796 33.987 27.4266 33.8214 27.6876C33.5635 27.9338 33.4063 27.9218 33.0563 27.9202C32.9654 27.9199 32.8745 27.9197 32.7809 27.9194C32.6855 27.9188 32.5902 27.9182 32.4919 27.9175C32.396 27.9172 32.3001 27.9168 32.2013 27.9165C31.9637 27.9156 31.7262 27.9144 31.4886 27.9128C31.4793 27.9583 31.4699 28.0037 31.4603 28.0505C31.4475 28.1105 31.4347 28.1706 31.4215 28.2325C31.4029 28.3215 31.4029 28.3215 31.3838 28.4123C31.3411 28.5782 31.2851 28.7195 31.212 28.8739C31.1081 29.1263 31.0951 29.1711 31.1886 29.4131C31.2915 29.5456 31.2915 29.5456 31.423 29.6669C31.4698 29.7126 31.5166 29.7583 31.5648 29.8055C31.614 29.8524 31.6631 29.8993 31.7137 29.9476C31.8107 30.0414 31.9076 30.1353 32.0044 30.2295C32.0475 30.2708 32.0906 30.3121 32.135 30.3546C32.3054 30.5331 32.3345 30.6824 32.3513 30.9227C32.3443 31.2169 32.2926 31.3524 32.0926 31.5671C32.0211 31.6444 32.0211 31.6444 31.9481 31.7233C31.8955 31.7778 31.8429 31.8323 31.7887 31.8885C31.7335 31.9458 31.6782 32.003 31.6213 32.062C31.4456 32.2416 31.2682 32.4193 31.0901 32.5965C31.0294 32.6575 30.9686 32.7186 30.906 32.7815C30.8189 32.8685 30.8189 32.8685 30.73 32.9572C30.6776 33.0095 30.6251 33.0619 30.5711 33.1158C30.3295 33.3398 30.1156 33.3533 29.7956 33.3487C29.3786 33.2689 29.1156 32.899 28.8389 32.6009C28.7804 32.5391 28.7219 32.4773 28.6616 32.4136C28.6087 32.3548 28.5558 32.296 28.5013 32.2355C28.3477 32.0938 28.3477 32.0938 28.1567 32.1227C27.8776 32.2177 27.6023 32.3197 27.3272 32.4256C27.1379 32.4886 27.1379 32.4886 26.9128 32.4886C26.9144 32.548 26.916 32.6074 26.9176 32.6686C26.9238 32.9384 26.9277 33.2081 26.9316 33.4779C26.9341 33.5713 26.9366 33.6648 26.9392 33.7611C26.9402 33.8513 26.9411 33.9414 26.9421 34.0343C26.9437 34.1172 26.9453 34.2001 26.9469 34.2855C26.9051 34.566 26.8083 34.6878 26.6128 34.8891C26.3662 35.0123 26.0925 34.9795 25.8213 34.982C25.7575 34.9826 25.6937 34.9832 25.6279 34.9838C25.4926 34.9848 25.3574 34.9856 25.2221 34.9862C25.0157 34.9875 24.8093 34.9908 24.6028 34.9941C24.4714 34.9949 24.34 34.9955 24.2086 34.996C24.147 34.9973 24.0854 34.9986 24.0219 35C23.7204 34.9989 23.5734 34.987 23.3124 34.8214C23.0662 34.5635 23.0782 34.4063 23.0798 34.0563C23.0802 33.92 23.0802 33.92 23.0806 33.7809C23.0815 33.6378 23.0815 33.6378 23.0825 33.4919C23.0828 33.396 23.0832 33.3001 23.0835 33.2013C23.0844 32.9637 23.0856 32.7262 23.0872 32.4886C23.0085 32.4797 22.9299 32.4707 22.8489 32.4614C22.5276 32.4079 22.2791 32.2995 21.9869 32.1619C21.8165 32.0987 21.8165 32.0987 21.6648 32.1546C21.4132 32.3339 21.21 32.5597 20.9984 32.783C20.7027 33.0886 20.4283 33.343 19.9882 33.3607C19.7024 33.3451 19.568 33.2857 19.3588 33.092C19.3071 33.0444 19.2554 32.9968 19.2022 32.9478C18.9077 32.6651 18.6165 32.3795 18.3285 32.0901C18.2674 32.0294 18.2064 31.9686 18.1435 31.906C18.0565 31.8189 18.0565 31.8189 17.9678 31.73C17.9154 31.6776 17.8631 31.6251 17.8092 31.5711C17.5851 31.3294 17.5715 31.1154 17.5766 30.7953C17.6426 30.448 17.889 30.25 18.1363 30.0132C18.2029 29.9458 18.2695 29.8784 18.3382 29.809C18.5195 29.6255 18.7024 29.4438 18.8864 29.2631C18.8539 29.1845 18.8214 29.1058 18.788 29.0248C18.7458 28.9214 18.7036 28.818 18.6614 28.7145C18.6399 28.6628 18.6184 28.611 18.5963 28.5576C18.5047 28.3318 18.4363 28.159 18.4363 27.9128C18.3792 27.9144 18.3221 27.916 18.2633 27.9176C18.0037 27.9238 17.7442 27.9277 17.4846 27.9316C17.3947 27.9341 17.3049 27.9366 17.2122 27.9392C17.1255 27.9402 17.0387 27.9411 16.9493 27.9421C16.8695 27.9437 16.7898 27.9453 16.7076 27.9469C16.4319 27.9045 16.3095 27.8044 16.1109 27.6128C15.9877 27.3662 16.0205 27.0925 16.018 26.8213C16.0174 26.7575 16.0168 26.6937 16.0162 26.6279C16.0152 26.4926 16.0144 26.3574 16.0138 26.2221C16.0125 26.0157 16.0092 25.8093 16.0059 25.6028C16.0051 25.4714 16.0045 25.34 16.004 25.2086C16.0027 25.147 16.0014 25.0854 16 25.0219C16.0011 24.7204 16.013 24.5734 16.1786 24.3124C16.4324 24.0701 16.5832 24.0782 16.9273 24.0798C17.0586 24.0802 17.0586 24.0802 17.1925 24.0806C17.2842 24.0812 17.376 24.0818 17.4705 24.0825C17.5629 24.0828 17.6552 24.0832 17.7504 24.0835C17.979 24.0844 18.2077 24.0856 18.4363 24.0872C18.4497 24.0197 18.4497 24.0197 18.4632 23.9509C18.5416 23.5732 18.639 23.2783 18.8407 22.9488C18.9035 22.81 18.9035 22.81 18.8294 22.6692C18.7325 22.5052 18.6311 22.3905 18.4947 22.2581C18.4481 22.2124 18.4015 22.1667 18.3536 22.1195C18.3051 22.0726 18.2566 22.0257 18.2066 21.9774C18.1102 21.8836 18.014 21.7897 17.918 21.6955C17.854 21.6336 17.854 21.6336 17.7887 21.5704C17.578 21.347 17.5708 21.1224 17.5779 20.8263C17.6171 20.603 17.6792 20.5224 17.8324 20.3579C17.8801 20.3064 17.9277 20.2548 17.9768 20.2017C18.0295 20.1472 18.0821 20.0926 18.1363 20.0364C18.1915 19.9792 18.2467 19.922 18.3036 19.863C18.4793 19.6834 18.6568 19.5057 18.8349 19.3285C18.926 19.2369 18.926 19.2369 19.019 19.1435C19.0771 19.0855 19.1351 19.0275 19.195 18.9678C19.2474 18.9154 19.2999 18.8631 19.3539 18.8092C19.5956 18.5851 19.8096 18.5715 20.1297 18.5766C20.477 18.6426 20.675 18.889 20.9118 19.1363C20.9792 19.2029 21.0466 19.2695 21.116 19.3382C21.2994 19.5195 21.4812 19.7024 21.6619 19.8864C22.0133 19.7726 22.3517 19.6399 22.6919 19.4967C22.8621 19.4363 22.8621 19.4363 23.0872 19.4363C23.0848 19.3507 23.0848 19.3507 23.0824 19.2633C23.0762 19.0037 23.0723 18.7442 23.0684 18.4846C23.0659 18.3947 23.0634 18.3049 23.0608 18.2122C23.0593 18.0821 23.0593 18.0821 23.0579 17.9493C23.0555 17.8296 23.0555 17.8296 23.0531 17.7076C23.0955 17.4319 23.1956 17.3095 23.3872 17.1109C23.6338 16.9877 23.9075 17.0205 24.1787 17.018ZM23.9873 17.9361C23.9626 18.654 23.9378 19.3718 23.9123 20.1115C23.1622 20.4115 23.1622 20.4115 22.8533 20.534C22.8063 20.5527 22.7593 20.5713 22.7109 20.5905C22.6162 20.6282 22.5215 20.6657 22.4267 20.7031C22.1471 20.8141 22.1471 20.8141 21.8817 20.9548C21.6464 21.0472 21.527 21.0174 21.2868 20.9366C21.0723 20.7686 20.8879 20.5763 20.7008 20.3787C20.6498 20.3266 20.5988 20.2746 20.5462 20.2209C20.1755 19.839 20.1755 19.839 20.0866 19.6614C19.8502 19.7659 19.6919 19.8883 19.5111 20.0722C19.4613 20.1225 19.4115 20.1728 19.3602 20.2246C19.3091 20.277 19.2579 20.3294 19.2052 20.3834C19.1529 20.4364 19.1006 20.4894 19.0467 20.544C18.9179 20.6745 18.7895 20.8054 18.6614 20.9366C18.7649 21.1716 18.8831 21.3234 19.0696 21.4989C19.1195 21.547 19.1694 21.5951 19.2209 21.6447C19.3261 21.7446 19.4316 21.8442 19.5374 21.9436C19.5872 21.9918 19.6371 22.04 19.6884 22.0896C19.7342 22.1329 19.78 22.1762 19.8272 22.2208C19.9628 22.3956 19.9944 22.5171 20.0116 22.7369C19.9686 22.8823 19.9686 22.8823 19.8956 23.0209C19.8693 23.0731 19.843 23.1254 19.8159 23.1792C19.7876 23.2329 19.7594 23.2865 19.7303 23.3417C19.4555 23.8653 19.3358 24.3149 19.1865 24.9123C18.4438 24.9371 17.7012 24.9618 16.9361 24.9873C16.9361 25.6557 16.9361 26.3241 16.9361 27.0127C17.0851 27.0155 17.2341 27.0183 17.3876 27.0212C17.5321 27.0248 17.6766 27.0285 17.8211 27.0324C17.9707 27.0361 18.1204 27.0387 18.2701 27.0412C18.4111 27.0452 18.4111 27.0452 18.555 27.0493C18.6418 27.0513 18.7286 27.0532 18.8181 27.0553C19.0364 27.0877 19.0364 27.0877 19.1746 27.19C19.2998 27.3668 19.3416 27.5447 19.3974 27.7534C19.5292 28.2153 19.7146 28.6232 19.9384 29.0474C20.0116 29.2631 20.0116 29.2631 19.9685 29.4559C19.8468 29.6633 19.7111 29.8275 19.5475 30.0038C19.4877 30.0684 19.428 30.133 19.3664 30.1996C19.1355 30.4418 18.9015 30.6802 18.6614 30.9134C18.7654 31.1474 18.8866 31.3078 19.0669 31.4889C19.1165 31.5387 19.1661 31.5885 19.2172 31.6398C19.269 31.6909 19.3207 31.7421 19.374 31.7948C19.4516 31.8732 19.4516 31.8732 19.5308 31.9533C19.5804 32.0027 19.63 32.0521 19.6811 32.103C19.7492 32.1709 19.7492 32.1709 19.8187 32.2401C19.9302 32.3546 19.9302 32.3546 20.0866 32.3386C20.1966 32.2298 20.1966 32.2298 20.3117 32.0854C20.5328 31.8284 20.7553 31.5737 20.9868 31.3259C21.0456 31.2617 21.1044 31.1975 21.1649 31.1314C21.4274 30.9408 21.5681 30.9455 21.887 30.9884C22.1363 31.0927 22.1363 31.0927 22.3886 31.2322C22.805 31.4553 23.2165 31.6212 23.67 31.759C23.8373 31.8135 23.8373 31.8135 23.9123 31.8885C23.9242 32.0494 23.9312 32.2105 23.936 32.3717C23.9392 32.4696 23.9423 32.5675 23.9456 32.6684C23.9486 32.7726 23.9515 32.8767 23.9545 32.9809C23.9577 33.0854 23.961 33.1898 23.9643 33.2943C23.9723 33.5508 23.9799 33.8074 23.9873 34.0639C24.6557 34.0639 25.3241 34.0639 26.0127 34.0639C26.0374 33.3213 26.0622 32.5787 26.0877 31.8135C26.2548 31.7609 26.4219 31.7083 26.594 31.6541C27.0603 31.5038 27.4837 31.3147 27.9117 31.0736C28.1531 30.9714 28.3025 30.9618 28.5631 30.9884C28.7382 31.1123 28.7382 31.1123 28.9024 31.2837C28.9619 31.3447 29.0214 31.4056 29.0827 31.4683C29.1433 31.5327 29.2039 31.5971 29.2664 31.6635C29.3599 31.7601 29.3599 31.7601 29.4554 31.8587C29.6091 32.0177 29.7617 32.1777 29.9134 32.3386C30.1498 32.2341 30.3081 32.1117 30.4889 31.9278C30.5387 31.8775 30.5885 31.8272 30.6398 31.7754C30.6909 31.723 30.7421 31.6706 30.7948 31.6166C30.8471 31.5636 30.8994 31.5106 30.9533 31.456C31.0821 31.3255 31.2105 31.1946 31.3386 31.0634C31.2325 30.8192 31.106 30.6676 30.9114 30.4873C30.8577 30.4362 30.8041 30.385 30.7488 30.3323C30.6356 30.2258 30.5219 30.1199 30.4077 30.0147C30.004 29.627 30.004 29.627 29.9336 29.339C30.0079 29.0326 30.1316 28.7695 30.2744 28.4895C30.4892 28.0531 30.6719 27.6292 30.8135 27.1627C30.953 27.0232 31.1848 27.0696 31.3717 27.064C31.4696 27.0608 31.5675 27.0577 31.6684 27.0544C31.7726 27.0514 31.8767 27.0485 31.9809 27.0455C32.0854 27.0423 32.1898 27.039 32.2943 27.0357C32.5508 27.0277 32.8074 27.0201 33.0639 27.0127C33.0639 26.3443 33.0639 25.6759 33.0639 24.9873C32.346 24.9626 31.6282 24.9378 30.8885 24.9123C30.74 24.541 30.74 24.541 30.5885 24.1622C30.5249 24.0041 30.4609 23.8463 30.3963 23.6887C30.3668 23.6162 30.3373 23.5438 30.3069 23.4692C30.2197 23.2599 30.2197 23.2599 30.0895 23.0806C29.9469 22.8074 29.9325 22.6672 29.9884 22.3619C30.1599 22.1251 30.3653 21.9321 30.5791 21.7336C30.6351 21.6794 30.6911 21.6251 30.7488 21.5692C31.1564 21.1777 31.1564 21.1777 31.3386 21.0866C31.2341 20.8502 31.1117 20.6919 30.9278 20.5111C30.8775 20.4613 30.8272 20.4115 30.7754 20.3602C30.723 20.3091 30.6706 20.2579 30.6166 20.2052C30.5636 20.1529 30.5106 20.1006 30.456 20.0467C30.3255 19.9179 30.1946 19.7895 30.0634 19.6614C29.7067 19.8241 29.4741 20.0929 29.2081 20.3725C28.9634 20.6247 28.7245 20.8415 28.4131 21.0116C28.164 20.9554 27.9712 20.885 27.738 20.7866C27.64 20.75 27.5418 20.7139 27.4435 20.6782C27.0193 20.5236 27.0193 20.5236 26.8205 20.449C26.7769 20.4328 26.7333 20.4165 26.6883 20.3998C26.4836 20.3137 26.2863 20.2108 26.0877 20.1115C26.0629 19.3936 26.0382 18.6757 26.0127 17.9361C25.3443 17.9361 24.6759 17.9361 23.9873 17.9361Z" fill="#FF7705"></path>
  </g>
  <defs>
    <clipPath id="clip0_3750_1225">
      <rect width="48" height="48" fill="white"></rect>
    </clipPath>
  </defs>
</svg>
