<?xml version="1.0" encoding="UTF-8"?>
<svg xmlns="http://www.w3.org/2000/svg" width="48" height="48" viewBox="0 0 48 48" fill="none">
  <g clip-path="url(#clip0_3750_1243)">
    <path d="M30.9971 2.32837C31.298 2.57485 31.5874 2.83208 31.8752 3.09375C31.9363 3.14705 31.9973 3.20034 32.0602 3.25525C33.9878 5.03702 35.1263 7.86065 35.2621 10.4435C35.3633 13.6481 34.3949 16.5651 32.22 18.9598C31.7255 19.4793 31.1892 19.958 30.6565 20.4375C32.2822 21.2106 33.9087 21.9812 35.5491 22.7227C36.7453 23.2635 37.9381 23.8112 39.1292 24.3633C39.2083 24.3999 39.2875 24.4366 39.369 24.4744C39.7506 24.6511 40.132 24.8284 40.513 25.0066C40.8298 25.1547 41.1479 25.2997 41.4668 25.4433C41.6282 25.5171 41.7897 25.591 41.9512 25.6648C42.0259 25.6978 42.1006 25.7308 42.1776 25.7648C42.6679 25.9911 42.9709 26.2225 43.219 26.7188C43.2413 26.9191 43.2413 26.9191 43.2483 27.1582C43.2518 27.2359 43.2553 27.3136 43.2589 27.3937C43.2042 27.7535 43.0718 28.0328 42.844 28.3125C42.6173 28.4614 42.4261 28.5686 42.1819 28.6758C42.1175 28.7059 42.0531 28.736 41.9868 28.767C41.8477 28.8319 41.7081 28.8961 41.5683 28.9595C41.3302 29.0688 41.0946 29.1827 40.8591 29.2976C40.6985 29.3755 40.5379 29.4534 40.3772 29.5312C40.3005 29.5686 40.2238 29.6059 40.1448 29.6444C40.073 29.6786 40.0011 29.7128 39.9271 29.748C39.8635 29.7786 39.7999 29.8092 39.7344 29.8407C39.5627 29.9062 39.5627 29.9062 39.2815 29.9062C39.2815 29.9681 39.2815 30.03 39.2815 30.0938C39.4005 30.1313 39.4005 30.1313 39.5219 30.1696C40.0506 30.3528 40.5546 30.5914 41.0623 30.8253C41.1914 30.8844 41.3208 30.9429 41.4504 31.0009C41.6394 31.0853 41.8274 31.1716 42.0153 31.2583C42.1829 31.3346 42.1829 31.3346 42.354 31.4124C42.7495 31.6495 43.01 31.9258 43.219 32.3438C43.2688 32.7977 43.2683 33.1725 43.0784 33.5918C42.5034 34.2098 41.6816 34.5219 40.9262 34.8686C40.7445 34.952 40.5632 35.0364 40.382 35.1209C39.4949 35.5312 39.4949 35.5312 39.2815 35.5312C39.2815 35.5931 39.2815 35.655 39.2815 35.7188C39.3951 35.7538 39.5087 35.7888 39.6257 35.825C40.2249 36.0251 40.794 36.2874 41.3674 36.5508C41.5302 36.6235 41.5302 36.6235 41.6963 36.6976C41.8009 36.7456 41.9056 36.7936 42.0134 36.843C42.1549 36.9073 42.1549 36.9073 42.2992 36.973C42.7067 37.208 43.058 37.5175 43.219 37.9688C43.2832 38.4215 43.2677 38.7987 43.0784 39.2168C42.5039 39.8343 41.6929 40.1348 40.9354 40.4718C40.5909 40.6252 40.2474 40.7804 39.9037 40.9354C39.8307 40.9683 39.7577 41.0011 39.6825 41.035C38.8232 41.4225 37.9684 41.8196 37.1135 42.2168C36.7864 42.3687 36.4592 42.5205 36.1321 42.6724C36.0509 42.7101 35.9697 42.7477 35.8861 42.7866C35.0302 43.1838 34.1735 43.5794 33.3167 43.9746C33.2417 44.0092 33.1668 44.0437 33.0897 44.0793C32.7873 44.2188 32.485 44.3582 32.1827 44.4977C31.5688 44.7808 30.9552 45.0642 30.3416 45.3479C29.9594 45.5246 29.577 45.701 29.1942 45.8767C28.5117 46.1902 27.8302 46.5052 27.1529 46.8301C26.8551 46.9726 26.5566 47.1136 26.2579 47.2544C26.1184 47.3207 25.9793 47.3877 25.8405 47.4556C25.0573 47.8385 24.3287 48.1899 23.4377 48C22.9585 47.8319 22.5127 47.6136 22.0608 47.3848C21.9296 47.3204 21.7982 47.2563 21.6667 47.1925C21.4623 47.0932 21.2579 46.9938 21.0538 46.8935C20.4031 46.5741 19.7443 46.2742 19.0832 45.9771C17.9987 45.4895 16.9196 44.9911 15.844 44.4844C14.7867 43.9863 13.7255 43.4978 12.6607 43.016C11.3594 42.427 10.0631 41.8275 8.76836 41.2242C8.08825 40.9076 7.40832 40.5918 6.72058 40.292C6.62411 40.2497 6.52763 40.2074 6.42823 40.1637C6.26035 40.0906 6.09196 40.0187 5.9229 39.9484C5.38467 39.7135 5.05072 39.4447 4.78149 38.9062C4.75916 38.7059 4.75916 38.7059 4.7522 38.4668C4.74869 38.3891 4.74519 38.3114 4.74158 38.2313C4.79627 37.8715 4.92928 37.5924 5.15649 37.3125C5.38134 37.1632 5.57003 37.0564 5.81274 36.9492C5.90884 36.9041 5.90884 36.9041 6.00688 36.858C6.22254 36.7575 6.43946 36.66 6.65649 36.5625C6.82622 36.4842 6.9959 36.4059 7.16553 36.3274C7.49512 36.1762 7.82482 36.0252 8.15576 35.877C8.22378 35.8464 8.29181 35.8158 8.36189 35.7843C8.53149 35.7188 8.53149 35.7188 8.71899 35.7188C8.71899 35.6569 8.71899 35.595 8.71899 35.5312C8.63966 35.5062 8.56033 35.4812 8.4786 35.4554C7.94992 35.2722 7.4459 35.0336 6.93818 34.7997C6.8091 34.7406 6.67973 34.6821 6.55009 34.6241C6.36113 34.5397 6.17313 34.4534 5.98523 34.3667C5.81754 34.2904 5.81754 34.2904 5.64646 34.2126C5.25102 33.9755 4.99048 33.6992 4.78149 33.2812C4.73169 32.8273 4.73224 32.4525 4.92212 32.0332C5.49705 31.4152 6.31887 31.1031 7.0743 30.7564C7.25602 30.673 7.43729 30.5886 7.61853 30.5041C8.50564 30.0938 8.50564 30.0938 8.71899 30.0938C8.71899 30.0319 8.71899 29.97 8.71899 29.9062C8.65494 29.8966 8.59089 29.8869 8.5249 29.8769C8.00211 29.7544 7.52396 29.4968 7.039 29.2704C6.8451 29.1802 6.6505 29.0917 6.45581 29.0032C6.33125 28.9454 6.20674 28.8876 6.08228 28.8296C6.02465 28.8036 5.96702 28.7776 5.90764 28.7508C5.45661 28.5372 5.11889 28.2647 4.84814 27.843C4.76875 27.6205 4.75002 27.4354 4.74634 27.1992C4.74368 27.1221 4.74102 27.045 4.73828 26.9656C4.79865 26.6208 4.94175 26.4323 5.15649 26.1562C5.37183 26.0129 5.56606 25.8982 5.7959 25.786C5.8579 25.7544 5.91989 25.7228 5.98377 25.6903C6.57165 25.3938 7.16966 25.1186 7.77098 24.8506C8.10603 24.7013 8.4403 24.5501 8.77466 24.3992C8.88097 24.3512 8.88097 24.3512 8.98943 24.3023C9.85148 23.9131 10.7089 23.5139 11.5667 23.1152C12.9622 22.4668 14.3601 21.8235 15.7608 21.1862C15.8582 21.1419 15.8582 21.1419 15.9575 21.0967C16.1307 21.0177 16.3041 20.9389 16.4774 20.8601C16.7692 20.7245 17.057 20.5829 17.344 20.4375C16.9869 20.0719 16.6312 19.7139 16.2366 19.3887C14.1925 17.6131 12.967 14.8616 12.7502 12.1875C12.5686 8.77893 13.6507 5.81509 15.9279 3.27026C17.2329 1.90204 18.9185 0.925377 20.719 0.375C20.8135 0.34543 20.8135 0.34543 20.9099 0.315262C24.3226 -0.702021 28.2334 0.131493 30.9971 2.32837ZM16.7438 4.92737C15.1144 6.82126 14.285 9.30741 14.422 11.8C14.6388 14.5469 15.9199 16.9153 18.0002 18.6973C19.41 19.9305 19.8357 21.3402 20.0627 23.1562C22.6615 23.1562 25.2602 23.1562 27.9377 23.1562C28.0306 22.5994 28.1234 22.0425 28.219 21.4688C28.6578 20.0771 29.442 19.0905 30.551 18.1641C32.3219 16.6219 33.3419 14.3121 33.5627 12C33.7134 9.10601 32.7428 6.65729 30.8594 4.48938C29.2737 2.80699 26.9467 1.75606 24.6481 1.65784C21.5474 1.57728 18.8412 2.59627 16.7438 4.92737ZM17.3843 22.3008C17.2915 22.3451 17.2915 22.3451 17.1968 22.3904C17.0624 22.4547 16.9282 22.5195 16.7941 22.5846C16.4313 22.7608 16.067 22.9339 15.703 23.1075C15.5908 23.1612 15.5908 23.1612 15.4764 23.2159C14.7576 23.5593 14.033 23.8893 13.3069 24.2168C11.9256 24.8409 10.5499 25.4771 9.17527 26.1157C9.01952 26.1881 8.86376 26.2604 8.70801 26.3328C8.6344 26.367 8.56079 26.4011 8.48495 26.4364C7.93926 26.6896 7.39242 26.9402 6.84399 27.1875C7.14469 27.388 7.45631 27.5392 7.78223 27.6925C7.84826 27.7238 7.91429 27.755 7.98233 27.7872C8.20041 27.8903 8.41868 27.993 8.63696 28.0957C8.71246 28.1313 8.78796 28.1669 8.86574 28.2036C10.0376 28.7559 11.2142 29.2969 12.3947 29.8305C13.4381 30.3024 14.4773 30.7831 15.5159 31.2656C16.8049 31.8644 18.0951 32.4603 19.3909 33.0443C19.9963 33.3175 20.6 33.5936 21.2003 33.8778C21.5016 34.0203 21.8034 34.1617 22.1052 34.303C22.2499 34.3711 22.3942 34.4398 22.5382 34.5091C22.738 34.6052 22.9387 34.6993 23.1396 34.793C23.1982 34.8218 23.2568 34.8506 23.3171 34.8803C23.7405 35.0743 24.0204 35.0818 24.469 34.9688C24.7078 34.8728 24.9327 34.7739 25.1626 34.6604C25.2281 34.629 25.2936 34.5976 25.3611 34.5653C25.5021 34.4976 25.6429 34.4296 25.7836 34.3611C26.1632 34.1766 26.5443 33.995 26.9252 33.813C27.0416 33.7572 27.0416 33.7572 27.1604 33.7003C27.8897 33.3514 28.6246 33.0159 29.3616 32.6836C30.5229 32.159 31.6804 31.6265 32.8362 31.0898C35.603 29.8055 38.3744 28.532 41.1565 27.2812C40.8227 27.0017 40.447 26.8315 40.0538 26.6528C39.9817 26.6196 39.9095 26.5864 39.8352 26.5522C39.5981 26.4432 39.3607 26.3349 39.1233 26.2266C38.9568 26.1502 38.7902 26.0737 38.6237 25.9973C37.4915 25.4779 36.3573 24.9625 35.2225 24.4488C34.479 24.1119 33.7377 23.7706 32.9977 23.4261C32.9097 23.3852 32.8218 23.3443 32.7312 23.3022C32.2973 23.1003 31.8635 22.8979 31.43 22.695C31.2721 22.6215 31.1143 22.5479 30.9564 22.4744C30.8841 22.4404 30.8118 22.4063 30.7373 22.3713C30.6702 22.3401 30.6032 22.309 30.5341 22.2768C30.4759 22.2496 30.4178 22.2225 30.3579 22.1944C30.1785 22.1212 30.0016 22.0738 29.8127 22.0312C29.6472 22.4452 29.4641 22.9071 29.6252 23.3438C29.8465 23.5117 30.0767 23.6312 30.3232 23.7587C30.7679 24.0327 30.9643 24.4546 31.1252 24.9375C31.2016 25.7758 31.183 26.5007 30.6565 27.1875C30.3176 27.5096 29.9513 27.7356 29.5315 27.9375C29.5397 28.0836 29.5397 28.0836 29.548 28.2327C29.5828 29.1215 29.5477 29.8261 28.9294 30.5259C28.3837 31.0247 27.7953 31.1673 27.0787 31.1644C27.0051 31.1652 26.9315 31.166 26.8557 31.1668C26.6142 31.169 26.3728 31.1691 26.1312 31.1689C25.9621 31.1696 25.7929 31.1703 25.6237 31.1711C25.2696 31.1724 24.9156 31.1725 24.5615 31.172C24.1098 31.1714 23.6582 31.1743 23.2065 31.1781C22.8572 31.1805 22.5079 31.1808 22.1585 31.1804C21.9921 31.1806 21.8257 31.1815 21.6593 31.1832C19.9134 31.1988 19.9134 31.1988 19.219 30.6562C18.8786 30.2929 18.6114 29.9187 18.469 29.4375C18.4765 29.2554 18.4845 29.0731 18.5003 28.8915C18.5266 28.5576 18.5197 28.2709 18.469 27.9375C18.2538 27.7164 18.0586 27.6254 17.7772 27.5024C17.2961 27.2529 17.0422 26.7508 16.8752 26.25C16.7998 25.4207 16.8059 24.6726 17.344 24C17.6633 23.7308 18.0029 23.5299 18.3752 23.3438C18.3443 22.9416 18.3134 22.5394 18.2815 22.125C17.9068 22.0001 17.719 22.1357 17.3843 22.3008ZM18.469 25.3125C18.3909 25.5938 18.3909 25.5938 18.469 25.875C18.6596 26.1421 18.8115 26.3168 19.1412 26.3872C19.3995 26.4049 19.6541 26.4071 19.913 26.4044C20.011 26.4052 20.1091 26.406 20.2101 26.4069C20.5341 26.409 20.8579 26.4076 21.1819 26.406C21.4071 26.4063 21.6323 26.4068 21.8575 26.4074C22.3294 26.4081 22.8013 26.4071 23.2732 26.4049C23.8782 26.4022 24.4831 26.4037 25.0881 26.4065C25.5532 26.4082 26.0182 26.4077 26.4832 26.4065C26.7063 26.4062 26.9293 26.4065 27.1524 26.4076C27.4642 26.4088 27.7758 26.407 28.0875 26.4044C28.2259 26.4058 28.2259 26.4058 28.3671 26.4073C28.8009 26.4005 28.9998 26.3912 29.3551 26.1235C29.5514 25.8856 29.5514 25.8856 29.5784 25.5879C29.527 25.2864 29.4652 25.1524 29.2502 24.9375C28.9886 24.8503 28.8281 24.8313 28.5575 24.8293C28.4313 24.8281 28.4313 24.8281 28.3026 24.8269C28.2106 24.8265 28.1185 24.8261 28.0237 24.8257C27.9265 24.8249 27.8294 24.8241 27.7293 24.8233C27.4074 24.821 27.0856 24.8195 26.7637 24.8181C26.5989 24.8174 26.5989 24.8174 26.4309 24.8166C25.8498 24.8141 25.2688 24.8123 24.6877 24.8109C24.0869 24.8094 23.4862 24.8052 22.8854 24.8004C22.4239 24.7972 21.9625 24.7962 21.501 24.7956C21.2795 24.795 21.058 24.7936 20.8365 24.7913C20.5267 24.7884 20.2171 24.7884 19.9073 24.789C19.8157 24.7875 19.724 24.786 19.6295 24.7844C19.0834 24.7894 18.8063 24.8401 18.469 25.3125ZM20.2502 28.2188C20.0304 28.5486 20.0084 28.6742 20.0627 29.0625C20.3094 29.3785 20.4495 29.5158 20.8481 29.5908C20.9689 29.5911 21.0897 29.5915 21.2141 29.5919C21.3146 29.5931 21.3146 29.5931 21.4171 29.5944C21.6376 29.5964 21.8579 29.5951 22.0784 29.5935C22.2321 29.5938 22.3859 29.5943 22.5396 29.5949C22.8615 29.5956 23.1833 29.5946 23.5051 29.5924C23.9172 29.5897 24.3291 29.5912 24.7412 29.594C25.0585 29.5957 25.3759 29.5952 25.6933 29.594C25.8452 29.5937 25.9971 29.594 26.149 29.5951C26.3615 29.5963 26.5738 29.5945 26.7864 29.5919C26.9072 29.5915 27.028 29.5912 27.1524 29.5908C27.5509 29.5159 27.6904 29.3777 27.9377 29.0625C28.0081 28.7772 28.0081 28.7772 27.9377 28.5C27.7627 28.2841 27.6231 28.1552 27.3752 28.0312C27.1638 28.0217 26.952 28.0183 26.7403 28.0176C26.675 28.0173 26.6098 28.017 26.5425 28.0167C26.3262 28.0158 26.1099 28.0156 25.8936 28.0155C25.7434 28.0152 25.5932 28.0149 25.443 28.0146C25.128 28.014 24.8129 28.0138 24.4978 28.0139C24.0941 28.0139 23.6903 28.0126 23.2866 28.011C22.9763 28.01 22.666 28.0098 22.3558 28.0098C22.2069 28.0097 22.0581 28.0093 21.9092 28.0086C21.701 28.0076 21.4927 28.0079 21.2845 28.0085C21.166 28.0083 21.0474 28.0082 20.9253 28.0081C20.6387 28.0302 20.4838 28.0563 20.2502 28.2188ZM10.0414 31.2795C9.93108 31.3319 9.93108 31.3319 9.81855 31.3854C9.58273 31.4975 9.34714 31.61 9.11157 31.7227C8.87698 31.8345 8.64233 31.9463 8.40761 32.0579C8.26145 32.1274 8.11536 32.1971 7.96936 32.267C7.62925 32.4291 7.29009 32.5844 6.93774 32.7188C6.93774 32.7806 6.93774 32.8425 6.93774 32.9062C9.65515 34.1695 9.65515 34.1695 12.3811 35.4141C13.4458 35.8958 14.5056 36.3873 15.5629 36.8852C16.6196 37.3828 17.6808 37.8696 18.7458 38.3492C19.5006 38.6898 20.2509 39.0386 20.9988 39.394C21.2624 39.5186 21.526 39.6431 21.7896 39.7676C21.9615 39.8491 22.1332 39.9312 22.3046 40.0138C22.5444 40.1293 22.785 40.243 23.0258 40.3564C23.0971 40.3914 23.1685 40.4264 23.242 40.4624C23.6601 40.6569 23.9183 40.7386 24.3752 40.5938C24.6364 40.4912 24.8892 40.3749 25.1425 40.2543C25.217 40.2195 25.2916 40.1847 25.3684 40.1488C25.6138 40.0341 25.8588 39.9184 26.1038 39.8027C26.2764 39.7219 26.4491 39.6411 26.6218 39.5604C26.9787 39.3936 27.3354 39.2264 27.6921 39.0591C28.412 38.7218 29.1337 38.3884 29.8557 38.0556C30.0837 37.9505 30.3117 37.8453 30.5397 37.7401C31.5931 37.254 32.6479 36.7714 33.7034 36.29C34.9388 35.7263 36.1709 35.1558 37.4026 34.5841C38.62 34.019 39.8391 33.4578 41.0627 32.9062C41.0627 32.8444 41.0627 32.7825 41.0627 32.7188C40.5473 32.4799 40.0317 32.2413 39.5161 32.0029C39.3406 31.9218 39.1652 31.8406 38.9898 31.7593C38.7379 31.6426 38.4858 31.526 38.2338 31.4095C38.1552 31.3731 38.0767 31.3367 37.9958 31.2992C37.886 31.2485 37.886 31.2485 37.7741 31.1968C37.6776 31.1521 37.6776 31.1521 37.5791 31.1066C37.2334 30.9502 37.2334 30.9502 36.8703 31.0277C36.7666 31.0757 36.663 31.1238 36.5562 31.1733C36.4984 31.1998 36.4406 31.2263 36.3811 31.2536C36.1874 31.3426 35.9942 31.433 35.801 31.5234C35.6632 31.5871 35.5253 31.6507 35.3873 31.7143C35.0131 31.8869 34.6394 32.0607 34.2658 32.2347C33.873 32.4175 33.4798 32.5994 33.0867 32.7814C32.6017 33.0059 32.1168 33.2306 31.6321 33.4557C30.2437 34.1002 28.8522 34.7375 27.4594 35.3725C27.0434 35.5623 26.6279 35.7529 26.2125 35.944C26.1072 35.9924 26.0018 36.0409 25.8932 36.0908C25.7001 36.1797 25.507 36.2687 25.314 36.3578C25.2304 36.3962 25.1469 36.4346 25.0608 36.4742C24.9889 36.5074 24.917 36.5406 24.8429 36.5747C24.3826 36.776 23.9266 36.8407 23.4415 36.6947C23.2391 36.6106 23.0429 36.5181 22.8459 36.4219C22.6803 36.3442 22.5147 36.2666 22.349 36.189C22.2556 36.1447 22.1623 36.1004 22.0661 36.0547C21.7087 35.8867 21.3498 35.7225 20.9904 35.5591C20.9232 35.5285 20.856 35.498 20.7868 35.4665C20.6477 35.4032 20.5086 35.3399 20.3694 35.2766C19.1916 34.7403 18.0168 34.1976 16.8436 33.6511C15.8102 33.1703 14.7733 32.697 13.7359 32.2247C13.6052 32.1652 13.4745 32.1056 13.3439 32.046C13.2804 32.0171 13.217 31.9882 13.1516 31.9585C12.8053 31.8002 12.4603 31.6394 12.1165 31.4757C12.0433 31.4409 11.9702 31.4061 11.8948 31.3703C11.7537 31.303 11.6127 31.2354 11.4719 31.1675C10.8521 30.8719 10.639 30.9926 10.0414 31.2795ZM9.85828 36.9247C9.77415 36.9646 9.69003 37.0046 9.60336 37.0457C9.33655 37.1731 9.07178 37.3042 8.80688 37.4355C8.62567 37.5229 8.44434 37.61 8.26288 37.6968C7.81972 37.9096 7.37818 38.1254 6.93774 38.3438C7.19697 38.6185 7.44948 38.7508 7.79395 38.9106C7.85164 38.9376 7.90933 38.9646 7.96877 38.9923C8.15997 39.0814 8.35158 39.1696 8.54321 39.2578C8.67904 39.3209 8.81485 39.3839 8.95065 39.4471C9.99621 39.9321 11.0456 40.4087 12.0956 40.8841C13.1329 41.354 14.1666 41.8312 15.1995 42.3105C15.28 42.3479 15.3606 42.3853 15.4437 42.4239C15.7706 42.5756 16.0974 42.7273 16.4243 42.879C16.9844 43.139 17.5446 43.3986 18.105 43.6578C18.1821 43.6935 18.2593 43.7292 18.3388 43.766C18.7204 43.9425 19.1022 44.1185 19.4844 44.2936C19.6335 44.3619 19.7826 44.4303 19.9316 44.4987C20.0046 44.5321 20.0776 44.5656 20.1528 44.6001C20.5977 44.8049 21.0399 45.0146 21.4806 45.2283C21.7643 45.3656 22.049 45.5009 22.3338 45.6358C22.4664 45.6994 22.5985 45.7639 22.7301 45.8294C23.4927 46.248 23.4927 46.248 24.3232 46.2506C24.4676 46.1816 24.6097 46.1078 24.7502 46.0312C24.9128 45.9568 25.0753 45.8825 25.2382 45.8088C25.4932 45.6921 25.7459 45.5708 25.9988 45.4496C26.3544 45.2792 26.7109 45.1105 27.0673 44.9418C27.1768 44.8899 27.1768 44.8899 27.2886 44.8369C28.0035 44.4988 28.7229 44.1712 29.4436 43.8457C30.6047 43.3206 31.7624 42.7885 32.9182 42.252C32.9986 42.2146 33.079 42.1773 33.1618 42.1389C33.4879 41.9875 33.814 41.8361 34.1401 41.6847C34.9458 41.3108 35.7521 40.9384 36.5587 40.5663C36.7884 40.4603 37.018 40.3542 37.2477 40.2481C37.8694 39.9609 38.4913 39.6739 39.1149 39.3907C39.2925 39.3101 39.4699 39.2292 39.6474 39.1483C39.8581 39.0523 40.0691 38.9568 40.2803 38.8618C40.4164 38.7997 40.4164 38.7997 40.5552 38.7363C40.6335 38.7009 40.7119 38.6655 40.7926 38.629C40.9845 38.5444 40.9845 38.5444 41.0627 38.3438C40.6245 38.1347 40.186 37.9262 39.7472 37.7183C39.5983 37.6477 39.4495 37.5768 39.3007 37.5058C39.0857 37.4032 38.8703 37.3012 38.6549 37.1993C38.5569 37.1523 38.5569 37.1523 38.4568 37.1043C38.2644 37.0137 38.0706 36.9279 37.8752 36.8438C37.806 36.8125 37.7368 36.7813 37.6655 36.7492C37.2969 36.601 37.0402 36.5217 36.6581 36.6587C36.53 36.7179 36.4033 36.7802 36.2778 36.8448C36.1729 36.8947 36.1729 36.8947 36.0658 36.9456C35.8356 37.0556 35.6075 37.1694 35.3792 37.2832C35.2165 37.3617 35.0537 37.4399 34.8908 37.5178C34.5525 37.6798 34.2148 37.8431 33.8776 38.0073C33.1806 38.3455 32.4765 38.668 31.7722 38.9905C31.395 39.1635 31.0182 39.3376 30.6415 39.5116C30.529 39.5635 30.529 39.5635 30.4143 39.6165C29.9355 39.8374 29.4568 40.0588 28.9783 40.2803C28.6499 40.4323 28.3214 40.5842 27.9929 40.7361C27.8383 40.8077 27.6837 40.8793 27.5291 40.9509C26.7668 41.3043 26.0033 41.6549 25.2347 41.9945C25.1428 42.0355 25.1428 42.0355 25.049 42.0773C24.5085 42.3142 24.0732 42.4958 23.4968 42.2992C22.675 41.9478 21.8643 41.5735 21.0544 41.1955C20.6263 40.9958 20.1978 40.7968 19.7694 40.5978C19.6828 40.5575 19.5963 40.5173 19.5071 40.4758C18.6443 40.0752 17.7791 39.6798 16.9134 39.2856C16.0871 38.9094 15.2626 38.5296 14.4399 38.1456C14.2643 38.0638 14.0887 37.9819 13.9131 37.9001C13.5749 37.7424 13.2369 37.5841 12.8991 37.4255C12.7438 37.353 12.5885 37.2806 12.4331 37.2081C12.3638 37.1754 12.2945 37.1426 12.2231 37.1089C12.0252 37.017 11.8257 36.93 11.6252 36.8438C11.5575 36.8115 11.4897 36.7792 11.4199 36.746C10.8001 36.4847 10.4398 36.6299 9.85828 36.9247Z" fill="#FF7705"></path>
    <path d="M25.4905 4.24952C25.7328 4.4523 25.9508 4.66885 26.1677 4.89844C26.4528 5.16457 26.7123 5.24823 27.1015 5.25513C27.2033 5.24957 27.305 5.24401 27.4099 5.23829C27.9712 5.22942 28.2405 5.28996 28.6872 5.62501C28.8032 5.70332 28.8032 5.70332 28.9216 5.78321C29.3801 6.20739 29.8169 6.70633 29.9997 7.31251C30.0081 7.60511 30.0081 7.60511 29.9938 7.91602C29.9869 8.5473 29.9869 8.5473 30.2809 9.09376C30.4685 9.26366 30.6586 9.42522 30.8585 9.58045C31.1894 9.90577 31.2289 10.2269 31.2466 10.6754C31.248 10.8494 31.2483 11.0233 31.2477 11.1973C31.2493 11.2843 31.2508 11.3714 31.2523 11.4611C31.2527 11.9604 31.2257 12.3238 30.9372 12.75C30.7523 12.932 30.7523 12.932 30.5563 13.084C30.2501 13.3218 30.1047 13.4977 29.9997 13.875C29.991 14.1644 29.991 14.1644 30.0114 14.4668C30.0184 15.3595 29.7342 15.7591 29.1208 16.3887C28.7003 16.8086 28.337 17.1353 27.7259 17.1771C27.6235 17.1722 27.5212 17.1672 27.4157 17.1621C26.9958 17.1428 26.7273 17.1751 26.3434 17.3438C26.2506 17.3438 26.1578 17.3438 26.0622 17.3438C26.0429 17.4114 26.0235 17.4791 26.0036 17.5488C25.7711 18.0243 25.4542 18.2299 24.9724 18.4043C24.1944 18.5608 23.1847 18.6103 22.499 18.1567C22.1871 17.9067 22.0064 17.7485 21.9372 17.3438C21.8541 17.3302 21.7709 17.3167 21.6852 17.3027C21.5104 17.2731 21.3358 17.2403 21.1638 17.1973C20.9134 17.1574 20.7013 17.1632 20.4489 17.1738C19.5711 17.1738 19.1012 16.6044 18.5109 16.0265C18.1016 15.5343 17.9507 15.0862 17.9997 14.4375C18.0278 14.3461 18.0278 14.3461 18.0565 14.2529C18.1152 13.9505 17.9941 13.772 17.8543 13.5077C17.658 13.2256 17.412 13.0323 17.1376 12.8284C16.7063 12.3896 16.7494 11.7849 16.7516 11.209C16.7501 11.1321 16.7486 11.0551 16.7471 10.9759C16.7467 10.4643 16.8126 10.1058 17.0622 9.65626C17.2438 9.47498 17.2438 9.47498 17.4372 9.33399C17.8366 9.00812 17.9687 8.74897 18.0934 8.25001C18.047 8.11079 18.047 8.11079 17.9997 7.96876C17.9454 7.41524 18.0561 7.01194 18.3747 6.56251C19.5006 5.28202 19.5006 5.28202 20.2735 5.22913C20.3759 5.23409 20.4782 5.23904 20.5837 5.24415C21.0036 5.26344 21.2721 5.23115 21.6559 5.06251C21.7488 5.06251 21.8416 5.06251 21.9372 5.06251C21.9565 4.99483 21.9759 4.92715 21.9958 4.85743C22.2282 4.38195 22.5452 4.17641 23.027 4.00196C23.7899 3.84852 24.8251 3.78491 25.4905 4.24952ZM23.5309 5.62501C23.4637 5.77456 23.4637 5.77456 23.3951 5.92713C23.1412 6.36999 22.7887 6.5105 22.3298 6.69727C22.2565 6.73008 22.1832 6.76289 22.1077 6.7967C21.5002 7.05603 20.9909 7.09447 20.3434 6.93751C20.1214 7.1377 19.9338 7.33565 19.7809 7.59376C19.7773 7.81141 19.8166 8.00063 19.8575 8.21412C19.8845 8.56412 19.7527 8.82138 19.6088 9.13514C19.4952 9.37412 19.4952 9.37412 19.414 9.62952C19.2711 10.0527 19.1718 10.3308 18.7731 10.5586C18.6223 10.6224 18.6223 10.6224 18.4684 10.6875C18.4684 11.0278 18.4684 11.3681 18.4684 11.7188C18.6178 11.7846 18.6178 11.7846 18.7702 11.8517C19.2264 12.1132 19.362 12.4927 19.5466 12.9668C19.597 13.0835 19.597 13.0835 19.6484 13.2025C19.89 13.7958 19.8921 14.1977 19.6872 14.8125C19.803 14.9252 19.9205 15.0363 20.0388 15.1465C20.1366 15.2395 20.1366 15.2395 20.2365 15.3344C20.4244 15.492 20.4244 15.492 20.6317 15.4442C20.6912 15.4214 20.7508 15.3985 20.8122 15.375C21.3786 15.3057 21.7544 15.4787 22.251 15.7233C22.4562 15.8227 22.6539 15.8992 22.8688 15.9727C23.2577 16.179 23.3455 16.3881 23.5309 16.7813C23.6656 16.7889 23.8004 16.7943 23.9352 16.7988C24.0103 16.8021 24.0853 16.8054 24.1627 16.8087C24.4307 16.774 24.492 16.7117 24.6559 16.5C24.6935 16.4231 24.7311 16.3463 24.7698 16.2671C24.9993 15.9438 25.2854 15.8535 25.6462 15.7266C25.7733 15.6792 25.9003 15.6319 26.0274 15.5845C26.1317 15.5463 26.236 15.5081 26.3434 15.4688C26.4053 15.4378 26.4672 15.4069 26.5309 15.375C26.9216 15.3603 27.2757 15.3766 27.6559 15.4688C27.7547 15.3823 27.8497 15.2915 27.9431 15.1992C27.9964 15.1492 28.0496 15.0992 28.1046 15.0476C28.238 14.7721 28.2125 14.6743 28.1683 14.3774C28.095 13.827 28.2304 13.4485 28.4528 12.9492C28.4835 12.8716 28.5142 12.7941 28.5458 12.7141C28.7773 12.1747 28.994 11.9573 29.5309 11.7188C29.5309 11.3784 29.5309 11.0381 29.5309 10.6875C29.4291 10.6401 29.3272 10.5928 29.2222 10.544C28.8162 10.3116 28.7062 10.0409 28.5641 9.60938C28.5197 9.48532 28.4752 9.36129 28.4305 9.23731C28.3914 9.12806 28.3524 9.01881 28.3122 8.90626C28.2571 8.80202 28.2571 8.80202 28.2009 8.69568C28.0394 8.34716 28.1964 7.94101 28.3122 7.59376C28.1964 7.48102 28.0789 7.37001 27.9606 7.25977C27.8954 7.19778 27.8301 7.13578 27.7629 7.0719C27.575 6.91429 27.575 6.91429 27.3677 6.96204C27.3082 6.98488 27.2486 7.00772 27.1872 7.03126C26.6208 7.10061 26.245 6.92756 25.7484 6.68299C25.5432 6.58358 25.3455 6.50709 25.1306 6.4336C24.7417 6.22727 24.6539 6.01821 24.4684 5.62501C24.1591 5.62501 23.8497 5.62501 23.5309 5.62501Z" fill="#FF7705"></path>
    <path d="M25.6871 8.34376C26.5097 8.90842 27.0449 9.63588 27.2516 10.619C27.3626 11.5942 27.1705 12.4225 26.5931 13.2188C26.093 13.8199 25.4352 14.2885 24.6559 14.4375C23.6247 14.5102 22.7361 14.4207 21.9196 13.749C21.1217 13.02 20.7699 12.2309 20.7158 11.1449C20.7243 10.2513 21.0667 9.54784 21.6566 8.88099C22.7386 7.83585 24.3568 7.60556 25.6871 8.34376ZM22.8043 10.1895C22.5074 10.5809 22.3688 10.9734 22.4348 11.4657C22.5839 12.0168 22.8639 12.3512 23.3434 12.6563C23.7508 12.7921 24.15 12.8333 24.5563 12.6826C25.0554 12.4159 25.3645 12.0895 25.5406 11.5547C25.636 11.0951 25.5405 10.7183 25.3121 10.3125C24.9301 9.88282 24.6011 9.67111 24.0172 9.63282C23.4906 9.64247 23.1802 9.8221 22.8043 10.1895Z" fill="#FF7705"></path>
  </g>
  <defs>
    <clipPath id="clip0_3750_1243">
      <rect width="48" height="48" fill="white"></rect>
    </clipPath>
  </defs>
</svg>
