<?xml version="1.0" encoding="UTF-8"?>
<svg xmlns="http://www.w3.org/2000/svg" width="48" height="48" viewBox="0 0 48 48" fill="none">
  <g clip-path="url(#clip0_4393_120)">
    <path d="M5.56464 -0.0530557C5.7169 -0.0540261 5.86916 -0.0551506 6.02142 -0.056416C6.43204 -0.0593088 6.84263 -0.0598218 7.25327 -0.0597036C7.59693 -0.0597818 7.94058 -0.060932 8.28423 -0.0620427C9.09499 -0.0646021 9.90574 -0.0651103 10.7165 -0.0644082C11.5516 -0.0637283 12.3866 -0.0668693 13.2217 -0.0718199C13.9405 -0.0759262 14.6592 -0.0774913 15.3779 -0.0770665C15.8065 -0.0768491 16.235 -0.0776224 16.6635 -0.0809169C17.0662 -0.0839167 17.4688 -0.0837402 17.8715 -0.0811565C18.0189 -0.0807396 18.1663 -0.0814335 18.3137 -0.083345C19.5635 -0.098453 19.5635 -0.098453 20.0229 0.294913C20.1325 0.41284 20.2395 0.533234 20.3434 0.65618C20.4469 0.757288 20.5513 0.857524 20.6565 0.956798C20.7605 1.05994 20.8642 1.16331 20.9677 1.26691C21.0538 1.35256 21.0538 1.35256 21.1417 1.43994C21.3287 1.62607 21.5154 1.81255 21.702 1.99908C21.8329 2.12967 21.9638 2.26025 22.0947 2.39083C22.3677 2.66322 22.6404 2.93581 22.9131 3.20851C23.2625 3.55796 23.6126 3.90676 23.9629 4.25539C24.2328 4.52426 24.5022 4.79355 24.7716 5.06295C24.9006 5.1918 25.0297 5.32049 25.1589 5.44903C25.3391 5.62828 25.5186 5.80811 25.6981 5.9881C25.7781 6.06737 25.7781 6.06737 25.8598 6.14824C26.2949 6.58678 26.4579 6.82463 26.4605 7.44815C26.4598 7.51518 26.4591 7.58221 26.4584 7.65127C26.4584 7.72264 26.4585 7.79402 26.4585 7.86756C26.4584 8.10294 26.4569 8.33829 26.4554 8.57366C26.4551 8.73707 26.4548 8.90049 26.4546 9.0639C26.4539 9.4936 26.4521 9.92328 26.45 10.353C26.4481 10.7916 26.4472 11.2302 26.4463 11.6689C26.4443 12.5292 26.4411 13.3896 26.4371 14.2499C26.5414 14.2495 26.5414 14.2495 26.6479 14.2491C28.3403 14.2429 30.0327 14.2383 31.7252 14.2354C32.5437 14.2339 33.3621 14.2319 34.1806 14.2287C34.894 14.2259 35.6074 14.2241 36.3208 14.2235C36.6985 14.2231 37.0762 14.2222 37.4539 14.2202C37.8096 14.2183 38.1652 14.2177 38.5209 14.2181C38.6512 14.218 38.7816 14.2175 38.912 14.2164C39.0904 14.215 39.2688 14.2155 39.4472 14.2161C39.5469 14.2158 39.6466 14.2156 39.7494 14.2153C40.2143 14.2725 40.5732 14.4758 40.9018 14.8045C40.983 14.8847 40.983 14.8847 41.0658 14.9666C41.1231 15.0246 41.1804 15.0826 41.2395 15.1424C41.3014 15.204 41.3634 15.2656 41.4272 15.3291C41.6309 15.532 41.8336 15.736 42.0363 15.94C42.1779 16.0817 42.3196 16.2233 42.4613 16.3649C42.7577 16.6613 43.0536 16.9582 43.3492 17.2555C43.7282 17.6366 44.1082 18.0166 44.4885 18.3964C44.781 18.6885 45.073 18.9811 45.3648 19.2739C45.5048 19.4142 45.6449 19.5544 45.7851 19.6945C45.9808 19.8902 46.1759 20.0864 46.3708 20.2829C46.4289 20.3407 46.4869 20.3985 46.5467 20.4581C46.5998 20.5118 46.6529 20.5656 46.7076 20.621C46.7537 20.6673 46.7998 20.7136 46.8473 20.7613C47.0902 21.0519 47.1793 21.3062 47.1797 21.6829C47.1803 21.763 47.1808 21.843 47.1814 21.9255C47.181 22.013 47.1807 22.1005 47.1803 22.1907C47.1807 22.284 47.181 22.3773 47.1814 22.4735C47.1824 22.7871 47.182 23.1007 47.1816 23.4144C47.182 23.6389 47.1825 23.8634 47.1831 24.0879C47.1842 24.6352 47.1844 25.1825 47.1842 25.7297C47.1841 26.1749 47.1842 26.6201 47.1846 27.0653C47.1847 27.1286 47.1847 27.192 47.1848 27.2573C47.1849 27.386 47.185 27.5148 47.1851 27.6435C47.1862 28.8516 47.186 30.0596 47.1854 31.2676C47.1849 32.3711 47.1859 33.4746 47.1877 34.578C47.1896 35.712 47.1903 36.846 47.19 37.98C47.1898 38.6162 47.19 39.2525 47.1913 39.8887C47.1925 40.4877 47.1923 41.0867 47.1911 41.6856C47.1909 41.905 47.1912 42.1243 47.1919 42.3437C47.1971 43.9171 47.1961 45.3989 46.0829 46.6435C44.8846 47.7755 43.5811 47.8682 42.0178 47.861C41.8319 47.8615 41.6461 47.8621 41.4602 47.8629C40.9584 47.8646 40.4565 47.864 39.9547 47.8628C39.4278 47.8618 38.9009 47.8627 38.3741 47.8633C37.4896 47.864 36.6051 47.8631 35.7205 47.8613C34.7 47.8593 33.6794 47.8599 32.6589 47.862C31.7804 47.8637 30.902 47.8639 30.0235 47.863C29.4998 47.8624 28.9761 47.8623 28.4525 47.8635C27.96 47.8646 27.4675 47.8639 26.975 47.8617C26.795 47.8612 26.6149 47.8613 26.4349 47.8622C24.967 47.8683 23.8292 47.696 22.6871 46.6874C21.7411 45.7254 21.5471 44.4855 21.5515 43.1964C21.5515 43.0912 21.5515 42.9859 21.5514 42.8775C21.5515 42.5305 21.5522 42.1836 21.553 41.8366C21.5532 41.5957 21.5533 41.3548 21.5534 41.1139C21.5537 40.5451 21.5544 39.9764 21.5554 39.4076C21.5564 38.7599 21.5569 38.1121 21.5574 37.4644C21.5584 36.1325 21.56 34.8006 21.5621 33.4687C21.4727 33.469 21.3833 33.4694 21.2912 33.4697C19.1135 33.4781 16.9359 33.4842 14.7582 33.4881C13.7051 33.49 12.652 33.4927 11.5988 33.497C10.6807 33.5007 9.76255 33.5031 8.84439 33.504C8.35846 33.5045 7.87256 33.5056 7.38663 33.5083C6.9287 33.5109 6.47081 33.5117 6.01287 33.5111C5.84535 33.5112 5.67782 33.5119 5.5103 33.5134C4.09398 33.525 3.07114 33.3035 1.96838 32.3437C1.01999 31.3813 0.829168 30.1367 0.830215 28.8466C0.829937 28.7394 0.829658 28.6322 0.829371 28.5218C0.828558 28.1623 0.828416 27.8029 0.828276 27.4434C0.827892 27.1857 0.827373 26.9281 0.826865 26.6705C0.825594 25.9702 0.825027 25.27 0.824614 24.5697C0.824355 24.1321 0.823958 23.6945 0.823536 23.2568C0.822393 22.0441 0.821427 20.8314 0.82111 19.6187C0.821079 19.5024 0.821079 19.5024 0.821048 19.3837C0.821027 19.3059 0.821007 19.2282 0.820985 19.1481C0.820944 18.9905 0.820902 18.833 0.82086 18.6754C0.820839 18.5973 0.820818 18.5191 0.820797 18.4386C0.820427 17.1734 0.818791 15.9081 0.816607 14.6428C0.814381 13.3424 0.813216 12.042 0.813107 10.7416C0.813021 10.012 0.812486 9.28242 0.81078 8.55285C0.809331 7.9314 0.808859 7.30995 0.80963 6.6885C0.809995 6.37182 0.809762 6.05518 0.808594 5.7385C0.807398 5.39409 0.807954 5.04973 0.808929 4.70532C0.808174 4.60675 0.807419 4.50818 0.806641 4.40662C0.813827 3.31494 1.00008 2.36446 1.68713 1.49993C1.75867 1.40132 1.83022 1.3027 1.90393 1.2011C2.92544 0.132083 4.14797 -0.0566364 5.56464 -0.0530557ZM3.11572 2.42425C2.53839 3.14556 2.50325 3.82705 2.50644 4.72241C2.50608 4.82919 2.50572 4.93596 2.50535 5.04598C2.50439 5.40344 2.50476 5.76089 2.50513 6.11835C2.50483 6.37478 2.50425 6.6312 2.50368 6.88762C2.50249 7.51165 2.50232 8.13567 2.50254 8.7597C2.5027 9.26704 2.50254 9.77438 2.50214 10.2817C2.50209 10.354 2.50203 10.4262 2.50197 10.5007C2.50186 10.6475 2.50174 10.7943 2.50163 10.9411C2.50061 12.3173 2.50081 13.6935 2.50139 15.0697C2.50187 16.328 2.50081 17.5862 2.49903 18.8445C2.49721 20.1373 2.49644 21.43 2.49679 22.7228C2.49697 23.4483 2.49674 24.1738 2.49541 24.8992C2.4943 25.5169 2.49417 26.1345 2.4953 26.7521C2.49585 27.067 2.4958 27.3819 2.49483 27.6968C2.49385 28.0387 2.49461 28.3805 2.4958 28.7224C2.49511 28.8213 2.49442 28.9201 2.4937 29.022C2.49963 29.8321 2.62631 30.5635 3.20456 31.1664C4.03966 31.8833 4.96233 31.8458 6.00206 31.8344C6.17214 31.8343 6.34223 31.8343 6.51232 31.8346C6.97172 31.8347 7.43107 31.832 7.89047 31.8287C8.37142 31.8258 8.85238 31.8255 9.33335 31.8249C10.2431 31.8235 11.1528 31.8197 12.0625 31.8149C13.0986 31.8097 14.1347 31.8071 15.1709 31.8048C17.3013 31.7999 19.4317 31.7916 21.5621 31.7812C21.5625 31.6755 21.5625 31.6755 21.5628 31.5676C21.5684 29.8492 21.5755 28.1307 21.5842 26.4122C21.5884 25.5812 21.5921 24.7501 21.5946 23.9191C21.5968 23.1943 21.5999 22.4696 21.6042 21.7449C21.6064 21.3615 21.6082 20.9781 21.6088 20.5947C21.6094 20.233 21.6112 19.8714 21.6141 19.5097C21.6149 19.3778 21.6153 19.2458 21.6151 19.1139C21.6139 17.6957 21.8527 16.4201 22.8746 15.3749C23.4608 14.9015 24.0229 14.7017 24.7496 14.4374C24.7496 12.3027 24.7496 10.1681 24.7496 7.96868C23.2801 7.95642 23.2801 7.95642 21.8105 7.9492C21.6244 7.94672 21.4384 7.94407 21.2523 7.94121C21.1579 7.94159 21.0635 7.94196 20.9663 7.94235C20.2293 7.92774 19.5663 7.76175 19.0359 7.21967C18.4737 6.53725 18.4395 5.82334 18.4296 4.97198C18.4268 4.82667 18.4268 4.82667 18.4241 4.67842C18.4185 4.37089 18.4141 4.06335 18.4098 3.75579C18.4062 3.5465 18.4025 3.33721 18.3988 3.12792C18.3898 2.61652 18.3818 2.10511 18.3746 1.59368C16.629 1.5893 14.8834 1.58599 13.1378 1.58397C12.3272 1.583 11.5167 1.58168 10.7061 1.57954C9.99939 1.57766 9.29268 1.57646 8.58596 1.57604C8.21197 1.57579 7.83798 1.57522 7.46399 1.57386C7.11148 1.57258 6.75899 1.57219 6.40649 1.57247C6.21644 1.5724 6.02639 1.57139 5.83634 1.57035C4.80888 1.57266 3.85831 1.64049 3.11572 2.42425ZM20.0621 2.90618C20.0505 3.31148 20.042 3.7167 20.0364 4.12212C20.034 4.25989 20.0308 4.39765 20.0268 4.53538C20.0211 4.73392 20.0184 4.93231 20.0164 5.13091C20.0139 5.25021 20.0114 5.36951 20.0089 5.49243C20.04 5.82362 20.04 5.82362 20.2568 6.08654C20.6015 6.33133 20.7925 6.3356 21.2124 6.32696C21.3082 6.32596 21.3082 6.32596 21.4059 6.32495C21.6085 6.32234 21.8108 6.31646 22.0133 6.31048C22.1512 6.30812 22.2891 6.30599 22.4269 6.30407C22.7638 6.29892 23.1004 6.29084 23.4371 6.28118C23.052 5.82232 22.6525 5.38889 22.2283 4.96612C22.1689 4.9067 22.1096 4.84728 22.0485 4.78607C21.9244 4.66188 21.8001 4.53781 21.6758 4.41385C21.4845 4.22311 21.2938 4.03186 21.1031 3.84057C20.9821 3.71963 20.8611 3.59872 20.74 3.47784C20.6828 3.42042 20.6255 3.36301 20.5666 3.30386C20.3491 3.03324 20.3491 3.03324 20.0621 2.90618ZM23.6891 16.9101C23.2513 17.5911 23.2088 18.2016 23.2133 18.9908C23.2128 19.0984 23.2123 19.206 23.2118 19.3169C23.2104 19.6767 23.2111 20.0364 23.2118 20.3962C23.2114 20.6545 23.2106 20.9128 23.2098 21.1711C23.2082 21.7993 23.2081 22.4275 23.2086 23.0557C23.209 23.5664 23.2088 24.0772 23.2083 24.5879C23.2083 24.6607 23.2082 24.7334 23.2081 24.8084C23.208 24.9563 23.2078 25.1041 23.2077 25.2519C23.2064 26.6374 23.2069 28.023 23.208 29.4085C23.2089 30.6752 23.2077 31.9419 23.2055 33.2086C23.2032 34.5103 23.2023 35.812 23.2029 37.1137C23.2032 37.8441 23.203 38.5745 23.2014 39.3049C23.2 39.9266 23.1999 40.5483 23.2016 41.1701C23.2024 41.4871 23.2024 41.8041 23.2011 42.1211C23.1999 42.4652 23.201 42.8093 23.2026 43.1534C23.2017 43.2529 23.2008 43.3525 23.1999 43.455C23.2075 44.2238 23.4058 44.759 23.8239 45.3984C24.7111 46.2471 25.6809 46.1923 26.835 46.1856C27.0174 46.1862 27.1999 46.1871 27.3823 46.1881C27.8756 46.1902 28.3689 46.1894 28.8623 46.1879C29.3797 46.1867 29.8972 46.1878 30.4146 46.1885C31.2834 46.1894 32.1521 46.1883 33.0209 46.186C34.0239 46.1835 35.0269 46.1843 36.0299 46.1869C36.8925 46.189 37.7552 46.1893 38.6179 46.1881C39.1325 46.1874 39.647 46.1873 40.1616 46.1888C40.6455 46.1902 41.1293 46.1892 41.6132 46.1865C41.7903 46.1859 41.9674 46.1861 42.1445 46.1871C43.582 46.201 43.582 46.201 44.8016 45.4944C45.404 44.8777 45.5103 44.1523 45.5022 43.3269C45.5024 43.2367 45.5027 43.1465 45.5029 43.0535C45.5034 42.7527 45.5019 42.4518 45.5003 42.151C45.5002 41.9348 45.5003 41.7185 45.5004 41.5023C45.5005 40.9162 45.4989 40.3301 45.4969 39.7441C45.4951 39.1312 45.495 38.5184 45.4946 37.9055C45.4939 36.8772 45.4921 35.8489 45.4896 34.8206C45.487 33.7617 45.485 32.7028 45.4838 31.6439C45.4838 31.5786 45.4837 31.5133 45.4836 31.446C45.4832 31.1182 45.4829 30.7905 45.4825 30.4627C45.4796 27.7459 45.4747 25.0292 45.4684 22.3124C45.4129 22.3123 45.3574 22.3122 45.3003 22.312C44.7192 22.3102 44.1382 22.3051 43.5572 22.2981C43.3408 22.296 43.1244 22.2946 42.908 22.2941C42.5956 22.2932 42.2834 22.2894 41.9711 22.285C41.8276 22.2855 41.8276 22.2855 41.6812 22.2861C40.9461 22.2713 40.2802 22.1057 39.7546 21.5607C39.2115 20.8898 39.1578 20.2344 39.1483 19.3981C39.1456 19.2495 39.1456 19.2495 39.1428 19.0979C39.1372 18.7827 39.1329 18.4675 39.1285 18.1523C39.125 17.938 39.1213 17.7238 39.1176 17.5096C39.1086 16.9855 39.1006 16.4615 39.0934 15.9374C37.3494 15.933 35.6054 15.9297 33.8614 15.9277C33.0516 15.9268 32.2418 15.9254 31.4319 15.9233C30.7258 15.9214 30.0197 15.9202 29.3135 15.9198C28.9399 15.9195 28.5663 15.919 28.1926 15.9176C27.8404 15.9163 27.4881 15.9159 27.1358 15.9162C26.9461 15.9161 26.7564 15.9151 26.5668 15.9141C25.3549 15.9168 24.5494 16.0265 23.6891 16.9101ZM40.7809 17.2499C40.7693 17.6552 40.7608 18.0604 40.7551 18.4659C40.7528 18.6036 40.7496 18.7414 40.7455 18.8791C40.7398 19.0777 40.7372 19.2761 40.7351 19.4747C40.7327 19.594 40.7302 19.7133 40.7277 19.8362C40.7588 20.1674 40.7588 20.1674 40.9755 20.4303C41.3203 20.6751 41.5112 20.6793 41.9312 20.6707C42.0269 20.6697 42.0269 20.6697 42.1246 20.6687C42.3272 20.6661 42.5295 20.6602 42.7321 20.6542C42.8699 20.6519 43.0078 20.6497 43.1457 20.6478C43.4825 20.6427 43.8192 20.6346 44.1559 20.6249C43.7707 20.1661 43.3712 19.7326 42.947 19.3099C42.8877 19.2505 42.8284 19.191 42.7672 19.1298C42.6431 19.0056 42.5189 18.8816 42.3945 18.7576C42.2033 18.5669 42.0125 18.3756 41.8218 18.1843C41.7008 18.0634 41.5798 17.9425 41.4587 17.8216C41.4015 17.7642 41.3443 17.7068 41.2853 17.6476C41.0679 17.377 41.0679 17.377 40.7809 17.2499Z" fill="#FF7705"></path>
    <path d="M34.125 0.562278C34.4603 0.797688 34.5734 0.941283 34.6641 1.34157C34.508 2.10864 33.7448 2.6308 33.2084 3.16677C33.1432 3.23194 33.078 3.29711 33.0108 3.36425C32.851 3.52402 32.6911 3.68378 32.5312 3.84353C32.6274 3.84408 32.7236 3.84463 32.8226 3.84519C33.7329 3.85058 34.6431 3.85741 35.5533 3.86563C36.0211 3.8698 36.489 3.87349 36.9568 3.87601C37.4091 3.87846 37.8613 3.88226 38.3136 3.88695C38.4853 3.8885 38.6571 3.88959 38.8289 3.89018C40.377 3.89602 41.6733 4.03329 42.8672 5.12087C43.8925 6.20636 43.9985 7.52484 43.9969 8.93972C43.9973 9.07822 43.9977 9.21672 43.9982 9.35522C43.9989 9.64392 43.9988 9.93262 43.9983 10.2213C43.9978 10.5907 43.9994 10.96 44.0016 11.3293C44.0029 11.6147 44.003 11.9 44.0027 12.1854C44.0028 12.3216 44.0033 12.4578 44.0042 12.594C44.0054 12.7842 44.0046 12.9744 44.0037 13.1646C44.0037 13.2726 44.0038 13.3806 44.0038 13.4919C43.9647 13.8142 43.8802 13.9909 43.6875 14.2498C43.3882 14.3994 43.0749 14.3918 42.75 14.3435C42.5221 14.1682 42.4087 14.0359 42.2812 13.781C42.2719 13.5897 42.2685 13.3981 42.268 13.2066C42.267 13.0254 42.267 13.0254 42.266 12.8405C42.2657 12.7432 42.2657 12.7432 42.2654 12.644C42.2648 12.4405 42.2633 12.237 42.2616 12.0335C42.2567 11.4549 42.2522 10.8762 42.2507 10.2975C42.2497 9.94352 42.247 9.58955 42.2431 9.23555C42.2419 9.10131 42.2414 8.96706 42.2416 8.83282C42.2426 8.02685 42.1842 7.37755 41.8125 6.65603C41.7853 6.58972 41.758 6.52342 41.7299 6.4551C41.5983 6.23681 41.4823 6.19115 41.25 6.09353C41.1979 6.06084 41.1459 6.02815 41.0923 5.99447C40.3295 5.56732 39.4467 5.67196 38.6012 5.68191C38.4258 5.68261 38.2505 5.68314 38.0751 5.68351C37.616 5.68494 37.1569 5.68862 36.6978 5.69278C36.2283 5.69663 35.7588 5.69833 35.2894 5.70022C34.37 5.70423 33.4506 5.71062 32.5312 5.71853C32.5904 5.77719 32.6495 5.83584 32.7105 5.89628C32.9296 6.11379 33.1485 6.33151 33.3672 6.54937C33.462 6.64366 33.5569 6.73787 33.6518 6.83199C33.7881 6.96721 33.9242 7.10273 34.0602 7.2383C34.1832 7.36055 34.1832 7.36055 34.3086 7.48527C34.5525 7.74267 34.5886 7.82888 34.6289 8.18533C34.5938 8.53103 34.5938 8.53103 34.4004 8.80642C34.125 8.99978 34.125 8.99978 33.8145 9.07009C33.4577 8.99753 33.3765 8.94723 33.1188 8.71315C33.0532 8.65358 32.9875 8.59402 32.9199 8.53264C32.5983 8.2303 32.2837 7.92183 31.972 7.60928C31.9047 7.54198 31.8373 7.47468 31.7678 7.40535C31.627 7.26452 31.4862 7.12358 31.3455 6.98253C31.1295 6.76598 30.9129 6.54994 30.6964 6.33395C30.5591 6.19659 30.4218 6.0592 30.2845 5.92177C30.2197 5.85713 30.1549 5.79248 30.0881 5.72588C30.0286 5.66607 29.9691 5.60627 29.9077 5.54465C29.8552 5.49208 29.8028 5.43952 29.7487 5.38536C29.5773 5.19754 29.5322 5.06743 29.4844 4.81618C29.5356 4.47016 29.5895 4.40163 29.8164 4.15167C29.8762 4.08576 29.936 4.01985 29.9976 3.95195C30.3001 3.62995 30.6089 3.31501 30.9218 3.00307C30.989 2.93569 31.0563 2.8683 31.1257 2.79888C31.2665 2.65799 31.4074 2.51722 31.5485 2.37656C31.765 2.16051 31.9811 1.94397 32.1971 1.72738C32.3344 1.59008 32.4718 1.45281 32.6093 1.31557C32.6739 1.25074 32.7385 1.1859 32.8051 1.1191C32.865 1.05959 32.9248 1.00008 32.9864 0.938766C33.0389 0.886276 33.0915 0.833786 33.1457 0.779706C33.449 0.503001 33.7275 0.521857 34.125 0.562278Z" fill="#FF7705"></path>
    <path d="M5.4368 35.1564C5.72004 35.4475 5.75329 35.6602 5.75412 36.0597C5.75507 36.1658 5.75601 36.2719 5.75699 36.3812C5.75671 36.4956 5.75642 36.61 5.75613 36.7278C5.75715 36.8459 5.75816 36.9641 5.75921 37.0858C5.76243 37.4642 5.76394 37.8425 5.76492 38.2208C5.76621 38.7173 5.76946 39.2137 5.77371 39.7102C5.77343 39.8236 5.77314 39.937 5.77285 40.0539C5.77982 40.8444 5.83728 41.647 6.4129 42.2498C7.28361 42.9827 8.23938 42.9055 9.31351 42.8896C9.48872 42.8888 9.66394 42.8881 9.83916 42.8876C10.2975 42.8859 10.7559 42.8813 11.2142 42.8761C11.6831 42.8712 12.1519 42.8691 12.6208 42.8668C13.5386 42.8618 14.4565 42.8538 15.3743 42.8439C15.3213 42.7914 15.2683 42.7389 15.2138 42.6848C14.9741 42.4471 14.7347 42.209 14.4954 41.9708C14.412 41.8882 14.3286 41.8056 14.2427 41.7205C14.1629 41.6411 14.0832 41.5616 14.001 41.4797C13.9274 41.4066 13.8537 41.3334 13.7778 41.2581C13.5243 40.99 13.4117 40.8366 13.3704 40.465C13.412 40.0629 13.4769 39.9211 13.7805 39.6564C14.1368 39.5527 14.3342 39.51 14.6689 39.6815C14.896 39.8373 15.0815 39.9966 15.2757 40.1912C15.3448 40.2601 15.4139 40.3289 15.4851 40.3998C15.5583 40.4736 15.6314 40.5475 15.7068 40.6235C15.7829 40.6997 15.859 40.7758 15.9374 40.8543C16.0978 41.0149 16.2579 41.1757 16.4178 41.3368C16.6633 41.584 16.9095 41.8305 17.1559 42.0768C17.3116 42.233 17.4672 42.3892 17.6228 42.5454C17.6968 42.6194 17.7707 42.6935 17.8468 42.7697C17.9148 42.8383 17.9827 42.9068 18.0527 42.9774C18.1127 43.0377 18.1727 43.0981 18.2345 43.1603C18.4239 43.3666 18.4654 43.4768 18.4973 43.7579C18.4307 44.4513 17.8155 44.9288 17.3452 45.3945C17.2734 45.4663 17.2015 45.5382 17.1275 45.6121C16.9763 45.7631 16.8248 45.9138 16.6732 46.0643C16.4403 46.2954 16.2083 46.5272 15.9763 46.7592C15.8292 46.9059 15.682 47.0526 15.5347 47.1992C15.4651 47.2687 15.3954 47.3383 15.3237 47.4099C15.2592 47.4738 15.1948 47.5376 15.1283 47.6034C15.0432 47.688 15.0432 47.688 14.9564 47.7743C14.6833 48.0237 14.4314 48.038 14.0658 48.032C13.8743 48.0001 13.8743 48.0001 13.593 47.8068C13.4055 47.5314 13.4055 47.5314 13.3352 47.2208C13.4912 46.4538 14.2545 45.9316 14.7909 45.3956C14.8561 45.3305 14.9213 45.2653 14.9885 45.1981C15.1483 45.0384 15.3082 44.8786 15.468 44.7189C15.3185 44.7184 15.3185 44.7184 15.166 44.7178C14.2226 44.7144 13.2793 44.7089 12.336 44.7016C11.8511 44.6979 11.3663 44.6949 10.8814 44.6935C10.4127 44.692 9.94406 44.6888 9.47539 44.6843C9.29735 44.683 9.1193 44.6822 8.94125 44.6821C7.46052 44.6808 6.30812 44.518 5.15555 43.5001C4.3746 42.7059 4.0229 41.602 4.01544 40.5071C4.01454 40.3997 4.01364 40.2924 4.01271 40.1819C4.01231 40.0673 4.01191 39.9528 4.0115 39.8347C4.01097 39.7159 4.01043 39.5971 4.00988 39.4748C4.009 39.2241 4.00835 38.9734 4.00802 38.7228C4.00751 38.4023 4.00525 38.0818 4.00259 37.7614C4.00042 37.4544 4.00024 37.1475 3.99978 36.8406C3.99863 36.7258 3.99747 36.6111 3.99628 36.4928C3.99656 36.3858 3.99684 36.2788 3.99713 36.1686C3.99679 36.0747 3.99645 35.9808 3.99609 35.8841C4.03667 35.5791 4.1319 35.404 4.3118 35.1564C4.71744 34.8972 5.00464 34.9803 5.4368 35.1564Z" fill="#FF7705"></path>
    <path d="M27.6981 30.1629C27.8202 30.1622 27.9423 30.1616 28.0681 30.1609C28.2028 30.1611 28.3374 30.1613 28.4721 30.1616C28.6144 30.1612 28.7567 30.1607 28.8991 30.1601C29.2851 30.1589 29.6711 30.1588 30.0572 30.1591C30.3796 30.1592 30.7021 30.1587 31.0245 30.1583C31.7853 30.1572 32.546 30.1572 33.3068 30.1578C34.0912 30.1583 34.8757 30.1572 35.6602 30.1552C36.3341 30.1535 37.008 30.153 37.6819 30.1533C38.0842 30.1534 38.4865 30.1532 38.8889 30.1519C39.2672 30.1507 39.6456 30.1509 40.0239 30.1521C40.1626 30.1523 40.3013 30.1521 40.44 30.1513C40.6297 30.1503 40.8193 30.1512 41.009 30.1523C41.115 30.1522 41.221 30.1522 41.3303 30.1522C41.726 30.1994 42.0645 30.3187 42.3224 30.6327C42.4018 30.9503 42.3603 31.184 42.2814 31.4998C42.0756 31.7735 41.9667 31.8647 41.6256 31.922C41.5151 31.9222 41.4046 31.9223 41.2908 31.9225C41.1983 31.9233 41.1983 31.9233 41.1039 31.9242C40.8973 31.9257 40.6908 31.9245 40.4842 31.9234C40.3361 31.9239 40.1879 31.9245 40.0397 31.9254C39.6374 31.9271 39.2352 31.9264 38.8328 31.9252C38.412 31.9243 37.9911 31.9251 37.5703 31.9257C36.8635 31.9264 36.1567 31.9255 35.4499 31.9237C34.6326 31.9217 33.8153 31.9224 32.9979 31.9244C32.2964 31.9261 31.5949 31.9264 30.8934 31.9254C30.4743 31.9248 30.0552 31.9247 29.6361 31.926C29.2421 31.927 28.8482 31.9263 28.4542 31.9241C28.3095 31.9236 28.1648 31.9238 28.0202 31.9246C27.8228 31.9256 27.6256 31.9243 27.4282 31.9225C27.2625 31.9223 27.2625 31.9223 27.0935 31.922C26.7524 31.8647 26.6439 31.773 26.4376 31.4998C26.3386 31.1369 26.3087 30.9314 26.4494 30.5799C26.7921 30.18 27.1941 30.1638 27.6981 30.1629Z" fill="#FF7705"></path>
    <path d="M27.6981 25.3817C27.8202 25.381 27.9423 25.3803 28.0681 25.3796C28.2028 25.3799 28.3374 25.3801 28.4721 25.3803C28.6144 25.3799 28.7567 25.3795 28.8991 25.3789C29.2851 25.3776 29.6711 25.3776 30.0572 25.3778C30.3796 25.3779 30.7021 25.3775 31.0245 25.377C31.7853 25.376 32.546 25.3759 33.3068 25.3765C34.0912 25.3771 34.8757 25.3759 35.6602 25.3739C36.3341 25.3723 37.008 25.3717 37.6819 25.372C38.0842 25.3722 38.4865 25.3719 38.8889 25.3706C39.2672 25.3694 39.6456 25.3696 40.0239 25.3709C40.1626 25.3711 40.3013 25.3708 40.44 25.37C40.6297 25.3691 40.8193 25.37 41.009 25.371C41.115 25.371 41.221 25.371 41.3303 25.371C41.726 25.4181 42.0645 25.5374 42.3224 25.8514C42.4018 26.169 42.3603 26.4028 42.2814 26.7186C42.0756 26.9923 41.9667 27.0835 41.6256 27.1408C41.5151 27.1409 41.4046 27.1411 41.2908 27.1412C41.1983 27.1421 41.1983 27.1421 41.1039 27.143C40.8973 27.1445 40.6908 27.1433 40.4842 27.1421C40.3361 27.1426 40.1879 27.1433 40.0397 27.1441C39.6374 27.1458 39.2352 27.1452 38.8328 27.144C38.412 27.143 37.9911 27.1439 37.5703 27.1445C36.8635 27.1452 36.1567 27.1443 35.4499 27.1425C34.6326 27.1404 33.8153 27.1411 32.9979 27.1432C32.2964 27.1449 31.5949 27.1451 30.8934 27.1441C30.4743 27.1435 30.0552 27.1435 29.6361 27.1447C29.2421 27.1458 28.8482 27.145 28.4542 27.1429C28.3095 27.1424 28.1648 27.1425 28.0202 27.1433C27.8228 27.1444 27.6256 27.1431 27.4282 27.1412C27.2625 27.141 27.2625 27.141 27.0935 27.1408C26.7524 27.0835 26.6439 26.9917 26.4376 26.7186C26.3386 26.3556 26.3087 26.1502 26.4494 25.7987C26.7921 25.3988 27.1941 25.3826 27.6981 25.3817Z" fill="#FF7705"></path>
    <path d="M27.6981 34.9442C27.8202 34.9435 27.9423 34.9428 28.0681 34.9421C28.2028 34.9424 28.3374 34.9426 28.4721 34.9428C28.6144 34.9424 28.7567 34.942 28.8991 34.9414C29.2851 34.9401 29.6711 34.9401 30.0572 34.9403C30.3796 34.9404 30.7021 34.94 31.0245 34.9395C31.7853 34.9385 32.546 34.9384 33.3068 34.939C34.0912 34.9396 34.8757 34.9384 35.6602 34.9364C36.3341 34.9348 37.008 34.9342 37.6819 34.9345C38.0842 34.9347 38.4865 34.9344 38.8889 34.9331C39.2672 34.9319 39.6456 34.9321 40.0239 34.9334C40.1626 34.9336 40.3013 34.9333 40.44 34.9325C40.6297 34.9316 40.8193 34.9325 41.009 34.9335C41.115 34.9335 41.221 34.9335 41.3303 34.9335C41.726 34.9806 42.0645 35.0999 42.3224 35.4139C42.4018 35.7315 42.3603 35.9653 42.2814 36.2811C42.0756 36.5548 41.9667 36.646 41.6256 36.7033C41.5151 36.7034 41.4046 36.7036 41.2908 36.7037C41.1983 36.7046 41.1983 36.7046 41.1039 36.7055C40.8973 36.707 40.6908 36.7058 40.4842 36.7046C40.3361 36.7051 40.1879 36.7058 40.0397 36.7066C39.6374 36.7083 39.2352 36.7077 38.8328 36.7065C38.412 36.7055 37.9911 36.7064 37.5703 36.707C36.8635 36.7077 36.1567 36.7068 35.4499 36.705C34.6326 36.7029 33.8153 36.7036 32.9979 36.7057C32.2964 36.7074 31.5949 36.7076 30.8934 36.7066C30.4743 36.706 30.0552 36.706 29.6361 36.7072C29.2421 36.7083 28.8482 36.7075 28.4542 36.7054C28.3095 36.7049 28.1648 36.705 28.0202 36.7058C27.8228 36.7069 27.6256 36.7056 27.4282 36.7037C27.2625 36.7035 27.2625 36.7035 27.0935 36.7033C26.7524 36.646 26.6439 36.5542 26.4376 36.2811C26.3386 35.9181 26.3087 35.7127 26.4494 35.3612C26.7921 34.9613 27.1941 34.9451 27.6981 34.9442Z" fill="#FF7705"></path>
    <path d="M7.07638 11.0381C7.19689 11.0375 7.31741 11.0368 7.44158 11.0361C7.57397 11.0363 7.70637 11.0366 7.83876 11.0368C7.9791 11.0364 8.11943 11.0359 8.25976 11.0354C8.64 11.0341 9.02022 11.0341 9.40045 11.0343C9.71823 11.0344 10.036 11.0339 10.3538 11.0335C11.1036 11.0324 11.8535 11.0324 12.6033 11.033C13.3761 11.0335 14.1489 11.0324 14.9217 11.0304C15.586 11.0287 16.2503 11.0282 16.9145 11.0285C17.311 11.0286 17.7074 11.0284 18.1038 11.0271C18.4766 11.0259 18.8494 11.0261 19.2222 11.0273C19.3588 11.0275 19.4953 11.0273 19.6318 11.0265C20.9226 11.0197 20.9226 11.0197 21.4686 11.3438C21.6789 11.5892 21.6561 11.7199 21.6444 12.0469C21.5522 12.4156 21.4843 12.5216 21.1874 12.7501C20.9065 12.7973 20.9065 12.7973 20.5718 12.7977C20.4792 12.7986 20.4792 12.7986 20.3848 12.7995C20.1782 12.8009 19.9718 12.7998 19.7652 12.7986C19.617 12.7991 19.4689 12.7998 19.3207 12.8006C18.9184 12.8023 18.5161 12.8016 18.1138 12.8004C17.693 12.7995 17.2721 12.8004 16.8512 12.801C16.1445 12.8016 15.4377 12.8007 14.7309 12.799C13.9136 12.7969 13.0963 12.7976 12.2789 12.7996C11.5774 12.8013 10.8759 12.8016 10.1744 12.8006C9.75526 12.8 9.33619 12.7999 8.91709 12.8012C8.5231 12.8023 8.12915 12.8015 7.73516 12.7993C7.59049 12.7988 7.44582 12.799 7.30115 12.7998C7.10378 12.8008 6.90655 12.7996 6.7092 12.7977C6.54348 12.7975 6.54348 12.7975 6.37443 12.7973C6.03333 12.7399 5.92482 12.6482 5.71861 12.3751C5.62039 12.0149 5.59184 11.8062 5.72447 11.4551C6.08161 11.0519 6.56364 11.0391 7.07638 11.0381Z" fill="#FF7705"></path>
    <path d="M6.91888 15.8193C7.08191 15.8183 7.08191 15.8183 7.24824 15.8173C7.36664 15.8175 7.48505 15.8177 7.60705 15.818C7.73366 15.8176 7.86028 15.8171 7.9869 15.8165C8.33013 15.8153 8.67336 15.8152 9.0166 15.8154C9.30339 15.8155 9.59018 15.8151 9.87698 15.8146C10.5537 15.8136 11.2304 15.8136 11.9071 15.8141C12.6047 15.8147 13.3022 15.8135 13.9998 15.8115C14.5992 15.8099 15.1987 15.8093 15.7982 15.8096C16.156 15.8098 16.5137 15.8096 16.8715 15.8082C17.208 15.8071 17.5445 15.8073 17.881 15.8085C18.063 15.8088 18.2449 15.8077 18.4268 15.8066C19.4445 15.8128 19.4445 15.8128 19.8751 16.125C20.0944 16.4539 20.1013 16.5816 20.0626 16.9687C19.8503 17.403 19.8503 17.403 19.5939 17.5312C19.4166 17.5408 19.2389 17.5443 19.0613 17.545C18.8914 17.546 18.8914 17.546 18.718 17.547C18.5918 17.5473 18.4655 17.5476 18.3393 17.5478C18.2069 17.5484 18.0744 17.549 17.942 17.5497C17.5817 17.5513 17.2215 17.5523 16.8612 17.5531C16.6362 17.5536 16.4112 17.5541 16.1862 17.5547C15.4826 17.5565 14.7791 17.5578 14.0755 17.5586C13.2627 17.5595 12.4499 17.562 11.6371 17.5658C11.0092 17.5686 10.3814 17.57 9.75349 17.5703C9.3783 17.5705 9.00313 17.5714 8.62795 17.5737C8.27505 17.5759 7.92219 17.5763 7.56929 17.5753C7.43974 17.5753 7.31018 17.5759 7.18063 17.5772C7.00384 17.5788 6.82703 17.578 6.65023 17.5769C6.55127 17.5772 6.4523 17.5774 6.35034 17.5776C6.0264 17.519 5.91801 17.4139 5.71888 17.1562C5.61989 16.7932 5.58999 16.5878 5.7306 16.2363C6.05704 15.8555 6.43662 15.8203 6.91888 15.8193Z" fill="#FF7705"></path>
    <path d="M6.91888 25.3818C7.08191 25.3808 7.08191 25.3808 7.24824 25.3798C7.36664 25.38 7.48505 25.3802 7.60705 25.3805C7.73366 25.3801 7.86028 25.3796 7.9869 25.379C8.33013 25.3778 8.67336 25.3777 9.0166 25.3779C9.30339 25.378 9.59018 25.3776 9.87698 25.3771C10.5537 25.3761 11.2304 25.3761 11.9071 25.3766C12.6047 25.3772 13.3022 25.376 13.9998 25.374C14.5992 25.3724 15.1987 25.3718 15.7982 25.3721C16.156 25.3723 16.5137 25.3721 16.8715 25.3707C17.208 25.3696 17.5445 25.3698 17.881 25.371C18.063 25.3713 18.2449 25.3702 18.4268 25.3691C19.4445 25.3753 19.4445 25.3753 19.8751 25.6875C20.0944 26.0164 20.1013 26.1441 20.0626 26.5312C19.8503 26.9655 19.8503 26.9655 19.5939 27.0937C19.4166 27.1033 19.2389 27.1068 19.0613 27.1075C18.8914 27.1085 18.8914 27.1085 18.718 27.1095C18.5918 27.1098 18.4655 27.1101 18.3393 27.1103C18.2069 27.1109 18.0744 27.1115 17.942 27.1122C17.5817 27.1138 17.2215 27.1148 16.8612 27.1156C16.6362 27.1161 16.4112 27.1166 16.1862 27.1172C15.4826 27.119 14.7791 27.1203 14.0755 27.1211C13.2627 27.122 12.4499 27.1245 11.6371 27.1283C11.0092 27.1311 10.3814 27.1325 9.75349 27.1328C9.3783 27.133 9.00313 27.1339 8.62795 27.1362C8.27505 27.1384 7.92219 27.1388 7.56929 27.1378C7.43974 27.1378 7.31018 27.1384 7.18063 27.1397C7.00384 27.1413 6.82703 27.1405 6.65023 27.1394C6.55127 27.1397 6.4523 27.1399 6.35034 27.1401C6.0264 27.0815 5.91801 26.9764 5.71888 26.7187C5.61989 26.3557 5.58999 26.1503 5.7306 25.7988C6.05704 25.418 6.43662 25.3828 6.91888 25.3818Z" fill="#FF7705"></path>
    <path d="M6.91888 20.6005C7.08191 20.5995 7.08191 20.5995 7.24824 20.5985C7.36664 20.5987 7.48505 20.599 7.60705 20.5992C7.73366 20.5988 7.86028 20.5983 7.9869 20.5978C8.33013 20.5965 8.67336 20.5965 9.0166 20.5967C9.30339 20.5968 9.59018 20.5963 9.87698 20.5959C10.5537 20.5948 11.2304 20.5948 11.9071 20.5954C12.6047 20.5959 13.3022 20.5948 13.9998 20.5928C14.5992 20.5911 15.1987 20.5906 15.7982 20.5909C16.156 20.591 16.5137 20.5908 16.8715 20.5895C17.208 20.5883 17.5445 20.5885 17.881 20.5897C18.063 20.5901 18.2449 20.589 18.4268 20.5879C19.4445 20.594 19.4445 20.594 19.8751 20.9062C20.0944 21.2352 20.1013 21.3629 20.0626 21.75C19.8503 22.1842 19.8503 22.1842 19.5939 22.3125C19.4166 22.322 19.2389 22.3255 19.0613 22.3263C18.8914 22.3273 18.8914 22.3273 18.718 22.3283C18.5918 22.3286 18.4655 22.3288 18.3393 22.3291C18.2069 22.3296 18.0744 22.3303 17.942 22.3309C17.5817 22.3326 17.2215 22.3335 16.8612 22.3343C16.6362 22.3348 16.4112 22.3354 16.1862 22.336C15.4826 22.3377 14.7791 22.3391 14.0755 22.3399C13.2627 22.3408 12.4499 22.3433 11.6371 22.347C11.0092 22.3499 10.3814 22.3513 9.75349 22.3516C9.3783 22.3518 9.00313 22.3526 8.62795 22.355C8.27505 22.3572 7.92219 22.3576 7.56929 22.3566C7.43974 22.3566 7.31018 22.3571 7.18063 22.3584C7.00384 22.3601 6.82703 22.3592 6.65023 22.3582C6.55127 22.3584 6.4523 22.3586 6.35034 22.3589C6.0264 22.3003 5.91801 22.1952 5.71888 21.9375C5.61989 21.5745 5.58999 21.3691 5.7306 21.0175C6.05704 20.6367 6.43662 20.6015 6.91888 20.6005Z" fill="#FF7705"></path>
    <path d="M27.6376 39.7255C27.8007 39.7245 27.8007 39.7245 27.967 39.7235C28.0854 39.7237 28.2038 39.724 28.3258 39.7242C28.4524 39.7238 28.579 39.7233 28.7056 39.7228C29.0489 39.7215 29.3921 39.7215 29.7353 39.7217C30.0221 39.7218 30.3089 39.7213 30.5957 39.7209C31.2724 39.7198 31.9491 39.7198 32.6258 39.7204C33.3234 39.7209 34.021 39.7198 34.7185 39.7178C35.318 39.7161 35.9175 39.7156 36.5169 39.7159C36.8747 39.716 37.2325 39.7158 37.5903 39.7145C37.9268 39.7133 38.2633 39.7135 38.5998 39.7147C38.7817 39.7151 38.9636 39.714 39.1456 39.7129C40.1488 39.7189 40.1488 39.7189 40.5939 40.0312C40.7975 40.2791 40.7813 40.409 40.7697 40.7343C40.6778 41.1016 40.6062 41.2076 40.3126 41.4375C40.0567 41.4847 40.0567 41.4847 39.7576 41.4851C39.644 41.4861 39.5304 41.4872 39.4134 41.4883C39.2879 41.4876 39.1623 41.4868 39.0368 41.486C38.9043 41.4865 38.7719 41.4872 38.6394 41.488C38.2799 41.4897 37.9204 41.489 37.5609 41.4878C37.1847 41.4869 36.8085 41.4878 36.4324 41.4884C35.8006 41.489 35.1689 41.4881 34.5371 41.4864C33.8067 41.4843 33.0763 41.485 32.3458 41.487C31.7188 41.4887 31.0917 41.489 30.4646 41.488C30.0901 41.4874 29.7155 41.4873 29.341 41.4886C28.9888 41.4897 28.6367 41.4889 28.2846 41.4867C28.1554 41.4862 28.0261 41.4864 27.8969 41.4872C27.7205 41.4882 27.5441 41.4867 27.3677 41.4851C27.2196 41.4849 27.2196 41.4849 27.0686 41.4847C26.7454 41.4251 26.6365 41.3196 26.4376 41.0625C26.3386 40.6995 26.3087 40.4941 26.4494 40.1425C26.7758 39.7617 27.1554 39.7265 27.6376 39.7255Z" fill="#FF7705"></path>
    <path d="M7.26379 6.25547C7.34161 6.25499 7.41943 6.25451 7.4996 6.25402C7.7556 6.25272 8.01158 6.2528 8.26758 6.25302C8.44619 6.25265 8.6248 6.25225 8.80341 6.2518C9.17726 6.2511 9.55111 6.25113 9.92496 6.25162C10.4035 6.25217 10.882 6.25058 11.3605 6.2484C11.7292 6.24702 12.0979 6.24694 12.4666 6.24723C12.643 6.24718 12.8194 6.24669 12.9958 6.24575C13.2426 6.24459 13.4894 6.24523 13.7362 6.24631C13.8087 6.2456 13.8812 6.24488 13.9559 6.24414C14.4044 6.24849 14.7151 6.31964 15.0938 6.56247C15.313 6.8914 15.32 7.01911 15.2812 7.40622C15.0689 7.8405 15.0689 7.8405 14.8125 7.96872C14.5399 7.97943 14.2695 7.98445 13.9968 7.98531C13.9123 7.98593 13.8279 7.98654 13.7409 7.98718C13.4606 7.98903 13.1804 7.99012 12.9001 7.99106C12.7568 7.99163 12.7568 7.99163 12.6106 7.99221C12.105 7.99417 11.5995 7.99551 11.0939 7.99639C10.571 7.99743 10.0481 8.00065 9.52519 8.00437C9.1237 8.00682 8.72223 8.00761 8.32074 8.00795C8.12794 8.0084 7.93514 8.0095 7.74234 8.01123C7.47277 8.01351 7.20329 8.01343 6.9337 8.01278C6.81387 8.01458 6.81387 8.01458 6.69163 8.01642C6.15294 8.01165 6.15294 8.01165 5.85925 7.7986C5.66008 7.50816 5.63114 7.28755 5.625 6.93747C5.72461 6.67379 5.72461 6.67379 5.90625 6.46872C6.3565 6.27417 6.78074 6.25392 7.26379 6.25547Z" fill="#FF7705"></path>
    <path d="M27.8868 20.5992C28.0048 20.5985 28.0048 20.5985 28.1253 20.5978C28.3848 20.5965 28.6444 20.5966 28.9039 20.5968C29.0848 20.5964 29.2656 20.596 29.4465 20.5956C29.8253 20.5949 30.2041 20.5949 30.5829 20.5954C31.0679 20.5959 31.5528 20.5943 32.0378 20.5922C32.4112 20.5908 32.7846 20.5907 33.158 20.591C33.3368 20.5909 33.5156 20.5904 33.6944 20.5895C33.9445 20.5883 34.1947 20.589 34.4449 20.5901C34.5184 20.5893 34.5919 20.5886 34.6676 20.5879C35.1171 20.5922 35.4207 20.6628 35.8125 20.9062C36.0161 21.1541 35.9999 21.284 35.9883 21.6093C35.8946 21.984 35.841 22.0881 35.5312 22.3125C35.2524 22.368 34.9778 22.3637 34.6943 22.361C34.6098 22.3616 34.5253 22.3623 34.4382 22.363C34.159 22.3646 33.8798 22.3635 33.6006 22.3623C33.4065 22.3625 33.2125 22.3629 33.0185 22.3634C32.6118 22.3639 32.2052 22.3631 31.7985 22.3614C31.2771 22.3592 30.7557 22.3604 30.2342 22.3627C29.8335 22.3641 29.4329 22.3636 29.0322 22.3626C28.8399 22.3624 28.6476 22.3627 28.4554 22.3636C28.1867 22.3645 27.9181 22.3631 27.6495 22.361C27.5699 22.3617 27.4903 22.3625 27.4083 22.3633C27.0535 22.3582 26.8711 22.3551 26.5782 22.1421C26.3786 21.8518 26.3499 21.6313 26.3438 21.2812C26.46 20.9905 26.544 20.8559 26.8208 20.7075C27.1775 20.5996 27.5177 20.5981 27.8868 20.5992Z" fill="#FF7705"></path>
    <path d="M43.6876 39.9377C44.0607 40.4337 44.0139 40.9056 44.0099 41.5022C44.0127 41.6482 44.0127 41.6482 44.0156 41.7971C44.0151 42.5792 43.8431 43.1934 43.4298 43.8576C42.655 44.6109 41.9212 44.6467 40.881 44.6545C40.7602 44.6572 40.6394 44.6599 40.515 44.6627C40.399 44.6635 40.2831 44.6643 40.1636 44.6651C40.0574 44.6665 39.9512 44.6679 39.8417 44.6693C39.5024 44.6157 39.3978 44.5156 39.1876 44.2502C39.0522 43.9794 39.0586 43.8005 39.0939 43.5002C39.333 43.2094 39.4855 43.0572 39.8439 42.9377C39.9931 42.9271 40.1426 42.921 40.2921 42.9179C40.3788 42.9153 40.4654 42.9126 40.5547 42.9099C40.7371 42.905 40.9194 42.9008 41.1018 42.8974C41.1885 42.8945 41.2751 42.8916 41.3644 42.8886C41.4436 42.8868 41.5228 42.8849 41.6044 42.883C41.8559 42.8358 41.937 42.7607 42.0939 42.5627C42.2089 42.3327 42.1994 42.1791 42.2008 41.9222C42.2026 41.8319 42.2044 41.7415 42.2063 41.6485C42.2095 41.4583 42.2112 41.2681 42.2114 41.0779C42.2291 40.3823 42.2291 40.3823 42.5026 40.0186C42.9489 39.7037 43.188 39.7414 43.6876 39.9377Z" fill="#FF7705"></path>
  </g>
  <defs>
    <clipPath id="clip0_4393_120">
      <rect width="48" height="48" fill="white"></rect>
    </clipPath>
  </defs>
</svg>
