<?xml version="1.0" encoding="UTF-8"?>
<svg xmlns="http://www.w3.org/2000/svg" width="48" height="48" viewBox="0 0 48 48" fill="none">
  <path d="M35.8616 20.0556C36.4484 20.4497 36.9518 20.9912 37.4652 21.461C37.5628 21.5502 37.6604 21.6393 37.758 21.7285C37.9614 21.9144 38.1647 22.1004 38.368 22.2865C38.6285 22.5251 38.8895 22.7633 39.1506 23.0014C39.3518 23.1849 39.5527 23.3688 39.7535 23.5527C39.8497 23.6406 39.9459 23.7285 40.0423 23.8163C40.1765 23.9387 40.3103 24.0613 40.444 24.1841C40.4839 24.2202 40.5237 24.2564 40.5647 24.2937C40.6011 24.3272 40.6375 24.3607 40.6749 24.3952C40.7223 24.4386 40.7223 24.4386 40.7707 24.4828C40.9451 24.6711 41.0067 24.8522 40.9994 25.1017C40.9622 25.2447 40.9001 25.3098 40.7916 25.4176C40.7541 25.455 40.7166 25.4924 40.678 25.5309C40.4833 25.7186 40.2872 25.9047 40.0883 26.0887C40.0432 26.1306 39.9981 26.1725 39.9516 26.2157C39.4846 26.6492 39.0157 27.081 38.5467 27.5127C38.2966 27.743 38.0474 27.974 37.7986 28.2054C37.5581 28.4289 37.3166 28.6513 37.0747 28.8734C36.9723 28.9677 36.8702 29.0623 36.7686 29.1573C36.6265 29.2898 36.4832 29.4211 36.3396 29.5522C36.298 29.5915 36.2564 29.6309 36.2135 29.6714C35.9433 29.9147 35.7748 30.0019 35.3919 30C35.1363 29.9293 35.0612 29.8726 34.9258 29.6607C34.8569 29.4416 34.8366 29.3532 34.9221 29.1399C35.2617 28.7224 35.7034 28.3641 36.1054 27.9977C36.1798 27.9296 36.2543 27.8615 36.3287 27.7934C36.5233 27.6155 36.718 27.4378 36.9128 27.26C37.112 27.0782 37.3112 26.8961 37.5103 26.7141C37.9 26.3579 38.2899 26.0019 38.6799 25.646C38.6224 25.6459 38.565 25.6458 38.5059 25.6458C35.1057 25.6427 31.7055 25.6387 28.3053 25.6336C27.8973 25.633 27.4894 25.6324 27.0814 25.6318C27.0408 25.6318 27.0002 25.6317 26.9584 25.6317C25.6419 25.6297 24.3255 25.6284 23.009 25.6272C21.6181 25.626 20.2272 25.6242 18.8363 25.6218C18.0028 25.6204 17.1694 25.6195 16.3359 25.6191C15.7649 25.6188 15.1939 25.618 14.6229 25.6166C14.2931 25.6159 13.9633 25.6154 13.6335 25.6156C13.3319 25.6158 13.0302 25.6152 12.7286 25.6141C12.6192 25.6138 12.5098 25.6138 12.4004 25.6141C12.2522 25.6144 12.104 25.6138 11.9558 25.6129C11.9129 25.6132 11.8701 25.6136 11.826 25.6139C11.5087 25.6104 11.3247 25.5359 11.0951 25.3402C10.992 25.1563 10.9795 24.985 11.0254 24.7859C11.1283 24.6236 11.2503 24.4948 11.4364 24.4096C11.5836 24.4042 11.7291 24.402 11.8763 24.4022C11.9224 24.402 11.9686 24.4019 12.0161 24.4017C12.1723 24.4013 12.3285 24.4012 12.4848 24.4011C12.5972 24.4009 12.7097 24.4006 12.8222 24.4003C13.1326 24.3996 13.4429 24.3992 13.7533 24.3988C14.0875 24.3984 14.4217 24.3977 14.7558 24.397C15.3353 24.3958 15.9147 24.3948 16.4942 24.394C17.332 24.3928 18.1698 24.3913 19.0075 24.3897C20.3667 24.3871 21.7258 24.3848 23.0849 24.3826C24.4055 24.3805 25.7261 24.3783 27.0466 24.3759C27.0873 24.3758 27.128 24.3757 27.1699 24.3757C27.5785 24.3749 27.9871 24.3742 28.3957 24.3735C31.8238 24.3672 35.2518 24.3614 38.6799 24.3559C38.6336 24.3137 38.5874 24.2715 38.5398 24.228C38.1051 23.8311 37.6705 23.434 37.236 23.0368C37.0127 22.8326 36.7892 22.6284 36.5657 22.4244C36.3501 22.2276 36.1346 22.0306 35.9192 21.8336C35.8369 21.7584 35.7545 21.6831 35.6721 21.6079C35.557 21.5029 35.442 21.3977 35.3271 21.2925C35.2927 21.2612 35.2583 21.2299 35.2229 21.1977C34.9994 20.9925 34.9124 20.8917 34.9001 20.6032C34.9018 20.3883 34.9105 20.3385 35.0579 20.1598C35.3208 19.9863 35.557 19.9582 35.8616 20.0556Z" fill="#FF7705" stroke="#FF7705" stroke-width="0.5"></path>
  <path d="M18.0556 12.1384C18.4497 11.5516 18.9912 11.0482 19.461 10.5348C19.5502 10.4372 19.6393 10.3396 19.7285 10.242C19.9144 10.0386 20.1004 9.83525 20.2865 9.63203C20.5251 9.37146 20.7633 9.11048 21.0014 8.8494C21.1849 8.64823 21.3688 8.44732 21.5527 8.24649C21.6406 8.15032 21.7285 8.05406 21.8163 7.9577C21.9387 7.82351 22.0613 7.68969 22.1841 7.55596C22.2202 7.51612 22.2564 7.47629 22.2937 7.43525C22.3272 7.39889 22.3607 7.36252 22.3952 7.32505C22.4386 7.27765 22.4386 7.27765 22.4828 7.22929C22.6711 7.05489 22.8522 6.99333 23.1017 7.00057C23.2447 7.03777 23.3098 7.09988 23.4175 7.20844C23.455 7.2459 23.4924 7.28336 23.5309 7.32196C23.7186 7.51666 23.9047 7.71279 24.0887 7.91167C24.1306 7.95679 24.1725 8.00191 24.2157 8.04839C24.6492 8.51544 25.081 8.98431 25.5127 9.45332C25.743 9.70343 25.974 9.95261 26.2054 10.2014C26.4289 10.4419 26.6513 10.6834 26.8734 10.9253C26.9677 11.0277 27.0623 11.1298 27.1573 11.2314C27.2898 11.3735 27.4211 11.5168 27.5522 11.6604C27.5915 11.702 27.6309 11.7436 27.6714 11.7865C27.9147 12.0566 28.0019 12.2252 28 12.6081C27.9293 12.8637 27.8726 12.9388 27.6607 13.0742C27.4416 13.1431 27.3532 13.1634 27.1399 13.0779C26.7224 12.7383 26.3641 12.2966 25.9977 11.8946C25.9296 11.8202 25.8615 11.7457 25.7934 11.6713C25.6155 11.4767 25.4378 11.282 25.26 11.0872C25.0782 10.888 24.8961 10.6888 24.7141 10.4897C24.3579 10.1 24.0019 9.71014 23.646 9.32014C23.6459 9.37755 23.6458 9.43496 23.6458 9.49411C23.6427 12.8943 23.6387 16.2945 23.6336 19.6947C23.633 20.1027 23.6324 20.5106 23.6318 20.9186C23.6318 20.9592 23.6317 20.9998 23.6317 21.0416C23.6297 22.3581 23.6284 23.6745 23.6272 24.991C23.626 26.3819 23.6242 27.7728 23.6218 29.1637C23.6204 29.9972 23.6195 30.8306 23.6191 31.6641C23.6188 32.2351 23.618 32.8061 23.6166 33.3771C23.6159 33.7069 23.6154 34.0367 23.6156 34.3665C23.6158 34.6681 23.6152 34.9698 23.6141 35.2714C23.6138 35.3808 23.6138 35.4902 23.6141 35.5996C23.6144 35.7478 23.6138 35.896 23.6129 36.0442C23.6132 36.0871 23.6136 36.1299 23.6139 36.174C23.6104 36.4913 23.5359 36.6753 23.3402 36.9049C23.1563 37.008 22.985 37.0205 22.7859 36.9746C22.6236 36.8717 22.4948 36.7497 22.4096 36.5636C22.4042 36.4164 22.402 36.2709 22.4022 36.1237C22.402 36.0776 22.4019 36.0314 22.4017 35.9839C22.4013 35.8277 22.4012 35.6715 22.4011 35.5152C22.4009 35.4028 22.4006 35.2903 22.4003 35.1778C22.3996 34.8674 22.3992 34.5571 22.3988 34.2467C22.3984 33.9125 22.3977 33.5783 22.397 33.2442C22.3958 32.6647 22.3948 32.0853 22.394 31.5058C22.3928 30.668 22.3913 29.8302 22.3897 28.9925C22.3871 27.6333 22.3848 26.2742 22.3826 24.9151C22.3805 23.5945 22.3783 22.2739 22.3759 20.9534C22.3758 20.9127 22.3757 20.872 22.3757 20.8301C22.3749 20.4215 22.3742 20.0129 22.3735 19.6043C22.3672 16.1762 22.3614 12.7482 22.3559 9.32014C22.3137 9.36635 22.2715 9.41256 22.228 9.46017C21.8311 9.89493 21.434 10.3295 21.0368 10.764C20.8326 10.9873 20.6284 11.2108 20.4244 11.4343C20.2276 11.6499 20.0306 11.8654 19.8336 12.0808C19.7583 12.1631 19.6831 12.2455 19.6079 12.3279C19.5029 12.443 19.3977 12.558 19.2925 12.6729C19.2612 12.7073 19.2299 12.7417 19.1977 12.7771C18.9925 13.0006 18.8917 13.0876 18.6032 13.0999C18.3883 13.0982 18.3385 13.0895 18.1598 12.9421C17.9863 12.6792 17.9582 12.443 18.0556 12.1384Z" fill="#FF7705" stroke="#FF7705" stroke-width="0.5"></path>
  <path d="M10.1384 29.9444C9.55157 29.5503 9.04818 29.0088 8.53479 28.539C8.43719 28.4498 8.33958 28.3607 8.24197 28.2715C8.03855 28.0856 7.83525 27.8996 7.63203 27.7135C7.37146 27.4749 7.11048 27.2367 6.8494 26.9986C6.64823 26.8151 6.44732 26.6312 6.24649 26.4473C6.15032 26.3594 6.05406 26.2715 5.9577 26.1837C5.82351 26.0613 5.68969 25.9387 5.55596 25.8159C5.51612 25.7798 5.47629 25.7436 5.43525 25.7063C5.39889 25.6728 5.36252 25.6393 5.32505 25.6048C5.27765 25.5614 5.27765 25.5614 5.22929 25.5172C5.05489 25.3289 4.99333 25.1478 5.00057 24.8983C5.03777 24.7553 5.09988 24.6902 5.20844 24.5825C5.2459 24.545 5.28336 24.5076 5.32196 24.4691C5.51666 24.2814 5.71279 24.0953 5.91167 23.9113C5.95679 23.8694 6.00191 23.8275 6.04839 23.7843C6.51544 23.3508 6.98431 22.919 7.45332 22.4873C7.70343 22.257 7.95261 22.026 8.20144 21.7946C8.44186 21.5711 8.68339 21.3487 8.92533 21.1266C9.02772 21.0323 9.12976 20.9377 9.23144 20.8427C9.37349 20.7102 9.51678 20.5789 9.66044 20.4478C9.70203 20.4085 9.74362 20.3691 9.78647 20.3286C10.0566 20.0853 10.2252 19.9981 10.6081 20C10.8637 20.0707 10.9388 20.1274 11.0742 20.3393C11.1431 20.5584 11.1634 20.6468 11.0779 20.8601C10.7383 21.2776 10.2966 21.6359 9.89463 22.0023C9.82017 22.0704 9.74572 22.1385 9.67129 22.2066C9.47673 22.3845 9.282 22.5622 9.08723 22.74C8.88795 22.9218 8.68885 23.1039 8.48972 23.2859C8.10003 23.6421 7.71014 23.9981 7.32014 24.354C7.37755 24.3541 7.43496 24.3542 7.49411 24.3542C10.8943 24.3573 14.2945 24.3613 17.6947 24.3664C18.1027 24.367 18.5106 24.3676 18.9186 24.3682C18.9592 24.3682 18.9998 24.3683 19.0416 24.3683C20.3581 24.3703 21.6745 24.3716 22.991 24.3728C24.3819 24.374 25.7728 24.3757 27.1637 24.3782C27.9972 24.3796 28.8306 24.3805 29.6641 24.3809C30.2351 24.3812 30.8061 24.382 31.3771 24.3834C31.7069 24.3841 32.0367 24.3846 32.3665 24.3844C32.6681 24.3842 32.9698 24.3848 33.2714 24.3859C33.3808 24.3862 33.4902 24.3862 33.5996 24.3859C33.7478 24.3856 33.896 24.3862 34.0442 24.3871C34.0871 24.3868 34.1299 24.3864 34.174 24.3861C34.4913 24.3896 34.6753 24.4641 34.9049 24.6598C35.008 24.8437 35.0205 25.015 34.9746 25.2141C34.8717 25.3764 34.7497 25.5052 34.5636 25.5904C34.4164 25.5958 34.2709 25.598 34.1237 25.5978C34.0776 25.598 34.0314 25.5981 33.9839 25.5983C33.8277 25.5987 33.6715 25.5988 33.5152 25.5989C33.4028 25.5991 33.2903 25.5994 33.1778 25.5997C32.8674 25.6004 32.5571 25.6008 32.2467 25.6012C31.9125 25.6016 31.5783 25.6023 31.2442 25.603C30.6647 25.6042 30.0853 25.6052 29.5058 25.606C28.668 25.6072 27.8302 25.6087 26.9925 25.6103C25.6333 25.6129 24.2742 25.6152 22.9151 25.6174C21.5945 25.6195 20.2739 25.6217 18.9534 25.6241C18.9127 25.6242 18.872 25.6243 18.8301 25.6243C18.4215 25.6251 18.0129 25.6258 17.6043 25.6265C14.1762 25.6328 10.7482 25.6386 7.32014 25.6441C7.36635 25.6863 7.41256 25.7285 7.46017 25.772C7.89493 26.1689 8.32952 26.566 8.76397 26.9632C8.98734 27.1674 9.21078 27.3716 9.43433 27.5756C9.64993 27.7724 9.86539 27.9694 10.0808 28.1664C10.1631 28.2417 10.2455 28.3169 10.3279 28.3921C10.443 28.4971 10.558 28.6023 10.6729 28.7075C10.7073 28.7388 10.7417 28.7701 10.7771 28.8023C11.0006 29.0075 11.0876 29.1083 11.0999 29.3968C11.0982 29.6117 11.0895 29.6615 10.9421 29.8402C10.6792 30.0137 10.443 30.0418 10.1384 29.9444Z" fill="#FF7705" stroke="#FF7705" stroke-width="0.5"></path>
  <path d="M27.9444 37.8616C27.5503 38.4484 27.0088 38.9518 26.539 39.4652C26.4498 39.5628 26.3607 39.6604 26.2715 39.758C26.0856 39.9614 25.8996 40.1647 25.7135 40.368C25.4749 40.6285 25.2367 40.8895 24.9986 41.1506C24.8151 41.3518 24.6312 41.5527 24.4473 41.7535C24.3594 41.8497 24.2715 41.9459 24.1837 42.0423C24.0613 42.1765 23.9387 42.3103 23.8159 42.444C23.7798 42.4839 23.7436 42.5237 23.7063 42.5647C23.6728 42.6011 23.6393 42.6375 23.6048 42.6749C23.5614 42.7223 23.5614 42.7223 23.5172 42.7707C23.3289 42.9451 23.1478 43.0067 22.8983 42.9994C22.7553 42.9622 22.6902 42.9001 22.5824 42.7916C22.545 42.7541 22.5076 42.7166 22.4691 42.678C22.2814 42.4833 22.0953 42.2872 21.9113 42.0883C21.8694 42.0432 21.8275 41.9981 21.7843 41.9516C21.3508 41.4846 20.919 41.0157 20.4873 40.5467C20.257 40.2966 20.026 40.0474 19.7946 39.7986C19.5711 39.5581 19.3487 39.3166 19.1266 39.0747C19.0323 38.9723 18.9377 38.8702 18.8427 38.7686C18.7102 38.6265 18.5789 38.4832 18.4478 38.3396C18.4085 38.298 18.3691 38.2564 18.3286 38.2135C18.0853 37.9433 17.9981 37.7748 18 37.3919C18.0707 37.1363 18.1274 37.0612 18.3393 36.9258C18.5584 36.8569 18.6468 36.8366 18.8601 36.9221C19.2776 37.2617 19.6359 37.7034 20.0023 38.1054C20.0704 38.1798 20.1385 38.2543 20.2066 38.3287C20.3845 38.5233 20.5622 38.718 20.74 38.9128C20.9218 39.112 21.1039 39.3112 21.2859 39.5103C21.6421 39.9 21.9981 40.2899 22.354 40.6799C22.3541 40.6224 22.3542 40.565 22.3542 40.5059C22.3573 37.1057 22.3613 33.7055 22.3664 30.3053C22.367 29.8973 22.3676 29.4894 22.3682 29.0814C22.3682 29.0408 22.3683 29.0002 22.3683 28.9584C22.3703 27.6419 22.3716 26.3255 22.3728 25.009C22.374 23.6181 22.3758 22.2272 22.3782 20.8363C22.3796 20.0028 22.3805 19.1694 22.3809 18.3359C22.3812 17.7649 22.382 17.1939 22.3834 16.6229C22.3841 16.2931 22.3846 15.9633 22.3844 15.6335C22.3842 15.3319 22.3848 15.0302 22.3859 14.7286C22.3862 14.6192 22.3862 14.5098 22.3859 14.4004C22.3856 14.2522 22.3862 14.104 22.3871 13.9558C22.3868 13.9129 22.3864 13.8701 22.3861 13.826C22.3896 13.5087 22.4641 13.3247 22.6598 13.0951C22.8437 12.992 23.015 12.9795 23.2141 13.0254C23.3764 13.1283 23.5052 13.2503 23.5904 13.4364C23.5958 13.5836 23.598 13.7291 23.5978 13.8763C23.598 13.9224 23.5981 13.9686 23.5983 14.0161C23.5987 14.1723 23.5988 14.3285 23.5989 14.4848C23.5991 14.5972 23.5994 14.7097 23.5997 14.8222C23.6004 15.1326 23.6008 15.4429 23.6012 15.7533C23.6016 16.0875 23.6023 16.4217 23.603 16.7558C23.6042 17.3353 23.6052 17.9147 23.606 18.4942C23.6072 19.332 23.6087 20.1698 23.6103 21.0075C23.6129 22.3667 23.6152 23.7258 23.6174 25.0849C23.6195 26.4055 23.6217 27.7261 23.6241 29.0466C23.6242 29.0873 23.6243 29.128 23.6243 29.1699C23.6251 29.5785 23.6258 29.9871 23.6265 30.3957C23.6328 33.8238 23.6386 37.2518 23.6441 40.6799C23.6863 40.6336 23.7285 40.5874 23.772 40.5398C24.1689 40.1051 24.566 39.6705 24.9632 39.236C25.1674 39.0127 25.3716 38.7892 25.5756 38.5657C25.7724 38.3501 25.9694 38.1346 26.1664 37.9192C26.2416 37.8369 26.3169 37.7545 26.3921 37.6721C26.4971 37.557 26.6023 37.442 26.7075 37.3271C26.7388 37.2927 26.7701 37.2583 26.8023 37.2229C27.0075 36.9994 27.1083 36.9124 27.3968 36.9001C27.6117 36.9018 27.6615 36.9105 27.8402 37.0579C28.0137 37.3208 28.0418 37.557 27.9444 37.8616Z" fill="#FF7705" stroke="#FF7705" stroke-width="0.5"></path>
</svg>
