<?xml version="1.0" encoding="UTF-8"?>
<svg xmlns="http://www.w3.org/2000/svg" width="46" height="46" viewBox="0 0 46 46" fill="none">
  <path d="M20.736 1.01218C20.8025 1.01142 20.869 1.01067 20.9376 1.0099C21.1568 1.00802 21.3759 1.00926 21.5951 1.01071C21.7479 1.01042 21.9006 1.01001 22.0533 1.00947C22.3731 1.00884 22.6929 1.00975 23.0127 1.01176C23.4223 1.0142 23.8318 1.01279 24.2414 1.01023C24.5567 1.00868 24.872 1.00917 25.1873 1.01028C25.3383 1.01057 25.4893 1.01022 25.6403 1.00922C25.8516 1.00813 26.0626 1.00979 26.2738 1.01218C26.3671 1.01087 26.3671 1.01087 26.4623 1.00955C26.7834 1.01625 26.9362 1.05958 27.1956 1.25818C27.3799 1.5149 27.418 1.6178 27.4141 1.93015C27.414 2.01418 27.414 2.09821 27.414 2.18479C27.4118 2.27442 27.4096 2.36406 27.4074 2.45641C27.4068 2.549 27.4062 2.64159 27.4056 2.73699C27.4033 3.03214 27.398 3.32716 27.3927 3.62227C27.3906 3.8226 27.3886 4.02294 27.3869 4.22328C27.3827 4.71392 27.3744 5.20426 27.3664 5.69491C28.3637 5.69491 29.361 5.69491 30.3885 5.69491C30.3836 5.39678 30.3788 5.09865 30.3737 4.79148C30.3705 4.50249 30.3679 4.21351 30.3654 3.92451C30.3633 3.72377 30.3605 3.52304 30.3568 3.32233C30.3517 3.03367 30.3494 2.7451 30.3475 2.45641C30.3453 2.36677 30.3432 2.27714 30.3409 2.18479C30.3407 1.56007 30.3407 1.56007 30.5901 1.22613C30.8713 1.02182 31.0153 0.983739 31.3535 1.00536C31.763 1.12662 32.0497 1.42896 32.3578 1.71858C32.5399 1.88792 32.7277 2.05016 32.9154 2.213C33.0657 2.34353 33.2154 2.47485 33.365 2.60637C33.6466 2.85361 33.9296 3.09907 34.2133 3.34377C34.2803 3.40158 34.2803 3.40158 34.3487 3.46055C34.4387 3.53814 34.5286 3.61571 34.6186 3.69327C34.8457 3.88902 35.0725 4.08503 35.2993 4.28102C35.3903 4.35957 35.4812 4.43812 35.5722 4.51667C35.7541 4.67377 35.9359 4.83087 36.1178 4.98797C36.1628 5.02684 36.2078 5.06572 36.2542 5.10577C36.3452 5.18438 36.4362 5.263 36.5272 5.34163C36.7535 5.53705 36.9797 5.73239 37.2062 5.92755C37.6811 6.33709 38.1544 6.74844 38.6257 7.16237C38.9666 7.4617 39.3099 7.75702 39.6593 8.04605C40.0946 8.40668 40.5181 8.78027 40.9404 9.1565C41.0161 9.22386 41.0161 9.22386 41.0933 9.29259C41.1665 9.35817 41.1665 9.35817 41.2411 9.42508C41.336 9.50786 41.4327 9.58851 41.5312 9.66671C41.7227 9.81902 41.8706 9.94038 41.9773 10.1659C42.0107 10.4437 42.0281 10.6635 41.8756 10.9051C41.8301 10.9551 41.7845 11.0052 41.7375 11.0567C41.6836 11.1162 41.6297 11.1756 41.5742 11.2369C41.1955 11.6367 40.8131 12.0323 40.4275 12.4251C40.3317 12.523 40.236 12.6209 40.1403 12.7188C39.882 12.9828 39.6236 13.2465 39.3651 13.5101C39.0941 13.7864 38.8234 14.063 38.5526 14.3396C38.0985 14.8032 37.6443 15.2667 37.1899 15.7301C36.6643 16.2661 36.139 16.8025 35.6139 17.339C35.1625 17.8002 34.711 18.2611 34.2594 18.7219C33.9898 18.997 33.7203 19.2721 33.4509 19.5473C33.1981 19.8056 32.9452 20.0636 32.692 20.3215C32.599 20.4163 32.5061 20.5112 32.4133 20.6062C32.2869 20.7354 32.1603 20.8644 32.0336 20.9933C31.9627 21.0656 31.8918 21.1379 31.8188 21.2124C31.5932 21.4285 31.5147 21.4586 31.2017 21.4888C30.8439 21.4578 30.7226 21.3746 30.4724 21.1192C30.37 20.9102 30.3784 20.7766 30.379 20.543C30.379 20.4589 30.379 20.3749 30.379 20.2883C30.3794 20.1973 30.3798 20.1063 30.3803 20.0126C30.3805 19.8732 30.3805 19.8732 30.3807 19.7309C30.3811 19.4332 30.3822 19.1355 30.3832 18.8377C30.3837 18.6362 30.384 18.4347 30.3844 18.2332C30.3852 17.7385 30.3869 17.2438 30.3885 16.749C29.3912 16.749 28.3939 16.749 27.3664 16.749C27.3664 18.8133 27.3664 20.8776 27.3664 23.0044C28.5957 22.9909 28.5957 22.9909 29.8249 22.9736C29.981 22.9726 30.137 22.9717 30.2931 22.971C30.3717 22.9692 30.4504 22.9675 30.5314 22.9657C31.5486 22.9651 32.3797 23.3858 33.1325 24.0649C34.2335 25.3406 34.3641 26.6217 34.3559 28.2746C34.355 28.4883 34.3559 28.702 34.3569 28.9158C34.3591 30.9629 34.3591 30.9629 33.888 31.8681C33.8398 31.9634 33.7917 32.0587 33.7421 32.1569C33.2127 33.0417 32.3842 33.6412 31.4098 33.9333C31.2129 33.9761 31.0366 33.9831 30.8354 33.9826C30.7194 33.9826 30.7194 33.9826 30.6012 33.9826C30.5184 33.9821 30.4357 33.9817 30.3505 33.9812C30.2652 33.9811 30.18 33.981 30.0922 33.9809C29.8202 33.9804 29.5482 33.9793 29.2762 33.9782C29.0917 33.9778 28.9072 33.9774 28.7227 33.977C28.2706 33.9761 27.8185 33.9747 27.3664 33.9729C27.3668 34.0268 27.3672 34.0807 27.3676 34.1363C27.3769 35.4486 27.3838 36.761 27.3882 38.0734C27.3903 38.708 27.3933 39.3427 27.3981 39.9773C27.4023 40.5305 27.405 41.0837 27.4059 41.6369C27.4065 41.9298 27.4078 42.2227 27.4108 42.5156C27.4138 42.8426 27.4143 43.1696 27.4141 43.4966C27.4156 43.5937 27.4171 43.6907 27.4186 43.7906C27.416 44.197 27.4123 44.4392 27.1956 44.7871C26.8835 44.9804 26.6289 45.0017 26.2738 44.9967C26.2073 44.9975 26.1408 44.9982 26.0722 44.999C25.853 45.0009 25.6339 44.9996 25.4147 44.9982C25.2619 44.9985 25.1092 44.9989 24.9565 44.9994C24.6367 45 24.3169 44.9991 23.9971 44.9971C23.5875 44.9947 23.178 44.9961 22.7684 44.9987C22.4531 45.0002 22.1378 44.9997 21.8225 44.9986C21.6715 44.9983 21.5205 44.9987 21.3695 44.9997C21.1582 45.0008 20.9472 44.9991 20.736 44.9967C20.6738 44.9976 20.6116 44.9984 20.5475 44.9993C20.2504 44.9931 20.069 44.9449 19.8142 44.7871C19.5534 44.3683 19.5882 43.9831 19.5957 43.4966C19.5956 43.3423 19.5956 43.3423 19.5955 43.1849C19.5958 42.9036 19.5979 42.6224 19.6008 42.341C19.6034 42.0468 19.6037 41.7525 19.6042 41.4583C19.6055 40.9014 19.6089 40.3445 19.6131 39.7876C19.6178 39.1535 19.6201 38.5194 19.6223 37.8853C19.6266 36.5811 19.6343 35.277 19.6434 33.9729C18.6461 33.9729 17.6488 33.9729 16.6213 33.9729C16.6286 34.4293 16.6286 34.4293 16.6361 34.895C16.6393 35.19 16.6419 35.4849 16.6444 35.7799C16.6465 35.9848 16.6493 36.1896 16.653 36.3945C16.6581 36.6891 16.6604 36.9837 16.6623 37.2783C16.6645 37.3698 16.6666 37.4613 16.6689 37.5556C16.6691 38.1931 16.6691 38.1931 16.4199 38.5285C16.1421 38.7287 15.9951 38.7735 15.6612 38.7444C15.3896 38.6705 15.2646 38.5513 15.0602 38.3552C14.95 38.2499 14.95 38.2499 14.8376 38.1424C14.4416 37.7519 14.0491 37.3582 13.6599 36.9607C13.5684 36.8676 13.4769 36.7745 13.3854 36.6813C13.1394 36.4311 12.8938 36.1805 12.6482 35.9299C12.4945 35.773 12.3407 35.6162 12.1869 35.4595C11.6497 34.9119 11.1128 34.3641 10.576 33.8162C10.0765 33.3062 9.57644 32.7967 9.0762 32.2874C8.64549 31.8488 8.21511 31.41 7.78498 30.9709C7.52858 30.7091 7.27205 30.4475 7.0152 30.1862C6.77414 29.941 6.53349 29.6953 6.29315 29.4494C6.205 29.3593 6.11672 29.2694 6.02827 29.1796C5.90744 29.0569 5.78718 28.9337 5.66695 28.8104C5.56586 28.7073 5.56586 28.7073 5.46273 28.6021C5.22059 28.3252 5.05401 28.0929 5 27.7228C5.09719 27.0283 5.65351 26.6962 6.15984 26.287C6.40229 26.0875 6.63734 25.8792 6.87305 25.6716C6.97327 25.5835 7.0735 25.4955 7.17375 25.4075C7.22327 25.364 7.27279 25.3205 7.32381 25.2757C7.68992 24.9552 8.0589 24.6382 8.42741 24.3206C8.65445 24.1248 8.88127 23.9288 9.10812 23.7328C9.19906 23.6543 9.29 23.5757 9.38094 23.4972C9.44847 23.4388 9.44847 23.4388 9.51736 23.3793C10.7451 22.3189 11.9728 21.2585 13.2005 20.1981C13.2456 20.1591 13.2907 20.1202 13.3371 20.0801C13.4274 20.0021 13.5177 19.9241 13.6081 19.8461C13.8451 19.6415 14.0819 19.4366 14.3184 19.2314C14.3675 19.1888 14.4166 19.1462 14.4672 19.1023C14.561 19.0211 14.6547 18.9397 14.7483 18.8583C14.8683 18.7543 14.9893 18.6514 15.1103 18.5485C15.1683 18.4982 15.2263 18.4478 15.286 18.3959C15.4758 18.272 15.5945 18.2518 15.8186 18.2486C15.9119 18.2446 15.9119 18.2446 16.0071 18.2406C16.3202 18.3225 16.4271 18.4559 16.6213 18.7199C16.68 19.0465 16.6701 19.3679 16.6623 19.699C16.6614 19.8407 16.6614 19.8407 16.6605 19.9853C16.6582 20.2866 16.6529 20.5877 16.6475 20.889C16.6454 21.0934 16.6435 21.2979 16.6418 21.5023C16.6375 22.0031 16.6293 22.5036 16.6213 23.0044C17.6186 23.0044 18.6159 23.0044 19.6434 23.0044C19.6434 20.9402 19.6434 18.8759 19.6434 16.749C18.4455 16.7625 18.4455 16.7625 17.2477 16.7799C15.8371 16.7936 14.8344 16.5786 13.7566 15.5922C13.1617 14.9642 12.7538 14.0734 12.7449 13.1997C12.7433 13.0602 12.7433 13.0602 12.7417 12.9179C12.741 12.8176 12.7404 12.7174 12.7398 12.6141C12.7391 12.5103 12.7384 12.4065 12.7377 12.2996C12.7366 12.0797 12.7357 11.8598 12.735 11.6399C12.7336 11.3057 12.7299 10.9715 12.7262 10.6374C12.7253 10.4233 12.7246 10.2092 12.724 9.99518C12.7226 9.89616 12.7211 9.79713 12.7196 9.69511C12.722 8.75857 12.9822 7.99648 13.5153 7.23735C13.5759 7.15075 13.6365 7.06414 13.6989 6.97492C14.3877 6.17113 15.3496 5.78883 16.3695 5.69491C16.6302 5.68453 16.8904 5.68485 17.1512 5.68655C17.2229 5.68667 17.2947 5.68679 17.3685 5.68691C17.5952 5.68739 17.8218 5.68846 18.0484 5.68956C18.2031 5.68999 18.3577 5.69038 18.5124 5.69073C18.8894 5.69167 19.2664 5.69315 19.6434 5.69491C19.6424 5.64326 19.6415 5.59161 19.6405 5.53839C19.6313 5.00044 19.6249 4.46252 19.6203 3.92451C19.6182 3.72377 19.6153 3.52304 19.6117 3.32233C19.6066 3.03367 19.6042 2.7451 19.6024 2.45641C19.6002 2.36677 19.5981 2.27714 19.5958 2.18479C19.5958 2.10076 19.5958 2.01673 19.5957 1.93015C19.5948 1.85651 19.5939 1.78287 19.5929 1.707C19.739 1.09638 20.1923 1.00459 20.736 1.01218ZM21.2384 2.69574C21.2384 3.68547 21.2384 4.67519 21.2384 5.69491C22.7343 5.69491 24.2302 5.69491 25.7714 5.69491C25.7714 4.70519 25.7714 3.71546 25.7714 2.69574C24.2755 2.69574 22.7796 2.69574 21.2384 2.69574ZM31.9835 3.72403C31.9823 3.8654 31.9823 3.8654 31.9811 4.00963C31.9777 4.35973 31.9722 4.70976 31.966 5.05981C31.9637 5.21124 31.9619 5.36267 31.9607 5.51412C31.9589 5.73199 31.955 5.94972 31.9507 6.16755C31.9506 6.23513 31.9505 6.30272 31.9504 6.37235C31.9423 6.68075 31.9268 6.85868 31.7389 7.10605C31.4242 7.34191 31.1785 7.33546 30.8002 7.33487C30.7381 7.33511 30.676 7.33535 30.6121 7.3356C30.403 7.33632 30.194 7.33643 29.985 7.33655C29.8355 7.33695 29.686 7.33739 29.5366 7.33787C29.2141 7.33884 28.8916 7.33956 28.5692 7.34011C28.0591 7.34102 27.549 7.34276 27.0389 7.34466C25.5881 7.34997 24.1374 7.35459 22.6866 7.35743C21.8859 7.359 21.0851 7.36148 20.2843 7.36497C19.8605 7.36678 19.4368 7.3681 19.013 7.3683C18.614 7.36848 18.2151 7.36984 17.8161 7.3721C17.67 7.37272 17.5238 7.3729 17.3776 7.37261C17.1775 7.37227 16.9774 7.37352 16.7773 7.37514C16.7199 7.37466 16.6625 7.37419 16.6034 7.3737C15.9246 7.38314 15.4133 7.63692 14.9224 8.10262C14.5206 8.54548 14.347 9.01434 14.3399 9.61248C14.3388 9.69232 14.3377 9.77215 14.3366 9.8544C14.336 9.94018 14.3354 10.026 14.3348 10.1143C14.3341 10.2033 14.3334 10.2923 14.3327 10.384C14.3315 10.5723 14.3306 10.7607 14.33 10.9491C14.329 11.1409 14.3273 11.3328 14.3248 11.5247C14.3212 11.8026 14.3199 12.0804 14.319 12.3584C14.3168 12.4857 14.3168 12.4857 14.3146 12.6157C14.3167 13.3102 14.4965 13.7983 14.8742 14.3711C15.4099 14.9058 15.9848 15.1339 16.7251 15.1327C16.7874 15.133 16.8497 15.1332 16.9139 15.1335C17.1233 15.1342 17.3327 15.1343 17.5421 15.1344C17.6919 15.1348 17.8418 15.1352 17.9917 15.1357C18.3148 15.1367 18.6378 15.1374 18.9609 15.138C19.4716 15.1389 19.9824 15.1406 20.4931 15.1425C21.9456 15.1478 23.398 15.1525 24.8505 15.1553C25.6524 15.1569 26.4543 15.1593 27.2563 15.1628C27.6807 15.1646 28.1052 15.166 28.5297 15.1662C28.9289 15.1663 29.3281 15.1677 29.7274 15.17C29.8739 15.1706 30.0205 15.1708 30.167 15.1705C30.3671 15.1701 30.567 15.1714 30.767 15.173C30.8251 15.1725 30.8832 15.172 30.943 15.1716C31.3025 15.1766 31.529 15.2401 31.8156 15.4637C31.9461 15.7301 31.9197 16.0149 31.9261 16.3078C31.9278 16.3742 31.9296 16.4405 31.9314 16.5088C31.9369 16.721 31.9418 16.9332 31.9467 17.1453C31.9504 17.289 31.954 17.4328 31.9577 17.5765C31.9667 17.929 31.9752 18.2816 31.9835 18.6342C32.4524 18.2357 32.8856 17.8107 33.3159 17.3695C33.3881 17.2959 33.4602 17.2222 33.5345 17.1464C33.7306 16.9461 33.9265 16.7457 34.1224 16.5452C34.3277 16.3351 34.5333 16.1252 34.7388 15.9153C35.1272 15.5186 35.5154 15.1216 35.9036 14.7245C36.3458 14.2722 36.7882 13.82 37.2307 13.368C38.1402 12.4387 39.0494 11.5091 39.9584 10.5793C39.3177 9.92269 38.6457 9.31167 37.9394 8.72957C37.6571 8.49369 37.3804 8.25177 37.1042 8.00856C36.7598 7.70554 36.4135 7.40627 36.0601 7.11417C35.6315 6.75914 35.2156 6.39052 34.7996 6.02029C34.4242 5.68691 34.0421 5.36353 33.6549 5.04453C33.4603 4.88008 33.2695 4.71316 33.0797 4.54311C32.9938 4.46623 32.9938 4.46623 32.9062 4.3878C32.7928 4.28585 32.6796 4.18355 32.5668 4.08085C32.3129 3.81698 32.3129 3.81698 31.9835 3.72403ZM21.2384 16.749C21.2384 18.8133 21.2384 20.8776 21.2384 23.0044C22.7343 23.0044 24.2302 23.0044 25.7714 23.0044C25.7714 20.9402 25.7714 18.8759 25.7714 16.749C24.2755 16.749 22.7796 16.749 21.2384 16.749ZM14.402 21.371C14.0043 21.751 13.5959 22.1094 13.1716 22.4585C12.8941 22.6896 12.622 22.9266 12.3505 23.1651C11.8347 23.6182 11.3162 24.068 10.7962 24.5161C10.5691 24.7119 10.3423 24.9079 10.1155 25.1039C10.0245 25.1824 9.93359 25.261 9.84265 25.3395C9.79763 25.3784 9.75262 25.4173 9.70624 25.4573C9.297 25.8108 9.297 25.8108 9.1604 25.9288C9.07006 26.0068 8.97973 26.0849 8.88942 26.163C8.65305 26.3673 8.41635 26.5712 8.17914 26.7745C8.13001 26.8167 8.08088 26.8589 8.03026 26.9024C7.93669 26.9827 7.84303 27.0629 7.74924 27.143C7.505 27.353 7.27571 27.5713 7.05144 27.8031C8.07858 28.8536 9.10597 29.9039 10.1336 30.9538C10.6108 31.4413 11.0878 31.9289 11.5647 32.4166C11.9801 32.8416 12.3958 33.2664 12.8116 33.691C13.0319 33.916 13.2521 34.1411 13.4721 34.3663C13.7174 34.6173 13.9629 34.868 14.2085 35.1186C14.282 35.194 14.3555 35.2693 14.4312 35.3469C14.5309 35.4485 14.5309 35.4485 14.6327 35.5523C14.6908 35.6117 14.7489 35.6711 14.8088 35.7323C14.9224 35.8677 14.9224 35.8677 15.0263 35.858C15.0271 35.769 15.0279 35.6799 15.0287 35.5882C15.0321 35.2572 15.0376 34.9264 15.0437 34.5955C15.0461 34.4524 15.0479 34.3092 15.0491 34.1661C15.0509 33.9602 15.0548 33.7543 15.0591 33.5484C15.0592 33.4846 15.0593 33.4207 15.0594 33.355C15.0677 33.0546 15.0868 32.8894 15.2709 32.6498C15.5847 32.4104 15.8304 32.418 16.2096 32.4186C16.3027 32.4182 16.3027 32.4182 16.3977 32.4179C16.6068 32.4171 16.8158 32.417 17.0248 32.4169C17.1743 32.4165 17.3238 32.4161 17.4732 32.4156C17.7957 32.4146 18.1182 32.4139 18.4406 32.4133C18.9507 32.4124 19.4608 32.4107 19.9709 32.4088C21.4217 32.4035 22.8724 32.3989 24.3232 32.396C25.1239 32.3945 25.9247 32.392 26.7255 32.3885C27.1493 32.3867 27.573 32.3854 27.9968 32.3852C28.3958 32.385 28.7947 32.3836 29.1937 32.3814C29.3398 32.3807 29.486 32.3806 29.6322 32.3809C29.8323 32.3812 30.0324 32.3799 30.2325 32.3783C30.2899 32.3788 30.3473 32.3793 30.4064 32.3798C31.0806 32.3704 31.5982 32.119 32.0874 31.6569C32.4565 31.2351 32.6633 30.7144 32.6699 30.1507C32.671 30.0709 32.6721 29.991 32.6732 29.9088C32.6738 29.8225 32.6744 29.7363 32.675 29.6475C32.6757 29.5584 32.6764 29.4693 32.6771 29.3775C32.6783 29.1886 32.6792 28.9997 32.6798 28.8109C32.6813 28.5237 32.6849 28.2366 32.6887 27.9494C32.6895 27.7656 32.6902 27.5819 32.6908 27.3981C32.693 27.2703 32.693 27.2703 32.6952 27.14C32.6929 26.3697 32.4709 25.7623 31.9595 25.1899C31.4732 24.7545 30.9154 24.6197 30.2847 24.6207C30.2224 24.6205 30.1601 24.6203 30.0959 24.62C29.8865 24.6193 29.6771 24.6192 29.4677 24.619C29.3179 24.6186 29.168 24.6182 29.0181 24.6177C28.695 24.6168 28.372 24.616 28.0489 24.6155C27.5382 24.6146 27.0274 24.6128 26.5167 24.6109C25.0642 24.6056 23.6118 24.601 22.1593 24.5982C21.3574 24.5966 20.5555 24.5941 19.7535 24.5906C19.3291 24.5888 18.9046 24.5875 18.4801 24.5873C18.0809 24.5871 17.6817 24.5858 17.2824 24.5835C17.1359 24.5829 16.9893 24.5827 16.8428 24.583C16.6427 24.5833 16.4428 24.5821 16.2428 24.5805C16.1847 24.5809 16.1266 24.5814 16.0668 24.5819C15.7073 24.5768 15.4808 24.5134 15.1942 24.2898C15.0591 24.014 15.0899 23.7115 15.0837 23.4081C15.082 23.338 15.0802 23.2679 15.0784 23.1956C15.0729 22.9712 15.068 22.7468 15.0631 22.5224C15.0594 22.3705 15.0558 22.2185 15.0521 22.0665C15.0431 21.6936 15.0346 21.3208 15.0263 20.9479C14.7489 20.9479 14.5935 21.1843 14.402 21.371ZM21.2384 33.9729C21.2384 37.0551 21.2384 40.1374 21.2384 43.3131C22.7343 43.3131 24.2302 43.3131 25.7714 43.3131C25.7714 40.2308 25.7714 37.1486 25.7714 33.9729C24.2755 33.9729 22.7796 33.9729 21.2384 33.9729Z" fill="#FF7705"></path>
</svg>
