<?xml version="1.0" encoding="UTF-8"?>
<svg xmlns="http://www.w3.org/2000/svg" width="48" height="48" viewBox="0 0 48 48" fill="none">
  <path d="M6.83042 6.02549C6.90982 6.02498 6.98922 6.02448 7.07102 6.02396C7.15855 6.02378 7.24607 6.02359 7.33625 6.02339C7.47404 6.0227 7.47404 6.0227 7.61461 6.022C7.86704 6.02077 8.11947 6.02003 8.3719 6.01945C8.52958 6.01909 8.68726 6.01867 8.84494 6.01823C9.33821 6.01689 9.83148 6.01589 10.3248 6.01531C10.8943 6.01462 11.4638 6.01277 12.0334 6.00994C12.4735 6.00782 12.9136 6.00678 13.3537 6.00655C13.6166 6.00638 13.8795 6.00575 14.1424 6.00399C14.4358 6.00205 14.7291 6.00234 15.0225 6.00283C15.1096 6.00193 15.1967 6.00104 15.2864 6.00011C15.4064 6.00084 15.4064 6.00084 15.5288 6.00159C15.6328 6.00133 15.6328 6.00133 15.739 6.00108C15.9837 6.04564 16.1021 6.147 16.2806 6.31651C16.3708 6.49695 16.3592 6.62507 16.3587 6.82708C16.3587 6.90434 16.3587 6.9816 16.3587 7.06121C16.3583 7.1449 16.358 7.2286 16.3576 7.31484C16.3574 7.44304 16.3574 7.44304 16.3573 7.57383C16.3569 7.84769 16.356 8.12154 16.3551 8.3954C16.3548 8.5807 16.3545 8.76601 16.3542 8.95131C16.3535 9.40634 16.3521 9.86137 16.3507 10.3164C17.1612 10.3164 17.9718 10.3164 18.8068 10.3164C18.8007 9.91341 18.8007 9.91341 18.7945 9.50228C18.7917 9.2417 18.7896 8.98112 18.7875 8.72054C18.7858 8.53961 18.7834 8.35869 18.7803 8.17779C18.7761 7.91754 18.7741 7.65735 18.7726 7.39707C18.7707 7.31636 18.7689 7.23564 18.7671 7.15248C18.7668 6.52513 18.7668 6.52513 18.9756 6.26652C19.2275 6.04444 19.3404 6.02689 19.6691 6.02501C19.7871 6.02411 19.7871 6.02411 19.9076 6.02318C19.9943 6.02289 20.0811 6.02259 20.1705 6.02228C20.2615 6.02171 20.3526 6.02113 20.4464 6.02054C20.7489 6.0187 21.0514 6.01763 21.3539 6.01663C21.458 6.01625 21.5622 6.01587 21.6663 6.01549C22.0995 6.01398 22.5327 6.01266 22.9658 6.01187C23.5866 6.01073 24.2074 6.0084 24.8282 6.0044C25.2646 6.00169 25.7011 6.00032 26.1376 5.99995C26.3983 5.99969 26.6589 5.99885 26.9196 5.99657C27.2106 5.99407 27.5015 5.99435 27.7925 5.99487C27.8787 5.99372 27.9649 5.99256 28.0537 5.99138C28.7047 5.99616 28.7047 5.99616 28.9642 6.20503C29.1821 6.45539 29.2012 6.56604 29.2005 6.89081C29.2005 6.96667 29.2005 7.04253 29.2005 7.12068C29.2001 7.20284 29.1997 7.28501 29.1994 7.36966C29.1992 7.49553 29.1992 7.49553 29.1991 7.62393C29.1987 7.89279 29.1978 8.16164 29.1969 8.43049C29.1965 8.61241 29.1962 8.79433 29.1959 8.97625C29.1952 9.42297 29.194 9.86969 29.1925 10.3164C29.2635 10.316 29.2635 10.316 29.336 10.3156C30.4886 10.3094 31.6413 10.3048 32.7939 10.3019C33.3513 10.3004 33.9087 10.2984 34.4661 10.2952C34.952 10.2924 35.4379 10.2906 35.9238 10.29C36.181 10.2896 36.4382 10.2888 36.6955 10.2867C36.9828 10.2845 37.27 10.2844 37.5573 10.2845C37.6424 10.2835 37.7275 10.2825 37.8152 10.2815C38.5499 10.2851 38.5499 10.2851 38.8765 10.5971C39.0513 10.8538 39.0367 11.1187 39.0351 11.418C39.0354 11.4727 39.0357 11.5275 39.0359 11.5839C39.0367 11.7674 39.0364 11.9509 39.0361 12.1345C39.0364 12.266 39.0368 12.3975 39.0372 12.529C39.0381 12.8864 39.0382 13.2438 39.038 13.6012C39.0379 13.8994 39.0383 14.1976 39.0386 14.4958C39.0394 15.1993 39.0394 15.9027 39.039 16.6061C39.0386 17.3322 39.0394 18.0582 39.0409 18.7842C39.0421 19.4073 39.0426 20.0304 39.0423 20.6535C39.0422 21.0257 39.0424 21.398 39.0434 21.7702C39.0443 22.1203 39.0441 22.4703 39.0432 22.8203C39.043 22.9488 39.0432 23.0773 39.0438 23.2058C39.0445 23.3812 39.044 23.5565 39.0431 23.7318C39.0436 23.7828 39.0441 23.8337 39.0447 23.8862C39.0414 24.1936 38.9962 24.3881 38.8063 24.6318C38.5647 24.7929 38.4702 24.791 38.1854 24.7945C38.1011 24.7959 38.0168 24.7973 37.93 24.7988C37.7935 24.8 37.7935 24.8 37.6542 24.8012C37.5601 24.8025 37.466 24.8039 37.3719 24.8053C37.1245 24.8089 36.877 24.8117 36.6295 24.8143C36.3769 24.8171 36.1243 24.8207 35.8718 24.8243C35.3763 24.831 34.8808 24.837 34.3854 24.8423C34.4296 24.8859 34.4739 24.9294 34.5195 24.9743C34.6837 25.136 34.8475 25.2981 35.0111 25.4604C35.082 25.5306 35.153 25.6006 35.2241 25.6705C35.3263 25.771 35.4281 25.872 35.5298 25.9731C35.5912 26.0337 35.6525 26.0943 35.7158 26.1568C35.9001 26.3616 35.9265 26.4897 35.9467 26.7633C35.9276 27.0404 35.8952 27.1568 35.7187 27.3686C35.4435 27.5606 35.2158 27.6212 34.8805 27.5624C34.3348 27.3601 33.8733 26.7213 33.4731 26.3132C33.2001 26.0371 32.9203 25.7752 32.6263 25.5216C32.4145 25.3375 32.2101 25.1469 32.0082 24.952C31.9485 24.8971 31.9485 24.8971 31.8876 24.8411C31.6115 24.5725 31.4509 24.3237 31.4381 23.9301C31.5565 23.4408 31.9044 23.1483 32.2582 22.8073C32.3128 22.7534 32.3674 22.6995 32.4237 22.6439C32.6753 22.3972 32.9302 22.157 33.1973 21.9271C33.5506 21.6224 33.8707 21.2858 34.1933 20.9492C34.2403 20.9012 34.2873 20.8532 34.3357 20.8038C34.3774 20.7606 34.419 20.7174 34.4619 20.673C34.6518 20.5153 34.8446 20.4289 35.0915 20.4107C35.4539 20.4509 35.6226 20.5487 35.859 20.8424C35.9665 21.0575 35.9453 21.2366 35.9292 21.474C35.7926 21.7433 35.6205 21.9396 35.4064 22.1508C35.3528 22.2041 35.2992 22.2573 35.244 22.3122C35.1763 22.3786 35.1086 22.445 35.0389 22.5135C34.8232 22.7262 34.6076 22.939 34.3854 23.1582C35.3811 23.1813 36.3769 23.2045 37.4028 23.2284C37.4028 19.5 37.4028 15.7717 37.4028 11.9304C34.6934 11.9304 31.984 11.9304 29.1925 11.9304C29.1925 13.204 29.1925 14.4777 29.1925 15.7899C28.9342 16.2205 28.9342 16.2205 28.7013 16.3513C28.5211 16.3782 28.5211 16.3782 28.3134 16.379C28.2345 16.3798 28.1556 16.3806 28.0743 16.3814C27.9881 16.3812 27.9018 16.381 27.8129 16.3808C27.7218 16.3814 27.6308 16.382 27.5369 16.3826C27.2872 16.3842 27.0376 16.3844 26.7879 16.3842C26.5793 16.3842 26.3708 16.3848 26.1622 16.3854C25.6701 16.3868 25.1779 16.387 24.6857 16.3865C24.1784 16.386 23.671 16.3876 23.1637 16.3902C22.7278 16.3924 22.2919 16.3932 21.856 16.3929C21.5958 16.3928 21.3356 16.3931 21.0754 16.3949C20.7851 16.3967 20.4949 16.3957 20.2046 16.3945C20.1186 16.3954 20.0326 16.3964 19.944 16.3973C19.2947 16.3909 19.2947 16.3909 19.0352 16.1864C18.8129 15.9251 18.7981 15.7433 18.7989 15.4118C18.7989 15.3345 18.7989 15.2572 18.7989 15.1776C18.7992 15.0943 18.7996 15.011 18.8 14.9251C18.8001 14.7971 18.8001 14.7971 18.8003 14.6664C18.8007 14.3933 18.8015 14.1202 18.8024 13.847C18.8028 13.662 18.8031 13.4771 18.8034 13.2921C18.8041 12.8382 18.8055 12.3843 18.8068 11.9304C17.9963 11.9304 17.1858 11.9304 16.3507 11.9304C16.354 12.2151 16.3573 12.4997 16.3606 12.793C16.3624 13.0205 16.3639 13.2479 16.3653 13.4754C16.3667 13.7152 16.3687 13.955 16.3719 14.1949C16.3756 14.4703 16.3769 14.7456 16.3782 15.0211C16.3796 15.1067 16.381 15.1924 16.3825 15.2807C16.3826 15.3608 16.3826 15.4408 16.3826 15.5233C16.3832 15.5936 16.3839 15.6638 16.3845 15.7362C16.3414 15.9838 16.2416 16.1011 16.07 16.2812C15.889 16.3717 15.7584 16.3608 15.5555 16.3617C15.4761 16.3622 15.3967 16.3627 15.3149 16.3632C15.1836 16.3635 15.1836 16.3635 15.0497 16.3638C14.9578 16.3642 14.866 16.3647 14.7713 16.3652C14.5189 16.3664 14.2665 16.3671 14.0141 16.3677C13.8564 16.3681 13.6987 16.3685 13.541 16.3689C13.0477 16.3703 12.5545 16.3713 12.0612 16.3718C11.4917 16.3725 10.9221 16.3744 10.3526 16.3772C9.91246 16.3793 9.47235 16.3804 9.03223 16.3806C8.76931 16.3808 8.50642 16.3814 8.24351 16.3832C7.95016 16.3851 7.65685 16.3848 7.36349 16.3843C7.23284 16.3857 7.23284 16.3857 7.09955 16.387C6.97956 16.3863 6.97956 16.3863 6.85715 16.3856C6.75312 16.3858 6.75312 16.3858 6.64699 16.3861C6.40229 16.3415 6.28388 16.2402 6.10539 16.0706C6.01484 15.8896 6.02577 15.759 6.02489 15.5561C6.02439 15.4767 6.02388 15.3973 6.02337 15.3155C6.02318 15.228 6.02299 15.1405 6.02279 15.0503C6.02233 14.9584 6.02187 14.8666 6.0214 14.7719C6.02018 14.5195 6.01943 14.2671 6.01886 14.0147C6.0185 13.857 6.01807 13.6993 6.01763 13.5416C6.01629 13.0483 6.01529 12.5551 6.01471 12.0618C6.01402 11.4923 6.01217 10.9227 6.00934 10.3532C6.00722 9.91306 6.00618 9.47295 6.00595 9.03283C6.00579 8.76991 6.00516 8.50702 6.00339 8.24411C6.00146 7.95076 6.00175 7.65745 6.00224 7.36409C6.00134 7.27699 6.00044 7.18989 5.99951 7.10015C6.00024 6.98016 6.00024 6.98016 6.00099 6.85775C6.00082 6.7884 6.00065 6.71904 6.00048 6.64759C6.04504 6.40289 6.1464 6.28448 6.31591 6.10599C6.497 6.01544 6.62757 6.02636 6.83042 6.02549ZM7.57904 7.57963C7.57904 9.96483 7.57904 12.35 7.57904 14.8075C9.96424 14.8075 12.3494 14.8075 14.8069 14.8075C14.8069 12.4223 14.8069 10.0371 14.8069 7.57963C12.4217 7.57963 10.0365 7.57963 7.57904 7.57963ZM20.4208 7.57963C20.4208 9.96483 20.4208 12.35 20.4208 14.8075C22.7829 14.8075 25.1449 14.8075 27.5785 14.8075C27.5785 12.4223 27.5785 10.0371 27.5785 7.57963C25.2165 7.57963 22.8544 7.57963 20.4208 7.57963Z" fill="#FF7705"></path>
  <path d="M19.6694 31.6384C19.7874 31.6375 19.7874 31.6375 19.9079 31.6366C19.9946 31.6363 20.0814 31.636 20.1708 31.6357C20.2618 31.6351 20.3529 31.6345 20.4467 31.6339C20.7492 31.6321 21.0517 31.631 21.3542 31.63C21.4583 31.6296 21.5625 31.6293 21.6666 31.6289C22.0998 31.6274 22.533 31.626 22.9662 31.6253C23.5869 31.6241 24.2077 31.6218 24.8285 31.6178C25.265 31.6151 25.7014 31.6137 26.1379 31.6133C26.3986 31.6131 26.6593 31.6122 26.9199 31.61C27.2109 31.6075 27.5019 31.6077 27.7928 31.6083C27.879 31.6071 27.9652 31.606 28.054 31.6048C28.705 31.6095 28.705 31.6095 28.9645 31.8184C29.1859 32.0727 29.2015 32.1866 29.2008 32.5171C29.2008 32.5958 29.2008 32.6744 29.2008 32.7555C29.2004 32.8407 29.2001 32.9259 29.1997 33.0137C29.1995 33.1443 29.1995 33.1443 29.1994 33.2775C29.1991 33.5089 29.1984 33.7403 29.1976 33.9717C29.1969 34.2078 29.1966 34.444 29.1963 34.6801C29.1955 35.1434 29.1942 35.6068 29.1928 36.0701C30.0033 36.0701 30.8138 36.0701 31.6489 36.0701C31.6456 35.7855 31.6424 35.5008 31.639 35.2075C31.6372 34.9801 31.6357 34.7526 31.6344 34.5252C31.6329 34.2853 31.6309 34.0455 31.6277 33.8057C31.6241 33.5303 31.6227 33.2549 31.6215 32.9795C31.62 32.8938 31.6186 32.8081 31.6171 32.7198C31.6171 32.6398 31.6171 32.5597 31.617 32.4773C31.6164 32.407 31.6158 32.3367 31.6151 32.2643C31.6582 32.0167 31.758 31.8994 31.9296 31.7194C32.1107 31.6288 32.2413 31.6398 32.4441 31.6389C32.5235 31.6384 32.6029 31.6379 32.6847 31.6374C32.7722 31.6372 32.8598 31.637 32.9499 31.6368C33.0877 31.6361 33.0877 31.6361 33.2283 31.6354C33.4807 31.6342 33.7332 31.6334 33.9856 31.6328C34.1433 31.6325 34.3009 31.6321 34.4586 31.6316C34.9519 31.6303 35.4452 31.6293 35.9384 31.6287C36.508 31.628 37.0775 31.6262 37.6471 31.6233C38.0872 31.6212 38.5273 31.6202 38.9674 31.6199C39.2303 31.6198 39.4932 31.6191 39.7561 31.6174C40.0495 31.6154 40.3428 31.6157 40.6361 31.6162C40.7232 31.6153 40.8104 31.6144 40.9001 31.6135C41.0201 31.6142 41.0201 31.6142 41.1425 31.615C41.2465 31.6147 41.2465 31.6147 41.3527 31.6145C41.5974 31.659 41.7158 31.7604 41.8943 31.9299C41.9848 32.111 41.9739 32.2416 41.9748 32.4444C41.9755 32.5635 41.9755 32.5635 41.9763 32.685C41.9765 32.7725 41.9767 32.8601 41.9768 32.9502C41.9773 33.0421 41.9778 33.134 41.9782 33.2286C41.9795 33.481 41.9802 33.7335 41.9808 33.9859C41.9811 34.1436 41.9816 34.3012 41.982 34.4589C41.9834 34.9522 41.9844 35.4455 41.9849 35.9387C41.9856 36.5083 41.9875 37.0778 41.9903 37.6474C41.9924 38.0875 41.9935 38.5276 41.9937 38.9677C41.9939 39.2306 41.9945 39.4935 41.9963 39.7564C41.9982 40.0498 41.9979 40.3431 41.9974 40.6364C41.9988 40.7671 41.9988 40.7671 42.0001 40.9004C41.9994 41.0204 41.9994 41.0204 41.9987 41.1428C41.9988 41.2121 41.999 41.2815 41.9992 41.353C41.9546 41.5976 41.8532 41.7161 41.6837 41.8946C41.5026 41.9851 41.3721 41.9742 41.1692 41.9751C41.0898 41.9756 41.0104 41.9761 40.9286 41.9766C40.7973 41.9769 40.7973 41.9769 40.6634 41.9771C40.5715 41.9776 40.4797 41.9781 40.385 41.9785C40.1326 41.9798 39.8802 41.9805 39.6277 41.9811C39.4701 41.9814 39.3124 41.9819 39.1547 41.9823C38.6614 41.9836 38.1682 41.9846 37.6749 41.9852C37.1053 41.9859 36.5358 41.9878 35.9663 41.9906C35.5262 41.9927 35.086 41.9938 34.6459 41.994C34.383 41.9942 34.1201 41.9948 33.8572 41.9965C33.5638 41.9985 33.2705 41.9982 32.9772 41.9977C32.8465 41.9991 32.8465 41.9991 32.7132 42.0004C32.5933 41.9997 32.5933 41.9997 32.4708 41.999C32.3668 41.9992 32.3668 41.9992 32.2607 41.9995C32.016 41.9549 31.8976 41.8535 31.7191 41.684C31.6289 41.5036 31.6405 41.3755 31.6409 41.1735C31.6409 41.0962 31.6409 41.0189 31.641 40.9393C31.6413 40.8556 31.6417 40.7719 31.6421 40.6857C31.6422 40.5575 31.6422 40.5575 31.6424 40.4267C31.6427 40.1528 31.6436 39.879 31.6445 39.6051C31.6449 39.4198 31.6452 39.2345 31.6455 39.0492C31.6462 38.5942 31.6476 38.1392 31.6489 37.6841C30.8384 37.6841 30.0279 37.6841 29.1928 37.6841C29.1953 37.9485 29.1977 38.213 29.2002 38.4854C29.2019 38.7415 29.2031 38.9977 29.2044 39.2539C29.2055 39.4319 29.2069 39.6099 29.2087 39.7879C29.2113 40.0437 29.2125 40.2996 29.2134 40.5555C29.2145 40.635 29.2156 40.7146 29.2167 40.7965C29.2167 40.9082 29.2167 40.9082 29.2167 41.0221C29.2174 41.12 29.2174 41.12 29.2181 41.2199C29.1796 41.4993 29.0647 41.6783 28.8586 41.868C28.6633 41.9883 28.5423 41.9915 28.3137 41.9924C28.1954 41.9936 28.1954 41.9936 28.0746 41.9948C27.9884 41.9946 27.9021 41.9944 27.8132 41.9942C27.7222 41.9948 27.6311 41.9954 27.5372 41.996C27.2876 41.9976 27.0379 41.9978 26.7882 41.9976C26.5797 41.9976 26.3711 41.9982 26.1625 41.9988C25.6704 42.0002 25.1782 42.0004 24.6861 41.9999C24.1787 41.9994 23.6714 42.001 23.164 42.0036C22.7281 42.0058 22.2922 42.0066 21.8563 42.0063C21.5961 42.0062 21.3359 42.0065 21.0757 42.0083C20.7854 42.0101 20.4952 42.0091 20.2049 42.0079C20.1189 42.0088 20.0329 42.0098 19.9444 42.0107C19.295 42.0043 19.295 42.0043 19.0356 41.7998C18.8148 41.5404 18.7982 41.3584 18.7963 41.0292C18.7957 40.9516 18.7951 40.874 18.7945 40.794C18.7942 40.7088 18.7939 40.6236 18.7936 40.5358C18.793 40.4461 18.7924 40.3564 18.7919 40.264C18.79 39.9664 18.7889 39.6689 18.7879 39.3713C18.7876 39.2688 18.7872 39.1663 18.7868 39.0638C18.7853 38.6374 18.784 38.211 18.7832 37.7847C18.782 37.1739 18.7797 36.5631 18.7757 35.9524C18.773 35.5228 18.7716 35.0931 18.7713 34.6635C18.771 34.407 18.7702 34.1505 18.7679 33.894C18.7654 33.6077 18.7657 33.3215 18.7662 33.0352C18.765 32.9504 18.7639 32.8656 18.7627 32.7783C18.7675 32.1379 18.7675 32.1379 18.9764 31.8784C19.2282 31.658 19.3417 31.6403 19.6694 31.6384ZM20.4211 33.193C20.4211 35.5782 20.4211 37.9634 20.4211 40.4209C22.7832 40.4209 25.1452 40.4209 27.5788 40.4209C27.5788 38.0357 27.5788 35.6505 27.5788 33.193C25.2168 33.193 22.8547 33.193 20.4211 33.193ZM33.1927 33.193C33.1927 35.5782 33.1927 37.9634 33.1927 40.4209C35.5779 40.4209 37.9631 40.4209 40.4206 40.4209C40.4206 38.0357 40.4206 35.6505 40.4206 33.193C38.0354 33.193 35.6502 33.193 33.1927 33.193Z" fill="#FF7705"></path>
  <path d="M19.7512 18.7887C19.8289 18.7881 19.9066 18.7875 19.9867 18.7868C20.1141 18.7869 20.1141 18.7869 20.2441 18.787C20.3338 18.7866 20.4235 18.7861 20.5159 18.7856C20.7618 18.7844 21.0077 18.784 21.2537 18.7839C21.4074 18.7838 21.5611 18.7835 21.7148 18.7832C22.2513 18.7819 22.7877 18.7813 23.3242 18.7814C23.8239 18.7815 24.3236 18.78 24.8233 18.7778C25.2526 18.776 25.682 18.7752 26.1113 18.7753C26.3676 18.7753 26.6238 18.7749 26.8801 18.7735C27.1661 18.7718 27.4519 18.7725 27.7379 18.7733C27.8225 18.7725 27.9072 18.7717 27.9944 18.7709C28.4343 18.7743 28.7265 18.7773 29.0526 19.0881C29.1936 19.3128 29.2108 19.4883 29.2117 19.7514C29.2126 19.868 29.2126 19.868 29.2135 19.9869C29.2134 20.0718 29.2134 20.1568 29.2133 20.2443C29.2138 20.334 29.2142 20.4237 29.2147 20.5162C29.216 20.7621 29.2163 21.0079 29.2164 21.2539C29.2165 21.4076 29.2168 21.5613 29.2172 21.715C29.2185 22.2515 29.219 22.7879 29.2189 23.3244C29.2188 23.8241 29.2203 24.3238 29.2225 24.8235C29.2244 25.2528 29.2251 25.6822 29.225 26.1115C29.225 26.3678 29.2254 26.6241 29.2269 26.8803C29.2285 27.1663 29.2278 27.4521 29.227 27.7381C29.2278 27.8227 29.2286 27.9074 29.2294 27.9946C29.2261 28.4345 29.223 28.7267 28.9122 29.0528C28.6875 29.1938 28.512 29.211 28.2489 29.2119C28.1324 29.2128 28.1324 29.2128 28.0134 29.2137C27.9285 29.2136 27.8435 29.2136 27.756 29.2135C27.6663 29.214 27.5766 29.2144 27.4842 29.2149C27.2383 29.2162 26.9924 29.2165 26.7465 29.2166C26.5928 29.2167 26.4391 29.217 26.2853 29.2174C25.7489 29.2187 25.2124 29.2192 24.6759 29.2191C24.1762 29.219 23.6765 29.2205 23.1768 29.2227C22.7475 29.2246 22.3182 29.2253 21.8888 29.2252C21.6325 29.2252 21.3763 29.2256 21.12 29.2271C20.8341 29.2287 20.5482 29.2281 20.2623 29.2272C20.1353 29.2284 20.1353 29.2284 20.0057 29.2296C19.5658 29.2263 19.2737 29.2232 18.9476 28.9124C18.33 27.6773 18.8072 26.1531 18.8072 24.7722C16.0978 24.7722 13.3884 24.7722 10.5969 24.7722C10.5969 28.5005 10.5969 32.2288 10.5969 36.0701C11.5927 36.047 12.5884 36.0238 13.6144 36C13.4363 35.8219 13.2583 35.6439 13.0749 35.4605C12.7715 35.1571 12.7715 35.1571 12.6255 35.0102C12.5447 34.93 12.4629 34.8507 12.3793 34.7735C12.1267 34.5388 12.0804 34.3801 12.061 34.0455C12.0789 33.7636 12.2141 33.6186 12.3951 33.4167C12.6704 33.279 12.8936 33.2681 13.1933 33.3334C13.7952 33.7064 14.288 34.2732 14.781 34.7763C14.9323 34.9301 15.0837 35.0837 15.2355 35.2371C15.2715 35.2735 15.3075 35.3099 15.3447 35.3475C15.5879 35.5918 15.8382 35.8239 16.1018 36.046C16.3279 36.2417 16.4673 36.4101 16.5529 36.6973C16.5647 36.9874 16.516 37.2119 16.3336 37.4457C16.2198 37.5684 16.1023 37.6857 15.9822 37.8023C15.9385 37.8457 15.8949 37.8891 15.8499 37.9338C15.7106 38.072 15.5704 38.2092 15.4301 38.3464C15.3374 38.4383 15.2447 38.5303 15.1522 38.6223C14.7546 39.0161 14.3564 39.406 13.9301 39.7689C13.7556 39.9193 13.5999 40.0864 13.4419 40.2537C13.2707 40.4071 13.116 40.4216 12.8907 40.4428C12.5827 40.4167 12.4461 40.3371 12.2109 40.1402C12.0291 39.9006 12.0403 39.6607 12.0705 39.3683C12.3417 38.8136 12.8877 38.3879 13.3461 37.9882C13.3964 37.9443 13.4467 37.9004 13.4985 37.8552C13.5368 37.8219 13.575 37.7886 13.6144 37.7543C13.5643 37.754 13.5143 37.7538 13.4627 37.7535C12.9898 37.7509 12.517 37.7469 12.0442 37.7414C11.8011 37.7386 11.5581 37.7364 11.315 37.7353C11.0352 37.734 10.7555 37.7305 10.4757 37.7269C10.3889 37.7268 10.302 37.7267 10.2125 37.7266C9.44512 37.7136 9.44512 37.7136 9.12325 37.4034C8.94859 37.1466 8.96306 36.8819 8.96461 36.5825C8.96434 36.5278 8.96408 36.4731 8.9638 36.4167C8.96307 36.2331 8.96335 36.0496 8.96363 35.8661C8.96333 35.7345 8.96296 35.603 8.96255 35.4715C8.9616 35.1141 8.96157 34.7567 8.96174 34.3993C8.96182 34.1011 8.96148 33.8029 8.96114 33.5047C8.96036 32.8013 8.96033 32.0978 8.96075 31.3944C8.96118 30.6683 8.96031 29.9423 8.95882 29.2163C8.95758 28.5932 8.95716 27.9701 8.95739 27.3471C8.95752 26.9748 8.95733 26.6026 8.95636 26.2303C8.95548 25.8803 8.95561 25.5303 8.95653 25.1802C8.95669 25.0517 8.9565 24.9232 8.95592 24.7947C8.95519 24.6194 8.95575 24.4441 8.95665 24.2687C8.95613 24.2178 8.95561 24.1668 8.95508 24.1144C8.95837 23.8069 9.00353 23.6124 9.19343 23.3687C9.43056 23.2106 9.50876 23.211 9.78625 23.2115C9.86566 23.2113 9.94507 23.2111 10.0269 23.2109C10.1576 23.2117 10.1576 23.2117 10.291 23.2124C10.3828 23.2124 10.4745 23.2124 10.5691 23.2124C10.8207 23.2123 11.0724 23.2131 11.3241 23.2141C11.5871 23.215 11.8501 23.2151 12.113 23.2153C12.6111 23.2157 13.1091 23.2168 13.6072 23.2182C14.1741 23.2198 14.7411 23.2206 15.3081 23.2213C16.4745 23.2228 17.6408 23.2252 18.8072 23.2284C18.8066 23.1809 18.806 23.1335 18.8053 23.0847C18.7991 22.5906 18.7949 22.0966 18.7918 21.6025C18.7904 21.4182 18.7885 21.2339 18.786 21.0495C18.7826 20.7844 18.781 20.5193 18.7798 20.2542C18.7784 20.172 18.7769 20.0897 18.7754 20.005C18.7753 19.5642 18.7766 19.2746 19.0879 18.9478C19.3126 18.8067 19.4881 18.7896 19.7512 18.7887ZM20.4212 20.4214C20.4212 22.7835 20.4212 25.1455 20.4212 27.5791C22.7833 27.5791 25.1453 27.5791 27.5789 27.5791C27.5789 25.2171 27.5789 22.855 27.5789 20.4214C25.2169 20.4214 22.8548 20.4214 20.4212 20.4214Z" fill="#FF7705"></path>
  <path d="M29.1929 10.3164C30.3933 10.3099 31.5938 10.3049 32.7943 10.3019C33.3517 10.3004 33.9091 10.2984 34.4665 10.2952C34.9524 10.2924 35.4382 10.2906 35.9241 10.29C36.1814 10.2896 36.4386 10.2888 36.6958 10.2867C36.9831 10.2845 37.2704 10.2844 37.5577 10.2845C37.6428 10.2835 37.7279 10.2825 37.8156 10.2815C38.5503 10.2851 38.5503 10.2851 38.8768 10.5971C39.0516 10.8538 39.037 11.1187 39.0355 11.418C39.0357 11.4727 39.036 11.5275 39.0363 11.5839C39.037 11.7674 39.0367 11.9509 39.0365 12.1345C39.0368 12.266 39.0371 12.3975 39.0375 12.529C39.0385 12.8864 39.0385 13.2438 39.0383 13.6012C39.0383 13.8994 39.0386 14.1976 39.0389 14.4958C39.0397 15.1993 39.0398 15.9027 39.0393 16.6061C39.0389 17.3322 39.0398 18.0582 39.0413 18.7842C39.0425 19.4073 39.0429 20.0304 39.0427 20.6535C39.0426 21.0257 39.0428 21.398 39.0437 21.7702C39.0446 22.1203 39.0445 22.4703 39.0436 22.8203C39.0434 22.9488 39.0436 23.0773 39.0442 23.2058C39.0449 23.3812 39.0443 23.5565 39.0434 23.7318C39.044 23.7828 39.0445 23.8337 39.045 23.8862C39.0417 24.1936 38.9966 24.3881 38.8067 24.6318C38.5651 24.7929 38.4706 24.791 38.1857 24.7945C38.1015 24.7959 38.0172 24.7973 37.9303 24.7988C37.7938 24.8 37.7938 24.8 37.6545 24.8012C37.5605 24.8025 37.4664 24.8039 37.3723 24.8053C37.1248 24.8089 36.8774 24.8117 36.6299 24.8143C36.3773 24.8171 36.1247 24.8207 35.8721 24.8243C35.3767 24.831 34.8812 24.837 34.3857 24.8423C34.43 24.8859 34.4743 24.9294 34.5199 24.9743C34.684 25.136 34.8479 25.2981 35.0115 25.4604C35.0823 25.5306 35.1533 25.6006 35.2245 25.6705C35.3267 25.771 35.4285 25.872 35.5302 25.9731C35.5915 26.0337 35.6529 26.0943 35.7161 26.1568C35.9005 26.3616 35.9268 26.4897 35.9471 26.7633C35.928 27.0404 35.8955 27.1568 35.719 27.3686C35.4438 27.5606 35.2161 27.6212 34.8808 27.5624C34.3352 27.3601 33.8737 26.7213 33.4735 26.3133C33.2005 26.0371 32.9206 25.7752 32.6267 25.5216C32.4148 25.3375 32.2104 25.1469 32.0086 24.952C31.9688 24.9154 31.929 24.8788 31.888 24.8411C31.6118 24.5725 31.4513 24.3237 31.4384 23.9301C31.5569 23.4408 31.9048 23.1483 32.2586 22.8073C32.3132 22.7534 32.3678 22.6995 32.424 22.6439C32.6756 22.3972 32.9305 22.157 33.1977 21.9271C33.551 21.6224 33.8711 21.2858 34.1937 20.9492C34.2407 20.9012 34.2877 20.8532 34.3361 20.8038C34.3777 20.7606 34.4194 20.7174 34.4622 20.673C34.6522 20.5153 34.845 20.4289 35.0918 20.4107C35.4543 20.4509 35.6229 20.5487 35.8594 20.8424C35.9669 21.0575 35.9456 21.2366 35.9295 21.474C35.793 21.7433 35.6208 21.9396 35.4068 22.1508C35.3532 22.2041 35.2996 22.2573 35.2443 22.3122C35.1766 22.3786 35.109 22.445 35.0392 22.5135C34.8236 22.7262 34.6079 22.939 34.3857 23.1582C35.3815 23.1813 36.3772 23.2045 37.4032 23.2284C37.4032 19.5 37.4032 15.7717 37.4032 11.9304C34.6938 11.9304 31.9844 11.9304 29.1929 11.9304C29.1929 11.3978 29.1929 10.8652 29.1929 10.3164Z" fill="#FF7705"></path>
  <path d="M19.751 18.7887C19.8287 18.7881 19.9064 18.7875 19.9865 18.7868C20.1139 18.7869 20.1139 18.7869 20.2439 18.787C20.3336 18.7866 20.4233 18.7861 20.5157 18.7856C20.7616 18.7844 21.0075 18.784 21.2534 18.7839C21.4071 18.7838 21.5608 18.7835 21.7146 18.7832C22.251 18.7819 22.7875 18.7813 23.324 18.7814C23.8237 18.7815 24.3234 18.78 24.8231 18.7778C25.2524 18.776 25.6817 18.7752 26.1111 18.7753C26.3674 18.7753 26.6236 18.7749 26.8799 18.7735C27.1658 18.7718 27.4517 18.7725 27.7376 18.7733C27.8223 18.7725 27.907 18.7717 27.9942 18.7709C28.4341 18.7743 28.7263 18.7773 29.0523 19.0881C29.1934 19.3128 29.2105 19.4883 29.2115 19.7514C29.2124 19.868 29.2124 19.868 29.2133 19.9869C29.2132 20.1143 29.2132 20.1143 29.2131 20.2443C29.2135 20.334 29.214 20.4237 29.2145 20.5162C29.2157 20.7621 29.2161 21.0079 29.2162 21.2539C29.2163 21.4076 29.2166 21.5613 29.2169 21.715C29.2182 22.2515 29.2188 22.7879 29.2187 23.3244C29.2186 23.8241 29.2201 24.3238 29.2223 24.8235C29.2241 25.2528 29.2249 25.6822 29.2248 26.1115C29.2248 26.3678 29.2252 26.6241 29.2267 26.8803C29.2283 27.1663 29.2276 27.4521 29.2268 27.7381C29.2276 27.8227 29.2284 27.9074 29.2292 27.9946C29.2259 28.4345 29.2228 28.7267 28.912 29.0528C28.6873 29.1938 28.5118 29.211 28.2487 29.2119C28.1321 29.2128 28.1321 29.2128 28.0132 29.2137C27.9283 29.2136 27.8433 29.2136 27.7558 29.2135C27.6661 29.214 27.5764 29.2144 27.484 29.2149C27.2381 29.2162 26.9922 29.2165 26.7463 29.2166C26.5925 29.2167 26.4388 29.217 26.2851 29.2174C25.7486 29.2187 25.2122 29.2192 24.6757 29.2191C24.176 29.219 23.6763 29.2205 23.1766 29.2227C22.7473 29.2246 22.3179 29.2253 21.8886 29.2252C21.6323 29.2252 21.3761 29.2256 21.1198 29.2271C20.8338 29.2287 20.548 29.2281 20.262 29.2272C20.1774 29.228 20.0927 29.2288 20.0055 29.2296C19.5656 29.2263 19.2734 29.2232 18.9473 28.9124C18.8063 28.6877 18.7891 28.5122 18.7882 28.2491C18.7876 28.1714 18.787 28.0937 18.7864 28.0136C18.7865 27.9287 18.7865 27.8438 18.7866 27.7562C18.7861 27.6665 18.7857 27.5768 18.7852 27.4844C18.7839 27.2385 18.7836 26.9926 18.7835 26.7467C18.7834 26.593 18.7831 26.4393 18.7827 26.2855C18.7814 25.7491 18.7809 25.2126 18.781 24.6761C18.7811 24.1764 18.7796 23.6767 18.7774 23.177C18.7755 22.7477 18.7748 22.3184 18.7749 21.889C18.7749 21.6328 18.7745 21.3765 18.773 21.1202C18.7714 20.8343 18.7721 20.5484 18.7729 20.2625C18.7721 20.1778 18.7713 20.0931 18.7705 20.0059C18.7738 19.5661 18.7769 19.2739 19.0877 18.9478C19.3124 18.8067 19.4879 18.7896 19.751 18.7887ZM20.421 20.4214C20.421 22.7835 20.421 25.1455 20.421 27.5791C22.783 27.5791 25.1451 27.5791 27.5787 27.5791C27.5787 25.2171 27.5787 22.855 27.5787 20.4214C25.2167 20.4214 22.8546 20.4214 20.421 20.4214Z" fill="#FF7705"></path>
  <path d="M19.6694 6.02501C19.7874 6.02411 19.7874 6.02411 19.9079 6.02318C19.9946 6.02289 20.0814 6.02259 20.1708 6.02228C20.2618 6.02171 20.3529 6.02113 20.4467 6.02054C20.7492 6.0187 21.0517 6.01763 21.3542 6.01663C21.4583 6.01625 21.5625 6.01587 21.6666 6.01549C22.0998 6.01398 22.533 6.01266 22.9662 6.01187C23.5869 6.01073 24.2077 6.0084 24.8285 6.0044C25.265 6.00169 25.7014 6.00032 26.1379 5.99995C26.3986 5.99969 26.6593 5.99885 26.9199 5.99657C27.2109 5.99407 27.5019 5.99435 27.7928 5.99487C27.879 5.99372 27.9652 5.99256 28.054 5.99138C28.705 5.99616 28.705 5.99616 28.9645 6.20503C29.1828 6.45574 29.2017 6.56783 29.2027 6.8932C29.2031 6.97083 29.2035 7.04845 29.2039 7.12843C29.204 7.25677 29.204 7.25677 29.2041 7.3877C29.2045 7.4775 29.2048 7.56731 29.2052 7.65983C29.2061 7.90661 29.2066 8.15338 29.2069 8.40016C29.2071 8.55431 29.2074 8.70847 29.2077 8.86262C29.2086 9.34488 29.2093 9.82713 29.2096 10.3094C29.2099 10.8662 29.2111 11.423 29.2132 11.9798C29.2147 12.41 29.2154 12.8403 29.2155 13.2706C29.2156 13.5276 29.216 13.7847 29.2172 14.0417C29.2186 14.3285 29.2183 14.6152 29.2178 14.902C29.2185 14.9872 29.2191 15.0723 29.2198 15.16C29.2194 15.2382 29.219 15.3165 29.2186 15.397C29.2187 15.4648 29.2188 15.5326 29.2189 15.6025C29.1789 15.8898 29.059 16.0664 28.853 16.2663C28.6619 16.3737 28.5326 16.3782 28.3137 16.379C28.1954 16.3802 28.1954 16.3802 28.0746 16.3814C27.9884 16.3812 27.9021 16.381 27.8132 16.3808C27.7222 16.3814 27.6311 16.382 27.5372 16.3826C27.2876 16.3842 27.0379 16.3844 26.7882 16.3842C26.5797 16.3842 26.3711 16.3848 26.1625 16.3854C25.6704 16.3868 25.1782 16.387 24.6861 16.3865C24.1787 16.386 23.6714 16.3876 23.164 16.3902C22.7281 16.3924 22.2922 16.3932 21.8563 16.3929C21.5961 16.3928 21.3359 16.3931 21.0757 16.3949C20.7854 16.3967 20.4952 16.3957 20.2049 16.3945C20.1189 16.3954 20.0329 16.3964 19.9444 16.3973C19.295 16.3909 19.295 16.3909 19.0356 16.1864C18.8148 15.9271 18.7982 15.745 18.7963 15.4158C18.7957 15.3382 18.7951 15.2606 18.7945 15.1806C18.7942 15.0954 18.7939 15.0102 18.7936 14.9224C18.793 14.8327 18.7924 14.743 18.7919 14.6506C18.79 14.353 18.7889 14.0555 18.7879 13.7579C18.7876 13.6554 18.7872 13.5529 18.7868 13.4504C18.7853 13.024 18.784 12.5977 18.7832 12.1713C18.782 11.5605 18.7797 10.9498 18.7757 10.339C18.773 9.90937 18.7716 9.47975 18.7713 9.05011C18.771 8.79358 18.7702 8.53709 18.7679 8.28057C18.7654 7.99429 18.7657 7.70808 18.7662 7.42179C18.765 7.33702 18.7639 7.25225 18.7627 7.16491C18.7675 6.52448 18.7675 6.52448 18.9764 6.26497C19.2282 6.04458 19.3417 6.02688 19.6694 6.02501ZM20.4211 7.57963C20.4211 9.96483 20.4211 12.35 20.4211 14.8075C22.7832 14.8075 25.1452 14.8075 27.5788 14.8075C27.5788 12.4223 27.5788 10.0371 27.5788 7.57963C25.2168 7.57963 22.8547 7.57963 20.4211 7.57963Z" fill="#FF7705"></path>
  <path d="M32.4442 31.6389C32.5236 31.6384 32.603 31.6379 32.6848 31.6373C32.7723 31.6371 32.8598 31.637 32.95 31.6368C33.0878 31.6361 33.0878 31.6361 33.2284 31.6354C33.4808 31.6341 33.7332 31.6334 33.9857 31.6328C34.1433 31.6325 34.301 31.632 34.4587 31.6316C34.952 31.6303 35.4452 31.6293 35.9385 31.6287C36.5081 31.628 37.0776 31.6261 37.6471 31.6233C38.0873 31.6212 38.5274 31.6202 38.9675 31.6199C39.2304 31.6198 39.4933 31.6191 39.7562 31.6174C40.0496 31.6154 40.3429 31.6157 40.6362 31.6162C40.7233 31.6153 40.8104 31.6144 40.9002 31.6135C41.0202 31.6142 41.0202 31.6142 41.1426 31.615C41.2466 31.6147 41.2466 31.6147 41.3527 31.6144C41.5974 31.659 41.7158 31.7604 41.8943 31.9299C41.9849 32.111 41.974 32.2415 41.9748 32.4444C41.9756 32.5635 41.9756 32.5635 41.9764 32.685C41.9765 32.7725 41.9767 32.86 41.9769 32.9502C41.9774 33.0421 41.9779 33.1339 41.9783 33.2286C41.9795 33.481 41.9803 33.7334 41.9809 33.9859C41.9812 34.1435 41.9817 34.3012 41.9821 34.4589C41.9834 34.9522 41.9844 35.4454 41.985 35.9387C41.9857 36.5083 41.9875 37.0778 41.9904 37.6473C41.9925 38.0875 41.9935 38.5276 41.9938 38.9677C41.9939 39.2306 41.9946 39.4935 41.9963 39.7564C41.9983 40.0498 41.998 40.3431 41.9975 40.6364C41.9988 40.7671 41.9988 40.7671 42.0002 40.9004C41.9995 41.0204 41.9995 41.0204 41.9987 41.1428C41.9989 41.2121 41.9991 41.2815 41.9992 41.3529C41.9547 41.5976 41.8533 41.716 41.6838 41.8945C41.5027 41.9851 41.3722 41.9742 41.1693 41.975C41.0899 41.9755 41.0105 41.976 40.9287 41.9766C40.7974 41.9768 40.7974 41.9768 40.6635 41.9771C40.5716 41.9776 40.4798 41.978 40.3851 41.9785C40.1327 41.9797 39.8803 41.9805 39.6278 41.9811C39.4701 41.9814 39.3125 41.9819 39.1548 41.9823C38.6615 41.9836 38.1682 41.9846 37.675 41.9852C37.1054 41.9859 36.5359 41.9877 35.9663 41.9906C35.5262 41.9927 35.0861 41.9937 34.646 41.994C34.3831 41.9941 34.1202 41.9948 33.8573 41.9965C33.5639 41.9985 33.2706 41.9982 32.9773 41.9977C32.8466 41.999 32.8466 41.999 32.7133 42.0004C32.5933 41.9997 32.5933 41.9997 32.4709 41.9989C32.3669 41.9992 32.3669 41.9992 32.2608 41.9994C32.0161 41.9549 31.8976 41.8535 31.7192 41.684C31.6286 41.5029 31.6395 41.3724 31.6387 41.1695C31.6382 41.0901 31.6377 41.0107 31.6371 40.9289C31.6369 40.8414 31.6368 40.7538 31.6366 40.6637C31.6361 40.5718 31.6356 40.48 31.6352 40.3853C31.6339 40.1329 31.6332 39.8805 31.6326 39.628C31.6323 39.4703 31.6318 39.3127 31.6314 39.155C31.6301 38.6617 31.6291 38.1684 31.6285 37.6752C31.6278 37.1056 31.6259 36.5361 31.6231 35.9665C31.621 35.5264 31.62 35.0863 31.6197 34.6462C31.6196 34.3833 31.6189 34.1204 31.6172 33.8575C31.6152 33.5641 31.6155 33.2708 31.616 32.9775C31.6151 32.8904 31.6142 32.8033 31.6133 32.7135C31.614 32.5935 31.614 32.5935 31.6148 32.4711C31.6146 32.4018 31.6144 32.3324 31.6142 32.261C31.6588 32.0163 31.7602 31.8978 31.9297 31.7194C32.1108 31.6288 32.2413 31.6397 32.4442 31.6389ZM33.1928 33.193C33.1928 35.5782 33.1928 37.9634 33.1928 40.4209C35.578 40.4209 37.9632 40.4209 40.4207 40.4209C40.4207 38.0357 40.4207 35.6505 40.4207 33.193C38.0355 33.193 35.6503 33.193 33.1928 33.193Z" fill="#FF7705"></path>
  <path d="M29.1929 36.0701C30.0034 36.0701 30.8139 36.0701 31.6489 36.0701C31.6489 36.6027 31.6489 37.1354 31.6489 37.6841C30.8384 37.6841 30.0279 37.6841 29.1929 37.6841C29.1929 37.1515 29.1929 36.6189 29.1929 36.0701Z" fill="#FF7705"></path>
  <path d="M16.3511 10.3164C17.1616 10.3164 17.9721 10.3164 18.8072 10.3164C18.8072 10.849 18.8072 11.3816 18.8072 11.9304C17.9966 11.9304 17.1861 11.9304 16.3511 11.9304C16.3511 11.3978 16.3511 10.8652 16.3511 10.3164Z" fill="#FF7705"></path>
</svg>
