<?xml version="1.0" encoding="UTF-8"?>
<svg xmlns="http://www.w3.org/2000/svg" width="36" height="42" viewBox="0 0 36 42" fill="none">
  <path d="M5.93503 0.0149255C6.02179 0.0141887 6.10855 0.0134519 6.19794 0.0126928C6.29351 0.0132175 6.38908 0.0137421 6.48754 0.0142827C6.58887 0.0138125 6.6902 0.0133424 6.79461 0.012858C7.07635 0.0118227 7.35807 0.011968 7.63981 0.0126107C7.9435 0.0130225 8.24718 0.0119327 8.55087 0.0110377C9.1461 0.0095342 9.74132 0.00946457 10.3366 0.00992144C10.8204 0.0102739 11.3043 0.0101487 11.7882 0.00968152C11.8914 0.00958351 11.8914 0.00958351 11.9968 0.00948353C12.1365 0.00934983 12.2763 0.00921554 12.4161 0.00908064C13.7281 0.00788127 15.0401 0.00835792 16.3521 0.00935871C17.5521 0.0102252 18.752 0.00909736 19.952 0.00700737C21.184 0.00487787 22.4159 0.00403938 23.6478 0.00461997C24.3396 0.00492489 25.0313 0.00472965 25.723 0.00320126C26.3121 0.00191578 26.9011 0.00186086 27.4902 0.00338205C27.7907 0.00412511 28.0912 0.00431233 28.3917 0.00297598C28.7177 0.00182642 29.0437 0.00282777 29.3698 0.004372C29.5117 0.00311423 29.5117 0.00311423 29.6564 0.00183105C30.2668 0.00778096 30.7678 0.0934262 31.2276 0.520579C31.7157 1.07011 31.7298 1.55758 31.7169 2.25789C31.7162 2.3392 31.7154 2.42051 31.7146 2.50428C31.7125 2.70408 31.7096 2.90383 31.706 3.10361C31.7957 3.10155 31.7957 3.10155 31.8873 3.09945C32.1615 3.09397 32.4357 3.09059 32.71 3.08724C32.8511 3.08395 32.8511 3.08395 32.9951 3.08059C33.6421 3.07467 34.1713 3.10237 34.6954 3.52237C34.7424 3.57864 34.7894 3.63491 34.8379 3.69288C34.8863 3.74825 34.9347 3.80361 34.9845 3.86066C35.2641 4.31093 35.3072 4.78593 35.3075 5.30562C35.3078 5.36638 35.3081 5.42713 35.3084 5.48972C35.3091 5.69273 35.3086 5.89571 35.3081 6.09871C35.3083 6.24596 35.3087 6.39321 35.3091 6.54045C35.31 6.94465 35.3098 7.34885 35.3094 7.75305C35.3092 8.18914 35.31 8.62523 35.3106 9.06132C35.3117 9.91551 35.3119 10.7697 35.3117 11.6239C35.3115 12.3181 35.3117 13.0124 35.3121 13.7067C35.3121 13.8054 35.3122 13.9042 35.3122 14.006C35.3123 14.2067 35.3124 14.4074 35.3125 14.6081C35.3135 16.4903 35.3133 18.3726 35.3128 20.2549C35.3123 21.9769 35.3133 23.699 35.315 25.4211C35.3167 27.1892 35.3174 28.9573 35.317 30.7254C35.3169 31.7182 35.3171 32.7109 35.3183 33.7036C35.3194 34.5487 35.3195 35.3938 35.3184 36.2389C35.3179 36.67 35.3178 37.1012 35.3189 37.5323C35.3198 37.9271 35.3196 38.3219 35.3183 38.7168C35.3181 38.8595 35.3183 39.0022 35.319 39.1449C35.3228 39.9707 35.313 40.6834 34.8761 41.4117C34.2559 41.9984 33.6327 42.0021 32.8194 41.9962C32.7023 41.9966 32.5851 41.9972 32.468 41.9978C32.1474 41.9993 31.8269 41.9986 31.5063 41.9975C31.1601 41.9967 30.8139 41.9979 30.4676 41.9989C29.7899 42.0004 29.1122 42.0001 28.4344 41.9991C27.8835 41.9983 27.3326 41.9982 26.7818 41.9986C26.7033 41.9986 26.6249 41.9987 26.544 41.9987C26.3847 41.9989 26.2253 41.999 26.0659 41.9991C24.572 42.0001 23.0781 41.9989 21.5842 41.9971C20.3027 41.9955 19.0212 41.9958 17.7398 41.9974C16.2511 41.9992 14.7625 42 13.2739 41.9989C13.1151 41.9988 12.9563 41.9987 12.7975 41.9986C12.7194 41.9985 12.6413 41.9985 12.5608 41.9984C12.0107 41.9981 11.4606 41.9986 10.9104 41.9995C10.2399 42.0004 9.56932 42.0002 8.89876 41.9983C8.55672 41.9974 8.2147 41.997 7.87266 41.9982C7.55936 41.9992 7.2461 41.9986 6.93279 41.9968C6.76619 41.9962 6.59958 41.9974 6.43298 41.9986C5.78402 41.9926 5.26883 41.9418 4.77291 41.4794C4.2837 40.9309 4.27023 40.442 4.28309 39.7421C4.28388 39.6608 4.28466 39.5795 4.28547 39.4957C4.28752 39.2959 4.29039 39.0962 4.294 38.8964C4.23419 38.8977 4.17438 38.8991 4.11275 38.9005C3.83853 38.906 3.56431 38.9094 3.29006 38.9127C3.14894 38.916 3.14894 38.916 3.00497 38.9194C2.35792 38.9253 1.82876 38.8976 1.30468 38.4776C1.25764 38.4213 1.2106 38.3651 1.16213 38.3071C1.08955 38.2241 1.08955 38.2241 1.0155 38.1393C0.621188 37.5042 0.689884 36.7868 0.691964 36.0652C0.6917 35.9358 0.691361 35.8064 0.690952 35.6769C0.690055 35.322 0.690245 34.9671 0.690619 34.6121C0.690834 34.2291 0.690047 33.846 0.689393 33.4629C0.68828 32.7128 0.688124 31.9627 0.688328 31.2126C0.688484 30.603 0.688331 29.9935 0.68796 29.3839C0.687908 29.2971 0.687856 29.2104 0.687802 29.121C0.687696 28.9448 0.68759 28.7686 0.687484 28.5924C0.686535 26.9399 0.686724 25.2874 0.687256 23.635C0.687707 22.1227 0.686724 20.6105 0.685065 19.0982C0.683374 17.5457 0.682652 15.9931 0.68298 14.4405C0.683147 13.5688 0.682928 12.6971 0.681696 11.8253C0.680657 11.0834 0.680531 10.3415 0.68159 9.59951C0.682105 9.2209 0.682197 8.8423 0.681153 8.46369C0.680209 8.11717 0.680472 7.77068 0.6817 7.42416C0.681932 7.29875 0.681721 7.17333 0.681025 7.04791C0.680144 6.87751 0.681033 6.70709 0.682009 6.53669C0.682004 6.44202 0.681999 6.34734 0.681994 6.2498C0.733972 5.82845 0.924607 5.49103 1.20374 5.17595C1.24613 5.12742 1.28852 5.0789 1.33219 5.0289C1.3769 4.97874 1.42161 4.92857 1.46768 4.87688C1.56223 4.76874 1.65669 4.66052 1.75106 4.55223C1.82076 4.47256 1.82076 4.47256 1.89186 4.39127C2.20681 4.02773 2.50711 3.65186 2.80991 3.27821C3.26851 2.71384 3.73246 2.15478 4.20376 1.60102C4.51371 1.23574 4.8141 0.86369 5.1097 0.48667C5.15742 0.428377 5.20513 0.370085 5.25429 0.310025C5.29185 0.263854 5.32941 0.217682 5.3681 0.170111C5.56513 0.00781539 5.68155 0.0152287 5.93503 0.0149255ZM6.56379 1.27032C6.56327 1.31798 6.56276 1.36565 6.56223 1.41476C6.55663 1.91333 6.54925 2.41185 6.54087 2.91038C6.53798 3.09614 6.53553 3.28191 6.53354 3.46768C6.5306 3.73557 6.52603 4.00338 6.52116 4.27124C6.52032 4.39473 6.52032 4.39473 6.51947 4.52071C6.5069 5.09248 6.44488 5.62136 6.06454 6.0769C6.01323 6.11663 5.96191 6.15635 5.90904 6.19728C5.85772 6.23858 5.80641 6.27988 5.75354 6.32243C5.38929 6.56168 4.99038 6.52754 4.57124 6.53591C4.49604 6.53772 4.42084 6.53954 4.34337 6.5414C4.10321 6.54711 3.86305 6.55226 3.62289 6.55739C3.46005 6.56116 3.29722 6.56497 3.13438 6.56882C2.73524 6.57816 2.33608 6.58701 1.93691 6.59558C1.92893 10.5044 1.92277 14.4132 1.91908 18.322C1.91865 18.7831 1.91819 19.2443 1.91773 19.7054C1.91764 19.7972 1.91755 19.889 1.91746 19.9836C1.91593 21.4715 1.91318 22.9593 1.90997 24.4472C1.90671 25.9731 1.90477 27.499 1.90406 29.0249C1.90358 29.967 1.90206 30.9091 1.89923 31.8511C1.89739 32.4966 1.89683 33.142 1.89728 33.7874C1.8975 34.1602 1.89715 34.5329 1.89529 34.9057C1.8936 35.2467 1.8935 35.5876 1.8947 35.9286C1.89485 36.0522 1.8944 36.1758 1.89331 36.2994C1.89191 36.467 1.89287 36.6345 1.89395 36.8021C1.89381 36.8953 1.89368 36.9885 1.89355 37.0846C1.94895 37.3917 2.03392 37.4933 2.28611 37.6742C2.51177 37.7262 2.51177 37.7262 2.76303 37.7181C2.86051 37.719 2.958 37.7199 3.05844 37.7209C3.16554 37.7201 3.27265 37.7193 3.38299 37.7185C3.49677 37.7191 3.61054 37.7196 3.72776 37.7202C4.04383 37.7216 4.35985 37.7209 4.67592 37.7198C5.01667 37.719 5.35742 37.7203 5.69817 37.7212C6.36581 37.7228 7.03344 37.7224 7.70108 37.7214C8.24357 37.7206 8.78605 37.7205 9.32854 37.7209C9.40568 37.721 9.48283 37.721 9.56231 37.7211C9.71901 37.7212 9.87571 37.7213 10.0324 37.7214C11.5026 37.7224 12.9728 37.7213 14.4429 37.7194C15.7051 37.7178 16.9672 37.7181 18.2293 37.7197C19.6941 37.7216 21.159 37.7223 22.6238 37.7212C22.7799 37.7211 22.9361 37.721 23.0922 37.7209C23.169 37.7209 23.2459 37.7208 23.325 37.7207C23.867 37.7204 24.409 37.721 24.951 37.7218C25.6112 37.7228 26.2715 37.7225 26.9318 37.7206C27.2689 37.7197 27.6059 37.7194 27.9429 37.7205C28.3079 37.7217 28.6728 37.7203 29.0378 37.7185C29.1984 37.7197 29.1984 37.7197 29.3623 37.7209C29.4598 37.72 29.5573 37.7191 29.6577 37.7181C29.742 37.7181 29.8263 37.718 29.9131 37.718C30.2107 37.6592 30.3096 37.5723 30.4838 37.325C30.5362 37.0443 30.5362 37.0443 30.5275 36.7238C30.528 36.663 30.5285 36.6022 30.529 36.5396C30.5302 36.335 30.5289 36.1305 30.5276 35.9259C30.5279 35.7782 30.5284 35.6304 30.5291 35.4827C30.5303 35.0759 30.5294 34.6691 30.5282 34.2623C30.5272 33.8239 30.5283 33.3855 30.5291 32.9471C30.5303 32.0879 30.5296 31.2288 30.5283 30.3697C30.5268 29.37 30.5271 28.3702 30.5274 27.3705C30.528 25.5872 30.5267 23.804 30.5246 22.0207C30.5225 20.2888 30.5219 18.557 30.5228 16.8251C30.5238 14.9408 30.5239 13.0564 30.5227 11.1721C30.5225 10.9713 30.5224 10.7705 30.5223 10.5698C30.5222 10.471 30.5221 10.3722 30.5221 10.2704C30.5217 9.57289 30.5218 8.8754 30.5222 8.17791C30.5226 7.32841 30.5221 6.47892 30.5204 5.62943C30.5195 5.19569 30.5191 4.76196 30.5198 4.32822C30.5204 3.93163 30.5198 3.53506 30.5182 3.13847C30.5179 2.99454 30.518 2.85062 30.5185 2.70669C30.5192 2.51192 30.5183 2.31722 30.517 2.12246C30.5169 2.01402 30.5169 1.90557 30.5168 1.79385C30.5037 1.53634 30.5037 1.53634 30.3759 1.36639C30.1781 1.24296 30.0531 1.23777 29.8202 1.23809C29.6958 1.23731 29.6958 1.23731 29.5689 1.23651C29.4776 1.23728 29.3863 1.23804 29.2923 1.23882C29.1955 1.2386 29.0986 1.23838 28.9989 1.23815C28.6727 1.23771 28.3466 1.23916 28.0205 1.24059C27.7873 1.24066 27.5542 1.24063 27.3211 1.24047C26.8183 1.24033 26.3156 1.24116 25.8129 1.24263C25.086 1.24476 24.3591 1.24544 23.6322 1.24577C22.4529 1.24634 21.2736 1.24809 20.0943 1.25056C18.9486 1.25296 17.8029 1.25482 16.6573 1.25593C16.5514 1.25604 16.5514 1.25604 16.4433 1.25614C16.0892 1.25648 15.735 1.25681 15.3808 1.25714C12.4418 1.25986 9.5028 1.26447 6.56379 1.27032ZM5.25429 2.23061C5.08918 2.41396 4.92814 2.59896 4.76869 2.78715C4.72105 2.84306 4.6734 2.89898 4.62431 2.95659C4.30405 3.33393 3.99146 3.71653 3.68495 4.10516C3.43231 4.42072 3.17176 4.72958 2.91012 5.03771C2.71828 5.22526 2.71828 5.22526 2.63531 5.46069C3.00449 5.47085 3.37364 5.47704 3.74292 5.48252C3.84752 5.48544 3.95212 5.48837 4.05989 5.49138C4.16089 5.49251 4.26189 5.49363 4.36595 5.49479C4.50516 5.49754 4.50516 5.49754 4.64718 5.50033C4.98191 5.44888 5.11848 5.36651 5.34159 5.11149C5.38075 4.87119 5.39301 4.68612 5.38422 4.4472C5.3836 4.38375 5.38299 4.3203 5.38235 4.25493C5.37991 4.05294 5.37444 3.85116 5.36887 3.64923C5.36668 3.51203 5.36469 3.37483 5.36291 3.23763C5.3581 2.90187 5.35057 2.56628 5.34159 2.23061C5.31278 2.23061 5.28398 2.23061 5.25429 2.23061ZM31.706 4.3258C31.706 4.39591 31.7059 4.46603 31.7059 4.53827C31.7027 8.69283 31.6978 12.8474 31.6905 17.0019C31.6896 17.5007 31.6888 17.9994 31.6879 18.4981C31.6877 18.647 31.6877 18.647 31.6874 18.799C31.6847 20.4071 31.6832 22.0153 31.6822 23.6234C31.6811 25.2732 31.6787 26.923 31.6751 28.5728C31.6729 29.5911 31.6717 30.6093 31.6719 31.6275C31.6719 32.3255 31.6706 33.0235 31.6683 33.7215C31.667 34.1244 31.6663 34.5272 31.6671 34.93C31.6678 35.2989 31.6669 35.6678 31.6648 36.0367C31.6643 36.1701 31.6644 36.3034 31.6651 36.4368C31.6686 37.13 31.6639 37.6918 31.2695 38.2853C30.7798 38.7751 30.2561 38.829 29.5927 38.8339C29.4978 38.8337 29.4028 38.8336 29.305 38.8334C29.2033 38.8339 29.1016 38.8344 28.9969 38.8349C28.7154 38.8361 28.4339 38.8366 28.1524 38.8367C27.8485 38.837 27.5447 38.8384 27.2408 38.8396C26.7146 38.8415 26.1885 38.8428 25.6623 38.8437C24.9015 38.845 24.1408 38.8472 23.38 38.8497C22.1457 38.8536 20.9113 38.8568 19.677 38.8595C18.478 38.8622 17.2791 38.8652 16.0801 38.8687C16.0062 38.8689 15.9323 38.8691 15.8562 38.8693C15.4853 38.8704 15.1145 38.8715 14.7436 38.8726C11.6678 38.8816 8.59201 38.8894 5.51619 38.8964C5.50913 39.1529 5.50393 39.4092 5.49982 39.6657C5.49763 39.7385 5.49543 39.8112 5.49317 39.8862C5.49233 39.9562 5.49149 40.0263 5.49062 40.0984C5.48856 40.1951 5.48856 40.1951 5.48646 40.2938C5.50482 40.4736 5.50482 40.4736 5.61942 40.6197C5.83657 40.7702 5.98387 40.7626 6.24723 40.7629C6.34521 40.7636 6.44318 40.7643 6.54413 40.7651C6.65222 40.7646 6.76032 40.764 6.87169 40.7635C7.0434 40.7642 7.0434 40.7642 7.21858 40.7649C7.53699 40.7662 7.85539 40.7658 8.17381 40.7652C8.51694 40.7648 8.86007 40.7659 9.2032 40.7668C9.87566 40.7683 10.5481 40.7683 11.2206 40.7679C11.7669 40.7675 12.3133 40.7676 12.8597 40.7681C12.9373 40.7682 13.015 40.7682 13.095 40.7683C13.2528 40.7684 13.4105 40.7686 13.5683 40.7687C15.0487 40.7699 16.5291 40.7694 18.0095 40.7684C19.365 40.7676 20.7206 40.7687 22.0761 40.7708C23.4667 40.7729 24.8574 40.7738 26.2481 40.7732C27.0293 40.7729 27.8105 40.7731 28.5918 40.7746C29.2568 40.7759 29.9217 40.7759 30.5867 40.7744C30.9262 40.7737 31.2657 40.7735 31.6052 40.7748C31.9727 40.7762 32.3401 40.775 32.7076 40.7734C32.8157 40.7743 32.9238 40.7751 33.0352 40.776C33.1821 40.7747 33.1821 40.7747 33.3321 40.7734C33.4594 40.7733 33.4594 40.7733 33.5893 40.7733C33.8087 40.7464 33.8087 40.7464 33.9594 40.5898C34.0986 40.3089 34.0961 40.0944 34.0963 39.7808C34.0969 39.69 34.0969 39.69 34.0975 39.5973C34.0986 39.3933 34.0978 39.1893 34.097 38.9853C34.0973 38.838 34.0978 38.6906 34.0984 38.5433C34.0996 38.1377 34.0993 37.732 34.0986 37.3264C34.0982 36.8893 34.0993 36.4521 34.1002 36.0149C34.1017 35.1582 34.1018 34.3015 34.1013 33.4448C34.101 32.7488 34.1011 32.0527 34.1016 31.3567C34.1016 31.2577 34.1017 31.1588 34.1018 31.0568C34.1019 30.8558 34.102 30.6548 34.1022 30.4538C34.1034 28.5678 34.1029 26.6817 34.1019 24.7956C34.101 23.0687 34.1021 21.3418 34.1042 19.6149C34.1064 17.8431 34.1072 16.0714 34.1066 14.2996C34.1063 13.3043 34.1065 12.309 34.108 11.3138C34.1093 10.4666 34.1094 9.61937 34.1079 8.77218C34.1071 8.33966 34.1069 7.90717 34.1083 7.47465C34.1095 7.07907 34.1091 6.68353 34.1074 6.28796C34.107 6.1445 34.1073 6.00104 34.1082 5.85758C34.1093 5.66322 34.1084 5.46898 34.1068 5.27462C34.1068 5.16647 34.1068 5.05833 34.1068 4.94691C34.0827 4.67029 34.0827 4.67029 33.9154 4.46505C33.669 4.29478 33.5379 4.28509 33.2406 4.2917C33.1511 4.29282 33.0617 4.29395 32.9695 4.29511C32.8766 4.29803 32.7838 4.30096 32.6881 4.30397C32.5469 4.30634 32.5469 4.30634 32.4027 4.30875C32.1704 4.31286 31.9383 4.3186 31.706 4.3258Z" fill="#FF7705"></path>
  <path d="M16.2649 4.29822C16.3233 4.29774 16.3817 4.29725 16.4418 4.29675C16.9705 4.30437 17.4117 4.36177 17.809 4.72381C17.9894 4.9569 18.0226 5.13785 18.0546 5.42766C18.0795 5.63153 18.0795 5.63153 18.1746 5.80959C18.5192 6.02305 18.915 6.19071 19.3252 6.13117C19.5026 6.06929 19.5026 6.06929 19.7242 5.93509C20.0644 5.7846 20.3436 5.73899 20.7063 5.80959C21.4338 6.10779 22.0839 6.7871 22.4523 7.46828C22.6071 7.95493 22.4651 8.32374 22.2777 8.77778C22.2424 8.83506 22.2072 8.89234 22.1709 8.95135C22.0817 9.12888 22.0817 9.12888 22.1624 9.32374C22.1968 9.39025 22.2313 9.45675 22.2668 9.52528C22.4523 9.88954 22.4523 9.88954 22.4523 10.1746C22.5029 10.1758 22.5536 10.177 22.6057 10.1783C23.139 10.2109 23.3915 10.3101 23.7618 10.6984C24.0209 11.1166 23.9651 11.5636 23.9636 12.0406C23.965 12.1304 23.9665 12.2202 23.9679 12.3127C23.9682 12.7985 23.9569 13.1643 23.6745 13.5792C23.3751 13.8438 23.1623 13.9489 22.7687 13.9503C22.6643 13.9431 22.5599 13.9359 22.4523 13.9284C22.4433 13.9987 22.4343 14.0689 22.425 14.1412C22.3743 14.4041 22.3053 14.605 22.2067 14.8505C22.1315 15.0486 22.1315 15.0486 22.1031 15.2379C22.2507 15.4734 22.2507 15.4734 22.4523 15.6744C22.5661 16.1137 22.5588 16.4852 22.365 16.8966C22.1729 17.1462 21.9537 17.361 21.7266 17.5787C21.6686 17.6369 21.6106 17.6951 21.5508 17.7551C21.2047 18.0944 20.9249 18.365 20.4198 18.3909C19.8808 18.3321 19.8808 18.3321 19.5987 18.1024C19.5321 18.0502 19.4654 17.998 19.3968 17.9442C19.1394 17.9861 19.1394 17.9861 18.873 18.1188C18.8128 18.1332 18.7526 18.1476 18.6906 18.1625C18.4912 18.2144 18.344 18.2627 18.1746 18.3807C18.0949 18.5787 18.0657 18.7613 18.0361 18.9724C17.9837 19.2541 17.8535 19.4062 17.6508 19.6029C17.2127 19.8765 16.7153 19.8062 16.2158 19.8048C16.117 19.8062 16.0181 19.8076 15.9162 19.809C15.8208 19.8091 15.7253 19.8092 15.6269 19.8092C15.4965 19.8096 15.4965 19.8096 15.3635 19.81C15.0754 19.7717 14.9156 19.6872 14.6826 19.5156C14.3784 19.0881 14.2897 18.8296 14.3334 18.2934C14.2254 18.2799 14.2254 18.2799 14.1152 18.2661C13.8587 18.2158 13.6878 18.1539 13.455 18.0479C13.2802 17.9728 13.2802 17.9728 13.1112 17.9442C12.8909 18.0971 12.8909 18.0971 12.6747 18.2934C12.2223 18.4265 11.8709 18.412 11.4372 18.2124C11.143 18.0395 10.9178 17.8018 10.6832 17.5568C10.6333 17.5068 10.5834 17.4568 10.532 17.4052C10.1881 17.0541 9.94479 16.7694 9.93571 16.2582C9.94016 15.9576 9.98809 15.7753 10.1485 15.5217C10.3419 15.2628 10.3419 15.2628 10.2931 15.0309C10.2296 14.7988 10.1645 14.5678 10.0939 14.3377C10.0704 14.2606 10.0469 14.1835 10.0227 14.1041C10.0048 14.0461 9.98689 13.9882 9.96845 13.9284C9.8091 13.9365 9.8091 13.9365 9.64653 13.9448C9.29947 13.9418 9.10112 13.9044 8.83356 13.6665C8.4907 13.1592 8.42978 12.6962 8.44071 12.0952C8.43936 12.0209 8.43801 11.9466 8.43662 11.8701C8.43979 11.3535 8.53326 10.9506 8.83356 10.5238C9.11643 10.2853 9.42775 10.1833 9.79385 10.1527C9.85147 10.1599 9.90909 10.1671 9.96845 10.1746C9.98533 10.1229 10.0022 10.0713 10.0196 10.018C10.1382 9.65822 10.2583 9.302 10.4049 8.95237C10.3491 8.90016 10.2933 8.84794 10.2358 8.79414C9.98975 8.53318 9.95255 8.31163 9.94117 7.9648C9.93791 7.90032 9.93464 7.83584 9.93128 7.7694C10.0233 7.24029 10.4684 6.85144 10.836 6.48617C10.8807 6.44003 10.9255 6.39389 10.9715 6.34635C11.3307 5.98677 11.5981 5.82811 12.1018 5.78231C12.5469 5.82136 12.8325 6.0021 13.1985 6.24609C13.5826 6.16759 13.9187 6.02456 14.2461 5.80959C14.3503 5.60244 14.3746 5.44083 14.3986 5.21146C14.4339 4.91263 14.5461 4.7825 14.7699 4.5874C15.2385 4.32134 15.7365 4.30194 16.2649 4.29822ZM15.5556 5.5477C15.5492 5.64712 15.5492 5.64712 15.5427 5.74855C15.5361 5.83532 15.5296 5.92208 15.5229 6.01147C15.5168 6.09756 15.5107 6.18365 15.5045 6.27235C15.4683 6.50799 15.4683 6.50799 15.2937 6.76989C15.0839 6.8508 14.8812 6.91942 14.6663 6.98268C14.1298 7.14745 14.1298 7.14745 13.635 7.40827C13.3042 7.59438 13.1365 7.62127 12.762 7.55558C12.5061 7.39966 12.2943 7.22602 12.0636 7.03179C11.7755 7.31988 11.4875 7.60796 11.1906 7.90478C11.3339 8.2481 11.3339 8.2481 11.5508 8.41221C11.7301 8.62141 11.7754 8.7492 11.7601 9.02467C11.6766 9.37141 11.497 9.67383 11.3298 9.98667C11.1571 10.3283 11.035 10.6771 10.9165 11.0404C10.8414 11.2222 10.8414 11.2222 10.6668 11.3095C10.3474 11.3483 10.0273 11.3706 9.70655 11.3968C9.70655 11.8577 9.70655 12.3186 9.70655 12.7935C9.96043 12.8098 9.96043 12.8098 10.2194 12.8263C10.7323 12.859 10.7323 12.859 10.9287 13.0554C11.0029 13.2641 11.0712 13.4714 11.1361 13.6829C11.305 14.219 11.305 14.219 11.5671 14.7141C11.7512 15.0414 11.7816 15.2175 11.7144 15.5871C11.5565 15.7944 11.3909 15.9399 11.1906 16.1109C11.3196 16.4123 11.4908 16.6041 11.7254 16.8311C11.7886 16.8928 11.8518 16.9545 11.917 17.018C11.9896 17.0876 11.9896 17.0876 12.0636 17.1585C12.1017 17.1217 12.1397 17.0849 12.1789 17.047C12.2309 16.9992 12.2829 16.9514 12.3364 16.9021C12.3871 16.8545 12.4377 16.8069 12.4899 16.7578C12.7374 16.593 12.9005 16.5572 13.1985 16.5474C13.4262 16.6326 13.6237 16.7192 13.8369 16.8311C13.9522 16.8888 14.0677 16.9461 14.1834 17.003C14.2389 17.0304 14.2943 17.0577 14.3515 17.0859C14.5533 17.1795 14.7588 17.2477 14.9718 17.3113C15.2937 17.4204 15.2937 17.4204 15.4683 17.6823C15.5045 17.918 15.5045 17.918 15.5229 18.1788C15.5327 18.309 15.5327 18.309 15.5427 18.4418C15.5491 18.5412 15.5491 18.5412 15.5556 18.6426C15.7721 18.645 15.9885 18.6467 16.2049 18.6481C16.2666 18.6488 16.3284 18.6495 16.392 18.6503C16.5497 18.651 16.7074 18.6472 16.8651 18.6426C17.0151 18.4926 16.9811 18.2854 16.9961 18.0806C17.0301 17.6142 17.0301 17.6142 17.127 17.4204C17.3285 17.3463 17.5275 17.2806 17.7326 17.2185C18.2273 17.0637 18.6726 16.8823 19.1219 16.619C19.3683 16.525 19.498 16.5507 19.746 16.6347C19.946 16.7914 20.0972 16.9699 20.2698 17.1585C20.5711 17.0296 20.763 16.8584 20.99 16.6238C21.0517 16.5606 21.1133 16.4973 21.1769 16.4322C21.2232 16.3838 21.2696 16.3354 21.3174 16.2855C21.2806 16.2485 21.2438 16.2115 21.2059 16.1733C20.9729 15.924 20.81 15.7162 20.6845 15.3962C20.7129 14.9621 20.8819 14.6753 21.0879 14.2967C21.2723 13.9324 21.3887 13.5597 21.5043 13.169C21.5793 12.9681 21.5793 12.9681 21.7539 12.8808C22.0733 12.842 22.3934 12.8197 22.7142 12.7935C22.7142 12.3326 22.7142 11.8717 22.7142 11.3968C22.5611 11.3896 22.4081 11.3824 22.2504 11.3749C21.8004 11.3538 21.8004 11.3538 21.6052 11.1679C21.4635 10.908 21.3721 10.6467 21.2792 10.3655C21.1607 10.0178 21.0507 9.70136 20.8481 9.39433C20.7063 9.12697 20.7063 9.12697 20.6954 8.82143C20.8256 8.41622 21.0238 8.21085 21.3174 7.90478C21.0293 7.61669 20.7412 7.32861 20.4444 7.03179C20.1011 7.17505 20.1011 7.17505 19.937 7.3919C19.746 7.55558 19.746 7.55558 19.4626 7.58116C19.1098 7.55363 18.9018 7.47143 18.5893 7.31005C18.0824 7.06159 17.5891 6.8954 17.0397 6.76989C17.0344 6.68898 17.0291 6.60806 17.0237 6.5247C17.0164 6.42016 17.009 6.31561 17.0015 6.2079C16.9944 6.10358 16.9873 5.99926 16.98 5.89178C16.9806 5.64497 16.9806 5.64497 16.8651 5.5477C16.6442 5.54131 16.4257 5.53962 16.2049 5.54224C16.1428 5.54263 16.0808 5.54303 16.0168 5.54343C15.8631 5.54447 15.7094 5.54603 15.5556 5.5477Z" fill="#FF7705"></path>
  <path d="M6.04513 32.3918C6.18049 32.391 6.18049 32.391 6.31859 32.3902C6.62194 32.3888 6.92523 32.3899 7.22858 32.391C7.44567 32.3905 7.66275 32.3899 7.87984 32.3891C8.40883 32.3877 8.9378 32.3879 9.46679 32.3889C9.89667 32.3897 10.3265 32.3898 10.7564 32.3894C10.8176 32.3894 10.8787 32.3893 10.9417 32.3893C11.0659 32.3891 11.1901 32.389 11.3144 32.3889C12.4796 32.3879 13.6447 32.3891 14.8099 32.3909C15.81 32.3925 16.81 32.3922 17.8101 32.3906C18.9711 32.3888 20.132 32.388 21.293 32.3891C21.4168 32.3892 21.5406 32.3893 21.6643 32.3894C21.7557 32.3895 21.7557 32.3895 21.8489 32.3896C22.2783 32.3899 22.7077 32.3894 23.1371 32.3886C23.7149 32.3875 24.2927 32.3882 24.8706 32.3903C25.083 32.3907 25.2954 32.3906 25.5078 32.3898C25.7971 32.3889 26.0863 32.3901 26.3756 32.3918C26.4603 32.391 26.545 32.3902 26.6322 32.3894C27.1973 32.3961 27.1973 32.3961 27.4805 32.5971C27.6487 32.8557 27.6534 33.0065 27.6029 33.3091C27.4803 33.4973 27.4803 33.4973 27.2537 33.6583C26.9628 33.7112 26.6745 33.7054 26.3795 33.7027C26.2448 33.7035 26.2448 33.7035 26.1073 33.7043C25.8054 33.7057 25.5035 33.7046 25.2015 33.7035C24.9855 33.704 24.7694 33.7046 24.5533 33.7054C24.0267 33.7068 23.5002 33.7066 22.9736 33.7056C22.5456 33.7048 22.1177 33.7047 21.6897 33.7051C21.5984 33.7051 21.5984 33.7051 21.5052 33.7052C21.3816 33.7053 21.2579 33.7055 21.1342 33.7056C19.9741 33.7066 18.8139 33.7054 17.6538 33.7035C16.6582 33.702 15.6627 33.7023 14.6672 33.7039C13.5114 33.7057 12.3556 33.7065 11.1997 33.7054C11.0765 33.7053 10.9532 33.7052 10.83 33.7051C10.739 33.705 10.739 33.705 10.6462 33.7049C10.2188 33.7046 9.79138 33.7051 9.36397 33.7059C8.78865 33.707 8.21336 33.7062 7.63804 33.7042C7.42664 33.7038 7.21523 33.7039 7.00383 33.7047C6.71573 33.7056 6.42771 33.7044 6.13961 33.7027C6.01348 33.7038 6.01348 33.7038 5.88479 33.705C5.51477 33.7007 5.30731 33.6899 4.98377 33.4973C4.81779 33.3091 4.81779 33.3091 4.76868 33.0472C4.90247 32.3337 5.44282 32.3863 6.04513 32.3918Z" fill="#FF7705"></path>
  <path d="M6.13631 21.8298C6.27072 21.8292 6.27072 21.8292 6.40784 21.8285C6.70851 21.8275 7.00911 21.829 7.30978 21.8306C7.52515 21.8304 7.74053 21.83 7.95591 21.8295C8.4804 21.8288 9.00487 21.8296 9.52935 21.8313C10.14 21.8331 10.7507 21.8331 11.3614 21.833C12.4509 21.8329 13.5404 21.8345 14.6299 21.837C15.6874 21.8395 16.7448 21.8407 17.8022 21.8406C17.8673 21.8406 17.9325 21.8406 17.9996 21.8406C18.0971 21.8406 18.0971 21.8406 18.1966 21.8406C19.4003 21.8404 20.6039 21.8415 21.8075 21.843C22.2333 21.8436 22.659 21.8438 23.0848 21.8438C23.6577 21.844 24.2306 21.8451 24.8035 21.8468C25.0141 21.8473 25.2246 21.8476 25.4352 21.8475C25.722 21.8474 26.0088 21.8483 26.2955 21.8496C26.3795 21.8493 26.4634 21.8491 26.5499 21.8488C26.6267 21.8494 26.7034 21.8499 26.7825 21.8505C26.8487 21.8506 26.9149 21.8508 26.9831 21.8509C27.1951 21.8764 27.3347 21.9353 27.5157 22.0476C27.6397 22.2956 27.6304 22.4714 27.603 22.746C27.4815 22.9348 27.4815 22.9348 27.2538 23.0952C26.9615 23.1479 26.6719 23.1422 26.3756 23.1395C26.2402 23.1403 26.2402 23.1403 26.1021 23.1411C25.7988 23.1425 25.4955 23.1414 25.1922 23.1403C24.9751 23.1408 24.758 23.1414 24.5409 23.1422C24.0119 23.1436 23.4829 23.1434 22.9539 23.1424C22.5241 23.1416 22.0942 23.1415 21.6643 23.1419C21.6032 23.1419 21.542 23.142 21.479 23.142C21.3548 23.1422 21.2306 23.1423 21.1064 23.1424C19.9412 23.1434 18.776 23.1422 17.6108 23.1404C16.6108 23.1388 15.6107 23.1391 14.6106 23.1407C13.4497 23.1425 12.2887 23.1433 11.1277 23.1422C11.0039 23.1421 10.8802 23.142 10.7564 23.1419C10.6955 23.1418 10.6346 23.1418 10.5719 23.1417C10.1425 23.1414 9.71304 23.1419 9.28362 23.1427C8.7058 23.1438 8.12799 23.1431 7.55017 23.141C7.33774 23.1406 7.12532 23.1407 6.9129 23.1415C6.62361 23.1424 6.33442 23.1412 6.04514 23.1395C5.91811 23.1407 5.91811 23.1407 5.78852 23.1419C5.22333 23.1352 5.22333 23.1352 4.94058 22.9342C4.77049 22.6734 4.76062 22.5271 4.8178 22.2222C5.20096 21.7881 5.59732 21.824 6.13631 21.8298Z" fill="#FF7705"></path>
  <path d="M18.6684 8.62543C19.5944 9.31531 20.2128 10.2583 20.4024 11.4105C20.507 12.6035 20.3027 13.7082 19.5769 14.6784C18.8295 15.5659 17.8571 16.169 16.6905 16.2856C15.432 16.3699 14.3362 16.0115 13.3513 15.2217C12.5116 14.4353 12.0705 13.3781 12.0226 12.2382C12.0065 11.0396 12.3933 9.96062 13.2095 9.06704C14.7304 7.64995 16.9354 7.49732 18.6684 8.62543ZM13.915 10.1706C13.2678 10.9824 13.1952 11.7903 13.2858 12.7936C13.3603 13.0904 13.47 13.3229 13.635 13.5793C13.6721 13.64 13.7091 13.7006 13.7472 13.7631C14.1719 14.3936 14.7882 14.8102 15.5167 15.0222C16.4345 15.1996 17.1279 15.0013 17.9291 14.5615C18.5979 14.0264 19.0468 13.3774 19.2222 12.5317C19.3082 11.7537 19.1549 11.0094 18.6994 10.366C18.1251 9.69838 17.4771 9.18231 16.5742 9.10081C15.4435 9.097 14.6959 9.31994 13.915 10.1706Z" fill="#FF7705"></path>
  <path d="M5.54477 28.9221C5.62238 28.9216 5.69998 28.9211 5.77993 28.9206C5.90793 28.9211 5.90793 28.9211 6.03852 28.9216C6.12911 28.9213 6.2197 28.9209 6.31303 28.9206C6.61805 28.9197 6.92305 28.92 7.22807 28.9204C7.44614 28.92 7.66421 28.9195 7.88229 28.919C8.414 28.918 8.94571 28.9178 9.47742 28.918C9.90946 28.9181 10.3415 28.918 10.7735 28.9176C10.8657 28.9175 10.8657 28.9175 10.9597 28.9174C11.0845 28.9173 11.2092 28.9172 11.334 28.9171C12.5048 28.9162 13.6756 28.9163 14.8464 28.9169C15.9183 28.9173 16.9901 28.9164 18.0619 28.9147C19.1618 28.913 20.2616 28.9123 21.3615 28.9126C21.9793 28.9128 22.597 28.9126 23.2148 28.9113C23.7955 28.9102 24.3762 28.9104 24.9569 28.9115C25.1704 28.9117 25.384 28.9115 25.5976 28.9108C25.8883 28.9099 26.1789 28.9106 26.4695 28.9117C26.5548 28.911 26.6402 28.9104 26.7281 28.9097C26.8445 28.9107 26.8445 28.9107 26.9632 28.9116C27.0639 28.9116 27.0639 28.9116 27.1666 28.9116C27.3912 28.9538 27.4681 29.0238 27.6029 29.2062C27.6601 29.7399 27.6601 29.7399 27.4936 29.9653C27.3023 30.1082 27.1993 30.1121 26.9619 30.1124C26.845 30.1135 26.845 30.1135 26.7258 30.1147C26.6401 30.1142 26.5545 30.1136 26.4662 30.1131C26.3752 30.1136 26.2843 30.114 26.1906 30.1145C25.8844 30.1158 25.5782 30.1151 25.2719 30.1145C25.053 30.115 24.8341 30.1156 24.6151 30.1163C24.0813 30.1177 23.5475 30.1179 23.0137 30.1174C22.58 30.1171 22.1462 30.1172 21.7125 30.1177C21.6508 30.1178 21.5891 30.1178 21.5256 30.1179C21.4003 30.118 21.275 30.1182 21.1498 30.1183C19.9743 30.1195 18.7989 30.119 17.6235 30.118C16.5474 30.1171 15.4714 30.1183 14.3953 30.1204C13.2911 30.1225 12.1869 30.1233 11.0827 30.1227C10.4625 30.1224 9.84229 30.1226 9.22208 30.1242C8.63909 30.1256 8.05614 30.1252 7.47315 30.1235C7.25872 30.1232 7.04429 30.1235 6.82986 30.1244C6.53806 30.1255 6.24634 30.1245 5.95454 30.123C5.86886 30.1238 5.78319 30.1247 5.69491 30.1255C5.57806 30.1243 5.57806 30.1243 5.45884 30.1229C5.39146 30.1229 5.32407 30.1229 5.25465 30.1229C5.07968 30.0792 5.07968 30.0792 4.92435 29.9217C4.76333 29.6321 4.82405 29.4315 4.90508 29.1189C5.17727 28.9375 5.23603 28.9225 5.54477 28.9221Z" fill="#FF7705"></path>
  <path d="M5.4481 25.4302C5.56469 25.4294 5.56469 25.4294 5.68364 25.4286C5.81254 25.4291 5.81254 25.4291 5.94404 25.4296C6.03491 25.4293 6.12578 25.429 6.2194 25.4286C6.5259 25.4277 6.83237 25.4281 7.13887 25.4284C7.35779 25.428 7.57671 25.4276 7.79563 25.4271C8.32975 25.426 8.86386 25.4258 9.39798 25.426C9.83197 25.4262 10.266 25.426 10.7 25.4256C10.7616 25.4256 10.8233 25.4255 10.8869 25.4255C11.0122 25.4254 11.1375 25.4253 11.2628 25.4252C12.4388 25.4242 13.6148 25.4244 14.7908 25.4249C15.8674 25.4254 16.9441 25.4244 18.0207 25.4227C19.1253 25.4211 20.2299 25.4203 21.3345 25.4207C21.955 25.4208 22.5755 25.4206 23.196 25.4194C23.7793 25.4182 24.3626 25.4184 24.946 25.4196C25.1605 25.4198 25.3751 25.4196 25.5897 25.4188C25.8817 25.4179 26.1736 25.4186 26.4656 25.4197C26.5513 25.4191 26.6371 25.4184 26.7254 25.4178C26.8034 25.4184 26.8813 25.419 26.9616 25.4197C27.0628 25.4197 27.0628 25.4197 27.166 25.4197C27.391 25.4618 27.4679 25.5315 27.6029 25.7143C27.6601 26.248 27.6601 26.248 27.4935 26.4734C27.3026 26.616 27.2003 26.6202 26.9635 26.6205C26.8472 26.6216 26.8472 26.6216 26.7285 26.6227C26.6432 26.6222 26.5579 26.6217 26.4701 26.6211C26.3796 26.6216 26.289 26.6221 26.1958 26.6226C25.8909 26.6238 25.5862 26.6232 25.2813 26.6226C25.0634 26.6231 24.8455 26.6237 24.6275 26.6244C24.0961 26.6258 23.5648 26.626 23.0334 26.6255C22.6015 26.6252 22.1697 26.6253 21.7379 26.6257C21.6765 26.6258 21.6151 26.6259 21.5518 26.6259C21.4271 26.6261 21.3023 26.6262 21.1776 26.6263C20.0072 26.6275 18.8368 26.6271 17.6665 26.6261C16.5952 26.6252 15.524 26.6263 14.4528 26.6284C13.3535 26.6305 12.2541 26.6314 11.1547 26.6308C10.5373 26.6305 9.91987 26.6307 9.30244 26.6322C8.72196 26.6336 8.14151 26.6332 7.56104 26.6316C7.34763 26.6313 7.13421 26.6315 6.92081 26.6324C6.63018 26.6336 6.33964 26.6326 6.04902 26.6311C5.96394 26.6319 5.87886 26.6327 5.7912 26.6336C5.22557 26.6274 5.22557 26.6274 4.93657 26.4297C4.81778 26.2381 4.81778 26.2381 4.82869 25.9216C4.93626 25.5067 5.03951 25.4306 5.4481 25.4302Z" fill="#FF7705"></path>
</svg>
