<?xml version="1.0" encoding="UTF-8"?>
<svg xmlns="http://www.w3.org/2000/svg" width="48" height="48" viewBox="0 0 48 48" fill="none">
  <path d="M6.6808 3.47499C6.75397 3.46875 6.82713 3.4625 6.90252 3.45607C7.15002 3.43532 7.39758 3.41549 7.64518 3.39593C7.77509 3.38563 5.27691 3.35429 7.90762 3.37511C10.5383 3.39593 12.7365 3.46343 15.1555 3.3862C15.323 3.38069 15.323 3.38069 15.4938 3.37507C20.1032 3.22757 24.4115 3.37505 24.4115 3.37505C24.4115 3.37505 25.4062 3.56256 26.3002 4.38111C27.0242 4.92194 27.6562 5.62506 28.4853 6.42194C29.086 6.99446 29.943 7.82482 30.5156 8.41244C31.0883 9.00006 32.9368 10.8355 33.6856 11.6287C34.4343 12.4219 34.1719 12.2344 34.4343 12.498C34.6968 12.7616 34.8196 12.873 34.8196 12.873C34.8196 12.873 35.084 13.2012 35.1477 13.2012C35.375 13.5512 35.3605 13.8959 35.3565 14.2986C35.3565 14.3709 35.3566 14.4432 35.3566 14.5177C35.3565 14.7561 35.355 14.9945 35.3535 15.2329C35.3532 15.3984 35.3529 15.564 35.3527 15.7295C35.352 16.1647 35.3502 16.5999 35.3481 17.0352C35.3462 17.4795 35.3453 17.9238 35.3444 18.3681C35.3424 19.2395 35.3392 20.111 35.3352 20.9824C35.5101 20.9807 35.5101 20.9807 35.6884 20.979C37.5615 20.9605 39.3945 22.1308 40.6907 23.3848C42.07 24.7767 42.91 26.7128 43.0227 28.6699C43.0301 28.7782 43.0301 28.7782 43.0377 28.8886C43.0872 30.288 42.7743 31.6306 42.179 32.8887C42.1376 32.9788 42.0963 33.069 42.0537 33.1619C41.7571 33.7569 41.3712 34.2385 40.9233 34.7249C40.6209 35.0596 40.6209 35.0596 40.5852 35.5137C40.7065 35.6728 40.8313 35.8294 40.9602 35.9824C40.9602 36.0443 40.9602 36.1062 40.9602 36.1699C41.0113 36.1361 41.0625 36.1023 41.1151 36.0674C41.5636 35.7914 41.91 35.6491 42.4379 35.6481C43.0071 35.7921 43.3495 36.2096 43.6848 36.6621C43.7745 36.7798 43.8644 36.8973 43.9544 37.0148C44.001 37.076 44.0476 37.1372 44.0957 37.2002C44.3431 37.5201 44.6003 37.8319 44.8567 38.1445C45.3146 38.7054 45.7647 39.2709 46.2007 39.8489C46.3165 40.0008 46.435 40.1508 46.5596 40.2957C46.8766 40.6764 46.9188 40.9872 46.9196 41.4642C46.7833 42.0723 46.3378 42.4235 45.8645 42.7793C45.8062 42.8238 45.7479 42.8682 45.6878 42.914C45.5717 43.0019 45.4552 43.0893 45.3384 43.1761C45.2017 43.278 45.0666 43.382 44.9318 43.4865C44.6087 43.7238 44.3489 43.8908 43.9426 43.916C43.2038 43.7949 42.8344 43.2966 42.3899 42.7383C42.3323 42.6672 42.2747 42.5961 42.2154 42.5228C41.8067 42.0159 41.4085 41.5015 41.0151 40.9827C40.8329 40.7447 40.6448 40.5123 40.4541 40.281C40.3716 40.1809 40.3716 40.1809 40.2875 40.0787C40.1802 39.949 40.0725 39.8196 39.9643 39.6907C39.5433 39.1813 39.2129 38.7235 39.239 38.0413C39.2956 37.7326 39.4502 37.5319 39.6477 37.2949C39.7405 37.2331 39.8333 37.1712 39.929 37.1074C39.8952 36.8149 39.7828 36.6547 39.5961 36.4373C39.5203 36.349 39.4445 36.2608 39.3665 36.1699C39.2834 36.2186 39.2004 36.2673 39.1149 36.3175C37.9259 36.9947 36.7135 37.431 35.3352 37.4824C35.3377 37.5368 35.3401 37.5911 35.3427 37.6471C35.3524 37.8949 35.3585 38.1427 35.3645 38.3906C35.3684 38.4761 35.3724 38.5616 35.3764 38.6497C35.3779 38.7328 35.3794 38.8159 35.381 38.9015C35.3834 38.9776 35.3859 39.0537 35.3884 39.1321C35.3055 39.4834 35.1545 39.6138 34.8665 39.8262C34.5898 39.8878 34.3237 39.881 34.0414 39.872C33.963 39.8713 33.8846 39.8706 33.8038 39.8699C33.5544 39.8673 33.3052 39.8615 33.0559 39.8555C32.8864 39.8531 32.7169 39.851 32.5474 39.8491C32.1329 39.8439 31.7184 39.8358 31.304 39.8262C31.3049 39.9321 31.3059 40.0381 31.3069 40.1473C31.3103 40.5407 31.3125 40.9342 31.3143 41.3276C31.3152 41.4979 31.3165 41.6681 31.3181 41.8383C31.3204 42.0831 31.3214 42.3279 31.3223 42.5728C31.3232 42.6488 31.3242 42.7247 31.3252 42.803C31.3253 43.4786 31.3253 43.4786 31.1165 43.7637C30.8802 43.8818 30.7188 43.8694 30.4543 43.8698C30.3532 43.8701 30.252 43.8705 30.1479 43.8708C29.9799 43.8707 29.9799 43.8707 29.8085 43.8706C29.6903 43.8709 29.572 43.8712 29.4502 43.8714C29.1209 43.8722 28.7915 43.8724 28.4622 43.8724C28.1075 43.8726 27.7527 43.8733 27.398 43.874C26.6218 43.8752 25.8457 43.8758 25.0696 43.8762C24.5853 43.8765 24.101 43.8769 23.6167 43.8773C22.2768 43.8784 20.9369 43.8794 19.597 43.8797C19.4683 43.8797 19.4683 43.8797 19.337 43.8798C19.251 43.8798 19.165 43.8798 19.0764 43.8798C18.9021 43.8799 18.7278 43.8799 18.5535 43.88C18.467 43.88 18.3806 43.88 18.2915 43.88C16.8898 43.8804 15.4881 43.882 14.0863 43.8842C12.6484 43.8864 11.2105 43.8876 9.7726 43.8877C8.96477 43.8878 8.15694 43.8883 7.34911 43.89C6.6614 43.8915 5.9737 43.892 5.28599 43.8912C4.93489 43.8908 4.58379 43.8909 4.23268 43.8922C3.85262 43.8936 3.4726 43.8929 3.09254 43.8919C2.92488 43.893 2.92488 43.893 2.75384 43.8942C2.65249 43.8936 2.55114 43.8929 2.44671 43.8923C2.31502 43.8924 2.31502 43.8924 2.18068 43.8925C1.96021 43.8574 1.96021 43.8574 1.79139 43.753C1.62344 43.4889 1.6437 43.2737 1.64357 42.9623C1.64316 42.8994 1.64275 42.8364 1.64233 42.7715C1.6413 42.5591 1.64228 42.3467 1.64325 42.1342C1.64292 41.981 1.64248 41.8277 1.64192 41.6745C1.64074 41.2522 1.64133 40.8299 1.6422 40.4076C1.64283 39.9527 1.64185 39.4977 1.64108 39.0428C1.63982 38.1511 1.6401 37.2594 1.64091 36.3677C1.64154 35.6433 1.64163 34.9189 1.64133 34.1945C1.64128 34.0916 1.64124 33.9887 1.6412 33.8826C1.64111 33.6735 1.64101 33.4644 1.64092 33.2553C1.64012 31.2928 1.64104 29.3304 1.64255 27.3679C1.64381 25.6824 1.64359 23.9969 1.64229 22.3114C1.64079 20.356 1.6402 18.4006 1.64106 16.4452C1.64115 16.2369 1.64124 16.0286 1.64133 15.8203C1.64137 15.7178 1.64141 15.6153 1.64146 15.5096C1.6417 14.7857 1.64129 14.0618 1.64063 13.3378C1.63984 12.4562 1.64005 11.5746 1.64155 10.6929C1.64229 10.2427 1.64258 9.79252 1.64165 9.34231C1.64082 8.93076 1.64127 8.51923 1.64277 8.10768C1.64308 7.95823 1.64292 7.80877 1.64224 7.65932C1.64139 7.45728 1.64225 7.25531 1.64357 7.05326C1.64361 6.94071 1.64366 6.82816 1.64371 6.71219C1.65534 6.62606 1.66698 6.53993 1.67896 6.45118C2.04768 6.20537 2.36017 6.24011 2.78748 6.24537C2.86824 6.24564 2.94899 6.2459 3.0322 6.24618C3.29012 6.24723 3.54801 6.24958 3.80591 6.25196C3.98078 6.2529 4.15565 6.25376 4.33051 6.25453C4.75917 6.25659 5.18781 6.25983 5.61646 6.26368C5.61499 6.20082 5.61352 6.13795 5.612 6.07318C5.60614 5.78708 5.60249 5.50099 5.59888 5.21486C5.59653 5.11594 5.59417 5.01702 5.59174 4.91511C5.59084 4.81934 5.58993 4.72357 5.589 4.62489C5.58752 4.53701 5.58605 4.44913 5.58453 4.35859C5.67788 3.62429 6.03649 3.52777 6.6808 3.47499ZM6.83521 4.76368C6.83521 15.9321 6.83521 27.1006 6.83521 38.6074C15.838 38.6074 24.8408 38.6074 34.1165 38.6074C34.1165 38.2362 34.1165 37.8649 34.1165 37.4824C33.9974 37.4619 33.8784 37.4413 33.7557 37.4202C32.2948 37.156 31.0237 36.773 29.804 35.8887C29.6754 35.7964 29.6754 35.7964 29.5443 35.7023C29.1037 35.3652 28.7634 35.05 28.4648 34.5786C28.2031 34.1796 27.9867 33.8815 27.5296 33.7146C27.1693 33.6742 26.8194 33.671 26.4581 33.6822C26.3215 33.6819 26.185 33.6811 26.0485 33.6798C25.6803 33.6778 25.3126 33.6831 24.9446 33.6899C24.5588 33.6956 24.173 33.6942 23.7872 33.6935C23.0576 33.6933 22.3282 33.6991 21.5986 33.7073C20.5261 33.7189 19.4535 33.7213 18.3808 33.7239C18.2227 33.7243 18.0646 33.7247 17.9064 33.7252C17.7907 33.7254 17.7907 33.7254 17.6726 33.7257C17.2133 33.7271 16.7541 33.7301 16.2949 33.7346C16.0101 33.7373 15.7254 33.7394 15.4406 33.7413C15.3082 33.7424 15.1759 33.7439 15.0435 33.7456C14.8634 33.748 14.6833 33.7492 14.5032 33.7503C14.4023 33.7514 14.3013 33.7525 14.1974 33.7536C13.9602 33.7324 13.9602 33.7324 13.7727 33.5449C13.7415 33.0449 13.7415 33.0449 13.8665 32.7949C14.1593 32.6973 14.3654 32.6883 14.6727 32.6864C14.8366 32.685 14.8366 32.685 15.0037 32.6836C15.1237 32.683 15.2437 32.6825 15.3673 32.6819C15.4948 32.681 15.6223 32.6801 15.7498 32.6791C16.0961 32.6766 16.4424 32.6746 16.7887 32.6727C17.1505 32.6707 17.5124 32.6681 17.8742 32.6656C18.5595 32.6609 19.2448 32.6567 19.9301 32.6527C20.7103 32.6481 21.4904 32.6429 22.2705 32.6377C23.8754 32.627 25.4803 32.617 27.0852 32.6074C27.0659 32.5436 27.0466 32.4799 27.0267 32.4141C27.0014 32.3301 26.976 32.2462 26.9499 32.1596C26.9248 32.0765 26.8997 31.9934 26.8739 31.9077C26.7897 31.6215 26.718 31.3338 26.6516 31.043C26.6291 30.9459 26.6067 30.8489 26.5835 30.7489C26.5188 30.4321 26.4735 30.1151 26.429 29.7949C26.3654 29.7946 26.3019 29.7943 26.2365 29.794C24.692 29.7864 23.1475 29.7778 21.603 29.768C20.8561 29.7633 20.1092 29.7589 19.3623 29.7554C18.7115 29.7523 18.0606 29.7486 17.4097 29.744C17.065 29.7417 16.7202 29.7396 16.3755 29.7384C15.9909 29.7369 15.6064 29.7341 15.2219 29.7311C15.0498 29.7308 15.0498 29.7308 14.8743 29.7305C14.7698 29.7294 14.6653 29.7284 14.5576 29.7273C14.4666 29.7268 14.3756 29.7263 14.2818 29.7257C14.054 29.7012 14.054 29.7012 13.7727 29.5137C13.7434 29.1856 13.7434 29.1856 13.7727 28.8574C14.0164 28.6138 14.1167 28.6457 14.4561 28.6438C14.6139 28.6423 14.6139 28.6423 14.7748 28.6407C14.9487 28.6404 14.9487 28.6404 15.1261 28.64C15.3086 28.6386 15.3086 28.6386 15.4947 28.6372C15.8288 28.6346 16.1629 28.6332 16.497 28.632C16.846 28.6305 17.195 28.628 17.5439 28.6256C18.205 28.6212 18.866 28.6178 19.5271 28.6147C20.2796 28.6111 21.032 28.6065 21.7845 28.6017C23.3327 28.592 24.8808 28.5837 26.429 28.5762C26.4431 28.4991 26.4431 28.4991 26.4574 28.4204C26.5017 28.1812 26.5474 27.9422 26.593 27.7031C26.6078 27.6224 26.6225 27.5416 26.6377 27.4583C26.7615 26.8179 26.9499 26.2999 27.179 25.6699C20.5429 25.6235 20.5429 25.6235 13.7727 25.5762C13.7727 24.8262 13.7727 24.8262 13.8665 24.6387C14.1747 24.5257 14.4764 24.5342 14.8018 24.5358C14.9739 24.5362 14.9739 24.5362 15.1495 24.5367C15.2763 24.5375 15.4032 24.5383 15.5301 24.5391C15.6639 24.5396 15.7978 24.54 15.9316 24.5404C16.2197 24.5412 16.5078 24.5423 16.7959 24.5434C17.2518 24.5451 17.7076 24.5453 18.1635 24.5451C18.2404 24.5451 18.3174 24.545 18.3967 24.545C18.6338 24.5449 18.8708 24.5447 19.1079 24.5446C20.0893 24.5439 21.0707 24.5444 22.0521 24.5497C22.7681 24.5536 23.4841 24.5545 24.2001 24.552C24.5788 24.5507 24.9574 24.551 25.3362 24.5549C25.6926 24.5585 26.0488 24.5582 26.4052 24.5549C26.5357 24.5544 26.6662 24.5553 26.7967 24.5578C27.5223 24.5846 27.5223 24.5846 28.1448 24.2694C28.3114 24.0562 28.4471 23.8397 28.5852 23.6074C29.9331 22.0063 31.9901 21.2125 34.0227 20.9824C34.1462 20.88 34.1462 20.88 34.1277 20.6283C34.1275 20.5119 34.1273 20.3955 34.1271 20.2756C34.1271 20.1796 34.1271 20.1796 34.1271 20.0816C34.1271 19.8691 34.1264 19.6565 34.1256 19.444C34.1254 19.297 34.1253 19.15 34.1252 19.003C34.1249 18.6154 34.1239 18.2277 34.1229 17.8401C34.1219 17.4449 34.1215 17.0496 34.121 16.6544C34.12 15.8783 34.1184 15.1022 34.1165 14.3262C33.9427 14.325 33.9427 14.325 33.7654 14.3239C32.6755 14.3166 31.5857 14.3084 30.4958 14.2992C29.9354 14.2945 29.3751 14.2902 28.8147 14.2866C28.2743 14.2832 27.734 14.2788 27.1936 14.2739C26.987 14.2721 26.7804 14.2707 26.5739 14.2696C26.2854 14.268 25.997 14.2653 25.7085 14.2623C25.6224 14.2621 25.5363 14.2619 25.4475 14.2617C25.3692 14.2607 25.2908 14.2596 25.2101 14.2585C25.1418 14.258 25.0736 14.2575 25.0032 14.257C24.8352 14.2324 24.8352 14.2324 24.6477 14.0449C24.6232 13.8769 24.6232 13.8769 24.6216 13.67C24.62 13.5528 24.62 13.5528 24.6184 13.4331C24.6181 13.3037 24.6181 13.3037 24.6178 13.1717C24.6169 13.0796 24.6159 12.9876 24.6149 12.8928C24.6121 12.594 24.6105 12.2952 24.6089 11.9963C24.6073 11.8122 24.6056 11.6281 24.6039 11.444C24.5979 10.7602 24.5936 10.0764 24.5891 9.39259C24.5775 7.86505 24.5659 6.33751 24.554 4.76368C18.7068 4.76368 12.8596 4.76368 6.83521 4.76368ZM25.7727 5.70118C25.7727 8.14525 25.7727 10.5893 25.7727 13.1074C28.2168 13.1074 30.6608 13.1074 33.179 13.1074C32.747 12.5982 32.747 12.5982 32.2932 12.116C32.2358 12.0583 32.1783 12.0006 32.1192 11.9412C32.0582 11.8804 31.9973 11.8197 31.9345 11.7571C31.8687 11.6911 31.8029 11.6252 31.7352 11.5573C31.5198 11.3414 31.304 11.126 31.0883 10.9105C30.9379 10.7601 30.7876 10.6098 30.6373 10.4593C30.3235 10.1453 30.0094 9.83149 29.6953 9.51777C29.2916 9.11465 28.8884 8.71111 28.4853 8.30745C28.1756 7.99742 27.8657 7.6876 27.5557 7.37786C27.4068 7.22904 27.258 7.08015 27.1093 6.9312C26.9023 6.72404 26.6951 6.51718 26.4878 6.3104C26.4259 6.24831 26.364 6.18622 26.3002 6.12226C26.0719 5.83759 26.0719 5.83759 25.7727 5.70118ZM2.80396 7.48243C2.80396 19.084 2.80396 30.6856 2.80396 42.6387C11.8068 42.6387 20.8096 42.6387 30.0852 42.6387C30.0852 41.7106 30.0852 40.7824 30.0852 39.8262C29.7852 39.8254 29.4851 39.8247 29.176 39.8239C26.4264 39.8169 23.6768 39.8089 20.9272 39.7999C20.5671 39.7988 20.2069 39.7976 19.8468 39.7964C19.7392 39.7961 19.7392 39.7961 19.6295 39.7957C18.4675 39.792 17.3055 39.7889 16.1436 39.7861C14.9519 39.7832 13.7602 39.7796 12.5685 39.7753C11.8327 39.7727 11.097 39.7706 10.3613 39.7693C9.79773 39.7682 9.2342 39.7661 8.67066 39.7636C8.43902 39.7628 8.20739 39.7622 7.97575 39.762C7.66054 39.7617 7.34537 39.7603 7.03017 39.7585C6.9376 39.7587 6.84504 39.7589 6.74967 39.7591C6.62343 39.758 6.62343 39.758 6.49464 39.757C6.42184 39.7568 6.34904 39.7565 6.27403 39.7563C6.08521 39.7324 6.08521 39.7324 5.80396 39.5449C5.70558 39.2498 5.69801 39.0426 5.69721 38.7327C5.6967 38.6215 5.69619 38.5102 5.69566 38.3956C5.69557 38.2727 5.69547 38.1499 5.69538 38.0233C5.69495 37.892 5.69448 37.7607 5.69398 37.6293C5.6927 37.2676 5.69201 36.9059 5.6914 36.5442C5.69066 36.1544 5.68937 35.7646 5.68815 35.3749C5.68611 34.6993 5.68441 34.0238 5.68294 33.3482C5.68081 32.3714 5.67817 31.3947 5.67541 30.4179C5.67094 28.8333 5.66688 27.2487 5.66308 25.6641C5.6594 24.1245 5.65551 22.585 5.65137 21.0454C5.65111 20.9505 5.65086 20.8557 5.65059 20.758C5.64931 20.2821 5.64802 19.8062 5.64674 19.3304C5.63605 15.3811 5.62606 11.4318 5.61646 7.48243C4.68834 7.48243 3.76021 7.48243 2.80396 7.48243ZM29.3744 24.4677C27.8846 26.2077 27.5329 28.123 27.6477 30.3574C27.8253 32.0087 28.9529 33.67 30.1753 34.7307C31.8447 36.0225 33.8317 36.4891 35.9197 36.2386C37.2604 36.0053 38.5566 35.2986 39.554 34.3887C39.611 34.3402 39.668 34.2918 39.7268 34.2418C41.0764 33.018 41.6409 31.2111 41.8307 29.4536C41.9076 27.4881 41.0517 25.5966 39.7415 24.1699C38.2985 22.7757 36.4357 22.0604 34.4343 22.088C32.4428 22.2096 30.7596 23.0296 29.3744 24.4677ZM41.5403 37.4121C41.4813 37.4582 41.4222 37.5042 41.3614 37.5516C41.0527 37.7946 40.762 38.04 40.4915 38.3262C40.5258 38.3676 40.5602 38.409 40.5956 38.4517C41.3109 39.3146 42.0178 40.1827 42.7063 41.0671C42.9417 41.369 43.1786 41.6698 43.4153 41.9707C43.5026 42.0818 43.5899 42.1929 43.6771 42.304C43.7396 42.3835 43.8021 42.463 43.8665 42.5449C44.1694 42.4885 44.3483 42.3904 44.5857 42.1959C44.6479 42.1455 44.7102 42.095 44.7743 42.043C44.8382 41.9902 44.9022 41.9373 44.968 41.8828C45.0334 41.8296 45.0988 41.7764 45.1661 41.7215C45.3271 41.5903 45.4876 41.4585 45.6477 41.3262C45.5261 41.0651 45.3921 40.8506 45.2083 40.6293C45.1587 40.5691 45.1091 40.5089 45.0581 40.4469C45.0051 40.3832 44.9522 40.3195 44.8977 40.2539C44.3942 39.6414 43.9061 39.0201 43.4248 38.39C43.1965 38.0922 42.9664 37.7959 42.7356 37.5C42.6908 37.4421 42.646 37.3842 42.5999 37.3246C42.493 37.1879 42.3832 37.0537 42.2727 36.9199C42.0322 36.9199 41.7326 37.2602 41.5403 37.4121Z" fill="#FF7705"></path>
  <path d="M37.7523 24.9203C38.9245 25.8062 39.6999 27.0181 39.9869 28.4619C40.1926 29.9444 39.9617 31.4728 39.0938 32.7188C38.224 33.8315 36.9806 34.8742 35.5312 35.0625C33.8169 35.2528 32.2851 35.0325 30.8837 33.9394C30.7711 33.8456 30.7711 33.8456 30.6562 33.75C30.5654 33.6752 30.5654 33.6752 30.4728 33.5988C29.4138 32.6354 28.8468 31.2018 28.7699 29.792C28.7297 28.2986 29.1836 27.0499 30.0937 25.875C30.1817 25.7574 30.1817 25.7574 30.2714 25.6374C32.1301 23.4614 35.5002 23.4004 37.7523 24.9203ZM31.6875 26.0625C31.5889 26.1341 31.4903 26.2056 31.3887 26.2793C30.6287 27.0055 30.0609 28.0999 30 29.1563C29.9923 29.2684 29.9845 29.3806 29.9766 29.4961C29.9988 30.7707 30.5032 31.7725 31.3572 32.6847C32.3445 33.6094 33.4444 33.9592 34.7812 33.9375C35.9725 33.7967 36.9303 33.2971 37.7534 32.4295C38.5556 31.4117 38.9119 30.258 38.8125 28.9688C38.6537 27.854 38.1242 26.7592 37.2188 26.0625C35.4731 24.8629 33.411 24.7244 31.6875 26.0625Z" fill="#FF7705"></path>
  <path d="M14.4645 20.6824C14.5334 20.6819 14.6024 20.6814 14.6735 20.6809C14.9046 20.6796 15.1358 20.6802 15.3669 20.6809C15.5326 20.6804 15.6983 20.6797 15.864 20.6789C16.3142 20.6773 16.7643 20.6774 17.2145 20.6779C17.5901 20.6782 17.9656 20.6776 18.3412 20.6771C19.2271 20.6757 20.1129 20.6759 20.9987 20.677C21.9132 20.678 22.8277 20.6767 23.7421 20.6742C24.5268 20.6721 25.3116 20.6715 26.0963 20.672C26.5652 20.6724 27.034 20.6721 27.5029 20.6705C27.9437 20.6691 28.3844 20.6694 28.8252 20.6712C28.9871 20.6716 29.149 20.6713 29.3109 20.6703C29.5316 20.6691 29.7523 20.6701 29.973 20.6718C30.0966 20.6718 30.2203 20.6718 30.3476 20.6718C30.6562 20.7188 30.6562 20.7188 30.8868 20.888C31.0312 21.0938 31.0312 21.0938 31.0254 21.4336C30.9375 21.75 30.9375 21.75 30.6562 21.9375C30.4273 21.9558 30.2091 21.9632 29.9801 21.962C29.9108 21.9623 29.8415 21.9627 29.77 21.963C29.537 21.964 29.3041 21.9636 29.0711 21.9633C28.9043 21.9637 28.7376 21.9642 28.5708 21.9647C28.1174 21.966 27.6639 21.966 27.2105 21.9658C26.8324 21.9657 26.4542 21.9662 26.0761 21.9666C25.1843 21.9676 24.2925 21.9677 23.4007 21.9671C22.4796 21.9665 21.5586 21.9677 20.6376 21.9697C19.8476 21.9713 19.0577 21.9719 18.2677 21.9716C17.7955 21.9714 17.3234 21.9717 16.8512 21.973C16.4073 21.9742 15.9635 21.974 15.5197 21.9728C15.3565 21.9725 15.1934 21.9728 15.0302 21.9736C14.808 21.9745 14.5858 21.9738 14.3636 21.9726C14.2661 21.9736 14.2661 21.9736 14.1666 21.9747C13.9044 21.9717 13.7274 21.9646 13.5072 21.8152C13.3339 21.5423 13.3673 21.3119 13.4063 21C13.7184 20.6635 14.023 20.6832 14.4645 20.6824Z" fill="#FF7705"></path>
  <path d="M14.3672 16.6512C14.4369 16.6507 14.5066 16.6502 14.5785 16.6496C14.8127 16.6483 15.047 16.649 15.2812 16.6496C15.4489 16.6491 15.6166 16.6485 15.7843 16.6477C16.2403 16.646 16.6962 16.6461 17.1522 16.6467C17.5324 16.6469 17.9127 16.6464 18.2929 16.6458C19.1897 16.6445 20.0864 16.6446 20.9832 16.6457C21.9093 16.6468 22.8354 16.6455 23.7615 16.6429C24.5559 16.6409 25.3502 16.6402 26.1446 16.6408C26.6194 16.6411 27.0942 16.6409 27.569 16.6393C28.0153 16.6378 28.4615 16.6382 28.9079 16.64C29.0719 16.6403 29.236 16.64 29.4 16.639C29.6235 16.6378 29.8468 16.6389 30.0703 16.6405C30.1684 16.6392 30.1684 16.6392 30.2684 16.6378C30.5665 16.6424 30.7126 16.6513 30.9309 16.8629C31.0552 17.1102 31.0733 17.258 31.0312 17.5313C30.8551 17.7661 30.7537 17.8113 30.4688 17.9063C30.2485 17.9153 30.0279 17.9185 29.8075 17.9188C29.7398 17.919 29.672 17.9192 29.6022 17.9195C29.3747 17.92 29.1471 17.92 28.9195 17.9199C28.7566 17.9202 28.5937 17.9205 28.4308 17.9208C27.9878 17.9217 27.5448 17.9219 27.1018 17.922C26.7323 17.922 26.3628 17.9224 25.9933 17.9227C25.1217 17.9235 24.2501 17.9237 23.3785 17.9236C22.4787 17.9236 21.5789 17.9246 20.679 17.9261C19.9071 17.9273 19.1351 17.9278 18.3631 17.9277C17.9018 17.9277 17.4405 17.928 16.9791 17.929C16.5454 17.9299 16.1116 17.9299 15.6779 17.9292C15.5185 17.9291 15.3592 17.9293 15.1999 17.9299C14.9826 17.9306 14.7654 17.9302 14.5482 17.9295C14.4265 17.9295 14.3049 17.9296 14.1795 17.9296C13.8936 17.9077 13.734 17.8797 13.5 17.7188C13.3688 17.4564 13.3826 17.2589 13.4062 16.9688C13.6384 16.6045 13.976 16.6478 14.3672 16.6512Z" fill="#FF7705"></path>
  <path d="M10.7578 9.32851C10.9055 9.32831 10.9055 9.32831 11.0562 9.3281C11.2642 9.32826 11.4723 9.32934 11.6803 9.33128C11.9988 9.334 12.3172 9.33322 12.6357 9.33199C12.8379 9.33258 13.04 9.33336 13.2422 9.33437C13.3375 9.3341 13.4328 9.33382 13.531 9.33354C13.6199 9.33473 13.7087 9.33592 13.8003 9.33714C13.8783 9.33765 13.9562 9.33816 14.0366 9.33868C14.3073 9.38478 14.4337 9.45958 14.625 9.65627C14.672 9.86616 14.672 9.86616 14.672 10.114C14.6729 10.207 14.6738 10.2999 14.6747 10.3956C14.6736 10.4958 14.6726 10.596 14.6715 10.6992C14.6716 10.8022 14.6718 10.9052 14.6719 11.0113C14.6718 11.2291 14.6707 11.4469 14.6687 11.6648C14.666 11.9987 14.6668 12.3326 14.668 12.6665C14.6674 12.878 14.6667 13.0894 14.6656 13.3008C14.6659 13.401 14.6662 13.5012 14.6665 13.6044C14.6647 13.7438 14.6647 13.7438 14.6629 13.886C14.6624 13.9678 14.6619 14.0496 14.6613 14.1339C14.625 14.3438 14.625 14.3438 14.51 14.5106C14.2936 14.6595 14.1578 14.6612 13.8961 14.6629C13.8053 14.6641 13.7146 14.6653 13.6211 14.6665C13.5233 14.6662 13.4254 14.666 13.3246 14.6657C13.1736 14.6664 13.1736 14.6664 13.0195 14.6672C12.8065 14.6678 12.5935 14.6676 12.3805 14.6668C12.0543 14.666 11.7283 14.6687 11.4022 14.6717C11.1953 14.6719 10.9885 14.6718 10.7816 14.6715C10.684 14.6726 10.5863 14.6736 10.4857 14.6747C10.1143 14.6711 9.83437 14.6682 9.50114 14.4976C9.29483 14.0927 9.32163 13.6901 9.32519 13.2422C9.32484 13.1437 9.32448 13.0453 9.32411 12.9438C9.32385 12.7358 9.32454 12.5278 9.32611 12.3197C9.32812 12.0012 9.32613 11.6828 9.32373 11.3643C9.32398 11.1621 9.32446 10.96 9.32519 10.7578C9.32444 10.6625 9.32368 10.5672 9.32289 10.469C9.32776 10.103 9.33359 9.83036 9.50262 9.50244C9.90721 9.29405 10.3096 9.32356 10.7578 9.32851ZM10.5937 10.5938C10.5937 11.5219 10.5937 12.45 10.5937 13.4063C11.5219 13.4063 12.45 13.4063 13.4062 13.4063C13.4062 12.4781 13.4062 11.55 13.4062 10.5938C12.4781 10.5938 11.55 10.5938 10.5937 10.5938Z" fill="#FF7705"></path>
  <path d="M36.7676 26.9238C37.3408 27.4971 37.7417 28.2209 37.8105 29.0332C37.7812 29.3438 37.7812 29.3438 37.6816 29.5254C37.3917 29.6844 37.1667 29.6654 36.8438 29.625C36.5858 29.4131 36.5285 29.149 36.4336 28.8399C36.2555 28.2836 35.9749 27.9131 35.4609 27.627C34.9247 27.3841 34.3886 27.3676 33.8086 27.3867C33.4688 27.375 33.4688 27.375 33.2813 27.2754C33.131 26.9842 33.1474 26.7582 33.1875 26.4375C34.1017 25.4217 35.8968 26.3263 36.7676 26.9238Z" fill="#FF7705"></path>
  <path d="M10.7285 20.6836C10.818 20.6813 10.9075 20.679 10.9997 20.6767C11.6523 20.6739 11.6522 20.6739 11.9685 20.8872C12.0938 21.0938 12.0938 21.0938 12.0879 21.4336C12 21.75 12 21.75 11.7188 21.9375C11.394 21.9803 11.0675 21.9722 10.7402 21.9727C10.606 21.9761 10.606 21.9761 10.4691 21.9796C9.8165 21.9824 9.8165 21.9824 9.50024 21.7691C9.375 21.5625 9.375 21.5625 9.38086 21.2227C9.56704 20.5524 10.1489 20.6844 10.7285 20.6836Z" fill="#FF7705"></path>
  <path d="M10.7285 28.8399C10.818 28.8376 10.9075 28.8353 10.9997 28.8329C11.6556 28.8302 11.6556 28.8302 11.9652 29.0501C12.1277 29.3028 12.1527 29.4239 12.0938 29.7188C11.9648 29.918 11.9648 29.918 11.7188 30.0938C11.39 30.1504 11.0672 30.1461 10.7344 30.1406C10.6453 30.1421 10.5562 30.1435 10.4645 30.145C9.82023 30.1414 9.82023 30.1414 9.50061 29.9246C9.375 29.7188 9.375 29.7188 9.38086 29.3789C9.56703 28.7087 10.1489 28.8406 10.7285 28.8399Z" fill="#FF7705"></path>
  <path d="M10.7285 32.8594C10.8079 32.8567 10.8872 32.8541 10.9689 32.8513C11.3885 32.85 11.571 32.8656 11.9158 33.1249C12.0938 33.375 12.0938 33.375 12.0879 33.6739C12 33.9375 12 33.9375 11.8125 34.125C11.457 34.1701 11.0983 34.1597 10.7402 34.1602C10.6406 34.1625 10.541 34.1648 10.4383 34.1671C10.3428 34.1675 10.2472 34.1679 10.1488 34.1682C10.0611 34.169 9.97347 34.1698 9.88314 34.1706C9.65625 34.125 9.65625 34.125 9.48447 33.9528C9.375 33.75 9.375 33.75 9.38086 33.4629C9.59189 32.8017 10.13 32.8576 10.7285 32.8594Z" fill="#FF7705"></path>
  <path d="M10.7344 24.7149C10.8043 24.7138 10.8743 24.7127 10.9464 24.7116C11.371 24.7138 11.6587 24.7523 12 25.0313C12.0938 25.3067 12.0938 25.3067 12.0938 25.5938C11.9837 25.7961 11.9837 25.7961 11.8125 25.9688C11.5871 26.0173 11.5871 26.0173 11.3232 26.0186C11.2281 26.0191 11.133 26.0195 11.035 26.02C10.9358 26.0186 10.8366 26.0171 10.7344 26.0156C10.5855 26.0178 10.5855 26.0178 10.4337 26.02C10.2911 26.0193 10.2911 26.0193 10.1455 26.0186C10.0584 26.0182 9.97136 26.0177 9.88165 26.0173C9.65625 25.9688 9.65625 25.9688 9.48505 25.7961C9.375 25.5938 9.375 25.5938 9.375 25.3067C9.46875 25.0313 9.46875 25.0313 9.65918 24.8756C10.0277 24.7093 10.335 24.7087 10.7344 24.7149Z" fill="#FF7705"></path>
  <path d="M10.1455 16.6377C10.2406 16.6372 10.3357 16.6368 10.4337 16.6363C10.5329 16.6377 10.6322 16.6392 10.7344 16.6406C10.8832 16.6385 10.8832 16.6385 11.035 16.6363C11.1777 16.637 11.1777 16.637 11.3232 16.6377C11.4103 16.6381 11.4974 16.6386 11.5871 16.639C11.8125 16.6875 11.8125 16.6875 11.9837 16.8602C12.0938 17.0625 12.0938 17.0625 12.0938 17.3496C12 17.625 12 17.625 11.8096 17.7807C11.4411 17.947 11.1337 17.9476 10.7344 17.9414C10.6644 17.9425 10.5944 17.9436 10.5223 17.9447C10.0978 17.9425 9.81005 17.904 9.46875 17.625C9.375 17.3496 9.375 17.3496 9.375 17.0625C9.57723 16.6907 9.73106 16.6397 10.1455 16.6377Z" fill="#FF7705"></path>
</svg>
