<?xml version="1.0" encoding="UTF-8"?>
<svg xmlns="http://www.w3.org/2000/svg" width="48" height="48" viewBox="0 0 48 48" fill="none">
  <path d="M14.623 34.3061C14.7317 34.3054 14.7317 34.3054 14.8426 34.3047C14.9622 34.3049 14.9622 34.3049 15.0841 34.3052C15.1688 34.3048 15.2534 34.3045 15.3405 34.3041C15.6254 34.3032 15.9103 34.3031 16.1952 34.3031C16.3989 34.3026 16.6026 34.302 16.8063 34.3014C17.3606 34.3 17.9149 34.2994 18.4692 34.2991C18.8152 34.2989 19.1612 34.2984 19.5072 34.298C20.4648 34.2967 21.4224 34.2956 22.38 34.2954C22.4412 34.2954 22.5025 34.2954 22.5657 34.2954C22.6899 34.2954 22.8142 34.2953 22.9385 34.2953C23.031 34.2953 23.031 34.2953 23.1254 34.2953C23.1871 34.2953 23.2489 34.2953 23.3125 34.2952C24.3138 34.295 25.315 34.2932 26.3162 34.2908C27.3437 34.2883 28.3712 34.287 29.3987 34.287C29.9758 34.287 30.5529 34.2864 31.13 34.2845C31.6726 34.2828 32.2151 34.2827 32.7576 34.2837C32.9571 34.2838 33.1566 34.2834 33.356 34.2824C33.6277 34.281 33.8992 34.2817 34.1709 34.2829C34.2504 34.282 34.3299 34.2812 34.4119 34.2803C34.9434 34.2856 34.9434 34.2856 35.2063 34.4786C35.3145 34.6504 35.3145 34.6504 35.3095 34.8223C35.2283 34.9906 35.1658 35.0619 34.9945 35.1741C34.8322 35.1988 34.8322 35.1988 34.6422 35.199C34.5335 35.1999 34.5335 35.1999 34.4226 35.2007C34.3429 35.2003 34.2631 35.1999 34.181 35.1995C34.0964 35.1999 34.0118 35.2002 33.9246 35.2006C33.6397 35.2015 33.3548 35.201 33.0699 35.2006C32.8662 35.201 32.6626 35.2014 32.4589 35.2019C31.9622 35.203 31.4655 35.2031 30.9688 35.2028C30.5652 35.2025 30.1616 35.2026 29.758 35.203C29.7006 35.203 29.6432 35.2031 29.5841 35.2031C29.4675 35.2032 29.3509 35.2033 29.2343 35.2034C28.1404 35.2043 27.0465 35.204 25.9527 35.2032C24.9514 35.2025 23.9502 35.2034 22.949 35.205C21.9214 35.2066 20.8939 35.2072 19.8664 35.2068C19.2893 35.2065 18.7122 35.2067 18.1351 35.2078C17.5926 35.2089 17.0501 35.2086 16.5075 35.2073C16.3081 35.2071 16.1086 35.2073 15.9091 35.208C15.6375 35.2088 15.3659 35.2081 15.0943 35.2069C15.0148 35.2076 14.9352 35.2082 14.8533 35.2088C14.3245 35.2042 14.3245 35.2042 14.0589 35.056C13.9506 34.9123 13.9506 34.9123 13.9556 34.675C14.065 34.3527 14.2434 34.3069 14.623 34.3061Z" fill="#FF7705"></path>
  <path d="M14.7107 26.8774C14.7827 26.8769 14.8547 26.8765 14.9289 26.876C15.0471 26.8762 15.0471 26.8762 15.1677 26.8765C15.2516 26.8761 15.3356 26.8758 15.4221 26.8754C15.7043 26.8745 15.9865 26.8744 16.2687 26.8744C16.4706 26.8739 16.6726 26.8733 16.8746 26.8727C17.4238 26.8713 17.973 26.8707 18.5223 26.8704C18.8652 26.8702 19.2081 26.8697 19.551 26.8693C20.5003 26.868 21.4496 26.8669 22.3989 26.8667C22.49 26.8667 22.49 26.8667 22.583 26.8667C22.7061 26.8667 22.8293 26.8666 22.9524 26.8666C23.0135 26.8666 23.0747 26.8666 23.1376 26.8666C23.1988 26.8666 23.26 26.8665 23.3231 26.8665C24.3153 26.8663 25.3075 26.8645 26.2996 26.8621C27.3182 26.8596 28.3367 26.8583 29.3553 26.8583C29.9272 26.8583 30.4991 26.8577 31.0711 26.8558C31.6088 26.854 32.1465 26.854 32.6842 26.855C32.8818 26.8551 33.0794 26.8547 33.277 26.8536C33.5462 26.8523 33.8154 26.853 34.0847 26.8542C34.1633 26.8533 34.2419 26.8525 34.3229 26.8516C34.6921 26.8553 34.8589 26.8626 35.1628 27.0476C35.3112 27.2219 35.3112 27.2219 35.3112 27.4306C35.2312 27.6147 35.2312 27.6147 34.9912 27.7457C34.8283 27.7623 34.8283 27.7623 34.6375 27.7626C34.5283 27.7632 34.5283 27.7632 34.4169 27.7638C34.2968 27.7635 34.2968 27.7635 34.1743 27.7632C34.0893 27.7635 34.0043 27.7638 33.9168 27.7641C33.6306 27.765 33.3445 27.7648 33.0584 27.7647C32.8538 27.7651 32.6492 27.7656 32.4447 27.7661C31.9459 27.7671 31.4471 27.7675 30.9483 27.7676C30.543 27.7677 30.1377 27.7679 29.7324 27.7683C28.584 27.7695 27.4357 27.7701 26.2873 27.77C26.1944 27.77 26.1944 27.77 26.0996 27.77C26.0376 27.77 25.9756 27.77 25.9117 27.77C24.9062 27.7699 23.9007 27.7712 22.8953 27.773C21.8635 27.7749 20.8318 27.7758 19.8 27.7757C19.2205 27.7756 18.641 27.776 18.0615 27.7774C17.5167 27.7787 16.972 27.7787 16.4273 27.7777C16.2269 27.7776 16.0265 27.7779 15.8262 27.7787C15.5535 27.7797 15.2809 27.7791 15.0083 27.7781C14.9282 27.7788 14.8481 27.7794 14.7656 27.7801C14.6929 27.7795 14.6201 27.7789 14.5451 27.7783C14.4821 27.7783 14.4192 27.7784 14.3543 27.7784C14.1914 27.7457 14.1914 27.7457 14.049 27.6275C13.9003 27.4085 13.9515 27.2609 14.0314 27.0254C14.2575 26.901 14.442 26.878 14.7107 26.8774Z" fill="#FF7705"></path>
  <path d="M14.6269 38.0041C14.7207 38.0045 14.7207 38.0045 14.8163 38.0049C14.8826 38.0046 14.9488 38.0043 15.017 38.004C15.2402 38.0033 15.4634 38.0036 15.6866 38.0039C15.8461 38.0036 16.0055 38.0032 16.165 38.0028C16.5992 38.0018 17.0334 38.0018 17.4675 38.0019C17.8295 38.002 18.1914 38.0017 18.5533 38.0013C19.4069 38.0005 20.2605 38.0005 21.114 38.0009C21.9958 38.0014 22.8775 38.0005 23.7593 37.9989C24.5152 37.9977 25.2712 37.9973 26.0272 37.9975C26.4792 37.9976 26.9312 37.9974 27.3832 37.9964C27.8081 37.9955 28.233 37.9957 28.6579 37.9966C28.8142 37.9968 28.9704 37.9966 29.1267 37.996C29.3394 37.9952 29.5521 37.9958 29.7648 37.9967C29.8272 37.9962 29.8895 37.9957 29.9537 37.9951C30.3678 37.9989 30.3678 37.9989 30.5661 38.1196C30.694 38.3084 30.6769 38.4546 30.6471 38.6701C30.5661 38.7896 30.5661 38.7896 30.4084 38.8856C30.1882 38.9069 29.9857 38.915 29.7654 38.9134C29.6991 38.9138 29.6328 38.9142 29.5645 38.9146C29.3415 38.9156 29.1186 38.9151 28.8957 38.9146C28.7362 38.915 28.5767 38.9155 28.4172 38.9161C27.9833 38.9174 27.5495 38.9173 27.1157 38.9169C26.7539 38.9167 26.3922 38.9171 26.0305 38.9176C25.1774 38.9186 24.3243 38.9185 23.4712 38.9176C22.5901 38.9168 21.7089 38.9178 20.8278 38.9197C20.0721 38.9213 19.3165 38.9218 18.5608 38.9214C18.1091 38.9212 17.6574 38.9213 17.2057 38.9226C16.7811 38.9237 16.3565 38.9234 15.9319 38.922C15.7758 38.9218 15.6196 38.922 15.4635 38.9227C15.2509 38.9237 15.0385 38.9229 14.8259 38.9216C14.7325 38.9226 14.7325 38.9226 14.6372 38.9237C14.3721 38.9204 14.2227 38.9184 14.0224 38.7537C13.912 38.5342 13.9523 38.3955 14.0237 38.1673C14.2252 37.9853 14.3521 38.0061 14.6269 38.0041Z" fill="#FF7705"></path>
  <path d="M21.2659 30.5899C21.3246 30.5896 21.3833 30.5892 21.4437 30.5889C21.6414 30.5879 21.8389 30.5878 22.0366 30.5878C22.1778 30.5873 22.3191 30.5867 22.4604 30.5861C22.8448 30.5847 23.2293 30.5841 23.6138 30.5838C23.8537 30.5835 24.0937 30.5831 24.3337 30.5827C25.1703 30.5811 26.0069 30.5802 26.8435 30.58C27.6244 30.5797 28.4052 30.5778 29.1861 30.575C29.8557 30.5727 30.5253 30.5717 31.1949 30.5717C31.5952 30.5716 31.9954 30.5711 32.3957 30.5692C32.7721 30.5675 33.1484 30.5673 33.5247 30.5684C33.6631 30.5685 33.8014 30.5681 33.9398 30.567C34.1282 30.5657 34.3165 30.5664 34.505 30.5676C34.6106 30.5674 34.7162 30.5673 34.825 30.5672C35.0796 30.6079 35.0796 30.6079 35.2426 30.7615C35.3274 30.9361 35.3274 30.9361 35.2758 31.1454C35.1622 31.33 35.1622 31.33 34.9143 31.4613C34.6656 31.4782 34.6656 31.4782 34.354 31.4788C34.2681 31.4793 34.2681 31.4793 34.1804 31.4797C33.988 31.4806 33.7956 31.4804 33.6032 31.4803C33.4655 31.4807 33.3277 31.4812 33.1899 31.4817C32.8154 31.4828 32.4408 31.4831 32.0662 31.4832C31.7537 31.4834 31.4412 31.4838 31.1286 31.4843C30.3913 31.4854 29.654 31.4857 28.9167 31.4856C28.1558 31.4855 27.3949 31.4869 26.634 31.489C25.981 31.4907 25.3281 31.4914 24.6751 31.4913C24.285 31.4913 23.8949 31.4917 23.5047 31.493C23.1378 31.4943 22.7709 31.4943 22.404 31.4934C22.2693 31.4932 22.1346 31.4935 22 31.4943C21.8161 31.4953 21.6323 31.4947 21.4485 31.4937C21.3456 31.4938 21.2427 31.4939 21.1367 31.4939C20.8155 31.455 20.6749 31.3861 20.454 31.1987C20.4654 30.6741 20.6406 30.5917 21.2659 30.5899Z" fill="#FF7705"></path>
  <path d="M14.5845 30.5867C14.6673 30.5857 14.7502 30.5846 14.8355 30.5835C14.9253 30.5832 15.0152 30.5828 15.1077 30.5825C15.1996 30.5819 15.2915 30.5813 15.3862 30.5807C15.5809 30.5797 15.7756 30.5791 15.9703 30.5789C16.2689 30.5781 16.5674 30.5749 16.8659 30.5716C17.0548 30.571 17.2436 30.5705 17.4325 30.5702C17.5221 30.5689 17.6118 30.5676 17.7041 30.5663C17.7872 30.5667 17.8703 30.5671 17.9559 30.5675C18.0291 30.5672 18.1023 30.5668 18.1778 30.5665C18.3637 30.6068 18.3637 30.6068 18.5077 30.7626C18.6001 30.935 18.6001 30.935 18.5952 31.1073C18.5038 31.3001 18.4168 31.3525 18.2061 31.4601C18.0242 31.4855 18.0242 31.4855 17.8221 31.4866C17.7461 31.4874 17.67 31.4882 17.5917 31.4891C17.5101 31.4889 17.4285 31.4887 17.3444 31.4885C17.2601 31.4889 17.1758 31.4892 17.0889 31.4896C16.9106 31.49 16.7324 31.4899 16.5541 31.4893C16.2815 31.4888 16.009 31.4907 15.7364 31.4927C15.5632 31.4929 15.3899 31.4928 15.2167 31.4926C15.0945 31.4937 15.0945 31.4937 14.9699 31.4949C14.6195 31.492 14.4021 31.4871 14.0927 31.3416C13.9505 31.1975 13.9505 31.1975 13.9554 30.9596C14.0691 30.6188 14.1852 30.5905 14.5845 30.5867Z" fill="#FF7705"></path>
  <path d="M11.9692 3.64012C12.0836 3.64011 12.0836 3.64011 12.2003 3.6401C12.2884 3.6393 12.3764 3.63851 12.4672 3.6377C12.5643 3.63847 12.6614 3.63925 12.7615 3.64005C12.8643 3.6396 12.9672 3.63915 13.0732 3.63869C13.3593 3.6375 13.6455 3.63832 13.9316 3.63948C14.2399 3.64037 14.5483 3.63941 14.8566 3.63868C15.4609 3.63756 16.0652 3.63817 16.6695 3.63938C17.3727 3.64074 18.076 3.64049 18.7792 3.64018C20.0337 3.63971 21.2882 3.64085 22.5427 3.64284C23.7609 3.64478 24.9791 3.64535 26.1973 3.6445C27.5228 3.64358 28.8483 3.64342 30.1738 3.64459C30.315 3.64471 30.4563 3.64483 30.5975 3.64496C30.667 3.64502 30.7366 3.64508 30.8082 3.64514C31.2987 3.64553 31.7893 3.64538 32.2799 3.64503C32.8775 3.64464 33.475 3.64512 34.0726 3.64672C34.3777 3.64752 34.6828 3.64793 34.9879 3.64729C35.3181 3.64662 35.6483 3.64782 35.9785 3.64921C36.1242 3.64849 36.1242 3.64849 36.2728 3.64774C36.4049 3.64877 36.4049 3.64877 36.5397 3.64981C36.6159 3.64989 36.6922 3.64997 36.7708 3.65006C36.962 3.68052 36.962 3.68052 37.1074 3.78656C37.2663 4.01199 37.2328 4.26379 37.227 4.52939C37.2266 4.5882 37.2263 4.64701 37.2259 4.7076C37.2246 4.89522 37.2215 5.08278 37.2185 5.27038C37.2173 5.39766 37.2162 5.52494 37.2152 5.65223C37.2125 5.96408 37.2083 6.27587 37.2034 6.58769C37.3445 6.58347 37.3445 6.58347 37.4885 6.57917C37.613 6.5769 37.7376 6.5747 37.8622 6.57255C37.955 6.5695 37.955 6.5695 38.0496 6.5664C38.1403 6.56523 38.1403 6.56523 38.2327 6.56403C38.2879 6.56276 38.3431 6.56149 38.4 6.56019C38.6457 6.59965 38.7787 6.67303 38.9735 6.82995C39.0147 7.04153 39.0273 7.20202 39.0235 7.414C39.024 7.4742 39.0245 7.5344 39.025 7.59642C39.0262 7.79979 39.0246 8.00303 39.023 8.20639C39.0233 8.35299 39.0237 8.49959 39.0244 8.64619C39.0256 9.05031 39.0243 9.45439 39.0226 9.85851C39.0212 10.2938 39.0221 10.7291 39.0227 11.1645C39.0236 12.0178 39.0223 12.871 39.0203 13.7243C39.018 14.7172 39.0179 15.71 39.0179 16.7029C39.0178 18.4739 39.0158 20.2449 39.0127 22.0159C39.0097 23.7359 39.008 25.456 39.0077 27.1761C39.0077 27.2821 39.0077 27.388 39.0077 27.4971C39.0077 27.6029 39.0077 27.7086 39.0077 27.8176C39.0076 28.0305 39.0076 28.2434 39.0076 28.4563C39.0076 28.5612 39.0075 28.6662 39.0075 28.7744C39.0072 30.4113 39.0058 32.0483 39.0042 33.6852C39.0036 34.2794 39.0032 34.8735 39.0029 35.4676C39.0025 36.41 39.0016 37.3523 38.9996 38.2946C38.9987 38.7255 38.9981 39.1563 38.9981 39.5871C38.9981 39.981 38.9974 40.3749 38.9961 40.7688C38.9957 40.9118 38.9957 41.0547 38.9959 41.1977C38.9961 41.3912 38.9954 41.5845 38.9944 41.778C38.9949 41.8624 38.9949 41.8624 38.9954 41.9486C38.9927 42.24 38.9787 42.3542 38.8126 42.6043C38.605 42.6347 38.605 42.6347 38.3358 42.6348C38.2336 42.6354 38.1314 42.636 38.026 42.6367C37.9115 42.6362 37.797 42.6356 37.6825 42.6351C37.5616 42.6353 37.4408 42.6357 37.32 42.6362C36.9867 42.6372 36.6535 42.6367 36.3202 42.636C35.9613 42.6354 35.6024 42.6363 35.2435 42.6369C34.5398 42.638 33.8362 42.6378 33.1326 42.6371C32.561 42.6365 31.9894 42.6364 31.4178 42.6367C31.3366 42.6367 31.2554 42.6368 31.1717 42.6368C31.0067 42.6369 30.8418 42.637 30.6768 42.6371C29.1283 42.6377 27.5798 42.637 26.0313 42.6357C24.7013 42.6346 23.3713 42.6348 22.0414 42.6359C20.4986 42.6372 18.9558 42.6377 17.413 42.6369C17.2486 42.6369 17.0842 42.6368 16.9199 42.6367C16.839 42.6367 16.7581 42.6366 16.6748 42.6366C16.1036 42.6364 15.5323 42.6367 14.9611 42.6373C14.2654 42.638 13.5697 42.6378 12.874 42.6365C12.5188 42.6359 12.1635 42.6356 11.8082 42.6364C11.4835 42.6371 11.1587 42.6368 10.8339 42.6355C10.716 42.6352 10.5981 42.6353 10.4802 42.6359C10.3207 42.6366 10.1613 42.6358 10.0018 42.6348C9.91302 42.6347 9.8242 42.6347 9.73269 42.6347C9.66418 42.6246 9.59567 42.6146 9.52509 42.6043C9.33323 42.3154 9.34143 42.1113 9.34325 41.778C9.34294 41.7178 9.34263 41.6576 9.34232 41.5956C9.34148 41.3922 9.3418 41.1889 9.34211 40.9856C9.34176 40.839 9.34133 40.6924 9.34084 40.5458C9.33969 40.1417 9.33956 39.7376 9.3396 39.3335C9.33947 38.8981 9.33841 38.4628 9.33749 38.0275C9.33565 37.0752 9.33501 36.1228 9.33461 35.1705C9.33435 34.5763 9.33382 33.9821 9.33324 33.3879C9.33166 31.744 9.33035 30.1001 9.33011 28.4563C9.3301 28.351 9.33008 28.2457 9.33007 28.1373C9.33004 27.9239 9.33001 27.7105 9.32998 27.4971C9.32996 27.3912 9.32995 27.2853 9.32993 27.1761C9.32992 27.0701 9.3299 26.964 9.32989 26.8547C9.3296 25.1348 9.32743 23.4148 9.32442 21.6948C9.32136 19.9306 9.3198 18.1664 9.31978 16.4022C9.31973 15.411 9.31904 14.4198 9.31672 13.4286C9.31475 12.5848 9.31416 11.7411 9.31537 10.8973C9.31595 10.4665 9.31587 10.0357 9.31405 9.60488C9.3124 9.21096 9.31259 8.81709 9.31428 8.42318C9.31456 8.2802 9.31416 8.13722 9.31302 7.99425C9.31157 7.80078 9.31257 7.60747 9.31422 7.414C9.31321 7.3577 9.3122 7.3014 9.31116 7.2434C9.31402 7.0876 9.31402 7.0876 9.36417 6.82995C9.63893 6.60597 9.84345 6.55788 10.193 6.56403C10.2715 6.56481 10.3501 6.56559 10.4311 6.5664C10.5121 6.56843 10.5932 6.57046 10.6767 6.57255C10.8006 6.57419 10.8006 6.57419 10.927 6.57586C11.1303 6.57871 11.3334 6.58269 11.5366 6.58769C11.5353 6.5111 11.5341 6.43451 11.5328 6.3556C11.5286 6.07085 11.5256 5.78613 11.5233 5.50137C11.5221 5.37823 11.5205 5.2551 11.5184 5.13198C11.5155 4.95476 11.5141 4.7776 11.513 4.60037C11.5118 4.4938 11.5105 4.38723 11.5092 4.27743C11.5433 3.93636 11.6123 3.71553 11.9692 3.64012ZM12.5826 4.64958C12.5826 5.28915 12.5826 5.92873 12.5826 6.58769C20.3623 6.58769 28.142 6.58769 36.1574 6.58769C36.1574 5.94811 36.1574 5.30854 36.1574 4.64958C28.3777 4.64958 20.598 4.64958 12.5826 4.64958ZM10.4102 7.6375C10.4102 18.8568 10.4102 30.076 10.4102 41.6352C19.4909 41.6352 28.5716 41.6352 37.9275 41.6352C37.9275 30.416 37.9275 19.1967 37.9275 7.6375C28.8468 7.6375 19.7661 7.6375 10.4102 7.6375Z" fill="#FF7705"></path>
  <path d="M30.298 12.0417C30.4442 12.1365 30.5894 12.2495 30.6433 12.4274C30.676 12.5992 30.6905 12.819 30.5974 12.972C30.4228 13.2192 30.1964 13.4338 29.9889 13.6507C29.9582 13.6829 29.9274 13.7152 29.8967 13.7474C29.8129 13.8352 29.7291 13.923 29.6453 14.0107C29.5546 14.1057 29.464 14.2007 29.3734 14.2957C29.1756 14.5029 28.9778 14.71 28.78 14.9171C28.6564 15.0465 28.5328 15.176 28.4092 15.3054C28.0667 15.664 27.7243 16.0226 27.3817 16.3811C27.3489 16.4155 27.3489 16.4155 27.3154 16.4505C27.2935 16.4734 27.2716 16.4964 27.249 16.52C27.2045 16.5665 27.1601 16.613 27.1157 16.6595C27.1047 16.6711 27.0936 16.6826 27.0823 16.6945C26.7247 17.0688 26.3672 17.4432 26.0098 17.8177C25.6314 18.2143 25.2529 18.6107 24.8742 19.0069C24.668 19.2227 24.4618 19.4386 24.2558 19.6546C24.0805 19.8384 23.9051 20.022 23.7295 20.2055C23.64 20.2991 23.5505 20.3928 23.4612 20.4866C23.3794 20.5725 23.2974 20.6582 23.2153 20.7438C23.1857 20.7748 23.1561 20.8058 23.1266 20.8369C22.7087 21.277 22.7087 21.277 22.4227 21.2808C22.0478 21.2764 21.8339 20.9639 21.585 20.7034C21.5536 20.6706 21.5221 20.6377 21.4907 20.6049C21.4057 20.5162 21.3208 20.4275 21.236 20.3387C21.1829 20.2832 21.1299 20.2278 21.0768 20.1723C20.8916 19.9787 20.7064 19.785 20.5213 19.5913C20.3488 19.4108 20.1762 19.2305 20.0035 19.0502C19.8551 18.8952 19.7067 18.7401 19.5584 18.585C19.47 18.4924 19.3814 18.3998 19.2928 18.3074C19.2096 18.2205 19.1265 18.1336 19.0435 18.0465C19.013 18.0146 18.9825 17.9827 18.9519 17.9509C18.9102 17.9074 18.8686 17.8638 18.8271 17.8202C18.815 17.8076 18.8029 17.7951 18.7904 17.7821C18.6432 17.6266 18.6011 17.5062 18.5969 17.2915C18.5984 17.0989 18.6355 16.9921 18.7543 16.8483C18.912 16.7068 19.0547 16.6345 19.2632 16.6482C19.6065 16.6975 19.8368 17.02 20.0689 17.2637C20.0944 17.2904 20.1199 17.3171 20.1455 17.3439C20.2141 17.4156 20.2826 17.4875 20.3511 17.5593C20.423 17.6347 20.4949 17.71 20.5669 17.7853C20.7028 17.9276 20.8386 18.0699 20.9745 18.2123C21.1292 18.3745 21.2841 18.5366 21.4389 18.6988C21.7571 19.032 22.0752 19.3653 22.3933 19.6987C22.5535 19.5613 22.6977 19.408 22.8436 19.2546C22.8726 19.2242 22.9016 19.1938 22.9306 19.1634C23.0101 19.0802 23.0896 18.9968 23.169 18.9134C23.2547 18.8235 23.3406 18.7335 23.4264 18.6436C23.575 18.4879 23.7236 18.332 23.8722 18.1762C24.1071 17.9299 24.3421 17.6837 24.5771 17.4375C24.6575 17.3532 24.738 17.2689 24.8184 17.1847C24.8385 17.1636 24.8586 17.1426 24.8793 17.1209C25.108 16.8813 25.3367 16.6417 25.5653 16.4021C25.5862 16.3802 25.6071 16.3583 25.6286 16.3357C25.9674 15.9807 26.3061 15.6256 26.6447 15.2705C26.9925 14.9058 27.3405 14.5412 27.6886 14.1767C27.9032 13.952 28.1177 13.7271 28.3321 13.5021C28.479 13.3479 28.626 13.1939 28.7731 13.04C28.858 12.9512 28.9428 12.8623 29.0274 12.7733C29.105 12.6918 29.1827 12.6104 29.2605 12.5291C29.2886 12.4998 29.3166 12.4703 29.3446 12.4409C29.6063 12.1648 29.8934 11.8812 30.298 12.0417Z" fill="#FF7705"></path>
</svg>
