<?xml version="1.0" encoding="UTF-8"?>
<svg xmlns="http://www.w3.org/2000/svg" width="48" height="48" viewBox="0 0 48 48" fill="none">
  <path d="M17.7687 7.62832C17.8993 7.62784 18.03 7.62716 18.1606 7.62629C18.5152 7.62455 18.8697 7.62577 19.2242 7.62761C19.5966 7.62915 19.969 7.62832 20.3414 7.62784C20.9679 7.62742 21.5943 7.62891 22.2208 7.63153C22.9416 7.63452 23.6623 7.63453 24.3831 7.63291C25.0793 7.63141 25.7754 7.63206 26.4715 7.63366C26.7662 7.63429 27.0609 7.63421 27.3556 7.63351C30.295 7.62803 30.295 7.62803 31.5 8.06249C31.5898 8.09259 31.6796 8.12268 31.7721 8.15369C33.6639 8.8127 35.0793 10.3499 36.0037 12.071C36.0938 12.2812 36.0938 12.2812 36.0938 12.5625C36.1623 12.56 36.2309 12.5576 36.3015 12.555C36.6131 12.5453 36.9247 12.5392 37.2364 12.5332C37.3442 12.5293 37.4521 12.5253 37.5632 12.5213C37.7196 12.519 37.7196 12.519 37.8791 12.5167C38.0227 12.513 38.0227 12.513 38.1692 12.5093C38.5631 12.5874 38.6809 12.6971 38.9063 13.0312C38.9743 13.4035 38.9697 13.7699 38.9652 14.1474C38.9655 14.256 38.9657 14.3645 38.9659 14.4763C38.9658 14.7054 38.9646 14.9346 38.9622 15.1637C38.959 15.5144 38.9603 15.8648 38.9621 16.2154C38.9615 16.4382 38.9606 16.661 38.9594 16.8838C38.9598 16.9886 38.9603 17.0934 38.9608 17.2013C38.9543 17.6272 38.9472 17.9216 38.7481 18.3031C38.4746 18.512 38.3484 18.5134 38.0083 18.4856C37.9075 18.481 37.8067 18.4764 37.7029 18.4716C37.5445 18.4644 37.5445 18.4644 37.3828 18.457C36.6627 18.4292 36.6627 18.4292 36.0166 18.6878C35.7606 19.0169 35.6355 19.3989 35.5056 19.7911C35.3389 20.226 34.9949 20.5648 34.6875 20.9062C34.6322 20.9703 34.5768 21.0343 34.5198 21.1003C33.9754 21.6911 33.3119 22.0954 32.625 22.5C32.5447 22.5476 32.4643 22.5952 32.3815 22.6443C31.1172 23.3324 29.7295 23.452 28.3199 23.4481C28.1877 23.4481 28.0555 23.4481 27.9233 23.4482C27.566 23.4482 27.2087 23.4477 26.8514 23.447C26.4774 23.4464 26.1034 23.4464 25.7294 23.4462C25.0219 23.446 24.3144 23.4452 23.6069 23.4442C22.8011 23.4432 21.9953 23.4427 21.1895 23.4422C19.5326 23.4412 17.8757 23.4396 16.2188 23.4375C16.1903 23.5261 16.1618 23.6148 16.1324 23.7061C15.9073 24.3603 15.4298 24.9048 14.8125 25.2187C13.9666 25.5579 13.155 25.591 12.3047 25.248C11.5038 24.8461 11.1323 24.3497 10.7813 23.5312C9.25471 23.4222 7.7443 24.0458 6.59183 25.0192C5.38687 26.1285 4.57905 27.5821 4.47769 29.2405C4.43304 31.0275 4.89811 32.6957 6.15661 34.0189C7.66875 35.5323 9.37242 35.9334 11.4375 36C11.4351 35.948 11.4326 35.896 11.4301 35.8424C11.4203 35.6059 11.4142 35.3694 11.4082 35.1328C11.4043 35.051 11.4004 34.9692 11.3963 34.8849C11.3948 34.8057 11.3933 34.7266 11.3918 34.645C11.3893 34.5723 11.3868 34.4997 11.3843 34.4248C11.4375 34.2187 11.4375 34.2187 11.6061 34.0073C12.0631 33.7583 12.493 33.7938 13.0053 33.8005C13.1119 33.8006 13.2186 33.8007 13.3285 33.8008C13.5536 33.8014 13.7787 33.8028 14.0039 33.8052C14.3487 33.8086 14.6934 33.809 15.0383 33.809C15.2571 33.8099 15.4759 33.811 15.6947 33.8122C15.798 33.8125 15.9012 33.8127 16.0075 33.8129C16.1036 33.8141 16.1997 33.8153 16.2986 33.8165C16.4252 33.8176 16.4252 33.8176 16.5543 33.8187C16.8032 33.8462 16.9496 33.89 17.1563 34.0312C17.3438 34.4062 17.3438 34.4062 17.3438 36C19.3238 36 21.3038 36 23.3438 36C23.3438 35.5669 23.3438 35.1337 23.3438 34.6875C23.5078 34.3711 23.5078 34.3711 23.8125 34.2187C24.191 34.1838 24.5587 34.1916 24.9375 34.2187C24.9524 34.1552 24.9673 34.0916 24.9826 34.0261C25.1267 33.4514 25.3124 32.9668 25.6132 32.4554C25.7108 32.2519 25.7108 32.2519 25.622 32.0519C25.4784 31.8437 25.3094 31.6704 25.1272 31.4956C24.9675 31.1907 24.9652 30.8925 25.0313 30.5625C25.1979 30.2888 25.4143 30.0786 25.644 29.8568C25.7069 29.7936 25.7699 29.7304 25.8347 29.6652C25.9679 29.5324 26.102 29.4004 26.2369 29.2694C26.4428 29.069 26.6449 28.8653 26.8468 28.6609C26.9769 28.532 27.1072 28.4033 27.2377 28.2748C27.2979 28.214 27.3581 28.1533 27.4201 28.0907C27.7952 27.731 28.0507 27.5648 28.5938 27.5625C28.8817 27.6897 29.0412 27.8197 29.25 28.0547C29.3119 28.1088 29.3738 28.163 29.4375 28.2187C29.8073 28.1796 30.1238 28.0435 30.4629 27.8965C30.8357 27.7354 31.207 27.5927 31.5938 27.4687C31.5973 27.3919 31.6008 27.315 31.6044 27.2358C31.6106 27.1348 31.6167 27.0338 31.6231 26.9297C31.6285 26.8296 31.634 26.7295 31.6396 26.6265C31.6912 26.3221 31.7541 26.187 31.9688 25.9687C32.2252 25.8833 32.3802 25.8623 32.6446 25.8599C32.7238 25.859 32.8029 25.8581 32.8845 25.8572C33.0124 25.8566 33.0124 25.8566 33.1429 25.8559C33.2308 25.8554 33.3188 25.8549 33.4094 25.8543C33.5956 25.8534 33.7817 25.8528 33.9678 25.8525C34.2522 25.8516 34.5365 25.8486 34.8208 25.8457C35.0017 25.8451 35.1826 25.8446 35.3636 25.8442C35.4484 25.8431 35.5333 25.8419 35.6208 25.8407C36.0728 25.8423 36.3856 25.8565 36.75 26.1562C36.8767 26.4095 36.8755 26.6361 36.8965 26.918C36.9083 27.072 36.9083 27.072 36.9203 27.2292C36.926 27.3083 36.9317 27.3873 36.9375 27.4687C37.0415 27.5072 37.1454 27.5456 37.2525 27.5852C37.3897 27.6362 37.5269 27.6872 37.6641 27.7383C37.7667 27.7762 37.7667 27.7762 37.8714 27.8148C38.1413 27.9154 38.4042 28.0145 38.662 28.1437C38.8116 28.2332 38.8116 28.2332 38.9942 28.2129C39.2117 28.1296 39.2117 28.1296 39.3985 27.8906C39.6763 27.638 39.8306 27.5459 40.2015 27.5321C40.4554 27.5698 40.5423 27.6455 40.7296 27.8192C40.7946 27.8791 40.8596 27.9389 40.9266 28.0006C41.0403 28.1086 41.0403 28.1086 41.1563 28.2187C41.2496 28.306 41.343 28.3932 41.4364 28.4804C41.6986 28.7268 41.9571 28.9768 42.2142 29.2284C42.322 29.3332 42.4306 29.4373 42.5399 29.5406C42.6997 29.6918 42.8568 29.8454 43.0137 29.9996C43.0626 30.045 43.1115 30.0903 43.1619 30.137C43.4246 30.4012 43.5313 30.5936 43.5398 30.9591C43.4961 31.3471 43.4443 31.4458 43.1602 31.6992C42.9637 31.8596 42.9637 31.8596 42.8438 32.0625C42.8935 32.3346 42.8935 32.3346 43.0313 32.625C43.0786 32.7435 43.1258 32.8622 43.1726 32.9809C43.249 33.1683 43.3258 33.3554 43.403 33.5423C43.5938 34.0113 43.5938 34.0113 43.5938 34.2187C43.6696 34.2133 43.7453 34.2079 43.8234 34.2023C43.9737 34.1959 43.9737 34.1959 44.127 34.1894C44.226 34.184 44.3249 34.1786 44.4269 34.173C44.8328 34.2366 44.9412 34.3596 45.1875 34.6875C45.2558 35.0129 45.251 35.3319 45.2465 35.6634C45.2467 35.7576 45.2469 35.8518 45.2472 35.9488C45.2471 36.1475 45.2458 36.3461 45.2435 36.5448C45.2403 36.8489 45.2416 37.1528 45.2434 37.457C45.2427 37.6501 45.2418 37.8433 45.2406 38.0365C45.2411 38.1274 45.2416 38.2183 45.242 38.312C45.231 38.9413 45.231 38.9413 45.0084 39.2418C44.6931 39.4561 44.4766 39.4906 44.0977 39.5215C44.0037 39.5293 43.9096 39.5372 43.8128 39.5453C43.7405 39.551 43.6682 39.5566 43.5938 39.5625C43.5632 39.6507 43.5326 39.7389 43.5011 39.8298C43.4602 39.9466 43.4192 40.0633 43.377 40.1836C43.3367 40.2989 43.2965 40.4142 43.255 40.5329C43.125 40.875 43.125 40.875 42.9657 41.1877C42.8184 41.4215 42.8184 41.4215 42.8907 41.625C43.0407 41.832 43.0407 41.832 43.2774 42.0762C43.5 42.375 43.5 42.375 43.5703 42.6914C43.4014 43.5078 42.4817 44.1665 41.9039 44.7488C41.8073 44.8465 41.711 44.9447 41.6152 45.0433C41.4747 45.1877 41.3331 45.3309 41.1911 45.4739C41.0663 45.6007 41.0663 45.6007 40.9389 45.7302C40.6679 45.9537 40.4672 46.0509 40.125 46.125C39.6155 45.9703 39.3072 45.7179 38.9063 45.375C38.7654 45.4444 38.7654 45.4444 38.6217 45.5152C38.4959 45.576 38.37 45.6366 38.2442 45.6973C38.1518 45.743 38.1518 45.743 38.0576 45.7897C37.6478 45.9855 37.2964 46.0832 36.8438 46.125C36.8481 46.2086 36.8525 46.2922 36.857 46.3784C36.8603 46.4881 36.8637 46.5979 36.8672 46.7109C36.8716 46.8197 36.8759 46.9285 36.8804 47.0405C36.8438 47.3437 36.8438 47.3437 36.7157 47.5471C36.3276 47.8169 35.9433 47.7723 35.4815 47.7685C35.3851 47.7689 35.2887 47.7693 35.1894 47.7696C34.9858 47.7699 34.7822 47.7692 34.5785 47.7676C34.2668 47.7656 33.9552 47.7676 33.6435 47.77C33.4456 47.7698 33.2477 47.7693 33.0498 47.7685C32.9099 47.7697 32.9099 47.7697 32.7672 47.7708C32.1249 47.7621 32.1249 47.7621 31.8156 47.5471C31.635 47.2603 31.6507 47.0464 31.6641 46.7109C31.6675 46.6012 31.6709 46.4915 31.6743 46.3784C31.6787 46.2948 31.683 46.2112 31.6875 46.125C31.5106 46.0931 31.5106 46.0931 31.3301 46.0605C30.8693 45.9599 30.4679 45.7795 30.0451 45.5738C29.7513 45.435 29.7513 45.435 29.4375 45.375C29.2648 45.5049 29.2648 45.5049 29.1153 45.6914C28.8068 46.0209 28.8068 46.0209 28.5352 46.1308C27.9321 46.115 27.6032 45.7358 27.2066 45.331C27.1471 45.2714 27.0877 45.2118 27.0264 45.1503C26.9013 45.0246 26.7765 44.8985 26.652 44.7721C26.461 44.5781 26.269 44.3852 26.0768 44.1925C25.9553 44.0701 25.8338 43.9477 25.7124 43.8252C25.6549 43.7673 25.5974 43.7094 25.5381 43.6497C25.051 43.1542 25.051 43.1542 24.9844 42.7383C25.044 42.2765 25.2262 42.1255 25.5623 41.8209C25.7194 41.6257 25.7194 41.6257 25.6319 41.3661C25.5884 41.2659 25.5449 41.1657 25.5 41.0625C25.4527 40.9439 25.4056 40.8253 25.3587 40.7065C25.2823 40.5192 25.2055 40.3321 25.1283 40.1451C24.9375 39.6761 24.9375 39.6761 24.9375 39.4687C24.8685 39.472 24.7995 39.4753 24.7284 39.4786C23.8031 39.5043 23.8031 39.5043 23.4375 39.1875C23.1995 38.7115 23.3438 38.1259 23.3438 37.5937C21.3638 37.5937 19.3838 37.5937 17.3438 37.5937C17.3438 38.1506 17.3438 38.7075 17.3438 39.2812C16.9688 39.75 16.9688 39.75 16.6875 39.8437C16.5395 39.8533 16.3911 39.8576 16.2428 39.8588C16.1527 39.8597 16.0626 39.8606 15.9697 39.8616C15.8238 39.8622 15.8238 39.8622 15.675 39.8628C15.5747 39.8633 15.4745 39.8639 15.3712 39.8644C15.159 39.8653 14.9468 39.8659 14.7346 39.8663C14.4105 39.8672 14.0865 39.8701 13.7624 39.873C13.5562 39.8736 13.3499 39.8741 13.1437 39.8745C13.047 39.8757 12.9503 39.8768 12.8507 39.878C12.3424 39.8764 11.9665 39.858 11.5313 39.5625C11.4212 39.3423 11.4267 39.2121 11.4284 38.967C11.4288 38.8474 11.4288 38.8474 11.4293 38.7253C11.4305 38.6003 11.4305 38.6003 11.4317 38.4726C11.4321 38.3885 11.4325 38.3044 11.433 38.2178C11.4341 38.0098 11.4356 37.8017 11.4375 37.5937C11.3196 37.5981 11.2016 37.6024 11.0801 37.6069C8.7279 37.6672 6.75697 36.9538 5.02445 35.3133C3.40099 33.6385 2.76126 31.5584 2.79312 29.2632C2.84383 27.5746 3.50123 26.0914 4.50003 24.75C4.54499 24.6888 4.58994 24.6277 4.63626 24.5647C5.78852 23.1144 7.69195 22.1566 9.49808 21.869C9.92611 21.8261 10.3518 21.8288 10.7813 21.8437C10.8103 21.7277 10.8103 21.7277 10.8399 21.6094C11.1399 20.8457 11.6502 20.3441 12.375 19.9687C13.1978 19.6465 14.014 19.7268 14.8125 20.0625C15.4119 20.3941 15.808 20.8654 16.125 21.4687C16.1583 21.5932 16.1899 21.7182 16.2188 21.8437C17.9286 21.8402 19.6384 21.8346 21.3483 21.8265C22.1423 21.8228 22.9364 21.8197 23.7304 21.8183C24.4232 21.8171 25.1159 21.8146 25.8086 21.8105C26.1749 21.8084 26.541 21.8069 26.9073 21.807C29.3255 21.8069 31.5503 21.6968 33.375 19.875C33.6462 19.5439 33.8909 19.2017 34.125 18.8437C34.1869 18.7509 34.2488 18.6581 34.3125 18.5625C34.2492 18.5601 34.1859 18.5577 34.1206 18.5552C34.037 18.5498 33.9534 18.5445 33.8672 18.5391C33.7846 18.5347 33.7019 18.5303 33.6167 18.5259C33.3048 18.4521 33.2011 18.3409 33 18.0937C32.9518 17.8554 32.9518 17.8554 32.95 17.5838C32.9485 17.4818 32.9471 17.3798 32.9455 17.2747C32.9462 17.1102 32.9462 17.1102 32.9469 16.9424C32.9463 16.8293 32.9458 16.7163 32.9452 16.5999C32.9445 16.3609 32.9448 16.122 32.946 15.8831C32.9473 15.517 32.9441 15.1511 32.9405 14.785C32.9404 14.553 32.9406 14.3209 32.9411 14.0889C32.9398 13.9792 32.9386 13.8695 32.9373 13.7565C32.946 12.9996 32.946 12.9996 33.2237 12.6803C33.4829 12.5557 33.635 12.522 33.92 12.539C34.0311 12.5441 34.0311 12.5441 34.1444 12.5493C34.1999 12.5537 34.2554 12.558 34.3125 12.5625C33.3789 10.9564 32.0769 9.95462 30.2813 9.4453C29.3784 9.25518 28.4416 9.2678 27.5235 9.26943C27.3389 9.26916 27.1544 9.26889 26.9698 9.26859C26.7739 9.26834 26.5779 9.2683 26.382 9.26829C25.9722 9.26818 25.5625 9.26697 25.1527 9.26552C25.0833 9.26528 25.0138 9.26504 24.9423 9.26479C24.8004 9.26429 24.6586 9.2638 24.5167 9.2633C23.5645 9.26002 22.6122 9.25752 21.6599 9.25775C21.015 9.2579 20.37 9.2564 19.7251 9.253C19.3845 9.25127 19.0439 9.25039 18.7033 9.25154C18.3245 9.25281 17.9458 9.25047 17.567 9.24782C17.4544 9.24878 17.3418 9.24973 17.2258 9.25072C16.4688 9.24118 16.4688 9.24118 16.1495 8.96692C16.0029 8.65911 15.9682 8.49289 16.0313 8.15624C16.4443 7.50889 17.064 7.622 17.7687 7.62832ZM34.5938 14.1562C34.5938 15.0844 34.5938 16.0125 34.5938 16.9687C35.491 16.9687 36.3882 16.9687 37.3125 16.9687C37.3125 16.0406 37.3125 15.1125 37.3125 14.1562C36.4153 14.1562 35.5182 14.1562 34.5938 14.1562ZM12.5332 21.8437C12.3172 22.0998 12.2833 22.2912 12.252 22.623C12.2929 23.1061 12.4889 23.3695 12.8321 23.7012C13.0983 23.85 13.2877 23.8942 13.5938 23.9062C14.0271 23.7643 14.3359 23.6058 14.625 23.25C14.773 22.806 14.7838 22.3976 14.625 21.9609C14.3631 21.6663 14.0593 21.5027 13.6875 21.375C13.1951 21.375 12.9039 21.5232 12.5332 21.8437ZM33.2813 27.4687C33.2561 27.6331 33.231 27.7974 33.2051 27.9668C33.1476 28.343 33.1053 28.5359 32.8125 28.7812C32.6435 28.8559 32.6435 28.8559 32.4555 28.912C32.3859 28.9336 32.3164 28.9552 32.2447 28.9774C32.1342 29.0108 32.1342 29.0108 32.0215 29.0449C31.2007 29.3048 30.4394 29.6133 29.7188 30.0937C29.377 30.1474 29.1538 30.1486 28.8531 29.9678C28.6679 29.8286 28.4897 29.6804 28.3125 29.5312C27.8794 29.9644 27.4463 30.3975 27 30.8437C27.1705 31.2136 27.1705 31.2136 27.3926 31.4883C27.6025 31.8501 27.5718 31.946 27.4688 32.3437C27.3589 32.5756 27.2455 32.7985 27.1231 33.0234C26.7878 33.6599 26.5463 34.3012 26.343 34.9908C26.1843 35.5125 26.1843 35.5125 25.875 35.7187C25.411 35.7651 25.411 35.7651 24.9375 35.8125C24.9375 36.4931 24.9375 37.1737 24.9375 37.875C25.2469 37.9059 25.5563 37.9369 25.875 37.9687C26.2732 38.2258 26.3514 38.597 26.4668 39.0351C26.706 39.8716 27.0711 40.6013 27.4886 41.3635C27.6091 41.6369 27.5533 41.812 27.4688 42.0937C27.3263 42.3 27.1715 42.4715 27 42.6562C27.1555 43.0617 27.4567 43.3213 27.7617 43.6172C27.841 43.6951 27.841 43.6951 27.9218 43.7746C28.0516 43.9023 28.182 44.0293 28.3125 44.1562C28.3591 44.1156 28.4056 44.075 28.4535 44.0332C28.5172 43.981 28.5809 43.9288 28.6465 43.875C28.7085 43.8228 28.7705 43.7706 28.8344 43.7168C29.1525 43.5452 29.3612 43.5531 29.7188 43.5937C29.9442 43.699 30.1415 43.8045 30.3516 43.9336C30.9849 44.2999 31.6259 44.5266 32.3278 44.7278C32.4004 44.7487 32.473 44.7697 32.5478 44.7912C32.6448 44.818 32.6448 44.818 32.7438 44.8452C32.9063 44.9062 32.9063 44.9062 33.0938 45.0937C33.1773 45.4661 33.225 45.841 33.2813 46.2187C33.931 46.2187 34.5807 46.2187 35.25 46.2187C35.2848 45.949 35.2848 45.949 35.3203 45.6738C35.3882 45.1481 35.3882 45.1481 35.5866 44.9297C35.8932 44.7707 36.2122 44.6917 36.545 44.6074C37.1973 44.4321 37.7597 44.1897 38.3357 43.8367C38.7299 43.6035 39.0135 43.5369 39.4688 43.5937C39.7566 43.7489 39.9664 43.9437 40.2188 44.1562C40.6519 43.7231 41.085 43.29 41.5313 42.8437C41.3618 42.4741 41.3618 42.4741 41.1387 42.2051C40.9214 41.8228 40.9666 41.6738 41.0625 41.25C41.1715 41.0282 41.2823 40.8225 41.4082 40.6113C41.7579 39.9979 41.9898 39.3781 42.1883 38.7014C42.3474 38.1747 42.3474 38.1747 42.6563 37.9687C42.9657 37.9378 43.275 37.9069 43.5938 37.875C43.5938 37.1944 43.5938 36.5137 43.5938 35.8125C43.2844 35.7816 42.975 35.7506 42.6563 35.7187C42.2581 35.4616 42.1799 35.0905 42.0645 34.6523C41.8259 33.8178 41.4646 33.0853 41.0428 32.3273C40.9141 32.0297 40.982 31.8059 41.0625 31.5C41.3028 31.2246 41.3028 31.2246 41.5313 31.0312C41.3758 30.6258 41.0746 30.3662 40.7696 30.0703C40.6903 29.9924 40.6903 29.9924 40.6095 29.9128C40.4797 29.7852 40.3493 29.6582 40.2188 29.5312C40.1644 29.5718 40.11 29.6124 40.054 29.6543C39.9808 29.7065 39.9075 29.7587 39.8321 29.8125C39.7603 29.8647 39.6885 29.9169 39.6145 29.9707C39.3102 30.1271 39.1522 30.1416 38.8125 30.0937C38.5543 29.9833 38.3162 29.8432 38.0742 29.7012C37.4069 29.3264 36.7542 29.0762 36.0183 28.8724C35.7188 28.7812 35.7188 28.7812 35.4375 28.5937C35.3413 28.2222 35.3027 27.8497 35.25 27.4687C34.6003 27.4687 33.9507 27.4687 33.2813 27.4687ZM12.9375 35.4375C12.9375 36.3656 12.9375 37.2937 12.9375 38.25C13.8657 38.25 14.7938 38.25 15.75 38.25C15.75 37.3219 15.75 36.3937 15.75 35.4375C14.8219 35.4375 13.8938 35.4375 12.9375 35.4375Z" fill="#FF7705"></path>
  <path d="M13.0513 0.218994C13.1219 0.220203 13.1924 0.221411 13.2651 0.222656C13.3357 0.221448 13.4063 0.220239 13.479 0.218994C13.789 0.311762 13.8851 0.484499 14.062 0.75C14.1082 1.01851 14.1082 1.01851 14.1071 1.31888C14.1076 1.43312 14.1081 1.54735 14.1087 1.66505C14.1073 1.79086 14.106 1.91667 14.1046 2.04247C14.1045 2.17555 14.1045 2.30862 14.1048 2.44169C14.1049 2.80234 14.1027 3.16294 14.1 3.52357C14.0977 3.90068 14.0975 4.27779 14.097 4.65491C14.0959 5.36876 14.0928 6.08259 14.089 6.79642C14.0848 7.60922 14.0828 8.42201 14.0809 9.23482C14.077 10.9066 14.0704 12.5783 14.062 14.25C14.2264 14.2418 14.2264 14.2418 14.3942 14.2335C14.5393 14.2291 14.6845 14.2249 14.8296 14.2207C14.9017 14.2168 14.9738 14.2128 15.048 14.2088C15.4503 14.2002 15.6074 14.2131 15.9381 14.4657C16.1245 14.7188 16.1245 14.7188 16.1831 15.0469C16.1064 15.4767 16.0083 15.5859 15.6558 15.8438C15.3029 15.9106 14.956 15.9027 14.5978 15.8961C14.444 15.8958 14.444 15.8958 14.2872 15.8955C14.0709 15.8945 13.8546 15.8925 13.6383 15.8894C13.307 15.8848 12.9759 15.8836 12.6446 15.8831C12.4343 15.8818 12.2241 15.8803 12.0138 15.8785C11.9147 15.878 11.8155 15.8775 11.7134 15.877C11.6211 15.8755 11.5288 15.874 11.4337 15.8725C11.3527 15.8715 11.2716 15.8705 11.1882 15.8695C10.9494 15.8415 10.7974 15.7814 10.5933 15.6562C10.3967 15.4035 10.4062 15.2725 10.4233 14.9473C10.4972 14.6349 10.5273 14.5262 10.7808 14.3438C11.2847 14.0918 11.9049 14.25 12.4683 14.25C12.4683 12.5175 12.4683 10.785 12.4683 9C11.5746 9.00489 11.5746 9.00489 10.6628 9.00989C10.2852 9.01132 9.90748 9.01268 9.52979 9.01373C8.93045 9.01541 8.33112 9.0174 7.73179 9.02122C7.24853 9.02428 6.76529 9.02596 6.28203 9.02668C6.09776 9.0272 5.91349 9.02822 5.72922 9.02974C5.4709 9.03178 5.21263 9.03206 4.95431 9.03193C4.87831 9.03294 4.80231 9.03395 4.72401 9.03499C4.26872 9.03251 3.95668 8.97098 3.56202 8.71875C3.37273 8.34018 3.42325 7.93243 3.54046 7.53882C3.67289 7.18312 3.81529 6.8321 3.95991 6.4812C4.35943 5.46012 4.10242 4.83654 3.69697 3.85822C3.51012 3.38279 3.31506 2.85263 3.46827 2.34375C3.73402 2.06222 3.93694 1.94494 4.31727 1.92365C4.4693 1.92257 4.62136 1.92355 4.77337 1.92618C4.89829 1.9261 4.89829 1.9261 5.02573 1.92601C5.30019 1.92627 5.57456 1.92919 5.849 1.93213C6.03961 1.93283 6.23021 1.93336 6.42081 1.93374C6.92188 1.93517 7.42291 1.93885 7.92397 1.943C8.43549 1.94684 8.94703 1.94855 9.45856 1.95044C10.4618 1.95446 11.465 1.96086 12.4683 1.96875C12.4639 1.88621 12.4596 1.80367 12.4551 1.71863C12.4517 1.60974 12.4483 1.50086 12.4448 1.38867C12.4405 1.28099 12.4361 1.17332 12.4316 1.06238C12.4799 0.651027 12.6367 0.343086 13.0513 0.218994ZM5.43702 3.5625C5.51934 4.05642 5.64059 4.43052 5.82703 4.88635C6.10461 5.83787 5.68352 6.44221 5.34327 7.40625C7.69452 7.40625 10.0458 7.40625 12.4683 7.40625C12.4683 6.13781 12.4683 4.86937 12.4683 3.5625C10.148 3.5625 7.82764 3.5625 5.43702 3.5625Z" fill="#FF7705"></path>
  <path d="M37.8517 31.9954C39.1565 33.0349 39.9792 34.4396 40.2187 36.0938C40.3684 37.8801 39.9043 39.452 38.7414 40.8366C37.702 41.9538 36.3199 42.7183 34.7764 42.7782C34.612 42.78 34.4475 42.7804 34.2831 42.7793C34.1965 42.7788 34.11 42.7783 34.0208 42.7777C32.2887 42.747 30.9088 42.0089 29.7069 40.7813C28.6099 39.4928 28.1943 37.8715 28.2922 36.21C28.4449 34.6255 29.257 33.177 30.4687 32.1563C32.6844 30.5635 35.5895 30.3376 37.8517 31.9954ZM30.9374 33.9375C30.1107 34.9848 29.7618 36.1728 29.9062 37.5C30.0686 38.3422 30.3894 39.0002 30.9374 39.6563C30.9934 39.7238 31.0493 39.7914 31.107 39.861C31.8069 40.6308 32.8071 41.1004 33.8418 41.1878C35.1334 41.2156 36.106 40.9558 37.1249 40.125C37.1846 40.0781 37.2443 40.0312 37.3058 39.9829C38.0717 39.309 38.568 38.1513 38.6447 37.1474C38.6842 35.9601 38.3272 34.8375 37.5702 33.9141C36.7701 33.0589 35.6494 32.5291 34.4875 32.4185C33.1262 32.3864 31.8548 32.9399 30.9374 33.9375Z" fill="#FF7705"></path>
</svg>
