<?xml version="1.0" encoding="UTF-8"?>
<svg xmlns="http://www.w3.org/2000/svg" width="48" height="48" viewBox="0 0 48 48" fill="none">
  <g clip-path="url(#clip0_3748_1120)">
    <path d="M23.7588 9.72041C23.975 9.7207 24.191 9.7185 24.4072 9.71613C25.7184 9.71045 26.9756 9.8989 28.2304 10.2891C28.3086 10.3131 28.3868 10.3371 28.4674 10.3618C30.5379 11.0194 32.3663 12.2001 33.9375 13.6875C34.0204 13.7644 34.1033 13.8412 34.1887 13.9204C35.8439 15.5053 37.0406 17.5856 37.7109 19.7695C37.7438 19.8754 37.7438 19.8754 37.7774 19.9834C38.1624 21.3036 38.3024 22.6074 38.291 23.9766C38.2905 24.0865 38.2905 24.0865 38.2901 24.1987C38.2833 25.3836 38.2002 26.5111 37.875 27.6563C37.8549 27.7283 37.8348 27.8004 37.8141 27.8746C36.7637 31.5303 34.3163 34.6635 30.9902 36.5156C30.581 36.7411 30.1683 36.9493 29.7407 37.1376C29.6659 37.1706 29.5912 37.2036 29.5143 37.2376C29.458 37.2623 29.4017 37.287 29.3437 37.3125C29.3432 37.4162 29.3432 37.4162 29.3427 37.522C29.3391 38.1784 29.3337 38.8348 29.3265 39.4911C29.3228 39.8284 29.3198 40.1657 29.3183 40.5031C29.3169 40.8295 29.3136 41.1559 29.3092 41.4823C29.3071 41.6655 29.3069 41.8487 29.3067 42.0319C29.2825 43.5344 28.7332 44.8473 27.6653 45.9102C26.4904 46.996 25.0827 47.3097 23.5312 47.2797C22.1112 47.2157 21.0485 46.53 20.0625 45.5625C20.0082 45.5105 19.9539 45.4586 19.898 45.405C18.9263 44.3851 18.7231 43.0564 18.7111 41.7162C18.7094 41.5889 18.7075 41.4616 18.7056 41.3344C18.7008 41.0013 18.6971 40.6683 18.6936 40.3352C18.6899 39.9946 18.6851 39.6539 18.6804 39.3133C18.6713 38.6464 18.6634 37.9794 18.6562 37.3125C18.4954 37.2383 18.4954 37.2383 18.3313 37.1627C18.188 37.096 18.0447 37.0294 17.9014 36.9628C17.8311 36.9304 17.7607 36.898 17.6882 36.8646C14.2918 35.28 11.7689 32.2705 10.4769 28.7919C9.20755 25.1887 9.44084 21.161 11.065 17.7067C11.9131 15.9953 13.1462 14.3349 14.625 13.125C14.7184 13.0468 14.8118 12.9686 14.908 12.8881C16.5115 11.5688 18.2967 10.7035 20.291 10.1367C20.3855 10.1098 20.3855 10.1098 20.4819 10.0824C21.5669 9.79377 22.642 9.71723 23.7588 9.72041ZM14.9062 15.0938C12.5517 17.5057 11.2408 20.7196 11.25 24.0938C11.3351 27.0231 12.3335 29.9173 14.25 32.1563C14.2928 32.207 14.3357 32.2577 14.3799 32.31C15.7472 33.9105 17.4192 34.9588 19.3241 35.8252C20.0218 36.1469 20.0218 36.1469 20.1562 36.2812C20.1871 36.9309 20.2181 37.5806 20.25 38.25C22.725 38.25 25.2 38.25 27.75 38.25C27.7809 37.6003 27.8118 36.9506 27.8437 36.2812C28.1952 36.0176 28.5276 35.8559 28.9277 35.6895C32.0977 34.331 34.4911 31.8935 35.8219 28.7161C36.417 27.1909 36.6962 25.6839 36.6914 24.0469C36.6913 23.9811 36.6913 23.9154 36.6912 23.8477C36.6873 22.7397 36.5949 21.6917 36.2812 20.625C36.2611 20.5564 36.241 20.4878 36.2203 20.4171C35.2219 17.1305 32.998 14.4089 29.9949 12.753C24.9729 10.0901 18.9129 11.126 14.9062 15.0938ZM20.25 39.75C20.25 40.4925 20.25 41.235 20.25 42C22.725 42 25.2 42 27.75 42C27.75 41.2575 27.75 40.515 27.75 39.75C25.275 39.75 22.8 39.75 20.25 39.75ZM20.625 43.5C21.1292 44.5085 21.8087 45.1493 22.8555 45.5753C23.7993 45.8294 24.9218 45.7498 25.7812 45.2812C26.4498 44.865 27.1202 44.2642 27.375 43.5C25.1475 43.5 22.92 43.5 20.625 43.5Z" fill="#FF7705"></path>
    <path d="M19.658 19.4408C19.7988 19.4409 19.7988 19.4409 19.9424 19.441C20.0452 19.4409 20.1481 19.4407 20.254 19.4405C20.4145 19.4438 20.4145 19.4438 20.5781 19.4473C20.6851 19.4462 20.792 19.4452 20.9022 19.4442C21.684 19.451 21.684 19.451 21.9377 19.6391C22.1985 19.9676 22.2729 20.2967 22.3741 20.6992C22.3961 20.7823 22.4181 20.8655 22.4408 20.9511C22.513 21.2253 22.5834 21.4999 22.6538 21.7745C22.7036 21.9651 22.7535 22.1556 22.8035 22.3461C22.9348 22.8471 23.0644 23.3485 23.1938 23.85C23.326 24.3615 23.4599 24.8726 23.5935 25.3837C23.7879 26.1284 23.9819 26.8732 24.1744 27.6184C24.1949 27.6973 24.2153 27.7761 24.2364 27.8573C24.375 28.3953 24.375 28.3953 24.375 28.5C23.8181 28.5 23.2613 28.5 22.6875 28.5C22.2664 27.026 22.2664 27.026 22.1932 26.7685C22.1515 26.6233 22.1089 26.4784 22.0648 26.3339C21.9745 26.0354 21.9375 25.8176 21.9375 25.5C21.0713 25.5309 20.205 25.5619 19.3125 25.5938C19.065 26.5528 18.8175 27.5119 18.5625 28.5C18.0056 28.5 17.4488 28.5 16.875 28.5C17.0273 27.5659 17.26 26.6588 17.4983 25.7439C17.5194 25.6627 17.5405 25.5815 17.5622 25.4978C17.6734 25.0692 17.7851 24.6407 17.8972 24.2124C18.0126 23.771 18.1265 23.3293 18.2401 22.8875C18.3281 22.5462 18.4171 22.2053 18.5065 21.8644C18.549 21.7016 18.591 21.5388 18.6327 21.3758C18.691 21.1482 18.7508 20.9211 18.8109 20.6941C18.8277 20.6273 18.8445 20.5604 18.8617 20.4916C18.9896 20.018 19.1448 19.5614 19.658 19.4408ZM20.4375 21C20.3304 21.397 20.2236 21.7941 20.1171 22.1913C20.0808 22.3265 20.0444 22.4616 20.0079 22.5967C19.9556 22.7907 19.9035 22.9848 19.8516 23.179C19.8201 23.2958 19.7887 23.4126 19.7563 23.533C19.68 23.7949 19.68 23.7949 19.6875 24C20.2753 24 20.8631 24 21.4688 24C21.3156 22.9742 21.0126 21.9925 20.7188 21C20.6259 21 20.5331 21 20.4375 21Z" fill="#FF7705"></path>
    <path d="M25.7812 19.5C27.5447 19.5 29.3081 19.5 31.125 19.5C31.125 19.995 31.125 20.49 31.125 21C30.5062 21 29.8875 21 29.25 21C29.25 22.98 29.25 24.96 29.25 27C29.8688 27 30.4875 27 31.125 27C31.125 27.495 31.125 27.99 31.125 28.5C29.3616 28.5 27.5981 28.5 25.7812 28.5C25.7812 28.005 25.7812 27.51 25.7812 27C26.4 27 27.0187 27 27.6562 27C27.6562 25.02 27.6562 23.04 27.6562 21C27.0375 21 26.4188 21 25.7812 21C25.7812 20.505 25.7812 20.01 25.7812 19.5Z" fill="#FF7705"></path>
    <path d="M12.3901 34.6015C12.6408 34.7266 12.8146 34.8954 13.0135 35.0918C13.0895 35.1649 13.1656 35.238 13.2439 35.3134C13.4061 35.5313 13.4061 35.5313 13.3971 35.7042C13.2775 35.9895 13.0943 36.1458 12.8692 36.3571C12.7803 36.4426 12.6914 36.5281 12.5997 36.6162C12.4578 36.751 12.3156 36.8854 12.1725 37.0191C12.0344 37.1487 11.8981 37.2802 11.7618 37.4117C11.6795 37.4894 11.5971 37.567 11.5122 37.647C11.3153 37.8613 11.3153 37.8613 11.3627 38.1234C11.3874 38.1961 11.412 38.2688 11.4374 38.3438C11.5193 39.1057 11.4092 39.6783 10.9686 40.3125C10.5348 40.8116 10.0126 41.0902 9.36021 41.1859C8.70559 41.2216 8.08573 41.0447 7.58592 40.6124C7.02883 40.0084 6.78351 39.4283 6.81175 38.6038C6.89865 37.8946 7.21463 37.42 7.76829 36.9789C8.33933 36.5937 8.88173 36.5017 9.56236 36.5625C9.69292 36.6001 9.69292 36.6001 9.82612 36.6384C10.1354 36.6887 10.1354 36.6887 10.3721 36.4761C10.4532 36.3886 10.5342 36.3011 10.6178 36.2109C10.6619 36.1648 10.706 36.1187 10.7514 36.0711C10.8919 35.9239 11.03 35.7747 11.1678 35.625C11.3065 35.4755 11.4456 35.3265 11.5863 35.1789C11.7136 35.0451 11.839 34.9096 11.9644 34.7739C12.1874 34.5938 12.1874 34.5938 12.3901 34.6015ZM8.43736 38.625C8.43736 38.9317 8.4742 39.105 8.6483 39.3574C8.86767 39.5063 9.01541 39.5499 9.28111 39.5625C9.54896 39.4831 9.54896 39.4831 9.74986 39.2813C9.87517 38.9666 9.87517 38.9666 9.84361 38.625C9.63243 38.3331 9.49299 38.1858 9.14049 38.0977C8.79145 38.1849 8.64896 38.3387 8.43736 38.625Z" fill="#FF7705"></path>
    <path d="M35.704 34.6028C35.9887 34.7223 36.1433 34.9051 36.3533 35.1306C36.4384 35.2196 36.5235 35.3085 36.6111 35.4001C36.7453 35.5419 36.8789 35.6841 37.0116 35.8273C37.1403 35.9657 37.2712 36.1019 37.4021 36.238C37.4793 36.3204 37.5564 36.4028 37.6359 36.4877C37.8666 36.6881 37.8666 36.6881 38.1724 36.6369C38.2598 36.6124 38.3471 36.5878 38.4371 36.5625C39.0916 36.4917 39.6477 36.6017 40.2183 36.9375C40.76 37.3969 41.0832 37.9375 41.1851 38.6393C41.222 39.2944 41.0424 39.9103 40.6153 40.4139C40.102 40.8939 39.5749 41.1577 38.8707 41.1973C38.1369 41.1644 37.5779 40.9074 37.0777 40.3711C36.5559 39.7231 36.5112 39.1561 36.5621 38.3438C36.587 38.2712 36.612 38.1986 36.6378 38.1239C36.6846 37.8587 36.6846 37.8587 36.4756 37.6384C36.3881 37.5568 36.3006 37.4753 36.2105 37.3912C36.1644 37.347 36.1182 37.3028 36.0707 37.2572C35.9233 37.116 35.7741 36.9768 35.6246 36.8379C35.4751 36.6986 35.3261 36.5589 35.1784 36.4176C35.0446 36.2895 34.9091 36.1632 34.7735 36.037C34.5933 35.8125 34.5933 35.8125 34.6011 35.6096C34.7263 35.3591 34.895 35.1852 35.0914 34.9863C35.201 34.8723 35.201 34.8723 35.3129 34.756C35.5308 34.5938 35.5308 34.5938 35.704 34.6028ZM38.1558 38.625C38.1495 38.9884 38.1712 39.1884 38.4078 39.4688C38.7039 39.5968 38.8798 39.5537 39.1871 39.4688C39.497 39.3052 39.497 39.3052 39.5621 38.9707C39.5958 38.615 39.5958 38.615 39.3628 38.3496C39.1142 38.1462 39.1142 38.1462 38.8589 38.0977C38.5064 38.1858 38.367 38.3331 38.1558 38.625Z" fill="#FF7705"></path>
    <path d="M10.5935 7.3125C11.0833 7.76555 11.414 8.18829 11.4504 8.87255C11.4619 9.58476 11.4619 9.58476 11.3616 9.87611C11.3147 10.1413 11.3147 10.1413 11.5237 10.3616C11.6112 10.4432 11.6987 10.5247 11.7888 10.6088C11.8349 10.653 11.8811 10.6972 11.9286 10.7428C12.0761 10.884 12.2252 11.0232 12.3747 11.1621C12.5242 11.3014 12.6732 11.4411 12.8209 11.5824C12.9547 11.7105 13.0902 11.8368 13.2258 11.963C13.406 12.1875 13.406 12.1875 13.3982 12.3904C13.2731 12.6409 13.1043 12.8148 12.908 13.0137C12.8348 13.0897 12.7617 13.1657 12.6864 13.244C12.4685 13.4062 12.4685 13.4062 12.2956 13.3972C12.0103 13.2776 11.854 13.0944 11.6427 12.8694C11.5572 12.7804 11.4717 12.6915 11.3836 12.5998C11.2487 12.458 11.1143 12.3157 10.9807 12.1727C10.851 12.0346 10.7195 11.8982 10.588 11.762C10.5104 11.6796 10.4327 11.5972 10.3527 11.5123C10.1385 11.3154 10.1385 11.3154 9.87653 11.3631C9.80375 11.3876 9.73098 11.4122 9.656 11.4375C8.96122 11.5017 8.37084 11.4587 7.781 11.0625C7.24522 10.5913 6.91691 10.0681 6.8142 9.36071C6.77728 8.70428 6.96072 8.09782 7.37743 7.58606C8.26304 6.73451 9.57954 6.57984 10.5935 7.3125ZM8.62475 8.625C8.44597 8.86337 8.4367 8.9865 8.44897 9.28711C8.5115 9.56367 8.5115 9.56367 8.68334 9.74414C9.01036 9.89043 9.2214 9.84295 9.56225 9.75C9.76537 9.60937 9.76537 9.60937 9.8435 9.375C9.8372 9.01615 9.82922 8.8037 9.57983 8.5371C9.22331 8.36394 8.94239 8.41323 8.62475 8.625Z" fill="#FF7705"></path>
    <path d="M40.3124 7.31251C40.7778 7.73775 41.1074 8.22831 41.1859 8.86597C41.2174 9.59674 41.0864 10.1641 40.5882 10.7124C39.945 11.3154 39.4652 11.4594 38.5953 11.4533C38.3437 11.4375 38.3437 11.4375 38.1238 11.3618C37.8586 11.315 37.8586 11.315 37.6383 11.5239C37.5568 11.6114 37.4752 11.6989 37.3912 11.7891C37.347 11.8352 37.3027 11.8813 37.2572 11.9289C37.116 12.0763 36.9768 12.2254 36.8378 12.375C36.6985 12.5245 36.5588 12.6735 36.4175 12.8211C36.2894 12.955 36.1631 13.0905 36.0369 13.2261C35.8124 13.4063 35.8124 13.4063 35.6095 13.3985C35.359 13.2733 35.1852 13.1045 34.9863 12.9082C34.9103 12.8351 34.8342 12.762 34.7559 12.6867C34.5937 12.4688 34.5937 12.4688 34.6027 12.2958C34.7223 12.0105 34.9055 11.8542 35.1306 11.643C35.2195 11.5574 35.3084 11.4719 35.4001 11.3839C35.542 11.249 35.6842 11.1146 35.8273 10.9809C35.9654 10.8513 36.1017 10.7198 36.238 10.5883C36.3204 10.5106 36.4027 10.433 36.4876 10.353C36.6845 10.1387 36.6845 10.1387 36.6371 9.87658C36.6124 9.80387 36.5878 9.73117 36.5624 9.65626C36.4804 8.89321 36.5918 8.32323 37.0312 7.68751C37.8468 6.70627 39.2864 6.58215 40.3124 7.31251ZM38.2499 8.71876C38.1246 9.03337 38.1246 9.03337 38.1562 9.37501C38.3281 9.67188 38.3281 9.67188 38.6249 9.84376C38.9852 9.84997 39.1867 9.82679 39.4687 9.59766C39.6078 9.26722 39.5677 9.05925 39.4687 8.71876C39.0273 8.35868 38.6913 8.35868 38.2499 8.71876Z" fill="#FF7705"></path>
    <path d="M4.07266 21.8906C4.59647 22.2067 5.00847 22.6573 5.15665 23.25C6.17759 23.25 7.19852 23.25 8.2504 23.25C8.2504 23.745 8.2504 24.24 8.2504 24.75C7.22946 24.75 6.20852 24.75 5.15665 24.75C5.09477 24.9047 5.0329 25.0594 4.96915 25.2188C4.63587 25.6989 4.25328 26.1414 3.65665 26.25C2.9166 26.3198 2.19778 26.3598 1.59415 25.875C1.12116 25.4246 0.787371 25.0161 0.718904 24.3497C0.710102 23.5513 0.739361 22.9991 1.30081 22.4095C2.05482 21.7126 3.09011 21.4552 4.07266 21.8906ZM2.49649 23.4961C2.29849 23.7855 2.28678 23.937 2.34415 24.2813C2.48477 24.5156 2.48477 24.5156 2.71915 24.6563C3.06337 24.7136 3.21491 24.7019 3.5043 24.5039C3.70231 24.2145 3.71402 24.063 3.65665 23.7188C3.51602 23.4844 3.51602 23.4844 3.28165 23.3438C2.93743 23.2864 2.78589 23.2981 2.49649 23.4961Z" fill="#FF7705"></path>
    <path d="M46.0723 21.8906C46.6183 22.2206 47.0608 22.7334 47.25 23.3437C47.3255 24.0784 47.3554 24.8081 46.875 25.4062C46.4246 25.8792 46.0161 26.213 45.3497 26.2815C44.5482 26.2903 43.9975 26.2598 43.4062 25.6963C43.1082 25.3742 42.9523 25.1843 42.8438 24.75C41.8228 24.75 40.8019 24.75 39.75 24.75C39.75 24.255 39.75 23.76 39.75 23.25C40.7709 23.25 41.7919 23.25 42.8438 23.25C42.9056 23.0953 42.9675 22.9406 43.0312 22.7812C43.6999 21.757 44.9225 21.3886 46.0723 21.8906ZM44.4961 23.4961C44.2981 23.7855 44.2864 23.937 44.3438 24.2812C44.4844 24.5156 44.4844 24.5156 44.7188 24.6562C45.063 24.7136 45.2145 24.7019 45.5039 24.5039C45.7019 24.2145 45.7136 24.063 45.6562 23.7187C45.5156 23.4844 45.5156 23.4844 45.2812 23.3437C44.937 23.2864 44.7855 23.2981 44.4961 23.4961Z" fill="#FF7705"></path>
    <path d="M25.0722 0.890624C25.6183 1.22062 26.0608 1.7334 26.25 2.34375C26.3254 3.07824 26.3555 3.80824 25.875 4.40625C25.5217 4.77688 25.2531 5.03047 24.75 5.15625C24.75 6.17719 24.75 7.19812 24.75 8.25C24.255 8.25 23.76 8.25 23.25 8.25C23.25 7.22906 23.25 6.20812 23.25 5.15625C23.0953 5.09437 22.9406 5.0325 22.7812 4.96875C22.2825 4.64317 21.9056 4.23832 21.75 3.65625C21.676 3.00315 21.6437 2.33624 21.9935 1.75745C22.748 0.818025 23.9041 0.372982 25.0722 0.890624ZM23.4961 2.49609C23.298 2.78549 23.2863 2.93703 23.3437 3.28125C23.4843 3.51562 23.4843 3.51562 23.7187 3.65625C24.0629 3.71362 24.2145 3.70191 24.5039 3.50391C24.7019 3.21451 24.7136 3.06297 24.6562 2.71875C24.5156 2.48437 24.5156 2.48437 24.2812 2.34375C23.937 2.28638 23.7854 2.29809 23.4961 2.49609Z" fill="#FF7705"></path>
  </g>
  <defs>
    <clipPath id="clip0_3748_1120">
      <rect width="48" height="48" fill="white"></rect>
    </clipPath>
  </defs>
</svg>
