<?xml version="1.0" encoding="UTF-8"?>
<svg xmlns="http://www.w3.org/2000/svg" width="48" height="48" viewBox="0 0 48 48" fill="none">
  <path d="M7.49964 21.2812C7.65649 21.3822 7.65649 21.3822 7.78089 21.5625C7.80541 21.8051 7.81366 22.0246 7.80835 22.2667C7.80796 22.335 7.80756 22.4032 7.80715 22.4736C7.80558 22.6914 7.80205 22.9091 7.79847 23.1269C7.79706 23.2747 7.79577 23.4225 7.79462 23.5702C7.79152 23.9323 7.78667 24.2942 7.78089 24.6562C7.85882 24.6559 7.93674 24.6555 8.01703 24.6552C9.91204 24.6469 11.807 24.6407 13.7021 24.6368C14.6185 24.6349 15.5349 24.6322 16.4513 24.6279C17.2499 24.6242 18.0485 24.6218 18.8472 24.6209C19.2701 24.6205 19.6931 24.6193 20.1161 24.6166C20.5141 24.614 20.912 24.6132 21.31 24.6138C21.4562 24.6137 21.6024 24.613 21.7485 24.6115C21.948 24.6097 22.1473 24.6101 22.3467 24.6111C22.5142 24.6106 22.5142 24.6106 22.6851 24.6101C22.9684 24.6562 22.9684 24.6562 23.1919 24.8077C23.3931 25.1046 23.3896 25.2952 23.3885 25.6529C23.3888 25.7152 23.3891 25.7776 23.3895 25.8418C23.3901 26.0506 23.388 26.2592 23.386 26.468C23.3859 26.6177 23.3859 26.7673 23.3861 26.917C23.3862 27.3234 23.384 27.7297 23.3814 28.1361C23.3791 28.5607 23.3788 28.9854 23.3784 29.41C23.3772 30.2142 23.3742 31.0183 23.3704 31.8225C23.3662 32.738 23.3641 33.6535 23.3623 34.569C23.3583 36.4522 23.3517 38.3355 23.3434 40.2187C23.4818 40.2165 23.4818 40.2165 23.6229 40.2143C23.9652 40.2092 24.3074 40.2059 24.6497 40.2033C24.7979 40.2019 24.946 40.1999 25.0941 40.1975C25.3071 40.1941 25.52 40.1925 25.7329 40.1913C25.8322 40.1891 25.8322 40.1891 25.9336 40.1869C26.3911 40.1867 26.3911 40.1867 26.617 40.3439C26.7706 40.5804 26.795 40.7833 26.8121 41.0625C26.7216 41.3202 26.6827 41.4084 26.4371 41.5312C26.1803 41.5408 25.9259 41.5447 25.6691 41.5444C25.5887 41.5447 25.5084 41.545 25.4256 41.5452C25.1547 41.5461 24.8839 41.5462 24.6131 41.5463C24.4195 41.5468 24.226 41.5472 24.0325 41.5477C23.5056 41.549 22.9788 41.5496 22.4519 41.55C22.1231 41.5503 21.7943 41.5507 21.4655 41.5511C20.4377 41.5524 19.4098 41.5533 18.382 41.5536C17.1937 41.554 16.0054 41.5557 14.8171 41.5584C13.8998 41.5604 12.9824 41.5614 12.0651 41.5615C11.5166 41.5616 10.9681 41.5622 10.4197 41.5638C9.90405 41.5654 9.38844 41.5656 8.8728 41.5648C8.68319 41.5647 8.49358 41.5651 8.30397 41.566C8.04583 41.5672 7.78775 41.5667 7.52961 41.5657C7.45396 41.5664 7.3783 41.5672 7.30035 41.568C7.03087 41.5656 6.80601 41.5596 6.5625 41.4372C6.40726 41.1284 6.42987 40.8085 6.43267 40.4706C6.43224 40.3902 6.4318 40.3098 6.43134 40.2269C6.43022 39.9563 6.43111 39.6858 6.432 39.4153C6.43162 39.2217 6.43111 39.0282 6.4305 38.8346C6.42922 38.3082 6.42972 37.7817 6.43061 37.2552C6.43132 36.7051 6.43066 36.1549 6.43022 35.6048C6.42971 34.6808 6.43038 33.7568 6.43172 32.8328C6.43325 31.7635 6.43276 30.6943 6.43121 29.625C6.42993 28.708 6.42975 27.7911 6.43049 26.8741C6.43093 26.3259 6.43098 25.7778 6.43006 25.2297C6.42925 24.7144 6.4298 24.1992 6.43143 23.6839C6.43181 23.4945 6.4317 23.305 6.43108 23.1155C6.43031 22.8576 6.43127 22.5997 6.43267 22.3418C6.43205 22.2662 6.43142 22.1906 6.43077 22.1128C6.43615 21.6076 6.43615 21.6076 6.59953 21.379C6.93378 21.1613 7.11131 21.1861 7.49964 21.2812ZM7.78089 26.0625C7.78089 30.734 7.78089 35.4056 7.78089 40.2187C12.4525 40.2187 17.124 40.2187 21.9371 40.2187C21.9371 35.5472 21.9371 30.8756 21.9371 26.0625C17.2656 26.0625 12.594 26.0625 7.78089 26.0625Z" fill="#FF7705"></path>
  <path d="M34.0004 10.9156C34.0884 10.9151 34.1765 10.9145 34.2672 10.9139C34.4532 10.9132 34.6392 10.9135 34.8251 10.9147C35.1098 10.916 35.3941 10.9128 35.6787 10.9092C35.8595 10.9091 36.0403 10.9093 36.2211 10.9098C36.3487 10.9079 36.3487 10.9079 36.4788 10.906C36.8589 10.9116 37.0602 10.9181 37.3677 11.1535C37.5504 11.5418 37.5518 11.8661 37.5446 12.2904C37.5445 12.3721 37.5444 12.4538 37.5443 12.5379C37.5437 12.7101 37.5423 12.8823 37.5399 13.0544C37.5365 13.3178 37.5361 13.581 37.5361 13.8444C37.5352 14.0119 37.5341 14.1795 37.5328 14.347C37.5326 14.4256 37.5324 14.5043 37.5322 14.5853C37.531 14.6588 37.5298 14.7323 37.5286 14.8081C37.5279 14.8725 37.5272 14.9369 37.5264 15.0032C37.496 15.2267 37.4364 15.3731 37.3138 15.5625C37.0033 15.6972 37.0033 15.6972 36.6576 15.75C36.377 15.628 36.2327 15.5564 36.0951 15.2812C36.0642 14.6934 36.0332 14.1056 36.0013 13.5C33.2479 16.2534 30.4945 19.0069 27.6576 21.8437C28.2454 21.8747 28.8332 21.9056 29.4388 21.9375C29.8138 22.3125 29.8138 22.3125 29.8607 22.6406C29.8138 22.9687 29.8138 22.9687 29.6787 23.1736C29.3175 23.4297 28.9868 23.3975 28.5541 23.3935C28.4681 23.3939 28.3821 23.3943 28.2935 23.3946C28.112 23.3949 27.9304 23.3942 27.7489 23.3926C27.4711 23.3906 27.1935 23.3926 26.9156 23.395C26.7391 23.3948 26.5626 23.3943 26.3861 23.3935C26.3031 23.3943 26.2201 23.3951 26.1345 23.3958C25.7921 23.3906 25.5636 23.3785 25.2617 23.2097C25.0521 22.8365 25.0728 22.4847 25.0765 22.0635C25.0762 21.9754 25.0758 21.8873 25.0755 21.7966C25.0752 21.6106 25.0759 21.4247 25.0775 21.2387C25.0795 20.9541 25.0775 20.6697 25.0751 20.3851C25.0753 20.2043 25.0758 20.0235 25.0765 19.8428C25.0758 19.7577 25.075 19.6726 25.0742 19.585C25.083 18.9979 25.083 18.9979 25.2994 18.6963C25.5767 18.5126 25.7377 18.5081 26.0638 18.5625C26.3308 18.7717 26.4248 18.8953 26.5326 19.2187C26.5635 19.7137 26.5945 20.2087 26.6263 20.7187C29.3488 17.9962 32.0713 15.2737 34.8763 12.4687C34.3504 12.4378 33.8245 12.4069 33.2826 12.375C32.8138 12.0937 32.8138 12.0937 32.7201 11.9062C32.6857 11.5903 32.6762 11.4106 32.8528 11.1412C33.2196 10.8801 33.5603 10.9132 34.0004 10.9156Z" fill="#FF7705"></path>
  <path d="M40.8733 37.9336C40.969 37.9325 40.969 37.9325 41.0667 37.9314C41.3137 37.9822 41.3803 38.0454 41.5295 38.25C41.5659 38.5529 41.5659 38.5529 41.5669 38.9238C41.5672 38.9894 41.5674 39.0549 41.5677 39.1224C41.5679 39.2608 41.5674 39.3991 41.5662 39.5375C41.5647 39.7493 41.5662 39.9609 41.568 40.1726C41.5678 40.3071 41.5674 40.4417 41.5669 40.5762C41.5666 40.6986 41.5663 40.821 41.5659 40.9471C41.5295 41.25 41.5295 41.25 41.4287 41.4304C41.1466 41.5881 40.8953 41.5678 40.5745 41.5686C40.5089 41.5689 40.4434 41.5691 40.3759 41.5694C40.2375 41.5696 40.0992 41.5691 39.9608 41.5679C39.749 41.5664 39.5374 41.5679 39.3257 41.5697C39.1912 41.5695 39.0566 41.5692 38.9221 41.5686C38.7997 41.5683 38.6773 41.568 38.5511 41.5676C38.2483 41.5312 38.2483 41.5312 38.0679 41.3996C37.9421 41.2131 37.9293 41.0989 37.9319 40.875C37.9312 40.8112 37.9304 40.7474 37.9297 40.6816C37.9789 40.4422 38.0568 40.369 38.2483 40.2188C38.4609 40.1868 38.4609 40.1868 38.7064 40.1913C38.8383 40.1926 38.8383 40.1926 38.9728 40.194C39.1102 40.1976 39.1102 40.1976 39.2502 40.2012C39.3429 40.2024 39.4355 40.2037 39.5309 40.205C39.7597 40.2083 39.9883 40.213 40.217 40.2188C40.2156 40.1606 40.2141 40.1024 40.2126 40.0425C40.2067 39.779 40.2031 39.5155 40.1995 39.252C40.1971 39.1604 40.1947 39.0689 40.1923 38.9745C40.1914 38.8866 40.1905 38.7987 40.1896 38.7081C40.1881 38.6271 40.1866 38.5461 40.1851 38.4627C40.2462 38.056 40.4837 37.9292 40.8733 37.9336Z" fill="#FF7705"></path>
  <path d="M38.9221 6.43127C38.9876 6.43101 39.0532 6.43074 39.1207 6.43046C39.259 6.43027 39.3974 6.43079 39.5358 6.43196C39.7476 6.43347 39.9591 6.43197 40.1709 6.43018C40.3054 6.43036 40.4399 6.43072 40.5745 6.43127C40.6969 6.43159 40.8193 6.43191 40.9454 6.43224C41.2483 6.46863 41.2483 6.46863 41.4287 6.56947C41.5864 6.85162 41.5661 7.10287 41.5669 7.42371C41.5672 7.48923 41.5674 7.55475 41.5677 7.62226C41.5679 7.76064 41.5674 7.89901 41.5662 8.03738C41.5647 8.24914 41.5662 8.46073 41.568 8.67249C41.5678 8.80701 41.5674 8.94153 41.5669 9.07605C41.5666 9.19847 41.5663 9.32089 41.5659 9.44702C41.5295 9.74988 41.5295 9.74988 41.3979 9.93028C41.2114 10.056 41.0972 10.0688 40.8733 10.0663C40.7776 10.0674 40.7776 10.0674 40.6799 10.0685C40.4405 10.0192 40.3673 9.94132 40.217 9.74988C40.1851 9.53722 40.1851 9.53722 40.1896 9.29175C40.1905 9.20383 40.1914 9.11591 40.1923 9.02533C40.1947 8.93379 40.197 8.84224 40.1995 8.74792C40.2014 8.60898 40.2014 8.60898 40.2033 8.46722C40.2066 8.23847 40.2113 8.00983 40.217 7.78113C40.1298 7.78334 40.1298 7.78334 40.0408 7.78559C39.7773 7.79144 39.5138 7.7951 39.2502 7.79871C39.1129 7.80224 39.1129 7.80224 38.9728 7.80585C38.841 7.80721 38.841 7.80721 38.7064 7.80859C38.6254 7.81007 38.5444 7.81154 38.4609 7.81306C38.2032 7.77436 38.1229 7.70472 37.967 7.49988C37.9297 7.31824 37.9297 7.31824 37.9319 7.12488C37.9312 7.06107 37.9304 6.99726 37.9297 6.93152C38.0393 6.3984 38.4538 6.43249 38.9221 6.43127Z" fill="#FF7705"></path>
  <path d="M7.42322 6.43127C7.48874 6.43101 7.55426 6.43074 7.62177 6.43046C7.76015 6.43027 7.89853 6.43079 8.0369 6.43196C8.24865 6.43347 8.46024 6.43197 8.672 6.43018C8.80652 6.43036 8.94104 6.43072 9.07556 6.43127C9.19798 6.43159 9.3204 6.43191 9.44653 6.43224C9.74939 6.46863 9.74939 6.46863 9.92979 6.60023C10.0555 6.78682 10.0683 6.90099 10.0658 7.12488C10.0669 7.22059 10.0669 7.22059 10.068 7.31824C10.0188 7.55769 9.94084 7.6309 9.74939 7.78113C9.53674 7.81306 9.53674 7.81306 9.29126 7.80859C9.20334 7.80769 9.11542 7.80678 9.02484 7.80585C8.9333 7.80349 8.84175 7.80113 8.74744 7.79871C8.60849 7.7968 8.60849 7.7968 8.46674 7.79486C8.23799 7.79155 8.00934 7.78692 7.78064 7.78113C7.78285 7.86838 7.78285 7.86838 7.7851 7.95739C7.79095 8.22089 7.79461 8.48438 7.79822 8.74792C7.80175 8.88524 7.80175 8.88524 7.80536 9.02533C7.80672 9.15721 7.80672 9.15721 7.80811 9.29175C7.81031 9.41326 7.81031 9.41326 7.81257 9.53722C7.77388 9.79493 7.70423 9.87528 7.49939 10.0311C7.31775 10.0685 7.31775 10.0685 7.12439 10.0663C7.02868 10.0674 7.02868 10.0674 6.93103 10.0685C6.68402 10.0177 6.61742 9.9545 6.46814 9.74988C6.43175 9.44702 6.43175 9.44702 6.43079 9.07605C6.43052 9.01053 6.43025 8.945 6.42997 8.87749C6.42978 8.73912 6.4303 8.60074 6.43147 8.46237C6.43298 8.25061 6.43149 8.03902 6.42969 7.82727C6.42987 7.69275 6.43023 7.55823 6.43079 7.42371C6.4311 7.30129 6.43142 7.17886 6.43175 7.05273C6.46814 6.74988 6.46814 6.74988 6.56898 6.56947C6.85113 6.41176 7.10238 6.43211 7.42322 6.43127Z" fill="#FF7705"></path>
  <path d="M30.3795 40.1808C30.4759 40.1796 30.5722 40.1784 30.6715 40.1772C30.7755 40.1774 30.8795 40.1777 30.9867 40.178C31.1471 40.1773 31.1471 40.1773 31.3107 40.1765C31.5369 40.1759 31.7632 40.176 31.9894 40.1768C32.336 40.1776 32.6824 40.1749 33.0289 40.172C33.2485 40.1718 33.4682 40.1719 33.6879 40.1721C33.7917 40.1711 33.8955 40.17 34.0025 40.1689C34.0991 40.1698 34.1958 40.1707 34.2954 40.1716C34.3803 40.1716 34.4652 40.1716 34.5527 40.1717C34.8545 40.2338 34.967 40.355 35.156 40.5936C35.2029 40.8749 35.2029 40.8749 35.156 41.1561C34.9673 41.3941 34.854 41.5157 34.5534 41.5794C34.4687 41.58 34.3841 41.5806 34.2969 41.5812C34.2005 41.5826 34.1041 41.5841 34.0049 41.5857C33.9013 41.5852 33.7978 41.5847 33.6912 41.5842C33.5844 41.5848 33.4776 41.5854 33.3676 41.586C33.1419 41.5867 32.9162 41.5864 32.6905 41.5852C32.3448 41.5839 31.9993 41.5871 31.6536 41.5907C31.4343 41.5907 31.2151 41.5906 30.9958 41.5901C30.8406 41.592 30.8406 41.592 30.6821 41.5939C29.9689 41.5852 29.9689 41.5852 29.65 41.3114C29.497 40.9913 29.5156 40.8346 29.6248 40.4999C29.8476 40.2033 30.0171 40.1829 30.3795 40.1808Z" fill="#FF7705"></path>
  <path d="M41.2502 29.625C41.459 29.7818 41.5241 29.8624 41.5678 30.1226C41.5683 30.2075 41.5688 30.2923 41.5694 30.3797C41.5705 30.4761 41.5717 30.5725 41.573 30.6718C41.5727 30.7758 41.5724 30.8798 41.5721 30.9869C41.5726 31.0939 41.5731 31.2008 41.5736 31.3109C41.5742 31.5372 41.5741 31.7634 41.5733 31.9897C41.5725 32.3362 41.5752 32.6826 41.5782 33.0291C41.5783 33.2488 41.5783 33.4684 41.578 33.6881C41.5796 33.8438 41.5796 33.8438 41.5812 34.0027C41.5803 34.0994 41.5794 34.196 41.5785 34.2956C41.5785 34.3806 41.5785 34.4655 41.5785 34.553C41.5163 34.8548 41.3951 34.9673 41.1565 35.1562C40.8752 35.2031 40.8752 35.2031 40.594 35.1562C40.3561 34.9676 40.2344 34.8542 40.1707 34.5536C40.1701 34.469 40.1696 34.3843 40.169 34.2971C40.1667 34.1526 40.1667 34.1526 40.1645 34.0051C40.1649 33.9016 40.1654 33.7981 40.1659 33.6914C40.1653 33.5846 40.1647 33.4778 40.1641 33.3678C40.1634 33.1421 40.1637 32.9164 40.1649 32.6907C40.1662 32.345 40.163 31.9995 40.1595 31.6538C40.1594 31.4346 40.1596 31.2153 40.16 30.9961C40.1588 30.8926 40.1575 30.789 40.1562 30.6824C40.1649 29.9692 40.1649 29.9692 40.4387 29.6503C40.7589 29.4972 40.9155 29.5159 41.2502 29.625Z" fill="#FF7705"></path>
  <path d="M7.12392 12.7969C7.47154 12.8548 7.56167 12.9475 7.78017 13.2188C7.82842 13.4464 7.82842 13.4464 7.83018 13.7029C7.83241 13.8474 7.83241 13.8474 7.83468 13.9949C7.83421 14.0984 7.83375 14.2019 7.83327 14.3086C7.83414 14.4688 7.83414 14.4688 7.83503 14.6322C7.8357 14.8579 7.8354 15.0836 7.83421 15.3093C7.83291 15.655 7.8361 16.0005 7.83968 16.3462C7.83977 16.5654 7.83959 16.7847 7.83913 17.0039C7.84037 17.1074 7.84161 17.211 7.8429 17.3176C7.8342 18.0308 7.8342 18.0308 7.56042 18.3497C7.24028 18.5028 7.08361 18.4841 6.74892 18.375C6.54016 18.2182 6.47504 18.1376 6.43132 17.8774C6.43082 17.7925 6.43031 17.7077 6.42979 17.6203C6.4286 17.5239 6.42741 17.4275 6.42619 17.3282C6.42646 17.2242 6.42674 17.1202 6.42702 17.0131C6.42653 16.9061 6.42604 16.7992 6.42553 16.6891C6.42493 16.4628 6.42505 16.2366 6.42585 16.0103C6.42665 15.6638 6.42396 15.3174 6.42098 14.9709C6.42083 14.7512 6.42088 14.5316 6.42116 14.3119C6.42011 14.2081 6.41905 14.1043 6.41797 13.9973C6.41885 13.9006 6.41973 13.804 6.42063 13.7044C6.42065 13.6194 6.42066 13.5345 6.42068 13.447C6.50402 13.0421 6.72574 12.8632 7.12392 12.7969Z" fill="#FF7705"></path>
  <path d="M30.3795 6.43077C30.4759 6.42958 30.5722 6.42839 30.6715 6.42716C30.7755 6.42744 30.8795 6.42771 30.9867 6.428C31.1471 6.42726 31.1471 6.42726 31.3107 6.42651C31.5369 6.4259 31.7632 6.42603 31.9894 6.42683C32.336 6.42763 32.6824 6.42493 33.0289 6.42195C33.2485 6.4218 33.4682 6.42186 33.6879 6.42214C33.7917 6.42108 33.8955 6.42003 34.0025 6.41895C34.0991 6.41982 34.1958 6.4207 34.2954 6.42161C34.3803 6.42163 34.4652 6.42164 34.5527 6.42166C34.8545 6.48378 34.967 6.60501 35.156 6.84365C35.2029 7.1249 35.2029 7.1249 35.156 7.40615C34.9673 7.64406 34.854 7.76568 34.5534 7.8294C34.4687 7.82998 34.3841 7.83056 34.2969 7.83116C34.2005 7.83264 34.1041 7.83413 34.0049 7.83566C33.9013 7.83519 33.7978 7.83473 33.6912 7.83425C33.5844 7.83483 33.4776 7.83541 33.3676 7.83601C33.1419 7.83667 32.9162 7.83637 32.6905 7.83518C32.3448 7.83388 31.9993 7.83708 31.6536 7.84065C31.4343 7.84074 31.2151 7.84057 30.9958 7.84011C30.8406 7.84197 30.8406 7.84197 30.6821 7.84387C29.9689 7.83518 29.9689 7.83518 29.65 7.5614C29.497 7.24126 29.5156 7.08459 29.6248 6.7499C29.8476 6.45327 30.0171 6.43293 30.3795 6.43077Z" fill="#FF7705"></path>
  <path d="M13.7029 6.41872C13.7992 6.41724 13.8956 6.41575 13.9949 6.41422C14.1502 6.41492 14.1502 6.41492 14.3086 6.41563C14.4154 6.41505 14.5222 6.41447 14.6322 6.41387C14.8579 6.41321 15.0836 6.4135 15.3093 6.41469C15.655 6.41599 16.0005 6.4128 16.3462 6.40922C16.5654 6.40913 16.7847 6.40931 17.0039 6.40977C17.1592 6.40791 17.1592 6.40791 17.3176 6.40601C18.0308 6.4147 18.0308 6.4147 18.3497 6.68848C18.5028 7.00862 18.4841 7.16529 18.375 7.49998C18.2182 7.70875 18.1376 7.77387 17.8774 7.81758C17.7501 7.81834 17.7501 7.81834 17.6203 7.81911C17.5239 7.8203 17.4275 7.82149 17.3282 7.82272C17.1722 7.8223 17.1722 7.8223 17.0131 7.82188C16.8527 7.82262 16.8527 7.82262 16.6891 7.82337C16.4628 7.82397 16.2366 7.82385 16.0103 7.82305C15.6638 7.82225 15.3174 7.82495 14.9709 7.82792C14.7512 7.82808 14.5316 7.82802 14.3119 7.82774C14.2081 7.82879 14.1043 7.82985 13.9973 7.83093C13.9006 7.83005 13.804 7.82917 13.7044 7.82827C13.6194 7.82825 13.5345 7.82824 13.447 7.82822C13.1452 7.7661 13.0327 7.64487 12.8438 7.40623C12.7969 7.12498 12.7969 7.12498 12.8438 6.84373C13.1095 6.50867 13.2785 6.42164 13.7029 6.41872Z" fill="#FF7705"></path>
  <path d="M41.2493 21.2814C41.4602 21.437 41.5233 21.5185 41.5663 21.7796C41.5665 21.8647 41.5667 21.9499 41.5669 22.0376C41.5683 22.1826 41.5683 22.1826 41.5696 22.3305C41.5691 22.4348 41.5685 22.5391 41.5679 22.6466C41.5683 22.8073 41.5683 22.8073 41.5687 22.9713C41.5689 23.1979 41.5684 23.4246 41.5672 23.6512C41.5657 23.9987 41.5672 24.3462 41.569 24.6937C41.5688 24.9137 41.5685 25.1337 41.5679 25.3536C41.5688 25.5101 41.5688 25.5101 41.5696 25.6697C41.5687 25.7664 41.5679 25.863 41.5669 25.9626C41.5667 26.0478 41.5665 26.1329 41.5663 26.2206C41.5233 26.4816 41.4594 26.5626 41.2493 26.7189C40.9506 26.8015 40.7648 26.84 40.47 26.7364C40.3118 26.6251 40.3118 26.6251 40.218 26.4376C40.2082 26.2831 40.2041 26.1281 40.2029 25.9733C40.202 25.8766 40.2011 25.7799 40.2002 25.6803C40.1998 25.5755 40.1994 25.4707 40.199 25.3628C40.1985 25.2555 40.1979 25.1482 40.1974 25.0377C40.1965 24.8105 40.1959 24.5833 40.1955 24.3561C40.1946 24.0077 40.1917 23.6594 40.1887 23.3111C40.1881 23.0907 40.1876 22.8703 40.1873 22.6499C40.1861 22.5453 40.185 22.4407 40.1838 22.3329C40.1841 22.236 40.1843 22.139 40.1846 22.0391C40.1843 21.9537 40.1839 21.8682 40.1836 21.7802C40.2249 21.5195 40.2937 21.4411 40.4993 21.2814C40.7746 21.1437 40.9557 21.2095 41.2493 21.2814Z" fill="#FF7705"></path>
  <path d="M40.8739 12.7969C41.2215 12.8548 41.3118 12.9473 41.5301 13.2188C41.5771 13.447 41.5771 13.447 41.5771 13.7044C41.578 13.801 41.5789 13.8977 41.5798 13.9973C41.5787 14.1011 41.5777 14.2049 41.5766 14.3119C41.5767 14.4189 41.5769 14.5259 41.577 14.6362C41.5769 14.8622 41.5758 15.0883 41.5738 15.3144C41.5711 15.6611 41.5719 16.0077 41.5731 16.3544C41.5725 16.574 41.5718 16.7935 41.5708 17.0131C41.571 17.1171 41.5713 17.2211 41.5716 17.3282C41.5698 17.4728 41.5698 17.4728 41.568 17.6203C41.5675 17.7051 41.567 17.79 41.5664 17.8774C41.5229 18.1367 41.4554 18.2173 41.2489 18.375C41.0262 18.457 41.0262 18.457 40.7801 18.4688C40.5661 18.3617 40.3873 18.2634 40.2176 18.0938C40.2069 17.9433 40.2026 17.7924 40.201 17.6415C40.1992 17.497 40.1992 17.497 40.1974 17.3495C40.1967 17.2445 40.196 17.1395 40.1953 17.0314C40.1945 16.9242 40.1937 16.817 40.193 16.7066C40.1917 16.4792 40.1907 16.2518 40.1899 16.0245C40.1883 15.6763 40.1842 15.3282 40.1801 14.98C40.1791 14.7595 40.1783 14.539 40.1777 14.3185C40.176 14.2141 40.1744 14.1097 40.1727 14.0021C40.173 13.9048 40.1733 13.8076 40.1735 13.7073C40.173 13.6219 40.1724 13.5364 40.1719 13.4483C40.2528 13.042 40.4751 12.8633 40.8739 12.7969Z" fill="#FF7705"></path>
  <path d="M22.025 6.45367C22.17 6.45232 22.17 6.45232 22.3179 6.45094C22.4227 6.45054 22.5275 6.45015 22.6354 6.44974C22.7427 6.4492 22.85 6.44867 22.9605 6.44812C23.1877 6.44723 23.4149 6.44662 23.6421 6.44626C23.9905 6.44535 24.3388 6.44244 24.6871 6.43948C24.9075 6.43887 25.1279 6.43838 25.3483 6.43802C25.5052 6.43628 25.5052 6.43628 25.6653 6.43451C25.7623 6.43479 25.8592 6.43507 25.9592 6.43536C26.0873 6.43485 26.0873 6.43485 26.218 6.43433C26.48 6.47581 26.5603 6.53916 26.7169 6.75003C26.7995 7.04868 26.838 7.23455 26.7344 7.52933C26.6231 7.68753 26.6231 7.68753 26.4356 7.78128C26.2811 7.79117 26.1261 7.79522 25.9713 7.79638C25.8263 7.79774 25.8263 7.79774 25.6783 7.79911C25.5735 7.79951 25.4688 7.79991 25.3608 7.80032C25.2535 7.80086 25.1462 7.80139 25.0357 7.80194C24.8085 7.80283 24.5813 7.80344 24.3541 7.8038C24.0057 7.80471 23.6574 7.80762 23.3091 7.81058C23.0887 7.81119 22.8683 7.81168 22.6479 7.81204C22.491 7.81378 22.491 7.81378 22.3309 7.81555C22.234 7.81527 22.137 7.81499 22.0371 7.8147C21.9517 7.81504 21.8663 7.81538 21.7783 7.81573C21.5162 7.77425 21.4359 7.7109 21.2794 7.50003C21.1968 7.20138 21.1582 7.01551 21.2618 6.72073C21.4688 6.42658 21.6879 6.4562 22.025 6.45367Z" fill="#FF7705"></path>
</svg>
