<?xml version="1.0" encoding="UTF-8"?>
<svg xmlns="http://www.w3.org/2000/svg" width="46" height="46" viewBox="0 0 46 46" fill="none">
  <path d="M33.2422 7.81626C33.3167 7.88088 33.3911 7.94551 33.4679 8.01209C36.4399 10.6342 38.3954 14.1817 38.8125 18.1483C38.8179 18.3129 38.8204 18.4777 38.8181 18.6424C38.8173 18.7193 38.8165 18.7962 38.8157 18.8755C38.8141 18.9602 38.8141 18.9602 38.8125 19.0467C38.9039 19.0584 38.9039 19.0584 38.9971 19.0702C39.99 19.2201 40.8402 19.606 41.4769 20.4003C41.9718 21.0977 42.178 21.7841 42.173 22.6352C42.174 22.7489 42.174 22.7489 42.1749 22.8649C42.1765 23.1128 42.1762 23.3608 42.1757 23.6088C42.1761 23.7827 42.1766 23.9567 42.1771 24.1306C42.1779 24.4942 42.1777 24.8578 42.1768 25.2214C42.1758 25.6856 42.1776 26.1496 42.1802 26.6137C42.1819 26.9727 42.1818 27.3316 42.1813 27.6906C42.1813 27.8616 42.1819 28.0326 42.183 28.2037C42.1901 29.464 42.0979 30.4202 41.2158 31.4002C40.3622 32.1763 39.6104 32.5098 38.4482 32.5517C38.3486 32.5555 38.249 32.5592 38.1464 32.5631C37.9925 32.5684 37.9925 32.5684 37.8355 32.5738C37.7308 32.5777 37.6261 32.5816 37.5182 32.5856C37.2609 32.5951 37.0035 32.6042 36.7461 32.6131C36.7026 32.7054 36.659 32.7977 36.6142 32.8928C35.2989 35.632 33.0461 37.5821 30.2098 38.6345C27.8218 39.4727 27.8218 39.4727 26.5938 39.4413C26.5715 39.5487 26.5493 39.6562 26.5264 39.7669C26.3251 40.5651 25.7594 41.0673 25.0896 41.4975C24.4956 41.7904 23.9379 41.8075 23.2864 41.8053C23.1605 41.8074 23.1605 41.8074 23.0321 41.8097C22.1141 41.8103 21.3406 41.6102 20.6641 40.9686C20.1061 40.3803 19.8558 39.715 19.8162 38.9078C19.8457 38.1241 20.1362 37.4631 20.6771 36.9004C21.4739 36.1622 22.188 36.0846 23.2527 36.0833C23.3538 36.0811 23.4548 36.0789 23.5589 36.0767C24.4982 36.0734 25.2122 36.2886 25.9024 36.9369C26.1486 37.2091 26.4141 37.5329 26.4141 37.9139C28.3417 37.5076 28.3417 37.5076 30.1875 36.8358C30.2474 36.8092 30.3073 36.7825 30.369 36.7551C31.2258 36.3673 31.9764 35.9117 32.7031 35.3084C32.8192 35.2145 32.8192 35.2145 32.9376 35.1186C33.7971 34.3885 34.421 33.5129 34.9492 32.5233C34.8858 32.5242 34.8224 32.5252 34.757 32.5261C34.4692 32.5299 34.1814 32.5322 33.8936 32.5345C33.7937 32.536 33.6939 32.5375 33.5911 32.5391C33.4949 32.5397 33.3988 32.5402 33.2998 32.5408C33.2113 32.5418 33.1229 32.5427 33.0317 32.5437C32.7818 32.5223 32.6416 32.4815 32.4336 32.3436C32.229 32.0367 32.2311 31.9272 32.2299 31.5666C32.2287 31.408 32.2287 31.408 32.2276 31.2463C32.2277 31.1302 32.2277 31.0141 32.2278 30.8945C32.2273 30.7712 32.2267 30.6478 32.226 30.5244C32.2244 30.1892 32.224 29.8539 32.2239 29.5187C32.2237 29.2389 32.223 28.9592 32.2224 28.6794C32.2209 28.0194 32.2205 27.3595 32.2206 26.6995C32.2207 26.0185 32.2188 25.3374 32.216 24.6564C32.2137 24.0718 32.2127 23.4873 32.2128 22.9027C32.2128 22.5535 32.2123 22.2043 32.2104 21.8551C32.2087 21.5267 32.2087 21.1984 32.21 20.87C32.2103 20.692 32.2088 20.5139 32.2072 20.3359C32.208 20.2299 32.2087 20.124 32.2095 20.0149C32.2094 19.9228 32.2093 19.8307 32.2092 19.7358C32.2657 19.4325 32.3772 19.3284 32.6133 19.1366C32.8401 19.0232 33.0007 19.0379 33.2534 19.0411C33.3352 19.0419 33.417 19.0427 33.5012 19.0436C33.5954 19.0451 33.5954 19.0451 33.6914 19.0467C33.2458 16.0574 32.0636 13.5219 29.6881 11.5816C29.4703 11.4239 29.2492 11.2804 29.0195 11.1405C28.9246 11.0816 28.8296 11.0228 28.7318 10.9622C26.3296 9.51098 23.4918 9.03882 20.7539 9.70298C19.1878 10.1095 17.7754 10.8242 16.5313 11.8592C16.4474 11.9284 16.3636 11.9975 16.2772 12.0687C14.3687 13.7186 13.191 16.1621 12.88 18.6477C12.8477 18.867 12.8477 18.867 12.7578 19.0467C12.8542 19.0541 12.9505 19.0616 13.0498 19.0692C13.4247 19.1442 13.5166 19.2006 13.7461 19.4959C13.7913 19.7356 13.7913 19.7356 13.7917 20.0143C13.7928 20.1201 13.7938 20.2259 13.7948 20.3349C13.7941 20.4506 13.7934 20.5664 13.7926 20.6857C13.7931 20.8091 13.7937 20.9325 13.7945 21.0558C13.7962 21.3907 13.7955 21.7256 13.7944 22.0604C13.7935 22.4109 13.7943 22.7613 13.7949 23.1118C13.7955 23.7003 13.7947 24.2888 13.793 24.8773C13.791 25.5577 13.7916 26.238 13.7936 26.9184C13.7953 27.5026 13.7955 28.0868 13.7945 28.6709C13.794 29.0198 13.7939 29.3687 13.7951 29.7176C13.7961 30.0457 13.7954 30.3736 13.7933 30.7017C13.7926 30.8795 13.7937 31.0573 13.7948 31.2351C13.7933 31.3938 13.7933 31.3938 13.7917 31.5558C13.7916 31.6477 13.7915 31.7397 13.7913 31.8344C13.7342 32.1373 13.6226 32.2417 13.3867 32.4334C13.1328 32.5604 12.9187 32.5361 12.6347 32.5378C12.5759 32.5382 12.5172 32.5387 12.4566 32.5391C12.2615 32.5404 12.0664 32.541 11.8713 32.5415C11.7352 32.5421 11.599 32.5426 11.4629 32.5431C11.1766 32.544 10.8904 32.5446 10.6041 32.5449C10.24 32.5454 9.87598 32.5475 9.5119 32.5501C9.23008 32.5518 8.94828 32.5522 8.66645 32.5524C8.53243 32.5526 8.39841 32.5533 8.2644 32.5545C6.92452 32.5656 5.88058 32.4067 4.86843 31.4845C4.16271 30.6981 3.85099 30.0449 3.8474 28.9872C3.84681 28.9117 3.84622 28.8361 3.84561 28.7582C3.84384 28.5082 3.84279 28.2583 3.84189 28.0083C3.84152 27.9226 3.84116 27.837 3.84078 27.7487C3.83891 27.2949 3.83762 26.8412 3.83678 26.3874C3.83579 25.9206 3.8327 25.4538 3.82913 24.987C3.82677 24.6265 3.82602 24.266 3.8257 23.9055C3.82527 23.7335 3.82423 23.5615 3.82256 23.3896C3.81113 22.138 3.88207 21.1415 4.73226 20.1512C5.43727 19.4568 6.3127 19.0423 7.30719 19.0408C7.47032 19.0437 7.47032 19.0437 7.63674 19.0467C7.6445 18.9399 7.65226 18.8332 7.66025 18.7231C7.90278 15.7324 8.87964 12.9196 10.6914 10.5116C10.7483 10.4357 10.8052 10.3599 10.8637 10.2817C13.44 6.96174 17.1445 4.89998 21.293 4.31235C21.3748 4.30054 21.4565 4.28872 21.5408 4.27655C25.6334 3.80186 30.1344 5.07603 33.2422 7.81626ZM16.4414 7.54673C16.3843 7.57798 16.3271 7.60924 16.2682 7.64144C15.4556 8.08944 14.7469 8.6054 14.0577 9.22568C13.9341 9.33616 13.8081 9.44387 13.6819 9.55136C13.1248 10.032 12.6682 10.5593 12.2188 11.1405C12.1532 11.2215 12.0877 11.3026 12.0201 11.3861C10.3121 13.5557 9.33113 16.2931 9.25392 19.0467C9.90619 19.0467 10.5585 19.0467 11.2305 19.0467C11.2787 18.7243 11.3268 18.4019 11.3765 18.0697C11.8737 14.9922 13.4775 12.0465 16.0336 10.1922C18.747 8.29 21.9635 7.51192 25.2556 7.97061C25.5564 8.02355 25.8506 8.094 26.1445 8.17563C26.2165 8.19544 26.2885 8.21524 26.3627 8.23564C29.5267 9.13709 32.1698 11.125 33.7827 14.0071C34.4774 15.2966 34.8819 16.6186 35.1289 18.0584C35.1644 18.2513 35.2 18.444 35.2356 18.6368C35.2597 18.7721 35.2838 18.9074 35.3086 19.0467C35.9609 19.0467 36.6131 19.0467 37.2852 19.0467C36.9962 15.5795 35.7281 12.5995 33.332 10.0624C33.2662 9.99066 33.2003 9.91897 33.1324 9.84511C31.3851 8.01032 28.9706 6.73273 26.5158 6.1545C26.3401 6.11297 26.1652 6.06776 25.9905 6.02219C22.7932 5.30947 19.2718 5.9699 16.4414 7.54673ZM5.9297 21.203C5.5138 21.7717 5.37735 22.1677 5.37474 22.8702C5.37415 22.9392 5.37356 23.0082 5.37295 23.0793C5.37118 23.3077 5.37013 23.5361 5.36923 23.7646C5.36869 23.8818 5.36868 23.8818 5.36812 24.0014C5.36625 24.4152 5.36497 24.8291 5.36412 25.2429C5.36313 25.6694 5.36004 26.0958 5.35647 26.5223C5.35412 26.851 5.35337 27.1798 5.35305 27.5085C5.35261 27.6656 5.35157 27.8228 5.3499 27.9799C5.3477 28.2005 5.3478 28.421 5.34842 28.6416C5.34727 28.7058 5.34612 28.77 5.34493 28.8362C5.35106 29.4362 5.5756 29.8843 5.95217 30.3446C6.99167 31.1951 7.56809 30.9061 9.07424 30.9061C9.07424 27.5262 9.07424 24.1463 9.07424 20.6639C6.97452 20.4713 6.97452 20.4713 5.9297 21.203ZM10.6016 20.6639C10.6016 24.0438 10.6016 27.4238 10.6016 30.9061C11.1353 30.9061 11.6689 30.9061 12.2188 30.9061C12.2188 27.5262 12.2188 24.1463 12.2188 20.6639C11.6851 20.6639 11.1514 20.6639 10.6016 20.6639ZM33.7813 20.6639C33.7813 24.0438 33.7813 27.4238 33.7813 30.9061C34.3149 30.9061 34.8486 30.9061 35.3985 30.9061C35.3985 27.5262 35.3985 24.1463 35.3985 20.6639C34.8648 20.6639 34.3311 20.6639 33.7813 20.6639ZM36.9258 20.6639C36.9258 24.0438 36.9258 27.4238 36.9258 30.9061C38.7202 31.0506 38.7202 31.0506 40.0479 30.3446C40.4763 29.821 40.6636 29.3333 40.6573 28.6516C40.6581 28.5829 40.6589 28.5141 40.6597 28.4432C40.6617 28.2181 40.6611 27.993 40.6603 27.7679C40.6608 27.6099 40.6613 27.452 40.662 27.294C40.6629 26.9637 40.6625 26.6334 40.6612 26.3031C40.6596 25.8817 40.6617 25.4605 40.6649 25.0392C40.6669 24.7132 40.6667 24.3871 40.666 24.0611C40.6659 23.9058 40.6665 23.7506 40.6679 23.5954C40.6774 22.3776 40.6774 22.3776 40.1602 21.2928C39.9597 21.0874 39.9597 21.0874 39.739 20.9728C39.6701 20.9319 39.6012 20.891 39.5302 20.8489C38.604 20.3558 38.833 20.6639 36.9258 20.6639ZM21.6636 38.1441C21.4237 38.4555 21.414 38.7519 21.4348 39.1356C21.5057 39.5392 21.6992 39.7806 22.0086 40.0365C22.4201 40.2229 22.8116 40.2097 23.2583 40.2105C23.3453 40.2138 23.4323 40.2171 23.5219 40.2205C24.0642 40.2239 24.3719 40.1515 24.7668 39.7722C25.0625 39.3995 25.1074 39.1079 25.0664 38.6327C24.9097 38.212 24.7187 37.9847 24.3477 37.7342C23.9897 37.6149 23.6612 37.6243 23.2864 37.6219C23.1793 37.6191 23.1793 37.6191 23.07 37.6163C22.4787 37.6124 22.1135 37.7432 21.6636 38.1441Z" fill="#FF7705"></path>
</svg>
