<?xml version="1.0" encoding="UTF-8"?>
<svg xmlns="http://www.w3.org/2000/svg" width="48" height="48" viewBox="0 0 48 48" fill="none">
  <path d="M22.2958 3.38812C22.3581 3.42374 22.4205 3.45937 22.4847 3.49607C23.047 3.84524 23.5339 4.33356 23.8246 4.94161C23.8246 5.02256 23.8246 5.1035 23.8246 5.1869C23.9253 5.18519 24.026 5.18348 24.1297 5.18171C24.5034 5.17579 24.877 5.17204 25.2507 5.16894C25.4125 5.16729 25.5742 5.16506 25.7359 5.16223C25.9684 5.15826 26.2008 5.15641 26.4333 5.15496C26.5056 5.15327 26.5779 5.15159 26.6523 5.14985C27.1551 5.14966 27.1551 5.14966 27.4081 5.3422C27.5851 5.60031 27.6161 5.73987 27.6142 6.05116C27.6139 6.12441 27.6137 6.19766 27.6134 6.27313C27.6127 6.34976 27.6121 6.42638 27.6114 6.50533C27.611 6.58258 27.6106 6.65984 27.6103 6.73944C27.6093 6.93054 27.608 7.12163 27.6063 7.31273C27.6812 7.31183 27.756 7.31092 27.8331 7.30998C28.5409 7.30167 29.2487 7.29555 29.9566 7.29155C30.3205 7.28943 30.6843 7.28654 31.0481 7.28189C31.3998 7.27743 31.7514 7.275 32.103 7.27395C32.2367 7.2732 32.3703 7.27173 32.5039 7.26951C33.3373 7.25623 34.0538 7.2748 34.697 7.88322C35.1919 8.40947 35.4199 9.00424 35.4224 9.73272C35.4228 9.80616 35.4233 9.8796 35.4237 9.95527C35.4238 10.0752 35.4238 10.0752 35.424 10.1975C35.4243 10.283 35.4247 10.3685 35.4252 10.4566C35.4264 10.7434 35.4271 11.0303 35.4277 11.3171C35.4285 11.5226 35.4293 11.7281 35.4302 11.9336C35.4319 12.3761 35.4334 12.8187 35.4346 13.2613C35.4365 13.9012 35.4387 14.5411 35.4411 15.1809C35.4449 16.2191 35.4484 17.2573 35.4517 18.2955C35.4548 19.304 35.4582 20.3124 35.4617 21.3209C35.4619 21.3831 35.4622 21.4452 35.4624 21.5093C35.4635 21.8212 35.4646 22.1331 35.4657 22.445C35.4749 25.0321 35.4835 27.6192 35.4917 30.2063C35.5746 30.2228 35.6576 30.2393 35.7431 30.2563C35.8529 30.2783 35.9628 30.3003 36.0727 30.3224C36.1272 30.3332 36.1818 30.344 36.238 30.3552C38.0685 30.7236 39.6679 31.8369 40.7296 33.3979C41.0902 33.9725 41.3877 34.5496 41.6069 35.1939C41.6385 35.2854 41.6701 35.377 41.7027 35.4714C42.2293 37.2518 42.0522 39.2734 41.2045 40.9173C41.1719 40.988 41.1392 41.0587 41.1055 41.1316C40.2765 42.8336 38.7254 44.0123 36.9972 44.6458C35.1607 45.2544 33.1142 45.0594 31.3907 44.2096C30.5365 43.764 29.342 42.973 28.8937 42.0619C28.8491 42.0619 28.8045 42.0619 28.7585 42.0619C26.1111 42.0608 23.4638 42.0575 20.8164 42.0516C20.4984 42.0508 20.1803 42.0501 19.8623 42.0495C19.799 42.0493 19.7357 42.0492 19.6704 42.049C18.6459 42.0469 17.6215 42.0461 16.597 42.0459C15.5454 42.0457 14.4937 42.0439 13.4421 42.0406C12.7935 42.0387 12.1449 42.038 11.4962 42.0388C10.9984 42.0392 10.5006 42.0376 10.0028 42.0351C9.79887 42.0344 9.59498 42.0345 9.39109 42.0352C9.11227 42.0362 8.83356 42.0346 8.55475 42.0324C8.47444 42.0333 8.39413 42.0342 8.31139 42.0351C7.67728 42.0259 7.1489 41.8507 6.67365 41.4111C6.00272 40.7033 6.00717 39.9319 6.0111 39.0037C6.01076 38.8748 6.01032 38.746 6.00979 38.6171C6.00863 38.2639 6.00897 37.9107 6.00956 37.5575C6.00994 37.1762 6.00893 36.7949 6.00811 36.4136C6.00673 35.667 6.00666 34.9204 6.00708 34.1738C6.00741 33.5669 6.00729 32.9601 6.00686 32.3532C6.0068 32.2669 6.00674 32.1805 6.00668 32.0915C6.00655 31.916 6.00643 31.7405 6.00631 31.565C6.0052 29.9195 6.00564 28.274 6.00656 26.6285C6.00736 25.1233 6.00632 23.618 6.00439 22.1128C6.00243 20.5669 6.00166 19.0211 6.00219 17.4752C6.00248 16.6074 6.0023 15.7396 6.00089 14.8719C5.9997 14.1332 5.99965 13.3945 6.00105 12.6558C6.00174 12.279 6.00191 11.9022 6.00068 11.5254C5.99957 11.1802 5.99995 10.8351 6.0015 10.49C6.00181 10.3653 6.00157 10.2407 6.00073 10.116C5.99522 9.23429 6.08761 8.51299 6.70374 7.84891C7.40916 7.22145 8.20232 7.25834 9.08542 7.27281C9.22318 7.27357 9.36094 7.27416 9.4987 7.27456C9.85878 7.27611 10.2188 7.28012 10.5789 7.28466C10.9473 7.28887 11.3157 7.29072 11.6841 7.29277C12.4052 7.29714 13.1262 7.3041 13.8472 7.31273C13.8447 7.23357 13.8447 7.23357 13.8421 7.1528C13.8354 6.91314 13.8312 6.6735 13.8271 6.43378C13.8244 6.35073 13.8217 6.26768 13.8189 6.18211C13.8111 5.58319 13.8111 5.58319 13.9612 5.29493C14.2833 5.1275 14.5832 5.14663 14.9397 5.15496C15.0143 5.15542 15.0888 5.15589 15.1656 5.15636C15.4034 5.15819 15.6411 5.1623 15.8789 5.16646C16.0402 5.1681 16.2016 5.16959 16.3629 5.17093C16.7581 5.17453 17.1533 5.18018 17.5485 5.1869C17.5726 5.10991 17.5968 5.03291 17.6217 4.95359C17.8652 4.23947 18.4588 3.70926 19.1068 3.37023C20.0684 2.92172 21.3611 2.82695 22.2958 3.38812ZM18.9773 5.30763C18.7906 5.57995 18.6796 5.85666 18.5775 6.17061C18.514 6.33158 18.514 6.33158 18.3531 6.41334C18.1186 6.4262 17.8857 6.43448 17.6509 6.43921C17.5815 6.44091 17.5121 6.44261 17.4406 6.44436C17.2184 6.44972 16.9962 6.45453 16.774 6.45933C16.6236 6.46287 16.4731 6.46643 16.3227 6.47003C15.9535 6.47886 15.5843 6.48696 15.2151 6.49511C15.2151 7.46645 15.2151 8.43779 15.2151 9.43857C18.8528 9.43857 22.4905 9.43857 26.2385 9.43857C26.2385 8.46723 26.2385 7.49588 26.2385 6.49511C25.1232 6.46812 24.008 6.44114 22.859 6.41334C22.7794 6.17051 22.6997 5.92767 22.6176 5.67748C22.3252 5.12727 21.847 4.63737 21.2498 4.45104C20.227 4.34425 19.6392 4.51374 18.9773 5.30763ZM7.55702 9.04672C7.37944 9.32281 7.36977 9.47628 7.36944 9.8041C7.36855 9.9117 7.36766 10.0193 7.36674 10.1302C7.36738 10.2494 7.36805 10.3687 7.36875 10.488C7.36832 10.6148 7.36775 10.7416 7.36706 10.8685C7.36556 11.2171 7.36607 11.5657 7.36691 11.9144C7.36747 12.2903 7.36619 12.6663 7.36514 13.0422C7.3634 13.7788 7.36341 14.5153 7.36406 15.2519C7.36457 15.8504 7.36448 16.449 7.36396 17.0475C7.36389 17.1326 7.36382 17.2178 7.36374 17.3055C7.36359 17.4784 7.36344 17.6513 7.36329 17.8242C7.36196 19.4466 7.36266 21.0689 7.36401 22.6912C7.3652 24.176 7.36402 25.6608 7.3617 27.1457C7.35934 28.6696 7.35845 30.1936 7.35922 31.7175C7.3593 31.8898 7.35938 32.0621 7.35946 32.2345C7.35952 32.3616 7.35952 32.3616 7.35958 32.4914C7.35975 33.0893 7.35896 33.6872 7.35779 34.285C7.35638 35.0136 7.35639 35.7421 7.35822 36.4707C7.35912 36.8425 7.35937 37.2143 7.35787 37.5861C7.35652 37.9264 7.35703 38.2667 7.35902 38.607C7.35941 38.7302 7.35912 38.8534 7.35809 38.9765C7.32594 39.6907 7.32594 39.6907 7.58431 40.3294C8.06529 40.7068 8.52134 40.6953 9.10476 40.6916C9.186 40.6918 9.26724 40.6919 9.35095 40.6921C9.623 40.6923 9.89503 40.6914 10.1671 40.6905C10.3622 40.6905 10.5572 40.6905 10.7523 40.6906C11.1722 40.6906 11.5921 40.6902 12.012 40.6893C12.6191 40.6879 13.2263 40.6875 13.8334 40.6873C14.8184 40.6869 15.8035 40.6859 16.7885 40.6843C17.7453 40.6828 18.702 40.6816 19.6588 40.681C19.7473 40.6809 19.7473 40.6809 19.8376 40.6808C20.1335 40.6806 20.4295 40.6804 20.7255 40.6802C23.18 40.6785 25.6346 40.6756 28.0891 40.672C28.0474 40.5376 28.0474 40.5376 28.0048 40.4005C27.9681 40.2817 27.9313 40.1629 27.8945 40.0441C27.8762 39.9852 27.8579 39.9263 27.8391 39.8656C27.2844 38.0697 27.3584 36.0717 28.2007 34.3769C28.2435 34.2957 28.2864 34.2146 28.3305 34.1309C28.3708 34.0498 28.4112 33.9686 28.4528 33.885C29.3116 32.2584 30.8007 31.1767 32.4966 30.5921C32.985 30.4439 33.4563 30.3386 33.9629 30.2881C34.0862 30.1627 34.0536 30.0496 34.0539 29.8748C34.0542 29.8029 34.0545 29.7311 34.0549 29.657C34.0548 29.5372 34.0548 29.5372 34.0547 29.415C34.0549 29.3309 34.0551 29.2467 34.0554 29.1601C34.0561 28.8758 34.0562 28.5915 34.0563 28.3072C34.0567 28.1043 34.0571 27.9014 34.0575 27.6986C34.0586 27.1456 34.0591 26.5927 34.0595 26.0398C34.0597 25.6946 34.06 25.3494 34.0604 25.0042C34.0614 24.0488 34.0622 23.0933 34.0625 22.1379C34.0625 22.0767 34.0625 22.0155 34.0625 21.9525C34.0625 21.8911 34.0626 21.8298 34.0626 21.7665C34.0626 21.6422 34.0626 21.5179 34.0627 21.3936C34.0627 21.3319 34.0627 21.2703 34.0627 21.2067C34.0631 20.2081 34.0645 19.2095 34.0663 18.2108C34.0682 17.1859 34.0692 16.161 34.0693 15.1361C34.0694 14.5605 34.0699 13.9849 34.0713 13.4093C34.0727 12.8677 34.0728 12.3262 34.0721 11.7846C34.0721 11.5857 34.0724 11.3869 34.0732 11.188C34.0742 10.9167 34.0738 10.6453 34.0729 10.3739C34.0736 10.2952 34.0742 10.2164 34.0749 10.1352C34.0716 9.67717 34.0204 9.35194 33.802 8.94799C33.3999 8.63374 33.0346 8.61072 32.539 8.61166C32.4856 8.61164 32.4322 8.61163 32.3771 8.61162C32.2013 8.61168 32.0254 8.61231 31.8495 8.61295C31.7273 8.61311 31.6051 8.61322 31.4828 8.61331C31.1617 8.61362 30.8405 8.61442 30.5193 8.61532C30.1914 8.61616 29.8635 8.61653 29.5355 8.61695C28.8925 8.61782 28.2494 8.61922 27.6063 8.62094C27.6047 8.66876 27.6031 8.71659 27.6015 8.76586C27.5938 8.98332 27.585 9.20071 27.5762 9.41813C27.5737 9.49338 27.5712 9.56863 27.5686 9.64617C27.5639 9.75525 27.5639 9.75525 27.5592 9.86654C27.5567 9.93334 27.5541 10.0001 27.5515 10.069C27.5236 10.273 27.4719 10.4088 27.3649 10.5832C27.1372 10.699 26.9462 10.6758 26.6914 10.6765C26.6116 10.6769 26.6116 10.6769 26.5302 10.6772C26.3512 10.6779 26.1721 10.6781 25.993 10.6782C25.865 10.6786 25.7369 10.679 25.6088 10.6794C25.2604 10.6805 24.912 10.681 24.5635 10.6814C24.346 10.6816 24.1285 10.682 23.911 10.6823C23.2309 10.6834 22.5509 10.6842 21.8708 10.6845C21.0848 10.6849 20.2989 10.6863 19.5129 10.6887C18.9059 10.6905 18.299 10.6913 17.692 10.6914C17.3292 10.6915 16.9665 10.692 16.6037 10.6934C16.2626 10.6948 15.9215 10.695 15.5803 10.6942C15.455 10.6942 15.3296 10.6945 15.2042 10.6954C15.0334 10.6964 14.8627 10.6959 14.6918 10.6951C14.5961 10.6952 14.5005 10.6953 14.4019 10.6954C14.169 10.665 14.169 10.665 14.0178 10.5525C13.8919 10.367 13.8929 10.2264 13.8865 10.0023C13.8836 9.92192 13.8808 9.84155 13.8778 9.75875C13.876 9.67501 13.8742 9.59128 13.8723 9.505C13.8696 9.42031 13.8668 9.33563 13.864 9.24837C13.8574 9.03924 13.8518 8.83013 13.8472 8.62094C13.133 8.61524 12.4189 8.61089 11.7047 8.60823C11.3731 8.60695 11.0414 8.60522 10.7098 8.60243C10.3895 8.59976 10.0691 8.5983 9.74879 8.59767C9.62686 8.59722 9.50493 8.59633 9.383 8.59501C9.2116 8.59321 9.04026 8.59298 8.86885 8.59309C8.77147 8.59255 8.67409 8.592 8.57376 8.59144C8.16073 8.63519 7.85156 8.74293 7.55702 9.04672ZM30.2273 33.642C29.1425 34.9183 28.7175 36.4549 28.7983 38.1091C28.9282 39.7694 29.7693 41.2155 31.0012 42.2938C32.2775 43.2931 33.8013 43.7428 35.4062 43.5643C37.0934 43.3368 38.474 42.4243 39.5098 41.0808C39.8195 40.6383 40.0573 40.2013 40.239 39.6908C40.2705 39.6031 40.3021 39.5154 40.3345 39.4251C40.8133 37.8844 40.6711 36.2353 39.9423 34.8055C39.127 33.3016 37.8564 32.2797 36.2511 31.7649C34.0055 31.1327 31.8016 31.9875 30.2273 33.642Z" fill="#FF7705"></path>
  <path d="M12.0872 31.8165C12.1712 31.8152 12.2553 31.8139 12.3419 31.8126C12.4327 31.8121 12.5235 31.8117 12.617 31.8112C12.7103 31.8105 12.8037 31.8098 12.8999 31.809C13.0975 31.8078 13.2952 31.8071 13.4928 31.8068C13.7952 31.8058 14.0974 31.8018 14.3997 31.7977C14.5917 31.7969 14.7836 31.7963 14.9756 31.7959C15.1112 31.7935 15.1112 31.7935 15.2496 31.7911C15.6207 31.7932 15.8694 31.8022 16.1973 31.9869C16.421 32.3956 16.399 32.7814 16.395 33.2418C16.3954 33.3382 16.3957 33.4347 16.3961 33.534C16.3964 33.7378 16.3957 33.9415 16.394 34.1452C16.3918 34.4569 16.394 34.7684 16.3965 35.0802C16.3963 35.2782 16.3958 35.4762 16.395 35.6742C16.3962 35.814 16.3962 35.814 16.3974 35.9566C16.3919 36.3365 16.381 36.5937 16.1969 36.9287C15.7997 37.1533 15.4286 37.1312 14.9812 37.1258C14.8415 37.1261 14.8415 37.1261 14.699 37.1264C14.5023 37.1263 14.3056 37.1252 14.109 37.1232C13.808 37.1204 13.5073 37.1215 13.2063 37.1231C13.0151 37.1225 12.8239 37.1218 12.6327 37.1207C12.5428 37.1211 12.4528 37.1215 12.3601 37.1219C11.739 37.1124 11.739 37.1124 11.4187 36.9233C11.1979 36.6578 11.1815 36.4407 11.1789 36.1054C11.1782 36.0249 11.1774 35.9444 11.1766 35.8615C11.1763 35.7746 11.1759 35.6877 11.1756 35.5982C11.1751 35.5088 11.1747 35.4193 11.1742 35.3272C11.1734 35.1379 11.1729 34.9487 11.1726 34.7594C11.1718 34.4699 11.1693 34.1805 11.1668 33.8911C11.1662 33.7072 11.1658 33.5234 11.1655 33.3395C11.1645 33.253 11.1635 33.1664 11.1625 33.0772C11.1648 32.319 11.1648 32.319 11.4333 32.0051C11.6976 31.8261 11.78 31.8201 12.0872 31.8165ZM12.5598 33.2316C12.5598 34.041 12.5598 34.8505 12.5598 35.6844C13.3564 35.6844 14.1529 35.6844 14.9737 35.6844C14.9737 34.875 14.9737 34.0655 14.9737 33.2316C14.1771 33.2316 13.3805 33.2316 12.5598 33.2316Z" fill="#FF7705"></path>
  <path d="M12.0872 23.0679C12.1712 23.0666 12.2553 23.0653 12.3419 23.0639C12.4327 23.0635 12.5235 23.0631 12.617 23.0626C12.7103 23.0619 12.8037 23.0611 12.8999 23.0604C13.0975 23.0592 13.2952 23.0585 13.4928 23.0582C13.7952 23.0572 14.0974 23.0532 14.3997 23.049C14.5917 23.0483 14.7836 23.0477 14.9756 23.0473C15.1112 23.0449 15.1112 23.0449 15.2496 23.0424C15.6207 23.0446 15.8694 23.0536 16.1973 23.2383C16.421 23.647 16.399 24.0327 16.395 24.4931C16.3954 24.5896 16.3957 24.6861 16.3961 24.7854C16.3964 24.9891 16.3957 25.1928 16.394 25.3965C16.3918 25.7083 16.394 26.0198 16.3965 26.3315C16.3963 26.5296 16.3958 26.7276 16.395 26.9256C16.3962 27.0654 16.3962 27.0654 16.3974 27.208C16.3919 27.5879 16.381 27.8451 16.1969 28.1801C15.7997 28.4046 15.4286 28.3826 14.9812 28.3772C14.8415 28.3775 14.8415 28.3775 14.699 28.3778C14.5023 28.3777 14.3056 28.3766 14.109 28.3746C13.808 28.3718 13.5073 28.3729 13.2063 28.3745C13.0151 28.3739 12.8239 28.3731 12.6327 28.3721C12.5428 28.3725 12.4528 28.3729 12.3601 28.3733C11.739 28.3638 11.739 28.3638 11.4187 28.1747C11.1979 27.9092 11.1815 27.692 11.1789 27.3568C11.1782 27.2763 11.1774 27.1958 11.1766 27.1128C11.1763 27.026 11.1759 26.9391 11.1756 26.8496C11.1751 26.7602 11.1747 26.6707 11.1742 26.5786C11.1734 26.3893 11.1729 26.2 11.1726 26.0108C11.1718 25.7213 11.1693 25.4319 11.1668 25.1425C11.1662 24.9586 11.1658 24.7747 11.1655 24.5909C11.1645 24.5043 11.1635 24.4178 11.1625 24.3286C11.1648 23.5704 11.1648 23.5704 11.4333 23.2565C11.6976 23.0775 11.78 23.0715 12.0872 23.0679ZM12.5598 24.4829C12.5598 25.2924 12.5598 26.1018 12.5598 26.9358C13.3564 26.9358 14.1529 26.9358 14.9737 26.9358C14.9737 26.1264 14.9737 25.3169 14.9737 24.4829C14.1771 24.4829 13.3805 24.4829 12.5598 24.4829Z" fill="#FF7705"></path>
  <path d="M12.0872 14.3193C12.1712 14.318 12.2553 14.3167 12.3419 14.3153C12.4327 14.3149 12.5235 14.3144 12.617 14.314C12.7103 14.3133 12.8037 14.3125 12.8999 14.3118C13.0975 14.3106 13.2952 14.3098 13.4928 14.3095C13.7952 14.3086 14.0974 14.3046 14.3997 14.3004C14.5917 14.2996 14.7836 14.2991 14.9756 14.2987C15.1112 14.2963 15.1112 14.2963 15.2496 14.2938C15.6207 14.296 15.8694 14.305 16.1973 14.4896C16.421 14.8983 16.399 15.2841 16.395 15.7445C16.3954 15.841 16.3957 15.9374 16.3961 16.0368C16.3964 16.2405 16.3957 16.4442 16.394 16.6479C16.3918 16.9597 16.394 17.2712 16.3965 17.5829C16.3963 17.7809 16.3958 17.979 16.395 18.177C16.3962 18.3167 16.3962 18.3167 16.3974 18.4593C16.3919 18.8393 16.381 19.0965 16.1969 19.4315C15.7997 19.656 15.4286 19.634 14.9812 19.6286C14.8415 19.6289 14.8415 19.6289 14.699 19.6292C14.5023 19.6291 14.3056 19.628 14.109 19.626C13.808 19.6232 13.5073 19.6243 13.2063 19.6259C13.0151 19.6253 12.8239 19.6245 12.6327 19.6235C12.5428 19.6239 12.4528 19.6243 12.3601 19.6247C11.739 19.6151 11.739 19.6151 11.4187 19.4261C11.1979 19.1606 11.1815 18.9434 11.1789 18.6082C11.1782 18.5277 11.1774 18.4472 11.1766 18.3642C11.1763 18.2773 11.1759 18.1905 11.1756 18.101C11.1751 18.0115 11.1747 17.9221 11.1742 17.83C11.1734 17.6407 11.1729 17.4514 11.1726 17.2621C11.1718 16.9727 11.1693 16.6833 11.1668 16.3938C11.1662 16.21 11.1658 16.0261 11.1655 15.8423C11.1645 15.7557 11.1635 15.6692 11.1625 15.58C11.1648 14.8217 11.1648 14.8217 11.4333 14.5079C11.6976 14.3288 11.78 14.3229 12.0872 14.3193ZM12.5598 15.7343C12.5598 16.5438 12.5598 17.3532 12.5598 18.1872C13.3564 18.1872 14.1529 18.1872 14.9737 18.1872C14.9737 17.3777 14.9737 16.5683 14.9737 15.7343C14.1771 15.7343 13.3805 15.7343 12.5598 15.7343Z" fill="#FF7705"></path>
  <path d="M38.4688 34.7033C38.6962 34.8804 38.7773 35.0406 38.8309 35.3267C38.7303 36.017 37.8805 36.6187 37.4121 37.0904C37.3345 37.1689 37.2569 37.2474 37.1793 37.326C36.9355 37.5728 36.6914 37.8193 36.4472 38.0658C36.1633 38.3523 35.8795 38.639 35.5961 38.926C35.4836 39.0399 35.3708 39.1535 35.258 39.267C34.8393 39.6893 34.8393 39.6893 34.4514 40.1402C34.2274 40.4154 34.0972 40.4999 33.7476 40.5554C33.2869 40.5416 33.0462 40.2404 32.7412 39.9205C32.6816 39.8601 32.6219 39.7998 32.5605 39.7376C32.4351 39.6099 32.3105 39.4814 32.1867 39.3522C31.9972 39.1549 31.8049 38.9608 31.612 38.767C31.4904 38.6423 31.3689 38.5175 31.2476 38.3925C31.1902 38.3347 31.1328 38.2768 31.0736 38.2172C30.7509 37.8765 30.584 37.6517 30.5835 37.1562C30.6476 36.937 30.7031 36.8591 30.8852 36.7269C31.1402 36.6405 31.2796 36.6182 31.549 36.6656C32.0667 37.0463 32.509 37.5494 32.9571 38.0096C33.0233 38.0772 33.0895 38.1448 33.1576 38.2145C33.319 38.3793 33.4801 38.5444 33.641 38.7097C33.9348 38.584 34.1208 38.405 34.344 38.1761C34.3807 38.1387 34.4174 38.1014 34.4552 38.0629C34.5758 37.9397 34.6958 37.8161 34.8159 37.6924C34.8998 37.6066 34.9838 37.5209 35.0677 37.4352C35.2884 37.2099 35.5086 36.9842 35.7287 36.7583C36.0814 36.3963 36.4347 36.0349 36.7882 35.6738C36.9117 35.5475 37.0349 35.4209 37.1581 35.2943C37.2701 35.1796 37.2701 35.1797 37.3843 35.0627C37.4502 34.9951 37.516 34.9275 37.5839 34.8579C37.8847 34.5686 38.0717 34.6183 38.4688 34.7033Z" fill="#FF7705"></path>
  <path d="M20.0492 26.915C20.1337 26.9146 20.2182 26.9141 20.3053 26.9137C20.4443 26.9141 20.4443 26.9141 20.5861 26.9147C20.6837 26.9144 20.7813 26.9141 20.8819 26.9138C21.1497 26.9132 21.4175 26.9133 21.6854 26.9138C21.9656 26.9143 22.2458 26.9139 22.5261 26.9136C22.9968 26.9133 23.4675 26.9137 23.9382 26.9145C24.4823 26.9154 25.0265 26.9151 25.5706 26.9142C26.0377 26.9135 26.5049 26.9133 26.972 26.9138C27.251 26.914 27.53 26.9141 27.809 26.9135C28.1202 26.913 28.4313 26.9137 28.7424 26.9147C28.8349 26.9143 28.9274 26.914 29.0227 26.9137C29.1498 26.9143 29.1498 26.9143 29.2794 26.915C29.353 26.9151 29.4266 26.9152 29.5024 26.9152C29.7124 26.9373 29.8416 26.9868 30.0202 27.0993C30.1889 27.3198 30.1807 27.434 30.166 27.7177C30.1027 27.9901 30.0768 28.0849 29.8593 28.244C29.659 28.3458 29.524 28.3367 29.2999 28.3378C29.2156 28.3384 29.1313 28.339 29.0445 28.3396C28.9053 28.3399 28.9053 28.3399 28.7632 28.3403C28.617 28.3411 28.617 28.3411 28.4678 28.3419C28.2 28.3432 27.9322 28.3442 27.6643 28.3448C27.497 28.3453 27.3297 28.3458 27.1623 28.3463C26.6389 28.3478 26.1154 28.349 25.5919 28.3497C24.9875 28.3505 24.3832 28.3526 23.7789 28.3559C23.3118 28.3584 22.8448 28.3596 22.3777 28.3599C22.0987 28.3601 21.8198 28.3608 21.5408 28.3629C21.2295 28.3651 20.9182 28.3648 20.6069 28.3642C20.5146 28.3653 20.4222 28.3663 20.3271 28.3674C19.7041 28.3632 19.7041 28.3632 19.384 28.1749C19.1946 27.9461 19.1577 27.8065 19.1577 27.5082C19.356 27.0649 19.5764 26.9154 20.0492 26.915Z" fill="#FF7705"></path>
  <path d="M20.0492 23.0722C20.1337 23.0717 20.2182 23.0713 20.3053 23.0708C20.4443 23.0713 20.4443 23.0713 20.5861 23.0718C20.6837 23.0715 20.7813 23.0712 20.8819 23.0709C21.1497 23.0703 21.4175 23.0705 21.6854 23.071C21.9656 23.0714 22.2458 23.071 22.5261 23.0708C22.9968 23.0705 23.4675 23.0709 23.9382 23.0716C24.4823 23.0725 25.0265 23.0722 25.5706 23.0713C26.0377 23.0706 26.5049 23.0705 26.972 23.0709C27.251 23.0712 27.53 23.0712 27.809 23.0707C28.1202 23.0701 28.4313 23.0709 28.7424 23.0718C28.8349 23.0715 28.9274 23.0711 29.0227 23.0708C29.1498 23.0715 29.1498 23.0715 29.2794 23.0722C29.353 23.0723 29.4266 23.0723 29.5024 23.0724C29.7124 23.0944 29.8416 23.1439 30.0202 23.2565C30.1889 23.4769 30.1807 23.5911 30.166 23.8748C30.1027 24.1473 30.0768 24.242 29.8593 24.4012C29.659 24.5029 29.524 24.4939 29.2999 24.495C29.2156 24.4955 29.1313 24.4961 29.0445 24.4967C28.9053 24.4971 28.9053 24.4971 28.7632 24.4974C28.617 24.4982 28.617 24.4982 28.4678 24.499C28.2 24.5004 27.9322 24.5013 27.6643 24.502C27.497 24.5024 27.3297 24.5029 27.1623 24.5034C26.6389 24.505 26.1154 24.5061 25.5919 24.5068C24.9875 24.5076 24.3832 24.5098 23.7789 24.5131C23.3118 24.5155 22.8448 24.5168 22.3777 24.517C22.0987 24.5172 21.8198 24.518 21.5408 24.52C21.2295 24.5223 20.9182 24.5219 20.6069 24.5214C20.5146 24.5224 20.4222 24.5234 20.3271 24.5245C19.7041 24.5204 19.7041 24.5204 19.384 24.332C19.1946 24.1033 19.1577 23.9636 19.1577 23.6653C19.356 23.2221 19.5764 23.0726 20.0492 23.0722Z" fill="#FF7705"></path>
  <path d="M20.0492 18.1664C20.1337 18.166 20.2182 18.1655 20.3053 18.165C20.4443 18.1655 20.4443 18.1655 20.5861 18.166C20.6837 18.1657 20.7813 18.1655 20.8819 18.1652C21.1497 18.1646 21.4175 18.1647 21.6854 18.1652C21.9656 18.1656 22.2458 18.1653 22.5261 18.165C22.9968 18.1647 23.4675 18.1651 23.9382 18.1659C24.4823 18.1668 25.0265 18.1665 25.5706 18.1656C26.0377 18.1648 26.5049 18.1647 26.972 18.1652C27.251 18.1654 27.53 18.1654 27.809 18.1649C28.1202 18.1643 28.4313 18.1651 28.7424 18.166C28.8349 18.1657 28.9274 18.1654 29.0227 18.165C29.1498 18.1657 29.1498 18.1657 29.2794 18.1664C29.353 18.1665 29.4266 18.1665 29.5024 18.1666C29.7124 18.1887 29.8416 18.2381 30.0202 18.3507C30.1889 18.5711 30.1807 18.6854 30.166 18.969C30.1027 19.2415 30.0768 19.3363 29.8593 19.4954C29.659 19.5972 29.524 19.5881 29.2999 19.5892C29.2156 19.5898 29.1313 19.5904 29.0445 19.591C28.9053 19.5913 28.9053 19.5913 28.7632 19.5916C28.617 19.5924 28.617 19.5924 28.4678 19.5933C28.2 19.5946 27.9322 19.5955 27.6643 19.5962C27.497 19.5966 27.3297 19.5971 27.1623 19.5977C26.6389 19.5992 26.1154 19.6004 25.5919 19.6011C24.9875 19.6019 24.3832 19.604 23.7789 19.6073C23.3118 19.6098 22.8448 19.611 22.3777 19.6113C22.0987 19.6114 21.8198 19.6122 21.5408 19.6142C21.2295 19.6165 20.9182 19.6162 20.6069 19.6156C20.5146 19.6166 20.4222 19.6177 20.3271 19.6188C19.7041 19.6146 19.7041 19.6146 19.384 19.4262C19.1946 19.1975 19.1577 19.0578 19.1577 18.7595C19.356 18.3163 19.5764 18.1668 20.0492 18.1664Z" fill="#FF7705"></path>
  <path d="M20.0492 14.3236C20.1337 14.3231 20.2182 14.3226 20.3053 14.3222C20.4443 14.3227 20.4443 14.3227 20.5861 14.3232C20.6837 14.3229 20.7813 14.3226 20.8819 14.3223C21.1497 14.3217 21.4175 14.3219 21.6854 14.3224C21.9656 14.3228 22.2458 14.3224 22.5261 14.3221C22.9968 14.3218 23.4675 14.3222 23.9382 14.323C24.4823 14.3239 25.0265 14.3236 25.5706 14.3227C26.0377 14.322 26.5049 14.3219 26.972 14.3223C27.251 14.3226 27.53 14.3226 27.809 14.3221C28.1202 14.3215 28.4313 14.3223 28.7424 14.3232C28.8349 14.3228 28.9274 14.3225 29.0227 14.3222C29.1498 14.3229 29.1498 14.3229 29.2794 14.3236C29.353 14.3236 29.4266 14.3237 29.5024 14.3238C29.7124 14.3458 29.8416 14.3953 30.0202 14.5079C30.1889 14.7283 30.1807 14.8425 30.166 15.1262C30.1027 15.3986 30.0768 15.4934 29.8593 15.6525C29.659 15.7543 29.524 15.7453 29.2999 15.7463C29.2156 15.7469 29.1313 15.7475 29.0445 15.7481C28.9053 15.7484 28.9053 15.7484 28.7632 15.7488C28.617 15.7496 28.617 15.7496 28.4678 15.7504C28.2 15.7517 27.9322 15.7527 27.6643 15.7534C27.497 15.7538 27.3297 15.7543 27.1623 15.7548C26.6389 15.7564 26.1154 15.7575 25.5919 15.7582C24.9875 15.759 24.3832 15.7612 23.7789 15.7645C23.3118 15.7669 22.8448 15.7681 22.3777 15.7684C22.0987 15.7686 21.8198 15.7693 21.5408 15.7714C21.2295 15.7736 20.9182 15.7733 20.6069 15.7727C20.5146 15.7738 20.4222 15.7748 20.3271 15.7759C19.7041 15.7717 19.7041 15.7717 19.384 15.5834C19.1946 15.3546 19.1577 15.215 19.1577 14.9167C19.356 14.4735 19.5764 14.324 20.0492 14.3236Z" fill="#FF7705"></path>
  <path d="M20.2168 35.6633C20.2752 35.663 20.3335 35.6627 20.3937 35.6624C20.5867 35.6617 20.7798 35.6622 20.9729 35.6627C21.107 35.6626 21.2412 35.6624 21.3754 35.6622C21.6567 35.662 21.938 35.6624 22.2193 35.6631C22.5798 35.6641 22.9403 35.6635 23.3008 35.6625C23.578 35.6619 23.8551 35.6621 24.1322 35.6626C24.2651 35.6627 24.3981 35.6625 24.531 35.6621C24.7168 35.6617 24.9027 35.6624 25.0885 35.6633C25.1943 35.6634 25.3001 35.6635 25.409 35.6637C25.6574 35.683 25.7928 35.7089 25.9971 35.848C26.1658 36.0684 26.1576 36.1826 26.1429 36.4663C26.0795 36.7388 26.0536 36.8335 25.8361 36.9926C25.5961 37.1146 25.3771 37.0868 25.1094 37.0889C25.0511 37.0894 24.9929 37.09 24.9329 37.0905C24.7398 37.0921 24.5467 37.0931 24.3536 37.0939C24.2876 37.0942 24.2217 37.0946 24.1538 37.0949C23.8048 37.0966 23.4558 37.0978 23.1069 37.0985C22.7465 37.0994 22.3861 37.1023 22.0257 37.1055C21.7486 37.1076 21.4714 37.1083 21.1943 37.1086C21.0614 37.109 20.9286 37.11 20.7957 37.1115C20.6097 37.1135 20.4237 37.1134 20.2376 37.1128C20.0789 37.1136 20.0789 37.1136 19.9169 37.1143C19.5949 37.0678 19.4632 36.982 19.2382 36.7474C19.1387 36.4503 19.13 36.3188 19.2583 36.0319C19.5438 35.659 19.7742 35.6638 20.2168 35.6633Z" fill="#FF7705"></path>
  <path d="M20.2168 31.8204C20.2752 31.8201 20.3335 31.8199 20.3937 31.8196C20.5867 31.8188 20.7798 31.8193 20.9729 31.8199C21.107 31.8198 21.2412 31.8196 21.3754 31.8194C21.6567 31.8191 21.938 31.8195 22.2193 31.8203C22.5798 31.8212 22.9403 31.8207 23.3008 31.8197C23.578 31.8191 23.8551 31.8193 24.1322 31.8197C24.2651 31.8198 24.3981 31.8197 24.531 31.8193C24.7168 31.8189 24.9027 31.8195 25.0885 31.8204C25.1943 31.8206 25.3001 31.8207 25.409 31.8208C25.6574 31.8402 25.7928 31.8661 25.9971 32.0051C26.1658 32.2255 26.1576 32.3398 26.1429 32.6234C26.0795 32.8959 26.0536 32.9907 25.8361 33.1498C25.5961 33.2717 25.3771 33.244 25.1094 33.246C25.0511 33.2466 24.9929 33.2471 24.9329 33.2477C24.7398 33.2493 24.5467 33.2502 24.3536 33.251C24.2876 33.2514 24.2217 33.2517 24.1538 33.252C23.8048 33.2537 23.4558 33.2549 23.1069 33.2557C22.7465 33.2566 22.3861 33.2594 22.0257 33.2626C21.7486 33.2648 21.4714 33.2655 21.1943 33.2658C21.0614 33.2662 20.9286 33.2671 20.7957 33.2686C20.6097 33.2706 20.4237 33.2705 20.2376 33.27C20.0789 33.2707 20.0789 33.2707 19.9169 33.2714C19.5949 33.225 19.4632 33.1392 19.2382 32.9045C19.1387 32.6075 19.13 32.4759 19.2583 32.1891C19.5438 31.8162 19.7742 31.821 20.2168 31.8204Z" fill="#FF7705"></path>
</svg>
