<?xml version="1.0" encoding="UTF-8"?>
<svg xmlns="http://www.w3.org/2000/svg" width="40" height="40" viewBox="0 0 40 40" fill="none">
  <path d="M5.97907 -0.00277221C6.05414 -0.0031014 6.1292 -0.0034306 6.20654 -0.00376976C6.36503 -0.00400358 6.52351 -0.00337091 6.68199 -0.00193218C6.92443 -9.03229e-05 7.16665 -0.00191528 7.40909 -0.00411628C7.5632 -0.0038889 7.71732 -0.00344805 7.87143 -0.00277221C7.94383 -0.00346871 8.01624 -0.00416521 8.09083 -0.00488281C8.59182 0.0031376 8.59182 0.00313759 8.86154 0.202785C9.01947 0.429909 9.05817 0.608695 9.09716 0.881621C9.11002 0.966337 9.12288 1.05105 9.13613 1.13834C9.14456 1.20265 9.15299 1.26696 9.16167 1.33323C9.38358 1.33323 9.43728 1.26136 9.60788 1.12355C9.91605 0.899765 10.1482 0.810019 10.5379 0.817106C10.9018 1.03087 11.1956 1.28069 11.4935 1.57785C11.5726 1.65669 11.6516 1.73552 11.7331 1.81675C11.7734 1.85743 11.8137 1.89811 11.8553 1.94003C11.979 2.06469 12.1036 2.18839 12.2283 2.31204C12.307 2.39088 12.3856 2.46972 12.4666 2.55095C12.5738 2.65848 12.5738 2.65848 12.6832 2.76818C12.9346 3.05119 13.0324 3.21062 13.0324 3.59125C12.921 4.00883 12.7067 4.2765 12.4303 4.60199C12.6117 4.78338 12.9787 4.75864 13.2249 4.79184C13.5157 4.87533 13.6304 4.95841 13.8065 5.20413C13.8518 5.55388 13.8219 5.88209 13.8065 6.23637C14.2607 6.23637 14.7149 6.23637 15.1828 6.23637C15.181 6.14005 15.1792 6.04373 15.1773 5.9445C15.1711 5.58573 15.1672 5.22696 15.1639 4.86815C15.1622 4.71313 15.1598 4.55811 15.1568 4.40311C15.1526 4.17974 15.1507 3.95645 15.1492 3.73305C15.1474 3.66421 15.1456 3.59538 15.1438 3.52446C15.1436 3.06878 15.2167 2.80699 15.5269 2.45149C15.92 2.13544 16.2227 2.05752 16.7155 2.06371C16.7816 2.06318 16.8477 2.06264 16.9158 2.06209C17.1365 2.06072 17.3571 2.0618 17.5778 2.06288C17.7364 2.06242 17.8949 2.06181 18.0535 2.06106C18.4836 2.05949 18.9136 2.0601 19.3437 2.06119C19.7939 2.06206 20.2441 2.06125 20.6944 2.06071C21.4504 2.06008 22.2065 2.06091 22.9625 2.06255C23.8365 2.06442 24.7104 2.06381 25.5843 2.06192C26.3348 2.06036 27.0853 2.06014 27.8359 2.06104C28.284 2.06157 28.7322 2.06165 29.1804 2.06051C29.6017 2.05952 30.0231 2.06021 30.4444 2.06219C30.599 2.06265 30.7536 2.06252 30.9082 2.06176C31.1193 2.06082 31.3303 2.062 31.5415 2.06371C31.6025 2.06295 31.6636 2.06218 31.7265 2.06139C32.1565 2.06815 32.3977 2.1843 32.7301 2.45149C33.0979 2.87299 33.1215 3.19997 33.1077 3.73305C33.1073 3.80487 33.1068 3.8767 33.1063 3.9507C33.1044 4.1786 33.1 4.40638 33.0956 4.63424C33.0939 4.78937 33.0924 4.9445 33.0909 5.09963C33.0872 5.47859 33.0812 5.85746 33.0741 6.23637C33.1807 6.23531 33.2873 6.23426 33.397 6.23318C35.0941 6.2164 36.7478 7.18789 37.9448 8.31698C39.4052 9.84009 40.015 11.6775 39.9957 13.7563C39.9398 15.7674 39.0647 17.5376 37.6175 18.9317C36.8456 19.5925 35.9347 20.1176 34.9665 20.4297C34.8973 20.453 34.8281 20.4764 34.7568 20.5004C33.7506 20.787 32.7071 20.7157 31.671 20.7039C31.473 20.7026 31.2751 20.7014 31.0771 20.7003C30.5959 20.6975 30.1147 20.6932 29.6335 20.6877C29.6353 20.784 29.6371 20.8804 29.639 20.9796C29.6452 21.3384 29.6491 21.6971 29.6524 22.0559C29.6541 22.211 29.6565 22.366 29.6595 22.521C29.6637 22.7444 29.6656 22.9676 29.6671 23.191C29.6689 23.2599 29.6707 23.3287 29.6725 23.3996C29.6727 23.8553 29.5996 24.1171 29.2894 24.4726C28.8962 24.7887 28.5936 24.8666 28.1008 24.8604C28.0017 24.8612 28.0017 24.8612 27.9005 24.862C27.6798 24.8634 27.4592 24.8623 27.2385 24.8612C27.0799 24.8617 26.9214 24.8623 26.7628 24.863C26.3327 24.8646 25.9027 24.864 25.4726 24.8629C25.0224 24.862 24.5721 24.8628 24.1219 24.8634C23.3659 24.864 22.6098 24.8632 21.8537 24.8616C20.9798 24.8597 20.1059 24.8603 19.232 24.8622C18.4815 24.8637 17.731 24.864 16.9804 24.8631C16.5322 24.8625 16.0841 24.8624 15.6359 24.8636C15.2146 24.8646 14.7932 24.8639 14.3719 24.8619C14.2173 24.8615 14.0627 24.8616 13.9081 24.8623C13.697 24.8633 13.486 24.8621 13.2748 24.8604C13.1832 24.8615 13.1832 24.8615 13.0898 24.8627C12.6598 24.8559 12.4186 24.7398 12.0862 24.4726C11.7184 24.0511 11.6948 23.7241 11.7086 23.191C11.709 23.1192 11.7095 23.0474 11.71 22.9734C11.7119 22.7455 11.7163 22.5177 11.7206 22.2899C11.7224 22.1347 11.7239 21.9796 11.7254 21.8245C11.7291 21.4455 11.7351 21.0666 11.7422 20.6877C11.1165 20.6958 10.4909 20.705 9.86527 20.715C9.65298 20.7183 9.44069 20.7213 9.22838 20.724C6.99188 20.753 4.95804 20.8108 3.21816 22.4085C2.02544 23.66 1.54627 25.0931 1.56239 26.7889C1.60014 28.252 2.18943 29.6163 3.22656 30.6661C4.29895 31.6135 5.52188 32.1043 6.92525 32.3004C6.92255 32.1599 6.92255 32.1599 6.91979 32.0165C6.91354 31.6673 6.9096 31.3182 6.90635 30.969C6.90462 30.8181 6.90228 30.6673 6.89929 30.5164C6.8951 30.2991 6.89316 30.0817 6.89165 29.8643C6.88987 29.7974 6.8881 29.7304 6.88627 29.6614C6.88608 29.2109 6.96385 28.9534 7.26931 28.6016C7.66244 28.2855 7.9652 28.2076 8.45792 28.2138C8.52403 28.2133 8.59014 28.2127 8.65825 28.2122C8.87895 28.2108 9.09956 28.2119 9.32026 28.213C9.47882 28.2125 9.63738 28.2119 9.79593 28.2111C10.226 28.2096 10.6561 28.2102 11.0861 28.2113C11.5364 28.2121 11.9866 28.2113 12.4368 28.2108C13.1929 28.2102 13.9489 28.211 14.705 28.2126C15.5789 28.2145 16.4528 28.2139 17.3268 28.212C18.0773 28.2104 18.8278 28.2102 19.5783 28.2111C20.0265 28.2117 20.4747 28.2117 20.9228 28.2106C21.3442 28.2096 21.7655 28.2103 22.1869 28.2123C22.3415 28.2127 22.496 28.2126 22.6506 28.2118C22.8618 28.2109 23.0728 28.2121 23.2839 28.2138C23.3755 28.2127 23.3755 28.2127 23.469 28.2115C23.899 28.2182 24.1401 28.3344 24.4725 28.6016C24.8403 29.0231 24.864 29.3501 24.8502 29.8831C24.8497 29.955 24.8492 30.0268 24.8487 30.1008C24.8468 30.3287 24.8425 30.5565 24.8381 30.7843C24.8364 30.9395 24.8348 31.0946 24.8334 31.2497C24.8296 31.6287 24.8237 32.0075 24.8166 32.3865C25.2708 32.3865 25.7249 32.3865 26.1929 32.3865C26.1982 32.2711 26.2035 32.1558 26.209 32.037C26.3822 30.3571 27.3226 28.7864 28.5956 27.7073C29.2321 27.1933 29.9023 26.8267 30.6657 26.5371C30.7613 26.4998 30.8569 26.4626 30.9553 26.4242C32.6753 25.8625 34.5999 26.0856 36.203 26.865C36.7259 27.1342 37.1973 27.429 37.633 27.8274C37.7097 27.8963 37.7865 27.9651 37.8655 28.0361C39.0869 29.1891 39.923 30.8033 39.9927 32.501C39.9948 32.6868 39.9948 32.8727 39.9931 33.0585C39.9923 33.1566 39.9915 33.2546 39.9907 33.3556C39.9585 34.9297 39.3935 36.4606 38.3211 37.6337C38.2523 37.7104 38.1834 37.7871 38.1125 37.8662C36.9595 39.0876 35.3454 39.9238 33.6477 39.9935C33.4619 39.9956 33.2761 39.9956 33.0903 39.9939C32.9922 39.9931 32.8942 39.9923 32.7931 39.9915C31.0734 39.9563 29.5587 39.287 28.3003 38.1229C28.2293 38.0466 28.1583 37.9703 28.0852 37.8917C28.0279 37.8349 27.9706 37.778 27.9115 37.7194C26.8699 36.6422 26.2821 35.2573 26.1929 33.7628C25.7387 33.7628 25.2845 33.7628 24.8166 33.7628C24.8193 33.9072 24.8193 33.9072 24.8221 34.0546C24.8283 34.4134 24.8322 34.7722 24.8355 35.131C24.8372 35.286 24.8396 35.441 24.8426 35.596C24.8467 35.8194 24.8487 36.0427 24.8502 36.2661C24.852 36.3349 24.8538 36.4038 24.8556 36.4747C24.8558 36.9304 24.7827 37.1922 24.4725 37.5477C24.0793 37.8637 23.7767 37.9416 23.2839 37.9354C23.1848 37.9362 23.1848 37.9362 23.0836 37.9371C22.8629 37.9384 22.6423 37.9373 22.4216 37.9363C22.263 37.9367 22.1045 37.9373 21.9459 37.9381C21.5158 37.9397 21.0858 37.939 20.6557 37.938C20.2055 37.9371 19.7552 37.9379 19.305 37.9384C18.549 37.9391 17.7929 37.9382 17.0368 37.9366C16.1629 37.9347 15.289 37.9353 14.4151 37.9372C13.6646 37.9388 12.914 37.939 12.1635 37.9381C11.7153 37.9376 11.2672 37.9375 10.819 37.9386C10.3976 37.9396 9.97632 37.9389 9.55497 37.9369C9.40039 37.9365 9.2458 37.9366 9.09123 37.9374C8.88008 37.9383 8.66905 37.9371 8.45792 37.9354C8.36632 37.9366 8.36632 37.9366 8.27287 37.9378C7.8429 37.931 7.60172 37.8148 7.26931 37.5477C6.90154 37.1261 6.8779 36.7992 6.89165 36.2661C6.89214 36.1943 6.89262 36.1224 6.89313 36.0484C6.89504 35.8205 6.89936 35.5928 6.90375 35.3649C6.90547 35.2098 6.90704 35.0546 6.90845 34.8995C6.91223 34.5206 6.91816 34.1417 6.92525 33.7628C6.81869 33.7638 6.71214 33.7649 6.60235 33.766C4.90528 33.7827 3.25161 32.8113 2.05459 31.6822C0.594242 30.1591 -0.0156061 28.3216 0.00368329 26.2429C0.0596514 24.2304 0.935408 22.4644 2.38084 21.0678C3.85756 19.8069 5.58583 19.2475 7.50855 19.2778C7.63193 19.2785 7.75532 19.2789 7.8787 19.2793C8.1983 19.2806 8.51783 19.2839 8.8374 19.2878C9.16556 19.2913 9.49373 19.2929 9.82191 19.2946C10.462 19.2983 11.1021 19.3041 11.7422 19.3114C11.7403 19.2151 11.7385 19.1188 11.7367 19.0195C11.7304 18.6608 11.7265 18.302 11.7233 17.9432C11.7215 17.7882 11.7192 17.6332 11.7162 17.4782C11.712 17.2548 11.7101 17.0315 11.7086 16.8081C11.7068 16.7393 11.705 16.6704 11.7032 16.5995C11.703 16.1438 11.776 15.882 12.0862 15.5265C12.4794 15.2105 12.7821 15.1326 13.2748 15.1388C13.374 15.138 13.374 15.138 13.4752 15.1371C13.6959 15.1358 13.9165 15.1368 14.1372 15.1379C14.2957 15.1375 14.4543 15.1368 14.6128 15.1361C15.0429 15.1345 15.473 15.1351 15.903 15.1362C16.3533 15.1371 16.8035 15.1363 17.2537 15.1358C18.0098 15.1351 18.7658 15.136 19.5219 15.1376C20.3958 15.1395 21.2697 15.1389 22.1437 15.137C22.8942 15.1354 23.6447 15.1352 24.3952 15.1361C24.8434 15.1366 25.2916 15.1367 25.7397 15.1356C26.1611 15.1346 26.5824 15.1353 27.0038 15.1372C27.1584 15.1377 27.3129 15.1376 27.4675 15.1368C27.6787 15.1359 27.8897 15.137 28.1008 15.1388C28.1619 15.138 28.223 15.1372 28.2859 15.1364C28.7159 15.1432 28.957 15.2593 29.2894 15.5265C29.6572 15.948 29.6809 16.275 29.6671 16.8081C29.6666 16.8799 29.6661 16.9517 29.6656 17.0257C29.6637 17.2536 29.6594 17.4814 29.655 17.7093C29.6533 17.8644 29.6517 18.0195 29.6503 18.1747C29.6465 18.5536 29.6406 18.9325 29.6335 19.3114C30.0632 19.3032 30.4928 19.2941 30.9224 19.2841C31.0679 19.2809 31.2135 19.2779 31.359 19.2751C33.3898 19.2366 35.2159 19.028 36.7812 17.5907C37.9744 16.3387 38.4521 14.9065 38.4372 13.2104C38.3983 11.6683 37.7805 10.3159 36.6724 9.23766C35.6479 8.35213 34.3991 7.88522 33.0741 7.69871C33.0759 7.79242 33.0777 7.88613 33.0796 7.98268C33.0859 8.33183 33.0898 8.68098 33.093 9.03017C33.0948 9.18102 33.0971 9.33187 33.1001 9.4827C33.1043 9.70009 33.1062 9.9174 33.1077 10.1348C33.1095 10.2018 33.1113 10.2687 33.1131 10.3377C33.1133 10.7882 33.0355 11.0457 32.7301 11.3976C32.337 11.7137 32.0342 11.7915 31.5415 11.7853C31.4754 11.7859 31.4093 11.7864 31.3411 11.787C31.1204 11.7883 30.8998 11.7873 30.6791 11.7862C30.5206 11.7866 30.362 11.7873 30.2035 11.788C29.7734 11.7896 29.3433 11.789 28.9132 11.7879C28.463 11.787 28.0128 11.7878 27.5626 11.7883C26.8065 11.789 26.0505 11.7881 25.2944 11.7865C24.4205 11.7846 23.5466 11.7852 22.6726 11.7871C21.9221 11.7887 21.1716 11.7889 20.4211 11.788C19.9729 11.7875 19.5247 11.7874 19.0766 11.7885C18.6552 11.7895 18.2339 11.7888 17.8125 11.7869C17.6579 11.7864 17.5033 11.7865 17.3488 11.7873C17.1376 11.7882 16.9266 11.7871 16.7155 11.7853C16.6544 11.7861 16.5933 11.7869 16.5304 11.7877C16.1004 11.7809 15.8593 11.6648 15.5269 11.3976C15.1591 10.9761 15.1354 10.6491 15.1492 10.116C15.1497 10.0442 15.1502 9.97236 15.1507 9.89836C15.1526 9.67046 15.1569 9.44268 15.1613 9.21481C15.163 9.05969 15.1646 8.90456 15.166 8.74943C15.1698 8.37047 15.1757 7.9916 15.1828 7.61269C14.7286 7.61269 14.2745 7.61269 13.8065 7.61269C13.8136 7.77591 13.8207 7.93913 13.828 8.1073C13.8488 8.58585 13.8488 8.58585 13.6641 8.84385C13.427 9.01454 13.2557 9.05541 12.9679 9.09653C12.8832 9.1094 12.7985 9.12226 12.7112 9.13551C12.6469 9.14394 12.5826 9.15237 12.5163 9.16105C12.5163 9.38297 12.5882 9.43667 12.726 9.60728C12.9497 9.91546 13.0395 10.1476 13.0324 10.5374C12.8186 10.9012 12.5688 11.195 12.2717 11.493C12.1929 11.5721 12.114 11.6511 12.0328 11.7326C11.9921 11.7729 11.9514 11.8132 11.9095 11.8548C11.7849 11.9785 11.6612 12.1031 11.5375 12.2279C11.4587 12.3065 11.3799 12.3851 11.2986 12.4661C11.2269 12.5376 11.1553 12.6091 11.0814 12.6827C10.7984 12.9342 10.639 13.0319 10.2584 13.0319C9.84081 12.9206 9.57315 12.7063 9.24768 12.4298C9.0663 12.6112 9.09104 12.9783 9.05784 13.2245C8.97173 13.5244 8.89718 13.6198 8.64557 13.8061C8.38765 13.8575 8.13372 13.8544 7.87143 13.8518C7.79636 13.8522 7.72129 13.8525 7.64395 13.8528C7.48547 13.8531 7.32699 13.8524 7.16851 13.851C6.92607 13.8491 6.68385 13.851 6.44141 13.8532C6.2873 13.8529 6.13318 13.8525 5.97907 13.8518C5.90667 13.8525 5.83426 13.8532 5.75966 13.8539C5.25868 13.8459 5.25868 13.8459 4.98896 13.6463C4.83103 13.4191 4.79233 13.2404 4.75334 12.9674C4.74048 12.8827 4.72762 12.798 4.71437 12.7107C4.70173 12.6142 4.70173 12.6142 4.68883 12.5158C4.46692 12.5158 4.41322 12.5877 4.24262 12.7255C3.93445 12.9493 3.70234 13.039 3.31257 13.0319C2.94874 12.8182 2.65493 12.5684 2.35699 12.2712C2.27793 12.1924 2.19887 12.1135 2.11742 12.0323C2.0771 11.9916 2.03678 11.9509 1.99524 11.909C1.87152 11.7844 1.74689 11.6607 1.62216 11.537C1.54354 11.4582 1.46493 11.3793 1.38393 11.2981C1.2767 11.1906 1.2767 11.1906 1.16729 11.0809C0.91589 10.7979 0.818106 10.6384 0.818106 10.2578C0.929456 9.84022 1.14378 9.57255 1.42022 9.24707C1.23884 9.06568 0.871777 9.09042 0.625578 9.05722C0.325678 8.97111 0.230252 8.89655 0.0439613 8.64493C-0.00738609 8.387 -0.00425769 8.13305 -0.00173471 7.87075C-0.00206389 7.79568 -0.00239306 7.72061 -0.00273221 7.64327C-0.00296602 7.48478 -0.00233338 7.32629 -0.000894711 7.1678C0.000947057 6.92535 -0.000877821 6.68311 -0.00307871 6.44067C-0.00285135 6.28655 -0.00241051 6.13243 -0.00173471 5.97831C-0.00243118 5.9059 -0.00312764 5.83349 -0.00384521 5.75889C0.00417484 5.25788 0.00417483 5.25788 0.203814 4.98815C0.430927 4.83021 0.609705 4.79151 0.882618 4.75252C0.967331 4.73966 1.05204 4.7268 1.13932 4.71354C1.20363 4.70512 1.26794 4.69669 1.3342 4.68801C1.3342 4.44482 1.2162 4.34823 1.07078 4.15576C0.889103 3.88496 0.820299 3.76678 0.791226 3.43534C1.05572 2.74259 1.73715 2.20489 2.2535 1.68806C2.31764 1.62286 2.38179 1.55766 2.44788 1.49048C2.5411 1.39701 2.5411 1.39701 2.6362 1.30164C2.69183 1.24566 2.74746 1.18967 2.80477 1.13199C3.07003 0.900575 3.23752 0.817106 3.59213 0.817106C4.00969 0.928461 4.27735 1.1428 4.60281 1.41925C4.7842 1.23786 4.75946 0.87078 4.79265 0.624569C4.97559 -0.0125871 5.40412 -0.00830298 5.97907 -0.00277221ZM6.1511 1.50527C6.12977 1.62889 6.11301 1.75332 6.09835 1.87791C6.08854 1.9537 6.07873 2.02949 6.06862 2.10757C6.04848 2.26764 6.02921 2.42781 6.01082 2.58808C5.96653 2.92042 5.93039 3.16665 5.74958 3.45248C5.45434 3.62508 5.28435 3.62427 4.94688 3.56975C4.71794 3.43529 4.52601 3.26798 4.32864 3.09126C4.13761 2.92229 3.95061 2.77323 3.74265 2.62353C3.39712 2.66318 3.22802 2.84026 2.98464 3.08051C2.91489 3.14759 2.84515 3.21468 2.77329 3.2838C2.60989 3.46407 2.60989 3.46407 2.61772 3.64703C2.78378 3.97073 3.03143 4.23914 3.26906 4.51244C3.48359 4.77465 3.56622 4.91714 3.61867 5.26159C3.57062 5.54821 3.57062 5.54821 3.45336 5.74881C3.10727 5.96775 2.752 5.99136 2.35027 6.03745C2.1931 6.05722 2.03596 6.07725 1.87886 6.09759C1.80943 6.10576 1.74 6.11393 1.66846 6.12235C1.50566 6.13439 1.50566 6.13439 1.42022 6.23637C1.41163 6.46667 1.40828 6.69426 1.40947 6.92453C1.40913 6.98906 1.4088 7.0536 1.40846 7.12009C1.37921 7.43515 1.37921 7.43515 1.50624 7.69871C1.62985 7.72004 1.75427 7.7368 1.87886 7.75146C1.95465 7.76128 2.03043 7.77109 2.10852 7.7812C2.26857 7.80133 2.42873 7.82061 2.589 7.83899C2.92132 7.88329 3.16755 7.91944 3.45336 8.10025C3.62595 8.3955 3.62514 8.5655 3.57062 8.90299C3.43617 9.13194 3.26886 9.32388 3.09216 9.52126C2.92319 9.7123 2.77414 9.89931 2.62444 10.1073C2.6641 10.4528 2.84116 10.6219 3.0814 10.8653C3.14849 10.9351 3.21557 11.0048 3.28469 11.0767C3.46495 11.2401 3.46495 11.2401 3.6479 11.2322C3.97158 11.0662 4.23998 10.8185 4.51327 10.5809C4.77547 10.3663 4.91795 10.2837 5.26238 10.2313C5.54899 10.2793 5.54899 10.2793 5.74958 10.3966C5.96852 10.7427 5.99213 11.098 6.03821 11.4997C6.05798 11.6569 6.07801 11.814 6.09835 11.9711C6.11061 12.0753 6.11061 12.0753 6.12311 12.1816C6.13515 12.3444 6.13515 12.3444 6.23712 12.4298C6.46741 12.4384 6.69499 12.4417 6.92525 12.4406C7.02205 12.4411 7.02205 12.4411 7.1208 12.4416C7.43585 12.4708 7.43585 12.4708 7.69939 12.3438C7.72073 12.2202 7.73749 12.0957 7.75215 11.9711C7.76196 11.8954 7.77177 11.8196 7.78188 11.7415C7.80201 11.5814 7.82129 11.4212 7.83967 11.261C7.88397 10.9286 7.92011 10.6824 8.10091 10.3966C8.39616 10.224 8.56615 10.2248 8.90362 10.2793C9.13256 10.4138 9.32449 10.5811 9.52186 10.7578C9.71289 10.9268 9.89989 11.0758 10.1078 11.2255C10.4534 11.1859 10.6225 11.0088 10.8659 10.7685C10.9356 10.7015 11.0053 10.6344 11.0772 10.5653C11.2406 10.385 11.2406 10.385 11.2328 10.202C11.0667 9.87833 10.8191 9.60992 10.5814 9.33662C10.3669 9.07441 10.2843 8.93192 10.2318 8.58747C10.2799 8.30085 10.2799 8.30085 10.3971 8.10025C10.7432 7.8813 11.0985 7.85769 11.5002 7.81161C11.6574 7.79184 11.8145 7.7718 11.9716 7.75146C12.0758 7.73921 12.0758 7.73921 12.182 7.7267C12.3448 7.71466 12.3448 7.71466 12.4303 7.61269C12.4389 7.38239 12.4422 7.1548 12.441 6.92453C12.4414 6.85999 12.4417 6.79546 12.442 6.72897C12.4713 6.41391 12.4713 6.41391 12.3443 6.15035C12.2206 6.12901 12.0962 6.11225 11.9716 6.09759C11.8959 6.08778 11.8201 6.07797 11.742 6.06786C11.5819 6.04772 11.4218 6.02845 11.2615 6.01006C10.9292 5.96576 10.683 5.92962 10.3971 5.74881C10.2245 5.45355 10.2254 5.28355 10.2799 4.94607C10.4143 4.71712 10.5816 4.52518 10.7583 4.3278C10.9273 4.13676 11.0764 3.94975 11.2261 3.74179C11.1864 3.39623 11.0093 3.22713 10.7691 2.98374C10.702 2.91399 10.6349 2.84424 10.5658 2.77238C10.3856 2.60897 10.3856 2.60897 10.2026 2.61681C9.87892 2.78287 9.61052 3.03053 9.33723 3.26817C9.07503 3.48271 8.93255 3.56534 8.58812 3.6178C8.30151 3.56975 8.30151 3.56975 8.10091 3.45248C7.88198 3.10637 7.85837 2.75109 7.81229 2.34934C7.79252 2.19216 7.77249 2.03501 7.75215 1.87791C7.74398 1.80847 7.73581 1.73904 7.72739 1.6675C7.71535 1.50469 7.71535 1.50469 7.61338 1.41925C7.38309 1.41066 7.15551 1.40731 6.92525 1.40849C6.86072 1.40816 6.79619 1.40783 6.7297 1.40749C6.41465 1.37824 6.41465 1.37824 6.1511 1.50527ZM16.5591 3.48373C16.5591 5.75466 16.5591 8.02558 16.5591 10.3653C21.5265 10.3653 26.4939 10.3653 31.6119 10.3653C31.6544 6.95894 31.6544 6.95894 31.6979 3.48373C26.7021 3.48373 21.7063 3.48373 16.5591 3.48373ZM13.1184 16.5588C13.1184 18.8297 13.1184 21.1006 13.1184 23.4404C18.1142 23.4404 23.11 23.4404 28.2572 23.4404C28.2572 21.1694 28.2572 18.8985 28.2572 16.5588C23.2614 16.5588 18.2656 16.5588 13.1184 16.5588ZM29.3755 29.0317C28.3148 30.058 27.6591 31.2946 27.63 32.7824C27.624 33.6354 27.6555 34.3469 27.9992 35.1391C28.0304 35.2144 28.0615 35.2897 28.0936 35.3672C28.6988 36.6987 29.847 37.7058 31.1872 38.2573C32.6515 38.7489 34.2021 38.6491 35.5893 37.9725C36.9244 37.2599 37.9164 36.0354 38.3647 34.5996C38.7372 33.2192 38.5757 31.7531 37.9277 30.4876C37.1368 29.1658 35.9529 28.1429 34.4504 27.7414C32.576 27.3394 30.8112 27.7547 29.3755 29.0317ZM8.30151 29.6338C8.30151 31.9047 8.30151 34.1757 8.30151 36.5154C13.2973 36.5154 18.2931 36.5154 23.4403 36.5154C23.4403 34.2445 23.4403 31.9736 23.4403 29.6338C18.4445 29.6338 13.4487 29.6338 8.30151 29.6338Z" fill="#FF7705"></path>
</svg>
