<?xml version="1.0" encoding="UTF-8"?>
<svg xmlns="http://www.w3.org/2000/svg" width="48" height="48" viewBox="0 0 48 48" fill="none">
  <path d="M5.71902 23.6001C5.96118 23.6019 6.20311 23.6001 6.44526 23.5978C7.40165 23.5963 8.21807 23.6117 8.9648 24.279C9.298 24.6445 9.58726 25.0623 9.58726 25.5676C9.69436 25.5285 9.80146 25.4895 9.9118 25.4492C11.9629 24.7207 14.6389 23.9271 16.7739 24.7534C17.4086 25.0594 17.9675 25.376 18.4819 25.8625C18.9543 26.3044 19.475 26.6145 20.0334 26.932C20.2747 27.0693 20.5149 27.2084 20.7551 27.3476C21.242 27.6296 21.7297 27.9104 22.2176 28.191C22.508 28.3581 22.7984 28.5254 23.0886 28.6929C23.1819 28.7467 23.2751 28.8005 23.3712 28.8559C23.5587 28.9641 23.746 29.0725 23.9333 29.181C24.3708 29.4341 24.8089 29.686 25.2501 29.9327C25.4046 30.0192 25.5588 30.1062 25.7129 30.1932C25.9051 30.3016 26.0978 30.4092 26.291 30.5157C27.0567 30.9496 27.8461 31.4654 28.2447 32.2782C28.2845 32.3562 28.3242 32.4343 28.3652 32.5147C28.5465 32.9395 28.5585 33.3206 28.556 33.7797C28.5563 33.8419 28.5566 33.9041 28.557 33.9681C28.5564 34.2699 28.5385 34.5379 28.4577 34.8281C28.529 34.8092 28.6004 34.7903 28.6739 34.7709C29.8491 34.4681 31.0361 34.2207 32.2233 33.9698C32.5291 33.905 32.835 33.84 33.1408 33.7751C33.6529 33.6663 34.1651 33.5577 34.6773 33.4493C35.3991 33.2965 36.1208 33.1433 36.8425 32.9901C37.8632 32.7734 38.8839 32.5569 39.9047 32.3407C40.0047 32.3195 40.1046 32.2983 40.2077 32.2765C40.2996 32.2571 40.3915 32.2376 40.4863 32.2175C40.5659 32.2007 40.6455 32.1838 40.7275 32.1664C40.8011 32.1511 40.8747 32.1357 40.9506 32.1198C41.0251 32.1039 41.0996 32.088 41.1763 32.0715C42.1679 31.888 43.2154 31.9622 44.0957 32.4693C44.8668 33.0141 45.4226 33.7353 45.6682 34.6534C45.7879 35.7358 45.6853 36.7083 45.0348 37.6073C44.1984 38.6039 43.0919 38.9023 41.8761 39.2215C41.7398 39.2578 41.6036 39.2942 41.4674 39.3306C41.1734 39.409 40.8794 39.4871 40.5853 39.5648C40.1131 39.6896 39.6412 39.8152 39.1693 39.941C38.6655 40.0753 38.1617 40.2094 37.6578 40.3433C36.3837 40.6818 35.1102 41.0223 33.837 41.3639C33.7444 41.3888 33.6518 41.4136 33.5564 41.4392C33.092 41.5638 32.6276 41.6884 32.1632 41.8131C31.7208 41.9318 31.2784 42.0505 30.836 42.1691C30.6657 42.2148 30.4954 42.2605 30.3251 42.3062C29.9085 42.4179 29.4918 42.5294 29.075 42.6403C28.3089 42.8443 27.5437 43.0505 26.7804 43.265C26.4254 43.3646 26.07 43.4628 25.7146 43.5608C25.5475 43.6073 25.3805 43.6545 25.2137 43.7025C22.0892 44.6 19.7796 43.3191 17.0698 41.8301C16.6706 41.6091 16.2754 41.3816 15.8811 41.1521C13.8692 39.9835 11.9365 39.0628 9.58726 38.9342C9.58399 38.9848 9.58073 39.0355 9.57736 39.0877C9.52348 39.7279 9.34511 40.2126 8.88836 40.6814C8.44081 40.9698 8.01821 41.2146 7.47649 41.2197C7.40356 41.2205 7.33062 41.2213 7.25548 41.2222C7.17685 41.2226 7.09823 41.223 7.01722 41.2233C6.93586 41.2238 6.85451 41.2243 6.77069 41.2248C6.59834 41.2257 6.42598 41.2262 6.25362 41.2266C5.99152 41.2274 5.72947 41.2301 5.46738 41.2329C5.29965 41.2335 5.13192 41.2339 4.96419 41.2343C4.88644 41.2353 4.8087 41.2364 4.72861 41.2375C4.03665 41.2351 3.43354 41.0793 2.92374 40.5854C2.27717 39.8734 2.27348 39.061 2.28099 38.1504C2.28054 38.0111 2.27991 37.8718 2.2791 37.7325C2.27749 37.3565 2.27861 36.9806 2.28033 36.6046C2.28177 36.21 2.28099 35.8155 2.28055 35.4209C2.28015 34.7586 2.28153 34.0964 2.28398 33.4341C2.28678 32.6696 2.28678 31.9051 2.28527 31.1405C2.28388 30.4033 2.28448 29.6661 2.28597 28.9289C2.28656 28.6159 2.28648 28.3029 2.28583 27.9899C2.28516 27.6212 2.28623 27.2525 2.28861 26.8838C2.28921 26.7488 2.28922 26.6139 2.28859 26.4789C2.28504 25.6193 2.32173 24.9255 2.95859 24.279C3.76971 23.5583 4.68924 23.5906 5.71902 23.6001ZM3.99603 25.3929C3.65157 25.977 3.69688 26.5822 3.70002 27.243C3.69967 27.3687 3.6992 27.4943 3.69863 27.6199C3.69744 27.9598 3.6979 28.2996 3.69873 28.6395C3.6994 28.9959 3.69878 29.3523 3.69837 29.7087C3.69789 30.3071 3.69852 30.9054 3.69977 31.5038C3.7012 32.1948 3.70073 32.8857 3.69929 33.5766C3.6981 34.1708 3.69793 34.7649 3.69862 35.3591C3.69903 35.7136 3.69908 36.068 3.69822 36.4225C3.69746 36.7558 3.69799 37.0891 3.6995 37.4224C3.69984 37.5444 3.69975 37.6664 3.69917 37.7884C3.68151 38.7794 3.68151 38.7794 4.14177 39.6252C4.44529 39.7671 4.74281 39.7595 5.07134 39.7583C5.14156 39.7588 5.21178 39.7592 5.28412 39.7597C5.43238 39.7602 5.58064 39.7601 5.72889 39.7594C5.95518 39.7586 6.18128 39.7612 6.40755 39.7639C6.55185 39.7641 6.69615 39.764 6.84044 39.7638C6.94148 39.7652 6.94148 39.7652 7.04455 39.7667C7.37157 39.7625 7.55923 39.7324 7.83695 39.5539C8.12676 39.2557 8.11353 39.0722 8.11553 38.6641C8.11629 38.5505 8.11704 38.437 8.11781 38.32C8.1182 38.1934 8.11857 38.0669 8.11894 37.9403C8.11963 37.8076 8.12035 37.6748 8.1211 37.5421C8.1234 37.1055 8.12473 36.669 8.12598 36.2324C8.12645 36.0822 8.12692 35.932 8.12739 35.7818C8.12928 35.1572 8.13091 34.5325 8.1319 33.9078C8.13332 33.0121 8.13622 32.1164 8.14119 31.2206C8.14457 30.5911 8.14628 29.9616 8.14674 29.332C8.14706 28.9559 8.14811 28.5797 8.15094 28.2036C8.15357 27.8497 8.15412 27.4959 8.15309 27.142C8.15308 27.0121 8.1538 26.8823 8.15534 26.7524C8.15731 26.5751 8.15633 26.3977 8.15521 26.2204C8.1555 26.1212 8.15578 26.0219 8.15608 25.9197C8.08519 25.5721 7.93356 25.442 7.66527 25.2182C7.3969 25.084 7.11456 25.1147 6.81997 25.113C6.75338 25.1125 6.6868 25.112 6.61819 25.1115C6.47712 25.1107 6.33604 25.1101 6.19497 25.1098C5.97982 25.109 5.76475 25.1062 5.54962 25.1035C5.41249 25.1029 5.27536 25.1025 5.13823 25.1021C5.07415 25.101 5.01007 25.1 4.94405 25.0989C4.55354 25.1005 4.29315 25.1319 3.99603 25.3929ZM9.58726 27.1401C9.58726 30.5421 9.58726 33.944 9.58726 37.449C10.0485 37.4778 10.5098 37.5066 10.9851 37.5363C12.4437 37.7718 13.7802 38.3312 15.0814 39.0123C15.2712 39.1117 15.4617 39.2098 15.6522 39.3078C16.421 39.7059 17.178 40.1222 17.9304 40.5504C20.8304 42.3321 20.8304 42.3321 24.1036 42.4482C24.1866 42.4251 24.2696 42.402 24.355 42.3782C24.4463 42.3539 24.5375 42.3296 24.6315 42.3046C24.9353 42.2234 25.2386 42.1404 25.5419 42.0574C25.7623 41.9981 25.9827 41.9389 26.2032 41.8799C26.7397 41.7359 27.2759 41.5906 27.8119 41.4447C28.4944 41.2591 29.1771 41.0749 29.8599 40.8906C30.6478 40.6779 31.4356 40.465 32.2232 40.2512C33.7132 39.8468 35.2043 39.4469 36.697 39.0527C36.9698 38.9806 37.2426 38.9084 37.5153 38.8362C37.6048 38.8125 37.6943 38.7888 37.7865 38.7644C37.9665 38.7168 38.1464 38.6692 38.3263 38.6215C38.8553 38.4816 39.3845 38.3423 39.9137 38.2035C40.2438 38.1168 40.5737 38.0295 40.9035 37.942C41.0571 37.9014 41.2108 37.8611 41.3646 37.821C41.5764 37.7659 41.7879 37.7097 41.9993 37.6534C42.0602 37.6378 42.1211 37.6222 42.1838 37.6061C42.7687 37.4482 43.3405 37.2325 43.7353 36.7555C43.7837 36.6989 43.8321 36.6422 43.882 36.5839C44.2424 36.0608 44.2455 35.5314 44.183 34.9155C44.0292 34.3303 43.6454 33.991 43.1347 33.6924C42.2907 33.2961 41.2997 33.5383 40.4273 33.7311C40.32 33.7538 40.2127 33.7766 40.1021 33.8C39.8104 33.862 39.519 33.9251 39.2277 33.9886C38.9181 34.0558 38.6082 34.1217 38.2984 34.1877C37.7094 34.3134 37.1206 34.4403 36.5319 34.5676C35.8101 34.7237 35.0879 34.8783 34.3658 35.0328C33.6065 35.1954 32.8473 35.3581 32.0883 35.5217C31.0423 35.7472 29.9964 35.9723 28.9487 36.1897C28.8297 36.2145 28.8297 36.2145 28.7083 36.2397C28.3588 36.3124 28.0091 36.3845 27.6593 36.4557C27.0649 36.5779 26.4968 36.7236 25.9241 36.9248C25.6136 36.9627 25.6136 36.9627 25.3235 36.963C25.1806 36.9656 25.1806 36.9656 25.0348 36.9681C24.1284 36.8504 23.3641 36.3869 22.588 35.931C22.4804 35.8686 22.3728 35.8062 22.2651 35.7439C21.9927 35.586 21.7208 35.4273 21.4491 35.2682C21.2117 35.1295 20.9738 34.9916 20.7359 34.8537C20.3916 34.6539 20.0481 34.4529 19.705 34.251C19.354 34.0448 19.0008 33.8434 18.6457 33.6442C18.5568 33.5936 18.4679 33.5431 18.3762 33.4909C18.2073 33.3948 18.0376 33.2999 17.8672 33.2063C17.31 32.8865 17.31 32.8865 17.1332 32.5423C17.0964 32.264 17.123 32.0427 17.1878 31.7704C17.6255 31.6245 17.959 31.5998 18.3818 31.7851C18.6549 31.935 18.9207 32.0935 19.1863 32.2563C19.3375 32.3463 19.4887 32.4364 19.64 32.5262C19.7966 32.6195 19.9529 32.7134 20.1091 32.8074C20.5966 33.1 21.0903 33.382 21.5833 33.6651C21.7707 33.7731 21.958 33.8812 22.1454 33.9893C22.6729 34.2932 23.2008 34.5966 23.7292 34.8991C23.805 34.9426 23.8808 34.9861 23.9589 35.0309C24.0288 35.0708 24.0987 35.1108 24.1707 35.1519C24.2616 35.2039 24.2616 35.2039 24.3543 35.257C24.8407 35.5264 25.1906 35.5942 25.7494 35.527C26.3307 35.3497 26.674 35.0073 26.9821 34.4909C27.1559 34.073 27.1224 33.5746 27.0059 33.1433C26.6574 32.3428 25.7658 31.963 25.0434 31.5579C24.8823 31.4676 24.7215 31.3767 24.5609 31.2856C24.3937 31.1909 24.2264 31.0962 24.0591 31.0017C23.4169 30.6387 22.7785 30.2694 22.1399 29.9001C21.7063 29.6494 21.2725 29.399 20.8375 29.1507C20.6844 29.0632 20.5314 28.9756 20.3783 28.8879C20.1879 28.7789 19.9974 28.6702 19.8066 28.5618C18.9759 28.0854 18.1572 27.5925 17.4445 26.949C15.1908 25.0241 12.0184 26.3298 9.58726 27.1401Z" fill="#FF7705"></path>
  <path d="M32.5582 3.87994C32.6713 3.87926 32.7843 3.87858 32.9007 3.87789C34.7179 3.88157 34.7179 3.88157 35.3382 4.4751C35.5315 4.6988 35.5483 4.86775 35.5617 5.15557C35.5672 5.26706 35.5672 5.26706 35.5728 5.38081C35.5762 5.45851 35.5797 5.53622 35.5832 5.61628C35.587 5.69466 35.5907 5.77304 35.5946 5.85379C35.6039 6.04762 35.6128 6.24145 35.6214 6.4353C35.7205 6.46909 35.8196 6.50287 35.9217 6.53768C36.0546 6.58361 36.1875 6.62957 36.3203 6.67555C36.3853 6.69763 36.4503 6.7197 36.5172 6.74244C36.9182 6.88193 37.2806 7.04246 37.6461 7.25954C37.8101 7.32806 37.8101 7.32806 37.9868 7.24233C38.2988 7.04168 38.5547 6.77553 38.8242 6.52233C39.0949 6.29136 39.316 6.24477 39.662 6.23328C39.7255 6.23001 39.789 6.22675 39.8544 6.22338C40.4109 6.31642 40.8287 6.70832 41.2236 7.08507C41.2889 7.14596 41.2889 7.14596 41.3556 7.20809C41.7947 7.61906 42.2146 8.04549 42.6214 8.48834C42.6955 8.56852 42.7696 8.6487 42.8459 8.73131C43.2502 9.20819 43.3598 9.51595 43.3391 10.1359C43.2587 10.7602 42.6942 11.1755 42.261 11.5897C42.4171 12.0834 42.6231 12.5475 42.8343 13.0196C42.9681 13.3577 43.0537 13.682 43.1346 14.0359C43.2421 14.0318 43.3495 14.0278 43.4602 14.0236C43.6028 14.0203 43.7455 14.0171 43.8881 14.014C43.9587 14.0111 44.0294 14.0082 44.1021 14.0052C44.5827 13.9974 44.851 14.0637 45.2313 14.3853C45.9928 15.332 45.7841 17.0193 45.6955 18.1693C45.6869 18.2966 45.6869 18.2966 45.6781 18.4265C45.6248 19.0205 45.5102 19.382 45.0512 19.7855C44.7879 19.9468 44.5713 19.9874 44.2693 19.9851C44.2032 19.9848 44.137 19.9845 44.0688 19.9843C44.0002 19.9835 43.9316 19.9828 43.8608 19.982C43.7912 19.9816 43.7215 19.9812 43.6498 19.9808C43.4781 19.9798 43.3063 19.9782 43.1346 19.9766C43.1138 20.0557 43.1138 20.0557 43.0926 20.1364C42.9933 20.5072 42.8729 20.8584 42.7128 21.2072C42.6845 21.269 42.6561 21.3308 42.6269 21.3945C42.5691 21.5184 42.5101 21.6417 42.4499 21.7644C42.291 22.0893 42.291 22.0893 42.306 22.4391C42.471 22.6405 42.6465 22.8212 42.8343 23.0015C43.1983 23.3521 43.3234 23.5039 43.3367 24.0117C43.3399 24.0922 43.3432 24.1727 43.3466 24.2557C43.2628 24.8493 42.8631 25.2703 42.463 25.6879C42.4168 25.7369 42.3705 25.7859 42.3228 25.8364C42.2296 25.9348 42.1361 26.0328 42.0422 26.1306C41.9269 26.2507 41.8129 26.3719 41.6989 26.4933C41.1571 27.0574 40.5149 27.7122 39.7002 27.7737C39.1152 27.7341 38.7804 27.4488 38.3843 27.0366C38.3079 26.9579 38.2316 26.8792 38.1529 26.7981C38.0959 26.738 38.0389 26.678 37.9802 26.6162C37.9278 26.6395 37.8755 26.6629 37.8215 26.687C37.5817 26.7934 37.3414 26.8986 37.1011 27.0038C37.0187 27.0406 36.9364 27.0774 36.8515 27.1153C36.4073 27.3087 36.0183 27.4529 35.534 27.4898C35.5381 27.6035 35.5422 27.7173 35.5463 27.8345C35.5496 27.9853 35.5528 28.1361 35.5559 28.287C35.5588 28.3618 35.5617 28.4365 35.5648 28.5136C35.5723 29.004 35.5206 29.2898 35.1846 29.6739C34.174 30.4793 32.1044 30.1836 30.9038 30.0561C30.4771 29.9829 30.1922 29.8682 29.8759 29.5715C29.5751 29.1259 29.5703 28.6721 29.5824 28.1559C29.5832 28.0916 29.584 28.0273 29.5848 27.9611C29.5869 27.804 29.59 27.6469 29.5934 27.4898C29.4339 27.4628 29.4339 27.4628 29.2712 27.4352C28.7933 27.3307 28.3736 27.1285 27.9348 26.9165C27.7041 26.8065 27.473 26.708 27.2346 26.6162C27.1381 26.7172 27.1381 26.7172 27.0397 26.8202C26.9536 26.9088 26.8675 26.9973 26.7814 27.0857C26.7392 27.1301 26.697 27.1745 26.6536 27.2202C26.3045 27.5763 26.0397 27.7289 25.5474 27.7846C24.7128 27.6998 24.1859 27.128 23.6124 26.5718C23.4821 26.4454 23.3504 26.3205 23.2186 26.1957C21.9397 24.959 21.9397 24.959 21.8071 24.241C21.8288 23.5815 22.1082 23.2295 22.5415 22.763C22.6908 22.5984 22.8232 22.4276 22.9538 22.248C22.9127 22.1646 22.8716 22.0811 22.8292 21.9951C22.509 21.3341 22.2377 20.6985 22.0801 19.9766C21.979 19.9796 21.8779 19.9827 21.7737 19.9858C21.6392 19.9882 21.5048 19.9906 21.3703 19.993C21.3039 19.9952 21.2374 19.9973 21.169 19.9996C20.7353 20.0052 20.448 19.9521 20.0708 19.7145C19.3838 19.0275 19.4562 17.9414 19.4429 17.0335C19.445 15.0938 19.445 15.0938 19.8961 14.4727C20.2272 14.182 20.4288 14.0243 20.8687 14.0274C20.939 14.0276 21.0094 14.0279 21.082 14.0282C21.1923 14.0293 21.1923 14.0293 21.3048 14.0304C21.379 14.0308 21.4532 14.0312 21.5297 14.0316C21.7132 14.0327 21.8967 14.0342 22.0801 14.0359C22.0982 13.9314 22.1162 13.8269 22.1347 13.7192C22.2653 13.1232 22.5324 12.5814 22.779 12.0265C22.8381 11.8813 22.8967 11.7358 22.9538 11.5897C22.8864 11.5264 22.8191 11.4631 22.7497 11.3979C22.6612 11.3127 22.5727 11.2273 22.4842 11.142C22.4398 11.1005 22.3955 11.0591 22.3497 11.0164C22.0581 10.7325 21.9077 10.5016 21.8181 10.1046C21.8181 9.00194 22.7539 8.20395 23.4843 7.47001C24.7905 6.22043 24.7905 6.22043 25.7262 6.23703C26.2786 6.30275 26.6245 6.78321 26.9701 7.17687C27.1386 7.33182 27.1386 7.33182 27.3581 7.29836C27.597 7.21714 27.8204 7.12286 28.0481 7.01408C29.105 6.52267 29.105 6.52267 29.5934 6.52267C29.5903 6.42886 29.5873 6.33505 29.5841 6.2384C29.5817 6.11293 29.5793 5.98746 29.577 5.86198C29.5748 5.80044 29.5726 5.73889 29.5703 5.67549C29.5624 5.10329 29.6844 4.70108 30.0793 4.26761C30.7549 3.76469 31.7644 3.8752 32.5582 3.87994ZM31.0785 5.47431C31.0773 5.53116 31.076 5.58801 31.0747 5.64658C31.0682 5.90408 31.0597 6.16148 31.0512 6.41892C31.0493 6.5084 31.0473 6.59787 31.0453 6.69006C31.0406 6.81886 31.0406 6.81886 31.0359 6.95027C31.0336 7.02942 31.0313 7.10857 31.0289 7.19011C30.9836 7.43746 30.9302 7.51075 30.7291 7.65839C30.5503 7.73457 30.5503 7.73457 30.3452 7.79626C30.2316 7.8317 30.2316 7.8317 30.1156 7.86786C30.0352 7.89243 29.9547 7.917 29.8718 7.94232C29.0398 8.20679 28.238 8.51171 27.5025 8.9917C27.2038 9.09839 27.0138 9.05411 26.7104 8.96883C26.4821 8.80104 26.2954 8.60378 26.1043 8.39551C26.0529 8.34174 26.0015 8.28796 25.9485 8.23256C25.8227 8.10057 25.6985 7.967 25.5747 7.83311C24.699 8.23326 23.8979 9.13344 23.3906 9.92983C23.4716 10.0098 23.5525 10.0897 23.636 10.1721C23.7416 10.277 23.8473 10.3819 23.953 10.4868C24.0064 10.5395 24.0599 10.5922 24.1149 10.6465C24.1659 10.6972 24.2168 10.7478 24.2693 10.8C24.3165 10.8467 24.3636 10.8934 24.4121 10.9415C24.5954 11.1406 24.6141 11.2454 24.6382 11.5215C24.6097 11.905 24.5066 12.0926 24.3079 12.4197C23.9239 13.0802 23.6871 13.773 23.4597 14.5005C23.4328 14.5837 23.406 14.6669 23.3783 14.7525C23.3553 14.827 23.3323 14.9015 23.3086 14.9782C23.195 15.2152 23.095 15.3054 22.8664 15.4337C22.6583 15.4715 22.6583 15.4715 22.431 15.4784C22.3493 15.4815 22.2677 15.4846 22.1835 15.4878C22.099 15.4898 22.0144 15.4917 21.9273 15.4938C21.8413 15.4967 21.7554 15.4997 21.6669 15.5028C21.4552 15.51 21.2435 15.516 21.0318 15.5211C20.9249 16.5235 20.9249 17.489 21.0318 18.4914C21.1164 18.4926 21.1164 18.4926 21.2027 18.4939C21.4588 18.4986 21.7148 18.5059 21.9709 18.5132C22.0597 18.5145 22.1484 18.5157 22.2399 18.517C22.8874 18.5383 22.8874 18.5383 23.1776 18.7153C23.3448 18.9987 23.4228 19.2887 23.4998 19.6053C23.7112 20.3991 24.0516 21.0903 24.4389 21.8112C24.6241 22.1569 24.6736 22.3724 24.6137 22.7722C24.3979 23.0937 24.125 23.3574 23.8417 23.6195C23.7142 23.7384 23.5952 23.8663 23.478 23.9953C23.485 24.3602 23.7597 24.5916 23.9967 24.8416C24.0604 24.9101 24.0604 24.9101 24.1254 24.9799C24.5274 25.4059 24.9556 25.7977 25.3999 26.1793C25.753 26.0396 25.9834 25.7874 26.2408 25.5187C26.7722 24.9684 26.7722 24.9684 27.1209 24.931C27.4721 24.9618 27.7087 25.0962 28.0044 25.273C28.655 25.6417 29.3217 25.886 30.0295 26.1205C30.8871 26.4081 30.8871 26.4081 30.9912 26.6162C31.0045 26.7617 31.0129 26.9077 31.0188 27.0537C31.0225 27.1398 31.0261 27.226 31.0299 27.3147C31.0333 27.4049 31.0368 27.4951 31.0403 27.5881C31.0441 27.679 31.0479 27.7698 31.0517 27.8635C31.061 28.0884 31.0699 28.3132 31.0785 28.5382C31.5925 28.6272 32.0919 28.6386 32.6128 28.6364C32.6932 28.6368 32.7736 28.6371 32.8563 28.6375C33.2638 28.6369 33.6482 28.6222 34.0489 28.5382C34.0553 28.366 34.0553 28.366 34.0618 28.1904C34.0684 28.0388 34.075 27.8871 34.0816 27.7355C34.0843 27.66 34.087 27.5845 34.0898 27.5067C34.1268 26.7029 34.1268 26.7029 34.311 26.4414C34.5478 26.3341 34.7632 26.2543 35.0099 26.1793C35.1406 26.134 35.271 26.088 35.4013 26.0415C35.5016 26.006 35.5016 26.006 35.6039 25.9698C36.299 25.7219 36.9318 25.4527 37.5642 25.0685C37.8471 24.9369 38.021 24.9154 38.3297 24.9563C38.5122 25.0685 38.5122 25.0685 38.6737 25.2238C38.7613 25.3066 38.7613 25.3066 38.8508 25.391C38.9094 25.4494 38.9681 25.5077 39.0286 25.5678C39.0881 25.6261 39.1477 25.6845 39.2091 25.7446C39.3542 25.8882 39.4978 26.033 39.6401 26.1793C39.9959 25.9826 40.2927 25.7441 40.5902 25.4695C40.6359 25.4276 40.6816 25.3857 40.7287 25.3425C41.1103 24.9849 41.4363 24.5986 41.7368 24.17C41.5817 23.7691 41.2556 23.522 40.9342 23.2532C40.6722 23.0116 40.5667 22.825 40.5496 22.477C40.5769 22.0506 40.7357 21.7544 40.956 21.3962C41.3356 20.7383 41.5818 20.0728 41.7983 19.3458C41.8324 19.2339 41.8324 19.2339 41.8672 19.1197C41.8864 19.0532 41.9057 18.9867 41.9255 18.9182C41.9989 18.7535 41.9989 18.7535 42.261 18.5788C42.4578 18.5523 42.4578 18.5523 42.6849 18.5457C42.7664 18.5427 42.8479 18.5397 42.9319 18.5366C43.0168 18.5343 43.1017 18.532 43.1892 18.5296C43.3578 18.5244 43.5264 18.5189 43.695 18.5129C43.7697 18.5108 43.8445 18.5087 43.9215 18.5066C44.0955 18.5102 44.0955 18.5102 44.183 18.404C44.1918 18.1975 44.1952 17.9936 44.1946 17.787C44.1947 17.7253 44.1948 17.6636 44.1948 17.6C44.1949 17.4693 44.1947 17.3386 44.1944 17.2078C44.1939 17.0071 44.1944 16.8063 44.1949 16.6056C44.1949 16.4789 44.1948 16.3521 44.1946 16.2254C44.1949 16.1348 44.1949 16.1348 44.1951 16.0423C44.2181 15.7572 44.2181 15.7572 44.0956 15.5211C43.9698 15.5095 43.8435 15.5033 43.7172 15.4996C43.6402 15.4967 43.5632 15.4938 43.4839 15.4909C43.3213 15.4855 43.1586 15.4805 42.9959 15.4758C42.9186 15.4729 42.8413 15.4699 42.7616 15.4668C42.6908 15.4646 42.62 15.4624 42.547 15.4602C42.3233 15.4304 42.1853 15.3869 41.9989 15.259C41.9142 15.0929 41.9142 15.0929 41.8556 14.8897C41.8327 14.8146 41.8098 14.7394 41.7862 14.662C41.7627 14.5815 41.7392 14.501 41.715 14.4181C41.3338 13.0882 41.3338 13.0882 40.6011 11.9392C40.5346 11.5908 40.5204 11.2787 40.7161 10.9737C40.8742 10.8026 41.0384 10.6468 41.2126 10.4922C41.271 10.4374 41.3293 10.3826 41.3894 10.3262C41.5327 10.1921 41.6775 10.0602 41.8242 9.92983C41.5083 9.47355 41.162 9.07603 40.7704 8.6849C40.704 8.61847 40.704 8.61847 40.6363 8.5507C40.3752 8.29327 40.1053 8.05692 39.8148 7.83311C39.479 7.96993 39.2767 8.18439 39.0286 8.44465C38.5247 8.97315 38.5247 8.97315 38.2423 9.0562C37.7307 9.03788 37.3928 8.86004 36.9646 8.60846C36.3037 8.23482 35.6338 7.99124 34.9034 7.787C34.3493 7.62245 34.3493 7.62245 34.1748 7.38845C34.1186 7.01808 34.095 6.65114 34.0816 6.27696C34.0783 6.19976 34.0749 6.12256 34.0714 6.04302C34.0632 5.85348 34.0559 5.6639 34.0489 5.47431C33.765 5.37967 33.5561 5.37565 33.2575 5.37535C33.1015 5.37518 33.1015 5.37518 32.9423 5.375C32.8336 5.37534 32.7249 5.37568 32.6128 5.37603C32.5045 5.37569 32.3961 5.37535 32.2844 5.375C32.1282 5.37517 32.1282 5.37517 31.9689 5.37535C31.8736 5.37544 31.7782 5.37554 31.68 5.37564C31.4637 5.38535 31.2846 5.41149 31.0785 5.47431Z" fill="#FF7705"></path>
  <path d="M32.337 9.91599C34.1377 9.85371 35.963 10.4874 37.2979 11.6991C38.6933 13.0196 39.5453 14.6304 39.6611 16.5686C39.7142 18.6192 39.0816 20.367 37.7245 21.9165C36.6508 23.0462 35.043 23.9043 33.4717 24.0109C31.3281 24.0581 29.4773 23.7469 27.8463 22.2482C27.7847 22.1925 27.7231 22.1369 27.6596 22.0796C26.4349 20.9178 25.6188 19.2392 25.554 17.5449C25.5118 15.4405 26.0493 13.6277 27.5127 12.059C28.8048 10.7229 30.5004 10.0384 32.337 9.91599ZM28.3923 13.2989C27.3521 14.515 26.9484 16.0225 27.0416 17.5974C27.1803 19.0642 27.9536 20.4036 29.0748 21.3472C29.4315 21.6068 29.8135 21.8122 30.2051 22.0134C30.2621 22.0429 30.3191 22.0724 30.3778 22.1029C31.6065 22.707 33.1965 22.7045 34.4798 22.2707C35.9267 21.6779 37.0527 20.6923 37.7129 19.255C38.3219 17.6852 38.3206 16.2867 37.6934 14.7158C37.0525 13.3305 35.9759 12.3445 34.5733 11.7646C32.2992 10.9966 30.0692 11.5904 28.3923 13.2989Z" fill="#FF7705"></path>
  <path d="M35.2723 14.4726C35.5289 14.6528 35.5289 14.6528 35.7091 14.9094C35.7476 15.2574 35.7493 15.4537 35.5678 15.7571C35.5027 15.8305 35.4376 15.9039 35.3706 15.9796C35.2628 16.1032 35.2628 16.1032 35.1528 16.2294C35.0769 16.3127 35.001 16.3961 34.9228 16.4819C34.8505 16.5617 34.7782 16.6414 34.7037 16.7235C34.5577 16.8837 34.4113 17.0436 34.2645 17.203C34.0556 17.4358 33.8577 17.6743 33.6615 17.918C33.3663 18.2833 33.0607 18.6359 32.7442 18.9827C32.7029 19.0282 32.6616 19.0738 32.619 19.1207C32.3624 19.3993 32.2326 19.5228 31.8542 19.5833C31.3591 19.5194 31.1609 19.2744 30.8168 18.9281C30.7135 18.8278 30.6101 18.7276 30.5066 18.6274C30.3951 18.5185 30.2837 18.4094 30.1725 18.3002C30.1183 18.2472 30.0642 18.1943 30.0085 18.1397C29.9574 18.0887 29.9063 18.0377 29.8537 17.9852C29.8079 17.9397 29.762 17.8941 29.7147 17.8473C29.4802 17.5717 29.4161 17.4103 29.4353 17.0443C29.5063 16.744 29.5063 16.744 29.6046 16.5802C29.8676 16.4224 30.0746 16.3997 30.38 16.3946C30.9417 16.6567 31.3528 17.1775 31.7778 17.6176C32.529 16.8744 33.2102 16.0796 33.8745 15.2588C34.5888 14.3901 34.5888 14.3901 35.2723 14.4726Z" fill="#FF7705"></path>
  <path d="M6.44201 26.4412C6.79458 26.635 7.0134 26.8449 7.14092 27.2275C7.18854 27.6374 7.18009 27.9354 6.99349 28.3086C6.73952 28.5969 6.55926 28.7694 6.17037 28.8277C5.69483 28.8524 5.41169 28.7743 5.04421 28.4506C4.75305 28.1206 4.72796 27.7854 4.73878 27.3596C4.81113 26.9933 5.02694 26.7653 5.3063 26.5286C5.65553 26.354 6.06336 26.385 6.44201 26.4412Z" fill="#FF7705"></path>
</svg>
