<?xml version="1.0" encoding="UTF-8"?>
<svg xmlns="http://www.w3.org/2000/svg" width="58" height="58" viewBox="0 0 58 58" fill="none">
  <g clip-path="url(#clip0_3791_107)">
    <path d="M25.6878 8.36096C25.7665 8.36003 25.8451 8.35911 25.9262 8.35815C26.187 8.35534 26.4479 8.35347 26.7087 8.35183C26.7978 8.35123 26.8869 8.35063 26.9786 8.35001C27.4501 8.34698 27.9216 8.34478 28.393 8.34315C28.8799 8.34126 29.3666 8.33619 29.8535 8.33042C30.2279 8.32661 30.6023 8.3253 30.9768 8.32466C31.1562 8.3239 31.3357 8.32217 31.5151 8.31946C31.7665 8.31588 32.0177 8.31587 32.2692 8.31671C32.4836 8.31534 32.4836 8.31534 32.7023 8.31393C33.1787 8.40114 33.343 8.57974 33.645 8.94922C33.7869 9.23298 33.7711 9.42596 33.7693 9.74307C33.769 9.85478 33.7686 9.96649 33.7682 10.0816C33.7673 10.1986 33.7663 10.3155 33.7653 10.436C33.7648 10.5539 33.7643 10.6717 33.7638 10.7931C33.7625 11.0848 33.7606 11.3764 33.7583 11.668C33.8417 11.6848 33.9252 11.7016 34.0111 11.7189C35.0475 11.9348 35.9666 12.3627 36.922 12.8065C37.2619 12.9622 37.6054 13.1084 37.9497 13.2539C37.9965 13.2065 38.0434 13.159 38.0917 13.1101C38.3036 12.8958 38.5161 12.6819 38.7285 12.468C38.8022 12.3933 38.876 12.3186 38.9519 12.2417C39.0582 12.1349 39.0582 12.1349 39.1666 12.026C39.2644 11.9272 39.2644 11.9272 39.3643 11.8264C39.7082 11.5083 40.0422 11.4936 40.4952 11.5044C40.8324 11.5636 40.9541 11.6574 41.2024 11.8889C41.3196 11.9974 41.3196 11.9974 41.4392 12.108C41.5213 12.1871 41.6034 12.2662 41.688 12.3477C41.7715 12.428 41.8551 12.5083 41.9411 12.5911C42.216 12.8589 42.4882 13.1292 42.7597 13.4004C42.8585 13.4988 42.9572 13.5971 43.059 13.6985C43.2661 13.905 43.473 14.1117 43.6798 14.3185C43.9969 14.6353 44.3148 14.9512 44.6328 15.2671C44.8345 15.4684 45.0361 15.6698 45.2377 15.8713C45.3328 15.9656 45.4279 16.0599 45.5259 16.157C45.6137 16.2452 45.7015 16.3333 45.7919 16.4241C45.9078 16.5397 45.9078 16.5397 46.026 16.6577C46.3307 17.0066 46.437 17.2528 46.4882 17.7144C46.4095 18.4754 45.8684 18.9611 45.3413 19.4702C45.2552 19.5548 45.2552 19.5548 45.1674 19.641C45.0276 19.7781 44.8872 19.9145 44.7465 20.0508C44.7884 20.1404 44.7884 20.1404 44.8311 20.2318C46.3325 23.4605 46.3325 23.4605 46.3325 24.2422C46.4044 24.2398 46.4764 24.2374 46.5505 24.235C46.879 24.2255 47.2075 24.2197 47.5361 24.2139C47.6493 24.2101 47.7624 24.2063 47.879 24.2024C48.3998 24.1955 48.7517 24.2088 49.2309 24.428C49.6224 24.8107 49.7151 25.1863 49.7605 25.7266C49.7612 25.914 49.7612 25.914 49.762 26.1051C49.7631 26.2476 49.7642 26.3902 49.7653 26.537C49.7653 26.6912 49.7652 26.8453 49.765 26.9994C49.7654 27.1591 49.7659 27.3188 49.7665 27.4785C49.7673 27.8124 49.7673 28.1463 49.7667 28.4802C49.766 28.9066 49.7679 29.3329 49.7706 29.7592C49.7722 30.0888 49.7723 30.4183 49.772 30.7479C49.772 30.905 49.7726 31.0621 49.7738 31.2193C49.7837 32.7655 49.7837 32.7655 49.3911 33.418C48.8125 33.8623 48.1756 33.7974 47.4795 33.779C47.3691 33.7775 47.2587 33.776 47.1449 33.7744C46.874 33.7704 46.6033 33.7648 46.3325 33.7578C46.3134 33.836 46.2943 33.9142 46.2746 33.9947C45.9325 35.3709 45.348 36.6692 44.7465 37.9492C44.794 37.9961 44.8414 38.0429 44.8903 38.0912C45.1047 38.3032 45.3186 38.5156 45.5324 38.728C45.6071 38.8018 45.6818 38.8755 45.7588 38.9515C45.8656 39.0577 45.8656 39.0577 45.9745 39.1661C46.0733 39.264 46.0733 39.264 46.174 39.3638C46.486 39.7012 46.5205 40.0334 46.5108 40.48C46.4271 40.8679 46.2676 41.031 45.9957 41.3178C45.9028 41.4165 45.81 41.5152 45.7143 41.6169C45.5717 41.764 45.5717 41.764 45.4262 41.9141C45.3421 42.0014 45.258 42.0887 45.1714 42.1786C44.9164 42.4405 44.6592 42.6998 44.4009 42.9584C44.3079 43.0518 44.2149 43.1452 44.119 43.2414C43.9245 43.4365 43.7299 43.6314 43.535 43.8262C43.2367 44.1249 42.9392 44.4244 42.6418 44.724C42.4518 44.9143 42.2617 45.1046 42.0716 45.2948C41.983 45.3842 41.8944 45.4737 41.803 45.5658C41.7202 45.6483 41.6373 45.7308 41.552 45.8158C41.4796 45.8884 41.4072 45.9609 41.3326 46.0357C40.9888 46.3339 40.7397 46.4374 40.2861 46.4878C39.5251 46.4091 39.0393 45.8679 38.5302 45.3408C38.4739 45.2834 38.4175 45.226 38.3594 45.1669C38.2223 45.0272 38.0859 44.8867 37.9497 44.7461C37.8779 44.778 37.8061 44.81 37.7321 44.8429C34.3745 46.332 34.3745 46.332 33.7583 46.332C33.7606 46.404 33.763 46.4759 33.7655 46.55C33.7749 46.8785 33.7808 47.207 33.7866 47.5356C33.7904 47.6488 33.7942 47.762 33.7981 47.8786C33.8073 48.5713 33.775 48.9801 33.3051 49.5039C32.9748 49.6691 32.682 49.6353 32.3131 49.639C32.2345 49.64 32.1558 49.6409 32.0747 49.6418C31.8139 49.6447 31.553 49.6465 31.2922 49.6482C31.2031 49.6488 31.114 49.6494 31.0223 49.65C30.5508 49.653 30.0793 49.6552 29.6079 49.6568C29.121 49.6587 28.6343 49.6638 28.1474 49.6696C27.773 49.6734 27.3986 49.6747 27.0241 49.6753C26.8447 49.6761 26.6652 49.6778 26.4858 49.6805C26.2344 49.6841 25.9832 49.6841 25.7318 49.6833C25.5888 49.6842 25.4458 49.6851 25.2986 49.6861C24.8222 49.5988 24.6579 49.4203 24.3559 49.0508C24.214 48.767 24.2298 48.574 24.2316 48.2569C24.2319 48.1452 24.2323 48.0335 24.2327 47.9184C24.2336 47.8014 24.2346 47.6845 24.2356 47.564C24.2361 47.4461 24.2366 47.3283 24.2371 47.2069C24.2384 46.9152 24.2403 46.6236 24.2426 46.332C24.1668 46.3141 24.0909 46.2961 24.0127 46.2777C22.6367 45.9447 21.3361 45.3301 20.0512 44.7461C19.9502 44.8498 19.8491 44.9534 19.745 45.0603C19.6111 45.1963 19.4772 45.3323 19.3432 45.4683C19.2436 45.5708 19.2436 45.5708 19.1419 45.6754C19.0769 45.7411 19.0119 45.8068 18.945 45.8745C18.8856 45.935 18.8263 45.9955 18.7652 46.0578C18.4341 46.3433 18.1784 46.4394 17.7431 46.4878C16.7956 46.3898 16.1658 45.5364 15.5288 44.8943C15.4212 44.7865 15.3135 44.6788 15.2057 44.5711C14.9811 44.3462 14.7568 44.121 14.5328 43.8955C14.2459 43.6067 13.9583 43.3187 13.6704 43.0309C13.4484 42.8088 13.2267 42.5865 13.0051 42.3641C12.8477 42.2062 12.6902 42.0484 12.5326 41.8906C12.4373 41.7946 12.342 41.6986 12.2438 41.5996C12.1178 41.473 12.1178 41.473 11.9893 41.3438C11.5821 40.9069 11.484 40.6134 11.4981 40.0334C11.6075 39.5126 11.9797 39.2157 12.3481 38.8555C12.5087 38.6953 12.6692 38.535 12.8296 38.3745C12.9096 38.2944 12.9896 38.2143 13.072 38.1318C13.1322 38.0715 13.1924 38.0113 13.2544 37.9492C13.2224 37.8774 13.1905 37.8056 13.1576 37.7316C11.6684 34.374 11.6684 34.374 11.6684 33.7578C11.5657 33.7605 11.5657 33.7605 11.4608 33.7632C11.1477 33.7703 10.8346 33.7747 10.5214 33.779C10.4137 33.7819 10.3059 33.7847 10.1949 33.7877C9.10605 33.799 9.10605 33.799 8.60983 33.418C8.1806 32.739 8.2265 32.0565 8.24166 31.2727C8.24414 31.0715 8.24414 31.0715 8.24667 30.8662C8.25085 30.5654 8.25582 30.2646 8.26163 29.9638C8.27011 29.4978 8.27275 29.0319 8.27483 28.5659C8.27721 28.1542 8.2822 27.7425 8.28772 27.3308C8.29005 27.1273 8.29148 26.9239 8.29201 26.7204C8.29307 26.4324 8.2977 26.1448 8.30317 25.8569C8.30273 25.7708 8.30228 25.6846 8.30183 25.5959C8.31435 25.1421 8.36595 24.943 8.65731 24.5873C9.05842 24.2692 9.24075 24.2282 9.74352 24.2311C9.85523 24.2315 9.96694 24.2319 10.082 24.2322C10.199 24.2332 10.316 24.2341 10.4365 24.2351C10.6133 24.2359 10.6133 24.2359 10.7936 24.2367C11.0852 24.238 11.3768 24.2399 11.6684 24.2422C11.6852 24.1587 11.702 24.0753 11.7193 23.9893C11.9353 22.953 12.3632 22.0338 12.807 21.0784C12.9627 20.7386 13.1088 20.3951 13.2544 20.0508C13.1507 19.9497 13.047 19.8487 12.9402 19.7446C12.8042 19.6107 12.6682 19.4767 12.5322 19.3428C12.4638 19.2763 12.3955 19.2099 12.3251 19.1414C12.2594 19.0764 12.1937 19.0115 12.126 18.9445C12.0352 18.8555 12.0352 18.8555 11.9426 18.7647C11.6019 18.3696 11.483 17.986 11.4985 17.4588C11.5686 17.1615 11.6816 17.0286 11.8878 16.8043C11.9961 16.6861 11.9961 16.6861 12.1067 16.5655C12.543 16.1082 12.9861 15.6584 13.4336 15.212C13.535 15.1104 13.6364 15.0089 13.7409 14.9043C13.9538 14.6914 14.1667 14.4786 14.3798 14.266C14.6531 13.9934 14.9258 13.7203 15.1984 13.447C15.4595 13.1855 15.7209 12.9243 15.9824 12.6632C16.0803 12.565 16.1783 12.4668 16.2792 12.3657C16.3696 12.2756 16.46 12.1856 16.5531 12.0928C16.6328 12.0133 16.7124 11.9337 16.7944 11.8518C17.1579 11.5147 17.4818 11.4954 17.9631 11.5016C18.4853 11.6022 18.7891 11.9751 19.145 12.3477C19.3149 12.5152 19.4848 12.6828 19.6547 12.8503C19.7872 12.9846 19.9195 13.119 20.0512 13.2539C20.111 13.226 20.1707 13.1981 20.2322 13.1693C23.4609 11.668 23.4609 11.668 24.2426 11.668C24.2403 11.596 24.2379 11.5241 24.2354 11.45C24.226 11.1215 24.2201 10.793 24.2143 10.4644C24.2105 10.3512 24.2067 10.238 24.2028 10.1214C24.1936 9.42866 24.2259 9.01992 24.6958 8.49609C25.0261 8.33094 25.3189 8.36473 25.6878 8.36096ZM26.6215 10.6484C26.6023 11.4058 26.6023 11.4058 26.5878 12.1632C26.5713 12.6161 26.5428 12.9556 26.3445 13.3672C25.9208 13.6989 25.4824 13.7893 24.9648 13.9124C23.3959 14.3232 21.939 14.9128 20.603 15.8421C20.1281 16.0327 19.7439 16.0178 19.2583 15.8594C18.9469 15.6487 18.7074 15.3958 18.4582 15.116C18.3926 15.0462 18.3269 14.9765 18.2593 14.9047C18.0992 14.734 17.9421 14.5606 17.7856 14.3867C17.022 15.0128 16.3348 15.7115 15.6403 16.4116C15.5185 16.5341 15.3966 16.6565 15.2746 16.7789C14.9785 17.0763 14.6827 17.374 14.3872 17.6719C14.7442 18.0952 15.0996 18.512 15.4987 18.8967C15.8278 19.2142 15.96 19.3675 16.0125 19.8362C15.9619 20.4032 15.75 20.7418 15.4563 21.219C14.6272 22.6387 14.0606 24.1024 13.7208 25.7104C13.5591 26.1501 13.4414 26.2848 13.0278 26.5078C12.6384 26.5758 12.2542 26.5866 11.8596 26.5928C11.7541 26.5961 11.6486 26.5995 11.5399 26.6029C11.2806 26.6109 11.0215 26.6169 10.7622 26.6211C10.6615 27.6925 10.6347 28.7527 10.6418 29.8284C10.6424 29.9799 10.6429 30.1315 10.6434 30.283C10.6447 30.6483 10.6465 31.0136 10.6489 31.3789C10.7534 31.3832 10.7534 31.3832 10.8601 31.3875C11.1767 31.4007 11.4934 31.4146 11.81 31.4285C11.9197 31.4329 12.0294 31.4374 12.1423 31.442C12.2482 31.4467 12.3541 31.4515 12.4632 31.4563C12.6091 31.4626 12.6091 31.4626 12.758 31.4689C13.2617 31.5123 13.2617 31.5123 13.4809 31.6055C13.5878 31.8257 13.5878 31.8257 13.6584 32.1104C13.6855 32.2133 13.7127 32.3162 13.7407 32.4222C13.7803 32.5786 13.7803 32.5786 13.8208 32.7383C14.2403 34.1992 14.7761 35.5238 15.5299 36.8472C16.0892 37.8508 16.0892 37.8508 15.9731 38.5156C15.8275 38.7634 15.8275 38.7634 15.6262 38.9687C15.5546 39.0435 15.4831 39.1183 15.4094 39.1953C15.3337 39.2701 15.2581 39.3448 15.1801 39.4219C15.1045 39.499 15.0289 39.5761 14.9509 39.6555C14.7648 39.8439 14.5766 40.0298 14.3872 40.2148C15.0132 40.9784 15.7119 41.6656 16.4121 42.3601C16.5345 42.482 16.657 42.6039 16.7794 42.7258C17.0767 43.0219 17.3744 43.3177 17.6723 43.6133C18.0956 43.2562 18.5125 42.9008 18.8972 42.5017C19.2067 42.1808 19.3662 42.0438 19.8202 41.9809C20.4475 41.9911 20.951 42.3554 21.4814 42.6575C22.7928 43.3745 24.1294 43.8929 25.5783 44.2597C25.6812 44.2869 25.7841 44.3141 25.8901 44.3421C25.984 44.3654 26.0779 44.3886 26.1747 44.4126C26.395 44.5195 26.395 44.5195 26.4809 44.7219C26.5106 44.9942 26.5324 45.2635 26.5441 45.5373C26.5484 45.6328 26.5527 45.7282 26.5572 45.8266C26.5621 45.9466 26.567 46.0667 26.572 46.1904C26.5965 46.7652 26.5965 46.7652 26.6215 47.3516C28.1916 47.3516 29.7617 47.3516 31.3794 47.3516C31.412 46.5891 31.412 46.5891 31.4437 45.8266C31.448 45.7311 31.4523 45.6356 31.4568 45.5373C31.463 45.3914 31.463 45.3914 31.4694 45.2425C31.5128 44.7388 31.5128 44.7388 31.6059 44.5195C31.8262 44.4126 31.8262 44.4126 32.1108 44.3421C32.2137 44.3149 32.3166 44.2877 32.4226 44.2597C32.5269 44.2333 32.6313 44.2069 32.7387 44.1797C34.1996 43.7601 35.5242 43.2243 36.8477 42.4705C37.8512 41.9112 37.8512 41.9112 38.5161 42.0273C38.7639 42.1729 38.7639 42.1729 38.9692 42.3743C39.044 42.4458 39.1187 42.5174 39.1958 42.5911C39.3079 42.7046 39.3079 42.7046 39.4223 42.8203C39.4994 42.896 39.5765 42.9716 39.656 43.0495C39.8444 43.2357 40.0302 43.4238 40.2153 43.6133C40.9789 42.9872 41.6661 42.2885 42.3606 41.5884C42.4824 41.4659 42.6044 41.3435 42.7263 41.2211C43.0224 40.9237 43.3182 40.626 43.6137 40.3281C43.2567 39.9048 42.9013 39.488 42.5022 39.1033C42.1853 38.7976 42.0462 38.6348 41.9773 38.1882C41.988 37.5198 42.4033 36.9573 42.7216 36.3916C43.4347 35.0774 43.9037 33.7983 44.2793 32.3582C44.3213 32.2029 44.3213 32.2029 44.3642 32.0444C44.3844 31.96 44.4045 31.8756 44.4253 31.7887C44.52 31.6055 44.52 31.6055 44.7172 31.5396C44.9931 31.4885 45.2574 31.4683 45.5377 31.4563C45.6332 31.452 45.7287 31.4477 45.827 31.4433C45.9471 31.4384 46.0672 31.4335 46.1909 31.4285C46.7656 31.4039 46.7656 31.4039 47.352 31.3789C47.352 29.8088 47.352 28.2387 47.352 26.6211C46.5947 26.6018 46.5947 26.6018 45.8372 26.5873C45.3843 26.5708 45.0449 26.5424 44.6333 26.3441C44.3016 25.9204 44.2111 25.482 44.0881 24.9644C43.7058 23.5047 43.1576 22.1655 42.3676 20.8791C42.1502 20.5149 42.026 20.2698 41.9287 19.8525C42.0785 19.296 42.4175 18.9767 42.8208 18.5781C42.9342 18.4625 42.9342 18.4625 43.05 18.3445C43.2361 18.1561 43.4243 17.9702 43.6137 17.7852C42.9877 17.0215 42.289 16.3343 41.5888 15.6399C41.4664 15.518 41.344 15.3961 41.2215 15.2742C40.9242 14.978 40.6265 14.6823 40.3286 14.3867C39.8379 14.7961 39.3953 15.2052 38.9878 15.6987C38.5891 15.96 38.195 16.0054 37.7231 15.9727C37.3737 15.8486 37.0784 15.6626 36.7673 15.4629C35.3561 14.6208 33.897 14.0599 32.29 13.7203C31.8482 13.5579 31.7152 13.4442 31.4926 13.0273C31.4242 12.6188 31.4139 12.2161 31.4077 11.8025C31.3983 11.4216 31.389 11.0408 31.3794 10.6484C29.8093 10.6484 28.2392 10.6484 26.6215 10.6484Z" fill="#FF7705"></path>
    <path d="M28.9583 -0.0354073C29.073 -0.0352761 29.1878 -0.0351449 29.306 -0.0350098C33.807 -0.0248227 33.807 -0.0248228 35.3445 0.679681C35.728 1.10593 35.7577 1.43136 35.737 1.99171C35.6844 2.26562 35.6844 2.26562 35.4153 2.61962C34.674 3.11556 33.5416 2.79974 32.7178 2.66918C25.8764 1.67131 18.7897 3.44679 13.2405 7.57568C11.3618 9.00171 9.59074 10.5789 8.15702 12.4609C8.10785 12.5253 8.05868 12.5897 8.00801 12.656C5.53903 15.9051 3.79983 19.5656 2.94609 23.5625C2.92227 23.673 2.89845 23.7836 2.8739 23.8975C2.17817 27.2952 2.21905 31.0502 2.94609 34.4375C2.96916 34.5471 2.99223 34.6568 3.016 34.7697C3.83559 38.5299 5.49619 42.2084 7.93046 45.1992C8.03144 45.1644 8.03144 45.1644 8.13446 45.1289C9.65806 44.6336 11.0109 44.6414 12.483 45.3125C13.6722 45.9211 14.4277 46.8832 14.8406 48.1445C15.2142 49.5751 15.0792 50.801 14.3875 52.1094C13.6927 53.2116 12.7147 53.9659 11.4554 54.3221C10.1347 54.6136 8.74631 54.4189 7.60212 53.7219C6.47869 52.9568 5.73443 51.9781 5.43827 50.6367C5.36608 49.4425 5.39413 48.4579 5.8914 47.3516C5.97878 47.1356 5.97878 47.1356 6.00468 46.8984C5.91298 46.6882 5.91298 46.6882 5.75422 46.4927C5.69775 46.416 5.64127 46.3393 5.58308 46.2603C5.52128 46.1788 5.45947 46.0974 5.39579 46.0134C4.74826 45.1285 4.16594 44.2272 3.62577 43.2734C3.58728 43.2061 3.54878 43.1387 3.50912 43.0693C2.18163 40.7292 1.27074 38.1906 0.652142 35.5774C0.62562 35.4671 0.599098 35.3567 0.571772 35.243C0.104365 33.1752 -0.0592684 31.1223 -0.0417057 29.0071C-0.0411786 28.8931 -0.0406515 28.7792 -0.0401085 28.6618C-0.0311979 27.0167 0.00970262 25.4056 0.340619 23.7891C0.373475 23.6197 0.373475 23.6197 0.406994 23.4469C1.27118 19.0733 3.05115 14.9779 5.77812 11.4414C5.85099 11.3468 5.92385 11.2521 5.99893 11.1547C7.59651 9.12079 9.44911 7.17369 11.5555 5.66406C11.6168 5.61966 11.6782 5.57527 11.7414 5.52953C14.1226 3.81314 16.7014 2.41149 19.4851 1.47265C19.6236 1.42586 19.6236 1.42586 19.7649 1.37812C20.8718 1.01131 21.9912 0.724443 23.1314 0.481438C23.2361 0.458923 23.3409 0.436407 23.4488 0.41321C25.2849 0.0401784 27.0897 -0.0420182 28.9583 -0.0354073ZM8.56767 47.7126C8.00843 48.3118 7.79118 48.8048 7.76762 49.6313C7.79449 50.3434 7.95182 50.7503 8.43315 51.281C9.12675 51.9069 9.59486 52.039 10.5275 52.0266C11.2473 51.9635 11.7029 51.6803 12.1643 51.1323C12.5689 50.5337 12.7491 49.925 12.6449 49.2039C12.4609 48.4995 12.1966 47.9628 11.5718 47.5538C10.5671 47.0077 9.50629 47.0116 8.56767 47.7126Z" fill="#FF7705"></path>
    <path d="M50.4388 4.29052C50.593 4.40968 50.593 4.40968 50.7503 4.53124C50.8127 4.57476 50.875 4.61828 50.9393 4.66311C51.7988 5.31202 52.3297 6.32575 52.5628 7.36328C52.5976 7.69439 52.6059 8.02169 52.6053 8.35449C52.6053 8.4438 52.6054 8.53311 52.6055 8.62513C52.5915 9.37153 52.4152 9.96873 52.1097 10.6484C52.0223 10.8643 52.0223 10.8643 51.9964 11.1016C52.0881 11.3118 52.0881 11.3118 52.2469 11.5073C52.3033 11.584 52.3598 11.6607 52.418 11.7397C52.4798 11.8212 52.5416 11.9026 52.6053 11.9866C53.2528 12.8715 53.8351 13.7728 54.3753 14.7266C54.4138 14.7939 54.4523 14.8613 54.492 14.9307C55.8194 17.2708 56.7303 19.8094 57.3489 22.4226C57.3887 22.5881 57.3887 22.5881 57.4293 22.7569C57.8967 24.8248 58.0603 26.8777 58.0428 28.9929C58.0423 29.1068 58.0417 29.2208 58.0412 29.3382C58.0323 30.9833 57.9914 32.5944 57.6605 34.2109C57.6386 34.3238 57.6166 34.4367 57.5941 34.553C56.6744 39.2076 54.7067 43.4097 51.7698 47.125C51.6778 47.2425 51.5858 47.3601 51.4911 47.4812C50.0564 49.244 48.4081 50.8975 46.5589 52.2227C46.4065 52.3347 46.2541 52.4468 46.1018 52.559C42.1175 55.4604 37.5145 57.2597 32.6253 57.8867C32.5495 57.8966 32.4737 57.9064 32.3956 57.9166C31.7551 57.9941 31.1226 58.0214 30.4778 58.027C30.3721 58.0281 30.2663 58.0292 30.1574 58.0303C29.8165 58.0331 29.4757 58.0345 29.1348 58.0354C28.961 58.0359 28.961 58.0359 28.7836 58.0364C23.5191 58.0399 23.5191 58.0399 22.4512 57.0088C22.2541 56.6353 22.2664 56.3777 22.3167 55.9609C22.6653 55.3335 22.6653 55.3335 22.9964 55.168C23.7715 55.1112 24.5197 55.21 25.2833 55.3308C28.4999 55.7947 31.7184 55.6483 34.8909 54.9414C35.0253 54.9119 35.0253 54.9119 35.1625 54.8818C38.994 54.0172 42.6235 52.2269 45.6526 49.7305C45.7155 49.6791 45.7783 49.6278 45.843 49.5749C47.3142 48.3665 48.6865 47.055 49.8441 45.5391C49.8908 45.4789 49.9376 45.4187 49.9858 45.3567C52.6158 41.9616 54.3135 38.0685 55.1683 33.8711C55.1886 33.775 55.2089 33.679 55.2298 33.58C56.518 27.2235 54.9297 20.0256 51.4225 14.6341C50.9979 14.0022 50.5518 13.3911 50.0706 12.8008C50.0033 12.824 49.936 12.8472 49.8666 12.8711C48.4041 13.3465 47.0383 13.3881 45.6243 12.7229C44.3798 12.0487 43.5629 11.1082 43.1074 9.75501C42.7618 8.38021 42.9785 7.09995 43.6485 5.86318C44.1948 4.9725 44.8326 4.43151 45.7659 3.96484C45.841 3.92614 45.916 3.88744 45.9934 3.84757C47.4101 3.25035 49.1547 3.54972 50.4388 4.29052ZM45.8367 6.86767C45.4321 7.46625 45.2519 8.07499 45.3562 8.79611C45.5402 9.50045 45.8045 10.0372 46.4292 10.4462C47.1205 10.8219 47.7203 10.9493 48.4918 10.7476C49.1783 10.5152 49.6217 10.198 49.9998 9.56518C50.3063 8.87969 50.3252 8.11826 50.0839 7.4093C49.7289 6.70392 49.2435 6.25686 48.4847 6.0039C47.3874 5.90474 46.5684 5.99882 45.8367 6.86767Z" fill="#FF7705"></path>
    <path d="M35.1165 21.75C36.914 23.2986 38.1654 25.4843 38.4016 27.8672C38.6016 30.7553 37.862 33.2453 35.963 35.4495C34.2912 37.2195 32.0186 38.3205 29.5768 38.4342C27.0591 38.503 24.6198 37.8153 22.7334 36.0872C22.5151 35.8803 22.302 35.6696 22.0891 35.457C22.0134 35.3826 21.9376 35.3081 21.8595 35.2314C20.1249 33.3985 19.5169 30.8866 19.5695 28.4336C19.6664 25.9048 20.8407 23.6631 22.6547 21.9275C26.2676 18.8448 31.4325 18.7885 35.1165 21.75ZM23.6397 24.4121C22.2514 26.0541 21.85 27.9176 21.9759 30.0195C22.2213 31.8433 23.2667 33.3967 24.6482 34.572C26.3522 35.8535 28.3244 36.2514 30.4069 35.9712C32.4039 35.5216 34.051 34.242 35.1448 32.533C36.107 30.8524 36.2944 28.8309 35.8002 26.9711C35.2057 25.1966 33.989 23.644 32.3128 22.7797C32.2287 22.739 32.1446 22.6982 32.0579 22.6563C31.9738 22.6143 31.8897 22.5724 31.803 22.5293C28.9483 21.1763 25.7177 22.1554 23.6397 24.4121Z" fill="#FF7705"></path>
    <path d="M19.2852 53.7732C19.5742 53.99 19.6865 54.15 19.8233 54.4883C19.8459 54.977 19.7939 55.3736 19.533 55.791C19.1517 56.0256 18.7918 56.0963 18.3506 56.0742C17.9819 55.9445 17.7573 55.8443 17.5152 55.5361C17.3785 55.0442 17.3778 54.6379 17.586 54.1697C18.0297 53.615 18.6143 53.5682 19.2852 53.7732Z" fill="#FF7705"></path>
    <path d="M39.9875 2.03906C40.3556 2.31915 40.5219 2.50295 40.6601 2.94531C40.6711 3.46977 40.5535 3.72873 40.1999 4.11352C39.7762 4.36221 39.4485 4.4037 38.968 4.30468C38.6497 4.1015 38.4572 3.96271 38.2883 3.62499C38.2406 3.27842 38.2339 2.95143 38.2883 2.60546C38.7889 1.95598 39.2006 1.84911 39.9875 2.03906Z" fill="#FF7705"></path>
  </g>
  <defs>
    <clipPath id="clip0_3791_107">
      <rect width="58" height="58" fill="white"></rect>
    </clipPath>
  </defs>
</svg>
