<?xml version="1.0" encoding="UTF-8"?>
<svg xmlns="http://www.w3.org/2000/svg" width="48" height="48" viewBox="0 0 48 48" fill="none">
  <path d="M24.5807 3.41923C24.658 3.41941 24.7353 3.41958 24.8149 3.41976C25.9727 3.42399 27.1033 3.45882 28.2414 3.68945C28.3253 3.70609 28.4091 3.72273 28.4954 3.73988C31.3574 4.32237 34.0991 5.40426 36.4806 7.11563C36.5648 7.17589 36.649 7.23614 36.7358 7.29822C38.2649 8.42057 39.7557 9.74458 40.8857 11.276C40.9457 11.3564 40.9457 11.3564 41.0068 11.4384C41.5772 12.2044 42.1165 12.9801 42.5988 13.8048C42.6108 13.7045 42.6108 13.7045 42.623 13.6022C42.6352 13.5143 42.6474 13.4264 42.66 13.3358C42.6713 13.2487 42.6827 13.1616 42.6944 13.0719C42.7722 12.7885 42.8566 12.6771 43.0882 12.4996C43.3737 12.4588 43.3737 12.4588 43.6593 12.4996C43.8402 12.637 43.8402 12.637 43.9856 12.8259C44.0328 13.2045 43.9531 13.5908 43.904 13.968C43.8934 14.0545 43.8828 14.1411 43.8719 14.2302C43.8353 14.5255 43.7961 14.8203 43.7561 15.1152C43.7437 15.2122 43.7312 15.3093 43.7184 15.4093C43.7051 15.5016 43.6918 15.5939 43.6781 15.6891C43.6609 15.8134 43.6609 15.8134 43.6434 15.9402C43.5641 16.2182 43.4537 16.3732 43.2514 16.5784C42.63 16.6967 42.1683 16.401 41.6301 16.1145C41.5465 16.0712 41.4629 16.0279 41.3767 15.9833C41.2112 15.8976 41.0459 15.8113 40.881 15.7243C40.5827 15.5692 40.2804 15.4231 39.9768 15.2787C39.8252 15.1916 39.8252 15.1916 39.7436 15.0285C39.7144 14.7124 39.6974 14.5268 39.8762 14.2586C40.1272 14.0935 40.2618 14.1077 40.5594 14.1311C40.8035 14.2204 40.8035 14.2204 41.0386 14.3351C41.1175 14.3729 41.1964 14.4108 41.2776 14.4498C41.3367 14.4792 41.3958 14.5087 41.4567 14.539C40.9889 13.6585 40.4408 12.8745 39.8252 12.0918C39.762 12.011 39.6988 11.9302 39.6337 11.847C38.9747 11.0242 38.2714 10.237 37.4595 9.5629C37.3529 9.46716 37.3529 9.46716 37.2441 9.36948C33.8286 6.32701 29.2091 4.70889 24.6674 4.71934C24.5579 4.71941 24.5579 4.71941 24.4462 4.71948C19.6767 4.73274 14.8353 6.55495 11.4068 9.92175C11.2618 10.0641 11.1151 10.2046 10.9684 10.3452C10.3001 10.9927 9.70032 11.6659 9.15271 12.4181C9.12059 12.462 9.08846 12.5059 9.05536 12.5511C7.18939 15.1227 5.95962 18.0864 5.4818 21.2282C5.47133 21.2968 5.46085 21.3654 5.45006 21.4361C4.89694 25.2839 5.61158 29.4105 7.42369 32.8464C7.55858 33.1374 7.52035 33.3221 7.43962 33.6277C7.34785 33.7858 7.34785 33.7858 7.19489 33.8725C6.7046 33.9349 6.7046 33.9349 6.4639 33.7488C6.24238 33.4789 6.10257 33.1939 5.95596 32.8783C5.90875 32.7769 5.90875 32.7769 5.86058 32.6736C3.58289 27.6662 3.38345 21.9182 5.28551 16.7591C6.58941 13.3422 8.77068 10.1796 11.6816 7.93139C11.7986 7.83675 11.7986 7.83675 11.918 7.7402C14.423 5.74629 17.3879 4.45746 20.507 3.79142C20.5825 3.7752 20.6579 3.75898 20.7357 3.74227C22.0163 3.48214 23.2773 3.41388 24.5807 3.41923Z" fill="#FF7705"></path>
  <path d="M18.1778 20.6069C18.381 20.6114 18.584 20.6119 18.7873 20.6119C18.9172 20.6131 19.0471 20.6145 19.177 20.6162C19.2373 20.6165 19.2976 20.6167 19.3598 20.617C19.7224 20.627 19.9584 20.6791 20.247 20.902C20.5484 21.3374 20.5843 21.8573 20.6549 22.3704C20.7119 22.3788 20.7689 22.3872 20.8276 22.3959C21.0973 22.4602 21.3139 22.5746 21.5624 22.6967C21.9626 22.8616 21.9626 22.8616 22.3661 22.7595C22.5167 22.6532 22.6651 22.5439 22.8112 22.4316C23.0789 22.2491 23.2613 22.2289 23.5779 22.2369C24.1811 22.414 24.6122 22.9588 25.0396 23.3901C25.1099 23.4598 25.1803 23.5295 25.2528 23.6014C25.32 23.6688 25.3872 23.7362 25.4564 23.8056C25.5174 23.8668 25.5783 23.9279 25.6411 23.9909C25.9033 24.2892 26.0036 24.5469 26.0029 24.9502C25.9412 25.2125 25.7995 25.3757 25.6412 25.5926C25.4299 25.9168 25.4299 25.9168 25.4073 26.2918C25.5191 26.6901 25.6984 27.0557 25.8757 27.4281C25.8757 27.4819 25.8757 27.5358 25.8757 27.5912C25.9439 27.5958 25.9439 27.5958 26.0134 27.6005C26.3372 27.6284 26.6504 27.669 26.9617 27.7646C27.0119 27.7799 27.062 27.7953 27.1137 27.8111C27.3524 27.9818 27.4746 28.2244 27.5888 28.4886C27.6298 28.7927 27.6298 28.7927 27.6293 29.116C27.6294 29.1738 27.6295 29.2316 27.6297 29.2911C27.6295 29.4124 27.6286 29.5336 27.6269 29.6549C27.6245 29.8395 27.6252 30.0239 27.6263 30.2085C27.6213 31.3715 27.6213 31.3715 27.2115 31.8128C26.8061 32.0262 26.3319 32.1073 25.8757 32.0779C25.8668 32.1351 25.8579 32.1923 25.8487 32.2513C25.768 32.5982 25.6086 32.9041 25.4567 33.2251C25.3653 33.46 25.3653 33.46 25.4427 33.6798C25.5408 33.857 25.6453 34.0193 25.7636 34.1836C25.9903 34.5408 26.0182 34.7582 25.9573 35.1778C25.6755 35.6906 25.2481 36.0891 24.8407 36.5034C24.7706 36.5776 24.7004 36.6519 24.628 36.7284C24.2528 37.1096 23.9636 37.378 23.4257 37.4631C23.0327 37.4601 22.7501 37.2582 22.4445 37.0336C22.093 36.8242 21.8499 36.9418 21.4649 37.0295C21.1856 37.1198 20.9739 37.2059 20.7365 37.3803C20.6046 37.67 20.5406 37.9338 20.487 38.2471C20.3951 38.5763 20.2579 38.7099 20.0023 38.9303C19.9754 38.9572 19.9484 38.9841 19.9207 39.0118C19.702 39.0221 19.4856 39.0272 19.2668 39.0284C19.168 39.0291 19.168 39.0291 19.0671 39.0298C18.9272 39.0306 18.7873 39.0311 18.6474 39.0314C18.434 39.0322 18.2206 39.0348 18.0072 39.0373C17.8713 39.0379 17.7355 39.0383 17.5996 39.0386C17.536 39.0396 17.4723 39.0406 17.4067 39.0417C17.033 39.0401 16.7902 39.0012 16.4945 38.7671C16.2959 38.4655 16.2425 38.2154 16.2039 37.8647C16.1568 37.5947 16.1288 37.4946 15.9095 37.3246C15.6994 37.2198 15.4917 37.1335 15.2709 37.054C15.1988 37.0236 15.1266 36.9932 15.0523 36.9619C14.8042 36.8688 14.706 36.8849 14.4551 36.9724C14.347 37.0387 14.24 37.1068 14.1339 37.1764C13.7552 37.421 13.4909 37.4988 13.0402 37.4053C12.707 37.2862 12.5472 37.1544 12.2994 36.9046C12.2608 36.8659 12.2222 36.8273 12.1823 36.7875C12.1015 36.7062 12.0211 36.6244 11.9412 36.5421C11.8193 36.4168 11.6957 36.2933 11.5718 36.1699C10.8109 35.4008 10.8109 35.4008 10.7689 34.9216C10.8037 34.53 10.8864 34.3112 11.1309 34C11.3224 33.7393 11.3224 33.7393 11.3416 33.4261C11.277 33.2142 11.198 33.0156 11.1105 32.8121C11.0635 32.6731 11.0176 32.5338 10.9729 32.394C10.9373 32.2886 10.9017 32.1832 10.8658 32.0779C10.8135 32.0749 10.7613 32.0718 10.7074 32.0687C10.2479 32.0337 9.87741 31.9906 9.47901 31.7516C9.05955 31.246 9.10559 30.674 9.11465 30.0491C9.11702 29.8704 9.11633 29.6919 9.11527 29.5132C9.12032 28.3741 9.12032 28.3741 9.57079 27.8971C9.97677 27.65 10.3953 27.5912 10.8658 27.5912C10.8806 27.5449 10.8955 27.4985 10.9107 27.4507C11.0116 27.141 11.1142 26.8408 11.2533 26.546C11.3613 26.2706 11.369 26.2233 11.2737 25.9597C11.2088 25.8574 11.1406 25.7572 11.0697 25.6589C10.852 25.3174 10.7244 24.9812 10.7842 24.5729C11.0284 24.0324 11.42 23.6585 11.8396 23.2473C11.9048 23.1819 11.9699 23.1165 12.037 23.0491C12.8351 22.2583 12.8351 22.2583 13.3182 22.2378C13.692 22.2428 13.8857 22.391 14.1849 22.6049C14.4261 22.7744 14.4261 22.7744 14.6999 22.8598C15.0458 22.78 15.2901 22.6651 15.6026 22.4975C15.8419 22.3704 15.8419 22.3704 16.0866 22.3704C16.0977 22.2877 16.1087 22.2051 16.1201 22.1199C16.1377 22.0097 16.1555 21.8994 16.1733 21.7892C16.1802 21.7349 16.1871 21.6806 16.1942 21.6247C16.2585 21.2499 16.3823 20.9811 16.6883 20.7469C17.1532 20.5523 17.6816 20.5956 18.1778 20.6069ZM17.4734 21.8809C17.3506 22.2496 17.2722 22.5604 17.2169 22.9373C17.025 23.3973 16.2011 23.5942 15.7705 23.7776C15.6838 23.8161 15.597 23.8545 15.5077 23.8942C14.6936 24.24 14.6936 24.24 14.2104 24.0835C13.994 23.9684 13.994 23.9684 13.8076 23.8337C13.7446 23.789 13.6816 23.7443 13.6168 23.6982C13.5704 23.6638 13.524 23.6295 13.4762 23.594C13.237 23.7018 13.0694 23.8181 12.8861 24.0051C12.8393 24.0524 12.7925 24.0997 12.7443 24.1485C12.6725 24.2223 12.6725 24.2223 12.5993 24.2976C12.5502 24.3475 12.5011 24.3973 12.4505 24.4487C12.3298 24.5713 12.2095 24.6944 12.0894 24.8177C12.1539 24.935 12.2185 25.0522 12.2832 25.1695C12.3191 25.2348 12.3551 25.3001 12.3922 25.3673C12.4757 25.5139 12.5669 25.6562 12.6605 25.7966C12.7094 26.4174 12.4845 26.8871 12.2475 27.4485C12.2095 27.545 12.1715 27.6415 12.1323 27.741C11.8413 28.4363 11.8413 28.4363 11.4983 28.6657C11.1255 28.748 10.7508 28.8216 10.3763 28.8964C10.3763 29.5156 10.3763 30.1348 10.3763 30.7727C10.7678 30.87 10.7678 30.87 11.1597 30.9654C11.4613 31.0431 11.6493 31.1016 11.8447 31.3437C12.0062 31.6697 12.1339 32.0101 12.2679 32.3481C12.3246 32.4862 12.3246 32.4862 12.3824 32.6271C12.4181 32.7164 12.4538 32.8058 12.4906 32.8978C12.5232 32.9791 12.5559 33.0604 12.5895 33.1442C12.7017 33.5219 12.7056 33.7779 12.5356 34.1345C12.4826 34.2197 12.4296 34.3049 12.375 34.3926C12.322 34.4791 12.269 34.5655 12.2143 34.6545C12.1731 34.7195 12.1319 34.7845 12.0894 34.8515C12.2849 35.0588 12.4826 35.2638 12.6809 35.4684C12.7643 35.557 12.7643 35.557 12.8494 35.6473C12.9036 35.7028 12.9577 35.7583 13.0135 35.8154C13.0631 35.8671 13.1126 35.9188 13.1637 35.972C13.3068 36.0947 13.3068 36.0947 13.4855 36.0566C13.7147 35.9627 13.8989 35.8189 14.097 35.672C14.5785 35.4588 14.989 35.5858 15.4637 35.7533C15.6532 35.8287 15.8421 35.9054 16.0306 35.9833C16.1748 36.0373 16.1748 36.0373 16.322 36.0923C17.0002 36.3715 17.0002 36.3715 17.1788 36.6762C17.2419 36.8846 17.2774 37.0836 17.3103 37.2987C17.391 37.5814 17.391 37.5814 17.4734 37.8698C18.0657 37.8698 18.6579 37.8698 19.2681 37.8698C19.3809 37.5315 19.4641 37.246 19.523 36.9011C19.5367 36.8222 19.5504 36.7433 19.5645 36.6621C19.5793 36.5734 19.5793 36.5734 19.5944 36.483C19.6577 36.4639 19.721 36.4447 19.7862 36.425C20.0262 36.3402 20.2519 36.2477 20.4835 36.1433C20.5562 36.1107 20.629 36.0781 20.704 36.0445C20.8545 35.9767 21.0047 35.9081 21.1545 35.8387C21.6104 35.6363 21.95 35.5217 22.4496 35.5857C22.6624 35.6956 22.6624 35.6956 22.837 35.8355C23.0073 35.9773 23.0073 35.9773 23.1837 36.0751C23.464 36.0419 23.5982 35.9347 23.7917 35.7357C23.8674 35.6588 23.8674 35.6588 23.9447 35.5804C24.0223 35.4997 24.0223 35.4997 24.1015 35.4174C24.1545 35.3633 24.2075 35.3092 24.2621 35.2535C24.3926 35.12 24.5226 34.986 24.6521 34.8515C24.5877 34.7341 24.523 34.6169 24.4584 34.4997C24.4224 34.4344 24.3864 34.3691 24.3494 34.3018C24.2658 34.1552 24.1747 34.013 24.0811 33.8726C24.0433 33.489 24.1233 33.2266 24.2774 32.8771C24.3178 32.7837 24.3583 32.6903 24.4 32.5941C24.4428 32.4978 24.4856 32.4015 24.5297 32.3022C24.6141 32.1099 24.6982 31.9174 24.7821 31.7248C24.8197 31.6399 24.8573 31.5551 24.896 31.4676C24.9885 31.2738 24.9885 31.2738 24.9784 31.099C25.436 30.9913 25.8937 30.8836 26.3652 30.7727C26.3652 30.1535 26.3652 29.5344 26.3652 28.8964C26.1599 28.8645 25.9547 28.8325 25.7432 28.7996C25.3745 28.7203 25.1274 28.6513 24.8815 28.3554C24.7559 28.0776 24.662 27.8004 24.5705 27.5097C24.5263 27.401 24.4808 27.2929 24.4341 27.1853C24.0241 26.2322 24.0241 26.2322 24.0811 25.7966C24.206 25.5525 24.206 25.5525 24.3666 25.3173C24.4196 25.2384 24.4726 25.1596 24.5272 25.0783C24.5684 25.0192 24.6096 24.9601 24.6521 24.8992C24.2689 24.4374 23.857 24.014 23.4285 23.594C23.0936 23.7174 22.8369 23.8781 22.5522 24.0895C22.0577 24.2923 21.5211 23.9885 21.0628 23.7983C20.9753 23.7612 20.8878 23.724 20.7976 23.6858C20.7089 23.6493 20.6201 23.6128 20.5287 23.5752C19.7834 23.2625 19.7834 23.2625 19.5944 23.023C19.4878 22.6463 19.4238 22.2659 19.3497 21.8809C18.7305 21.8809 18.1114 21.8809 17.4734 21.8809Z" fill="#FF7705"></path>
  <path d="M23.5621 5.94454C23.6764 5.94319 23.7906 5.94097 23.9049 5.93785C24.9749 5.90877 24.9749 5.90877 25.2945 6.15059C25.4782 6.39472 25.5315 6.53527 25.5698 6.83475C25.633 7.11611 25.661 7.2396 25.8942 7.4147C26.3086 7.59505 26.3086 7.59505 26.7444 7.5377C26.945 7.4405 26.945 7.4405 27.1606 7.30381C27.5245 7.15684 27.7866 7.15113 28.1599 7.27831C28.4658 7.50351 28.7175 7.77054 28.9756 8.04818C29.0456 8.12037 29.1155 8.19256 29.1875 8.26694C29.8182 8.92311 29.8182 8.92311 29.8162 9.46875C29.7885 9.66421 29.7307 9.77066 29.6231 9.93462C29.3848 10.3575 29.5114 10.6649 29.6333 11.1073C29.6586 11.1897 29.6838 11.2722 29.7098 11.3571C29.7999 11.3677 29.7999 11.3677 29.8918 11.3785C30.5461 11.4727 30.5461 11.4727 30.8621 11.7191C31.1921 12.1701 31.1147 12.6813 31.117 13.218C31.1195 13.362 31.1195 13.362 31.1221 13.5088C31.1261 14.4033 31.1261 14.4033 30.8519 14.7833C30.4835 15.0317 30.1421 15.0723 29.7098 15.1096C29.6706 15.2251 29.6315 15.3407 29.5925 15.4563C29.5708 15.5206 29.549 15.585 29.5266 15.6513C29.5063 15.7148 29.486 15.7783 29.4651 15.8438C29.4449 15.8993 29.4247 15.9548 29.4039 16.012C29.3757 16.2309 29.4506 16.3032 29.5823 16.476C29.7708 16.7618 29.8615 16.9686 29.8347 17.3131C29.6466 18.0172 28.7705 18.7764 28.1895 19.1715C27.9098 19.3144 27.7375 19.3115 27.4257 19.2699C27.3048 19.2002 27.1859 19.1268 27.0688 19.0507C26.7998 18.8866 26.7998 18.8866 26.493 18.8866C26.3085 18.9505 26.1349 19.026 25.9573 19.1068C25.8492 19.1363 25.7405 19.1643 25.631 19.1884C25.628 19.2366 25.6249 19.2849 25.6218 19.3346C25.5894 19.7241 25.5541 20.0139 25.3047 20.3304C24.9088 20.5944 24.4468 20.5239 23.9835 20.5238C23.8069 20.5242 23.6305 20.5271 23.454 20.5302C23.3412 20.5307 23.2284 20.531 23.1156 20.5312C23.0133 20.5319 22.9111 20.5325 22.8057 20.5332C22.483 20.4866 22.3499 20.3977 22.1233 20.1673C22.0407 19.9328 22.0407 19.9328 21.9856 19.6778C21.8764 19.309 21.8764 19.309 21.6096 19.0463C21.2972 18.9122 21.0966 18.8263 20.7636 18.9296C20.5676 19.0228 20.5676 19.0228 20.3796 19.1578C20.0942 19.3073 19.9131 19.3091 19.5944 19.2699C19.1599 19.022 18.824 18.6899 18.4727 18.3369C18.418 18.2835 18.3632 18.23 18.3067 18.1749C17.8053 17.674 17.8053 17.674 17.7182 17.3121C17.7309 16.9688 17.7933 16.7325 17.9731 16.4454C18.1439 16.1928 18.1439 16.1928 18.121 15.9661C18.0831 15.8652 18.0831 15.8652 18.0445 15.7622C18.0192 15.6646 17.994 15.567 17.968 15.4665C17.7781 15.1558 17.735 15.144 17.4021 15.0535C17.294 15.0278 17.294 15.0278 17.1838 15.0016C16.9233 14.9297 16.7631 14.8131 16.5761 14.6201C16.4295 14.1804 16.4725 13.7089 16.469 13.2486C16.4667 13.1449 16.4643 13.0412 16.4619 12.9343C16.456 12.0788 16.456 12.0788 16.6287 11.7835C16.8548 11.5697 17.008 11.5186 17.3103 11.454C17.6709 11.3526 17.6709 11.3526 17.939 11.1066C18.062 10.8432 18.126 10.6234 18.126 10.3323C18.0509 10.1385 18.0509 10.1385 17.9623 9.98402C17.8089 9.70366 17.7203 9.51983 17.7029 9.19534C17.8401 8.79089 18.0734 8.55723 18.3708 8.25722C18.4826 8.14081 18.4826 8.14081 18.5967 8.02206C19.3698 7.22697 19.3698 7.22697 19.8595 7.16105C20.1646 7.19665 20.2582 7.24019 20.5019 7.40578C20.74 7.57179 20.74 7.57179 21.022 7.60972C21.1229 7.56681 21.1229 7.56681 21.2259 7.52304C21.2801 7.50527 21.3342 7.4875 21.39 7.46919C21.5797 7.39597 21.7219 7.32706 21.8785 7.19674C21.9513 7.01038 21.9799 6.83919 22.0073 6.64132C22.0569 6.38368 22.1855 6.23717 22.368 6.05468C22.7167 5.88031 23.1752 5.94788 23.5621 5.94454ZM23.1837 7.19674C23.1652 7.34312 23.1467 7.48949 23.1277 7.64031C22.9986 8.04319 22.8388 8.21191 22.4744 8.40412C21.2051 8.98554 21.2051 8.98554 20.5733 8.90983C20.4087 8.80331 20.2453 8.69477 20.0839 8.58353C19.7694 8.6041 19.6209 8.77595 19.4109 8.9965C19.3532 9.05634 19.2956 9.11617 19.2362 9.17782C19.1713 9.24706 19.1713 9.24706 19.105 9.31771C19.1967 9.56015 19.2863 9.75287 19.4313 9.97031C19.4904 10.5418 19.3366 10.98 19.1203 11.505C19.0928 11.5817 19.0653 11.6584 19.0369 11.7374C18.8993 12.0721 18.8111 12.2834 18.4733 12.4394C18.2493 12.4993 18.0281 12.5418 17.7997 12.5807C17.6862 12.6756 17.6862 12.6756 17.7102 12.938C17.7107 13.0517 17.7117 13.1655 17.7131 13.2792C17.7134 13.3372 17.7138 13.3952 17.7142 13.455C17.7152 13.5986 17.7166 13.7423 17.7182 13.8859C17.7742 13.8968 17.8303 13.9076 17.888 13.9188C17.9615 13.9332 18.035 13.9476 18.1108 13.9624C18.1836 13.9766 18.2565 13.9908 18.3316 14.0054C18.5339 14.0491 18.5339 14.0491 18.7787 14.1307C18.8417 14.2648 18.8417 14.2648 18.8908 14.4417C18.9858 14.7608 19.1059 15.0558 19.2426 15.3594C19.416 15.7728 19.5003 16.0514 19.4313 16.4964C19.3382 16.6825 19.2361 16.8218 19.105 16.9858C19.2184 17.2391 19.351 17.4235 19.5434 17.6231C19.5912 17.6741 19.6389 17.7251 19.6881 17.7777C19.832 17.9024 19.832 17.9024 20.0096 17.8669C20.177 17.8041 20.177 17.8041 20.3439 17.669C20.7781 17.4568 21.2621 17.6127 21.7068 17.7547C22.7573 18.1397 22.7573 18.1397 23.0302 18.552C23.1175 18.8213 23.1175 18.8213 23.1837 19.2699C23.5875 19.2699 23.9913 19.2699 24.4074 19.2699C24.4309 19.1303 24.4545 18.9907 24.4788 18.8468C24.5533 18.5761 24.5979 18.4177 24.8156 18.2366C25.0292 18.1306 25.2439 18.0466 25.4679 17.9647C25.5517 17.927 25.6355 17.8892 25.7218 17.8503C26.4764 17.5111 26.4764 17.5111 26.9362 17.5569C27.1991 17.6694 27.4247 17.8159 27.6704 17.9647C27.9396 17.6955 28.2088 17.4263 28.4862 17.149C28.4172 17.0262 28.3482 16.9033 28.2771 16.7768C28.0657 16.4004 28.0603 16.1821 28.1599 15.7622C28.2536 15.49 28.3625 15.2262 28.476 14.9617C28.5047 14.8917 28.5334 14.8218 28.563 14.7497C28.5913 14.6828 28.6195 14.616 28.6487 14.5472C28.6742 14.4867 28.6998 14.4263 28.7261 14.364C28.8125 14.2123 28.8125 14.2123 29.0572 14.0491C29.327 13.9803 29.5987 13.9358 29.873 13.8859C29.873 13.4821 29.873 13.0783 29.873 12.6623C29.6148 12.5763 29.3558 12.4917 29.0929 12.4214C28.7364 12.2647 28.6381 11.968 28.4973 11.6229C28.4514 11.5014 28.4514 11.5014 28.4046 11.3775C28.3715 11.2978 28.3383 11.2181 28.3042 11.136C28.1251 10.6825 28.0201 10.3628 28.1599 9.88874C28.3281 9.64911 28.3281 9.64911 28.4862 9.48086C28.3657 9.19926 28.2057 9.01999 27.9865 8.80786C27.8979 8.72142 27.8979 8.72142 27.8074 8.63324C27.7622 8.58991 27.717 8.54659 27.6704 8.50195C27.6097 8.54612 27.6097 8.54612 27.5477 8.59117C27.4923 8.62903 27.4369 8.66689 27.3798 8.70589C27.2989 8.76267 27.2989 8.76267 27.2163 8.82061C26.8775 8.97287 26.5954 8.95777 26.2431 8.84415C26.014 8.75469 25.7894 8.65806 25.5647 8.55803C25.487 8.52507 25.4092 8.4921 25.3291 8.45813C24.7553 8.20803 24.7553 8.20803 24.5705 7.93092C24.5027 7.68832 24.4575 7.44391 24.4074 7.19674C24.0036 7.19674 23.5998 7.19674 23.1837 7.19674Z" fill="#FF7705"></path>
  <path d="M35.1651 17.2967C35.2451 17.2957 35.3252 17.2947 35.4076 17.2936C35.9069 17.2926 36.3314 17.3021 36.7456 17.6128C36.9997 17.9484 37.0515 18.2849 37.0515 18.6987C37.1671 18.738 37.2826 18.777 37.3982 18.816C37.4626 18.8378 37.527 18.8595 37.5933 18.882C37.6568 18.9023 37.7203 18.9226 37.7857 18.9435C37.8413 18.9637 37.8968 18.9839 37.954 19.0047C38.1729 19.0329 38.2451 18.958 38.4179 18.8262C38.7024 18.6392 38.9122 18.5418 39.2557 18.5691C39.6028 18.6724 39.8226 18.9352 40.0698 19.1882C40.161 19.2778 40.2524 19.3672 40.3439 19.4565C41.2001 20.2977 41.2001 20.2977 41.2425 20.7075C41.243 21.0063 41.1706 21.1488 40.9927 21.3856C40.8523 21.585 40.7974 21.6648 40.8286 21.9098C40.8928 22.0958 40.9684 22.2717 41.0488 22.4512C41.0782 22.5594 41.1062 22.6681 41.1303 22.7775C41.1767 22.7777 41.2231 22.778 41.2709 22.7782C41.7286 22.8011 41.985 22.9024 42.3285 23.2045C42.6162 23.5916 42.5351 24.1839 42.5375 24.6436C42.54 24.762 42.54 24.762 42.5426 24.8829C42.5452 25.3608 42.5075 25.7025 42.2724 26.1221C42.0006 26.356 41.7933 26.451 41.4464 26.4994C41.2106 26.5489 41.1481 26.5854 41.0105 26.7884C40.8208 27.2051 40.8208 27.2051 40.8703 27.6456C40.9649 27.8408 40.9649 27.8408 41.0997 28.029C41.2475 28.311 41.2456 28.4994 41.2119 28.8141C41.0104 29.2454 40.6576 29.5586 40.3248 29.8899C40.267 29.949 40.2093 30.008 40.1498 30.0688C40.0934 30.1254 40.0369 30.1819 39.9787 30.2401C39.9022 30.317 39.9022 30.317 39.8242 30.3954C39.5296 30.6348 39.3114 30.6922 38.9329 30.6802C38.6648 30.6412 38.5925 30.6018 38.367 30.4253C38.13 30.2585 38.13 30.2585 37.9062 30.3128C37.638 30.3931 37.3836 30.4836 37.1331 30.6088C37.0727 30.8285 37.0287 31.0495 36.984 31.2729C36.8527 31.5933 36.7157 31.7782 36.3989 31.914C36.0446 31.964 35.6964 31.9693 35.3388 31.9627C35.1703 31.9599 35.0021 31.961 34.8335 31.9626C33.9108 31.9558 33.9108 31.9558 33.5438 31.5877C33.4584 31.3532 33.4584 31.3532 33.401 31.0983C33.2959 30.7378 33.2959 30.7378 33.0483 30.4696C32.7827 30.3453 32.5626 30.2825 32.2692 30.2825C32.0556 30.3659 32.0556 30.3659 31.8052 30.5374C31.5397 30.6932 31.3279 30.7342 31.0169 30.6729C30.6793 30.5419 30.4505 30.2909 30.1992 30.0378C30.0829 29.9259 30.0829 29.9259 29.9643 29.8118C29.15 29.0209 29.15 29.0209 29.1291 28.6389C29.1662 28.298 29.1894 28.1202 29.4038 27.8403C29.5692 27.6086 29.5692 27.6086 29.522 27.3878C29.3871 26.8989 29.3871 26.8989 29.0571 26.53C28.8543 26.463 28.6513 26.4172 28.4431 26.3701C28.1715 26.2559 28.0764 26.123 27.9151 25.8774C27.8573 25.5282 27.8647 25.1815 27.868 24.8279C27.8692 24.6595 27.8664 24.4915 27.8633 24.3232C27.8646 23.4182 27.8646 23.4182 28.0935 23.115C28.3372 22.9298 28.4767 22.8771 28.7767 22.8387C29.0581 22.7756 29.1816 22.7475 29.3567 22.5143C29.537 22.0999 29.537 22.0999 29.4797 21.6642C29.3825 21.4636 29.3825 21.4636 29.2458 21.248C29.0988 20.8841 29.0931 20.622 29.2203 20.2487C29.4455 19.9428 29.7125 19.691 29.9901 19.4329C30.0984 19.328 30.0984 19.328 30.2089 19.221C30.8683 18.5872 30.8683 18.5872 31.4059 18.5863C31.6228 18.6235 31.7323 18.705 31.9072 18.8364C32.1065 18.9768 32.1863 19.0317 32.4314 19.0005C32.6174 18.9363 32.7932 18.8606 32.9728 18.7803C33.0809 18.7509 33.1896 18.7229 33.2991 18.6987C33.3052 18.6387 33.3113 18.5787 33.3175 18.5168C33.4161 17.7853 33.4161 17.7853 33.6967 17.5465C34.1721 17.2613 34.6235 17.297 35.1651 17.2967ZM34.6043 18.5356C34.5218 18.783 34.4396 19.0311 34.3774 19.2844C34.2479 19.5842 34.1235 19.6367 33.8293 19.7694C33.7416 19.8094 33.6539 19.8493 33.5635 19.8905C33.4763 19.928 33.389 19.9654 33.2991 20.004C33.2236 20.038 33.1481 20.0721 33.0703 20.1072C32.3815 20.4045 32.3815 20.4045 31.9938 20.3303C31.7378 20.208 31.503 20.0699 31.2597 19.9224C30.9905 20.1916 30.7213 20.4608 30.4439 20.7381C30.5449 20.882 30.5449 20.882 30.6479 21.0288C30.8716 21.3476 30.8909 21.5749 30.8518 21.9618C30.7683 22.2486 30.6597 22.522 30.5459 22.7979C30.5175 22.8711 30.4891 22.9443 30.4598 23.0197C30.4315 23.09 30.4031 23.1602 30.3738 23.2326C30.3482 23.296 30.3225 23.3594 30.2961 23.4248C30.1465 23.6849 29.9644 23.8097 29.6804 23.8976C29.4998 23.9321 29.3193 23.9666 29.1387 24.0012C29.1387 24.405 29.1387 24.8088 29.1387 25.2248C29.5833 25.3878 29.5833 25.3878 29.8786 25.4278C30.2686 25.629 30.3585 25.9879 30.5153 26.3822C30.5481 26.4583 30.5809 26.5345 30.6147 26.613C30.7874 27.0303 30.9105 27.3762 30.8518 27.8352C30.7747 28.0044 30.7747 28.0044 30.6784 28.136C30.628 28.2252 30.5775 28.3144 30.5255 28.4063C30.6152 28.6759 30.7824 28.844 30.9844 29.0385C31.0616 29.1136 31.0616 29.1136 31.1405 29.1901C31.1798 29.2276 31.2191 29.265 31.2597 29.3036C31.5477 29.1921 31.5477 29.1921 31.8205 29.0487C32.3791 28.8187 32.9192 29.0748 33.4418 29.2883C33.5574 29.3295 33.5574 29.3295 33.6754 29.3716C34.0113 29.509 34.2248 29.5967 34.3817 29.9353C34.4416 30.1593 34.484 30.3804 34.5227 30.6088C34.6176 30.7223 34.6176 30.7223 34.8799 30.6983C34.9937 30.6978 35.1074 30.6968 35.2212 30.6955C35.2792 30.6951 35.3372 30.6947 35.3969 30.6944C35.5406 30.6934 35.6843 30.6919 35.8279 30.6904C35.8408 30.6284 35.8538 30.5665 35.8671 30.5027C35.8861 30.4216 35.9052 30.3405 35.9248 30.257C35.9428 30.1766 35.9607 30.0961 35.9793 30.0132C36.1707 29.5619 36.734 29.4274 37.1637 29.2475C37.2232 29.2214 37.2827 29.1952 37.3441 29.1683C37.7212 29.0104 38.0223 28.9338 38.4383 28.9773C38.7188 29.1404 38.7188 29.1404 38.9278 29.3036C39.181 29.1902 39.3655 29.0576 39.5651 28.8651C39.6161 28.8174 39.6671 28.7696 39.7196 28.7205C39.8444 28.5766 39.8444 28.5766 39.8089 28.3989C39.746 28.2315 39.746 28.2315 39.611 28.0647C39.4249 27.684 39.5132 27.3002 39.6461 26.9063C39.7262 26.7119 39.8121 26.5215 39.9016 26.3312C39.9457 26.2331 39.9457 26.2331 39.9907 26.1331C40.2083 25.6574 40.2083 25.6574 40.3962 25.4695C40.6917 25.3728 40.992 25.3019 41.2935 25.2248C41.2935 24.821 41.2935 24.4172 41.2935 24.0012C41.1404 23.9776 40.9873 23.9541 40.8295 23.9298C40.3626 23.812 40.3626 23.812 40.1731 23.593C40.0675 23.3793 39.9861 23.1654 39.9067 22.9407C39.8303 22.7707 39.7539 22.6007 39.6773 22.4308C39.5295 22.0944 39.4622 21.8408 39.4988 21.4723C39.6114 21.2094 39.7578 20.9838 39.9067 20.7381C39.6375 20.4689 39.3683 20.1997 39.0909 19.9224C38.9799 19.9897 38.8688 20.057 38.7544 20.1263C38.439 20.3175 38.2362 20.3769 37.8673 20.3303C37.5672 20.2301 37.2797 20.1061 36.9904 19.9785C36.9122 19.9455 36.8341 19.9125 36.7536 19.8786C36.1753 19.6278 36.1753 19.6278 35.9911 19.3514C35.9222 19.0815 35.8778 18.8099 35.8279 18.5356C35.4241 18.5356 35.0203 18.5356 34.6043 18.5356Z" fill="#FF7705"></path>
  <path d="M21.226 25.6326C22.4147 26.5339 23.1675 27.7267 23.3925 29.2063C23.5047 30.1187 23.3767 30.9842 23.0206 31.8324C22.994 31.9007 22.9674 31.9691 22.94 32.0395C22.4595 33.1403 21.4112 34.0611 20.3172 34.519C19.0364 34.9966 17.6952 35.013 16.413 34.5244C15.1328 33.9297 14.2104 32.9353 13.6401 31.653C13.211 30.4605 13.2231 29.0048 13.721 27.8352C14.3512 26.5127 15.3634 25.5664 16.7393 25.0616C18.2418 24.5892 19.8961 24.7611 21.226 25.6326ZM15.516 27.3116C14.7358 28.253 14.5164 29.232 14.5972 30.4304C14.7235 31.4973 15.4155 32.3295 16.2244 32.9795C17.0415 33.58 17.9513 33.699 18.9418 33.627C20.002 33.4259 20.9332 32.8895 21.5523 31.9955C22.1541 30.9393 22.3446 29.9135 22.0417 28.7325C21.7262 27.7688 21.1147 27.0038 20.2234 26.5237C18.5867 25.6999 16.7926 25.9482 15.516 27.3116Z" fill="#FF7705"></path>
  <path d="M38.0815 21.7176C38.8881 22.5759 39.2408 23.6576 39.2542 24.8174C39.1761 25.9593 38.7186 26.9611 37.8722 27.736C37.0756 28.3684 36.1978 28.6846 35.1856 28.677C35.121 28.6765 35.0564 28.6761 34.9899 28.6756C34.5002 28.6654 34.076 28.6093 33.6254 28.4068C33.553 28.3749 33.4805 28.343 33.4059 28.3102C32.5452 27.8877 31.9022 27.2391 31.5045 26.3674C31.4796 26.3151 31.4546 26.2629 31.429 26.209C31.0427 25.3614 31.0336 24.193 31.3056 23.3083C31.7716 22.1417 32.5248 21.3694 33.6627 20.854C35.171 20.252 36.8854 20.6432 38.0815 21.7176ZM32.9881 22.8392C32.4654 23.4847 32.3457 24.1063 32.3706 24.9299C32.4496 25.6773 32.8047 26.3559 33.3893 26.8342C33.5721 26.9623 33.7565 27.0752 33.9517 27.1831C34.027 27.2249 34.027 27.2249 34.1037 27.2676C34.7135 27.5483 35.5027 27.5209 36.139 27.3412C36.8618 27.0537 37.4323 26.4875 37.7855 25.8018C38.1093 25.0319 38.0734 24.2889 37.7858 23.5122C37.4307 22.802 36.8534 22.2341 36.1116 21.9397C34.9124 21.5897 33.8352 21.949 32.9881 22.8392Z" fill="#FF7705"></path>
  <path d="M26.0132 9.81719C26.9364 10.4451 27.4991 11.3034 27.7824 12.3817C27.9743 13.4662 27.784 14.5894 27.1808 15.5173C26.4654 16.4477 25.58 17.0595 24.4148 17.274C23.3527 17.3956 22.2772 17.2012 21.4144 16.5523C21.296 16.4533 21.1787 16.3531 21.0626 16.2515C20.987 16.1903 20.987 16.1903 20.9099 16.1278C20.2124 15.5126 19.8 14.5067 19.7373 13.5936C19.689 12.4318 19.9799 11.4039 20.742 10.5052C21.1328 10.0919 21.5246 9.79697 22.0415 9.56226C22.1036 9.5303 22.1658 9.49833 22.2298 9.46539C23.445 8.91939 24.9004 9.16881 26.0132 9.81719ZM21.6336 11.3569C21.0653 12.1248 20.884 12.8542 20.981 13.8042C21.1909 14.5952 21.6068 15.2196 22.2913 15.6702C22.9678 16.0557 23.657 16.1665 24.4174 15.9966C25.1062 15.8008 25.6812 15.4373 26.1203 14.8647C26.5457 14.0995 26.7468 13.3592 26.5129 12.499C26.2463 11.6956 25.7625 11.1154 25.0372 10.6725C23.8589 10.1157 22.525 10.4588 21.6336 11.3569Z" fill="#FF7705"></path>
  <path d="M24.4353 43.3156C24.6 43.3148 24.7647 43.3123 24.9294 43.3097C25.0337 43.3093 25.138 43.3089 25.2455 43.3085C25.3886 43.3073 25.3886 43.3073 25.5346 43.3062C25.8208 43.3382 25.9731 43.4085 26.2021 43.58C26.318 43.8117 26.3093 43.976 26.2837 44.2326C26.157 44.4089 26.157 44.4089 25.9574 44.5589C25.7426 44.5914 25.5625 44.6047 25.3481 44.6022C25.2896 44.6025 25.2311 44.6028 25.1708 44.6032C25.0474 44.6034 24.9239 44.6028 24.8005 44.6014C24.612 44.5997 24.4236 44.6014 24.235 44.6035C24.1149 44.6033 23.9948 44.6028 23.8746 44.6022C23.8185 44.6029 23.7623 44.6035 23.7044 44.6042C23.4311 44.5989 23.2868 44.5751 23.0664 44.4083C22.8938 44.17 22.897 44.0313 22.9391 43.7431C23.257 43.183 23.8652 43.3173 24.4353 43.3156Z" fill="#FF7705"></path>
  <path d="M34.5228 40.9689C34.7319 41.1422 34.7319 41.1422 34.8491 41.3767C34.8491 41.6509 34.8173 41.8015 34.6496 42.0195C34.3416 42.2752 33.9987 42.4257 33.6357 42.5902C33.5634 42.6251 33.4912 42.66 33.4168 42.696C32.8827 42.9395 32.8827 42.9395 32.5236 42.8763C32.3203 42.7635 32.3203 42.7635 32.1571 42.6004C32.1052 42.1403 32.1052 42.1403 32.1571 41.9478C32.4608 41.651 32.8271 41.4654 33.2023 41.2748C33.2573 41.2451 33.3122 41.2155 33.3688 41.1849C33.773 40.9791 34.0693 40.9232 34.5228 40.9689Z" fill="#FF7705"></path>
  <path d="M19.9208 42.7643C19.9728 42.7754 20.0248 42.7865 20.0783 42.7979C20.2439 42.8339 20.4086 42.8727 20.5734 42.9122C20.676 42.9363 20.7786 42.9604 20.8844 42.9852C21.1444 43.0906 21.1444 43.0906 21.3028 43.2898C21.4157 43.5628 21.3986 43.7087 21.3076 43.988C21.1364 44.1519 21.0342 44.2277 20.7961 44.2502C19.1671 44.0726 19.1671 44.0726 18.6634 43.6658C18.534 43.4985 18.534 43.4985 18.4983 43.2538C18.5374 42.9854 18.5884 42.873 18.7787 42.6828C19.171 42.552 19.5237 42.6777 19.9208 42.7643Z" fill="#FF7705"></path>
  <path d="M11.7631 38.4403C11.9789 38.577 12.1621 38.7414 12.3494 38.9145C12.3986 38.9581 12.4477 39.0017 12.4984 39.0466C12.6357 39.1691 12.7706 39.2937 12.9051 39.4192C12.9697 39.4775 13.0343 39.5357 13.1008 39.5958C13.2314 39.7455 13.2314 39.7455 13.2671 40.0361C13.2314 40.3166 13.2314 40.3166 13.1448 40.4695C12.8807 40.6229 12.7248 40.6528 12.4157 40.6429C12.1434 40.4847 11.9178 40.2787 11.6815 40.0718C11.5323 39.9541 11.3828 39.8368 11.2328 39.72C10.876 39.4398 10.876 39.4398 10.7842 39.2561C10.7536 38.9808 10.7536 38.9808 10.7842 38.685C11.0903 38.314 11.3151 38.3265 11.7631 38.4403Z" fill="#FF7705"></path>
  <path d="M43.0015 31.1343C43.3429 31.197 43.4609 31.3056 43.6592 31.588C43.643 32.0979 43.4409 32.5063 43.2208 32.9595C43.1719 33.0645 43.1719 33.0645 43.122 33.1716C42.8749 33.688 42.8749 33.688 42.5987 33.8722C42.3183 33.9079 42.3183 33.9079 42.0277 33.8722C41.8238 33.7039 41.8238 33.7039 41.7014 33.4643C41.7271 32.9845 41.8884 32.6095 42.094 32.1846C42.122 32.1237 42.15 32.0629 42.1789 32.0002C42.5495 31.2208 42.5495 31.2208 43.0015 31.1343Z" fill="#FF7705"></path>
  <path d="M38.1936 38.4408C38.3465 38.5275 38.3465 38.5275 38.4383 38.6855C38.4943 38.961 38.5171 39.0786 38.4383 39.3382C38.2272 39.5998 37.9718 39.7895 37.7041 39.9908C37.6287 40.0531 37.5533 40.1155 37.4757 40.1797C36.8274 40.6953 36.8274 40.6953 36.4805 40.6587C36.0991 40.5077 36.0991 40.5077 35.991 40.3171C35.9503 40.0417 35.9503 40.0417 35.991 39.746C36.2861 39.4106 36.6335 39.1418 36.9852 38.8691C37.0365 38.8288 37.0878 38.7885 37.1406 38.747C37.6906 38.3176 37.6906 38.3176 38.1936 38.4408Z" fill="#FF7705"></path>
  <path d="M8.6632 35.0959C8.98914 35.3873 9.26874 35.7218 9.54524 36.0595C9.60668 36.1303 9.60668 36.1303 9.66935 36.2025C9.88441 36.4673 9.99518 36.6519 9.99996 36.9986C9.96841 37.2985 9.96841 37.2985 9.88684 37.4616C9.60113 37.6045 9.37133 37.6408 9.07108 37.5432C8.78304 37.3046 8.56311 37.0239 8.3369 36.7274C8.25109 36.6192 8.25109 36.6192 8.16355 36.5088C7.87778 36.1297 7.7175 35.9126 7.76587 35.4222C8.00551 35.058 8.24485 35.0299 8.6632 35.0959Z" fill="#FF7705"></path>
  <path d="M30.444 42.6825C30.6497 42.8677 30.6844 42.9792 30.7244 43.2535C30.6785 43.5686 30.6133 43.6297 30.3624 43.8246C30.1146 43.9223 29.8613 43.9859 29.6027 44.0489C29.5351 44.0669 29.4674 44.0849 29.3977 44.1034C29.0057 44.203 28.649 44.2643 28.2414 44.2324C28.0426 44.105 28.0426 44.105 27.9151 43.9061C27.8723 43.6065 27.8552 43.4236 28.0279 43.1684C28.3509 42.927 28.6986 42.866 29.0878 42.7794C29.1639 42.7607 29.2401 42.742 29.3185 42.7228C29.7152 42.6309 30.0438 42.5614 30.444 42.6825Z" fill="#FF7705"></path>
  <path d="M40.8398 35.0601C41.1304 35.0958 41.1304 35.0958 41.3293 35.2284C41.4951 35.4804 41.4871 35.6132 41.4567 35.9116C41.3312 36.1327 41.3312 36.1327 41.161 36.35C41.1017 36.427 41.0424 36.504 40.9813 36.5833C40.9228 36.6577 40.8644 36.7322 40.8041 36.8089C40.7121 36.9345 40.6203 37.0602 40.5288 37.1862C40.3351 37.4513 40.3351 37.4513 40.1515 37.5431C39.5724 37.5798 39.5724 37.5798 39.3358 37.4615C39.2015 37.1929 39.1988 36.9346 39.2542 36.6457C39.3956 36.3924 39.5769 36.1839 39.7691 35.9676C39.8419 35.8818 39.8419 35.8818 39.9162 35.7941C40.047 35.6409 40.1789 35.4894 40.3147 35.3405C40.3545 35.295 40.3944 35.2494 40.4355 35.2025C40.5594 35.0958 40.5594 35.0958 40.8398 35.0601Z" fill="#FF7705"></path>
  <path d="M15.3525 40.969C15.6358 41.0763 15.8945 41.2182 16.1581 41.3667C16.2277 41.4043 16.2973 41.4418 16.369 41.4805C16.8735 41.7559 16.8735 41.7559 17.0656 41.9479C17.1115 42.5257 17.1115 42.5257 16.9687 42.7586C16.7794 42.8696 16.6315 42.9018 16.413 42.9268C16.2133 42.8651 16.2133 42.8651 16.007 42.765C15.9322 42.729 15.8573 42.693 15.7801 42.656C15.703 42.6175 15.6258 42.579 15.5462 42.5394C15.4684 42.5021 15.3906 42.4649 15.3104 42.4266C14.6593 42.1093 14.6593 42.1093 14.4552 41.8664C14.3971 41.5842 14.4075 41.3092 14.5367 41.0506C14.8034 40.9173 15.0643 40.9271 15.3525 40.969Z" fill="#FF7705"></path>
</svg>
