<?xml version="1.0" encoding="UTF-8"?>
<svg xmlns="http://www.w3.org/2000/svg" width="48" height="48" viewBox="0 0 48 48" fill="none">
  <g clip-path="url(#clip0_3750_1275)">
    <path d="M19.8754 0.375011C19.9356 0.401175 19.9957 0.427339 20.0577 0.454296C20.896 0.82458 21.6333 1.25223 22.3129 1.87501C22.3721 1.92782 22.4313 1.98063 22.4924 2.03505C23.6839 3.1557 24.5936 4.89074 24.6683 6.53898C24.671 6.81357 24.6695 7.08774 24.6658 7.36232C24.6652 7.45709 24.6645 7.55187 24.6638 7.64952C24.6621 7.88095 24.6597 8.11235 24.6567 8.34376C25.9485 8.38615 27.2399 8.41534 28.5323 8.42852C29.1328 8.43505 29.7325 8.4458 30.3327 8.46688C33.2988 8.6948 33.2988 8.6948 35.9053 7.5587C36.4179 7.06533 36.8442 6.50983 37.2192 5.90626C37.1894 5.80975 37.1894 5.80975 37.159 5.71129C37.1332 5.62687 37.1074 5.54245 37.0809 5.45548C37.0552 5.3718 37.0295 5.28813 37.0031 5.20191C36.8085 4.50569 36.8796 3.73312 37.2192 3.09376C37.7022 2.40637 38.2063 2.04596 39.0004 1.78126C39.9182 1.69605 40.6784 1.83949 41.4203 2.40235C41.9963 2.94567 42.2559 3.6506 42.2945 4.4308C42.2533 5.25531 41.9218 5.93096 41.3149 6.48634C40.7689 6.92918 40.1696 7.13722 39.4692 7.12501C39.3899 7.09648 39.3106 7.06794 39.2289 7.03854C38.901 6.92577 38.6904 6.89327 38.3442 6.93751C37.7861 7.26853 37.3587 7.8047 36.9262 8.27931C36.8022 8.41065 36.678 8.5417 36.5534 8.67244C36.3785 8.85604 36.2043 9.03997 36.0323 9.22631C35.5555 9.74292 35.5555 9.74292 35.2465 9.76155C35.1275 9.76142 35.1275 9.76142 35.0061 9.76128C34.8696 9.76148 34.8696 9.76148 34.7304 9.76167C34.5802 9.76117 34.5802 9.76117 34.4269 9.76065C34.2692 9.76067 34.2692 9.76067 34.1082 9.7607C33.7592 9.76063 33.4102 9.7599 33.0612 9.75917C32.8198 9.75899 32.5783 9.75886 32.3368 9.75876C31.7654 9.75844 31.194 9.7577 30.6226 9.75676C29.9722 9.75572 29.3217 9.7552 28.6712 9.75473C27.333 9.75375 25.9949 9.75203 24.6567 9.75001C24.6567 10.7091 24.6567 11.6681 24.6567 12.6563C30.6585 12.6563 36.6604 12.6563 42.8442 12.6563C42.906 12.4397 42.9679 12.2231 43.0317 12C43.4915 11.3059 44.0901 10.8548 44.9067 10.6875C45.8143 10.606 46.5544 10.796 47.2698 11.3672C47.8285 11.9125 48.0242 12.5043 48.0356 13.2715C48.0384 14.0474 47.8903 14.6053 47.3566 15.1926C46.7762 15.737 46.1839 15.9905 45.3813 15.9785C45.3153 15.9779 45.2493 15.9772 45.1814 15.9766C44.6598 15.9604 44.2921 15.8722 43.8754 15.5625C43.7768 15.4948 43.6782 15.4272 43.5766 15.3574C43.2476 15.0285 43.0326 14.6744 42.8442 14.25C42.8442 14.1881 42.8442 14.1263 42.8442 14.0625C36.8423 14.0625 30.8404 14.0625 24.6567 14.0625C24.6567 15.3619 24.6567 16.6613 24.6567 18C24.9765 17.9966 25.2963 17.9931 25.6258 17.9896C26.6833 17.9787 27.7407 17.9714 28.7982 17.966C29.4393 17.9626 30.0803 17.958 30.7214 17.9505C31.3402 17.9432 31.959 17.9394 32.5778 17.9377C32.8137 17.9365 33.0497 17.9342 33.2856 17.9306C33.6164 17.9259 33.9471 17.9252 34.2779 17.9255C34.4238 17.922 34.4238 17.922 34.5726 17.9184C35.175 17.9243 35.4883 18.0343 35.9143 18.4632C35.9737 18.5269 36.033 18.5906 36.0942 18.6563C36.2248 18.7837 36.3557 18.9108 36.4869 19.0377C36.6284 19.179 36.7697 19.3205 36.9108 19.4623C36.9886 19.5401 37.0665 19.6179 37.1467 19.6981C37.4015 19.953 37.656 20.2083 37.9106 20.4635C38.0881 20.6413 38.2657 20.819 38.4433 20.9967C38.8615 21.4152 39.2795 21.8339 39.6973 22.2527C40.1735 22.7299 40.6499 23.2068 41.1264 23.6838C42.1055 24.6639 43.0843 25.6443 44.0629 26.625C44.1258 26.6052 44.1886 26.5854 44.2534 26.5649C44.3783 26.5263 44.3783 26.5263 44.5057 26.4869C44.6289 26.4485 44.6289 26.4485 44.7547 26.4093C45.5224 26.2045 46.1669 26.3917 46.8754 26.7188C47.4675 27.0921 47.8179 27.6454 48.0004 28.3125C48.092 29.1801 48.0682 29.9422 47.5317 30.6563C46.9454 31.3026 46.2984 31.6261 45.4263 31.6868C44.6694 31.6891 44.0673 31.4394 43.5004 30.9375C42.9393 30.2673 42.7332 29.6535 42.7164 28.7882C42.7478 28.522 42.8067 28.3123 42.8932 28.0601C42.919 27.9844 42.9448 27.9087 42.9713 27.8307C42.9912 27.7731 43.0111 27.7156 43.0317 27.6563C41.9393 26.2513 40.791 24.8988 39.5922 23.584C39.5481 23.5355 39.504 23.487 39.4586 23.4371C37.2147 20.9756 35.1894 19.1248 31.7038 18.9163C30.8858 18.8824 30.0736 18.9014 29.2563 18.9434C29.1411 18.9492 29.0258 18.9551 28.9071 18.9611C27.4792 19.0402 26.0707 19.195 24.6567 19.4063C24.6567 20.6747 24.6567 21.9431 24.6567 23.25C25.9251 23.2191 27.1935 23.1881 28.5004 23.1563C28.6551 22.8469 28.8098 22.5375 28.9692 22.2188C29.6355 21.5306 30.1582 21.2747 31.1137 21.2344C31.9215 21.2543 32.4842 21.5151 33.0824 22.0488C33.5582 22.5696 33.7679 23.1648 33.7914 23.8652C33.7491 24.7505 33.4801 25.3112 32.8609 25.9523C32.2365 26.4931 31.5715 26.5957 30.761 26.5672C30.0427 26.4788 29.4549 26.1248 28.9692 25.5938C28.7511 25.2905 28.5942 25.0398 28.5942 24.6563C27.2948 24.6563 25.9954 24.6563 24.6567 24.6563C24.6567 25.9247 24.6567 27.1931 24.6567 28.5C28.3073 28.5 31.9579 28.5 35.7192 28.5C35.7501 28.3453 35.781 28.1906 35.8129 28.0313C36.1952 27.3402 36.7478 26.8674 37.5004 26.625C38.3137 26.4626 39.0052 26.528 39.7211 26.959C40.2965 27.3704 40.7356 27.9885 40.8754 28.6875C40.9537 29.5974 40.8395 30.3018 40.2485 31.0137C39.7044 31.5878 39.0824 31.8796 38.2914 31.9043C37.6282 31.8974 37.0389 31.6819 36.4809 31.3301C36.0252 30.861 35.8297 30.5697 35.7192 29.9063C32.0685 29.9063 28.4179 29.9063 24.6567 29.9063C24.6567 31.1747 24.6567 32.4431 24.6567 33.75C26.946 33.75 29.2354 33.75 31.5942 33.75C31.6251 33.5953 31.656 33.4406 31.6879 33.2813C32.0702 32.5902 32.6228 32.1174 33.3754 31.875C34.1887 31.7126 34.8802 31.778 35.5961 32.209C36.1715 32.6204 36.6106 33.2385 36.7504 33.9375C36.8287 34.8474 36.7145 35.5518 36.1235 36.2637C35.5794 36.8378 34.9574 37.1296 34.1664 37.1543C33.5052 37.1475 32.9297 36.9258 32.3617 36.5977C32.0017 36.2068 31.5942 35.7018 31.5942 35.1563C29.3048 35.1563 27.0154 35.1563 24.6567 35.1563C24.6567 36.4247 24.6567 37.6931 24.6567 39C25.2073 38.9978 25.7578 38.9957 26.3251 38.9934C26.6737 38.9925 27.0224 38.9916 27.371 38.9909C27.9245 38.9897 28.4779 38.9884 29.0314 38.9859C29.4776 38.9838 29.9238 38.9827 30.3699 38.9822C30.5402 38.9819 30.7105 38.9812 30.8808 38.9802C31.1192 38.9788 31.3575 38.9786 31.5959 38.9787C31.6664 38.9781 31.737 38.9774 31.8096 38.9767C32.1583 38.9781 32.4288 38.9839 32.7192 39.1875C32.8866 39.3797 33.041 39.5702 33.1938 39.7734C33.2854 39.8929 33.3771 40.0122 33.4688 40.1316C33.5154 40.1928 33.5621 40.254 33.6101 40.317C33.7872 40.548 33.9676 40.7763 34.1483 41.0045C34.6519 41.6406 35.1421 42.2859 35.6254 42.9375C35.7434 42.9046 35.8613 42.8718 35.9828 42.8379C36.7853 42.6643 37.5037 42.7674 38.2229 43.1642C38.7488 43.527 39.25 44.077 39.3754 44.7188C39.4677 45.7399 39.362 46.4316 38.7953 47.2734C38.1538 47.9007 37.6318 48.0445 36.7445 48.0586C36.6249 48.0618 36.6249 48.0618 36.5028 48.0651C35.8011 48.0566 35.3692 47.8077 34.856 47.3445C34.2343 46.6154 34.0731 46.1049 34.0906 45.1439C34.1396 44.6773 34.2864 44.2897 34.5004 43.875C34.4469 43.8123 34.3933 43.7496 34.3382 43.6849C33.7985 43.0457 33.2826 42.3922 32.7795 41.7237C32.7311 41.6596 32.6826 41.5955 32.6327 41.5294C32.5906 41.4733 32.5484 41.4171 32.505 41.3592C32.4519 41.2922 32.3988 41.2253 32.3442 41.1563C32.3156 41.1014 32.2871 41.0465 32.2576 40.9899C32.1175 40.7648 32.006 40.645 31.7817 40.5C31.2449 40.3998 30.7126 40.4104 30.1681 40.4154C30.0092 40.4145 29.8503 40.4134 29.6913 40.4119C29.2742 40.4089 28.8572 40.4098 28.4402 40.4115C28.0141 40.4125 27.588 40.4099 27.1619 40.4075C26.3268 40.4035 25.4918 40.4036 24.6567 40.4063C24.6573 40.4966 24.658 40.5869 24.6586 40.6799C24.6591 40.7983 24.6596 40.9166 24.6601 41.0386C24.6608 41.1559 24.6614 41.2733 24.6621 41.3942C24.6367 42.9084 23.7847 44.4693 22.7817 45.5625C22.7194 45.6333 22.6572 45.7041 22.5931 45.7771C21.326 47.1402 19.5185 47.9326 17.6701 48.0234C15.4041 48.0981 13.432 47.3777 11.7543 45.8262C10.5814 44.5804 9.65666 42.8069 9.65666 41.0625C9.54064 41.0567 9.42463 41.0509 9.3051 41.0449C7.85376 40.8809 6.50933 39.9055 5.58293 38.8257C4.50268 37.445 4.03236 35.8735 4.12541 34.125C4.17387 33.7778 4.23744 33.4361 4.31291 33.0938C4.26167 33.0719 4.21043 33.05 4.15764 33.0275C2.29392 31.9993 0.962222 29.6061 0.380034 27.6402C0.0849095 26.5633 -0.0494611 25.5579 -0.0406055 24.4395C-0.0403204 24.3764 -0.0400352 24.3133 -0.0397415 24.2483C-0.0328818 23.2179 0.0554593 22.2627 0.37541 21.2813C0.395003 21.2185 0.414596 21.1557 0.434782 21.0911C0.895425 19.6456 1.6246 18.3865 2.62541 17.25C2.70579 17.1487 2.78593 17.0472 2.86564 16.9453C3.1654 16.6071 3.49795 16.3207 3.84416 16.0313C3.97758 15.9181 3.97758 15.9181 4.11369 15.8027C4.31291 15.6563 4.31291 15.6563 4.50041 15.6563C4.48119 15.5838 4.46198 15.5112 4.44218 15.4365C3.9757 13.6331 3.99035 11.8064 4.87541 10.125C5.07466 9.7952 5.29344 9.49016 5.53166 9.18751C5.58641 9.11621 5.64115 9.04491 5.69755 8.97145C6.60179 7.87113 7.90164 7.16002 9.28166 6.84376C9.40541 6.84376 9.52916 6.84376 9.65666 6.84376C9.66367 6.76642 9.67068 6.68907 9.6779 6.60939C9.9017 4.64342 10.8182 2.86524 12.3461 1.5879C14.3741 0.0302879 17.4504 -0.70547 19.8754 0.375011ZM12.4063 3.59446C11.5531 4.65919 11.1421 5.90002 11.0413 7.24707C11.019 7.50881 10.9986 7.72993 10.8666 7.96034C10.5917 8.11749 10.2993 8.14722 9.99064 8.19142C8.44928 8.44967 7.32389 9.15949 6.37541 10.4063C5.51398 11.7763 5.38126 13.1537 5.73125 14.6994C5.79702 14.9415 5.8688 15.1502 5.97697 15.375C6.12027 15.7189 6.10551 15.8638 6.00041 16.2188C5.78471 16.422 5.78471 16.422 5.50236 16.6113C5.39912 16.684 5.29622 16.7571 5.19365 16.8307C5.11436 16.8874 5.11436 16.8874 5.03348 16.9453C3.08889 18.3875 1.89528 20.5337 1.44388 22.8952C1.07849 25.4583 1.6585 27.9382 3.16429 30.0329C3.82306 30.9008 4.63287 31.7264 5.53166 32.3438C5.59354 32.3438 5.65541 32.3438 5.71916 32.3438C5.73765 32.8266 5.732 33.2771 5.62541 33.75C5.34848 35.0464 5.65273 36.4068 6.36735 37.518C7.27461 38.7395 8.4071 39.4893 9.91447 39.7266C10.0358 39.7416 10.1571 39.7565 10.2821 39.772C10.6404 39.8544 10.7642 39.9151 10.9692 40.2188C11.0303 40.5341 11.0303 40.5341 11.0571 40.9043C11.2159 42.5444 11.9032 43.973 13.1254 45.0938C14.385 46.0852 16.0001 46.7543 17.6254 46.5938C19.5022 46.3232 21.0419 45.5392 22.2133 44.0134C23.2347 42.5121 23.3739 40.8491 23.368 39.084C23.3682 38.9473 23.3685 38.8106 23.3689 38.6739C23.3696 38.3024 23.3693 37.931 23.3687 37.5596C23.3682 37.1573 23.3689 36.7551 23.3694 36.3529C23.3702 35.5666 23.3701 34.7803 23.3695 33.994C23.3691 33.3546 23.369 32.7151 23.3693 32.0757C23.3693 31.9388 23.3693 31.9388 23.3693 31.7992C23.3694 31.6138 23.3695 31.4284 23.3695 31.2429C23.3701 29.5072 23.3694 27.7714 23.3684 26.0356C23.3676 24.5485 23.3677 23.0614 23.3686 21.5743C23.3696 19.8444 23.37 18.1146 23.3694 16.3847C23.3694 16.2 23.3693 16.0153 23.3693 15.8306C23.3692 15.7397 23.3692 15.6488 23.3692 15.5552C23.369 14.9171 23.3693 14.2789 23.3697 13.6408C23.3702 12.8624 23.3701 12.0839 23.3691 11.3055C23.3686 10.9089 23.3684 10.5122 23.369 10.1156C23.3696 9.75163 23.3693 9.38767 23.3683 9.02369C23.368 8.83159 23.3686 8.63949 23.3692 8.44739C23.3608 6.41818 22.937 4.64815 21.5142 3.13002C20.8398 2.48108 20.0916 2.01986 19.2192 1.68751C19.146 1.65754 19.0729 1.62757 18.9976 1.59669C16.6093 0.773941 14.0043 1.7531 12.4063 3.59446ZM38.4906 3.81446C38.2936 4.23215 38.3046 4.53042 38.4379 4.96876C38.5864 5.2676 38.7757 5.46703 39.0813 5.61695C39.4457 5.73439 39.6339 5.7256 40.0082 5.61329C40.352 5.41499 40.6026 5.23321 40.7817 4.87501C40.8348 4.43973 40.8211 4.11328 40.6293 3.71485C40.3105 3.36252 40.0324 3.21497 39.5629 3.1465C39.0802 3.21688 38.8116 3.4606 38.4906 3.81446ZM44.309 12.7324C44.1261 13.0913 44.0998 13.2895 44.1567 13.6875C44.4109 14.1597 44.6553 14.4531 45.1703 14.6133C45.6504 14.6321 45.9893 14.4619 46.3481 14.1504C46.6224 13.8233 46.6262 13.5702 46.6202 13.155C46.5793 12.8136 46.4471 12.627 46.2192 12.375C45.454 11.876 44.8816 12.0543 44.309 12.7324ZM30.0649 23.1621C29.8338 23.5643 29.8219 23.922 29.9067 24.375C30.0609 24.6732 30.2782 24.8638 30.5453 25.0664C31.0226 25.2028 31.3735 25.1873 31.811 24.9727C32.1009 24.7165 32.2258 24.5566 32.3442 24.1875C32.3625 23.7559 32.3084 23.4378 32.0805 23.0684C31.7496 22.7564 31.5934 22.6949 31.1313 22.6582C30.6581 22.6723 30.413 22.8516 30.0649 23.1621ZM44.4086 28.2715C44.1455 28.6515 44.1178 28.8772 44.1567 29.3438C44.4109 29.816 44.6553 30.1093 45.1703 30.2695C45.6504 30.2884 45.9893 30.1182 46.3481 29.8067C46.6224 29.4796 46.6262 29.2264 46.6202 28.8113C46.5793 28.4699 46.4471 28.2832 46.2192 28.0313C45.5396 27.5975 44.9598 27.6607 44.4086 28.2715ZM37.2778 28.4121C37.0034 28.7392 36.9997 28.9923 37.0057 29.4075C37.0465 29.7489 37.1787 29.9356 37.4067 30.1875C37.7444 30.4255 37.9288 30.4688 38.3442 30.4688C38.8281 30.3844 39.1212 30.125 39.4106 29.7305C39.5402 29.2897 39.5231 28.9753 39.3051 28.5703C39.0367 28.2422 38.8616 28.0756 38.4555 27.9492C37.9754 27.9304 37.6365 28.1006 37.2778 28.4121ZM33.1528 33.6621C32.8784 33.9892 32.8747 34.2423 32.8807 34.6575C32.9215 34.9989 33.0537 35.1856 33.2817 35.4375C33.6194 35.6755 33.8038 35.7188 34.2192 35.7188C34.7031 35.6344 34.9962 35.375 35.2856 34.9805C35.4152 34.5397 35.3981 34.2253 35.1801 33.8203C34.9117 33.4922 34.7366 33.3256 34.3305 33.1992C33.8504 33.1804 33.5115 33.3506 33.1528 33.6621ZM35.7836 44.625C35.5191 44.9386 35.499 45.2479 35.5057 45.6504C35.5496 45.9774 35.6916 46.1629 35.9067 46.4063C36.2877 46.6548 36.5791 46.7522 37.0317 46.6875C37.3768 46.5503 37.6269 46.3834 37.8695 46.1016C38.0402 45.6599 38.0461 45.272 37.8578 44.8359C37.5705 44.4792 37.3444 44.2842 36.8969 44.1621C36.4125 44.1536 36.1442 44.3132 35.7836 44.625Z" fill="#FF7705"></path>
    <path d="M14.906 12.0996C16.0661 12.4257 17.0221 13.1472 17.7009 14.1387C18.281 15.1974 18.338 16.1909 18.3248 17.3719C18.322 17.6369 18.3228 17.9017 18.324 18.1666C18.3222 19.7591 18.0326 20.9081 16.9169 22.0975C16.0678 22.8924 14.9887 23.2548 13.8491 23.3639C13.5387 23.3394 13.3736 23.2458 13.1248 23.0625C12.9916 22.7962 13.0015 22.6074 13.031 22.3125C13.3252 21.918 13.6059 21.8728 14.0798 21.8027C15.0153 21.6417 15.7163 21.2835 16.3123 20.5312C16.6969 19.907 16.7962 19.3737 16.8034 18.6438C16.8041 18.5696 16.8049 18.4953 16.8056 18.4188C16.8069 18.2617 16.8079 18.1046 16.8087 17.9474C16.8098 17.7882 16.8117 17.6289 16.8145 17.4696C16.8347 16.3066 16.772 15.3651 16.0149 14.4207C15.3343 13.7429 14.5432 13.5225 13.617 13.4648C13.2957 13.4385 13.1498 13.4219 12.8728 13.248C12.707 12.9558 12.6889 12.7999 12.7498 12.4687C13.212 11.7094 14.1545 11.9426 14.906 12.0996Z" fill="#FF7705"></path>
    <path d="M45.1011 17.3672C45.6883 17.8165 46.0097 18.4983 46.125 19.2188C46.1838 19.968 45.9921 20.7239 45.5223 21.319C44.9422 21.9091 44.2804 22.2122 43.4557 22.2213C42.7612 22.1795 42.1711 21.9795 41.6426 21.5215C41.5749 21.4422 41.5073 21.3629 41.4375 21.2813C41.3718 21.2136 41.3061 21.1459 41.2383 21.0762C40.8655 20.517 40.6721 19.7948 40.7813 19.125C40.9774 18.3606 41.2592 17.7167 41.9502 17.2969C43.0397 16.7329 44.0242 16.7194 45.1011 17.3672ZM42.4395 18.7676C42.2351 19.1083 42.1581 19.3839 42.1875 19.7813C42.3115 20.2096 42.5403 20.4558 42.9258 20.6719C43.2777 20.823 43.5048 20.8475 43.875 20.7188C44.2436 20.5309 44.4093 20.392 44.6192 20.0332C44.7331 19.6377 44.7398 19.4259 44.625 19.0313C44.4438 18.7273 44.2351 18.5121 43.9219 18.3398C43.3123 18.1874 42.8981 18.3338 42.4395 18.7676Z" fill="#FF7705"></path>
    <path d="M45.0703 35.168C45.6729 35.6424 46.0048 36.2859 46.125 37.0313C46.1948 37.7847 45.9905 38.4612 45.5566 39.0762C45.1231 39.5973 44.5363 39.8971 43.875 40.0313C43.0224 40.0901 42.2707 39.8969 41.6019 39.3497C41.0345 38.7899 40.8244 38.1536 40.752 37.3711C40.8194 36.5886 41.0537 35.9002 41.625 35.3438C42.6856 34.5845 43.9482 34.4505 45.0703 35.168ZM42.4336 36.5801C42.2376 36.9193 42.1683 37.2024 42.1875 37.5938C42.3394 38.0326 42.5389 38.2921 42.9375 38.5313C43.327 38.6488 43.606 38.6532 43.9922 38.5195C44.3252 38.2925 44.5589 38.0942 44.6785 37.6978C44.7604 37.2412 44.7051 36.955 44.4375 36.5625C43.8156 35.9233 43.0732 35.991 42.4336 36.5801Z" fill="#FF7705"></path>
    <path d="M9.74952 24.0938C10.0225 24.2988 10.1137 24.4154 10.1824 24.7529C10.1904 24.8603 10.1983 24.9676 10.2066 25.0781C10.3176 26.0144 10.7118 26.9326 11.437 27.5625C12.3525 28.2229 13.195 28.4477 14.3129 28.4411C14.522 28.4427 14.7312 28.4443 14.9404 28.446C15.2673 28.4469 15.5942 28.4473 15.9211 28.4471C16.2386 28.4475 16.556 28.45 16.8734 28.4528C16.9714 28.452 17.0693 28.4512 17.1702 28.4504C17.8464 28.4574 17.8464 28.4574 18.1547 28.6785C18.3724 29.0179 18.3313 29.2273 18.2808 29.625C18.0135 29.8923 17.8136 29.9416 17.4422 29.9427C17.3501 29.9435 17.258 29.9444 17.1632 29.9453C17.064 29.9448 16.9649 29.9442 16.8628 29.9436C16.7599 29.9439 16.657 29.9442 16.5509 29.9444C16.3328 29.9446 16.1146 29.9441 15.8965 29.9429C15.5659 29.9414 15.2353 29.9429 14.9047 29.9447C14.6922 29.9445 14.4796 29.9442 14.2671 29.9436C14.1207 29.9445 14.1207 29.9445 13.9713 29.9453C12.6186 29.9326 11.2816 29.5138 10.2758 28.5729C9.27327 27.4684 8.64901 26.1784 8.68934 24.6694C8.71827 24.4688 8.71827 24.4688 8.86476 24.2227C9.18337 24.0429 9.3895 24.0423 9.74952 24.0938Z" fill="#FF7705"></path>
    <path d="M11.449 17.3086C11.5685 17.6329 11.5216 17.8563 11.4373 18.1875C11.2914 18.3762 11.2014 18.4565 10.9699 18.5191C10.865 18.53 10.865 18.53 10.758 18.5413C10.641 18.5553 10.641 18.5553 10.5217 18.5696C10.4391 18.5788 10.3565 18.5881 10.2713 18.5977C8.79916 18.7916 7.33637 19.4015 6.37189 20.5756C5.51575 21.7112 5.01462 22.9238 4.92169 24.3516C4.89928 24.6409 4.88008 24.7415 4.72247 24.9961C4.40477 25.18 4.20406 25.1829 3.84357 25.125C3.57658 24.9265 3.48583 24.7712 3.43634 24.4416C3.373 22.6522 4.12347 20.9036 5.28497 19.5762C6.44954 18.335 9.68841 15.9622 11.449 17.3086Z" fill="#FF7705"></path>
    <path d="M19.2688 4.27294C20.0871 4.87844 20.8148 5.71723 21.0003 6.74999C21.0136 6.95478 21.0209 7.16001 21.0237 7.36522C21.0261 7.47169 21.0285 7.57816 21.031 7.68785C21.0003 7.96874 21.0003 7.96874 20.8816 8.14488C20.6871 8.2706 20.5744 8.28776 20.344 8.28514C20.2483 8.28623 20.2483 8.28623 20.1507 8.28734C19.9007 8.23594 19.8347 8.17975 19.6878 7.96874C19.5991 7.65661 19.5298 7.34702 19.4653 7.02941C19.3687 6.59527 19.2386 6.34034 18.9378 5.99999C18.9378 5.93811 18.9378 5.87624 18.9378 5.81249C18.8567 5.77224 18.8567 5.77224 18.7741 5.73119C18.641 5.6643 18.5088 5.59568 18.3778 5.52464C17.6991 5.18211 17.0189 5.1198 16.2893 5.35545C15.6917 5.61877 15.256 6.02144 14.9845 6.61632C14.8518 7.00333 14.7761 7.40227 14.7011 7.80394C14.6253 8.06249 14.6253 8.06249 14.344 8.24999C13.759 8.30222 13.759 8.30222 13.512 8.12108C13.2675 7.76792 13.2684 7.44776 13.3128 7.03124C13.5329 5.9433 14.0056 5.06593 14.9124 4.40624C16.2217 3.56686 17.9147 3.42866 19.2688 4.27294Z" fill="#FF7705"></path>
    <path d="M14.7773 32.2441C15.1325 32.3559 15.1945 32.405 15.375 32.7188C15.427 32.9996 15.427 32.9996 15.457 33.3223C15.6295 34.6709 16.1777 35.7251 17.2218 36.5969C18.0117 37.1575 18.8366 37.4726 19.7988 37.5293C20.1448 37.5602 20.2457 37.5907 20.543 37.7988C20.7523 38.1128 20.7895 38.2554 20.7188 38.625C20.5292 38.864 20.4153 38.9845 20.1138 39.0498C18.3746 39.0304 16.8638 38.4275 15.6244 37.2023C14.5805 36.094 13.9976 34.7108 13.9219 33.1875C13.9338 32.8324 13.9643 32.7257 14.1621 32.4141C14.4375 32.25 14.4375 32.25 14.7773 32.2441Z" fill="#FF7705"></path>
    <path d="M13.8749 39.7148C13.9706 39.7138 13.9706 39.7138 14.0682 39.7126C14.3138 39.7631 14.3861 39.826 14.5311 40.0312C14.6036 40.3162 14.6036 40.3162 14.66 40.6523C14.8484 41.5857 15.1365 42.1571 15.9202 42.7156C16.254 42.9246 16.5549 43.0095 16.9412 43.073C17.0334 43.0882 17.1256 43.1035 17.2206 43.1191C17.308 43.1316 17.3953 43.144 17.4854 43.1569C17.7454 43.2259 17.8453 43.2815 17.9999 43.5C18.0372 43.6816 18.0372 43.6816 18.035 43.875C18.0361 43.9707 18.0361 43.9707 18.0372 44.0684C17.9872 44.3118 17.9232 44.3898 17.7186 44.5312C16.6604 44.7003 15.6923 44.4007 14.8241 43.8047C14.0076 43.1703 13.4999 42.3347 13.2186 41.3438C13.1904 41.0116 13.1904 41.0116 13.1893 40.6699C13.1878 40.5564 13.1862 40.443 13.1846 40.326C13.2186 40.0312 13.2186 40.0312 13.3376 39.8529C13.5318 39.7297 13.646 39.7122 13.8749 39.7148Z" fill="#FF7705"></path>
    <path d="M8.81227 33.2813C8.99391 33.4277 8.99391 33.4277 9.09352 33.6563C9.09352 33.8372 9.09298 34.0182 9.08693 34.199C9.10568 34.7887 9.35316 35.3281 9.74831 35.7601C10.0666 36.0063 10.4309 36.1283 10.8085 36.2589C11.0875 36.3866 11.1964 36.4833 11.3435 36.75C11.3316 37.0432 11.3112 37.2343 11.1278 37.4678C10.8776 37.6657 10.6711 37.6382 10.3617 37.6256C9.45245 37.5034 8.74477 36.9914 8.19337 36.2732C7.7315 35.5682 7.52029 34.7678 7.61659 33.9225C7.6784 33.6649 7.76867 33.4834 7.93922 33.2813C8.26291 33.1413 8.4769 33.1898 8.81227 33.2813Z" fill="#FF7705"></path>
  </g>
  <defs>
    <clipPath id="clip0_3750_1275">
      <rect width="48" height="48" fill="white"></rect>
    </clipPath>
  </defs>
</svg>
