<?xml version="1.0" encoding="UTF-8"?>
<svg xmlns="http://www.w3.org/2000/svg" width="48" height="48" viewBox="0 0 48 48" fill="none">
  <path d="M10.0259 2.86456C10.1295 2.86419 10.233 2.86381 10.3397 2.86343C10.6257 2.86242 10.9118 2.86244 11.1979 2.86263C11.5069 2.86267 11.816 2.86176 12.125 2.86097C12.7301 2.85961 13.3351 2.85915 13.9401 2.85906C14.4322 2.85898 14.9242 2.85864 15.4163 2.85812C16.8127 2.85667 18.2091 2.85591 19.6054 2.85603C19.6807 2.85604 19.7559 2.85604 19.8334 2.85605C19.9087 2.85606 19.984 2.85606 20.0616 2.85607C21.2816 2.85614 22.5017 2.85456 23.7217 2.85223C24.9757 2.84986 26.2297 2.84872 27.4837 2.84887C28.1872 2.84892 28.8907 2.84847 29.5942 2.84669C30.1933 2.84519 30.7924 2.84483 31.3915 2.84595C31.6968 2.84649 32.0021 2.84651 32.3074 2.84507C32.6393 2.84352 32.9711 2.84456 33.303 2.84583C33.4459 2.84456 33.4459 2.84456 33.5917 2.84326C34.8553 2.85389 36.0213 3.32399 36.9434 4.19011C37.6504 4.94263 38.2682 5.95358 38.2682 7.01039C38.3272 7.01156 38.3862 7.01273 38.447 7.01393C39.7625 7.0769 40.8918 7.66305 41.7934 8.60706C42.8254 9.81404 43 13.8757 42.9953 15.4068C42.9951 15.5899 42.997 15.773 42.9991 15.9561C42.9993 16.0739 42.9993 42.5838 42.9993 16.3095C42.9996 16.4671 42.9996 39.3402 43 39.501C42.9672 39.8001 42.9002 39.9539 42.7219 40.193C42.5086 40.3548 42.4095 40.359 42.1394 40.3425C41.8781 40.2702 41.8025 40.2461 41.6497 40.028C41.6253 39.8167 41.6153 39.6244 41.6162 39.413C41.6153 39.352 41.6144 39.2911 41.6135 39.2282C41.6106 39.0326 41.6094 15.9639 41.6084 15.7682C41.6017 14.3623 41.5533 10.4443 40.5672 9.34032C39.739 8.5635 38.7037 8.38723 37.6168 8.39097C37.4704 8.39049 37.4704 8.3905 37.3211 8.39001C37.0516 8.38931 36.7822 8.38934 36.5127 8.3897C36.2215 8.3899 35.9304 8.38916 35.6392 8.38854C35.0693 8.38749 34.4994 8.38734 33.9294 8.38753C33.466 8.38768 33.0026 8.38754 32.5392 8.38718C32.4731 8.38714 32.4071 8.38709 32.3391 8.38704C32.2049 8.38694 32.0708 8.38684 31.9366 8.38674C30.6792 8.38584 29.4218 8.38602 28.1644 8.38652C27.0152 8.38695 25.866 8.38602 24.7168 8.38445C23.5357 8.38285 22.3546 8.38217 21.1734 8.38248C20.5108 8.38264 19.8481 8.38243 19.1855 8.38127C18.6213 8.38028 18.0571 8.38017 17.4929 8.38117C17.2053 8.38165 16.9177 8.38175 16.6301 8.38075C16.3177 8.37989 16.0053 8.38056 15.6929 8.38161C15.6029 8.381 15.5129 8.38039 15.4203 8.37976C14.3916 8.38698 13.3728 8.6676 12.6183 9.40217C11.8229 10.3371 11.661 11.3451 11.6692 12.5418C11.6688 12.6637 11.6683 12.7857 11.6676 12.9076C11.6663 13.2398 11.6669 13.5719 11.668 13.9041C11.6687 14.2634 11.6676 14.6228 11.6667 14.9822C11.6652 15.685 11.6655 16.3878 11.6665 17.0907C11.6672 17.6621 11.6673 18.2336 11.667 18.8051C11.6669 18.8866 11.6669 18.968 11.6668 19.052C11.6667 19.2176 11.6666 19.3832 11.6665 19.5487C11.6655 21.0995 11.6666 22.6502 11.6684 24.2009C11.6699 25.5301 11.6696 26.8592 11.6681 28.1884C11.6663 29.7338 11.6656 31.2791 11.6666 32.8245C11.6667 32.9895 11.6669 33.1544 11.667 33.3194C11.667 33.4005 11.6671 33.4817 11.6671 33.5653C11.6674 34.1357 11.6669 34.7061 11.6661 35.2766C11.6652 35.9723 11.6655 36.6679 11.6672 37.3636C11.6681 37.7182 11.6684 38.0727 11.6673 38.4273C11.6663 38.7525 11.6669 39.0777 11.6686 39.4029C11.669 39.5199 11.6688 39.637 11.668 39.754C11.6607 40.9072 11.8785 41.9399 12.6853 42.7989C13.6258 43.6825 14.6833 43.803 15.9251 43.8141C16.0076 43.8148 16.0902 43.8156 16.1752 43.8163C16.521 43.8188 16.8668 43.8204 17.2126 43.8196C17.4673 43.8194 35.3167 43.8217 35.5714 43.8244C35.6496 43.8236 35.7278 43.8227 35.8083 43.8218C36.3453 43.8299 36.3453 43.8299 36.6157 44.0677C36.7699 44.3703 36.7359 44.5436 36.6462 44.8666C36.5073 45.0572 36.4359 45.108 36.2009 45.146C36.1226 45.1465 36.0443 45.1469 35.9637 45.1474C35.8747 45.1484 35.7857 45.1495 35.694 45.1505C35.5976 45.1503 17.9065 45.1501 17.8072 45.1498C17.7076 45.1502 17.608 45.1507 17.5053 45.1511C17.2939 45.1516 17.0824 45.1515 16.8709 45.1508C16.5503 45.1501 16.2299 45.1525 15.9093 45.1551C15.7034 45.1552 15.4976 45.1552 15.2917 45.155C15.197 45.1559 15.1023 45.1568 15.0047 45.1578C13.7115 45.1468 12.5635 44.6761 11.6389 43.7687C11.0756 43.1761 10.7501 42.5752 10.474 41.815C10.4271 41.8122 10.3803 41.8093 10.332 41.8064C8.7621 41.7041 7.38543 41.3932 6.26031 40.1942C5.21407 38.9083 5.01789 37.593 5.01901 35.9919C5.0188 35.8691 5.01855 35.7462 5.01827 35.6234C5.0176 35.2869 5.01745 34.9504 5.01739 34.6138C5.01724 34.2505 5.01662 33.8871 5.01606 33.5237C5.01494 32.7296 5.01444 31.9355 5.01408 31.1414C5.01385 30.6452 5.0135 30.149 5.01313 29.6528C5.01213 28.2779 5.01128 26.903 5.011 25.528C5.01098 25.4401 5.01096 25.3522 5.01094 25.2616C5.01093 25.1734 5.01091 25.0853 5.01089 24.9945C5.01085 24.8159 5.01082 24.6373 5.01078 24.4587C5.01075 24.3258 5.01075 24.3258 5.01072 24.1902C5.0104 22.7554 5.00896 21.3205 5.00704 19.8857C5.00508 18.4112 5.00405 16.9366 5.00396 15.4621C5.00388 14.6348 5.00341 13.8075 5.00191 12.9802C5.00064 12.2756 5.00022 11.571 5.0009 10.8664C5.00122 10.5072 5.00115 10.1481 4.99999 9.78901C4.99893 9.45947 4.99904 9.12995 5.00004 8.80041C5.0002 8.68197 4.99995 8.56353 4.99922 8.44509C4.99019 6.86808 5.28365 5.46299 6.41882 4.2974C6.47783 4.24009 6.53683 4.18279 6.59762 4.12375C6.64217 4.0775 6.68672 4.03125 6.73261 3.9836C7.63757 3.11511 8.81885 2.86135 10.0259 2.86456ZM7.19106 5.37989C6.38938 6.39126 6.325 7.48793 6.32925 8.73285C6.32906 8.85517 6.3288 8.9775 6.32847 9.09982C6.32779 9.43377 6.32812 9.76771 6.32864 10.1017C6.32901 10.4626 6.32843 10.8236 6.32798 11.1846C6.32725 11.8909 6.3274 12.5972 6.32788 13.3035C6.32825 13.8777 6.3283 14.4518 6.32813 15.026C6.3281 15.1078 6.32808 15.1896 6.32805 15.2739C6.328 15.4401 6.32794 15.6063 6.32789 15.7726C6.32742 17.3299 6.32796 18.8873 6.32885 20.4447C6.32958 21.7802 6.32945 23.1158 6.32869 24.4513C6.32781 26.0034 6.32746 27.5555 6.32797 29.1075C6.32802 29.2731 6.32807 29.4386 6.32813 29.6042C6.32815 29.6857 6.32818 29.7671 6.3282 29.8511C6.32834 30.4244 6.3281 30.9977 6.32772 31.571C6.32725 32.2699 6.32738 32.9688 6.32826 33.6677C6.32869 34.024 6.32886 34.3804 6.32832 34.7368C6.32782 35.0634 6.3281 35.3899 6.32897 35.7165C6.32915 35.8343 6.32906 35.9521 6.32866 36.0699C6.3248 37.2964 6.49007 38.4874 7.36568 39.4232C8.07801 40.0529 8.88567 40.4306 9.84058 40.4187C9.92863 40.4179 10.0167 40.4171 10.1074 40.4162C10.1739 40.4151 10.2405 40.414 10.309 40.4129C10.3091 40.321 10.3091 40.321 10.3092 40.2272C10.3121 36.5922 10.3168 32.9571 10.3237 29.322C10.3245 28.8851 10.3253 28.4483 10.3261 28.0114C10.3263 27.9244 10.3265 27.8375 10.3266 27.7479C10.3292 26.3413 10.3306 24.9347 10.3316 23.5282C10.3326 22.084 10.3348 20.6398 10.3383 19.1956C10.3403 18.305 10.3414 17.4145 10.3413 16.524C10.3413 15.9126 10.3425 15.3012 10.3447 14.6898C10.3459 14.3376 10.3465 13.9853 10.3458 13.633C10.3451 13.3096 10.346 12.9862 10.348 12.6628C10.3484 12.5467 10.3484 12.4305 10.3477 12.3144C10.3407 11.0625 10.5742 9.94923 11.2987 8.90732C11.3349 8.85353 11.371 8.79973 11.4083 8.7443C12.0726 7.86785 13.2106 7.3219 14.2687 7.1304C14.683 7.07419 15.0983 7.08021 15.5157 7.07981C15.6075 7.07941 15.6992 7.079 15.7938 7.07858C16.1009 7.07731 16.4079 7.07662 16.715 7.07593C16.9353 7.07514 17.1556 7.07432 17.3759 7.07345C17.8499 7.07166 18.324 7.07016 18.7981 7.06887C19.4835 7.06699 20.1689 7.06467 20.8543 7.06224C21.9664 7.05832 23.0785 7.05475 24.1906 7.0514C25.2707 7.04815 26.3509 7.04474 27.431 7.04109C27.4976 7.04087 27.5642 7.04064 27.6328 7.04041C27.967 7.03928 28.3012 7.03815 28.6354 7.03702C31.4064 7.02763 34.1775 7.01882 36.9486 7.01039C36.9101 6.87818 36.8714 6.74607 36.8325 6.614C36.8109 6.54042 36.7893 6.46684 36.7671 6.39103C36.4939 5.54053 35.8676 4.95392 35.1161 4.51067C34.3242 4.11903 33.4231 4.0992 32.5567 4.1028C32.4115 4.10241 32.4115 4.10241 32.2635 4.10202C31.9979 4.10148 31.7323 4.10167 31.4668 4.10218C31.1792 4.10256 30.8916 4.10198 30.604 4.10153C30.0418 4.1008 29.4796 4.10095 28.9174 4.10143C28.4602 4.1018 28.0029 4.10185 27.5457 4.10167C27.4804 4.10165 27.4152 4.10162 27.3479 4.1016C27.2154 4.10154 27.0828 4.10149 26.9502 4.10144C25.7089 4.10097 24.4676 4.10151 23.2263 4.10239C22.1629 4.10313 21.0996 4.103 20.0363 4.10224C18.7993 4.10136 17.5624 4.10101 16.3254 4.10152C16.1933 4.10157 16.0612 4.10162 15.9291 4.10167C15.8641 4.1017 15.7991 4.10172 15.7322 4.10175C15.2759 4.10189 14.8197 4.10165 14.3634 4.10126C13.8068 4.1008 13.2501 4.10093 12.6934 4.10181C12.4098 4.10224 12.1262 4.10241 11.8426 4.10186C11.5343 4.10141 11.2259 4.10198 10.9175 4.1028C10.8292 4.10243 10.7409 4.10206 10.65 4.10169C9.28101 4.1087 8.15344 4.34788 7.19106 5.37989Z" fill="#FF7705"></path>
  <path d="M17.7135 28.3554C17.7691 28.3547 17.8247 28.354 17.8819 28.3533C18.0655 28.3513 18.249 28.3499 18.4326 28.3487C18.4957 28.3483 18.5587 28.3478 18.6237 28.3474C18.958 28.3452 19.2923 28.3436 19.6266 28.3424C19.9016 28.3413 20.1766 28.339 20.4516 28.3356C20.7852 28.3315 21.1187 28.3295 21.4522 28.3289C21.5785 28.3284 21.7047 28.3271 21.831 28.3251C22.8956 28.3093 23.7826 28.4905 24.579 29.2521C25.0963 29.8594 25.327 30.4613 25.3352 31.2474C25.3362 31.332 25.3362 31.332 25.3373 31.4183C25.3393 31.6045 25.3407 31.7907 25.3419 31.977C25.3423 32.041 25.3427 32.1049 25.3432 32.1709C25.3454 32.51 25.347 32.8491 25.3482 33.1882C25.3493 33.4672 25.3516 33.7462 25.355 34.0252C25.3591 34.3635 25.3611 34.7019 25.3617 35.0402C25.3622 35.1683 25.3634 35.2964 25.3654 35.4245C25.3806 36.4574 25.2296 37.3556 24.4843 38.1298C23.6343 38.8912 22.6874 38.9664 21.5847 38.961C21.464 38.9612 21.3433 38.9614 21.2225 38.9617C20.9707 38.9621 20.719 38.9615 20.4672 38.9604C20.1467 38.959 19.8262 38.9598 19.5056 38.9613C19.2567 38.9622 19.0078 38.9619 18.7589 38.9612C18.6408 38.9611 18.5227 38.9613 18.4046 38.9618C17.2909 38.9661 16.4199 38.8114 15.5891 38.0331C14.9917 37.395 14.7544 36.7041 14.7492 35.838C14.7484 35.7317 14.7476 35.6254 14.7468 35.5159C14.7464 35.4004 14.746 35.2849 14.7457 35.1694C14.7455 35.1107 14.7452 35.0521 14.745 34.9917C14.7438 34.6811 14.743 34.3705 14.7426 34.0599C14.7422 33.7411 14.7402 33.4224 14.7379 33.1036C14.7363 32.8567 14.7359 32.6098 14.7358 32.3629C14.7355 32.2455 14.7349 32.1281 14.7338 32.0107C14.7239 30.8699 14.9024 29.9939 15.6852 29.1393C16.2604 28.588 16.9333 28.3636 17.7135 28.3554ZM16.4635 30.2991C16.4064 30.3664 16.4064 30.3664 16.3482 30.4351C16.1178 30.8064 16.0612 31.1762 16.0581 31.6068C16.0571 31.7067 16.056 31.8066 16.0549 31.9096C16.0547 32.0166 16.0545 32.1236 16.0544 32.2338C16.0538 32.3459 16.0533 32.4581 16.0527 32.5702C16.0517 32.8049 16.0514 33.0396 16.0515 33.2742C16.0515 33.5732 16.0493 33.872 16.0464 34.171C16.0446 34.4026 16.0443 34.6341 16.0443 34.8658C16.0441 35.029 16.0423 35.1922 16.0405 35.3554C16.0438 36.0152 16.088 36.6022 16.5563 37.1031C16.9713 37.4881 17.3519 37.6283 17.9199 37.6338C18.0744 37.6358 18.0744 37.6358 18.232 37.6378C18.3439 37.6383 18.4557 37.6388 18.5676 37.6391C18.6834 37.6399 18.7992 37.6406 18.9149 37.6414C19.1575 37.6427 19.4001 37.6434 19.6427 37.6436C19.9515 37.6441 20.2603 37.6472 20.5691 37.6509C20.8083 37.6534 21.0475 37.654 21.2868 37.6541C21.4005 37.6544 21.5142 37.6554 21.628 37.6572C22.3357 37.6671 22.918 37.6224 23.5049 37.1961C23.8941 36.7854 24.0095 36.4095 24.0143 35.8541C24.0154 35.7473 24.0164 35.6404 24.0175 35.5304C24.0182 35.4135 24.0188 35.2966 24.0194 35.1797C24.0199 35.0912 24.0199 35.0912 24.0204 35.0009C24.0221 34.6884 24.0233 34.3758 24.0241 34.0633C24.025 33.7417 24.0278 33.4201 24.0311 33.0986C24.0332 32.8503 24.0339 32.602 24.0342 32.3537C24.0346 32.2352 24.0356 32.1168 24.0371 31.9983C24.0452 31.3335 24.0417 30.8319 23.6698 30.2682C23.5112 30.0968 23.5112 30.0968 23.3348 29.9847C23.2794 29.9457 23.224 29.9067 23.1669 29.8665C22.8604 29.6845 22.6018 29.6793 22.2528 29.6763C22.1477 29.6752 22.0425 29.6742 21.9341 29.6731C21.819 29.6724 21.704 29.6718 21.5889 29.6712C21.5308 29.6709 21.4727 29.6706 21.4129 29.6702C21.1052 29.6685 20.7974 29.6673 20.4897 29.6665C20.1731 29.6656 19.8566 29.6628 19.54 29.6595C19.2955 29.6573 19.051 29.6567 18.8066 29.6564C18.6899 29.656 18.5733 29.655 18.4567 29.6535C17.6854 29.6439 16.9889 29.6523 16.4635 30.2991Z" fill="#FF7705"></path>
  <path d="M17.7161 15.6548C17.7999 15.654 17.7999 15.654 17.8854 15.6531C18.0697 15.6515 18.2541 15.6506 18.4384 15.6497C18.5333 15.6492 18.5333 15.6492 18.6301 15.6487C18.9653 15.647 19.3005 15.6458 19.6357 15.645C19.9801 15.6441 20.3245 15.6413 20.6689 15.638C20.9352 15.6359 21.2015 15.6352 21.4679 15.6349C21.5947 15.6345 21.7216 15.6335 21.8484 15.632C22.888 15.6202 23.7134 15.7668 24.4946 16.4941C25.271 17.3281 25.3705 18.2262 25.366 19.3234C25.3665 19.453 25.367 19.5826 25.3676 19.7122C25.3684 19.9827 25.3681 20.2531 25.3669 20.5236C25.3654 20.8677 25.3674 21.2116 25.3703 21.5556C25.3721 21.823 25.372 22.0903 25.3713 22.3576C25.3712 22.4843 25.3718 22.6111 25.373 22.7378C25.381 23.7157 25.2514 24.6278 24.5419 25.3641C24.4991 25.4037 24.4562 25.4432 24.4121 25.484C24.3516 25.5407 24.3516 25.5407 24.29 25.5987C23.5073 26.2403 22.4605 26.2758 21.4961 26.2672C21.3776 26.2672 21.2591 26.2673 21.1405 26.2675C20.8941 26.2676 20.6477 26.2666 20.4013 26.2647C20.0877 26.2624 19.7742 26.2626 19.4606 26.2637C19.2165 26.2642 18.9725 26.2636 18.7284 26.2626C18.6129 26.2622 18.4973 26.2622 18.3817 26.2625C17.2738 26.2642 16.4201 26.0978 15.5891 25.3342C14.9835 24.6963 14.7545 23.9275 14.7492 23.0612C14.7484 22.9566 14.7476 22.8519 14.7468 22.7441C14.7464 22.6304 14.746 22.5167 14.7457 22.4031C14.7455 22.3453 14.7452 22.2876 14.745 22.2281C14.7438 21.9223 14.743 21.6166 14.7426 21.3108C14.7422 20.997 14.7402 20.6832 14.7379 20.3694C14.7363 20.1264 14.7359 19.8833 14.7358 19.6402C14.7355 19.5247 14.7349 19.4091 14.7338 19.2935C14.7238 18.1593 14.9072 17.2868 15.6852 16.4374C16.2615 15.8851 16.9345 15.6611 17.7161 15.6548ZM16.4687 17.5973C16.4299 17.6421 16.3911 17.687 16.3511 17.7332C16.1156 18.1021 16.0612 18.4744 16.0581 18.9049C16.0571 19.0048 16.056 19.1048 16.0549 19.2077C16.0547 19.3147 16.0545 19.4217 16.0544 19.5319C16.0538 19.644 16.0533 19.7562 16.0527 19.8684C16.0517 20.103 16.0514 20.3377 16.0515 20.5723C16.0515 20.8713 16.0493 21.1702 16.0464 21.4691C16.0446 21.7007 16.0443 21.9323 16.0443 22.1639C16.0441 22.3271 16.0423 22.4903 16.0405 22.6535C16.0438 23.3141 16.0901 23.8966 16.5539 24.4012C16.98 24.8045 17.4235 24.9265 18.0068 24.9306C18.1596 24.9322 18.1596 24.9322 18.3155 24.9338C18.4256 24.934 18.5358 24.9342 18.6459 24.9343C18.7601 24.9349 18.8743 24.9354 18.9885 24.936C19.2274 24.937 19.4663 24.9373 19.7052 24.9372C20.0099 24.9372 20.3145 24.9394 20.6191 24.9423C20.8549 24.9441 21.0907 24.9444 21.3264 24.9444C21.4929 24.9446 21.6594 24.9464 21.8258 24.9482C22.5564 24.9446 23.003 24.8612 23.5719 24.3809C23.9082 23.9773 24.0305 23.6402 24.0343 23.1165C24.0357 23.0081 24.037 22.8996 24.0383 22.7879C24.0384 22.6704 24.0384 22.553 24.0384 22.4356C24.039 22.314 24.0396 22.1924 24.0403 22.0708C24.0414 21.8164 24.0415 21.562 24.041 21.3075C24.0405 20.9829 24.0431 20.6583 24.0464 20.3337C24.0485 20.0826 24.0488 19.8316 24.0485 19.5805C24.0486 19.4609 24.0494 19.3413 24.0509 19.2217C24.0582 18.5564 24.0569 17.9996 23.5873 17.4838C23.1692 17.0867 22.7961 16.9689 22.2252 16.965C22.1181 16.964 22.0111 16.9629 21.9007 16.9618C21.7844 16.9616 21.6682 16.9614 21.5519 16.9613C21.4318 16.9608 21.3117 16.9602 21.1917 16.9596C20.9403 16.9586 20.6889 16.9583 20.4375 16.9584C20.1165 16.9584 19.7955 16.9562 19.4744 16.9534C19.2265 16.9515 18.9786 16.9512 18.7306 16.9513C18.6123 16.9511 18.494 16.9504 18.3757 16.9491C17.5859 16.9413 17.0032 16.9558 16.4687 17.5973Z" fill="#FF7705"></path>
  <path d="M28.361 18.7095C28.4461 18.7089 28.5312 18.7083 28.6189 18.7077C28.7127 18.7075 28.8064 18.7073 28.903 18.7071C29.0507 18.7062 29.0507 18.7062 29.2013 18.7054C29.4717 18.7041 29.7422 18.7031 30.0126 18.7024C30.1815 18.702 30.3504 18.7015 30.5193 18.701C31.0477 18.6994 31.576 18.6982 32.1044 18.6975C32.7145 18.6967 33.3247 18.6946 33.9348 18.6912C34.4063 18.6888 34.8778 18.6875 35.3492 18.6873C35.6309 18.6871 35.9125 18.6863 36.1942 18.6842C36.5084 18.6823 36.8225 18.6823 37.1367 18.6829C37.2301 18.6818 37.3235 18.6808 37.4198 18.6797C37.5053 18.6803 37.5909 18.6808 37.6791 18.6814C37.7534 18.6812 37.8276 18.681 37.9042 18.6808C38.1662 18.7347 38.2644 18.8487 38.4327 19.0516C38.531 19.2693 38.5208 19.3603 38.4584 19.5928C38.3354 19.8214 38.2402 19.9062 38.0203 20.0413C37.825 20.0726 37.825 20.0726 37.6045 20.0732C37.5207 20.074 37.4369 20.0749 37.3505 20.0757C37.259 20.0753 37.1675 20.075 37.0733 20.0746C36.9766 20.0751 36.8798 20.0757 36.7802 20.0763C36.5152 20.0775 36.2502 20.0777 35.9853 20.0772C35.7639 20.077 35.5425 20.0775 35.3212 20.078C34.7989 20.0791 34.2766 20.079 33.7543 20.078C33.2158 20.0771 32.6774 20.0783 32.1389 20.0805C31.6762 20.0823 31.2136 20.0828 30.751 20.0824C30.4748 20.0821 30.1986 20.0823 29.9224 20.0837C29.6144 20.0849 29.3064 20.0841 28.9984 20.0826C28.8614 20.0838 28.8614 20.0838 28.7217 20.0851C28.1055 20.0791 28.1055 20.0791 27.7799 19.8889C27.5833 19.6585 27.5459 19.5186 27.5459 19.2165C27.7486 18.7822 27.8986 18.7117 28.361 18.7095Z" fill="#FF7705"></path>
  <path d="M28.361 31.4102C28.4461 31.4096 28.5312 31.409 28.6189 31.4084C28.7127 31.4082 28.8064 31.408 28.903 31.4077C29.0507 31.4069 29.0507 31.4069 29.2013 31.4061C29.4717 31.4047 29.7422 31.4038 30.0126 31.4031C30.1815 31.4027 30.3504 31.4022 30.5193 31.4017C31.0477 31.4001 31.576 31.3989 32.1044 31.3982C32.7145 31.3974 33.3247 31.3953 33.9348 31.3919C34.4063 31.3894 34.8778 31.3882 35.3492 31.3879C35.6309 31.3877 35.9125 31.387 36.1942 31.3849C36.5084 31.3829 36.8225 31.383 37.1367 31.3836C37.2301 31.3825 37.3235 31.3815 37.4198 31.3804C37.5053 31.3809 37.5909 31.3815 37.6791 31.3821C37.7534 31.3819 37.8276 31.3817 37.9042 31.3815C38.1662 31.4354 38.2644 31.5494 38.4327 31.7522C38.531 31.97 38.5208 32.061 38.4584 32.2935C38.3354 32.522 38.2402 32.6068 38.0203 32.7419C37.825 32.7733 37.825 32.7733 37.6045 32.7739C37.5207 32.7747 37.4369 32.7755 37.3505 32.7764C37.259 32.776 37.1675 32.7756 37.0733 32.7753C36.9766 32.7758 36.8798 32.7764 36.7802 32.777C36.5152 32.7782 36.2502 32.7784 35.9853 32.7779C35.7639 32.7776 35.5425 32.7781 35.3212 32.7786C34.7989 32.7798 34.2766 32.7797 33.7543 32.7787C33.2158 32.7778 32.6774 32.7789 32.1389 32.7812C31.6762 32.783 31.2136 32.7835 30.751 32.783C30.4748 32.7828 30.1986 32.783 29.9224 32.7844C29.6144 32.7856 29.3064 32.7847 28.9984 32.7833C28.8614 32.7845 28.8614 32.7845 28.7217 32.7857C28.1043 32.7798 28.1043 32.7798 27.7799 32.5866C27.5986 32.3777 27.5459 32.2768 27.5459 31.9997C27.7414 31.5156 27.8519 31.4126 28.361 31.4102Z" fill="#FF7705"></path>
  <path d="M23.6488 11.6672C23.7206 11.6665 23.7924 11.6658 23.8663 11.6651C24.1031 11.6632 24.3398 11.6638 24.5766 11.6645C24.7415 11.6641 24.9063 11.6636 25.0711 11.663C25.4164 11.6621 25.7617 11.6625 26.1069 11.6637C26.5493 11.6651 26.9916 11.6632 27.434 11.6603C27.7743 11.6584 28.1146 11.6586 28.4549 11.6593C28.618 11.6593 28.7811 11.6588 28.9442 11.6575C29.1723 11.6561 29.4002 11.6573 29.6282 11.6592C29.6955 11.6582 29.7628 11.6572 29.8321 11.6562C30.1817 11.6621 30.3128 11.6822 30.598 11.9052C30.7623 12.1236 30.7623 12.1236 30.8138 12.371C30.743 12.7108 30.6224 12.8178 30.3499 13.0308C30.109 13.0898 29.8753 13.0864 29.6282 13.0829C29.5564 13.0835 29.4846 13.0841 29.4107 13.0847C29.1739 13.0861 28.9372 13.0845 28.7004 13.0827C28.5355 13.0828 28.3707 13.083 28.2059 13.0833C27.8606 13.0835 27.5153 13.0823 27.1701 13.0801C26.7277 13.0773 26.2854 13.0777 25.843 13.0793C25.5027 13.0802 25.1624 13.0794 24.8221 13.0782C24.659 13.0778 24.4959 13.0778 24.3328 13.0783C24.1047 13.0788 23.8768 13.0771 23.6488 13.0748C23.5478 13.0756 23.5478 13.0756 23.4449 13.0765C23.1185 13.071 22.9619 13.0529 22.6792 12.8734C22.5027 12.6883 22.4583 12.6224 22.4632 12.371C22.4621 12.3166 22.4611 12.2622 22.46 12.2061C22.6426 11.656 23.1646 11.6634 23.6488 11.6672Z" fill="#FF7705"></path>
  <path d="M22.4328 18.9695C22.6586 19.1006 22.676 19.2032 22.7523 19.454C22.7669 19.8174 22.6292 19.9973 22.3886 20.265C22.2284 20.4314 22.0656 20.5945 21.9015 20.7568C21.8418 20.8165 21.7822 20.8761 21.7207 20.9376C21.5949 21.0631 21.4689 21.1884 21.3428 21.3135C21.1492 21.5056 20.9563 21.6984 20.7634 21.8912C20.6411 22.0131 20.5187 22.135 20.3963 22.2569C20.3384 22.3147 20.2805 22.3725 20.2208 22.4321C20.1672 22.4852 20.1135 22.5384 20.0582 22.5931C20.0109 22.6401 19.9637 22.687 19.915 22.7353C19.7485 22.8867 19.6346 22.9271 19.4121 22.9695C18.9824 22.9059 18.7752 22.6502 18.4739 22.3509C18.3875 22.2666 18.301 22.1823 18.2146 22.098C17.4146 21.3115 17.4146 21.3115 17.376 20.9643C17.4086 20.6316 17.4801 20.5083 17.7317 20.2891C17.9997 20.2272 17.9997 20.2272 18.309 20.2891C18.554 20.4576 18.7602 20.6551 18.9688 20.8664C19.0708 20.9659 19.0708 20.9659 19.175 21.0674C19.2158 21.1099 19.2566 21.1525 19.2987 21.1963C19.6275 21.0645 19.8455 20.8342 20.088 20.5851C20.1526 20.5199 20.1526 20.5199 20.2185 20.4533C20.3556 20.3147 20.4921 20.1757 20.6286 20.0365C20.7657 19.8971 20.903 19.7578 21.0404 19.6188C21.1258 19.5324 21.211 19.4457 21.296 19.3588C21.6616 18.9881 21.9106 18.9117 22.4328 18.9695Z" fill="#FF7705"></path>
  <path d="M22.3505 31.6701C22.5464 31.7629 22.5464 31.7629 22.6804 31.9175C22.7679 32.1858 22.7984 32.3361 22.6779 32.5951C22.4509 32.916 22.1806 33.1815 21.9018 33.4575C21.8421 33.5171 21.7824 33.5767 21.7209 33.6382C21.5952 33.7637 21.4692 33.889 21.3431 34.0141C21.1495 34.2062 20.9565 34.399 20.7637 34.5918C20.6414 34.7137 20.519 34.8356 20.3966 34.9575C20.3387 35.0153 20.2808 35.0731 20.2211 35.1327C20.1674 35.1858 20.1138 35.239 20.0585 35.2938C20.0112 35.3407 19.964 35.3876 19.9153 35.4359C19.7488 35.5874 19.6348 35.6277 19.4124 35.6701C18.9827 35.6065 18.7755 35.3508 18.4742 35.0516C18.3878 34.9672 18.3013 34.8829 18.2149 34.7987C17.4178 34.015 17.4178 34.015 17.3711 33.6649C17.402 33.4021 17.402 33.4021 17.5773 33.1649C17.8144 32.9897 17.8144 32.9897 18.0464 32.9278C18.4484 33.0224 18.6815 33.2813 18.9691 33.567C19.0711 33.6665 19.0711 33.6665 19.1752 33.768C19.2161 33.8106 19.2569 33.8531 19.299 33.8969C19.6278 33.7651 19.8458 33.5348 20.0883 33.2857C20.1529 33.2205 20.1529 33.2205 20.2188 33.1539C20.3559 33.0154 20.4924 32.8763 20.6289 32.7371C20.766 32.5977 20.9032 32.4584 21.0407 32.3194C21.1261 32.233 21.2113 32.1463 21.2963 32.0594C21.6559 31.6948 21.8316 31.6343 22.3505 31.6701Z" fill="#FF7705"></path>
  <path d="M28.4405 34.5411C28.5921 34.5391 28.5921 34.5391 28.7467 34.5371C28.8575 34.5361 28.9683 34.5352 29.0791 34.5344C29.1349 34.534 29.1906 34.5335 29.2481 34.5331C29.5432 34.5309 29.8383 34.5293 30.1335 34.5281C30.3776 34.527 30.6216 34.5247 30.8657 34.5213C31.1605 34.5173 31.4553 34.5152 31.7502 34.5146C31.8624 34.5141 31.9747 34.5128 32.0869 34.5109C33.0757 34.4944 33.0757 34.4944 33.3475 34.7504C33.5182 35.0226 33.5505 35.149 33.4848 35.4642C33.3489 35.6784 33.2897 35.7592 33.0724 35.8766C32.6963 35.9372 32.3234 35.9284 31.9432 35.9227C31.8318 35.9223 31.7204 35.9221 31.609 35.9221C31.3759 35.9216 31.143 35.9197 30.91 35.9168C30.6116 35.913 30.3134 35.9118 30.015 35.9115C29.7852 35.9111 29.5553 35.9099 29.3254 35.9083C29.162 35.9072 28.9987 35.9065 28.8353 35.9058C28.6862 35.9039 28.6862 35.9039 28.5342 35.9019C28.4468 35.901 28.3594 35.9001 28.2693 35.8992C28.0376 35.8762 27.9025 35.8433 27.7115 35.7116C27.5605 35.3703 27.5186 35.2099 27.6497 34.8559C27.8774 34.5143 28.0481 34.5457 28.4405 34.5411Z" fill="#FF7705"></path>
  <path d="M28.4399 21.8399C28.5914 21.8379 28.5914 21.8379 28.746 21.8359C28.8568 21.8349 28.9677 21.8341 29.0785 21.8333C29.1342 21.8328 29.19 21.8324 29.2474 21.8319C29.5425 21.8297 29.8377 21.8281 30.1328 21.8269C30.3769 21.8258 30.6209 21.8235 30.865 21.8202C31.1599 21.8161 31.4547 21.8141 31.7495 21.8135C31.8618 21.8129 31.974 21.8117 32.0862 21.8097C33.075 21.7933 33.075 21.7933 33.3474 22.0489C33.5144 22.3167 33.5369 22.4529 33.4841 22.763C33.3373 23.0217 33.2761 23.0798 32.9893 23.1754C32.8309 23.1844 32.6722 23.1885 32.5135 23.19C32.4158 23.1911 32.318 23.1921 32.2174 23.1932C32.0588 23.1941 32.0588 23.1941 31.8971 23.1951C31.7886 23.1957 31.6801 23.1964 31.5683 23.1971C31.3386 23.1983 31.1088 23.1991 30.879 23.1998C30.5851 23.2007 30.2913 23.2035 29.9974 23.2068C29.7166 23.2095 29.4357 23.2098 29.1548 23.2105C28.9968 23.2127 28.9968 23.2127 28.8356 23.2149C28.7374 23.2147 28.6391 23.2144 28.5379 23.2142C28.4517 23.2147 28.3654 23.2151 28.2766 23.2156C27.9798 23.165 27.8425 23.053 27.6284 22.8455C27.5077 22.5589 27.5366 22.4562 27.6542 22.1651C27.8724 21.8094 28.0427 21.8446 28.4399 21.8399Z" fill="#FF7705"></path>
</svg>
