<?xml version="1.0" encoding="UTF-8"?>
<svg xmlns="http://www.w3.org/2000/svg" width="48" height="48" viewBox="0 0 48 48" fill="none">
  <path d="M10.3694 6.00986C10.4553 6.00948 10.5412 6.0091 10.6296 6.00871C10.8659 6.00789 11.1021 6.00799 11.3383 6.00851C11.5939 6.00885 11.8494 6.00796 12.105 6.00725C12.6049 6.00604 13.1048 6.00598 13.6047 6.00635C14.0113 6.00663 14.4178 6.00653 14.8243 6.00616C14.9113 6.00608 14.9113 6.00608 15 6.006C15.1178 6.00589 15.2356 6.00578 15.3535 6.00567C16.4569 6.00471 17.5603 6.00509 18.6638 6.0059C19.6719 6.00659 20.68 6.00569 21.6881 6.00401C22.7248 6.00229 23.7615 6.00162 24.7983 6.00209C25.3797 6.00233 25.9611 6.00218 26.5425 6.00095C27.0374 5.99991 27.5323 5.99987 28.0273 6.00109C28.2795 6.00169 28.5317 6.00185 28.7839 6.00077C29.058 5.99961 29.3321 6.00065 29.6063 6.00189C29.7243 6.00088 29.7243 6.00088 29.8447 5.99985C30.9444 6.01001 31.9074 6.44158 32.7007 7.20579C33.8628 8.41736 33.9963 9.7378 33.9927 11.3461C33.9931 11.5058 33.9936 11.6655 33.9942 11.8252C33.9954 12.2566 33.9953 12.688 33.9949 13.1194C33.9947 13.4801 33.9951 13.8407 33.9956 14.2013C33.9966 15.1004 33.9963 15.9994 33.9955 16.8984C33.9948 17.6785 33.9957 18.4585 33.9974 19.2386C33.9991 20.0411 33.9997 20.8436 33.9993 21.6462C33.999 22.0961 33.9992 22.546 34.0004 22.996C34.0014 23.4186 34.0012 23.8412 33.9999 24.2639C33.9996 24.4189 33.9998 24.5739 34.0006 24.729C34.0015 24.9406 34.0007 25.1522 33.9995 25.3639C34.0001 25.4252 34.0008 25.4865 34.0015 25.5496C33.9966 25.9557 33.9175 26.1912 33.6882 26.526C33.4276 26.7671 33.1586 26.7724 32.8195 26.7612C32.5033 26.7149 32.3163 26.559 32.1229 26.3103C31.9916 26.0243 32 25.7757 32.0024 25.4638C32.0021 25.399 32.0018 25.3343 32.0015 25.2676C32.0007 25.0505 32.0014 24.8335 32.002 24.6164C32.0017 24.4608 32.0014 24.3052 32.0009 24.1495C32.0001 23.8143 31.9999 23.4791 32.0002 23.1438C32.0007 22.6133 31.9996 22.0828 31.9983 21.5523C31.9965 20.8081 31.9954 20.0638 31.9948 19.3196C31.9948 19.2724 31.9948 19.2252 31.9947 19.1765C31.9945 18.8416 31.9943 18.5066 31.994 18.1717C31.9938 17.7899 31.9936 17.4081 31.9933 17.0264C31.9932 16.9559 31.9932 16.9559 31.9932 16.8839C31.9926 16.0983 31.9911 15.3127 31.9892 14.5271C31.9879 14.0002 31.9876 13.4733 31.9881 12.9464C31.9882 12.6178 31.9875 12.2892 31.9865 11.9605C31.9862 11.8087 31.9863 11.6569 31.9868 11.505C32.0181 10.028 32.0181 10.028 31.3371 8.77359C31.3032 8.7347 31.2692 8.69581 31.2342 8.65574C30.74 8.15546 29.9919 8.04125 29.3204 8.03471C29.2089 8.03572 29.2089 8.03572 29.0951 8.03675C29.0136 8.03636 28.932 8.03597 28.848 8.03557C28.6244 8.03479 28.4009 8.03525 28.1773 8.03626C27.9351 8.03704 27.6929 8.0362 27.4507 8.03557C26.9774 8.03459 26.5041 8.03512 26.0308 8.03617C25.4789 8.03736 24.9269 8.03713 24.375 8.03687C23.3898 8.03646 22.4047 8.03745 21.4195 8.03918C20.4649 8.04086 19.5103 8.04136 18.5558 8.04062C17.5145 8.03982 16.4732 8.03969 15.432 8.0407C15.3208 8.0408 15.2097 8.04091 15.0985 8.04102C15.0165 8.0411 15.0165 8.0411 14.9328 8.04118C14.5487 8.04151 14.1645 8.04138 13.7803 8.04108C13.3118 8.04074 12.8433 8.04116 12.3749 8.04255C12.1361 8.04324 11.8974 8.0436 11.6587 8.04305C11.3993 8.04263 11.14 8.04351 10.8806 8.04472C10.806 8.04429 10.7313 8.04387 10.6544 8.04344C9.91411 8.04967 9.22188 8.19093 8.65618 8.70343C8.03166 9.42728 8.00332 10.2568 8.00749 11.1765C8.00725 11.2918 8.00692 11.4071 8.00651 11.5224C8.00565 11.8378 8.00607 12.1533 8.00672 12.4688C8.00719 12.8095 8.00646 13.1503 8.00589 13.491C8.00497 14.158 8.00517 14.825 8.00577 15.492C8.00624 16.0342 8.0063 16.5763 8.00607 17.1185C8.00604 17.1957 8.00601 17.2729 8.00598 17.3524C8.00591 17.5093 8.00584 17.6662 8.00578 17.823C8.00518 19.2933 8.00586 20.7636 8.00698 22.2339C8.00791 23.4951 8.00775 24.7562 8.00679 26.0174C8.00568 27.4824 8.00524 28.9475 8.00588 30.4126C8.00594 30.5689 8.00601 30.7252 8.00607 30.8815C8.00611 30.9583 8.00614 31.0352 8.00617 31.1144C8.00635 31.6559 8.00605 32.1973 8.00556 32.7387C8.00498 33.3986 8.00514 34.0585 8.00624 34.7185C8.00679 35.0551 8.007 35.3917 8.00631 35.7283C8.00569 36.0366 8.00604 36.3449 8.00714 36.6533C8.00737 36.7646 8.00725 36.8759 8.00675 36.9873C8.00308 37.8649 8.08033 38.6064 8.65618 39.2965C9.18511 39.8151 9.78892 39.9604 10.5076 39.9546C10.6053 39.955 10.6053 39.955 10.7051 39.9555C10.922 39.9563 11.1389 39.9557 11.3557 39.955C11.5119 39.9553 11.668 39.9557 11.8241 39.9562C12.1595 39.957 12.4949 39.9571 12.8302 39.9568C13.3605 39.9563 13.8908 39.9575 14.4211 39.9588C15.1644 39.9606 15.9076 39.9617 16.6509 39.9623C16.698 39.9623 16.7451 39.9624 16.7937 39.9624C17.1759 39.9627 17.5582 39.9629 17.9405 39.9632C18.2749 39.9634 18.6094 39.9636 18.9439 39.9639C18.991 39.9639 19.0381 39.964 19.0866 39.964C19.8723 39.9646 20.6579 39.966 21.4435 39.9681C21.9708 39.9693 22.498 39.9696 23.0252 39.9691C23.3529 39.969 23.6806 39.9698 24.0083 39.9708C24.1603 39.971 24.3123 39.971 24.4644 39.9705C24.6718 39.9699 24.8791 39.9706 25.0865 39.9716C25.1468 39.9711 25.207 39.9706 25.2691 39.9701C25.6958 39.9742 25.9877 40.0565 26.3108 40.3578C26.4709 40.6344 26.5187 40.871 26.4967 41.191C26.4148 41.4732 26.311 41.6791 26.0823 41.8635C25.7906 42.0029 25.5353 41.9922 25.2166 41.9901C25.1501 41.9905 25.0835 41.9908 25.0149 41.9912C24.7916 41.9922 24.5683 41.9917 24.3449 41.9912C24.1849 41.9916 24.0248 41.9921 23.8648 41.9927C23.4297 41.9939 22.9947 41.9939 22.5596 41.9935C22.1962 41.9932 21.8328 41.9937 21.4694 41.9941C20.5624 41.9951 19.6555 41.9949 18.7486 41.994C17.9624 41.9933 17.1763 41.9942 16.3901 41.9959C15.5819 41.9976 14.7737 41.9983 13.9655 41.9978C13.5122 41.9976 13.0588 41.9978 12.6055 41.999C12.1787 42.0001 11.7519 41.9998 11.3251 41.9985C11.1689 41.9982 11.0127 41.9984 10.8565 41.9992C10.0551 42.0027 9.33591 42.0049 8.58703 41.6822C8.52361 41.655 8.4602 41.6277 8.39487 41.5997C7.35851 41.1308 6.71023 40.2751 6.24919 39.2474C6.00994 38.5748 6.00872 37.9271 6.01048 37.2214C6.01027 37.1027 6.01 36.9841 6.00968 36.8654C6.00897 36.5403 6.00912 36.2152 6.00941 35.8901C6.00958 35.5392 6.00896 35.1882 6.00844 34.8372C6.00756 34.1499 6.00744 33.4627 6.0076 32.7755C6.00772 32.2168 6.0076 31.6582 6.00731 31.0995C6.00727 31.02 6.00722 30.9404 6.00718 30.8585C6.0071 30.6969 6.00701 30.5353 6.00693 30.3738C6.00618 28.8587 6.00633 27.3437 6.00675 25.8287C6.00711 24.4431 6.00633 23.0575 6.00501 21.6719C6.00367 20.2487 6.0031 18.8255 6.00336 17.4023C6.0035 16.6034 6.00332 15.8046 6.00235 15.0058C6.00152 14.3257 6.00142 13.6457 6.00226 12.9656C6.00267 12.6188 6.00275 12.272 6.00192 11.9251C6.00117 11.6073 6.00138 11.2896 6.00235 10.9718C6.00253 10.8571 6.00237 10.7424 6.00181 10.6277C5.99611 9.3582 6.31608 8.1729 7.20404 7.22991C8.10608 6.36721 9.14642 6.00332 10.3694 6.00986Z" fill="#FF7705"></path>
  <path d="M41.3605 26.1014C41.63 26.2928 41.8253 26.519 41.9719 26.8316C41.9885 26.9896 41.9885 26.9896 41.9936 27.1782C41.9962 27.2395 41.9988 27.3008 42.0015 27.3639C41.9305 27.8617 41.6048 28.2165 41.2814 28.5569C41.2198 28.6231 41.2198 28.6231 41.1569 28.6906C41.0201 28.8374 40.8825 28.9833 40.7448 29.1293C40.6462 29.2347 40.5476 29.3402 40.4491 29.4457C40.1819 29.7314 39.9141 30.0165 39.6461 30.3013C39.3657 30.5997 39.0857 30.8985 38.8057 31.1973C38.3355 31.6988 37.865 32.1998 37.3941 32.7005C36.8497 33.2795 36.306 33.8593 35.7627 34.4396C35.2961 34.9379 34.8291 35.4357 34.3617 35.9332C34.0826 36.2303 33.8037 36.5275 33.5251 36.8252C33.2633 37.1048 33.001 37.3839 32.7383 37.6626C32.642 37.765 32.5458 37.8676 32.4498 37.9704C32.3188 38.1105 32.1873 38.25 32.0555 38.3893C31.9986 38.4507 31.9986 38.4507 31.9405 38.5133C31.6373 38.8316 31.378 38.9785 30.9529 38.9909C30.898 38.9938 30.8432 38.9968 30.7867 38.9998C30.2369 38.8826 29.8295 38.3988 29.4495 37.9905C29.3936 37.9313 29.3377 37.8721 29.2801 37.8111C29.0966 37.6165 28.9139 37.4212 28.7312 37.2257C28.6034 37.0897 28.4756 36.9537 28.3478 36.8177C28.0805 36.5332 27.8136 36.2483 27.547 35.9631C27.2393 35.634 26.9309 35.3057 26.6221 34.9778C26.3241 34.6613 26.0266 34.3442 25.7294 34.0268C25.6033 33.8923 25.477 33.7579 25.3506 33.6236C25.174 33.436 24.9982 33.2478 24.8225 33.0593C24.7441 32.9765 24.7441 32.9765 24.6642 32.892C24.3047 32.5041 24.0223 32.1312 24.0015 31.564C24.0632 31.2039 24.1553 30.9171 24.4221 30.6767C24.6906 30.4819 24.832 30.4369 25.155 30.4225C25.2246 30.418 25.2941 30.4136 25.3658 30.4089C25.8863 30.5122 26.2875 31.0212 26.6485 31.4105C26.6946 31.4596 26.7407 31.5087 26.7882 31.5593C26.9387 31.7198 27.0887 31.8808 27.2387 32.0418C27.3436 32.1539 27.4486 32.266 27.5536 32.3781C27.8286 32.6717 28.1032 32.9658 28.3776 33.2599C28.6583 33.5606 28.9394 33.8608 29.2204 34.1611C29.7708 34.7492 30.3208 35.3379 30.8705 35.9268C31.106 35.8183 31.2583 35.679 31.4382 35.4852C31.4948 35.4247 31.5513 35.3642 31.6095 35.3019C31.7004 35.2036 31.7004 35.2036 31.7931 35.1033C31.8893 35.0001 31.9856 34.897 32.0818 34.7938C32.2166 34.6492 32.3511 34.5042 32.4856 34.3592C32.7196 34.107 32.954 33.8551 33.1886 33.6035C33.3133 33.4698 33.4378 33.3358 33.5621 33.2016C33.6195 33.1399 33.6769 33.0783 33.736 33.0147C33.7857 32.9611 33.8354 32.9076 33.8866 32.8524C34.0295 32.7066 34.1745 32.5685 34.3242 32.431C34.6266 32.1509 34.9091 31.8529 35.1906 31.5494C35.245 31.4911 35.2993 31.4328 35.3553 31.3728C35.4723 31.2473 35.5893 31.1218 35.7061 30.9962C35.8911 30.7974 36.0764 30.5989 36.2618 30.4005C36.7884 29.8367 37.3148 29.2726 37.8405 28.7078C38.1628 28.3615 38.4856 28.0158 38.8087 27.6704C38.9316 27.5388 39.0543 27.4071 39.1768 27.2751C39.3477 27.091 39.5192 26.9077 39.6908 26.7245C39.7665 26.6425 39.7665 26.6425 39.8437 26.5588C39.9141 26.484 39.9141 26.484 39.986 26.4077C40.0264 26.3644 40.0668 26.321 40.1084 26.2763C40.4818 25.9569 40.923 25.9368 41.3605 26.1014Z" fill="#FF7705"></path>
  <path d="M13.0429 15.0264C13.1006 15.0261 13.1583 15.0258 13.2178 15.0255C13.2812 15.0255 13.3446 15.0255 13.4099 15.0255C13.4773 15.0253 13.5446 15.025 13.614 15.0247C13.8408 15.024 14.0675 15.0237 14.2942 15.0235C14.4564 15.023 14.6185 15.0226 14.7807 15.0221C15.2219 15.0209 15.6631 15.0202 16.1044 15.0196C16.3799 15.0193 16.6554 15.0189 16.9309 15.0184C17.6936 15.0173 18.4563 15.0163 19.2191 15.0158C19.417 15.0157 19.6149 15.0155 19.8128 15.0154C19.8866 15.0154 19.8866 15.0154 19.9619 15.0153C20.7589 15.0147 21.5559 15.013 22.353 15.0108C23.1712 15.0085 23.9895 15.0073 24.8078 15.0071C25.2672 15.0069 25.7267 15.0063 26.1861 15.0046C26.6182 15.003 27.0503 15.0027 27.4824 15.0034C27.6411 15.0035 27.7998 15.003 27.9585 15.0021C28.175 15.0009 28.3914 15.0014 28.6079 15.0023C28.7023 15.0011 28.7023 15.0011 28.7986 15C29.1791 15.0038 29.3971 15.0575 29.6985 15.3085C29.935 15.5787 30.0178 15.7809 29.9969 16.1304C29.9466 16.4366 29.8314 16.6191 29.5947 16.8189C29.2756 16.9864 29.0268 16.9843 28.671 16.9815C28.5685 16.9822 28.5685 16.9822 28.4639 16.983C28.2351 16.9844 28.0064 16.9839 27.7776 16.9834C27.6135 16.984 27.4493 16.9847 27.2852 16.9855C26.8859 16.9871 26.4865 16.9875 26.0871 16.9871C25.7625 16.9869 25.4378 16.9871 25.1131 16.9877C25.0669 16.9878 25.0207 16.9879 24.973 16.988C24.8791 16.9881 24.7851 16.9883 24.6912 16.9885C23.8106 16.9899 22.9301 16.9897 22.0495 16.9888C21.2442 16.9881 20.439 16.9897 19.6337 16.9922C18.8065 16.9949 17.9792 16.996 17.152 16.9955C16.6877 16.9952 16.2234 16.9956 15.7591 16.9975C15.3226 16.9992 14.8861 16.999 14.4495 16.9972C14.2893 16.9969 14.1291 16.9972 13.9689 16.9984C13.7501 16.9998 13.5315 16.9987 13.3128 16.997C13.2494 16.998 13.186 16.999 13.1206 17C12.7237 16.9934 12.5158 16.912 12.2281 16.6394C12.0386 16.4224 12.0024 16.203 12 15.9225C12.054 15.6173 12.1554 15.4267 12.3802 15.2104C12.6074 15.0703 12.7803 15.027 13.0429 15.0264Z" fill="#FF7705"></path>
  <path d="M12.9947 21.025C13.0677 21.0245 13.1408 21.024 13.216 21.0235C13.2962 21.0233 13.3764 21.0232 13.459 21.023C13.5434 21.0225 13.6278 21.0221 13.7148 21.0216C13.9949 21.0201 14.2749 21.0194 14.5549 21.0187C14.6514 21.0184 14.7478 21.0182 14.8443 21.0179C15.2974 21.0166 15.7506 21.0156 16.2037 21.015C16.7266 21.0143 17.2494 21.0125 17.7723 21.0097C18.1766 21.0076 18.5809 21.0066 18.9852 21.0064C19.2266 21.0062 19.468 21.0056 19.7094 21.0038C19.9366 21.0022 20.1637 21.0019 20.3909 21.0026C20.5137 21.0027 20.6365 21.0014 20.7594 21C21.2628 21.0033 21.491 21.059 21.8587 21.4289C21.9787 21.6812 22.0062 21.9298 21.9989 22.212C21.882 22.5839 21.6819 22.7985 21.3581 22.9734C21.2436 22.9803 21.1288 22.9827 21.014 22.9831C20.9045 22.9837 20.9045 22.9837 20.7927 22.9843C20.6719 22.9844 20.6719 22.9844 20.5487 22.9845C20.4219 22.9851 20.4219 22.9851 20.2926 22.9856C20.0604 22.9865 19.8281 22.9869 19.5959 22.9873C19.4508 22.9875 19.3058 22.9877 19.1607 22.988C18.7069 22.989 18.2531 22.9897 17.7994 22.9899C17.2754 22.9902 16.7514 22.9915 16.2275 22.9935C15.8226 22.995 15.4177 22.9957 15.0128 22.9957C14.7709 22.9958 14.5291 22.9962 14.2872 22.9975C14.0596 22.9986 13.8321 22.9988 13.6045 22.9981C13.4812 22.9981 13.358 22.999 13.2348 23C13.1244 22.9994 13.1244 22.9994 13.0118 22.9988C12.9161 22.999 12.9161 22.999 12.8185 22.9991C12.5444 22.9589 12.3764 22.8203 12.1787 22.6186C12.0266 22.3486 11.9891 22.1112 12.0025 21.7966C12.0998 21.5035 12.231 21.305 12.4511 21.1044C12.6494 21.033 12.7868 21.026 12.9947 21.025Z" fill="#FF7705"></path>
</svg>
