<?xml version="1.0" encoding="UTF-8"?>
<svg xmlns="http://www.w3.org/2000/svg" width="48" height="48" viewBox="0 0 48 48" fill="none">
  <g clip-path="url(#clip0_3684_560)">
    <path d="M25.4898 1.00703C26.19 1.42454 26.6065 1.96338 26.9298 2.70698C26.9932 2.9714 27.0259 3.21694 27.0513 3.48701C27.0634 3.61356 27.0634 3.61356 27.0758 3.74267C27.0817 3.80694 27.0877 3.87122 27.0938 3.93745C27.1497 3.95664 27.2055 3.97583 27.2631 3.99561C27.9841 4.24344 28.705 4.49174 29.4259 4.74018C29.5417 4.78009 29.6576 4.82 29.7769 4.86111C31.0055 5.28453 32.2333 5.70981 33.456 6.15009C33.5476 6.18304 33.6391 6.21598 33.7335 6.24992C34.1613 6.40407 34.5887 6.55908 35.0158 6.71518C35.1675 6.77011 35.3192 6.82504 35.4709 6.87995C35.5387 6.90506 35.6066 6.93017 35.6764 6.95603C35.9951 7.07086 36.2188 7.12495 36.5626 7.12495C36.6128 7.0592 36.6631 6.99346 36.7149 6.92573C37.2811 6.24035 38.0054 6.00771 38.8697 5.91791C39.7938 5.88385 40.5434 6.19051 41.2332 6.80927C41.8284 7.45229 42.103 8.22248 42.0938 9.0937C42.0427 9.85297 41.8093 10.4584 41.3438 11.0624C41.2075 11.164 41.2075 11.164 41.0684 11.2675C41.0046 11.3236 40.9408 11.3797 40.8751 11.4374C40.9057 11.9877 41.0866 12.4761 41.2739 12.9905C41.3051 13.0779 41.3363 13.1653 41.3685 13.2553C41.4359 13.4439 41.5036 13.6323 41.5716 13.8207C41.7527 14.3228 41.9319 14.8257 42.1114 15.3284C42.1484 15.432 42.1855 15.5355 42.2236 15.6422C42.6265 16.7695 43.0198 17.9001 43.4122 19.0312C43.4781 19.2211 43.544 19.411 43.61 19.6009C43.761 20.0359 43.9118 20.471 44.0626 20.9062C44.1457 20.9178 44.2289 20.9293 44.3145 20.9412C44.4239 20.9571 44.5333 20.973 44.6459 20.9893C44.7542 21.0048 44.8625 21.0202 44.9741 21.0361C45.6717 21.1669 46.2971 21.5404 46.726 22.1143C47.2682 22.9442 47.3487 23.7818 47.2501 24.7499C47.067 25.5538 46.6221 26.158 45.9376 26.6074C45.47 26.8765 45.0493 27.0006 44.513 27.0512C44.4286 27.0593 44.3443 27.0673 44.2573 27.0757C44.1931 27.0816 44.1288 27.0876 44.0626 27.0937C44.0448 27.1454 44.027 27.1971 44.0086 27.2504C43.7769 27.9229 43.5448 28.5952 43.3126 29.2675C43.275 29.3763 43.2375 29.485 43.1988 29.5971C42.7812 30.8063 42.3609 32.0144 41.929 33.2186C41.8941 33.316 41.8593 33.4133 41.8233 33.5137C41.6574 33.9766 41.4907 34.4391 41.3229 34.9014C41.2632 35.0674 41.2035 35.2334 41.1439 35.3994C41.1027 35.5117 41.1027 35.5117 41.0607 35.6263C40.9414 35.9597 40.8751 36.2042 40.8751 36.5624C40.9408 36.6127 41.0066 36.663 41.0743 36.7148C41.7597 37.281 41.9923 38.0053 42.0821 38.8696C42.1162 39.7937 41.8095 40.5433 41.1907 41.2331C40.5477 41.8283 39.7775 42.1029 38.9063 42.0937C38.147 42.0426 37.5416 41.8092 36.9376 41.3437C36.8699 41.2528 36.8022 41.1619 36.7325 41.0683C36.6764 41.0045 36.6203 40.9407 36.5626 40.8749C36.0123 40.9056 35.524 41.0865 35.0095 41.2738C34.9221 41.305 34.8347 41.3362 34.7447 41.3683C34.5562 41.4358 34.3677 41.5035 34.1793 41.5714C33.6772 41.7526 33.1743 41.9318 32.6716 42.1113C32.5681 42.1483 32.4645 42.1853 32.3579 42.2235C31.2305 42.6264 30.0999 43.0197 28.9688 43.4121C28.7789 43.478 28.589 43.5439 28.3992 43.6098C27.9641 43.7608 27.529 43.9117 27.0938 44.0624C27.0823 44.1456 27.0707 44.2287 27.0588 44.3144C27.0429 44.4238 27.027 44.5331 27.0107 44.6458C26.9953 44.7541 26.9798 44.8624 26.9639 44.974C26.8331 45.6716 26.4596 46.2969 25.8857 46.7259C25.0559 47.2681 24.2182 47.3486 23.2501 47.2499C22.4462 47.0669 21.8421 46.622 21.3927 45.9374C21.1236 45.4698 20.9994 45.0492 20.9488 44.5129C20.9407 44.4285 20.9327 44.3441 20.9244 44.2572C20.9184 44.1929 20.9125 44.1287 20.9063 44.0624C20.8546 44.0446 20.8029 44.0268 20.7496 44.0085C20.0771 43.7768 19.4048 43.5447 18.7325 43.3124C18.6237 43.2749 18.515 43.2374 18.403 43.1987C17.1937 42.7811 15.9856 42.3608 14.7814 41.9289C14.6841 41.894 14.5867 41.8591 14.4863 41.8232C14.0235 41.6572 13.5609 41.4905 13.0986 41.3228C12.9327 41.2631 12.7667 41.2034 12.6007 41.1437C12.4883 41.1026 12.4883 41.1026 12.3738 41.0605C12.0403 40.9412 11.7958 40.8749 11.4376 40.8749C11.3873 40.9407 11.337 41.0064 11.2852 41.0742C10.7446 41.7286 10.0372 41.9887 9.20955 42.082C8.25606 42.1188 7.4788 41.8302 6.76728 41.1906C6.1714 40.5484 5.89717 39.777 5.90632 38.9062C5.95745 38.1469 6.19082 37.5415 6.65632 36.9374C6.7472 36.8698 6.83808 36.8021 6.93171 36.7324C6.99552 36.6763 7.05933 36.6202 7.12507 36.5624C7.09447 36.0122 6.91356 35.5238 6.72627 35.0093C6.69506 34.922 6.66384 34.8346 6.63168 34.7446C6.56425 34.556 6.49654 34.3676 6.42858 34.1792C6.24743 33.6771 6.06825 33.1742 5.88874 32.6715C5.83319 32.5162 5.83319 32.5162 5.77652 32.3577C5.37366 31.2304 4.9803 30.0998 4.58796 28.9687C4.52204 28.7788 4.45611 28.5889 4.39019 28.399C4.23918 27.964 4.08832 27.5288 3.93757 27.0937C3.85442 27.0821 3.77127 27.0706 3.6856 27.0587C3.57624 27.0428 3.46687 27.0269 3.3542 27.0106C3.24591 26.9951 3.13762 26.9797 3.02605 26.9638C2.3284 26.833 1.70307 26.4595 1.27412 25.8856C0.731966 25.0557 0.651408 24.2181 0.750073 23.2499C0.933109 22.446 1.378 21.8419 2.06257 21.3925C2.53018 21.1234 2.95082 20.9993 3.48713 20.9487C3.5715 20.9406 3.65587 20.9325 3.74279 20.9242C3.80707 20.9183 3.87135 20.9123 3.93757 20.9062C3.95538 20.8545 3.97319 20.8028 3.99154 20.7495C4.22324 20.077 4.45536 19.4047 4.68757 18.7324C4.74388 18.5692 4.74388 18.5692 4.80132 18.4028C5.21891 17.1936 5.63922 15.9855 6.07112 14.7813C6.106 14.6839 6.14089 14.5866 6.17683 14.4862C6.34278 14.0233 6.50947 13.5607 6.6772 13.0985C6.73691 12.9325 6.7966 12.7665 6.85627 12.6005C6.88373 12.5257 6.91119 12.4508 6.93947 12.3736C7.05878 12.0402 7.12507 11.7957 7.12507 11.4374C7.05933 11.3872 6.99359 11.3369 6.92585 11.2851C6.24047 10.7189 6.00784 9.99464 5.91804 9.13032C5.88397 8.20622 6.19064 7.4566 6.8094 6.76679C7.45241 6.17163 8.22261 5.89704 9.09382 5.9062C9.85309 5.95732 10.4586 6.19069 11.0626 6.6562C11.1641 6.79251 11.1641 6.79251 11.2676 6.93159C11.3237 6.9954 11.3798 7.0592 11.4376 7.12495C11.9878 7.09434 12.4762 6.91343 12.9907 6.72614C13.078 6.69493 13.1654 6.66372 13.2554 6.63156C13.444 6.56412 13.6324 6.49641 13.8208 6.42846C14.323 6.2473 14.8258 6.06813 15.3286 5.88862C15.4839 5.83307 15.4839 5.83307 15.6423 5.7764C16.7696 5.37353 17.9003 4.98017 19.0313 4.58784C19.2212 4.52191 19.4111 4.45599 19.601 4.39006C20.0361 4.23905 20.4712 4.0882 20.9063 3.93745C20.9179 3.85429 20.9294 3.77114 20.9414 3.68547C20.9572 3.57611 20.9731 3.46675 20.9895 3.35407C21.0049 3.24578 21.0203 3.13749 21.0362 3.02592C21.167 2.32827 21.5405 1.70294 22.1145 1.27399C23.0997 0.630301 24.4103 0.489023 25.4898 1.00703ZM22.7462 2.96479C22.5395 3.39395 22.5191 3.75046 22.5938 4.2187C22.8122 4.67231 23.0777 4.93779 23.5313 5.1562C23.9996 5.23093 24.3561 5.21048 24.7852 5.00385C25.1212 4.69985 25.3684 4.45637 25.4422 3.99384C25.4662 3.46099 25.4003 3.12657 25.0313 2.7187C24.6235 2.34967 24.289 2.2838 23.7562 2.30781C23.2936 2.38163 23.0502 2.62878 22.7462 2.96479ZM20.714 5.68249C20.619 5.71583 20.524 5.74918 20.4262 5.78354C20.3231 5.82039 20.22 5.85724 20.1138 5.89521C20.0058 5.93332 19.8977 5.97143 19.7864 6.01069C19.4935 6.11408 19.2008 6.21798 18.9082 6.32211C18.6057 6.42964 18.303 6.53655 18.0003 6.64349C17.6341 6.77286 17.2681 6.90227 16.9021 7.03196C16.155 7.29664 15.4073 7.55933 14.6588 7.81965C14.5703 7.85043 14.4819 7.88121 14.3908 7.91292C14.0601 8.02798 13.7295 8.143 13.3987 8.25762C13.1775 8.33429 12.9565 8.41128 12.7354 8.48835C12.6708 8.51062 12.6063 8.5329 12.5397 8.55585C12.2468 8.64362 12.2468 8.64362 12.0001 8.81245C11.9648 9.00511 11.9344 9.19867 11.9063 9.39252C11.8132 10.029 11.8132 10.029 11.7339 10.2994C11.6875 10.6073 11.6875 10.6073 11.9061 10.8555C11.9962 10.9455 12.0881 11.0337 12.1813 11.1203C12.2293 11.1674 12.2773 11.2144 12.3268 11.2629C12.4801 11.4126 12.6355 11.5597 12.7911 11.707C12.8955 11.8081 12.9999 11.9095 13.104 12.0109C13.3594 12.2591 13.6166 12.505 13.8751 12.7499C14.1783 12.6058 14.4345 12.4306 14.7019 12.2269C17.2795 10.2661 20.0539 9.37596 23.2501 8.99995C23.2501 8.22651 23.2501 7.45307 23.2501 6.6562C22.8324 6.47057 22.8324 6.47057 22.4063 6.2812C22.1088 6.10487 21.8938 5.97545 21.6915 5.69526C21.6277 5.61405 21.6277 5.61405 21.5626 5.5312C21.2141 5.5312 21.0342 5.56897 20.714 5.68249ZM26.2208 5.73627C26.1376 5.82329 26.0545 5.9103 25.9688 5.99995C25.5648 6.3338 25.2638 6.48495 24.7501 6.6562C24.7501 7.42963 24.7501 8.20307 24.7501 8.99995C25.1271 9.05022 25.5042 9.10049 25.8926 9.15229C28.9778 9.59741 31.5384 10.7782 33.9376 12.7499C34.4427 12.5339 34.8035 12.1311 35.1923 11.7535C35.2854 11.6639 35.3797 11.5755 35.4749 11.4882C36.0407 11.0115 36.0407 11.0115 36.3007 10.3598C36.2512 10.1433 36.1808 9.95384 36.0938 9.74995C36.0517 9.43802 36.0266 9.126 36.0001 8.81245C35.2859 8.51784 34.5625 8.25652 33.8328 8.00312C33.7143 7.96178 33.5959 7.92042 33.4774 7.87905C33.1662 7.77042 32.8549 7.66203 32.5437 7.5537C32.0536 7.38314 31.5636 7.21227 31.0737 7.0413C30.8918 6.97787 30.7099 6.91454 30.528 6.85122C29.9117 6.6364 29.2966 6.41864 28.6831 6.19596C28.5613 6.1519 28.4396 6.10784 28.3178 6.06378C28.0885 5.9806 27.8594 5.89692 27.6304 5.81267C27.5283 5.77563 27.4261 5.73859 27.3208 5.70043C27.2314 5.66764 27.142 5.63486 27.0498 5.60108C26.6816 5.49261 26.5069 5.46565 26.2208 5.73627ZM7.74617 8.21479C7.53953 8.64395 7.51909 9.00046 7.59382 9.4687C7.81223 9.92231 8.0777 10.1878 8.53132 10.4062C8.99955 10.4809 9.35607 10.4605 9.78523 10.2539C10.1212 9.94985 10.3684 9.70638 10.4422 9.24384C10.4662 8.71099 10.4003 8.37657 10.0313 7.9687C9.62345 7.59967 9.28903 7.5338 8.75618 7.55781C8.29364 7.63163 8.05017 7.87878 7.74617 8.21479ZM37.7462 8.21479C37.5395 8.64395 37.5191 9.00046 37.5938 9.4687C37.8122 9.92231 38.0777 10.1878 38.5313 10.4062C38.9996 10.4809 39.3561 10.4605 39.7852 10.2539C40.1212 9.94985 40.3684 9.70638 40.4422 9.24384C40.4662 8.71099 40.4003 8.37657 40.0313 7.9687C39.6235 7.59967 39.289 7.5338 38.7562 7.55781C38.2936 7.63163 38.0502 7.87878 37.7462 8.21479ZM15.4688 13.5937C15.3901 13.6622 15.3115 13.7307 15.2304 13.8013C14.9943 14.0103 14.7621 14.2227 14.5313 14.4374C14.4678 14.4959 14.4042 14.5544 14.3387 14.6147C11.8094 17.0323 10.6274 20.4765 10.5001 23.9062C10.436 27.5319 11.9875 30.842 14.4083 33.4599C16.4269 35.549 19.0043 36.7938 21.8438 37.3124C21.9832 37.3382 21.9832 37.3382 22.1254 37.3644C25.576 37.8773 29.166 36.909 31.9723 34.8625C34.3557 33.0658 36.1346 30.5638 36.9669 27.6914C37.001 27.5741 37.001 27.5741 37.0358 27.4544C37.3486 26.3172 37.442 25.2001 37.4356 24.0234C37.4354 23.9574 37.4353 23.8915 37.4351 23.8235C37.4307 22.8241 37.3786 21.8777 37.1251 20.9062C37.109 20.842 37.0929 20.7778 37.0763 20.7116C36.5072 18.4708 35.4257 16.4988 33.8438 14.8124C33.8008 14.766 33.7578 14.7195 33.7135 14.6716C31.2452 12.0238 27.8569 10.6862 24.2813 10.4999C21.1462 10.4101 17.8284 11.5112 15.4688 13.5937ZM10.0723 11.8066C9.65494 11.9356 9.24621 11.9654 8.81257 11.9999C8.51797 12.7141 8.25664 13.4375 8.00325 14.1672C7.96191 14.2857 7.92055 14.4042 7.87917 14.5226C7.77054 14.8338 7.66215 15.1451 7.55383 15.4563C7.38327 15.9464 7.21238 16.4364 7.0414 16.9263C6.97798 17.1082 6.91476 17.2902 6.85155 17.4722C6.6373 18.0881 6.41872 18.702 6.19279 19.3136C6.14828 19.435 6.1038 19.5563 6.05933 19.6777C5.97539 19.9059 5.89052 20.1338 5.80456 20.3613C5.76722 20.4632 5.72988 20.5651 5.6914 20.67C5.65812 20.759 5.62485 20.8479 5.59056 20.9396C5.52351 21.2201 5.53617 21.3831 5.62507 21.6562C5.77716 21.8165 5.9339 21.9725 6.09382 22.1249C6.38183 22.5117 6.49893 22.7778 6.65632 23.2499C7.42976 23.2499 8.2032 23.2499 9.00007 23.2499C9.05035 22.8729 9.10062 22.4958 9.15242 22.1074C9.59754 19.0222 10.7783 16.4616 12.7501 14.0624C12.5359 13.5513 12.109 13.2026 11.7227 12.818C11.584 12.6796 11.4466 12.54 11.3092 12.4002C11.2221 12.3131 11.1351 12.2259 11.0454 12.1362C10.9655 12.0561 10.8857 11.976 10.8035 11.8935C10.5266 11.6627 10.4039 11.6853 10.0723 11.8066ZM37.1445 11.906C37.0546 11.9961 36.9664 12.0879 36.8797 12.1812C36.8326 12.2292 36.7856 12.2772 36.7371 12.3267C36.5875 12.4799 36.4403 12.6354 36.293 12.791C36.1919 12.8954 36.0906 12.9997 35.9891 13.1039C35.741 13.3592 35.495 13.6165 35.2501 13.8749C35.3942 14.1782 35.5694 14.4343 35.7731 14.7018C37.734 17.2794 38.6241 20.0538 39.0001 23.2499C39.7735 23.2499 40.5469 23.2499 41.3438 23.2499C41.4676 22.9715 41.5913 22.6931 41.7188 22.4062C41.9317 22.0469 42.1161 21.7892 42.4688 21.5624C42.4124 21.0106 42.2593 20.5293 42.07 20.0093C42.0232 19.8783 42.0232 19.8783 41.9754 19.7446C41.8729 19.4578 41.7695 19.1713 41.6661 18.8847C41.5212 18.4803 41.3766 18.0757 41.2321 17.6711C41.1951 17.5675 41.158 17.464 41.1198 17.3573C40.8578 16.6239 40.6 15.889 40.3452 15.153C40.3106 15.0532 40.276 14.9534 40.2404 14.8506C40.1062 14.4628 39.9722 14.0751 39.8386 13.6872C39.7468 13.4207 39.6547 13.1544 39.5626 12.888C39.5353 12.8084 39.508 12.7289 39.4799 12.6469C39.3811 12.2966 39.3811 12.2966 39.1876 11.9999C38.9949 11.9647 38.8013 11.9342 38.6075 11.9062C37.971 11.8131 37.971 11.8131 37.7006 11.7337C37.3927 11.6874 37.3927 11.6874 37.1445 11.906ZM2.49617 23.2148C2.28953 23.6439 2.26909 24.0005 2.34382 24.4687C2.56223 24.9223 2.82771 25.1878 3.28132 25.4062C3.74955 25.4809 4.10607 25.4605 4.53523 25.2539C4.87124 24.9498 5.11839 24.7064 5.19221 24.2438C5.21621 23.711 5.15035 23.3766 4.78132 22.9687C4.37345 22.5997 4.03903 22.5338 3.50618 22.5578C3.04364 22.6316 2.80017 22.8788 2.49617 23.2148ZM42.9962 23.2148C42.7895 23.6439 42.7691 24.0005 42.8438 24.4687C43.0622 24.9223 43.3277 25.1878 43.7813 25.4062C44.2496 25.4809 44.6061 25.4605 45.0352 25.2539C45.3712 24.9498 45.6184 24.7064 45.6922 24.2438C45.7162 23.711 45.6503 23.3766 45.2813 22.9687C44.8735 22.5997 44.539 22.5338 44.0062 22.5578C43.5436 22.6316 43.3002 22.8788 42.9962 23.2148ZM6.65632 24.7499C6.53257 25.0284 6.40882 25.3068 6.28132 25.5937C6.06842 25.953 5.88407 26.2107 5.53132 26.4374C5.58773 26.9893 5.74085 27.4706 5.93013 27.9905C5.96134 28.0779 5.99254 28.1653 6.0247 28.2553C6.12727 28.5421 6.23067 28.8286 6.33406 29.1152C6.47899 29.5196 6.6235 29.9242 6.76802 30.3288C6.80507 30.4323 6.84212 30.5359 6.8803 30.6426C7.14238 31.376 7.40009 32.1109 7.65498 32.8469C7.68955 32.9467 7.72413 33.0465 7.75975 33.1493C7.89393 33.537 8.02795 33.9248 8.16154 34.3127C8.25334 34.5792 8.34543 34.8455 8.43757 35.1119C8.46484 35.1915 8.49211 35.271 8.52021 35.353C8.61908 35.7033 8.61908 35.7033 8.81257 35.9999C9.11497 36.0508 9.41835 36.0905 9.72224 36.1314C10.0313 36.1874 10.0313 36.1874 10.5001 36.3749C11.2426 35.6324 11.9851 34.8899 12.7501 34.1249C12.5964 33.8176 12.4337 33.5695 12.2271 33.2981C10.2662 30.7205 9.37609 27.9461 9.00007 24.7499C8.22663 24.7499 7.4532 24.7499 6.65632 24.7499ZM39.0001 24.7499C38.9498 25.127 38.8995 25.504 38.8477 25.8925C38.4026 28.9777 37.2218 31.5383 35.2501 33.9374C35.4662 34.4426 35.8689 34.8034 36.2465 35.1922C36.3361 35.2853 36.4245 35.3795 36.5118 35.4748C36.9885 36.0406 36.9885 36.0406 37.6403 36.3006C37.8568 36.2511 38.0462 36.1807 38.2501 36.0937C38.4983 36.0602 38.7447 36.0374 38.9942 36.0163C39.058 36.0109 39.1218 36.0055 39.1876 35.9999C39.4822 35.2858 39.7435 34.5624 39.9969 33.8327C40.0382 33.7142 40.0796 33.5957 40.121 33.4773C40.2296 33.1661 40.338 32.8548 40.4463 32.5435C40.6169 32.0535 40.7878 31.5635 40.9587 31.0736C41.0222 30.8917 41.0854 30.7097 41.1486 30.5277C41.3628 29.9118 41.5814 29.2979 41.8074 28.6863C41.8519 28.5649 41.8963 28.4436 41.9408 28.3222C42.0247 28.094 42.1096 27.8661 42.1956 27.6385C42.2516 27.4857 42.2516 27.4857 42.3087 27.3299C42.342 27.2409 42.3753 27.152 42.4096 27.0603C42.4766 26.7798 42.464 26.6168 42.3751 26.3437C42.223 26.1834 42.0662 26.0274 41.9063 25.8749C41.6183 25.4882 41.5012 25.2221 41.3438 24.7499C40.5704 24.7499 39.7969 24.7499 39.0001 24.7499ZM12.9294 36.1248C12.8259 36.2248 12.7213 36.3236 12.6156 36.4213C11.9995 36.9443 11.9995 36.9443 11.6928 37.6468C11.7425 37.8639 11.8142 38.0478 11.9063 38.2499C11.9484 38.5619 11.9736 38.8739 12.0001 39.1874C12.8998 39.5678 13.8255 39.8764 14.7481 40.1953C15.8866 40.5891 17.0234 40.9866 18.1557 41.3979C18.3492 41.4679 18.5427 41.5379 18.7362 41.6078C19.0175 41.7095 19.2985 41.8116 19.5792 41.9149C19.8393 42.0107 20.0999 42.1051 20.3607 42.1992C20.4377 42.228 20.5148 42.2568 20.5942 42.2865C21.1182 42.4766 21.1182 42.4766 21.6563 42.3749C21.8166 42.2229 21.9726 42.0661 22.1251 41.9062C22.5118 41.6182 22.7779 41.5011 23.2501 41.3437C23.2501 40.5703 23.2501 39.7968 23.2501 38.9999C22.8672 38.9477 22.4844 38.8955 22.0899 38.8417C19.1496 38.4137 16.565 37.3216 14.2772 35.4129C13.7669 35.0255 13.2994 35.7644 12.9294 36.1248ZM33.3458 35.7187C30.8102 37.7493 27.928 38.6129 24.7501 38.9999C24.7501 39.7734 24.7501 40.5468 24.7501 41.3437C25.0285 41.4674 25.3069 41.5912 25.5938 41.7187C25.9531 41.9316 26.2108 42.116 26.4376 42.4687C26.9894 42.4123 27.4707 42.2592 27.9907 42.0699C28.1217 42.0231 28.1217 42.0231 28.2554 41.9753C28.5422 41.8727 28.8288 41.7693 29.1153 41.666C29.5197 41.521 29.9243 41.3765 30.3289 41.232C30.4325 41.1949 30.536 41.1579 30.6427 41.1197C31.3762 40.8576 32.111 40.5999 32.847 40.345C32.9468 40.3105 33.0466 40.2759 33.1495 40.2403C33.5372 40.1061 33.9249 39.9721 34.3128 39.8385C34.5793 39.7467 34.8457 39.6546 35.112 39.5624C35.1916 39.5352 35.2711 39.5079 35.3531 39.4798C35.7034 39.3809 35.7034 39.3809 36.0001 39.1874C36.0509 38.885 36.0906 38.5817 36.1315 38.2778C36.1831 37.9935 36.2639 37.7648 36.3751 37.4999C36.0587 37.1789 35.7417 36.8585 35.4241 36.5386C35.316 36.4297 35.2082 36.3205 35.1005 36.2113C34.946 36.0544 34.7908 35.8982 34.6356 35.7421C34.5873 35.6929 34.5391 35.6437 34.4894 35.593C34.3714 35.475 34.2486 35.362 34.1251 35.2499C33.8031 35.2499 33.5859 35.5214 33.3458 35.7187ZM7.74617 38.2148C7.53953 38.6439 7.51909 39.0005 7.59382 39.4687C7.81223 39.9223 8.0777 40.1878 8.53132 40.4062C8.99955 40.4809 9.35607 40.4605 9.78523 40.2539C10.1212 39.9498 10.3684 39.7064 10.4422 39.2438C10.4662 38.711 10.4003 38.3766 10.0313 37.9687C9.62345 37.5997 9.28903 37.5338 8.75618 37.5578C8.29364 37.6316 8.05017 37.8788 7.74617 38.2148ZM37.7462 38.2148C37.5395 38.6439 37.5191 39.0005 37.5938 39.4687C37.8122 39.9223 38.0777 40.1878 38.5313 40.4062C38.9996 40.4809 39.3561 40.4605 39.7852 40.2539C40.1212 39.9498 40.3684 39.7064 40.4422 39.2438C40.4662 38.711 40.4003 38.3766 40.0313 37.9687C39.6235 37.5997 39.289 37.5338 38.7562 37.5578C38.2936 37.6316 38.0502 37.8788 37.7462 38.2148ZM22.7462 43.4648C22.5395 43.8939 22.5191 44.2505 22.5938 44.7187C22.8122 45.1723 23.0777 45.4378 23.5313 45.6562C23.9996 45.7309 24.3561 45.7105 24.7852 45.5039C25.1212 45.1998 25.3684 44.9564 25.4422 44.4938C25.4662 43.961 25.4003 43.6266 25.0313 43.2187C24.6235 42.8497 24.289 42.7838 23.7562 42.8078C23.2936 42.8816 23.0502 43.1288 22.7462 43.4648Z" fill="#FCFCFC"></path>
    <path d="M21.837 23.2094C22.0095 23.2089 22.1821 23.2084 22.3546 23.2079C22.715 23.207 23.0754 23.2073 23.4358 23.2082C23.895 23.2093 24.3541 23.2074 24.8132 23.2046C25.1692 23.2029 25.5252 23.2029 25.8812 23.2035C26.0503 23.2035 26.2195 23.2029 26.3886 23.2018C27.9842 23.1923 29.149 23.4763 30.3514 24.5918C31.2809 25.5739 31.544 26.6808 31.5405 27.9983C31.541 28.1085 31.5415 28.2186 31.542 28.3321C31.5426 28.5633 31.5425 28.7944 31.5417 29.0256C31.5409 29.3799 31.5436 29.734 31.5466 30.0883C31.5467 30.3135 31.5466 30.5387 31.5464 30.7639C31.5474 30.8698 31.5485 30.9756 31.5496 31.0847C31.5487 31.183 31.5478 31.2813 31.5469 31.3826C31.5469 31.4689 31.5469 31.5551 31.5468 31.644C31.4835 31.9552 31.3719 32.0533 31.1249 32.25C30.8572 32.2972 30.8572 32.2972 30.5413 32.2976C30.4214 32.2987 30.3016 32.2997 30.178 32.3008C30.0454 32.3001 29.9128 32.2993 29.7801 32.2985C29.6403 32.299 29.5005 32.2997 29.3606 32.3005C28.981 32.3022 28.6013 32.3016 28.2217 32.3004C27.8245 32.2994 27.4273 32.3003 27.0301 32.3009C26.363 32.3016 25.696 32.3007 25.0289 32.2989C24.2576 32.2969 23.4863 32.2975 22.7149 32.2996C22.0528 32.3013 21.3907 32.3015 20.7286 32.3005C20.3331 32.3 19.9376 32.2999 19.5421 32.3011C19.1703 32.3022 18.7985 32.3015 18.4266 32.2993C18.2901 32.2988 18.1536 32.2989 18.0171 32.2998C17.8309 32.3008 17.6446 32.2993 17.4584 32.2976C17.302 32.2974 17.302 32.2974 17.1425 32.2972C16.813 32.2391 16.7023 32.1365 16.4999 31.875C16.4522 31.6453 16.4522 31.6453 16.4513 31.3856C16.4502 31.2879 16.449 31.1902 16.4478 31.0895C16.4485 30.9843 16.4493 30.879 16.4501 30.7705C16.4497 30.6614 16.4493 30.5522 16.449 30.4397C16.4487 30.2083 16.4494 29.977 16.451 29.7456C16.453 29.3945 16.451 29.0437 16.4486 28.6926C16.4488 28.4673 16.4493 28.242 16.4501 28.0166C16.4493 27.9129 16.4485 27.8091 16.4478 27.7022C16.4635 26.3735 16.9462 25.3636 17.8417 24.3984C19.016 23.287 20.3069 23.206 21.837 23.2094ZM18.7147 25.8047C17.6372 27.1844 17.9999 29.1608 17.9999 30.75C21.9599 30.75 25.9199 30.75 29.9999 30.75C30.186 27.9723 30.186 27.9723 29.1001 25.611C28.3541 24.9073 27.3846 24.7399 26.3909 24.7364C26.2158 24.7355 26.2158 24.7355 26.0372 24.7346C25.9113 24.7344 25.7854 24.7343 25.6595 24.7343C25.5284 24.734 25.3973 24.7336 25.2662 24.7333C24.992 24.7328 24.7177 24.7326 24.4435 24.7326C24.0948 24.7326 23.7462 24.7314 23.3975 24.7298C23.1267 24.7287 22.856 24.7285 22.5852 24.7286C22.4568 24.7285 22.3284 24.7281 22.2 24.7273C20.8745 24.7205 19.6739 24.7878 18.7147 25.8047Z" fill="#FCFCFC"></path>
    <path d="M26.5607 14.1856C27.5206 14.9105 28.3163 15.8353 28.5001 17.0625C28.6241 18.5761 28.4594 19.7963 27.4689 21C26.7544 21.8277 25.8288 22.4103 24.7217 22.5218C23.1614 22.6186 22.0263 22.3338 20.8159 21.3135C20.0069 20.5629 19.5313 19.5986 19.4704 18.501C19.418 16.9366 19.7616 15.8128 20.8419 14.6485C22.3696 13.2026 24.8184 13.0293 26.5607 14.1856ZM21.6564 16.125C21.0976 16.9479 21.019 17.6682 21.0939 18.6563C21.2728 19.4455 21.7071 20.0799 22.3913 20.5119C23.2968 20.9926 24.0371 21.1116 25.0314 20.8125C25.8517 20.4586 26.4272 19.8747 26.8067 19.0664C27.0573 18.2704 27.0198 17.3951 26.672 16.6407C26.2792 15.9562 25.7391 15.4505 25.0013 15.1557C23.7357 14.8439 22.519 15.1435 21.6564 16.125Z" fill="#FCFCFC"></path>
  </g>
  <defs>
    <clipPath id="clip0_3684_560">
      <rect width="48" height="48" fill="white"></rect>
    </clipPath>
  </defs>
</svg>
