<?xml version="1.0" encoding="UTF-8"?>
<svg xmlns="http://www.w3.org/2000/svg" width="48" height="48" viewBox="0 0 48 48" fill="none">
  <path d="M12.6448 7.93945C12.7319 7.93794 12.819 7.93643 12.9088 7.93488C14.0968 7.93405 15.0849 8.35104 15.9612 9.15234C16.6771 9.91031 17.0357 10.8952 17.0979 11.9238C17.0572 12.3374 16.9516 12.5271 16.6877 12.8438C16.3905 13.0419 16.2158 13.0591 15.8656 13.0745C15.5359 13.0063 15.3485 12.8753 15.094 12.6563C15.0083 12.4018 14.9548 12.1903 14.9123 11.9297C14.7779 11.2826 14.6123 10.8176 14.0627 10.4063C13.4582 10.011 12.693 10.056 12.0002 10.125C11.4156 10.2599 11.0753 10.5346 10.7301 11.0145C10.4628 11.477 10.3429 11.9866 10.2054 12.4995C10.1708 12.6241 10.1359 12.7486 10.101 12.873C10.0075 13.2075 9.91594 13.5425 9.82475 13.8775C9.72918 14.2273 9.63173 14.5765 9.53441 14.9258C9.39383 15.4308 9.25378 15.936 9.11441 16.4413C8.86064 17.3613 8.60248 18.2799 8.34178 19.1979C8.32308 19.2637 8.30438 19.3296 8.28511 19.3974C8.19372 19.7192 8.10225 20.0409 8.01074 20.3627C7.84168 20.9572 7.67337 21.5519 7.50498 22.1466C7.44899 22.3443 7.393 22.5419 7.33701 22.7396C7.29766 22.8785 7.25832 23.0174 7.21897 23.1563C7.50825 23.0889 7.732 22.9954 7.99241 22.8516C10.1534 21.7536 12.6327 21.6768 14.9241 22.3828C17.3467 23.2611 19.1586 24.9368 20.2795 27.2344C20.6782 28.1425 20.8907 29.0143 21.0002 30C22.9802 30 24.9602 30 27.0002 30C27.0621 29.5978 27.124 29.1956 27.1877 28.7813C27.5363 27.3897 28.1886 26.0937 29.1565 25.0313C29.2792 24.8955 29.2792 24.8955 29.4044 24.757C30.7797 23.2851 32.5173 22.3813 34.5002 22.0313C34.6182 22.01 34.7361 21.9887 34.8576 21.9668C36.7098 21.7847 38.4998 22.0906 40.1593 22.9351C40.2194 22.9654 40.2796 22.9958 40.3415 23.027C40.4883 23.1011 40.6349 23.1755 40.7815 23.25C40.7515 23.1434 40.7216 23.0367 40.6907 22.9268C40.5696 22.4952 40.4486 22.0635 40.3276 21.6318C40.2708 21.4292 40.2139 21.2266 40.157 21.0239C39.7816 19.6863 39.4092 18.3478 39.0409 17.0082C38.9145 16.549 38.7878 16.0899 38.6612 15.6308C38.5362 15.1775 38.4118 14.7241 38.2877 14.2705C38.2092 13.9837 38.13 13.697 38.0507 13.4103C38.0139 13.2766 37.9773 13.1429 37.9409 13.009C37.5959 11.5289 37.5959 11.5289 36.6788 10.3887C35.9572 10.0045 35.0503 9.987 34.2717 10.2188C33.8289 10.4283 33.5196 10.7295 33.2815 11.1563C33.1808 11.4744 33.1095 11.7986 33.0558 12.1279C32.9875 12.4942 32.9248 12.6406 32.6377 12.8862C32.2274 13.0888 32.0467 13.0887 31.594 13.0313C31.2716 12.835 31.0491 12.6458 30.9377 12.2813C30.8361 11.1427 31.2495 10.152 31.9386 9.26697C32.5804 8.55096 33.5745 8.01774 34.5404 7.95365C34.7985 7.94935 35.0565 7.9467 35.3147 7.94531C35.4031 7.94338 35.4915 7.94145 35.5826 7.93945C36.7434 7.93307 37.7242 8.32325 38.5959 9.09375C39.5858 10.1974 39.8756 11.7681 40.2541 13.1543C40.321 13.3952 40.388 13.636 40.4551 13.8767C40.5849 14.3426 40.7142 14.8085 40.843 15.2746C41.2743 16.8357 41.7138 18.3946 42.1522 19.9538C42.3318 20.5925 42.511 21.2313 42.6899 21.8702C43.279 23.9741 43.279 23.9741 43.8789 26.075C43.9034 26.1607 43.9279 26.2465 43.9531 26.3349C44.0956 26.8244 44.2647 27.2912 44.4612 27.7617C45.358 29.9463 45.2349 32.4561 44.3615 34.6289C43.2999 36.945 41.4358 38.645 39.0688 39.5672C36.782 40.4015 34.2501 40.1963 32.0627 39.1875C31.3727 38.8552 30.7721 38.4626 30.1877 37.9688C30.1115 37.9062 30.0352 37.8435 29.9566 37.7791C29.3396 37.2523 28.865 36.6674 28.4065 36C28.3555 35.9282 28.3045 35.8564 28.2519 35.7825C27.9227 35.2826 27.7044 34.7465 27.4924 34.1895C27.4648 34.1184 27.4373 34.0473 27.4089 33.9741C27.1719 33.3232 27.1106 32.7802 27.0002 32.0625C25.0202 32.0625 23.0402 32.0625 21.0002 32.0625C20.9074 32.5575 20.8146 33.0525 20.719 33.5625C20.0849 35.8381 18.5412 37.7592 16.4923 38.9236C14.3533 40.0681 11.8205 40.4054 9.46897 39.75C8.263 39.3589 7.1573 38.7883 6.18772 37.9688C6.07334 37.8748 6.07334 37.8748 5.95664 37.7791C4.36514 36.4205 3.2825 34.4215 3.00022 32.3438C2.88662 30.7131 2.93221 29.1518 3.57877 27.6361C4.14068 26.296 4.48909 24.8775 4.8741 23.4792C5.01228 22.9774 5.15192 22.476 5.29179 21.9746C5.64319 20.7141 5.99303 19.4532 6.3422 18.1922C6.62224 17.1808 6.90294 16.1697 7.18553 15.1591C7.33145 14.6371 7.47614 14.1147 7.61989 13.5921C7.71007 13.2653 7.80138 12.9389 7.893 12.6125C7.9349 12.4624 7.97635 12.3122 8.01728 12.1618C8.43175 10.6411 8.92475 9.23075 10.3596 8.40235C11.1061 7.99989 11.8135 7.9366 12.6448 7.93945ZM7.19297 25.9948C7.10874 26.079 7.02451 26.1632 6.93772 26.25C6.87379 26.3139 6.80986 26.3779 6.744 26.4437C5.46431 27.815 5.00689 29.5742 5.03745 31.4044C5.10808 33.2312 5.99091 34.89 7.28233 36.1512C8.24932 37.0136 9.412 37.6233 10.6877 37.875C10.8414 37.9069 10.8414 37.9069 10.9983 37.9395C13.0228 38.111 14.818 37.6679 16.4065 36.375C16.4796 36.3183 16.5527 36.2616 16.628 36.2032C17.9712 35.1014 18.7877 33.3734 18.9595 31.6578C19.0787 29.8313 18.6208 28.064 17.4315 26.6389C16.2857 25.3658 14.8735 24.327 13.1252 24.0938C13.0363 24.0813 12.9473 24.0689 12.8557 24.056C10.7386 23.8251 8.7177 24.5136 7.19297 25.9948ZM31.193 25.9948C31.1087 26.079 31.0245 26.1632 30.9377 26.25C30.8738 26.3139 30.8099 26.3779 30.744 26.4437C29.4643 27.815 29.0069 29.5742 29.0375 31.4044C29.1081 33.2312 29.9909 34.89 31.2823 36.1512C32.2493 37.0136 33.412 37.6233 34.6877 37.875C34.8414 37.9069 34.8414 37.9069 34.9983 37.9395C37.0228 38.111 38.818 37.6679 40.4065 36.375C40.4796 36.3183 40.5527 36.2616 40.628 36.2032C41.9712 35.1014 42.7877 33.3734 42.9595 31.6578C43.0787 29.8313 42.6208 28.064 41.4315 26.6389C40.2857 25.3658 38.8735 24.327 37.1252 24.0938C37.0363 24.0813 36.9473 24.0689 36.8557 24.056C34.7386 23.8251 32.7177 24.5136 31.193 25.9948Z" fill="#FF7705"></path>
</svg>
