<?xml version="1.0" encoding="UTF-8"?>
<svg xmlns="http://www.w3.org/2000/svg" width="48" height="48" viewBox="0 0 48 48" fill="none">
  <path d="M3.75766 11.6858C3.80873 11.6857 3.85981 11.6855 3.91243 11.6854C4.0829 11.685 4.25336 11.6852 4.42383 11.6854C4.54756 11.6853 4.67129 11.6851 4.79501 11.6849C5.13451 11.6844 5.47401 11.6844 5.81351 11.6845C6.17986 11.6845 6.5462 11.6841 6.91255 11.6837C7.63009 11.6831 8.34763 11.6829 9.06517 11.6829C9.64844 11.6828 10.2317 11.6827 10.815 11.6824C12.4689 11.6817 14.1227 11.6814 15.7766 11.6814C15.9103 11.6814 15.9103 11.6814 16.0467 11.6815C16.136 11.6815 16.2253 11.6815 16.3172 11.6815C17.7639 11.6815 19.2105 11.6808 20.6571 11.6797C22.1427 11.6786 23.6283 11.678 25.1139 11.6781C25.9479 11.6781 26.7819 11.6779 27.6158 11.6771C28.3259 11.6764 29.0359 11.6762 29.7459 11.6768C30.1081 11.677 30.4703 11.677 30.8324 11.6763C31.1642 11.6757 31.496 11.6758 31.8278 11.6765C31.9476 11.6766 32.0673 11.6765 32.1871 11.6761C33.1811 11.6727 34.0288 11.6869 34.7956 12.3679C35.3842 12.9684 35.4594 13.6728 35.4464 14.4801C35.4461 14.5591 35.4458 14.6382 35.4454 14.7196C35.4441 14.9692 35.4412 15.2187 35.4382 15.4683C35.437 15.6387 35.436 15.809 35.435 15.9794C35.4324 16.3946 35.4285 16.8098 35.4236 17.225C35.4707 17.2241 35.5178 17.2233 35.5663 17.2224C36.0596 17.2138 36.5529 17.2081 37.0463 17.2039C37.23 17.2019 37.4138 17.1993 37.5975 17.196C37.8627 17.1913 38.1278 17.1891 38.393 17.1875C38.4742 17.1855 38.5555 17.1835 38.6392 17.1815C39.2996 17.1812 39.7932 17.3609 40.3059 17.7733C40.376 17.8535 40.376 17.8535 40.4475 17.9353C40.4956 17.988 40.5438 18.0406 40.5934 18.0949C41.0564 18.8154 40.9929 19.606 40.9906 20.4252C40.9911 20.5708 40.9916 20.7164 40.9923 20.8621C40.9937 21.2562 40.9936 21.6503 40.9931 22.0445C40.9929 22.374 40.9934 22.7036 40.9938 23.0332C40.9949 23.811 40.9948 24.5887 40.9939 25.3665C40.993 26.1677 40.9941 26.9689 40.9962 27.7701C40.9979 28.4592 40.9984 29.1482 40.998 29.8373C40.9977 30.2483 40.9979 30.6594 40.9993 31.0704C41.0005 31.457 41.0002 31.8436 40.9987 32.2302C40.9984 32.3716 40.9986 32.5131 40.9995 32.6546C41.0039 33.4884 40.978 34.152 40.506 34.8735C39.8557 35.514 39.1504 35.6652 38.2423 35.6658C38.1913 35.6659 38.1402 35.666 38.0876 35.6662C37.9171 35.6665 37.7466 35.6663 37.5762 35.6661C37.4524 35.6663 37.3287 35.6665 37.205 35.6667C36.8655 35.6671 36.526 35.6671 36.1865 35.667C35.8201 35.667 35.4538 35.6675 35.0875 35.6678C34.3699 35.6685 33.6524 35.6687 32.9348 35.6687C32.3516 35.6687 31.7683 35.6689 31.185 35.6691C29.5311 35.6698 27.8773 35.6702 26.2234 35.6701C26.1343 35.6701 26.0451 35.6701 25.9533 35.6701C25.864 35.6701 25.7747 35.6701 25.6828 35.6701C24.2361 35.6701 22.7895 35.6708 21.3429 35.6719C19.8573 35.673 18.3717 35.6735 16.8861 35.6735C16.0521 35.6734 15.2181 35.6736 14.3842 35.6745C13.6741 35.6752 12.9641 35.6753 12.2541 35.6748C11.8919 35.6746 11.5298 35.6746 11.1676 35.6752C10.8358 35.6758 10.504 35.6757 10.1722 35.675C10.0524 35.6749 9.93266 35.6751 9.81288 35.6755C8.81888 35.6788 7.97123 35.6646 7.20439 34.9836C6.61578 34.3832 6.54057 33.6787 6.55357 32.8714C6.5539 32.7924 6.55423 32.7134 6.55457 32.632C6.55587 32.3824 6.5588 32.1329 6.56179 31.8833C6.56296 31.7129 6.56403 31.5425 6.56499 31.3721C6.56755 30.9569 6.57145 30.5418 6.57641 30.1266C6.5293 30.1275 6.48219 30.1283 6.43366 30.1292C5.94036 30.1377 5.44708 30.1435 4.95372 30.1477C4.76996 30.1496 4.58621 30.1522 4.40248 30.1556C4.13731 30.1603 3.87223 30.1624 3.60702 30.1641C3.52578 30.1661 3.44453 30.1681 3.36082 30.1701C2.70041 30.1704 2.20679 29.9906 1.69413 29.5782C1.6474 29.5248 1.60066 29.4713 1.55251 29.4162C1.50437 29.3636 1.45623 29.3109 1.40663 29.2567C0.943565 28.5361 1.00711 27.7456 1.00937 26.9264C1.00892 26.7808 1.00838 26.6351 1.00774 26.4895C1.00635 26.0954 1.00644 25.7012 1.00688 25.3071C1.00712 24.9775 1.00665 24.648 1.00618 24.3184C1.00508 23.5406 1.0052 22.7629 1.00609 21.9851C1.00699 21.1839 1.00589 20.3827 1.0038 19.5814C1.00207 18.8924 1.00155 18.2033 1.00201 17.5143C1.00227 17.1032 1.00209 16.6922 1.00074 16.2812C0.999536 15.8946 0.99985 15.508 1.00131 15.1214C1.0016 14.9799 1.00136 14.8385 1.00054 14.697C0.996092 13.8631 1.02199 13.1995 1.49404 12.478C2.14428 11.8376 2.84959 11.6863 3.75766 11.6858ZM2.49 13.44C2.34278 13.7403 2.33042 13.9424 2.33582 14.2749C2.33626 14.3288 2.33671 14.3827 2.33716 14.4382C2.33889 14.6089 2.3428 14.7793 2.34679 14.9499C2.34835 15.0662 2.34978 15.1825 2.35105 15.2988C2.35447 15.5825 2.35985 15.8661 2.36628 16.1498C3.47605 15.9276 4.3286 15.4044 4.99274 14.4789C5.26731 14.0169 5.46217 13.5264 5.56286 13.0012C5.23975 12.9955 4.91667 12.9913 4.59353 12.9886C4.48381 12.9874 4.37409 12.9858 4.26438 12.9838C4.10586 12.981 3.94739 12.9797 3.78884 12.9787C3.69371 12.9775 3.59858 12.9763 3.50056 12.9751C3.06788 13.016 2.78178 13.1168 2.49 13.44ZM6.88827 13.0012C6.78536 13.3813 6.68244 13.7615 6.57641 14.1531C6.02389 15.5567 5.04097 16.4965 3.66763 17.126C3.24479 17.2714 2.80268 17.3561 2.36628 17.4553C2.36628 19.7615 2.36628 22.0677 2.36628 24.4437C2.77794 24.5451 3.18959 24.6465 3.61372 24.7509C5.00996 25.3442 5.79386 26.2321 6.49844 27.5156C6.52417 27.5156 6.5499 27.5156 6.57641 27.5156C6.57659 27.4727 6.57678 27.4298 6.57697 27.3856C6.58159 26.3394 6.5875 25.2933 6.59479 24.2471C6.59827 23.7412 6.60133 23.2353 6.60342 22.7294C6.60545 22.2409 6.6086 21.7524 6.61252 21.2639C6.61382 21.0778 6.61472 20.8917 6.6152 20.7056C6.61596 20.4444 6.61815 20.1832 6.62066 19.922C6.62055 19.8455 6.62044 19.769 6.62032 19.6901C6.62932 19.0273 6.76441 18.4381 7.20013 17.9161C7.68125 17.493 8.11883 17.2785 8.77611 17.2907C8.87034 17.2919 8.96456 17.2931 9.06164 17.2943C9.16252 17.2961 9.26339 17.2978 9.36732 17.2997C9.58254 17.3011 9.79776 17.3016 10.013 17.3022C10.3511 17.3035 10.6891 17.3061 11.0271 17.3131C11.3017 17.3186 11.5761 17.3199 11.8507 17.3185C12.0046 17.3188 12.1584 17.3236 12.3122 17.3284C12.7434 17.324 13.0172 17.3114 13.3596 17.0381C13.5597 16.8327 13.7312 16.6075 13.9052 16.3802C15.0347 15.2891 16.6404 14.7934 18.1884 14.7483C20.0131 14.7711 21.5799 15.4557 22.8595 16.7302C23.1709 17.0475 23.1709 17.0475 23.261 17.225C26.4256 17.225 29.5902 17.225 32.8507 17.225C32.6086 17.0461 32.4152 16.9305 32.149 16.8026C30.976 16.177 30.2292 15.1571 29.8101 13.9228C29.7329 13.6186 29.6557 13.3145 29.5762 13.0012C22.0892 13.0012 14.6022 13.0012 6.88827 13.0012ZM30.9016 13.0012C31.1531 14.1005 31.6307 14.9254 32.5763 15.5958C33.0362 15.8816 33.5437 16.1498 34.0982 16.1498C34.104 15.8192 34.1082 15.4886 34.111 15.158C34.1122 15.0457 34.1138 14.9334 34.1158 14.8211C34.1187 14.659 34.12 14.497 34.121 14.3349C34.1229 14.1889 34.1229 14.1889 34.1247 14.04C34.0894 13.68 33.9831 13.4179 33.7132 13.1692C33.384 12.9825 33.0736 12.9921 32.6985 12.9937C32.647 12.9938 32.5955 12.9939 32.5425 12.994C32.3788 12.9945 32.2152 12.9954 32.0516 12.9964C31.9403 12.9968 31.8291 12.9971 31.7178 12.9975C31.4457 12.9983 31.1737 12.9996 30.9016 13.0012ZM14.9967 17.1482C14.9967 17.1735 14.9967 17.1988 14.9967 17.225C17.1321 17.225 19.2676 17.225 21.4678 17.225C20.6342 16.4039 19.4377 15.999 18.2663 15.977C17.072 15.9915 15.9181 16.4012 14.9967 17.1482ZM8.13572 18.7609C7.90489 19.1065 7.87383 19.3787 7.87898 19.7874C7.87931 19.8396 7.87964 19.8918 7.87998 19.9456C7.88128 20.1107 7.88421 20.2757 7.8872 20.4408C7.88837 20.5534 7.88944 20.666 7.8904 20.7786C7.89296 21.0532 7.89699 21.3277 7.90182 21.6023C8.85389 21.4842 9.70279 21.0035 10.3105 20.2728C10.7151 19.7358 10.9699 19.186 11.0984 18.5305C10.7391 18.5248 10.3799 18.5206 10.0206 18.5178C9.89844 18.5167 9.77631 18.5151 9.65419 18.5131C9.47826 18.5103 9.30237 18.509 9.12642 18.508C9.07216 18.5068 9.01789 18.5056 8.96198 18.5044C8.61937 18.5043 8.40003 18.5417 8.13572 18.7609ZM12.4238 18.5305C12.3209 18.8853 12.218 19.2401 12.1119 19.6056C11.6052 20.8707 10.7912 21.8422 9.53909 22.4471C9.00816 22.6699 8.47153 22.8143 7.90182 22.9078C7.90182 25.214 7.90182 27.5202 7.90182 29.8962C8.31348 29.9976 8.72513 30.099 9.14927 30.2034C10.3962 30.6964 11.3402 31.5623 11.9317 32.752C12.1406 33.2693 12.2782 33.8124 12.4238 34.3504C19.9108 34.3504 27.3978 34.3504 35.1117 34.3504C35.2661 33.7801 35.2661 33.7801 35.4236 33.1984C35.9761 31.7948 36.959 30.855 38.3324 30.2256C38.7552 30.0802 39.1973 29.9954 39.6337 29.8962C39.6337 27.59 39.6337 25.2839 39.6337 22.9078C39.2221 22.8065 38.8104 22.7051 38.3863 22.6006C37.003 22.0129 36.1817 21.1435 35.5016 19.836C35.3729 19.4052 35.2443 18.9744 35.1117 18.5305C27.6247 18.5305 20.1377 18.5305 12.4238 18.5305ZM36.5151 18.5305C36.5991 19.4612 37.0693 20.163 37.7543 20.7996C38.3204 21.24 38.9144 21.5113 39.6337 21.6023C39.6415 21.2608 39.6471 20.9193 39.6509 20.5777C39.6524 20.4616 39.6545 20.3456 39.6572 20.2295C39.6611 20.0622 39.6628 19.8948 39.6642 19.7274C39.6658 19.6269 39.6674 19.5263 39.6691 19.4227C39.6274 19.0955 39.5359 18.9352 39.3219 18.6841C39.0509 18.4807 38.7648 18.5129 38.4338 18.5155C38.3514 18.5158 38.3514 18.5158 38.2673 18.5161C38.0926 18.517 37.9178 18.5189 37.7431 18.5209C37.6243 18.5217 37.5055 18.5224 37.3867 18.523C37.0962 18.5247 36.8056 18.5273 36.5151 18.5305ZM2.36628 25.7493C2.35853 26.0908 2.35289 26.4323 2.34915 26.7739C2.34758 26.8899 2.34546 27.006 2.34275 27.122C2.33894 27.2894 2.33719 27.4567 2.33582 27.6241C2.33419 27.7247 2.33256 27.8252 2.33087 27.9288C2.37257 28.2561 2.46406 28.4163 2.67814 28.6675C2.94909 28.8709 3.23517 28.8387 3.56621 28.8361C3.62115 28.8359 3.67608 28.8356 3.73269 28.8354C3.90745 28.8346 4.08218 28.8326 4.25694 28.8307C4.37571 28.8299 4.49449 28.8292 4.61326 28.8286C4.90382 28.8269 5.19435 28.8242 5.48489 28.8211C5.40095 27.8903 4.9307 27.1886 4.24567 26.552C3.67959 26.1116 3.08564 25.8402 2.36628 25.7493ZM7.90182 31.2017C7.89601 31.5323 7.89178 31.8629 7.88897 32.1936C7.8878 32.3059 7.88621 32.4182 7.88417 32.5305C7.88132 32.6926 7.88001 32.8546 7.87898 33.0166C7.87775 33.114 7.87653 33.2113 7.87527 33.3116C7.91056 33.6715 8.01689 33.9337 8.28677 34.1824C8.61601 34.3691 8.92641 34.3594 9.30154 34.3579C9.37875 34.3577 9.37875 34.3577 9.45752 34.3575C9.62116 34.3571 9.78478 34.3561 9.94841 34.3552C10.0597 34.3548 10.1709 34.3544 10.2822 34.3541C10.5543 34.3533 10.8263 34.3519 11.0984 34.3504C10.8643 33.2163 10.2964 32.401 9.34722 31.7039C8.92328 31.4508 8.40378 31.2017 7.90182 31.2017ZM37.7626 32.0465C37.6793 32.1126 37.6793 32.1126 37.5944 32.18C36.9519 32.7484 36.6241 33.535 36.4371 34.3504C36.7603 34.3561 37.0833 34.3602 37.4065 34.363C37.5162 34.3642 37.6259 34.3657 37.7356 34.3677C37.8941 34.3706 38.0526 34.3718 38.2112 34.3729C38.3063 34.3741 38.4014 34.3753 38.4994 34.3765C38.9321 34.3356 39.2182 34.2348 39.51 33.9116C39.6572 33.6113 39.6696 33.4092 39.6642 33.0766C39.6635 32.9958 39.6635 32.9958 39.6628 32.9133C39.6611 32.7427 39.6572 32.5722 39.6532 32.4017C39.6516 32.2854 39.6502 32.1691 39.6489 32.0528C39.6455 31.7691 39.6402 31.4854 39.6337 31.2017C38.9269 31.2017 38.2931 31.6241 37.7626 32.0465Z" fill="#FF7705"></path>
  <path d="M27.7508 21.2649C27.8228 21.3306 27.8947 21.3962 27.9688 21.4638C29.27 22.706 29.949 24.3273 30 26.12C29.9814 27.9029 29.3287 29.5075 28.1035 30.8015C26.7633 32.0736 25.0963 32.6945 23.2624 32.6754C22.3485 32.6212 21.4988 32.3981 20.6649 32.0208C20.5906 31.9875 20.5163 31.9541 20.4398 31.9197C19.809 31.6068 19.3266 31.1589 18.8337 30.6664C18.7745 30.6081 18.7153 30.5497 18.6543 30.4896C17.5221 29.3012 16.9938 27.6647 17.0001 26.0422C17.0425 24.4713 17.6111 22.9825 18.6745 21.8226C18.7274 21.7625 18.7802 21.7023 18.8347 21.6403C19.9387 20.4517 21.5072 19.7893 23.1097 19.6796C24.7928 19.6276 26.491 20.1098 27.7508 21.2649ZM19.8964 22.502C18.8584 23.5962 18.372 24.8725 18.356 26.364C18.4429 27.7251 19.0098 29.0416 20.019 29.9749C21.1635 30.8852 22.442 31.4074 23.9292 31.3038C25.4292 31.0847 26.7393 30.4215 27.6609 29.1931C28.4763 27.9823 28.8095 26.6094 28.5321 25.1739C28.1841 23.7026 27.3742 22.5588 26.1087 21.7231C24.0886 20.5855 21.5753 20.9071 19.8964 22.502Z" fill="#FF7705"></path>
  <path d="M24.3876 22.7362C24.6045 22.9396 24.6706 23.0429 24.693 23.3442C24.687 23.409 24.6811 23.4739 24.675 23.5407C24.7461 23.5543 24.8173 23.5679 24.8906 23.5818C25.2857 23.6957 25.627 23.9922 25.8422 24.3455C25.9297 24.5799 25.8804 24.7642 25.8248 25.0034C25.7056 25.195 25.6213 25.2189 25.4071 25.2868C25.1239 25.2981 24.9856 25.2277 24.7469 25.0765C24.6737 25.0048 24.6015 24.9319 24.5313 24.8571C24.177 24.7369 23.8656 24.7245 23.5297 24.8845C23.3375 25.0386 23.315 25.1085 23.2827 25.3553C23.3193 25.6725 23.4273 25.7557 23.6689 25.9541C23.9217 26.0186 23.9217 26.0186 24.1944 26.0318C24.7675 26.0898 25.163 26.198 25.5598 26.6352C25.9919 27.2054 26.0504 27.7272 25.9685 28.4406C25.818 28.9493 25.5416 29.3201 25.1062 29.6108C24.887 29.7223 24.7763 29.757 24.5313 29.757C24.5424 29.8724 24.5424 29.8724 24.5537 29.9902C24.5313 30.269 24.5313 30.269 24.3786 30.4838C24.172 30.6346 24.172 30.6346 23.9564 30.6758C23.6803 30.6231 23.567 30.5579 23.3815 30.3421C23.3305 30.1422 23.3199 29.9653 23.3096 29.757C23.2483 29.7435 23.2483 29.7435 23.1858 29.7296C22.7715 29.617 22.5176 29.4564 22.2502 29.1128C22.0961 28.8396 22.104 28.6772 22.1598 28.3675C22.2676 28.1847 22.2676 28.1847 22.4473 28.075C22.9122 28.0063 22.9122 28.0063 23.1502 28.155C23.2555 28.2453 23.3548 28.3427 23.4533 28.4406C23.7202 28.5764 24.0244 28.5459 24.3157 28.5138C24.5491 28.4214 24.5491 28.4214 24.675 28.2212C24.7249 28.0148 24.7412 27.839 24.675 27.6362C24.4 27.3372 24.1428 27.302 23.7588 27.2796C23.2559 27.2314 22.8867 27.1358 22.5191 26.7586C22.0527 26.1667 21.9558 25.6847 22.0161 24.9302C22.1344 24.4457 22.4077 24.0504 22.8066 23.7601C23.0179 23.6639 23.2283 23.5952 23.4533 23.5407C23.4474 23.4623 23.4415 23.3838 23.4354 23.303C23.4533 23.0288 23.4533 23.0288 23.5836 22.8551C23.8637 22.6433 24.0589 22.6407 24.3876 22.7362Z" fill="#FF7705"></path>
  <path d="M46.9989 14.6198C46.9355 14.801 46.8925 14.8734 46.7184 14.9793C46.5257 15.0144 46.4448 15.0279 46.2638 14.9793C45.9265 14.7602 45.6763 14.4237 45.4215 14.1302C45.2935 13.9901 45.1559 13.8639 45.0138 13.7358C45.0137 13.7695 45.0137 13.8033 45.0137 13.8382C45.0116 15.8401 45.0084 22.8421 45.0037 24.844C45.0031 25.0843 45.0025 25.3245 45.002 25.5647C45.0019 25.6126 45.0018 25.6604 45.0016 25.7097C44.9999 26.4847 44.9989 27.2597 44.9982 28.0347C44.9975 28.8295 44.996 29.6244 44.9936 30.4193C44.9922 30.91 44.9914 31.4007 44.9915 31.8914C44.9915 32.2277 44.9907 32.5639 44.9892 32.9001C44.9884 33.0943 44.9879 33.2884 44.9884 33.4826C44.989 33.6929 44.9878 33.9031 44.9864 34.1134C44.9871 34.2059 44.9871 34.2059 44.9878 34.3003C44.9871 34.3565 44.9865 34.4127 44.9858 34.4706C44.9857 34.5191 44.9856 34.5677 44.9855 34.6177C44.9482 34.7853 44.8731 34.8467 44.7297 34.9534C44.5377 35.0225 44.4609 35.0101 44.2644 34.9469C44.079 34.8341 44.0554 34.7806 43.991 34.5907C43.9765 34.4572 43.9765 34.4572 43.9761 34.312C43.9757 34.2564 43.9753 34.2009 43.9748 34.1436C43.975 34.0525 43.975 34.0525 43.9752 33.9596C43.9748 33.8948 43.9745 33.8301 43.9742 33.7633C43.9733 33.5837 43.9731 33.4042 43.973 33.2246C43.9728 33.0308 43.9719 32.8371 43.9712 32.6434C43.9699 32.3078 43.969 31.9722 43.9685 31.6366C43.9676 31.1514 43.9662 30.6662 43.9646 30.181C43.962 29.3937 43.9599 28.6065 43.9582 27.8193C43.9564 27.0546 43.9545 26.2899 43.9522 25.5251C43.9521 25.478 43.9519 25.4309 43.9518 25.3823C43.9511 25.1458 43.9504 24.9094 43.9497 24.6729C43.9438 22.7111 43.9387 15.7493 43.9342 13.7876C43.816 13.9032 43.6978 14.0189 43.5797 14.1347C43.5465 14.1672 43.5132 14.1997 43.479 14.2332C43.2708 14.4373 43.0669 14.6439 42.8699 14.8572C42.7475 14.9765 42.6744 14.9801 42.4924 14.9955C42.2864 14.9793 42.2864 14.9793 42.1514 14.8983C42.0211 14.72 41.9906 14.6257 42.0023 14.4093C42.1099 14.2339 42.2522 14.0913 42.4 13.943C42.4446 13.898 42.4892 13.853 42.5352 13.8066C42.6313 13.7103 42.7278 13.6143 42.8246 13.5186C42.9597 13.3817 43.0871 13.2416 43.2133 13.0978C43.4242 12.8596 43.6458 12.6326 43.8738 12.408C43.9061 12.3761 43.9384 12.3441 43.9716 12.3112C44.249 12.0403 44.249 12.0403 44.4811 12C44.9391 12.0619 45.2266 12.4908 45.4976 12.8019C45.6516 12.9728 45.8138 13.1341 45.9797 13.2953C47.0062 14.2966 47.0062 14.2966 46.9989 14.6198Z" fill="#FF7705"></path>
</svg>
