<?xml version="1.0" encoding="UTF-8"?>
<svg xmlns="http://www.w3.org/2000/svg" width="48" height="48" viewBox="0 0 48 48" fill="none">
  <path d="M31.5368 14.6372C31.8632 14.9186 32.177 15.2125 32.489 15.5097C32.5461 15.5626 32.6032 15.6155 32.662 15.6699C34.7094 17.6219 35.9257 20.6275 35.9968 23.4309C36.031 26.2423 35.366 28.9715 33.6 31.215C33.5464 31.2848 33.4928 31.3545 33.4376 31.4263C31.4749 33.9108 28.6143 35.5556 25.458 35.937C22.2796 36.2503 19.0493 35.4513 16.5386 33.436C16.2086 33.1581 15.8966 32.863 15.5863 32.5635C15.5236 32.5049 15.4609 32.4463 15.3963 32.3859C13.3487 30.4252 12.0702 27.4585 11.9992 24.6327C11.9593 21.1974 12.9551 18.1951 15.3482 15.6684C15.4133 15.5982 15.4784 15.5281 15.5454 15.4558C19.6848 11.1347 26.9629 10.8779 31.5368 14.6372ZM16.1716 17.2349C14.3228 19.3597 13.5146 22.0844 13.6818 24.8695C13.7657 25.9396 14.0148 27.068 14.4753 28.0422C14.5277 28.0684 14.5801 28.0946 14.634 28.1216C14.6649 28.0802 14.6958 28.0387 14.7277 27.9961C16.2625 25.9777 18.2526 24.7433 20.6651 23.9969C20.5602 23.7675 20.4712 23.642 20.2931 23.4516C19.5204 22.5619 19.1702 21.3386 19.215 20.1729C19.3358 18.9411 19.8 17.6978 20.7444 16.8582C21.8312 15.9677 23.1493 15.537 24.5535 15.6684C25.8254 15.8578 26.9899 16.4066 27.7674 17.4544C28.6229 18.6577 28.9176 19.9486 28.675 21.3992C28.4739 22.3259 28.0681 23.0799 27.4038 23.7599C27.2387 23.9215 27.2387 23.9215 27.0929 24.1556C27.1983 24.1947 27.1983 24.1947 27.3058 24.2346C29.7528 25.164 31.5249 26.6467 33.0445 28.7561C34.0423 27.816 34.2828 25.6784 34.3316 24.396C34.4045 21.4064 33.28 18.8804 31.2968 16.68C29.4909 14.7873 26.8099 13.7199 24.2193 13.6571C21.0533 13.6358 18.3271 14.9516 16.1716 17.2349ZM21.9348 18.048C21.886 18.0896 21.8372 18.1312 21.7869 18.1741C21.2038 18.7045 20.8901 19.4077 20.8238 20.1896C20.8032 21.078 21.0564 21.8391 21.6322 22.5196C22.2005 23.1075 22.8409 23.4748 23.6645 23.5477C24.7896 23.5588 25.5198 23.2957 26.356 22.5227C26.8945 21.9612 27.1487 21.195 27.1828 20.4285C27.1389 19.4352 26.7298 18.6463 26.0185 17.9696C25.3902 17.4562 24.6285 17.2101 23.8216 17.23C23.0948 17.3117 22.4732 17.5549 21.9348 18.048ZM20.9031 25.5833C20.8212 25.6082 20.8212 25.6082 20.7377 25.6336C18.6349 26.2975 16.883 27.7043 15.6086 29.4827C15.4857 29.6978 15.4857 29.6978 15.5435 29.9044C15.6983 30.1579 15.8776 30.3821 16.0724 30.6053C16.1315 30.6736 16.1315 30.6736 16.1917 30.7434C17.9638 32.7771 20.4278 34.0577 23.1251 34.3085C25.9351 34.4886 28.6229 33.6497 30.755 31.792C31.4604 31.2085 31.4604 31.2085 32.0129 30.5012C31.9494 29.4175 30.6201 28.2384 29.8572 27.5346C28.7494 26.5686 27.3923 25.8941 25.9819 25.504C25.8908 25.4787 25.7998 25.4533 25.706 25.4272C24.163 25.0705 22.4171 25.1208 20.9031 25.5833Z" fill="#FF7705"></path>
  <path d="M42.7327 18.0283C43.2815 18.3681 43.362 18.9837 43.5053 19.5729C43.6269 20.1101 43.7297 20.6506 43.8144 21.1948C43.8352 21.3261 43.8352 21.3261 43.8564 21.4601C43.9845 22.3576 43.9997 23.2482 43.9979 24.1538C43.9979 24.232 43.9979 24.3102 43.9979 24.3908C43.9953 25.6427 43.9208 26.8406 43.6599 28.0686C43.6458 28.1387 43.6318 28.2088 43.6173 28.281C42.9625 31.5085 41.4845 34.5344 39.3329 37.0276C39.2839 37.0851 39.2349 37.1427 39.1844 37.202C38.2717 38.245 37.2865 39.2236 36.1649 40.0397C36.076 40.1058 35.9872 40.172 35.8984 40.2382C33.5892 41.9404 30.9478 43.0855 28.1387 43.6551C28.0644 43.6702 27.9902 43.6852 27.9137 43.7008C26.6797 43.9369 25.4713 44.0076 24.2173 44.0027C24.1049 44.0025 24.1049 44.0025 23.9902 44.0023C22.8813 43.9988 21.8023 43.9597 20.7113 43.7469C20.642 43.7344 20.5726 43.722 20.5012 43.7092C16.8123 43.042 13.5142 41.2947 10.7437 38.8039C10.7426 38.8721 10.7414 38.9403 10.7403 39.0105C10.7356 39.2646 10.7298 39.5186 10.7234 39.7727C10.7209 39.8824 10.7187 39.9921 10.7169 40.1019C10.7143 40.2601 10.7103 40.4182 10.706 40.5764C10.7039 40.6714 10.7019 40.7665 10.6998 40.8644C10.6639 41.1406 10.6019 41.2865 10.4346 41.5071C10.1241 41.714 9.87239 41.7153 9.50741 41.6616C9.28563 41.523 9.16037 41.4312 9.0438 41.1982C9.0348 41.0551 9.03069 40.9118 9.0289 40.7685C9.02766 40.6785 9.02641 40.5885 9.02514 40.4958C9.02171 40.0842 9.01849 39.6725 9.01675 39.2609C9.01572 39.0435 9.01357 38.8262 9.01041 38.6089C9.00587 38.2961 9.00449 37.9833 9.00335 37.6705C9.0016 37.5733 8.99985 37.4761 8.99805 37.376C8.99967 36.7058 8.99967 36.7058 9.21514 36.3915C9.426 36.2579 9.57676 36.1863 9.8198 36.1355C9.94177 36.109 9.94177 36.109 10.0662 36.0819C10.1623 36.0627 10.2584 36.0434 10.3574 36.0236C10.4761 35.9985 10.5947 35.9733 10.7134 35.948C11.0479 35.8774 11.3829 35.8093 11.7181 35.7421C11.9279 35.6999 12.1375 35.657 12.3472 35.614C12.482 35.5869 12.6169 35.5598 12.7518 35.5327C12.8137 35.5199 12.8756 35.5071 12.9394 35.494C13.8234 35.3193 13.8234 35.3193 14.1405 35.4847C14.5225 35.8498 14.5225 35.8498 14.5491 36.2022C14.528 36.5141 14.5049 36.6405 14.298 36.8731C13.7865 37.0983 13.2606 37.2042 12.714 37.3124C12.5855 37.3384 12.5855 37.3384 12.4545 37.365C12.2449 37.4075 12.0352 37.4494 11.8254 37.491C13.7995 39.3489 16.1945 40.7034 18.7796 41.5071C18.8653 41.5342 18.8653 41.5342 18.9528 41.5619C23.4933 42.9781 28.5139 42.3925 32.7134 40.2265C34.8791 39.0756 36.9137 37.4359 38.4056 35.4829C38.4375 35.4419 38.4694 35.4009 38.5023 35.3586C39.8426 33.6292 40.842 31.699 41.4964 29.6132C41.5146 29.5559 41.5328 29.4985 41.5515 29.4394C41.9892 28.0371 42.2762 26.5394 42.2847 25.0676C42.2856 24.9732 42.2856 24.9732 42.2864 24.8768C42.2986 23.0583 42.1752 21.3978 41.72 19.6298C41.6114 19.1956 41.527 18.8506 41.6509 18.4144C41.9902 18.0257 42.224 17.9556 42.7327 18.0283Z" fill="#FF7705"></path>
  <path d="M22.8072 4.00676C22.8786 4.00621 22.9501 4.00566 23.0237 4.00509C23.2533 4.00373 23.4828 4.00323 23.7124 4.00309C23.83 4.00301 23.83 4.00301 23.9498 4.00293C25.0825 4.00414 26.1829 4.0358 27.2972 4.25742C27.3665 4.27002 27.4357 4.28262 27.507 4.2956C31.1977 4.97156 34.4972 6.74201 37.269 9.26587C37.2701 9.16288 37.2701 9.16288 37.2712 9.05781C37.2746 8.80136 37.2794 8.54502 37.2851 8.28861C37.2872 8.17796 37.2889 8.0673 37.29 7.95663C37.2916 7.79689 37.2953 7.63728 37.2992 7.47758C37.3017 7.33373 37.3017 7.33373 37.3041 7.18698C37.3538 6.87048 37.4595 6.69741 37.6555 6.44862C37.9228 6.31334 38.2136 6.33204 38.5058 6.37036C38.7277 6.51075 38.853 6.60377 38.9696 6.8399C38.9779 6.98246 38.9811 7.12532 38.9821 7.26812C38.9828 7.35772 38.9836 7.44732 38.9843 7.53963C38.9848 7.6855 38.9848 7.6855 38.9853 7.83432C38.9858 7.93391 38.9862 8.03351 38.9867 8.13613C38.9874 8.34724 38.9879 8.55834 38.9882 8.76945C38.9886 9.03944 38.9905 9.3094 38.9927 9.57938C38.9945 9.83732 38.9946 10.0953 38.995 10.3532C38.996 10.45 38.9969 10.5468 38.9979 10.6465C38.9977 10.7368 38.9974 10.8271 38.9972 10.9202C38.9975 10.9995 38.9978 11.0788 38.998 11.1605C38.9643 11.42 38.8955 11.5635 38.7377 11.7701C38.5914 11.8534 38.5914 11.8534 38.426 11.9009C38.3643 11.9188 38.3025 11.9368 38.2389 11.9553C37.9048 12.0394 37.5699 12.1141 37.2322 12.1819C37.1572 12.1972 37.0823 12.2125 37.0051 12.2282C36.8478 12.2602 36.6905 12.292 36.5331 12.3235C36.2931 12.3717 36.0534 12.4209 35.8136 12.4703C35.66 12.5014 35.5064 12.5324 35.3528 12.5634C35.2817 12.578 35.2106 12.5927 35.1373 12.6078C34.1869 12.7961 34.1869 12.7961 33.8708 12.6291C33.4886 12.2592 33.4886 12.2592 33.462 11.9022C33.4831 11.586 33.5062 11.458 33.7132 11.2223C34.225 10.9941 34.7511 10.8868 35.2979 10.7772C35.4264 10.7508 35.4264 10.7508 35.5575 10.7239C35.7672 10.6809 35.977 10.6383 36.1868 10.5962C34.2119 8.71374 31.8159 7.34122 29.2298 6.52688C29.144 6.49939 29.144 6.49939 29.0564 6.47136C24.4477 5.01537 19.4076 5.66222 15.1553 7.89064C14.1946 8.41362 13.297 9.0338 12.4555 9.73541C12.4131 9.77045 12.3706 9.8055 12.3269 9.8416C11.2617 10.7252 10.28 11.6872 9.46081 12.8107C9.36577 12.9408 9.26903 13.0696 9.17206 13.1983C8.59281 13.9799 8.12007 14.8238 7.66289 15.6829C7.6336 15.7376 7.6043 15.7923 7.57412 15.8487C6.26938 18.3303 5.69461 21.2373 5.70622 24.0271C5.70633 24.0958 5.70645 24.1645 5.70657 24.2352C5.71076 25.6268 5.86013 26.9271 6.17174 28.2817C6.36306 29.1308 6.36306 29.1308 6.27148 29.5344C6.11603 29.7754 6.00748 29.886 5.73521 29.9743C5.47711 30.0223 5.29247 30.0145 5.04916 29.9159C4.63204 29.554 4.56247 29.082 4.45492 28.5611C4.43947 28.4914 4.42403 28.4218 4.40811 28.35C4.12266 27.0017 3.99057 25.6607 3.99953 24.283C4.00077 24.0564 3.99953 23.83 3.99806 23.6034C3.9969 22.5641 4.09356 21.5597 4.26166 20.5349C4.2762 20.4459 4.29074 20.3568 4.30571 20.2651C4.90711 16.8788 6.45155 13.6674 8.6678 11.0658C8.71593 11.0084 8.76406 10.951 8.81364 10.8918C9.74696 9.80962 10.7578 8.77176 11.9144 7.9355C11.9623 7.90048 12.0101 7.86547 12.0594 7.82939C14.8216 5.81888 17.9659 4.53982 21.3451 4.10091C21.3969 4.09408 21.4486 4.08724 21.502 4.0802C21.9381 4.02658 22.3681 4.00902 22.8072 4.00676Z" fill="#FF7705"></path>
</svg>
