<?xml version="1.0" encoding="UTF-8"?>
<svg xmlns="http://www.w3.org/2000/svg" width="48" height="48" viewBox="0 0 48 48" fill="none">
  <g clip-path="url(#clip0_3750_1144)">
    <path d="M27.3989 17.0512C28.3095 17.9064 28.9119 19.1237 28.9879 20.3764C29.0084 22 28.5861 23.1915 27.4553 24.3754C27.2766 24.55 27.2766 24.55 27.1876 24.75C27.2828 24.7629 27.2828 24.7629 27.3799 24.776C28.3436 25.0121 29.279 25.6867 30.0001 26.3438C30.0917 26.4267 30.1833 26.5096 30.2777 26.595C31.8642 28.0792 32.8433 30.1031 33.0111 32.2742C32.9994 32.547 32.9709 32.6851 32.8126 32.9063C32.4725 33.1355 32.1562 33.1173 31.7544 33.1176C31.651 33.118 31.651 33.118 31.5454 33.1185C31.3142 33.1192 31.0831 33.1186 30.8519 33.118C30.6862 33.1183 30.5205 33.1186 30.3548 33.119C29.9047 33.1199 29.4545 33.1195 29.0044 33.1189C28.5336 33.1185 28.0628 33.1189 27.5921 33.1192C26.8014 33.1195 26.0108 33.1191 25.2202 33.1182C24.3057 33.1172 23.3912 33.1175 22.4767 33.1185C21.692 33.1194 20.9073 33.1195 20.1226 33.119C19.6537 33.1187 19.1849 33.1187 18.716 33.1193C18.2752 33.1199 17.8345 33.1195 17.3937 33.1184C17.2318 33.1181 17.0699 33.1182 16.908 33.1186C16.6873 33.1191 16.4666 33.1185 16.2458 33.1176C16.1222 33.1175 15.9986 33.1174 15.8713 33.1174C15.5828 33.0953 15.4246 33.0661 15.1876 32.9063C14.8553 32.4373 15.0115 31.8456 15.0939 31.3125C15.4017 29.7859 16.0974 28.3345 17.1564 27.1875C17.2805 27.0505 17.2805 27.0505 17.4072 26.9107C18.2739 25.9837 19.3421 25.215 20.5314 24.75C20.6242 24.75 20.717 24.75 20.8126 24.75C20.7729 24.7078 20.7331 24.6657 20.6921 24.6222C19.5709 23.3926 18.9822 22.0991 19.0116 20.4298C19.0865 19.0379 19.7171 17.9171 20.7189 16.9688C22.7118 15.3095 25.4283 15.4084 27.3989 17.0512ZM21.5802 18.3435C20.9011 19.0871 20.5758 20.0059 20.5951 21.0084C20.697 21.9343 21.1538 22.7304 21.8439 23.3438C22.7839 24.0453 23.6008 24.1839 24.7501 24.0938C25.5624 23.9066 26.2588 23.4405 26.7423 22.7637C27.2895 21.8711 27.5379 21.0004 27.3132 19.9647C27.0369 19.0209 26.553 18.3461 25.7111 17.8326C24.3223 17.0828 22.7607 17.2597 21.5802 18.3435ZM18.5454 28.0422C17.7358 28.904 16.7814 30.2574 16.7814 31.5C21.5457 31.5 26.3101 31.5 31.2189 31.5C30.8043 29.6343 29.8137 28.0804 28.2159 26.9854C24.9921 24.9832 21.2675 25.4029 18.5454 28.0422Z" fill="#FF7705"></path>
    <path d="M11.9623 30.572C12.2007 30.7813 12.4299 30.9966 12.6562 31.2187C12.7445 31.3036 12.7445 31.3036 12.8346 31.3901C14.0602 32.6686 14.5728 34.5118 14.551 36.2439C14.4573 37.7544 13.9818 39.1213 13.0312 40.3125C12.9461 40.4207 12.9461 40.4207 12.8591 40.5311C11.7998 41.8001 10.2613 42.6258 8.625 42.8437C6.75075 43.0064 4.82826 42.6917 3.33472 41.4672C3.05236 41.2206 2.79141 40.9572 2.53125 40.6875C2.46901 40.6282 2.40677 40.5688 2.34265 40.5077C1.12177 39.2648 0.720703 37.4561 0.720703 35.7813C0.748924 33.8266 1.5554 32.1668 2.94873 30.8068C3.92184 29.9516 5.1012 29.3846 6.375 29.1562C6.48328 29.135 6.59156 29.1137 6.70312 29.0918C8.59689 28.9227 10.4641 29.3599 11.9623 30.572ZM3.29883 32.8418C2.42728 34.0176 2.21785 35.4224 2.34375 36.8437C2.62171 38.3283 3.44357 39.5779 4.67578 40.4414C5.92486 41.231 7.29007 41.4151 8.73779 41.2068C10.1865 40.8467 11.3791 39.9696 12.1875 38.7187C12.9267 37.4196 13.1164 35.9633 12.7551 34.5212C12.5189 33.8 12.1898 33.2168 11.7188 32.625C11.6472 32.5264 11.5757 32.4278 11.502 32.3262C10.494 31.2713 9.0915 30.6832 7.64062 30.6211C5.86813 30.703 4.42767 31.5022 3.29883 32.8418Z" fill="#FF7705"></path>
    <path d="M44.7185 30.5625C44.7896 30.6171 44.8606 30.6718 44.9338 30.728C46.1761 31.7476 47.056 33.3779 47.2498 34.9688C47.381 36.9754 47.0657 38.8306 45.7333 40.4055C45.6768 40.4676 45.6204 40.5298 45.5623 40.5938C45.501 40.6636 45.4397 40.7335 45.3766 40.8054C44.2584 42.0071 42.605 42.8027 40.9564 42.8753C38.8352 42.9107 37.0432 42.402 35.4742 40.9097C34.4659 39.9187 33.811 38.6063 33.5623 37.2188C33.5304 37.0563 33.5304 37.0563 33.4978 36.8906C33.3287 34.9969 33.766 33.1297 34.978 31.6315C35.1873 31.3931 35.4026 31.1639 35.6248 30.9375C35.6813 30.8787 35.7379 30.8198 35.7962 30.7592C38.1948 28.4596 42.2027 28.5601 44.7185 30.5625ZM36.233 32.6228C35.3535 33.8179 34.9043 35.1897 35.1022 36.6746C35.3898 38.2519 36.1766 39.4993 37.4639 40.4502C38.709 41.2503 40.1478 41.4566 41.5936 41.1856C43.0143 40.7782 44.1874 39.9914 44.9496 38.7103C45.6617 37.3604 45.8993 35.9589 45.5095 34.4649C45.0245 33.0012 44.1007 31.8989 42.73 31.1902C40.472 30.121 37.8476 30.7095 36.233 32.6228Z" fill="#FF7705"></path>
    <path d="M28.1258 2.00917C28.7573 2.48072 29.2603 3.01222 29.7191 3.65625C29.7983 3.76719 29.7983 3.76719 29.8791 3.88037C30.8417 5.35229 31.1536 7.30105 30.8034 9.01121C30.359 10.922 29.2798 12.4134 27.6566 13.5C26.0346 14.4796 24.1544 14.7568 22.3129 14.3437C20.4177 13.8076 18.9367 12.6856 17.9359 10.9805C17.0747 9.36142 16.8137 7.48895 17.3043 5.71078C17.8642 3.91017 18.9857 2.44563 20.6254 1.5C23.0341 0.282082 25.9202 0.43075 28.1258 2.00917ZM19.9691 4.125C19.0218 5.24736 18.61 6.57991 18.6713 8.0354C18.8405 9.50978 19.5544 10.8766 20.7191 11.8125C22.0779 12.7135 23.4906 13.153 25.1312 12.8236C26.6076 12.429 27.8496 11.5606 28.6234 10.2363C28.9297 9.68667 29.1431 9.15213 29.2504 8.53125C29.2657 8.44508 29.2811 8.35892 29.2969 8.27014C29.4731 6.92035 29.0981 5.53285 28.2922 4.43834C27.422 3.33948 26.3086 2.64751 24.9379 2.34375C22.9486 2.17477 21.3712 2.66861 19.9691 4.125Z" fill="#FF7705"></path>
    <path d="M33.4688 8.34374C33.7236 8.4507 33.9332 8.55376 34.1661 8.69531C34.23 8.73278 34.2938 8.77026 34.3596 8.80888C36.8649 10.3087 39.12 12.3114 40.7813 14.7187C40.8283 14.7863 40.8752 14.8539 40.9235 14.9235C42.7868 17.6437 43.914 20.7374 44.3438 24C44.5128 23.7804 44.6678 23.5591 44.8185 23.3262C45.0001 23.0625 45.0001 23.0625 45.1876 22.9687C45.7629 22.9155 45.7629 22.9155 46.0665 23.1152C46.2691 23.4191 46.293 23.6356 46.3126 24C46.2267 24.2375 46.1412 24.4271 46.0196 24.6445C45.9505 24.7745 45.8814 24.9045 45.8124 25.0345C45.7537 25.143 45.7537 25.143 45.6938 25.2536C45.5431 25.5367 45.3985 25.8226 45.2542 26.109C45.1461 26.322 45.038 26.535 44.9298 26.748C44.8778 26.8515 44.8258 26.955 44.7723 27.0617C44.7223 27.1589 44.6722 27.2561 44.6207 27.3563C44.5764 27.4435 44.5321 27.5307 44.4864 27.6205C44.3351 27.8575 44.2097 27.9819 43.9688 28.125C43.6466 28.1719 43.6466 28.1719 43.3126 28.125C42.9121 27.783 42.6459 27.3827 42.3692 26.9414C42.2796 26.7998 42.19 26.6582 42.1004 26.5166C42.0539 26.4428 42.0074 26.3689 41.9595 26.2928C41.8077 26.0549 41.6521 25.8198 41.4955 25.585C41.3922 25.4277 41.2889 25.2705 41.1856 25.1133C41.136 25.0401 41.0864 24.9669 41.0353 24.8915C40.7533 24.4568 40.6087 24.1603 40.6876 23.625C40.9306 23.2789 41.0665 23.1723 41.4845 23.0977C41.8985 23.1716 42.0214 23.3001 42.2813 23.625C42.3766 23.7803 42.4706 23.9365 42.5626 24.0937C42.4659 19.7708 39.7618 15.6344 36.7929 12.702C35.7032 11.6853 34.4742 10.8671 33.1876 10.125C32.4537 9.68853 32.4537 9.68853 32.3438 9.46874C32.2905 8.80761 32.2905 8.80761 32.4845 8.48437C32.8086 8.28992 33.1036 8.29605 33.4688 8.34374ZM42.6563 24.1875C42.7501 24.375 42.7501 24.375 42.7501 24.375L42.6563 24.1875Z" fill="#FF7705"></path>
    <path d="M18.1171 42.2871C18.3254 42.6368 18.3527 42.8181 18.2812 43.2187C18.1171 43.4883 18.1171 43.4883 17.8124 43.6875C17.4374 43.7533 17.0677 43.7746 16.6874 43.7812C20.9572 45.8038 26.0748 45.7496 30.4745 44.1855C31.6904 43.7377 32.8771 43.1828 33.9617 42.4708C34.2068 42.3269 34.4043 42.2812 34.6874 42.2812C35.0183 42.4316 35.14 42.5383 35.3437 42.8437C35.3847 43.1133 35.3847 43.1133 35.3437 43.4062C33.4761 45.5185 29.7291 46.3425 27.0937 46.7812C27.022 46.7934 26.9503 46.8056 26.8764 46.8181C23.1589 47.4184 19.5367 46.6645 16.0312 45.4687C16.0649 45.5254 16.0987 45.5821 16.1335 45.6405C16.1769 45.7156 16.2204 45.7906 16.2652 45.8679C16.3086 45.942 16.352 46.0161 16.3968 46.0925C16.5498 46.4189 16.5205 46.6326 16.4062 46.9687C16.1792 47.2502 16.0242 47.2509 15.662 47.2969C15.3629 47.3111 15.2839 47.2523 15.0493 47.0541C14.794 46.76 14.5894 46.4522 14.3905 46.1191C14.1169 45.6682 13.8383 45.223 13.5431 44.7858C13.4873 44.7026 13.4316 44.6194 13.3741 44.5337C13.2644 44.3705 13.1537 44.2081 13.042 44.0464C12.5654 43.333 12.5654 43.333 12.6562 42.8437C12.8578 42.5308 12.9565 42.3999 13.3124 42.2812C13.5548 42.2604 13.7957 42.2438 14.0386 42.2311C14.1104 42.227 14.1823 42.223 14.2563 42.2189C14.4088 42.2104 14.5613 42.2021 14.7138 42.1941C14.9434 42.1818 15.173 42.1689 15.4026 42.1558C17.7083 42.0277 17.7083 42.0277 18.1171 42.2871Z" fill="#FF7705"></path>
    <path d="M13.5001 8.33369C13.7812 8.32486 14.0623 8.31915 14.3436 8.31446C14.4754 8.31028 14.4754 8.31028 14.6099 8.30601C14.9728 8.30285 15.2093 8.30218 15.5272 8.48621C15.7186 8.83147 15.7387 9.09147 15.6561 9.46876C15.4802 9.91404 15.2627 10.3344 15.0408 10.7578C14.983 10.8713 14.9254 10.9848 14.8678 11.0984C13.7913 13.2094 13.7913 13.2094 13.3123 13.5C13.0369 13.5469 13.0369 13.5469 12.7498 13.5C12.421 13.2641 12.2978 13.1281 12.2283 12.7266C12.2947 12.2844 12.4548 11.9275 12.6561 11.5313C10.373 13.294 8.51161 15.4095 7.21858 18C7.18199 18.0731 7.1454 18.1461 7.10771 18.2214C5.97032 20.5299 5.27345 23.0991 5.23664 25.6805C5.23483 25.7938 5.23302 25.9071 5.23115 26.0239C5.22795 26.2585 5.22626 26.4931 5.22602 26.7277C5.2066 27.6811 5.2066 27.6811 4.93781 27.9672C4.60316 28.178 4.41963 28.1944 4.03108 28.125C3.78598 27.9697 3.69511 27.9047 3.56233 27.6563C3.49446 27.2377 3.50505 26.8253 3.51545 26.4024C3.51815 26.2198 3.51815 26.2198 3.5209 26.0335C3.64075 20.7533 5.76544 15.9944 9.37483 12.1875C9.41968 12.14 9.46453 12.0924 9.51074 12.0434C10.1931 11.3251 10.9182 10.7085 11.7186 10.125C11.6496 10.1283 11.5806 10.1315 11.5095 10.1349C10.5698 10.161 10.5698 10.161 10.2186 9.84376C10.0378 9.60542 10.0302 9.48906 10.0428 9.18751C10.1416 8.84888 10.2067 8.72913 10.4998 8.53126C10.677 8.49715 10.677 8.49715 10.8825 8.47779C10.9578 8.47065 11.0331 8.46352 11.1107 8.45616C11.9062 8.39244 12.7026 8.36222 13.5001 8.33369Z" fill="#FF7705"></path>
    <path d="M6.09375 33.375C6.37142 33.5658 6.6053 33.7942 6.84375 34.0312C6.90768 34.0939 6.97161 34.1565 7.03748 34.2209C7.19317 34.3751 7.34726 34.5305 7.5 34.6875C7.87888 34.5376 8.12616 34.2669 8.40234 33.9785C8.97183 33.3888 8.97183 33.3888 9.4043 33.3398C9.75 33.375 9.75 33.375 10.0254 33.5684C10.2188 33.8438 10.2188 33.8438 10.2891 34.1543C10.1879 34.6516 9.91612 34.9005 9.5625 35.25C9.4999 35.3138 9.4373 35.3776 9.3728 35.4434C9.21877 35.5993 9.06335 35.7534 8.90625 35.9062C9.05618 36.2851 9.32687 36.5324 9.61523 36.8086C10.2052 37.3784 10.2052 37.3784 10.248 37.7637C10.2112 38.1396 10.1202 38.2767 9.84375 38.5312C9.52816 38.6387 9.36857 38.6673 9.06592 38.5206C8.74802 38.2987 8.48984 38.0413 8.2207 37.7637C8.16916 37.7113 8.11762 37.6589 8.06451 37.6049C7.93841 37.4766 7.81289 37.3477 7.6875 37.2188C7.27949 37.5601 6.89729 37.9084 6.5321 38.2954C6.36106 38.4501 6.21478 38.5413 6 38.625C5.68529 38.6084 5.44086 38.5895 5.16797 38.4258C4.99862 38.1435 4.9743 37.9215 4.96875 37.5938C5.21698 37.1595 5.52658 36.8245 5.88281 36.4805C5.93031 36.4338 5.9778 36.3872 6.02673 36.3391C6.14239 36.2256 6.25864 36.1128 6.375 36C6.06784 35.6314 5.75874 35.2907 5.4082 34.9629C5.1741 34.7306 5.06814 34.6089 4.95117 34.2949C4.97259 33.9736 5.0532 33.8155 5.25 33.5625C5.58867 33.3367 5.69426 33.3072 6.09375 33.375Z" fill="#FF7705"></path>
    <path d="M41.8838 32.1669C42.2997 32.5181 42.5781 32.9546 42.7495 33.4687C42.8079 34.2222 42.8413 34.9058 42.3745 35.5312C42.1778 35.7599 41.9973 35.9461 41.7366 36.0996C41.3665 36.318 41.3665 36.318 41.1825 36.6936C41.1571 36.8586 41.1328 37.0238 41.1096 37.1891C41.062 37.4062 41.062 37.4062 40.8511 37.6523C40.5381 37.8088 40.3759 37.8459 40.0308 37.7812C39.7612 37.6172 39.7612 37.6172 39.562 37.3125C39.4624 36.7088 39.5002 36.1342 39.8118 35.6005C40.0335 35.3119 40.3073 35.0971 40.5933 34.875C40.9881 34.5493 40.9881 34.5493 41.1089 34.0664C41.0844 33.7619 41.0844 33.7619 40.9565 33.5742C40.7087 33.4255 40.5058 33.3926 40.2183 33.375C39.9759 33.449 39.8781 33.5102 39.7378 33.7207C39.6452 33.954 39.6452 33.954 39.5679 34.2715C39.4226 34.7415 39.4226 34.7415 39.187 34.875C38.8129 34.9106 38.5572 34.9212 38.2085 34.7871C37.9632 34.4633 37.9455 34.149 37.9683 33.75C38.1022 33.0453 38.3936 32.5646 38.9541 32.1185C39.8988 31.511 40.9545 31.5557 41.8838 32.1669Z" fill="#FF7705"></path>
    <path d="M27.1875 4.96874C27.4629 5.1621 27.4629 5.1621 27.6562 5.43749C27.7159 5.80854 27.7099 6.00437 27.5156 6.32812C27.2733 6.57039 27.0227 6.79515 26.7623 7.01769C26.4807 7.2627 26.2072 7.51561 25.9336 7.76952C25.4929 8.1779 25.0497 8.58307 24.6021 8.98388C24.4404 9.12883 24.2793 9.27441 24.1187 9.4204C24.035 9.4963 23.9514 9.57219 23.8652 9.65038C23.7899 9.7189 23.7147 9.78743 23.6371 9.85803C23.3751 10.0854 23.2028 10.2105 22.8574 10.2715C22.3335 10.1942 22.1153 9.93074 21.75 9.56249C21.638 9.45266 21.526 9.34293 21.4138 9.23327C21.1774 9.00053 20.9415 8.76741 20.7074 8.53234C20.6577 8.48251 20.608 8.43269 20.5567 8.38135C20.3587 8.16315 20.3424 8.048 20.3145 7.74609C20.3438 7.40624 20.3438 7.40624 20.4961 7.18359C20.7715 6.99514 20.9475 6.9443 21.2812 6.93749C21.6877 7.13662 21.9839 7.43014 22.2949 7.75195C22.342 7.79986 22.3891 7.84778 22.4376 7.89715C22.5526 8.01434 22.667 8.13211 22.7812 8.24999C23.0003 8.06286 23.2191 7.87538 23.4375 7.68749C23.4928 7.64 23.5482 7.5925 23.6052 7.54357C24.0057 7.19678 24.3965 6.8403 24.7852 6.48046C25.1686 6.1255 25.5525 5.77105 25.9395 5.41991C26.0133 5.35284 26.0871 5.28577 26.1632 5.21667C26.4992 4.92971 26.7496 4.92421 27.1875 4.96874Z" fill="#FF7705"></path>
    <path d="M40.7812 38.1563C40.9629 38.2617 40.9629 38.2617 41.0625 38.4375C41.109 38.8027 41.1169 39.0089 40.916 39.3223C40.5968 39.5269 40.403 39.5285 40.0312 39.4688C39.7969 39.2754 39.7969 39.2754 39.6562 39C39.6562 38.6435 39.6753 38.4357 39.9023 38.1563C40.2266 38.0197 40.445 38.0707 40.7812 38.1563Z" fill="#FF7705"></path>
  </g>
  <defs>
    <clipPath id="clip0_3750_1144">
      <rect width="48" height="48" fill="white"></rect>
    </clipPath>
  </defs>
</svg>
