<?xml version="1.0" encoding="UTF-8"?>
<svg xmlns="http://www.w3.org/2000/svg" width="48" height="48" viewBox="0 0 48 48" fill="none">
  <g clip-path="url(#clip0_3796_155)">
    <path d="M37.3584 12.8272C37.4661 12.826 37.5737 12.8248 37.6846 12.8235C37.8014 12.8228 37.9182 12.8221 38.0385 12.8214C38.1581 12.8207 38.2776 12.8199 38.4008 12.8191C38.6541 12.8178 38.9074 12.8168 39.1607 12.8161C39.485 12.8151 39.8092 12.8118 40.1335 12.8081C40.443 12.8051 40.7525 12.8046 41.062 12.8038C41.2366 12.8014 41.2366 12.8014 41.4148 12.7989C41.5771 12.7993 41.5771 12.7993 41.7427 12.7997C41.8379 12.7992 41.9331 12.7986 42.0312 12.798C42.3586 12.8579 42.4522 12.9584 42.6565 13.2188C42.7026 13.4962 42.7026 13.4962 42.7016 13.8262C42.7019 13.887 42.7022 13.9478 42.7025 14.0105C42.7031 14.214 42.7011 14.4175 42.699 14.6211C42.6989 14.7671 42.699 14.9131 42.6992 15.059C42.6993 15.4553 42.6971 15.8516 42.6945 16.2479C42.6921 16.662 42.6919 17.0762 42.6915 17.4903C42.6903 18.2745 42.6872 19.0588 42.6835 19.843C42.6793 20.7358 42.6772 21.6286 42.6753 22.5215C42.6714 24.3581 42.6648 26.1947 42.6565 28.0313C42.7138 28.0582 42.7711 28.0852 42.8301 28.113C43.2475 28.3322 43.5636 28.7085 43.8957 29.038C44.0327 29.1731 44.1715 29.3061 44.3105 29.4392C44.3973 29.525 44.4841 29.6109 44.5736 29.6994C44.6532 29.7772 44.7328 29.8551 44.8148 29.9353C45.0423 30.2448 45.0769 30.4632 45.094 30.8438C44.9973 31.1342 44.9973 31.1342 44.8596 31.4121C44.6482 31.84 44.5926 32.0673 44.719 32.5313C44.8062 32.7772 44.9043 33.0175 45.0061 33.2578C45.2815 33.9145 45.2815 33.9145 45.2815 34.125C45.3426 34.1421 45.4038 34.1591 45.4668 34.1766C46.6518 34.5175 46.6518 34.5175 46.9348 34.8886C47.0949 35.2236 47.0991 35.4711 47.1001 35.8418C47.1005 35.939 47.1005 35.939 47.1009 36.0382C47.1011 36.1747 47.1006 36.3112 47.0994 36.4476C47.0979 36.6556 47.0994 36.8635 47.1012 37.0715C47.101 37.2046 47.1006 37.3377 47.1001 37.4707C47.0998 37.591 47.0994 37.7112 47.0991 37.8351C47.0603 38.1773 46.989 38.3533 46.7815 38.625C46.5449 38.7667 46.5449 38.7667 46.2776 38.877C46.146 38.9326 46.146 38.9326 46.0117 38.9894C45.7502 39.0938 45.7502 39.0938 45.5019 39.1557C45.1637 39.3484 45.0939 39.6563 44.9768 40.0078C44.9528 40.0738 44.9289 40.1398 44.9043 40.2078C44.6425 40.897 44.6425 40.897 44.7186 41.6045C44.7632 41.6886 44.8078 41.7727 44.8537 41.8594C45.0549 42.241 45.1758 42.5054 45.094 42.9375C44.9031 43.2146 44.6728 43.4477 44.4377 43.6875C44.374 43.756 44.3103 43.8245 44.2447 43.8951C44.0462 44.1081 43.844 44.3169 43.6408 44.5254C43.5395 44.6332 43.5395 44.6332 43.4361 44.7431C43.1299 45.0557 42.9238 45.2559 42.5016 45.39C42.151 45.3733 41.9328 45.2959 41.6194 45.1406C41.189 44.928 40.9671 44.8823 40.5002 45C40.3803 45.0273 40.2604 45.0546 40.1369 45.0828C39.4285 45.2685 39.4285 45.2685 38.8825 45.7222C38.7296 46.023 38.6339 46.3291 38.5446 46.6535C38.4249 47.0065 38.3833 47.077 38.0627 47.25C37.8015 47.2774 37.562 47.2895 37.301 47.2874C37.2275 47.2876 37.154 47.2879 37.0783 47.2882C36.9232 47.2884 36.7681 47.2879 36.6131 47.2867C36.376 47.2852 36.1391 47.2867 35.9021 47.2885C35.7512 47.2883 35.6003 47.2879 35.4494 47.2874C35.3787 47.2879 35.308 47.2885 35.2352 47.2891C34.9387 47.2851 34.7225 47.2688 34.4593 47.1268C34.2764 46.9296 34.2263 46.7281 34.1559 46.4724C33.9878 45.8837 33.9878 45.8837 33.584 45.445C33.1579 45.2361 32.7071 45.1218 32.2502 45C32.1863 44.9592 32.1224 44.9183 32.0565 44.8762C31.7985 44.7856 31.6446 44.8869 31.4077 45.0006C31.3512 45.0294 31.2948 45.0582 31.2365 45.0879C30.7333 45.3376 30.4557 45.4169 29.9065 45.2813C29.6355 45.0757 29.6355 45.0757 29.374 44.807C29.3273 44.7597 29.2806 44.7125 29.2324 44.6637C29.0847 44.5134 28.939 44.3613 28.7932 44.209C28.6932 44.107 28.5931 44.0051 28.4929 43.9034C27.6642 43.0568 27.6642 43.0568 27.6389 42.668C27.6563 42.3773 27.7178 42.2524 27.844 42C27.8121 41.7836 27.7542 41.633 27.6565 41.4375C27.6434 41.2983 27.6353 41.1586 27.6301 41.0189C27.6248 40.8948 27.6248 40.8948 27.6195 40.7683C27.6162 40.6817 27.613 40.5951 27.6096 40.5059C27.6031 40.3351 27.5963 40.1643 27.5891 39.9935C27.5862 39.9177 27.5834 39.8418 27.5805 39.7636C27.569 39.5452 27.569 39.5452 27.469 39.2813C27.2384 39.1756 27.0155 39.0849 26.7776 39C25.9698 38.7085 25.9698 38.7085 25.7815 38.4375C25.6096 37.9236 25.6667 37.3544 25.6652 36.8183C25.6643 36.6162 25.6614 36.4143 25.6584 36.2122C25.6578 36.083 25.6573 35.9538 25.657 35.8246C25.6561 35.7077 25.6552 35.5908 25.6543 35.4703C25.6903 35.1317 25.7658 34.9575 25.969 34.6875C26.1579 34.5696 26.1579 34.5696 26.3674 34.4883C26.4414 34.4581 26.5153 34.4279 26.5915 34.3967C26.7309 34.3437 26.8705 34.2913 27.0105 34.24C27.2083 34.1672 27.2083 34.1672 27.469 34.0313C27.6014 33.7067 27.5747 33.3586 27.575 33.0128C27.5752 32.9481 27.5754 32.8835 27.5756 32.8168C27.5762 32.6001 27.5761 32.3834 27.576 32.1667C27.5763 32.0113 27.5766 31.8559 27.577 31.7006C27.5777 31.366 27.5782 31.0313 27.5785 30.6967C27.5791 30.1677 27.5806 29.6387 27.5824 29.1096C27.583 28.9285 27.5836 28.7474 27.5842 28.5662C27.5845 28.4755 27.5848 28.3848 27.5851 28.2914C27.589 27.0597 27.5921 25.8281 27.5933 24.5965C27.5941 23.7656 27.5962 22.9347 27.5998 22.1039C27.6016 21.6642 27.6028 21.2245 27.6023 20.7848C27.6019 20.3713 27.6032 19.9579 27.6058 19.5445C27.6064 19.3927 27.6064 19.241 27.6058 19.0893C27.6049 18.8821 27.6064 18.675 27.6084 18.4678C27.6087 18.3519 27.6089 18.236 27.6091 18.1166C27.6653 17.756 27.778 17.6012 28.0315 17.3438C28.2699 17.2245 28.4392 17.2368 28.7061 17.2349C28.8587 17.2336 28.8587 17.2336 29.0143 17.2322C29.1247 17.2318 29.235 17.2314 29.3487 17.231C29.4618 17.2304 29.5749 17.2299 29.6914 17.2293C29.931 17.2285 30.1707 17.2278 30.4103 17.2275C30.777 17.2266 31.1436 17.2237 31.5103 17.2207C31.7429 17.2201 31.9755 17.2196 32.2081 17.2192C32.3179 17.2181 32.4277 17.2169 32.5408 17.2157C32.6434 17.216 32.7459 17.2163 32.8516 17.2166C32.9416 17.2163 33.0316 17.2159 33.1244 17.2156C33.4238 17.2567 33.6005 17.355 33.844 17.5313C33.9501 17.7436 33.9505 17.8614 33.9525 18.0972C33.9535 18.1764 33.9544 18.2555 33.9553 18.337C33.9559 18.424 33.9564 18.511 33.957 18.6006C33.9579 18.6921 33.9588 18.7836 33.9598 18.8778C33.9627 19.1812 33.9651 19.4845 33.9674 19.7879C33.9693 19.9978 33.9713 20.2077 33.9733 20.4176C33.9785 20.9709 33.9831 21.5242 33.9876 22.0775C33.9923 22.6418 33.9975 23.2061 34.0027 23.7704C34.0128 24.8782 34.0223 25.986 34.0315 27.0938C34.0531 27.0361 34.0747 26.9785 34.097 26.9191C34.3437 26.3077 34.3437 26.3077 34.6156 26.0578C34.9642 25.9383 35.2912 25.9385 35.6545 25.9512C35.7239 25.9525 35.7934 25.9537 35.8649 25.955C36.035 25.9583 36.2051 25.9634 36.3752 25.9688C36.375 25.9045 36.3747 25.8401 36.3744 25.7739C36.3682 24.209 36.3636 22.6441 36.3606 21.0792C36.3592 20.3224 36.3572 19.5657 36.354 18.8089C36.3512 18.1493 36.3494 17.4897 36.3488 16.8301C36.3484 16.4808 36.3475 16.1316 36.3455 15.7823C36.3432 15.3924 36.3432 15.0026 36.3433 14.6127C36.3423 14.4969 36.3413 14.3811 36.3402 14.2618C36.3406 14.1555 36.341 14.0491 36.3414 13.9396C36.3411 13.8473 36.3409 13.7551 36.3406 13.6601C36.3817 13.3589 36.4788 13.1822 36.6565 12.9375C36.9013 12.8151 37.0843 12.8298 37.3584 12.8272ZM37.969 14.4375C37.9584 15.9451 37.9497 17.4527 37.9447 18.9604C37.9423 19.6604 37.939 20.3604 37.9336 21.0604C37.9289 21.6706 37.9259 22.2807 37.9249 22.8909C37.9242 23.214 37.9228 23.537 37.9194 23.86C37.9156 24.2208 37.9155 24.5814 37.9157 24.9422C37.9141 25.0492 37.9124 25.1562 37.9106 25.2665C37.906 25.8559 37.906 25.8559 38.2013 26.349C38.2793 26.4092 38.3573 26.4693 38.4377 26.5313C38.5234 26.8173 38.5234 26.8173 38.5901 27.1231C38.746 27.5729 38.9049 27.7799 39.3192 27.9961C40.1612 28.375 40.1612 28.375 41.0627 28.5C41.0627 23.8594 41.0627 19.2188 41.0627 14.4375C40.0418 14.4375 39.0208 14.4375 37.969 14.4375ZM29.2502 18.8438C29.2502 22.0922 29.2502 25.3406 29.2502 28.6875C29.4668 28.5019 29.6833 28.3163 29.9065 28.125C30.17 27.9932 30.3636 28.011 30.6565 28.0313C30.9172 28.1371 30.9172 28.1371 31.1721 28.2715C31.5034 28.4318 31.6538 28.5012 32.0276 28.4883C32.243 28.4266 32.243 28.4266 32.344 28.3125C32.3529 28.0185 32.3557 27.7267 32.3546 27.4327C32.3546 27.3403 32.3546 27.2479 32.3546 27.1528C32.3546 26.8459 32.3539 26.539 32.3531 26.2321C32.3529 26.0199 32.3528 25.8078 32.3527 25.5956C32.3524 25.036 32.3514 24.4763 32.3504 23.9167C32.3494 23.3462 32.349 22.7756 32.3485 22.205C32.3475 21.0846 32.3459 19.9642 32.344 18.8438C31.323 18.8438 30.3021 18.8438 29.2502 18.8438ZM35.6252 27.5625C35.5946 27.6315 35.5641 27.7005 35.5326 27.7716C35.4916 27.8631 35.4506 27.9546 35.4084 28.0488C35.3682 28.1391 35.3279 28.2294 35.2865 28.3224C35.2436 28.4119 35.2007 28.5015 35.1565 28.5938C35.1201 28.6767 35.0837 28.7596 35.0462 28.845C34.8023 29.1553 34.5016 29.2284 34.1369 29.3379C33.5004 29.5426 32.9218 29.783 32.3282 30.0934C31.932 30.2338 31.6525 30.1596 31.2739 29.996C31.135 29.9241 30.9964 29.8518 30.8579 29.7792C30.6591 29.6993 30.6591 29.6993 30.4712 29.7748C30.2317 29.9408 30.0391 30.1309 29.8362 30.3399C29.7238 30.4548 29.7238 30.4548 29.6091 30.572C29.5525 30.6308 29.496 30.6895 29.4377 30.75C29.4805 30.8809 29.5235 31.0118 29.5666 31.1426C29.592 31.2199 29.6174 31.2973 29.6435 31.377C29.718 31.6028 29.718 31.6028 29.8362 31.8457C30.0037 32.3623 29.7318 32.8357 29.5022 33.293C29.2802 33.7422 29.1121 34.1647 28.9865 34.6524C28.8887 34.9681 28.8331 35.1163 28.5702 35.32C28.3315 35.4398 28.0945 35.5332 27.844 35.625C27.6583 35.7178 27.4727 35.8106 27.2815 35.9063C27.2815 36.4013 27.2815 36.8963 27.2815 37.4063C27.4574 37.4739 27.6334 37.5416 27.8147 37.6113C28.2691 37.7861 28.5651 37.9639 28.8752 38.3438C29.0038 38.6576 29.0038 38.6576 29.1037 39.0059C29.2479 39.4882 29.4177 39.915 29.6604 40.3594C29.83 40.6868 29.9055 40.8472 29.9182 41.2207C29.8044 41.5556 29.664 41.8647 29.4981 42.1769C29.4183 42.3728 29.4183 42.3728 29.4937 42.5599C29.6596 42.7997 29.8498 42.9922 30.0588 43.1953C30.1354 43.2703 30.212 43.3452 30.291 43.4224C30.3497 43.4789 30.4085 43.5355 30.469 43.5938C30.6019 43.5512 30.7347 43.5081 30.8674 43.4649C30.9414 43.4409 31.0153 43.417 31.0915 43.3923C31.3127 43.3183 31.3127 43.3183 31.5083 43.2096C31.8272 43.0592 32.1128 43.1232 32.4377 43.2188C32.7094 43.345 32.9755 43.4789 33.2402 43.6193C33.695 43.8578 34.1517 44.0182 34.6478 44.1544C35.021 44.3113 35.1215 44.5491 35.2865 44.9077C35.4558 45.3289 35.4558 45.3289 35.6252 45.75C36.1202 45.75 36.6152 45.75 37.1252 45.75C37.1968 45.5895 37.2683 45.429 37.342 45.2637C37.4235 45.0809 37.5075 44.8992 37.594 44.7188C37.6302 44.6359 37.6665 44.553 37.7038 44.4675C37.9491 44.1562 38.253 44.084 38.6194 43.9746C39.1377 43.8086 39.6104 43.6279 40.0901 43.3652C40.4145 43.1971 40.569 43.1259 40.9397 43.1133C41.2746 43.227 41.5836 43.3675 41.8958 43.5333C42.0917 43.6132 42.0917 43.6132 42.2789 43.5377C42.5187 43.3719 42.7112 43.1817 42.9143 42.9727C42.9892 42.896 43.0641 42.8194 43.1413 42.7405C43.1979 42.6818 43.2544 42.623 43.3127 42.5625C43.2699 42.4316 43.2269 42.3007 43.1838 42.1699C43.1584 42.0925 43.1331 42.015 43.1069 41.9352C43.0329 41.7104 43.0329 41.7104 42.9143 41.4727C42.7814 41.0518 42.9014 40.6749 43.0772 40.2821C43.1337 40.1781 43.1901 40.074 43.2483 39.9668C43.5213 39.4521 43.7184 38.9478 43.8734 38.3837C44.0302 38.0105 44.268 37.9099 44.6267 37.745C45.0478 37.5756 45.0478 37.5756 45.469 37.4063C45.469 36.9113 45.469 36.4163 45.469 35.9063C45.3433 35.8521 45.2176 35.798 45.0881 35.7422C44.9324 35.6751 44.7782 35.6043 44.6252 35.5313C44.5133 35.4805 44.4014 35.4297 44.2861 35.3775C43.8842 35.1434 43.8022 34.8375 43.6819 34.4063C43.5211 33.8879 43.347 33.4197 43.0842 32.9414C42.916 32.617 42.8448 32.4624 42.8322 32.0918C42.946 31.7569 43.0865 31.4479 43.2523 31.1356C43.3321 30.9397 43.3321 30.9397 43.2567 30.7526C43.0908 30.5128 42.9007 30.3203 42.6916 30.1172C42.5767 30.0048 42.5767 30.0048 42.4594 29.8901C42.4007 29.8336 42.342 29.777 42.2815 29.7188C42.1505 29.7615 42.0197 29.8046 41.8889 29.8477C41.8115 29.873 41.7342 29.8984 41.6545 29.9246C41.4287 29.9991 41.4287 29.9991 41.1858 30.1172C40.6328 30.2965 40.1177 29.9735 39.633 29.7305C39.1813 29.5087 38.7522 29.3092 38.2619 29.1856C37.8961 29.0854 37.8961 29.0854 37.6994 28.8692C37.6646 28.7783 37.6298 28.6874 37.594 28.5938C37.5276 28.4297 37.4612 28.2656 37.3947 28.1016C37.348 27.979 37.348 27.979 37.3003 27.854C37.2358 27.661 37.2358 27.661 37.1252 27.5625C36.8724 27.5556 36.6221 27.5538 36.3694 27.5567C36.2627 27.5573 36.2627 27.5573 36.1538 27.5579C35.9776 27.559 35.8014 27.5607 35.6252 27.5625Z" fill="#FF7705"></path>
    <path d="M19.8573 21.6908C19.9668 21.6897 20.0763 21.6885 20.1891 21.6873C20.307 21.6885 20.4249 21.6898 20.5464 21.6911C20.6677 21.6908 20.7891 21.6906 20.9141 21.6904C21.1707 21.6901 21.4272 21.6915 21.6838 21.6941C22.0124 21.6972 22.3407 21.6967 22.6693 21.6949C22.9831 21.6937 23.2969 21.6954 23.6108 21.6969C23.7876 21.6962 23.7876 21.6962 23.968 21.6955C24.0775 21.697 24.187 21.6985 24.2998 21.7C24.4443 21.7009 24.4443 21.7009 24.5916 21.7018C24.9251 21.7655 25.0158 21.8535 25.2192 22.125C25.256 22.3967 25.2699 22.6327 25.2668 22.9043C25.2674 22.9836 25.268 23.0629 25.2686 23.1446C25.2701 23.4108 25.2689 23.6769 25.2677 23.9431C25.2682 24.1337 25.2689 24.3243 25.2697 24.515C25.2714 25.0331 25.2708 25.5512 25.2696 26.0694C25.2686 26.6111 25.2695 27.1528 25.2701 27.6945C25.2708 28.6043 25.2699 29.5141 25.2681 30.4239C25.266 31.4765 25.2667 32.5289 25.2688 33.5815C25.2705 34.4844 25.2707 35.3874 25.2697 36.2903C25.2692 36.8299 25.2691 37.3695 25.2703 37.9091C25.2714 38.4164 25.2706 38.9236 25.2685 39.4309C25.268 39.6172 25.2681 39.8036 25.269 39.99C25.27 40.2441 25.2687 40.4979 25.2668 40.752C25.2677 40.8261 25.2685 40.9003 25.2694 40.9767C25.2646 41.3101 25.2479 41.4943 25.0404 41.7616C24.7283 41.9917 24.5524 42.0121 24.168 42.0136C24.015 42.0145 24.015 42.0145 23.8589 42.0154C23.693 42.0156 23.693 42.0156 23.5236 42.0158C23.4104 42.0161 23.2971 42.0164 23.1803 42.0167C22.9403 42.0172 22.7002 42.0174 22.4602 42.0174C22.0925 42.0176 21.7248 42.0193 21.3571 42.0211C21.1242 42.0213 20.8913 42.0215 20.6584 42.0216C20.5481 42.0223 20.4379 42.023 20.3243 42.0237C20.2217 42.0234 20.1191 42.0231 20.0134 42.0228C19.9232 42.0229 19.833 42.0231 19.74 42.0232C19.4833 41.9983 19.3372 41.9592 19.1255 41.8125C18.8794 41.4613 18.9113 41.0775 18.9129 40.666C18.9125 40.5875 18.912 40.509 18.9116 40.4282C18.9104 40.1648 18.9106 39.9015 18.9107 39.6382C18.9102 39.4495 18.9095 39.2609 18.9088 39.0722C18.9071 38.5595 18.9067 38.0468 18.9066 37.5341C18.9064 37.1063 18.9057 36.6786 18.9051 36.2508C18.9035 35.2418 18.9031 34.2328 18.9032 33.2238C18.9033 32.1823 18.9013 31.1408 18.8984 30.0992C18.8959 29.2055 18.8949 28.3118 18.895 27.4181C18.8951 26.8841 18.8946 26.3501 18.8926 25.8161C18.8908 25.314 18.8907 24.8119 18.8921 24.3098C18.8923 24.1254 18.8919 23.941 18.8907 23.7567C18.8893 23.5051 18.8901 23.2537 18.8916 23.0022C18.8906 22.9291 18.8897 22.8559 18.8887 22.7805C18.8931 22.4348 18.9278 22.2351 19.1126 21.9391C19.3714 21.6949 19.5049 21.6912 19.8573 21.6908ZM20.5317 23.25C20.5317 28.9116 20.5317 34.5731 20.5317 40.4063C21.5526 40.4063 22.5736 40.4063 23.6255 40.4063C23.6255 34.7447 23.6255 29.0831 23.6255 23.25C22.6045 23.25 21.5836 23.25 20.5317 23.25Z" fill="#FF7705"></path>
    <path d="M32.2593 8.33248C32.4502 8.32211 32.6409 8.31511 32.8319 8.30897C32.9432 8.30432 33.0545 8.29968 33.1691 8.29489C33.5634 8.35919 33.6973 8.49951 33.9375 8.81251C34.1309 9.51514 33.8597 10.4352 33.7527 11.1517C33.7206 11.3679 33.6903 11.5843 33.6601 11.8008C33.6398 11.94 33.6193 12.0791 33.5988 12.2183C33.59 12.2821 33.5812 12.346 33.5721 12.4118C33.5093 12.8194 33.3994 13.1459 33.1875 13.5C32.9295 13.6562 32.7786 13.6904 32.4785 13.6758C32.1689 13.5646 32.0557 13.4999 31.875 13.2188C31.8018 12.5954 31.8876 11.9628 31.9687 11.3438C31.913 11.3949 31.8573 11.446 31.7999 11.4987C31.2156 12.0303 30.6141 12.5346 30 13.0313C29.8418 13.1621 29.6836 13.293 29.5254 13.4238C27.7472 14.8767 25.9044 16.2484 24 17.5313C23.9009 17.5983 23.9009 17.5983 23.7999 17.6666C20.6668 19.7835 17.4017 21.757 14.0046 23.4221C13.6918 23.5755 13.3815 23.7333 13.0715 23.8923C10.2607 25.3288 7.35413 26.5319 4.40625 27.6563C4.3431 27.6804 4.27995 27.7045 4.21489 27.7293C3.8264 27.8772 3.43702 28.0225 3.04687 28.166C2.95351 28.2009 2.86015 28.2357 2.76395 28.2716C1.96367 28.5597 1.96367 28.5597 1.5 28.5C1.17971 28.315 1.05725 28.2014 0.9375 27.8496C0.9375 27.4869 0.975812 27.3653 1.21875 27.0938C1.93383 26.7433 2.68603 26.4813 3.43186 26.2046C5.18586 25.5522 6.91025 24.8426 8.625 24.0938C8.7126 24.0558 8.8002 24.0178 8.89046 23.9787C11.93 22.6587 14.8987 21.1524 17.7475 19.4618C17.9721 19.329 18.1974 19.1976 18.4233 19.0671C22.1954 16.8847 25.8496 14.3296 29.1581 11.4884C29.5198 11.1798 29.8885 10.8807 30.2585 10.582C30.4328 10.4363 30.591 10.2867 30.75 10.125C30.5738 10.1315 30.5738 10.1315 30.394 10.1382C30.2393 10.1417 30.0845 10.1451 29.9297 10.1484C29.8523 10.1516 29.775 10.1547 29.6953 10.158C29.1215 10.1672 29.1215 10.1672 28.8267 9.95618C28.6281 9.66202 28.5937 9.4473 28.5937 9.09376C28.7593 8.83108 28.8779 8.67045 29.1562 8.53126C29.3574 8.51018 29.5591 8.49438 29.7609 8.48109C29.8218 8.47706 29.8827 8.47303 29.9454 8.46888C30.0752 8.46041 30.205 8.45215 30.3348 8.44408C30.5283 8.43196 30.7216 8.41895 30.915 8.40583C31.2332 8.38486 31.5515 8.36753 31.87 8.35284C31.9998 8.34671 32.1296 8.33991 32.2593 8.33248Z" fill="#FF7705"></path>
    <path d="M11.2699 26.6114C11.3719 26.6108 11.4739 26.6102 11.579 26.6096C11.6897 26.6095 11.8003 26.6094 11.9143 26.6092C12.0276 26.6089 12.1409 26.6086 12.2576 26.6083C12.4977 26.6078 12.7377 26.6076 12.9778 26.6076C13.3455 26.6074 13.7131 26.6057 14.0808 26.6039C14.3137 26.6037 14.5466 26.6035 14.7796 26.6034C14.8898 26.6027 15.0001 26.602 15.1137 26.6013C15.2676 26.6018 15.2676 26.6018 15.4246 26.6022C15.5599 26.602 15.5599 26.602 15.6979 26.6018C15.9547 26.6267 16.1008 26.6659 16.3125 26.8125C16.5189 27.1304 16.5236 27.3972 16.5238 27.7711C16.5243 27.8909 16.5249 28.0108 16.5254 28.1343C16.5251 28.2669 16.5247 28.3996 16.5243 28.5322C16.5245 28.6721 16.5249 28.8119 16.5253 28.9517C16.5261 29.3314 16.5258 29.711 16.5252 30.0907C16.5247 30.4879 16.5252 30.8851 16.5255 31.2823C16.5258 31.9493 16.5253 32.6164 16.5245 33.2834C16.5234 34.0548 16.5238 34.8261 16.5248 35.5974C16.5256 36.2595 16.5258 36.9216 16.5253 37.5837C16.525 37.9793 16.5249 38.3748 16.5256 38.7703C16.5261 39.1421 16.5257 39.5139 16.5246 39.8857C16.5244 40.0222 16.5245 40.1587 16.5249 40.2952C16.5254 40.4815 16.5246 40.6677 16.5238 40.8539C16.5237 40.9582 16.5237 41.0624 16.5236 41.1699C16.5001 41.4365 16.4571 41.5897 16.3125 41.8125C16.0233 42.0121 15.7749 42.0241 15.429 42.0257C15.3274 42.0266 15.2257 42.0275 15.1209 42.0285C15.0115 42.0284 14.9021 42.0283 14.7894 42.0282C14.6766 42.0286 14.5638 42.029 14.4476 42.0294C14.2091 42.03 13.9705 42.03 13.732 42.0296C13.367 42.0293 13.002 42.0315 12.637 42.0339C12.4053 42.0341 12.1735 42.0342 11.9418 42.0341C11.8326 42.0349 11.7234 42.0358 11.6109 42.0367C11.5089 42.0361 11.4069 42.0355 11.3019 42.0349C11.2124 42.035 11.123 42.035 11.0309 42.0351C10.7325 41.9931 10.5553 41.8943 10.3125 41.7187C10.1833 41.4604 10.2061 41.2524 10.205 40.9631C10.2043 40.8419 10.2036 40.7207 10.2029 40.5959C10.2027 40.4608 10.2024 40.3257 10.2022 40.1906C10.2016 40.0489 10.201 39.9073 10.2003 39.7656C10.1987 39.3802 10.1977 38.9947 10.1969 38.6092C10.1964 38.3685 10.1959 38.1279 10.1953 37.8872C10.1935 37.1345 10.1921 36.3819 10.1914 35.6292C10.1904 34.7597 10.188 33.8901 10.1842 33.0205C10.1814 32.3489 10.18 31.6772 10.1797 31.0056C10.1794 30.6042 10.1786 30.2028 10.1762 29.8014C10.1741 29.4239 10.1737 29.0464 10.1746 28.6689C10.1747 28.5303 10.1741 28.3917 10.1728 28.253C10.1711 28.0639 10.172 27.8748 10.173 27.6857C10.1728 27.5798 10.1726 27.4739 10.1724 27.3648C10.2292 27.0327 10.3338 26.9257 10.5938 26.7187C10.8329 26.5992 11.0022 26.6124 11.2699 26.6114ZM11.8125 28.2187C11.8125 32.2406 11.8125 36.2625 11.8125 40.4062C12.8334 40.4062 13.8544 40.4062 14.9063 40.4062C14.9063 36.3844 14.9063 32.3625 14.9063 28.2187C13.8853 28.2187 12.8644 28.2187 11.8125 28.2187Z" fill="#FF7705"></path>
    <path d="M39.563 0.691406C39.6403 0.690198 39.7177 0.688989 39.7974 0.687744C40.1351 0.777458 40.3109 0.935323 40.5005 1.21875C40.6757 1.59108 40.8144 1.97366 40.9517 2.36133C40.9898 2.46496 41.0279 2.56859 41.0672 2.67535C41.3443 3.43663 41.3443 3.43663 41.3443 3.65625C41.4305 3.65516 41.5168 3.65407 41.6057 3.65295C44.1059 3.63513 44.1059 3.63513 44.6255 4.125C44.7915 4.45691 44.7774 4.79464 44.7193 5.15625C44.2315 5.93089 43.3166 6.52885 42.563 7.03125C42.5879 7.13083 42.6128 7.23041 42.6384 7.33301C42.8377 8.12988 42.8377 8.12988 42.8875 8.33045C42.9213 8.46479 42.9557 8.59897 42.9909 8.73296C43.1129 9.20297 43.2184 9.64194 43.1255 10.125C42.8419 10.4832 42.6355 10.6663 42.1821 10.7241C41.685 10.6748 41.3801 10.4662 40.9693 10.1953C40.8248 10.103 40.6802 10.0107 40.5357 9.91846C40.4669 9.87404 40.3981 9.82963 40.3273 9.78387C40.0465 9.60631 39.7592 9.44321 39.4693 9.28125C39.4106 9.32052 39.3519 9.35979 39.2915 9.40025C39.0266 9.57749 38.7616 9.75457 38.4966 9.93164C38.4043 9.99345 38.3119 10.0553 38.2168 10.119C38.1286 10.1779 38.0404 10.2368 37.9495 10.2975C37.8272 10.3792 37.8272 10.3792 37.7025 10.4626C37.3345 10.7015 37.0993 10.7175 36.6568 10.6875C36.325 10.5327 36.2058 10.4329 36.0005 10.125C35.8985 9.42224 36.0836 8.76612 36.2818 8.09766C36.322 7.95644 36.322 7.95644 36.3631 7.81238C36.4286 7.58291 36.4953 7.35383 36.563 7.125C36.0535 6.66422 35.5358 6.22173 34.9938 5.79932C34.4308 5.33645 34.4308 5.33645 34.3189 4.93359C34.3121 4.53846 34.3726 4.35635 34.5943 4.03125C35.4334 3.42483 36.7807 3.64468 37.7818 3.65625C37.8001 3.55446 37.8001 3.55446 37.8188 3.45062C37.9117 3.01953 38.0728 2.61546 38.2271 2.20312C38.2585 2.11527 38.2899 2.02741 38.3223 1.93689C38.5557 1.3136 38.7988 0.679465 39.563 0.691406ZM39.4693 3.46875C39.4198 3.61613 39.4198 3.61613 39.3693 3.76648C39.3227 3.8958 39.2759 4.02507 39.229 4.1543C39.2077 4.21901 39.1864 4.28373 39.1644 4.3504C39.0267 4.72044 38.9513 4.84869 38.5991 5.05664C38.2571 5.15437 37.9548 5.20242 37.6001 5.2207C37.4393 5.22995 37.4393 5.22995 37.2753 5.23938C37.1547 5.24464 37.1547 5.24464 37.0318 5.25C37.2608 5.48558 37.4787 5.70321 37.7466 5.89453C38.0231 6.14195 38.1615 6.39408 38.2505 6.75C38.2448 7.02314 38.1908 7.27593 38.1275 7.54102C38.1128 7.6096 38.0981 7.67818 38.083 7.74884C38.0468 7.91629 38.0083 8.08321 37.9693 8.25C38.2777 8.13598 38.5292 8.00812 38.7954 7.81641C39.1013 7.62578 39.3574 7.51334 39.7296 7.53333C40.1151 7.64511 40.428 7.88433 40.7517 8.1156C40.8235 8.15995 40.8953 8.2043 40.9693 8.25C41.0311 8.21906 41.093 8.18813 41.1568 8.15625C41.1365 8.08833 41.1161 8.02041 41.0952 7.95044C40.7622 6.79405 40.7622 6.79405 41.0103 6.28711C41.2834 5.96074 41.5805 5.72682 41.9229 5.47668C41.9794 5.43282 42.036 5.38895 42.0943 5.34375C42.0943 5.31281 42.0943 5.28188 42.0943 5.25C42.0139 5.2465 41.9335 5.24299 41.8507 5.23938C40.6221 5.16874 40.6221 5.16874 40.2193 4.875C40.0742 4.5933 39.9616 4.31286 39.8574 4.01367C39.7558 3.76314 39.6745 3.6386 39.4693 3.46875Z" fill="#FF7705"></path>
    <path d="M39.8523 32.3712C40.9022 33.2771 41.6401 34.5143 41.8126 35.9062C41.9039 37.5539 41.5752 39.0434 40.4942 40.3418C39.4135 41.4575 37.9873 42.0936 36.4337 42.123C34.9012 42.1246 33.5581 41.5676 32.4402 40.5143C31.3241 39.3294 30.8719 37.8795 30.9149 36.2801C31.0058 34.7828 31.7036 33.439 32.8126 32.4375C34.914 30.792 37.7228 30.7909 39.8523 32.3712ZM33.8438 33.75C33.7861 33.7992 33.7283 33.8484 33.6688 33.899C32.9641 34.5417 32.5842 35.4143 32.5108 36.3574C32.4743 37.5498 32.8648 38.5439 33.6563 39.4394C34.4768 40.2139 35.5434 40.5332 36.645 40.5198C37.6541 40.4516 38.62 39.9453 39.3125 39.2117C40.041 38.2255 40.3155 37.2138 40.2188 36C40.0633 35.2643 39.7822 34.6826 39.2813 34.125C39.2322 34.0672 39.183 34.0095 39.1323 33.9499C38.5153 33.2734 37.6499 32.8628 36.7387 32.7887C35.6135 32.7505 34.6885 32.9912 33.8438 33.75Z" fill="#FF7705"></path>
    <path d="M2.4101 31.3563C2.57109 31.354 2.57109 31.354 2.73532 31.3518C2.85085 31.3522 2.96639 31.3527 3.08542 31.3532C3.20447 31.3526 3.32352 31.352 3.44617 31.3514C3.69801 31.3507 3.9497 31.3509 4.20152 31.3522C4.52352 31.3538 4.84538 31.3516 5.16737 31.3483C5.47534 31.3458 5.7833 31.3467 6.09128 31.3473C6.26429 31.3454 6.26429 31.3454 6.4408 31.3435C6.60223 31.3453 6.60223 31.3453 6.76691 31.3471C6.86134 31.3472 6.95576 31.3473 7.05305 31.3474C7.43033 31.4327 7.55904 31.5596 7.78207 31.875C7.84895 32.1833 7.8452 32.4841 7.84124 32.7986C7.84191 32.8912 7.84258 32.9838 7.84327 33.0792C7.84486 33.3848 7.84304 33.6904 7.84103 33.9961C7.84111 34.2087 7.84134 34.4213 7.84172 34.6339C7.84199 35.0793 7.84061 35.5247 7.83804 35.9702C7.83484 36.5411 7.8354 37.112 7.83716 37.6829C7.83815 38.1219 7.83731 38.5608 7.83591 38.9998C7.83542 39.2103 7.83546 39.4208 7.83605 39.6313C7.83656 39.9256 7.83465 40.2197 7.83208 40.5139C7.8327 40.6009 7.83331 40.6879 7.83394 40.7775C7.82809 41.172 7.81642 41.3826 7.60317 41.7238C7.30312 42.003 7.13355 42.0123 6.7324 42.0151C6.63069 42.016 6.52899 42.0169 6.4242 42.0178C6.31385 42.0182 6.20351 42.0186 6.08981 42.0191C5.92021 42.0199 5.92021 42.0199 5.74717 42.0207C5.50751 42.0216 5.26785 42.0222 5.02819 42.0225C4.66152 42.0234 4.29491 42.0264 3.92825 42.0293C3.69565 42.0299 3.46304 42.0304 3.23044 42.0308C3.12066 42.0319 3.01088 42.0331 2.89777 42.0343C2.79518 42.034 2.69259 42.0337 2.58689 42.0334C2.4969 42.0338 2.4069 42.0341 2.31418 42.0345C2.01473 41.9933 1.83806 41.8951 1.59457 41.7188C1.48684 41.5033 1.48837 41.3807 1.48703 41.1411C1.48636 41.0593 1.48569 40.9776 1.48499 40.8934C1.48474 40.8034 1.48449 40.7135 1.48423 40.6209C1.48361 40.5264 1.483 40.4319 1.48236 40.3345C1.48051 40.0208 1.47942 39.707 1.47849 39.3933C1.4781 39.2864 1.47772 39.1795 1.47733 39.0693C1.47537 38.5036 1.47403 37.9378 1.47315 37.3721C1.47211 36.7867 1.46889 36.2014 1.46517 35.6161C1.46272 35.1668 1.46193 34.7176 1.46159 34.2683C1.46114 34.0525 1.46004 33.8367 1.45831 33.6208C1.45604 33.3192 1.45611 33.0176 1.45676 32.7159C1.45556 32.6264 1.45436 32.5368 1.45312 32.4446C1.45785 31.8478 1.45785 31.8478 1.65769 31.5385C1.9275 31.3749 2.09513 31.3582 2.4101 31.3563ZM3.09457 33C3.09457 35.4441 3.09457 37.8881 3.09457 40.4063C4.11551 40.4063 5.13645 40.4063 6.18832 40.4063C6.18832 37.9622 6.18832 35.5181 6.18832 33C5.16739 33 4.14645 33 3.09457 33Z" fill="#FF7705"></path>
  </g>
  <defs>
    <clipPath id="clip0_3796_155">
      <rect width="48" height="48" fill="white"></rect>
    </clipPath>
  </defs>
</svg>
