<?xml version="1.0" encoding="UTF-8"?>
<svg xmlns="http://www.w3.org/2000/svg" width="48" height="48" viewBox="0 0 48 48" fill="none">
  <path d="M27.9358 22.6098C29.2199 23.7038 29.8312 25.2113 29.9851 26.867C30.1254 28.9352 29.6001 30.9826 28.2468 32.5924C27.638 33.2814 26.8514 33.9246 25.9692 34.2187C26.0702 34.2403 26.1711 34.2619 26.275 34.2842C28.3293 34.7373 30.2575 35.5206 31.5942 37.2187C31.882 37.0871 32.1363 36.9212 32.3974 36.7432C33.453 36.0307 34.5641 35.6088 35.813 35.3437C35.7494 35.3072 35.6859 35.2707 35.6204 35.2331C34.0286 34.2762 33.0814 32.9227 32.6255 31.1249C32.2734 29.4312 32.413 27.6186 33.3114 26.1086C34.0842 24.9646 35.1515 24.2574 36.5001 23.9502C38.1343 23.663 39.7844 23.8836 41.1923 24.7642C42.3348 25.5696 42.9075 26.7451 43.1995 28.0909C43.4982 29.965 43.2199 31.904 42.0942 33.4687C41.4737 34.2422 40.8145 34.8786 39.938 35.3437C40.0707 35.3761 40.0707 35.3761 40.2061 35.4092C42.2151 35.9133 44.0024 36.8059 45.1763 38.5781C46.0669 40.0852 46.3789 41.5544 46.3619 43.2848C46.3598 43.5333 46.3619 43.7815 46.3643 44.03C46.364 44.1889 46.3635 44.3478 46.3628 44.5066C46.3636 44.5805 46.3643 44.6543 46.3651 44.7303C46.3564 45.2333 46.3564 45.2333 46.1681 45.4411C45.8505 45.6085 45.558 45.6012 45.2077 45.5978C45.0961 45.5984 45.0961 45.5984 44.9822 45.5991C44.7314 45.6001 44.4806 45.5991 44.2298 45.5981C44.0487 45.5985 43.8677 45.5989 43.6867 45.5995C43.188 45.6007 42.6893 45.6001 42.1906 45.5992C41.6533 45.5986 41.116 45.5995 40.5787 45.6003C39.5256 45.6016 38.4725 45.6013 37.4194 45.6005C36.5638 45.5998 35.7081 45.5998 34.8525 45.6001C34.6701 45.6001 34.6701 45.6001 34.484 45.6002C34.237 45.6003 33.99 45.6004 33.743 45.6005C31.4908 45.6012 29.2387 45.6004 26.9866 45.599C24.9298 45.5976 22.8729 45.5977 20.8161 45.5991C18.5064 45.6006 16.1966 45.6012 13.8869 45.6003C13.6407 45.6002 13.3946 45.6002 13.1485 45.6001C13.0274 45.6 12.9062 45.6 12.7815 45.5999C11.9265 45.5997 11.0716 45.6001 10.2167 45.6008C9.17528 45.6015 8.13392 45.6013 7.09254 45.5998C6.56086 45.5991 6.02918 45.5988 5.4975 45.5997C5.01129 45.6006 4.5251 45.6001 4.03889 45.5986C3.8625 45.5983 3.68611 45.5985 3.50972 45.5991C3.27089 45.6 3.03213 45.5991 2.79331 45.5978C2.72401 45.5985 2.65471 45.5991 2.58331 45.5998C2.29505 45.5966 2.08984 45.5766 1.83289 45.4411C1.59028 45.1733 1.63467 44.8496 1.63819 44.5066C1.63784 44.4294 1.63748 44.3522 1.63711 44.2727C1.63685 44.1086 1.63755 43.9444 1.63911 43.7802C1.64108 43.5343 1.63915 43.2886 1.63673 43.0427C1.63441 41.7417 1.792 40.496 2.42042 39.3339C2.45288 39.2718 2.48533 39.2097 2.51877 39.1457C2.78614 38.647 3.08806 38.2007 3.46925 37.7812C3.53052 37.7113 3.59179 37.6415 3.65492 37.5695C4.84057 36.2953 6.41839 35.7458 8.063 35.3437C7.99943 35.3072 7.93587 35.2707 7.87037 35.2331C6.31736 34.2996 5.35616 32.9649 4.8755 31.2187C4.49231 29.569 4.65246 27.7469 5.45228 26.2455C6.19287 25.0618 7.2548 24.3142 8.60353 23.9681C10.187 23.6777 11.9246 23.7933 13.2907 24.6921C14.4423 25.5241 15.1612 26.6741 15.4337 28.0762C15.7268 30.0252 15.4293 31.9159 14.2864 33.5474C13.6969 34.3292 13.0318 34.8532 12.188 35.3437C12.3446 35.3814 12.3446 35.3814 12.5044 35.4199C13.8151 35.7504 15.0338 36.2061 16.0691 37.1015C16.2121 37.2379 16.2121 37.2379 16.4067 37.2187C16.499 37.117 16.5859 37.0105 16.6704 36.9023C18.0209 35.3327 20.0347 34.5613 22.0317 34.2187C21.975 34.1935 21.9182 34.1684 21.8596 34.1425C20.2149 33.3733 19.0645 32.0051 18.4474 30.3121C17.7793 28.343 17.858 26.2936 18.6567 24.3749C19.3381 23.0521 20.4125 22.1785 21.8032 21.6679C23.9125 21.0625 26.1516 21.3079 27.9358 22.6098ZM20.3475 24.0318C19.3627 25.319 19.0845 26.8841 19.2566 28.4688C19.47 30.0132 20.2373 31.4668 21.4411 32.4719C22.3438 33.1125 23.3563 33.4991 24.4692 33.3749C25.8522 33.0877 26.9392 32.3677 27.7153 31.1952C28.7156 29.5424 28.9969 27.8653 28.5942 25.9687C28.2979 24.89 27.7156 23.8904 26.7548 23.2818C24.7513 22.1989 21.9608 22.278 20.3475 24.0318ZM6.9087 26.3554C6.00181 27.451 5.82715 28.8391 5.95033 30.2153C6.16349 31.6903 6.80905 32.9008 7.96925 33.8437C8.99013 34.4638 10.0185 34.7035 11.1915 34.4249C12.2834 34.0117 13.2133 33.1095 13.7319 32.0668C14.3515 30.6332 14.5501 28.9326 13.9934 27.4397C13.5068 26.3985 12.8261 25.7659 11.7767 25.3073C10.1379 24.7145 8.11878 25.1022 6.9087 26.3554ZM34.6587 26.3554C33.6685 27.538 33.6554 29.0055 33.7505 30.4687C33.9229 31.8041 34.6746 33.013 35.7192 33.8437C36.746 34.4585 37.7647 34.7044 38.9415 34.4249C39.652 34.156 40.1631 33.7274 40.688 33.1874C40.7419 33.1355 40.7958 33.0835 40.8513 33.03C41.7473 32.0968 42.0959 30.6893 42.103 29.4231C42.0736 28.1933 41.7507 27.0628 40.8865 26.1591C40.0145 25.3521 39.0571 25.0878 37.8872 25.0956C37.8043 25.0962 37.7213 25.0967 37.6359 25.0972C36.46 25.1191 35.4882 25.4964 34.6587 26.3554ZM17.3567 37.9277C16.5153 38.8893 16.0194 40.083 15.8442 41.3437C15.8339 41.4156 15.8235 41.4875 15.8128 41.5616C15.7051 42.4886 15.7505 43.4063 15.7505 44.3437C21.1955 44.3437 26.6405 44.3437 32.2505 44.3437C32.2505 41.7514 32.1688 39.4827 30.2759 37.5735C28.4364 35.7981 26.0473 35.2921 23.5636 35.3235C21.1772 35.3933 19.0346 36.1972 17.3567 37.9277ZM4.313 38.6249C2.90489 40.3388 2.90675 42.1098 2.90675 44.3437C6.743 44.3437 10.5793 44.3437 14.5317 44.3437C14.5936 43.2918 14.6555 42.2399 14.7192 41.1562C15.0589 39.5651 15.0589 39.5651 15.4988 38.7997C15.5814 38.5749 15.5571 38.4706 15.4692 38.2499C14.4202 37.1241 12.5814 36.5474 11.0834 36.4521C8.59262 36.3987 6.12991 36.7154 4.313 38.6249ZM32.5903 38.1529C32.4174 38.3261 32.4174 38.3261 32.4475 38.5202C32.4753 38.5857 32.5031 38.6512 32.5317 38.7187C32.5653 38.8035 32.5989 38.8884 32.6336 38.9758C32.7132 39.1693 32.7933 39.3627 32.8738 39.5558C33.4093 41.1686 33.3634 42.5971 33.4692 44.3437C37.3055 44.3437 41.1418 44.3437 45.0942 44.3437C45.1227 41.0998 45.1227 41.0998 43.5338 38.4491C41.6673 36.7652 39.3982 36.3829 36.9619 36.4515C35.3749 36.541 33.8158 37.1391 32.5903 38.1529Z" fill="#FF7705"></path>
  <path d="M9.09375 7.03115C9.25072 7.23589 9.33398 7.3854 9.43359 7.61708C9.46605 7.68052 9.4985 7.74395 9.53194 7.8093C9.75926 8.27047 9.88978 8.71404 10.0009 9.21596C10.294 10.3752 10.294 10.3752 11.0625 11.2499C12.2495 11.7367 13.689 11.7348 14.9552 11.7642C15.0432 11.7667 15.1313 11.7693 15.222 11.772C15.2993 11.7731 15.3766 11.7743 15.4562 11.7755C15.7039 11.8212 15.7869 11.8947 15.9375 12.0936C15.9961 12.3802 15.9958 12.5633 15.8375 12.8154C15.5466 13.1682 15.2111 13.4651 14.8634 13.7603C14.4762 14.0987 14.1041 14.4535 13.7302 14.8066C13.6724 14.8609 13.6145 14.9153 13.5549 14.9713C13.4989 15.025 13.443 15.0787 13.3853 15.134C13.2188 15.2811 13.2188 15.2811 13.0471 15.3895C12.8607 15.4993 12.8607 15.4993 12.6562 15.7499C12.6113 16.1046 12.6818 16.4326 12.75 16.7811C12.7614 16.8408 12.7728 16.9005 12.7845 16.962C12.8773 17.4443 12.9798 17.9243 13.084 18.4042C13.1453 18.6869 13.2059 18.9697 13.266 19.2527C13.2871 19.3481 13.2871 19.3481 13.3086 19.4454C13.3867 19.813 13.438 20.1556 13.4062 20.5311C13.207 20.7597 13.207 20.7597 12.9375 20.9061C12.5362 20.8728 12.2472 20.7673 11.9011 20.5663C11.8133 20.5159 11.7254 20.4654 11.6348 20.4134C11.4966 20.3325 11.4966 20.3325 11.3555 20.2499C11.2126 20.1681 11.2126 20.1681 11.0669 20.0847C10.6288 19.8336 10.193 19.579 9.76025 19.3186C9.69244 19.2786 9.62463 19.2385 9.55476 19.1972C9.43024 19.1235 9.30655 19.0484 9.18388 18.9716C9.00035 18.8584 9.00035 18.8584 8.71875 18.7499C8.34969 18.8633 8.02258 19.0554 7.68677 19.2436C7.52471 19.334 7.52471 19.334 7.35938 19.4263C7.24609 19.4899 7.13281 19.5535 7.01953 19.6171C6.90846 19.6792 6.79738 19.7414 6.68628 19.8035C6.60446 19.8493 6.60446 19.8493 6.52099 19.896C6.35797 19.987 6.19469 20.0775 6.0314 20.168C5.82854 20.282 5.62706 20.3984 5.42734 20.5178C5.29351 20.5962 5.29351 20.5962 5.15698 20.6762C5.07953 20.7229 5.00208 20.7696 4.92229 20.8178C4.61707 20.9327 4.43494 20.9051 4.125 20.8124C3.82308 20.3595 3.91004 19.8806 4.00784 19.3663C4.03946 19.2178 4.07183 19.0695 4.10486 18.9213C4.12173 18.8421 4.1386 18.7629 4.15598 18.6813C4.22754 18.3453 4.30086 18.0097 4.37414 17.6741C4.42763 17.4279 4.48014 17.1814 4.53259 16.935C4.54948 16.8593 4.56637 16.7836 4.58377 16.7056C4.65827 16.3548 4.71132 16.0912 4.59375 15.7499C4.42556 15.544 4.42556 15.544 4.21289 15.3456C4.14413 15.2783 4.07536 15.211 4.00452 15.1416C3.80411 14.9562 3.60153 14.7757 3.39551 14.5967C2.99083 14.2445 2.5992 13.8796 2.20898 13.5116C2.14161 13.4483 2.07424 13.385 2.00482 13.3197C1.4068 12.7573 1.4068 12.7573 1.38281 12.4335C1.40625 12.0936 1.40625 12.0936 1.52504 11.9365C1.71348 11.7926 1.82636 11.765 2.06037 11.7374C2.13488 11.7281 2.2094 11.7187 2.28617 11.7091C2.36644 11.7003 2.44671 11.6915 2.52942 11.6824C2.61256 11.6724 2.6957 11.6624 2.78136 11.6521C2.95742 11.6311 3.13355 11.6107 3.30975 11.5909C3.57757 11.5607 3.84515 11.5288 4.11273 11.4965C4.28417 11.4764 4.45562 11.4563 4.62708 11.4363C4.7064 11.4269 4.78572 11.4176 4.86745 11.4079C5.34204 11.355 5.80371 11.335 6.28125 11.3436C6.31315 11.2358 6.34506 11.1281 6.37793 11.017C6.58956 10.3826 6.88313 9.78361 7.16908 9.18026C7.26591 8.97586 7.36195 8.77112 7.45789 8.5663C7.51973 8.43493 7.58162 8.30359 7.64355 8.17226C7.67198 8.11171 7.70041 8.05115 7.72969 7.98876C8.2862 6.81743 8.2862 6.81743 9.09375 7.03115ZM8.625 9.09365C8.53263 9.27304 8.44101 9.45282 8.34961 9.63271C8.32042 9.68966 8.29122 9.74661 8.26115 9.80529C8.07928 10.1661 7.91542 10.5297 7.76367 10.9042C7.72862 10.9886 7.69356 11.073 7.65745 11.1599C7.58853 11.3271 7.52188 11.4953 7.45773 11.6644C7.42539 11.7417 7.39306 11.8191 7.35974 11.8988C7.31888 12.0026 7.31888 12.0026 7.27718 12.1086C6.921 12.5125 6.15033 12.5079 5.64551 12.569C5.57998 12.577 5.51445 12.5851 5.44694 12.5934C5.24072 12.6187 5.03443 12.6433 4.82812 12.6679C4.68701 12.685 4.54589 12.7022 4.40479 12.7195C4.06158 12.7614 3.71831 12.8027 3.375 12.8436C3.44856 12.9171 3.52212 12.9906 3.59791 13.0663C3.74154 13.2101 3.88482 13.3542 4.02722 13.4992C4.39761 13.875 4.77827 14.2307 5.17896 14.574C5.31371 14.6923 5.44127 14.8187 5.56641 14.9472C5.70605 15.1153 5.70605 15.1153 5.90625 15.0936C6.07599 15.8459 5.88311 16.5365 5.71875 17.2733C5.67645 17.4649 5.63453 17.6566 5.5936 17.8485C5.55662 18.0216 5.51834 18.1945 5.47998 18.3673C5.44087 18.6332 5.4404 18.7824 5.53125 19.0311C5.88667 18.8345 6.24201 18.6376 6.59727 18.4406C6.71809 18.3737 6.83894 18.3067 6.95982 18.2399C7.13371 18.1436 7.30753 18.0472 7.48132 17.9508C7.5859 17.8929 7.69047 17.835 7.79821 17.7753C7.98412 17.6695 8.16578 17.556 8.34375 17.4374C8.76314 17.3968 9.01616 17.4601 9.37939 17.667C9.46641 17.7157 9.55342 17.7643 9.64307 17.8144C9.7325 17.866 9.82192 17.9175 9.91406 17.9706C10.0912 18.0707 10.2685 18.1707 10.4458 18.2705C10.532 18.3193 10.6183 18.368 10.7071 18.4182C11.1007 18.6351 11.5023 18.8346 11.9062 19.0311C11.8223 18.4972 11.7325 17.9663 11.6228 17.437C11.6059 17.355 11.5889 17.273 11.5714 17.1885C11.5374 17.0251 11.5028 16.8618 11.4676 16.6987C11.3746 16.2513 11.3076 15.8345 11.3438 15.3749C11.6138 14.9698 11.9563 14.6776 12.3248 14.3631C12.644 14.0852 12.955 13.7989 13.2656 13.5116C13.3253 13.4569 13.3849 13.4021 13.4463 13.3457C13.5911 13.2116 13.7333 13.0747 13.875 12.9374C13.875 12.9065 13.875 12.8755 13.875 12.8436C13.7153 12.8253 13.7153 12.8253 13.5524 12.8066C13.1575 12.7607 12.7629 12.7127 12.3684 12.664C12.1976 12.6432 12.0267 12.623 11.8558 12.6035C11.6101 12.5752 11.3647 12.5449 11.1193 12.5141C11.0046 12.5016 11.0046 12.5016 10.8875 12.4889C10.3626 12.42 10.3626 12.42 10.1411 12.2207C9.99405 11.9251 9.8502 11.6295 9.71667 11.3275C9.68794 11.2636 9.65921 11.1996 9.6296 11.1337C9.53843 10.9304 9.44792 10.7269 9.35742 10.5233C9.29551 10.385 9.23356 10.2467 9.17157 10.1084C9.02014 9.77038 8.86929 9.43209 8.71875 9.09365C8.68781 9.09365 8.65688 9.09365 8.625 9.09365Z" fill="#FF7705"></path>
  <path d="M24.0879 2.41992C24.7024 2.6582 24.9578 3.49176 25.2144 4.06567C25.2468 4.137 25.2792 4.20832 25.3126 4.28181C25.4146 4.50666 25.5159 4.73183 25.6172 4.95703C25.6865 5.11013 25.7558 5.26321 25.8252 5.41626C25.9514 5.69467 26.0772 5.97323 26.2029 6.25191C26.2787 6.41905 26.3554 6.58584 26.4375 6.75C26.6255 6.79706 26.6255 6.79706 26.8553 6.81697C26.9886 6.83203 26.9886 6.83203 27.1246 6.84739C27.2214 6.85755 27.3181 6.86771 27.4178 6.87817C27.6209 6.90145 27.824 6.92476 28.027 6.94812C28.3485 6.98409 28.6701 7.01955 28.9918 7.05418C29.3013 7.08785 29.6105 7.12351 29.9198 7.15942C30.016 7.1692 30.1122 7.17898 30.2113 7.18906C30.8738 7.2675 30.8738 7.2675 31.1881 7.48949C31.3125 7.6875 31.3125 7.6875 31.3198 8.00867C31.1969 8.41617 31.0499 8.55707 30.7266 8.83008C30.6237 8.91899 30.5209 9.00799 30.4182 9.09705C30.3648 9.1425 30.3113 9.18795 30.2563 9.23479C29.9885 9.46583 29.7311 9.7079 29.4727 9.94922C29.3797 10.0355 29.2867 10.1217 29.1936 10.2078C29.1462 10.2548 29.0988 10.3018 29.05 10.3502C28.875 10.5 28.875 10.5 28.6158 10.6439C28.2867 10.8548 28.1232 10.9966 27.9375 11.3438C27.8951 12.0919 28.1362 12.8501 28.3125 13.5703C28.3823 13.8738 28.4507 14.1776 28.5177 14.4817C28.5598 14.6705 28.6038 14.8589 28.6498 15.0467C28.7972 15.6788 28.7972 15.6788 28.7175 16.0339C28.5938 16.2188 28.5938 16.2188 28.3125 16.4062C27.8735 16.3782 27.5603 16.2333 27.1809 16.0188C27.0736 15.9586 26.9663 15.8984 26.8557 15.8364C26.7436 15.7725 26.6316 15.7085 26.5195 15.6445C26.4097 15.5827 26.2998 15.5209 26.1899 15.4592C25.3037 14.9598 25.3037 14.9598 24.9032 14.7071C24.8045 14.6455 24.7059 14.5838 24.6042 14.5203C24.517 14.4638 24.4298 14.4074 24.3399 14.3493C24.0985 14.2235 24.0985 14.2235 23.8552 14.3122C23.7793 14.3535 23.7033 14.3949 23.625 14.4375C23.5528 14.4742 23.4806 14.5109 23.4063 14.5487C23.3319 14.5894 23.2574 14.6302 23.1808 14.6722C23.0969 14.7181 23.0129 14.764 22.9265 14.8113C22.8379 14.8601 22.7494 14.9088 22.6582 14.959C22.5669 15.0087 22.4756 15.0585 22.3815 15.1097C21.9549 15.343 21.5309 15.5789 21.1132 15.8276C21.0459 15.8672 20.9787 15.9068 20.9095 15.9475C20.7857 16.0209 20.6627 16.0955 20.5407 16.1715C20.2656 16.3337 20.0794 16.406 19.7578 16.4103C19.5 16.3125 19.5 16.3125 19.3364 16.12C19.1771 15.7461 19.2452 15.4588 19.3282 15.0754C19.3428 15.0016 19.3573 14.9277 19.3722 14.8516C19.419 14.6155 19.4682 14.3801 19.5176 14.1445C19.5491 13.9883 19.5804 13.8321 19.6115 13.6758C19.6268 13.5997 19.6421 13.5237 19.6578 13.4453C19.6879 13.2945 19.7178 13.1437 19.7474 12.9928C19.8099 12.6776 19.8763 12.3705 19.9649 12.0613C20.0338 11.8062 20.0817 11.6072 20.0625 11.3438C19.8745 11.0229 19.6232 10.8136 19.3359 10.582C19.2621 10.5179 19.1883 10.4538 19.1122 10.3878C18.9657 10.261 18.8181 10.1355 18.6693 10.0114C18.4216 9.8043 18.1847 9.58791 17.9473 9.36914C17.7394 9.18154 17.5314 9.00016 17.3115 8.82678C16.9751 8.55732 16.8054 8.41498 16.6641 7.99805C16.6875 7.6875 16.6875 7.6875 16.8233 7.48929C17.1685 7.23415 17.4936 7.21712 17.9136 7.17334C17.9966 7.16347 18.0796 7.15359 18.1651 7.14342C18.3406 7.12284 18.5162 7.10303 18.6918 7.08394C18.9589 7.05491 19.2256 7.02372 19.4923 6.99207C19.6633 6.97228 19.8343 6.95263 20.0054 6.93311C20.0844 6.92403 20.1634 6.91495 20.2449 6.9056C20.7184 6.85446 21.1799 6.8354 21.6562 6.84375C21.6642 6.78364 21.6721 6.72354 21.6803 6.66161C21.777 6.26409 21.9446 5.91018 22.1151 5.53931C22.1515 5.45948 22.188 5.37966 22.2255 5.29742C22.3026 5.12914 22.3799 4.961 22.4575 4.79297C22.5758 4.53589 22.6926 4.27811 22.8093 4.02026C22.8844 3.85664 22.9597 3.69307 23.035 3.52954C23.0697 3.45249 23.1044 3.37543 23.1401 3.29604C23.5326 2.45537 23.5326 2.45537 24.0879 2.41992ZM23.9062 4.6875C23.8646 4.7774 23.823 4.86729 23.7801 4.95992C23.6258 5.29312 23.4708 5.62606 23.3157 5.95894C23.2487 6.1031 23.1817 6.24732 23.115 6.39162C23.019 6.59891 22.9225 6.80594 22.8259 7.01294C22.7961 7.07759 22.7663 7.14225 22.7356 7.20886C22.6147 7.46705 22.5158 7.67173 22.3125 7.875C22.1036 7.91579 21.8928 7.94644 21.6815 7.97205C21.6188 7.97988 21.5561 7.98772 21.4916 7.99579C21.2907 8.02074 21.0897 8.04457 20.8887 8.06836C20.7551 8.0847 20.6215 8.10112 20.4879 8.11761C20.2401 8.14818 19.9924 8.17823 19.7446 8.20791C19.4123 8.24925 19.0813 8.29537 18.75 8.34375C18.9943 8.65678 19.2398 8.93428 19.541 9.19336C19.6037 9.24786 19.6665 9.30237 19.7311 9.35852C19.8636 9.47228 19.9966 9.5856 20.131 9.69713C20.3133 9.84923 20.4926 10.0045 20.6719 10.1602C20.7315 10.2086 20.7911 10.2571 20.8526 10.307C21.1678 10.5854 21.272 10.7201 21.3369 11.1478C21.2856 11.8151 21.1337 12.476 21 13.1309C20.9728 13.267 20.9457 13.4032 20.9187 13.5394C20.8529 13.8702 20.7861 14.2008 20.7188 14.5312C21.0497 14.4052 21.3575 14.2593 21.668 14.0892C21.8021 14.0159 21.8021 14.0159 21.939 13.9411C22.0313 13.8903 22.1236 13.8395 22.2188 13.7871C22.3111 13.7367 22.4034 13.6862 22.4985 13.6342C22.9988 13.3641 22.9988 13.3641 23.4792 13.0614C23.7782 12.9067 23.9478 12.8955 24.2812 12.9375C24.57 13.0636 24.57 13.0636 24.8734 13.2385C24.9548 13.2847 24.9548 13.2847 25.0379 13.3318C25.2102 13.4297 25.3815 13.5292 25.5527 13.6289C25.7245 13.7276 25.8965 13.826 26.0686 13.924C26.2247 14.0132 26.3803 14.1033 26.5359 14.1934C26.7806 14.3264 27.0204 14.4346 27.2812 14.5312C27.2642 14.4476 27.2472 14.364 27.2296 14.2779C27.1661 13.964 27.1033 13.65 27.0409 13.3359C27.0139 13.2007 26.9867 13.0655 26.9591 12.9303C26.5702 11.0223 26.5702 11.0223 26.8564 10.5579C26.9193 10.504 26.9821 10.4501 27.0469 10.3945C27.1159 10.3331 27.1849 10.2717 27.256 10.2085C27.3262 10.15 27.3964 10.0915 27.4688 10.0312C27.5879 9.92584 27.7071 9.82037 27.8262 9.71484C27.8867 9.66264 27.9473 9.61043 28.0096 9.55664C28.2694 9.33097 28.5258 9.10165 28.7812 8.87109C28.8702 8.79109 28.9591 8.71109 29.0508 8.62866C29.1494 8.53404 29.1494 8.53404 29.25 8.4375C29.25 8.40656 29.25 8.37563 29.25 8.34375C29.1445 8.33348 29.0391 8.32321 28.9304 8.31262C28.5378 8.27345 28.1457 8.22975 27.7537 8.18468C27.5842 8.16583 27.4146 8.14821 27.2449 8.13185C27.0003 8.10806 26.7566 8.07986 26.5126 8.05078C26.3993 8.04121 26.3993 8.04121 26.2838 8.03144C25.9692 7.99028 25.7627 7.95637 25.5424 7.71807C25.4187 7.52527 25.3164 7.33212 25.2188 7.125C25.1671 7.02306 25.1155 6.92113 25.0623 6.8161C25.0176 6.71791 24.9729 6.61972 24.9269 6.51855C24.8776 6.411 24.8284 6.30344 24.7776 6.19263C24.7031 6.02767 24.7031 6.02767 24.627 5.85938C24.5749 5.74534 24.5229 5.63133 24.4708 5.51733C24.3446 5.24093 24.219 4.96432 24.0938 4.6875C24.0319 4.6875 23.97 4.6875 23.9062 4.6875Z" fill="#FF7705"></path>
  <path d="M39.75 7.03118C40.0013 7.38275 40.1732 7.78191 40.3564 8.1723C40.3866 8.23622 40.4167 8.30014 40.4478 8.366C40.5113 8.50084 40.5746 8.63573 40.6378 8.77068C40.7336 8.97479 40.8301 9.17853 40.9266 9.38226C41.2295 10.0254 41.5165 10.6604 41.7188 11.3437C41.799 11.3461 41.8792 11.3485 41.9619 11.351C42.8753 11.3912 43.7816 11.4807 44.6892 11.5889C44.826 11.6051 44.9629 11.6209 45.0998 11.6363C45.295 11.6583 45.4899 11.6821 45.6848 11.7062C45.7989 11.7199 45.9129 11.7335 46.0305 11.7476C46.3196 11.8141 46.4292 11.8507 46.5938 12.0937C46.6479 12.4836 46.6491 12.6737 46.415 12.996C46.3348 13.0695 46.2546 13.143 46.1719 13.2187C46.0936 13.2922 46.0153 13.3656 45.9346 13.4413C45.7232 13.6283 45.5111 13.8143 45.2985 13.9998C44.8987 14.3489 44.5051 14.7043 44.1152 15.0644C44.0479 15.1254 43.9805 15.1863 43.9111 15.2491C43.8471 15.3084 43.7831 15.3677 43.7172 15.4288C43.6308 15.5079 43.6308 15.5079 43.5427 15.5887C43.3855 15.7744 43.3537 15.887 43.3125 16.1249C43.3561 16.3992 43.407 16.6645 43.4674 16.935C43.4842 17.0138 43.501 17.0927 43.5183 17.1739C43.5719 17.426 43.6267 17.6778 43.6816 17.9296C43.7537 18.26 43.8247 18.5906 43.8951 18.9213C43.9118 18.9962 43.9285 19.0712 43.9457 19.1484C44.0461 19.6196 44.0941 20.049 44.0625 20.5312C43.875 20.8124 43.875 20.8124 43.6127 20.8909C43.2664 20.9085 43.1211 20.85 42.8214 20.6817C42.7298 20.6311 42.6382 20.5806 42.5438 20.5285C42.3993 20.4457 42.3993 20.4457 42.252 20.3613C42.1525 20.3061 42.0531 20.251 41.9506 20.1942C41.4877 19.936 41.0304 19.6706 40.5802 19.3908C40.5085 19.3467 40.4368 19.3025 40.363 19.2571C40.231 19.1749 40.1002 19.091 39.9707 19.0051C39.775 18.8766 39.775 18.8766 39.4688 18.7499C39.086 18.8465 38.7605 19.004 38.4192 19.1993C38.2845 19.2759 38.2845 19.2759 38.1471 19.3541C38.0534 19.408 37.9598 19.4619 37.8633 19.5175C37.767 19.5723 37.6708 19.6271 37.5716 19.6835C37.1716 19.9117 36.7724 20.1409 36.3783 20.3792C36.2825 20.4371 36.1866 20.495 36.0879 20.5546C35.9702 20.6279 35.9702 20.6279 35.8502 20.7026C35.5842 20.8324 35.3569 20.8806 35.0625 20.9062C34.7871 20.789 34.7871 20.789 34.5938 20.5312C34.548 19.6556 34.8367 18.7281 35.0215 17.8769C35.0828 17.5942 35.1434 17.3113 35.2035 17.0284C35.2176 16.9648 35.2316 16.9012 35.2461 16.8357C35.3242 16.4681 35.3758 16.1255 35.3438 15.7499C35.1408 15.4957 35.1408 15.4957 34.8574 15.2695C34.7538 15.1798 34.6503 15.0901 34.5469 15.0003C34.4929 14.9543 34.4388 14.9082 34.3832 14.8608C34.1128 14.6271 33.8529 14.3824 33.5918 14.1386C33.1698 13.7472 32.7425 13.3631 32.3071 12.9865C32.0913 12.7822 32.0646 12.6804 32.0391 12.3808C32.0625 12.0937 32.0625 12.0937 32.1777 11.9371C32.3905 11.7773 32.5092 11.7791 32.7736 11.7809C32.8607 11.7802 32.9479 11.7794 33.0376 11.7786C33.1319 11.7781 33.2262 11.7777 33.3234 11.7773C35.3282 11.7986 35.3282 11.7986 37.1311 11.0962C37.8139 10.3451 38.0853 9.30614 38.3329 8.34423C38.4558 7.87719 38.638 7.4346 38.9062 7.03118C39.208 6.88033 39.4302 6.95263 39.75 7.03118ZM39.2812 9.09368C39.2396 9.18642 39.198 9.27916 39.1551 9.3747C39.0008 9.71839 38.8458 10.0618 38.6907 10.4052C38.6237 10.5539 38.5567 10.7027 38.49 10.8515C38.394 11.0653 38.2975 11.2789 38.2009 11.4924C38.1711 11.5591 38.1413 11.6258 38.1106 11.6945C37.9906 11.9586 37.8944 12.168 37.6875 12.3749C37.4205 12.4242 37.159 12.4633 36.8899 12.4958C36.8111 12.5059 36.7323 12.5161 36.6511 12.5265C36.399 12.5588 36.1468 12.5899 35.8945 12.621C35.7237 12.6427 35.553 12.6644 35.3822 12.6862C34.9632 12.7395 34.5442 12.7919 34.125 12.8437C34.2129 12.9476 34.3009 13.0514 34.3891 13.1551C34.4381 13.213 34.4871 13.2708 34.5376 13.3303C34.7565 13.578 34.9927 13.7941 35.2383 14.0156C35.2867 14.0595 35.3352 14.1034 35.3851 14.1487C35.7281 14.4587 36.0759 14.763 36.4288 15.0618C36.6459 15.2658 36.6561 15.3712 36.67 15.6742C36.6565 16.0258 36.6062 16.3371 36.5299 16.6801C36.4912 16.859 36.4912 16.859 36.4517 17.0416C36.4103 17.2288 36.3687 17.416 36.327 17.6032C36.2866 17.7856 36.2471 17.9682 36.2076 18.1508C36.1716 18.3132 36.1716 18.3132 36.1347 18.4788C36.0719 18.7554 36.0719 18.7554 36.1875 19.0312C36.5137 18.8535 36.8399 18.6757 37.166 18.498C37.2573 18.4483 37.3486 18.3985 37.4427 18.3473C37.533 18.298 37.6234 18.2488 37.7164 18.1981C37.8064 18.1493 37.8965 18.1006 37.9892 18.0503C38.1565 17.9579 38.3223 17.8628 38.4863 17.7646C38.5583 17.7218 38.6303 17.6789 38.7045 17.6348C38.7975 17.5776 38.7975 17.5776 38.8924 17.5192C39.1662 17.408 39.3624 17.4075 39.6562 17.4374C39.9263 17.5535 39.9263 17.5535 40.2041 17.7147C40.3055 17.7726 40.4069 17.8305 40.5114 17.8903C40.6159 17.9516 40.7204 18.0129 40.8281 18.0761C41.0361 18.1959 41.2441 18.3157 41.4521 18.4354C41.5438 18.4889 41.6355 18.5424 41.7299 18.5975C42.0032 18.7518 42.2807 18.8932 42.5625 19.0312C42.4909 18.2394 42.327 17.4766 42.1538 16.7015C42.0343 16.1358 41.9421 15.6586 42.0938 15.0937C42.2651 14.9747 42.2651 14.9747 42.4688 14.9062C42.5901 14.7953 42.7071 14.6796 42.8203 14.5605C43.245 14.1247 43.6967 13.7291 44.1617 13.3373C44.3176 13.2057 44.4715 13.0718 44.625 12.9374C44.625 12.9065 44.625 12.8756 44.625 12.8437C44.5186 12.831 44.4121 12.8182 44.3024 12.8051C43.9076 12.7576 43.513 12.7085 43.1184 12.6589C42.9476 12.6376 42.7767 12.6168 42.6058 12.5964C42.3601 12.5671 42.1147 12.5362 41.8693 12.5049C41.7546 12.4917 41.7546 12.4917 41.6375 12.4783C41.2527 12.4277 41.03 12.3951 40.7812 12.0937C40.6712 11.8748 40.5701 11.6583 40.4733 11.4338C40.445 11.3699 40.4167 11.306 40.3875 11.2402C40.2975 11.0367 40.2082 10.8328 40.1191 10.6288C40.0015 10.3597 39.8832 10.091 39.7643 9.82244C39.7374 9.76024 39.7106 9.69803 39.6829 9.63394C39.5522 9.30269 39.5522 9.30269 39.2812 9.09368Z" fill="#FF7705"></path>
</svg>
