<?xml version="1.0" encoding="UTF-8"?>
<svg xmlns="http://www.w3.org/2000/svg" width="48" height="48" viewBox="0 0 48 48" fill="none">
  <g clip-path="url(#clip0_3684_552)">
    <path d="M28.6291 1.44728C29.116 1.80739 29.5608 2.20907 30.0002 2.62502C30.0812 2.69886 30.1622 2.77269 30.2456 2.84877C31.4796 4.01661 32.3605 5.46661 33.1877 6.93752C33.2588 7.06221 33.3299 7.18684 33.4012 7.31142C33.4812 7.45118 33.4812 7.45118 33.5627 7.59377C33.6736 7.59156 33.6736 7.59156 33.7867 7.5893C36.8045 7.53741 39.8576 7.70876 42.428 9.47463C42.8299 9.70119 42.9615 9.65734 43.4065 9.56252C44.5278 9.47614 45.4368 9.67029 46.312 10.4011C46.9647 11.0691 47.2507 11.8524 47.2854 12.7735C47.2682 13.7077 46.9566 14.505 46.3127 15.1875C45.9752 15.4688 45.9752 15.4688 45.7502 15.4688C45.7669 15.5448 45.7836 15.6208 45.8008 15.6991C46.1116 18.0886 44.8794 20.9137 43.6332 22.8908C43.5736 22.9857 43.5736 22.9857 43.5128 23.0825C43.4358 23.2032 43.3573 23.3229 43.2769 23.4414C43.1552 23.6226 43.1552 23.6226 43.0315 23.9063C43.1303 24.2266 43.2846 24.5027 43.457 24.7888C44.7046 26.8932 45.6441 29.0812 45.8147 31.5469C45.8192 31.6121 45.8238 31.6773 45.8285 31.7445C45.8455 32.0392 45.8446 32.2482 45.7502 32.5313C45.8044 32.5547 45.8585 32.5782 45.9143 32.6023C46.5016 32.9266 46.8841 33.4948 47.1096 34.1133C47.3583 34.9844 47.3374 35.822 46.969 36.6563C46.4944 37.4724 45.8066 38.0839 44.9068 38.3767C44.2972 38.5083 43.67 38.5057 43.0666 38.3496C42.6112 38.3412 42.3692 38.5628 42.0006 38.8151C39.9335 40.1725 37.3575 40.3958 34.9572 40.459C34.8125 40.4631 34.6677 40.4671 34.5229 40.4713C34.1716 40.4812 33.8203 40.4907 33.469 40.5C33.42 40.5977 33.3711 40.6953 33.3207 40.7959C31.8571 43.6657 29.7069 46.4288 26.6252 47.625C26.521 47.6657 26.4169 47.7065 26.3095 47.7484C24.4365 48.3579 22.3403 48.1201 20.5959 47.2676C19.6163 46.763 18.7991 46.1322 18.0002 45.375C17.9124 45.2943 17.8245 45.2136 17.734 45.1304C16.3439 43.8243 15.3747 42.1958 14.5315 40.5C14.4064 40.498 14.4064 40.498 14.2787 40.4959C11.0513 40.437 11.0513 40.437 9.46897 40.125C9.40208 40.1121 9.33519 40.0992 9.26627 40.0859C7.92993 39.8176 6.72734 39.2856 5.57395 38.5672C5.2007 38.3568 5.0013 38.3262 4.59397 38.4375C3.66336 38.5154 2.85724 38.4363 2.08799 37.8761C1.29944 37.2017 0.817495 36.5177 0.72971 35.4752C0.696572 34.4935 0.935446 33.7329 1.59397 33C1.71488 32.9081 1.71488 32.9081 1.83823 32.8143C2.1807 32.3825 2.15972 31.9437 2.19748 31.4063C2.42707 28.9726 3.30708 26.8214 4.56723 24.7412C4.6388 24.6192 4.71023 24.4972 4.78147 24.375C4.82969 24.2944 4.87791 24.2138 4.92759 24.1308C4.99321 23.7748 4.79775 23.5508 4.60569 23.2676C4.52578 23.1423 4.44632 23.0166 4.36728 22.8908C4.32663 22.8263 4.28598 22.7618 4.2441 22.6953C3.04994 20.7333 2.34508 18.5669 2.18002 16.2827C2.14804 15.7043 2.14804 15.7043 1.84116 15.2414C1.75959 15.1926 1.67801 15.1439 1.59397 15.0938C0.891244 14.1742 0.643842 13.3401 0.750217 12.1875C0.930426 11.3674 1.33185 10.6494 2.00925 10.1419C2.85673 9.60865 3.60397 9.50961 4.59397 9.56252C4.76219 9.60602 4.76219 9.60602 4.93381 9.65041C5.3854 9.65877 5.61619 9.4413 5.98191 9.19118C8.48685 7.59267 11.5695 7.53661 14.4377 7.59377C14.5262 7.43062 14.5262 7.43062 14.6164 7.26418C15.5263 5.59797 16.5222 4.03365 17.9065 2.71877C17.9824 2.64203 18.0583 2.56529 18.1364 2.48622C21.0524 -0.398408 25.2215 -0.84578 28.6291 1.44728ZM19.594 3.46877C19.5228 3.5275 19.4516 3.58623 19.3783 3.64674C18.302 4.55761 17.5169 5.73729 16.7873 6.93166C16.7496 6.99272 16.7119 7.05378 16.6731 7.11668C16.4581 7.4703 16.4581 7.4703 16.4065 7.87502C16.4713 7.88529 16.536 7.89556 16.6028 7.90614C18.8157 8.26339 21.0378 8.7135 23.1213 9.56302C24.0013 9.90368 24.7228 9.62359 25.5764 9.31642C27.5372 8.63928 29.5454 8.18975 31.594 7.87502C31.5431 7.41114 31.3304 7.08721 31.0842 6.70314C31.0424 6.63726 31.0006 6.57138 30.9575 6.50351C30.5487 5.86872 30.1033 5.27143 29.6252 4.68752C29.5591 4.60582 29.493 4.52413 29.4249 4.43996C28.3288 3.15142 26.66 1.9068 24.9377 1.68752C22.8495 1.52394 21.1845 2.08869 19.594 3.46877ZM6.65647 10.7813C6.75545 11.0881 6.85824 11.374 6.99631 11.666C7.26765 12.391 7.23933 13.2884 6.97287 14.0098C6.51966 14.9587 5.92781 15.4596 4.96311 15.8731C4.59274 15.9597 4.22259 15.9993 3.84397 16.0313C4.05519 18.1404 4.71285 20.031 5.71421 21.8921C5.7445 21.9485 5.7748 22.0048 5.80601 22.0629C5.91557 22.2329 6.0403 22.3622 6.18772 22.5C6.25696 22.4183 6.32621 22.3366 6.39756 22.2525C7.33607 21.1486 8.30815 20.0895 9.32834 19.0606C9.40955 18.9781 9.49075 18.8957 9.57441 18.8108C10.1823 18.2021 10.8182 17.5761 11.5528 17.1205C11.7882 16.9056 11.8017 16.7233 11.8556 16.4118C11.8763 16.2983 11.8971 16.1849 11.9185 16.068C11.9289 16.0076 11.9393 15.9473 11.95 15.8851C12.0057 15.5643 12.0675 15.2446 12.1291 14.9249C12.1416 14.8599 12.1541 14.7949 12.1669 14.7279C12.53 12.8615 13.1351 11.0658 13.7815 9.28127C11.2058 9.20855 8.93276 9.54662 6.65647 10.7813ZM34.219 9.28127C34.2468 9.36124 34.2746 9.44121 34.3032 9.52361C34.7869 10.9229 35.2619 12.3201 35.6194 13.7578C35.6459 13.8645 35.6725 13.9711 35.6999 14.081C35.8187 14.5759 35.9213 15.067 35.9933 15.5709C36.1131 16.6295 36.1131 16.6295 36.7444 17.4434C36.9331 17.5675 37.1226 17.6906 37.3127 17.8125C37.5033 17.9754 37.6872 18.1389 37.8694 18.3106C37.9183 18.3561 37.9673 18.4017 38.0177 18.4486C39.1581 19.5179 40.2962 20.6024 41.2502 21.8438C41.4355 22.0645 41.624 22.2822 41.8127 22.5C43.2028 20.8895 44.1744 18.154 44.0627 16.0313C43.9935 16.0243 43.9242 16.0172 43.8529 16.01C42.9771 15.8965 42.1942 15.6329 41.5842 14.9649C40.9019 14.0755 40.7905 13.1917 40.8752 12.0938C40.9495 11.8288 41.0398 11.5959 41.159 11.3485C41.2484 11.1601 41.3004 10.9846 41.344 10.7813C39.0677 9.54662 36.7946 9.20855 34.219 9.28127ZM15.5627 9.46877C15.2025 10.1212 14.9717 10.8096 14.7394 11.5147C14.673 11.716 14.6054 11.9168 14.5377 12.1176C13.9693 13.669 13.9693 13.669 13.7815 15.2813C14.1986 15.0501 14.5966 14.8043 14.9903 14.5353C17.0506 13.1281 19.2644 11.8541 21.5627 10.875C21.4864 10.6701 21.4864 10.6701 21.2804 10.6134C21.1976 10.5899 21.1148 10.5664 21.0295 10.5421C20.9361 10.5155 20.8426 10.4889 20.7463 10.4614C20.6445 10.4336 20.5427 10.4057 20.4377 10.377C20.281 10.3337 20.281 10.3337 20.121 10.2896C18.6392 9.88993 17.1047 9.50249 15.5627 9.46877ZM30.6272 9.66213C30.5173 9.68259 30.4073 9.70305 30.2941 9.72413C28.3069 10.0687 28.3069 10.0687 26.4377 10.7813C26.6375 10.981 26.7941 11.0589 27.0493 11.1764C27.1363 11.217 27.2233 11.2576 27.313 11.2994C27.407 11.3431 27.501 11.3867 27.5979 11.4317C29.8936 12.5157 32.0518 13.8179 34.1252 15.2813C34.299 14.7705 34.0886 14.2844 33.9553 13.7813C33.9118 13.6153 33.9118 13.6153 33.8675 13.446C33.3476 11.3684 33.3476 11.3684 32.4377 9.46877C31.8295 9.40137 31.2235 9.55036 30.6272 9.66213ZM2.64389 12.0264C2.39861 12.3779 2.40371 12.7101 2.43772 13.125C2.61575 13.6703 2.86018 13.9761 3.37522 14.25C3.80251 14.3924 4.18899 14.4315 4.60898 14.2621C5.05796 14.0061 5.3705 13.7177 5.53147 13.2188C5.61932 12.7544 5.57179 12.3862 5.34397 11.9707C5.07262 11.5867 4.76039 11.3859 4.31272 11.25C3.54184 11.157 3.11744 11.4596 2.64389 12.0264ZM42.7136 11.8663C42.432 12.2917 42.3842 12.7206 42.469 13.2188C42.6285 13.7173 42.9429 14.0081 43.3926 14.2614C43.828 14.4395 44.1917 14.3955 44.6369 14.2442C45.0605 13.9587 45.3996 13.6143 45.5627 13.125C45.6 12.6311 45.5556 12.3219 45.2815 11.9063C44.8795 11.4996 44.5822 11.2742 43.9983 11.2149C43.4647 11.2237 43.0627 11.4712 42.7136 11.8663ZM23.4004 11.8382C23.2964 11.8841 23.1925 11.93 23.0854 11.9773C22.9735 12.0273 22.8616 12.0774 22.7463 12.1289C22.6891 12.1545 22.6319 12.18 22.573 12.2064C19.5591 13.5558 16.7081 15.1848 14.0744 17.1856C14.0086 17.2355 13.9428 17.2855 13.8751 17.337C13.3945 17.6991 13.3945 17.6991 13.1734 18.2491C13.1631 18.3481 13.1529 18.447 13.1424 18.549C13.1249 18.7151 13.1249 18.7151 13.1071 18.8846C13.0957 19.0007 13.0842 19.1168 13.0725 19.2363C13.0607 19.3477 13.0489 19.4591 13.0368 19.5738C12.8891 21.0109 12.822 22.4391 12.8205 23.8828C12.8204 23.9627 12.8202 24.0427 12.8201 24.125C12.8199 25.3342 12.8698 26.5335 12.9729 27.7383C12.9818 27.8436 12.9818 27.8436 12.9908 27.9511C13.0266 29.2546 13.0266 29.2546 13.4907 30.4175C13.5673 30.4731 13.6439 30.5287 13.7229 30.586C13.8615 30.6886 13.8615 30.6886 14.003 30.7932C14.1167 30.8726 14.2303 30.9519 14.344 31.0313C14.486 31.1339 14.628 31.2367 14.7699 31.3396C15.7169 32.02 16.6856 32.6565 17.6906 33.2478C17.8356 33.3333 17.9802 33.4193 18.1245 33.5058C19.1838 34.1408 20.27 34.7068 21.3811 35.2442C21.4424 35.2739 21.5038 35.3036 21.5671 35.3343C21.8607 35.4761 22.1551 35.6161 22.4512 35.7528C22.6655 35.8524 22.8784 35.9552 23.0894 36.0616C23.6911 36.3557 23.6911 36.3557 24.3342 36.2923C24.4744 36.2295 24.6131 36.1631 24.7502 36.0938C24.9142 36.0235 25.0783 35.9535 25.2424 35.8836C25.4224 35.802 25.6021 35.7196 25.7815 35.6367C25.8789 35.5918 25.9763 35.5468 26.0766 35.5004C30.9059 33.3897 30.9059 33.3897 34.7815 30C34.8318 29.7435 34.8318 29.7435 34.858 29.4511C34.8755 29.2849 34.8755 29.2849 34.8933 29.1154C34.9048 28.9994 34.9162 28.8833 34.928 28.7637C34.9397 28.6523 34.9515 28.541 34.9637 28.4262C35.1113 26.9891 35.1784 25.5609 35.1799 24.1172C35.1801 24.0373 35.1802 23.9574 35.1804 23.875C35.1805 22.6658 35.1306 21.4665 35.0276 20.2617C35.0216 20.1915 35.0157 20.1213 35.0096 20.049C34.9738 18.7454 34.9738 18.7454 34.5097 17.5825C34.4331 17.5269 34.3565 17.4714 34.2776 17.4141C34.1371 17.3104 34.1371 17.3104 33.9937 17.2046C33.9136 17.1487 33.9136 17.1487 33.8319 17.0916C33.6402 16.9574 33.452 16.8189 33.2635 16.6802C28.5278 13.1395 28.5278 13.1395 23.4004 11.8382ZM10.717 20.0175C10.663 20.0712 10.6089 20.1249 10.5532 20.1803C10.438 20.295 10.323 20.4099 10.208 20.5248C10.0353 20.6974 9.86185 20.8691 9.68833 21.0408C9.1094 21.6171 8.55865 22.1974 8.05198 22.8391C7.81533 23.1382 7.56529 23.4248 7.31455 23.7122C7.19529 23.9044 7.19529 23.9044 7.26365 24.1256C7.45078 24.4524 7.67871 24.7209 7.92795 25.002C7.97369 25.0546 8.01943 25.1072 8.06656 25.1615C8.22044 25.3378 8.37584 25.5127 8.53147 25.6875C8.62616 25.7948 8.62616 25.7948 8.72277 25.9043C9.24926 26.4964 9.79816 27.0622 10.3596 27.6211C10.4444 27.7063 10.5293 27.7915 10.6167 27.8793C10.7374 27.9998 10.7374 27.9998 10.8606 28.1228C10.9333 28.1954 11.006 28.268 11.0808 28.3428C11.2232 28.5106 11.2232 28.5106 11.344 28.5C11.3338 28.3347 11.3338 28.3347 11.3235 28.166C11.1676 25.2907 11.1675 22.3743 11.344 19.5C11.1231 19.5 10.8738 19.861 10.717 20.0175ZM36.6565 19.5C36.6593 19.5523 36.6621 19.6045 36.6651 19.6583C36.8173 22.5986 36.8163 25.5601 36.6565 28.5C37.213 28.0377 37.7273 27.541 38.2385 27.0293C38.322 26.9458 38.4055 26.8622 38.4915 26.7761C39.0436 26.2188 39.5565 25.6561 40.0315 25.0313C40.1737 24.8533 40.3163 24.6755 40.4592 24.4981C40.5667 24.3633 40.6741 24.2286 40.7815 24.0938C40.6426 23.6542 40.3846 23.349 40.0842 23.0098C40.0084 22.923 40.0084 22.923 39.931 22.8345C39.7777 22.6598 39.6235 22.4861 39.469 22.3125C39.3884 22.2213 39.3078 22.13 39.2247 22.036C38.6798 21.4303 38.1102 20.8507 37.5354 20.2735C37.4597 20.1973 37.384 20.1212 37.3061 20.0428C37.2355 19.9725 37.165 19.9021 37.0923 19.8296C37.0286 19.7661 36.965 19.7025 36.8994 19.6371C36.7725 19.4894 36.7725 19.4894 36.6565 19.5ZM6.09397 25.5C4.9646 27.4258 3.84397 29.6721 3.84397 31.9688C3.91998 31.9758 3.996 31.9828 4.07431 31.99C4.98451 32.0981 5.78094 32.3411 6.41623 33.0352C7.09852 33.9245 7.20993 34.8083 7.12522 35.9063C7.05096 36.1712 6.96061 36.4041 6.8414 36.6515C6.75205 36.8399 6.70007 37.0154 6.65647 37.2188C8.93276 38.4534 11.2058 38.7915 13.7815 38.7188C13.7355 38.5875 13.7355 38.5875 13.6886 38.4536C13.1557 36.9249 12.6369 35.3999 12.2756 33.8203C12.2492 33.7048 12.2227 33.5892 12.1955 33.4701C12.0914 32.9993 11.9949 32.5319 11.9347 32.0534C11.8532 31.4107 11.7762 31.0075 11.2561 30.5801C11.0673 30.4483 10.8778 30.3174 10.6877 30.1875C9.94251 29.5564 9.25372 28.8589 8.56076 28.1719C8.47836 28.0907 8.39596 28.0095 8.31105 27.9259C7.74995 27.3655 7.24397 26.7763 6.75022 26.1563C6.56628 25.9336 6.37962 25.7159 6.18772 25.5C6.15678 25.5 6.12584 25.5 6.09397 25.5ZM41.8127 25.5C41.7367 25.5885 41.6607 25.6769 41.5824 25.7681C38.2573 29.6286 38.2573 29.6286 36.5117 30.8189C36.2327 31.0762 36.2004 31.2173 36.139 31.5875C36.119 31.6993 36.099 31.811 36.0784 31.9261C36.0584 32.0465 36.0384 32.1669 36.0178 32.291C35.9716 32.5472 35.9233 32.8029 35.8746 33.0586C35.8622 33.1239 35.8499 33.1892 35.8371 33.2565C35.4765 35.1224 34.8741 36.9381 34.219 38.7188C36.6983 38.7872 39.1905 38.547 41.344 37.2188C41.245 36.9119 41.1422 36.6261 41.0041 36.334C40.7225 35.5869 40.7532 34.5878 41.0539 33.8485C41.517 32.9803 42.1456 32.504 43.0432 32.127C43.3827 32.0458 43.7154 32.0047 44.0627 31.9688C44.1118 29.9877 43.3314 27.0917 41.9403 25.6185C41.8982 25.5794 41.8561 25.5403 41.8127 25.5ZM13.7815 32.7188C13.8363 33.4372 14.003 34.0962 14.2033 34.7871C14.2524 34.9578 14.2524 34.9578 14.3024 35.1318C14.7177 36.9452 14.7177 36.9452 15.5627 38.5313C16.4213 38.5219 17.2572 38.3642 18.094 38.1856C18.2112 38.1609 18.3284 38.1362 18.4491 38.1108C19.1883 37.9515 19.9208 37.7753 20.6487 37.5703C20.7312 37.5473 20.8137 37.5242 20.8988 37.5005C21.0908 37.4441 21.2803 37.3792 21.469 37.3125C21.5154 37.2197 21.5154 37.2197 21.5627 37.125C21.4921 37.0921 21.4216 37.0592 21.3489 37.0254C19.7138 36.2597 18.1361 35.4427 16.594 34.5C16.5206 34.4555 16.4473 34.411 16.3718 34.3652C15.5949 33.8929 14.8398 33.3963 14.0982 32.8704C13.9072 32.71 13.9072 32.71 13.7815 32.7188ZM34.1252 32.7188C34.0679 32.7578 34.0105 32.7969 33.9514 32.8371C31.5835 34.4447 29.1037 36.0492 26.4377 37.125C26.5141 37.3299 26.5141 37.3299 26.7201 37.3866C26.8028 37.4101 26.8856 37.4337 26.9709 37.4579C27.0644 37.4845 27.1578 37.5112 27.2541 37.5386C27.3559 37.5665 27.4578 37.5943 27.5627 37.6231C27.6672 37.6519 27.7717 37.6807 27.8794 37.7104C29.3612 38.1101 30.8957 38.4975 32.4377 38.5313C32.8009 37.8637 33.0388 37.1657 33.2756 36.4453C33.2961 36.3835 33.3166 36.3217 33.3377 36.258C33.5976 35.4712 33.8444 34.6822 34.049 33.8789C34.0783 33.7659 34.0783 33.7659 34.1082 33.6507C34.1918 33.3035 34.2294 33.0598 34.1252 32.7188ZM2.67795 34.3184C2.45143 34.7442 2.40514 35.0507 2.43772 35.5313C2.61452 36.0409 2.94097 36.3533 3.37522 36.6563C3.84397 36.8125 4.24583 36.804 4.69944 36.6094C5.12033 36.376 5.35974 36.0729 5.53147 35.625C5.62772 35.1293 5.56715 34.696 5.28684 34.2726C4.99475 33.9419 4.65114 33.7103 4.2175 33.6145C3.583 33.577 3.06859 33.8276 2.67795 34.3184ZM42.7136 34.2726C42.432 34.6979 42.3842 35.1269 42.469 35.625C42.6285 36.1236 42.9429 36.4144 43.3926 36.6676C43.828 36.8458 44.1917 36.8018 44.6369 36.6504C45.0605 36.3649 45.3996 36.0206 45.5627 35.5313C45.6 35.0371 45.5465 34.7328 45.2815 34.3125C44.8808 33.8486 44.5913 33.6846 43.9865 33.6152C43.4609 33.6311 43.0573 33.8836 42.7136 34.2726ZM23.2026 38.4115C23.1037 38.4462 23.0048 38.481 22.903 38.5167C22.7971 38.5544 22.6913 38.5921 22.5822 38.6309C20.5646 39.3245 18.5141 39.8012 16.4065 40.125C16.4573 40.5889 16.67 40.9128 16.9162 41.2969C16.9581 41.3628 17 41.4288 17.0431 41.4967C18.3944 43.5941 20.2244 45.6882 22.7665 46.2748C24.5921 46.5072 26.2135 46.1859 27.7271 45.0952C27.9589 44.9127 28.1833 44.7241 28.4065 44.5313C28.4708 44.4794 28.5351 44.4276 28.6013 44.3742C29.1444 43.9262 29.5712 43.3996 30.0002 42.8438C30.0631 42.7626 30.1259 42.6813 30.1906 42.5977C30.5618 42.1029 30.8973 41.5903 31.219 41.0625C31.275 40.9715 31.275 40.9715 31.3321 40.8786C31.5439 40.5269 31.5439 40.5269 31.594 40.125C31.4968 40.1096 31.4968 40.1096 31.3976 40.0939C29.1698 39.7342 26.967 39.2567 24.8544 38.4453C24.7862 38.4195 24.718 38.3937 24.6477 38.3672C24.59 38.3445 24.5323 38.3218 24.4728 38.2984C24.0176 38.1833 23.6365 38.2549 23.2026 38.4115Z" fill="#FCFCFC"></path>
    <path d="M20.1438 18.3193C20.4589 18.407 20.5983 18.6005 20.8125 18.8438C20.9368 19.0826 21.0435 19.3102 21.1443 19.5582C21.1891 19.6645 21.1891 19.6645 21.2349 19.773C21.3335 20.0077 21.4304 20.2431 21.5274 20.4785C21.5966 20.6443 21.6659 20.81 21.7353 20.9757C21.9215 21.4209 22.1061 21.8668 22.2902 22.3129C22.4079 22.5976 22.5258 22.8823 22.6439 23.1669C23.0616 24.1735 23.4792 25.1801 23.892 26.1888C24.0534 26.5828 24.2166 26.9757 24.3852 27.3666C24.416 27.439 24.4469 27.5114 24.4786 27.5859C24.5359 27.7199 24.5939 27.8536 24.6528 27.9869C24.8113 28.3603 24.8842 28.6573 24.8438 29.0625C24.6314 29.4968 24.6314 29.4968 24.375 29.625C23.8421 29.6774 23.8421 29.6774 23.625 29.625C23.2566 29.3042 23.0647 29.0151 22.8849 28.5634C22.8174 28.3956 22.8174 28.3956 22.7485 28.2244C22.726 28.1668 22.7035 28.1091 22.6803 28.0497C22.611 27.8721 22.54 27.6952 22.4687 27.5184C22.125 26.6556 22.125 26.6556 22.125 26.4375C20.7328 26.4684 19.3406 26.4994 17.9063 26.5312C17.5556 27.4085 17.5556 27.4085 17.208 28.287C17.1412 28.4511 17.1412 28.4511 17.0731 28.6187C17.0285 28.7306 16.9838 28.8425 16.9377 28.9579C16.7667 29.2772 16.6161 29.4309 16.3125 29.625C15.9003 29.6912 15.7278 29.6737 15.3809 29.4375C15.1384 29.0848 15.1337 28.8176 15.1875 28.4062C15.2775 28.0952 15.4023 27.8033 15.5318 27.5068C15.5683 27.4201 15.6049 27.3335 15.6425 27.2441C15.7631 26.9591 15.8854 26.6749 16.0078 26.3906C16.0923 26.1918 16.1767 25.9929 16.2609 25.7939C16.4372 25.3776 16.6141 24.9616 16.7913 24.5457C17.0616 23.9102 17.3271 23.2728 17.5913 22.6348C17.655 22.4812 17.655 22.4812 17.7199 22.3245C17.885 21.9262 18.0499 21.5278 18.2147 21.1294C18.3284 20.8547 18.4425 20.5802 18.5567 20.3057C18.5898 20.2254 18.6229 20.1451 18.657 20.0624C19.368 18.3558 19.368 18.3558 20.1438 18.3193ZM19.9688 21.4688C19.8201 21.8085 19.6717 22.1484 19.5234 22.4883C19.4819 22.5833 19.4403 22.6783 19.3975 22.7761C18.9006 23.7322 18.9006 23.7322 18.6563 24.75C19.5534 24.75 20.4506 24.75 21.375 24.75C20.9684 23.6419 20.5272 22.5538 20.0625 21.4688C20.0316 21.4688 20.0006 21.4688 19.9688 21.4688Z" fill="#FCFCFC"></path>
    <path d="M27.302 18.3095C27.423 18.3088 27.544 18.3081 27.6686 18.3074C27.9243 18.3063 28.1799 18.3069 28.4355 18.3088C28.7625 18.3109 29.0892 18.3084 29.4162 18.3045C29.729 18.3015 30.0418 18.3028 30.3547 18.3036C30.4718 18.3022 30.5889 18.3007 30.7095 18.2993C31.4987 18.3099 31.4987 18.3099 31.7734 18.4977C31.949 18.7 32.0533 18.8814 32.0979 19.1466C32.0461 19.4166 32.0006 19.6429 31.84 19.8692C31.1802 20.3006 30.4197 20.0625 29.6252 20.0625C29.6252 22.6613 29.6252 25.26 29.6252 27.9375C30.213 27.9375 30.8008 27.9375 31.4065 27.9375C31.9752 28.2788 31.9752 28.2788 32.0627 28.5938C32.05 28.9488 32.0301 29.171 31.8103 29.4549C31.5385 29.6686 31.3941 29.6729 31.0511 29.675C30.8873 29.6773 30.8873 29.6773 30.7202 29.6795C30.6026 29.6791 30.485 29.6786 30.3638 29.6781C30.2427 29.6787 30.1216 29.6793 29.9968 29.6799C29.7406 29.6809 29.4844 29.6804 29.2282 29.6791C28.9005 29.6774 28.573 29.6796 28.2453 29.6829C27.932 29.6855 27.6186 29.6846 27.3053 29.684C27.1879 29.6852 27.0705 29.6865 26.9495 29.6877C26.0447 29.678 26.0447 29.678 25.7544 29.3992C25.5046 29.0209 25.5301 28.8529 25.594 28.4063C25.7693 28.1783 25.9016 28.0649 26.1565 27.9375C26.7443 27.9375 27.3321 27.9375 27.9377 27.9375C27.9377 25.3388 27.9377 22.74 27.9377 20.0625C27.3499 20.0625 26.7621 20.0625 26.1565 20.0625C25.6877 19.7813 25.6877 19.7813 25.594 19.5938C25.5298 18.9412 25.5298 18.9412 25.7539 18.6008C26.1638 18.2086 26.7726 18.3065 27.302 18.3095Z" fill="#FCFCFC"></path>
  </g>
  <defs>
    <clipPath id="clip0_3684_552">
      <rect width="48" height="48" fill="white"></rect>
    </clipPath>
  </defs>
</svg>
