<?xml version="1.0" encoding="UTF-8"?>
<svg xmlns="http://www.w3.org/2000/svg" width="48" height="48" viewBox="0 0 48 48" fill="none">
  <g clip-path="url(#clip0_3684_516)">
    <path d="M4.4796 -0.0125688C4.57011 -0.0129867 4.66062 -0.0134046 4.75388 -0.0138352C4.90265 -0.0138093 4.90265 -0.0138093 5.05443 -0.0137828C5.16 -0.0141275 5.26558 -0.0144722 5.37435 -0.0148274C5.72943 -0.0158629 6.08452 -0.0162226 6.4396 -0.0165795C6.69368 -0.0171169 6.94776 -0.0177887 7.20183 -0.0184463C7.96531 -0.0202982 8.7288 -0.0212429 9.49228 -0.022077C9.85207 -0.0224882 10.2119 -0.0229913 10.5717 -0.0234823C11.7682 -0.0250772 12.9647 -0.0264359 14.1613 -0.0271149C14.4717 -0.027294 14.7821 -0.027474 15.0926 -0.0276574C15.2083 -0.0277254 15.2083 -0.0277254 15.3264 -0.0277948C16.5754 -0.0285724 17.8243 -0.0309469 19.0733 -0.0339931C20.3564 -0.037097 21.6396 -0.0387823 22.9227 -0.0390816C23.6428 -0.0392843 24.3629 -0.0400998 25.083 -0.0424998C25.6965 -0.0445398 26.3099 -0.0452872 26.9234 -0.0443779C27.2361 -0.0439533 27.5487 -0.044328 27.8614 -0.0459493C28.2013 -0.0476129 28.5412 -0.046943 28.8811 -0.0457119C28.9787 -0.0467402 29.0762 -0.0477686 29.1766 -0.0488281C30.5323 -0.0370338 31.7172 0.550808 32.7024 1.46266C33.5679 2.41848 34.0402 3.5666 34.0448 4.84792C34.0452 4.90995 34.0455 4.97197 34.0459 5.03587C34.0469 5.24299 34.0473 5.4501 34.0476 5.65722C34.0482 5.806 34.0488 5.95479 34.0495 6.10357C34.0515 6.59139 34.0524 7.07921 34.0534 7.56703C34.0537 7.73514 34.0541 7.90324 34.0545 8.07135C34.0563 8.86084 34.0576 9.65033 34.0584 10.4398C34.0593 11.3508 34.0618 12.2618 34.0656 13.1728C34.0684 13.8774 34.0698 14.5819 34.0701 15.2865C34.0703 15.7071 34.0712 16.1278 34.0735 16.5485C34.0757 16.9441 34.0761 17.3396 34.0752 17.7352C34.0751 17.8803 34.0757 18.0253 34.077 18.1704C34.0787 18.3687 34.078 18.5669 34.0768 18.7652C34.077 18.8761 34.0772 18.9869 34.0774 19.1012C34.021 19.4722 33.8878 19.6771 33.656 19.9688C33.3078 20.1429 32.9102 20.1174 32.531 20.0625C32.2663 19.8572 32.1171 19.7034 31.9685 19.4063C31.9594 19.2138 31.9564 19.021 31.9562 18.8283C31.9557 18.6432 31.9557 18.6432 31.9551 18.4544C31.9551 18.3168 31.9552 18.1792 31.9552 18.0416C31.955 17.8973 31.9546 17.753 31.9542 17.6087C31.9535 17.2974 31.953 16.9861 31.9527 16.6747C31.9522 16.1818 31.9506 15.6888 31.9488 15.1959C31.9482 15.0271 31.9477 14.8583 31.9471 14.6895C31.9468 14.6049 31.9465 14.5204 31.9462 14.4332C31.9422 13.2854 31.9391 12.1376 31.938 10.9898C31.9372 10.216 31.9351 9.44209 31.9315 8.66822C31.9296 8.2589 31.9285 7.84961 31.9289 7.44028C31.9294 7.05452 31.9281 6.6688 31.9255 6.28305C31.9248 6.14213 31.9248 6.00121 31.9255 5.86029C31.9305 4.71525 31.7764 3.65934 30.9373 2.81251C30.2067 2.23971 29.5139 2.12844 28.606 2.13119C28.5032 2.13077 28.4004 2.13034 28.2945 2.12991C27.9499 2.12872 27.6054 2.12887 27.2608 2.12903C27.0138 2.12847 26.7668 2.12783 26.5197 2.12712C25.9183 2.12556 25.3168 2.12505 24.7154 2.12494C24.2263 2.12485 23.7373 2.12447 23.2482 2.12387C21.8607 2.12222 20.4733 2.12136 19.0858 2.1215C18.9736 2.12151 18.9736 2.12151 18.8592 2.12152C18.7844 2.12153 18.7095 2.12154 18.6324 2.12154C17.4197 2.12162 16.207 2.11983 14.9943 2.11718C13.7482 2.11449 12.5021 2.11319 11.256 2.11336C10.5568 2.11342 9.8576 2.11291 9.15837 2.11088C8.56295 2.10917 7.96754 2.10877 7.37212 2.11004C7.06858 2.11065 6.76507 2.11047 6.46153 2.10904C6.13179 2.10759 5.80213 2.10846 5.47239 2.10991C5.32987 2.10846 5.32987 2.10846 5.18448 2.10698C4.28818 2.11563 3.54382 2.37571 2.88333 2.99342C2.40543 3.55628 2.14468 4.22443 2.14345 4.95655C2.14303 5.07214 2.14261 5.18773 2.14218 5.30682C2.14219 5.43578 2.14221 5.56474 2.14224 5.6937C2.14193 5.83017 2.14158 5.96664 2.14119 6.1031C2.14025 6.47905 2.1399 6.85499 2.13966 7.23094C2.13929 7.63605 2.13839 8.04117 2.13757 8.44629C2.13572 9.42519 2.13478 10.4041 2.13394 11.383C2.13353 11.8439 2.13303 12.3048 2.13254 12.7657C2.13094 14.2979 2.12958 15.83 2.1289 17.3621C2.12873 17.7598 2.12855 18.1575 2.12836 18.5552C2.12832 18.6541 2.12827 18.7529 2.12822 18.8547C2.12745 20.4558 2.12507 22.0568 2.12203 23.6578C2.11893 25.3014 2.11724 26.9449 2.11694 28.5885C2.11673 29.5113 2.11591 30.4342 2.11352 31.357C2.11148 32.1431 2.11073 32.9291 2.11164 33.7151C2.11207 34.116 2.11189 34.517 2.11007 34.9179C2.10842 35.2853 2.10851 35.6527 2.10997 36.0201C2.11019 36.1527 2.10978 36.2852 2.10867 36.4178C2.10031 37.4784 2.25089 38.3228 2.99319 39.1165C3.52906 39.5715 4.19045 39.8551 4.89164 39.8561C5.04245 39.8566 5.04245 39.8566 5.19631 39.8572C5.30663 39.8572 5.41694 39.8571 5.5306 39.8571C5.64678 39.8574 5.76296 39.8577 5.88266 39.8581C6.13542 39.8587 6.38817 39.8593 6.64093 39.8596C7.04082 39.8601 7.44071 39.8617 7.8406 39.8635C7.97756 39.864 8.11452 39.8646 8.25148 39.8652C8.35436 39.8657 8.35436 39.8657 8.45932 39.8661C9.39024 39.8701 10.3212 39.8732 11.2521 39.8743C11.8801 39.8751 12.5081 39.8772 13.1362 39.8808C13.4684 39.8827 13.8006 39.8838 14.1328 39.8834C14.5036 39.8829 14.8743 39.8852 15.2451 39.8878C15.3548 39.8872 15.4646 39.8866 15.5776 39.886C16.1615 39.8927 16.5276 39.914 16.9685 40.3125C17.1565 40.5815 17.181 40.78 17.1502 41.1035C17.1452 41.173 17.1403 41.2425 17.1352 41.3141C17.0277 41.6344 16.884 41.8329 16.5935 42C16.197 42.0711 15.8038 42.0621 15.402 42.0577C15.2809 42.0582 15.1598 42.0587 15.0351 42.0593C14.7034 42.0606 14.3718 42.059 14.0401 42.0568C13.6922 42.0549 13.3444 42.0555 12.9965 42.0557C12.4118 42.0557 11.8271 42.0538 11.2424 42.0508C10.5683 42.0474 9.89415 42.0465 9.22001 42.0472C8.56992 42.0478 7.91985 42.0468 7.26976 42.045C6.99396 42.0442 6.71816 42.0439 6.44235 42.0441C6.05596 42.0442 5.66961 42.0419 5.28322 42.0394C5.11318 42.0398 5.11318 42.0398 4.9397 42.0402C4.27745 42.0336 3.7148 41.95 3.09353 41.7188C3.0087 41.6878 2.92386 41.6569 2.83645 41.625C1.64464 41.0662 0.711535 40.0568 0.251737 38.8301C0.0820505 38.3339 -0.0119363 37.9226 -0.0125378 37.3952C-0.0128979 37.2768 -0.0132579 37.1585 -0.013629 37.0365C-0.0135558 36.9048 -0.0134735 36.7732 -0.0133829 36.6416C-0.0136251 36.5019 -0.0139075 36.3623 -0.0142269 36.2227C-0.0149838 35.8384 -0.0151512 35.4541 -0.0152204 35.0698C-0.0153938 34.6556 -0.0161015 34.2413 -0.0167332 33.827C-0.0180069 32.9209 -0.0185714 32.0148 -0.0189841 31.1086C-0.019243 30.5429 -0.0196404 29.9771 -0.0200627 29.4113C-0.0212058 27.8448 -0.0221714 26.2783 -0.0224885 24.7118C-0.0225091 24.6116 -0.0225295 24.5113 -0.0225507 24.408C-0.0225712 24.3075 -0.0225918 24.2069 -0.0226129 24.1034C-0.0226545 23.8997 -0.0226963 23.696 -0.0227385 23.4923C-0.0227592 23.3913 -0.02278 23.2902 -0.0228014 23.1861C-0.0231715 21.5493 -0.0248076 19.9126 -0.026991 18.2758C-0.0292146 16.5954 -0.0303825 14.9149 -0.0304918 13.2345C-0.0305778 12.291 -0.0311165 11.3475 -0.0328186 10.404C-0.034263 9.60049 -0.034742 8.79698 -0.033968 7.99347C-0.0336019 7.58361 -0.0336881 7.17376 -0.0350047 6.7639C-0.0362001 6.38834 -0.0360857 6.0128 -0.0349493 5.63724C-0.034766 5.50172 -0.0350537 5.3662 -0.0358723 5.23068C-0.0401837 4.46844 0.00668436 3.80864 0.281033 3.09376C0.32744 2.96651 0.32744 2.96651 0.374783 2.83668C0.933583 1.64487 1.94304 0.711766 3.1697 0.251968C3.61555 0.0994937 4.00653 -0.0115536 4.4796 -0.0125688Z" fill="#FF7705"></path>
    <path d="M35.4436 24.2531C35.5035 24.2933 35.5635 24.3336 35.6252 24.375C35.7181 24.4369 35.7181 24.4369 35.8127 24.4999C36.4428 24.986 36.8151 25.6733 37.219 26.3438C37.3164 26.5035 37.414 26.6632 37.5116 26.8228C37.7336 27.1863 37.9548 27.5502 38.1755 27.9145C38.5356 28.5078 38.8995 29.0988 39.2639 29.6895C39.8228 30.596 40.377 31.5051 40.9289 32.4159C41.4079 33.2063 41.8901 33.9947 42.3752 34.7813C42.9283 35.678 43.4767 36.5775 44.0227 37.4785C44.5017 38.2689 44.9839 39.0572 45.469 39.8438C45.6537 40.1437 45.8382 40.4437 46.0228 40.7438C46.1606 40.9676 46.2984 41.1913 46.4364 41.415C46.6217 41.7155 46.8064 42.0163 46.9907 42.3174C47.0614 42.4327 47.1323 42.5478 47.2034 42.6628C47.3023 42.8229 47.4004 42.9835 47.4985 43.1441C47.5548 43.2356 47.611 43.3271 47.669 43.4214C48.088 44.197 48.1484 45.1547 47.9358 46.009C47.8477 46.2192 47.7486 46.4023 47.6252 46.5938C47.5844 46.66 47.5436 46.7262 47.5015 46.7945C47.0634 47.4408 46.4995 47.7961 45.7502 48C45.4318 48.0273 45.1144 48.0261 44.7949 48.0251C44.699 48.0255 44.603 48.026 44.5041 48.0264C44.1826 48.0276 43.8612 48.0274 43.5397 48.0273C43.3091 48.0278 43.0786 48.0285 42.848 48.0292C42.2869 48.0307 41.7257 48.0313 41.1645 48.0314C40.7082 48.0315 40.2519 48.0318 39.7956 48.0324C38.501 48.0341 37.2064 48.0349 35.9119 48.0348C35.8421 48.0348 35.7724 48.0348 35.7005 48.0348C35.6307 48.0348 35.5609 48.0348 35.4889 48.0348C34.3574 48.0347 33.2258 48.0365 32.0943 48.0391C30.9316 48.0418 29.7689 48.0431 28.6062 48.0429C27.9538 48.0429 27.3013 48.0434 26.6489 48.0454C26.0352 48.0473 25.4216 48.0473 24.8079 48.0459C24.5828 48.0457 24.3578 48.0461 24.1327 48.0473C23.8251 48.0487 23.5176 48.0478 23.21 48.0464C23.1213 48.0474 23.0326 48.0483 22.9412 48.0493C22.0743 48.0403 21.424 47.7363 20.793 47.1493C20.2239 46.5367 19.9433 45.8627 19.9338 45.0235C19.9298 44.8647 19.9298 44.8647 19.9258 44.7027C20.0287 43.8482 20.4804 43.1388 20.9299 42.4219C20.9872 42.3292 21.0444 42.2366 21.1034 42.1411C21.2252 41.944 21.3473 41.7472 21.4697 41.5505C21.7778 41.0549 22.0832 40.5576 22.3889 40.0606C22.4512 39.9596 22.5135 39.8585 22.5776 39.7544C23.0732 38.9498 23.5642 38.1424 24.0539 37.3342C24.594 36.4429 25.1388 35.5547 25.6859 34.6678C26.1428 33.9263 26.5958 33.1824 27.0471 32.4375C27.6201 31.4919 28.1973 30.549 28.778 29.6082C29.1095 29.0704 29.4391 28.5316 29.7659 27.991C29.8189 27.9034 29.8189 27.9034 29.8729 27.814C30.0428 27.5331 30.2124 27.2521 30.3815 26.9707C31.8933 24.4678 31.8933 24.4678 32.9995 24.0652C33.7829 23.8841 34.7245 23.8568 35.4436 24.2531ZM33.1877 26.4375C32.9818 26.7377 32.8042 27.0524 32.6252 27.3692C32.5169 27.5568 32.4084 27.7443 32.2997 27.9317C32.2447 28.0268 32.1897 28.1219 32.133 28.2199C31.8846 28.6441 31.6258 29.0616 31.3655 29.4786C30.9437 30.156 30.5257 30.8355 30.1116 31.5176C29.6456 32.285 29.1765 33.0503 28.7053 33.8145C28.1465 34.721 27.5922 35.6301 27.0404 36.5409C26.5006 37.4317 25.9561 38.3195 25.4091 39.2059C25.0826 39.7356 24.7576 40.2662 24.4353 40.7985C24.3841 40.883 24.3841 40.883 24.332 40.9691C24.1954 41.1946 24.059 41.4201 23.9228 41.6458C23.5897 42.1978 23.2546 42.7478 22.9031 43.2884C22.8505 43.3695 22.7979 43.4507 22.7437 43.5343C22.6476 43.6815 22.5506 43.8281 22.4524 43.9739C22.1888 44.3776 22.0493 44.6922 22.0315 45.1875C22.1824 45.5369 22.3562 45.7531 22.6877 45.9375C22.9874 45.98 23.2852 45.9754 23.5874 45.9733C23.6797 45.9737 23.7719 45.9741 23.867 45.9746C24.177 45.9757 24.4869 45.9748 24.7969 45.9739C25.0188 45.9743 25.2407 45.9748 25.4626 45.9754C26.0032 45.9766 26.5439 45.9764 27.0846 45.9756C27.524 45.975 27.9634 45.9749 28.4028 45.9752C28.4966 45.9752 28.4966 45.9752 28.5923 45.9753C28.7193 45.9754 28.8463 45.9755 28.9733 45.9756C30.1646 45.9764 31.3558 45.9755 32.5471 45.9739C33.5693 45.9727 34.5915 45.9729 35.6136 45.9742C36.8005 45.9757 37.9873 45.9763 39.1742 45.9754C39.3007 45.9754 39.4273 45.9753 39.5539 45.9752C39.6162 45.9751 39.6784 45.9751 39.7426 45.975C40.1814 45.9748 40.6203 45.9752 41.0591 45.9759C41.6499 45.9767 42.2406 45.9761 42.8313 45.9745C43.0484 45.9741 43.2654 45.9742 43.4825 45.9749C43.7783 45.9756 44.0741 45.9747 44.3699 45.9733C44.4993 45.9742 44.4993 45.9742 44.6314 45.9752C45.0814 45.971 45.3852 45.9502 45.7502 45.6563C45.9724 45.3495 45.9791 45.0901 45.9377 44.7188C45.7926 44.3979 45.6078 44.1036 45.4221 43.8047C45.3676 43.7148 45.3131 43.6248 45.2569 43.5321C45.0789 43.2394 44.8991 42.9478 44.719 42.6563C44.5993 42.4613 44.4797 42.2662 44.3601 42.0711C44.1108 41.6649 43.8606 41.2592 43.6101 40.8538C43.2107 40.2067 42.8161 39.5567 42.4221 38.9063C41.9097 38.0605 41.3944 37.2167 40.8752 36.375C40.3222 35.4783 39.7738 34.5789 39.2278 33.6778C38.6883 32.7876 38.1442 31.9005 37.5977 31.0146C37.2654 30.4755 36.9347 29.9355 36.6063 29.394C36.5708 29.3353 36.5352 29.2767 36.4986 29.2163C36.3274 28.9339 36.1565 28.6514 35.9858 28.3688C35.8039 28.0683 35.6209 27.7685 35.4377 27.4688C35.3508 27.3241 35.3508 27.3241 35.262 27.1765C35.206 27.0853 35.1501 26.9941 35.0924 26.9001C35.0437 26.8198 34.9949 26.7394 34.9447 26.6567C34.7584 26.4065 34.5697 26.2388 34.3127 26.0625C33.7844 25.9871 33.5639 26.0708 33.1877 26.4375Z" fill="#FF7705"></path>
    <path d="M7.55951 15.9237C7.68504 15.9232 7.68504 15.9232 7.8131 15.9227C8.09465 15.9216 8.37619 15.9213 8.65774 15.9209C8.85914 15.9203 9.06055 15.9197 9.26195 15.9191C9.80993 15.9174 10.3579 15.9164 10.9059 15.9157C11.2481 15.9152 11.5902 15.9146 11.9324 15.914C13.0025 15.9122 14.0726 15.9109 15.1427 15.9101C16.379 15.9092 17.6152 15.9067 18.8514 15.9029C19.8063 15.9001 20.7613 15.8987 21.7162 15.8984C22.2868 15.8982 22.8575 15.8974 23.4281 15.895C23.9648 15.8928 24.5015 15.8924 25.0382 15.8934C25.2353 15.8934 25.4324 15.8928 25.6294 15.8916C25.8983 15.8899 26.1672 15.8906 26.4361 15.8918C26.5141 15.8908 26.5922 15.8897 26.6726 15.8887C27.1682 15.8942 27.4517 15.9823 27.8438 16.3125C28.0751 16.6596 28.0951 16.9411 28.0313 17.3438C27.75 17.8594 27.75 17.8594 27.4688 18C27.197 18.0098 26.9275 18.0139 26.6557 18.0138C26.5705 18.0142 26.4853 18.0145 26.3975 18.0149C26.1103 18.0159 25.823 18.0163 25.5358 18.0166C25.3306 18.0172 25.1253 18.0178 24.9201 18.0185C24.3613 18.0201 23.8024 18.0211 23.2436 18.0219C22.8948 18.0224 22.5459 18.0229 22.1971 18.0235C21.169 18.0252 20.1409 18.0265 19.1128 18.0273C18.9246 18.0274 18.7365 18.0275 18.5483 18.0277C18.486 18.0277 18.4237 18.0278 18.3595 18.0278C17.3501 18.0286 16.3408 18.031 15.3314 18.034C14.2954 18.0371 13.2595 18.0388 12.2235 18.0391C11.6417 18.0393 11.0599 18.0402 10.4781 18.0425C9.93092 18.0447 9.38376 18.0451 8.83657 18.0441C8.63555 18.0441 8.43453 18.0447 8.23351 18.046C7.95942 18.0476 7.68542 18.047 7.41132 18.0457C7.33147 18.0468 7.25162 18.0478 7.16934 18.0489C6.79186 18.0447 6.60742 18.0285 6.28096 17.8214C5.95351 17.4779 5.96338 17.1924 5.9667 16.7329C6.00003 16.5 6.00003 16.5 6.21683 16.2129C6.6511 15.8998 7.04454 15.9236 7.55951 15.9237Z" fill="#FF7705"></path>
    <path d="M7.07311 23.9856C7.18155 23.9848 7.28999 23.984 7.40171 23.9832C7.58106 23.9826 7.58106 23.9826 7.76403 23.982C7.89076 23.9812 8.01749 23.9804 8.14422 23.9796C8.56097 23.9772 8.97772 23.9757 9.39447 23.9744C9.53788 23.9739 9.68129 23.9734 9.8247 23.9729C10.4212 23.9709 11.0177 23.9691 11.6142 23.9681C12.4694 23.9665 13.3245 23.9634 14.1796 23.9581C14.7807 23.9544 15.3818 23.9526 15.983 23.9521C16.3421 23.9518 16.7012 23.9506 17.0603 23.9476C17.3982 23.9448 17.736 23.9442 18.0739 23.9453C18.2569 23.9453 18.4398 23.943 18.6228 23.9407C19.5172 23.9471 19.5172 23.9471 19.8068 24.2247C20.0473 24.587 20.102 24.8815 20.0626 25.3125C19.8733 25.698 19.7108 25.9077 19.3126 26.0625C19.0715 26.0864 19.0715 26.0864 18.7937 26.087C18.6882 26.0876 18.5826 26.0883 18.4739 26.089C18.3585 26.0888 18.2431 26.0885 18.1242 26.0883C18.0024 26.0888 17.8806 26.0892 17.755 26.0897C17.4211 26.091 17.0872 26.091 16.7532 26.0908C16.4744 26.0907 16.1955 26.0912 15.9166 26.0916C15.2587 26.0927 14.6007 26.0927 13.9427 26.0921C13.2642 26.0916 12.5856 26.0927 11.9071 26.0947C11.3243 26.0964 10.7415 26.0969 10.1586 26.0966C9.81065 26.0965 9.46267 26.0967 9.11468 26.098C8.72662 26.0994 8.33859 26.0985 7.95052 26.0974C7.83533 26.0982 7.72013 26.0989 7.60145 26.0996C7.49564 26.099 7.38984 26.0983 7.28083 26.0976C7.14325 26.0976 7.14325 26.0976 7.00289 26.0977C6.63865 26.0471 6.39974 25.873 6.11395 25.6516C5.91438 25.386 5.95712 25.1125 5.966 24.7922C6.01333 24.4731 6.13945 24.3086 6.37506 24.0938C6.61945 23.9716 6.79932 23.9871 7.07311 23.9856Z" fill="#FF7705"></path>
    <path d="M7.08071 7.95492C7.21476 7.95392 7.21476 7.95392 7.35153 7.95289C7.4499 7.95264 7.54828 7.95239 7.64964 7.95213C7.75301 7.95151 7.85637 7.95089 7.96287 7.95026C8.30612 7.94841 8.64937 7.94731 8.99263 7.94638C9.10967 7.946 9.2267 7.94562 9.34729 7.94522C9.90281 7.94347 10.4583 7.9421 11.0139 7.94132C11.6547 7.94041 12.2956 7.93794 12.9365 7.93415C13.4918 7.93098 14.0471 7.92987 14.6024 7.92949C14.8385 7.92903 15.0746 7.92794 15.3107 7.92621C15.6411 7.92393 15.9714 7.92401 16.3017 7.92466C16.3994 7.92346 16.497 7.92226 16.5976 7.92102C17.1557 7.92504 17.4824 7.96863 17.9062 8.34372C18.0803 8.69196 18.0548 9.08958 18 9.46872C17.7946 9.73349 17.6409 9.88263 17.3437 10.0312C17.2024 10.0407 17.0608 10.0443 16.9192 10.045C16.7851 10.046 16.7851 10.046 16.6484 10.047C16.5008 10.0474 16.5008 10.0474 16.3503 10.0478C16.2469 10.0484 16.1435 10.049 16.037 10.0497C15.6938 10.0515 15.3505 10.0526 15.0073 10.0536C14.8902 10.0539 14.7732 10.0543 14.6526 10.0547C14.0971 10.0565 13.5416 10.0578 12.986 10.0586C12.3452 10.0595 11.7043 10.062 11.0634 10.0658C10.5081 10.069 9.9528 10.0701 9.39747 10.0704C9.16138 10.0709 8.9253 10.072 8.68923 10.0737C8.35885 10.076 8.02855 10.0759 7.69817 10.0753C7.60055 10.0765 7.50293 10.0777 7.40235 10.0789C6.84421 10.0749 6.51752 10.0313 6.0937 9.65622C5.91958 9.30798 5.94511 8.91036 5.99995 8.53122C6.32744 8.10893 6.55879 7.95761 7.08071 7.95492Z" fill="#FF7705"></path>
    <path d="M34.4998 30.0001C34.8136 30.2369 34.9386 30.3787 35.0623 30.7501C35.0729 31.0195 35.0781 31.2867 35.0789 31.5562C35.0796 31.6385 35.0802 31.7209 35.0808 31.8057C35.0827 32.0785 35.0838 32.3512 35.0847 32.624C35.0851 32.7171 35.0855 32.8103 35.0858 32.9063C35.0878 33.3993 35.0891 33.8923 35.09 34.3853C35.0911 34.8945 35.0943 35.4035 35.098 35.9127C35.1005 36.3043 35.1012 36.6959 35.1016 37.0875C35.102 37.2751 35.1031 37.4628 35.1049 37.6505C35.1071 37.9133 35.1071 38.176 35.1064 38.4388C35.1076 38.5161 35.1088 38.5934 35.11 38.673C35.1056 39.1687 35.0175 39.4516 34.6873 39.8438C34.3403 40.0752 34.0588 40.0951 33.6561 40.0313C33.1405 39.7501 33.1405 39.7501 32.9998 39.4688C32.9891 39.191 32.9841 38.9153 32.9833 38.6374C32.9826 38.5513 32.982 38.4651 32.9814 38.3764C32.9795 38.0905 32.9784 37.8046 32.9775 37.5187C32.9771 37.4212 32.9767 37.3237 32.9764 37.2233C32.9744 36.7073 32.9731 36.1913 32.9722 35.6753C32.9711 35.1418 32.9679 34.6084 32.9642 34.075C32.9617 33.6653 32.961 33.2555 32.9606 32.8457C32.9602 32.6491 32.9591 32.4524 32.9573 32.2558C32.9551 31.9806 32.9551 31.7055 32.9558 31.4304C32.9546 31.3491 32.9534 31.2678 32.9521 31.184C32.9555 30.8017 32.9695 30.6106 33.1784 30.2798C33.5636 29.9151 33.9904 29.9272 34.4998 30.0001Z" fill="#FF7705"></path>
    <path d="M34.4999 42.0001C34.8011 42.1906 34.9248 42.3268 35.0302 42.668C35.1 43.0653 35.0852 43.2661 34.9042 43.6348C34.6566 43.9092 34.4812 44.0508 34.1077 44.0768C33.7338 44.0412 33.5041 43.9912 33.1816 43.7872C32.9241 43.3803 32.9144 43.0319 32.9999 42.5626C33.3766 41.9473 33.819 41.909 34.4999 42.0001Z" fill="#FF7705"></path>
  </g>
  <defs>
    <clipPath id="clip0_3684_516">
      <rect width="48" height="48" fill="white"></rect>
    </clipPath>
  </defs>
</svg>
