<?xml version="1.0" encoding="UTF-8"?>
<svg xmlns="http://www.w3.org/2000/svg" width="48" height="48" viewBox="0 0 48 48" fill="none">
  <path d="M36.0413 4.65821C36.5536 5.22362 36.8042 5.85185 36.952 6.59579C37.2149 7.91768 37.6286 9.20152 38.0188 10.4899C38.123 10.8343 38.2265 11.1789 38.33 11.5234C38.4576 11.9477 38.5852 12.372 38.7131 12.7962C38.9804 13.6829 39.2455 14.5702 39.5086 15.4581C39.5646 15.6474 39.6207 15.8366 39.6769 16.0258C39.9618 16.9866 39.9618 16.9866 40.0995 17.4527C40.1949 17.7757 40.2908 18.0986 40.3867 18.4215C40.4147 18.5165 40.4426 18.6115 40.4714 18.7094C40.4973 18.7964 40.5232 18.8833 40.5499 18.9728C40.5722 19.048 40.5944 19.1231 40.6173 19.2006C40.7505 19.5894 40.8711 19.805 41.2151 20.0332C42.2747 20.8029 42.9102 21.8694 43.1253 23.1563C43.1488 23.464 43.1491 23.7697 43.1465 24.0782C43.1466 24.1661 43.1466 24.254 43.1466 24.3446C43.1465 24.6322 43.145 24.9198 43.1436 25.2074C43.1432 25.408 43.143 25.6086 43.1428 25.8091C43.1421 26.3348 43.1402 26.8605 43.1381 27.3863C43.1362 27.9236 43.1354 28.4609 43.1344 28.9982C43.1324 30.0509 43.1292 31.1036 43.1253 32.1563C43.2203 32.1553 43.3154 32.1543 43.4134 32.1533C43.7661 32.1499 44.1189 32.1477 44.4717 32.146C44.6243 32.145 44.777 32.1437 44.9297 32.1421C45.1491 32.1398 45.3686 32.1388 45.588 32.1379C45.6563 32.137 45.7246 32.136 45.7949 32.135C46.1452 32.1349 46.2946 32.1442 46.594 32.3438C46.6297 32.5491 46.6297 32.5491 46.6304 32.8093C46.6317 32.957 46.6317 32.957 46.6332 33.1076C46.6327 33.2161 46.6323 33.3246 46.6319 33.4363C46.6329 33.6071 46.6329 33.6071 46.6338 33.7814C46.6353 34.0942 46.6354 34.407 46.6349 34.7199C46.6346 34.9808 46.6352 35.2417 46.6357 35.5027C46.637 36.1182 46.6369 36.7337 46.6358 37.3492C46.6347 37.9847 46.6361 38.6201 46.6386 39.2555C46.6407 39.8007 46.6413 40.3458 46.6407 40.8909C46.6404 41.2167 46.6406 41.5425 46.6423 41.8682C46.644 42.2314 46.6427 42.5946 46.641 42.9578C46.6419 43.0661 46.6429 43.1744 46.6438 43.2859C46.6429 43.3846 46.6419 43.4833 46.641 43.5851C46.641 43.671 46.641 43.7569 46.6409 43.8454C46.594 44.0625 46.594 44.0625 46.4536 44.2307C46.114 44.3944 45.7881 44.3828 45.419 44.3801C45.3374 44.3806 45.2559 44.3811 45.1719 44.3816C44.8982 44.383 44.6245 44.3823 44.3508 44.3816C44.1548 44.3822 43.9587 44.3828 43.7627 44.3836C43.2299 44.3853 42.697 44.3852 42.1642 44.3846C41.7196 44.3843 41.2751 44.3849 40.8305 44.3855C39.782 44.3868 38.7334 44.3866 37.6849 44.3856C36.6025 44.3845 35.52 44.3858 34.4376 44.3883C33.5089 44.3904 32.5801 44.391 31.6514 44.3905C31.0964 44.3902 30.5415 44.3904 29.9865 44.392C29.4647 44.3935 28.9429 44.3931 28.4211 44.3913C28.2295 44.391 28.0378 44.3913 27.8462 44.3922C27.5848 44.3935 27.3236 44.3924 27.0622 44.3907C26.9861 44.3916 26.91 44.3925 26.8317 44.3935C26.3044 44.3866 26.2275 44.3255 25.7815 43.9688C25.7815 42.4528 25.7815 40.9369 25.7815 39.375C20.0271 39.375 14.2728 39.375 8.34401 39.375C8.34401 40.9219 8.34401 42.4688 8.34401 44.0625C7.82499 44.4518 7.3473 44.3927 6.72479 44.3907C6.52264 44.3906 6.32083 44.3945 6.11873 44.3987C5.98952 44.3992 5.86031 44.3994 5.7311 44.3994C5.61418 44.4001 5.49727 44.4008 5.37681 44.4014C5.06276 44.3438 5.06276 44.3438 4.78948 44.1703C4.50095 43.7344 4.53535 43.3564 4.54823 42.8449C4.5489 42.7456 4.54956 42.6464 4.55025 42.5442C4.55287 42.228 4.55875 41.9119 4.56471 41.5957C4.56707 41.3811 4.5692 41.1664 4.57112 40.9517C4.57629 40.4261 4.58412 39.9006 4.59401 39.375C4.41618 39.3545 4.41618 39.3545 4.23476 39.3337C3.41782 39.2397 2.70032 38.7596 2.15651 38.1563C1.43448 37.1599 1.29423 36.1668 1.40651 34.9688C1.59736 34.0225 2.12744 33.3 2.89479 32.7305C3.64032 32.2509 4.21514 32.1405 5.09206 32.15C5.17043 32.1505 5.2488 32.1509 5.32955 32.1514C5.52187 32.1526 5.71419 32.1543 5.90651 32.1563C5.90634 32.0942 5.90617 32.0321 5.90599 31.9682C5.90185 30.4589 5.89874 28.9496 5.89679 27.4403C5.89583 26.7105 5.89451 25.9806 5.89237 25.2507C5.8905 24.6147 5.88929 23.9786 5.88887 23.3426C5.88863 23.0057 5.88805 22.6688 5.88669 22.332C5.88518 21.9562 5.88514 21.5804 5.88522 21.2046C5.88455 21.0925 5.88388 20.9805 5.88318 20.865C5.88344 20.7628 5.8837 20.6607 5.88396 20.5555C5.88379 20.4665 5.88362 20.3776 5.88344 20.286C5.90651 20.0625 5.90651 20.0625 6.09401 19.7813C6.38397 19.6846 6.58312 19.6755 6.88704 19.675C6.99338 19.6746 7.09971 19.6742 7.20927 19.6738C7.38439 19.6738 7.38439 19.6738 7.56304 19.6739C7.68593 19.6736 7.80881 19.6733 7.93541 19.6729C8.27264 19.6721 8.60987 19.6719 8.94709 19.6718C9.22854 19.6717 9.50998 19.6714 9.79142 19.6711C10.4553 19.6703 11.1193 19.6701 11.7832 19.6701C12.4683 19.6702 13.1534 19.6692 13.8385 19.6677C14.4266 19.6665 15.0147 19.666 15.6027 19.6661C15.954 19.6661 16.3053 19.6658 16.6566 19.6648C17.0483 19.6637 17.4399 19.6642 17.8316 19.6647C17.9482 19.6642 18.0647 19.6637 18.1848 19.6631C18.2914 19.6635 18.398 19.6639 18.5078 19.6643C18.6004 19.6643 18.6931 19.6642 18.7885 19.6642C19.0418 19.6885 19.1939 19.7373 19.4065 19.875C19.5255 20.113 19.5118 20.2776 19.5115 20.5442C19.5117 20.6969 19.5117 20.6969 19.5119 20.8527C19.5116 20.9653 19.5112 21.0779 19.5109 21.194C19.5109 21.3139 19.5109 21.4338 19.5109 21.5573C19.511 21.8822 19.5104 22.2072 19.5098 22.5321C19.5092 22.8368 19.5092 23.1415 19.5091 23.4462C19.5086 24.3378 19.5073 25.2295 19.5061 26.1211C19.5042 28.1127 19.5023 30.1043 19.5003 32.1563C23.5221 32.1253 27.544 32.0944 31.6878 32.0625C31.9759 30.7651 32.264 29.4676 32.5608 28.1309C32.6512 27.7245 32.7417 27.318 32.8348 26.8993C32.9171 26.5281 32.9171 26.5281 32.9992 26.1569C33.0353 25.9943 33.0714 25.8317 33.1077 25.6692C33.1633 25.4199 33.2186 25.1705 33.2736 24.9211C33.2908 24.8429 33.308 24.7648 33.3258 24.6843C33.4515 24.1039 33.5584 23.5214 33.6447 22.9339C33.733 22.3803 33.9374 21.9494 34.2088 21.4622C34.4081 20.9358 34.19 20.3916 34.0339 19.8705C34.0153 19.8079 33.9967 19.7452 33.9775 19.6807C33.916 19.4742 33.8538 19.2679 33.7916 19.0617C33.7477 18.9147 33.7039 18.7677 33.6601 18.6208C33.5442 18.2324 33.4277 17.8442 33.3111 17.456C33.1963 17.0734 33.0819 16.6907 32.9675 16.3079C32.945 16.2329 32.9226 16.1578 32.8995 16.0805C32.8316 15.8535 32.7638 15.6265 32.6959 15.3995C32.6736 15.3249 32.6513 15.2502 32.6283 15.1732C32.4935 14.7225 32.3589 14.2717 32.2243 13.8209C32.1786 13.6678 32.1329 13.5147 32.0872 13.3616C31.952 12.9089 31.8172 12.4561 31.683 12.0031C31.6413 11.8627 31.5995 11.7224 31.5576 11.5821C31.5 11.3893 31.4429 11.1964 31.386 11.0035C31.3536 10.8945 31.3212 10.7855 31.2879 10.6732C31.219 10.4063 31.219 10.4063 31.219 10.125C30.4928 10.1475 29.7666 10.1703 29.0404 10.1935C28.7031 10.2043 28.3658 10.2149 28.0284 10.2253C27.702 10.2354 27.3756 10.2458 27.0492 10.2563C26.866 10.2622 26.6828 10.2677 26.4996 10.2733C25.8683 10.294 25.2413 10.3281 24.6123 10.3866C24.2896 10.4134 23.9725 10.4154 23.6487 10.4121C23.537 10.4113 23.4254 10.4104 23.3103 10.4096C23.2286 10.4085 23.1469 10.4074 23.0628 10.4063C23.0399 10.4599 23.0171 10.5136 22.9935 10.5689C22.8541 10.8192 22.6896 10.9817 22.4827 11.1797C22.1531 11.496 21.8521 11.8278 21.5532 12.1726C21.2483 12.5194 20.9307 12.854 20.6135 13.1895C20.5489 13.2582 20.4842 13.3269 20.4176 13.3977C20.293 13.5297 20.1681 13.6615 20.0427 13.7928C19.9395 13.9013 19.8371 14.0106 19.7362 14.1213C19.4419 14.4362 19.4419 14.4362 19.0842 14.4492C18.681 14.3219 18.4916 14.164 18.1878 13.875C17.753 14.2996 17.3384 14.733 16.9423 15.1937C16.7346 15.4279 16.5125 15.645 16.2893 15.8643C16.1175 16.0391 15.9571 16.2206 15.7971 16.4063C15.5365 16.7088 15.2623 16.9901 14.9776 17.2698C14.8017 17.4487 14.6371 17.6345 14.4729 17.8242C14.4185 17.8863 14.3642 17.9485 14.3081 18.0125C14.1777 18.163 14.0497 18.3157 13.9221 18.4688C13.6878 18.6563 13.6878 18.6563 13.3479 18.7031C13.0315 18.6563 13.0315 18.6563 12.8499 18.5508C12.691 18.2703 12.6899 18.1325 12.7503 17.8125C12.8746 17.6447 12.8746 17.6447 13.0377 17.4653C13.1272 17.3664 13.1272 17.3664 13.2185 17.2655C13.2805 17.1985 13.3426 17.1315 13.4065 17.0625C13.4637 17.0007 13.521 16.9388 13.5799 16.8751C13.7576 16.6847 13.9363 16.4956 14.1155 16.3066C14.2477 16.1667 14.3799 16.0266 14.5121 15.8866C14.578 15.8168 14.6439 15.7471 14.7118 15.6752C15.5355 14.8019 16.3523 13.9225 17.1565 13.0313C17.0461 12.7914 16.9713 12.6583 16.7698 12.4805C16.594 12.2813 16.594 12.2813 16.553 12.0223C16.607 11.6227 16.7987 11.4345 17.0745 11.1621C17.1781 11.055 17.2818 10.9478 17.3854 10.8406C17.4674 10.7572 17.4674 10.7572 17.551 10.6722C17.8329 10.3833 18.1065 10.0868 18.3811 9.79102C18.4911 9.67308 18.6011 9.55515 18.7111 9.43726C18.7911 9.35138 18.7911 9.35138 18.8728 9.26377C18.9774 9.15176 19.0821 9.03988 19.1869 8.92814C19.3308 8.77472 19.4742 8.62082 19.6174 8.4668C19.74 8.33574 19.74 8.33574 19.865 8.20203C20.1692 7.84314 20.2742 7.62959 20.2444 7.16016C20.2289 6.20316 20.5944 5.40158 21.25 4.71058C21.9163 4.10363 22.6042 3.82911 23.4999 3.8381C23.629 3.83895 23.758 3.83978 23.8871 3.8406C23.9556 3.84119 24.024 3.84179 24.0945 3.8424C25.3947 3.85287 26.693 3.83738 27.9927 3.79944C28.0688 3.79726 28.145 3.79507 28.2235 3.79282C28.8444 3.77493 29.4653 3.75604 30.0862 3.73674C30.5564 3.72212 31.0266 3.70802 31.4968 3.69465C31.7117 3.68834 31.9265 3.6813 32.1413 3.67422C33.6111 3.62988 34.8943 3.61436 36.0413 4.65821ZM31.969 5.62501C31.5941 6.19136 31.3746 6.72552 31.5003 7.40626C31.6839 8.08248 32.0523 8.51315 32.6253 8.90626C33.0739 9.12581 33.5402 9.17013 34.0315 9.09376C34.7199 8.85508 35.1782 8.53384 35.5311 7.89295C35.7631 7.38051 35.7439 6.91821 35.6253 6.37501C35.4122 5.81044 35.0128 5.3791 34.5003 5.06251C33.601 4.75186 32.6151 4.84265 31.969 5.62501ZM21.7887 5.99927C21.4683 6.45541 21.3883 6.95226 21.469 7.50001C21.6995 8.24501 22.1086 8.74688 22.7987 9.11353C23.3352 9.34657 23.8403 9.29961 24.3753 9.09376C25.0003 8.79092 25.3373 8.43727 25.6174 7.79297C25.7686 7.16333 25.7252 6.68864 25.4442 6.1106C25.1199 5.60647 24.6635 5.24628 24.094 5.06251C23.0786 4.93198 22.4262 5.21217 21.7887 5.99927ZM27.803 5.01563C27.6513 5.02017 27.4996 5.02468 27.348 5.02918C26.9821 5.04007 26.6162 5.05122 26.2503 5.06251C26.3565 5.33107 26.4665 5.59554 26.5842 5.85938C26.9602 6.77481 26.8853 7.71444 26.5315 8.62501C26.4697 8.75036 26.4073 8.87542 26.344 9.00001C28.5959 9.02009 28.5959 9.02009 30.844 8.90626C30.7933 8.78371 30.7933 8.78371 30.7415 8.6587C30.3183 7.5726 30.2079 6.64272 30.6565 5.53126C30.7496 5.34342 30.8433 5.15588 30.9378 4.96876C29.8918 4.96177 28.8484 4.9833 27.803 5.01563ZM36.1878 9.00001C36.1433 9.06575 36.0988 9.13149 36.053 9.19923C35.5833 9.72618 34.9156 10.1007 34.219 10.2188C33.611 10.247 33.0374 10.2298 32.4378 10.125C33.159 12.6122 33.8881 15.0968 34.6292 17.5781C34.6471 17.6382 34.665 17.6982 34.6835 17.7601C34.9034 18.4964 35.1236 19.2326 35.344 19.9688C35.7689 19.9688 36.0718 19.7458 36.4408 19.5476C37.1138 19.2402 37.7098 19.1925 38.4378 19.207C38.5601 19.2083 38.5601 19.2083 38.685 19.2096C38.8838 19.2118 39.0827 19.2151 39.2815 19.2188C39.0672 18.3169 38.8101 17.4298 38.5447 16.5421C38.5004 16.3934 38.4561 16.2446 38.4119 16.0958C38.3194 15.7849 38.2267 15.4741 38.1339 15.1633C38.017 14.7718 37.9003 14.3801 37.7838 13.9885C37.2884 12.324 36.7903 10.6604 36.2815 9.00001C36.2506 9.00001 36.2196 9.00001 36.1878 9.00001ZM20.5802 9.21094C20.2472 9.55239 19.9279 9.90131 19.6167 10.2627C19.1216 10.8217 18.6052 11.362 18.094 11.9063C18.411 12.294 18.7189 12.6387 19.1253 12.9375C19.6111 12.4605 20.0884 11.9824 20.5311 11.465C20.9575 10.9771 21.4032 10.5061 21.844 10.0313C21.7719 9.95935 21.6997 9.88745 21.6254 9.81336C21.4562 9.64367 21.2889 9.47209 21.1233 9.29883C20.8612 9.04132 20.8612 9.04132 20.5802 9.21094ZM35.4671 21.7643C34.9406 22.5053 34.6714 23.3726 34.7815 24.2813C35.0005 25.3251 35.4052 26.1662 36.2757 26.8066C37.1844 27.3875 38.1201 27.6006 39.1936 27.375C40.165 27.0927 40.9091 26.5503 41.4378 25.6875C41.915 24.7783 42.0701 23.8688 41.801 22.8574C41.4727 21.9072 40.8254 21.1715 39.9641 20.6616C38.3324 19.8809 36.5755 20.3937 35.4671 21.7643ZM7.12526 20.9063C7.12526 24.6188 7.12526 28.3313 7.12526 32.1563C10.8068 32.1563 14.4884 32.1563 18.2815 32.1563C18.2815 28.4438 18.2815 24.7313 18.2815 20.9063C14.5999 20.9063 10.9184 20.9063 7.12526 20.9063ZM34.219 26.3438C34.0596 27.0461 33.9007 27.7486 33.7423 28.4512C33.6687 28.7775 33.595 29.1037 33.521 29.4298C33.4358 29.8048 33.3513 30.18 33.2669 30.5552C33.2402 30.6722 33.2135 30.7892 33.1861 30.9097C33.1617 31.0186 33.1373 31.1274 33.1121 31.2395C33.0905 31.3353 33.0688 31.4311 33.0465 31.5297C32.989 31.8001 32.989 31.8001 33.0003 32.1563C35.9393 32.1563 38.8784 32.1563 41.9065 32.1563C41.9065 30.4856 41.9065 28.815 41.9065 27.0938C41.5817 27.3722 41.5817 27.3722 41.2503 27.6563C40.029 28.4458 38.6878 28.7889 37.2384 28.4978C35.9327 28.1002 35.0637 27.4016 34.219 26.3438ZM3.01747 34.3316C2.58432 34.9891 2.52791 35.5944 2.62526 36.375C2.86456 37.1514 3.31798 37.6463 4.0257 38.0207C4.48787 38.2145 4.94636 38.1955 5.44071 38.1926C5.59571 38.1934 5.59571 38.1934 5.75383 38.1941C6.09964 38.1955 6.44542 38.1948 6.79123 38.1941C7.03934 38.1947 7.28745 38.1953 7.53556 38.1961C8.13928 38.1977 8.743 38.1978 9.34672 38.1973C9.83758 38.1969 10.3284 38.197 10.8193 38.1975C10.8892 38.1976 10.9591 38.1977 11.0312 38.1978C11.1732 38.1979 11.3153 38.198 11.4573 38.1982C12.7888 38.1995 14.1204 38.199 15.4519 38.1979C16.6693 38.197 17.8866 38.1982 19.1039 38.2004C20.3547 38.2027 21.6056 38.2036 22.8564 38.203C23.5583 38.2027 24.2602 38.2029 24.9621 38.2045C25.5596 38.2059 26.1572 38.2059 26.7547 38.2043C27.0594 38.2035 27.364 38.2035 27.6687 38.2047C27.9995 38.206 28.3302 38.2049 28.661 38.2032C28.8044 38.2046 28.8044 38.2046 28.9506 38.206C29.6808 38.1985 30.2502 38.037 30.8206 37.5703C31.4003 36.8618 31.6859 36.2707 31.594 35.3438C31.4321 34.6863 31.1258 34.1396 30.5628 33.75C29.9275 33.3923 29.3838 33.3209 28.6629 33.3268C28.5595 33.3261 28.456 33.3255 28.3495 33.3248C28.0045 33.3231 27.6595 33.324 27.3145 33.325C27.0665 33.3243 26.8185 33.3235 26.5705 33.3226C25.9678 33.3205 25.3651 33.3205 24.7624 33.3213C24.2723 33.3219 23.7822 33.3218 23.2921 33.3212C23.1873 33.3211 23.1873 33.3211 23.0804 33.3209C22.9384 33.3207 22.7965 33.3206 22.6545 33.3204C21.3247 33.3188 19.9948 33.3197 18.665 33.3212C17.4496 33.3226 16.2341 33.3212 15.0187 33.3185C13.7692 33.3158 12.5198 33.3148 11.2703 33.3157C11.1289 33.3157 10.9874 33.3158 10.846 33.3159C10.7764 33.316 10.7068 33.316 10.6351 33.3161C10.1459 33.3163 9.65678 33.3154 9.16762 33.314C8.571 33.3123 7.9744 33.3124 7.37778 33.3145C7.07366 33.3155 6.7696 33.3156 6.46547 33.3141C6.13511 33.3126 5.80489 33.314 5.47453 33.3161C5.37935 33.315 5.28416 33.3139 5.1861 33.3128C4.30938 33.3242 3.5564 33.6171 3.01747 34.3316ZM31.969 33.375C32.2939 34.0247 32.2939 34.0247 32.6253 34.6875C32.8434 35.7783 32.7777 36.7955 32.1858 37.752C31.4849 38.7291 30.6741 39.0894 29.5315 39.375C29.5315 40.6125 29.5315 41.85 29.5315 43.125C34.7909 43.125 40.0503 43.125 45.469 43.125C45.469 39.9075 45.469 36.69 45.469 33.375C41.014 33.375 36.559 33.375 31.969 33.375ZM5.81276 39.375C5.81276 40.6125 5.81276 41.85 5.81276 43.125C6.27682 43.125 6.74089 43.125 7.21901 43.125C7.21901 41.8875 7.21901 40.65 7.21901 39.375C6.75495 39.375 6.29089 39.375 5.81276 39.375ZM27.0003 39.375C27.0003 40.6125 27.0003 41.85 27.0003 43.125C27.4334 43.125 27.8665 43.125 28.3128 43.125C28.3128 41.8875 28.3128 40.65 28.3128 39.375C27.8796 39.375 27.4465 39.375 27.0003 39.375Z" fill="#FF7705"></path>
  <path d="M6.82072 34.1953C7.26342 34.638 7.47621 35.1229 7.52385 35.7422C7.47883 36.4174 7.24451 36.9336 6.75041 37.4062C6.13922 37.7891 5.56839 37.8782 4.86625 37.7435C4.31466 37.5809 3.97423 37.2186 3.65666 36.75C3.39479 36.2079 3.36458 35.6157 3.53032 35.0361C3.78806 34.4609 4.20905 34.0739 4.7758 33.8086C5.55817 33.6489 6.15332 33.7706 6.82072 34.1953ZM4.98088 35.1094C4.72087 35.4153 4.6809 35.6002 4.68791 36C4.86672 36.329 4.98335 36.4417 5.3383 36.5625C5.68406 36.5625 5.82651 36.4969 6.09416 36.2812C6.25923 36.0561 6.28501 35.9509 6.26408 35.6719C6.17689 35.4036 6.11398 35.256 5.90666 35.0625C5.52413 34.9492 5.3381 34.923 4.98088 35.1094Z" fill="#FF7705"></path>
  <path d="M22.1014 33.9998C22.577 34.3055 22.8699 34.717 23.0462 35.25C23.1314 35.9127 23.0768 36.4877 22.6712 37.0312C22.2071 37.5359 21.7423 37.7752 21.054 37.8223C20.4294 37.8075 19.8901 37.5202 19.4427 37.0957C19.0987 36.504 18.8885 35.9405 19.0622 35.2496C19.2339 34.7325 19.4788 34.3043 19.9532 34.0071C20.6961 33.637 21.3564 33.6325 22.1014 33.9998ZM20.4212 35.25C20.2418 35.4865 20.2334 35.607 20.2396 35.9062C20.3529 36.2687 20.4634 36.3816 20.7962 36.5625C21.196 36.5695 21.381 36.5295 21.6869 36.2695C21.875 35.9089 21.853 35.7295 21.7337 35.3437C21.5289 35.1064 21.5289 35.1064 21.265 34.9687C20.8594 34.9687 20.7394 35.0155 20.4212 35.25Z" fill="#FF7705"></path>
  <path d="M30.1014 33.9998C30.577 34.3055 30.8699 34.717 31.0462 35.25C31.1314 35.9127 31.0768 36.4877 30.6712 37.0312C30.2071 37.5359 29.7423 37.7752 29.054 37.8223C28.4294 37.8075 27.8901 37.5202 27.4427 37.0957C27.0987 36.504 26.8885 35.9405 27.0622 35.2496C27.2339 34.7325 27.4788 34.3043 27.9532 34.0071C28.6961 33.637 29.3564 33.6325 30.1014 33.9998ZM28.4212 35.25C28.2418 35.4865 28.2334 35.607 28.2396 35.9062C28.3529 36.2687 28.4634 36.3816 28.7962 36.5625C29.196 36.5695 29.381 36.5295 29.6869 36.2695C29.875 35.9089 29.853 35.7295 29.7337 35.3437C29.5289 35.1064 29.5289 35.1064 29.265 34.9687C28.8594 34.9687 28.7394 35.0155 28.4212 35.25Z" fill="#FF7705"></path>
  <path d="M14.309 34.125C14.758 34.5212 15.0095 34.9358 15.0824 35.5367C15.1176 36.1714 14.9577 36.7211 14.5328 37.2026C14.0291 37.6628 13.5226 37.8296 12.8434 37.8102C12.2834 37.7372 11.8357 37.5061 11.4555 37.0898C11.0475 36.5564 10.9418 36.0027 11.0278 35.3437C11.2007 34.7162 11.5133 34.2905 12.059 33.9375C12.8149 33.576 13.6145 33.6798 14.309 34.125ZM12.5395 35.1094C12.2795 35.4153 12.2395 35.6002 12.2465 36C12.3722 36.2822 12.3722 36.2822 12.6215 36.4687C13.0072 36.588 13.1867 36.61 13.5473 36.4219C13.8073 36.116 13.8473 35.931 13.8403 35.5312C13.7145 35.2491 13.7145 35.2491 13.4653 35.0625C13.0795 34.9433 12.9001 34.9212 12.5395 35.1094Z" fill="#FF7705"></path>
  <path d="M13.2195 23.1727C13.3363 23.2698 13.4416 23.3734 13.5462 23.4833C13.6838 23.6106 13.8091 23.6507 13.9969 23.654C14.046 23.6513 14.0951 23.6486 14.1457 23.6459C14.4166 23.6417 14.5465 23.6706 14.7621 23.831C14.8181 23.8684 14.8181 23.8684 14.8752 23.9067C15.0965 24.1097 15.3073 24.3485 15.3955 24.6386C15.3996 24.7786 15.3996 24.7786 15.3927 24.9274C15.3893 25.2295 15.3893 25.2295 15.5312 25.491C15.6217 25.5723 15.7135 25.6496 15.8099 25.7239C15.9696 25.8796 15.9887 26.0333 15.9973 26.2479C15.9979 26.3312 15.9981 26.4144 15.9978 26.4977C15.9985 26.5394 15.9992 26.581 16 26.624C16.0002 26.8629 15.9871 27.0368 15.8479 27.2408C15.7587 27.3279 15.7587 27.3279 15.6641 27.4006C15.5163 27.5144 15.4462 27.5986 15.3955 27.7792C15.3913 27.9177 15.3913 27.9177 15.4012 28.0624C15.4045 28.4896 15.2674 28.6808 14.9714 28.9821C14.7684 29.1831 14.5931 29.3395 14.2982 29.3595C14.2488 29.3571 14.1994 29.3547 14.1485 29.3523C13.9458 29.3431 13.8163 29.3585 13.6311 29.4392C13.5863 29.4392 13.5415 29.4392 13.4953 29.4392C13.486 29.4716 13.4767 29.504 13.4671 29.5374C13.3549 29.7649 13.2019 29.8633 12.9694 29.9468C12.594 30.0216 12.1067 30.0454 11.7758 29.8283C11.6253 29.7086 11.5381 29.6329 11.5047 29.4392C11.4645 29.4327 11.4244 29.4263 11.3831 29.4196C11.2987 29.4054 11.2145 29.3897 11.1314 29.3691C11.0106 29.3501 10.9082 29.3528 10.7865 29.3579C10.3628 29.3579 10.1361 29.0854 9.85121 28.8088C9.65365 28.5733 9.58087 28.3588 9.6045 28.0484C9.61806 28.0046 9.61806 28.0046 9.63189 27.96C9.66024 27.8153 9.60179 27.7299 9.53434 27.6034C9.43959 27.4684 9.32087 27.3759 9.18848 27.2783C8.98033 27.0683 9.00112 26.7789 9.00221 26.5033C9.00148 26.4665 9.00075 26.4297 9 26.3917C8.9998 26.1469 9.03163 25.9754 9.15207 25.7602C9.23973 25.6735 9.23973 25.6735 9.33304 25.606C9.5258 25.45 9.58954 25.326 9.64974 25.0872C9.62734 25.0206 9.62734 25.0206 9.6045 24.9526C9.57831 24.6877 9.63173 24.4947 9.78547 24.2796C10.3288 23.6668 10.3288 23.6668 10.7018 23.6415C10.7512 23.6439 10.8006 23.6463 10.8515 23.6487C11.0541 23.6579 11.1837 23.6425 11.3689 23.5618C11.4137 23.5618 11.4585 23.5618 11.5047 23.5618C11.514 23.5294 11.5233 23.497 11.5329 23.4636C11.6451 23.2361 11.7981 23.1377 12.0306 23.0542C12.3987 22.9808 12.8983 22.9504 13.2195 23.1727ZM12.2738 23.831C12.2413 23.9025 12.2413 23.9025 12.2082 23.9756C12.0857 24.1875 11.9156 24.2547 11.6941 24.3441C11.6588 24.3598 11.6234 24.3755 11.5869 24.3917C11.2938 24.5158 11.048 24.5342 10.7356 24.4591C10.6284 24.5549 10.5379 24.6496 10.4641 24.7732C10.4624 24.8773 10.4813 24.9679 10.501 25.07C10.514 25.2375 10.4505 25.3607 10.381 25.5108C10.3262 25.6252 10.3262 25.6252 10.287 25.7474C10.218 25.9499 10.1701 26.083 9.97775 26.192C9.90496 26.2226 9.90496 26.2226 9.83071 26.2537C9.83071 26.4166 9.83071 26.5795 9.83071 26.7473C9.90279 26.7787 9.90279 26.7787 9.97633 26.8109C10.1965 26.936 10.2619 27.1177 10.351 27.3445C10.3753 27.4004 10.3753 27.4004 10.4001 27.4573C10.5167 27.7413 10.5178 27.9336 10.4189 28.2278C10.4748 28.2818 10.5315 28.3349 10.5885 28.3877C10.6358 28.4322 10.6358 28.4322 10.6839 28.4776C10.7746 28.553 10.7746 28.553 10.8746 28.5302C10.9034 28.5192 10.9321 28.5083 10.9618 28.497C11.2351 28.4638 11.4165 28.5467 11.6561 28.6637C11.7551 28.7113 11.8505 28.7479 11.9543 28.783C12.1419 28.8818 12.1843 28.9818 12.2738 29.17C12.3388 29.1737 12.4038 29.1763 12.4689 29.1784C12.5051 29.18 12.5413 29.1816 12.5786 29.1832C12.708 29.1665 12.7376 29.1367 12.8167 29.0354C12.8348 28.9986 12.853 28.9619 12.8717 28.924C12.9824 28.7692 13.1205 28.726 13.2946 28.6653C13.3559 28.6426 13.4172 28.62 13.4785 28.5973C13.5289 28.579 13.5792 28.5607 13.6311 28.5419C13.6609 28.5271 13.6908 28.5123 13.7215 28.497C13.9101 28.49 14.081 28.4978 14.2644 28.5419C14.3121 28.5005 14.358 28.4571 14.403 28.4129C14.4287 28.389 14.4544 28.365 14.4809 28.3403C14.5453 28.2085 14.5331 28.1617 14.5117 28.0196C14.4763 27.7562 14.5417 27.5751 14.649 27.3361C14.6638 27.299 14.6786 27.2619 14.6939 27.2236C14.8056 26.9655 14.9102 26.8614 15.1693 26.7473C15.1693 26.5844 15.1693 26.4215 15.1693 26.2537C15.1201 26.2311 15.071 26.2084 15.0203 26.185C14.8243 26.0738 14.7713 25.9443 14.7027 25.7378C14.6813 25.6784 14.6598 25.619 14.6382 25.5597C14.6194 25.5074 14.6006 25.4551 14.5811 25.4013C14.5545 25.3514 14.5545 25.3514 14.5274 25.3005C14.4495 25.1337 14.5253 24.9393 14.5811 24.7732C14.5252 24.7192 14.4685 24.6661 14.4115 24.6133C14.38 24.5837 14.3485 24.554 14.3161 24.5234C14.2254 24.448 14.2254 24.448 14.1254 24.4708C14.0966 24.4818 14.0679 24.4927 14.0382 24.504C13.7649 24.5372 13.5835 24.4543 13.3439 24.3373C13.2449 24.2897 13.1495 24.2531 13.0457 24.2179C12.8581 24.1192 12.8157 24.0191 12.7262 23.831C12.5769 23.831 12.4276 23.831 12.2738 23.831Z" fill="#FF7705"></path>
  <path d="M13.2715 25.1975C13.6473 25.4563 13.8918 25.7897 13.9863 26.2403C14.037 26.6872 13.9492 27.0668 13.6854 27.4318C13.4569 27.7073 13.1563 27.9221 12.8003 27.9904C12.3291 28.0237 11.9231 27.9826 11.55 27.6748C11.1854 27.3407 11.0247 26.979 11 26.4813C11.0039 26.0718 11.1603 25.7493 11.4299 25.4437C11.9242 24.9647 12.6636 24.8592 13.2715 25.1975ZM11.9543 26.0434C11.8186 26.2228 11.7553 26.4027 11.7854 26.6283C11.8536 26.8809 11.9815 27.0342 12.2006 27.174C12.3867 27.2362 12.5691 27.2551 12.7548 27.1861C12.9828 27.0638 13.1241 26.9142 13.2045 26.6691C13.2481 26.4585 13.2045 26.2858 13.1001 26.0998C12.9256 25.9029 12.7753 25.8058 12.5085 25.7883C12.2678 25.7927 12.126 25.875 11.9543 26.0434Z" fill="#FF7705"></path>
</svg>
