<?xml version="1.0" encoding="UTF-8"?>
<svg xmlns="http://www.w3.org/2000/svg" width="48" height="48" viewBox="0 0 48 48" fill="none">
  <path d="M33.5109 6.75184C35.2533 8.27312 36.3449 10.1393 36.5629 12.4688C36.6984 14.5868 36.3923 16.6306 35.2975 18.4761C35.1112 18.7771 35.1112 18.7771 35.0877 19.1179C35.164 19.3334 35.2598 19.5211 35.3716 19.7205C37.0425 22.7615 37.5579 25.9439 36.6237 29.3156C35.9584 31.5425 34.7763 33.6169 33.6498 35.6386C32.0245 38.5624 32.0312 41.6452 32.0272 44.9181C32.0263 45.2797 32.0231 45.6412 32.0197 46.0027C32.0201 46.1132 32.0206 46.2238 32.0211 46.3376C32.0198 46.4398 32.0186 46.542 32.0173 46.6473C32.0171 46.7368 32.0168 46.8264 32.0165 46.9186C31.9538 47.2332 31.8422 47.3313 31.5941 47.5313C31.347 47.5784 31.347 47.5784 31.0604 47.5789C30.8971 47.5805 30.8971 47.5805 30.7306 47.5821C30.552 47.5809 30.552 47.5809 30.3699 47.5798C30.243 47.5803 30.1161 47.581 29.9891 47.5818C29.6447 47.5835 29.3004 47.5828 28.956 47.5816C28.5956 47.5807 28.2351 47.5816 27.8747 47.5821C27.2694 47.5828 26.6642 47.5819 26.0589 47.5801C25.3592 47.5781 24.6594 47.5788 23.9597 47.5808C23.3589 47.5825 22.7581 47.5828 22.1573 47.5818C21.7984 47.5812 21.4396 47.5811 21.0808 47.5824C20.7434 47.5835 20.4061 47.5827 20.0687 47.5805C19.8859 47.5798 19.703 47.5809 19.5201 47.5821C19.4113 47.581 19.3025 47.58 19.1903 47.5789C19.0958 47.5787 19.0012 47.5786 18.9038 47.5784C18.5902 47.5186 18.4786 47.4021 18.2816 47.1563C18.2349 46.9726 18.2349 46.9726 18.2349 46.7784C18.234 46.7051 18.233 46.6319 18.232 46.5565C18.2328 46.4781 18.2336 46.3998 18.2344 46.3191C18.2335 46.2377 18.2326 46.1564 18.2317 46.0725C18.229 45.8127 18.2287 45.5529 18.2289 45.293C18.2285 45.0338 18.2276 44.7746 18.2251 44.5154C18.2235 44.3543 18.2232 44.1932 18.2244 44.0321C18.2203 43.5648 18.1562 43.2537 17.9066 42.8438C17.4542 42.8879 17.0106 42.9434 16.5641 43.0287C15.5881 43.214 14.6362 43.3496 13.641 43.3535C13.5532 43.3544 13.4655 43.3554 13.3751 43.3563C12.7611 43.3487 12.2131 43.2756 11.7169 42.88C11.6542 42.8012 11.6542 42.8012 11.5902 42.7207C11.5469 42.6689 11.5037 42.617 11.4591 42.5636C11.1131 41.9961 11.1363 41.4471 11.1508 40.8047C11.154 40.6275 11.1568 40.4502 11.1592 40.273C11.1609 40.195 11.1625 40.1171 11.1643 40.0368C11.1696 39.8377 11.1696 39.8377 11.0629 39.6563C11.0513 39.4573 11.0464 39.2579 11.0453 39.0586C11.044 38.9515 11.0426 38.8445 11.0413 38.7341C11.0618 38.4526 11.1031 38.2988 11.2504 38.0625C11.2059 38.0161 11.1614 37.9697 11.1156 37.9219C10.9185 37.6065 10.8726 37.3033 10.8754 36.9375C10.9323 36.7173 10.9945 36.4983 11.0629 36.2813C11.0667 36.0938 11.0673 35.9062 11.0629 35.7188C10.9522 35.6768 10.8415 35.6349 10.7274 35.5917C10.5814 35.5345 10.4354 35.4772 10.2894 35.4199C10.2166 35.3926 10.1437 35.3652 10.0686 35.337C9.55212 35.1317 9.25596 34.9174 9.00037 34.4063C8.8806 33.3249 9.24439 32.6965 9.80427 31.815C9.8646 31.72 9.8646 31.72 9.92615 31.6231C9.96667 31.5594 10.0072 31.4958 10.0489 31.4302C10.5531 30.6274 11.0948 29.744 11.1566 28.7813C11.0405 28.5405 10.9293 28.3433 10.7816 28.125C10.2126 27.2114 10.1395 26.4275 10.356 25.3862C10.4838 24.8423 10.6328 24.3041 10.7816 23.7656C10.8471 23.5246 10.9123 23.2835 10.9774 23.0423C11.0177 22.8936 11.0583 22.7449 11.0992 22.5963C11.4069 21.4905 11.4069 21.4905 11.1097 20.4141C10.823 19.8185 10.7598 19.2957 10.9244 18.6519C11.7591 16.652 14.3433 15.4374 16.1975 14.6451C16.5004 14.5313 16.5004 14.5313 16.7816 14.5313C16.7787 14.4423 16.7787 14.4423 16.7757 14.3515C16.7257 12.6025 16.8471 11.0594 17.6254 9.46876C17.6874 9.3377 17.6874 9.3377 17.7506 9.20399C18.0847 8.5423 18.5156 8.0285 19.0316 7.50001C19.1109 7.41686 19.1902 7.33372 19.2719 7.24805C19.3473 7.17651 19.4227 7.10497 19.5004 7.03126C19.5494 6.98268 19.5985 6.93409 19.649 6.88404C23.2093 3.53411 29.8346 3.7157 33.5109 6.75184ZM20.5316 7.78126C20.4368 7.85594 20.4368 7.85594 20.3401 7.93214C18.9839 9.03391 18.1987 10.7584 18.0004 12.4688C17.8447 15.3965 18.7628 17.6223 20.4445 19.9589C21.545 21.4913 22.3245 22.9564 22.5941 24.8438C23.2438 24.8438 23.8935 24.8438 24.5629 24.8438C24.5629 22.8328 24.5629 20.8219 24.5629 18.75C24.0988 18.5025 23.6347 18.255 23.1566 18C22.0753 17.1788 21.3521 16.0643 21.0941 14.7188C21.0059 14.0626 20.9583 13.3585 21.2992 12.7676C21.5792 12.4163 21.8062 12.2187 22.2642 12.1553C22.9094 12.1197 23.3253 12.232 23.8129 12.6563C25.2087 13.9422 25.5212 16.0096 25.6879 17.8125C26.0188 17.9147 26.3271 17.9188 26.6722 17.918C26.7776 17.9182 26.883 17.9185 26.9916 17.9187C27.2345 17.9083 27.4248 17.8756 27.6566 17.8125C27.6627 17.7612 27.6687 17.7099 27.675 17.6571C27.865 16.0954 28.0925 14.5606 28.9691 13.2188C29.0055 13.1623 29.0419 13.1059 29.0793 13.0477C29.4375 12.5591 29.9504 12.2403 30.5457 12.1454C30.9608 12.129 31.2521 12.161 31.6351 12.3281C32.1339 12.8147 32.274 13.2418 32.2972 13.9395C32.254 15.2875 31.6944 16.543 30.7756 17.525C30.1865 18.0614 29.4898 18.3959 28.7816 18.75C28.7816 20.7609 28.7816 22.7719 28.7816 24.8438C29.4313 24.8438 30.081 24.8438 30.7504 24.8438C30.7832 24.6117 30.8161 24.3797 30.85 24.1406C31.1141 22.5647 31.9069 21.3507 32.8129 20.0625C34.5174 17.6265 35.7216 15.2427 35.2972 12.1721C35.0661 10.9032 34.6148 9.84561 33.8441 8.81251C33.7942 8.74519 33.7443 8.67788 33.6929 8.60853C32.2806 6.85989 29.9756 6.0181 27.8108 5.74842C25.2488 5.526 22.5198 6.06714 20.5316 7.78126ZM22.4066 13.3125C22.1737 13.5455 22.1861 13.6282 22.1781 13.9512C22.2015 15.0674 22.7396 15.9944 23.5155 16.7637C23.819 17.0382 24.0819 17.2017 24.4691 17.3438C24.3278 15.9746 24.036 14.398 22.9724 13.4253C22.7648 13.2807 22.7648 13.2807 22.4066 13.3125ZM30.1367 13.6354C29.9066 13.8816 29.7598 14.1533 29.6136 14.4551C29.5819 14.5193 29.5502 14.5836 29.5175 14.6498C29.1313 15.4761 28.8754 16.4294 28.8754 17.3438C29.6239 17.0898 30.2701 16.4571 30.6541 15.7712C30.9855 15.053 31.201 14.3879 31.1254 13.5938C31.0635 13.5009 31.0016 13.4081 30.9379 13.3125C30.5355 13.3125 30.4281 13.374 30.1367 13.6354ZM16.0961 16.0195C15.9962 16.0641 15.9962 16.0641 15.8944 16.1095C14.5322 16.7365 12.6365 17.8052 12.0648 19.2481C12.1018 19.6842 12.2585 20.0077 12.457 20.395C12.7466 21.2808 12.497 22.1467 12.2636 23.0191C12.2104 23.218 12.1589 23.4173 12.1077 23.6167C12.0105 23.9948 11.9118 24.3724 11.8129 24.75C11.731 25.0641 11.6508 25.3784 11.5726 25.6934C11.5435 25.8066 11.5144 25.9198 11.4844 26.0365C11.3939 26.6343 11.5113 27.0322 11.8539 27.5215C12.2892 28.1477 12.4318 28.6403 12.3483 29.3958C12.1004 30.5972 11.386 31.6616 10.7509 32.6906C10.7072 32.7614 10.6635 32.8323 10.6185 32.9053C10.5238 33.0564 10.4255 33.2053 10.326 33.3534C10.2017 33.5965 10.196 33.7618 10.2191 34.0313C10.3152 34.0664 10.4113 34.1016 10.5103 34.1378C10.6378 34.1862 10.7654 34.2347 10.8929 34.2832C10.9561 34.3061 11.0192 34.329 11.0843 34.3526C11.5837 34.5451 11.9167 34.7918 12.2161 35.2485C12.425 35.8507 12.2811 36.6008 12.1879 37.2188C12.4929 37.4305 12.4929 37.4305 12.8441 37.5C12.878 37.7884 12.8936 38.0567 12.8441 38.3438C12.7189 38.4844 12.7189 38.4844 12.5629 38.5957C12.2498 38.7846 12.2498 38.7846 12.2406 39.1113C12.2671 39.3698 12.2671 39.3698 12.3754 39.5625C12.3777 39.7135 12.3744 39.8646 12.368 40.0155C12.3656 40.1058 12.3632 40.1962 12.3607 40.2893C12.3549 40.4795 12.3476 40.6697 12.3387 40.8598C12.3295 41.2946 12.3264 41.5474 12.5625 41.9216C12.9219 42.1413 13.2143 42.1608 13.6234 42.1465C13.7399 42.1441 13.7399 42.1441 13.8587 42.1416C16.8058 42.0344 20.0384 41.1793 22.6374 39.7828C23.0675 39.5623 23.3446 39.5457 23.8129 39.6563C23.8832 39.9609 23.8832 39.9609 23.9066 40.3125C23.6096 40.7178 23.1698 40.8834 22.723 41.0801C22.6429 41.1158 22.5628 41.1516 22.4803 41.1885C21.4184 41.6506 20.318 42.0121 19.2191 42.375C19.281 42.6534 19.3429 42.9319 19.4066 43.2188C19.4376 44.2397 19.4685 45.2606 19.5004 46.3125C23.2129 46.3125 26.9254 46.3125 30.7504 46.3125C30.7968 43.9458 30.7968 43.9458 30.8441 41.5313C30.9821 39.7783 30.9821 39.7783 31.1254 38.9063C31.1388 38.8204 31.1523 38.7345 31.1662 38.646C31.4077 37.1934 32.0173 35.9708 32.7191 34.6875C32.7665 34.6009 32.8138 34.5142 32.8626 34.4249C33.0483 34.0862 33.2344 33.7478 33.4208 33.4095C34.2656 31.8667 35.0647 30.2957 35.5316 28.5938C35.5773 28.4292 35.5773 28.4292 35.6239 28.2612C36.3055 25.4706 35.6423 22.8204 34.3129 20.3438C34.2201 20.3438 34.1272 20.3438 34.0316 20.3438C33.878 20.5091 33.878 20.5091 33.7368 20.7316C33.6813 20.8142 33.6258 20.8969 33.5686 20.982C33.5107 21.0711 33.4527 21.1602 33.3929 21.252C33.3339 21.3418 33.2748 21.4317 33.214 21.5243C32.2435 23.0243 31.8644 24.3626 31.8622 26.142C31.8605 26.3145 31.8586 26.4871 31.8567 26.6596C31.854 26.927 31.8519 27.1944 31.8519 27.4618C31.8516 27.7231 31.8483 27.9842 31.8446 28.2455C31.8453 28.3243 31.8459 28.4032 31.8466 28.4844C31.8334 29.1336 31.6287 29.6895 31.1582 30.152C30.7384 30.4942 30.2369 30.6219 29.7191 30.75C29.7121 30.8236 29.7051 30.8972 29.6979 30.973C29.6138 31.6444 29.5135 32.1052 28.9691 32.5313C28.3137 32.8776 27.5886 32.8559 26.8664 32.8492C26.6726 32.8477 26.479 32.8492 26.2852 32.851C25.4673 32.8524 24.6778 32.8488 24.059 32.2559C23.8172 31.9499 23.7601 31.6691 23.6898 31.2891C23.637 30.9979 23.637 30.9979 23.5316 30.75C23.3264 30.6174 23.1522 30.577 22.9142 30.5263C22.4526 30.409 22.0769 30.1112 21.8112 29.7195C21.5617 29.244 21.4576 28.7898 21.4573 28.2521C21.4569 28.1685 21.4566 28.0848 21.4562 27.9987C21.4561 27.9091 21.456 27.8196 21.4559 27.7273C21.4542 27.5344 21.4524 27.3416 21.4504 27.1487C21.4477 26.8472 21.4457 26.5457 21.4456 26.2441C21.4431 23.8914 20.7641 22.3708 19.3872 20.4948C18.4477 19.2123 17.6323 17.8639 17.2208 16.3186C17.1762 16.1579 17.1204 16.0003 17.0629 15.8438C16.6776 15.7153 16.4483 15.861 16.0961 16.0195ZM25.7816 19.0313C25.7816 20.9494 25.7816 22.8675 25.7816 24.8438C26.3694 24.8438 26.9572 24.8438 27.5629 24.8438C27.5629 22.9256 27.5629 21.0075 27.5629 19.0313C26.9751 19.0313 26.3872 19.0313 25.7816 19.0313ZM22.5941 25.9688C22.5941 26.3709 22.5941 26.7731 22.5941 27.1875C25.2547 27.1875 27.9154 27.1875 30.6566 27.1875C30.6566 26.7853 30.6566 26.3831 30.6566 25.9688C27.996 25.9688 25.3354 25.9688 22.5941 25.9688ZM22.5941 28.4063C22.7657 29.0763 22.7657 29.0763 23.2504 29.4375C23.5636 29.5419 23.8011 29.5444 24.1312 29.5464C24.2218 29.5471 24.2218 29.5471 24.3143 29.5478C24.5139 29.5491 24.7136 29.5498 24.9133 29.5503C25.0524 29.5508 25.1915 29.5514 25.3306 29.5519C25.6222 29.5529 25.9139 29.5535 26.2056 29.5538C26.5785 29.5543 26.9514 29.5565 27.3243 29.5592C27.6117 29.561 27.8991 29.5614 28.1864 29.5616C28.3239 29.5619 28.4613 29.5626 28.5987 29.5639C28.7915 29.5655 28.9841 29.5653 29.1769 29.5647C29.2864 29.565 29.3958 29.5654 29.5087 29.5657C29.9327 29.5177 30.2488 29.3766 30.5511 29.0742C30.6932 28.8435 30.6932 28.8435 30.6566 28.4063C27.996 28.4063 25.3354 28.4063 22.5941 28.4063ZM24.7504 30.75C24.7881 31.2914 24.7881 31.2914 25.0453 31.5321C25.3667 31.7188 25.5667 31.7359 25.9369 31.7373C26.1154 31.738 26.1154 31.738 26.2976 31.7388C26.4831 31.7366 26.4831 31.7366 26.6722 31.7344C26.7959 31.7358 26.9195 31.7373 27.0469 31.7388C27.1659 31.7383 27.2849 31.7378 27.4076 31.7373C27.5161 31.7369 27.6245 31.7365 27.7363 31.736C28.099 31.6764 28.2563 31.5868 28.5004 31.3125C28.5004 31.1269 28.5004 30.9413 28.5004 30.75C27.2629 30.75 26.0254 30.75 24.7504 30.75Z" fill="#FF7705"></path>
  <path d="M39.0354 11.6894C39.1331 11.6867 39.2307 11.684 39.3313 11.6812C40.0469 11.6753 40.0469 11.6753 40.4281 11.8868C40.594 12.0937 40.594 12.0937 40.5881 12.4336C40.5002 12.75 40.5002 12.75 40.3127 12.9375C39.8945 12.9807 39.4732 12.9679 39.053 12.9668C38.9355 12.9683 38.8179 12.9698 38.6968 12.9714C38.5844 12.9714 38.4719 12.9715 38.3561 12.9716C38.2527 12.9718 38.1493 12.9721 38.0428 12.9724C37.7815 12.9375 37.7815 12.9375 37.6068 12.8123C37.4422 12.5712 37.4707 12.3776 37.5002 12.0937C37.8529 11.5647 38.4538 11.6948 39.0354 11.6894Z" fill="#FF7705"></path>
  <path d="M13.6404 11.6814C13.739 11.681 13.8376 11.6807 13.9392 11.6803C14.0417 11.6814 14.1441 11.6825 14.2497 11.6836C14.3522 11.6825 14.4547 11.6814 14.5603 11.6803C14.6589 11.6807 14.7575 11.681 14.8591 11.6814C14.949 11.6817 15.0389 11.682 15.1316 11.6824C15.4143 11.7247 15.5422 11.8069 15.7497 12C15.868 12.2535 15.849 12.3567 15.7673 12.627C15.656 12.8438 15.656 12.8438 15.4685 12.9375C15.0647 12.9629 14.6601 12.9592 14.2556 12.9609C14.1425 12.9629 14.0295 12.9648 13.913 12.9668C13.8048 12.9673 13.6966 12.9678 13.5851 12.9683C13.4856 12.9691 13.3862 12.97 13.2837 12.9709C13.031 12.9375 13.031 12.9375 12.8583 12.8155C12.6739 12.545 12.7103 12.3151 12.7497 12C13.0309 11.7171 13.2497 11.6828 13.6404 11.6814Z" fill="#FF7705"></path>
  <path d="M18.0242 3.27759C18.4928 3.4077 18.7033 3.63956 19.0195 3.99609C19.0739 4.05277 19.1283 4.10945 19.1843 4.16785C19.5266 4.54293 19.6843 4.81616 19.6875 5.34375C19.505 5.62851 19.3792 5.70055 19.0547 5.78906C18.5656 5.6762 18.3207 5.33861 18 4.96875C17.935 4.89793 17.87 4.82711 17.803 4.75415C17.3469 4.22543 17.3469 4.22543 17.332 3.75586C17.4769 3.36159 17.6061 3.2826 18.0242 3.27759Z" fill="#FF7705"></path>
  <path d="M35.3319 3.25781C35.6248 3.28125 35.6248 3.28125 35.8006 3.38086C35.9243 3.59387 35.9789 3.77442 35.9705 4.02209C35.8479 4.39626 35.5539 4.65193 35.2835 4.92847C35.0571 5.15398 35.0571 5.15398 34.8587 5.41333C34.6873 5.625 34.6873 5.625 34.4998 5.71875C34.0108 5.76037 34.0108 5.76037 33.7615 5.61914C33.588 5.32027 33.6116 5.12268 33.6561 4.78125C33.8408 4.50282 34.0688 4.27668 34.3065 4.04297C34.3683 3.97964 34.4301 3.91632 34.4938 3.85107C34.6506 3.69086 34.809 3.53243 34.9686 3.375C35.0623 3.28125 35.0623 3.28125 35.3319 3.25781Z" fill="#FF7705"></path>
  <path d="M26.9066 0.468746C27.1095 0.594357 27.1095 0.594357 27.2816 0.843746C27.3359 1.18818 27.3296 1.52707 27.3226 1.875C27.3233 1.96853 27.324 2.06207 27.3246 2.15844C27.3177 2.96034 27.3177 2.96034 27.0004 3.28125C26.4434 3.35086 26.4434 3.35086 26.1853 3.16992C26.0174 2.9369 26.0265 2.77585 26.0255 2.49023C26.0252 2.39089 26.0248 2.29155 26.0244 2.18921C26.0255 2.08552 26.0266 1.98183 26.0277 1.875C26.0266 1.77131 26.0255 1.66762 26.0244 1.56079C26.0248 1.46145 26.0251 1.36211 26.0255 1.25976C26.0258 1.16876 26.0261 1.07776 26.0265 0.984005C26.0629 0.749996 26.0629 0.749996 26.1886 0.580074C26.4346 0.403966 26.6132 0.426834 26.9066 0.468746Z" fill="#FF7705"></path>
</svg>
