<?xml version="1.0" encoding="UTF-8"?>
<svg xmlns="http://www.w3.org/2000/svg" width="40" height="40" viewBox="0 0 40 40" fill="none">
  <path d="M2.08482 0.0213353C2.14772 0.0210437 2.21062 0.0207522 2.27542 0.0204518C2.48689 0.019676 2.69835 0.020087 2.90982 0.0204907C3.06268 0.0201801 3.21554 0.0197974 3.3684 0.0193489C3.78904 0.0183296 4.20966 0.0183538 4.6303 0.0185497C5.08372 0.0185836 5.53715 0.0176662 5.99057 0.016877C6.87913 0.0154944 7.76769 0.0150384 8.65625 0.0149457C9.37838 0.0148667 10.1005 0.0145253 10.8226 0.0139976C12.8691 0.0125327 14.9156 0.0117649 16.9621 0.0118906C17.0449 0.0118955 17.0449 0.0118955 17.1293 0.0119006C17.2408 0.0119073 17.3524 0.0119143 17.4639 0.0119215C19.1996 0.0120234 20.9352 0.010775 22.6709 0.00850002C24.6207 0.00594547 26.5705 0.00451628 28.5203 0.00466875C29.5527 0.00472401 30.5852 0.004265 31.6176 0.0024771C32.4966 0.000964701 33.3756 0.000599523 34.2546 0.00173026C34.7032 0.00227425 35.1517 0.00227933 35.6003 0.00083996C36.0109 -0.000464076 36.4215 -0.000234165 36.8321 0.00121984C36.9807 0.00147601 37.1293 0.00116974 37.2778 0.000245242C38.771 -0.00843094 38.771 -0.00843095 39.3954 0.538738C39.4402 0.592871 39.485 0.647003 39.5311 0.702775C39.5772 0.756693 39.6233 0.810611 39.6708 0.866163C39.9265 1.23722 39.9782 1.55528 39.9787 2.00177C39.979 2.05568 39.9793 2.10959 39.9796 2.16514C39.9804 2.34604 39.98 2.52693 39.9796 2.70783C39.9799 2.83874 39.9803 2.96965 39.9807 3.10056C39.9817 3.46052 39.9817 3.82047 39.9815 4.18042C39.9815 4.56855 39.9824 4.95667 39.9832 5.3448C39.9846 6.10529 39.985 6.86578 39.9851 7.62628C39.9852 8.24438 39.9855 8.86248 39.986 9.48058C39.9875 11.2326 39.9883 12.9846 39.9882 14.7366C39.9882 14.831 39.9881 14.9255 39.9881 15.0228C39.9881 15.1174 39.9881 15.212 39.9881 15.3095C39.988 16.8426 39.9896 18.3757 39.992 19.9088C39.9944 21.4826 39.9955 23.0564 39.9954 24.6302C39.9953 25.5139 39.9958 26.3976 39.9976 27.2813C39.9991 28.0337 39.9994 28.7861 39.9983 29.5385C39.9978 29.9224 39.9978 30.3063 39.9992 30.6902C40.0005 31.0417 40.0003 31.3932 39.9988 31.7448C39.9986 31.8718 39.9989 31.9989 39.9998 32.126C40.005 32.8892 39.9869 33.4737 39.4613 34.0735C39.4072 34.1183 39.353 34.1631 39.2973 34.2093C39.2434 34.2553 39.1894 34.3014 39.1339 34.3489C38.7015 34.6468 38.3152 34.6601 37.8071 34.6596C37.7338 34.6601 37.6604 34.6607 37.5849 34.6613C37.3431 34.6629 37.1013 34.6632 36.8595 34.6634C36.6912 34.6639 36.5229 34.6645 36.3547 34.665C36.0023 34.666 35.6499 34.6663 35.2975 34.6662C34.8457 34.6662 34.394 34.6685 33.9422 34.6714C33.5949 34.6732 33.2475 34.6735 32.9002 34.6735C32.7336 34.6737 32.567 34.6744 32.4004 34.6757C32.1677 34.6773 31.935 34.6768 31.7023 34.6758C31.6334 34.6768 31.5645 34.6777 31.4935 34.6787C31.1893 34.6753 31.0137 34.6636 30.7676 34.477C30.6337 34.2884 30.5988 34.1989 30.6023 33.9702C30.6015 33.9153 30.6006 33.8604 30.5997 33.8039C30.6663 33.5531 30.7712 33.4633 30.9765 33.3049C31.2114 33.2723 31.4141 33.2597 31.6489 33.2622C31.7502 33.2613 31.7502 33.2613 31.8535 33.2604C32.0765 33.2588 32.2994 33.2595 32.5224 33.2601C32.6775 33.2593 32.8326 33.2583 32.9878 33.2571C33.3962 33.2544 33.8047 33.2536 34.2131 33.2532C34.8666 33.2525 35.5201 33.2496 36.1736 33.2456C36.4017 33.2445 36.6299 33.2446 36.858 33.2448C36.9982 33.2442 37.1383 33.2436 37.2785 33.243C37.3734 33.2435 37.3734 33.2435 37.4703 33.2441C37.8057 33.2415 38.0876 33.2334 38.3774 33.0555C38.5216 32.7642 38.5646 32.5271 38.5654 32.2041C38.5661 32.1175 38.5667 32.0309 38.5673 31.9417C38.5672 31.8472 38.567 31.7526 38.5668 31.6553C38.5673 31.5546 38.5678 31.454 38.5683 31.3503C38.5695 31.0707 38.5699 30.7912 38.57 30.5116C38.5703 30.2056 38.5716 29.8995 38.5727 29.5935C38.5748 28.9994 38.5761 28.4053 38.577 27.8112C38.5782 27.1241 38.5804 26.4369 38.5826 25.7498C38.5878 23.9354 38.5916 22.121 38.5956 20.3067C38.6059 16.2539 38.6162 12.2012 38.6268 8.02566C26.3331 8.02566 14.0394 8.02566 1.37316 8.02566C1.38345 12.0784 1.39374 16.1311 1.40434 20.3067C1.40717 21.5879 1.41 22.8692 1.41291 24.1892C1.41623 25.3344 1.41623 25.3344 1.41976 26.4796C1.42134 26.9909 1.42246 27.5023 1.42328 28.0137C1.42422 28.6032 1.42573 29.1926 1.42795 29.7821C1.42907 30.0837 1.42993 30.3854 1.43006 30.6871C1.4302 31.0098 1.43162 31.3325 1.43316 31.6553C1.433 31.7498 1.43284 31.8443 1.43267 31.9417C1.43329 32.0283 1.43391 32.1149 1.43455 32.2041C1.43474 32.2787 1.43493 32.3534 1.43513 32.4302C1.45902 32.6664 1.51746 32.843 1.62263 33.0555C1.96407 33.2651 2.33252 33.2451 2.72153 33.243C2.78919 33.2433 2.85684 33.2436 2.92655 33.2439C3.07297 33.2445 3.21938 33.2447 3.3658 33.2446C3.59753 33.2445 3.82922 33.2456 4.06094 33.247C4.71958 33.2509 5.37822 33.2529 6.03687 33.2535C6.44013 33.2539 6.84335 33.2559 7.24659 33.2589C7.40019 33.2597 7.5538 33.2599 7.7074 33.2595C7.922 33.2589 8.1365 33.2603 8.3511 33.2622C8.41456 33.2615 8.47803 33.2608 8.54342 33.2601C8.83608 33.2647 8.99407 33.2823 9.22904 33.4635C9.36679 33.6522 9.40127 33.7394 9.39767 33.9702C9.39852 34.0251 9.39938 34.0799 9.40026 34.1365C9.33311 34.3893 9.23209 34.4768 9.02347 34.6354C8.7727 34.6682 8.55234 34.6809 8.30162 34.6785C8.19244 34.6793 8.19244 34.6793 8.08105 34.6802C7.84036 34.6817 7.59975 34.6807 7.35906 34.6796C7.19147 34.6798 7.02388 34.6801 6.85629 34.6806C6.50481 34.6811 6.15336 34.6803 5.80188 34.6788C5.35244 34.6769 4.90306 34.678 4.45362 34.68C4.10734 34.6812 3.76107 34.6808 3.41478 34.6799C3.24915 34.6797 3.08352 34.68 2.91789 34.6808C2.68562 34.6816 2.45346 34.6803 2.2212 34.6785C2.15336 34.6791 2.08551 34.6798 2.01561 34.6805C1.45796 34.6723 1.02593 34.5086 0.60462 34.1394C0.559814 34.0853 0.515007 34.0312 0.468843 33.9754C0.42275 33.9215 0.376657 33.8675 0.329168 33.812C0.0735033 33.4409 0.0218227 33.1229 0.0212777 32.6764C0.0209861 32.6225 0.0206945 32.5686 0.0203941 32.513C0.0196195 32.3321 0.0200291 32.1512 0.0204331 31.9703C0.0201224 31.8394 0.0197397 31.7085 0.0192913 31.5776C0.0182728 31.2176 0.0182961 30.8577 0.0184921 30.4977C0.018526 30.1096 0.0176083 29.7215 0.0168192 29.3334C0.0154371 28.5729 0.0149807 27.8124 0.0148881 27.0519C0.0148091 26.4338 0.0144676 25.8157 0.0139401 25.1976C0.0124752 23.4456 0.0117083 21.6936 0.011833 19.9416C0.0118396 19.8471 0.0118461 19.7526 0.011853 19.6553C0.0118598 19.5607 0.0118666 19.4661 0.0118736 19.3687C0.0119412 17.8356 0.0103496 16.3024 0.00800484 14.7693C0.00561689 13.1955 0.0044674 11.6218 0.00461114 10.048C0.00466638 9.16427 0.00420801 8.28055 0.00241936 7.39683C0.000906272 6.64442 0.00054246 5.89203 0.00167264 5.13963C0.00221628 4.75572 0.002223 4.37184 0.000782378 3.98794C-0.000523192 3.63641 -0.000290202 3.28492 0.00116224 2.93339C0.00141808 2.80631 0.00111335 2.67923 0.000187604 2.55215C-0.00500314 1.78898 0.0130861 1.20446 0.53868 0.604678C0.592813 0.559871 0.646945 0.515065 0.702718 0.468901C0.756636 0.422808 0.810554 0.376715 0.866105 0.329225C1.25886 0.0586122 1.61758 0.0185919 2.08482 0.0213353ZM1.53947 1.62268C0.911175 3.19342 1.37316 5.00343 1.37316 6.69517C13.6669 6.69517 25.9606 6.69517 38.6268 6.69517C38.8868 4.02653 38.8868 4.02653 38.3774 1.53953C38.0495 1.33956 37.7281 1.35231 37.3508 1.35206C37.2593 1.35166 37.2593 1.35166 37.166 1.35125C36.961 1.35056 36.7561 1.35105 36.5512 1.35154C36.403 1.35129 36.2548 1.35096 36.1066 1.35057C35.6989 1.34972 35.2913 1.3499 34.8836 1.35026C34.4441 1.35046 34.0046 1.34971 33.5652 1.34909C32.704 1.34803 31.8428 1.34788 30.9817 1.34808C30.2819 1.34822 29.5822 1.34808 28.8824 1.34772C28.7829 1.34767 28.6834 1.34763 28.5809 1.34757C28.3788 1.34747 28.1766 1.34737 27.9745 1.34727C26.0781 1.34637 24.1816 1.34655 22.2851 1.34705C20.5492 1.34748 18.8132 1.34655 17.0773 1.34497C15.2958 1.34336 13.5144 1.34267 11.733 1.34298C10.7324 1.34314 9.73184 1.34293 8.73127 1.34176C7.87954 1.34077 7.0278 1.34065 6.17606 1.34166C5.74132 1.34215 5.30659 1.34223 4.87185 1.34124C4.47408 1.34034 4.07632 1.34059 3.67854 1.34176C3.53445 1.34198 3.39036 1.34178 3.24627 1.34112C3.05071 1.34028 2.85522 1.34098 2.65966 1.34206C2.55095 1.34205 2.44224 1.34205 2.33023 1.34204C2.00625 1.37665 1.80959 1.44087 1.53947 1.62268Z" fill="#FF7705"></path>
  <path d="M18.8358 16.6741C19.0647 16.8325 19.145 16.9473 19.2464 17.2042C19.2556 17.5888 19.0431 17.8601 18.8358 18.1709C18.7983 18.3413 18.7983 18.3413 18.7839 18.5191C18.7684 18.6761 18.7684 18.6761 18.7527 18.8362C18.8196 18.8091 18.8865 18.7821 18.9554 18.7543C19.3132 18.6523 19.6303 18.6454 20 18.6491C20.0974 18.6481 20.0974 18.6481 20.1969 18.6471C20.5795 18.6484 20.8874 18.6908 21.2473 18.8362C21.1607 18.2542 21.1607 18.2542 20.8991 17.7343C20.7484 17.5057 20.7484 17.5057 20.7484 17.2458C20.8473 16.9614 20.9125 16.8419 21.1642 16.6741C21.4287 16.6363 21.5787 16.617 21.8294 16.6741C22.2481 16.9881 22.57 17.4838 22.661 18.0046C22.6689 18.2256 22.6726 18.4438 22.6714 18.6646C22.6717 18.7231 22.672 18.7816 22.6724 18.8418C22.6719 19.0921 22.6649 19.3192 22.6045 19.5628C22.5586 19.7558 22.5586 19.7558 22.6701 19.9289C22.7151 19.9868 22.7601 20.0446 22.8065 20.1043C23.3815 20.924 23.4207 21.7661 23.3262 22.7445C23.1772 23.5261 22.7151 24.104 22.1621 24.657C22.2659 24.749 22.3698 24.8408 22.4739 24.9325C22.5318 24.9836 22.5897 25.0348 22.6493 25.0874C22.815 25.2286 22.9852 25.3589 23.1599 25.4886C23.487 25.2904 23.814 25.0921 24.141 24.8938C24.2522 24.8263 24.3634 24.7589 24.4747 24.6915C24.6347 24.5945 24.7946 24.4975 24.9546 24.4004C25.0042 24.3704 25.0539 24.3403 25.105 24.3093C25.3189 24.1795 25.5295 24.0474 25.7377 23.9086C25.6836 23.2406 25.5702 22.5939 25.4361 21.9378C25.1767 20.5932 25.1767 20.5932 25.4467 20.1095C25.7329 19.9592 26.0043 19.9165 26.3198 20.0003C26.6522 20.2313 26.7115 20.4831 26.7831 20.8607C26.8008 20.9648 26.8008 20.9648 26.8188 21.071C26.8387 21.1796 26.8387 21.1796 26.859 21.2905C26.8872 21.4452 26.9148 21.6 26.942 21.7548C26.9856 21.9991 27.0324 22.2427 27.0799 22.4862C27.1107 22.6468 27.1415 22.8074 27.1722 22.9679C27.1868 23.0424 27.2013 23.1168 27.2164 23.1935C27.28 23.5366 27.3323 23.8787 27.3528 24.2273C27.3563 24.2842 27.3598 24.3411 27.3634 24.3997C27.2511 24.8276 26.8175 25.0588 26.4576 25.2713C26.4026 25.3029 26.3476 25.3345 26.2909 25.3671C26.2332 25.401 26.1755 25.4349 26.1161 25.4698C25.9332 25.5772 25.7497 25.6836 25.5662 25.79C25.3825 25.8972 25.1989 26.0045 25.0155 26.112C24.9017 26.1787 24.7878 26.245 24.6737 26.3111C24.4064 26.467 24.1506 26.6263 23.9083 26.8191C23.9323 26.8712 23.9563 26.9233 23.9811 26.977C24.0274 27.0789 24.0274 27.0789 24.0746 27.1829C24.1209 27.2842 24.1209 27.2842 24.1682 27.3875C24.2409 27.5675 24.2409 27.5675 24.2409 27.7338C24.3206 27.701 24.4002 27.6683 24.4823 27.6346C24.78 27.5125 25.0783 27.392 25.3768 27.2719C25.5055 27.2199 25.6341 27.1675 25.7625 27.1146C25.9478 27.0384 26.1337 26.9637 26.3198 26.8892C26.4047 26.8538 26.4047 26.8538 26.4913 26.8176C26.8947 26.6585 27.2162 26.6129 27.6503 26.6528C27.8201 26.7397 27.8201 26.7397 27.9521 26.872C28.0069 26.9252 28.0617 26.9784 28.1181 27.0333C28.1833 27.0998 28.2484 27.1663 28.3156 27.2349C28.4025 27.3203 28.4897 27.4056 28.577 27.4907C28.8266 27.735 29.0739 27.9815 29.3204 28.2289C29.4759 28.3848 29.6319 28.5403 29.7878 28.6958C29.8869 28.7949 29.9859 28.894 30.0849 28.9931C30.1315 29.0396 30.1781 29.086 30.2261 29.1338C30.6358 29.5461 30.6358 29.5461 30.6699 29.9686C30.665 30.2143 30.6494 30.3025 30.5192 30.5195C30.2841 30.6605 30.0967 30.707 29.8217 30.6911C29.1376 30.5086 28.5198 29.6106 28.0245 29.1111C27.9394 29.0256 27.8543 28.9401 27.7692 28.8546C27.563 28.6475 27.3571 28.4402 27.1514 28.2327C26.9521 28.3072 26.7529 28.3817 26.5537 28.4562C26.4939 28.4786 26.434 28.5009 26.3724 28.524C26.0802 28.6335 25.7884 28.7438 25.4977 28.8574C25.402 28.8948 25.3062 28.9322 25.2076 28.9707C25.1212 29.0048 25.0348 29.0389 24.9458 29.074C24.7399 29.1474 24.7399 29.1474 24.5736 29.1474C24.601 29.2298 24.6284 29.3121 24.6567 29.3969C24.6689 29.526 24.6773 29.6555 24.683 29.7851C24.6883 29.8964 24.6883 29.8964 24.6936 30.01C24.6969 30.0872 24.7001 30.1645 24.7035 30.2441C24.7071 30.3223 24.7107 30.4004 24.7144 30.481C24.7232 30.674 24.7317 30.867 24.7399 31.06C24.7985 31.0474 24.8571 31.0348 24.9175 31.0219C25.1873 30.9644 25.4573 30.9083 25.7273 30.8521C25.8195 30.8323 25.9117 30.8125 26.0067 30.792C27.2414 30.5378 27.2414 30.5378 27.6503 30.6442C27.9795 30.9206 28.1852 31.2286 28.3984 31.5989C28.428 31.6499 28.4576 31.7008 28.4881 31.7533C28.5819 31.9151 28.6748 32.0774 28.7677 32.2398C28.8602 32.4001 28.9529 32.5602 29.0456 32.7204C29.1058 32.8245 29.1658 32.9287 29.2257 33.033C29.4386 33.4037 29.6603 33.7681 29.8895 34.129C30.0445 34.4317 30.0362 34.6344 29.9787 34.9683C29.8539 35.1762 29.8539 35.1762 29.646 35.3009C29.1955 35.3653 29.1955 35.3653 28.9808 35.3009C28.6574 35.0121 28.4333 34.7 28.221 34.3258C28.1906 34.2735 28.1602 34.2211 28.1289 34.1672C28.0329 34.0015 27.9377 33.8353 27.8426 33.669C27.7464 33.5023 27.65 33.3357 27.5536 33.1691C27.4939 33.0658 27.4344 32.9624 27.3751 32.8589C27.2508 32.6424 27.1236 32.432 26.9851 32.2242C26.3749 32.2658 25.7871 32.3759 25.1904 32.5052C24.9062 32.5568 24.9062 32.5568 24.4904 32.5568C24.4355 32.8861 24.3806 33.2154 24.3241 33.5547C24.4089 33.5886 24.4936 33.6226 24.581 33.6576C24.8953 33.7837 25.2092 33.9109 25.5229 34.0384C25.6588 34.0934 25.7948 34.1482 25.9309 34.2027C26.1265 34.281 26.3216 34.3603 26.5167 34.4398C26.5777 34.464 26.6386 34.4882 26.7015 34.5131C26.9983 34.6352 27.1353 34.6948 27.3177 34.9683C27.4447 35.7626 27.2161 36.6342 27.0827 37.4168C27.0421 37.656 27.0032 37.8954 26.9644 38.1349C26.9388 38.2883 26.9131 38.4417 26.8873 38.595C26.8759 38.666 26.8644 38.7369 26.8526 38.81C26.7844 39.2026 26.6969 39.5291 26.4861 39.8745C26.2187 40.0082 25.9446 39.9955 25.6546 39.9577C25.4467 39.8485 25.4467 39.8485 25.322 39.625C25.2194 38.8058 25.4298 37.9601 25.5714 37.1564C25.5955 37.0163 25.6196 36.8763 25.6435 36.7362C25.7019 36.3962 25.7611 36.0564 25.8209 35.7167C25.7745 35.7018 25.7282 35.6869 25.6804 35.6715C25.1931 35.5121 24.7201 35.3297 24.2466 35.1335C23.9621 35.0101 23.9621 35.0101 23.6589 34.9683C23.5707 35.086 23.4886 35.2083 23.4094 35.3321C22.7527 36.2854 21.9128 37.0499 20.7484 37.2967C19.5343 37.3701 18.5645 37.254 17.5885 36.4651C17.083 36.0134 16.6708 35.5616 16.3412 34.9683C15.8046 35.1378 15.2854 35.337 14.7657 35.5519C14.3629 35.7167 14.3629 35.7167 14.1791 35.7167C14.1942 35.8026 14.2094 35.8885 14.2249 35.977C14.2815 36.2997 14.337 36.6226 14.3923 36.9455C14.4162 37.0845 14.4404 37.2234 14.4649 37.3623C14.8188 39.373 14.8188 39.373 14.5533 39.8485C14.2672 39.9987 13.9957 40.0415 13.6802 39.9577C13.4084 39.7718 13.3237 39.5916 13.254 39.2807C13.2284 39.1393 13.2042 38.9977 13.1813 38.8558C13.1614 38.7418 13.1614 38.7418 13.1411 38.6254C13.1128 38.4621 13.0851 38.2988 13.058 38.1353C13.0141 37.8738 12.9674 37.6129 12.9201 37.3519C12.8893 37.1776 12.8585 37.0033 12.8278 36.8289C12.8133 36.7483 12.7987 36.6677 12.7837 36.5846C12.5912 35.4516 12.5912 35.4516 12.6823 34.9683C12.9268 34.6374 13.2569 34.5114 13.6295 34.3667C13.6881 34.3432 13.7467 34.3197 13.8071 34.2955C13.9931 34.221 14.1797 34.1477 14.3662 34.0744C14.4929 34.0239 14.6196 33.9734 14.7463 33.9227C15.0558 33.7991 15.3657 33.6766 15.6759 33.5547C15.621 33.2254 15.5662 32.8961 15.5096 32.5568C15.3424 32.544 15.3424 32.544 15.1718 32.5308C14.6781 32.4829 14.1989 32.3807 13.7149 32.2758C13.5743 32.2503 13.5743 32.2503 13.4307 32.2242C13.3639 32.2114 13.2971 32.1987 13.2283 32.1855C12.9877 32.2047 12.9877 32.2047 12.8293 32.4619C12.7658 32.5709 12.7039 32.6809 12.6433 32.7917C12.6099 32.8497 12.5764 32.9078 12.5418 32.9677C12.4347 33.1539 12.3298 33.3412 12.225 33.5287C12.1199 33.7145 12.0144 33.9001 11.9081 34.0853C11.8421 34.2005 11.7768 34.3162 11.7123 34.4324C11.4775 34.8456 11.2397 35.2274 10.7697 35.3841C10.4588 35.3841 10.3372 35.3414 10.1045 35.1346C9.96725 34.8957 9.92584 34.8173 9.93819 34.5525C10.2392 33.7786 10.7205 33.0651 11.1543 32.3593C11.2174 32.2559 11.2804 32.1525 11.3434 32.0491C12.136 30.7511 12.136 30.7511 12.3497 30.6442C13.0074 30.5807 13.6328 30.7145 14.2727 30.8521C14.3681 30.872 14.4635 30.8918 14.5618 30.9122C14.7947 30.9608 15.0275 31.01 15.2601 31.06C15.2633 30.9864 15.2633 30.9864 15.2665 30.9113C15.2761 30.6889 15.2863 30.4665 15.2965 30.2441C15.2998 30.1668 15.3031 30.0896 15.3064 30.01C15.3099 29.9358 15.3134 29.8616 15.317 29.7851C15.32 29.7167 15.3231 29.6483 15.3262 29.5779C15.3433 29.3969 15.3433 29.3969 15.4265 29.1474C15.3767 29.1335 15.3269 29.1195 15.2756 29.1051C14.7402 28.9503 14.2269 28.7609 13.7114 28.5498C13.6358 28.5192 13.5602 28.4886 13.4824 28.457C13.2987 28.3826 13.1152 28.3078 12.9318 28.2327C12.57 28.5282 12.2387 28.8396 11.9131 29.1747C11.8744 29.2145 11.8357 29.2542 11.7959 29.2952C11.6346 29.461 11.4734 29.6269 11.3138 29.7943C11.1958 29.9179 11.0765 30.0401 10.9568 30.1622C10.887 30.2348 10.8171 30.3074 10.7451 30.3822C10.4805 30.5927 10.2688 30.6646 9.93819 30.7274C9.66274 30.6494 9.66274 30.6494 9.43926 30.4779C9.30933 30.2025 9.30933 30.2025 9.27295 29.8958C9.44839 29.4266 9.76125 29.1192 10.1084 28.7719C10.1657 28.714 10.2231 28.656 10.2821 28.5963C10.4031 28.4744 10.5245 28.3528 10.6462 28.2315C10.8315 28.0462 11.015 27.8592 11.1985 27.6721C11.3166 27.5535 11.4349 27.4351 11.5532 27.3167C11.6076 27.2609 11.6621 27.2052 11.7181 27.1477C12.0531 26.8176 12.2965 26.6435 12.7655 26.5696C12.986 26.6226 13.1586 26.6784 13.3632 26.7671C13.4465 26.8008 13.4465 26.8008 13.5316 26.8352C13.6533 26.8846 13.7748 26.9347 13.896 26.9854C14.1139 27.076 14.3329 27.1635 14.5523 27.2505C14.9552 27.4102 15.3573 27.5715 15.7591 27.7338C15.8011 27.6144 15.8426 27.4948 15.8838 27.3752C15.907 27.3086 15.9301 27.2421 15.954 27.1735C16.0201 26.9781 16.0201 26.9781 16.0085 26.7359C15.8235 26.6046 15.6436 26.4921 15.4469 26.3806C15.3892 26.3468 15.3316 26.3131 15.2721 26.2784C15.0867 26.1701 14.9006 26.0632 14.7144 25.9563C14.5305 25.8499 14.3466 25.7431 14.163 25.6361C14.0486 25.5696 13.934 25.5034 13.8192 25.4376C12.8272 24.8637 12.8272 24.8637 12.6823 24.5739C12.6411 24.0603 12.7089 23.5646 12.8009 23.0605C12.8194 22.9559 12.8194 22.9559 12.8382 22.8492C12.8643 22.703 12.8906 22.5569 12.9173 22.4108C12.9578 22.1883 12.9967 21.9654 13.0356 21.7425C13.0612 21.5998 13.0869 21.457 13.1127 21.3143C13.1242 21.2482 13.1356 21.1822 13.1474 21.1142C13.2178 20.736 13.3069 20.4146 13.5139 20.0835C13.7893 19.9536 13.7893 19.9536 14.096 19.9172C14.5552 20.0873 14.5552 20.0873 14.6781 20.333C14.7425 21.053 14.6049 21.7399 14.465 22.443C14.4243 22.648 14.3843 22.853 14.3451 23.0582C14.3273 23.1478 14.3094 23.2373 14.291 23.3296C14.2604 23.5918 14.2464 23.7465 14.3454 23.9918C14.5214 24.1291 14.6795 24.234 14.8723 24.3416C14.9251 24.3724 14.9779 24.4032 15.0324 24.4349C15.144 24.4996 15.256 24.5637 15.3683 24.6271C15.5404 24.7244 15.7112 24.8236 15.8819 24.9232C15.9905 24.9859 16.0992 25.0484 16.208 25.1108C16.2592 25.1404 16.3104 25.1701 16.3631 25.2006C16.5965 25.3316 16.7341 25.4054 17.0064 25.4054C17.1775 25.2615 17.1775 25.2615 17.3442 25.078C17.6574 24.7473 17.6574 24.7473 17.838 24.657C17.7948 24.6127 17.7516 24.5683 17.7071 24.5226C16.8663 23.6243 16.6316 22.8334 16.6504 21.6277C16.6759 21.0072 16.8647 20.5028 17.2403 20.0107C17.4481 19.7777 17.4481 19.7777 17.3936 19.5667C17.3756 19.4903 17.3576 19.4138 17.339 19.3351C17.2793 18.4236 17.3112 17.6925 17.8484 16.9184C18.1332 16.624 18.4432 16.6181 18.8358 16.6741ZM18.3739 20.9069C18.0316 21.4037 18.0259 21.9097 18.0874 22.495C18.2592 23.0613 18.6264 23.4679 19.1321 23.7683C19.6233 23.9958 20.172 23.9975 20.6903 23.8567C21.2009 23.6346 21.6002 23.2088 21.8437 22.712C22.0022 22.2125 22.0011 21.6216 21.7879 21.1385C21.4981 20.6446 21.0449 20.2568 20.4989 20.0835C19.5481 19.9707 18.9873 20.1894 18.3739 20.9069ZM20.6653 25.4886C20.6653 28.8913 20.6653 32.294 20.6653 35.7999C21.965 35.15 22.55 34.1946 23.0154 32.8316C23.522 31.1145 23.4143 29.0576 22.6116 27.4473C22.0974 26.5132 21.6624 25.9159 20.6653 25.4886ZM18.2589 26.1249C16.958 27.5012 16.7125 29.3647 16.7345 31.1727C16.7757 32.6082 17.2906 34.1868 18.3369 35.2178C18.6511 35.4651 18.9543 35.6731 19.3348 35.7999C19.3348 32.3972 19.3348 28.9944 19.3348 25.4886C18.983 25.4886 18.5144 25.907 18.2589 26.1249Z" fill="#FF7705"></path>
  <path d="M8.82418 13.3056C8.91964 13.3047 9.01511 13.3038 9.11347 13.303C9.27086 13.3041 9.27086 13.3041 9.43144 13.3052C9.54399 13.3048 9.65655 13.3043 9.7691 13.3036C10.0787 13.3022 10.3883 13.3029 10.6979 13.304C11.0316 13.3047 11.3654 13.3036 11.6991 13.3026C12.3531 13.3012 13.007 13.3015 13.661 13.3024C14.1924 13.3032 14.7237 13.3033 15.2551 13.3029C15.3306 13.3029 15.4062 13.3028 15.484 13.3028C15.6375 13.3027 15.791 13.3026 15.9445 13.3025C17.3845 13.3015 18.8245 13.3026 20.2645 13.3044C21.5008 13.3059 22.737 13.3056 23.9733 13.3041C25.408 13.3023 26.8428 13.3016 28.2776 13.3026C28.4305 13.3027 28.5834 13.3028 28.7364 13.3029C28.8116 13.303 28.8868 13.303 28.9644 13.3031C29.4952 13.3034 30.0261 13.3029 30.557 13.3021C31.2038 13.3012 31.8505 13.3014 32.4972 13.3032C32.8274 13.3041 33.1575 13.3044 33.4876 13.3033C33.7897 13.3023 34.0916 13.3029 34.3937 13.3046C34.5551 13.3052 34.7165 13.3041 34.878 13.303C35.0212 13.3043 35.0212 13.3043 35.1673 13.3056C35.2498 13.3056 35.3324 13.3057 35.4174 13.3057C35.6932 13.359 35.7922 13.4641 35.9658 13.6801C36.01 13.8464 36.01 13.8464 36.0074 14.0127C36.0087 14.095 36.0087 14.095 36.01 14.179C35.9455 14.422 35.8258 14.5195 35.6332 14.6779C35.4174 14.7196 35.4174 14.7196 35.1673 14.7198C35.0718 14.7207 34.9763 14.7215 34.878 14.7224C34.773 14.7217 34.6681 14.7209 34.56 14.7202C34.4474 14.7206 34.3349 14.7211 34.2223 14.7217C33.9127 14.7231 33.6032 14.7224 33.2936 14.7214C32.9598 14.7207 32.6261 14.7218 32.2923 14.7227C31.6383 14.7242 30.9844 14.7239 30.3305 14.7229C29.7991 14.7222 29.2677 14.7221 28.7364 14.7224C28.6608 14.7225 28.5852 14.7225 28.5074 14.7226C28.3539 14.7227 28.2004 14.7228 28.0469 14.7229C26.6069 14.7239 25.1669 14.7228 23.7269 14.721C22.4907 14.7195 21.2544 14.7198 20.0182 14.7213C18.5834 14.7231 17.1486 14.7238 15.7139 14.7228C15.5609 14.7226 15.408 14.7225 15.2551 14.7224C15.1798 14.7224 15.1046 14.7223 15.0271 14.7223C14.4962 14.722 13.9653 14.7225 13.4344 14.7233C12.7877 14.7242 12.1409 14.7239 11.4942 14.7222C11.1641 14.7213 10.8339 14.721 10.5038 14.7221C10.2018 14.723 9.8998 14.7225 9.59779 14.7207C9.43635 14.7202 9.27491 14.7213 9.11347 14.7224C8.97027 14.7211 8.97027 14.7211 8.82418 14.7198C8.74163 14.7197 8.65908 14.7197 8.57403 14.7196C8.29825 14.6663 8.19924 14.5613 8.02559 14.3453C7.98141 14.179 7.98141 14.179 7.98401 14.0127C7.98273 13.9304 7.98273 13.9304 7.98141 13.8464C8.09768 13.4087 8.40937 13.3059 8.82418 13.3056Z" fill="#FF7705"></path>
  <path d="M8.82418 10.6446C8.91964 10.6437 9.01511 10.6428 9.11347 10.6419C9.27086 10.6431 9.27086 10.6431 9.43144 10.6442C9.54399 10.6438 9.65655 10.6433 9.7691 10.6426C10.0787 10.6412 10.3883 10.6419 10.6979 10.6429C11.0316 10.6437 11.3654 10.6425 11.6991 10.6416C12.3531 10.6401 13.007 10.6405 13.661 10.6414C14.1924 10.6422 14.7237 10.6423 15.2551 10.6419C15.3306 10.6419 15.4062 10.6418 15.484 10.6418C15.6375 10.6417 15.791 10.6416 15.9445 10.6414C17.3845 10.6405 18.8245 10.6416 20.2645 10.6434C21.5008 10.6449 22.737 10.6446 23.9733 10.6431C25.408 10.6413 26.8428 10.6406 28.2776 10.6416C28.4305 10.6417 28.5834 10.6418 28.7364 10.6419C28.8116 10.642 28.8868 10.642 28.9644 10.6421C29.4952 10.6424 30.0261 10.6419 30.557 10.6411C31.2038 10.6402 31.8505 10.6404 32.4972 10.6422C32.8274 10.6431 33.1575 10.6434 33.4876 10.6423C33.7897 10.6413 34.0916 10.6419 34.3937 10.6436C34.5551 10.6442 34.7165 10.6431 34.878 10.6419C35.0212 10.6432 35.0212 10.6432 35.1673 10.6446C35.2498 10.6446 35.3324 10.6447 35.4174 10.6447C35.6932 10.698 35.7922 10.803 35.9658 11.0191C36.01 11.1854 36.01 11.1854 36.0074 11.3517C36.0087 11.434 36.0087 11.434 36.01 11.518C35.9455 11.761 35.8258 11.8584 35.6332 12.0169C35.4174 12.0586 35.4174 12.0586 35.1673 12.0588C35.0718 12.0596 34.9763 12.0605 34.878 12.0614C34.773 12.0607 34.6681 12.0599 34.56 12.0592C34.4474 12.0595 34.3349 12.0601 34.2223 12.0607C33.9127 12.0621 33.6032 12.0614 33.2936 12.0604C32.9598 12.0596 32.6261 12.0608 32.2923 12.0617C31.6383 12.0632 30.9844 12.0629 30.3305 12.0619C29.7991 12.0612 29.2677 12.0611 28.7364 12.0614C28.6608 12.0615 28.5852 12.0615 28.5074 12.0616C28.3539 12.0617 28.2004 12.0618 28.0469 12.0619C26.6069 12.0629 25.1669 12.0618 23.7269 12.06C22.4907 12.0585 21.2544 12.0587 20.0182 12.0603C18.5834 12.0621 17.1486 12.0628 15.7139 12.0617C15.5609 12.0616 15.408 12.0615 15.2551 12.0614C15.1798 12.0614 15.1046 12.0613 15.0271 12.0613C14.4962 12.061 13.9653 12.0615 13.4344 12.0623C12.7877 12.0632 12.1409 12.0629 11.4942 12.0612C11.1641 12.0603 10.8339 12.0599 10.5038 12.061C10.2018 12.062 9.8998 12.0615 9.59779 12.0597C9.43635 12.0592 9.27491 12.0603 9.11347 12.0614C8.97027 12.0601 8.97027 12.0601 8.82418 12.0588C8.74163 12.0587 8.65908 12.0587 8.57403 12.0586C8.29825 12.0053 8.19924 11.9003 8.02559 11.6843C7.98141 11.518 7.98141 11.518 7.98401 11.3517C7.98273 11.2694 7.98273 11.2694 7.98141 11.1854C8.09768 10.7477 8.40937 10.6448 8.82418 10.6446Z" fill="#FF7705"></path>
  <path d="M24.7912 15.9661C24.8863 15.9651 24.9815 15.9642 25.0795 15.9632C25.2355 15.9642 25.2355 15.9642 25.3947 15.9653C25.5057 15.9648 25.6166 15.9642 25.7275 15.9635C26.0285 15.962 26.3295 15.9626 26.6305 15.9636C26.9455 15.9645 27.2606 15.9637 27.5756 15.9632C28.1046 15.9625 28.6337 15.9633 29.1627 15.9649C29.7743 15.9667 30.3859 15.9662 30.9975 15.9643C31.5227 15.9628 32.0478 15.9626 32.5729 15.9635C32.8866 15.964 33.2002 15.9641 33.5138 15.963C33.8087 15.962 34.1035 15.9627 34.3984 15.9646C34.5582 15.9652 34.718 15.9642 34.8779 15.9632C35.0206 15.9646 35.0206 15.9646 35.1661 15.9661C35.2488 15.9662 35.3315 15.9663 35.4166 15.9664C35.6929 16.0198 35.7919 16.1245 35.9659 16.3409C36.01 16.5072 36.01 16.5072 36.0074 16.6735C36.0087 16.7559 36.0087 16.7559 36.01 16.8399C35.9455 17.0829 35.8259 17.1803 35.6332 17.3388C35.4166 17.3806 35.4166 17.3806 35.1661 17.381C35.071 17.382 34.9759 17.3829 34.8779 17.3839C34.7738 17.3832 34.6698 17.3825 34.5626 17.3818C34.4517 17.3823 34.3408 17.3829 34.2298 17.3836C33.9288 17.3851 33.6278 17.3845 33.3268 17.3835C33.0118 17.3826 32.6968 17.3834 32.3817 17.3839C31.8527 17.3845 31.3237 17.3837 30.7946 17.3821C30.183 17.3803 29.5714 17.3809 28.9598 17.3828C28.4347 17.3843 27.9095 17.3845 27.3844 17.3836C27.0708 17.3831 26.7571 17.383 26.4435 17.3841C26.1486 17.3851 25.8538 17.3844 25.5589 17.3825C25.3991 17.3818 25.2393 17.3828 25.0795 17.3839C24.9368 17.3825 24.9368 17.3825 24.7912 17.381C24.7085 17.3809 24.6259 17.3808 24.5407 17.3806C24.2644 17.3273 24.1654 17.2226 23.9915 17.0062C23.9473 16.8399 23.9473 16.8399 23.9499 16.6735C23.9486 16.5912 23.9486 16.5912 23.9473 16.5072C24.0637 16.069 24.376 15.9667 24.7912 15.9661Z" fill="#FF7705"></path>
  <path d="M29.0198 21.287C29.0907 21.2865 29.1615 21.2859 29.2346 21.2853C29.4688 21.2838 29.7029 21.2848 29.9371 21.2859C30.0999 21.2857 30.2627 21.2854 30.4255 21.2849C30.7666 21.2845 31.1077 21.2852 31.4488 21.2867C31.8862 21.2886 32.3235 21.2875 32.7608 21.2855C33.097 21.2843 33.4331 21.2847 33.7692 21.2856C33.9305 21.2858 34.0918 21.2855 34.253 21.2847C34.4784 21.2839 34.7037 21.2852 34.929 21.287C34.9957 21.2864 35.0624 21.2857 35.1312 21.285C35.4306 21.2896 35.5994 21.3042 35.8408 21.4887C35.9763 21.6772 36.011 21.7658 36.0074 21.9953C36.0087 22.0777 36.0087 22.0777 36.01 22.1616C35.9431 22.4137 35.8407 22.5021 35.6332 22.6606C35.3881 22.6934 35.1741 22.7061 34.929 22.7036C34.8227 22.7045 34.8227 22.7045 34.7142 22.7054C34.48 22.7068 34.2459 22.7059 34.0117 22.7047C33.8489 22.705 33.6861 22.7053 33.5233 22.7057C33.1822 22.7062 32.8411 22.7055 32.5 22.7039C32.0626 22.702 31.6253 22.7031 31.188 22.7051C30.8518 22.7063 30.5157 22.7059 30.1795 22.7051C30.0183 22.7049 29.857 22.7051 29.6958 22.7059C29.4704 22.7068 29.2451 22.7055 29.0198 22.7036C28.9531 22.7043 28.8864 22.705 28.8176 22.7057C28.5182 22.7011 28.3494 22.6864 28.108 22.502C27.9725 22.3134 27.9378 22.2249 27.9413 21.9953C27.9401 21.913 27.9401 21.913 27.9388 21.829C28.0844 21.2808 28.5358 21.2822 29.0198 21.287Z" fill="#FF7705"></path>
  <path d="M29.0198 18.6261C29.0907 18.6255 29.1615 18.6249 29.2346 18.6243C29.4688 18.6229 29.7029 18.6238 29.9371 18.625C30.0999 18.6247 30.2627 18.6244 30.4255 18.624C30.7666 18.6235 31.1077 18.6242 31.4488 18.6258C31.8862 18.6277 32.3235 18.6266 32.7608 18.6246C33.097 18.6234 33.4331 18.6238 33.7692 18.6246C33.9305 18.6248 34.0918 18.6246 34.253 18.6238C34.4784 18.623 34.7037 18.6242 34.929 18.6261C34.9957 18.6254 35.0624 18.6247 35.1312 18.6241C35.4306 18.6286 35.5994 18.6433 35.8408 18.8277C35.9763 19.0163 36.011 19.1048 36.0074 19.3344C36.0087 19.4167 36.0087 19.4167 36.01 19.5007C35.9431 19.7528 35.8407 19.8411 35.6332 19.9996C35.3881 20.0324 35.1741 20.0451 34.929 20.0427C34.8227 20.0435 34.8227 20.0435 34.7142 20.0444C34.48 20.0459 34.2459 20.0449 34.0117 20.0438C33.8489 20.044 33.6861 20.0443 33.5233 20.0448C33.1822 20.0453 32.8411 20.0445 32.5 20.043C32.0626 20.0411 31.6253 20.0422 31.188 20.0442C30.8518 20.0454 30.5157 20.045 30.1795 20.0441C30.0183 20.0439 29.857 20.0442 29.6958 20.045C29.4704 20.0458 29.2451 20.0445 29.0198 20.0427C28.9531 20.0433 28.8864 20.044 28.8176 20.0447C28.5182 20.0401 28.3494 20.0255 28.108 19.841C27.9725 19.6525 27.9378 19.5639 27.9413 19.3344C27.9401 19.2521 27.9401 19.2521 27.9388 19.1681C28.0844 18.6199 28.5358 18.6212 29.0198 18.6261Z" fill="#FF7705"></path>
  <path d="M9.06244 15.9651C9.13332 15.9645 9.20421 15.9639 9.27725 15.9633C9.51144 15.9619 9.74555 15.9628 9.97975 15.9639C10.1425 15.9637 10.3053 15.9634 10.4681 15.963C10.8093 15.9625 11.1504 15.9632 11.4915 15.9648C11.9288 15.9667 12.3661 15.9656 12.8035 15.9636C13.1396 15.9624 13.4758 15.9628 13.8119 15.9636C13.9732 15.9638 14.1344 15.9636 14.2957 15.9628C14.5211 15.9619 14.7463 15.9632 14.9717 15.9651C15.0384 15.9644 15.1051 15.9637 15.1738 15.963C15.4732 15.9676 15.6421 15.9823 15.8835 16.1667C16.019 16.3553 16.0537 16.4438 16.0501 16.6734C16.0514 16.7557 16.0514 16.7557 16.0527 16.8397C15.9857 17.0917 15.8833 17.1801 15.6759 17.3386C15.4308 17.3714 15.2167 17.3841 14.9717 17.3817C14.8653 17.3825 14.8653 17.3825 14.7569 17.3834C14.5227 17.3849 14.2886 17.3839 14.0544 17.3828C13.8916 17.383 13.7288 17.3833 13.566 17.3838C13.2249 17.3842 12.8838 17.3835 12.5426 17.382C12.1053 17.3801 11.668 17.3812 11.2306 17.3832C10.8945 17.3844 10.5584 17.384 10.2222 17.3831C10.0609 17.3829 9.89968 17.3832 9.73842 17.3839C9.51305 17.3848 9.2878 17.3835 9.06244 17.3817C8.99573 17.3823 8.92902 17.383 8.86029 17.3837C8.56089 17.3791 8.39203 17.3645 8.15065 17.18C8.01515 16.9915 7.98043 16.9029 7.98401 16.6734C7.98273 16.591 7.98273 16.591 7.98141 16.5071C8.12703 15.9588 8.57849 15.9602 9.06244 15.9651Z" fill="#FF7705"></path>
  <path d="M12.516 2.70361C12.9222 2.89219 13.159 3.12898 13.3476 3.53516C13.4103 4.00081 13.4119 4.39457 13.2124 4.82407C12.8321 5.22441 12.5735 5.3855 12.0171 5.40616C11.4607 5.3855 11.202 5.22441 10.8217 4.82407C10.6223 4.39457 10.6239 4.00081 10.6866 3.53516C11.059 2.73316 11.6967 2.59331 12.516 2.70361Z" fill="#FF7705"></path>
  <path d="M8.52456 2.70361C8.93074 2.89219 9.16753 3.12898 9.35611 3.53516C9.4188 4.00081 9.4204 4.39457 9.22099 4.82407C8.84066 5.22441 8.58204 5.3855 8.02563 5.40616C7.46921 5.3855 7.21059 5.22441 6.83027 4.82407C6.63086 4.39457 6.63245 4.00081 6.69514 3.53516C7.0675 2.73316 7.70523 2.59331 8.52456 2.70361Z" fill="#FF7705"></path>
  <path d="M4.53307 2.70361C4.93926 2.89219 5.17604 3.12898 5.36463 3.53516C5.42731 4.00081 5.42891 4.39457 5.2295 4.82407C4.84918 5.22441 4.59055 5.3855 4.03414 5.40616C3.47773 5.3855 3.2191 5.22441 2.83878 4.82407C2.63937 4.39457 2.64097 4.00081 2.70365 3.53516C3.07601 2.73316 3.71375 2.59331 4.53307 2.70361Z" fill="#FF7705"></path>
  <path d="M9.10661 21.2865C9.17918 21.2862 9.25175 21.2859 9.32652 21.2856C9.47973 21.2853 9.63294 21.2859 9.78615 21.2873C10.0205 21.2891 10.2547 21.2874 10.4891 21.2852C10.6381 21.2854 10.787 21.2859 10.936 21.2865C11.006 21.2859 11.076 21.2852 11.1481 21.2845C11.6335 21.2923 11.6335 21.2923 11.8948 21.4894C12.0272 21.6777 12.0622 21.7682 12.0586 21.9959C12.0595 22.0508 12.0603 22.1057 12.0612 22.1623C11.9938 22.4162 11.8948 22.5025 11.6844 22.6612C11.4352 22.7112 11.1896 22.7078 10.936 22.7054C10.8635 22.7057 10.7909 22.706 10.7161 22.7063C10.5629 22.7066 10.4097 22.7059 10.2565 22.7046C10.0221 22.7028 9.78795 22.7045 9.55357 22.7067C9.40459 22.7064 9.2556 22.706 9.10661 22.7054C9.03662 22.706 8.96662 22.7067 8.8945 22.7074C8.40917 22.6996 8.40917 22.6996 8.14789 22.5025C8.01549 22.3142 7.98045 22.2237 7.98401 21.9959C7.98273 21.9136 7.98273 21.9136 7.98141 21.8296C8.13447 21.2534 8.61186 21.2818 9.10661 21.2865Z" fill="#FF7705"></path>
  <path d="M9.10661 18.6256C9.17918 18.6253 9.25175 18.6249 9.32652 18.6246C9.47973 18.6244 9.63294 18.625 9.78615 18.6264C10.0205 18.6282 10.2547 18.6264 10.4891 18.6243C10.6381 18.6245 10.787 18.6249 10.936 18.6256C11.006 18.6249 11.076 18.6242 11.1481 18.6235C11.6335 18.6313 11.6335 18.6313 11.8948 18.8284C12.0272 19.0167 12.0622 19.1072 12.0586 19.335C12.0595 19.3899 12.0603 19.4448 12.0612 19.5013C11.9938 19.7552 11.8948 19.8415 11.6844 20.0002C11.4352 20.0502 11.1896 20.0469 10.936 20.0444C10.8635 20.0447 10.7909 20.0451 10.7161 20.0454C10.5629 20.0456 10.4097 20.045 10.2565 20.0436C10.0221 20.0418 9.78795 20.0436 9.55357 20.0457C9.40459 20.0455 9.2556 20.0451 9.10661 20.0444C9.03662 20.0451 8.96662 20.0458 8.8945 20.0465C8.40917 20.0387 8.40917 20.0387 8.14789 19.8416C8.01549 19.6533 7.98045 19.5628 7.98401 19.335C7.98273 19.2527 7.98273 19.2527 7.98141 19.1687C8.13447 18.5925 8.61186 18.6208 9.10661 18.6256Z" fill="#FF7705"></path>
  <path d="M4.82411 21.2866C4.91158 21.2862 4.99905 21.2858 5.08917 21.2853C5.18007 21.2866 5.27097 21.2879 5.36462 21.2892C5.50097 21.2873 5.50097 21.2873 5.64008 21.2853C5.72755 21.2858 5.81502 21.2862 5.90514 21.2866C6.02476 21.2872 6.02476 21.2872 6.14681 21.2878C6.42178 21.3426 6.52124 21.4482 6.69511 21.6634C6.73929 21.8297 6.73929 21.8297 6.73669 21.9961C6.73755 22.0509 6.73841 22.1058 6.73929 22.1624C6.67484 22.405 6.55449 22.5027 6.36249 22.6613C6.14681 22.7043 6.14681 22.7043 5.90514 22.7055C5.81767 22.7059 5.7302 22.7063 5.64008 22.7068C5.54918 22.7055 5.45828 22.7042 5.36462 22.7029C5.22828 22.7048 5.22828 22.7048 5.08917 22.7068C5.0017 22.7064 4.91423 22.7059 4.82411 22.7055C4.74436 22.7051 4.66461 22.7047 4.58244 22.7043C4.30747 22.6495 4.20801 22.544 4.03414 22.3287C3.98996 22.1624 3.98996 22.1624 3.99256 21.9961C3.99127 21.9137 3.99127 21.9137 3.98996 21.8297C4.10462 21.3981 4.41325 21.2886 4.82411 21.2866Z" fill="#FF7705"></path>
  <path d="M4.82411 18.6257C4.91158 18.6253 4.99905 18.6248 5.08917 18.6244C5.18007 18.6257 5.27097 18.627 5.36462 18.6283C5.50097 18.6264 5.50097 18.6264 5.64008 18.6244C5.72755 18.6248 5.81502 18.6252 5.90514 18.6257C6.02476 18.6263 6.02476 18.6263 6.14681 18.6268C6.42178 18.6817 6.52124 18.7872 6.69511 19.0025C6.73929 19.1688 6.73929 19.1688 6.73669 19.3351C6.73755 19.39 6.73841 19.4449 6.73929 19.5014C6.67484 19.7441 6.55449 19.8418 6.36249 20.0004C6.14681 20.0434 6.14681 20.0434 5.90514 20.0445C5.81767 20.045 5.7302 20.0454 5.64008 20.0458C5.54918 20.0445 5.45828 20.0433 5.36462 20.0419C5.22828 20.0439 5.22828 20.0439 5.08917 20.0458C5.0017 20.0454 4.91423 20.045 4.82411 20.0445C4.74436 20.0442 4.66461 20.0438 4.58244 20.0434C4.30747 19.9885 4.20801 19.883 4.03414 19.6677C3.98996 19.5014 3.98996 19.5014 3.99256 19.3351C3.99127 19.2528 3.99127 19.2528 3.98996 19.1688C4.10462 18.7371 4.41325 18.6276 4.82411 18.6257Z" fill="#FF7705"></path>
  <path d="M4.82411 15.9647C4.91158 15.9642 4.99905 15.9638 5.08917 15.9634C5.18007 15.9647 5.27097 15.966 5.36462 15.9673C5.50097 15.9653 5.50097 15.9653 5.64008 15.9634C5.72755 15.9638 5.81502 15.9642 5.90514 15.9647C6.02476 15.9652 6.02476 15.9652 6.14681 15.9658C6.42178 16.0207 6.52124 16.1262 6.69511 16.3415C6.73929 16.5078 6.73929 16.5078 6.73669 16.6741C6.73755 16.729 6.73841 16.7839 6.73929 16.8404C6.67484 17.0831 6.55449 17.1808 6.36249 17.3393C6.14681 17.3824 6.14681 17.3824 5.90514 17.3835C5.81767 17.3839 5.7302 17.3844 5.64008 17.3848C5.54918 17.3835 5.45828 17.3822 5.36462 17.3809C5.22828 17.3829 5.22828 17.3829 5.08917 17.3848C5.0017 17.3844 4.91423 17.384 4.82411 17.3835C4.74436 17.3831 4.66461 17.3828 4.58244 17.3824C4.30747 17.3275 4.20801 17.222 4.03414 17.0067C3.98996 16.8404 3.98996 16.8404 3.99256 16.6741C3.99127 16.5918 3.99127 16.5918 3.98996 16.5078C4.10462 16.0761 4.41325 15.9666 4.82411 15.9647Z" fill="#FF7705"></path>
  <path d="M4.82411 13.3037C4.91158 13.3033 4.99905 13.3029 5.08917 13.3024C5.18007 13.3037 5.27097 13.305 5.36462 13.3063C5.50097 13.3044 5.50097 13.3044 5.64008 13.3024C5.72755 13.3029 5.81502 13.3033 5.90514 13.3037C6.02476 13.3043 6.02476 13.3043 6.14681 13.3049C6.42178 13.3597 6.52124 13.4652 6.69511 13.6805C6.73929 13.8468 6.73929 13.8468 6.73669 14.0131C6.73755 14.068 6.73841 14.1229 6.73929 14.1795C6.67484 14.4221 6.55449 14.5198 6.36249 14.6784C6.14681 14.7214 6.14681 14.7214 5.90514 14.7226C5.81767 14.723 5.7302 14.7234 5.64008 14.7239C5.54918 14.7226 5.45828 14.7213 5.36462 14.72C5.22828 14.7219 5.22828 14.7219 5.08917 14.7239C5.0017 14.7234 4.91423 14.723 4.82411 14.7226C4.74436 14.7222 4.66461 14.7218 4.58244 14.7214C4.30747 14.6666 4.20801 14.561 4.03414 14.3458C3.98996 14.1795 3.98996 14.1795 3.99256 14.0131C3.99127 13.9308 3.99127 13.9308 3.98996 13.8468C4.10462 13.4152 4.41325 13.3057 4.82411 13.3037Z" fill="#FF7705"></path>
  <path d="M4.82411 10.6428C4.91158 10.6424 4.99905 10.6419 5.08917 10.6415C5.18007 10.6428 5.27097 10.6441 5.36462 10.6454C5.50097 10.6434 5.50097 10.6434 5.64008 10.6415C5.72755 10.6419 5.81502 10.6423 5.90514 10.6428C6.02476 10.6433 6.02476 10.6433 6.14681 10.6439C6.42178 10.6988 6.52124 10.8043 6.69511 11.0196C6.73929 11.1859 6.73929 11.1859 6.73669 11.3522C6.73755 11.4071 6.73841 11.462 6.73929 11.5185C6.67484 11.7612 6.55449 11.8589 6.36249 12.0174C6.14681 12.0605 6.14681 12.0605 5.90514 12.0616C5.81767 12.062 5.7302 12.0625 5.64008 12.0629C5.54918 12.0616 5.45828 12.0603 5.36462 12.059C5.22828 12.061 5.22828 12.061 5.08917 12.0629C5.0017 12.0625 4.91423 12.0621 4.82411 12.0616C4.74436 12.0612 4.66461 12.0609 4.58244 12.0605C4.30747 12.0056 4.20801 11.9001 4.03414 11.6848C3.98996 11.5185 3.98996 11.5185 3.99256 11.3522C3.99127 11.2699 3.99127 11.2699 3.98996 11.1859C4.10462 10.7542 4.41325 10.6447 4.82411 10.6428Z" fill="#FF7705"></path>
</svg>
