<?xml version="1.0" encoding="UTF-8"?>
<svg xmlns="http://www.w3.org/2000/svg" width="48" height="48" viewBox="0 0 48 48" fill="none">
  <g clip-path="url(#clip0_4396_186)">
    <path d="M20.783 -0.0191764C20.8857 -0.0199779 20.8857 -0.0199779 20.9905 -0.0207957C21.1354 -0.0216779 21.2802 -0.0222927 21.425 -0.0226554C21.6412 -0.0235548 21.8574 -0.0264623 22.0736 -0.0294303C23.3032 -0.0382697 24.4893 0.117329 25.6588 0.515492C25.7271 0.538732 25.7955 0.561973 25.8659 0.585919C27.333 1.11187 28.637 1.89151 29.8131 2.90612C29.8799 2.96002 29.9467 3.01391 30.0156 3.06945C30.4355 3.4109 30.7832 3.80052 31.1256 4.21862C31.1982 4.30647 31.2708 4.39433 31.3456 4.48485C31.787 5.0311 32.1741 5.59344 32.5201 6.20494C32.5535 6.26386 32.587 6.32277 32.6215 6.38347C32.8849 6.86381 33.0867 7.36351 33.2818 7.87487C33.4006 7.87192 33.4006 7.87192 33.5218 7.86892C36.5353 7.80413 36.5353 7.80413 37.8756 8.24987C37.9363 8.26946 37.997 8.28905 38.0596 8.30924C40.471 9.11164 42.3976 10.9309 43.5712 13.1553C43.9671 13.9777 44.3011 14.8213 44.3967 15.7341C44.4465 16.5656 44.4465 16.5656 44.8186 17.2715C45.052 17.4068 45.052 17.4068 45.3049 17.5099C46.3472 17.9741 47.1654 19.1313 47.6157 20.144C47.8991 20.9461 48.0507 21.6767 48.0416 22.5292C48.0405 22.6703 48.0405 22.6703 48.0394 22.8142C48.0034 24.4467 47.3663 25.9233 46.2193 27.0936C45.0723 28.0658 43.8819 28.5449 42.3748 28.5377C42.2288 28.5387 42.2288 28.5387 42.0797 28.5397C41.7615 28.5414 41.4432 28.5411 41.1249 28.5405C40.9024 28.5409 40.6799 28.5414 40.4574 28.542C39.9928 28.5428 39.5283 28.5426 39.0638 28.5417C38.4681 28.5406 37.8724 28.5425 37.2767 28.5452C36.818 28.547 36.3593 28.5469 35.9007 28.5464C35.6809 28.5464 35.4612 28.547 35.2414 28.5481C34.9351 28.5495 34.6289 28.5485 34.3226 28.5469C34.2318 28.5478 34.1409 28.5487 34.0474 28.5496C33.4342 28.5429 33.4342 28.5429 33.132 28.3211C32.9901 28.1093 32.9497 28.0026 32.9537 27.7499C32.9527 27.688 32.9517 27.6261 32.9508 27.5624C33.0269 27.2758 33.1379 27.1788 33.3756 26.9999C33.6583 26.9435 33.9375 26.9489 34.225 26.9517C34.3538 26.9507 34.3538 26.9507 34.4852 26.9496C34.7695 26.9478 35.0538 26.9486 35.3381 26.9493C35.5364 26.9484 35.7347 26.9473 35.9331 26.946C36.4562 26.9429 36.9792 26.942 37.5023 26.9416C38.3365 26.9408 39.1707 26.9374 40.0049 26.9329C40.2949 26.9318 40.5849 26.9318 40.8749 26.932C42.4186 26.9289 43.912 26.9242 45.1236 25.8221C46.1221 24.7361 46.3729 23.5066 46.342 22.0908C46.3157 21.5483 46.1929 21.105 45.9381 20.6249C45.8925 20.5375 45.8469 20.4501 45.8 20.3601C45.2395 19.3888 44.471 18.8626 43.4599 18.4144C43.1846 18.2619 43.0779 18.1886 42.9381 17.9061C42.8883 17.6027 42.8734 17.2987 42.856 16.9921C42.7169 15.1958 42.0994 13.5361 40.8756 12.1874C40.7717 12.0704 40.7717 12.0704 40.6657 11.9512C39.2434 10.4357 37.2651 9.59515 35.2004 9.46752C34.4974 9.4699 33.8018 9.58635 33.1093 9.6997C32.8111 9.74385 32.5839 9.76876 32.2974 9.66491C31.9477 9.372 31.8549 9.01812 31.7056 8.59557C31.2455 7.37578 30.673 6.3348 29.8131 5.34362C29.7181 5.22833 29.7181 5.22833 29.6212 5.11071C27.9905 3.19436 25.4544 1.95644 22.9693 1.68737C19.601 1.51686 16.8413 2.38665 14.2985 4.6101C12.6584 6.15699 11.6655 8.25092 11.2476 10.4449C11.1202 10.7851 10.9813 10.9405 10.6881 11.1561C10.4117 11.2057 10.1468 11.1864 9.86774 11.1678C7.71265 11.099 5.75638 11.7896 4.12556 13.2186C4.06102 13.2742 3.99649 13.3298 3.93 13.3871C2.6461 14.5745 1.81416 16.3996 1.65977 18.1293C1.64718 18.452 1.64423 18.7727 1.64704 19.0956C1.64768 19.2098 1.64832 19.3241 1.64898 19.4418C1.67286 20.7946 1.92273 22.0317 2.53181 23.2499C2.60087 23.388 2.60087 23.388 2.67133 23.5289C3.5454 25.1435 4.84123 26.1144 6.57697 26.6919C7.50559 26.9515 8.49679 26.9195 9.45236 26.9219C9.66403 26.9226 9.87568 26.9241 10.0873 26.9258C10.6883 26.9307 11.2892 26.9352 11.8902 26.9367C12.2597 26.9376 12.6293 26.9404 12.9988 26.9443C13.139 26.9454 13.2792 26.9459 13.4194 26.9457C13.6149 26.9455 13.8101 26.9476 14.0055 26.9502C14.172 26.951 14.172 26.951 14.3418 26.9518C14.6818 27.0094 14.7921 27.1057 15.0006 27.3749C15.0504 27.5624 15.0504 27.5624 15.0474 27.7499C15.0484 27.8117 15.0494 27.8736 15.0504 27.9374C14.9757 28.2183 14.8543 28.3214 14.6256 28.4999C14.3741 28.5369 14.161 28.5512 13.9097 28.5484C13.8021 28.5494 13.8021 28.5494 13.6924 28.5504C13.4551 28.552 13.2179 28.5509 12.9805 28.5497C12.8144 28.5499 12.6483 28.5503 12.4822 28.5508C12.1332 28.5513 11.7842 28.5505 11.4353 28.5488C10.9921 28.5466 10.549 28.5478 10.1059 28.5501C9.76209 28.5515 9.41832 28.551 9.07453 28.55C8.91144 28.5498 8.74835 28.5501 8.58527 28.551C6.1262 28.5614 4.19115 27.7928 2.43806 26.0624C0.563608 24.1915 -0.0223654 21.54 -0.0292969 18.9847C-0.0285775 17.9521 0.0326332 17.0141 0.375555 16.0311C0.395646 15.9715 0.415738 15.9119 0.436438 15.8504C1.25462 13.4608 2.98303 11.5266 5.24067 10.4076C6.49236 9.81851 7.84415 9.44695 9.23493 9.46276C9.3814 9.46403 9.3814 9.46403 9.53083 9.46532C9.60334 9.46641 9.67585 9.4675 9.75056 9.46862C9.76324 9.39804 9.77593 9.32746 9.78901 9.25475C10.3843 6.31765 12.3602 3.63425 14.8347 1.97924C16.5823 0.852142 18.6771 -0.00609967 20.783 -0.0191764Z" fill="#F5F5F5"></path>
    <path d="M32.6231 18.4989C33.2019 18.9515 33.5565 19.5458 33.7496 20.2501C33.8432 21.2907 33.7823 22.1939 33.1167 23.045C32.637 23.5575 32.1921 23.7909 31.4996 23.9063C31.4996 28.8873 31.4996 33.8682 31.4996 39.0001C32.9846 38.9692 34.4696 38.9382 35.9996 38.9063C36.1233 38.566 36.2471 38.2257 36.3746 37.8751C36.9977 36.9465 37.7822 36.2259 38.9058 36.0001C40.0699 35.8746 41.0985 35.9743 42.0699 36.6739C42.8279 37.3126 43.4117 38.0912 43.5205 39.1005C43.6044 40.3109 43.4576 41.3204 42.6532 42.2751C41.8909 43.0737 41.0801 43.5003 39.9713 43.5442C38.798 43.5588 37.8958 43.2946 37.0308 42.4688C36.6267 42.0455 36.3603 41.636 36.1684 41.0816C36.1363 40.9899 36.1042 40.8982 36.0711 40.8038C36.0357 40.6999 36.0357 40.6999 35.9996 40.5938C35.8951 40.5933 35.8951 40.5933 35.7885 40.5928C35.1319 40.5893 34.4753 40.5839 33.8188 40.5766C33.4812 40.5729 33.1437 40.5699 32.8061 40.5684C32.4803 40.567 32.1545 40.5638 31.8287 40.5593C31.644 40.5572 31.4593 40.557 31.2747 40.5569C31.1621 40.555 31.0495 40.5532 30.9335 40.5513C30.8344 40.5504 30.7353 40.5496 30.6332 40.5487C30.2992 40.4859 30.2062 40.393 29.9996 40.1251C29.9534 39.8257 29.9534 39.8257 29.9545 39.4643C29.9541 39.3977 29.9538 39.3312 29.9535 39.2626C29.9529 39.0396 29.9549 38.8167 29.957 38.5937C29.9571 38.4338 29.957 38.274 29.9568 38.1142C29.9567 37.6801 29.9589 37.2461 29.9615 36.812C29.9639 36.3585 29.9641 35.9049 29.9645 35.4513C29.9657 34.5924 29.9688 33.7335 29.9725 32.8745C29.9767 31.8967 29.9788 30.9188 29.9807 29.941C29.9846 27.9294 29.9912 25.9179 29.9996 23.9063C29.9113 23.8931 29.823 23.8798 29.732 23.8661C29.1277 23.7565 28.6528 23.3608 28.2769 22.8868C27.7078 22.0426 27.6618 21.2395 27.7496 20.2501C27.919 19.5118 28.2983 18.9282 28.9185 18.4945C30.0542 17.7896 31.4887 17.7441 32.6231 18.4989ZM29.4956 20.2149C29.289 20.6441 29.2686 21.0006 29.3433 21.4688C29.5617 21.9225 29.8272 22.1879 30.2808 22.4063C30.749 22.4811 31.1056 22.4606 31.5347 22.254C31.8707 21.95 32.1179 21.7065 32.1917 21.244C32.2157 20.7111 32.1498 20.3767 31.7808 19.9688C31.3729 19.5998 31.0385 19.5339 30.5057 19.558C30.0431 19.6318 29.7997 19.8789 29.4956 20.2149ZM37.9163 38.5222C37.5296 39.0835 37.5262 39.6516 37.5933 40.3126C37.7596 40.9355 38.1977 41.3601 38.7183 41.7188C39.2807 41.9945 39.9261 42.0094 40.5289 41.8485C41.1034 41.5949 41.5533 41.118 41.8282 40.5572C42.0069 39.9941 42.0056 39.3279 41.7652 38.7833C41.4385 38.2264 40.9276 37.7892 40.3121 37.5938C39.2401 37.4667 38.6079 37.7132 37.9163 38.5222Z" fill="#F5F5F5"></path>
    <path d="M19.1207 18.4922C19.6596 18.9037 20.1394 19.5715 20.2505 20.25C20.3211 21.2985 20.2911 22.1838 19.6176 23.0449C19.1454 23.5494 18.6796 23.8018 18.0005 23.9062C18.0008 23.9895 18.0011 24.0727 18.0015 24.1585C18.0098 26.1826 18.016 28.2067 18.0199 30.2308C18.0218 31.2096 18.0245 32.1885 18.0287 33.1673C18.0325 34.0203 18.0349 34.8733 18.0357 35.7263C18.0362 36.1781 18.0374 36.6299 18.0401 37.0817C18.0426 37.5067 18.0434 37.9318 18.0429 38.3569C18.043 38.513 18.0437 38.6692 18.0452 38.8253C18.047 39.0383 18.0466 39.2512 18.0456 39.4642C18.0459 39.5834 18.0462 39.7027 18.0466 39.8255C17.9922 40.1785 17.9089 40.2893 17.6255 40.5C17.3668 40.5486 17.3668 40.5486 17.0665 40.5512C16.9539 40.553 16.8414 40.5548 16.7254 40.5568C16.6042 40.5569 16.4831 40.557 16.3584 40.5571C16.2328 40.5585 16.1072 40.5601 15.9816 40.5618C15.6518 40.5659 15.322 40.5678 14.9922 40.5692C14.6553 40.571 14.3185 40.575 13.9817 40.5787C13.3213 40.5858 12.6609 40.5905 12.0005 40.5937C11.9769 40.663 11.9532 40.7323 11.9289 40.8037C11.8968 40.8953 11.8647 40.987 11.8316 41.0815C11.8003 41.1721 11.769 41.2626 11.7367 41.3559C11.3591 42.2695 10.5561 42.9622 9.66257 43.3535C8.711 43.6626 7.51851 43.6514 6.59921 43.2488C5.65067 42.724 4.90144 41.9454 4.56235 40.9017C4.33667 39.7787 4.40258 38.6333 5.01681 37.6483C5.61123 36.823 6.39742 36.2028 7.40671 36C8.57082 35.8745 9.59942 35.9742 10.5708 36.6738C11.3391 37.3211 11.6467 37.9334 12.0005 38.9062C13.4855 38.9372 14.9705 38.9681 16.5005 39C16.5005 34.019 16.5005 29.0381 16.5005 23.9062C16.3148 23.8753 16.1292 23.8443 15.938 23.8125C15.6508 23.6426 15.6508 23.6426 15.3755 23.4375C15.2565 23.3563 15.2565 23.3563 15.1352 23.2734C14.5936 22.7735 14.2849 22.1334 14.219 21.3999C14.1966 20.4047 14.3093 19.5662 15.0151 18.8064C16.1766 17.7975 17.8203 17.6582 19.1207 18.4922ZM15.9965 20.2148C15.7899 20.644 15.7695 21.0005 15.8442 21.4687C16.0626 21.9223 16.3281 22.1878 16.7817 22.4062C17.2499 22.481 17.6065 22.4605 18.0356 22.2539C18.3716 21.9499 18.6188 21.7064 18.6926 21.2439C18.7166 20.711 18.6507 20.3766 18.2817 19.9687C17.8738 19.5997 17.5394 19.5338 17.0066 19.5578C16.544 19.6317 16.3006 19.8788 15.9965 20.2148ZM6.4172 38.5221C6.03048 39.0833 6.02707 39.6515 6.09421 40.3125C6.26046 40.9354 6.69858 41.36 7.21921 41.7187C7.7816 41.9944 8.42697 42.0092 9.02975 41.8484C9.60433 41.5947 10.0542 41.1179 10.3291 40.5571C10.5078 39.994 10.5065 39.3278 10.2661 38.7832C9.9394 38.2263 9.42847 37.7891 8.81296 37.5937C7.74098 37.4666 7.10875 37.7131 6.4172 38.5221Z" fill="#F5F5F5"></path>
    <path d="M25.8733 25.249C26.4521 25.7017 26.8067 26.2959 26.9998 27.0002C27.0934 28.0408 27.0325 28.9441 26.367 29.7951C25.8872 30.3076 25.4423 30.5411 24.7498 30.6565C24.7807 33.9049 24.8116 37.1534 24.8435 40.5002C25.1838 40.624 25.5241 40.7477 25.8748 40.8752C26.8034 41.4984 27.524 42.2829 27.7498 43.4065C27.8752 44.5706 27.7756 45.5992 27.0759 46.5705C26.4373 47.3285 25.6587 47.9124 24.6494 48.0211C23.4389 48.1051 22.4294 47.9583 21.4747 47.1539C20.6762 46.3916 20.2495 45.5807 20.2056 44.4719C20.1911 43.2987 20.4552 42.3965 21.281 41.5315C21.8618 40.9771 22.3701 40.786 23.156 40.5002C23.187 37.2518 23.2179 34.0034 23.2498 30.6565C23.0641 30.6255 22.8785 30.5946 22.6873 30.5627C21.9321 30.199 21.4928 29.6455 21.1052 28.9221C20.8346 28.102 20.8848 27.0329 21.2576 26.2601C21.6744 25.558 22.2662 25.0585 23.0462 24.7836C24.0441 24.6202 25.0189 24.6805 25.8733 25.249ZM22.7459 26.9651C22.5392 27.3942 22.5188 27.7507 22.5935 28.219C22.8119 28.6726 23.0774 28.9381 23.531 29.1565C23.9993 29.2312 24.3558 29.2108 24.7849 29.0041C25.1209 28.7001 25.3681 28.4567 25.4419 27.9941C25.4659 27.4613 25.4 27.1268 25.031 26.719C24.6232 26.35 24.2887 26.2841 23.7559 26.3081C23.2933 26.3819 23.0499 26.6291 22.7459 26.9651ZM22.1665 43.0223C21.7798 43.5836 21.7764 44.1517 21.8435 44.8127C22.0098 45.4357 22.4479 45.8603 22.9685 46.219C23.5309 46.4947 24.1763 46.5095 24.7791 46.3486C25.3536 46.095 25.8035 45.6182 26.0784 45.0574C26.2571 44.4943 26.2558 43.8281 26.0154 43.2834C25.6887 42.7266 25.1778 42.2893 24.5623 42.094C23.4903 41.9668 22.8581 42.2134 22.1665 43.0223Z" fill="#F5F5F5"></path>
  </g>
  <defs>
    <clipPath id="clip0_4396_186">
      <rect width="48" height="48" fill="white"></rect>
    </clipPath>
  </defs>
</svg>
