<?xml version="1.0" encoding="UTF-8"?>
<svg xmlns="http://www.w3.org/2000/svg" width="48" height="48" viewBox="0 0 48 48" fill="none">
  <g clip-path="url(#clip0_3684_557)">
    <path d="M38.0403 5.88391C38.9168 6.5308 39.4888 7.38032 39.7498 8.4375C39.8085 8.98788 39.7855 9.54334 39.7732 10.0957C39.7714 10.2446 39.7696 10.3934 39.7681 10.5423C39.764 10.9033 39.7576 11.2641 39.7498 11.625C39.8476 11.6242 39.9455 11.6233 40.0462 11.6225C40.9677 11.6149 41.8892 11.6093 42.8107 11.6056C43.2845 11.6036 43.7582 11.601 44.232 11.5967C44.6891 11.5926 45.1462 11.5904 45.6033 11.5894C45.7778 11.5887 45.9523 11.5874 46.1267 11.5854C46.371 11.5826 46.6151 11.5823 46.8593 11.5824C46.9316 11.5811 47.0039 11.5797 47.0784 11.5783C47.3717 11.5806 47.5805 11.5969 47.8308 11.7557C48.0938 12.1359 48.0515 12.5017 48.0474 12.9537C48.048 13.0518 48.0486 13.1498 48.0492 13.2509C48.0507 13.5805 48.0495 13.9101 48.0483 14.2397C48.0488 14.4756 48.0495 14.7115 48.0503 14.9474C48.0519 15.5223 48.0516 16.0971 48.0505 16.672C48.0497 17.1391 48.0496 17.6062 48.05 18.0733C48.05 18.1398 48.0501 18.2062 48.0502 18.2747C48.0503 18.4097 48.0504 18.5447 48.0505 18.6797C48.0516 19.9458 48.0504 21.212 48.0484 22.4782C48.0467 23.5649 48.047 24.6516 48.0487 25.7384C48.0507 27 48.0515 28.2616 48.0503 29.5232C48.0502 29.6577 48.0501 29.7922 48.05 29.9267C48.0499 29.9928 48.0499 30.059 48.0498 30.1272C48.0495 30.5938 48.05 31.0605 48.0509 31.5271C48.0521 32.155 48.0513 32.7829 48.0491 33.4108C48.0486 33.6417 48.0487 33.8725 48.0496 34.1033C48.0506 34.4177 48.0493 34.7319 48.0474 35.0463C48.0483 35.1383 48.0491 35.2304 48.05 35.3252C48.0428 35.9369 48.0428 35.9369 47.8333 36.2441C47.6107 36.3839 47.5005 36.4221 47.2406 36.4226C47.127 36.4242 47.127 36.4242 47.0112 36.4258C46.8878 36.4247 46.8878 36.4247 46.762 36.4235C46.6748 36.4242 46.5875 36.4248 46.4977 36.4255C46.2093 36.4272 45.921 36.4261 45.6326 36.4248C45.4323 36.4251 45.2319 36.4254 45.0316 36.4259C44.6117 36.4264 44.1918 36.4256 43.7719 36.4239C43.2334 36.4218 42.695 36.423 42.1565 36.4252C41.7428 36.4266 41.3291 36.4262 40.9154 36.4252C40.7169 36.4249 40.5183 36.4252 40.3198 36.4261C40.0423 36.4271 39.765 36.4256 39.4876 36.4235C39.4054 36.4243 39.3232 36.425 39.2384 36.4258C38.6847 36.4181 38.6847 36.4181 38.3864 36.2034C38.1908 35.9122 38.2015 35.6887 38.1993 35.3401C38.1982 35.2763 38.1971 35.2124 38.1959 35.1467C38.1926 34.9428 38.1918 34.739 38.1912 34.5352C38.2182 32.7173 38.2182 32.7173 37.3672 31.1719C36.725 30.5949 36.1379 30.5035 35.2978 30.524C34.6474 30.6 34.1515 30.8681 33.7088 31.3477C33.1579 32.0666 33.0848 32.8263 33.0771 33.7072C33.0749 33.84 33.0726 33.9729 33.0703 34.1058C33.067 34.3125 33.0642 34.5192 33.063 34.726C33.0616 34.9275 33.0578 35.1288 33.0536 35.3302C33.0516 35.5095 33.0516 35.5095 33.0495 35.6925C32.9897 36.0628 32.9204 36.1507 32.6248 36.375C32.3268 36.4211 32.3268 36.4211 31.9675 36.4201C31.9014 36.4204 31.8352 36.4207 31.767 36.4211C31.5453 36.4217 31.3237 36.4196 31.102 36.4176C30.9431 36.4175 30.7842 36.4175 30.6252 36.4177C30.1937 36.4178 29.7622 36.4156 29.3307 36.413C28.8797 36.4107 28.4288 36.4105 27.9779 36.41C27.1239 36.4088 26.27 36.4058 25.416 36.402C24.4438 36.3978 23.4716 36.3958 22.4995 36.3939C20.4996 36.3899 18.4997 36.3834 16.4998 36.375C16.5023 36.4652 16.5047 36.5554 16.5072 36.6483C16.5158 36.9888 16.5212 37.3293 16.5256 37.6699C16.5279 37.8162 16.5311 37.9625 16.5352 38.1087C16.5708 39.4144 16.3769 40.4874 15.4898 41.5107C14.5984 42.399 13.6307 42.7834 12.3865 42.8027C11.1505 42.7916 10.1633 42.4166 9.28105 41.5312C8.31891 40.4174 8.19508 39.3137 8.22637 37.9043C8.22825 37.7554 8.22996 37.6066 8.23149 37.4577C8.23558 37.0967 8.24203 36.7359 8.2498 36.375C8.15198 36.3758 8.05415 36.3767 7.95336 36.3775C7.03189 36.3851 6.11042 36.3907 5.18892 36.3944C4.71515 36.3964 4.24141 36.399 3.76766 36.4033C3.31054 36.4074 2.85345 36.4096 2.39632 36.4106C2.22183 36.4113 2.04735 36.4126 1.87287 36.4146C1.62864 36.4174 1.38452 36.4177 1.14028 36.4176C1.06799 36.4189 0.995699 36.4203 0.92122 36.4217C0.627945 36.4194 0.419101 36.4031 0.168776 36.2443C-0.0942174 35.8641 -0.0519229 35.4983 -0.0478146 35.0463C-0.0483996 34.9482 -0.0489857 34.8502 -0.0495884 34.7491C-0.0510881 34.4195 -0.0498966 34.0899 -0.0487187 33.7603C-0.0492266 33.5244 -0.0498942 33.2885 -0.05071 33.0526C-0.052245 32.4777 -0.0520168 31.9029 -0.0509303 31.328C-0.0500838 30.8609 -0.0499668 30.3938 -0.0503752 29.9267C-0.0504327 29.8602 -0.0504905 29.7938 -0.0505497 29.7253C-0.0506696 29.5903 -0.0507927 29.4553 -0.050916 29.3203C-0.0519856 28.0542 -0.050756 26.788 -0.0487416 25.5218C-0.0470661 24.4351 -0.0473559 23.3484 -0.0490849 22.2616C-0.0510911 21 -0.0518819 19.7384 -0.05073 18.4768C-0.0506105 18.3423 -0.0504915 18.2078 -0.0503752 18.0733C-0.0503174 18.0072 -0.0502603 17.941 -0.0502007 17.8728C-0.0498767 17.4062 -0.0504231 16.9395 -0.0513051 16.4729C-0.0524658 15.845 -0.0516425 15.2171 -0.0494711 14.5892C-0.0489741 14.3583 -0.0491212 14.1275 -0.0499461 13.8967C-0.050966 13.5823 -0.0496899 13.2681 -0.0478146 12.9537C-0.0486511 12.8617 -0.0494876 12.7696 -0.0503495 12.6748C-0.0432383 12.0631 -0.043239 12.0631 0.166264 11.7559C0.388907 11.6161 0.499078 11.5779 0.759051 11.5774C0.834752 11.5763 0.910453 11.5753 0.988448 11.5742C1.07067 11.5749 1.15289 11.5757 1.2376 11.5765C1.32483 11.5758 1.41207 11.5752 1.50194 11.5745C1.79032 11.5728 2.07861 11.5739 2.36699 11.5752C2.56734 11.5749 2.76769 11.5746 2.96804 11.5741C3.38794 11.5736 3.80781 11.5744 4.22771 11.5761C4.76619 11.5782 5.3046 11.577 5.84307 11.5748C6.25678 11.5734 6.67048 11.5738 7.08419 11.5748C7.28274 11.5751 7.4813 11.5748 7.67985 11.5739C7.95728 11.5729 8.23459 11.5744 8.51201 11.5765C8.63534 11.5753 8.63534 11.5753 8.76116 11.5742C9.31494 11.5819 9.31494 11.5819 9.61322 11.7966C9.80876 12.0878 9.79806 12.3113 9.80034 12.6599C9.80145 12.7237 9.80255 12.7876 9.80369 12.8533C9.80699 13.0572 9.80785 13.261 9.8084 13.4648C9.78142 15.2827 9.78142 15.2827 10.6324 16.8281C11.2746 17.4051 11.8617 17.4965 12.7018 17.476C13.3522 17.4 13.8481 17.1319 14.2908 16.6523C14.8417 15.9334 14.9148 15.1737 14.9225 14.2928C14.9247 14.16 14.927 14.0271 14.9293 13.8942C14.9326 13.6875 14.9354 13.4808 14.9366 13.274C14.9381 13.0725 14.9418 12.8712 14.946 12.6698C14.9473 12.5503 14.9487 12.4307 14.9501 12.3075C15.01 11.9372 15.0792 11.8493 15.3748 11.625C15.6728 11.5789 15.6728 11.5789 16.0321 11.5799C16.0982 11.5796 16.1644 11.5793 16.2326 11.5789C16.4543 11.5783 16.6759 11.5804 16.8976 11.5824C17.0565 11.5825 17.2154 11.5825 17.3744 11.5823C17.8059 11.5822 18.2374 11.5844 18.6689 11.587C19.1199 11.5893 19.5708 11.5895 20.0217 11.59C20.8757 11.5912 21.7296 11.5942 22.5836 11.598C23.5558 11.6022 24.528 11.6042 25.5001 11.6061C27.5 11.61 29.4999 11.6166 31.4998 11.625C31.4974 11.5348 31.4949 11.4446 31.4924 11.3517C31.4838 11.0112 31.4785 10.6707 31.4741 10.3301C31.4717 10.1838 31.4685 10.0375 31.4644 9.89129C31.4288 8.58562 31.6227 7.51262 32.5098 6.48926C33.9974 5.00692 36.263 4.75176 38.0403 5.88391ZM33.5063 7.87097C33.0242 8.57322 32.9882 9.34052 32.98 10.1675C32.9774 10.3179 32.9747 10.4683 32.972 10.6187C32.9681 10.8534 32.9646 11.0881 32.9622 11.3229C32.9596 11.5511 32.9553 11.7792 32.9507 12.0073C32.9504 12.0776 32.9501 12.148 32.9498 12.2204C32.9385 12.6962 32.9385 12.6962 32.8102 12.9088C32.5179 13.1019 32.209 13.0724 31.87 13.0718C31.7931 13.0727 31.7163 13.0737 31.6371 13.0747C31.3829 13.0775 31.1288 13.0784 30.8747 13.0792C30.6985 13.0808 30.5224 13.0825 30.3462 13.0843C29.8825 13.0888 29.4187 13.0916 28.9549 13.094C28.4817 13.0968 28.0086 13.1012 27.5354 13.1054C26.6069 13.1135 25.6783 13.1198 24.7498 13.125C24.7493 13.223 24.7487 13.3211 24.7481 13.4221C24.7428 14.345 24.736 15.2679 24.7277 16.1907C24.7235 16.6652 24.7198 17.1397 24.7173 17.6142C24.7149 18.072 24.7111 18.5297 24.7064 18.9874C24.7048 19.1622 24.7037 19.337 24.7032 19.5118C24.7023 19.7563 24.6996 20.0007 24.6966 20.2452C24.6967 20.3178 24.6969 20.3904 24.697 20.4652C24.6884 20.9519 24.6884 20.9519 24.5312 21.1855C24.2723 21.3441 24.0237 21.3194 23.724 21.3226C23.6601 21.3239 23.5961 21.3251 23.5302 21.3264C23.3254 21.3302 23.1206 21.3322 22.9158 21.334C21.0799 21.3149 21.0799 21.3149 19.5258 22.1847C18.9161 22.8513 18.7827 23.4323 18.8055 24.3274C18.8952 25.1022 19.2691 25.6388 19.8708 26.1185C20.551 26.5854 21.2765 26.6337 22.0853 26.6448C22.2186 26.6474 22.3519 26.6501 22.4852 26.6528C22.6927 26.6567 22.9003 26.6602 23.1079 26.6626C23.31 26.6652 23.5121 26.6695 23.7142 26.6741C23.8342 26.6759 23.9542 26.6778 24.0779 26.6797C24.3748 26.7188 24.3748 26.7188 24.5315 26.8146C24.7275 27.1063 24.6972 27.415 24.6966 27.7548C24.698 27.8701 24.698 27.8701 24.6995 27.9877C24.7023 28.2419 24.7032 28.496 24.704 28.7501C24.7056 28.9263 24.7073 29.1024 24.7091 29.2786C24.7136 29.7423 24.7164 30.2061 24.7188 30.6699C24.7221 31.2262 24.7275 31.7826 24.7325 32.339C24.7398 33.1843 24.7446 34.0296 24.7498 34.875C26.9773 34.875 29.2048 34.875 31.4998 34.875C31.5307 33.9469 31.5617 33.0187 31.5936 32.0625C32.1561 30.5999 32.6912 29.7526 34.1131 29.1152C35.187 28.7644 36.5003 28.8248 37.5221 29.2932C38.7233 29.9626 39.1881 30.7756 39.6561 32.0625C39.687 32.9906 39.7179 33.9188 39.7498 34.875C41.9773 34.875 44.2048 34.875 46.4998 34.875C46.4998 27.6975 46.4998 20.52 46.4998 13.125C43.9011 13.0941 41.3023 13.0631 38.6248 13.0312C38.2802 12.6866 38.3022 12.4746 38.3022 12.0172C38.3003 11.9088 38.3003 11.9088 38.2984 11.7982C38.2946 11.5666 38.2926 11.3351 38.2908 11.1035C38.3323 9.1706 38.3323 9.1706 37.4401 7.526C36.7735 6.91631 36.1925 6.78286 35.2974 6.80566C34.5226 6.8954 33.986 7.26934 33.5063 7.87097ZM1.4998 13.125C1.4998 20.3025 1.4998 27.48 1.4998 34.875C5.39793 34.9214 5.39793 34.9214 9.3748 34.9688C9.71944 35.3134 9.69736 35.5254 9.69744 35.9828C9.69867 36.0551 9.69991 36.1274 9.70119 36.2018C9.70502 36.4334 9.70705 36.6649 9.70879 36.8965C9.66732 38.8294 9.66732 38.8294 10.5595 40.474C11.2261 41.0837 11.8071 41.2171 12.7022 41.1943C13.477 41.1046 14.0136 40.7307 14.4933 40.129C14.9754 39.4268 15.0114 38.6595 15.0196 37.8325C15.0222 37.6821 15.0249 37.5317 15.0276 37.3813C15.0315 37.1466 15.035 36.9119 15.0374 36.6771C15.04 36.4489 15.0443 36.2208 15.0489 35.9927C15.0492 35.9224 15.0495 35.852 15.0498 35.7796C15.0611 35.3038 15.0611 35.3038 15.1894 35.0912C15.4817 34.8981 15.7906 34.9276 16.1296 34.9282C16.2065 34.9273 16.2833 34.9263 16.3625 34.9253C16.6167 34.9225 16.8708 34.9216 17.1249 34.9208C17.3011 34.9192 17.4772 34.9175 17.6534 34.9157C18.1172 34.9112 18.5809 34.9084 19.0447 34.906C19.601 34.9027 20.1574 34.8974 20.7138 34.8923C21.5591 34.885 22.4044 34.8802 23.2498 34.875C23.2498 32.6475 23.2498 30.42 23.2498 28.125C22.3217 28.0941 21.3936 28.0631 20.4373 28.0312C18.9747 27.4687 18.1274 26.9336 17.49 25.5117C17.1392 24.4378 17.1996 23.1245 17.668 22.1027C18.3374 20.9015 19.1504 20.4367 20.4373 19.9688C21.3654 19.9378 22.2936 19.9069 23.2498 19.875C23.2498 17.6475 23.2498 15.42 23.2498 13.125C21.0223 13.125 18.7948 13.125 16.4998 13.125C16.4689 14.0531 16.4379 14.9812 16.4061 15.9375C15.8435 17.4001 15.3084 18.2474 13.8865 18.8848C12.8126 19.2356 11.4993 19.1752 10.4775 18.7068C9.27633 18.0374 8.81151 17.2244 8.34355 15.9375C8.31262 15.0094 8.28168 14.0813 8.2498 13.125C6.0223 13.125 3.7948 13.125 1.4998 13.125Z" fill="#FF7705"></path>
  </g>
  <defs>
    <clipPath id="clip0_3684_557">
      <rect width="48" height="48" fill="white"></rect>
    </clipPath>
  </defs>
</svg>
