<?xml version="1.0" encoding="UTF-8"?>
<svg xmlns="http://www.w3.org/2000/svg" width="48" height="48" viewBox="0 0 48 48" fill="none">
  <g clip-path="url(#clip0_4393_95)">
    <path d="M24.2816 0.000120319C24.5226 0.120764 24.6987 0.226989 24.9085 0.386839C25.0308 0.47392 25.1532 0.560693 25.2758 0.647215C25.3745 0.717708 25.3745 0.717708 25.4752 0.789625C25.8655 1.06132 26.2697 1.3114 26.6722 1.56457C27.3887 2.01815 28.1014 2.47711 28.8109 2.94153C29.5698 3.43817 30.3316 3.92998 31.096 4.41809C32.0373 5.01915 32.9749 5.62565 33.9106 6.23537C34.4488 6.58566 34.9884 6.9339 35.5277 7.28255C35.7152 7.40388 35.9027 7.5254 36.0901 7.64697C36.8805 8.15958 37.6733 8.66855 38.4671 9.1759C39.4919 9.83109 40.5141 10.4899 41.5316 11.1564C41.6365 11.225 41.6365 11.225 41.7436 11.295C41.9408 11.4241 42.1376 11.5538 42.3343 11.6837C42.4206 11.7402 42.4206 11.7402 42.5087 11.7979C43.0669 12.1687 43.0669 12.1687 43.2191 12.3751C43.2504 12.6686 43.2504 12.6686 43.2451 13.0382C43.2445 13.1062 43.244 13.1741 43.2434 13.2442C43.2412 13.4726 43.237 13.7009 43.2328 13.9293C43.2309 14.0929 43.2291 14.2565 43.2275 14.42C43.2238 14.7728 43.2195 15.1256 43.2146 15.4785C43.2072 16.0378 43.2035 16.597 43.2007 17.1564C43.2002 17.2508 43.1997 17.3453 43.1992 17.4427C43.1982 17.6359 43.1972 17.8292 43.1962 18.0224C43.1895 19.3245 43.1806 20.6265 43.1609 21.9285C43.1477 22.8066 43.1406 23.6846 43.1403 24.5629C43.1399 25.0271 43.1365 25.4909 43.1256 25.9551C42.9874 28.1747 42.9874 28.1747 43.9151 30.0864C44.2026 30.3468 44.5034 30.5749 44.8219 30.7959C45.1397 31.0483 45.2581 31.3492 45.3189 31.7404C45.3134 32.3113 45.252 32.7363 44.8407 33.1675C44.6907 33.3749 44.6907 33.3749 44.7546 33.6479C44.8742 33.9664 44.9856 34.2254 45.1878 34.5001C45.4771 34.6298 45.7364 34.6795 46.0488 34.7294C46.4151 34.8015 46.566 34.9511 46.7816 35.2501C47.0438 35.6895 47.1056 36.0563 47.1035 36.559C47.104 36.6292 47.1045 36.6995 47.105 36.7719C47.1056 36.9198 47.1054 37.0678 47.1046 37.2158C47.1039 37.4403 47.1065 37.6645 47.1095 37.889C47.1157 39.2337 47.1157 39.2337 46.6878 39.8439C46.3425 40.1563 46.0987 40.2233 45.6507 40.2599C45.4041 40.2848 45.4041 40.2848 45.1878 40.4064C44.9623 40.7937 44.8346 41.1935 44.7191 41.6251C44.7945 41.7121 44.8699 41.7991 44.9476 41.8888C45.2278 42.2121 45.2984 42.4899 45.3109 42.9142C45.3144 42.991 45.3179 43.0679 45.3215 43.1471C45.1955 43.9654 44.4983 44.5162 43.9398 45.0704C43.8522 45.1599 43.7646 45.2493 43.677 45.3389C43.1751 45.8405 42.7862 46.2222 42.0732 46.35C41.5644 46.3435 41.1836 46.2379 40.8127 45.8809C40.7715 45.8377 40.7303 45.7946 40.6878 45.7501C40.6334 45.7693 40.5791 45.7885 40.523 45.8083C40.1101 45.9508 39.7169 46.0693 39.2816 46.1251C39.2893 46.2334 39.2971 46.3417 39.305 46.4532C39.3027 46.8987 39.1956 47.2803 38.9066 47.6251C38.3924 47.9781 38.023 48.0562 37.4062 48.0499C37.3273 48.0503 37.2484 48.0506 37.1672 48.051C37.0013 48.0513 36.8354 48.0506 36.6696 48.049C36.4167 48.047 36.1641 48.049 35.9112 48.0514C35.7494 48.0511 35.5876 48.0507 35.4257 48.0499C35.3507 48.0507 35.2757 48.0514 35.1984 48.0522C34.704 48.044 34.4259 47.9483 34.0316 47.6251C33.569 47.125 33.55 46.794 33.5628 46.1251C33.4816 46.1155 33.4004 46.1058 33.3167 46.0958C33.0003 46.0314 33.0003 46.0314 32.7074 45.8732C32.6184 45.8326 32.5295 45.792 32.4378 45.7501C32.2491 45.821 32.2491 45.821 32.0628 45.9376C31.5525 46.2314 31.1576 46.4103 30.5628 46.3126C29.8489 46.0314 29.3844 45.5656 28.8519 45.0236C28.769 44.9421 28.6861 44.8607 28.6007 44.7767C27.5628 43.7326 27.5628 43.7326 27.5628 43.0314C27.5074 43.0315 27.452 43.0317 27.3949 43.0319C24.1132 43.0424 20.8315 43.0504 17.5497 43.0553C17.1559 43.0559 16.762 43.0565 16.3682 43.0571C16.2898 43.0572 16.2114 43.0574 16.1306 43.0575C14.8602 43.0595 13.5898 43.0632 12.3194 43.0675C11.0163 43.0719 9.71328 43.0745 8.41023 43.0755C7.60582 43.0761 6.80144 43.0782 5.99704 43.082C5.44584 43.0844 4.89465 43.0852 4.34344 43.0846C4.02515 43.0843 3.70691 43.0847 3.38864 43.0872C3.04388 43.0896 2.69924 43.089 2.35448 43.0877C2.25343 43.0891 2.15239 43.0905 2.04828 43.0919C1.37553 43.0851 1.37553 43.0851 1.05986 42.8147C0.893295 42.4706 0.930464 42.2704 1.03158 41.9064C1.14522 41.7477 1.14522 41.7477 1.31283 41.6251C1.5513 41.5932 1.5513 41.5932 1.83248 41.5977C1.93309 41.5986 2.0337 41.5995 2.13736 41.6004C2.24231 41.6028 2.34727 41.6051 2.45541 41.6075C2.56145 41.6088 2.6675 41.6101 2.77676 41.6114C3.03883 41.6147 3.30081 41.6193 3.56283 41.6251C3.56257 41.568 3.56231 41.5108 3.56205 41.4519C3.55584 40.0616 3.55118 38.6712 3.54826 37.2808C3.54681 36.6084 3.54483 35.936 3.54161 35.2636C3.53881 34.6776 3.537 34.0916 3.53637 33.5056C3.536 33.1952 3.53499 32.8849 3.5331 32.5746C3.53106 32.2282 3.53077 31.8819 3.5309 31.5355C3.52989 31.4326 3.52888 31.3296 3.52784 31.2235C3.52822 31.1291 3.52861 31.0347 3.52901 30.9375C3.52875 30.8556 3.52849 30.7736 3.52822 30.6892C3.57094 30.4172 3.65313 30.2905 3.84408 30.0939C4.16554 30.012 4.39651 29.9693 4.71713 30.0646C4.91162 30.2158 4.96985 30.3348 5.06283 30.5626C5.0859 30.7815 5.0859 30.7815 5.08538 31.0277C5.08564 31.1213 5.08589 31.2149 5.08616 31.3113C5.08549 31.4134 5.08481 31.5155 5.08412 31.6207C5.08414 31.7286 5.08417 31.8366 5.0842 31.9478C5.08407 32.3049 5.08261 32.662 5.08114 33.0192C5.08079 33.2667 5.08053 33.5141 5.08034 33.7616C5.07976 34.3466 5.07822 34.9317 5.07634 35.5167C5.07424 36.1828 5.07321 36.8489 5.07227 37.515C5.07031 38.885 5.06687 40.2551 5.06283 41.6251C6.11471 41.6251 7.16658 41.6251 8.25033 41.6251C8.24897 38.7293 8.24542 35.8335 8.23844 32.9377C8.23762 32.596 8.23681 32.2542 8.23603 31.9125C8.23587 31.8445 8.23571 31.7765 8.23555 31.7064C8.23305 30.6042 8.2322 29.502 8.23195 28.3998C8.23167 27.2692 8.22961 26.1386 8.22591 25.0081C8.22388 24.3729 8.22267 23.7377 8.2235 23.1025C8.22421 22.5051 8.22274 21.9077 8.21957 21.3102C8.2188 21.0906 8.21883 20.8709 8.21971 20.6513C8.2208 20.3521 8.21902 20.053 8.21651 19.7538C8.21751 19.6663 8.21851 19.5787 8.21954 19.4885C8.2192 18.9976 8.2192 18.9976 7.92894 18.6169C7.80959 18.5436 7.80959 18.5436 7.68783 18.4689C7.33653 17.8859 7.36441 17.3075 7.37142 16.6407C7.37034 16.5374 7.36925 16.4341 7.36813 16.3276C7.37045 15.6836 7.39157 15.1567 7.82846 14.6493C8.24378 14.3356 8.51432 14.2385 9.02822 14.2375C9.13184 14.2371 9.23546 14.2367 9.34222 14.2363C9.45652 14.2363 9.57083 14.2363 9.68859 14.2363C9.8702 14.2358 9.8702 14.2358 10.0555 14.2353C10.3922 14.2343 10.729 14.234 11.0657 14.2337C11.4287 14.2334 11.7916 14.2325 12.1545 14.2317C13.0314 14.2298 13.9082 14.2289 14.7851 14.228C15.1979 14.2276 15.6108 14.2271 16.0236 14.2266C17.3958 14.225 18.7681 14.2237 20.1404 14.223C20.4965 14.2228 20.8527 14.2226 21.2088 14.2224C21.3416 14.2224 21.3416 14.2224 21.4771 14.2223C22.9112 14.2215 24.3453 14.2192 25.7795 14.2161C27.2516 14.213 28.7237 14.2113 30.1959 14.211C31.0225 14.2108 31.8492 14.21 32.6758 14.2076C33.3798 14.2056 34.0838 14.2048 34.7878 14.2057C35.1469 14.2062 35.5061 14.206 35.8652 14.2042C36.2548 14.2022 36.6442 14.2032 37.0338 14.2044C37.2037 14.2029 37.2037 14.2029 37.377 14.2013C38.0246 14.2062 38.4515 14.2724 39.0003 14.6251C39.501 15.2065 39.4281 15.8628 39.4163 16.5997C39.417 16.7173 39.4177 16.8348 39.4184 16.9559C39.4114 17.9631 39.4114 17.9631 39.0941 18.4689C39.0146 18.52 38.9351 18.5711 38.8531 18.6237C38.5848 18.8831 38.5685 19.0408 38.5608 19.4068C38.562 19.5189 38.562 19.5189 38.5632 19.6334C38.5622 19.7128 38.5612 19.7923 38.5602 19.8742C38.5577 20.1369 38.5586 20.3994 38.5598 20.6621C38.5592 20.845 38.5585 21.0278 38.5577 21.2107C38.5566 21.5941 38.5573 21.9775 38.5591 22.3609C38.5612 22.8515 38.5587 23.3419 38.5548 23.8324C38.5524 24.2102 38.5527 24.5879 38.5537 24.9657C38.5538 25.1465 38.5531 25.3273 38.5515 25.5081C38.5497 25.7615 38.5514 26.0146 38.554 26.268C38.5527 26.3422 38.5515 26.4164 38.5501 26.4928C38.5607 27.0013 38.6979 27.2499 39.0581 27.6081C39.3636 27.9426 39.2885 28.3591 39.2816 28.7814C39.3628 28.791 39.444 28.8007 39.5277 28.8107C39.8441 28.8751 39.8441 28.8751 40.1371 29.0275C40.3859 29.1718 40.3859 29.1718 40.5999 29.1505C40.8004 29.0618 40.8004 29.0618 41.016 28.8751C41.242 28.6943 41.3521 28.6494 41.6253 28.5939C41.6802 26.6031 41.7215 24.6124 41.7468 22.621C41.7588 21.6961 41.7752 20.7718 41.8021 19.8472C41.8256 19.0408 41.8406 18.2347 41.8459 17.4279C41.8489 17.001 41.856 16.575 41.8731 16.1485C42.0035 14.4042 42.0035 14.4042 41.3992 12.8394C40.8501 12.357 40.2412 12.0445 39.5732 11.758C39.1317 11.5568 38.7426 11.2901 38.3441 11.0157C38.1926 10.9165 38.0409 10.8176 37.8889 10.7191C37.8115 10.6688 37.7341 10.6185 37.6544 10.5667C37.1883 10.2651 36.7202 9.96682 36.2523 9.66809C35.4048 9.12688 34.561 8.58028 33.7195 8.02975C32.9562 7.531 32.1884 7.03936 31.4199 6.54864C30.5779 6.01062 29.7398 5.46666 28.9026 4.92113C28.5599 4.69812 28.2167 4.47603 27.8734 4.25403C27.7763 4.19125 27.7763 4.19125 27.6773 4.1272C27.5478 4.04347 27.4183 3.95973 27.2888 3.87601C26.9582 3.66225 26.6277 3.44837 26.2972 3.2345C26.1665 3.1499 26.0357 3.06531 25.905 2.98071C25.2389 2.54968 24.5727 2.11865 23.9066 1.68762C23.1688 2.07965 22.4539 2.50056 21.7445 2.94153C21.6381 3.00735 21.5317 3.07315 21.4253 3.13891C21.2052 3.275 20.9852 3.41121 20.7652 3.54751C20.2505 3.86623 19.7347 4.18306 19.2191 4.50012C19.016 4.62511 18.8128 4.75011 18.6097 4.87512C10.0785 10.1251 10.0785 10.1251 9.77331 10.3129C9.5717 10.437 9.3701 10.5611 9.16851 10.6851C8.69424 10.9771 8.2199 11.2689 7.74525 11.5602C7.52199 11.6972 7.29878 11.8343 7.07557 11.9715C6.91874 12.0678 6.76185 12.1639 6.60495 12.2601C6.03336 12.6103 6.03336 12.6103 5.47445 12.9801C5.25033 13.1251 5.25033 13.1251 5.06283 13.1251C5.063 13.2001 5.06318 13.2752 5.06335 13.3525C5.06749 15.1771 5.0706 17.0017 5.07255 18.8263C5.07351 19.7086 5.07483 20.591 5.07698 21.4734C5.07884 22.2423 5.08005 23.0113 5.08047 23.7802C5.08072 24.1875 5.08129 24.5947 5.08266 25.002C5.08393 25.3852 5.08432 25.7684 5.08404 26.1516C5.08409 26.2923 5.08447 26.4331 5.08518 26.5738C5.08611 26.7658 5.08578 26.9578 5.08538 27.1498C5.08555 27.2573 5.08572 27.3648 5.0859 27.4756C5.06316 27.7463 5.02181 27.8992 4.87533 28.1251C4.62443 28.3203 4.48931 28.3122 4.16635 28.3009C3.84408 28.2189 3.84408 28.2189 3.68559 28.0653C3.522 27.7702 3.52717 27.5553 3.52649 27.2182C3.52598 27.1555 3.52548 27.0927 3.52496 27.028C3.52361 26.8178 3.52428 26.6076 3.52495 26.3974C3.52442 26.2466 3.52376 26.0958 3.523 25.945C3.52132 25.5356 3.52143 25.1261 3.52196 24.7166C3.52225 24.3748 3.52168 24.0331 3.52112 23.6913C3.5198 22.885 3.51995 22.0787 3.52101 21.2724C3.52209 20.4405 3.52077 19.6086 3.51826 18.7766C3.51618 18.0625 3.51556 17.3483 3.51611 16.6341C3.51643 16.2075 3.5162 15.7809 3.51459 15.3544C3.51314 14.9532 3.5135 14.5521 3.51527 14.151C3.51562 14.0038 3.51532 13.8565 3.51434 13.7093C3.51311 13.5083 3.51419 13.3074 3.51584 13.1064C3.51586 12.9939 3.51588 12.8815 3.5159 12.7656C3.57226 12.4093 3.68941 12.2567 3.93783 12.0001C4.14147 11.8529 4.14147 11.8529 4.363 11.7273C4.44566 11.6796 4.52831 11.632 4.61347 11.5828C4.70182 11.533 4.79016 11.4831 4.88119 11.4318C5.06906 11.3233 5.25681 11.2147 5.44442 11.1058C5.53835 11.0514 5.63228 10.997 5.72906 10.9409C6.12008 10.7109 6.50299 10.4692 6.8851 10.2247C7.52869 9.81412 8.17741 9.41318 8.83041 9.0177C9.57831 8.56457 10.3221 8.10555 11.0628 7.64075C11.8892 7.12229 12.72 6.61155 13.554 6.10554C14.2224 5.6999 14.8879 5.28988 15.5522 4.87775C16.2014 4.4751 16.8516 4.07418 17.5023 3.67395C17.6045 3.61107 17.7067 3.54819 17.812 3.4834C18.3306 3.16439 18.8493 2.84558 19.3681 2.52698C19.5202 2.43349 19.5202 2.43349 19.6753 2.33813C19.8779 2.21374 20.0805 2.08957 20.2833 1.96564C20.7976 1.65057 21.3072 1.33023 21.8115 0.99951C21.9629 0.901361 21.9629 0.901361 22.1174 0.80123C22.3085 0.677012 22.4987 0.551289 22.6877 0.423804C23.2159 0.0824789 23.6456 -0.150022 24.2816 0.000120319ZM8.90658 15.7501C8.90658 16.307 8.90658 16.8639 8.90658 17.4376C9.0737 17.4384 9.24082 17.4391 9.41301 17.4399C10.9857 17.4472 12.5584 17.4554 14.131 17.4646C14.9396 17.4693 15.7482 17.4736 16.5568 17.4772C17.2615 17.4803 17.9661 17.484 18.6708 17.4885C19.044 17.4909 19.4172 17.4929 19.7904 17.4942C20.1416 17.4954 20.4928 17.4975 20.844 17.5002C20.9729 17.501 21.1019 17.5016 21.2308 17.5018C21.4068 17.5021 21.5828 17.5036 21.7588 17.5053C21.8573 17.5058 21.9558 17.5063 22.0573 17.5068C22.3168 17.5317 22.4709 17.5769 22.6878 17.7189C22.8308 18.0048 22.8037 18.2478 22.7816 18.5626C22.6719 18.7218 22.6719 18.7218 22.5003 18.8439C22.2666 18.8799 22.2666 18.8799 21.9825 18.8813C21.875 18.8824 21.7676 18.8836 21.6569 18.8848C21.5385 18.8847 21.42 18.8845 21.298 18.8844C21.1703 18.8853 21.0426 18.8862 20.9149 18.8873C20.5727 18.8899 20.2305 18.8908 19.8882 18.8914C19.5672 18.8921 19.2462 18.8944 18.9251 18.8966C17.986 18.902 17.0469 18.905 16.1078 18.9083C14.0098 18.918 11.9119 18.9277 9.75033 18.9376C9.75033 26.4245 9.75033 33.9114 9.75033 41.6251C10.7713 41.6251 11.7922 41.6251 12.8441 41.6251C12.845 41.3635 12.8458 41.1018 12.8467 40.8322C12.8499 39.9678 12.8551 39.1034 12.8613 38.2391C12.865 37.715 12.868 37.1909 12.8695 36.6668C12.8709 36.161 12.8741 35.6553 12.8786 35.1496C12.88 34.9566 12.8807 34.7636 12.8808 34.5706C12.881 34.3003 12.8836 34.0302 12.8867 33.7599C12.8859 33.6402 12.8859 33.6402 12.8852 33.518C12.8919 33.1398 12.9093 32.9513 13.1168 32.6245C13.3992 32.3552 13.5547 32.3316 13.9347 32.3246C14.0248 32.3228 14.1149 32.3209 14.2077 32.319C14.3051 32.3174 14.4026 32.3158 14.503 32.3142C14.6026 32.3123 14.7023 32.3103 14.8049 32.3083C15.1239 32.3022 15.443 32.2966 15.762 32.2911C15.978 32.2871 16.1939 32.283 16.4099 32.2789C16.94 32.2688 17.4702 32.2593 18.0003 32.2501C18.0005 32.1419 18.0006 32.0337 18.0007 31.9223C18.0023 30.9028 18.0063 29.8835 18.0127 28.8641C18.0159 28.34 18.0183 27.8159 18.0187 27.2918C18.0191 26.786 18.0217 26.2803 18.026 25.7746C18.0272 25.5816 18.0276 25.3886 18.0272 25.1956C18.0267 24.9253 18.0291 24.6552 18.0323 24.3849C18.0315 24.3051 18.0306 24.2253 18.0298 24.143C18.0377 23.7343 18.0557 23.5792 18.3206 23.2495C18.6311 23.0099 18.7742 22.9571 19.1577 22.9557C19.286 22.9549 19.286 22.9549 19.4169 22.9541C19.5111 22.954 19.6052 22.9539 19.7022 22.9538C19.8012 22.9533 19.9001 22.9528 20.0021 22.9524C20.3305 22.951 20.659 22.9503 20.9875 22.9498C21.2152 22.9493 21.4429 22.9487 21.6707 22.9482C22.1487 22.9472 22.6267 22.9467 23.1046 22.9463C23.7175 22.9458 24.3304 22.9436 24.9432 22.9409C25.4138 22.9392 25.8844 22.9387 26.3549 22.9385C26.5809 22.9383 26.8068 22.9375 27.0328 22.9363C27.3488 22.9347 27.6648 22.9348 27.9808 22.9355C28.0744 22.9346 28.1679 22.9337 28.2643 22.9328C29.0824 22.9378 29.0824 22.9378 29.4378 23.2501C29.6489 23.5475 29.6506 23.817 29.6552 24.1754C29.658 24.3415 29.658 24.3415 29.6609 24.5109C29.6625 24.6895 29.6625 24.6895 29.6642 24.8717C29.6669 25.0551 29.6669 25.0551 29.6697 25.2421C29.6745 25.5664 29.6782 25.8907 29.6817 26.2149C29.6854 26.5461 29.6902 26.8773 29.6949 27.2085C29.704 27.8578 29.7119 28.5071 29.7191 29.1564C29.8061 29.0964 29.8931 29.0365 29.9828 28.9747C30.4215 28.6909 30.7981 28.632 31.3128 28.6876C31.6067 28.8041 31.811 28.8968 32.0218 29.1329C32.0663 29.1716 32.1108 29.2103 32.1566 29.2501C32.3777 29.2211 32.3777 29.2211 32.6253 29.1564C32.7059 29.1372 32.7865 29.1179 32.8696 29.0981C33.1297 29.0159 33.3378 28.9367 33.5628 28.7814C33.6625 28.5421 33.6908 28.3328 33.7185 28.0757C33.7649 27.7381 33.9068 27.5374 34.1253 27.2814C34.5941 27.0001 34.5941 27.0001 37.0316 26.9064C37.0316 24.2767 37.0316 21.647 37.0316 18.9376C36.1686 18.9341 35.3056 18.9306 34.4165 18.927C33.8709 18.9242 33.3253 18.9213 32.7797 18.918C31.913 18.9129 31.0464 18.9081 30.1798 18.9051C29.5486 18.903 28.9175 18.8999 28.2864 18.8956C27.9522 18.8933 27.6179 18.8916 27.2837 18.891C26.9108 18.8903 26.5379 18.8874 26.1651 18.8844C26.0539 18.8845 25.9427 18.8847 25.8281 18.8848C25.7268 18.8836 25.6254 18.8825 25.521 18.8813C25.4327 18.8808 25.3445 18.8804 25.2536 18.8799C25.0316 18.8439 25.0316 18.8439 24.8629 18.7211C24.6716 18.4519 24.7113 18.2242 24.7503 17.9064C24.9435 17.6537 25.0553 17.545 25.3706 17.4838C25.5111 17.4832 25.5111 17.4832 25.6545 17.4827C25.7623 17.4814 25.8701 17.4801 25.9811 17.4788C26.1579 17.4795 26.1579 17.4795 26.3383 17.4802C26.464 17.4794 26.5897 17.4784 26.7153 17.4773C27.0562 17.4746 27.3971 17.4743 27.7379 17.4744C28.0943 17.4741 28.4506 17.4717 28.807 17.4695C29.4816 17.4657 30.1563 17.4638 30.831 17.4626C31.5991 17.4611 32.3672 17.4575 33.1354 17.4537C34.7153 17.446 36.2953 17.441 37.8753 17.4376C37.8753 16.8807 37.8753 16.3239 37.8753 15.7501C28.3156 15.7501 18.756 15.7501 8.90658 15.7501ZM19.4066 24.3751C19.4066 26.9739 19.4066 29.5726 19.4066 32.2501C22.0981 32.2501 24.7897 32.2501 27.5628 32.2501C27.6247 31.9407 27.6866 31.6314 27.7503 31.3126C27.8306 31.2304 27.9109 31.1481 27.9936 31.0634C28.4154 30.6179 28.2752 29.8753 28.2649 29.3007C28.264 29.1585 28.2633 29.0164 28.2628 28.8743C28.2611 28.5016 28.2565 28.129 28.2513 27.7563C28.2465 27.3755 28.2443 26.9946 28.242 26.6138C28.237 25.8675 28.2287 25.1213 28.2191 24.3751C27.4147 24.3751 26.6103 24.3751 25.7816 24.3751C25.7792 24.5817 25.7767 24.7882 25.7743 25.001C25.7707 25.2011 25.7664 25.4012 25.7621 25.6014C25.7595 25.7404 25.7575 25.8794 25.7562 26.0185C25.7542 26.2184 25.7498 26.4182 25.745 26.6182C25.743 26.7384 25.741 26.8587 25.739 26.9827C25.6878 27.2814 25.6878 27.2814 25.538 27.4611C25.2333 27.5985 24.9876 27.5991 24.6537 27.6C24.5906 27.6002 24.5275 27.6005 24.4625 27.6008C24.3295 27.601 24.1965 27.6005 24.0635 27.5993C23.8603 27.5978 23.6574 27.5993 23.4543 27.6011C23.3248 27.6009 23.1953 27.6005 23.0658 27.6C22.9484 27.5997 22.8309 27.5993 22.71 27.599C22.387 27.5603 22.2566 27.5119 22.0316 27.2814C21.9284 26.9718 21.9185 26.7244 21.9082 26.3984C21.9042 26.2809 21.9003 26.1634 21.8963 26.0423C21.8926 25.9195 21.8889 25.7966 21.8851 25.67C21.881 25.5449 21.877 25.4197 21.8728 25.2945C21.8629 24.988 21.8534 24.6816 21.8441 24.3751C21.0397 24.3751 20.2353 24.3751 19.4066 24.3751ZM23.3441 24.3751C23.3441 24.9629 23.3441 25.5507 23.3441 26.1564C23.6535 26.1564 23.9628 26.1564 24.2816 26.1564C24.2816 25.5686 24.2816 24.9807 24.2816 24.3751C23.9722 24.3751 23.6628 24.3751 23.3441 24.3751ZM35.0628 28.4064C35.0319 28.8086 35.001 29.2107 34.9691 29.6251C34.7203 29.9983 34.4226 30.0515 34.014 30.1818C33.5985 30.3155 33.2076 30.4462 32.8311 30.6703C32.5346 30.8421 32.3207 30.9148 31.9753 30.9006C31.5823 30.7855 31.3089 30.4767 31.0316 30.1876C30.7163 30.3243 30.5117 30.498 30.2713 30.7421C30.1653 30.849 30.1653 30.849 30.0571 30.9581C29.9478 31.0698 29.9478 31.0698 29.8363 31.1837C29.7619 31.2589 29.6876 31.334 29.611 31.4115C29.4279 31.5969 29.2452 31.7827 29.0628 31.9689C29.1526 32.0744 29.2424 32.1799 29.3324 32.2853C29.3824 32.344 29.4324 32.4027 29.484 32.4633C29.5892 32.5837 29.6997 32.6995 29.8128 32.8126C29.8667 33.333 29.7434 33.695 29.5081 34.1486C29.2529 34.6634 29.0373 35.1736 28.8589 35.7211C28.7816 35.9064 28.7816 35.9064 28.5941 36.0001C28.2778 36.0297 27.9615 36.0481 27.6445 36.0675C27.3852 36.0642 27.3852 36.0642 27.2816 36.1876C27.2722 36.374 27.2693 36.5606 27.2691 36.7472C27.269 36.8607 27.2689 36.9741 27.2688 37.0911C27.2691 37.2106 27.2695 37.3301 27.2699 37.4532C27.2695 37.5728 27.2691 37.6923 27.2688 37.8154C27.2689 37.9289 27.269 38.0424 27.2691 38.1593C27.2692 38.2643 27.2693 38.3692 27.2695 38.4774C27.2542 38.7124 27.2542 38.7124 27.3753 38.8126C27.6845 38.8356 27.9936 38.8486 28.3033 38.8617C28.5941 38.9064 28.5941 38.9064 28.7563 39.0056C28.9397 39.2861 29.0416 39.5938 29.1507 39.9083C29.2995 40.325 29.445 40.7274 29.6605 41.1154C29.8388 41.4926 29.8936 41.6829 29.8128 42.0939C29.6175 42.3687 29.3969 42.6078 29.1566 42.8439C29.2903 43.1494 29.4535 43.3504 29.6905 43.5836C29.7576 43.6501 29.8247 43.7165 29.8938 43.785C29.9987 43.8876 29.9987 43.8876 30.1058 43.9923C30.1765 44.0622 30.2472 44.132 30.32 44.204C30.4943 44.376 30.669 44.5476 30.8441 44.7189C31.1116 44.5963 31.2609 44.4923 31.4828 44.2853C31.8495 44.012 31.9888 44.0206 32.4378 44.0626C32.6772 44.1557 32.8914 44.25 33.1175 44.3673C33.6323 44.6225 34.1425 44.8381 34.69 45.0166C34.8753 45.0939 34.8753 45.0939 34.9691 45.2814C34.9987 45.5976 35.017 45.9139 35.0365 46.231C35.0331 46.4902 35.0331 46.4902 35.1566 46.5939C35.3429 46.6032 35.5296 46.6061 35.7162 46.6063C35.8864 46.6065 35.8864 46.6065 36.06 46.6067C36.1795 46.6063 36.2991 46.606 36.4222 46.6056C36.5417 46.6059 36.6612 46.6063 36.7844 46.6067C36.8979 46.6066 37.0113 46.6064 37.1283 46.6063C37.2332 46.6062 37.3382 46.6061 37.4463 46.606C37.6814 46.6213 37.6814 46.6213 37.7816 46.5001C37.8013 46.3013 37.8161 46.1019 37.8285 45.9025C37.8487 45.5766 37.8657 45.3102 37.9691 45.0001C38.1544 44.9342 38.1544 44.9342 38.4027 44.8829C38.9438 44.7523 39.4108 44.5391 39.9011 44.2817C40.3053 44.0787 40.6127 44.0048 41.0628 44.0626C41.2811 44.2062 41.2811 44.2062 41.4613 44.3907C41.6374 44.5734 41.6374 44.5734 41.8128 44.7189C42.0984 44.7488 42.0984 44.7488 42.2809 44.564C42.3501 44.4933 42.4194 44.4226 42.4907 44.3497C42.5659 44.2736 42.6411 44.1975 42.7187 44.119C42.8358 43.9983 42.8358 43.9983 42.9554 43.8751C43.0346 43.7946 43.1138 43.7141 43.1955 43.6312C43.3915 43.4319 43.5868 43.2319 43.7816 43.0314C43.6162 42.6857 43.4165 42.4564 43.148 42.1854C42.9797 41.9176 42.9938 41.7499 43.0316 41.4376C43.1652 41.1285 43.1652 41.1285 43.3421 40.8048C43.5906 40.3382 43.7818 39.8899 43.9032 39.374C43.9859 39.1402 44.0438 39.0469 44.2503 38.9064C44.6858 38.84 45.1231 38.8328 45.5628 38.8126C45.5651 38.4405 45.5668 38.0684 45.568 37.6962C45.5685 37.5696 45.5691 37.4429 45.5699 37.3162C45.571 37.1345 45.5715 36.9527 45.572 36.771C45.5725 36.6615 45.573 36.552 45.5735 36.4392C45.5916 36.1952 45.5916 36.1952 45.4691 36.0939C45.1599 36.0709 44.8508 36.0578 44.5411 36.0448C44.2205 35.9955 44.1669 35.9603 43.9691 35.7189C43.8915 35.5511 43.8915 35.5511 43.8318 35.3658C43.809 35.2978 43.7862 35.2298 43.7627 35.1597C43.7399 35.089 43.7172 35.0183 43.6937 34.9454C43.5206 34.4107 43.3174 33.9531 43.0316 33.4689C42.9671 33.1935 42.9671 33.1935 43.0316 32.9064C43.1912 32.7024 43.36 32.5193 43.5443 32.3373C43.7267 32.1459 43.7267 32.1459 43.6878 31.7814C43.5322 31.5739 43.5322 31.5739 43.3187 31.3756C43.2045 31.2632 43.2045 31.2632 43.088 31.1486C42.9672 31.0325 42.9672 31.0325 42.8441 30.9142C42.7234 30.796 42.7234 30.796 42.6002 30.6754C42.401 30.4807 42.2011 30.2869 42.0003 30.0939C41.9562 30.1323 41.9121 30.1707 41.8667 30.2103C41.7791 30.2861 41.7791 30.2861 41.6898 30.3634C41.6321 30.4134 41.5745 30.4635 41.5151 30.515C41.1243 30.838 40.9108 30.8878 40.4066 30.8439C40.1672 30.7508 39.953 30.6565 39.7269 30.5392C39.2121 30.284 38.7019 30.0684 38.1544 29.8899C37.9691 29.8126 37.9691 29.8126 37.8753 29.6251C37.8444 29.2229 37.8135 28.8207 37.7816 28.4064C36.8844 28.4064 35.9872 28.4064 35.0628 28.4064ZM14.3441 33.7501C14.3441 36.3489 14.3441 38.9476 14.3441 41.6251C17.2213 41.6251 20.0985 41.6251 23.0628 41.6251C23.0628 39.0264 23.0628 36.4276 23.0628 33.7501C22.2894 33.7501 21.516 33.7501 20.7191 33.7501C20.7122 34.016 20.7122 34.016 20.7052 34.2873C20.6981 34.5204 20.691 34.7534 20.6839 34.9864C20.681 35.1032 20.6781 35.2201 20.6751 35.3404C20.6715 35.4531 20.6679 35.5658 20.6642 35.6819C20.6597 35.8373 20.6597 35.8373 20.6552 35.9958C20.6249 36.2857 20.5724 36.4922 20.4378 36.7501C19.9819 37.0541 19.4478 36.9688 18.9143 36.9672C18.7104 36.9669 18.5065 36.9691 18.3026 36.9715C18.1727 36.9717 18.0427 36.9718 17.9128 36.9717C17.7948 36.972 17.6768 36.9722 17.5552 36.9725C17.2293 36.9352 17.0981 36.8938 16.8753 36.6564C16.7503 36.3492 16.7628 36.0195 16.7519 35.691C16.748 35.578 16.7441 35.465 16.74 35.3486C16.7363 35.231 16.7326 35.1135 16.7288 34.9923C16.7248 34.8733 16.7207 34.7542 16.7166 34.6316C16.7066 34.3378 16.6972 34.0439 16.6878 33.7501C15.9144 33.7501 15.141 33.7501 14.3441 33.7501ZM18.1878 33.7501C18.1878 34.3379 18.1878 34.9257 18.1878 35.5314C18.5281 35.5314 18.8685 35.5314 19.2191 35.5314C19.2191 34.9436 19.2191 34.3557 19.2191 33.7501C18.8788 33.7501 18.5385 33.7501 18.1878 33.7501ZM24.5628 33.7501C24.5628 36.3489 24.5628 38.9476 24.5628 41.6251C25.7694 41.6251 26.976 41.6251 28.2191 41.6251C28.0644 41.192 27.9097 40.7589 27.7503 40.3126C27.5937 40.2933 27.4371 40.2739 27.2757 40.254C26.76 40.159 26.3693 40.0031 26.0628 39.5626C25.8486 38.9247 25.8436 38.3203 25.8457 37.6564C25.846 37.4599 25.8438 37.2635 25.8415 37.0671C25.8376 36.2655 25.8436 35.61 26.391 34.9806C26.7836 34.6846 27.2747 34.6506 27.7503 34.5939C27.8431 34.3154 27.936 34.037 28.0316 33.7501C26.8869 33.7501 25.7422 33.7501 24.5628 33.7501Z" fill="#FF7705"></path>
    <path d="M39.3547 34.2908C40.203 35.1436 40.6885 36.2033 40.717 37.4062C40.7056 38.5257 40.3177 39.588 39.566 40.4234C38.7139 41.2386 37.6608 41.7013 36.4866 41.748C35.385 41.7207 34.2525 41.3274 33.4368 40.5732C32.5074 39.5737 32.1456 38.4797 32.1565 37.125C32.2299 35.96 32.7584 35.0196 33.6019 34.2304C33.9423 33.9503 34.2857 33.7412 34.6877 33.5625C34.7514 33.5338 34.8151 33.5052 34.8807 33.4757C36.3914 32.8543 38.1379 33.2379 39.3547 34.2908ZM34.342 35.7011C33.8452 36.2967 33.6391 36.9151 33.6565 37.6874C33.7819 38.4811 34.1683 39.2352 34.8049 39.7382C35.4546 40.1536 36.2125 40.3185 36.9692 40.1781C37.7455 39.9858 38.3617 39.5766 38.8069 38.9062C39.1868 38.2237 39.3114 37.5301 39.1233 36.7712C38.8457 35.9269 38.4951 35.4524 37.7112 35.0273C36.4552 34.4489 35.2905 34.6776 34.342 35.7011Z" fill="#FF7705"></path>
    <path d="M23.0017 9.80045C23.0667 9.80054 23.1318 9.80063 23.1988 9.80071C23.3357 9.80128 23.4725 9.80275 23.6094 9.80508C23.8184 9.8085 24.0273 9.80892 24.2364 9.80888C25.3653 9.81668 25.3653 9.81668 25.6879 10.0312C25.883 10.2821 25.875 10.4172 25.8636 10.7402C25.7816 11.0624 25.7816 11.0624 25.634 11.2206C25.3218 11.3896 25.0323 11.3857 24.6859 11.3843C24.5819 11.3851 24.5819 11.3851 24.4758 11.3858C24.3296 11.3864 24.1833 11.3863 24.0371 11.3855C23.8136 11.3847 23.5903 11.3874 23.3668 11.3904C23.2245 11.3905 23.0822 11.3905 22.9398 11.3902C22.8732 11.3912 22.8066 11.3923 22.738 11.3934C22.4151 11.3888 22.2478 11.3661 21.9899 11.165C21.8327 10.9533 21.7909 10.8542 21.7914 10.5937C21.7893 10.5318 21.7873 10.4699 21.7852 10.4062C21.9634 9.83931 22.4863 9.79717 23.0017 9.80045Z" fill="#FF7705"></path>
    <path d="M23.0017 6.98795C23.0667 6.98804 23.1318 6.98813 23.1988 6.98821C23.3357 6.98878 23.4725 6.99025 23.6094 6.99258C23.8184 6.996 24.0273 6.99642 24.2364 6.99638C25.3653 7.00418 25.3653 7.00418 25.6879 7.21867C25.883 7.46957 25.875 7.60469 25.8636 7.92765C25.7816 8.24992 25.7816 8.24992 25.634 8.40814C25.3218 8.57707 25.0323 8.57325 24.6859 8.57182C24.5819 8.57255 24.5819 8.57255 24.4758 8.5733C24.3296 8.57391 24.1833 8.57378 24.0371 8.57298C23.8136 8.57218 23.5903 8.57488 23.3668 8.57786C23.2245 8.57801 23.0822 8.57796 22.9398 8.57768C22.8732 8.57873 22.8066 8.57978 22.738 8.58087C22.4151 8.57633 22.2478 8.55356 21.9899 8.35248C21.8327 8.14082 21.7909 8.04173 21.7914 7.78117C21.7893 7.71929 21.7873 7.65742 21.7852 7.59367C21.9634 7.02681 22.4863 6.98467 23.0017 6.98795Z" fill="#FF7705"></path>
  </g>
  <defs>
    <clipPath id="clip0_4393_95">
      <rect width="48" height="48" fill="white"></rect>
    </clipPath>
  </defs>
</svg>
