<?xml version="1.0" encoding="UTF-8"?>
<svg xmlns="http://www.w3.org/2000/svg" width="48" height="48" viewBox="0 0 48 48" fill="none">
  <path d="M16.3187 3.53739C16.4591 3.53675 16.4591 3.53675 16.6024 3.5361C16.9154 3.53492 17.2284 3.53507 17.5413 3.53523C17.7661 3.53467 17.9908 3.53403 18.2155 3.53332C18.7621 3.53183 19.3088 3.53125 19.8554 3.53114C20.3 3.53105 20.7446 3.53067 21.1892 3.53007C22.4511 3.52842 23.713 3.52756 24.975 3.5277C25.0429 3.5277 25.1109 3.52771 25.1809 3.52772C25.249 3.52773 25.317 3.52773 25.3871 3.52774C26.4894 3.52782 27.5917 3.52602 28.6941 3.52338C29.8273 3.52068 30.9606 3.51939 32.0938 3.51955C32.7295 3.51962 33.3651 3.51911 34.0008 3.51708C34.5989 3.51527 35.1969 3.51526 35.795 3.51662C36.014 3.51681 36.2331 3.51637 36.4522 3.51524C36.7521 3.51378 37.052 3.51466 37.3519 3.51611C37.4378 3.51514 37.5238 3.51418 37.6123 3.51318C38.6855 3.52452 39.556 3.9364 40.3122 4.68746C40.559 4.98526 40.7693 5.29379 40.9685 5.62496C41.0049 5.68442 41.0412 5.74388 41.0787 5.80514C41.5669 6.68729 41.7771 7.71966 41.8122 8.71871C41.8195 8.85558 41.8195 8.85558 41.8269 8.9952C41.8537 9.83148 41.8537 9.83148 41.531 10.2187C41.5001 10.2497 41.4691 10.2806 41.4372 10.3125C39.3026 10.3125 37.1679 10.3125 34.9685 10.3125C34.9685 15.479 34.9685 20.6456 34.9685 25.9687C35.1851 25.9997 35.4016 26.0306 35.6247 26.0625C36.0406 26.2787 36.2933 26.5783 36.4359 27.0227C36.4764 27.1673 36.5166 27.3121 36.5564 27.457C36.7478 28.0473 36.9355 28.3892 37.4956 28.6798C37.7504 28.7922 38.0083 28.8924 38.2696 28.9885C38.5145 29.0965 38.7014 29.2674 38.906 29.4375C39.3284 29.4892 39.7054 29.4112 40.1189 29.332C40.6334 29.2427 40.9506 29.2445 41.4372 29.4375C41.8886 29.7648 42.1434 30.0857 42.404 30.5742C42.4365 30.6323 42.4689 30.6904 42.5024 30.7503C42.8016 31.2927 42.9299 31.7282 42.8435 32.3437C42.695 32.7081 42.4725 33.0016 42.1869 33.2708C41.6691 33.7669 41.5275 34.146 41.5112 34.8595C41.5138 34.969 41.5165 35.0785 41.5193 35.1914C41.5205 35.3042 41.5216 35.417 41.5228 35.5333C41.5515 36.2007 41.6128 36.617 42.0759 37.1074C42.1597 37.1737 42.2434 37.2401 42.3297 37.3084C42.7068 37.619 42.8241 37.953 42.908 38.4257C42.8818 39.1926 42.3972 40.0424 41.9141 40.6212C41.5603 40.9368 41.1887 41.1553 40.7103 41.1573C40.6234 41.1473 40.5365 41.1372 40.447 41.1269C40.3599 41.1176 40.2727 41.1083 40.183 41.0987C39.9702 41.0673 39.77 41.0227 39.5622 40.9687C39.2482 40.9264 39.0128 40.902 38.7364 41.0745C38.6147 41.1715 38.4939 41.2696 38.3739 41.3686C37.9743 41.6668 37.3548 42.0937 36.8435 42.0937C36.8275 42.1595 36.8116 42.2252 36.7952 42.2929C36.5746 43.1565 36.3727 43.8186 35.6247 44.3437C35.2019 44.4847 34.7847 44.4663 34.3415 44.4726C34.2507 44.4761 34.1599 44.4796 34.0663 44.4832C33.4456 44.4908 32.9982 44.397 32.531 43.9687C32.3661 43.7286 32.2567 43.4916 32.156 43.2187C32.1281 43.1441 32.1002 43.0696 32.0714 42.9928C31.9604 42.6781 31.8747 42.4297 31.8747 42.0937C31.7626 42.0647 31.6505 42.0357 31.5349 42.0058C31.158 41.8855 30.8733 41.7121 30.5545 41.4859C29.9295 41.0363 29.9295 41.0363 29.1794 40.957C29.0146 40.9885 28.8505 41.0236 28.6872 41.0625C28.0723 41.1619 27.6533 41.2043 27.0935 40.875C26.8555 40.6766 26.6644 40.5157 26.5572 40.2196C26.4555 39.9661 26.3667 39.8329 26.156 39.6562C25.6211 39.5384 25.0882 39.5579 24.5428 39.5654C24.3752 39.565 24.2076 39.5643 24.0401 39.5632C23.585 39.5613 23.13 39.564 22.675 39.5674C22.1983 39.5702 21.7217 39.5685 21.2451 39.5673C20.3414 39.5656 19.4378 39.5676 18.5342 39.571C17.21 39.5759 15.8858 39.5761 14.5616 39.5754C14.4643 39.5753 14.367 39.5752 14.2668 39.5752C14.0727 39.5751 13.8786 39.575 13.6845 39.5748C13.1175 39.5746 12.5505 39.5756 11.9836 39.5778C11.6299 39.579 11.2763 39.5796 10.9227 39.5799C10.7593 39.5803 10.596 39.5809 10.4327 39.582C8.9501 39.5911 7.78019 39.4881 6.64758 38.4433C5.50536 37.21 5.14823 35.6111 5.1267 33.9843C5.12503 33.9013 5.12336 33.8183 5.12164 33.7327C5.12174 33.6543 5.12184 33.5759 5.12194 33.4951C5.12166 33.4246 5.12138 33.354 5.12109 33.2814C5.16582 33.0409 5.2461 32.9611 5.43725 32.8125C5.75173 32.7076 5.98702 32.7074 6.31842 32.7081C6.37881 32.7081 6.4392 32.708 6.50142 32.708C6.70078 32.7081 6.90013 32.7088 7.09948 32.7096C7.2378 32.7097 7.37613 32.7099 7.51445 32.71C7.87833 32.7103 8.24222 32.7112 8.6061 32.7123C8.97749 32.7132 9.34888 32.7137 9.72027 32.7141C10.4488 32.7151 11.1774 32.7167 11.906 32.7187C11.9057 32.5959 11.9055 32.4731 11.9052 32.3466C11.8991 29.4268 11.8945 26.507 11.8916 23.5871C11.8913 23.2271 11.8909 22.8671 11.8905 22.5072C11.8905 22.4355 11.8904 22.3638 11.8903 22.29C11.8891 21.1322 11.8869 19.9744 11.8843 18.8166C11.8817 17.6271 11.8801 16.4376 11.8795 15.2481C11.8792 14.5151 11.8779 13.7821 11.8756 13.0491C11.874 12.4855 11.8738 11.9219 11.8742 11.3582C11.8741 11.1282 11.8736 10.8981 11.8725 10.668C11.8625 8.44854 12.0209 6.21722 13.6345 4.51168C14.445 3.75556 15.2318 3.53375 16.3187 3.53739ZM14.2611 5.84762C13.1648 7.55694 13.191 9.35521 13.1972 11.3156C13.1973 11.5495 13.1972 11.7833 13.1971 12.0172C13.1971 12.5186 13.1976 13.02 13.1987 13.5214C13.2002 14.2464 13.2007 14.9713 13.2009 15.6962C13.2013 16.8727 13.2026 18.0492 13.2044 19.2256C13.2061 20.3677 13.2074 21.5098 13.2082 22.6519C13.2082 22.7224 13.2083 22.793 13.2083 22.8656C13.2086 23.2195 13.2088 23.5733 13.2091 23.9272C13.211 26.8577 13.2143 29.7882 13.2185 32.7187C13.3232 32.7197 13.4278 32.7206 13.5357 32.7216C14.522 32.7308 15.5083 32.7404 16.4946 32.7505C17.0016 32.7557 17.5087 32.7607 18.0157 32.7653C18.5051 32.7698 18.9944 32.7747 19.4837 32.7799C19.6704 32.7818 19.8571 32.7836 20.0438 32.7852C20.3053 32.7875 20.5668 32.7903 20.8282 32.7932C20.9055 32.7938 20.9827 32.7943 21.0622 32.7948C21.4283 32.7995 21.7673 32.8168 22.1247 32.9062C22.1285 32.968 22.1322 33.0298 22.136 33.0934C22.2637 35.569 22.2637 35.569 23.5636 37.6128C24.1995 38.1215 24.7284 38.2304 25.5433 38.206C25.8674 38.1859 25.8674 38.1859 26.045 38.0185C26.1552 37.8354 26.1552 37.8354 26.2296 37.6313C26.3597 37.3741 26.5128 37.2364 26.724 37.0418C27.2277 36.487 27.2153 35.9374 27.199 35.2148C27.1979 35.0933 27.1968 34.9718 27.1956 34.8466C27.1681 34.1509 27.1191 33.6958 26.6365 33.1816C26.4778 33.0566 26.3179 32.9332 26.156 32.8125C25.8516 32.3554 25.8747 31.8361 25.9685 31.3125C26.074 31.034 26.2055 30.776 26.3494 30.5156C26.4014 30.4196 26.4014 30.4196 26.4544 30.3218C26.7257 29.8643 26.9801 29.652 27.4685 29.4375C27.9114 29.3261 28.2286 29.35 28.6681 29.469C29.2776 29.634 29.2776 29.634 29.8844 29.521C30.1096 29.3571 30.1096 29.3571 30.3213 29.1621C30.5604 28.9702 30.781 28.8754 31.0659 28.7681C31.4342 28.6239 31.771 28.4862 31.9804 28.1354C32.1263 27.7944 32.2233 27.4488 32.3146 27.0901C32.4245 26.7027 32.5796 26.498 32.906 26.25C33.0349 26.1948 33.1656 26.1438 33.2977 26.0967C33.3649 26.0724 33.4321 26.0481 33.5013 26.0231C33.5779 25.9962 33.5779 25.9962 33.656 25.9687C33.6563 25.8337 33.6563 25.8337 33.6567 25.6959C33.6622 23.5009 33.6693 21.3059 33.6781 19.1109C33.6823 18.0493 33.686 16.9878 33.6885 15.9263C33.6906 15.0006 33.6938 14.0749 33.6981 13.1492C33.7003 12.6595 33.7021 12.1698 33.7027 11.6801C33.7032 11.2182 33.7051 10.7562 33.708 10.2943C33.7088 10.1257 33.7091 9.95717 33.709 9.78859C33.7079 8.15077 33.9312 6.73353 34.7428 5.2794C34.785 5.2036 34.8273 5.12781 34.8708 5.04972C34.9192 4.96322 34.9192 4.96322 34.9685 4.87496C32.4634 4.8662 29.9583 4.85959 27.4532 4.85553C26.2901 4.8536 25.1269 4.85096 23.9638 4.84667C22.9499 4.84294 21.9361 4.84052 20.9223 4.83968C20.3855 4.83919 19.8487 4.83804 19.3119 4.83531C18.8065 4.83277 18.3011 4.83198 17.7957 4.83255C17.6104 4.83244 17.425 4.8317 17.2397 4.83026C16.9862 4.82839 16.7329 4.82885 16.4794 4.82987C16.4064 4.82878 16.3334 4.82768 16.2583 4.82656C15.4557 4.83527 14.7597 5.21736 14.2611 5.84762ZM35.8122 5.99996C35.2142 6.95056 35.0619 7.87922 34.9685 8.99996C36.7629 8.99996 38.5572 8.99996 40.406 8.99996C40.406 7.68049 40.1686 6.53692 39.2517 5.53707C38.8098 5.13127 38.3258 4.91261 37.7341 4.82809C36.9075 4.94617 36.3252 5.34891 35.8122 5.99996ZM33.4864 27.4727C33.3537 27.8022 33.2313 28.1326 33.1228 28.4707C33.1017 28.534 33.0806 28.5974 33.0589 28.6627C32.9448 28.9962 32.9448 28.9962 32.906 29.3437C32.7919 29.3766 32.6778 29.4095 32.5603 29.4433C31.8176 29.6921 31.0565 30.0461 30.4978 30.6035C30.2451 30.8375 30.0744 30.8827 29.7302 30.8906C29.3469 30.8673 28.9825 30.7989 28.6125 30.6972C28.3383 30.6428 28.1226 30.62 27.8435 30.6562C27.6293 30.8627 27.6293 30.8627 27.4744 31.1425C27.4174 31.2328 27.3605 31.3231 27.3019 31.4161C27.1729 31.674 27.1729 31.674 27.184 31.9196C27.3208 32.2531 27.548 32.483 27.7966 32.7363C28.4057 33.3707 28.4057 33.3707 28.4065 33.6671C28.4015 33.7481 28.3965 33.8291 28.3913 33.9126C28.3864 34.0026 28.3814 34.0926 28.3763 34.1853C28.3707 34.2814 28.365 34.3775 28.3591 34.4765C28.3218 35.1192 28.3094 35.715 28.406 36.3515C28.4585 36.8744 28.3416 37.1038 28.0134 37.5117C27.7986 37.7401 27.5766 37.9553 27.3473 38.169C27.1607 38.3353 27.1607 38.3353 27.1755 38.5957C27.3238 39.0323 27.5738 39.3789 27.8435 39.75C28.0056 39.7366 28.1677 39.7229 28.3298 39.7089C28.4201 39.7013 28.5104 39.6937 28.6034 39.6859C28.8551 39.6584 29.0959 39.6141 29.3435 39.5625C29.7509 39.4891 30.0556 39.4755 30.4106 39.71C30.5663 39.8414 30.7205 39.9744 30.8735 40.1088C31.3748 40.5151 31.9868 40.8484 32.6306 40.9394C32.906 41.0625 32.906 41.0625 32.9946 41.2694C33.0421 41.448 33.0848 41.628 33.1232 41.8088C33.2828 42.5187 33.2828 42.5187 33.656 43.125C33.8932 43.1318 34.1278 43.1336 34.365 43.1308C34.4316 43.1304 34.4983 43.13 34.5669 43.1295C34.7321 43.1284 34.8972 43.1268 35.0622 43.125C35.099 43.0438 35.1357 42.9625 35.1736 42.8789C35.2005 42.8197 35.2275 42.7604 35.2552 42.6994C35.3532 42.4588 35.3532 42.4588 35.4171 42.156C35.5569 41.625 35.653 41.2628 36.1224 40.9486C36.423 40.8054 36.7339 40.6903 37.0453 40.5731C37.5257 40.3703 37.9468 40.0191 38.3442 39.6859C38.7148 39.441 39.1739 39.5232 39.5941 39.6053C39.6648 39.6221 39.7355 39.6389 39.8083 39.6562C39.9128 39.6798 39.9128 39.6798 40.0193 39.7038C40.1992 39.7455 40.3788 39.7887 40.5583 39.832C40.9739 39.7243 41.0318 39.5696 41.2556 39.2109C41.4339 38.9189 41.4339 38.9189 41.531 38.625C41.4447 38.3191 41.2384 38.1138 41.0271 37.8808C40.9131 37.7545 40.7998 37.6275 40.6872 37.5C40.6233 37.4352 40.5593 37.3704 40.4935 37.3037C40.2508 36.9388 40.2469 36.655 40.2394 36.2252C40.2375 36.1474 40.2355 36.0695 40.2336 35.9894C40.2304 35.8248 40.2284 35.6601 40.2273 35.4955C40.2244 35.2468 40.214 34.9991 40.2033 34.7506C40.1875 34.0226 40.1794 33.436 40.6783 32.868C40.8154 32.7312 40.9565 32.603 41.1027 32.4761C41.3477 32.246 41.4534 32.1059 41.531 31.7812C41.4108 31.4795 41.4108 31.4795 41.2146 31.1894C41.152 31.0892 41.0894 30.989 41.0249 30.8858C40.9753 30.8101 40.9258 30.7343 40.8747 30.6562C40.7126 30.6696 40.5505 30.6833 40.3884 30.6972C40.2981 30.7048 40.2079 30.7125 40.1149 30.7203C39.8631 30.7478 39.6223 30.7915 39.3747 30.8437C38.9364 30.9329 38.6474 30.9182 38.2626 30.672C38.0713 30.5224 37.8815 30.371 37.6931 30.2179C37.3521 29.9591 37.0095 29.7941 36.6157 29.6316C36.4964 29.5819 36.4964 29.5819 36.3747 29.5312C36.2317 29.4848 36.2317 29.4848 36.0858 29.4375C35.6684 29.1514 35.597 28.7717 35.4548 28.3007C35.3997 28.1286 35.3444 27.9564 35.2889 27.7844C35.2655 27.7081 35.2421 27.6318 35.218 27.5533C35.171 27.3763 35.171 27.3763 35.0622 27.2812C34.83 27.2618 34.6035 27.2508 34.3708 27.2461C34.3065 27.2426 34.2423 27.239 34.176 27.2354C33.8589 27.2299 33.7018 27.2295 33.4864 27.4727ZM6.4685 34.125C6.58175 35.5972 6.82043 36.7305 7.93334 37.7343C8.34926 38.0833 8.75019 38.1797 9.28738 38.1788C9.45873 38.1791 9.45873 38.1791 9.63355 38.1795C9.75936 38.1789 9.88516 38.1782 10.011 38.1775C10.144 38.1774 10.2771 38.1775 10.4102 38.1776C10.7708 38.1776 11.1314 38.1765 11.4921 38.1752C11.8692 38.174 12.2463 38.1739 12.6234 38.1737C13.3372 38.1731 14.0511 38.1716 14.7649 38.1697C15.5777 38.1676 16.3905 38.1666 17.2033 38.1656C18.875 38.1637 20.5468 38.1604 22.2185 38.1562C22.1796 38.0922 22.1407 38.0282 22.1006 37.9622C22.0243 37.836 22.0243 37.836 21.9465 37.7072C21.896 37.6239 21.8455 37.5405 21.7935 37.4547C21.1926 36.4234 21.0914 35.299 20.906 34.125C16.1416 34.125 11.3772 34.125 6.4685 34.125Z" fill="#FF7705"></path>
  <path d="M27.7859 8.2032C28.9137 9.27345 29.8087 10.6356 29.9236 12.2304C29.973 14.3021 29.636 15.9336 28.2195 17.5313C28.1697 17.5899 28.1199 17.6486 28.0686 17.7089C26.9705 18.913 25.3325 19.4883 23.7449 19.582C22.1239 19.6485 20.695 19.162 19.407 18.1876C19.3376 18.1355 19.2683 18.0834 19.1968 18.0297C17.9106 16.9863 17.1976 15.3922 16.9695 13.7813C16.8627 12.0077 17.2723 10.4092 18.3757 9.00008C18.4508 8.90183 18.4508 8.90183 18.5273 8.80159C19.4726 7.6392 20.8595 6.93158 22.3132 6.65633C22.381 6.64291 22.4488 6.6295 22.5187 6.61568C24.4229 6.323 26.351 6.94765 27.7859 8.2032ZM19.5912 9.62044C18.6922 10.7107 18.2245 12.0404 18.2937 13.4532C18.4474 14.9477 19.1437 16.1925 20.2866 17.1574C21.5483 18.0925 22.848 18.3011 24.3757 18.1876C25.2356 18.0389 25.9269 17.6675 26.6257 17.1563C26.6874 17.112 26.749 17.0676 26.8125 17.0219C27.7109 16.3172 28.3602 15.1395 28.5681 14.0219C28.7483 12.3779 28.406 10.9392 27.364 9.63289C26.5083 8.7273 25.261 7.98355 23.9923 7.94649C22.273 7.90678 20.8033 8.32725 19.5912 9.62044Z" fill="#FF7705"></path>
  <path d="M36.4929 32.3262C37.2001 32.8966 37.7032 33.5924 37.8757 34.5001C37.9722 35.7252 37.8271 36.6662 37.0026 37.6348C36.2719 38.3898 35.519 38.7231 34.4699 38.8089C33.4564 38.8237 32.4891 38.4498 31.7438 37.7608C31.0772 37.0158 30.6793 36.0176 30.7173 35.0116C30.8929 33.7982 31.3767 32.999 32.321 32.2383C33.5671 31.3446 35.267 31.4684 36.4929 32.3262ZM32.473 33.9427C32.1535 34.3959 32.0252 34.9043 32.0862 35.4599C32.2337 36.2366 32.6355 36.7726 33.2819 37.2188C33.8693 37.5028 34.5154 37.5146 35.1375 37.3276C35.8184 37.0216 36.1922 36.5795 36.5046 35.9122C36.6738 35.0831 36.5462 34.4397 36.0886 33.7325C35.6982 33.3072 35.182 33.0496 34.6153 32.9579C33.6886 32.9202 33.0489 33.2217 32.473 33.9427Z" fill="#FF7705"></path>
  <path d="M23.4311 9.43945C23.6742 9.44651 23.7879 9.45446 23.9995 9.58008C24.1222 9.8025 24.1135 9.96877 24.0932 10.2188C24.2556 10.2304 24.2556 10.2304 24.4213 10.2422C24.8564 10.2957 25.2275 10.4458 25.5932 10.6875C25.7362 10.9734 25.7091 11.2165 25.687 11.5312C25.5874 11.7129 25.5874 11.7129 25.4057 11.8125C24.9941 11.8629 24.6783 11.7962 24.2924 11.666C23.6916 11.4709 23.1919 11.563 22.5932 11.7188C22.6115 11.9016 22.6115 11.9016 22.687 12.0938C23.0703 12.3519 23.5501 12.374 23.9976 12.4387C24.7287 12.5599 25.1545 12.9234 25.5932 13.5C25.7984 13.9104 25.7503 14.4771 25.6361 14.9128C25.3879 15.4324 24.8829 15.7058 24.3745 15.9375C24.2817 15.9375 24.1888 15.9375 24.0932 15.9375C24.099 16.009 24.1048 16.0806 24.1108 16.1543C24.0932 16.4062 24.0932 16.4062 23.9995 16.5762C23.7 16.754 23.4003 16.7516 23.062 16.6875C22.8745 16.5234 22.8745 16.5234 22.7807 16.3125C22.7807 16.1887 22.7807 16.065 22.7807 15.9375C22.6879 15.9298 22.5951 15.922 22.4995 15.9141C22.0867 15.8552 21.7211 15.6999 21.3745 15.4688C21.187 15.1875 21.187 15.1875 21.2045 14.8535C21.2807 14.5312 21.2807 14.5312 21.562 14.3438C21.9736 14.3017 22.2895 14.3594 22.6752 14.4902C23.1353 14.6391 23.5308 14.6587 23.9995 14.5312C24.0923 14.4694 24.1851 14.4075 24.2807 14.3438C24.2807 14.2509 24.2807 14.1581 24.2807 14.0625C23.8797 13.8194 23.4255 13.7834 22.97 13.7175C22.3405 13.6132 21.8704 13.3351 21.4726 12.821C21.2415 12.4329 21.1575 12.0384 21.2159 11.5906C21.3642 11.0435 21.6395 10.6976 22.1245 10.4062C22.3458 10.3173 22.5456 10.2667 22.7807 10.2188C22.7923 10.1298 22.8039 10.0409 22.8159 9.94922C22.9042 9.50732 22.9798 9.47527 23.4311 9.43945Z" fill="#FF7705"></path>
  <path d="M17.7434 23.0486C17.9003 23.0475 17.9003 23.0475 18.0604 23.0465C18.1758 23.0463 18.2911 23.046 18.4099 23.0458C18.531 23.0451 18.652 23.0445 18.7767 23.0439C19.1093 23.0423 19.4419 23.0413 19.7745 23.0405C19.9822 23.04 20.1899 23.0394 20.3976 23.0389C21.0472 23.0371 21.6968 23.0357 22.3465 23.0349C23.0968 23.034 23.8471 23.0316 24.5975 23.0278C25.1772 23.025 25.7569 23.0236 26.3366 23.0233C26.683 23.023 27.0293 23.0222 27.3757 23.0198C27.762 23.0172 28.1482 23.0176 28.5346 23.0183C28.707 23.0165 28.707 23.0165 28.8829 23.0146C29.0406 23.0156 29.0406 23.0156 29.2016 23.0166C29.2929 23.0164 29.3843 23.0162 29.4784 23.0159C29.7895 23.076 29.9009 23.1906 30.0938 23.4373C30.1406 23.7186 30.1406 23.7186 30.0938 23.9998C29.9005 24.2472 29.7889 24.3612 29.4772 24.4218C29.3853 24.4218 29.2933 24.4218 29.1986 24.4218C29.0928 24.4228 28.987 24.4237 28.878 24.4246C28.7045 24.4233 28.7045 24.4233 28.5274 24.4219C28.3442 24.4226 28.3442 24.4226 28.1573 24.4234C27.8226 24.4247 27.488 24.4237 27.1533 24.4221C26.803 24.4208 26.4528 24.4214 26.1026 24.4218C25.5146 24.422 24.9266 24.4208 24.3386 24.4186C23.6586 24.4161 22.9785 24.4159 22.2985 24.417C21.6444 24.418 20.9904 24.4175 20.3364 24.4161C20.0579 24.4156 19.7795 24.4156 19.501 24.416C19.1125 24.4166 18.724 24.4148 18.3354 24.4127C18.1616 24.4134 18.1616 24.4134 17.9843 24.414C17.8788 24.4131 17.7732 24.4121 17.6645 24.4112C17.5726 24.411 17.4807 24.4107 17.386 24.4105C17.117 24.3688 17.0361 24.3088 16.875 24.0936C16.793 23.8709 16.793 23.8709 16.7812 23.6248C17.0247 23.1147 17.1986 23.0509 17.7434 23.0486Z" fill="#FF7705"></path>
  <path d="M17.7735 27.9222C17.8702 27.9215 17.8702 27.9215 17.9689 27.9208C18.1831 27.9194 18.3973 27.9188 18.6116 27.9182C18.76 27.9177 18.9084 27.9172 19.0569 27.9166C19.3685 27.9156 19.6801 27.9151 19.9917 27.9148C20.3914 27.9142 20.791 27.912 21.1907 27.9093C21.4974 27.9076 21.8041 27.9071 22.1109 27.9069C22.2582 27.9067 22.4056 27.9059 22.5529 27.9047C22.759 27.9031 22.965 27.9033 23.171 27.9039C23.2884 27.9035 23.4057 27.9032 23.5266 27.9028C23.8125 27.9373 23.8125 27.9373 23.9907 28.0599C24.1678 28.3325 24.1323 28.5608 24.0938 28.8748C23.8883 29.1549 23.7767 29.2403 23.4306 29.2968C23.3176 29.2968 23.2047 29.2968 23.0883 29.2968C23.0258 29.2973 22.9632 29.2978 22.8988 29.2984C22.6926 29.2995 22.4865 29.298 22.2803 29.2963C22.1367 29.2963 21.9931 29.2964 21.8495 29.2967C21.5487 29.2968 21.248 29.2957 20.9473 29.2935C20.5621 29.2909 20.1769 29.2911 19.7916 29.2923C19.4952 29.293 19.1987 29.2922 18.9023 29.2911C18.7602 29.2906 18.6182 29.2906 18.4762 29.291C18.2776 29.2913 18.079 29.2897 17.8804 29.2877C17.7675 29.2872 17.6545 29.2867 17.5382 29.2861C17.2256 29.2467 17.0967 29.1881 16.875 28.9685C16.7871 28.7459 16.7871 28.7459 16.7812 28.4998C17.0583 27.9456 17.164 27.9255 17.7735 27.9222Z" fill="#FF7705"></path>
</svg>
