<?xml version="1.0" encoding="UTF-8"?>
<svg xmlns="http://www.w3.org/2000/svg" width="21" height="20" viewBox="0 0 21 20" fill="none">
  <path d="M5.3057 18H1.77927V6.64384H5.3057V18ZM3.54388 5.09326C2.41239 5.09326 1.49963 4.17605 1.49963 3.04616C1.49963 1.91629 2.41146 1 3.54388 1C4.67629 1 5.58535 1.91721 5.58535 3.04616C5.58535 4.17605 4.67075 5.09326 3.54388 5.09326ZM18.4996 18H14.9769V12.4781C14.9769 11.1615 14.9538 9.4676 13.1467 9.4676C11.3397 9.4676 11.0342 10.9026 11.0342 12.3838V18H7.51515V6.64384H10.8921V8.19626H10.94C11.4098 7.30308 12.5588 6.36275 14.2736 6.36275C17.8397 6.36275 18.4986 8.71312 18.4986 11.7727L18.4996 18Z" fill="#FF7705"></path>
</svg>
