<?xml version="1.0" encoding="UTF-8"?>
<svg xmlns="http://www.w3.org/2000/svg" width="48" height="48" viewBox="0 0 48 48" fill="none">
  <path d="M6.49404 0.162392C6.60987 0.161967 6.72571 0.161543 6.84505 0.161105C7.16546 0.160125 7.48584 0.159982 7.80625 0.160204C8.15225 0.160242 8.49825 0.159206 8.84425 0.158318C9.52173 0.156762 10.1992 0.156245 10.8767 0.156141C11.4276 0.156051 11.9784 0.155666 12.5293 0.155072C14.0921 0.153421 15.655 0.152556 17.2178 0.152696C17.302 0.152704 17.3862 0.152711 17.473 0.152719C17.5573 0.152727 17.6416 0.152734 17.7285 0.152742C19.0945 0.152818 20.4605 0.151024 21.8265 0.148381C23.2301 0.145685 24.6337 0.144392 26.0373 0.144554C26.825 0.144617 27.6126 0.144104 28.4002 0.142083C29.0709 0.140374 29.7415 0.139971 30.4122 0.141241C30.7541 0.141852 31.096 0.141869 31.4379 0.140238C31.8092 0.138484 32.1805 0.139662 32.5519 0.141106C32.659 0.140142 32.766 0.139177 32.8764 0.138184C33.7474 0.14565 34.6436 0.31645 35.2914 0.945139C35.9654 1.77517 36.0612 2.54753 35.9683 3.57991C35.9364 3.9535 35.9197 4.32786 35.9018 4.70234C35.8979 4.78032 35.8941 4.85829 35.8901 4.93863C35.6888 8.14695 35.6888 8.14695 37.1242 10.8922C37.8473 11.6208 38.6536 12.2631 39.5103 12.8276C39.6562 12.9375 39.6562 12.9375 39.7499 13.125C39.7601 13.4119 39.7644 13.6969 39.7647 13.9839C39.7652 14.074 39.7657 14.1642 39.7661 14.257C39.7676 14.5609 39.7684 14.8648 39.7691 15.1687C39.77 15.3857 39.771 15.6028 39.772 15.8199C39.7745 16.4108 39.7765 17.0018 39.7783 17.5927C39.7804 18.2097 39.783 18.8267 39.7855 19.4436C39.7896 20.4797 39.7934 21.5158 39.797 22.5519C39.8007 23.6192 39.8046 24.6865 39.8087 25.7537C39.809 25.8195 39.8093 25.8853 39.8095 25.953C39.8108 26.2829 39.8121 26.6128 39.8134 26.9427C39.8241 29.6805 39.8341 32.4184 39.8437 35.1562C39.9383 35.1865 40.0329 35.2168 40.1305 35.248C40.2569 35.2892 40.3834 35.3304 40.5098 35.3715C40.5719 35.3913 40.634 35.4112 40.698 35.4316C42.3491 35.9726 43.4689 37.1218 44.303 38.6048C45.0617 40.1426 45.119 41.8927 44.5953 43.5068C43.9659 45.2789 42.7772 46.5007 41.0998 47.2994C40.027 47.7643 39.0162 47.8265 37.8595 47.8256C37.7358 47.8259 37.6121 47.8262 37.4847 47.8265C37.1428 47.8272 36.8008 47.8274 36.4589 47.8275C36.0896 47.8276 35.7203 47.8284 35.3509 47.829C34.5442 47.8303 33.7375 47.8308 32.9307 47.8312C32.4268 47.8315 31.9229 47.8319 31.419 47.8323C30.023 47.8335 28.6271 47.8344 27.2312 47.8347C27.0973 47.8348 27.0973 47.8348 26.9608 47.8348C26.8713 47.8348 26.7818 47.8348 26.6897 47.8349C26.5084 47.8349 26.3271 47.8349 26.1459 47.835C26.011 47.835 26.011 47.835 25.8734 47.835C24.4157 47.8354 22.958 47.8371 21.5004 47.8392C20.0029 47.8415 18.5054 47.8426 17.0079 47.8427C16.1675 47.8428 15.3271 47.8434 14.4867 47.8451C13.7713 47.8465 13.0559 47.847 12.3405 47.8462C11.9756 47.8459 11.6108 47.8459 11.2459 47.8473C10.9116 47.8484 10.5773 47.8483 10.243 47.8472C10.0655 47.8469 9.88791 47.848 9.71037 47.8492C8.78934 47.8439 8.0594 47.7145 7.38089 47.0617C6.75021 46.3357 6.80026 45.5398 6.84365 44.625C6.75302 44.6282 6.66238 44.6315 6.569 44.6349C5.63239 44.6543 4.76038 44.6249 3.99343 44.0229C3.43378 43.4701 3.12544 42.8257 3.06994 42.0386C3.0698 41.9181 3.06967 41.7975 3.06954 41.6734C3.06904 41.5716 3.06904 41.5716 3.06854 41.4677C3.06767 41.2407 3.06813 41.0138 3.06858 40.7868C3.06823 40.6222 3.0678 40.4577 3.0673 40.2931C3.06615 39.8412 3.06617 39.3894 3.06639 38.9375C3.06643 38.45 3.0654 37.9625 3.06451 37.475C3.06295 36.5201 3.06244 35.5651 3.06233 34.6101C3.06224 33.8339 3.06186 33.0576 3.06126 32.2813C3.05961 30.0804 3.05875 27.8795 3.05889 25.6785C3.05889 25.5599 3.0589 25.4412 3.05891 25.319C3.05892 25.2002 3.05892 25.0814 3.05893 24.959C3.05901 23.0337 3.05721 21.1084 3.05457 19.1831C3.05188 17.2062 3.05058 15.2293 3.05074 13.2523C3.05081 12.1424 3.05029 11.0326 3.04827 9.9227C3.04657 8.97773 3.04616 8.03277 3.04743 7.0878C3.04804 6.60577 3.04805 6.12377 3.04643 5.64174C3.04495 5.20015 3.04522 4.75858 3.04686 4.31699C3.04714 4.15756 3.0468 3.99814 3.04576 3.83872C3.03973 2.85398 3.10741 2.00828 3.62686 1.14254C4.50922 0.307877 5.31664 0.159224 6.49404 0.162392ZM4.55264 2.06832C4.32587 2.49465 4.30049 2.7968 4.29982 3.27534C4.2996 3.34223 4.29938 3.40913 4.29915 3.47805C4.29852 3.70393 4.29857 3.9298 4.29861 4.15568C4.2983 4.31858 4.29795 4.48148 4.29756 4.64437C4.29662 5.09336 4.29627 5.54235 4.29603 5.99134C4.29566 6.47506 4.29476 6.95878 4.29394 7.4425C4.29209 8.61133 4.29115 9.78017 4.29031 10.949C4.2899 11.4991 4.2894 12.0493 4.28891 12.5994C4.28731 14.4276 4.28595 16.2559 4.28527 18.0841C4.2851 18.5587 4.28492 19.0333 4.28473 19.5079C4.28469 19.6259 4.28464 19.7438 4.28459 19.8654C4.28382 21.7769 4.28144 23.6885 4.2784 25.6C4.2753 27.5616 4.27361 29.5231 4.27331 31.4847C4.2731 32.5865 4.27228 33.6882 4.26989 34.7899C4.26786 35.7281 4.2671 36.6663 4.26801 37.6044C4.26844 38.0832 4.26825 38.5619 4.26644 39.0407C4.26479 39.479 4.26488 39.9172 4.26634 40.3555C4.26656 40.5141 4.26615 40.6726 4.26504 40.8312C4.24402 41.9412 4.24402 41.9412 4.6874 42.9375C5.21212 43.3638 5.59628 43.4187 6.25772 43.4121C6.36745 43.4112 6.47718 43.4104 6.59024 43.4095C6.67386 43.4084 6.75749 43.4073 6.84365 43.4062C6.84367 43.3256 6.84369 43.2451 6.84372 43.162C6.84498 38.3866 6.84868 33.6111 6.85555 28.8356C6.85637 28.2623 6.85717 27.6889 6.85796 27.1155C6.85812 27.0014 6.85827 26.8873 6.85844 26.7697C6.86094 24.9213 6.86179 23.0729 6.86203 21.2245C6.86232 19.328 6.86438 17.4315 6.86808 15.5349C6.87031 14.3646 6.87115 13.1943 6.87023 12.024C6.86973 11.2215 6.87096 10.4191 6.87353 9.61663C6.87496 9.1536 6.87564 8.69061 6.87427 8.22758C6.87304 7.80341 6.87397 7.37931 6.8766 6.95515C6.87717 6.80196 6.87696 6.64876 6.87587 6.49556C6.87039 5.66147 6.88492 4.91713 7.40615 4.21871C8.08456 3.56169 8.7774 3.44063 9.69063 3.44175C9.82046 3.44081 9.82046 3.44081 9.95291 3.43986C10.2419 3.43802 10.5309 3.43751 10.8199 3.43701C11.0276 3.43599 11.2352 3.4349 11.4428 3.43374C12.0061 3.43088 12.5693 3.42928 13.1326 3.42809C13.4846 3.42733 13.8366 3.42638 14.1886 3.42537C15.164 3.42266 16.1395 3.42031 17.115 3.41931C17.2085 3.41922 17.2085 3.41921 17.3039 3.41912C17.3663 3.41905 17.4288 3.41899 17.4932 3.41892C17.6198 3.41879 17.7464 3.41865 17.873 3.41852C17.9358 3.41845 17.9986 3.41839 18.0633 3.41832C19.0812 3.41717 20.0991 3.41316 21.1171 3.40793C22.1633 3.4026 23.2096 3.39981 24.2559 3.39934C24.8429 3.39902 25.4298 3.39763 26.0168 3.3936C26.5688 3.38987 27.1207 3.38927 27.6727 3.39106C27.8751 3.39118 28.0775 3.39017 28.2799 3.38796C28.5566 3.38511 28.8331 3.38632 29.1098 3.38853C29.1896 3.38675 29.2694 3.38497 29.3516 3.38313C29.9158 3.39384 30.1928 3.56961 30.5938 3.96192C30.6453 4.01573 30.6968 4.06953 30.7499 4.12496C30.8288 4.20034 30.9077 4.27571 30.9889 4.35336C31.0569 4.42186 31.1249 4.49035 31.195 4.56091C31.2735 4.6397 31.3519 4.71848 31.4328 4.79965C31.5148 4.88239 31.5967 4.96513 31.6812 5.05038C31.8127 5.18245 31.9442 5.31452 32.0758 5.44658C32.3039 5.67576 32.5318 5.90526 32.7597 6.13473C33.0344 6.41134 33.3091 6.68789 33.5842 6.96408C33.7549 7.13549 33.9254 7.30711 34.0957 7.47896C34.1721 7.55568 34.2485 7.63239 34.3272 7.71143C34.3947 7.7794 34.4622 7.84737 34.5317 7.9174C34.6634 8.07311 34.6634 8.07311 34.7812 8.06246C34.7899 7.35262 34.7965 6.64279 34.8006 5.93291C34.8025 5.60323 34.8052 5.27358 34.8094 4.94393C34.8143 4.56437 34.8161 4.18485 34.8178 3.80526C34.8197 3.68766 34.8216 3.57006 34.8236 3.44889C34.8238 2.81017 34.8028 2.38731 34.4062 1.87496C33.9688 1.53581 33.6407 1.39472 33.0921 1.39363C32.9944 1.39321 32.8966 1.39279 32.7959 1.39236C32.6882 1.39238 32.5805 1.3924 32.4694 1.39242C32.3553 1.39207 32.2411 1.39173 32.1235 1.39137C31.8059 1.39052 31.4884 1.39008 31.1709 1.38984C30.8287 1.38947 30.4864 1.38857 30.1442 1.38775C29.3174 1.3859 28.4907 1.38496 27.6639 1.38412C27.2746 1.38371 26.8853 1.38321 26.4959 1.38272C25.2019 1.38112 23.9078 1.37976 22.6137 1.37908C22.2778 1.3789 21.942 1.37872 21.6061 1.37854C21.5227 1.3785 21.4392 1.37845 21.3532 1.3784C20.0009 1.37763 18.6486 1.37525 17.2963 1.37221C15.9081 1.36911 14.5198 1.36742 13.1316 1.36712C12.3521 1.36691 11.5726 1.36609 10.7931 1.3637C10.1293 1.36166 9.46545 1.36091 8.80159 1.36182C8.46295 1.36225 8.12434 1.36207 7.7857 1.36025C7.41833 1.35829 7.051 1.35925 6.68363 1.36049C6.57693 1.35946 6.47024 1.35843 6.36032 1.35737C5.60739 1.36349 5.03745 1.4592 4.55264 2.06832ZM8.23708 5.12349C8.0318 5.49248 8.01542 5.71448 8.01521 6.13468C8.01467 6.20323 8.01412 6.27177 8.01356 6.34239C8.01219 6.5722 8.01349 6.80193 8.01478 7.03174C8.01435 7.19811 8.01376 7.36447 8.01301 7.53084C8.01144 7.98812 8.01222 8.44536 8.01338 8.90264C8.01423 9.39575 8.01292 9.88885 8.01189 10.382C8.01022 11.348 8.01058 12.314 8.01167 13.2801C8.01252 14.065 8.01263 14.85 8.01222 15.635C8.01217 15.7467 8.01211 15.8583 8.01205 15.9733C8.01193 16.2001 8.01181 16.4269 8.01168 16.6537C8.01061 18.7812 8.01184 20.9087 8.01386 23.0363C8.01553 24.8625 8.01524 26.6888 8.01351 28.5151C8.01151 30.6349 8.01072 32.7547 8.01187 34.8745C8.01199 35.1005 8.01211 35.3265 8.01222 35.5524C8.01228 35.6636 8.01234 35.7748 8.0124 35.8893C8.01272 36.6735 8.01217 37.4578 8.01129 38.242C8.01024 39.1974 8.01052 40.1529 8.01252 41.1083C8.01351 41.596 8.01389 42.0836 8.01265 42.5713C8.01154 43.0175 8.01215 43.4637 8.01415 43.9099C8.01457 44.0715 8.01435 44.2331 8.01344 44.3947C8.01231 44.6141 8.01347 44.8334 8.01521 45.0527C8.01527 45.1747 8.01533 45.2966 8.0154 45.4223C8.07084 45.8088 8.19471 46.0102 8.4374 46.3125C8.93469 46.673 9.45312 46.6325 10.0427 46.6275C10.1481 46.6278 10.2535 46.628 10.3621 46.6283C10.7153 46.6287 11.0685 46.6272 11.4218 46.6256C11.675 46.6256 11.9281 46.6256 12.1813 46.6258C12.7264 46.6259 13.2715 46.625 13.8166 46.6235C14.6047 46.6212 15.3929 46.6204 16.181 46.6201C17.4597 46.6195 18.7385 46.6176 20.0172 46.6149C21.2593 46.6124 22.5014 46.6104 23.7434 46.6092C23.82 46.6091 23.8966 46.609 23.9755 46.6089C24.3597 46.6086 24.7439 46.6082 25.128 46.6079C28.3145 46.605 31.5009 46.6 34.6874 46.5937C34.614 46.5204 34.5406 46.4472 34.4649 46.3717C33.092 44.9962 32.2489 43.4388 32.2147 41.4726C32.2212 39.6865 32.8692 38.0719 34.1385 36.8053C34.5405 36.4406 34.9591 36.1607 35.4374 35.9062C35.5601 35.84 35.5601 35.84 35.6853 35.7725C36.5881 35.3245 37.5389 35.1865 38.5312 35.0625C38.5312 28.0706 38.5312 21.0787 38.5312 13.875C36.0252 13.844 33.5193 13.8131 30.9374 13.7812C30.0889 13.357 30.0889 13.357 29.8241 13.0371C29.7462 12.9459 29.7462 12.9459 29.6666 12.8529C29.3536 12.3986 29.3153 11.9772 29.3138 11.4372C29.3123 11.326 29.3123 11.326 29.3109 11.2125C29.308 10.9685 29.3064 10.7246 29.3048 10.4806C29.3031 10.311 29.3012 10.1414 29.2993 9.9718C29.2945 9.52624 29.2908 9.08068 29.2873 8.6351C29.2836 8.18012 29.2788 7.72514 29.2741 7.27017C29.265 6.37802 29.2571 5.48587 29.2499 4.59371C26.6193 4.58715 23.9888 4.58219 21.3582 4.57914C20.1368 4.57769 18.9155 4.57571 17.6941 4.5725C16.6296 4.56969 15.5652 4.56788 14.5007 4.56725C13.937 4.56688 13.3733 4.56602 12.8096 4.56398C12.2791 4.56207 11.7486 4.56148 11.2182 4.5619C11.0234 4.56182 10.8286 4.56126 10.6338 4.56019C10.368 4.55879 10.1022 4.55912 9.83631 4.55989C9.72058 4.55866 9.72058 4.55866 9.60252 4.55741C9.0223 4.56194 8.61891 4.64979 8.23708 5.12349ZM30.4687 5.62496C30.4621 6.43584 30.4571 7.2467 30.4541 8.0576C30.4526 8.43414 30.4506 8.81067 30.4474 9.18721C30.4444 9.55072 30.4427 9.9142 30.442 10.2777C30.4414 10.4163 30.4404 10.5548 30.4389 10.6934C30.4369 10.8877 30.4366 11.082 30.4367 11.2764C30.4361 11.3869 30.4355 11.4975 30.4348 11.6114C30.4732 11.9458 30.5419 12.1117 30.7499 12.375C31.1133 12.662 31.3919 12.6907 31.8485 12.6881C31.9405 12.6882 31.9405 12.6882 32.0343 12.6883C32.2357 12.6881 32.4371 12.6859 32.6385 12.6837C32.7786 12.6832 32.9188 12.6828 33.0589 12.6825C33.4268 12.6814 33.7947 12.6786 34.1626 12.6755C34.5384 12.6726 34.9142 12.6714 35.29 12.6699C36.0266 12.6669 36.7633 12.6621 37.4999 12.6562C37.1144 12.1969 36.7144 11.7634 36.2898 11.3403C36.2277 11.278 36.1656 11.2157 36.1016 11.1515C35.8984 10.9479 35.6948 10.7446 35.4912 10.5413C35.3493 10.3994 35.2074 10.2574 35.0655 10.1154C34.7693 9.81902 34.4729 9.52283 34.1764 9.22676C33.7955 8.84635 33.4149 8.46551 33.0345 8.08455C32.7422 7.79189 32.4497 7.49945 32.1571 7.20707C32.0165 7.06663 31.8761 6.92611 31.7357 6.78553C31.5405 6.59004 31.345 6.39486 31.1493 6.19975C31.0909 6.14117 31.0325 6.08259 30.9724 6.02224C30.7552 5.75201 30.7552 5.75201 30.4687 5.62496ZM34.4999 38.1562C33.5819 39.3141 33.2935 40.6439 33.3749 42.0937C33.5613 43.4616 34.309 44.73 35.4063 45.5654C36.5955 46.3571 37.9306 46.7871 39.3562 46.5293C40.8488 46.2069 42.0302 45.5099 42.8843 44.2159C43.6267 42.9662 43.8677 41.7054 43.5878 40.2715C43.2246 38.8591 42.3789 37.7209 41.1272 36.981C38.808 35.7188 36.2756 36.2341 34.4999 38.1562Z" fill="#FF7705"></path>
  <path d="M11.5972 24.0348C11.7523 24.0338 11.7523 24.0338 11.9106 24.0328C12.2584 24.0311 12.6061 24.0329 12.9539 24.0345C13.2027 24.0341 13.4516 24.0334 13.7004 24.0325C14.3068 24.0308 14.9132 24.0316 15.5197 24.0333C16.0124 24.0346 16.5052 24.035 16.998 24.0346C17.1031 24.0346 17.1031 24.0346 17.2104 24.0345C17.3528 24.0344 17.4952 24.0343 17.6376 24.0342C18.8971 24.0334 20.1565 24.035 21.416 24.0377C22.6386 24.0405 23.8612 24.0411 25.0838 24.0397C26.4146 24.0381 27.7454 24.0377 29.0762 24.0394C29.2181 24.0395 29.36 24.0397 29.5018 24.0399C29.5716 24.04 29.6414 24.0401 29.7134 24.0401C30.2056 24.0407 30.6979 24.0404 31.1902 24.0397C31.79 24.039 32.3898 24.0396 32.9896 24.042C33.2957 24.0432 33.6018 24.0435 33.9079 24.0427C34.2395 24.0419 34.5711 24.0434 34.9026 24.0455C34.9998 24.0447 35.0969 24.0439 35.197 24.0431C35.8424 24.0507 35.8424 24.0507 36.1568 24.263C36.2812 24.4687 36.2812 24.4687 36.2753 24.8086C36.1874 25.125 36.1874 25.125 35.9062 25.3125C35.7093 25.336 35.7093 25.336 35.477 25.3361C35.3885 25.3365 35.2999 25.337 35.2087 25.3375C35.1112 25.3371 35.0137 25.3367 34.9133 25.3363C34.8099 25.3366 34.7065 25.3369 34.5999 25.3372C34.2516 25.3379 33.9034 25.3373 33.5551 25.3367C33.3061 25.337 33.0572 25.3373 32.8082 25.3377C32.2011 25.3386 31.594 25.3384 30.9869 25.3378C30.4936 25.3374 30.0004 25.3373 29.5071 25.3376C29.4369 25.3376 29.3668 25.3376 29.2946 25.3376C29.1521 25.3377 29.0096 25.3378 28.8672 25.3378C27.5305 25.3384 26.1938 25.3377 24.857 25.3367C23.7094 25.3359 22.5618 25.336 21.4141 25.3369C20.0823 25.3379 18.7504 25.3383 17.4186 25.3377C17.2766 25.3377 17.1347 25.3376 16.9928 25.3376C16.888 25.3375 16.888 25.3375 16.7811 25.3375C16.2883 25.3373 15.7954 25.3376 15.3026 25.338C14.7022 25.3385 14.1018 25.3384 13.5014 25.3374C13.1949 25.3369 12.8885 25.3368 12.582 25.3373C12.2502 25.3378 11.9184 25.3372 11.5866 25.3363C11.4891 25.3367 11.3916 25.3371 11.2912 25.3375C11.2026 25.337 11.114 25.3366 11.0228 25.3361C10.9462 25.336 10.8695 25.336 10.7906 25.336C10.5937 25.3125 10.5937 25.3125 10.3124 25.125C10.2006 24.7896 10.1839 24.6322 10.3431 24.3131C10.7299 23.9744 11.0989 24.0291 11.5972 24.0348Z" fill="#FF7705"></path>
  <path d="M11.1247 28.0894C11.2127 28.0886 11.3007 28.0878 11.3913 28.087C11.5359 28.0878 11.5359 28.0878 11.6833 28.0887C11.8372 28.0879 11.8372 28.0879 11.9942 28.0872C12.3391 28.0858 12.6841 28.0865 13.029 28.0872C13.2759 28.0866 13.5227 28.086 13.7695 28.0852C14.3711 28.0836 14.9727 28.0835 15.5742 28.084C16.0631 28.0844 16.552 28.0842 17.0409 28.0837C17.1105 28.0837 17.18 28.0836 17.2517 28.0835C17.3929 28.0834 17.5342 28.0832 17.6755 28.0831C19.0008 28.0818 20.326 28.0823 21.6513 28.0834C22.864 28.0843 24.0768 28.0831 25.2895 28.0809C26.5344 28.0786 27.7793 28.0777 29.0242 28.0783C29.7233 28.0786 30.4223 28.0784 31.1214 28.0768C31.7165 28.0754 32.3115 28.0753 32.9066 28.077C33.2103 28.0778 33.514 28.0778 33.8176 28.0765C34.1467 28.0753 34.4757 28.0764 34.8048 28.078C34.901 28.0771 34.9971 28.0762 35.0962 28.0753C35.505 28.0796 35.7495 28.0892 36.1102 28.2942C36.2813 28.5 36.2813 28.5 36.2754 28.8399C36.1875 29.1563 36.1875 29.1563 36 29.3438C35.8135 29.3675 35.8135 29.3675 35.5795 29.3679C35.4905 29.3685 35.4014 29.3691 35.3097 29.3697C35.162 29.3693 35.162 29.3693 35.0113 29.3689C34.9072 29.3693 34.8031 29.3697 34.6959 29.3701C34.3447 29.3713 33.9935 29.3712 33.6424 29.371C33.3916 29.3716 33.1408 29.3722 32.89 29.3729C32.278 29.3745 31.6661 29.375 31.0542 29.3751C30.557 29.3752 30.0598 29.3756 29.5625 29.3762C28.154 29.3778 26.7454 29.3787 25.3368 29.3786C25.2608 29.3785 25.1848 29.3785 25.1065 29.3785C24.9924 29.3785 24.9924 29.3785 24.876 29.3785C23.6425 29.3784 22.409 29.3802 21.1755 29.3829C19.9101 29.3856 18.6446 29.3869 17.3792 29.3867C16.6683 29.3866 15.9574 29.3872 15.2465 29.3892C14.6413 29.3909 14.0361 29.3913 13.431 29.39C13.122 29.3894 12.8131 29.3896 12.5041 29.391C12.1696 29.3924 11.8352 29.3916 11.5007 29.3901C11.3532 29.3916 11.3532 29.3916 11.2029 29.3931C11.1136 29.3922 11.0243 29.3913 10.9323 29.3905C10.8551 29.3905 10.7778 29.3905 10.6982 29.3906C10.5 29.3438 10.5 29.3438 10.332 29.1713C10.2188 28.9688 10.2188 28.9688 10.2246 28.6817C10.3732 28.216 10.6534 28.09 11.1247 28.0894Z" fill="#FF7705"></path>
  <path d="M10.9208 32.2258C11.0098 32.2252 11.0988 32.2246 11.1905 32.224C11.3383 32.2244 11.3383 32.2244 11.489 32.2249C11.593 32.2245 11.6971 32.224 11.8044 32.2236C12.1556 32.2224 12.5067 32.2226 12.8579 32.2227C13.1087 32.2222 13.3595 32.2215 13.6103 32.2208C14.2222 32.2193 14.8341 32.2187 15.4461 32.2186C15.9433 32.2186 16.4405 32.2182 16.9377 32.2176C18.3463 32.2159 19.7548 32.2151 21.1634 32.2152C21.2394 32.2152 21.3154 32.2152 21.3937 32.2152C21.5078 32.2152 21.5078 32.2152 21.6242 32.2152C22.8577 32.2153 24.0912 32.2135 25.3247 32.2109C26.5902 32.2082 27.8556 32.2069 29.121 32.2071C29.8319 32.2071 30.5428 32.2066 31.2537 32.2046C31.8589 32.2029 32.4641 32.2025 33.0693 32.2037C33.3783 32.2044 33.6872 32.2042 33.9961 32.2027C34.3307 32.2013 34.6651 32.2022 34.9996 32.2036C35.147 32.2022 35.147 32.2022 35.2974 32.2007C35.3867 32.2015 35.4759 32.2024 35.5679 32.2033C35.6452 32.2033 35.7224 32.2032 35.802 32.2032C36.0002 32.25 36.0002 32.25 36.1649 32.4257C36.313 32.6789 36.3391 32.8054 36.2815 33.0937C36.0793 33.3246 35.9116 33.4522 35.6048 33.5034C35.3378 33.5176 35.0731 33.5191 34.8057 33.517C34.6517 33.5179 34.6517 33.5179 34.4945 33.5189C34.1499 33.5207 33.8052 33.5197 33.4605 33.5187C33.2137 33.5194 32.9669 33.5202 32.72 33.5212C32.1188 33.5232 31.5175 33.5232 30.9163 33.5224C30.4277 33.5218 29.9391 33.5219 29.4504 33.5225C29.3809 33.5226 29.3114 33.5227 29.2397 33.5228C29.0985 33.523 28.9572 33.5231 28.816 33.5233C27.4913 33.5249 26.1667 33.5241 24.842 33.5225C23.6299 33.5211 22.4178 33.5225 21.2057 33.5252C19.9612 33.5279 18.7167 33.529 17.4722 33.5281C17.3315 33.528 17.1907 33.5279 17.05 33.5278C16.9808 33.5277 16.9115 33.5277 16.8402 33.5277C16.3521 33.5275 15.8641 33.5284 15.376 33.5297C14.7192 33.5315 14.0623 33.5309 13.4055 33.5286C13.1641 33.5281 12.9227 33.5285 12.6813 33.5296C12.3524 33.5311 12.0237 33.5297 11.6948 33.5276C11.5507 33.5293 11.5507 33.5293 11.4036 33.531C10.9622 33.5251 10.7539 33.5175 10.39 33.2493C10.219 33 10.219 33 10.2248 32.7011C10.3652 32.28 10.5012 32.2266 10.9208 32.2258Z" fill="#FF7705"></path>
  <path d="M11.1708 36.223C11.3485 36.2215 11.3485 36.2215 11.5297 36.2198C11.6607 36.2211 11.7917 36.2223 11.9228 36.2236C12.0609 36.2233 12.199 36.2228 12.3372 36.222C12.7122 36.2207 13.0871 36.2223 13.4621 36.2245C13.8544 36.2264 14.2466 36.2258 14.6389 36.2256C15.2975 36.2256 15.9561 36.2275 16.6147 36.2305C17.3766 36.2339 18.1384 36.2348 18.9003 36.2341C19.6328 36.2335 20.3653 36.2345 21.0979 36.2364C21.4098 36.2371 21.7217 36.2374 22.0337 36.2372C22.4008 36.2371 22.7679 36.2385 23.135 36.2409C23.2699 36.2416 23.4048 36.2418 23.5397 36.2415C23.7235 36.2411 23.9073 36.2427 24.0911 36.2443C24.2455 36.2448 24.2455 36.2448 24.4031 36.2454C24.6562 36.2813 24.6562 36.2813 24.83 36.4037C25.0109 36.671 24.9708 36.9076 24.9375 37.2188C24.83 37.3777 24.83 37.3777 24.6562 37.5C24.4028 37.5354 24.4028 37.5354 24.0905 37.5358C23.9721 37.5366 23.8538 37.5373 23.732 37.5382C23.6006 37.5376 23.4692 37.537 23.3379 37.5364C23.1998 37.5368 23.0616 37.5373 22.9235 37.5379C22.5481 37.5392 22.1728 37.5387 21.7974 37.5378C21.4049 37.5371 21.0124 37.5378 20.6199 37.5382C19.9607 37.5387 19.3015 37.5381 18.6423 37.5367C17.8798 37.5352 17.1173 37.5357 16.3547 37.5372C15.7005 37.5385 15.0463 37.5387 14.392 37.5379C14.0011 37.5375 13.6102 37.5375 13.2192 37.5384C12.8517 37.5392 12.4842 37.5386 12.1167 37.537C11.9817 37.5366 11.8466 37.5367 11.7116 37.5374C11.5276 37.5381 11.3436 37.537 11.1595 37.5358C11.0049 37.5356 11.0049 37.5356 10.8472 37.5354C10.5938 37.5 10.5938 37.5 10.4233 37.3711C10.267 37.1562 10.2251 37.0167 10.2188 36.75C10.488 36.3113 10.6618 36.2227 11.1708 36.223Z" fill="#FF7705"></path>
  <path d="M11.9064 16.7813C12.221 17.0488 12.3694 17.3048 12.5231 17.6851C12.5848 17.8355 12.5848 17.8355 12.6476 17.989C12.6892 18.0932 12.7308 18.1974 12.7736 18.3047C12.8166 18.4103 12.8597 18.516 12.904 18.6248C13.0098 18.8849 13.1148 19.1454 13.2189 19.4063C13.2593 19.302 13.2593 19.302 13.3005 19.1956C13.4229 18.8807 13.5465 18.5664 13.6701 18.252C13.7125 18.1425 13.7548 18.0331 13.7985 17.9204C13.8398 17.8155 13.8812 17.7107 13.9239 17.6027C13.9617 17.506 13.9995 17.4092 14.0384 17.3096C14.1497 17.0765 14.2363 16.9398 14.4377 16.7813C14.6398 16.7439 14.6398 16.7439 14.8595 16.7461C14.9321 16.7454 15.0046 16.7447 15.0793 16.7439C15.3324 16.7907 15.4029 16.8637 15.5627 17.0625C15.5984 17.2404 15.5984 17.2404 15.5991 17.4428C15.6 17.5189 15.6008 17.5949 15.6018 17.6732C15.6012 17.755 15.6006 17.8367 15.6 17.9209C15.6003 18.0052 15.6006 18.0894 15.6008 18.1762C15.601 18.3543 15.6005 18.5324 15.5993 18.7105C15.5978 18.9834 15.5993 19.2561 15.6011 19.5289C15.6009 19.7019 15.6006 19.8749 15.6 20.0479C15.6009 20.1705 15.6009 20.1705 15.6018 20.2956C15.6009 20.3716 15.6 20.4476 15.5991 20.526C15.5988 20.5928 15.5986 20.6596 15.5984 20.7284C15.5516 20.9614 15.4708 21.0472 15.2814 21.1875C14.9395 21.1666 14.7767 21.1515 14.5314 20.9063C14.5027 20.6344 14.4834 20.3702 14.4728 20.0977C14.4674 19.9849 14.4674 19.9849 14.4618 19.8699C14.453 19.6841 14.4452 19.4983 14.4377 19.3125C14.3947 19.4243 14.3516 19.5361 14.3073 19.6513C14.2493 19.7981 14.1911 19.945 14.133 20.0918C14.1048 20.1655 14.0767 20.2391 14.0477 20.315C13.769 21.0117 13.769 21.0117 13.4064 21.1875C13.1296 21.1762 12.9324 21.1578 12.7048 20.9931C12.4916 20.7222 12.3846 20.4112 12.2638 20.0918C12.2383 20.026 12.2127 19.9602 12.1864 19.8924C12.1237 19.7306 12.0618 19.5685 12.0002 19.4063C11.9978 19.5034 11.9953 19.6006 11.9928 19.7007C11.9876 19.8291 11.9822 19.9575 11.9767 20.086C11.9747 20.1818 11.9747 20.1818 11.9727 20.2797C11.9572 20.6001 11.9264 20.7857 11.7328 21.0454C11.5314 21.1875 11.5314 21.1875 11.2385 21.1875C10.9689 21.0938 10.9689 21.0938 10.8599 20.9493C10.7459 20.6145 10.7547 20.2861 10.7565 19.9365C10.7563 19.861 10.7562 19.7854 10.756 19.7075C10.7559 19.548 10.7562 19.3886 10.757 19.2291C10.758 18.9853 10.757 18.7415 10.7558 18.4977C10.7559 18.3425 10.7562 18.1874 10.7565 18.0322C10.7561 17.9595 10.7558 17.8867 10.7554 17.8118C10.761 17.1641 10.761 17.1641 10.9689 16.875C11.2623 16.7283 11.5887 16.7159 11.9064 16.7813Z" fill="#FF7705"></path>
  <path d="M20.9843 16.7113C21.443 16.8692 21.6787 17.3333 21.9376 17.7188C21.9786 17.779 22.0195 17.8392 22.0618 17.9012C22.3375 18.3062 22.6079 18.7144 22.8751 19.125C22.8764 19.064 22.8778 19.003 22.8792 18.9402C22.8862 18.6639 22.8952 18.3876 22.9043 18.1114C22.9065 18.0154 22.9086 17.9193 22.9108 17.8204C22.9141 17.7283 22.9174 17.6361 22.9208 17.5412C22.9233 17.4562 22.9257 17.3713 22.9283 17.2838C22.9761 17.0226 23.0366 16.9357 23.2501 16.7813C23.5372 16.752 23.5372 16.752 23.8126 16.7813C24.1035 17.0723 24.0306 17.4241 24.0315 17.8147C24.0322 17.8989 24.0328 17.9831 24.0334 18.0698C24.0344 18.248 24.0348 18.4263 24.0348 18.6046C24.0352 18.8772 24.0386 19.1498 24.0422 19.4224C24.0427 19.5955 24.0431 19.7686 24.0433 19.9417C24.0446 20.0232 24.046 20.1048 24.0473 20.1888C24.0431 20.7517 24.0431 20.7517 23.8296 21.0534C23.6251 21.1875 23.6251 21.1875 23.3086 21.2051C22.5914 20.9702 22.2049 20.1599 21.8086 19.5528C21.7575 19.4753 21.7064 19.3977 21.6537 19.3179C21.5292 19.1288 21.4051 18.9396 21.2813 18.75C21.2804 18.8139 21.2796 18.8777 21.2786 18.9435C21.2736 19.2326 21.2658 19.5216 21.2579 19.8106C21.2559 19.9613 21.2559 19.9613 21.2538 20.1151C21.2508 20.2115 21.2478 20.3079 21.2447 20.4072C21.2427 20.496 21.2408 20.5849 21.2387 20.6764C21.1876 20.9063 21.1876 20.9063 21.0119 21.0792C20.8126 21.1875 20.8126 21.1875 20.5665 21.17C20.3438 21.0938 20.3438 21.0938 20.1563 20.9063C20.1364 20.6282 20.1278 20.3591 20.1281 20.0809C20.1277 19.9988 20.1273 19.9167 20.1269 19.8321C20.1263 19.6583 20.1263 19.4844 20.1267 19.3106C20.127 19.0447 20.1248 18.779 20.1224 18.5131C20.1222 18.3443 20.1221 18.1755 20.1222 18.0066C20.1214 17.9271 20.1205 17.8476 20.1196 17.7657C20.1222 17.4384 20.1261 17.215 20.2775 16.9208C20.4963 16.7301 20.6976 16.6941 20.9843 16.7113Z" fill="#FF7705"></path>
  <path d="M25.0315 16.7344C25.3127 16.7812 25.3127 16.7812 25.4681 16.9341C25.6307 17.2211 25.6329 17.4282 25.6387 17.7572C25.6416 17.8732 25.6445 17.9891 25.6475 18.1086C25.65 18.2898 25.65 18.2898 25.6526 18.4746C25.6574 18.714 25.6625 18.9534 25.668 19.1927C25.6696 19.2989 25.6713 19.405 25.673 19.5143C25.6764 19.7883 25.6764 19.7883 25.7815 20.0625C25.9319 20.065 26.0823 20.0669 26.2327 20.0684C26.3583 20.07 26.3583 20.07 26.4864 20.0717C26.7316 20.0728 26.7316 20.0728 27.0002 19.9688C27.0016 19.8888 27.003 19.8089 27.0044 19.7266C27.0101 19.4287 27.0171 19.1308 27.0248 18.8329C27.0279 18.7043 27.0306 18.5756 27.0327 18.4469C27.0359 18.2614 27.0409 18.076 27.046 17.8905C27.0485 17.7791 27.0509 17.6676 27.0535 17.5528C27.0975 17.2239 27.171 17.0413 27.3752 16.7812C27.6565 16.7285 27.6565 16.7285 27.9377 16.7812C28.2337 17.0766 28.255 17.3115 28.2563 17.7202C28.2569 17.8846 28.2569 17.8846 28.2574 18.0524C28.2564 18.1666 28.2553 18.2808 28.2541 18.3984C28.2552 18.5112 28.2563 18.6239 28.2574 18.7401C28.2549 19.4973 28.2145 20.0916 27.7268 20.7012C27.2204 21.104 26.7532 21.2418 26.1155 21.2205C25.5967 21.1493 25.1818 20.9551 24.803 20.5957C24.3995 19.9018 24.4376 19.1872 24.4397 18.4043C24.4382 18.2897 24.4367 18.175 24.4351 18.0569C24.4351 17.9469 24.435 17.8369 24.4349 17.7235C24.4346 17.6236 24.4344 17.5237 24.4341 17.4208C24.4892 17.0028 24.6093 16.8047 25.0315 16.7344Z" fill="#FF7705"></path>
  <path d="M41.3438 39.6563C41.5254 39.8145 41.5254 39.8145 41.625 40.0313C41.5934 40.4671 41.4994 40.6846 41.1939 40.9933C41.1225 41.0664 41.0511 41.1396 40.9776 41.2149C40.8999 41.292 40.8221 41.3691 40.7421 41.4485C40.6624 41.5289 40.5827 41.6092 40.5006 41.692C40.332 41.8614 40.1627 42.0301 39.993 42.1983C39.7332 42.4563 39.4763 42.7169 39.2195 42.9778C39.0553 43.142 38.891 43.3061 38.7264 43.47C38.6497 43.5482 38.5729 43.6264 38.4938 43.707C38.4209 43.7784 38.3481 43.8498 38.273 43.9233C38.2096 43.9866 38.1462 44.0498 38.0808 44.115C37.8101 44.2926 37.6301 44.2822 37.3125 44.25C37.1298 44.1427 37.1298 44.1427 36.9668 43.9863C36.9044 43.9268 36.8421 43.8672 36.7778 43.8058C36.7068 43.7358 36.6357 43.6659 36.5625 43.5938C36.4721 43.5112 36.3817 43.4287 36.2886 43.3436C36.1942 43.2553 36.1 43.1668 36.0059 43.0781C35.918 42.996 35.8301 42.9138 35.7396 42.8291C35.4913 42.5115 35.4479 42.3059 35.4375 41.9063C35.584 41.6777 35.584 41.6777 35.8125 41.5313C36.0942 41.4829 36.2855 41.4684 36.526 41.6373C36.6827 41.7835 36.8282 41.9354 36.9727 42.0938C37.0238 42.1474 37.0749 42.2011 37.1276 42.2564C37.253 42.3884 37.3767 42.5222 37.5 42.6563C37.9362 42.2922 38.3484 41.9137 38.7469 41.5089C38.7997 41.4558 38.8524 41.4028 38.9067 41.3481C39.0728 41.1808 39.2386 41.0133 39.4043 40.8457C39.6244 40.6232 39.8447 40.4009 40.0653 40.1788C40.1156 40.1278 40.1659 40.0767 40.2177 40.0241C40.6219 39.6173 40.7731 39.5049 41.3438 39.6563Z" fill="#FF7705"></path>
  <path d="M30.3221 16.7344C30.6561 16.7812 30.6561 16.7812 30.8443 16.9746C31.0558 17.2863 31.2091 17.6072 31.3549 17.9528C31.3835 18.0194 31.4121 18.0861 31.4415 18.1548C31.5015 18.2951 31.561 18.4356 31.6202 18.5763C31.7106 18.7906 31.8029 19.004 31.8954 19.2175C31.9536 19.3544 32.0117 19.4915 32.0697 19.6285C32.111 19.7235 32.111 19.7235 32.1531 19.8204C32.3093 20.1966 32.3826 20.4992 32.3436 20.9062C32.2382 21.0879 32.2382 21.0879 32.0624 21.1875C31.7811 21.1875 31.7811 21.1875 31.4999 21.0938C31.2595 20.7953 31.1926 20.5267 31.1249 20.1562C30.2254 20.0926 30.2254 20.0926 29.4517 20.4166C29.3566 20.6153 29.3566 20.6153 29.3066 20.8209C29.2499 21 29.2499 21 28.9686 21.1875C28.6571 21.1571 28.5366 21.1305 28.3124 20.9062C28.25 20.4021 28.412 20.0317 28.6101 19.5809C28.6407 19.5096 28.6712 19.4382 28.7027 19.3647C28.7672 19.2145 28.8322 19.0646 28.8977 18.9149C28.9978 18.6858 29.096 18.4561 29.194 18.2261C29.2571 18.08 29.3203 17.934 29.3835 17.788C29.4128 17.7194 29.4422 17.6508 29.4724 17.5802C29.8123 16.8085 29.8123 16.8085 30.3221 16.7344ZM30.2811 18.4688C30.1442 18.7169 30.0936 18.8339 30.0936 19.125C30.2792 19.125 30.4649 19.125 30.6561 19.125C30.5633 18.9084 30.4705 18.6919 30.3749 18.4688C30.3439 18.4688 30.313 18.4688 30.2811 18.4688Z" fill="#FF7705"></path>
  <path d="M17.8534 16.7344C18.1874 16.7812 18.1874 16.7812 18.3755 16.9746C18.587 17.2863 18.7404 17.6072 18.8861 17.9528C18.9147 18.0194 18.9433 18.0861 18.9728 18.1548C19.0327 18.2951 19.0922 18.4356 19.1514 18.5763C19.2419 18.7906 19.3342 19.004 19.4266 19.2175C19.4849 19.3544 19.543 19.4915 19.6009 19.6285C19.6422 19.7235 19.6422 19.7235 19.6844 19.8204C19.8406 20.1966 19.9138 20.4992 19.8749 20.9062C19.7694 21.0879 19.7694 21.0879 19.5936 21.1875C19.3124 21.1875 19.3124 21.1875 19.0311 21.0938C18.7907 20.7953 18.7239 20.5267 18.6561 20.1562C17.7566 20.0926 17.7566 20.0926 16.9829 20.4166C16.8879 20.6153 16.8879 20.6153 16.8379 20.8209C16.7811 21 16.7811 21 16.4999 21.1875C16.1884 21.1571 16.0679 21.1305 15.8436 20.9062C15.7813 20.4021 15.9433 20.0317 16.1414 19.5809C16.1719 19.5096 16.2024 19.4382 16.2339 19.3647C16.2985 19.2145 16.3635 19.0646 16.429 18.9149C16.5291 18.6858 16.6273 18.4561 16.7253 18.2261C16.7883 18.08 16.8515 17.934 16.9148 17.788C16.9441 17.7194 16.9734 17.6508 17.0036 17.5802C17.3436 16.8085 17.3436 16.8085 17.8534 16.7344ZM17.8124 18.4688C17.6754 18.7169 17.6249 18.8339 17.6249 19.125C17.8105 19.125 17.9961 19.125 18.1874 19.125C18.0946 18.9084 18.0017 18.6919 17.9061 18.4688C17.8752 18.4688 17.8442 18.4688 17.8124 18.4688Z" fill="#FF7705"></path>
  <path d="M32.8125 16.7812C33.1406 16.752 33.1406 16.752 33.4687 16.7812C33.6562 16.9688 33.6562 16.9688 33.6775 17.274C33.6775 17.404 33.6764 17.5339 33.6745 17.6638C33.6743 17.7322 33.674 17.8006 33.6737 17.8711C33.6727 18.0899 33.6703 18.3086 33.6679 18.5273C33.667 18.6755 33.6661 18.8237 33.6654 18.9719C33.6633 19.3355 33.6601 19.699 33.6562 20.0625C33.8324 20.056 33.8324 20.056 34.0122 20.0493C34.167 20.0458 34.3217 20.0424 34.4765 20.0391C34.5925 20.0343 34.5925 20.0343 34.7109 20.0295C35.2835 20.0203 35.2835 20.0203 35.5865 20.2328C35.7187 20.4375 35.7187 20.4375 35.7011 20.7363C35.625 21 35.625 21 35.5312 21.0938C35.0982 21.1202 34.6641 21.1155 34.2304 21.1172C34.0468 21.1201 34.0468 21.1201 33.8595 21.123C33.7424 21.1235 33.6253 21.124 33.5046 21.1245C33.3427 21.1258 33.3427 21.1258 33.1776 21.1272C32.9062 21.0938 32.9062 21.0938 32.7508 20.9743C32.5281 20.6879 32.5871 20.323 32.5909 19.9746C32.5909 19.8924 32.5908 19.8103 32.5908 19.7256C32.591 19.5519 32.5919 19.3782 32.5934 19.2046C32.5957 18.9385 32.5954 18.6725 32.5947 18.4065C32.5953 18.2378 32.5959 18.0691 32.5968 17.9004C32.5967 17.8207 32.5966 17.741 32.5965 17.6589C32.6033 17.095 32.6033 17.095 32.8125 16.7812Z" fill="#FF7705"></path>
</svg>
