<?xml version="1.0" encoding="UTF-8"?>
<svg xmlns="http://www.w3.org/2000/svg" width="48" height="48" viewBox="0 0 48 48" fill="none">
  <path d="M26.1385 5.66596C26.3346 5.83691 26.5271 6.01135 26.7185 6.18745C26.8413 6.29857 26.8413 6.29857 26.9665 6.41193C27.6934 7.10222 28.4642 7.97774 28.8748 8.9062C28.9718 8.86704 28.9718 8.86704 29.0707 8.8271C31.1766 7.99041 33.2164 7.72913 35.3611 8.63667C37.0527 9.39404 38.3116 10.7288 39.0602 12.4127C39.2916 13.0267 39.5623 13.7757 39.5623 14.4374C39.6799 14.4496 39.6799 14.4496 39.8 14.462C41.6219 14.6819 43.1613 15.3711 44.531 16.5937C44.609 16.6628 44.6869 16.7319 44.7672 16.8032C46.3613 18.3018 47.2429 20.4356 47.3593 22.6061C47.3754 25.0748 46.5442 27.2934 44.8123 29.0624C43.0186 30.7783 40.8743 31.4788 38.4256 31.5351C38.3589 31.5376 38.2923 31.54 38.2236 31.5426C37.889 31.5436 37.6994 31.5074 37.4123 31.3308C37.1481 31.0501 37.1316 30.8489 37.1248 30.4687C37.2001 30.2153 37.2558 30.1278 37.4816 29.9917C37.7049 29.8989 37.8611 29.8825 38.1018 29.8806C38.1818 29.8789 38.2617 29.8773 38.344 29.8756C38.4289 29.8741 38.5139 29.8726 38.6014 29.871C40.6977 29.7964 42.5126 29.0835 43.9803 27.5507C45.3113 25.9804 45.7998 24.0585 45.656 22.0312C45.4822 20.6743 44.8802 19.3916 43.9685 18.3749C43.905 18.3038 43.8414 18.2326 43.7759 18.1592C42.5012 16.8097 40.8092 16.1482 38.9845 16.0227C38.6631 15.9943 38.467 15.9603 38.2084 15.7613C37.9781 15.4479 37.953 15.1594 37.9175 14.7803C37.8412 14.0046 37.6715 13.3557 37.3123 12.6562C37.2707 12.5744 37.2291 12.4926 37.1863 12.4083C36.4874 11.1445 35.3093 10.2993 33.934 9.88801C33.8732 9.87338 33.8124 9.85876 33.7498 9.8437C33.6485 9.81832 33.6485 9.81832 33.5451 9.79243C31.8484 9.51945 30.3869 9.92936 28.9685 10.8749C28.4401 10.9431 28.4401 10.9431 28.2185 10.8749C27.8677 10.5116 27.6365 10.132 27.3982 9.68549C27.0485 9.05348 26.6413 8.50586 26.156 7.9687C26.0476 7.84869 26.0476 7.84869 25.937 7.72626C24.2565 5.95872 21.8526 4.90153 19.428 4.76069C16.7295 4.69719 14.2488 5.70598 12.2854 7.547C10.5559 9.22674 9.42524 11.6262 9.35831 14.0515C9.35608 14.1318 9.35384 14.2122 9.35154 14.295C9.34749 14.461 9.34457 14.627 9.34275 14.793C9.33014 15.1817 9.31311 15.4145 9.11185 15.7547C8.80346 16.0285 8.45598 16.0541 8.06229 16.1249C6.0897 16.5449 4.51181 17.5169 3.37479 19.2187C2.37877 20.8815 2.03474 22.7841 2.48417 24.6855C2.95515 26.4413 4.12114 27.9724 5.68339 28.8925C6.64997 29.4397 7.71767 29.8043 8.83317 29.8256C8.92229 29.8274 9.01142 29.8293 9.10325 29.8311C9.28853 29.8343 9.47385 29.836 9.65916 29.8363C10.1039 29.8477 10.3353 29.854 10.7012 30.1241C10.9294 30.4538 10.9391 30.6381 10.8748 31.0312C10.6668 31.3037 10.5448 31.3912 10.2185 31.4999C7.7422 31.6381 5.41817 31.0148 3.52675 29.3754C1.71805 27.742 0.802397 25.6481 0.635536 23.2346C0.568452 20.9817 1.41697 18.8307 2.90604 17.1562C2.96719 17.0862 3.02834 17.0163 3.09135 16.9442C4.23017 15.7222 5.75774 14.9265 7.38444 14.5913C7.45344 14.5714 7.52245 14.5516 7.59354 14.5312C7.7174 14.2835 7.71961 14.0428 7.74305 13.7701C8.01796 10.6056 9.41954 7.81933 11.8123 5.7187C13.1239 4.63316 14.5895 3.93495 16.2185 3.4687C16.3773 3.42066 16.3773 3.42066 16.5393 3.37165C19.8323 2.54067 23.5625 3.49782 26.1385 5.66596Z" fill="#FF7705"></path>
  <path d="M31.2065 24.9756C31.775 25.1339 32.1203 25.842 32.4201 26.3064C32.4986 26.4264 32.4986 26.4264 32.5788 26.5489C32.751 26.8122 32.9225 27.076 33.0939 27.3398C33.3373 27.7128 33.5812 28.0854 33.8252 28.4579C33.8879 28.5535 33.9505 28.6491 34.015 28.7476C34.4608 29.4267 34.9139 30.1004 35.3714 30.7716C35.4651 30.9093 35.4651 30.9093 35.5608 31.0499C35.8038 31.4067 36.0468 31.7635 36.2917 32.1191C36.4603 32.364 36.6278 32.6096 36.7952 32.8553C36.8451 32.927 36.895 32.9988 36.9464 33.0726C37.2219 33.4792 37.4119 33.8263 37.5002 34.3125C37.3084 34.8303 37.3084 34.8303 37.0314 34.9688C36.8546 34.9767 36.6774 34.9788 36.5004 34.9779C36.3427 34.9775 36.3427 34.9775 36.1818 34.977C36.0716 34.9762 35.9614 34.9754 35.8478 34.9746C35.7369 34.9742 35.626 34.9738 35.5117 34.9733C35.237 34.9722 34.9623 34.9707 34.6877 34.9688C34.6886 35.1395 34.6886 35.1395 34.6896 35.3138C34.6953 36.3869 34.6995 37.4601 34.7022 38.5333C34.7037 39.085 34.7057 39.6368 34.7089 40.1885C34.712 40.721 34.7136 41.2535 34.7144 41.786C34.7149 41.9891 34.7159 42.1922 34.7174 42.3953C34.7195 42.6799 34.7197 42.9644 34.7196 43.249C34.7206 43.3329 34.7216 43.4168 34.7227 43.5032C34.7203 43.9777 34.6738 44.309 34.4064 44.7188C34.1408 44.8516 33.9154 44.8266 33.6184 44.8291C33.5568 44.8297 33.4952 44.8303 33.4317 44.831C33.2276 44.8328 33.0234 44.8339 32.8193 44.8348C32.7147 44.8354 32.7147 44.8354 32.6081 44.836C32.2393 44.838 31.8705 44.8393 31.5017 44.8402C31.1206 44.8412 30.7396 44.8444 30.3586 44.8482C30.0657 44.8506 29.7728 44.8514 29.4799 44.8517C29.3394 44.8522 29.1989 44.8533 29.0585 44.855C28.8618 44.8573 28.6654 44.8572 28.4687 44.8566C28.3009 44.8574 28.3009 44.8574 28.1298 44.8582C27.8439 44.8125 27.8439 44.8125 27.62 44.6792C27.3868 44.3062 27.4197 43.9572 27.4264 43.5257C27.4263 43.4333 27.4262 43.3409 27.4262 43.2457C27.4264 42.9403 27.4294 42.635 27.4323 42.3296C27.433 42.1178 27.4335 41.9061 27.4339 41.6943C27.4353 41.137 27.439 40.5797 27.4432 40.0224C27.447 39.4537 27.4487 38.885 27.4506 38.3163C27.4546 37.2004 27.461 36.0846 27.4689 34.9688C27.3971 34.9712 27.3252 34.9737 27.2511 34.9762C26.9253 34.9859 26.5995 34.992 26.2736 34.998C26.1605 35.002 26.0474 35.0059 25.9308 35.0099C25.8221 35.0115 25.7133 35.013 25.6013 35.0145C25.5011 35.017 25.4009 35.0194 25.2978 35.022C25.0314 34.9688 25.0314 34.9688 24.8113 34.7483C24.6179 34.4382 24.5979 34.2978 24.6564 33.9375C24.7769 33.6995 24.8974 33.4922 25.0446 33.2721C25.0864 33.2076 25.1281 33.1431 25.1711 33.0766C25.3105 32.8625 25.452 32.6499 25.5939 32.4375C25.6427 32.3641 25.6915 32.2906 25.7418 32.215C26.1189 31.6482 26.5007 31.0847 26.883 30.5215C27.1236 30.1662 27.364 29.8109 27.6044 29.4554C27.6641 29.3672 27.7239 29.2789 27.7854 29.188C28.1724 28.6155 28.5568 28.0413 28.9389 27.4655C28.9869 27.3931 29.0349 27.3208 29.0844 27.2463C29.3084 26.9087 29.532 26.5708 29.7551 26.2326C29.8341 26.1134 29.9131 25.9942 29.9921 25.875C30.0936 25.7213 30.0936 25.7213 30.1971 25.5645C30.514 25.1162 30.6375 25.0024 31.2065 24.9756ZM30.9377 27.2812C30.812 27.4264 30.812 27.4264 30.6876 27.6201C30.6124 27.7316 30.6124 27.7316 30.5356 27.8454C30.4812 27.9274 30.4268 28.0094 30.3708 28.0939C30.2853 28.2211 30.2853 28.2211 30.1982 28.3509C30.0144 28.6248 29.8315 28.8993 29.6486 29.1738C29.5297 29.3514 29.4106 29.529 29.2916 29.7065C29.0535 30.0616 28.8161 30.417 28.5791 30.7728C28.3329 31.1424 28.0853 31.5109 27.8368 31.8789C27.7757 31.9696 27.7147 32.0603 27.6518 32.1537C27.535 32.3272 27.4179 32.5005 27.3004 32.6735C27.2485 32.7507 27.1967 32.8279 27.1433 32.9075C27.0744 33.0093 27.0744 33.0093 27.0042 33.1132C26.8907 33.2759 26.8907 33.2759 26.9064 33.4688C27.025 33.4723 27.1435 33.4758 27.2657 33.4794C27.4213 33.4855 27.577 33.4918 27.7326 33.498C27.8107 33.5002 27.8889 33.5023 27.9694 33.5045C28.0822 33.5094 28.0822 33.5094 28.1973 33.5145C28.3012 33.5182 28.3012 33.5182 28.4071 33.522C28.647 33.574 28.722 33.654 28.8752 33.8438C28.9112 34.0262 28.9112 34.0262 28.9126 34.237C28.9143 34.3571 28.9143 34.3571 28.9161 34.4796C28.9159 34.6109 28.9159 34.6109 28.9157 34.7449C28.9167 34.8373 28.9176 34.9297 28.9186 35.0249C28.9214 35.3308 28.9223 35.6366 28.9232 35.9425C28.9247 36.1544 28.9264 36.3663 28.9282 36.5782C28.9327 37.1363 28.9355 37.6943 28.9379 38.2524C28.9412 38.9218 28.9466 39.5912 28.9516 40.2606C28.9589 41.2779 28.9637 42.2952 28.9689 43.3125C30.3302 43.3125 31.6914 43.3125 33.0939 43.3125C33.0974 42.6401 33.1009 41.9677 33.1045 41.2749C33.1074 40.8494 33.1103 40.4238 33.1135 39.9983C33.1186 39.3226 33.1234 38.6469 33.1264 37.9712C33.1288 37.4266 33.1326 36.8819 33.1374 36.3373C33.1389 36.1293 33.14 35.9213 33.1406 35.7134C33.1415 35.4224 33.1441 35.1316 33.1471 34.8407C33.1469 34.7112 33.1469 34.7112 33.1467 34.5791C33.1554 33.9967 33.1554 33.9967 33.3192 33.6968C33.5087 33.5269 33.613 33.5125 33.8655 33.5054C33.9408 33.5023 34.016 33.4993 34.0935 33.4962C34.1716 33.4949 34.2498 33.4936 34.3303 33.4922C34.4095 33.4894 34.4887 33.4866 34.5703 33.4838C34.7656 33.4771 34.961 33.4727 35.1564 33.4688C35.0388 33.1525 34.9054 32.8824 34.7159 32.6035C34.6651 32.5283 34.6143 32.4531 34.562 32.3755C34.5071 32.2951 34.4521 32.2146 34.3954 32.1317C34.338 32.0469 34.2806 31.9621 34.2215 31.8747C34.0374 31.603 33.8528 31.3318 33.6681 31.0605C33.4876 30.7945 33.3072 30.5284 33.1268 30.2622C33.0081 30.0872 32.8892 29.9123 32.7703 29.7375C32.4826 29.3143 32.1973 28.8899 31.9172 28.4617C31.8654 28.3827 31.8135 28.3037 31.7601 28.2224C31.6627 28.0736 31.5658 27.9244 31.4695 27.7748C31.3595 27.6071 31.243 27.4436 31.1252 27.2812C31.0633 27.2812 31.0014 27.2812 30.9377 27.2812Z" fill="#FF7705"></path>
  <path d="M14.4033 22.1702C14.4649 22.1696 14.5266 22.1689 14.5901 22.1683C14.7932 22.1666 14.9963 22.1677 15.1994 22.169C15.3409 22.1687 15.4824 22.1683 15.6239 22.1679C15.9202 22.1673 16.2165 22.1681 16.5128 22.1699C16.8924 22.172 17.2719 22.1708 17.6515 22.1685C17.9436 22.1672 18.2357 22.1676 18.5278 22.1686C18.6678 22.1688 18.8077 22.1685 18.9477 22.1677C19.1434 22.1667 19.3389 22.1682 19.5346 22.1702C19.7016 22.1707 19.7016 22.1707 19.8719 22.1711C20.1565 22.2188 20.1565 22.2188 20.3802 22.3523C20.6138 22.7251 20.5807 23.0741 20.574 23.5055C20.5741 23.598 20.5741 23.6904 20.5742 23.7856C20.5739 24.091 20.571 24.3963 20.5681 24.7017C20.5674 24.9134 20.5669 25.1252 20.5665 25.3369C20.565 25.8943 20.5614 26.4516 20.5572 27.0089C20.5534 27.5776 20.5517 28.1463 20.5498 28.715C20.5458 29.8308 20.5394 30.9467 20.5315 32.0625C20.6033 32.0601 20.6752 32.0576 20.7493 32.0551C21.0751 32.0453 21.4009 32.0392 21.7268 32.0332C21.8399 32.0293 21.953 32.0254 22.0696 32.0213C22.1783 32.0198 22.2871 32.0183 22.3991 32.0167C22.4993 32.0143 22.5995 32.0118 22.7026 32.0093C22.969 32.0625 22.969 32.0625 23.1891 32.2829C23.3825 32.5931 23.4025 32.7335 23.344 33.0938C23.2235 33.3318 23.103 33.5391 22.9558 33.7592C22.914 33.8237 22.8723 33.8882 22.8293 33.9547C22.6899 34.1688 22.5484 34.3814 22.4065 34.5938C22.3577 34.6672 22.3089 34.7406 22.2586 34.8163C21.8815 35.383 21.4997 35.9466 21.1174 36.5098C20.8768 36.865 20.6363 37.2204 20.396 37.5758C20.3363 37.6641 20.2765 37.7523 20.215 37.8433C19.828 38.4158 19.4436 38.99 19.0615 39.5658C19.0135 39.6381 18.9655 39.7104 18.916 39.785C18.692 40.1226 18.4684 40.4604 18.2453 40.7986C18.1663 40.9179 18.0873 41.0371 18.0083 41.1563C17.9406 41.2587 17.873 41.3612 17.8033 41.4668C17.527 41.8577 17.527 41.8577 17.344 42C16.8315 42.0661 16.8315 42.0661 16.594 42C16.1717 41.6281 15.884 41.1955 15.5803 40.7249C15.5279 40.6448 15.4756 40.5648 15.4216 40.4823C15.3085 40.3093 15.1956 40.1361 15.0829 39.9627C14.7816 39.4994 14.4786 39.0373 14.1755 38.5752C14.1129 38.4797 14.0503 38.3842 13.9858 38.2857C13.1775 37.0544 12.351 35.8353 11.5249 34.6159C11.4414 34.4926 11.4414 34.4926 11.3563 34.3668C11.2521 34.213 11.1478 34.0592 11.0434 33.9055C10.9977 33.838 10.9519 33.7705 10.9048 33.7009C10.8649 33.6421 10.825 33.5834 10.7839 33.5229C10.5639 33.1848 10.5128 32.8321 10.594 32.4375C10.7974 32.1775 10.9049 32.0728 11.2353 32.0199C11.3354 32.0219 11.4356 32.0239 11.5388 32.0259C11.6476 32.0271 11.7563 32.0283 11.8684 32.0296C11.9815 32.0327 12.0946 32.0358 12.2112 32.0391C12.3257 32.0408 12.4403 32.0425 12.5583 32.0442C12.8411 32.0486 13.1238 32.0548 13.4065 32.0625C13.4056 31.9447 13.4048 31.8269 13.4039 31.7056C13.3963 30.5965 13.3907 29.4874 13.387 28.3782C13.3851 27.808 13.3824 27.2378 13.3782 26.6675C13.3741 26.1174 13.3719 25.5673 13.3709 25.0172C13.3702 24.8071 13.3688 24.5971 13.3668 24.387C13.3641 24.0932 13.3637 23.7994 13.3639 23.5055C13.3625 23.4184 13.3612 23.3312 13.3598 23.2413C13.3621 22.8817 13.3642 22.6613 13.5578 22.3523C13.8542 22.1753 14.0584 22.1712 14.4033 22.1702ZM14.9065 23.7188C14.9028 24.7274 14.9028 24.7274 14.8991 25.7564C14.8968 26.1819 14.8943 26.6074 14.8915 27.033C14.8869 27.7087 14.8828 28.3843 14.8811 29.06C14.8796 29.6047 14.8764 30.1493 14.8719 30.694C14.8705 30.902 14.8698 31.1099 14.8697 31.3179C14.8695 31.6088 14.867 31.8997 14.8639 32.1906C14.8644 32.2769 14.8648 32.3632 14.8653 32.4522C14.8557 33.0359 14.8557 33.0359 14.6338 33.3345C14.4203 33.4807 14.3086 33.5181 14.0525 33.5259C13.9818 33.5289 13.9111 33.5319 13.8382 33.5351C13.7654 33.5364 13.6925 33.5377 13.6174 33.5391C13.5431 33.5419 13.4688 33.5446 13.3922 33.5475C13.2095 33.5541 13.0267 33.5585 12.844 33.5625C12.9616 33.8788 13.095 34.1489 13.2845 34.4278C13.3353 34.503 13.386 34.5782 13.4384 34.6557C13.5208 34.7764 13.5208 34.7764 13.605 34.8996C13.6911 35.0268 13.6911 35.0268 13.7789 35.1566C13.963 35.4282 14.1476 35.6995 14.3322 35.9707C14.5128 36.2368 14.6932 36.5029 14.8737 36.769C14.9923 36.944 15.111 37.1189 15.2297 37.2938C15.7831 38.1093 16.3301 38.929 16.8752 39.75C17.202 39.6411 17.2366 39.5752 17.4186 39.2952C17.4943 39.18 17.4943 39.18 17.5716 39.0624C17.6258 38.9783 17.68 38.8941 17.7358 38.8074C17.7929 38.7202 17.8499 38.633 17.9087 38.5431C18.0923 38.2623 18.2748 37.9808 18.4572 37.6992C18.695 37.334 18.9332 36.9692 19.1714 36.6043C19.2297 36.5146 19.288 36.425 19.3481 36.3326C19.798 35.6434 20.2599 34.9632 20.7328 34.2895C20.8043 34.1867 20.8043 34.1867 20.8772 34.0818C20.9192 34.0219 20.9613 33.9621 21.0046 33.9004C21.1099 33.7523 21.1099 33.7523 21.094 33.5625C20.9754 33.559 20.8569 33.5555 20.7347 33.5519C20.5791 33.5457 20.4234 33.5395 20.2678 33.5332C20.1897 33.5311 20.1115 33.529 20.031 33.5268C19.9182 33.5218 19.9182 33.5218 19.8031 33.5167C19.6992 33.5131 19.6992 33.5131 19.5933 33.5093C19.3534 33.4573 19.2784 33.3773 19.1252 33.1875C19.0891 33.005 19.0891 33.005 19.0878 32.7942C19.0867 32.7142 19.0855 32.6341 19.0843 32.5516C19.0844 32.4641 19.0845 32.3766 19.0847 32.2864C19.0832 32.1478 19.0832 32.1478 19.0818 32.0064C19.079 31.7005 19.0781 31.3947 19.0772 31.0888C19.0757 30.8769 19.074 30.665 19.0721 30.4531C19.0677 29.895 19.0649 29.3369 19.0624 28.7789C19.0592 28.1094 19.0538 27.4401 19.0488 26.7707C19.0414 25.7534 19.0367 24.7361 19.0315 23.7188C17.6702 23.7188 16.309 23.7188 14.9065 23.7188Z" fill="#FF7705"></path>
</svg>
