<?xml version="1.0" encoding="UTF-8"?>
<svg xmlns="http://www.w3.org/2000/svg" width="48" height="48" viewBox="0 0 48 48" fill="none">
  <path d="M31.5368 14.6373C31.8632 14.9187 32.177 15.2126 32.489 15.5098C32.5461 15.5626 32.6032 15.6155 32.662 15.67C34.7094 17.6219 35.9257 20.6275 35.9968 23.4309C36.031 26.2423 35.366 28.9715 33.6 31.2151C33.5464 31.2848 33.4928 31.3545 33.4376 31.4264C31.4749 33.9108 28.6143 35.5557 25.458 35.9371C22.2796 36.2504 19.0493 35.4514 16.5386 33.436C16.2086 33.1582 15.8966 32.863 15.5863 32.5635C15.5236 32.5049 15.4609 32.4463 15.3963 32.386C13.3487 30.4253 12.0702 27.4585 11.9992 24.6328C11.9593 21.1974 12.9551 18.1951 15.3482 15.6684C15.4133 15.5983 15.4784 15.5281 15.5454 15.4559C19.6848 11.1347 26.9629 10.878 31.5368 14.6373ZM16.1716 17.235C14.3228 19.3598 13.5146 22.0844 13.6818 24.8695C13.7657 25.9397 14.0148 27.0681 14.4753 28.0423C14.5277 28.0685 14.5801 28.0946 14.634 28.1216C14.6649 28.0802 14.6958 28.0388 14.7277 27.9961C16.2625 25.9777 18.2526 24.7433 20.6651 23.997C20.5602 23.7676 20.4712 23.6421 20.2931 23.4517C19.5204 22.5619 19.1702 21.3387 19.215 20.1729C19.3358 18.9411 19.8 17.6979 20.7444 16.8582C21.8312 15.9678 23.1493 15.537 24.5535 15.6684C25.8254 15.8578 26.9899 16.4067 27.7674 17.4545C28.6229 18.6578 28.9176 19.9486 28.675 21.3993C28.4739 22.3259 28.0681 23.08 27.4038 23.76C27.2387 23.9216 27.2387 23.9216 27.0929 24.1556C27.1983 24.1947 27.1983 24.1947 27.3058 24.2346C29.7528 25.164 31.5249 26.6467 33.0445 28.7562C34.0423 27.816 34.2828 25.6784 34.3316 24.3961C34.4045 21.4064 33.28 18.8805 31.2968 16.6801C29.4909 14.7873 26.8099 13.7199 24.2193 13.6572C21.0533 13.6358 18.3271 14.9517 16.1716 17.235ZM21.9348 18.048C21.886 18.0896 21.8372 18.1312 21.7869 18.1741C21.2038 18.7045 20.8901 19.4078 20.8238 20.1896C20.8032 21.0781 21.0564 21.8391 21.6322 22.5197C22.2005 23.1075 22.8409 23.4749 23.6645 23.5477C24.7896 23.5588 25.5198 23.2957 26.356 22.5228C26.8945 21.9612 27.1487 21.195 27.1828 20.4285C27.1389 19.4353 26.7298 18.6464 26.0185 17.9696C25.3902 17.4563 24.6285 17.2101 23.8216 17.23C23.0948 17.3118 22.4732 17.5549 21.9348 18.048ZM20.9031 25.5834C20.8212 25.6082 20.8212 25.6082 20.7377 25.6336C18.6349 26.2976 16.883 27.7043 15.6086 29.4827C15.4857 29.6979 15.4857 29.6979 15.5435 29.9044C15.6983 30.158 15.8776 30.3821 16.0724 30.6053C16.1315 30.6737 16.1315 30.6737 16.1917 30.7434C17.9638 32.7771 20.4278 34.0577 23.1251 34.3085C25.9351 34.4886 28.6229 33.6498 30.755 31.792C31.4604 31.2085 31.4604 31.2085 32.0129 30.5012C31.9494 29.4175 30.6201 28.2385 29.8572 27.5347C28.7494 26.5686 27.3923 25.8942 25.9819 25.5041C25.8908 25.4787 25.7998 25.4533 25.706 25.4272C24.163 25.0705 22.4171 25.1209 20.9031 25.5834Z" fill="#FF7705"></path>
  <path d="M42.7327 18.0283C43.2815 18.3681 43.362 18.9838 43.5053 19.573C43.6269 20.1102 43.7297 20.6507 43.8144 21.1949C43.8352 21.3262 43.8352 21.3262 43.8564 21.4601C43.9845 22.3577 43.9997 23.2482 43.9979 24.1539C43.9979 24.2321 43.9979 24.3103 43.9979 24.3909C43.9953 25.6428 43.9208 26.8406 43.6599 28.0686C43.6458 28.1387 43.6318 28.2088 43.6173 28.2811C42.9625 31.5085 41.4845 34.5345 39.3329 37.0276C39.2839 37.0852 39.2349 37.1427 39.1844 37.202C38.2717 38.245 37.2865 39.2237 36.1649 40.0397C36.076 40.1059 35.9872 40.172 35.8984 40.2382C33.5892 41.9405 30.9478 43.0855 28.1387 43.6552C28.0644 43.6702 27.9902 43.6853 27.9137 43.7008C26.6797 43.9369 25.4713 44.0076 24.2173 44.0027C24.1049 44.0025 24.1049 44.0025 23.9902 44.0023C22.8813 43.9988 21.8023 43.9598 20.7113 43.7469C20.642 43.7345 20.5726 43.722 20.5012 43.7092C16.8123 43.042 13.5142 41.2947 10.7437 38.804C10.7426 38.8722 10.7414 38.9403 10.7403 39.0106C10.7356 39.2646 10.7298 39.5187 10.7234 39.7727C10.7209 39.8824 10.7187 39.9922 10.7169 40.1019C10.7143 40.2601 10.7103 40.4183 10.706 40.5764C10.7039 40.6715 10.7019 40.7665 10.6998 40.8645C10.6639 41.1407 10.6019 41.2866 10.4346 41.5072C10.1241 41.7141 9.87239 41.7154 9.50741 41.6616C9.28563 41.5231 9.16037 41.4313 9.0438 41.1982C9.0348 41.0552 9.03069 40.9118 9.0289 40.7685C9.02766 40.6785 9.02641 40.5886 9.02514 40.4959C9.02171 40.0842 9.01849 39.6726 9.01675 39.2609C9.01572 39.0436 9.01357 38.8263 9.01041 38.609C9.00587 38.2962 9.00449 37.9834 9.00335 37.6705C9.0016 37.5733 8.99985 37.4762 8.99805 37.376C8.99967 36.7058 8.99967 36.7058 9.21514 36.3916C9.426 36.2579 9.57676 36.1864 9.8198 36.1355C9.94177 36.109 9.94177 36.109 10.0662 36.0819C10.1623 36.0627 10.2584 36.0434 10.3574 36.0236C10.4761 35.9985 10.5947 35.9734 10.7134 35.9481C11.0479 35.8774 11.3829 35.8093 11.7181 35.7422C11.9279 35.7 12.1375 35.657 12.3472 35.6141C12.482 35.5869 12.6169 35.5598 12.7518 35.5328C12.8137 35.52 12.8756 35.5072 12.9394 35.494C13.8234 35.3194 13.8234 35.3194 14.1405 35.4848C14.5225 35.8498 14.5225 35.8498 14.5491 36.2022C14.528 36.5142 14.5049 36.6405 14.298 36.8732C13.7865 37.0984 13.2606 37.2043 12.714 37.3124C12.5855 37.3385 12.5855 37.3385 12.4545 37.3651C12.2449 37.4075 12.0352 37.4495 11.8254 37.491C13.7995 39.3489 16.1945 40.7035 18.7796 41.5072C18.8653 41.5343 18.8653 41.5343 18.9528 41.5619C23.4933 42.9782 28.5139 42.3925 32.7134 40.2265C34.8791 39.0757 36.9137 37.436 38.4056 35.483C38.4375 35.442 38.4694 35.4009 38.5023 35.3587C39.8426 33.6292 40.842 31.699 41.4964 29.6133C41.5146 29.5559 41.5328 29.4985 41.5515 29.4394C41.9892 28.0371 42.2762 26.5394 42.2847 25.0677C42.2856 24.9732 42.2856 24.9732 42.2864 24.8768C42.2986 23.0583 42.1752 21.3979 41.72 19.6299C41.6114 19.1956 41.527 18.8506 41.6509 18.4145C41.9902 18.0258 42.224 17.9557 42.7327 18.0283Z" fill="#FF7705"></path>
  <path d="M22.8072 4.0068C22.8786 4.00625 22.9501 4.00571 23.0237 4.00514C23.2533 4.00378 23.4828 4.00327 23.7124 4.00314C23.83 4.00306 23.83 4.00306 23.9498 4.00298C25.0825 4.00419 26.1829 4.03585 27.2972 4.25747C27.3665 4.27007 27.4357 4.28266 27.507 4.29564C31.1977 4.9716 34.4972 6.74205 37.269 9.26592C37.2701 9.16293 37.2701 9.16293 37.2712 9.05786C37.2746 8.80141 37.2794 8.54506 37.2851 8.28866C37.2872 8.17801 37.2889 8.06735 37.29 7.95668C37.2916 7.79693 37.2953 7.63733 37.2992 7.47762C37.3017 7.33378 37.3017 7.33378 37.3041 7.18702C37.3538 6.87052 37.4595 6.69745 37.6555 6.44867C37.9228 6.31338 38.2136 6.33209 38.5058 6.37041C38.7277 6.5108 38.853 6.60382 38.9696 6.83995C38.9779 6.98251 38.9811 7.12537 38.9821 7.26817C38.9828 7.35776 38.9836 7.44736 38.9843 7.53967C38.9848 7.68555 38.9848 7.68555 38.9853 7.83436C38.9858 7.93396 38.9862 8.03356 38.9867 8.13617C38.9874 8.34728 38.9879 8.55838 38.9882 8.76949C38.9886 9.03948 38.9905 9.30945 38.9927 9.57943C38.9945 9.83737 38.9946 10.0953 38.995 10.3533C38.996 10.45 38.9969 10.5468 38.9979 10.6465C38.9977 10.7368 38.9974 10.8272 38.9972 10.9203C38.9975 10.9996 38.9978 11.0788 38.998 11.1605C38.9643 11.42 38.8955 11.5635 38.7377 11.7701C38.5914 11.8535 38.5914 11.8535 38.426 11.9009C38.3643 11.9189 38.3025 11.9369 38.2389 11.9554C37.9048 12.0394 37.5699 12.1142 37.2322 12.1819C37.1572 12.1972 37.0823 12.2125 37.0051 12.2283C36.8478 12.2603 36.6905 12.292 36.5331 12.3235C36.2931 12.3717 36.0534 12.421 35.8136 12.4703C35.66 12.5014 35.5064 12.5324 35.3528 12.5634C35.2817 12.5781 35.2106 12.5927 35.1373 12.6079C34.1869 12.7961 34.1869 12.7961 33.8708 12.6291C33.4886 12.2593 33.4886 12.2593 33.462 11.9022C33.4831 11.5861 33.5062 11.4581 33.7132 11.2223C34.225 10.9942 34.7511 10.8868 35.2979 10.7773C35.4264 10.7508 35.4264 10.7508 35.5575 10.7239C35.7672 10.6809 35.977 10.6384 36.1868 10.5963C34.2119 8.71379 31.8159 7.34127 29.2298 6.52692C29.144 6.49944 29.144 6.49944 29.0564 6.4714C24.4477 5.01542 19.4076 5.66226 15.1553 7.89069C14.1946 8.41366 13.297 9.03385 12.4555 9.73546C12.4131 9.7705 12.3706 9.80554 12.3269 9.84165C11.2617 10.7253 10.28 11.6872 9.46081 12.8107C9.36577 12.9409 9.26903 13.0696 9.17206 13.1983C8.59281 13.9799 8.12007 14.8239 7.66289 15.683C7.6336 15.7377 7.6043 15.7924 7.57412 15.8487C6.26938 18.3304 5.69461 21.2374 5.70622 24.0271C5.70633 24.0958 5.70645 24.1645 5.70657 24.2353C5.71076 25.6269 5.86013 26.9271 6.17174 28.2818C6.36306 29.1308 6.36306 29.1308 6.27148 29.5345C6.11603 29.7754 6.00748 29.886 5.73521 29.9744C5.47711 30.0224 5.29247 30.0145 5.04916 29.916C4.63204 29.554 4.56247 29.082 4.45492 28.5611C4.43947 28.4915 4.42403 28.4218 4.40811 28.3501C4.12266 27.0018 3.99057 25.6607 3.99953 24.2831C4.00077 24.0565 3.99953 23.83 3.99806 23.6034C3.9969 22.5642 4.09356 21.5597 4.26166 20.5349C4.2762 20.4459 4.29074 20.3569 4.30571 20.2652C4.90711 16.8788 6.45155 13.6675 8.6678 11.0658C8.71593 11.0084 8.76406 10.951 8.81364 10.8919C9.74696 9.80966 10.7578 8.7718 11.9144 7.93555C11.9623 7.90053 12.0101 7.86551 12.0594 7.82943C14.8216 5.81892 17.9659 4.53987 21.3451 4.10096C21.3969 4.09412 21.4486 4.08729 21.502 4.08025C21.9381 4.02663 22.3681 4.00906 22.8072 4.0068Z" fill="#FF7705"></path>
</svg>
