<?xml version="1.0" encoding="UTF-8"?>
<svg xmlns="http://www.w3.org/2000/svg" width="48" height="48" viewBox="0 0 48 48" fill="none">
  <path d="M4.07554 25.1011C4.18056 25.1007 4.18056 25.1007 4.28771 25.1002C4.52308 25.0995 4.75843 25.1 4.99381 25.1006C5.16396 25.1003 5.33411 25.0999 5.50426 25.0995C5.97243 25.0985 6.4406 25.0987 6.90877 25.0991C7.41344 25.0994 7.91812 25.0985 8.42279 25.0978C9.41171 25.0966 10.4006 25.0964 11.3895 25.0967C12.1931 25.0968 12.9967 25.0967 13.8003 25.0963C13.9145 25.0962 14.0288 25.0962 14.1465 25.0961C14.3786 25.096 14.6107 25.0959 14.8428 25.0958C17.0206 25.0947 19.1984 25.0949 21.3762 25.0955C23.3697 25.096 25.3632 25.0949 27.3567 25.0932C29.4024 25.0913 31.448 25.0906 33.4937 25.0909C34.6427 25.0911 35.7917 25.0909 36.9407 25.0895C37.9188 25.0884 38.8969 25.0883 39.875 25.0894C40.3743 25.09 40.8735 25.0901 41.3727 25.089C41.8295 25.0879 42.2863 25.0882 42.7431 25.0895C42.9085 25.0898 43.074 25.0896 43.2395 25.0888C43.4641 25.0879 43.6885 25.0887 43.9131 25.0899C43.9777 25.0892 44.0422 25.0885 44.1087 25.0878C44.5343 25.0926 44.8263 25.1825 45.1877 25.4063C45.5014 25.9222 45.4066 26.581 45.4048 27.1664C45.4045 27.3744 45.4067 27.5823 45.4091 27.7903C45.4093 27.9233 45.4094 28.0564 45.4093 28.1895C45.4097 28.3698 45.4097 28.3698 45.4101 28.5538C45.3723 28.9016 45.3105 29.0716 45.094 29.3438C44.6458 29.663 44.1272 29.8298 43.5991 29.967C42.5583 30.2204 42.5583 30.2204 41.7485 30.868C41.4985 31.389 41.3828 31.9464 41.2475 32.5055C41.0503 33.1704 40.7033 33.7778 40.3848 34.3911C40.3377 34.4843 40.2906 34.5775 40.242 34.6736C40.1992 34.7556 40.1563 34.8376 40.1122 34.9221C39.9496 35.3936 40.1777 35.7686 40.3805 36.1981C40.4309 36.3074 40.4814 36.4167 40.5334 36.5294C40.6132 36.7012 40.6935 36.8728 40.7747 37.044C40.8536 37.2106 40.9305 37.3782 41.0074 37.5458C41.054 37.6449 41.1005 37.7441 41.1484 37.8462C41.3699 38.521 41.3699 38.521 41.2502 38.9063C40.9848 39.2837 40.6615 39.6007 40.3332 39.9229C40.2382 40.0184 40.1433 40.114 40.0485 40.2097C39.8499 40.4095 39.6499 40.6079 39.4489 40.8053C39.192 41.058 38.9387 41.3138 38.6862 41.5708C38.4909 41.7687 38.294 41.9648 38.0964 42.1604C38.0023 42.2541 37.9087 42.3483 37.8157 42.443C36.9981 43.2726 36.9981 43.2726 36.5399 43.2929C36.1729 43.2156 35.8739 43.1119 35.5362 42.9489C35.4781 42.9216 35.4199 42.8943 35.3599 42.8662C35.1762 42.78 34.9934 42.692 34.8108 42.6035C34.6271 42.5148 34.4432 42.4265 34.2586 42.3398C34.0918 42.2615 33.9258 42.1814 33.7598 42.1012C33.3633 41.9632 33.1589 42.0254 32.7833 42.1872C32.7091 42.2251 32.635 42.263 32.5586 42.3021C32.4738 42.3443 32.3891 42.3865 32.3018 42.43C32.1147 42.5244 31.928 42.6193 31.7414 42.7146C31.2511 42.9573 30.8007 43.1502 30.2621 43.2546C29.3081 43.4267 29.3081 43.4267 28.5859 44.0232C28.1475 44.8117 27.9037 45.7015 27.6743 46.5689C27.5524 46.9033 27.4657 47.0327 27.1877 47.25C26.9031 47.2983 26.9031 47.2983 26.5659 47.3C26.5043 47.3008 26.4426 47.3016 26.3791 47.3025C26.176 47.3046 25.9729 47.304 25.7697 47.3031C25.6283 47.3036 25.4868 47.3042 25.3453 47.3049C25.0489 47.3058 24.7527 47.3054 24.4563 47.304C24.0767 47.3024 23.6973 47.3046 23.3177 47.3079C23.0256 47.31 22.7335 47.3099 22.4414 47.3091C22.3014 47.309 22.1615 47.3096 22.0215 47.311C21.8258 47.3127 21.6303 47.3113 21.4345 47.3092C21.2676 47.309 21.2676 47.309 21.0973 47.3089C20.8127 47.25 20.8127 47.25 20.5931 47.0311C20.4094 46.7357 20.3266 46.4655 20.2374 46.1294C19.8787 44.7687 19.8787 44.7687 19.0658 43.6732C18.5016 43.3812 17.8975 43.2536 17.2809 43.1165C16.6485 42.9437 16.0802 42.6171 15.5016 42.315C15.4179 42.2727 15.3341 42.2304 15.2478 42.1868C15.1748 42.1484 15.1018 42.1101 15.0267 42.0706C14.5699 41.9198 14.1839 42.154 13.7708 42.349C13.6615 42.3995 13.5522 42.4499 13.4396 42.5019C13.2678 42.5817 13.0962 42.662 12.925 42.7433C12.7583 42.8221 12.5908 42.899 12.4232 42.976C12.3241 43.0225 12.2249 43.069 12.1228 43.117C11.448 43.3385 11.448 43.3385 11.0627 43.2188C10.6853 42.9533 10.3683 42.63 10.0461 42.3018C9.95061 42.2068 9.85499 42.1119 9.75927 42.0171C9.55948 41.8184 9.36111 41.6184 9.16364 41.4175C8.91102 41.1606 8.65519 40.9072 8.3982 40.6547C8.20026 40.4595 8.00415 40.2625 7.80854 40.0649C7.7149 39.9708 7.62071 39.8772 7.52595 39.7842C6.69633 38.9666 6.69633 38.9666 6.67603 38.5084C6.75333 38.1415 6.85708 37.8424 7.02011 37.5048C7.04738 37.4466 7.07466 37.3884 7.10276 37.3285C7.18898 37.1448 7.27698 36.962 7.36545 36.7793C7.45419 36.5956 7.54245 36.4118 7.62914 36.2271C7.70746 36.0603 7.78755 35.8943 7.86773 35.7284C8.00575 35.3318 7.94354 35.1275 7.78181 34.7518C7.7249 34.6406 7.7249 34.6406 7.66684 34.5271C7.62463 34.4424 7.58243 34.3576 7.53894 34.2703C7.4446 34.0833 7.34979 33.8965 7.25458 33.71C7.01239 33.22 6.8186 32.768 6.71103 32.2306C6.53585 31.3849 6.53585 31.3849 6.09396 30.6563C5.30403 30.152 4.39354 29.8894 3.49581 29.6429C3.17004 29.5249 2.96756 29.3959 2.71896 29.1563C2.55337 28.6595 2.60406 28.1232 2.60269 27.603C2.60178 27.3943 2.59888 27.1857 2.59592 26.9771C2.5953 26.8435 2.59481 26.7099 2.59445 26.5763C2.59358 26.4554 2.5927 26.3344 2.5918 26.2098C2.62867 25.8404 2.69911 25.62 2.90646 25.3125C3.28841 25.1077 3.65188 25.0985 4.07554 25.1011ZM4.21896 26.7188C4.21896 27.2138 4.21896 27.7088 4.21896 28.2188C4.42332 28.2945 4.62768 28.3703 4.83823 28.4484C5.03723 28.5232 5.23607 28.5984 5.4349 28.6737C5.57248 28.7255 5.71024 28.7768 5.84817 28.8277C6.04715 28.9013 6.24545 28.9764 6.4437 29.0519C6.50485 29.0741 6.566 29.0963 6.629 29.1191C7.09923 29.301 7.46553 29.54 7.68542 30.0066C7.70117 30.0702 7.71691 30.1337 7.73312 30.1992C7.75263 30.2722 7.77214 30.3452 7.79224 30.4204C7.81189 30.4982 7.83154 30.5761 7.85178 30.6563C8.22824 32.0167 8.74215 33.3604 9.54257 34.5311C9.75947 35.0075 9.72108 35.3518 9.54841 35.8313C9.40108 36.1797 9.24693 36.5239 9.0881 36.8672C9.00616 37.0452 8.92466 37.2234 8.84447 37.4022C8.77211 37.5635 8.69814 37.7241 8.62409 37.8846C8.52442 38.1769 8.52278 38.2511 8.62521 38.5313C8.74199 38.6927 8.74199 38.6927 8.89371 38.8421C8.95008 38.9006 9.00644 38.959 9.06451 39.0193C9.12583 39.0812 9.18716 39.1431 9.25034 39.2069C9.3449 39.3032 9.3449 39.3032 9.44137 39.4015C9.57489 39.5368 9.7088 39.6718 9.84307 39.8064C10.0483 40.0129 10.2509 40.2219 10.4535 40.431C10.5836 40.5622 10.7137 40.6932 10.8441 40.8241C10.9045 40.887 10.9648 40.9499 11.027 41.0146C11.3648 41.3601 11.3648 41.3601 11.8233 41.4436C12.0946 41.3435 12.3524 41.2377 12.6114 41.109C12.7553 41.0397 12.7553 41.0397 12.902 40.9689C13.1009 40.8715 13.2993 40.7734 13.4975 40.6745C14.0623 40.404 14.5558 40.1762 15.1877 40.3125C15.4363 40.4102 15.65 40.542 15.8733 40.6875C16.8726 41.291 17.9454 41.7282 19.0648 42.0582C19.1457 42.0822 19.2267 42.1062 19.31 42.1309C19.4638 42.1752 19.6181 42.2175 19.773 42.2575C19.8772 42.287 19.8772 42.287 19.9836 42.3171C20.0443 42.333 20.1051 42.3488 20.1676 42.3652C20.6285 42.6359 20.8039 43.204 20.9812 43.6809C21.0426 43.8444 21.0426 43.8444 21.1052 44.0112C21.1556 44.148 21.2061 44.2848 21.258 44.4258C21.4204 44.8628 21.5829 45.2998 21.7502 45.75C23.2352 45.75 24.7202 45.75 26.2502 45.75C26.6007 44.8152 26.6007 44.8152 26.9485 43.8793C26.9933 43.7613 27.0383 43.6433 27.0833 43.5253C27.1162 43.4347 27.1162 43.4347 27.1497 43.3424C27.3318 42.8713 27.5704 42.5039 28.0381 42.2835C28.1334 42.2599 28.1334 42.2599 28.2307 42.2358C28.3037 42.2163 28.3767 42.1968 28.4519 42.1767C28.5297 42.1571 28.6075 42.1374 28.6877 42.1172C30.0443 41.7418 31.3907 41.2326 32.5534 40.4264C33.0479 40.2092 33.4491 40.2375 33.9554 40.4206C34.291 40.567 34.622 40.7213 34.9514 40.8809C35.176 40.9888 35.4013 41.095 35.627 41.2006C35.7751 41.272 35.7751 41.272 35.9262 41.3449C36.2126 41.4463 36.2861 41.4446 36.5627 41.3438C36.7242 41.227 36.7242 41.227 36.8736 41.0753C36.9612 40.9907 36.9613 40.9907 37.0507 40.9045C37.1436 40.8125 37.1436 40.8125 37.2384 40.7186C37.3026 40.6556 37.3668 40.5926 37.4329 40.5276C37.5683 40.3941 37.7032 40.2602 37.8378 40.1259C38.0444 39.9207 38.2533 39.7181 38.4624 39.5154C38.5936 39.3854 38.7247 39.2552 38.8556 39.1249C38.9184 39.0645 38.9813 39.0041 39.0461 38.9419C39.3911 38.6047 39.3911 38.6047 39.4751 38.1471C39.3731 37.8694 39.2668 37.6014 39.1405 37.3337C39.0942 37.2332 39.048 37.1327 39.0004 37.0291C38.9028 36.82 38.8047 36.6113 38.706 36.4028C38.2425 35.3896 38.2425 35.3896 38.344 34.7813C38.4595 34.5084 38.6086 34.2643 38.7658 34.0137C39.3842 32.9662 39.8275 31.8492 40.1622 30.6801C40.182 30.6114 40.2019 30.5428 40.2223 30.4721C40.2738 30.2889 40.3216 30.1048 40.3691 29.9205C40.572 29.4633 40.9284 29.3088 41.3761 29.1128C41.4871 29.0715 41.5981 29.0303 41.7124 28.9878C41.7719 28.9654 41.8315 28.9431 41.8928 28.92C42.0807 28.8497 42.269 28.7803 42.4572 28.7109C42.5857 28.663 42.7141 28.6151 42.8425 28.567C43.1552 28.4501 43.4683 28.3344 43.7815 28.2188C43.7815 27.7238 43.7815 27.2288 43.7815 26.7188C42.6341 26.7166 41.4867 26.7149 40.3393 26.7139C39.8066 26.7134 39.2739 26.7127 38.7411 26.7117C38.2275 26.7107 37.7139 26.7101 37.2002 26.7099C37.0038 26.7097 36.8074 26.7093 36.6109 26.7088C36.3368 26.7082 36.0627 26.7081 35.7886 26.7081C35.7065 26.7078 35.6244 26.7074 35.5399 26.7071C35.1785 26.672 35.1785 26.672 34.8752 26.8125C34.8475 26.9976 34.8202 27.1828 34.7957 27.3683C34.5107 29.4753 33.707 31.3616 32.344 33C32.2718 33.0875 32.1997 33.175 32.1253 33.2651C30.2506 35.4336 27.4811 36.6176 24.6565 36.8438C21.5899 37.0053 18.756 35.9382 16.4768 33.9082C14.5619 32.1324 13.4691 29.6238 13.1622 27.0593C13.1514 26.8201 13.1514 26.8201 13.0315 26.7188C12.7575 26.7098 12.4858 26.707 12.2119 26.7081C12.1259 26.7081 12.0399 26.7081 11.9514 26.7081C11.6658 26.7081 11.3802 26.7089 11.0946 26.7096C10.8971 26.7098 10.6997 26.7099 10.5022 26.71C9.98145 26.7104 9.46067 26.7113 8.93989 26.7123C8.40891 26.7133 7.87793 26.7137 7.34695 26.7142C6.30429 26.7152 5.26163 26.7168 4.21896 26.7188ZM14.719 26.7188C14.719 27.3296 14.7546 27.7446 14.9065 28.3125C14.927 28.3896 14.9476 28.4667 14.9688 28.5461C15.6412 30.9198 17.3598 33.0134 19.5035 34.2151C20.7047 34.8531 22.0787 35.2666 23.4377 35.3438C23.5166 35.3487 23.5955 35.3537 23.6768 35.3588C26.137 35.437 28.464 34.548 30.2815 32.9063C30.3615 32.834 30.4415 32.7617 30.5239 32.6873C31.942 31.3389 32.9986 29.4219 33.2815 27.4688C33.2815 27.2213 33.2815 26.9738 33.2815 26.7188C27.1558 26.7188 21.0302 26.7188 14.719 26.7188Z" fill="#FF7705"></path>
  <path d="M12.3742 9.93751C13.4595 10.6288 14.1393 11.5895 14.4367 12.8438C14.4634 13.1042 14.468 13.3614 14.466 13.6231C14.4654 13.6932 14.4649 13.7634 14.4644 13.8357C14.4385 15.0194 13.9795 15.9622 13.1242 16.7813C13.2205 16.8324 13.3168 16.8835 13.416 16.9362C15.3564 17.984 16.8412 19.4367 17.5245 21.5742C17.704 22.1789 17.8666 22.8029 17.8117 23.4375C17.6449 23.7308 17.546 23.8516 17.2492 24C17.0661 24.0094 16.8827 24.0127 16.6995 24.0132C16.5238 24.014 16.5238 24.014 16.3446 24.0148C16.214 24.0149 16.0835 24.015 15.953 24.0151C15.8161 24.0156 15.6792 24.016 15.5424 24.0165C15.1699 24.0178 14.7974 24.0184 14.4249 24.0188C14.1922 24.0191 13.9596 24.0194 13.727 24.0199C12.9993 24.0211 12.2716 24.022 11.5439 24.0224C10.7036 24.0228 9.86319 24.0245 9.02281 24.0272C8.37352 24.0292 7.72423 24.0302 7.07494 24.0303C6.68702 24.0304 6.29911 24.0309 5.91119 24.0326C5.54622 24.0342 5.18127 24.0344 4.81629 24.0335C4.68239 24.0335 4.54849 24.0339 4.4146 24.0348C4.23168 24.036 4.04875 24.0353 3.86582 24.0345C3.71232 24.0347 3.71232 24.0347 3.55572 24.0349C3.24188 23.9951 3.06627 23.9031 2.81166 23.7188C2.63156 23.4814 2.62361 23.36 2.63368 23.0596C2.91613 21.1878 3.61377 19.6914 4.96791 18.375C5.03377 18.3105 5.09963 18.2459 5.16749 18.1795C5.61899 17.7617 6.12093 17.4569 6.65541 17.1563C6.7232 17.1172 6.791 17.0782 6.86085 17.038C7.01071 16.9517 7.16111 16.8664 7.31166 16.7813C7.2386 16.7095 7.2386 16.7095 7.16407 16.6362C6.24281 15.6758 5.94757 14.6123 5.97316 13.3052C6.04942 12.2268 6.55086 11.2107 7.33509 10.4707C8.73374 9.30518 10.7665 9.04737 12.3742 9.93751ZM8.02687 12.1578C7.58961 12.7796 7.49971 13.4044 7.59291 14.1563C7.77865 14.8762 8.11725 15.5019 8.76515 15.891C9.48942 16.261 10.1192 16.4542 10.9302 16.2517C11.6542 15.9899 12.2461 15.578 12.6027 14.8828C12.9033 14.2087 12.9811 13.4807 12.7612 12.7658C12.4133 12.0231 11.8967 11.4287 11.1224 11.1248C9.85154 10.8061 8.84114 11.1593 8.02687 12.1578ZM5.50697 20.127C4.99572 20.7995 4.57131 21.5767 4.40541 22.4063C8.24166 22.4063 12.0779 22.4063 16.0304 22.4063C15.5074 20.663 14.5863 19.4028 12.9729 18.5226C10.3816 17.2513 7.37513 17.9391 5.50697 20.127Z" fill="#FF7705"></path>
  <path d="M41.1118 5.4721C41.1951 5.47092 41.2783 5.46975 41.364 5.46854C41.4532 5.46978 41.5424 5.47102 41.6342 5.4723C41.7265 5.47208 41.8187 5.47185 41.9137 5.47162C42.1085 5.47171 42.3033 5.47297 42.4981 5.4753C42.7963 5.47852 43.0942 5.47724 43.3924 5.47542C43.5818 5.47606 43.7711 5.47697 43.9604 5.47816C44.0496 5.4777 44.1387 5.47723 44.2306 5.47675C44.8462 5.48773 44.8462 5.48773 45.1475 5.7045C45.3983 6.08158 45.389 6.43 45.388 6.86594C45.3882 6.93552 45.3884 7.00511 45.3886 7.0768C45.3892 7.31063 45.3891 7.54446 45.3891 7.77829C45.3893 7.94567 45.3897 8.11305 45.39 8.28043C45.3909 8.73563 45.3911 9.19082 45.3911 9.64601C45.3912 10.0258 45.3916 10.4055 45.3919 10.7853C45.3927 11.6811 45.3929 12.577 45.3928 13.4729C45.3928 14.3975 45.3938 15.3221 45.3952 16.2468C45.3965 17.0402 45.397 17.8336 45.3969 18.627C45.3969 19.101 45.3972 19.5751 45.3981 20.0491C45.399 20.495 45.3991 20.9408 45.3984 21.3867C45.3983 21.5503 45.3985 21.714 45.3991 21.8777C45.3998 22.1011 45.3994 22.3244 45.3986 22.5478C45.3991 22.6126 45.3996 22.6774 45.4001 22.7442C45.3975 23.1096 45.357 23.393 45.188 23.7188C44.7834 24.0732 44.3557 24.0395 43.8458 24.0341C43.762 24.0341 43.6783 24.0342 43.592 24.0342C43.4154 24.034 43.2388 24.0331 43.0622 24.0315C42.7921 24.0293 42.522 24.0296 42.2519 24.0302C42.08 24.0297 41.9082 24.029 41.7364 24.0282C41.6557 24.0283 41.5751 24.0284 41.492 24.0285C41.4165 24.0276 41.3411 24.0267 41.2634 24.0258C41.1974 24.0253 41.1314 24.0249 41.0633 24.0245C40.8385 23.9952 40.6924 23.9329 40.5005 23.8125C40.2743 23.4733 40.2862 23.2269 40.2879 22.835C40.2875 22.7635 40.287 22.692 40.2866 22.6184C40.2854 22.3781 40.2856 22.1378 40.2857 21.8975C40.2852 21.7255 40.2845 21.5535 40.2838 21.3815C40.2821 20.9137 40.2817 20.4459 40.2816 19.9781C40.2814 19.5879 40.2807 19.1976 40.2801 18.8074C40.2785 17.8868 40.2781 16.9662 40.2782 16.0456C40.2783 15.0954 40.2763 14.1452 40.2734 13.195C40.2709 12.3797 40.2699 11.5645 40.27 10.7492C40.2701 10.262 40.2696 9.77485 40.2676 9.28769C40.2658 8.82953 40.2657 8.3714 40.2671 7.91324C40.2673 7.74502 40.2669 7.5768 40.2657 7.40859C40.2643 7.17904 40.2651 6.9496 40.2666 6.72004C40.2656 6.65339 40.2647 6.58673 40.2637 6.51806C40.2717 5.93986 40.4854 5.47287 41.1118 5.4721ZM41.9067 7.12501C41.9067 12.1678 41.9067 17.2106 41.9067 22.4063C42.5255 22.4063 43.1442 22.4063 43.7817 22.4063C43.7817 17.3635 43.7817 12.3206 43.7817 7.12501C43.163 7.12501 42.5442 7.12501 41.9067 7.12501Z" fill="#FF7705"></path>
  <path d="M39.8018 0.687751C39.9183 0.687078 39.9183 0.687078 40.0371 0.686392C40.201 0.686073 40.3649 0.686935 40.5288 0.688895C40.7795 0.691405 41.0298 0.688919 41.2805 0.68592C41.44 0.68623 41.5994 0.68683 41.7588 0.687751C41.8336 0.686802 41.9084 0.685853 41.9855 0.684875C42.3372 0.692289 42.5253 0.719949 42.7992 0.947257C43.1299 1.60094 42.8609 2.3813 42.722 3.06549C42.6846 3.25216 42.6499 3.43922 42.6152 3.62641C42.5913 3.7449 42.5675 3.8634 42.5429 3.98548C42.5112 4.14712 42.5112 4.14712 42.4789 4.31203C42.3512 4.65523 42.2135 4.7768 41.9053 4.96876C41.5393 5.02012 41.3413 5.02703 41.0264 4.82813C40.8122 4.49859 40.8063 4.23427 40.7803 3.84376C40.7281 3.89705 40.6759 3.95035 40.6221 4.00526C40.2271 4.40489 39.8274 4.78995 39.4011 5.15589C39.1256 5.39707 38.8574 5.64558 38.5889 5.89454C38.1505 6.30082 37.7093 6.70364 37.2639 7.1023C37.0917 7.25724 36.9204 7.41292 36.7498 7.56959C36.7028 7.61265 36.6558 7.65572 36.6074 7.7001C36.4748 7.82173 36.3424 7.94358 36.21 8.06544C35.9089 8.3289 35.8604 8.34537 35.445 8.33167C34.8806 8.25979 34.4063 8.0275 33.8955 7.78712C33.674 7.68603 33.4523 7.58521 33.2305 7.48463C33.1703 7.45718 33.11 7.42973 33.0479 7.40145C32.2364 7.03232 31.4194 6.67553 30.6012 6.32147C30.4226 6.24394 30.2441 6.16598 30.0659 6.08758C29.8137 5.97669 29.5609 5.86716 29.308 5.75794C29.2318 5.72411 29.1557 5.69028 29.0772 5.65543C29.0065 5.62523 28.9358 5.59503 28.8629 5.56392C28.7707 5.52373 28.7707 5.52373 28.6766 5.48273C28.4552 5.42635 28.3373 5.45278 28.124 5.53126C27.9007 5.6843 27.6874 5.84036 27.4737 6.00587C27.4086 6.05544 27.3436 6.10501 27.2765 6.15608C27.1342 6.26462 26.9921 6.37344 26.8502 6.48249C26.5376 6.72268 26.2239 6.96149 25.9103 7.20038C25.7444 7.32675 25.5786 7.4532 25.4128 7.57973C24.7565 8.08041 24.0969 8.57645 23.4355 9.07034C23.0921 9.32712 22.7497 9.58483 22.4119 9.84888C22.3566 9.89204 22.3013 9.9352 22.2443 9.97967C22.1016 10.0916 21.9593 10.2042 21.8172 10.3169C21.1391 10.8026 21.1391 10.8026 20.6533 10.7285C20.1919 10.5283 20.1919 10.5283 20.0615 10.2188C20.0277 9.88601 20.0216 9.76281 20.1553 9.46876C20.4174 9.18894 20.7143 8.96676 21.0245 8.74242C21.1911 8.62172 21.3554 8.49836 21.5194 8.37415C21.7675 8.18662 22.0163 8.00024 22.2658 7.81458C22.7268 7.47075 23.1844 7.12232 23.6416 6.77344C23.724 6.71065 23.8063 6.64785 23.8911 6.58315C24.1459 6.38881 24.4006 6.19441 24.6553 6.00001C24.8298 5.86682 25.0044 5.73364 25.179 5.60047C25.2644 5.53531 25.3498 5.47015 25.4378 5.40301C25.6058 5.27502 25.7739 5.14719 25.9421 5.01955C26.2887 4.75654 26.6345 4.49317 26.9745 4.22169C27.0716 4.14531 27.1686 4.06893 27.2686 3.99024C27.3476 3.92655 27.4267 3.86287 27.5081 3.79725C27.8131 3.61876 28.0548 3.54204 28.4053 3.56251C28.8065 3.6823 29.1831 3.85199 29.5651 4.02247C29.6771 4.07098 29.7892 4.1195 29.9046 4.16949C30.2026 4.29854 30.4997 4.42948 30.7966 4.56083C31.0937 4.69185 31.3915 4.82107 31.6893 4.95045C33.4268 5.70669 33.4268 5.70669 34.1439 6.03553C34.2489 6.0832 34.2489 6.0832 34.3561 6.13183C34.5327 6.21221 34.7087 6.29382 34.8847 6.37556C35.1654 6.47224 35.2657 6.50021 35.5303 6.37501C35.7045 6.24627 35.7045 6.24627 35.8687 6.08131C35.9318 6.02112 35.9948 5.96094 36.0598 5.89893C36.1574 5.80394 36.1574 5.80394 36.2569 5.70704C36.3852 5.58362 36.5136 5.46033 36.6421 5.33716C36.7062 5.27575 36.7702 5.21434 36.8362 5.15106C37.086 4.91641 37.3437 4.69178 37.6028 4.46741C37.8683 4.23571 38.126 3.99603 38.3838 3.75587C38.8645 3.30994 39.3502 2.87029 39.8428 2.43751C39.7862 2.42832 39.7297 2.41914 39.6714 2.40967C39.3254 2.34493 39.0553 2.28706 38.7588 2.0918C38.5651 1.78012 38.5735 1.57912 38.624 1.21876C38.9157 0.696118 39.2463 0.680705 39.8018 0.687751Z" fill="#FF7705"></path>
  <path d="M26.582 9.9721C26.704 9.97033 26.704 9.97033 26.8285 9.96854C26.9152 9.96978 27.0018 9.97102 27.091 9.9723C27.1811 9.97208 27.2711 9.97185 27.3638 9.97162C27.5536 9.97171 27.7434 9.97296 27.9333 9.9753C28.2238 9.97852 28.5141 9.97724 28.8047 9.97542C28.9894 9.97606 29.174 9.97697 29.3586 9.97816C29.4454 9.9777 29.5323 9.97723 29.6217 9.97675C30.2188 9.98769 30.2188 9.98769 30.5204 10.1986C30.7529 10.5543 30.7617 10.8779 30.7624 11.2966C30.7628 11.4013 30.7632 11.5061 30.7636 11.614C30.7636 11.7285 30.7635 11.843 30.7635 11.961C30.7638 12.0819 30.7641 12.2028 30.7644 12.3274C30.7653 12.6588 30.7655 12.9902 30.7655 13.3217C30.7656 13.5288 30.7658 13.7359 30.7661 13.943C30.7669 14.6657 30.7673 15.3883 30.7672 16.111C30.7672 16.7845 30.7682 17.4579 30.7696 18.1314C30.7709 18.7098 30.7714 19.2882 30.7713 19.8667C30.7713 20.212 30.7716 20.5574 30.7725 20.9028C30.7736 21.2879 30.7732 21.673 30.7726 22.0582C30.7732 22.1725 30.7737 22.2868 30.7742 22.4046C30.7738 22.5096 30.7734 22.6146 30.773 22.7228C30.7731 22.8138 30.7731 22.9049 30.7732 22.9987C30.7383 23.3742 30.657 23.6358 30.3709 23.8866C29.9827 24.0454 29.6357 24.0385 29.2202 24.0341C29.1364 24.0341 29.0527 24.0342 28.9664 24.0342C28.7898 24.034 28.6132 24.0331 28.4366 24.0315C28.1665 24.0293 27.8964 24.0296 27.6263 24.0302C27.4544 24.0297 27.2826 24.029 27.1108 24.0282C27.0301 24.0283 26.9495 24.0284 26.8664 24.0285C26.7909 24.0276 26.7155 24.0267 26.6378 24.0258C26.5718 24.0253 26.5058 24.0249 26.4377 24.0245C26.2129 23.9952 26.0668 23.9329 25.8749 23.8125C25.6621 23.4933 25.6634 23.3806 25.6617 23.0059C25.6607 22.8965 25.6598 22.7872 25.6588 22.6745C25.6588 22.5544 25.6587 22.4343 25.6586 22.3105C25.6579 22.1829 25.6571 22.0552 25.6563 21.9275C25.6542 21.5806 25.6534 21.2337 25.6529 20.8868C25.6526 20.6701 25.652 20.4533 25.6513 20.2366C25.649 19.4805 25.6478 18.7244 25.6475 17.9682C25.6471 17.2634 25.6443 16.5586 25.6404 15.8538C25.6371 15.2487 25.6357 14.6436 25.6356 14.0385C25.6356 13.6771 25.6347 13.3157 25.6321 12.9543C25.6296 12.6143 25.6294 12.2744 25.6309 11.9344C25.6312 11.7503 25.6291 11.5663 25.627 11.3822C25.6336 10.5784 25.6336 10.5784 25.8986 10.1915C26.1573 10.0305 26.2821 9.97248 26.582 9.9721ZM27.2811 11.625C27.2811 15.1828 27.2811 18.7406 27.2811 22.4063C27.8999 22.4063 28.5186 22.4063 29.1561 22.4063C29.1561 18.8485 29.1561 15.2906 29.1561 11.625C28.5374 11.625 27.9186 11.625 27.2811 11.625Z" fill="#FF7705"></path>
  <path d="M33.8945 12.3158C34.0165 12.3141 34.0165 12.3141 34.141 12.3123C34.2277 12.3135 34.3143 12.3148 34.4035 12.3161C34.4936 12.3158 34.5836 12.3156 34.6763 12.3154C34.8661 12.3155 35.0559 12.3167 35.2458 12.3191C35.5363 12.3223 35.8266 12.321 36.1172 12.3192C36.3019 12.3198 36.4865 12.3207 36.6711 12.3219C36.7579 12.3214 36.8448 12.321 36.9342 12.3205C37.5335 12.3315 37.5335 12.3315 37.8329 12.5483C38.0369 12.8515 38.0741 13.0937 38.0749 13.4499C38.0753 13.5356 38.0757 13.6213 38.0761 13.7095C38.0761 13.8033 38.076 13.8972 38.076 13.9938C38.0763 14.0928 38.0766 14.1917 38.0769 14.2937C38.0778 14.6217 38.078 14.9496 38.0781 15.2776C38.0784 15.5052 38.0787 15.7328 38.0791 15.9603C38.0796 16.4378 38.0798 16.9152 38.0797 17.3927C38.0797 18.0048 38.081 18.6169 38.0826 19.229C38.0837 19.6992 38.0838 20.1693 38.0838 20.6395C38.0839 20.8652 38.0843 21.0909 38.085 21.3166C38.086 21.6321 38.0857 21.9477 38.0851 22.2632C38.0857 22.3566 38.0862 22.4501 38.0867 22.5463C38.083 23.3531 38.083 23.3531 37.8749 23.7188C37.4703 24.0732 37.0426 24.0395 36.5327 24.0341C36.4489 24.0341 36.3652 24.0342 36.2789 24.0342C36.1023 24.034 35.9257 24.0331 35.7491 24.0315C35.479 24.0293 35.2089 24.0296 34.9388 24.0302C34.7669 24.0297 34.5951 24.029 34.4233 24.0282C34.3426 24.0283 34.262 24.0284 34.1789 24.0285C34.1034 24.0276 34.028 24.0267 33.9503 24.0258C33.8513 24.0251 33.8513 24.0251 33.7502 24.0245C33.5254 23.9952 33.3793 23.9329 33.1874 23.8125C32.9881 23.5136 32.9761 23.4378 32.9742 23.0949C32.9732 23.0052 32.9723 22.9156 32.9713 22.8232C32.9713 22.725 32.9712 22.6269 32.9711 22.5257C32.9704 22.4222 32.9696 22.3186 32.9688 22.212C32.9665 21.8688 32.9657 21.5256 32.9651 21.1824C32.9642 20.9443 32.9634 20.7062 32.9625 20.4681C32.961 19.9686 32.9602 19.4691 32.96 18.9696C32.9596 18.3926 32.9568 17.8156 32.9529 17.2386C32.9492 16.6832 32.9482 16.1279 32.9481 15.5725C32.9477 15.3363 32.9465 15.1002 32.9446 14.864C32.9421 14.5338 32.9425 14.2038 32.9437 13.8736C32.9423 13.7758 32.9409 13.678 32.9395 13.5772C32.9439 13.137 32.9494 12.9142 33.2111 12.5487C33.4718 12.3728 33.5861 12.3162 33.8945 12.3158ZM34.5936 13.9688C34.5936 16.7531 34.5936 19.5375 34.5936 22.4063C35.2124 22.4063 35.8311 22.4063 36.4686 22.4063C36.4686 19.6219 36.4686 16.8375 36.4686 13.9688C35.8499 13.9688 35.2311 13.9688 34.5936 13.9688Z" fill="#FF7705"></path>
  <path d="M19.1747 15.7952C19.2579 15.7941 19.3412 15.7929 19.4269 15.7917C19.5607 15.7928 19.5607 15.7928 19.6971 15.794C19.7893 15.7936 19.8816 15.7932 19.9766 15.7929C20.1714 15.7926 20.3662 15.7933 20.561 15.7949C20.8591 15.7969 21.1571 15.7949 21.4553 15.7925C21.6446 15.7927 21.834 15.7932 22.0233 15.794C22.1125 15.7932 22.2016 15.7924 22.2935 15.7917C22.3767 15.7928 22.4599 15.794 22.5457 15.7952C22.6552 15.7957 22.6552 15.7957 22.7668 15.7961C23.0632 15.8658 23.1677 15.972 23.3446 16.2188C23.3811 16.4678 23.395 16.6779 23.3916 16.9266C23.3921 16.9974 23.3926 17.0682 23.3931 17.1411C23.3943 17.3747 23.3928 17.6082 23.3911 17.8418C23.3911 18.0043 23.3912 18.1668 23.3915 18.3293C23.3916 18.6698 23.3904 19.0102 23.3883 19.3507C23.3857 19.787 23.3859 20.2233 23.3871 20.6596C23.3878 20.9951 23.387 21.3307 23.3859 21.6662C23.3854 21.8271 23.3854 21.988 23.3858 22.1488C23.386 22.3737 23.3845 22.5985 23.3825 22.8234C23.3829 22.8898 23.3833 22.9563 23.3837 23.0247C23.3794 23.3097 23.3586 23.5059 23.2192 23.7571C22.9716 23.9941 22.7319 24.012 22.4047 24.0151C22.3293 24.016 22.2539 24.0169 22.1762 24.0178C22.095 24.0182 22.0139 24.0186 21.9303 24.0191C21.8046 24.0199 21.8046 24.0199 21.6763 24.0207C21.499 24.0216 21.3217 24.0222 21.1444 24.0225C20.8736 24.0234 20.6029 24.0264 20.3321 24.0293C20.1598 24.0299 19.9874 24.0304 19.815 24.0308C19.7343 24.0319 19.6535 24.0331 19.5703 24.0343C19.1268 24.0326 18.8285 24.0099 18.4696 23.7188C18.3296 23.4389 18.3604 23.1517 18.3592 22.8447C18.3586 22.7739 18.358 22.7032 18.3574 22.6303C18.3555 22.3957 18.3544 22.1611 18.3535 21.9265C18.3531 21.8465 18.3527 21.7665 18.3523 21.684C18.3504 21.2605 18.349 20.837 18.3482 20.4135C18.3471 19.9757 18.3439 19.5379 18.3402 19.1001C18.3377 18.7638 18.3369 18.4275 18.3366 18.0911C18.3361 17.9297 18.335 17.7683 18.3333 17.6069C18.331 17.3811 18.3311 17.1554 18.3318 16.9296C18.3306 16.8629 18.3294 16.7962 18.3281 16.7274C18.3314 16.4174 18.3573 16.2446 18.5396 15.9899C18.7766 15.8259 18.8896 15.7964 19.1747 15.7952ZM19.9696 17.3438C19.9696 19.0144 19.9696 20.685 19.9696 22.4063C20.5574 22.4063 21.1452 22.4063 21.7508 22.4063C21.7508 20.7356 21.7508 19.065 21.7508 17.3438C21.163 17.3438 20.5752 17.3438 19.9696 17.3438Z" fill="#FF7705"></path>
</svg>
