<?xml version="1.0" encoding="UTF-8"?>
<svg xmlns="http://www.w3.org/2000/svg" width="48" height="48" viewBox="0 0 48 48" fill="none">
  <path d="M8.84911 2.2738C8.92606 2.26725 9.00301 2.2607 9.0823 2.25395C12 2.25319 14.7244 2.34455 17.5523 2.25337C18 2.25423 16.7428 2.25305 27.4529 2.25337C29.4791 3.59522 29.1025 3.8396 32 6.00038C32.5 6.50038 33 7.00038 33.5 7.50038C33.5474 7.55488 34.189 8.08267 35.2166 9.12488C39 12.5004 38 11.0004 37.98 12.3978C37.9804 12.4962 37.9804 12.4962 37.9808 12.5966C37.9815 12.817 37.9816 13.0375 37.9818 13.258C37.9822 13.4158 37.9826 13.5735 37.9831 13.7313C37.9842 14.1605 37.9847 14.5896 37.9851 15.0187C37.9854 15.2867 37.9857 15.5547 37.9861 15.8227C37.9873 16.6607 37.9881 17.4988 37.9884 18.3368C37.9888 19.305 37.9903 20.2731 37.9928 21.2413C37.9946 21.9891 37.9955 22.737 37.9956 23.4849C37.9957 23.9319 37.9962 24.3788 37.9977 24.8257C37.9991 25.246 37.9993 25.6662 37.9985 26.0865C37.9985 26.2409 37.9988 26.3952 37.9997 26.5495C38.0008 26.7601 38.0003 26.9706 37.9994 27.1811C38.0004 27.2729 38.0004 27.2729 38.0015 27.3665C37.9978 27.7333 37.9446 27.9659 37.712 28.2566C37.4559 28.4232 37.4559 28.4232 37.1572 28.4076C36.7614 28.3179 36.7614 28.3179 36.6025 28.0899C36.5779 27.876 36.569 27.6823 36.5717 27.4684C36.5715 27.4046 36.5713 27.3407 36.571 27.275C36.5706 27.0604 36.572 26.8459 36.5734 26.6314C36.5735 26.4778 36.5734 26.3243 36.5733 26.1708C36.5732 25.7534 36.5747 25.336 36.5765 24.9185C36.5781 24.4825 36.5783 24.0466 36.5786 23.6106C36.5794 22.7847 36.5815 21.9588 36.584 21.1329C36.5869 20.1928 36.5883 19.2526 36.5896 18.3125C36.5923 16.3783 36.5968 14.4441 36.6025 12.51C36.5103 12.5109 36.4181 12.5118 36.3231 12.5128C35.4517 12.5212 34.5804 12.5275 33.709 12.5315C33.261 12.5337 32.8131 12.5367 32.3652 12.5414C31.9325 12.5459 31.4998 12.5484 31.067 12.5495C30.9024 12.5503 30.7378 12.5517 30.5732 12.554C28.7709 12.5777 28.7709 12.5777 28.0778 11.9471C27.5673 11.4277 27.4317 10.8849 27.4414 10.1877C27.4413 10.1161 27.4413 10.0445 27.4413 9.97077C27.4414 9.73589 27.4434 9.50106 27.4454 9.26619C27.4459 9.10265 27.4463 8.9391 27.4465 8.77556C27.4475 8.34643 27.45 7.91732 27.4529 7.4882C27.4555 7.04979 27.4566 6.61137 27.4579 6.17295C27.4607 5.3137 27.465 4.45446 27.4704 3.59522C25.0467 3.60026 22.623 3.60672 20.1993 3.61486C19.0739 3.6186 17.9485 3.62189 16.8231 3.62408C15.8422 3.626 14.8613 3.62878 13.8803 3.6326C13.361 3.63459 12.8416 3.63616 12.3223 3.63668C11.8333 3.63718 11.3443 3.63885 10.8552 3.6414C10.676 3.64213 10.4967 3.64244 10.3174 3.64229C10.0721 3.64215 9.82685 3.64355 9.58156 3.64531C9.51108 3.64491 9.44059 3.6445 9.36796 3.64409C8.76526 3.65121 8.22582 3.75413 7.75546 4.13677C7.47739 4.47609 7.48858 4.74303 7.48797 5.16541C7.48777 5.22404 7.48757 5.28268 7.48736 5.34308C7.48679 5.54103 7.48683 5.73898 7.48686 5.93693C7.48658 6.07969 7.48627 6.22246 7.48591 6.36522C7.48506 6.7587 7.48474 7.15217 7.48452 7.54565C7.48418 7.96957 7.48336 8.39348 7.48262 8.8174C7.48093 9.84168 7.48007 10.866 7.47931 11.8902C7.47894 12.3723 7.47848 12.8544 7.47803 13.3364C7.47658 14.9384 7.47535 16.5403 7.47473 18.1423C7.47456 18.5581 7.4744 18.974 7.47423 19.3898C7.47419 19.4932 7.47415 19.5965 7.47411 19.703C7.4734 21.3782 7.47124 23.0533 7.46847 24.7284C7.46565 26.4473 7.46411 28.1662 7.46383 29.885C7.46365 30.8505 7.4629 31.816 7.46072 32.7814C7.45887 33.6035 7.45818 34.4255 7.45901 35.2476C7.4594 35.6672 7.45923 36.0867 7.45758 36.5063C7.45608 36.8903 7.45616 37.2743 7.45749 37.6583C7.45769 37.7973 7.45732 37.9363 7.45631 38.0752C7.45502 38.2641 7.45584 38.4529 7.45718 38.6418C7.4571 38.7468 7.45701 38.8517 7.45693 38.9598C7.51059 39.3315 7.62666 39.5268 7.84081 39.8374C8.28559 40.163 8.69705 40.183 9.23795 40.1822C9.30149 40.1824 9.36503 40.1826 9.4305 40.1829C9.6435 40.1836 9.8565 40.1837 10.0695 40.1838C10.2222 40.1842 10.3748 40.1846 10.5275 40.1851C10.8563 40.186 11.1851 40.1867 11.5138 40.1873C12.0334 40.1881 12.553 40.1898 13.0726 40.1917C14.55 40.1968 16.0275 40.2013 17.505 40.2041C18.3209 40.2056 19.1369 40.208 19.9528 40.2114C20.3848 40.2132 20.8167 40.2145 21.2486 40.2147C21.6546 40.2148 22.0605 40.2162 22.4665 40.2184C22.6157 40.219 22.7649 40.2191 22.9141 40.2189C23.1174 40.2185 23.3205 40.2197 23.5237 40.2213C23.5832 40.2208 23.6427 40.2204 23.7039 40.2199C23.9445 40.2232 24.1044 40.228 24.3039 40.366C24.4493 40.5792 24.4729 40.7494 24.4833 41.0038C24.3816 41.2338 24.2989 41.3731 24.0854 41.5141C23.8082 41.6154 23.5665 41.608 23.2706 41.6082C23.2085 41.6084 23.1465 41.6087 23.0825 41.609C22.8744 41.6096 22.6664 41.6091 22.4583 41.6086C22.3091 41.6088 22.16 41.6091 22.0108 41.6095C21.6054 41.6102 21.1999 41.6099 20.7945 41.6094C20.3699 41.609 19.9454 41.6094 19.5208 41.6096C18.8072 41.6099 18.0936 41.6095 17.38 41.6087C16.5562 41.6078 15.7325 41.6081 14.9087 41.609C14.2009 41.6098 13.4931 41.6099 12.7854 41.6095C12.3629 41.6092 11.9404 41.6092 11.518 41.6097C11.1202 41.6102 10.7225 41.6099 10.3247 41.6089C10.1792 41.6087 10.0337 41.6088 9.88813 41.6091C8.70166 41.6119 7.68089 41.5878 6.74665 40.7874C5.99806 40.0107 5.99926 39.0779 6.00519 38.0748C6.0048 37.9296 6.00425 37.7845 6.00358 37.6393C6.00215 37.2419 6.00285 36.8446 6.00391 36.4472C6.00469 36.0181 6.00349 35.5889 6.00255 35.1598C6.00104 34.3197 6.00136 33.4796 6.00235 32.6395C6.00312 31.9567 6.00323 31.2739 6.00286 30.591C6.0028 30.4938 6.00275 30.3966 6.0027 30.2964C6.00259 30.0989 6.00248 29.9014 6.00237 29.7039C6.00139 27.8522 6.00251 26.0006 6.00435 24.1489C6.00587 22.5605 6.00561 20.9721 6.00403 19.3837C6.00221 17.5387 6.00149 15.6936 6.00254 13.8485C6.00264 13.6517 6.00275 13.4549 6.00286 13.2582C6.00291 13.1613 6.00296 13.0645 6.00302 12.9648C6.00331 12.2828 6.00281 11.6009 6.00201 10.919C6.00105 10.0878 6.00131 9.25669 6.00313 8.42553C6.00403 8.00155 6.00438 7.57759 6.00325 7.15361C6.00223 6.76529 6.0028 6.377 6.00461 5.98868C6.00499 5.84841 6.0048 5.70814 6.00397 5.56787C5.99884 4.62802 6.0565 3.78531 6.74464 3.06213C7.39889 2.50735 8.00657 2.34416 8.84911 2.2738ZM28.836 4.67832C28.8281 5.45325 28.822 6.22817 28.8183 7.00314C28.8165 7.36299 28.8141 7.72283 28.8102 8.08267C28.8065 8.43003 28.8045 8.77736 28.8036 9.12473C28.803 9.25717 28.8017 9.38961 28.7999 9.52204C28.7974 9.70775 28.7971 9.89335 28.7972 10.0791C28.7965 10.1847 28.7957 10.2904 28.7949 10.3992C28.8432 10.7259 28.9417 10.8616 29.1774 11.0936C29.4285 11.2162 29.6512 11.1869 29.9315 11.1864C30.0215 11.1864 30.0215 11.1864 30.1132 11.1864C30.3118 11.1864 30.5104 11.1857 30.7089 11.1851C30.8465 11.1849 30.984 11.1848 31.1215 11.1847C31.4838 11.1844 31.8461 11.1836 32.2083 11.1826C32.5779 11.1818 32.9474 11.1814 33.317 11.181C34.0423 11.1801 34.7676 11.1787 35.493 11.1769C35.1351 10.7602 34.7623 10.3683 34.3679 9.98449C34.3088 9.9267 34.2498 9.86892 34.189 9.80939C33.9956 9.62031 33.802 9.43152 33.6084 9.24276C33.4734 9.11098 33.3385 8.97919 33.2036 8.84739C32.9219 8.57225 32.64 8.29726 32.358 8.02238C31.9957 7.66918 31.6338 7.3156 31.272 6.96191C30.994 6.69024 30.7158 6.41877 30.4376 6.14736C30.304 6.01697 30.1704 5.88652 30.0369 5.756C29.8512 5.57449 29.6652 5.39325 29.4791 5.21208C29.4236 5.15768 29.368 5.10328 29.3108 5.04724C29.1054 4.79746 29.1054 4.79746 28.836 4.67832Z" fill="#FF7705"></path>
  <path d="M32.9957 27.6142C33.0697 27.6128 33.1437 27.6115 33.2199 27.6101C33.7872 27.6136 34.2681 27.7349 34.6935 28.1281C35.0052 28.4809 35.1549 28.8003 35.1965 29.2659C35.3772 29.6407 35.5069 29.6866 35.8812 29.8527C36.2752 29.9969 36.2752 29.9969 36.6742 29.9376C36.8337 29.8248 36.8337 29.8248 36.9632 29.689C37.1968 29.4555 37.4815 29.4644 37.7939 29.4561C38.5106 29.4674 38.8968 29.7182 39.4078 30.2059C39.8387 30.6605 40.1665 31.0763 40.2212 31.7272C40.2014 32.1386 40.1111 32.6287 39.8109 32.9252C39.7712 32.9656 39.7314 33.0059 39.6904 33.0475C39.6859 33.3366 39.6859 33.3366 39.7773 33.656C39.792 33.7161 39.8067 33.7761 39.8218 33.838C39.898 34.0541 39.9659 34.1849 40.1251 34.3514C40.4049 34.4585 40.6854 34.5282 40.9758 34.601C41.3994 34.7498 41.6321 35.0184 41.864 35.3946C41.9983 35.7977 41.9813 36.2003 41.9889 36.6226C41.9929 36.7102 41.9969 36.7978 42.001 36.8881C42.0106 37.5323 41.8749 37.9615 41.4292 38.4373C41.09 38.6761 40.8314 38.7833 40.4131 38.7904C40.114 38.8418 40.114 38.8418 39.9875 39.074C39.7054 39.6475 39.7054 39.6475 39.7773 40.2629C39.8347 40.3561 39.8921 40.4493 39.9512 40.5454C40.2251 41.0089 40.2719 41.4992 40.1577 42.0232C39.8977 42.7044 39.215 43.3287 38.6002 43.6994C38.1592 43.8677 37.7091 43.8654 37.256 43.7402C37.0424 43.6377 36.8497 43.517 36.6474 43.3924C36.191 43.2507 35.8894 43.3734 35.4699 43.5727C35.1341 43.8359 35.1098 44.1329 35.0406 44.5388C34.9598 44.9762 34.7425 45.1498 34.394 45.4004C33.9608 45.6426 33.5181 45.6133 33.0338 45.6038C32.9455 45.6044 32.8572 45.605 32.7663 45.6056C32.2038 45.6009 31.8127 45.5414 31.3618 45.18C31.0784 44.8624 30.9699 44.6281 30.8928 44.2074C30.8216 43.8942 30.7816 43.7752 30.5223 43.5792C30.1034 43.379 29.8011 43.2476 29.3441 43.3924C29.267 43.4498 29.1899 43.5072 29.1104 43.5663C28.6832 43.8242 28.2597 43.8802 27.7669 43.7948C27.0615 43.5713 26.4541 42.9476 26.0403 42.3492C25.819 41.8909 25.8172 41.4585 25.8664 40.9583C25.9836 40.6599 26.1237 40.4419 26.3011 40.1759C26.2828 39.7091 26.178 39.232 25.8664 38.8719C25.6696 38.7945 25.4882 38.7636 25.2792 38.7337C24.8849 38.6617 24.6308 38.4246 24.3666 38.1384C24.0281 37.6428 24.0088 37.2126 24.008 36.628C24.0058 36.5529 24.0037 36.4777 24.0015 36.4003C23.9985 35.7435 24.1693 35.2933 24.6057 34.8024C24.8659 34.5968 25.114 34.5749 25.4371 34.5253C25.7852 34.4491 25.9157 34.4003 26.1357 34.1148C26.2767 33.8065 26.3589 33.5594 26.388 33.2213C26.2887 32.9704 26.16 32.7888 25.9988 32.5731C25.7638 32.1808 25.7887 31.7496 25.8664 31.3088C26.0461 30.8445 26.3324 30.5423 26.6815 30.2004C26.7306 30.1503 26.7796 30.1002 26.8302 30.0486C27.2384 29.6433 27.5662 29.4591 28.1541 29.4506C28.6974 29.4594 29.0614 29.6417 29.5044 29.9383C29.8641 30.066 30.1667 29.8865 30.4995 29.7403C30.8604 29.4798 30.88 29.2001 30.9485 28.7772C31.0206 28.3977 31.1427 28.2614 31.4307 28.0054C31.9417 27.669 32.393 27.6032 32.9957 27.6142ZM32.3871 29.0486C32.1945 29.3375 32.1603 29.5434 32.1052 29.8788C31.976 30.2966 31.7829 30.5544 31.4158 30.7913C29.8532 31.535 29.8532 31.535 28.9963 31.3088C28.7138 31.1349 28.7138 31.1349 28.4747 30.9611C28.2697 30.8726 28.2697 30.8726 28.04 30.8741C27.8131 31.0181 27.8131 31.0181 27.6161 31.2327C27.5464 31.3011 27.4767 31.3695 27.4049 31.4399C27.2343 31.644 27.2343 31.644 27.2677 31.882C27.3451 32.1126 27.3451 32.1126 27.5183 32.3846C27.7616 32.7957 27.805 33.1443 27.7302 33.618C27.4918 34.4377 27.2372 35.2238 26.4733 35.6714C26.2813 35.7505 26.0972 35.7947 25.8935 35.8347C25.6379 35.8708 25.6379 35.8708 25.4317 36.0032C25.4207 36.204 25.4164 36.4052 25.4154 36.6063C25.4141 36.7164 25.4129 36.8266 25.4116 36.9401C25.4015 37.228 25.4015 37.228 25.6055 37.3941C25.7793 37.4403 25.7793 37.4403 25.9751 37.4701C26.561 37.5915 26.9096 37.8701 27.2575 38.3503C27.6033 39.0867 27.895 39.8104 27.6704 40.6181C27.6052 40.7844 27.6052 40.7844 27.4151 41.0615C27.242 41.2875 27.242 41.2875 27.2412 41.5179C27.4009 41.8625 27.6598 42.1111 27.953 42.3492C28.2025 42.4664 28.2025 42.4664 28.3823 42.3526C28.4711 42.2918 28.4711 42.2918 28.5616 42.2297C29.0707 41.8846 29.5205 41.8299 30.1266 41.9146C30.7794 42.1052 31.5538 42.3913 31.9619 42.9608C32.0855 43.2335 32.1292 43.5102 32.1596 43.8067C32.1994 44.0117 32.1994 44.0117 32.3644 44.1558C32.5962 44.2807 32.7395 44.2914 33.0012 44.2835C33.113 44.2815 33.113 44.2815 33.227 44.2794C33.4438 44.2685 33.4438 44.2685 33.6913 44.1748C33.791 43.9004 33.8579 43.6227 33.9297 43.3398C34.11 42.8533 34.3497 42.5648 34.809 42.339C34.9337 42.2861 35.0593 42.2352 35.1856 42.1862C35.2842 42.1473 35.2842 42.1473 35.3848 42.1075C35.9451 41.8971 36.4378 41.7694 37.0158 41.9883C37.1893 42.0716 37.3517 42.1636 37.5168 42.2623C37.6323 42.3211 37.7481 42.3792 37.8646 42.4362C37.9757 42.3446 38.086 42.252 38.196 42.1591C38.2576 42.1076 38.3191 42.0562 38.3825 42.0032C38.5724 41.8155 38.6931 41.6264 38.8209 41.393C38.7833 41.3413 38.7456 41.2897 38.7068 41.2364C38.398 40.7768 38.2097 40.4064 38.2426 39.8462C38.317 39.4802 38.4342 39.1429 38.571 38.7959C38.5955 38.7328 38.6201 38.6697 38.6454 38.6047C38.8341 38.1642 39.0298 37.9228 39.4295 37.6549C39.7277 37.5364 39.7277 37.5364 40.0273 37.4538C40.1275 37.4255 40.2277 37.3971 40.3309 37.3679C40.4064 37.3479 40.482 37.3278 40.5598 37.3072C40.5668 37.0934 40.572 36.8798 40.5761 36.666C40.5783 36.6053 40.5805 36.5445 40.5827 36.482C40.5885 36.2842 40.5885 36.2842 40.5598 36.0032C40.3076 35.835 40.2144 35.8059 39.9295 35.7641C39.4707 35.6617 39.192 35.5141 38.9079 35.1338C38.4909 34.4233 38.1238 33.6229 38.2993 32.7867C38.3912 32.5364 38.5086 32.3181 38.6471 32.0912C38.7059 31.9757 38.7641 31.8599 38.8209 31.7435C38.7232 31.6311 38.6254 31.5188 38.5275 31.4066C38.473 31.3441 38.4186 31.2816 38.3624 31.2171C38.258 31.0995 38.1497 30.9854 38.0384 30.8741C37.7403 30.8912 37.5777 30.9771 37.3212 31.1349C36.9091 31.3784 36.4905 31.4553 36.0194 31.3543C35.8185 31.2898 35.6253 31.2152 35.4301 31.1349C35.3542 31.1056 35.2782 31.0762 35.1999 31.046C34.2416 30.6723 34.2416 30.6723 34.1151 30.4123C34.09 30.3352 34.0649 30.2581 34.0391 30.1787C33.996 30.0765 33.996 30.0765 33.9521 29.9722C33.8652 29.744 33.8652 29.744 33.7728 29.418C33.7203 29.1505 33.7203 29.1505 33.6043 29.0486C33.4036 29.0354 33.2023 29.0293 33.0012 29.0268C32.891 29.0246 32.7808 29.0224 32.6673 29.02C32.5749 29.0295 32.4824 29.0389 32.3871 29.0486Z" fill="#FF7705"></path>
  <path d="M36.5875 33.6023C37.3495 34.2459 37.9693 35.1924 37.9989 36.1427C38.0307 37.4307 37.7722 38.4632 36.7629 39.4446C35.8546 40.1938 34.7418 40.6101 33.5037 40.6101C32.2152 40.5277 31.0381 40.1493 30.1261 39.3114C29.2483 38.3768 28.9365 37.3169 29.0125 36.1223C29.1196 35.1096 29.6878 34.2358 30.5103 33.5419C32.3536 32.2888 34.7745 32.2905 36.5875 33.6023ZM30.9493 34.9828C30.4395 35.6438 30.3354 36.3235 30.4057 37.1087C30.588 37.8499 31.0322 38.4522 31.7342 38.888C32.5493 39.3284 33.3499 39.4815 34.2926 39.3042C35.167 39.0738 35.8149 38.6179 36.2869 37.9297C36.6794 37.2639 36.7313 36.4692 36.5427 35.7392C36.2207 34.9805 35.6766 34.459 34.8805 34.064C33.4373 33.489 31.9215 33.9283 30.9493 34.9828Z" fill="#FF7705"></path>
  <path d="M12.393 7.00549C12.4904 7.00501 12.5878 7.00453 12.6882 7.00404C12.9549 7.0032 13.2215 7.00428 13.4881 7.0063C13.7675 7.00804 14.0468 7.00753 14.3262 7.00733C14.7953 7.00733 15.2644 7.00903 15.7334 7.01179C16.2754 7.01497 16.8173 7.01572 17.3592 7.01512C17.881 7.01458 18.4028 7.01551 18.9247 7.01718C19.1465 7.01789 19.3684 7.01812 19.5902 7.01798C19.9001 7.01789 20.21 7.01998 20.5199 7.0223C20.6118 7.02204 20.7037 7.02179 20.7984 7.02153C20.9252 7.023 20.9252 7.023 21.0546 7.02449C21.1278 7.02481 21.201 7.02513 21.2765 7.02546C21.5263 7.06559 21.6795 7.16 21.8838 7.31658C21.9548 7.47725 21.9548 7.47725 21.9742 7.65002C21.9827 7.70659 21.9912 7.76316 22 7.82145C21.9557 8.04831 21.8662 8.18308 21.7103 8.34227C21.3761 8.55195 20.96 8.49357 20.5842 8.48953C20.4355 8.49045 20.4355 8.49045 20.2838 8.49139C20.0125 8.4926 19.7413 8.49187 19.47 8.49018C19.1859 8.48877 18.9018 8.48953 18.6177 8.48997C18.1407 8.49036 17.6637 8.48899 17.1867 8.48659C16.6353 8.48383 16.0841 8.48383 15.5327 8.48531C15.002 8.48668 14.4714 8.4861 13.9407 8.48463C13.715 8.48404 13.4892 8.48413 13.2635 8.48476C12.9484 8.48555 12.6333 8.48348 12.3182 8.48112C12.1776 8.48197 12.1776 8.48197 12.0343 8.48283C11.9485 8.48173 11.8627 8.48064 11.7743 8.47951C11.6998 8.47927 11.6253 8.47902 11.5486 8.47878C11.2875 8.42133 11.1914 8.31331 11.0291 8.09102C10.9743 7.73312 10.9838 7.56135 11.1728 7.2577C11.5638 6.95603 11.9222 6.99964 12.393 7.00549Z" fill="#FF7705"></path>
  <path d="M12.8995 10.0055C13.0324 10.005 13.1652 10.0045 13.3022 10.004C13.6658 10.0032 14.0293 10.0043 14.3929 10.0063C14.7738 10.008 15.1548 10.0075 15.5357 10.0073C16.1754 10.0073 16.815 10.009 17.4547 10.0118C18.1937 10.015 18.9326 10.0157 19.6716 10.0151C20.3832 10.0146 21.0948 10.0155 21.8064 10.0172C22.1089 10.0179 22.4114 10.0181 22.7139 10.018C23.1365 10.0179 23.5591 10.02 23.9817 10.0223C24.107 10.022 24.2323 10.0218 24.3614 10.0215C24.5343 10.023 24.5343 10.023 24.7108 10.0245C24.8106 10.0248 24.9105 10.0251 25.0133 10.0255C25.3541 10.0656 25.5629 10.16 25.8415 10.3166C25.9383 10.4772 25.9383 10.4772 25.9649 10.65C25.9765 10.7066 25.9881 10.7632 26 10.8214C25.9396 11.0483 25.8176 11.1831 25.605 11.3423C25.1492 11.552 24.5818 11.4936 24.0694 11.4895C23.8666 11.4905 23.8666 11.4905 23.6598 11.4914C23.2898 11.4926 22.92 11.4919 22.55 11.4902C22.1626 11.4888 21.7751 11.4895 21.3877 11.49C20.7373 11.4904 20.0868 11.489 19.4364 11.4866C18.6846 11.4838 17.9328 11.4838 17.181 11.4853C16.4573 11.4867 15.7337 11.4861 15.01 11.4846C14.7022 11.484 14.3944 11.4841 14.0866 11.4848C13.6569 11.4855 13.2272 11.4835 12.7975 11.4811C12.6059 11.482 12.6059 11.482 12.4104 11.4828C12.2934 11.4817 12.1764 11.4806 12.0559 11.4795C11.9543 11.4793 11.8527 11.479 11.7481 11.4788C11.3921 11.4213 11.261 11.3133 11.0396 11.091C10.965 10.7331 10.978 10.5613 11.2356 10.2577C11.7688 9.95603 12.2575 9.99964 12.8995 10.0055Z" fill="#FF7705"></path>
  <path d="M12.8995 12.7555C13.0324 12.755 13.1652 12.7545 13.3022 12.754C13.6658 12.7532 14.0293 12.7543 14.3929 12.7563C14.7738 12.758 15.1548 12.7575 15.5357 12.7573C16.1754 12.7573 16.815 12.759 17.4547 12.7618C18.1937 12.765 18.9326 12.7657 19.6716 12.7651C20.3832 12.7646 21.0948 12.7655 21.8064 12.7672C22.1089 12.7679 22.4114 12.7681 22.7139 12.768C23.1365 12.7679 23.5591 12.77 23.9817 12.7723C24.107 12.772 24.2323 12.7718 24.3614 12.7715C24.5343 12.773 24.5343 12.773 24.7108 12.7745C24.8106 12.7748 24.9105 12.7751 25.0133 12.7755C25.3541 12.8156 25.5629 12.91 25.8415 13.0666C25.9383 13.2272 25.9383 13.2272 25.9649 13.4C25.9765 13.4566 25.9881 13.5132 26 13.5714C25.9396 13.7983 25.8176 13.9331 25.605 14.0923C25.1492 14.302 24.5818 14.2436 24.0694 14.2395C23.8666 14.2405 23.8666 14.2405 23.6598 14.2414C23.2898 14.2426 22.92 14.2419 22.55 14.2402C22.1626 14.2388 21.7751 14.2395 21.3877 14.24C20.7373 14.2404 20.0868 14.239 19.4364 14.2366C18.6846 14.2338 17.9328 14.2338 17.181 14.2353C16.4573 14.2367 15.7337 14.2361 15.01 14.2346C14.7022 14.234 14.3944 14.2341 14.0866 14.2348C13.6569 14.2355 13.2272 14.2335 12.7975 14.2311C12.6059 14.232 12.6059 14.232 12.4104 14.2328C12.2934 14.2317 12.1764 14.2306 12.0559 14.2295C11.9543 14.2293 11.8527 14.229 11.7481 14.2288C11.3921 14.1713 11.261 14.0633 11.0396 13.841C10.965 13.4831 10.978 13.3113 11.2356 13.0077C11.7688 12.706 12.2575 12.7496 12.8995 12.7555Z" fill="#FF7705"></path>
  <path d="M13.7859 16.0055C13.9808 16.005 14.1757 16.0045 14.3765 16.004C14.9098 16.0032 15.4429 16.0043 15.9763 16.0063C16.535 16.008 17.0937 16.0075 17.6524 16.0073C18.5906 16.0073 19.5287 16.009 20.4669 16.0118C21.5507 16.015 22.6345 16.0157 23.7184 16.0151C24.762 16.0146 25.8057 16.0155 26.8493 16.0172C27.293 16.0179 27.7367 16.0181 28.1804 16.018C28.8002 16.0179 29.42 16.02 30.0398 16.0223C30.2236 16.022 30.4074 16.0218 30.5968 16.0215C30.8504 16.023 30.8504 16.023 31.1091 16.0245C31.2556 16.0248 31.402 16.0251 31.5529 16.0255C32.0527 16.0656 32.359 16.16 32.7676 16.3166C32.9095 16.4772 32.9095 16.4772 32.9485 16.65C32.9655 16.7066 32.9825 16.7632 33 16.8214C32.9115 17.0483 32.7324 17.1831 32.4207 17.3423C31.7522 17.552 30.9199 17.4936 30.1685 17.4895C29.8711 17.4905 29.8711 17.4905 29.5676 17.4914C29.025 17.4926 28.4826 17.4919 27.94 17.4902C27.3718 17.4888 26.8035 17.4895 26.2353 17.49C25.2813 17.4904 24.3274 17.489 23.3734 17.4866C22.2707 17.4838 21.1681 17.4838 20.0654 17.4853C19.0041 17.4867 17.9427 17.4861 16.8814 17.4846C16.4299 17.484 15.9785 17.4841 15.527 17.4848C14.8968 17.4855 14.2666 17.4835 13.6364 17.4811C13.3553 17.482 13.3553 17.482 13.0685 17.4828C12.897 17.4817 12.7254 17.4806 12.5486 17.4795C12.3997 17.4793 12.2507 17.479 12.0972 17.4788C11.5751 17.4213 11.3828 17.3133 11.0581 17.091C10.9487 16.7331 10.9677 16.5613 11.3456 16.2577C12.1276 15.956 12.8444 15.9996 13.7859 16.0055Z" fill="#FF7705"></path>
  <path d="M13.7859 19.0055C13.9808 19.005 14.1757 19.0045 14.3765 19.004C14.9098 19.0032 15.4429 19.0043 15.9763 19.0063C16.535 19.008 17.0937 19.0075 17.6524 19.0073C18.5906 19.0073 19.5287 19.009 20.4669 19.0118C21.5507 19.015 22.6345 19.0157 23.7184 19.0151C24.762 19.0146 25.8057 19.0155 26.8493 19.0172C27.293 19.0179 27.7367 19.0181 28.1804 19.018C28.8002 19.0179 29.42 19.02 30.0398 19.0223C30.2236 19.022 30.4074 19.0218 30.5968 19.0215C30.8504 19.023 30.8504 19.023 31.1091 19.0245C31.2556 19.0248 31.402 19.0251 31.5529 19.0255C32.0527 19.0656 32.359 19.16 32.7676 19.3166C32.9095 19.4772 32.9095 19.4772 32.9485 19.65C32.9655 19.7066 32.9825 19.7632 33 19.8214C32.9115 20.0483 32.7324 20.1831 32.4207 20.3423C31.7522 20.552 30.9199 20.4936 30.1685 20.4895C29.8711 20.4905 29.8711 20.4905 29.5676 20.4914C29.025 20.4926 28.4826 20.4919 27.94 20.4902C27.3718 20.4888 26.8035 20.4895 26.2353 20.49C25.2813 20.4904 24.3274 20.489 23.3734 20.4866C22.2707 20.4838 21.1681 20.4838 20.0654 20.4853C19.0041 20.4867 17.9427 20.4861 16.8814 20.4846C16.4299 20.484 15.9785 20.4841 15.527 20.4848C14.8968 20.4855 14.2666 20.4835 13.6364 20.4811C13.3553 20.482 13.3553 20.482 13.0685 20.4828C12.897 20.4817 12.7254 20.4806 12.5486 20.4795C12.3997 20.4793 12.2507 20.479 12.0972 20.4788C11.5751 20.4213 11.3828 20.3133 11.0581 20.091C10.9487 19.7331 10.9677 19.5613 11.3456 19.2577C12.1276 18.956 12.8444 18.9996 13.7859 19.0055Z" fill="#FF7705"></path>
  <path d="M13.7859 22.0055C13.9808 22.005 14.1757 22.0045 14.3765 22.004C14.9098 22.0032 15.4429 22.0043 15.9763 22.0063C16.535 22.008 17.0937 22.0075 17.6524 22.0073C18.5906 22.0073 19.5287 22.009 20.4669 22.0118C21.5507 22.015 22.6345 22.0157 23.7184 22.0151C24.762 22.0146 25.8057 22.0155 26.8493 22.0172C27.293 22.0179 27.7367 22.0181 28.1804 22.018C28.8002 22.0179 29.42 22.02 30.0398 22.0223C30.2236 22.022 30.4074 22.0218 30.5968 22.0215C30.8504 22.023 30.8504 22.023 31.1091 22.0245C31.2556 22.0248 31.402 22.0251 31.5529 22.0255C32.0527 22.0656 32.359 22.16 32.7676 22.3166C32.9095 22.4772 32.9095 22.4772 32.9485 22.65C32.9655 22.7066 32.9825 22.7632 33 22.8214C32.9115 23.0483 32.7324 23.1831 32.4207 23.3423C31.7522 23.552 30.9199 23.4936 30.1685 23.4895C29.8711 23.4905 29.8711 23.4905 29.5676 23.4914C29.025 23.4926 28.4826 23.4919 27.94 23.4902C27.3718 23.4888 26.8035 23.4895 26.2353 23.49C25.2813 23.4904 24.3274 23.489 23.3734 23.4866C22.2707 23.4838 21.1681 23.4838 20.0654 23.4853C19.0041 23.4867 17.9427 23.4861 16.8814 23.4846C16.4299 23.484 15.9785 23.4841 15.527 23.4848C14.8968 23.4855 14.2666 23.4835 13.6364 23.4811C13.3553 23.482 13.3553 23.482 13.0685 23.4828C12.897 23.4817 12.7254 23.4806 12.5486 23.4795C12.3997 23.4793 12.2507 23.479 12.0972 23.4788C11.5751 23.4213 11.3828 23.3133 11.0581 23.091C10.9487 22.7331 10.9677 22.5613 11.3456 22.2577C12.1276 21.956 12.8444 21.9996 13.7859 22.0055Z" fill="#FF7705"></path>
  <path d="M13.7859 25.0055C13.9808 25.005 14.1757 25.0045 14.3765 25.004C14.9098 25.0032 15.4429 25.0043 15.9763 25.0063C16.535 25.008 17.0937 25.0075 17.6524 25.0073C18.5906 25.0073 19.5287 25.009 20.4669 25.0118C21.5507 25.015 22.6345 25.0157 23.7184 25.0151C24.762 25.0146 25.8057 25.0155 26.8493 25.0172C27.293 25.0179 27.7367 25.0181 28.1804 25.018C28.8002 25.0179 29.42 25.02 30.0398 25.0223C30.2236 25.022 30.4074 25.0218 30.5968 25.0215C30.8504 25.023 30.8504 25.023 31.1091 25.0245C31.2556 25.0248 31.402 25.0251 31.5529 25.0255C32.0527 25.0656 32.359 25.16 32.7676 25.3166C32.9095 25.4772 32.9095 25.4772 32.9485 25.65C32.9655 25.7066 32.9825 25.7632 33 25.8214C32.9115 26.0483 32.7324 26.1831 32.4207 26.3423C31.7522 26.552 30.9199 26.4936 30.1685 26.4895C29.8711 26.4905 29.8711 26.4905 29.5676 26.4914C29.025 26.4926 28.4826 26.4919 27.94 26.4902C27.3718 26.4888 26.8035 26.4895 26.2353 26.49C25.2813 26.4904 24.3274 26.489 23.3734 26.4866C22.2707 26.4838 21.1681 26.4838 20.0654 26.4853C19.0041 26.4867 17.9427 26.4861 16.8814 26.4846C16.4299 26.484 15.9785 26.4841 15.527 26.4848C14.8968 26.4855 14.2666 26.4835 13.6364 26.4811C13.3553 26.482 13.3553 26.482 13.0685 26.4828C12.897 26.4817 12.7254 26.4806 12.5486 26.4795C12.3997 26.4793 12.2507 26.479 12.0972 26.4788C11.5751 26.4213 11.3828 26.3133 11.0581 26.091C10.9487 25.7331 10.9677 25.5613 11.3456 25.2577C12.1276 24.956 12.8444 24.9996 13.7859 25.0055Z" fill="#FF7705"></path>
</svg>
