<?xml version="1.0" encoding="UTF-8"?>
<svg xmlns="http://www.w3.org/2000/svg" width="48" height="48" viewBox="0 0 48 48" fill="none">
  <path d="M39.375 6.46876C40.0653 6.9466 40.4232 7.45718 40.6875 8.25001C40.7604 9.16783 40.753 9.90086 40.2187 10.6875C40.1665 10.7726 40.1143 10.8577 40.0605 10.9453C39.6807 11.3149 39.1685 11.7188 38.625 11.7188C38.625 15.0909 38.625 18.4631 38.625 21.9375C38.6869 21.9066 38.7487 21.8756 38.8125 21.8438C39.6273 21.8369 40.247 22.0043 40.8574 22.5469C41.0625 22.7813 41.0625 22.7813 41.1797 23.0039C41.3297 23.174 41.3297 23.174 41.532 23.1749C41.9421 23.1512 42.1435 23.0982 42.4687 22.834C42.7422 22.4836 42.7628 22.3085 42.7692 21.8686C42.7711 21.756 42.773 21.6434 42.7749 21.5274C42.7765 21.4053 42.778 21.2832 42.7797 21.1575C42.7816 21.0316 42.7836 20.9058 42.7856 20.7799C42.7907 20.4486 42.7954 20.1172 42.7999 19.7858C42.8046 19.4478 42.8098 19.1097 42.815 18.7716C42.8251 18.1082 42.8346 17.4447 42.8437 16.7813C42.6892 16.7403 42.6892 16.7403 42.5316 16.6985C41.93 16.5153 41.4544 16.0603 41.1101 15.5376C40.724 14.7767 40.6532 13.9718 40.842 13.1378C41.1208 12.3717 41.5727 11.8177 42.2988 11.4434C43.0796 11.0806 43.8651 11.0341 44.6894 11.3027C45.5059 11.637 45.9565 12.12 46.3209 12.9155C46.6147 13.6369 46.6203 14.5323 46.3345 15.2629C45.9345 15.9744 45.3829 16.4887 44.625 16.7813C44.5631 16.7813 44.5012 16.7813 44.4375 16.7813C44.4383 16.8518 44.4392 16.9223 44.44 16.995C44.4476 17.6638 44.4533 18.3326 44.4569 19.0014C44.4589 19.3451 44.4615 19.6889 44.4658 20.0326C44.4699 20.3651 44.4721 20.6976 44.4731 21.0301C44.4741 21.217 44.477 21.4039 44.48 21.5907C44.4802 22.4473 44.3542 23.1624 43.8926 23.8945C43.393 24.3799 42.9678 24.6175 42.2812 24.75C42.3286 24.8295 42.376 24.909 42.4248 24.991C42.9215 25.869 43.0933 26.592 42.891 27.6086C42.6776 28.2299 42.1643 28.6214 41.6796 29.0358C41.3739 29.3063 41.3498 29.3593 41.3181 29.7675C41.3144 29.9016 41.3112 30.0358 41.3086 30.1699C41.3051 30.2367 41.3016 30.3035 41.298 30.3723C41.2917 30.7472 41.3233 30.9124 41.5627 31.2063C41.7384 31.3469 41.9155 31.4857 42.0937 31.6231C42.5756 32.0152 42.9009 32.5784 42.9697 33.1952C43.0067 34.0776 42.8587 34.6603 42.3956 35.4329C42.2643 35.6535 42.1391 35.8772 42.0135 36.1011C41.9175 36.2687 41.8212 36.4362 41.7246 36.6035C41.6799 36.6823 41.6351 36.7612 41.589 36.8424C41.2072 37.4844 40.6796 38.1301 39.9536 38.3965C39.1736 38.5536 38.4793 38.503 37.7754 38.142C37.4592 38.0037 37.2613 38.054 36.9375 38.1563C36.4943 38.366 36.1083 38.5733 35.8125 38.9707C35.7294 39.246 35.6813 39.5019 35.6367 39.7852C35.5153 40.5129 35.1793 41.0444 34.5966 41.4987C34.0303 41.8743 33.3944 41.9489 32.7305 41.9436C32.6546 41.9439 32.5787 41.9441 32.5005 41.9444C32.3414 41.9446 32.1823 41.9441 32.0231 41.9429C31.7818 41.9414 31.5406 41.9429 31.2993 41.9447C31.1435 41.9445 30.9878 41.9442 30.832 41.9436C30.7256 41.9445 30.7256 41.9445 30.6171 41.9453C29.8116 41.9349 29.1528 41.7087 28.5677 41.1504C28.1568 40.6882 28.0252 40.2452 27.9375 39.6387C27.8498 39.058 27.8498 39.058 27.4687 38.625C27.0219 38.3243 26.6336 38.0658 26.0859 38.0566C25.7778 38.1487 25.7778 38.1487 25.4941 38.3027C24.8992 38.5721 24.1533 38.5402 23.5389 38.3551C22.6057 37.9273 22.176 37.1248 21.6847 36.2576C21.5917 36.0936 21.4976 35.9303 21.4034 35.7671C20.8565 34.811 20.502 34.1286 20.625 33C20.801 32.3545 21.1362 31.9699 21.6412 31.541C21.7003 31.4907 21.7594 31.4405 21.8203 31.3887C21.8759 31.3429 21.9315 31.2971 21.9888 31.2499C22.225 31.0333 22.2202 30.9172 22.2444 30.587C22.2481 30.4441 22.2513 30.3012 22.2539 30.1582C22.2574 30.087 22.2609 30.0157 22.2645 29.9423C22.2708 29.5383 22.2579 29.3918 21.9928 29.0669C21.9127 29.0036 21.8325 28.9402 21.75 28.875C21.6939 28.8305 21.6378 28.7861 21.5801 28.7402C21.357 28.6644 21.357 28.6644 21.0655 28.7761C20.5068 28.923 19.9452 28.9059 19.3711 28.9043C19.2616 28.9058 19.1521 28.9073 19.0393 28.9089C18.3708 28.9093 17.7787 28.8498 17.1562 28.5938C17.1253 28.5628 17.0944 28.5319 17.0625 28.5C17.0316 29.8613 17.0006 31.2225 16.9687 32.625C17.1544 32.6869 17.34 32.7488 17.5312 32.8125C18.242 33.2057 18.7857 33.8162 19.0312 34.5938C19.2045 35.3581 19.1344 36.1726 18.7441 36.8613C18.3433 37.4343 17.7783 38.0039 17.0958 38.2123C16.1153 38.3798 15.2494 38.2902 14.4174 37.7369C13.8327 37.2764 13.4546 36.6395 13.3125 35.9063C13.2216 34.987 13.3993 34.1658 13.9805 33.4336C14.3437 33.0938 14.3437 33.0938 15.2812 32.625C15.2812 30.3975 15.2812 28.17 15.2812 25.875C14.7677 25.7627 14.7677 25.7627 14.3672 25.916C13.7122 26.1896 13.1229 26.0977 12.4687 25.875C12.0282 25.8199 11.7264 25.8116 11.3437 26.0508C11.0914 26.3189 11.0508 26.4585 11.0477 26.816C11.0467 26.8951 11.0458 26.9742 11.0449 27.0558C11.0443 27.1428 11.0438 27.2298 11.0432 27.3194C11.0423 27.4109 11.0414 27.5023 11.0404 27.5966C11.0375 27.8999 11.0351 28.2032 11.0328 28.5066C11.0309 28.7165 11.0289 28.9264 11.0269 29.1364C11.0217 29.6897 11.0171 30.243 11.0126 30.7963C11.0079 31.3606 11.0027 31.9249 10.9975 32.4891C10.9874 33.5969 10.9779 34.7047 10.9687 35.8125C11.0722 35.8404 11.1757 35.8682 11.2824 35.8969C11.8746 36.0751 12.2919 36.4738 12.6233 36.9913C13.001 37.7216 13.1621 38.446 12.9705 39.2575C12.6929 40.1126 12.217 40.7139 11.4338 41.1596C10.6862 41.5274 9.92045 41.5452 9.13476 41.2969C8.29698 40.958 7.77236 40.4116 7.39453 39.5995C7.10995 38.8207 7.16317 37.937 7.50585 37.1836C7.86463 36.5459 8.41291 36.0817 9.09374 35.8125C9.18656 35.8125 9.27937 35.8125 9.37499 35.8125C9.37416 35.6934 9.37333 35.5743 9.37247 35.4516C9.36486 34.3275 9.35924 33.2033 9.35557 32.0792C9.35361 31.5013 9.35096 30.9234 9.3467 30.3455C9.34262 29.7875 9.34039 29.2295 9.33942 28.6714C9.33872 28.4589 9.33738 28.2463 9.33535 28.0338C9.33261 27.7353 9.33225 27.4369 9.33242 27.1385C9.33107 27.0512 9.32973 26.9639 9.32834 26.874C9.33274 26.1699 9.5413 25.6577 9.90234 25.0606C10.2433 24.7286 10.6483 24.5113 11.0625 24.2813C11.0369 24.2327 11.0114 24.1841 10.985 24.1341C10.0171 22.2703 10.0171 22.2703 10.2187 21.4688C10.3111 21.2494 10.4048 21.0306 10.5 20.8125C9.84102 20.8006 9.18208 20.7924 8.52303 20.7868C8.29887 20.7844 8.07471 20.7812 7.85057 20.7771C7.52825 20.7715 7.20602 20.7688 6.88366 20.7667C6.78355 20.7643 6.68343 20.7619 6.58029 20.7594C6.00578 20.7556 6.00578 20.7556 5.51703 21.038C5.30371 21.3374 5.23835 21.4837 5.23516 21.8437C5.23379 21.9612 5.23378 21.9612 5.23238 22.0811C5.23184 22.1672 5.2313 22.2533 5.23075 22.342C5.22982 22.4326 5.22889 22.5231 5.22793 22.6164C5.22496 22.9167 5.22265 23.217 5.22033 23.5173C5.2184 23.7252 5.21644 23.933 5.21443 24.1408C5.20925 24.6886 5.20462 25.2363 5.2001 25.7841C5.19539 26.3427 5.19017 26.9013 5.18499 27.46C5.1749 28.5566 5.16539 29.6533 5.15624 30.75C5.25925 30.7773 5.36225 30.8046 5.46837 30.8327C6.07004 31.0159 6.54202 31.4704 6.88989 31.9904C7.27365 32.7369 7.3522 33.5729 7.15466 34.3901C6.84424 35.2299 6.32827 35.7866 5.53124 36.1875C4.81144 36.4782 3.98837 36.4908 3.25781 36.2285C2.51 35.8864 1.94569 35.3375 1.59374 34.5938C1.2896 33.7625 1.368 32.9675 1.68749 32.1563C2.06109 31.4931 2.58797 31.0591 3.28124 30.75C3.37406 30.75 3.46687 30.75 3.56249 30.75C3.56166 30.6309 3.56083 30.5118 3.55997 30.3891C3.55236 29.265 3.54674 28.1408 3.54307 27.0167C3.54111 26.4388 3.53846 25.8609 3.5342 25.283C3.53012 24.725 3.52788 24.167 3.52691 23.6089C3.52622 23.3964 3.52488 23.1838 3.52285 22.9713C3.52011 22.6728 3.51975 22.3744 3.51992 22.076C3.5179 21.9451 3.5179 21.9451 3.51584 21.8115C3.52044 21.0752 3.73641 20.3732 4.24664 19.8191C5.07038 19.1401 5.9237 19.0457 6.95361 19.0701C7.08652 19.0711 7.21943 19.0719 7.35235 19.0725C7.69825 19.0746 8.04402 19.0801 8.38986 19.0864C8.74435 19.0922 9.09885 19.0947 9.45336 19.0975C10.1461 19.1035 10.8386 19.1131 11.5312 19.125C11.4062 18.6424 11.3283 18.3989 10.9277 18.0938C10.3893 17.6444 10.1843 17.2296 10.1193 16.513C10.1425 15.7002 10.6004 14.9593 10.9922 14.2734C11.0692 14.1326 11.0692 14.1326 11.1478 13.9889C11.5853 13.2153 12.0606 12.6381 12.9375 12.375C13.4249 12.3231 13.8775 12.3056 14.3262 12.5215C14.7471 12.7113 14.958 12.6448 15.3794 12.4937C15.6134 12.3826 15.7619 12.2858 15.9375 12.0938C16.0433 11.786 16.1024 11.4855 16.1598 11.1654C16.2682 10.6315 16.5676 10.2749 16.9944 9.94591C17.7185 9.48876 18.5311 9.51977 19.3594 9.52735C19.5376 9.52572 19.5376 9.52572 19.7194 9.52405C20.7003 9.52712 21.432 9.6346 22.1572 10.3239C22.4377 10.642 22.5708 10.9663 22.6216 11.3862C22.6833 11.8795 22.6833 11.8795 22.9574 12.282C23.3108 12.5391 23.5341 12.6563 23.9766 12.6563C24.2713 12.5718 24.2713 12.5718 24.5043 12.4655C25.0977 12.247 25.7081 12.3062 26.2793 12.5625C27.0602 12.9443 27.4663 13.8836 27.873 14.6074C27.9234 14.6956 27.9737 14.7837 28.0256 14.8746C28.4717 15.6617 28.6703 16.3697 28.4458 17.283C28.27 17.684 28.023 17.9076 27.6855 18.1816C27.3795 18.4378 27.2237 18.5951 27.1699 18.9961C27.1674 19.3548 27.2036 19.6484 27.375 19.9688C27.6557 20.1925 27.6557 20.1925 27.9375 20.3438C27.9591 20.2894 27.9808 20.235 28.003 20.179C28.3184 19.4237 28.6758 18.9114 29.435 18.5609C29.7592 18.4556 30.0204 18.449 30.3603 18.4563C30.4688 18.4581 30.5773 18.4599 30.689 18.4618C30.771 18.4641 30.853 18.4664 30.9375 18.4688C30.945 17.9699 30.9469 17.4714 30.9438 16.9724C30.9435 16.8029 30.9447 16.6333 30.9474 16.4637C31.0104 15.5209 31.0104 15.5209 30.6618 14.6992C30.4431 14.5805 30.2363 14.5126 30 14.4375C29.3755 13.958 29.0345 13.3286 28.875 12.5625C28.7923 11.7451 28.9656 11.0075 29.4434 10.3359C29.8675 9.827 30.4602 9.39553 31.125 9.28126C32.1131 9.20535 32.9167 9.29425 33.7266 9.89063C34.3348 10.4542 34.6474 11.3008 34.7109 12.1113C34.6519 13.0109 34.3345 13.7051 33.668 14.3145C32.9662 14.9063 32.9662 14.9063 32.5312 14.9063C32.5312 16.0819 32.5312 17.2575 32.5312 18.4688C32.9644 18.4688 33.3975 18.4688 33.8437 18.4688C34.5711 18.7415 35.0745 19.0753 35.4368 19.7728C35.6041 20.1737 35.6642 20.5605 35.6898 20.9927C35.7143 21.2273 35.7143 21.2273 35.9062 21.5625C36.2775 21.7791 36.6487 21.9956 37.0312 22.2188C37.0312 18.7538 37.0312 15.2888 37.0312 11.7188C36.8456 11.6569 36.66 11.595 36.4687 11.5313C35.716 11.1079 35.3001 10.5547 35.0336 9.74048C34.858 9.0045 34.909 8.27324 35.25 7.59376C35.69 6.88364 36.1954 6.46387 36.9668 6.15821C37.8302 5.99723 38.5893 6.05561 39.375 6.46876ZM36.8144 8.17383C36.611 8.51286 36.5439 8.79297 36.5625 9.18751C36.6938 9.58144 36.8975 9.87712 37.2312 10.132C37.5952 10.3124 37.953 10.3039 38.3437 10.2188C38.7038 10.043 38.9225 9.81867 39.0948 9.4574C39.2145 9.05841 39.2104 8.78225 39.0351 8.40235C38.8685 8.12569 38.7374 7.91903 38.4375 7.78126C37.7658 7.61815 37.331 7.68519 36.8144 8.17383ZM30.6738 11.4258C30.4952 11.7455 30.4312 12.0138 30.5098 12.3772C30.6528 12.8143 30.8186 13.0624 31.2187 13.3125C31.5581 13.4256 31.7993 13.4365 32.1562 13.4063C32.5144 13.2134 32.8082 13.0197 33 12.6563C33.0945 12.2376 33.1296 12.0138 32.9941 11.6074C32.7407 11.2395 32.5038 10.9273 32.0456 10.8329C31.4474 10.8037 31.0912 10.9941 30.6738 11.4258ZM17.7187 11.5313C17.6932 11.6891 17.6702 11.8474 17.6484 12.0059C17.5381 12.6184 17.359 13.0686 16.8706 13.4703C16.6586 13.6169 16.4426 13.7472 16.2187 13.875C16.1588 13.9139 16.0989 13.9528 16.0371 13.9929C15.4993 14.3134 14.9567 14.3244 14.3437 14.25C14.1456 14.1826 14.1456 14.1826 13.9805 14.1035C13.6974 13.9531 13.6974 13.9531 13.4004 13.9453C12.9533 14.1356 12.7994 14.4966 12.5625 14.9063C12.4943 15.0147 12.4258 15.123 12.357 15.2311C12.2867 15.3454 12.2165 15.4597 12.1465 15.5742C12.1121 15.628 12.0777 15.6817 12.0423 15.7371C11.8659 16.0355 11.8125 16.2208 11.8162 16.57C11.9155 16.9064 11.9683 16.9789 12.2637 17.1504C12.7611 17.4847 12.9678 17.8735 13.0854 18.4556C13.1995 19.3043 13.2333 20.1648 12.75 20.9063C12.5388 21.1127 12.3242 21.2946 12.0868 21.4702C11.8465 21.7179 11.8351 21.8772 11.8125 22.2188C11.9052 22.4761 11.9052 22.4761 12.0633 22.7183C12.1178 22.8087 12.1722 22.8991 12.2283 22.9922C12.2864 23.085 12.3445 23.1778 12.4043 23.2734C12.4898 23.4148 12.4898 23.4148 12.577 23.5591C12.862 24.0414 12.862 24.0414 13.2187 24.4688C13.5707 24.5107 13.8233 24.4615 14.1445 24.3281C14.7188 24.1008 15.1746 24.1295 15.7441 24.3398C16.5127 24.678 17.2077 25.0627 17.5312 25.875C17.5847 26.1406 17.6238 26.4007 17.6484 26.6704C17.7468 27.0004 17.9026 27.0939 18.1875 27.2813C18.4675 27.3324 18.4675 27.3324 18.7665 27.3179C18.8749 27.3167 18.9834 27.3155 19.0951 27.3142C19.2075 27.3111 19.3198 27.3079 19.4355 27.3047C19.5497 27.303 19.6638 27.3013 19.7814 27.2996C20.0627 27.2952 20.3438 27.289 20.625 27.2813C20.6278 27.1945 20.6307 27.1077 20.6336 27.0183C20.6921 25.7916 21.3195 24.8432 21.9375 23.8125C22.0033 23.6988 22.069 23.5851 22.1345 23.4712C22.6041 22.6864 23.0591 22.2101 23.9615 21.9815C24.6554 21.8465 25.2518 22.0009 25.875 22.3125C26.3943 22.3579 26.3943 22.3579 26.8594 22.1719C26.9058 22.1255 26.9522 22.0791 27 22.0313C26.8738 21.6182 26.7006 21.4284 26.3437 21.1875C26.2819 21.1875 26.22 21.1875 26.1562 21.1875C26.0918 21.0635 26.03 20.9381 25.9687 20.8125C25.9209 20.7176 25.873 20.6228 25.8237 20.525C25.6484 20.1119 25.6408 19.7214 25.6465 19.2773C25.6474 19.1983 25.6483 19.1192 25.6492 19.0377C25.6693 18.3377 25.7491 17.8299 26.272 17.3317C26.4196 17.204 26.5707 17.0801 26.7257 16.9614C26.9496 16.7379 26.9753 16.6257 27 16.3125C26.907 16.0558 26.907 16.0558 26.7524 15.8016C26.6984 15.7067 26.6444 15.6118 26.5887 15.514C26.5311 15.4159 26.4734 15.3178 26.4141 15.2168C26.3579 15.1176 26.3017 15.0185 26.2438 14.9163C25.9486 14.3741 25.9486 14.3741 25.5 13.9688C25.2141 13.9936 24.9805 14.044 24.7167 14.1574C24.1366 14.3741 23.5701 14.3346 22.9951 14.1196C22.1473 13.7252 21.516 13.2707 21.1875 12.375C21.1398 12.1313 21.1011 11.8905 21.0736 11.6437C20.9676 11.3469 20.8092 11.2941 20.5312 11.1563C20.277 11.1136 20.277 11.1136 20.0098 11.1189C19.8629 11.1184 19.8629 11.1184 19.7131 11.1178C19.6119 11.1189 19.5106 11.12 19.4062 11.1211C19.2543 11.1195 19.2543 11.1195 19.0994 11.1178C19.0015 11.1182 18.9036 11.1185 18.8027 11.1189C18.7139 11.1192 18.6251 11.1195 18.5336 11.1199C18.2073 11.1669 17.9534 11.2966 17.7187 11.5313ZM42.5273 13.3887C42.3434 13.7494 42.3188 13.9434 42.375 14.3438C42.5052 14.6815 42.682 14.9398 42.9551 15.1816C43.3319 15.324 43.6649 15.3444 44.0625 15.2813C44.4734 15.0758 44.7344 14.8672 44.9062 14.4375C44.9583 14.041 44.9485 13.7056 44.8066 13.3301C44.4655 12.9449 44.1337 12.7732 43.6348 12.7031C43.1221 12.7777 42.8566 12.9988 42.5273 13.3887ZM29.6422 20.4214C29.5055 20.6722 29.476 20.8808 29.4434 21.1641C29.3314 21.9063 29.1235 22.4467 28.5249 22.9204C27.6008 23.5386 26.8069 23.9267 25.6875 23.8125C25.4358 23.7301 25.1998 23.6296 24.9576 23.5228C24.6761 23.4072 24.4869 23.3763 24.1875 23.4375C23.5951 23.8123 23.3092 24.391 22.9817 24.9922C22.8866 25.1662 22.789 25.3387 22.6912 25.5112C22.6295 25.6225 22.568 25.7339 22.5066 25.8453C22.4236 25.9955 22.4236 25.9955 22.3389 26.1487C22.2085 26.4622 22.1806 26.6641 22.2187 27C22.5039 27.4188 22.8504 27.7086 23.2533 28.0126C23.8101 28.6358 23.8721 29.3354 23.8594 30.1406C23.8608 30.2326 23.8623 30.3246 23.8638 30.4193C23.8598 31.1578 23.7082 31.7479 23.2207 32.3145C23.0795 32.4359 22.9382 32.5572 22.7963 32.6777C22.7076 32.7532 22.7076 32.7532 22.6172 32.8301C22.5338 32.8988 22.5338 32.8988 22.4487 32.9689C22.2474 33.1535 22.2204 33.2638 22.1949 33.5372C22.2233 33.9025 22.3297 34.1159 22.5066 34.4359C22.5365 34.4902 22.5663 34.5445 22.5971 34.6004C22.6604 34.7146 22.7242 34.8284 22.7887 34.9419C22.8861 35.1142 22.981 35.2877 23.0757 35.4615C23.5137 36.2565 23.5137 36.2565 24.1875 36.8438C24.5879 36.9276 24.8729 36.8012 25.2422 36.6563C26.0217 36.3609 26.6528 36.3779 27.4142 36.7196C28.288 37.1678 29.0145 37.6141 29.3672 38.5664C29.4068 38.7578 29.4446 38.9496 29.4763 39.1425C29.558 39.6467 29.558 39.6467 29.8066 40.084C30.1749 40.3406 30.5341 40.3302 30.9657 40.3348C31.0326 40.3356 31.0996 40.3364 31.1685 40.3371C31.3101 40.3384 31.4517 40.3394 31.5934 40.3402C31.7376 40.3413 31.8819 40.3432 32.0262 40.3459C32.2352 40.35 32.4441 40.3515 32.6532 40.3524C32.749 40.3549 32.749 40.3549 32.8468 40.3574C33.3141 40.3553 33.581 40.2352 33.9375 39.9375C34.0544 39.6453 34.112 39.3707 34.1572 39.0601C34.2582 38.4348 34.4055 37.944 34.875 37.5C35.7581 36.8982 36.6822 36.3399 37.7812 36.4688C38.0493 36.5549 38.3085 36.6562 38.5708 36.7584C38.8929 36.8721 39.1317 36.9044 39.4687 36.8438C39.8826 36.4915 40.1352 36.0849 40.4004 35.6191C40.4407 35.5489 40.4811 35.4786 40.5226 35.4063C40.641 35.1985 40.758 34.9899 40.875 34.7813C40.9248 34.6947 40.9248 34.6947 40.9756 34.6065C41.0613 34.4569 41.144 34.3057 41.2266 34.1543C41.2954 34.029 41.2954 34.029 41.3657 33.9013C41.4618 33.5734 41.387 33.4008 41.25 33.0938C41.0883 32.9021 40.9159 32.7504 40.7179 32.5972C40.1813 32.1697 39.8963 31.7027 39.75 31.0313C39.7275 30.7444 39.7283 30.4576 39.7266 30.1699C39.7237 30.0556 39.7237 30.0556 39.7207 29.939C39.7156 29.1407 39.8924 28.4834 40.4418 27.8903C40.6606 27.6883 40.9056 27.5345 41.1562 27.375C41.3473 27.0884 41.401 26.9202 41.3918 26.5783C41.2935 26.0985 41.0231 25.6876 40.7738 25.2715C40.6761 25.1079 40.5813 24.9428 40.4868 24.7773C40.0411 24.0054 40.0411 24.0054 39.375 23.4375C38.9461 23.4375 38.7093 23.4899 38.3262 23.6777C37.7704 23.9256 37.1337 23.9443 36.5585 23.7467C35.6514 23.3682 34.7154 22.8996 34.2898 21.9697C34.2046 21.7064 34.1682 21.4499 34.1309 21.1758C34.057 20.6589 33.9551 20.4084 33.5625 20.0625C33.0704 19.8841 32.504 19.9477 31.9885 19.9462C31.7942 19.9453 31.6001 19.9424 31.4059 19.9395C31.2825 19.939 31.1591 19.9385 31.032 19.938C30.9195 19.9371 30.807 19.9362 30.6911 19.9353C30.264 19.9805 29.9461 20.1155 29.6422 20.4214ZM3.56249 32.4375C3.18688 32.8428 3.06453 33.0959 3.0736 33.6537C3.11464 34.0409 3.31745 34.2533 3.58007 34.5234C3.9182 34.7338 4.19654 34.8008 4.59374 34.7813C5.09656 34.6072 5.38804 34.3177 5.62499 33.8438C5.66281 33.3522 5.61192 33.0411 5.34374 32.625C4.7953 32.0613 4.22893 32.0603 3.56249 32.4375ZM15.1113 34.6641C14.9476 34.9744 14.8955 35.2782 14.9062 35.625C15.0803 36.1278 15.3698 36.4193 15.8437 36.6563C16.4163 36.704 16.6996 36.6635 17.1562 36.2813C17.4356 35.9922 17.5072 35.7437 17.5312 35.3438C17.4216 34.8552 17.2085 34.4923 16.8047 34.1895C16.0839 33.9692 15.6392 34.1544 15.1113 34.6641ZM9.23254 37.6245C8.94425 37.9402 8.81249 38.1992 8.81249 38.625C8.89134 39.0845 9.05191 39.3879 9.43359 39.6621C9.80103 39.8624 10.0875 39.886 10.496 39.8101C10.9026 39.6825 11.0974 39.4613 11.332 39.1172C11.4989 38.6352 11.4313 38.2596 11.2266 37.7988C10.9698 37.4779 10.7138 37.3491 10.3242 37.2305C9.88907 37.2131 9.56308 37.3356 9.23254 37.6245Z" fill="#FF7705"></path>
  <path d="M35.1237 25.7052C36.2998 26.6203 36.9785 27.8465 37.2893 29.2969C37.297 29.4051 37.3048 29.5134 37.3127 29.625C37.3187 29.7032 37.3246 29.7814 37.3307 29.8619C37.3915 31.3222 36.9198 32.6799 35.9592 33.7793C35.8184 33.9274 35.6759 34.0741 35.5315 34.2187C35.4786 34.2728 35.4256 34.3268 35.3711 34.3824C34.2656 35.4205 32.8266 35.6936 31.368 35.651C29.8987 35.5787 28.6643 34.8992 27.6565 33.8437C26.5262 32.569 26.251 31.115 26.3286 29.4613C26.4219 28.1803 27.1363 26.9289 28.0513 26.0511C30.0505 24.3398 32.9721 24.1557 35.1237 25.7052ZM28.6442 27.8203C27.9805 28.793 27.8389 29.7893 27.9377 30.9375C28.1296 31.9102 28.7236 32.7798 29.5139 33.3691C30.5459 34.0206 31.6293 34.2302 32.827 33.9661C33.9324 33.5971 34.779 32.9102 35.3264 31.8809C35.8157 30.8283 35.8261 29.8905 35.4623 28.7952C35.0124 27.6725 34.187 26.9214 33.094 26.4375C31.4471 25.8667 29.7309 26.5049 28.6442 27.8203Z" fill="#FF7705"></path>
  <path d="M21.3519 16.0898C22.2538 16.7511 22.8116 17.5356 23.0043 18.6328C23.1307 19.7094 22.9318 20.5747 22.3129 21.4688C21.7023 22.2365 20.8542 22.7431 19.8754 22.875C18.8199 22.9557 17.9385 22.7307 17.0629 22.125C16.5593 21.6695 16.1876 21.1622 15.9379 20.5312C15.8992 20.4346 15.8605 20.3379 15.8207 20.2383C15.6148 19.1744 15.6998 18.1366 16.27 17.1998C17.4334 15.6052 19.6205 15.0152 21.3519 16.0898ZM17.6254 18.0938C17.3214 18.6134 17.2636 19.0987 17.3441 19.6875C17.5227 20.3121 17.942 20.7331 18.4691 21.0938C18.9964 21.3281 19.5094 21.3318 20.0629 21.1875C20.5989 20.9304 21.0204 20.6058 21.2816 20.0625C21.517 19.3846 21.495 18.8378 21.1879 18.1875C20.8382 17.5879 20.3468 17.3328 19.6879 17.1563C18.8054 17.0498 18.1611 17.412 17.6254 18.0938Z" fill="#FF7705"></path>
</svg>
