<?xml version="1.0" encoding="UTF-8"?>
<svg xmlns="http://www.w3.org/2000/svg" width="48" height="48" viewBox="0 0 48 48" fill="none">
  <path d="M21.2619 9.70238C21.3259 9.70179 21.3899 9.70121 21.4559 9.70061C21.6705 9.69911 21.8849 9.7003 22.0994 9.70147C22.2533 9.70097 22.4072 9.7003 22.561 9.69948C22.9793 9.69777 23.3975 9.69844 23.8158 9.69963C24.2544 9.70058 24.6931 9.69969 25.1317 9.69911C25.8695 9.69842 26.6072 9.69932 27.345 9.70111C28.195 9.70314 29.045 9.70249 29.895 9.70042C30.6263 9.69871 31.3577 9.69849 32.089 9.69946C32.525 9.70004 32.9611 9.70013 33.3971 9.69889C33.8083 9.69779 34.2194 9.69857 34.6305 9.70072C34.7804 9.70121 34.9302 9.70109 35.08 9.70025C36.3438 9.69385 37.5202 9.87535 38.6541 10.4766C38.7164 10.5088 38.7787 10.541 38.8429 10.5742C39.386 10.8639 39.8592 11.2075 40.3123 11.625C40.3864 11.6927 40.4604 11.7603 40.5368 11.8301C41.002 12.2745 41.4117 12.7433 41.7185 13.3125C41.7185 13.3744 41.7185 13.4362 41.7185 13.5C41.7878 13.4956 41.857 13.4913 41.9284 13.4868C42.9484 13.4505 43.7386 13.6838 44.5248 14.3463C45.3234 15.1086 45.75 15.9195 45.7939 17.0283C45.8084 18.2015 45.5443 19.1037 44.7185 19.9687C43.9976 20.657 43.2194 21.0199 42.2166 21.0234C42.0505 21.0175 41.8844 21.0104 41.7185 21C41.6792 21.1055 41.6792 21.1055 41.6391 21.2131C41.0428 22.6239 39.5316 23.6891 38.1669 24.2618C36.9124 24.7478 35.7561 24.8066 34.424 24.8071C34.2305 24.8085 34.037 24.8101 33.8436 24.8118C33.3391 24.8159 32.8347 24.8178 32.3303 24.8192C31.8136 24.8211 31.297 24.825 30.7804 24.8287C29.7702 24.8358 28.76 24.8405 27.7498 24.8437C27.7262 24.913 27.7026 24.9823 27.6782 25.0537C27.6461 25.1454 27.614 25.2371 27.5809 25.3315C27.5496 25.4221 27.5183 25.5126 27.486 25.6059C27.1084 26.5195 26.3054 27.2122 25.4119 27.6035C24.4603 27.9127 23.2678 27.9014 22.3485 27.4988C21.4486 27.001 20.7582 26.3129 20.4186 25.3315C20.3865 25.2398 20.3544 25.1482 20.3213 25.0537C20.2859 24.9498 20.2859 24.9498 20.2498 24.8437C19.2823 24.8394 18.3149 24.8361 17.3475 24.834C16.8981 24.8331 16.4488 24.8317 15.9994 24.8296C15.5648 24.8275 15.1302 24.8264 14.6956 24.826C14.5307 24.8256 14.3659 24.8249 14.2011 24.8239C12.0755 24.8113 10.1455 25.0476 8.5486 26.6001C8.14146 26.98 8.14146 26.98 7.96852 27.4687C8.09186 27.5672 8.21976 27.66 8.34938 27.75C9.04754 28.2799 9.61225 29.0246 9.74977 29.9062C9.85811 31.1214 9.77249 32.1289 9.01735 33.1289C8.70148 33.5011 8.38154 33.7731 7.96852 34.0312C8.47198 35.1121 9.55688 35.8266 10.6287 36.2754C11.7738 36.6639 12.9632 36.6838 14.1609 36.6802C14.3055 36.6804 14.4501 36.6808 14.5947 36.6812C14.9028 36.682 15.211 36.6822 15.5191 36.682C16.0065 36.6817 16.4938 36.6831 16.9812 36.6847C18.3658 36.6891 19.7505 36.6913 21.1352 36.692C21.9024 36.6923 22.6696 36.694 23.4369 36.6971C23.9214 36.699 24.4058 36.6992 24.8904 36.6982C25.1909 36.698 25.4914 36.6993 25.792 36.701C25.9314 36.7015 26.0707 36.7014 26.2101 36.7006C26.4002 36.6995 26.5903 36.701 26.7804 36.7026C26.8867 36.7027 26.9931 36.7028 27.1027 36.7029C27.4347 36.7604 27.5448 36.8629 27.7498 37.125C27.7996 37.3125 27.7996 37.3125 27.7966 37.5C27.7976 37.5619 27.7986 37.6237 27.7996 37.6875C27.7258 37.9654 27.5986 38.0716 27.3748 38.25C27.0851 38.2972 27.0851 38.2972 26.7377 38.2976C26.6416 38.2985 26.6416 38.2985 26.5436 38.2994C26.3291 38.3009 26.1146 38.2997 25.9001 38.2985C25.7462 38.299 25.5924 38.2997 25.4385 38.3005C25.0202 38.3022 24.602 38.3016 24.1837 38.3004C23.7451 38.2994 23.3065 38.3003 22.8678 38.3009C22.1301 38.3016 21.3923 38.3007 20.6545 38.2989C19.8045 38.2969 18.9545 38.2975 18.1045 38.2996C17.3732 38.3013 16.6419 38.3015 15.9106 38.3005C15.4745 38.2999 15.0385 38.2999 14.6024 38.3011C14.1913 38.3022 13.7802 38.3014 13.369 38.2993C13.2192 38.2988 13.0694 38.2989 12.9195 38.2997C11.652 38.3062 10.4755 38.1234 9.33961 37.5176C9.24559 37.4687 9.24559 37.4687 9.14967 37.4188C7.999 36.8051 6.89409 35.8502 6.28102 34.6875C6.28102 34.6256 6.28102 34.5637 6.28102 34.5C6.21177 34.5043 6.14253 34.5087 6.07118 34.5132C5.05118 34.5495 4.26099 34.3162 3.47475 33.6537C2.67618 32.8913 2.24954 32.0805 2.20564 30.9717C2.19111 29.7985 2.45522 28.8963 3.28102 28.0312C4.00197 27.343 4.78011 26.9801 5.78297 26.9766C5.94907 26.9825 6.11515 26.9896 6.28102 27C6.30604 26.9309 6.33105 26.8617 6.35683 26.7905C6.99355 25.3125 8.56875 24.261 10.0134 23.6777C10.8178 23.3644 11.567 23.2223 12.4272 23.2201C12.5549 23.2187 12.5549 23.2187 12.6852 23.2173C12.9637 23.2144 13.2422 23.2128 13.5206 23.2112C13.7149 23.2094 13.9092 23.2076 14.1035 23.2057C14.6125 23.2009 15.1216 23.1972 15.6306 23.1937C16.151 23.1899 16.6714 23.1851 17.1917 23.1804C18.2111 23.1714 19.2304 23.1634 20.2498 23.1562C20.2734 23.087 20.297 23.0177 20.3213 22.9463C20.3534 22.8546 20.3855 22.7629 20.4186 22.6685C20.4499 22.5779 20.4813 22.4874 20.5136 22.3941C20.8912 21.4804 21.6942 20.7878 22.5877 20.3965C23.5392 20.0873 24.7317 20.0986 25.651 20.5012C26.5509 20.999 27.2413 21.6871 27.5809 22.6685C27.6131 22.7601 27.6452 22.8518 27.6782 22.9463C27.7137 23.0502 27.7137 23.0502 27.7498 23.1562C28.7156 23.1606 29.6814 23.1639 30.6472 23.166C31.0958 23.1669 31.5444 23.1683 31.993 23.1704C32.4271 23.1725 32.8611 23.1736 33.2951 23.174C33.4596 23.1744 33.624 23.175 33.7885 23.1761C35.9249 23.1888 37.8408 22.9635 39.4513 21.3999C39.8581 21.0199 39.8581 21.0199 40.031 20.5312C39.9077 20.4328 39.7798 20.34 39.6502 20.25C38.952 19.7201 38.3873 18.9754 38.2498 18.0937C38.1355 16.8125 38.2516 15.7414 39.0983 14.7202C39.3805 14.4284 39.6932 14.1925 40.031 13.9687C39.5226 12.8663 38.3995 12.1689 37.3123 11.7187C36.1917 11.3329 35.0649 11.33 33.8919 11.3304C33.7474 11.3302 33.6028 11.3298 33.4583 11.3295C33.1489 11.3287 32.8394 11.3282 32.53 11.3279C32.0407 11.3274 31.5514 11.3258 31.0621 11.3241C30.8943 11.3235 30.7264 11.3229 30.5585 11.3223C30.4744 11.322 30.3904 11.3217 30.3039 11.3214C29.1659 11.3174 28.028 11.3143 26.8901 11.3132C26.1206 11.3124 25.3512 11.3103 24.5818 11.3067C24.175 11.3048 23.7683 11.3037 23.3616 11.3041C22.9798 11.3046 22.598 11.3033 22.2161 11.3007C22.076 11.3 21.9359 11.3 21.7957 11.3007C21.6046 11.3015 21.4135 11.2998 21.2223 11.298C21.1154 11.2978 21.0084 11.2976 20.8982 11.2973C20.5653 11.2397 20.4551 11.1379 20.2498 10.875C20.2 10.6875 20.2 10.6875 20.2029 10.5C20.2014 10.4072 20.2014 10.4072 20.2 10.3125C20.3468 9.75987 20.7531 9.70301 21.2619 9.70238ZM40.146 16.0459C39.7774 16.6 39.778 17.1676 39.8435 17.8125C40.0098 18.4354 40.4479 18.86 40.9685 19.2187C41.5309 19.4944 42.1763 19.5093 42.7791 19.3484C43.3536 19.0948 43.8035 18.6179 44.0784 18.0571C44.2571 17.494 44.2558 16.8278 44.0154 16.2832C43.6891 15.727 43.1777 15.2877 42.5623 15.0937C41.4632 14.9601 40.846 15.2169 40.146 16.0459ZM22.146 22.7959C21.7774 23.35 21.778 23.9176 21.8435 24.5625C22.0098 25.1854 22.4479 25.61 22.9685 25.9687C23.5309 26.2444 24.1763 26.2593 24.7791 26.0984C25.3536 25.8448 25.8035 25.3679 26.0784 24.8071C26.2571 24.244 26.2558 23.5778 26.0154 23.0332C25.6891 22.477 25.1777 22.0377 24.5623 21.8437C23.4632 21.7101 22.846 21.9669 22.146 22.7959ZM4.14601 29.5459C3.77738 30.1 3.77802 30.6676 3.84352 31.3125C4.00978 31.9354 4.4479 32.36 4.96852 32.7187C5.53091 32.9944 6.17629 33.0093 6.77907 32.8484C7.35365 32.5948 7.80348 32.1179 8.07838 31.5571C8.25709 30.994 8.25581 30.3278 8.0154 29.7832C7.68911 29.227 7.17768 28.7877 6.56227 28.5937C5.46315 28.4601 4.84595 28.7169 4.14601 29.5459Z" fill="#FF7705"></path>
  <path d="M14.8134 3.37501C14.8933 3.42033 14.9732 3.46564 15.0555 3.51234C16.8517 4.62888 18.138 6.49815 18.6494 8.5411C19.1281 10.8789 18.687 13.0771 17.4611 15.082C16.2244 16.9227 14.4322 18.1378 12.2822 18.6563C10.8103 18.9318 9.19692 18.8705 7.78217 18.375C7.68501 18.3421 7.58784 18.3093 7.48773 18.2754C5.2989 17.4503 3.74958 15.7866 2.79854 13.6863C2.03403 11.8808 1.91201 9.52811 2.62592 7.68751C2.84608 7.17089 3.09892 6.67575 3.37592 6.18751C3.42124 6.10763 3.46656 6.02774 3.51325 5.94544C4.62979 4.14926 6.49906 2.86288 8.54201 2.35149C10.7633 1.89672 12.8701 2.27252 14.8134 3.37501ZM5.6435 5.83594C4.756 6.76607 4.28336 7.78162 3.93842 9.00001C3.92172 9.05828 3.90502 9.11655 3.88781 9.17659C3.53438 10.802 3.89775 12.514 4.7265 13.9263C4.97268 14.3052 5.23692 14.658 5.53217 15C5.5857 15.0625 5.63924 15.125 5.6944 15.1893C6.93134 16.5265 8.61387 17.1395 10.4072 17.25C12.1163 17.2847 13.7224 16.5724 15.0009 15.4688C15.0634 15.4152 15.1259 15.3617 15.1903 15.3065C16.1776 14.3932 16.7123 13.2759 17.0634 12C17.0801 11.9418 17.0967 11.8836 17.1138 11.8236C17.3981 10.5212 17.2013 9.0878 16.6884 7.87501C16.6524 7.78703 16.6164 7.69905 16.5793 7.60841C16.3031 6.99966 15.9098 6.49928 15.4697 6.00001C15.406 5.92738 15.3423 5.85475 15.2767 5.77991C14.0442 4.4615 12.3905 3.84196 10.6161 3.75445C8.67404 3.71317 7.03615 4.52172 5.6435 5.83594Z" fill="#FF7705"></path>
  <path d="M41.8129 30.375C41.8928 30.4203 41.9726 30.4656 42.055 30.5123C43.8511 31.6289 45.1375 33.4981 45.6489 35.5411C46.1275 37.8789 45.6864 40.0771 44.4606 42.082C43.2239 43.9227 41.4317 45.1378 39.2816 45.6562C37.8097 45.9318 36.1964 45.8705 34.7816 45.375C34.6845 45.3421 34.5873 45.3093 34.4872 45.2754C32.2984 44.4503 30.749 42.7866 29.798 40.6863C29.0269 38.8653 28.9423 36.5513 29.6254 34.6875C29.9293 34.0668 29.9293 34.0668 30.1879 33.9375C30.849 33.8842 30.849 33.8842 31.1723 34.0781C31.3751 34.4163 31.3732 34.6842 31.3129 35.0625C31.2518 35.268 31.1891 35.473 31.1254 35.6777C30.6249 37.3815 30.8765 39.1231 31.6762 40.6816C31.9532 41.1542 32.2687 41.5847 32.6254 42C32.672 42.0556 32.7187 42.1112 32.7667 42.1685C33.9578 43.4732 35.6829 44.05 37.4066 44.1562C39.1188 44.191 40.7176 43.4766 42.0004 42.375C42.056 42.3283 42.1116 42.2817 42.1688 42.2336C43.1242 41.3616 43.6327 40.2225 43.9691 39C43.9858 38.9418 44.0024 38.8836 44.0195 38.8236C44.3038 37.5212 44.107 36.0878 43.5941 34.875C43.5581 34.787 43.5221 34.699 43.485 34.6084C43.2089 33.9997 42.8145 33.5 42.3754 33C42.2902 32.9014 42.2902 32.9014 42.2033 32.8008C41.0101 31.5119 39.3315 30.9336 37.6136 30.847C36.8043 30.8344 36.0361 31.0066 35.2705 31.255C34.9292 31.3495 34.666 31.3551 34.3129 31.3125C34.0785 31.1719 34.0785 31.1719 33.9379 30.9375C33.8866 30.6769 33.8695 30.4451 33.9379 30.1875C34.1869 29.8794 34.4224 29.742 34.7934 29.6133C34.9155 29.5694 34.9155 29.5694 35.0402 29.5247C37.3892 28.8511 39.7147 29.1846 41.8129 30.375Z" fill="#FF7705"></path>
  <path d="M12.1744 8.19727C12.5827 8.30513 12.8367 8.61186 13.124 8.90625C13.2149 8.9953 13.306 9.08416 13.3972 9.17285C14.2302 9.98869 14.2302 9.98869 14.2959 10.4648C14.2853 11.0037 13.9604 11.2662 13.5928 11.625C13.5037 11.7159 13.4149 11.807 13.3262 11.8982C12.502 12.7397 12.502 12.7397 12.0107 12.7793C11.7337 12.7738 11.6343 12.7562 11.3896 12.6094C11.18 12.26 11.2104 12.0301 11.249 11.625C11.3109 11.5322 11.3728 11.4394 11.4365 11.3438C11.3833 11.3434 11.3301 11.3431 11.2753 11.3427C10.7217 11.3388 10.1682 11.3323 9.61462 11.3243C9.40803 11.3216 9.20142 11.3197 8.99481 11.3183C8.69783 11.3163 8.40096 11.312 8.104 11.3071C8.01161 11.307 7.91921 11.3069 7.82402 11.3068C7.18298 11.2931 7.18298 11.2931 6.87839 11.0706C6.73864 10.8593 6.69822 10.7513 6.70215 10.5C6.7007 10.4072 6.7007 10.4072 6.69922 10.3125C6.77686 10.0202 6.87736 9.9301 7.12402 9.75C7.44984 9.69087 7.77354 9.69328 8.104 9.69287C8.19919 9.69132 8.29438 9.68977 8.39246 9.68817C8.69621 9.68362 8.99993 9.68162 9.30371 9.67969C9.50977 9.67705 9.71582 9.67424 9.92188 9.67127C10.4267 9.66433 10.9316 9.65949 11.4365 9.65625C11.3746 9.56344 11.3128 9.47063 11.249 9.375C11.1874 8.72774 11.1874 8.72774 11.3896 8.39063C11.6541 8.23197 11.865 8.17903 12.1744 8.19727Z" fill="#FF7705"></path>
  <path d="M40.125 35.25C40.3594 35.3906 40.3594 35.3906 40.5 35.625C40.5663 35.9864 40.6027 36.2204 40.3957 36.532C39.8557 37.1245 39.2908 37.6921 38.7231 38.2579C38.5473 38.4332 38.372 38.609 38.1967 38.7848C38.085 38.8965 37.9732 39.0081 37.8615 39.1197C37.8091 39.1723 37.7568 39.2248 37.7028 39.2789C37.3836 39.5962 37.2362 39.7347 36.7852 39.7969C36.2463 39.7862 35.9838 39.4614 35.625 39.0937C35.5341 39.0047 35.443 38.9158 35.3518 38.8271C34.5103 38.003 34.5103 38.003 34.4707 37.5117C34.4762 37.2347 34.4938 37.1352 34.6406 36.8906C34.9036 36.7329 35.1148 36.6805 35.4225 36.6943C35.8247 36.8049 36.0922 37.1134 36.375 37.4062C36.4285 37.4598 36.4821 37.5133 36.5372 37.5685C36.5765 37.6077 36.6158 37.647 36.6562 37.6875C37.021 37.5396 37.2635 37.2904 37.533 37.0133C37.5798 36.9659 37.6267 36.9186 37.675 36.8697C37.8242 36.7189 37.9727 36.5675 38.1211 36.416C38.2703 36.2642 38.4196 36.1126 38.5692 35.9613C38.6621 35.8672 38.7547 35.7729 38.8471 35.6783C39.2506 35.2689 39.5471 35.1712 40.125 35.25Z" fill="#FF7705"></path>
  <path d="M32.531 31.4063C32.7536 31.5 32.7536 31.5 32.906 31.6875C33.003 32.0236 33.0329 32.3228 32.9353 32.6602C32.7737 32.8602 32.6872 32.9276 32.4372 33C32.0755 33.0066 31.7853 32.986 31.4997 32.7539C31.3653 32.4347 31.3578 32.2181 31.406 31.875C31.7277 31.4167 31.9809 31.3262 32.531 31.4063Z" fill="#FF7705"></path>
</svg>
