<?xml version="1.0" encoding="UTF-8"?>
<svg xmlns="http://www.w3.org/2000/svg" width="48" height="48" viewBox="0 0 48 48" fill="none">
  <path d="M9.83527 23.2281C9.89286 23.2274 9.95045 23.2267 10.0098 23.226C10.1977 23.2239 10.3856 23.2225 10.5736 23.2213C10.6382 23.2209 10.7029 23.2204 10.7695 23.22C11.1109 23.2177 11.4523 23.2161 11.7937 23.2149C12.0755 23.2137 12.3572 23.2114 12.639 23.208C12.9807 23.2038 13.3224 23.2018 13.6641 23.2012C13.7939 23.2006 13.9236 23.1993 14.0534 23.1973C14.2347 23.1946 14.4158 23.1946 14.5972 23.1953C14.7002 23.1946 14.8032 23.1939 14.9093 23.1932C15.2591 23.2588 15.3831 23.389 15.6016 23.6642C15.6541 23.9162 15.6541 23.9162 15.6016 24.1682C15.3843 24.441 15.2595 24.5731 14.9126 24.6401C14.8112 24.6399 14.7097 24.6397 14.6052 24.6395C14.5207 24.6402 14.5207 24.6402 14.4345 24.641C14.2488 24.6421 14.0632 24.6403 13.8775 24.6387C13.7472 24.6391 13.6169 24.6398 13.4866 24.6407C13.1434 24.6426 12.8002 24.6423 12.4569 24.6412C11.9104 24.6397 11.3639 24.6406 10.8173 24.6434C10.6281 24.6439 10.4391 24.6428 10.2499 24.6415C8.39223 24.6402 6.86965 25.2139 5.50686 26.4937C4.25055 27.8019 3.87276 29.3761 3.89823 31.1372C3.95488 32.6287 4.66664 33.9375 5.69059 35.0031C7.07441 36.2475 8.65892 36.6339 10.4801 36.6419C10.6046 36.6433 10.729 36.6448 10.8535 36.6465C11.1769 36.6504 11.5003 36.6529 11.8236 36.6552C12.1553 36.6577 12.487 36.6616 12.8187 36.6654C13.4664 36.6725 14.114 36.6782 14.7617 36.6829C14.7726 36.6311 14.7835 36.5792 14.7948 36.5258C14.8095 36.4577 14.8241 36.3897 14.8392 36.3196C14.8536 36.2521 14.868 36.1847 14.8828 36.1152C15.0725 35.3525 15.6906 34.6668 16.349 34.2675C17.3424 33.7495 18.2537 33.5709 19.355 33.8797C20.4079 34.2382 21.1054 34.8929 21.6352 35.8561C21.733 36.095 21.733 36.095 21.817 36.6829C24.9767 36.6829 28.1365 36.6829 31.392 36.6829C31.4197 36.4335 31.4474 36.184 31.476 35.927C31.5518 35.7091 31.5518 35.7091 31.6387 35.549C31.6672 35.4945 31.6957 35.4399 31.725 35.3837C31.8119 35.2551 31.8119 35.2551 31.9799 35.1711C32.5777 35.1132 32.5777 35.1132 32.8671 35.339C33.068 35.7583 32.9523 36.1147 32.8146 36.5359C32.5952 37.4134 32.7303 38.2755 33.1827 39.0586C33.7435 39.8538 34.4668 40.3512 35.4236 40.5465C36.3155 40.6285 37.1181 40.4725 37.8488 39.9376C38.5209 39.3664 39.0429 38.5876 39.1192 37.6908C39.1665 36.7287 38.9207 35.8926 38.2845 35.1488C37.7901 34.6725 37.228 34.4278 36.5995 34.1632C36.5995 34.6066 36.5995 35.0501 36.5995 35.507C36.738 35.5347 36.8766 35.5625 37.0194 35.591C37.5107 35.9146 37.8114 36.3634 37.9433 36.9349C38.0097 37.6266 37.8939 38.1337 37.5181 38.7145C37.0946 39.1745 36.5448 39.3945 35.9275 39.4231C35.3543 39.3966 34.8804 39.2104 34.4472 38.8313C33.9771 38.3108 33.8571 37.7902 33.8776 37.1084C33.9564 36.5134 34.2084 36.076 34.6834 35.7118C34.8436 35.6036 34.9988 35.5094 35.1716 35.423C35.1978 35.2089 35.2147 35.0028 35.2241 34.7879C35.2273 34.7281 35.2306 34.6684 35.2339 34.6069C35.2419 34.459 35.2488 34.3111 35.2556 34.1632C35.1568 34.2065 35.0581 34.2498 34.9564 34.2944C34.6078 34.4248 34.3605 34.4313 33.9957 34.3311C33.833 34.2419 33.833 34.2419 33.7437 34.0792C33.6808 33.513 33.6808 33.513 33.8592 33.213C34.2846 32.9396 34.7529 32.8193 35.2556 32.8193C35.2548 32.7539 35.2541 32.6886 35.2533 32.6212C35.2466 32.0046 35.2415 31.388 35.2382 30.7713C35.2364 30.4543 35.2341 30.1373 35.2302 29.8203C35.2266 29.5142 35.2246 29.2082 35.2237 28.9021C35.2231 28.7855 35.2219 28.6688 35.2201 28.5522C35.2176 28.3886 35.2175 28.2249 35.2174 28.0613C35.2167 27.9682 35.216 27.8751 35.2152 27.7792C35.2651 27.4685 35.3756 27.3325 35.5916 27.1079C36.0527 26.7806 36.5387 26.818 37.0824 26.8195C37.1774 26.819 37.2725 26.8186 37.3704 26.8182C37.5709 26.8176 37.7714 26.8177 37.9719 26.8184C38.2782 26.8192 38.5845 26.8167 38.8908 26.8141C39.0859 26.8139 39.2811 26.814 39.4762 26.8142C39.5675 26.8133 39.6589 26.8124 39.753 26.8114C40.2684 26.8161 40.5752 26.8463 40.967 27.1919C41.295 27.5652 41.3178 27.9102 41.323 28.3901C41.3237 28.4498 41.3243 28.5096 41.325 28.5712C41.3262 28.6977 41.3271 28.8242 41.3278 28.9507C41.3287 29.0794 41.3304 29.2081 41.3329 29.3368C41.3365 29.5235 41.3379 29.71 41.3387 29.8967C41.3402 29.9535 41.3417 30.0103 41.3432 30.0688C41.3411 30.5254 41.2266 30.7761 40.967 31.1395C40.5904 31.4875 40.1261 31.4235 39.6425 31.4161C39.512 31.4155 39.512 31.4155 39.3788 31.415C39.1015 31.4136 38.8243 31.4104 38.547 31.4072C38.3587 31.4059 38.1705 31.4048 37.9822 31.4038C37.5213 31.401 37.0604 31.3966 36.5995 31.3914C36.5995 31.8626 36.5995 32.3338 36.5995 32.8193C36.9321 32.8609 36.9321 32.8609 37.2714 32.9033C38.3828 33.2009 39.3382 34.0286 39.9411 34.9903C40.6116 36.2408 40.7107 37.523 40.3217 38.8752C39.9422 40.0662 39.0999 40.9306 38.0184 41.5206C36.8347 42.0941 35.4926 42.1424 34.2477 41.7224C33.1248 41.2652 32.3024 40.5127 31.7542 39.4389C31.7267 39.3851 31.6992 39.3313 31.6709 39.2758C31.4641 38.8336 31.4499 38.5477 31.392 38.0268C28.2322 38.0268 25.0725 38.0268 21.817 38.0268C21.7892 38.2208 21.7615 38.4148 21.733 38.6147C21.3177 39.5833 20.6872 40.3166 19.7132 40.7424C18.6672 41.1034 17.624 41.0843 16.6095 40.6305C15.678 40.0907 15.1172 39.3757 14.7617 38.3627C14.7617 38.2519 14.7617 38.141 14.7617 38.0268C14.6924 38.0275 14.6232 38.0283 14.5518 38.029C13.8923 38.0358 13.2327 38.0409 12.5731 38.0442C12.2342 38.0459 11.8953 38.0483 11.5564 38.0521C8.85229 38.082 6.61267 37.8209 4.54293 35.8784C2.96571 34.2432 2.45316 32.2653 2.47529 30.0482C2.49286 29.3856 2.59589 28.8215 2.83488 28.1998C2.86628 28.1119 2.89768 28.0239 2.93003 27.9334C3.30546 26.9538 3.87882 26.1817 4.5987 25.4281C4.64407 25.3764 4.68943 25.3248 4.73617 25.2716C5.99415 23.8932 8.01851 23.2471 9.83527 23.2281ZM36.5995 28.1998C36.5995 28.8095 36.5995 29.4193 36.5995 30.0476C37.7081 30.0476 38.8168 30.0476 39.9591 30.0476C39.9591 29.4378 39.9591 28.828 39.9591 28.1998C38.8504 28.1998 37.7417 28.1998 36.5995 28.1998ZM16.3575 36.095C16.0351 36.6171 15.931 37.1695 16.0215 37.7748C16.1786 38.4205 16.4978 38.8888 17.0294 39.2866C17.6371 39.6382 18.2429 39.736 18.9252 39.5701C19.5494 39.3563 20.0059 38.9867 20.3373 38.4139C20.6284 37.7666 20.66 37.1693 20.4258 36.4992C20.1286 35.8349 19.6341 35.4291 18.9612 35.1711C17.9048 34.8628 17.049 35.293 16.3575 36.095ZM35.2556 37.1029C35.1856 37.3548 35.1856 37.3548 35.2556 37.6068C35.4644 37.8893 35.5844 38.01 35.9328 38.074C36.2393 38.0153 36.3354 37.9443 36.5155 37.6908C36.5923 37.4272 36.6223 37.2615 36.5417 36.9979C36.3604 36.7562 36.1828 36.6986 35.8908 36.6462C35.5681 36.7013 35.4505 36.8467 35.2556 37.1029Z" fill="#FF7705"></path>
  <path d="M34.2187 6.11921C34.8255 6.43104 35.419 6.76023 36.0065 7.10707C36.1379 7.18437 36.1379 7.18437 36.2719 7.26322C36.444 7.36471 36.616 7.46637 36.7879 7.56825C36.9851 7.68505 37.1829 7.80091 37.3809 7.91647C37.4775 7.9738 37.5741 8.03121 37.6706 8.08872C37.7499 8.1356 37.8291 8.18248 37.9108 8.23079C38.1848 8.4309 38.3798 8.66182 38.5315 8.96538C38.5387 9.13608 38.5405 9.30702 38.5397 9.47786C38.5395 9.57964 38.5392 9.68141 38.5389 9.78627C38.5382 9.89302 38.5375 9.99978 38.5368 10.1098C38.5364 10.2172 38.536 10.3246 38.5356 10.4352C38.5346 10.7012 38.5333 10.9672 38.5315 11.2332C38.6298 11.2314 38.6298 11.2314 38.7301 11.2296C40.5325 11.2112 42.1923 11.8153 43.5082 13.0569C44.8599 14.3896 45.5196 16.0125 45.5396 17.8947C45.5292 19.816 44.851 21.3849 43.5399 22.7846C42.0349 24.2278 40.174 24.6136 38.1621 24.619C38.0138 24.6197 37.8655 24.6205 37.7171 24.6213C37.4081 24.6226 37.099 24.6233 36.79 24.6235C36.3943 24.624 35.9987 24.6272 35.603 24.631C35.2975 24.6335 34.992 24.6341 34.6865 24.6342C34.5405 24.6345 34.3946 24.6356 34.2487 24.6373C34.045 24.6396 33.8416 24.6392 33.6379 24.6381C33.5481 24.64 33.5481 24.64 33.4565 24.6419C33.1327 24.6372 32.9971 24.595 32.7408 24.3904C32.5681 24.1678 32.5681 24.1678 32.5156 23.9159C32.5871 23.5729 32.7162 23.4615 32.9881 23.2439C33.2193 23.2033 33.3985 23.1882 33.6289 23.1925C33.7236 23.1918 33.7236 23.1918 33.8203 23.1911C34.0286 23.19 34.2368 23.1917 34.4452 23.1934C34.5909 23.1929 34.7367 23.1923 34.8824 23.1914C35.2663 23.1894 35.6502 23.1898 36.0341 23.1909C36.6463 23.1924 37.2586 23.1915 37.8708 23.1887C38.0834 23.1882 38.2958 23.1893 38.5084 23.1905C40.0732 23.1916 41.5052 22.7765 42.6471 21.6481C43.817 20.3241 44.1655 18.9593 44.0914 17.2411C43.9877 15.897 43.259 14.826 42.3112 13.9209C41.2205 13.0058 39.9319 12.6584 38.5315 12.577C38.5354 12.6742 38.5393 12.7715 38.5434 12.8716C38.5465 13.0009 38.5496 13.1302 38.5525 13.2594C38.5554 13.3233 38.5582 13.3872 38.5611 13.453C38.5688 13.9028 38.5006 14.1567 38.1956 14.5088C38.0007 14.6607 38.0007 14.6607 37.7651 14.7975C37.6697 14.8535 37.5743 14.9095 37.4761 14.9672C37.4194 14.9996 37.3628 15.032 37.3044 15.0655C37.0627 15.2043 36.8222 15.3453 36.5817 15.4862C36.39 15.598 36.1983 15.7096 36.0065 15.8212C35.9152 15.8744 35.8239 15.9276 35.7298 15.9824C33.8919 17.0429 33.8919 17.0429 33.3549 16.9347C32.819 16.7349 32.19 16.4498 31.8962 15.9367C31.9063 15.6487 31.9242 15.4372 32.0799 15.1913C32.2954 15.0575 32.4853 15.0337 32.7361 15.0128C32.8193 15.0405 32.9024 15.0682 32.9881 15.0968C32.9881 14.0158 32.9881 12.9348 32.9881 11.8211C32.8495 11.7657 32.7109 11.7102 32.5681 11.6531C32.403 11.5663 32.2393 11.4768 32.0767 11.3854C31.9844 11.3336 31.8922 11.2819 31.7971 11.2286C31.6539 11.1477 31.6539 11.1477 31.5078 11.0652C31.4116 11.0113 31.3155 10.9573 31.2164 10.9018C30.5056 10.502 30.5056 10.502 30.2164 10.3092C30.206 10.7576 30.1984 11.2059 30.1933 11.6544C30.1912 11.8069 30.1883 11.9595 30.1847 12.1119C30.1796 12.3313 30.1772 12.5505 30.1754 12.7699C30.1732 12.838 30.171 12.9061 30.1688 12.9762C30.1641 13.1936 30.1641 13.1936 30.2164 13.5009C30.4146 13.6996 30.4146 13.6996 30.6363 13.8369C30.7256 14.1256 30.7256 14.1256 30.7203 14.4248C30.5651 14.7104 30.4564 14.8169 30.1534 14.934C29.7764 14.9268 29.5179 14.8032 29.2085 14.5928C28.6016 13.9548 28.7885 13.5857 28.7885 12.577C24.1875 12.577 19.5864 12.577 14.8459 12.577C14.8182 12.7988 14.7905 13.0205 14.7619 13.2489C14.5531 13.9317 14.2261 14.4821 13.7541 15.0128C13.7122 15.0634 13.6703 15.1141 13.6271 15.1663C12.8481 16.0375 11.726 16.4639 10.5853 16.5476C9.29883 16.5816 8.04763 16.2294 7.08624 15.33C6.06912 14.2095 5.64803 13.0414 5.66922 11.5435C5.71564 10.8781 5.88436 10.149 6.3418 9.64256C6.62539 9.50865 6.82049 9.5614 7.11873 9.63732C7.28146 9.72656 7.28146 9.72656 7.3707 9.88929C7.41483 10.3011 7.36344 10.6122 7.24471 11.0074C6.99757 11.8659 7.08795 12.6037 7.45469 13.4169C7.89031 14.1722 8.55998 14.7368 9.3865 15.0128C10.2974 15.2317 11.2048 15.1215 12.0171 14.6469C12.764 14.1173 13.2812 13.3974 13.4755 12.4976C13.6145 11.5952 13.3821 10.7607 12.8915 9.99756C12.3279 9.25203 11.5628 8.84249 10.6464 8.71341C10.2788 8.67948 9.95507 8.71144 9.59647 8.7974C9.22794 8.8846 8.92534 8.92633 8.54658 8.88139C8.33135 8.70816 8.33135 8.70816 8.21061 8.46143C8.21913 7.96773 8.21913 7.96773 8.40288 7.73832C9.008 7.24648 9.9914 7.23561 10.7304 7.28555C12.1414 7.47672 13.2242 8.0852 14.1041 9.19505C14.5133 9.79871 14.8459 10.4941 14.8459 11.2332C19.447 11.2332 24.048 11.2332 28.7885 11.2332C28.7885 10.5125 28.7885 9.79186 28.7885 9.04937C29.0953 8.43584 29.3901 8.23674 29.9716 7.90926C30.0199 7.88191 30.0681 7.85457 30.1179 7.8264C30.273 7.73854 30.4284 7.65116 30.5838 7.56378C30.7962 7.44369 31.0085 7.32332 31.2207 7.20287C31.2724 7.17357 31.324 7.14426 31.3773 7.11407C31.8757 6.83085 32.3663 6.53622 32.8546 6.23599C33.3049 5.97446 33.7379 5.91725 34.2187 6.11921ZM32.9963 7.72028C32.853 7.80383 32.853 7.80383 32.7068 7.88908C32.6063 7.94861 32.5059 8.00816 32.4054 8.06772C32.3053 8.12635 32.2052 8.18492 32.105 8.24342C31.839 8.39927 31.5734 8.5559 31.3083 8.71341C31.2285 8.75771 31.1488 8.80201 31.0666 8.84766C30.9784 8.90593 30.9784 8.90593 30.8883 8.96538C30.8883 9.02082 30.8883 9.07625 30.8883 9.13337C30.9493 9.16723 31.0103 9.20109 31.0731 9.23598C31.3014 9.36292 31.5296 9.49005 31.7578 9.6173C31.9042 9.69892 32.0508 9.78033 32.1974 9.86173C32.2905 9.9137 32.3836 9.96567 32.4796 10.0192C32.5649 10.0667 32.6502 10.1142 32.7381 10.1632C32.9881 10.3092 32.9881 10.3092 33.2568 10.4952C33.4794 10.6662 33.4794 10.6662 33.7329 10.6485C34.0794 10.5336 34.3689 10.3641 34.6784 10.1728C34.8045 10.0966 34.9306 10.0205 35.0567 9.94441C35.1186 9.90673 35.1804 9.86905 35.2441 9.83023C35.4999 9.67521 35.7583 9.52497 36.017 9.37484C36.0977 9.32785 36.1784 9.28086 36.2615 9.23245C36.3458 9.1834 36.3458 9.1834 36.4318 9.13337C36.3214 8.80227 36.1975 8.77361 35.895 8.60842C35.8024 8.55732 35.7099 8.50621 35.6145 8.45356C35.516 8.40017 35.4174 8.3468 35.3189 8.29345C35.1277 8.1885 34.9365 8.08351 34.7454 7.97848C34.6175 7.90897 34.6175 7.90897 34.4871 7.83806C34.3309 7.75151 34.1776 7.65975 34.0279 7.56246C33.6173 7.33873 33.3643 7.50394 32.9963 7.72028ZM36.6811 10.4677C36.5938 10.5189 36.5066 10.57 36.4167 10.6227C36.3246 10.6769 36.2326 10.7311 36.1378 10.7869C35.9585 10.8923 35.7791 10.9977 35.5997 11.1029C35.5198 11.15 35.4398 11.197 35.3574 11.2455C35.018 11.4415 34.6746 11.6307 34.332 11.8211C34.332 12.9298 34.332 14.0385 34.332 15.1808C34.72 14.959 35.108 14.7373 35.5078 14.5088C35.8119 14.34 36.1161 14.1718 36.4213 14.0049C36.8006 13.797 36.8006 13.797 37.1877 13.5849C37.1877 12.4762 37.1877 11.3675 37.1877 10.2253C37.0108 10.2253 36.8267 10.3821 36.6811 10.4677Z" fill="#FF7705"></path>
  <path d="M23.9901 16.6766C24.088 16.675 24.088 16.675 24.1879 16.6735C24.6443 16.6723 25.1227 16.6773 25.4908 16.981C25.7912 17.3954 25.8587 17.5767 25.8537 18.0887C25.8529 18.1885 25.8522 18.2883 25.8514 18.3912C25.8504 18.4681 25.8494 18.5449 25.8484 18.6241C26.1025 18.6922 26.2634 18.7347 26.5204 18.7081C26.7228 18.5766 26.882 18.4304 27.0525 18.2599C27.2798 18.0327 27.4463 18.019 27.7592 18.0099C27.8298 18.0068 27.9004 18.0037 27.9731 18.0004C28.499 18.0833 28.8697 18.5113 29.2291 18.8761C29.2735 18.9198 29.3179 18.9636 29.3636 19.0087C29.734 19.381 29.904 19.6311 29.9273 20.157C29.9231 20.5441 29.8524 20.7274 29.5913 21.0126C29.5377 21.0628 29.4841 21.1129 29.4289 21.1645C29.2724 21.3331 29.2315 21.4205 29.2081 21.6478C29.2405 21.873 29.2405 21.873 29.2921 22.0678C29.365 22.0639 29.438 22.06 29.5132 22.056C30.4026 22.0281 30.4026 22.0281 30.6884 22.2148C31.0367 22.5447 31.2034 22.7853 31.2374 23.2677C31.2412 23.4942 31.2436 23.7206 31.2449 23.9471C31.2475 24.0647 31.2475 24.0647 31.2501 24.1846C31.2533 24.7403 31.1775 25.1057 30.8039 25.5377C30.4952 25.7981 30.2104 25.7725 29.8223 25.7687C29.7232 25.7679 29.6241 25.7671 29.5221 25.7664C29.4082 25.7649 29.4082 25.7649 29.2921 25.7634C29.224 26.0174 29.1815 26.1784 29.2081 26.4353C29.3396 26.6377 29.4858 26.797 29.6563 26.9675C29.8835 27.1948 29.8972 27.3613 29.9063 27.6742C29.9094 27.7448 29.9125 27.8154 29.9158 27.8881C29.8051 28.5906 28.9909 29.2809 28.4522 29.711C28.0775 29.9059 27.8037 29.892 27.3918 29.8422C27.1135 29.7134 27.0166 29.6236 26.8196 29.4013C26.618 29.1742 26.618 29.1742 26.334 29.1034C26.1268 29.1272 26.1268 29.1272 25.8484 29.2071C25.8528 29.318 25.8528 29.318 25.8573 29.4311C25.8596 29.5287 25.8618 29.6262 25.8642 29.7268C25.8686 29.8715 25.8686 29.8715 25.873 30.0191C25.8369 30.4297 25.6881 30.6364 25.3865 30.9079C24.9574 31.2082 24.5205 31.1573 24.0164 31.1599C23.8922 31.1625 23.8922 31.1625 23.7655 31.1651C23.1958 31.1682 22.8219 31.1023 22.3785 30.7189C22.1181 30.4102 22.1437 30.1254 22.1475 29.7373C22.1483 29.6382 22.1491 29.5391 22.1498 29.437C22.1508 29.3612 22.1518 29.2853 22.1528 29.2071C21.8181 29.1184 21.8181 29.1184 21.4809 29.1231C21.3151 29.256 21.1882 29.4058 21.0481 29.5653C20.7883 29.8092 20.4885 29.8796 20.137 29.879C19.5617 29.7896 19.2781 29.4963 18.8929 29.0916C18.8368 29.0351 18.7808 28.9785 18.7231 28.9203C18.3504 28.5382 18.0983 28.2593 18.0897 27.7057C18.098 27.3025 18.1902 27.0827 18.4572 26.7713C18.5213 26.7193 18.5854 26.6674 18.6514 26.6138C18.8102 26.4511 18.8102 26.4511 18.7954 26.2654C18.7744 26.0969 18.7424 25.9299 18.7091 25.7634C18.6352 25.7663 18.5612 25.7693 18.4851 25.7723C18.3875 25.7745 18.29 25.7768 18.1894 25.7792C18.0447 25.7835 18.0447 25.7835 17.8971 25.788C17.4865 25.7519 17.2798 25.6031 17.0083 25.3015C16.7155 24.8831 16.759 24.4699 16.7563 23.9786C16.7546 23.9005 16.7529 23.8225 16.7511 23.742C16.7483 23.2569 16.7934 22.9147 17.0293 22.4877C17.424 22.1219 17.6419 22.0573 18.1737 22.0625C18.2735 22.0633 18.3733 22.064 18.4762 22.0648C18.5531 22.0658 18.6299 22.0668 18.7091 22.0678C18.798 21.733 18.798 21.733 18.7931 21.3958C18.6604 21.2119 18.5169 21.0766 18.345 20.9293C18.162 20.7704 18.1252 20.6803 18.1012 20.4391C18.0991 20.3599 18.0971 20.2806 18.095 20.199C18.0918 20.1206 18.0887 20.0422 18.0854 19.9614C18.1639 19.4231 18.5887 19.054 18.9611 18.6871C19.0049 18.6427 19.0486 18.5983 19.0937 18.5526C19.456 18.1921 19.697 18.0127 20.2105 18.0047C20.6137 18.013 20.8335 18.1052 21.1449 18.3722C21.1969 18.4363 21.2488 18.5003 21.3024 18.5664C21.4651 18.7252 21.4651 18.7252 21.6508 18.7104C21.8193 18.6894 21.9863 18.6574 22.1528 18.6241C22.1489 18.5512 22.145 18.4782 22.141 18.403C22.1131 17.5136 22.1131 17.5136 22.2998 17.2278C22.8132 16.6858 23.2749 16.6772 23.9901 16.6766ZM23.4967 18.0362C23.488 18.1938 23.4793 18.3515 23.4704 18.5139C23.4488 18.9079 23.3759 19.1346 23.1607 19.464C23.1607 19.5195 23.1607 19.5749 23.1607 19.632C23.0996 19.6561 23.0386 19.6801 22.9756 19.7049C22.8301 19.7638 22.6855 19.8251 22.5426 19.8899C22.0751 20.0961 21.6573 20.2343 21.1449 20.136C20.8106 19.9594 20.5614 19.7401 20.305 19.464C19.9844 19.5947 19.7849 19.803 19.5491 20.052C19.6495 20.2893 19.7642 20.4443 19.9323 20.6452C20.1738 20.9362 20.2558 21.1609 20.2502 21.5389C20.1694 22.0729 19.961 22.7012 19.5806 23.0967C19.2664 23.3282 18.9897 23.3463 18.6094 23.3749C18.4483 23.387 18.2872 23.3992 18.1212 23.4116C18.1212 23.7443 18.1212 24.0769 18.1212 24.4195C18.2633 24.4282 18.4053 24.4369 18.5517 24.4458C19.0561 24.4937 19.3931 24.5675 19.7275 24.9707C20.0258 25.5175 20.3069 26.0494 20.221 26.6873C20.0712 27.0814 19.8578 27.3275 19.5491 27.6112C19.6797 27.9318 19.888 28.1313 20.137 28.3671C20.3743 28.2667 20.5293 28.152 20.7302 27.9839C21.0944 27.6817 21.3531 27.6668 21.8168 27.6952C22.1197 27.7907 22.1197 27.7907 22.4205 27.9209C22.5204 27.9628 22.6204 28.0047 22.7233 28.0479C23.0925 28.2552 23.2791 28.4703 23.4127 28.8711C23.4487 29.1785 23.4712 29.4864 23.4967 29.795C23.8293 29.795 24.1619 29.795 24.5046 29.795C24.5132 29.6529 24.5219 29.5109 24.5308 29.3645C24.5787 28.8601 24.6525 28.5231 25.0557 28.1887C25.6025 27.8904 26.1344 27.6093 26.7723 27.6952C27.1664 27.845 27.4126 28.0584 27.6962 28.3671C28.0168 28.2365 28.2163 28.0282 28.4522 27.7792C28.3545 27.5483 28.2298 27.3704 28.0689 27.1808C27.8166 26.8831 27.7411 26.7137 27.7454 26.3198C27.8337 25.7606 28.0818 25.113 28.4958 24.7253C28.9239 24.4422 29.3802 24.4607 29.88 24.4195C29.88 24.0869 29.88 23.7543 29.88 23.4116C29.7241 23.403 29.5682 23.3943 29.4076 23.3854C28.6844 23.3207 28.6844 23.3207 28.3682 23.0757C28.2254 22.8627 28.1279 22.641 28.0322 22.4037C27.9944 22.3183 27.9944 22.3183 27.9558 22.2312C27.7598 21.7627 27.694 21.3707 27.88 20.8814C28.0437 20.6217 28.2266 20.4272 28.4522 20.22C28.3215 19.8994 28.1132 19.6999 27.8642 19.464C27.6333 19.5617 27.4555 19.6864 27.2658 19.8473C26.9416 20.1221 26.757 20.17 26.3281 20.1652C25.795 20.0968 25.2179 19.8704 24.8248 19.4955C24.4999 19.0698 24.5434 18.5526 24.5046 18.0362C24.1719 18.0362 23.8393 18.0362 23.4967 18.0362Z" fill="#FF7705"></path>
  <path d="M25.2343 21.4473C25.9077 21.8511 26.4088 22.3935 26.6553 23.1471C26.7947 23.9065 26.7488 24.6731 26.3524 25.3434C25.9181 25.9529 25.401 26.405 24.6726 26.6032C23.8235 26.6789 23.0903 26.6594 22.3901 26.1288C21.7427 25.5868 21.3685 25.0759 21.2857 24.2226C21.2586 23.3635 21.4092 22.7532 21.9534 22.0834C22.7875 21.1993 24.1248 20.9272 25.2343 21.4473ZM22.9245 23.0808C22.6147 23.4969 22.6002 23.8248 22.6568 24.3355C22.8662 24.7543 23.1602 25.0491 23.5807 25.2594C23.9969 25.305 24.3258 25.3068 24.7041 25.1176C25.1574 24.7188 25.1574 24.7188 25.3616 24.1714C25.3704 23.7404 25.343 23.4428 25.0926 23.0756C24.7617 22.742 24.4929 22.5819 24.0164 22.5506C23.5438 22.5593 23.2303 22.7235 22.9245 23.0808Z" fill="#FF7705"></path>
  <path d="M10.3103 9.9733C10.5049 10.1189 10.5049 10.1189 10.6873 10.3063C10.7535 10.3735 10.8197 10.4407 10.8879 10.5099C10.9554 10.5805 11.0229 10.6512 11.0924 10.724C11.1961 10.8295 11.1961 10.8295 11.3019 10.9371C11.8803 11.5298 11.8803 11.5298 11.9589 11.9058C11.952 12.3308 11.6514 12.5706 11.3675 12.8559C11.2941 12.9267 11.2206 12.9975 11.1449 13.0705C11.0738 13.1432 11.0026 13.216 10.9292 13.291C10.339 13.8726 10.339 13.8726 9.97628 13.9294C9.56958 13.9158 9.56958 13.9158 9.38637 13.7529C9.2465 13.4367 9.19215 13.2531 9.29188 12.9182C9.53602 12.5664 9.83038 12.281 10.1423 11.9891C10.0203 11.7016 9.86346 11.5359 9.63309 11.3277C9.41631 11.1152 9.30998 11.0016 9.20264 10.7135C9.22199 10.4232 9.2883 10.2833 9.47036 10.0573C9.75714 9.83973 9.97197 9.88862 10.3103 9.9733Z" fill="#FF7705"></path>
</svg>
