<?xml version="1.0" encoding="UTF-8"?>
<svg xmlns="http://www.w3.org/2000/svg" width="48" height="48" viewBox="0 0 48 48" fill="none">
  <path d="M25.4996 1.64758C25.7329 1.81353 25.9452 1.99877 26.1621 2.18554C26.517 2.48944 26.517 2.48944 26.9765 2.53124C27.0365 2.5165 27.0964 2.50176 27.1582 2.48657C28.1027 2.27278 28.9813 2.43264 29.8125 2.90624C30.5602 3.38115 30.9904 4.13562 31.1986 4.98925C31.2898 5.27196 31.2898 5.27196 31.5677 5.38439C31.6711 5.41545 31.7744 5.44651 31.8808 5.47851C32.7989 5.79871 33.3443 6.22911 33.8258 7.07555C34.0674 7.58807 34.149 8.00426 34.1426 8.57226C34.1416 8.749 34.1416 8.749 34.1407 8.92931C34.125 9.28124 34.125 9.28124 34.0525 9.62365C33.9991 9.9428 33.9991 9.9428 34.1935 10.1843C34.3075 10.3 34.3075 10.3 34.4238 10.418C35.0195 11.0934 35.3312 11.9168 35.2796 12.8273C35.1569 13.6714 34.8307 14.4424 34.1777 15.0117C34.1294 15.0697 34.081 15.1277 34.0312 15.1875C34.0581 15.4068 34.0902 15.6255 34.125 15.8437C34.1833 16.7821 34.2265 17.7035 33.5965 18.4673C33.4394 18.6387 33.4394 18.6387 33.2882 18.7811C33.1647 18.9367 33.1647 18.9367 33.2111 19.1504C33.2892 19.4355 33.4023 19.6512 33.5519 19.9061C33.6083 20.0031 33.6648 20.1001 33.723 20.2001C33.8147 20.3553 33.8147 20.3553 33.9082 20.5137C33.9711 20.6217 34.034 20.7297 34.0968 20.8379C34.4179 21.3895 34.7436 21.9381 35.0727 22.485C35.1331 22.5861 35.1934 22.6872 35.2556 22.7914C35.3708 22.9842 35.4871 23.1764 35.6045 23.3678C35.6566 23.4551 35.7087 23.5424 35.7623 23.6323C35.8314 23.746 35.8314 23.746 35.9018 23.862C36.0216 24.1447 36.0273 24.3519 36 24.6562C35.855 24.8793 35.855 24.8793 35.625 25.0312C35.381 25.0524 35.1859 25.0493 34.9453 25.0254C34.8755 25.02 34.8056 25.0146 34.7337 25.0091C34.468 24.9877 34.2028 24.9626 33.9375 24.9375C33.7464 24.9202 33.5554 24.903 33.3643 24.8857C32.555 24.8126 31.7462 24.7354 30.9375 24.6562C30.9143 24.732 30.8912 24.8077 30.8673 24.8858C30.7264 25.2856 30.553 25.6631 30.3724 26.0464C30.3359 26.1242 30.2994 26.202 30.2617 26.2822C30.1848 26.4459 30.1076 26.6095 30.0303 26.7729C29.912 27.0236 29.795 27.2747 29.6779 27.5259C29.6028 27.6851 29.5277 27.8443 29.4525 28.0034C29.4176 28.0786 29.3827 28.1538 29.3468 28.2313C29.3137 28.3008 29.2805 28.3703 29.2463 28.4419C29.2176 28.503 29.1888 28.5642 29.1591 28.6272C29.0625 28.7812 29.0625 28.7812 28.7812 28.9687C28.5058 29.0098 28.5058 29.0098 28.2187 28.9687C27.948 28.6707 27.7443 28.3491 27.5456 28.0001C27.4901 27.9031 27.4345 27.806 27.3772 27.706C27.3185 27.6026 27.2597 27.4991 27.1992 27.3926C27.1061 27.2299 27.0129 27.0672 26.9197 26.9045C26.8557 26.7928 26.7918 26.6812 26.7279 26.5694C26.3879 25.9749 26.044 25.3827 25.6992 24.791C25.6429 24.694 25.5866 24.5971 25.5286 24.4972C25.451 24.364 25.451 24.364 25.3718 24.2281C25.3263 24.1499 25.2807 24.0716 25.2338 23.991C25.1381 23.8183 25.1381 23.8183 25.0312 23.7187C24.8749 23.7495 24.7186 23.7808 24.5625 23.8125C24.3751 23.821 24.1875 23.8247 24 23.8242C23.9052 23.8245 23.8105 23.8247 23.7129 23.8249C23.4541 23.8132 23.2214 23.7724 22.9687 23.7187C22.4485 24.5517 21.9517 25.3949 21.4687 26.25C20.1303 28.6196 20.1303 28.6196 19.7812 28.9687C19.5117 29.0039 19.5117 29.0039 19.2187 28.9687C18.8195 28.6604 18.6481 28.2373 18.4413 27.791C18.4046 27.7134 18.3679 27.6357 18.33 27.5557C18.2528 27.392 18.176 27.2281 18.0996 27.064C17.9826 26.813 17.8644 26.5626 17.746 26.3123C17.671 26.1529 17.5962 25.9934 17.5213 25.834C17.4861 25.7592 17.4508 25.6844 17.4145 25.6073C17.3819 25.5372 17.3494 25.4671 17.3158 25.3949C17.2872 25.3336 17.2585 25.2722 17.229 25.2091C17.1544 25.0268 17.1055 24.8482 17.0625 24.6562C16.9405 24.6676 16.8185 24.679 16.6927 24.6907C16.2388 24.7329 15.7849 24.7747 15.331 24.8165C15.1347 24.8346 14.9385 24.8527 14.7423 24.871C14.4598 24.8973 14.1773 24.9233 13.8948 24.9492C13.8074 24.9574 13.7201 24.9656 13.6301 24.9741C12.4485 25.0815 12.4485 25.0815 12.1523 24.8789C11.9551 24.5906 11.9703 24.439 12 24.0937C12.1067 23.8448 12.1067 23.8448 12.2582 23.5913C12.3145 23.4955 12.3708 23.3998 12.4288 23.3011C12.4903 23.1992 12.5518 23.0972 12.6152 22.9922C12.7105 22.8303 12.8058 22.6684 12.901 22.5065C13.0684 22.2225 13.2374 21.9394 13.4062 21.6562C13.6415 21.2613 13.8759 20.8659 14.1084 20.4693C14.2019 20.3106 14.2969 20.1527 14.3919 19.9948C14.4485 19.8985 14.5051 19.8021 14.5635 19.7029C14.6391 19.5759 14.6391 19.5759 14.7163 19.4464C14.8307 19.2277 14.8307 19.2277 14.7888 19.0119C14.7035 18.8072 14.5908 18.6626 14.4492 18.4922C13.8124 17.6533 13.8223 16.8552 13.875 15.8437C13.9096 15.671 13.9096 15.671 13.9449 15.4947C14 15.1873 14 15.1873 13.827 14.9685C13.7597 14.9054 13.6924 14.8423 13.623 14.7773C13.1444 14.287 12.8193 13.7247 12.75 13.0312C12.7441 12.9742 12.7381 12.9172 12.732 12.8584C12.6797 11.9268 12.9624 11.1139 13.5761 10.418C13.6522 10.3409 13.7282 10.2638 13.8065 10.1843C14.0008 9.94261 14.0008 9.94261 13.9482 9.62218C13.924 9.50967 13.8999 9.39716 13.875 9.28124C13.796 8.08409 13.9412 7.21995 14.7143 6.2849C15.1658 5.83516 15.6746 5.56064 16.2949 5.43163C16.5086 5.38049 16.5086 5.38049 16.6875 5.24999C16.8425 4.95402 16.9435 4.65764 17.0475 4.34032C17.3228 3.55793 17.8509 3.11188 18.5625 2.71874C18.6489 2.67071 18.6489 2.67071 18.7372 2.6217C19.4263 2.30443 20.3016 2.34932 21.0234 2.53124C21.5194 2.53124 21.7152 2.29121 22.0807 1.97643C22.9561 1.23932 24.4762 1.09683 25.4996 1.64758ZM22.2997 3.41381C21.8279 3.81534 21.3128 3.79329 20.7187 3.74999C20.6259 3.71906 20.5331 3.68812 20.4375 3.65624C19.8052 3.5788 19.2889 3.69057 18.75 4.03124C18.244 4.43493 18.078 4.93258 17.9114 5.54369C17.7429 6.00177 17.5578 6.22475 17.113 6.43359C16.9912 6.47797 16.8689 6.52092 16.7461 6.56249C16.1278 6.77432 15.5619 7.03953 15.2461 7.65234C14.9992 8.19013 15.0021 8.81872 15.1875 9.37499C15.2288 9.99476 15.1651 10.4783 14.7513 10.9625C14.6942 11.0245 14.637 11.0865 14.5781 11.1504C14.1975 11.5705 13.9811 11.9389 13.9603 12.5138C14.003 13.2375 14.2611 13.6813 14.7304 14.2148C15.169 14.7143 15.2184 15.0998 15.1875 15.75C15.1648 15.839 15.1648 15.839 15.1417 15.9298C15.0051 16.4856 14.9964 17.0665 15.2929 17.5664C15.7102 18.1323 16.0835 18.3696 16.7402 18.6035C17.2195 18.7814 17.5837 18.928 17.8125 19.4062C17.8841 19.605 17.9543 19.8043 18.0234 20.0039C18.2535 20.6371 18.5604 21.0097 19.125 21.375C19.7116 21.6369 20.2278 21.5384 20.8399 21.431C21.3623 21.351 21.7594 21.3771 22.2187 21.6562C22.3933 21.8161 22.5533 21.985 22.7153 22.1576C23.0841 22.5154 23.4967 22.6104 23.9941 22.6348C24.6774 22.6099 25.1092 22.3291 25.6054 21.8789C25.9549 21.5627 26.2321 21.363 26.7239 21.3827C27.0149 21.4124 27.3022 21.456 27.5903 21.5065C28.2222 21.6034 28.6183 21.4905 29.1625 21.1655C29.6755 20.7878 29.8816 20.3195 30.07 19.7268C30.2283 19.2551 30.4344 19.0274 30.8437 18.75C31.1422 18.628 31.1422 18.628 31.4472 18.5332C32.119 18.2909 32.4613 17.952 32.8279 17.3529C32.9265 17.1053 32.9278 16.9066 32.9238 16.6406C32.9232 16.5526 32.9226 16.4647 32.922 16.374C32.9079 16.151 32.8701 15.9646 32.8125 15.75C32.7623 15.1474 32.8486 14.7539 33.1875 14.25C33.2986 14.1211 33.4119 13.9942 33.5273 13.8691C33.9452 13.4073 34.0546 12.9991 34.0254 12.3809C33.9451 11.7596 33.6583 11.3414 33.2168 10.9101C32.873 10.5571 32.8037 10.2119 32.7949 9.73241C32.8125 9.37499 32.8125 9.37499 32.9062 9.09374C32.9708 8.43809 32.9519 7.84562 32.5312 7.31249C32.1305 6.93105 31.7785 6.74921 31.2597 6.57421C30.7941 6.4007 30.4164 6.25986 30.1651 5.81103C30.0824 5.59558 30.02 5.37879 29.959 5.15624C29.8037 4.59181 29.553 4.22358 29.0555 3.90783C28.5624 3.66083 28.1097 3.58922 27.5625 3.65624C27.4697 3.68718 27.3769 3.71812 27.2812 3.74999C26.635 3.82001 26.1319 3.74993 25.5937 3.37499C25.4356 3.22064 25.2792 3.06451 25.125 2.90624C24.1154 2.19215 23.1012 2.69828 22.2997 3.41381ZM16.0312 19.6875C15.8451 19.9115 15.8451 19.9115 15.6822 20.2108C15.6502 20.2654 15.6182 20.32 15.5852 20.3763C15.4825 20.5522 15.3819 20.7291 15.2812 20.9062C15.2148 21.0209 15.1483 21.1354 15.0817 21.2499C14.8825 21.5932 14.6862 21.9381 14.4902 22.2832C14.4222 22.4025 14.3541 22.5219 14.286 22.6412C13.9769 23.1747 13.9769 23.1747 13.6875 23.7187C13.7991 23.7097 13.9107 23.7007 14.0258 23.6914C14.4401 23.6582 14.8546 23.6257 15.269 23.5934C15.4484 23.5794 15.6277 23.5651 15.807 23.5506C16.0648 23.5298 16.3227 23.5097 16.5805 23.4899C16.6606 23.4832 16.7407 23.4766 16.8232 23.4698C16.9358 23.4613 16.9358 23.4613 17.0507 23.4527C17.1493 23.4449 17.1493 23.4449 17.25 23.4369C17.4579 23.4376 17.6173 23.4587 17.8125 23.5312C17.9425 23.7401 18.0455 23.934 18.1468 24.1564C18.1768 24.2194 18.2069 24.2824 18.2378 24.3474C18.3336 24.5494 18.4276 24.7522 18.5215 24.9551C18.585 25.09 18.6487 25.2248 18.7124 25.3596C18.8303 25.6088 18.9473 25.8584 19.0637 26.1083C19.2048 26.4079 19.3505 26.7045 19.5 27C19.8994 26.5491 20.1702 26.0296 20.4609 25.5059C20.5692 25.3125 20.6774 25.1191 20.7857 24.9258C20.8382 24.8319 20.8906 24.738 20.9446 24.6412C21.1427 24.2876 21.3433 23.9356 21.5449 23.584C21.6035 23.4816 21.6621 23.3793 21.7225 23.2738C21.7625 23.2041 21.8025 23.1343 21.8437 23.0625C21.5818 22.6954 21.5818 22.6954 21.1875 22.5C20.9883 22.5337 20.9883 22.5337 20.7715 22.5937C19.8547 22.7853 19.0785 22.6577 18.2589 22.2045C17.4993 21.6963 17.1666 21.0935 16.894 20.2331C16.7697 19.9418 16.6842 19.8347 16.4062 19.6875C16.2825 19.6875 16.1587 19.6875 16.0312 19.6875ZM31.3594 19.8574C31.1348 20.0969 31.0539 20.338 30.9551 20.6484C30.681 21.4533 30.2018 21.9511 29.4609 22.3594C28.6142 22.7428 27.8439 22.7635 26.9597 22.4985C26.5809 22.5008 26.4254 22.7129 26.1562 22.9687C26.6041 23.9045 27.1046 24.7969 27.6375 25.6864C27.806 25.9688 27.9713 26.2529 28.1367 26.5371C28.1891 26.6271 28.2416 26.7172 28.2956 26.8099C28.3504 26.904 28.3504 26.904 28.4062 27C28.6937 26.7561 28.8168 26.4768 28.9717 26.1368C28.9976 26.0803 29.0236 26.0238 29.0504 25.9655C29.1331 25.7852 29.215 25.6045 29.2969 25.4238C29.3789 25.2442 29.4611 25.0646 29.5433 24.8851C29.6181 24.7216 29.6925 24.5579 29.7669 24.3941C29.8129 24.295 29.8589 24.1959 29.9062 24.0937C29.9469 23.9901 29.9876 23.8864 30.0295 23.7796C30.1875 23.5312 30.1875 23.5312 30.4342 23.4459C30.8216 23.4356 31.1984 23.4557 31.5842 23.4899C31.6625 23.4962 31.7408 23.5026 31.8214 23.5092C32.0698 23.5296 32.3181 23.5509 32.5664 23.5723C32.7354 23.5863 32.9045 23.6003 33.0736 23.6142C33.4866 23.6483 33.8996 23.6833 34.3125 23.7187C34.2638 23.634 34.2152 23.5492 34.1651 23.4619C33.838 22.8912 33.5125 22.32 33.1965 21.743C32.8932 21.1899 32.5867 20.6383 32.2617 20.0976C32.2136 20.0172 32.1655 19.9367 32.1159 19.8538C32.0431 19.7715 32.0431 19.7715 31.9687 19.6875C31.5961 19.6508 31.5961 19.6508 31.3594 19.8574Z" fill="#FF7705"></path>
  <path d="M45.8738 17.6122C46.183 17.8584 46.4169 18.1142 46.5941 18.4687C46.6037 18.6389 46.6072 18.8093 46.6079 18.9797C46.6089 19.1425 46.6089 19.1425 46.61 19.3086C46.6102 19.4283 46.6105 19.5481 46.6107 19.6714C46.6113 19.7983 46.6119 19.9252 46.6126 20.0521C46.6146 20.4696 46.6155 20.8871 46.6165 21.3047C46.6168 21.4486 46.6172 21.5924 46.6176 21.7363C46.6194 22.4126 46.6207 23.089 46.6215 23.7654C46.6224 24.545 46.6249 25.3246 46.6287 26.1042C46.6315 26.7073 46.6329 27.3105 46.6332 27.9136C46.6334 28.2735 46.6343 28.6334 46.6366 28.9933C46.6388 29.3325 46.6392 29.6716 46.6383 30.0108C46.6382 30.1934 46.64 30.3759 46.6418 30.5585C46.6355 31.6312 46.3496 32.3609 45.6508 33.1641C45.541 33.2945 45.4314 33.425 45.3219 33.5555C45.2675 33.6198 45.2131 33.684 45.157 33.7502C44.9279 34.0241 44.7092 34.3056 44.4906 34.5879C44.0518 35.151 43.5988 35.7016 43.1436 36.2514C42.7587 36.7171 42.3824 37.1886 42.011 37.6652C41.6846 38.0832 41.3514 38.4954 41.016 38.9062C40.5476 39.4804 40.0859 40.0592 39.6303 40.6436C39.4506 40.8737 39.2687 41.1019 39.0853 41.3291C39.0378 41.3884 38.9903 41.4477 38.9413 41.5089C38.8502 41.6224 38.7586 41.7357 38.6665 41.8484C38.3449 42.2513 38.241 42.5326 38.2341 43.0401C38.2328 43.1145 38.2316 43.189 38.2303 43.2657C38.2293 43.3452 38.2283 43.4247 38.2273 43.5066C38.2242 43.6754 38.2211 43.8442 38.218 44.0131C38.2135 44.2789 38.2093 44.5447 38.2057 44.8105C38.202 45.0673 38.1971 45.3241 38.1922 45.5808C38.1914 45.6607 38.1906 45.7406 38.1898 45.8229C38.1779 46.385 38.1779 46.385 37.9691 46.5937C37.7273 46.6123 37.4956 46.6193 37.2537 46.618C37.1799 46.6183 37.1062 46.6187 37.0301 46.619C36.7855 46.6198 36.5409 46.6193 36.2963 46.6187C36.1267 46.6188 35.9572 46.619 35.7877 46.6192C35.4321 46.6195 35.0765 46.6191 34.7209 46.6182C34.2644 46.6171 33.8079 46.6177 33.3514 46.6189C33.0012 46.6195 32.651 46.6193 32.3009 46.6188C32.1325 46.6187 31.9642 46.6189 31.7958 46.6193C31.5608 46.6198 31.3258 46.6191 31.0908 46.618C31.0207 46.6184 30.9507 46.6188 30.8785 46.6192C30.3968 46.6152 30.3968 46.6152 30.1879 46.4062C30.0575 46.0567 30.0803 45.6875 30.0805 45.3195C30.0802 45.2483 30.0799 45.177 30.0796 45.1036C30.0787 44.868 30.0785 44.6324 30.0784 44.3968C30.0781 44.2322 30.0778 44.0675 30.0774 43.9028C30.0769 43.557 30.0767 43.2113 30.0768 42.8656C30.0768 42.4256 30.0755 41.9856 30.0739 41.5456C30.0728 41.2049 30.0726 40.8643 30.0727 40.5236C30.0726 40.3616 30.0722 40.1996 30.0714 40.0376C30.0624 37.8356 30.4556 35.9336 32.0629 34.3125C32.2442 34.1476 32.4289 33.9879 32.6159 33.8295C32.8319 33.6396 33.033 33.4393 33.2348 33.2344C33.5499 32.9149 33.8757 32.618 34.2162 32.3262C34.4288 32.1365 34.6284 31.9372 34.8285 31.7344C35.1436 31.4149 35.4695 31.118 35.8099 30.8262C36.0225 30.6365 36.2222 30.4372 36.4223 30.2344C36.7373 29.915 37.0629 29.6179 37.4037 29.3265C37.6855 29.0745 37.9456 28.8024 38.2064 28.5289C38.4379 28.3125 38.4379 28.3125 38.6216 28.2132C38.8548 28.0786 39.0143 27.9572 39.1879 27.75C39.2964 27.3252 39.2816 26.9101 39.2717 26.4738C39.2717 26.3484 39.2721 26.223 39.2728 26.0976C39.2739 25.7682 39.2707 25.4389 39.2664 25.1096C39.2602 24.5836 39.26 24.0576 39.2605 23.5316C39.26 23.3491 39.2574 23.1667 39.2547 22.9843C39.2499 22.0274 39.3655 21.3076 40.036 20.599C40.4375 20.2449 40.8426 20.0779 41.3676 20.0039C41.7234 19.916 41.7234 19.916 41.833 19.6783C41.8949 19.5137 41.9535 19.3478 42.0092 19.181C42.2599 18.4622 42.7581 18.0821 43.4066 17.7187C43.4633 17.6866 43.52 17.6545 43.5784 17.6213C44.2378 17.3139 45.2418 17.2571 45.8738 17.6122ZM44.2826 18.6639C43.6698 18.9039 43.3032 19.2547 43.0185 19.84C42.8719 20.2448 42.8869 20.6476 42.8912 21.0738C42.8906 21.1724 42.8901 21.2709 42.8896 21.3725C42.8887 21.5854 42.8887 21.7984 42.8895 22.0113C42.8907 22.3487 42.8896 22.6861 42.888 23.0234C42.8855 23.6181 42.8849 24.2127 42.8851 24.8073C42.8853 25.759 42.8839 26.7106 42.8799 27.6623C42.8789 27.9941 42.8797 28.3258 42.8807 28.6575C42.8801 28.8617 42.8794 29.0658 42.8787 29.27C42.8794 29.3616 42.8802 29.4533 42.8809 29.5478C42.8754 30.2923 42.7452 30.8985 42.2113 31.4531C42.1007 31.57 42.1007 31.57 41.9879 31.6893C41.9461 31.7327 41.9042 31.776 41.8611 31.8207C41.697 31.9918 41.5355 32.1653 41.3742 32.339C40.4206 33.3639 40.4206 33.3639 39.9606 33.8207C39.7476 34.0322 39.5444 34.246 39.3519 34.4766C38.9183 34.9798 38.4417 35.44 37.9691 35.9062C37.8876 35.993 37.806 36.0798 37.7219 36.1692C37.5004 36.375 37.5004 36.375 37.2016 36.416C36.9379 36.375 36.9379 36.375 36.7504 36.1875C36.6976 35.8887 36.6976 35.8887 36.7504 35.5312C36.8915 35.3459 37.0475 35.2 37.2206 35.0442C37.4029 34.8784 37.5584 34.7058 37.7172 34.5176C37.9763 34.2166 38.2491 33.9354 38.5316 33.6562C38.8084 33.3828 39.0757 33.1082 39.3285 32.8125C39.5813 32.5168 39.8486 32.2421 40.1254 31.9687C41.1819 31.0142 41.1819 31.0142 41.7484 29.7891C41.7136 29.3708 41.6124 29.194 41.3441 28.875C41.0804 28.6612 40.9056 28.599 40.5707 28.541C39.6632 28.6771 39.0559 29.4556 38.4448 30.0831C38.1709 30.3636 37.8827 30.6209 37.5839 30.8745C37.2994 31.1261 37.0375 31.3997 36.7709 31.6699C36.5247 31.9127 36.2657 32.1364 36.0033 32.3613C35.7907 32.551 35.5911 32.7503 35.391 32.9531C35.0759 33.2725 34.75 33.5695 34.4096 33.8613C34.1216 34.1183 33.8544 34.3949 33.5841 34.6703C33.3928 34.8579 33.1956 35.0275 32.9887 35.1973C31.9694 36.0787 31.4549 37.3101 31.3129 38.625C31.2894 39.1609 31.2909 39.6956 31.2946 40.2319C31.2949 40.3838 31.2952 40.5356 31.2954 40.6874C31.2961 41.0832 31.2979 41.479 31.3 41.8747C31.3023 42.3517 31.3031 42.8286 31.3042 43.3055C31.306 44.0266 31.3096 44.7477 31.3129 45.4687C33.1691 45.4687 35.0254 45.4687 36.9379 45.4687C36.9612 44.5503 36.9612 44.5503 36.9827 43.6319C37.0335 41.8679 37.0335 41.8679 37.6469 41.1211C37.7097 41.0433 37.7097 41.0433 37.7738 40.9639C37.9001 40.8081 38.0282 40.654 38.1566 40.5C38.2589 40.374 38.2589 40.374 38.3632 40.2455C38.5743 39.9855 38.7874 39.7272 39.0004 39.4687C39.6279 38.7024 40.2504 37.9328 40.86 37.1522C41.239 36.6679 41.6271 36.1913 42.016 35.7149C42.3839 35.2633 42.7449 34.8069 43.1024 34.347C43.342 34.0404 43.5865 33.7388 43.8366 33.4405C43.8945 33.3712 43.9525 33.3019 44.0122 33.2305C44.124 33.0973 44.2363 32.9645 44.3492 32.8323C45.1074 31.9282 45.4604 31.2656 45.4467 30.0659C45.4475 29.9446 45.4483 29.8233 45.4492 29.6984C45.4514 29.3685 45.45 29.0388 45.4478 28.7089C45.4461 28.3628 45.4471 28.0168 45.4477 27.6707C45.4483 27.0904 45.4466 26.5102 45.4436 25.93C45.44 25.2592 45.4402 24.5884 45.4423 23.9176C45.4443 23.2712 45.4436 22.6248 45.4418 21.9783C45.441 21.7035 45.4412 21.4288 45.4421 21.154C45.4433 20.7711 45.4406 20.3883 45.4375 20.0054C45.4383 19.8913 45.4391 19.7772 45.4399 19.6596C45.4385 19.5557 45.437 19.4517 45.4355 19.3446C45.4352 19.2542 45.4349 19.1637 45.4346 19.0705C45.3945 18.8217 45.3945 18.8217 45.15 18.6722C44.8107 18.5193 44.6314 18.568 44.2826 18.6639ZM40.9691 21.4687C40.5897 21.879 40.4885 22.1732 40.4897 22.724C40.4897 22.8272 40.4897 22.9304 40.4898 23.0368C40.4902 23.1481 40.4907 23.2594 40.4912 23.3741C40.4914 23.4882 40.4915 23.6022 40.4916 23.7198C40.4922 24.0847 40.4933 24.4496 40.4945 24.8145C40.495 25.0616 40.4954 25.3087 40.4958 25.5558C40.4968 26.1622 40.4985 26.7686 40.5004 27.375C40.9026 27.4678 41.3048 27.5606 41.7191 27.6562C41.7191 25.5216 41.7191 23.3869 41.7191 21.1875C41.4195 21.1875 41.2255 21.3201 40.9691 21.4687Z" fill="#FF7705"></path>
  <path d="M4.17025 17.5291C4.81588 17.7908 5.33992 18.0866 5.73031 18.6797C5.803 18.7897 5.803 18.7897 5.87716 18.902C5.99525 19.1166 6.04588 19.2924 6.09945 19.5293C6.15093 19.721 6.15093 19.721 6.28109 19.875C6.5793 19.997 6.87799 20.0726 7.19003 20.1522C7.79938 20.3445 8.18521 20.7406 8.47836 21.2988C8.67751 21.7373 8.73023 22.1169 8.72924 22.5988C8.72923 22.7705 8.72923 22.7705 8.72922 22.9457C8.72873 23.0688 8.72825 23.192 8.72775 23.3188C8.72758 23.4465 8.72744 23.5742 8.72735 23.7019C8.72699 24.0373 8.72607 24.3726 8.72503 24.708C8.72407 25.0505 8.72364 25.393 8.72317 25.7355C8.72217 26.407 8.72057 27.0785 8.7186 27.75C8.77469 27.776 8.83079 27.8019 8.88859 27.8287C9.19684 27.9923 9.43357 28.2328 9.68539 28.4707C9.7398 28.5215 9.7942 28.5723 9.85026 28.6246C10.1801 28.9337 10.5023 29.2491 10.8188 29.5719C10.984 29.7339 11.1564 29.8844 11.3319 30.0352C11.614 30.2781 11.879 30.5318 12.1405 30.7969C12.3981 31.0581 12.6588 31.3081 12.9373 31.5469C13.293 31.8517 13.6193 32.1804 13.9481 32.5137C14.194 32.7561 14.4524 32.9795 14.7146 33.204C15.0049 33.4632 15.2748 33.7416 15.5459 34.0206C15.7477 34.2241 15.7477 34.2241 15.9835 34.3997C17.2311 35.4296 17.7294 36.9833 17.9061 38.5313C17.9494 39.1238 17.9437 39.7173 17.9402 40.311C17.9401 40.4758 17.9402 40.6405 17.9403 40.8053C17.9403 41.1469 17.9393 41.4885 17.9376 41.8301C17.9355 42.2673 17.9354 42.7045 17.9361 43.1417C17.9364 43.4803 17.9358 43.8189 17.9348 44.1575C17.9345 44.3188 17.9344 44.4801 17.9345 44.6414C17.9346 44.8659 17.9334 45.0904 17.9318 45.3149C17.9321 45.3808 17.9323 45.4467 17.9325 45.5147C17.9284 45.9006 17.9134 46.3052 17.6248 46.5938C17.3891 46.6037 17.1559 46.6075 16.9201 46.6074C16.8463 46.6077 16.7725 46.608 16.6965 46.6083C16.4514 46.6092 16.2063 46.6094 15.9611 46.6095C15.7915 46.6098 15.6218 46.6101 15.4521 46.6104C15.096 46.611 14.7398 46.6112 14.3837 46.6111C13.9264 46.6111 13.4692 46.6124 13.0119 46.614C12.6614 46.615 12.3108 46.6152 11.9602 46.6152C11.7916 46.6153 11.623 46.6157 11.4544 46.6164C11.2189 46.6174 10.9835 46.6171 10.748 46.6165C10.6778 46.6171 10.6076 46.6176 10.5353 46.6181C10.0525 46.6152 10.0525 46.6152 9.84359 46.4063C9.82394 46.1317 9.81536 45.8654 9.81466 45.5907C9.8123 45.4234 9.80992 45.2561 9.80752 45.0888C9.80484 44.8251 9.80258 44.5614 9.80082 44.2976C9.79878 44.0431 9.79508 43.7886 9.79123 43.5341C9.79121 43.417 9.79121 43.417 9.79119 43.2975C9.77808 42.517 9.5248 42.0144 8.99985 41.4316C8.90663 41.3249 8.81362 41.2179 8.72079 41.1108C8.64987 41.0292 8.64987 41.0292 8.57751 40.9459C8.35481 40.6843 8.14401 40.4139 7.93344 40.1426C7.56032 39.6631 7.181 39.1893 6.79672 38.7188C6.4187 38.2557 6.04502 37.7899 5.67758 37.3184C5.29303 36.8252 4.89867 36.341 4.49984 35.8594C4.01172 35.2697 3.53212 34.6745 3.06283 34.0697C2.88951 33.8467 2.71241 33.6275 2.53256 33.4098C2.46307 33.3245 2.46307 33.3245 2.39219 33.2376C2.30511 33.1309 2.21719 33.0248 2.12819 32.9197C1.45736 32.0907 1.35085 31.2481 1.35757 30.2063C1.35706 30.0787 1.35639 29.951 1.35558 29.8234C1.35388 29.4796 1.35453 29.1359 1.35572 28.7921C1.35668 28.4311 1.35579 28.0702 1.3552 27.7092C1.35452 27.1037 1.35541 26.4982 1.35721 25.8926C1.35925 25.1934 1.35858 24.4942 1.35652 23.7949C1.35482 23.1931 1.35458 22.5912 1.35556 21.9894C1.35614 21.6305 1.35623 21.2717 1.35498 20.9129C1.3539 20.5758 1.35466 20.2388 1.35682 19.9018C1.35755 19.7196 1.35644 19.5375 1.35527 19.3553C1.36494 18.3581 1.36494 18.3581 1.78109 17.9063C2.46678 17.3022 3.30989 17.2879 4.17025 17.5291ZM2.71859 18.6563C2.54368 18.9543 2.50757 19.1724 2.50728 19.5162C2.50676 19.6142 2.50623 19.7123 2.50568 19.8133C2.50606 19.9203 2.50644 20.0274 2.50683 20.1377C2.5065 20.2508 2.50618 20.364 2.50584 20.4805C2.50515 20.7907 2.50531 21.1008 2.50591 21.4109C2.50638 21.736 2.50594 22.0611 2.50565 22.3862C2.50531 22.9325 2.50576 23.4788 2.50665 24.0251C2.50767 24.6554 2.50734 25.2857 2.50631 25.916C2.50545 26.458 2.50534 27 2.50583 27.542C2.50612 27.8653 2.50616 28.1886 2.50554 28.5119C2.50489 28.873 2.50579 29.234 2.50683 29.5951C2.50645 29.7014 2.50607 29.8077 2.50568 29.9172C2.50954 30.6404 2.54095 31.3115 2.97311 31.9215C3.02301 31.9921 3.0729 32.0626 3.12431 32.1353C3.37231 32.465 3.63064 32.7841 3.89633 33.0996C4.01234 33.239 4.1283 33.3784 4.24423 33.5178C4.33156 33.6226 4.33156 33.6226 4.42065 33.7294C4.68946 34.0529 4.95533 34.3787 5.22055 34.7051C5.27089 34.767 5.32123 34.829 5.3731 34.8928C5.73792 35.3429 6.09667 35.7976 6.45328 36.2542C6.83229 36.7384 7.22035 37.215 7.60918 37.6914C7.97706 38.1429 8.33804 38.5992 8.69539 39.059C8.93599 39.367 9.18175 39.6697 9.43307 39.969C9.52064 40.0736 9.52064 40.0736 9.60997 40.1803C9.72294 40.3148 9.83647 40.4488 9.95069 40.5822C10.6703 41.4396 10.9657 42.127 10.9983 43.2532C11.0018 43.3698 11.0054 43.4864 11.0091 43.6065C11.0151 43.8264 11.0151 43.8264 11.0213 44.0508C11.0416 44.7527 11.0416 44.7527 11.0623 45.4688C12.9186 45.4688 14.7748 45.4688 16.6873 45.4688C16.6928 44.2965 16.6928 44.2965 16.6965 43.1243C16.6976 42.6454 16.6989 42.1664 16.7015 41.6875C16.7035 41.3009 16.7047 40.9143 16.7051 40.5277C16.7055 40.3811 16.7061 40.2344 16.7072 40.0878C16.7192 38.281 16.4677 36.6219 15.1463 35.2734C14.8586 35.003 14.5585 34.7466 14.2594 34.489C14.0448 34.2968 13.8427 34.0957 13.6405 33.8906C13.3828 33.6294 13.1222 33.3794 12.8436 33.1406C12.4879 32.8358 12.1617 32.5071 11.8329 32.1738C11.6441 31.9878 11.451 31.813 11.2498 31.6406C10.8942 31.3358 10.5679 31.0071 10.2391 30.6738C9.99308 30.4313 9.73463 30.2076 9.47189 29.9835C9.25515 29.7892 9.05536 29.5826 8.85336 29.373C8.41874 28.9362 8.07379 28.6291 7.44125 28.5527C6.95925 28.6152 6.74999 28.7633 6.4393 29.1328C6.25111 29.4953 6.22348 29.6905 6.28109 30.0938C6.57595 30.6075 6.97478 31.0153 7.38266 31.4414C7.44622 31.5086 7.50979 31.5758 7.57528 31.645C7.95641 32.0464 8.34405 32.4404 8.73832 32.8289C8.90737 33.0013 9.06571 33.1797 9.2225 33.3633C9.55263 33.7477 9.91065 34.0998 10.271 34.4557C10.5815 34.7702 10.8692 35.1015 11.1561 35.4375C11.187 35.4684 11.218 35.4994 11.2498 35.5313C11.2733 35.8535 11.2733 35.8535 11.2498 36.1875C10.9686 36.375 10.9686 36.375 10.6577 36.3754C10.2127 36.2541 10.0431 36.0587 9.7557 35.7129C9.65793 35.601 9.56003 35.4891 9.462 35.3774C9.41508 35.3231 9.36816 35.2688 9.31982 35.2128C9.14914 35.0191 8.96805 34.8382 8.78305 34.6582C8.55098 34.43 8.33273 34.1964 8.12094 33.9492C7.86395 33.65 7.59295 33.371 7.31234 33.0938C6.97607 32.761 6.65534 32.4227 6.34921 32.0621C6.23287 31.9276 6.11273 31.7964 5.99032 31.6674C5.92386 31.5967 5.85739 31.526 5.78891 31.4531C5.72848 31.3903 5.66806 31.3274 5.6058 31.2627C5.14999 30.6365 5.11561 30.0173 5.12151 29.27C5.12116 29.1714 5.1208 29.0728 5.12044 28.9713C5.11984 28.7583 5.11987 28.5454 5.12046 28.3324C5.12131 27.995 5.12035 27.6577 5.1189 27.3203C5.11515 26.3615 5.11503 25.4026 5.11524 24.4438C5.11524 23.8563 5.11345 23.2689 5.11061 22.6814C5.1096 22.3497 5.11074 22.018 5.11191 21.6862C5.11108 21.4821 5.11013 21.2779 5.10906 21.0738C5.11043 20.9363 5.11043 20.9363 5.11183 20.796C5.10525 20.166 4.99406 19.6435 4.55498 19.1696C3.96781 18.6496 3.46871 18.63 2.71859 18.6563ZM6.28109 21.1875C6.28109 23.3222 6.28109 25.4569 6.28109 27.6563C6.68328 27.5634 7.08547 27.4706 7.49985 27.375C7.5068 26.651 7.5119 25.927 7.51529 25.2029C7.51671 24.9567 7.51863 24.7104 7.52106 24.4642C7.52448 24.11 7.52607 23.7558 7.52731 23.4016C7.52876 23.2917 7.53021 23.1818 7.53171 23.0686C7.53378 22.3227 7.53378 22.3227 7.21859 21.6563C6.88821 21.3346 6.75106 21.2815 6.28109 21.1875Z" fill="#FF7705"></path>
  <path d="M28.5543 6.13037C30.3837 7.45131 31.3831 9.28553 31.8253 11.4668C32.1205 13.4354 31.5948 15.4975 30.4802 17.1335C30.2973 17.3692 30.1067 17.5917 29.9063 17.8125C29.8371 17.8904 29.7678 17.9684 29.6965 18.0487C28.3533 19.4798 26.4289 20.3839 24.46 20.4565C22.2983 20.4949 20.2733 19.9039 18.6776 18.3921C18.5444 18.2626 18.4128 18.1313 18.2813 18C18.1769 17.8972 18.1769 17.8972 18.0704 17.7924C16.6831 16.3374 16.0593 14.29 16.1016 12.3054C16.1856 11.2117 16.4167 10.1882 16.8751 9.18749C16.9143 9.10121 16.9536 9.01492 16.9941 8.92602C17.84 7.23427 19.4274 5.82211 21.2132 5.19616C23.7245 4.37503 26.3599 4.62283 28.5543 6.13037ZM18.753 8.47924C17.7535 9.73629 17.2011 11.4208 17.3438 13.0312C17.6057 14.9995 18.4188 16.6334 19.9688 17.9062C20.6766 18.4179 21.4752 18.7883 22.3126 19.0312C22.385 19.0523 22.4573 19.0733 22.5319 19.095C24.2886 19.5217 26.0528 19.0902 27.5863 18.1972C28.0047 17.9329 28.3466 17.6053 28.6876 17.25C28.7595 17.181 28.8314 17.112 28.9055 17.0409C30.0685 15.8621 30.6173 14.2416 30.6797 12.6094C30.6649 11.535 30.4207 10.5047 29.9063 9.56249C29.8649 9.48382 29.8234 9.40515 29.7807 9.32409C28.8787 7.71248 27.395 6.64731 25.6465 6.10546C23.0063 5.52069 20.5021 6.45299 18.753 8.47924Z" fill="#FF7705"></path>
  <path d="M28.4238 8.73046C28.788 8.97324 29.0519 9.25998 29.25 9.65625C29.2789 9.84997 29.2789 9.84997 29.291 10.084C29.2967 10.1595 29.3024 10.235 29.3082 10.3129C29.1185 11.2281 28.2428 11.9221 27.6031 12.5559C27.4978 12.6612 27.3926 12.7665 27.2873 12.8719C27.068 13.0912 26.8482 13.31 26.628 13.5285C26.3465 13.8079 26.066 14.0884 25.7858 14.3692C25.5691 14.5862 25.3519 14.8028 25.1346 15.0192C25.0309 15.1224 24.9275 15.2258 24.8241 15.3293C24.6797 15.4738 24.5346 15.6176 24.3894 15.7613C24.3072 15.8431 24.225 15.9248 24.1403 16.0091C23.7125 16.3923 23.3613 16.5744 22.7812 16.5937C22.0955 16.4627 21.6814 16.137 21.2054 15.6453C21.1405 15.5802 21.0755 15.5151 21.0086 15.4481C20.8725 15.3111 20.7372 15.1735 20.6024 15.0353C20.3963 14.824 20.188 14.6151 19.9792 14.4064C19.8468 14.2726 19.7145 14.1387 19.5824 14.0046C19.5204 13.9423 19.4584 13.88 19.3945 13.8158C18.9843 13.3928 18.7258 13.0427 18.7148 12.4336C18.7272 11.9682 18.8469 11.717 19.125 11.3437C19.5161 11.0135 19.8314 10.8837 20.3438 10.875C21.1001 11.0047 21.5275 11.4263 22.0371 11.9707C22.1093 12.0454 22.1815 12.1202 22.2559 12.1972C22.4324 12.3802 22.6074 12.5645 22.7812 12.75C23.0947 12.6139 23.2971 12.4431 23.5356 12.1999C23.6092 12.1255 23.6827 12.051 23.7585 11.9743C23.8371 11.8938 23.9157 11.8134 23.9967 11.7305C24.1642 11.561 24.3318 11.3916 24.4993 11.2222C24.7629 10.9545 25.0262 10.6866 25.2893 10.4185C25.5434 10.1599 25.7983 9.90218 26.0533 9.64453C26.1318 9.56406 26.2102 9.48359 26.291 9.40068C26.4018 9.28899 26.4018 9.28899 26.5147 9.17504C26.5792 9.10941 26.6436 9.04377 26.71 8.97615C27.2188 8.55184 27.8163 8.51604 28.4238 8.73046ZM27.6562 9.84375C27.6026 9.89756 27.549 9.95138 27.4938 10.0068C26.9891 10.5134 26.4843 11.0197 25.9791 11.5257C25.7194 11.7859 25.4598 12.0462 25.2004 12.3067C24.9502 12.5579 24.6997 12.8089 24.4491 13.0598C24.3534 13.1557 24.2578 13.2516 24.1622 13.3477C24.0287 13.4819 23.8948 13.6158 23.7609 13.7497C23.6847 13.8261 23.6085 13.9025 23.53 13.9813C23.2833 14.2131 23.1898 14.2463 22.8476 14.2843C22.4068 14.2408 22.2974 14.1177 22.0012 13.7955C21.9575 13.7495 21.9137 13.7035 21.8687 13.6561C21.7298 13.5099 21.5932 13.3617 21.457 13.2129C21.3201 13.0639 21.1827 12.9155 21.0434 12.7686C20.9174 12.6358 20.7934 12.501 20.6696 12.3662C20.4512 12.157 20.4512 12.157 20.1735 12.2067C20.1059 12.2313 20.0384 12.2559 19.9688 12.2812C20.0231 12.5729 20.0999 12.7296 20.3067 12.9413C20.3577 12.9941 20.4087 13.0469 20.4613 13.1014C20.5168 13.1571 20.5722 13.2129 20.6294 13.2704C20.6864 13.3283 20.7434 13.3863 20.8022 13.446C20.9229 13.5681 21.0439 13.6898 21.1653 13.8112C21.3511 13.9975 21.5344 14.186 21.7178 14.3747C21.8353 14.4931 21.953 14.6113 22.0708 14.7294C22.1255 14.7861 22.1802 14.8428 22.2366 14.9013C22.4093 15.0775 22.4093 15.0775 22.6875 15.2812C23.1383 15.2719 23.3491 15.0425 23.6585 14.7353C23.7062 14.6883 23.754 14.6414 23.8032 14.593C23.9604 14.438 24.1161 14.2816 24.2717 14.1251C24.3805 14.0168 24.4894 13.9085 24.5983 13.8003C24.826 13.5736 25.053 13.3461 25.2796 13.1182C25.5704 12.8258 25.8631 12.5353 26.1564 12.2453C26.3814 12.0223 26.6054 11.7982 26.829 11.5738C26.9365 11.4662 27.0444 11.359 27.1527 11.2521C27.3035 11.1029 27.4528 10.9522 27.6018 10.8011C27.6872 10.7156 27.7726 10.6301 27.8606 10.542C28.0529 10.3318 28.0529 10.3318 28.0288 10.1003C27.9429 9.90424 27.9429 9.90424 27.6562 9.84375Z" fill="#FF7705"></path>
</svg>
