<?xml version="1.0" encoding="UTF-8"?>
<svg xmlns="http://www.w3.org/2000/svg" width="48" height="48" viewBox="0 0 48 48" fill="none">
  <path d="M26.2496 15.75C26.9467 16.2318 27.3828 16.795 27.5621 17.625C27.6728 18.6325 27.3995 19.4457 27.0421 20.3654C26.9882 20.5084 26.9344 20.6516 26.8809 20.7948C26.7404 21.1689 26.5975 21.542 26.4541 21.9149C26.3092 22.2929 26.1668 22.6718 26.024 23.0506C25.6083 24.152 25.1886 25.2514 24.7496 26.3438C24.8664 26.3441 24.9831 26.3444 25.1034 26.3448C26.2055 26.3483 27.3076 26.3537 28.4096 26.361C28.9762 26.3647 29.5427 26.3677 30.1092 26.3692C30.6563 26.3706 31.2034 26.3738 31.7505 26.3783C31.9588 26.3797 32.1672 26.3804 32.3756 26.3805C32.6682 26.3807 32.9608 26.3833 33.2534 26.3863C33.3389 26.3859 33.4244 26.3854 33.5125 26.3849C34.3676 26.3987 35.0302 26.707 35.6506 27.2904C36.2164 27.9152 36.4 28.765 36.3636 29.5946C36.2813 30.135 36.0695 30.513 35.7411 30.9459C35.5991 31.1287 35.5991 31.1287 35.6246 31.4063C35.7538 31.5343 35.7538 31.5343 35.9235 31.6524C36.4026 32.0411 36.7298 32.5772 36.8434 33.1875C36.93 34.1562 36.7755 34.9116 36.1461 35.666C35.9025 35.9248 35.6704 36.1318 35.3434 36.2813C35.2815 36.2813 35.2196 36.2813 35.1559 36.2813C35.1875 36.3289 35.2192 36.3765 35.2518 36.4256C35.2936 36.4901 35.3355 36.5546 35.3785 36.6211C35.4199 36.6842 35.4612 36.7473 35.5038 36.8123C35.8867 37.5062 35.8997 38.2258 35.8121 39C35.5524 39.8125 35.1321 40.3918 34.3872 40.8007C33.9572 41.0073 33.5679 41.1159 33.0934 41.1563C33.1194 41.2071 33.1453 41.258 33.1721 41.3104C33.2061 41.3775 33.24 41.4446 33.275 41.5137C33.3087 41.58 33.3425 41.6464 33.3772 41.7147C33.6696 42.3289 33.662 43.0933 33.5013 43.7476C33.1636 44.5731 32.6126 45.1052 31.812 45.4772C31.4746 45.6089 31.1786 45.668 30.8164 45.6694C30.7367 45.67 30.657 45.6705 30.5748 45.6711C30.4448 45.6712 30.4448 45.6712 30.312 45.6714C30.22 45.6718 30.1281 45.6723 30.0333 45.6728C29.7282 45.6741 29.4232 45.6748 29.1182 45.6753C28.9048 45.6758 28.6915 45.6764 28.4781 45.6769C28.0296 45.6779 27.5811 45.6785 27.1326 45.6788C26.5632 45.6793 25.9938 45.6815 25.4244 45.6842C24.9827 45.686 24.541 45.6865 24.0993 45.6866C23.8898 45.6869 23.6803 45.6876 23.4707 45.6889C21.0646 45.7021 18.9396 45.3024 16.6677 44.5283C16.2995 44.4029 15.9306 44.2791 15.5618 44.1555C15.453 44.1191 15.453 44.1191 15.3421 44.0819C14.7169 43.8731 14.0893 43.6739 13.4586 43.4824C13.3728 43.4563 13.287 43.4302 13.1986 43.4032C12.6779 43.247 12.1831 43.12 11.6374 43.0953C11.5544 43.0914 11.4713 43.0875 11.3857 43.0834C11.3002 43.0798 11.2147 43.0761 11.1266 43.0723C11.0393 43.0682 10.952 43.0642 10.862 43.06C10.6475 43.0501 10.4329 43.0405 10.2184 43.0313C10.2238 43.1227 10.2293 43.2142 10.2349 43.3085C10.2391 43.4278 10.2433 43.547 10.2477 43.6699C10.2531 43.7885 10.2586 43.907 10.2642 44.0292C10.2184 44.3438 10.2184 44.3438 10.0196 44.5019C9.70241 44.6466 9.48239 44.6601 9.13437 44.6599C9.01174 44.6605 8.88911 44.6611 8.76276 44.6617C8.62968 44.6609 8.4966 44.66 8.36352 44.6591C8.22637 44.659 8.08921 44.6591 7.95205 44.6592C7.66512 44.6592 7.37821 44.6582 7.09128 44.6565C6.72381 44.6544 6.35637 44.6544 5.98889 44.655C5.70587 44.6553 5.42286 44.6547 5.13983 44.6538C5.00434 44.6534 4.86885 44.6533 4.73335 44.6534C4.54399 44.6535 4.35462 44.6521 4.16526 44.6508C4.00375 44.6501 4.00375 44.6501 3.83897 44.6495C3.56797 44.6255 3.41182 44.5874 3.18713 44.4375C3.04712 44.1575 3.07985 43.8709 3.08022 43.5638C3.07994 43.4922 3.07966 43.4207 3.07937 43.347C3.07856 43.1059 3.07842 42.8649 3.07828 42.6239C3.07784 42.4516 3.07737 42.2793 3.07687 42.107C3.07563 41.6381 3.07503 41.1691 3.07461 40.7002C3.07434 40.4075 3.07396 40.1148 3.07354 39.8221C3.07225 38.9071 3.07135 37.9921 3.07099 37.0772C3.07057 36.0194 3.06892 34.9617 3.0662 33.904C3.06418 33.0874 3.06323 32.2707 3.06311 31.4541C3.06301 30.9659 3.06245 30.4777 3.06078 29.9895C3.05924 29.5305 3.05903 29.0715 3.05985 28.6125C3.05993 28.4437 3.05952 28.275 3.05859 28.1063C3.05741 27.8764 3.05795 27.6467 3.05893 27.4169C3.05817 27.3496 3.05742 27.2823 3.05664 27.213C3.05934 26.9443 3.06381 26.7619 3.21833 26.5367C3.47466 26.374 3.71496 26.4025 4.01461 26.4026C4.07927 26.4023 4.14393 26.4019 4.21055 26.4016C4.42425 26.4008 4.63787 26.4021 4.85156 26.4035C4.99994 26.4035 5.14833 26.4035 5.29671 26.4033C5.60762 26.4033 5.9185 26.4043 6.22941 26.406C6.62843 26.4081 7.02742 26.4082 7.42645 26.4075C7.73279 26.4072 8.03912 26.4078 8.34546 26.4088C8.49262 26.4091 8.63978 26.4092 8.78694 26.4091C8.99232 26.4091 9.19766 26.4102 9.40304 26.4118C9.52002 26.4122 9.637 26.4126 9.75753 26.4131C10.0309 26.4375 10.0309 26.4375 10.2184 26.625C10.2367 26.9099 10.2367 26.9099 10.2301 27.2461C10.2284 27.3575 10.2267 27.469 10.225 27.5838C10.2228 27.6696 10.2206 27.7554 10.2184 27.8438C10.682 27.7426 11.1454 27.6409 11.6088 27.5388C11.7661 27.5042 11.9234 27.4697 12.0807 27.4354C13.7145 27.1143 13.7145 27.1143 15.2164 26.4317C15.2761 26.3949 15.3357 26.3581 15.3971 26.3203C16.0161 25.9313 16.5911 25.4944 17.1559 25.0313C17.2099 24.9874 17.264 24.9435 17.3196 24.8983C18.773 23.7115 19.9918 22.4037 20.777 20.6777C20.873 20.4726 20.9692 20.2675 21.0655 20.0625C21.1403 19.9028 21.1403 19.9028 21.2166 19.7399C21.4649 19.2156 21.7218 18.6957 21.9809 18.1767C22.0636 18.0107 22.1459 17.8444 22.2281 17.6781C23.2046 15.7221 23.2046 15.7221 23.9176 15.4512C24.7606 15.2744 25.4786 15.3499 26.2496 15.75ZM23.9059 16.875C23.7526 17.1346 23.7526 17.1346 23.6159 17.4288C23.5894 17.4833 23.563 17.5378 23.5357 17.594C23.4786 17.7119 23.4218 17.8299 23.3653 17.9481C23.2748 18.1369 23.1832 18.325 23.0913 18.5129C22.8299 19.0473 22.5698 19.5823 22.3127 20.1187C20.9486 22.9599 20.9486 22.9599 19.7809 24.0938C19.6459 24.2377 19.5111 24.3818 19.3766 24.5263C19.2621 24.6426 19.1468 24.7582 19.0309 24.8731C18.968 24.9354 18.9052 24.9978 18.8405 25.0621C18.2835 25.6062 17.7008 26.0857 17.0621 26.5313C16.976 26.5918 16.976 26.5918 16.8881 26.6535C16.7067 26.7801 16.5244 26.9051 16.3414 27.0293C16.2869 27.0665 16.2324 27.1037 16.1762 27.1421C16.0052 27.2555 15.8318 27.3631 15.6559 27.4688C15.5923 27.5077 15.5288 27.5467 15.4633 27.5868C14.7063 28.0094 13.8827 28.151 13.0426 28.3242C12.8197 28.3714 12.5968 28.4189 12.374 28.4666C12.2365 28.4959 12.099 28.5248 11.9614 28.5533C11.375 28.676 10.8013 28.823 10.2184 28.9688C10.2184 33.2381 10.2184 37.5075 10.2184 41.9063C10.8062 41.9372 11.394 41.9681 11.9996 42C12.356 42.0603 12.6802 42.1225 13.025 42.2168C13.1604 42.2521 13.1604 42.2521 13.2985 42.288C14.7001 42.6674 16.0715 43.1587 17.4455 43.6266C17.8385 43.7603 18.2319 43.8926 18.6266 44.0215C18.743 44.0603 18.8593 44.0991 18.9792 44.139C20.4364 44.5445 21.8673 44.5731 23.3708 44.5686C23.5963 44.5688 23.8218 44.5691 24.0473 44.5694C24.5165 44.5698 24.9857 44.5693 25.4549 44.5679C26.0558 44.5663 26.6567 44.5673 27.2577 44.5689C27.7218 44.5699 28.1859 44.5696 28.6501 44.5689C28.8718 44.5687 29.0935 44.5689 29.3152 44.5696C29.624 44.5703 29.9329 44.5692 30.2418 44.5677C30.3783 44.5685 30.3783 44.5685 30.5176 44.5694C31.0909 44.564 31.5067 44.492 31.9523 44.0988C32.3428 43.6321 32.5391 43.2905 32.5192 42.6621C32.4349 42.1499 32.2144 41.7773 31.8453 41.4082C31.3392 41.0904 30.8233 41.0388 30.2359 41.0341C30.1692 41.0333 30.1025 41.0325 30.0338 41.0317C29.8156 41.0293 29.5974 41.0282 29.3793 41.027C29.227 41.0255 29.0747 41.0239 28.9224 41.0222C28.5233 41.0179 28.1242 41.0146 27.725 41.0116C27.0842 41.0068 26.4434 41.0007 25.8026 40.994C25.5786 40.9919 25.3546 40.9903 25.1306 40.9889C24.9944 40.9876 24.8581 40.9863 24.7218 40.985C24.6025 40.9841 24.4831 40.9832 24.3601 40.9823C24.0934 40.9688 24.0934 40.9688 23.9996 40.875C23.9879 40.5469 23.9879 40.5469 23.9996 40.2188C24.1793 40.0391 24.4466 40.1127 24.6857 40.1116C24.8136 40.1116 24.8136 40.1116 24.9441 40.1117C25.0334 40.1114 25.1228 40.1111 25.2148 40.1107C25.4096 40.11 25.6044 40.1095 25.7992 40.1092C26.1078 40.1085 26.4163 40.1071 26.7249 40.1053C27.6025 40.1004 28.4802 40.0959 29.3578 40.0945C29.8941 40.0935 30.4303 40.0908 30.9666 40.0868C31.1708 40.0857 31.3751 40.0852 31.5794 40.0854C31.8659 40.0856 32.1524 40.0835 32.439 40.081C32.5229 40.0816 32.6069 40.0822 32.6934 40.0828C33.3014 40.0738 33.807 39.9426 34.2678 39.5272C34.5912 39.1677 34.7768 38.8149 34.7838 38.328C34.7426 37.7123 34.5417 37.3316 34.0778 36.9141C33.738 36.6762 33.4911 36.5395 33.0722 36.537C32.9939 36.5361 32.9155 36.5352 32.8348 36.5343C32.7497 36.5342 32.6645 36.5342 32.5768 36.5341C32.4865 36.5333 32.3962 36.5325 32.3032 36.5317C32.0048 36.5293 31.7065 36.5282 31.4081 36.527C31.201 36.5255 30.9939 36.5239 30.7868 36.5222C30.2416 36.5179 29.6963 36.5146 29.1511 36.5116C28.2777 36.5068 27.4043 36.5007 26.5309 36.494C26.2252 36.4919 25.9195 36.4903 25.6138 36.4889C25.4274 36.4876 25.2409 36.4863 25.0545 36.485C24.9689 36.4848 24.8834 36.4845 24.7953 36.4843C24.2084 36.4794 24.2084 36.4794 23.9996 36.375C23.9957 36.1563 23.9958 35.9375 23.9996 35.7188C24.1438 35.5746 24.276 35.6124 24.4769 35.6114C24.6009 35.6105 24.6009 35.6105 24.7274 35.6095C24.8188 35.6092 24.9102 35.609 25.0044 35.6087C25.1001 35.6081 25.1958 35.6075 25.2945 35.6068C25.5032 35.6055 25.712 35.6044 25.9208 35.6035C26.2514 35.6019 26.582 35.5998 26.9126 35.5974C27.853 35.5907 28.7933 35.5851 29.7337 35.5803C30.3082 35.5773 30.8828 35.5735 31.4573 35.569C31.6762 35.5675 31.8951 35.5664 32.1141 35.5656C32.4211 35.5644 32.728 35.5622 33.035 35.5597C33.1701 35.5596 33.1701 35.5596 33.308 35.5595C33.9971 35.5521 34.6632 35.5207 35.191 35.0274C35.282 34.9451 35.282 34.9451 35.3749 34.8611C35.7644 34.4277 35.7587 34.0255 35.7477 33.4603C35.6938 32.9589 35.4337 32.722 35.1031 32.3672C34.4851 31.8822 33.5164 31.9419 32.7678 31.9505C32.6758 31.9507 32.5837 31.951 32.4889 31.9513C32.2911 31.952 32.0934 31.9531 31.8956 31.9547C31.5828 31.9571 31.2699 31.9583 30.9571 31.9592C30.2942 31.9613 29.6313 31.9649 28.9684 31.9688C28.1973 31.9732 27.4263 31.977 26.6553 31.9793C26.3468 31.9805 26.0384 31.9828 25.73 31.9852C25.5419 31.9859 25.3538 31.9865 25.1656 31.9871C25.0797 31.988 24.9938 31.989 24.9053 31.99C24.8268 31.99 24.7482 31.99 24.6672 31.99C24.5649 31.9907 24.5649 31.9907 24.4605 31.9913C24.2809 31.9688 24.2809 31.9688 23.9996 31.7813C23.9821 31.4414 23.9821 31.4414 23.9996 31.125C24.2149 31.0174 24.3354 31.0194 24.5748 31.019C24.656 31.0186 24.7372 31.0182 24.8209 31.0178C24.9549 31.0179 24.9549 31.0179 25.0915 31.018C25.1855 31.0176 25.2794 31.0173 25.3761 31.017C25.5807 31.0163 25.7852 31.0158 25.9897 31.0154C26.3136 31.0148 26.6376 31.0133 26.9615 31.0116C27.8827 31.0067 28.804 31.0022 29.7252 31.0007C30.2883 30.9998 30.8514 30.997 31.4145 30.9931C31.629 30.9919 31.8434 30.9914 32.0579 30.9917C32.3586 30.9919 32.6592 30.9898 32.9599 30.9872C33.0481 30.9878 33.1363 30.9884 33.2272 30.9891C33.863 30.9801 34.396 30.85 34.8596 30.3922C34.8936 30.3382 34.9275 30.2842 34.9625 30.2285C34.9982 30.1743 35.0338 30.12 35.0706 30.0641C35.2776 29.6812 35.3035 29.2996 35.2496 28.875C35.049 28.2513 34.6944 27.8661 34.1216 27.5517C33.7012 27.4264 33.2915 27.4422 32.8551 27.4433C32.7557 27.4428 32.6562 27.4424 32.5538 27.4418C32.3382 27.4409 32.1226 27.4403 31.9071 27.4402C31.5663 27.4398 31.2256 27.4383 30.8849 27.4364C29.9162 27.4312 28.9476 27.4283 27.9789 27.426C27.3863 27.4245 26.7938 27.4217 26.2012 27.418C25.975 27.4169 25.7488 27.4164 25.5226 27.4164C25.2072 27.4164 24.8919 27.4147 24.5765 27.4126C24.4824 27.413 24.3882 27.4134 24.2912 27.4139C24.1629 27.4125 24.1629 27.4125 24.032 27.4111C23.9574 27.4109 23.8828 27.4108 23.806 27.4106C23.7461 27.3988 23.6863 27.3871 23.6246 27.375C23.4371 27.0938 23.4371 27.0938 23.4872 26.7418C23.6512 26.0943 23.8994 25.4733 24.1359 24.8496C24.1868 24.7138 24.2378 24.578 24.2887 24.4422C24.4223 24.0857 24.5567 23.7294 24.6912 23.3732C24.9052 22.8061 25.1182 22.2386 25.3313 21.6711C25.4047 21.4758 25.4784 21.2806 25.5521 21.0854C25.6682 20.7777 25.7826 20.4694 25.8965 20.161C25.9733 19.9557 26.0525 19.7515 26.1317 19.5473C26.1847 19.4065 26.2377 19.2658 26.2906 19.125C26.3287 19.0291 26.3287 19.0291 26.3677 18.9313C26.5432 18.4554 26.5402 18.123 26.4371 17.625C26.1643 17.1097 25.7811 16.6876 25.2184 16.5C24.9954 16.4746 24.9954 16.4746 24.7555 16.4707C24.6754 16.4672 24.5952 16.4637 24.5127 16.4601C24.1996 16.514 24.1133 16.6367 23.9059 16.875ZM4.21838 27.4688C4.21838 32.7591 4.21838 38.0494 4.21838 43.5C5.85807 43.5 7.49776 43.5 9.18713 43.5C9.18713 38.2097 9.18713 32.9194 9.18713 27.4688C7.54744 27.4688 5.90776 27.4688 4.21838 27.4688Z" fill="#FF7705"></path>
  <path d="M10.488 7.95117C11.1255 8.19345 11.4114 9.10677 11.7008 9.69141C11.739 9.76694 11.7771 9.84247 11.8164 9.92029C11.8703 10.0285 11.8703 10.0285 11.9253 10.1389C11.9739 10.2363 11.9739 10.2363 12.0234 10.3357C12.0934 10.5 12.0934 10.5 12.0934 10.6875C12.1977 10.6928 12.1977 10.6928 12.304 10.6981C12.9306 10.7372 13.5478 10.8051 14.1676 10.9043C14.2365 10.9142 14.3053 10.9241 14.3762 10.9343C14.6707 10.9843 14.8711 11.0321 15.0986 11.2306C15.2158 11.5043 15.1839 11.624 15.0934 11.9062C14.9077 12.1078 14.9077 12.1078 14.6675 12.3094C13.6541 13.0972 13.6541 13.0972 13.1294 14.1918C13.1597 14.5738 13.2814 14.9204 13.4059 15.2812C13.462 15.521 13.5015 15.7583 13.5407 16.002C13.5618 16.1048 13.583 16.2076 13.6048 16.3136C13.5934 16.5938 13.5934 16.5938 13.3623 16.8651C13.2447 16.9628 13.2447 16.9628 13.1247 17.0625C12.4003 16.8533 11.7818 16.5251 11.1329 16.1468C11.0578 16.1052 10.9828 16.0635 10.9054 16.0206C10.8386 15.9822 10.7718 15.9437 10.703 15.9041C10.2924 15.7823 9.90969 16.0895 9.55375 16.2817C9.42024 16.3519 9.42024 16.3519 9.28404 16.4235C9.09805 16.5215 8.91274 16.6209 8.72813 16.7216C8.0464 17.0756 8.0464 17.0756 7.62822 17.0054C7.40593 16.875 7.40593 16.875 7.31218 16.7812C7.31333 16.6131 7.32294 16.445 7.33561 16.2773C7.34649 16.112 7.34649 16.112 7.35759 15.9434C7.38521 15.6621 7.44564 15.4059 7.52458 15.1348C7.7584 14.3416 7.7584 14.3416 7.56962 13.5703C7.12857 13.0148 6.57083 12.5906 6.00517 12.1699C5.81218 12 5.81218 12 5.72428 11.666C5.71843 11.3438 5.71843 11.3438 5.90593 11.0625C6.13343 10.9961 6.13343 10.9961 6.41716 10.953C6.51976 10.937 6.62236 10.921 6.72807 10.9045C6.88958 10.8812 6.88958 10.8812 7.05436 10.8574C7.16059 10.8408 7.26682 10.8242 7.37626 10.8071C7.86057 10.7335 8.3214 10.6785 8.81218 10.6875C8.84426 10.5778 8.84426 10.5778 8.87699 10.4659C9.0389 10.016 9.2483 9.59691 9.46257 9.16992C9.50408 9.08539 9.54559 9.00085 9.58836 8.91376C9.6289 8.83261 9.66945 8.75146 9.71122 8.66785C9.74783 8.59435 9.78444 8.52085 9.82216 8.44512C10.0093 8.1277 10.1104 7.9758 10.488 7.95117ZM10.4059 9.84375C10.3815 9.89389 10.357 9.94402 10.3318 9.99568C10.2185 10.2238 10.1014 10.4497 9.98405 10.6758C9.94562 10.7547 9.90719 10.8336 9.8676 10.9149C9.57037 11.4779 9.57037 11.4779 9.29356 11.6228C9.10048 11.6731 8.91692 11.6999 8.71843 11.7188C8.54005 11.7481 8.54005 11.7481 8.35807 11.7781C8.24496 11.7933 8.13184 11.8085 8.0153 11.8242C7.84273 11.8478 7.84273 11.8478 7.66667 11.8718C7.58062 11.8832 7.49458 11.8945 7.40593 11.9062C7.63755 12.2083 7.8691 12.4659 8.16178 12.709C8.66456 13.1268 8.66456 13.1268 8.81218 13.4062C8.80203 13.6645 8.77931 13.8921 8.736 14.1445C8.66633 14.589 8.61123 15.0174 8.62468 15.4688C8.72534 15.4146 8.82601 15.3605 8.92973 15.3047C9.06434 15.2343 9.19898 15.164 9.33366 15.0938C9.43273 15.0401 9.43273 15.0401 9.53379 14.9854C9.96585 14.7624 10.2848 14.6479 10.7809 14.7188C11.0572 14.8222 11.3128 14.9534 11.5719 15.0938C11.6748 15.1474 11.6748 15.1474 11.7798 15.2021C11.9474 15.2898 12.1143 15.3791 12.2809 15.4688C12.2674 15.3759 12.2539 15.2831 12.2399 15.1875C12.2223 15.0625 12.2047 14.9375 12.1872 14.8125C12.1698 14.6907 12.1524 14.5689 12.1344 14.4434C12.1205 14.3164 12.1068 14.1895 12.0934 14.0625C12.0791 13.9686 12.0791 13.9686 12.0645 13.8728C12.0372 13.5864 12.053 13.3717 12.2168 13.132C12.3866 12.9489 12.5634 12.7815 12.7497 12.6152C12.8729 12.5003 12.9959 12.3852 13.1188 12.2699C13.1738 12.2202 13.2288 12.1705 13.2854 12.1192C13.3252 12.0799 13.365 12.0405 13.4059 12C13.4059 11.9691 13.4059 11.9381 13.4059 11.9062C13.3534 11.8982 13.301 11.8902 13.2469 11.8819C13.0088 11.8454 12.7709 11.8084 12.5329 11.7715C12.4503 11.7589 12.3677 11.7462 12.2826 11.7332C12.2031 11.7208 12.1237 11.7084 12.0418 11.6957C11.9686 11.6844 11.8955 11.6731 11.8201 11.6615C11.6247 11.625 11.6247 11.625 11.3434 11.5312C11.234 11.3657 11.234 11.3657 11.1314 11.153C11.0942 11.0771 11.0571 11.0013 11.0188 10.9232C10.9809 10.8435 10.943 10.7638 10.904 10.6816C10.865 10.6016 10.826 10.5215 10.7859 10.439C10.6896 10.241 10.5943 10.0426 10.4997 9.84375C10.4687 9.84375 10.4378 9.84375 10.4059 9.84375Z" fill="#FF7705"></path>
  <path d="M30.6506 2.48438C30.9377 2.53125 30.9377 2.53125 31.1132 2.703C31.2887 2.96424 31.4133 3.20478 31.542 3.49036C31.5831 3.58105 31.6242 3.67175 31.6665 3.7652C31.751 3.9544 31.8333 4.14461 31.9133 4.33575C32.1342 4.8395 32.1342 4.8395 32.5547 5.16252C32.7988 5.21284 33.0328 5.23506 33.2815 5.25C33.4388 5.27307 33.5959 5.29747 33.7528 5.32324C33.9853 5.35759 34.2179 5.39129 34.4506 5.42395C34.5259 5.43519 34.6011 5.44643 34.6786 5.45801C34.7458 5.46762 34.813 5.47722 34.8822 5.48712C35.0627 5.53125 35.0627 5.53125 35.344 5.71875C35.4223 6.00852 35.4406 6.09994 35.344 6.375C34.9842 6.80066 34.5502 7.15549 34.1273 7.51666C33.638 7.94867 33.638 7.94867 33.4282 8.5426C33.4507 8.83059 33.4957 9.09429 33.5627 9.375C33.5963 9.55071 33.6296 9.72648 33.6624 9.90234C33.6783 9.98561 33.6943 10.0689 33.7107 10.1547C33.7719 10.5443 33.8213 10.9534 33.7502 11.3438C33.4529 11.542 33.3527 11.5589 33.0109 11.498C32.4939 11.3401 32.0274 11.0279 31.5612 10.76C31.0874 10.493 31.0874 10.493 30.5627 10.3887C30.0297 10.5997 29.5385 10.8914 29.0428 11.1775C28.3246 11.5735 28.3246 11.5735 27.9286 11.5276C27.8388 11.4979 27.749 11.4681 27.6565 11.4375C27.4019 10.9284 27.5958 10.2325 27.7034 9.69727C27.7303 9.56249 27.7567 9.4276 27.7825 9.2926C27.8001 9.20476 27.8001 9.20476 27.8182 9.11515C27.9027 8.53127 27.9027 8.53127 27.6719 8.01231C27.5933 7.94077 27.5148 7.86924 27.4338 7.79553C27.3492 7.71559 27.2646 7.63565 27.1775 7.55328C27.0881 7.47189 26.9986 7.3905 26.9065 7.30664C26.7295 7.1448 26.5536 6.98163 26.3792 6.81702C26.3006 6.74559 26.222 6.67416 26.1411 6.60056C25.969 6.375 25.969 6.375 25.9258 6.0837C25.969 5.8125 25.969 5.8125 26.0739 5.64356C26.3189 5.48753 26.5342 5.46155 26.8215 5.42175C26.9336 5.40574 27.0456 5.38973 27.161 5.37323C27.2781 5.3577 27.3952 5.34217 27.5159 5.32617C27.633 5.30956 27.7501 5.29294 27.8707 5.27582C28.7266 5.15625 28.7266 5.15625 29.0627 5.15625C29.0851 5.08217 29.1075 5.00809 29.1305 4.93176C29.2826 4.50256 29.4715 4.09677 29.6663 3.68555C29.7218 3.56545 29.7218 3.56545 29.7785 3.44293C29.8148 3.36601 29.8511 3.28909 29.8885 3.20984C29.9376 3.10548 29.9376 3.10548 29.9876 2.99902C30.1684 2.68203 30.2852 2.54657 30.6506 2.48438ZM30.5627 4.40625C30.4373 4.65212 30.3124 4.89824 30.1877 5.14453C30.152 5.2145 30.1162 5.28448 30.0793 5.35657C30.0455 5.42364 30.0117 5.49071 29.9768 5.55981C29.9454 5.62167 29.914 5.68353 29.8816 5.74727C29.8003 5.90605 29.8003 5.90605 29.8127 6.09375C29.729 6.10506 29.729 6.10506 29.6436 6.11659C29.3913 6.15113 29.1391 6.18688 28.887 6.22266C28.7991 6.2345 28.7112 6.24634 28.6207 6.25854C28.5367 6.27063 28.4527 6.28271 28.3662 6.29517C28.2886 6.30597 28.2111 6.31677 28.1311 6.3279C27.9183 6.362 27.9183 6.362 27.7502 6.5625C27.8371 6.64613 27.924 6.72976 28.0135 6.81592C28.127 6.92672 28.2404 7.03756 28.3538 7.14844C28.4111 7.20342 28.4684 7.25841 28.5275 7.31506C28.5822 7.36884 28.6369 7.42262 28.6932 7.47803C28.7691 7.55167 28.7691 7.55167 28.8465 7.6268C29.0394 7.87003 29.0692 8.06447 29.0476 8.37094C29.0353 8.44753 29.023 8.52412 29.0104 8.60303C28.9974 8.68641 28.9844 8.7698 28.971 8.85571C28.9568 8.942 28.9426 9.02829 28.928 9.11719C28.9141 9.20492 28.9003 9.29266 28.886 9.38306C28.8519 9.59924 28.817 9.81528 28.7815 10.0312C28.8832 9.9782 28.985 9.92514 29.0898 9.87048C29.2253 9.80099 29.3608 9.73153 29.4963 9.66211C29.5966 9.60963 29.5966 9.60963 29.6989 9.55609C30.4228 9.1875 30.4228 9.1875 30.844 9.1875C31.117 9.28415 31.3645 9.41651 31.6174 9.55664C32.0525 9.82501 32.0525 9.82501 32.5315 9.9375C32.518 9.8604 32.5044 9.7833 32.4905 9.70386C32.4542 9.48558 32.421 9.26677 32.3905 9.04761C32.3502 8.73102 32.3502 8.73102 32.2887 8.47192C32.248 8.19502 32.2495 8.04782 32.344 7.78125C32.6928 7.3218 33.1306 6.94122 33.5627 6.5625C33.3187 6.31847 33.1144 6.33382 32.7824 6.29679C31.8041 6.1825 31.8041 6.1825 31.4885 5.94177C31.3689 5.74614 31.2942 5.56031 31.219 5.34375C31.1326 5.17114 31.0447 4.99926 30.9553 4.82812C30.8866 4.68769 30.8181 4.54713 30.7502 4.40625C30.6884 4.40625 30.6265 4.40625 30.5627 4.40625Z" fill="#FF7705"></path>
  <path d="M19.9573 2.49023C20.2502 2.53125 20.2502 2.53125 20.4282 2.703C20.6026 2.96588 20.7152 3.19744 20.8347 3.48706C21.1863 4.43897 21.1863 4.43897 21.8313 5.18271C22.2016 5.326 22.5756 5.34255 22.9694 5.34132C23.2648 5.34516 23.551 5.39566 23.842 5.44336C23.9384 5.45605 24.0347 5.46874 24.1339 5.48181C24.3752 5.53125 24.3752 5.53125 24.6565 5.71875C24.7385 5.88867 24.7385 5.88867 24.7502 6.09375C24.5705 6.44349 24.3624 6.68209 24.0691 6.94116C23.9934 7.01113 23.9178 7.08111 23.8398 7.1532C23.6814 7.2982 23.5213 7.44129 23.3594 7.5824C22.9268 7.97742 22.9268 7.97742 22.7478 8.51484C22.7703 8.77873 22.8137 9.02386 22.8752 9.28125C22.8918 9.38482 22.9084 9.48839 22.9254 9.59509C22.9499 9.72108 22.9499 9.72108 22.9749 9.84961C23.1505 10.8701 23.1505 10.8701 23.0627 11.3438C22.7654 11.542 22.6652 11.5589 22.3234 11.498C21.8064 11.3401 21.3399 11.0279 20.8737 10.76C20.3999 10.493 20.3999 10.493 19.8752 10.3887C19.3422 10.5997 18.851 10.8914 18.3553 11.1775C17.6371 11.5735 17.6371 11.5735 17.2411 11.5276C17.1513 11.4979 17.0615 11.4681 16.969 11.4375C16.6719 10.8433 16.9969 9.80501 17.1188 9.17358C17.2188 8.56045 17.2188 8.56045 16.9844 8.01231C16.9058 7.94077 16.8273 7.86924 16.7463 7.79553C16.6617 7.71559 16.5771 7.63565 16.49 7.55328C16.4006 7.47189 16.3111 7.3905 16.219 7.30664C16.042 7.1448 15.8661 6.98163 15.6917 6.81702C15.6131 6.74559 15.5345 6.67416 15.4536 6.60056C15.2815 6.375 15.2815 6.375 15.2383 6.0837C15.2815 5.8125 15.2815 5.8125 15.3864 5.64356C15.6314 5.48753 15.8467 5.46155 16.134 5.42175C16.2461 5.40574 16.3581 5.38973 16.4735 5.37323C16.5906 5.3577 16.7077 5.34217 16.8284 5.32617C16.9455 5.30956 17.0626 5.29294 17.1832 5.27582C18.0391 5.15625 18.0391 5.15625 18.3752 5.15625C18.4071 5.04676 18.4071 5.04676 18.4397 4.93506C18.6028 4.48259 18.8151 4.06184 19.0315 3.63281C19.0738 3.54749 19.1161 3.46217 19.1597 3.37427C19.2005 3.29281 19.2414 3.21136 19.2834 3.12744C19.3205 3.05345 19.3576 2.97946 19.3959 2.90323C19.555 2.62202 19.6323 2.53969 19.9573 2.49023ZM19.8752 4.40625C19.7498 4.65212 19.6249 4.89824 19.5002 5.14453C19.4645 5.2145 19.4287 5.28448 19.3918 5.35657C19.358 5.42364 19.3242 5.49071 19.2893 5.55981C19.2579 5.62167 19.2265 5.68353 19.1941 5.74727C19.1128 5.90605 19.1128 5.90605 19.1252 6.09375C19.0415 6.10506 19.0415 6.10506 18.9561 6.11659C18.7038 6.15113 18.4516 6.18688 18.1995 6.22266C18.1116 6.2345 18.0237 6.24634 17.9332 6.25854C17.8492 6.27063 17.7652 6.28271 17.6787 6.29517C17.6011 6.30597 17.5236 6.31677 17.4436 6.3279C17.2308 6.362 17.2308 6.362 17.0627 6.5625C17.1496 6.64504 17.2365 6.72758 17.326 6.81262C17.4395 6.92256 17.5529 7.03254 17.6663 7.14258C17.7523 7.22388 17.7523 7.22388 17.84 7.30682C18.3698 7.8249 18.3698 7.8249 18.3752 8.25C18.3434 8.52209 18.3434 8.52209 18.2874 8.80664C18.2124 9.19135 18.1778 9.54526 18.1877 9.9375C18.2963 9.88227 18.4048 9.82704 18.5166 9.77014C18.6609 9.6989 18.8051 9.62773 18.9495 9.55664C19.0208 9.52008 19.0921 9.48353 19.1655 9.44586C19.596 9.23618 19.8694 9.12262 20.344 9.28125C20.5766 9.38713 20.799 9.49506 21.0237 9.61523C21.4136 9.84656 21.4136 9.84656 21.844 9.9375C21.8305 9.85254 21.8169 9.76759 21.803 9.68005C21.7669 9.44348 21.7335 9.2065 21.7023 8.96924C21.6763 8.77409 21.6471 8.57913 21.6078 8.38623C21.5749 8.14559 21.5749 8.01197 21.6565 7.78125C21.9688 7.39783 22.3177 7.07669 22.6877 6.75C22.7821 6.65681 22.8759 6.56319 22.969 6.46875C22.8832 6.4576 22.8832 6.4576 22.7957 6.44623C22.5345 6.41029 22.2743 6.36927 22.0139 6.32812C21.9239 6.31652 21.834 6.30492 21.7413 6.29297C21.0881 6.18448 21.0881 6.18448 20.8416 5.92987C20.7208 5.73911 20.6235 5.54978 20.5315 5.34375C20.4826 5.2519 20.4336 5.16006 20.3832 5.06543C20.3451 4.98712 20.307 4.90881 20.2678 4.82812C20.2285 4.74788 20.1893 4.66764 20.1488 4.58496C20.1204 4.52599 20.092 4.46701 20.0627 4.40625C20.0009 4.40625 19.939 4.40625 19.8752 4.40625Z" fill="#FF7705"></path>
  <path d="M40.3 7.95081C40.7604 8.12589 40.8706 8.48275 41.0742 8.91211C41.1328 9.02948 41.1328 9.02948 41.1925 9.14923C41.2503 9.26552 41.2503 9.26552 41.3093 9.38416C41.3482 9.46114 41.387 9.53812 41.427 9.61743C41.5312 9.84375 41.5312 9.84375 41.5934 10.0598C41.6697 10.294 41.7283 10.4213 41.9062 10.5938C42.3696 10.7523 42.8404 10.8072 43.3242 10.8633C43.5205 10.8889 43.7166 10.9154 43.9127 10.9427C44.09 10.9669 44.2676 10.9885 44.4452 11.0101C44.7188 11.0625 44.7188 11.0625 44.9062 11.25C44.9502 11.5547 44.9502 11.5547 44.9062 11.9062C44.7378 12.1263 44.5928 12.2867 44.3906 12.4688C44.3398 12.5178 44.2889 12.5669 44.2366 12.6175C43.9499 12.891 43.653 13.1235 43.3301 13.3535C43.0884 13.5592 43.0364 13.6419 43.0001 13.9618C43.0202 14.2838 43.0647 14.5894 43.125 14.9062C43.1418 14.9981 43.1586 15.0899 43.1759 15.1846C43.2077 15.355 43.2398 15.5254 43.2722 15.6958C43.3331 16.0609 43.3851 16.4149 43.3125 16.7812C43.1367 16.998 43.1367 16.998 42.8438 17.0625C42.362 16.9617 41.9358 16.7059 41.5107 16.467C41.4408 16.4283 41.3709 16.3895 41.2988 16.3496C41.1585 16.2711 41.0192 16.1907 40.8811 16.1084C40.4846 15.8825 40.4846 15.8825 40.0389 15.8837C39.9436 15.9324 39.8482 15.9811 39.75 16.0312C39.6831 16.0654 39.6161 16.0995 39.5472 16.1346C39.2339 16.2969 38.9249 16.4667 38.6157 16.6364C38.5393 16.6776 38.463 16.7187 38.3844 16.7611C38.3158 16.7987 38.2472 16.8363 38.1766 16.875C37.9492 16.9776 37.7471 17.0305 37.5 17.0625C37.2832 16.9805 37.2832 16.9805 37.125 16.7812C37.0488 16.1502 37.1831 15.5437 37.3061 14.9254C37.4268 14.3101 37.4268 14.3101 37.4062 13.6875C37.2463 13.4635 37.0497 13.299 36.8379 13.125C36.726 13.027 36.6142 12.929 36.5024 12.8309C36.3976 12.7413 36.2926 12.6518 36.1875 12.5625C35.5468 12.0117 35.5468 12.0117 35.4785 11.5488C35.5312 11.25 35.5312 11.25 35.7188 11.0625C35.915 11.0432 36.1123 11.033 36.3094 11.0273C37.6565 10.9777 37.6565 10.9777 38.7787 10.3362C39.1702 9.73158 39.4301 9.07755 39.6508 8.39385C39.7914 8.05697 39.9396 7.97487 40.3 7.95081ZM40.125 9.84375C40.1039 9.89389 40.0827 9.94402 40.0609 9.99568C39.9625 10.2239 39.8593 10.4497 39.7559 10.6758C39.7227 10.7547 39.6895 10.8336 39.6553 10.9149C39.3911 11.4796 39.3911 11.4796 39.0866 11.6228C38.8691 11.6723 38.6596 11.6996 38.4375 11.7188C38.3223 11.7383 38.2072 11.7579 38.0885 11.7781C37.9852 11.7933 37.8818 11.8085 37.7754 11.8242C37.6171 11.8478 37.6171 11.8478 37.4557 11.8718C37.3775 11.8832 37.2993 11.8945 37.2188 11.9062C37.5812 12.3449 37.5812 12.3449 37.9856 12.7434C38.4983 13.1978 38.4983 13.1978 38.5854 13.5015C38.5905 13.7276 38.5662 13.9325 38.5312 14.1562C38.5165 14.2702 38.5018 14.3842 38.4866 14.5016C38.443 14.8247 38.3951 15.1467 38.3438 15.4688C38.4523 15.4146 38.5608 15.3605 38.6726 15.3047C38.8169 15.2343 38.9612 15.164 39.1055 15.0938C39.1768 15.058 39.2481 15.0222 39.3215 14.9854C39.7273 14.7894 40.0417 14.6424 40.5 14.7188C40.787 14.8257 41.0585 14.9565 41.332 15.0938C41.4055 15.1295 41.479 15.1653 41.5547 15.2021C41.7349 15.29 41.9144 15.3793 42.0938 15.4688C42.0802 15.3916 42.0667 15.3145 42.0527 15.2351C42.0164 15.0167 41.9834 14.7978 41.9531 14.5785C41.9133 14.2624 41.9133 14.2624 41.8477 14.0065C41.8024 13.724 41.8054 13.5842 41.9062 13.3125C42.2533 12.8671 42.676 12.4889 43.0983 12.1162C43.138 12.0779 43.1778 12.0395 43.2188 12C43.2188 11.9691 43.2188 11.9381 43.2188 11.9062C43.1639 11.8997 43.1091 11.8931 43.0526 11.8864C42.803 11.8556 42.5539 11.8224 42.3047 11.7891C42.2184 11.7788 42.1321 11.7685 42.0432 11.7579C41.4119 11.671 41.4119 11.671 41.1182 11.4727C40.9151 11.1701 40.7638 10.8564 40.6172 10.5234C40.5876 10.4581 40.558 10.3927 40.5275 10.3253C40.4551 10.1651 40.3837 10.0045 40.3125 9.84375C40.2506 9.84375 40.1887 9.84375 40.125 9.84375Z" fill="#FF7705"></path>
</svg>
