<?xml version="1.0" encoding="UTF-8"?>
<svg xmlns="http://www.w3.org/2000/svg" width="48" height="48" viewBox="0 0 48 48" fill="none">
  <path d="M25.6401 14.3216C25.7432 14.3575 25.8464 14.3934 25.9527 14.4303C26.2881 14.5472 26.6231 14.6653 26.9581 14.7834C27.1902 14.8646 27.4224 14.9457 27.6547 15.0267C28.2345 15.2291 28.8141 15.4326 29.3935 15.6363C29.8741 15.8051 30.355 15.9729 30.8359 16.1406C31.3093 16.3058 31.7827 16.4711 32.2559 16.6369C32.3257 16.6613 32.3954 16.6858 32.4673 16.711C32.6024 16.7584 32.7374 16.8061 32.8724 16.854C33.2173 16.9762 33.563 17.0944 33.9111 17.2071C33.9837 17.2313 34.0563 17.2554 34.1311 17.2802C34.2691 17.3259 34.4074 17.3705 34.5461 17.4136C34.985 17.5609 35.2055 17.6922 35.4366 18.094C35.4929 18.4704 35.4878 18.8441 35.4851 19.2241C35.4858 19.3386 35.4864 19.4532 35.4871 19.5712C35.4885 19.8846 35.4882 20.1979 35.487 20.5114C35.486 20.8397 35.4869 21.168 35.4875 21.4964C35.4882 22.0477 35.4873 22.5991 35.4855 23.1504C35.4834 23.7874 35.4841 24.4243 35.4862 25.0613C35.4879 25.6087 35.4881 26.1561 35.4871 26.7035C35.4865 27.0302 35.4865 27.3569 35.4877 27.6836C35.489 28.0479 35.4872 28.4121 35.4851 28.7763C35.4859 28.8844 35.4866 28.9924 35.4874 29.1037C35.4797 29.8272 35.4797 29.8272 35.2781 30.1979C35.0381 30.3944 34.8418 30.4926 34.5483 30.5925C34.4444 30.6286 34.3406 30.6648 34.2336 30.7021C34.1206 30.7397 34.0076 30.7774 33.8912 30.8161C33.7714 30.8573 33.6517 30.8985 33.532 30.9399C33.2768 31.0279 33.0212 31.115 32.7654 31.2013C32.3649 31.3364 31.965 31.4735 31.5653 31.6111C31.1591 31.7507 30.7528 31.8903 30.3464 32.0292C29.0787 32.4624 27.8158 32.9084 26.5538 33.3576C26.2734 33.4573 25.993 33.5568 25.7126 33.6563C25.5492 33.7144 25.3858 33.7724 25.2225 33.8305C24.2188 34.1873 23.6325 34.1684 22.6427 33.8121C22.5476 33.779 22.4526 33.7458 22.3548 33.7116C22.0431 33.6026 21.732 33.4918 21.421 33.3811C21.2039 33.3047 20.9868 33.2285 20.7696 33.1523C20.2074 32.9548 19.6456 32.7559 19.084 32.5565C18.651 32.4029 18.2177 32.2501 17.7844 32.0973C15.7538 31.3812 15.7538 31.3812 14.9399 31.0893C14.5763 30.959 14.2126 30.8308 13.8451 30.7116C13.7278 30.6728 13.6104 30.6339 13.4896 30.5939C13.3904 30.5623 13.2912 30.5307 13.1891 30.4982C12.8745 30.345 12.7532 30.199 12.5616 29.9065C12.5129 29.6057 12.5129 29.6057 12.5104 29.2605C12.5094 29.197 12.5085 29.1336 12.5075 29.0682C12.5047 28.8576 12.5046 28.6471 12.5045 28.4365C12.503 28.2872 12.5015 28.1379 12.4997 27.9886C12.4955 27.5892 12.4937 27.1899 12.4923 26.7905C12.4906 26.3789 12.487 25.9672 12.4837 25.5555C12.4786 24.9021 12.475 24.2487 12.4722 23.5953C12.4694 22.9218 12.4641 22.2485 12.4567 21.5751C12.4523 21.1636 12.4492 20.7521 12.4465 20.3405C12.4451 20.1564 12.4433 19.9722 12.4412 19.7881C12.4384 19.5378 12.4375 19.2876 12.4371 19.0373C12.4359 18.9663 12.4348 18.8952 12.4336 18.822C12.4354 18.4038 12.4694 18.1301 12.7491 17.8127C13.3388 17.4614 13.9819 17.2564 14.63 17.0371C14.7395 16.9995 14.8491 16.962 14.962 16.9233C15.1965 16.8429 15.4311 16.7628 15.6658 16.6829C16.0331 16.558 16.4001 16.4323 16.767 16.3065C16.8904 16.2642 17.0138 16.2219 17.1373 16.1796C17.1983 16.1586 17.2594 16.1377 17.3223 16.1161C17.5073 16.0527 17.6924 15.9893 17.8775 15.926C18.9488 15.5593 20.0184 15.1874 21.087 14.8127C21.1627 14.7862 21.2384 14.7597 21.3164 14.7324C21.4616 14.6816 21.6067 14.6308 21.7517 14.5799C21.8855 14.533 22.0194 14.4863 22.1533 14.4398C22.4332 14.3422 22.7098 14.2408 22.9844 14.129C23.0719 14.0936 23.1593 14.0582 23.2495 14.0217C23.3567 13.9755 23.3567 13.9755 23.4661 13.9283C24.2144 13.7705 24.9432 14.0739 25.6401 14.3216ZM23.2304 15.9707C23.1618 15.9942 23.0933 16.0177 23.0226 16.042C22.7952 16.1201 22.568 16.1988 22.3409 16.2776C22.1829 16.332 22.025 16.3864 21.867 16.4408C20.1066 17.0476 18.3495 17.6639 16.5928 18.2815C16.5928 18.4052 16.5928 18.529 16.5928 18.6565C16.9575 18.7853 17.3229 18.9115 17.6885 19.0373C17.7919 19.0739 17.8953 19.1104 18.0018 19.1481C18.1518 19.1993 18.1518 19.1993 18.3049 19.2516C18.3967 19.2835 18.4885 19.3154 18.5831 19.3483C19.0392 19.4505 19.4365 19.2781 19.8689 19.1288C19.9792 19.0909 20.0894 19.053 20.203 19.014C20.3227 18.9724 20.4425 18.9309 20.5622 18.8894C20.6866 18.8465 20.811 18.8036 20.9354 18.7607C21.1964 18.6708 21.4573 18.5806 21.7182 18.4903C22.0487 18.3758 22.3793 18.2617 22.7099 18.1477C23.0292 18.0376 23.3485 17.9274 23.6677 17.8171C23.7845 17.7768 23.9014 17.7364 24.0218 17.6948C24.2462 17.6172 24.4705 17.5391 24.6946 17.4606C24.9306 17.3786 25.1666 17.2986 25.4037 17.2202C25.5245 17.1793 25.6452 17.1385 25.7659 17.0976C25.9286 17.0436 25.9286 17.0436 26.0945 16.9886C26.2174 16.9325 26.2174 16.9325 26.3428 16.8752C26.3738 16.7824 26.4047 16.6896 26.4366 16.594C26.0677 16.4526 25.6985 16.3123 25.3292 16.1721C25.2242 16.1319 25.1193 16.0916 25.0111 16.0502C24.9105 16.0121 24.8099 15.974 24.7062 15.9348C24.5671 15.8818 24.5671 15.8818 24.4251 15.8277C23.9813 15.6835 23.6519 15.8239 23.2304 15.9707ZM28.8905 17.7753C28.7983 17.8083 28.7061 17.8412 28.6111 17.8752C28.511 17.9115 28.4108 17.9478 28.3076 17.9852C28.1507 18.0415 28.1507 18.0415 27.9907 18.099C27.7679 18.1791 27.5451 18.2594 27.3223 18.3399C26.9898 18.4601 26.6571 18.5797 26.3244 18.6991C25.7817 18.8942 25.2398 19.091 24.6981 19.2887C24.3699 19.408 24.0412 19.5259 23.7125 19.6438C23.5056 19.7191 23.2988 19.7944 23.092 19.8697C22.9955 19.904 22.8991 19.9382 22.7997 19.9735C22.7119 20.0058 22.6242 20.0381 22.5338 20.0714C22.4566 20.0992 22.3794 20.1271 22.2999 20.1558C22.0911 20.242 22.0911 20.242 22.0303 20.5315C22.3196 20.6516 22.6111 20.7649 22.9034 20.8772C22.9842 20.9108 23.065 20.9445 23.1482 20.9792C23.6027 21.1498 23.9183 21.2182 24.3892 21.0764C24.4792 21.0495 24.5692 21.0227 24.6619 20.995C25.096 20.8551 25.5266 20.7077 25.9558 20.5534C26.0967 20.5033 26.0967 20.5033 26.2405 20.4522C26.5384 20.3461 26.8362 20.2396 27.1339 20.133C27.4275 20.0283 27.7213 19.9237 28.015 19.819C28.2076 19.7504 28.4002 19.6817 28.5928 19.6129C29.3092 19.3573 30.0269 19.1052 30.7456 18.8563C31.129 18.7257 31.129 18.7257 31.4991 18.5627C31.4386 18.2745 31.4386 18.2745 31.2357 18.1893C31.1271 18.1503 31.1271 18.1503 31.0164 18.1105C30.9376 18.0818 30.8588 18.0531 30.7777 18.0235C30.6948 17.9945 30.6119 17.9656 30.5264 17.9358C30.4443 17.9057 30.3621 17.8757 30.2774 17.8448C29.7447 17.6538 29.436 17.5791 28.8905 17.7753ZM14.3428 19.8752C14.3428 22.8452 14.3428 25.8152 14.3428 28.8752C15.0217 29.1795 15.0217 29.1795 15.7099 29.4429C15.8505 29.4923 15.8505 29.4923 15.9939 29.5426C16.093 29.577 16.192 29.6114 16.294 29.6468C16.4524 29.7023 16.4524 29.7023 16.6141 29.759C16.9506 29.8768 17.2874 29.9942 17.6241 30.1116C17.9541 30.2268 18.2841 30.3422 18.614 30.4577C18.8326 30.5342 19.0512 30.6105 19.2698 30.6867C19.8212 30.8794 20.3711 31.0753 20.9193 31.2771C21.0263 31.3163 21.1334 31.3556 21.2437 31.396C21.4467 31.4707 21.6494 31.546 21.8518 31.622C21.9879 31.672 21.9879 31.672 22.1267 31.723C22.2057 31.7525 22.2847 31.782 22.3661 31.8124C22.6289 31.8961 22.6289 31.8961 23.0616 31.8752C23.0616 28.8743 23.0616 25.8734 23.0616 22.7815C21.7861 22.3012 21.7861 22.3012 20.501 21.8498C20.4163 21.8203 20.3315 21.7907 20.2442 21.7603C20.163 21.7329 20.0819 21.7056 19.9982 21.6773C19.9268 21.6529 19.8553 21.6285 19.7817 21.6034C19.5751 21.5421 19.5751 21.5421 19.3116 21.6565C19.3107 21.7681 19.3098 21.8797 19.3089 21.9948C19.3052 22.4092 19.299 22.8236 19.2921 23.238C19.2895 23.4174 19.2875 23.5967 19.2862 23.776C19.2842 24.0339 19.2798 24.2917 19.275 24.5495C19.2748 24.6697 19.2748 24.6697 19.2746 24.7922C19.2609 25.3489 19.2609 25.3489 19.0398 25.6444C18.8136 25.8019 18.6946 25.8321 18.421 25.8284C18.3151 25.8298 18.3151 25.8298 18.2071 25.8313C17.8991 25.7575 17.8111 25.666 17.6241 25.4065C17.568 25.0768 17.5741 24.7496 17.5769 24.4159C17.576 24.3193 17.5751 24.2227 17.5742 24.1231C17.5715 23.8146 17.5712 23.5061 17.5714 23.1975C17.571 22.8886 17.5701 22.5797 17.5675 22.2708C17.566 22.0787 17.5657 21.8865 17.5669 21.6943C17.5662 21.6073 17.5656 21.5203 17.5649 21.4307C17.565 21.3542 17.5651 21.2776 17.5652 21.1988C17.5217 20.9507 17.4455 20.8721 17.2491 20.719C16.9851 20.6031 16.9851 20.6031 16.6811 20.5069C16.5695 20.4698 16.4579 20.4326 16.3429 20.3943C16.2262 20.3564 16.1095 20.3186 15.9893 20.2795C15.873 20.2405 15.7567 20.2016 15.6369 20.1614C15.003 19.9445 15.003 19.9445 14.3428 19.8752ZM32.802 20.0224C32.7062 20.0547 32.6104 20.0871 32.5117 20.1205C32.408 20.1561 32.3043 20.1918 32.1975 20.2286C32.0892 20.2654 31.9809 20.3022 31.8693 20.3401C31.5774 20.4395 31.2857 20.5393 30.994 20.6395C30.7539 20.7219 30.5137 20.8038 30.2735 20.8858C28.9361 21.3425 27.5995 21.8017 26.2667 22.2717C26.1509 22.3124 26.0352 22.353 25.9159 22.3949C25.7609 22.4501 25.7609 22.4501 25.6027 22.5065C25.5159 22.5373 25.429 22.5682 25.3395 22.6C25.1042 22.6875 25.1042 22.6875 24.8428 22.8752C24.8155 23.1574 24.8064 23.4202 24.8094 23.7025C24.8092 23.7882 24.809 23.8739 24.8088 23.9621C24.8086 24.2463 24.8103 24.5305 24.8121 24.8147C24.8124 25.0115 24.8125 25.2084 24.8126 25.4053C24.813 25.8182 24.8144 26.2312 24.8165 26.6442C24.8191 27.1745 24.8202 27.7047 24.8206 28.235C24.821 28.6416 24.8219 29.0483 24.823 29.4549C24.8235 29.6505 24.824 29.846 24.8243 30.0416C24.825 30.3146 24.8263 30.5875 24.8277 30.8605C24.8278 30.9419 24.8279 31.0233 24.8281 31.1072C24.8199 31.5038 24.8199 31.5038 24.9366 31.8752C25.5708 31.8191 26.1366 31.6083 26.7336 31.3951C26.845 31.3559 26.9565 31.3166 27.0713 31.2761C27.3684 31.1714 27.6653 31.0661 27.9621 30.9605C28.254 30.8568 28.5462 30.7538 28.8384 30.6508C29.419 30.4458 29.9993 30.2398 30.5794 30.0334C30.8876 29.9238 31.1959 29.8147 31.5042 29.7057C31.75 29.6187 31.9957 29.5315 32.2414 29.4443C32.4149 29.3828 32.5885 29.3215 32.7622 29.2602C32.8659 29.2233 32.9696 29.1864 33.0765 29.1484C33.1682 29.1159 33.2599 29.0834 33.3543 29.05C33.556 28.9872 33.556 28.9872 33.6553 28.8752C33.6643 28.5956 33.6671 28.3181 33.666 28.0384C33.666 27.9506 33.666 27.8628 33.666 27.7724C33.666 27.4807 33.6652 27.189 33.6645 26.8973C33.6643 26.6957 33.6642 26.494 33.6641 26.2924C33.6637 25.7605 33.6628 25.2286 33.6618 24.6967C33.6608 24.1544 33.6604 23.6122 33.6599 23.0699C33.6589 22.005 33.6573 20.9401 33.6553 19.8752C33.3089 19.8752 33.1221 19.9132 32.802 20.0224Z" fill="#FF7705"></path>
  <path d="M27.7505 2.62505C27.8659 2.64313 27.8659 2.64313 27.9836 2.66158C29.7471 2.95059 31.4775 3.55812 33.106 4.28326C33.1786 4.31548 33.2511 4.34771 33.3259 4.38092C33.9136 4.65366 34.5083 4.97653 34.9693 5.43755C35.0208 6.23552 35.0208 6.23552 34.7818 6.56255C34.3952 6.82031 34.1015 6.83804 33.6568 6.75005C33.356 6.6184 33.069 6.47366 32.7791 6.32024C28.3491 3.98593 22.9908 3.63875 18.2258 5.08411C16.9428 5.49535 15.7163 6.01595 14.5318 6.6563C14.4476 6.70121 14.4476 6.70121 14.3617 6.74703C10.6175 8.75744 7.7815 12.0177 6.00054 15.8438C5.95063 15.9503 5.90072 16.0567 5.8493 16.1664C3.69503 20.9704 3.79366 26.4129 5.60375 31.2965C6.12311 32.633 6.79099 33.8767 7.59429 35.0626C7.65753 35.1565 7.65753 35.1565 7.72205 35.2523C7.84808 35.438 7.97558 35.6226 8.10406 35.8067C8.14279 35.8628 8.18152 35.9188 8.22143 35.9766C8.45354 36.3024 8.45354 36.3024 8.81304 36.4688C8.7821 36.3567 8.75117 36.2445 8.71929 36.129C8.63771 35.7938 8.57938 35.5025 8.62554 35.1563C8.79429 34.9032 8.91465 34.7305 9.18804 34.5938C9.84743 34.5398 9.84743 34.5398 10.1688 34.7314C10.4949 35.0567 10.5606 35.3673 10.6683 35.8067C10.6898 35.8888 10.7114 35.9709 10.7336 36.0555C10.8021 36.3179 10.8681 36.5808 10.9341 36.8438C10.9791 37.0178 11.0243 37.1917 11.0696 37.3657C11.1763 37.7762 11.2804 38.1873 11.3838 38.5987C11.4319 38.7884 11.4819 38.9776 11.5321 39.1667C11.5578 39.2644 11.5836 39.3622 11.6102 39.4629C11.6317 39.5431 11.6533 39.6232 11.6755 39.7057C11.7546 40.1242 11.7838 40.4033 11.5435 40.7637C11.3027 41.0116 11.2267 41.057 10.8827 41.0845C10.3884 41.0765 9.92251 40.9337 9.44805 40.8058C9.34813 40.7795 9.24821 40.7531 9.14526 40.7259C8.93477 40.6701 8.7244 40.6139 8.51412 40.5573C8.19267 40.471 7.87082 40.3863 7.54888 40.3018C7.34402 40.2472 7.13919 40.1926 6.93438 40.1379C6.83837 40.1127 6.74237 40.0875 6.64346 40.0615C6.10288 39.9148 5.65552 39.78 5.25054 39.3751C5.1806 38.9611 5.20284 38.6229 5.39703 38.2501C5.69277 38.0074 5.90861 37.9439 6.28179 37.9688C6.69294 38.0452 7.09652 38.1425 7.50054 38.2501C7.25209 37.8678 6.98903 37.5106 6.70367 37.1544C3.25966 32.7176 1.8077 26.9626 2.46111 21.4073C3.08216 16.7464 5.0598 12.3401 8.37341 8.97424C8.52731 8.81713 8.67841 8.65774 8.82915 8.49761C9.59608 7.69342 10.4421 7.02162 11.3443 6.37505C11.403 6.33289 11.4617 6.29073 11.5222 6.24729C16.2252 2.90936 22.0867 1.71571 27.7505 2.62505Z" fill="#FF7705"></path>
  <path d="M38.7868 7.27317C38.9266 7.3091 38.9266 7.3091 39.0692 7.34575C39.2649 7.39627 39.4606 7.4471 39.6561 7.49823C39.9545 7.57598 40.2533 7.65194 40.5522 7.72783C40.743 7.77734 40.9339 7.82696 41.1247 7.87669C41.2579 7.91026 41.2579 7.91026 41.3938 7.9445C41.8826 8.07432 42.2594 8.21304 42.6559 8.53111C42.8059 8.83127 42.7964 9.1429 42.7496 9.46861C42.5815 9.73205 42.4666 9.89137 42.1871 10.0311C41.5881 10.0821 41.07 9.92315 40.4996 9.74986C40.7401 10.1206 40.9947 10.4737 41.2647 10.8235C41.8543 11.5901 42.3723 12.3746 42.8434 13.2186C42.8813 13.2856 42.9192 13.3527 42.9583 13.4217C45.76 18.4058 46.4074 24.4184 44.8703 29.916C44.7402 30.3554 44.5929 30.7877 44.4371 31.2186C44.4107 31.2923 44.3843 31.366 44.357 31.442C43.6661 33.3378 42.7426 35.1345 41.5309 36.7499C41.489 36.8062 41.4471 36.8626 41.4039 36.9206C40.7786 37.7557 40.0964 38.5286 39.3746 39.2811C39.3013 39.3583 39.2279 39.4356 39.1523 39.5151C36.9145 41.8168 33.958 43.5045 30.9371 44.5311C30.8594 44.5576 30.7818 44.584 30.7017 44.6113C25.5256 46.3397 19.8759 45.9032 14.9059 43.7225C14.789 43.6719 14.789 43.6719 14.6697 43.6202C14.232 43.4209 13.9041 43.2235 13.5934 42.8436C13.487 42.4712 13.4586 42.2796 13.6168 41.9237C13.7809 41.7186 13.7809 41.7186 14.0621 41.5311C14.6966 41.4655 15.095 41.6251 15.6559 41.9061C20.3305 44.1145 25.7816 44.3991 30.6559 42.6561C35.6526 40.7631 39.7661 37.1583 42.0029 32.2682C44.1088 27.4756 44.4325 22.0045 42.5574 17.0721C41.7511 15.0506 40.7111 13.2438 39.3746 11.5311C39.2766 11.8365 39.2926 12.0549 39.3453 12.369C39.3874 12.7258 39.3947 12.8097 39.2047 13.1307C38.8911 13.4084 38.6816 13.4227 38.2654 13.446C37.9639 13.3868 37.8156 13.24 37.5934 13.0311C37.4802 12.7747 37.4802 12.7747 37.4033 12.4789C37.3591 12.3138 37.3591 12.3138 37.3139 12.1455C37.2843 12.0278 37.2547 11.9102 37.2242 11.7889C37.1924 11.6669 37.1605 11.5449 37.1285 11.423C37.0635 11.1744 36.9996 10.9255 36.9365 10.6764C36.85 10.3362 36.7589 9.99741 36.6668 9.65867C36.6142 9.46059 36.5617 9.26247 36.5094 9.06431C36.4847 8.97395 36.46 8.88358 36.4345 8.79048C36.298 8.25732 36.259 7.85311 36.3746 7.31236C36.8868 6.59069 38.0912 7.09221 38.7868 7.27317Z" fill="#FF7705"></path>
  <path d="M32.1554 26.4374C32.4663 26.6622 32.5945 26.819 32.7179 27.1815C32.7179 27.5731 32.6825 27.7189 32.4367 28.0311C32.1442 28.202 31.8358 28.3149 31.5168 28.427C31.2703 28.5146 31.0259 28.607 30.781 28.6991C30.5889 28.7696 30.3966 28.8399 30.2043 28.91C30.065 28.9621 30.065 28.9621 29.9229 29.0153C29.4041 29.1992 29.0355 29.3108 28.4992 29.1561C28.2505 28.952 28.1479 28.801 28.0821 28.4852C28.0512 28.0729 28.0512 28.0729 28.1242 27.8436C28.578 27.3244 29.2125 27.1522 29.8495 26.939C30.0338 26.877 30.2172 26.8125 30.4006 26.7477C31.5322 26.3562 31.5322 26.3562 32.1554 26.4374Z" fill="#FF7705"></path>
</svg>
