<?xml version="1.0" encoding="UTF-8"?>
<svg xmlns="http://www.w3.org/2000/svg" width="40" height="40" viewBox="0 0 40 40" fill="none">
  <path d="M13.8332 0.0129492C14.0539 0.0133278 14.2745 0.012766 14.4952 0.0112645C18.5538 -0.014278 24.1941 0.203495 27.2923 3.20864C27.8438 3.81077 28.0682 4.41083 28.0719 5.23537C28.0723 5.29256 28.0728 5.34974 28.0733 5.40866C28.0747 5.59873 28.0749 5.78879 28.0752 5.97887C28.0759 6.11573 28.0768 6.25259 28.0777 6.38945C28.0799 6.75992 28.0812 7.13039 28.0822 7.50086C28.0835 7.88843 28.0857 8.27599 28.0878 8.66355C28.0917 9.39698 28.0947 10.1304 28.0974 10.8638C28.1006 11.699 28.1046 12.5342 28.1087 13.3694C28.1172 15.087 28.1246 16.8046 28.1311 18.5222C28.2716 18.5699 28.2716 18.5699 28.415 18.6186C28.5403 18.6619 28.6656 18.7051 28.7909 18.7484C28.8831 18.7796 28.8831 18.7796 28.9771 18.8114C29.8862 19.1272 30.6829 19.6279 31.4171 20.2473C31.4696 20.288 31.5221 20.3286 31.5762 20.3705C33.0583 21.5657 33.9673 23.4793 34.2101 25.3405C34.3235 26.9974 34.208 28.4585 33.4688 29.9526C33.3705 30.1747 33.3705 30.1747 33.4252 30.3602C33.607 30.5817 33.8301 30.7282 34.0663 30.8855C34.7003 31.3237 35.28 31.8086 35.8531 32.3231C35.8988 32.364 35.9445 32.405 35.9916 32.4472C36.6758 33.0645 37.3339 33.7099 37.9889 34.3579C38.077 34.4448 38.1652 34.5316 38.2537 34.6182C39.0902 35.4382 39.6959 36.1925 39.714 37.4162C39.6501 38.1885 39.354 38.797 38.795 39.3313C38.1122 39.892 37.4504 40.0329 36.5795 39.9939C35.5086 39.8884 34.8796 39.1662 34.1539 38.4418C34.0964 38.3846 34.039 38.3274 33.9797 38.2684C33.859 38.1481 33.7384 38.0277 33.6179 37.9072C33.436 37.7255 33.2534 37.5444 33.0708 37.3633C32.454 36.7489 31.8687 36.1334 31.3349 35.4447C31.2641 35.3586 31.193 35.2729 31.1212 35.1876C30.728 34.7148 30.3645 34.2294 30.0205 33.7196C29.6853 33.8278 29.3606 33.9507 29.0348 34.0841C27.0544 34.8427 25.0142 34.734 23.038 34.0482C22.9843 34.0151 22.9306 33.9821 22.8753 33.948C22.4266 33.7745 21.7639 34.0181 21.3058 34.1068C20.4655 34.2695 19.6261 34.4155 18.7765 34.5205C18.7001 34.53 18.6237 34.5394 18.545 34.5492C13.4203 35.1537 5.7934 35.295 1.50395 31.9457C0.79463 31.3496 0.369587 30.7124 0.282958 29.7765C0.271042 29.4413 0.271521 29.1064 0.271973 28.771C0.271787 28.6698 0.271601 28.5686 0.271409 28.4643C0.27098 28.1843 0.270918 27.9043 0.271015 27.6244C0.271031 27.322 0.270578 27.0197 0.270189 26.7174C0.269507 26.1254 0.26928 25.5334 0.269235 24.9415C0.269196 24.4602 0.269026 23.9789 0.268766 23.4976C0.268043 22.1323 0.267664 20.767 0.267725 19.4017C0.267729 19.3281 0.267732 19.2546 0.267735 19.1788C0.267739 19.1051 0.267742 19.0315 0.267746 18.9556C0.267779 17.762 0.266993 16.5685 0.265835 15.3749C0.264655 14.1486 0.264087 12.9223 0.264158 11.696C0.264185 11.0079 0.263961 10.3197 0.263076 9.63151C0.262328 9.04559 0.262149 8.45968 0.262707 7.87376C0.262974 7.57502 0.262982 7.27628 0.262268 6.97753C0.261501 6.65319 0.262014 6.32886 0.262648 6.00451C0.262225 5.91077 0.261803 5.81703 0.261368 5.72044C0.26568 4.71948 0.410247 3.91789 1.09353 3.15313C1.9484 2.33857 3.04004 1.81864 4.14391 1.4354C4.20233 1.41499 4.26074 1.39458 4.32093 1.37355C5.72216 0.891499 7.1519 0.574397 8.61585 0.352071C8.69876 0.33935 8.78168 0.32663 8.86711 0.313524C10.5195 0.0762467 12.1654 0.0098552 13.8332 0.0129492ZM2.41881 3.89984C2.07375 4.23933 1.79682 4.52419 1.71028 5.00884C1.71987 5.44978 1.9671 5.6952 2.26478 5.99846C3.0197 6.64261 3.95454 7.02609 4.88325 7.35006C4.96914 7.3802 4.96914 7.3802 5.05677 7.41094C7.61555 8.28743 10.4059 8.60711 13.098 8.66442C13.18 8.66622 13.2619 8.66802 13.3463 8.66988C17.3088 8.74277 22.6844 8.61861 26.0261 6.08703C26.3738 5.73927 26.6371 5.42891 26.673 4.92669C26.3541 4.03361 25.4452 3.52908 24.6398 3.12457C19.1536 0.58942 7.48094 -0.16574 2.41881 3.89984ZM1.67947 7.35006C1.67375 8.1113 1.66938 8.87253 1.6667 9.63379C1.66542 9.98731 1.66368 10.3408 1.66088 10.6943C1.6582 11.0357 1.65673 11.3772 1.65609 11.7186C1.65564 11.8486 1.65475 11.9786 1.65342 12.1085C1.65162 12.2912 1.65138 12.4738 1.6515 12.6565C1.65095 12.7603 1.6504 12.8641 1.64984 12.971C1.70524 13.52 1.91712 13.8869 2.33666 14.2505C2.39924 14.3058 2.39924 14.3058 2.46309 14.3622C6.28004 17.4897 13.3564 17.1818 17.9825 16.7313C20.5849 16.464 24.5585 16.0543 26.406 13.9219C26.6345 13.5388 26.6827 13.2587 26.6805 12.815C26.6805 12.726 26.6805 12.726 26.6806 12.6351C26.6804 12.4404 26.6785 12.2458 26.6765 12.0511C26.6761 11.9155 26.6757 11.7799 26.6755 11.6443C26.6745 11.2886 26.6721 10.9329 26.6694 10.5772C26.6669 10.2138 26.6657 9.85031 26.6645 9.48687C26.6619 8.77458 26.6577 8.06232 26.6525 7.35006C26.5907 7.38385 26.5288 7.41765 26.4651 7.45247C26.3433 7.51901 26.3433 7.51901 26.219 7.58689C26.1386 7.63086 26.0581 7.67482 25.9752 7.72011C22.2567 9.7375 17.582 10.0651 13.4266 9.97879C13.3527 9.97732 13.2787 9.97585 13.2025 9.97434C9.41208 9.88737 5.34945 9.43272 2.00807 7.51435C1.89881 7.45905 1.78933 7.40417 1.67947 7.35006ZM1.67947 15.5649C1.67375 16.3261 1.66938 17.0873 1.6667 17.8486C1.66542 18.2021 1.66368 18.5556 1.66088 18.9091C1.6582 19.2505 1.65673 19.592 1.65609 19.9334C1.65564 20.0634 1.65475 20.1934 1.65342 20.3233C1.65162 20.506 1.65138 20.6886 1.6515 20.8713C1.65095 20.9751 1.6504 21.0789 1.64984 21.1858C1.70397 21.7222 1.93454 22.1818 2.33666 22.5474C5.44447 24.881 10.1671 25.1292 13.8972 25.1154C14.1821 25.1146 14.4669 25.1154 14.7518 25.1165C15.8804 25.1171 16.9881 25.0614 18.1091 24.9297C18.125 24.8786 18.1409 24.8274 18.1574 24.7747C18.8866 22.4404 19.9893 20.5288 22.2165 19.3437C23.6523 18.6012 25.0492 18.4031 26.6525 18.3579C26.6525 17.4362 26.6525 16.5145 26.6525 15.5649C26.2729 15.7817 25.8934 15.9986 25.5024 16.222C23.2295 17.3201 20.6831 17.7712 18.1912 18.0293C18.1086 18.0379 18.0261 18.0465 17.941 18.0553C12.5526 18.5853 6.46082 18.3015 1.67947 15.5649ZM23.8594 20.083C23.775 20.1118 23.6906 20.1406 23.6037 20.1703C22.0325 20.7572 20.7263 22.024 20.0042 23.5281C19.7423 24.11 19.5169 24.7067 19.4234 25.3405C19.4144 25.4008 19.4054 25.4612 19.3962 25.5234C19.1685 27.2904 19.6168 29.0892 20.707 30.5055C20.7989 30.6189 20.8913 30.7319 20.9843 30.8444C21.0359 30.9118 21.0876 30.9793 21.1409 31.0488C22.201 32.3206 23.885 33.0152 25.4915 33.2039C27.1272 33.3487 28.8523 32.9111 30.1558 31.8884C30.4551 31.6377 30.7321 31.3686 31.0063 31.0908C31.0681 31.029 31.1298 30.9671 31.1934 30.9034C32.5055 29.5132 32.8699 27.775 32.8386 25.9306C32.7764 24.2281 31.86 22.5817 30.6456 21.4134C29.9759 20.85 29.1974 20.3881 28.3776 20.083C28.2925 20.0508 28.2075 20.0186 28.1199 19.9854C26.7685 19.5496 25.1877 19.5912 23.8594 20.083ZM1.67947 23.7797C1.67184 24.5502 1.66601 25.3207 1.66245 26.0913C1.66074 26.4491 1.65842 26.8069 1.65469 27.1648C1.6511 27.5105 1.64915 27.8561 1.6483 28.2018C1.64769 28.3334 1.64651 28.4649 1.64473 28.5964C1.63449 29.3848 1.64132 29.9744 2.15568 30.6185C4.91129 33.0875 9.87064 33.3143 13.3445 33.391C13.4121 33.3928 13.4798 33.3946 13.5495 33.3964C15.9322 33.4537 18.5946 33.3727 20.9021 32.7338C20.8128 32.6452 20.8128 32.6452 20.7218 32.5547C20.0931 31.9226 19.5365 31.2935 19.0949 30.5158C19.0519 30.4409 19.0089 30.3661 18.9646 30.2889C18.296 29.0451 18.1002 27.7133 17.9448 26.3262C17.857 26.3319 17.7692 26.3376 17.6788 26.3435C16.5319 26.4133 15.3867 26.4283 14.2379 26.4289C14.0915 26.429 14.0915 26.429 13.9422 26.4291C12.3593 26.4277 10.807 26.3757 9.23709 26.162C9.13269 26.1479 9.0283 26.1338 8.92073 26.1192C6.43067 25.7699 4.00311 25.1858 1.84377 23.8618C1.78955 23.8347 1.73533 23.8076 1.67947 23.7797ZM32.2135 31.767C32.1438 31.8471 32.0742 31.9273 32.0024 32.0099C31.7335 32.3169 31.4618 32.6126 31.1706 32.8981C31.3875 33.1963 31.6044 33.4945 31.8278 33.8017C32.1179 33.6567 32.2561 33.5573 32.476 33.3339C32.5342 33.2751 32.5925 33.2163 32.6525 33.1558C32.7124 33.0945 32.7724 33.0331 32.8341 32.97C32.8953 32.908 32.9565 32.8461 33.0196 32.7822C33.1704 32.6295 33.3207 32.4765 33.4708 32.3231C33.0811 31.9292 33.0811 31.9292 32.6493 31.5837C32.3884 31.5552 32.3884 31.5552 32.2135 31.767ZM34.5387 33.1445C33.9694 33.7138 33.4001 34.2831 32.8136 34.8696C32.9529 35.1482 33.0257 35.2635 33.2397 35.4652C33.4395 35.6543 33.6216 35.8517 33.8003 36.0605C34.1672 36.4829 34.5606 36.8784 34.956 37.2737C35.0837 37.4016 35.2107 37.5301 35.3377 37.6587C35.4198 37.741 35.502 37.8233 35.5841 37.9056C35.6575 37.9793 35.7308 38.053 35.8064 38.1289C36.1497 38.4397 36.452 38.6304 36.921 38.6485C37.415 38.5505 37.745 38.3865 38.071 37.9913C38.2769 37.6825 38.3376 37.4628 38.3021 37.0902C38.1547 36.4546 37.6587 36.0688 37.2024 35.6403C37.0501 35.4928 36.9132 35.335 36.7772 35.1726C36.5504 34.9064 36.3045 34.6838 36.0376 34.4586C35.7307 34.1859 35.449 33.8877 35.1641 33.5925C34.9333 33.3616 34.9333 33.3616 34.5387 33.1445Z" fill="#FF7705"></path>
  <path d="M30.267 21.8077C30.3266 21.8581 30.3862 21.9085 30.4476 21.9605C31.6685 23.083 32.2003 24.6496 32.3441 26.2594C32.3929 27.8195 31.843 29.3544 30.8163 30.5257C30.6894 30.6605 30.561 30.794 30.4313 30.9261C30.3757 30.9838 30.3201 31.0414 30.2628 31.1007C29.0624 32.2582 27.4171 32.6931 25.7861 32.6689C24.0497 32.6089 22.5638 31.7924 21.3937 30.5501C20.2409 29.2661 19.8281 27.6134 19.9038 25.9235C20.0151 24.3878 20.7446 23.0527 21.8057 21.972C21.8613 21.9144 21.9169 21.8568 21.9742 21.7974C24.2543 19.599 27.9576 19.8272 30.267 21.8077ZM22.3602 23.4301C21.5724 24.4726 21.1826 25.6747 21.3128 26.983C21.5251 28.3852 22.2018 29.5632 23.3511 30.4179C24.5159 31.1835 25.8258 31.4384 27.1916 31.1623C28.6058 30.7947 29.6283 29.9382 30.3716 28.6979C31.0109 27.5057 31.0601 26.2075 30.6777 24.9293C30.1471 23.6323 29.3733 22.6876 28.0952 22.0644C26.0447 21.2118 23.8023 21.7222 22.3602 23.4301Z" fill="#FF7705"></path>
  <path d="M13.2213 20.9431C13.2963 20.9427 13.3713 20.9424 13.4486 20.9421C13.6069 20.9419 13.7651 20.9425 13.9234 20.9439C14.1652 20.9456 14.4068 20.9439 14.6486 20.9418C14.8026 20.942 14.9566 20.9424 15.1107 20.9431C15.1827 20.9424 15.2548 20.9417 15.329 20.941C15.6636 20.9462 15.8478 20.9609 16.1404 21.1358C16.3622 21.3824 16.3781 21.5628 16.384 21.8903C16.2934 22.1695 16.2262 22.2146 15.9732 22.3832C15.8123 22.4052 15.8123 22.4052 15.6275 22.4071C15.5234 22.4087 15.5234 22.4087 15.4173 22.4103C15.3052 22.4105 15.3052 22.4105 15.1909 22.4108C15.1138 22.4114 15.0367 22.4119 14.9573 22.4125C14.7942 22.4133 14.6311 22.4137 14.468 22.4137C14.2188 22.414 13.9697 22.417 13.7206 22.4201C13.5621 22.4206 13.4035 22.4209 13.245 22.4211C13.1706 22.4223 13.0963 22.4234 13.0196 22.4247C12.6741 22.4222 12.4888 22.4127 12.1886 22.2279C12.0082 22.0307 11.9743 21.949 11.9788 21.685C11.9777 21.6231 11.9767 21.5613 11.9756 21.4976C12.1512 20.9108 12.7156 20.9384 13.2213 20.9431Z" fill="#FF7705"></path>
  <path d="M13.1699 12.7281C13.2489 12.7278 13.3279 12.7274 13.4093 12.7271C13.5761 12.7269 13.7429 12.7275 13.9097 12.7289C14.1651 12.7306 14.4202 12.7289 14.6755 12.7268C14.8377 12.727 14.9998 12.7274 15.162 12.7281C15.2383 12.7274 15.3147 12.7267 15.3933 12.726C15.9198 12.7337 15.9198 12.7337 16.1831 12.9211C16.3536 13.1785 16.384 13.3677 16.384 13.6753C16.2388 13.9055 16.135 14.0463 15.8911 14.1682C15.6443 14.1784 15.3995 14.1837 15.1527 14.1849C15.0424 14.1856 15.0424 14.1856 14.9298 14.1863C14.774 14.1871 14.6181 14.1876 14.4622 14.188C14.2242 14.1888 13.9863 14.1913 13.7483 14.1939C13.5969 14.1944 13.4455 14.1949 13.2941 14.1952C13.2231 14.1962 13.152 14.1972 13.0788 14.1983C12.6896 14.1968 12.4272 14.1775 12.1123 13.9218C11.9837 13.6647 11.9728 13.3787 12.0301 13.1003C12.3204 12.6686 12.697 12.7239 13.1699 12.7281Z" fill="#FF7705"></path>
  <path d="M13.2977 29.1875C13.3656 29.1873 13.4336 29.187 13.5036 29.1867C13.6474 29.1863 13.7911 29.1861 13.9349 29.1861C14.1543 29.1859 14.3737 29.1844 14.5931 29.1829C14.7329 29.1826 14.8727 29.1825 15.0125 29.1824C15.0779 29.1818 15.1433 29.1812 15.2106 29.1806C15.5545 29.182 15.8277 29.1979 16.1375 29.3656C16.353 29.617 16.3846 29.7405 16.3788 30.0741C16.3018 30.3514 16.3018 30.3514 16.1834 30.4897C15.8532 30.6596 15.5282 30.6346 15.162 30.6335C15.0436 30.6341 15.0436 30.6341 14.9227 30.6348C14.7559 30.6353 14.589 30.6352 14.4222 30.6345C14.1669 30.6338 13.9117 30.6361 13.6564 30.6388C13.4943 30.6389 13.3321 30.6388 13.1699 30.6386C13.0936 30.6395 13.0173 30.6404 12.9386 30.6414C12.41 30.6357 12.41 30.6357 12.1465 30.4413C11.9847 30.202 11.9836 30.0495 11.9977 29.7683C12.0477 29.5273 12.1625 29.4236 12.3587 29.2835C12.6731 29.1787 12.97 29.188 13.2977 29.1875Z" fill="#FF7705"></path>
</svg>
