<?xml version="1.0" encoding="UTF-8"?>
<svg xmlns="http://www.w3.org/2000/svg" width="48" height="48" viewBox="0 0 48 48" fill="none">
  <path d="M33.9493 11.2324C37.0021 13.8758 38.7604 17.6075 39.0678 21.6127C39.316 25.3932 38.151 29.3204 35.6755 32.2233C35.3971 32.5392 35.1094 32.8455 34.8163 33.1478C34.7029 33.2653 34.592 33.3852 34.4814 33.5054C33.6978 34.3353 32.7432 35.021 31.7638 35.6016C31.2703 35.9051 30.9589 36.2673 30.7931 36.8278C30.7471 37.0453 30.7378 37.2413 30.7368 37.4634C30.7361 37.5486 30.7355 37.6338 30.7348 37.7215C30.7342 37.8588 30.7342 37.8588 30.7336 37.9988C30.7314 38.1941 30.7292 38.3894 30.7268 38.5847C30.7236 38.8914 30.7208 39.1981 30.7195 39.5048C30.7181 39.8017 30.7143 40.0984 30.7102 40.3953C30.7104 40.4856 30.7105 40.576 30.7107 40.6691C30.6955 41.5259 30.459 42.2606 29.8664 42.8936C29.4974 43.2379 29.1803 43.4153 28.6876 43.5C28.6919 43.5885 28.6963 43.6769 28.7008 43.7681C28.7353 44.9981 28.5223 45.9501 27.6563 46.875C27.6073 46.9279 27.5582 46.9809 27.5077 47.0354C26.5838 47.9232 25.4529 47.9794 24.2447 47.9622C23.9943 47.959 23.7442 47.9603 23.4938 47.9621C22.2301 47.9611 21.1859 47.802 20.2501 46.875C19.3717 45.8274 19.1994 44.8372 19.2188 43.5C19.1415 43.4826 19.0641 43.4652 18.9845 43.4473C18.2895 43.1619 17.7408 42.5938 17.4376 41.9063C17.2601 41.3153 17.2238 40.7809 17.2245 40.166C17.2226 39.9753 17.2206 39.7847 17.2186 39.594C17.2165 39.2965 17.2149 38.9991 17.2144 38.7016C17.2135 38.4124 17.2103 38.1232 17.2069 37.834C17.2076 37.7018 17.2076 37.7018 17.2083 37.567C17.198 36.8722 17.045 36.3575 16.547 35.8594C16.1731 35.5771 15.7731 35.3292 15.3824 35.0713C11.9919 32.7651 9.89654 29.2997 9.08871 25.3261C8.35294 21.4258 9.26074 17.3042 11.4858 14.0348C11.9643 13.3505 12.5049 12.7367 13.0857 12.1379C13.2074 12.0118 13.3268 11.8835 13.4459 11.755C18.8839 6.03416 28.1568 6.35946 33.9493 11.2324ZM15.7501 11.9063C15.6967 11.9493 15.6433 11.9924 15.5884 12.0368C12.7111 14.3738 10.92 17.5839 10.5001 21.2813C10.4741 21.7094 10.4687 22.1356 10.4708 22.5645C10.4713 22.6793 10.4718 22.7941 10.4724 22.9124C10.4846 23.8318 10.5606 24.7012 10.7813 25.5938C10.7995 25.6676 10.8176 25.7414 10.8363 25.8175C11.77 29.4838 14.0509 32.2837 17.1823 34.3253C17.9205 34.8245 18.3499 35.3939 18.6915 36.2168C18.7842 36.7641 18.8043 37.3214 18.8438 37.875C22.216 37.875 25.5882 37.875 29.0626 37.875C29.1554 37.1325 29.1554 37.1325 29.2501 36.375C29.6199 35.1029 30.4609 34.4742 31.5308 33.7879C32.1097 33.415 32.5961 33.0078 33.0938 32.5313C33.2046 32.4407 33.3159 32.3508 33.4278 32.2617C33.8792 31.8771 34.2319 31.4042 34.5938 30.9375C34.6568 30.8573 34.7198 30.777 34.7846 30.6943C36.4252 28.5287 37.3774 25.8698 37.5001 23.1563C37.5059 23.0395 37.5059 23.0395 37.5118 22.9204C37.6048 19.1307 36.0437 15.7374 33.4688 13.0313C33.3784 12.9317 33.3784 12.9317 33.2861 12.8302C31.0288 10.426 27.5938 9.22699 24.3659 9.07325C21.3107 8.9776 18.1253 9.97057 15.7501 11.9063ZM18.8438 39.4688C18.7538 40.7931 18.7538 40.7931 19.3243 41.8503C19.7004 42.0592 20.0132 42.054 20.437 42.0515C20.521 42.0525 20.6051 42.0534 20.6917 42.0544C20.9691 42.057 21.2464 42.0568 21.5238 42.0564C21.717 42.0571 21.9102 42.0579 22.1035 42.0588C22.5084 42.0602 22.9133 42.0602 23.3182 42.0592C23.8364 42.0581 24.3545 42.0613 24.8726 42.0656C25.2717 42.0684 25.6708 42.0686 26.0699 42.068C26.2609 42.0681 26.4519 42.0691 26.6429 42.0709C26.9104 42.0733 27.1777 42.072 27.4452 42.0698C27.5628 42.072 27.5628 42.072 27.6828 42.0742C28.1993 42.0649 28.4684 41.9371 28.8466 41.5856C29.3184 41.0141 29.0626 40.1184 29.0626 39.4688C25.6904 39.4688 22.3182 39.4688 18.8438 39.4688ZM20.8126 43.5938C20.8126 44.5891 20.8923 45.1514 21.5791 45.8756C22.2515 46.4876 23.1345 46.4233 23.9884 46.4238C24.0767 46.425 24.1651 46.4261 24.2561 46.4273C25.0743 46.429 25.809 46.369 26.4566 45.8328C27.1067 45.1516 27.0938 44.551 27.0938 43.5938C25.021 43.5938 22.9482 43.5938 20.8126 43.5938Z" fill="#FF7705"></path>
  <path d="M29.9765 14.9355C30.1426 15.0797 30.3067 15.2263 30.4687 15.375C30.5555 15.4542 30.6423 15.5333 30.7317 15.6149C32.487 17.29 33.5923 19.6293 33.6767 22.062C33.733 24.637 33.043 26.8581 31.4062 28.875C31.308 28.9966 31.308 28.9966 31.2077 29.1207C29.6984 30.8927 27.506 31.9419 25.2187 32.25C23.8143 32.3528 22.4414 32.2949 21.0937 31.875C20.9877 31.8421 20.8817 31.8093 20.7725 31.7754C18.2896 30.9023 16.3818 29.126 15.2168 26.7744C14.1498 24.4057 13.9957 21.7116 14.8667 19.2528C15.825 16.7278 17.7209 14.8453 20.1323 13.6874C23.3005 12.2847 27.2627 12.7799 29.9765 14.9355ZM17.9062 17.25C16.3774 19.0583 15.8189 21.2 15.9375 23.5313C16.0715 25.0694 16.8235 26.9037 18 27.9375C18.0443 27.8785 18.0887 27.8196 18.1344 27.7588C18.9671 26.6809 19.8873 26.0094 21.0937 25.4063C20.9714 25.1384 20.8375 24.9409 20.6367 24.7266C19.7706 23.738 19.7056 22.5703 19.7629 21.3123C19.8452 20.3297 20.4509 19.3838 21.1875 18.75C22.2444 17.931 23.4081 17.6066 24.7382 17.7656C25.9195 17.9929 26.9244 18.6347 27.5958 19.6249C28.2841 20.7416 28.409 22.0097 28.1546 23.2917C27.8996 24.0346 27.4704 24.6762 26.9062 25.2188C26.9062 25.2806 26.9062 25.3425 26.9062 25.4063C26.9822 25.4438 27.0582 25.4814 27.1366 25.5201C28.2435 26.0884 29.1016 26.7962 29.9062 27.75C29.9681 27.8119 30.03 27.8738 30.0937 27.9375C31.61 26.1158 32.2538 24.0189 32.0625 21.6563C31.7785 19.465 30.6104 17.4834 28.875 16.125C25.4189 13.6737 20.7772 14.0895 17.9062 17.25ZM21.9569 20.1251C21.3442 20.7863 21.2155 21.4578 21.2365 22.3491C21.328 23.042 21.6418 23.6617 22.1543 24.1406C22.3212 24.2666 22.3212 24.2666 22.5 24.375C22.5604 24.4134 22.6208 24.4519 22.6831 24.4915C23.3075 24.8268 23.9638 24.8491 24.6562 24.75C25.3628 24.5172 25.9461 24.1686 26.3437 23.5313C26.3821 23.4708 26.4206 23.4104 26.4602 23.3481C26.8251 22.6686 26.8436 21.8702 26.6568 21.1296C26.3367 20.3287 25.7784 19.749 24.9946 19.3975C23.8411 18.9969 22.8318 19.3112 21.9569 20.1251ZM21.375 27C21.3014 27.0372 21.2278 27.0744 21.1519 27.1128C20.3303 27.5602 19.5773 28.237 19.125 29.0625C19.9315 29.6543 20.7137 30.0548 21.6562 30.375C21.7501 30.407 21.844 30.4391 21.9408 30.472C23.8347 31.0086 26.0126 30.6926 27.75 29.8125C28.1411 29.5863 28.5108 29.3297 28.875 29.0625C27.8982 27.6713 26.6183 26.7152 24.914 26.4082C23.6987 26.2451 22.4628 26.4085 21.375 27Z" fill="#FF7705"></path>
  <path d="M13.6874 3.09375C14.1617 3.68189 14.5105 4.38122 14.8768 5.03906C14.9826 5.22805 15.0884 5.41702 15.1943 5.60596C15.2403 5.68847 15.2863 5.77098 15.3337 5.85599C15.4274 6.0212 15.5245 6.18455 15.624 6.34632C15.8247 6.6911 15.7875 6.91771 15.7499 7.3125C15.6502 7.54101 15.6502 7.54101 15.4686 7.6875C15.1179 7.78492 14.9104 7.827 14.5761 7.671C14.3112 7.47619 14.1949 7.30527 14.0338 7.0199C13.979 6.92436 13.9243 6.82883 13.8679 6.73041C13.8122 6.63052 13.7565 6.53064 13.6991 6.42773C13.6441 6.33111 13.5891 6.23449 13.5324 6.13495C13.4212 5.93949 13.3106 5.74371 13.2005 5.54759C12.9747 5.15095 12.7386 4.76068 12.5012 4.37089C12.3102 3.9992 12.2945 3.78421 12.3749 3.375C12.5419 3.14233 12.6685 3.03795 12.9256 2.91797C13.242 2.89936 13.4023 2.94553 13.6874 3.09375Z" fill="#FF7705"></path>
  <path d="M5.53125 10.875C5.82269 11.0038 5.82269 11.0038 6.13074 11.1833C6.1862 11.2153 6.24167 11.2473 6.29882 11.2802C6.47528 11.3823 6.6507 11.4861 6.82617 11.5898C6.94287 11.6575 7.05963 11.725 7.17645 11.7924C8.79156 12.7291 8.79156 12.7291 9.1875 13.125C9.21768 13.4992 9.23771 13.7598 9.08789 14.1035C8.88446 14.2676 8.71723 14.3485 8.45471 14.3698C7.96728 14.3078 7.54432 14.0229 7.125 13.7812C7.06174 13.7449 6.99847 13.7086 6.93329 13.6712C6.52418 13.4353 6.11814 13.1946 5.71312 12.9517C5.55247 12.8563 5.39018 12.7638 5.22766 12.6716C5.14415 12.624 5.06065 12.5764 4.97461 12.5273C4.90415 12.4879 4.8337 12.4485 4.76111 12.408C4.56191 12.2571 4.48986 12.1406 4.40625 11.9062C4.43643 11.3329 4.43643 11.3329 4.63477 11.0742C4.94155 10.8533 5.15534 10.8442 5.53125 10.875Z" fill="#FF7705"></path>
  <path d="M39.9377 30.75C40.3328 30.9357 40.7084 31.1524 41.0861 31.3711C41.1863 31.4278 41.2865 31.4845 41.3897 31.5428C43.2266 32.5896 43.2266 32.5896 43.5002 33C43.5537 33.4127 43.5478 33.5905 43.301 33.9316C42.9695 34.1695 42.8707 34.1762 42.4689 34.125C42.164 33.9966 41.8818 33.8339 41.5959 33.668C41.5143 33.6217 41.4326 33.5754 41.3485 33.5277C41.1797 33.4316 41.0113 33.3349 40.8431 33.2377C40.6051 33.1002 40.3661 32.9648 40.1267 32.8297C39.9835 32.7479 39.8404 32.666 39.6975 32.584C39.6311 32.5465 39.5648 32.509 39.4965 32.4703C39.1694 32.2794 38.9065 32.1163 38.7189 31.7813C38.6641 31.4131 38.6865 31.2674 38.8947 30.9551C39.2325 30.6073 39.4896 30.6169 39.9377 30.75Z" fill="#FF7705"></path>
  <path d="M8.90622 30.75C9.18634 30.9759 9.1888 31.1343 9.2402 31.4941C9.25229 31.6783 9.25229 31.6783 9.18747 31.875C8.81924 32.2088 8.44675 32.4631 8.0123 32.7078C7.95594 32.7397 7.89958 32.7717 7.84152 32.8046C7.66351 32.9054 7.48508 33.0055 7.30661 33.1055C7.12791 33.2063 6.9493 33.3073 6.7707 33.4083C6.60901 33.4996 6.44712 33.5906 6.28522 33.6816C6.10321 33.785 5.92317 33.8921 5.74602 34.0037C5.46737 34.161 5.28433 34.1586 4.96872 34.125C4.7293 34.0452 4.6252 33.978 4.47067 33.7793C4.37519 33.4581 4.4193 33.2289 4.49997 32.9062C4.74994 32.6143 5.01559 32.4327 5.35031 32.2478C5.48808 32.1709 5.48808 32.1709 5.62863 32.0925C5.7241 32.0401 5.81957 31.9876 5.91794 31.9336C6.10575 31.8295 6.2935 31.7252 6.48117 31.6208C6.61862 31.5446 6.61862 31.5446 6.75885 31.4668C7.1024 31.2722 7.4394 31.0678 7.77531 30.8604C8.18064 30.6291 8.4576 30.6458 8.90622 30.75Z" fill="#FF7705"></path>
  <path d="M43.0312 10.875C43.3721 11.1195 43.4844 11.2566 43.5586 11.6719C43.4844 12.0876 43.3438 12.1917 43.0312 12.4688C42.8523 12.5875 42.6688 12.6997 42.4819 12.8057C42.3773 12.8655 42.2726 12.9253 42.1648 12.9869C42.0552 13.0486 41.9456 13.1102 41.8359 13.1719C41.7289 13.2329 41.6218 13.2939 41.5115 13.3568C41.3023 13.4758 41.0928 13.5943 40.8829 13.7121C40.7014 13.8144 40.5205 13.9178 40.3406 14.0229C40.2667 14.0657 40.1928 14.1085 40.1166 14.1526C40.0221 14.2081 40.0221 14.2081 39.9258 14.2648C39.617 14.4035 39.4044 14.3596 39.0938 14.25C38.8234 14.0074 38.7329 13.8567 38.666 13.5C38.7352 13.1313 38.9033 12.9754 39.1875 12.75C39.5427 12.5188 39.909 12.309 40.2773 12.0996C40.3739 12.0438 40.4705 11.9881 40.5699 11.9306C40.7632 11.8194 40.957 11.709 41.1512 11.5994C41.3418 11.4916 41.5315 11.3821 41.7201 11.2708C41.8093 11.2194 41.8986 11.1679 41.9905 11.1149C42.0692 11.0686 42.1479 11.0224 42.229 10.9748C42.5172 10.8548 42.7218 10.8438 43.0312 10.875Z" fill="#FF7705"></path>
  <path d="M35.3435 3.09375C35.531 3.29882 35.531 3.29882 35.6248 3.5625C35.5964 4.12779 35.4071 4.49084 35.115 4.95703C35.03 5.09665 34.9451 5.2363 34.8601 5.37597C34.8163 5.4474 34.7724 5.51882 34.7272 5.5924C34.5929 5.81362 34.4623 6.03664 34.3328 6.26074C34.291 6.3329 34.2493 6.40506 34.2063 6.47941C34.1262 6.61805 34.0463 6.75681 33.9666 6.8957C33.93 6.95856 33.8934 7.02142 33.8556 7.08618C33.8238 7.14133 33.792 7.19648 33.7592 7.25331C33.5693 7.53495 33.4343 7.66939 33.1053 7.76953C32.7531 7.78361 32.6188 7.71407 32.3435 7.5C32.1235 7.16999 32.1193 7.04476 32.156 6.65625C32.2646 6.39658 32.2646 6.39658 32.4168 6.13147C32.4722 6.03365 32.5276 5.93583 32.5847 5.83504C32.6444 5.73286 32.704 5.63067 32.7654 5.52539C32.8255 5.42085 32.8855 5.3163 32.9474 5.20859C33.0664 5.00216 33.186 4.79607 33.3063 4.59036C33.4413 4.35922 33.5742 4.12714 33.7062 3.89428C33.7694 3.78554 33.8327 3.67688 33.8963 3.56836C33.9486 3.47856 34.0009 3.38877 34.0549 3.29626C34.432 2.82973 34.8219 2.87158 35.3435 3.09375Z" fill="#FF7705"></path>
  <path d="M42.0661 21.7136C42.153 21.7127 42.24 21.7118 42.3296 21.7109C42.4695 21.7118 42.4695 21.7118 42.6123 21.7126C42.7087 21.7124 42.805 21.7121 42.9043 21.7118C43.108 21.7116 43.3116 21.7122 43.5152 21.7133C43.8269 21.7148 44.1386 21.7133 44.4503 21.7115C44.6482 21.7117 44.846 21.7121 45.0439 21.7126C45.1372 21.7121 45.2305 21.7115 45.3265 21.7109C45.457 21.7123 45.457 21.7123 45.5901 21.7136C45.6664 21.7138 45.7427 21.7141 45.8214 21.7143C46.0821 21.7587 46.2121 21.8549 46.4062 22.0313C46.506 22.2796 46.5228 22.5153 46.5 22.7813C46.3055 23.1076 46.2052 23.2233 45.8437 23.3438C45.7124 23.3532 45.5808 23.3576 45.4492 23.3589C45.37 23.3598 45.2908 23.3607 45.2093 23.3616C45.0814 23.3622 45.0814 23.3622 44.9509 23.3628C44.8629 23.3633 44.775 23.3639 44.6843 23.3644C44.4982 23.3653 44.3121 23.3659 44.1259 23.3663C43.8416 23.3672 43.5573 23.3701 43.2729 23.373C43.092 23.3737 42.9111 23.3742 42.7302 23.3745C42.6029 23.3762 42.6029 23.3762 42.473 23.378C42.0188 23.3764 41.7123 23.3591 41.3437 23.0625C41.1452 22.8098 41.1565 22.6807 41.1679 22.3535C41.25 22.0313 41.25 22.0313 41.415 21.8728C41.655 21.7324 41.7901 21.7144 42.0661 21.7136Z" fill="#FF7705"></path>
  <path d="M23.9356 0.0644531C24.0087 0.0609485 24.0818 0.0574438 24.1572 0.053833C24.4768 0.112394 24.5591 0.203077 24.7501 0.46875C24.8085 0.796187 24.8048 1.12085 24.8032 1.45276C24.804 1.597 24.804 1.597 24.8049 1.74415C24.8056 1.94738 24.8053 2.15062 24.8041 2.35384C24.8028 2.6646 24.806 2.97509 24.8096 3.28583C24.8097 3.4834 24.8095 3.68097 24.809 3.87854C24.8103 3.97133 24.8115 4.06411 24.8128 4.15971C24.8068 4.59941 24.7998 4.80848 24.5299 5.16909C24.2273 5.3817 24.0815 5.39777 23.7188 5.34375C23.4738 5.26207 23.3756 5.20866 23.2414 4.98729C23.1491 4.76386 23.132 4.60818 23.1306 4.36746C23.1297 4.28641 23.1288 4.20537 23.1278 4.12187C23.1279 4.03504 23.128 3.94822 23.1281 3.85876C23.1277 3.76885 23.1273 3.67893 23.1269 3.58629C23.1263 3.3963 23.1263 3.20631 23.1267 3.01632C23.127 2.726 23.1248 2.43576 23.1224 2.14545C23.1222 1.96069 23.1221 1.77594 23.1222 1.59119C23.1214 1.50455 23.1205 1.41792 23.1196 1.32866C23.1242 0.688835 23.2 0.0873279 23.9356 0.0644531Z" fill="#FF7705"></path>
  <path d="M2.29256 21.7349C2.38144 21.734 2.47032 21.7331 2.56189 21.7322C2.65866 21.7318 2.75543 21.7314 2.85513 21.731C3.00342 21.7302 3.00342 21.7302 3.15471 21.7293C3.36443 21.7284 3.57415 21.7278 3.78387 21.7275C4.10487 21.7266 4.42581 21.7237 4.7468 21.7207C4.95023 21.7201 5.15366 21.7196 5.35709 21.7192C5.50139 21.7175 5.50139 21.7175 5.64861 21.7157C5.73837 21.716 5.82813 21.7163 5.92062 21.7166C5.99944 21.7162 6.07827 21.7159 6.15948 21.7155C6.42813 21.7585 6.5547 21.8436 6.74979 22.0312C6.85326 22.4038 6.88248 22.6022 6.72049 22.957C6.56229 23.1562 6.56229 23.1562 6.37479 23.25C6.2351 23.2598 6.095 23.2639 5.95497 23.2651C5.86798 23.266 5.78099 23.2669 5.69136 23.2678C5.55 23.2684 5.55 23.2684 5.40579 23.269C5.30915 23.2696 5.2125 23.2701 5.11292 23.2707C4.90818 23.2715 4.70343 23.2722 4.49869 23.2725C4.18531 23.2734 3.87199 23.2763 3.55862 23.2793C3.35989 23.2799 3.16116 23.2804 2.96243 23.2808C2.86857 23.2819 2.77472 23.2831 2.67802 23.2843C2.59043 23.284 2.50285 23.2837 2.41261 23.2834C2.2973 23.2839 2.2973 23.2839 2.17965 23.2845C1.91377 23.2411 1.78705 23.1542 1.59354 22.9687C1.48922 22.5932 1.45886 22.3981 1.62869 22.043C1.86093 21.7393 1.91128 21.738 2.29256 21.7349Z" fill="#FF7705"></path>
</svg>
