<?xml version="1.0" encoding="UTF-8"?>
<svg xmlns="http://www.w3.org/2000/svg" width="48" height="48" viewBox="0 0 48 48" fill="none">
  <path d="M21.6227 12.0644C21.7092 12.0646 21.7957 12.0648 21.8849 12.065C23.201 12.0699 24.4897 12.1081 25.7828 12.3749C25.8742 12.3935 25.9656 12.4122 26.0598 12.4313C28.0672 12.8555 30.1141 13.5449 31.6891 14.9062C31.7606 14.9666 31.8322 15.027 31.9059 15.0893C32.5986 15.7211 33.1462 16.5891 33.2828 17.5312C33.2959 17.8473 33.2947 18.163 33.2935 18.4794C33.2935 18.5746 33.2935 18.6697 33.2935 18.7678C33.2935 19.0818 33.2927 19.3957 33.292 19.7097C33.2918 19.9277 33.2917 20.1456 33.2916 20.3635C33.2912 20.9367 33.2903 21.5099 33.2893 22.0831C33.2883 22.6681 33.2879 23.2532 33.2874 23.8382C33.2864 24.9859 33.2848 26.1335 33.2828 27.2812C33.3502 27.2809 33.4175 27.2807 33.4869 27.2805C33.7949 27.2796 34.1029 27.2791 34.4109 27.2785C34.5169 27.2782 34.6228 27.2778 34.7319 27.2775C35.4589 27.2765 36.17 27.2981 36.8922 27.3866C36.9958 27.3989 37.0995 27.4112 37.2063 27.4239C39.9408 27.7759 43.1397 28.6185 45.0166 30.7975C45.622 31.6176 45.9027 32.4144 45.8939 33.4311C45.8948 33.5728 45.8948 33.5728 45.8959 33.7174C45.8975 34.027 45.8964 34.3365 45.8951 34.646C45.8954 34.8629 45.8958 35.0798 45.8962 35.2967C45.8968 35.7502 45.896 36.2037 45.8942 36.6572C45.8921 37.2364 45.8933 37.8155 45.8956 38.3946C45.8969 38.8422 45.8965 39.2898 45.8955 39.7374C45.8953 39.9508 45.8956 40.1643 45.8964 40.3778C45.8974 40.677 45.8959 40.9761 45.8939 41.2753C45.8946 41.3622 45.8954 41.4491 45.8962 41.5386C45.8828 42.5844 45.5031 43.3847 44.8141 44.1562C44.7672 44.2117 44.7203 44.2673 44.672 44.3246C42.6699 46.529 38.9437 47.2696 36.1129 47.4546C35.5075 47.4812 34.9024 47.4825 34.2965 47.4784C34.2052 47.4781 34.1139 47.4778 34.0198 47.4776C30.8418 47.4629 27.6592 46.9235 24.9391 45.1874C24.845 45.0898 24.845 45.0898 24.749 44.9903C24.3331 44.7248 23.9611 44.771 23.4783 44.7857C23.3802 44.7869 23.2822 44.7881 23.1812 44.7893C22.8667 44.7933 22.5523 44.7996 22.2379 44.8065C20.2479 44.8483 18.2896 44.7878 16.3551 44.2675C16.2157 44.2311 16.2157 44.2311 16.0735 44.194C14.4864 43.767 12.8671 43.1031 11.6266 41.9999C11.5555 41.9397 11.4845 41.8795 11.4113 41.8175C10.7159 41.1852 10.1724 40.3181 10.0328 39.3749C10.0192 39.0818 10.0194 38.789 10.0197 38.4956C10.0194 38.4066 10.0191 38.3177 10.0188 38.2261C10.018 37.9278 10.0179 37.6296 10.0177 37.3314C10.0173 37.1176 10.0168 36.9039 10.0163 36.6901C10.0151 36.1092 10.0145 35.5283 10.0141 34.9474C10.0138 34.5843 10.0134 34.2213 10.013 33.8583C10.0119 32.8525 10.0109 31.8466 10.0106 30.8408C10.0105 30.7764 10.0105 30.7121 10.0105 30.6458C10.0105 30.5813 10.0105 30.5168 10.0104 30.4504C10.0104 30.3197 10.0104 30.189 10.0103 30.0584C10.0103 29.9936 10.0103 29.9288 10.0103 29.862C10.0099 28.8123 10.0082 27.7627 10.0061 26.713C10.0038 25.6344 10.0027 24.5557 10.0026 23.477C10.0025 22.8718 10.0019 22.2665 10.0002 21.6613C9.99869 21.0918 9.99849 20.5223 9.99931 19.9528C9.99938 19.7441 9.99897 19.5354 9.99805 19.3268C9.99685 19.0412 9.99741 18.7556 9.99838 18.47C9.99763 18.3881 9.99687 18.3061 9.99609 18.2217C10.0059 16.9849 10.5113 16.0152 11.3512 15.1288C12.895 13.6106 15.1457 12.8938 17.2164 12.4452C17.2811 12.4311 17.3458 12.4169 17.4124 12.4023C18.8088 12.1193 20.2022 12.0584 21.6227 12.0644ZM11.9078 16.1249C11.8586 16.173 11.8095 16.2211 11.7588 16.2707C11.3279 16.7342 11.1055 17.3352 11.0172 17.953C11.1668 19.0001 11.7334 19.8101 12.5641 20.4433C14.8752 22.0216 17.7599 22.7767 20.5471 22.8035C20.6267 22.8044 20.7064 22.8053 20.7884 22.8063C24.3536 22.8389 28.4593 22.5629 31.2024 19.9829C31.2702 19.9163 31.338 19.8498 31.4078 19.7812C31.4573 19.7329 31.5067 19.6847 31.5576 19.635C31.9876 19.1708 32.2102 18.5709 32.2985 17.953C32.1789 17.1159 31.8148 16.5236 31.2203 15.9374C31.1608 15.8758 31.1012 15.8141 31.0398 15.7506C29.6169 14.3733 27.4821 13.7996 25.5953 13.4062C25.5213 13.3905 25.4474 13.3749 25.3711 13.3588C21.1237 12.5121 15.1251 12.9135 11.9078 16.1249ZM11.0641 20.4374C11.0558 20.7479 11.0509 21.0584 11.0465 21.369C11.0442 21.4559 11.0418 21.5427 11.0394 21.6322C11.0279 22.719 11.3646 23.4317 12.1067 24.2079C14.7634 26.7556 19.0504 27.0874 22.5338 27.0266C25.5435 26.9577 29.1355 26.2695 31.354 24.0761C31.9495 23.4255 32.2662 22.8159 32.2607 21.9297C32.2604 21.8424 32.2601 21.7551 32.2598 21.6651C32.259 21.5752 32.2583 21.4852 32.2574 21.3925C32.2568 21.2548 32.2568 21.2548 32.2562 21.1143C32.2551 20.8887 32.2535 20.663 32.2516 20.4374C32.2094 20.4739 32.1672 20.5103 32.1237 20.5479C30.1399 22.2559 27.7899 23.1288 25.2203 23.5312C25.1142 23.5478 25.0081 23.5645 24.8988 23.5817C23.8397 23.7318 22.7909 23.7561 21.7223 23.7538C21.6318 23.7538 21.5412 23.7537 21.448 23.7537C18.6927 23.7465 15.9945 23.3546 13.5016 22.1249C13.4054 22.0775 13.3092 22.0302 13.2101 21.9813C12.6314 21.6808 12.1265 21.3232 11.6266 20.9062C11.5772 20.8651 11.5279 20.824 11.477 20.7817C11.3393 20.667 11.2017 20.5522 11.0641 20.4374ZM11.0641 24.6562C10.9799 26.5515 10.9799 26.5515 11.8492 28.1835C14.028 30.4195 17.7804 31.1798 20.7847 31.2305C21.105 31.2345 21.4253 31.2359 21.7457 31.2362C21.8084 31.2363 21.8711 31.2364 21.9356 31.2365C22.824 31.3045 22.824 31.3045 23.5929 30.9748C23.6427 30.9122 23.6925 30.8496 23.7438 30.7851C25.5121 28.6929 28.5579 27.8907 31.1821 27.5612C31.2566 27.5516 31.3311 27.5419 31.4078 27.532C31.4736 27.5242 31.5393 27.5164 31.6071 27.5083C31.8128 27.4729 31.8128 27.4729 32.0641 27.2812C32.2868 26.7258 32.2738 26.1913 32.2633 25.5995C32.2625 25.5086 32.2616 25.4176 32.2607 25.3239C32.2585 25.1013 32.2555 24.8787 32.2516 24.6562C32.2106 24.692 32.1696 24.7278 32.1274 24.7648C30.3635 26.2943 28.3303 27.1179 26.0582 27.5858C25.9898 27.6 25.9215 27.6142 25.851 27.6288C24.4747 27.892 23.0915 27.9732 21.693 27.9667C21.6158 27.9665 21.5387 27.9664 21.4592 27.9662C18.0177 27.9534 14.2192 27.356 11.5328 25.0312C11.377 24.9056 11.2209 24.7805 11.0641 24.6562ZM24.5641 31.3124C24.5075 31.3693 24.451 31.4262 24.3927 31.4849C23.9249 31.9856 23.7122 32.4964 23.6793 33.1815C23.7148 34.1468 24.2673 34.7747 24.9277 35.4228C27.6035 37.8877 32.0932 38.1927 35.5328 38.0624C38.4911 37.8747 41.867 37.2157 44.0641 35.0624C44.6102 34.3888 44.8657 33.7897 44.8496 32.9186C44.792 32.4425 44.6052 32.0849 44.3453 31.6874C44.3079 31.6299 44.2704 31.5724 44.2318 31.5131C42.6778 29.4599 39.3568 28.7682 36.9625 28.4358C33.0591 27.948 27.4786 28.2454 24.5641 31.3124ZM11.0641 28.8749C11.0558 29.1854 11.0509 29.4959 11.0465 29.8065C11.0442 29.8934 11.0418 29.9802 11.0394 30.0697C11.0287 31.0839 11.3064 31.7925 12.0016 32.5312C12.7462 33.2584 13.5905 33.7109 14.5328 34.1249C14.5924 34.1511 14.652 34.1773 14.7133 34.2044C16.1917 34.8391 17.8127 35.172 19.4078 35.3437C19.4996 35.354 19.5913 35.3644 19.6858 35.3751C20.6843 35.4702 21.6872 35.4435 22.6891 35.4374C22.72 34.3855 22.751 33.3337 22.7828 32.2499C22.2144 32.2325 22.2144 32.2325 21.6344 32.2147C17.7753 32.0753 14.0832 31.4326 11.0641 28.8749ZM11.0641 33.0937C10.958 34.6064 10.958 34.6064 11.4391 35.9999C11.4825 36.0701 11.5259 36.1403 11.5706 36.2127C12.9885 38.2478 15.8828 38.929 18.1748 39.3558C19.0401 39.51 19.8894 39.5857 20.7672 39.621C20.9204 39.6282 20.9204 39.6282 21.0767 39.6356C21.1766 39.6398 21.2765 39.6439 21.3795 39.6481C21.469 39.6519 21.5585 39.6557 21.6507 39.6597C21.9983 39.6554 22.3441 39.6055 22.6891 39.5624C22.6891 38.5415 22.6891 37.5205 22.6891 36.4687C21.9292 36.4338 21.9292 36.4338 21.1539 36.3983C18.4536 36.2558 15.8598 35.882 13.4078 34.6874C13.2666 34.6196 13.2666 34.6196 13.1226 34.5504C12.5425 34.2543 12.0567 33.887 11.5621 33.4643C11.3416 33.271 11.3416 33.271 11.0641 33.0937ZM23.7203 35.7187C23.6205 37.7162 23.6205 37.7162 24.611 39.3925C26.8475 41.4341 30.3436 42.2026 33.2828 42.2812C33.3519 42.2831 33.421 42.285 33.4922 42.287C36.842 42.367 41.06 41.9592 43.6598 39.6093C44.1708 39.1095 44.7897 38.4949 44.8247 37.7388C44.8242 37.6499 44.8237 37.5611 44.8232 37.4695C44.8229 37.3731 44.8226 37.2768 44.8223 37.1775C44.8215 37.077 44.8208 36.9765 44.8199 36.8729C44.8193 36.7206 44.8193 36.7206 44.8187 36.5651C44.8176 36.3142 44.816 36.0633 44.8141 35.8124C44.7669 35.8482 44.7197 35.8841 44.671 35.921C40.7788 38.861 35.7741 39.4529 31.0284 38.8036C28.281 38.3963 25.8624 37.5161 23.7203 35.7187ZM11.0641 37.2187C11.0558 37.5292 11.0509 37.8397 11.0465 38.1503C11.0442 38.2371 11.0418 38.324 11.0394 38.4134C11.0292 39.3795 11.2793 40.0536 11.9078 40.7812C11.9736 40.8618 11.9736 40.8618 12.0408 40.9441C13.4271 42.4944 15.8548 43.1222 17.8141 43.4999C17.89 43.5152 17.9659 43.5306 18.0441 43.5464C19.82 43.8925 21.6388 43.8085 23.4391 43.7812C23.3996 43.6964 23.36 43.6117 23.3193 43.5244C23.2423 43.3586 23.2423 43.3586 23.1637 43.1894C23.1126 43.0795 23.0615 42.9697 23.0088 42.8565C22.8574 42.5197 22.7713 42.2502 22.7532 41.8845C22.7492 41.8093 22.7453 41.7341 22.7413 41.6566C22.7376 41.5784 22.7339 41.5003 22.7301 41.4198C22.724 41.301 22.724 41.301 22.7178 41.1798C22.7079 40.9844 22.6984 40.789 22.6891 40.5937C22.6239 40.5947 22.5588 40.5958 22.4917 40.5969C18.7749 40.6299 14.2473 40.2115 11.3845 37.5384C11.2775 37.432 11.1708 37.3253 11.0641 37.2187ZM23.7203 39.9374C23.7065 40.2772 23.6983 40.6169 23.691 40.9569C23.6871 41.0519 23.6832 41.1469 23.6791 41.2448C23.6634 42.229 24.0311 42.9511 24.7014 43.6603C25.6488 44.5158 26.7467 45.0431 27.9391 45.4687C27.9996 45.4907 28.0601 45.5128 28.1224 45.5356C32.365 47.0607 37.6922 46.8749 41.7889 45.0163C43.0289 44.4233 44.1252 43.6439 44.7203 42.3749C44.8159 42.0881 44.8249 41.8945 44.8232 41.5945C44.8229 41.4981 44.8226 41.4018 44.8223 41.3025C44.8215 41.202 44.8208 41.1015 44.8199 40.9979C44.8193 40.8456 44.8193 40.8456 44.8187 40.6901C44.8176 40.4392 44.816 40.1883 44.8141 39.9374C44.7503 39.9928 44.7503 39.9928 44.6852 40.0493C41.3923 42.8927 36.6977 43.4524 32.4969 43.1751C29.5346 42.9448 26.528 42.2179 24.1891 40.3124C24.1015 40.2423 24.0139 40.1722 23.9236 40.1C23.8565 40.0463 23.7894 39.9927 23.7203 39.9374Z" fill="#FF7705"></path>
  <path d="M36.4453 9.23477C36.5488 9.23457 36.5488 9.23457 36.6543 9.23436C36.7996 9.23452 36.9449 9.23559 37.0902 9.23754C37.3118 9.24026 37.5332 9.23947 37.7549 9.23825C37.8965 9.23884 38.0381 9.23962 38.1797 9.24063C38.2455 9.24036 38.3114 9.24008 38.3792 9.2398C38.788 9.24761 39.0543 9.30442 39.375 9.56253C39.5764 9.87467 39.5853 10.1295 39.5838 10.4965C39.5838 10.6091 39.5838 10.7216 39.5837 10.8376C39.5828 10.9587 39.5818 11.0798 39.5808 11.2046C39.5805 11.3302 39.5802 11.4558 39.58 11.5814C39.5793 11.9112 39.5775 12.241 39.5754 12.5708C39.5735 12.9077 39.5726 13.2445 39.5717 13.5813C39.5696 14.2417 39.5664 14.9021 39.5625 15.5625C39.6591 15.5604 39.6591 15.5604 39.7577 15.5582C39.8422 15.5571 39.9266 15.556 40.0137 15.5548C40.1393 15.5527 40.1393 15.5527 40.2675 15.5505C40.5694 15.5661 40.7388 15.6498 40.9688 15.8438C41.1596 16.13 41.2258 16.3114 41.2134 16.6553C41.0812 17.1636 40.6625 17.5316 40.3125 17.9063C40.2573 17.9659 40.202 18.0255 40.1451 18.087C39.8481 18.4069 39.5492 18.7249 39.2483 19.0412C38.905 19.4039 38.5764 19.7784 38.25 20.1563C37.8635 20.5993 37.8635 20.5993 37.5 20.7129C37.1107 20.721 36.8946 20.6575 36.598 20.3987C36.2545 20.0636 35.9396 19.704 35.6265 19.3407C35.3958 19.0774 35.1591 18.8199 34.9219 18.5625C33.5025 17.0176 33.5025 17.0176 33.4219 16.4532C33.4809 16.0402 33.6185 15.9145 33.9375 15.6563C34.1742 15.5379 34.3418 15.5533 34.6055 15.5567C34.7334 15.5579 34.7334 15.5579 34.864 15.5592C34.9295 15.5603 34.995 15.5614 35.0625 15.5625C35.0621 15.4955 35.0617 15.4284 35.0612 15.3593C35.0575 14.7262 35.0546 14.093 35.0528 13.4599C35.0518 13.1345 35.0505 12.809 35.0484 12.4835C35.0459 12.1091 35.045 11.7347 35.0442 11.3603C35.0427 11.1855 35.0427 11.1855 35.0413 11.0072C35.0412 10.8983 35.0412 10.7895 35.0412 10.6774C35.0408 10.5818 35.0404 10.4863 35.04 10.3878C35.0743 9.98778 35.1763 9.73489 35.4507 9.44239C35.7866 9.24048 36.0646 9.22868 36.4453 9.23477ZM36.0938 10.3125C36.0914 10.4966 36.0891 10.6807 36.0866 10.8704C36.0788 11.4774 36.0705 12.0843 36.0619 12.6913C36.0568 13.0594 36.0517 13.4275 36.0471 13.7957C36.0427 14.1507 36.0378 14.5057 36.0325 14.8607C36.0306 14.9964 36.0289 15.1321 36.0273 15.2678C36.025 15.4573 36.0222 15.6468 36.0192 15.8363C36.0178 15.9443 36.0163 16.0523 36.0148 16.1637C36 16.4063 36 16.4063 35.9062 16.5C35.7016 16.522 35.4964 16.5388 35.291 16.5528C35.1787 16.5606 35.0665 16.5685 34.9508 16.5766C34.8639 16.5823 34.777 16.5879 34.6875 16.5938C35.0074 17.0449 35.3418 17.4486 35.7389 17.8334C36.0305 18.1238 36.2943 18.4382 36.5625 18.75C36.6854 18.8908 36.8085 19.0314 36.9316 19.1719C37.0273 19.2813 37.123 19.3907 37.2188 19.5C37.4903 19.3781 37.6736 19.253 37.8739 19.0335C37.9244 18.9787 37.9748 18.9239 38.0268 18.8674C38.1054 18.7803 38.1054 18.7803 38.1855 18.6914C38.2397 18.6321 38.2939 18.5728 38.3498 18.5116C38.5046 18.3416 38.6587 18.1709 38.8125 18C38.916 17.886 38.916 17.886 39.0216 17.7697C39.3561 17.3953 39.653 17.0075 39.9375 16.5938C39.8506 16.5881 39.7637 16.5824 39.6742 16.5766C39.5058 16.5648 39.5058 16.5648 39.334 16.5528C39.1659 16.5413 39.1659 16.5413 38.9945 16.5297C38.7188 16.5 38.7188 16.5 38.625 16.4063C38.6134 16.2165 38.6083 16.0264 38.6058 15.8363C38.6029 15.6533 38.6029 15.6533 38.6001 15.4666C38.5985 15.3324 38.5969 15.1983 38.5953 15.0641C38.5934 14.9276 38.5914 14.7911 38.5894 14.6547C38.5842 14.2948 38.5796 13.9349 38.5751 13.575C38.5704 13.208 38.5652 12.8411 38.56 12.4741C38.5499 11.7536 38.5404 11.0331 38.5312 10.3125C37.7269 10.3125 36.9225 10.3125 36.0938 10.3125Z" fill="#FF7705"></path>
  <path d="M5.12231 9.24652C5.1912 9.24567 5.26008 9.24482 5.33106 9.24395C5.47651 9.24259 5.62198 9.24176 5.76744 9.24141C5.9889 9.2403 6.21011 9.23568 6.43152 9.23095C6.57324 9.23006 6.71496 9.22939 6.85669 9.22894C6.92233 9.22711 6.98798 9.22528 7.05561 9.22339C7.40964 9.22661 7.64155 9.28147 7.91728 9.49552C8.27426 9.87267 8.2637 10.1597 8.2626 10.6668C8.26259 10.83 8.26259 10.83 8.26257 10.9966C8.26209 11.1136 8.26161 11.2306 8.26111 11.3511C8.26098 11.4713 8.26084 11.5915 8.26071 11.7153C8.26035 12.034 8.25943 12.3527 8.25839 12.6714C8.25743 12.9969 8.257 13.3225 8.25653 13.648C8.25553 14.2862 8.25393 14.9244 8.25195 15.5626C8.31575 15.5605 8.37956 15.5585 8.44529 15.5564C8.57129 15.554 8.57129 15.554 8.69983 15.5516C8.78297 15.5495 8.8661 15.5475 8.95176 15.5454C9.31582 15.5717 9.47989 15.7004 9.75195 15.9376C9.89771 16.2291 9.87256 16.4591 9.8457 16.7813C9.57126 17.2589 9.21141 17.6389 8.83203 18.0352C8.71354 18.1605 8.59513 18.2859 8.47681 18.4113C8.42094 18.4705 8.36508 18.5296 8.30753 18.5905C8.13844 18.7712 7.97417 18.9553 7.8125 19.1426C7.7409 19.2246 7.7409 19.2246 7.66785 19.3082C7.57322 19.4176 7.47899 19.5274 7.386 19.6383C7.25428 19.7947 7.12044 19.9492 6.98633 20.1036C6.94516 20.1536 6.90398 20.2036 6.86156 20.2551C6.63217 20.5156 6.47502 20.6238 6.13965 20.7221C5.58618 20.7165 5.30836 20.4252 4.93555 20.045C4.62129 19.7235 4.32047 19.3939 4.02808 19.0525C3.84447 18.8424 3.65574 18.6376 3.46564 18.4333C3.24646 18.197 3.03035 17.9581 2.81445 17.7188C2.74448 17.6418 2.67451 17.5648 2.60242 17.4855C2.3273 17.1624 2.11965 16.9105 2.09375 16.4766C2.16455 16.0904 2.24954 15.9238 2.5332 15.6563C2.81585 15.5621 3.00587 15.5529 3.30078 15.5567C3.42749 15.558 3.42749 15.558 3.55676 15.5593C3.62118 15.5603 3.68559 15.5614 3.75195 15.5626C3.75133 15.4931 3.7507 15.4237 3.75006 15.3522C3.74442 14.697 3.74014 14.0418 3.73738 13.3866C3.73591 13.0498 3.73393 12.713 3.73074 12.3762C3.72767 12.051 3.726 11.7258 3.72527 11.4006C3.7245 11.2165 3.7223 11.0324 3.72009 10.8483C3.72007 10.7357 3.72005 10.6231 3.72002 10.5071C3.7194 10.4082 3.71878 10.3094 3.71813 10.2075C3.7571 9.89649 3.85118 9.72145 4.0332 9.46881C4.35789 9.2242 4.7313 9.24949 5.12231 9.24652ZM4.7832 10.3126C4.78085 10.4967 4.77851 10.6808 4.77608 10.8705C4.76823 11.4774 4.75996 12.0843 4.75139 12.6913C4.74621 13.0594 4.7412 13.4276 4.73658 13.7957C4.73212 14.1507 4.72721 14.5057 4.72199 14.8607C4.72007 14.9964 4.71832 15.1321 4.71673 15.2679C4.71448 15.4573 4.71161 15.6468 4.7087 15.8363C4.70724 15.9443 4.70579 16.0524 4.70429 16.1637C4.68945 16.4063 4.68945 16.4063 4.5957 16.5001C4.39105 16.5221 4.18583 16.5388 3.98047 16.5528C3.8682 16.5606 3.75593 16.5685 3.64026 16.5766C3.55337 16.5823 3.46648 16.588 3.37695 16.5938C3.7497 17.1123 4.14879 17.5857 4.58984 18.0469C4.70529 18.169 4.82064 18.2912 4.93591 18.4135C4.99043 18.4713 5.04495 18.5291 5.10112 18.5886C5.3783 18.8853 5.64529 19.1907 5.9082 19.5001C6.28735 19.3527 6.51812 19.0827 6.78125 18.7852C6.82678 18.7346 6.87231 18.684 6.91922 18.6319C7.05162 18.4843 7.18319 18.3361 7.31445 18.1876C7.37717 18.1167 7.4399 18.0459 7.50452 17.973C7.60918 17.8538 7.71346 17.7343 7.81726 17.6144C7.92949 17.4851 8.04266 17.3565 8.15637 17.2284C8.21692 17.1602 8.27746 17.0919 8.33984 17.0215C8.39483 16.9598 8.44982 16.898 8.50647 16.8344C8.63686 16.7071 8.63686 16.7071 8.62695 16.5938C8.54006 16.5881 8.45317 16.5824 8.36365 16.5766C8.19524 16.5648 8.19524 16.5648 8.02344 16.5528C7.8554 16.5414 7.8554 16.5414 7.68396 16.5297C7.4082 16.5001 7.4082 16.5001 7.31445 16.4063C7.30285 16.2165 7.29777 16.0264 7.2952 15.8363C7.2924 15.6533 7.2924 15.6533 7.28954 15.4666C7.28795 15.3324 7.28636 15.1983 7.28479 15.0641C7.28286 14.9277 7.28089 14.7912 7.27889 14.6547C7.2737 14.2948 7.26907 13.9349 7.26456 13.575C7.25985 13.2081 7.25463 12.8411 7.24945 12.4741C7.23936 11.7536 7.2299 11.0331 7.2207 10.3126C6.41633 10.3126 5.61195 10.3126 4.7832 10.3126Z" fill="#FF7705"></path>
  <path d="M21.4011 0.529771C21.5603 0.528219 21.7195 0.525662 21.8787 0.52208C22.1086 0.516937 22.3383 0.514894 22.5682 0.51352C22.6391 0.511395 22.7099 0.50927 22.7828 0.50708C23.162 0.508594 23.325 0.5457 23.6228 0.788316C23.902 1.14238 23.9198 1.31055 23.9188 1.75649C23.9188 1.92539 23.9188 1.92539 23.9188 2.09771C23.9183 2.21978 23.9179 2.34185 23.9174 2.46762C23.9172 2.59347 23.917 2.71931 23.917 2.84516C23.9166 3.17653 23.9157 3.50789 23.9146 3.83925C23.9137 4.17733 23.9133 4.51541 23.9128 4.85349C23.9118 5.51694 23.9102 6.18039 23.9082 6.84384C23.9859 6.84167 24.0636 6.83949 24.1436 6.83725C24.2961 6.83471 24.2961 6.83471 24.4517 6.83212C24.5525 6.82995 24.6534 6.82777 24.7574 6.82553C25.0332 6.84384 25.0332 6.84384 25.3379 7.03134C25.5048 7.31751 25.5829 7.52736 25.5569 7.86154C25.3341 8.67703 24.4114 9.3807 23.8434 9.98227C23.5115 10.3343 23.1914 10.695 22.877 11.0626C22.7581 11.2015 22.639 11.3402 22.5195 11.4786C22.4667 11.5404 22.4139 11.6021 22.3595 11.6657C22.1333 11.9051 22.021 11.9076 21.6816 11.9415C21.3224 11.935 21.1243 11.8419 20.8591 11.5874C20.6538 11.3652 20.453 11.1401 20.2567 10.9099C20.0261 10.6433 19.7878 10.3841 19.5488 10.1251C19.1517 9.69302 18.7557 9.26101 18.377 8.81259C18.3226 8.7512 18.2682 8.68981 18.2122 8.62656C17.956 8.31919 17.7775 8.07729 17.75 7.67001C17.8145 7.31259 17.8145 7.31259 17.9785 7.03134C18.3241 6.81868 18.4677 6.82356 18.8647 6.83212C18.9664 6.83382 19.0681 6.83551 19.1728 6.83725C19.2505 6.83943 19.3282 6.8416 19.4082 6.84384C19.4074 6.77462 19.4065 6.7054 19.4057 6.63408C19.3982 5.98032 19.3924 5.32656 19.3888 4.67276C19.3868 4.33667 19.3842 4.00061 19.3799 3.66454C19.3758 3.33993 19.3736 3.01536 19.3726 2.69073C19.3716 2.50721 19.3687 2.3237 19.3657 2.14019C19.3655 1.09497 19.3655 1.09497 19.7832 0.656343C20.2299 0.432996 20.9045 0.533319 21.4011 0.529771ZM20.4395 1.50009C20.4085 3.57291 20.3776 5.64572 20.3457 7.78134C19.9126 7.81228 19.4795 7.84322 19.0332 7.87509C19.3809 8.28863 19.7394 8.6906 20.1055 9.08798C21.1666 10.2407 21.1666 10.2407 21.4297 10.6144C21.4742 10.6695 21.5186 10.7246 21.5645 10.7813C21.7592 10.8033 21.7592 10.8033 21.8776 10.6568C21.9517 10.5676 21.9517 10.5676 22.0273 10.4767C22.3187 10.1336 22.6185 9.79949 22.9238 9.46884C23.6458 8.70606 23.6458 8.70606 24.2832 7.87509C23.6335 7.82869 23.6335 7.82869 22.9707 7.78134C22.9398 5.70853 22.9088 3.63572 22.877 1.50009C22.0726 1.50009 21.2682 1.50009 20.4395 1.50009Z" fill="#FF7705"></path>
  <path d="M34.5927 28.9687C34.8439 29.3455 34.7948 29.5539 34.7802 30C34.9368 30.0087 34.9368 30.0087 35.0966 30.0175C35.7109 30.0951 36.27 30.3598 36.7021 30.8027C36.7485 30.8781 36.7949 30.9535 36.8427 31.0312C36.8833 31.0912 36.9239 31.1511 36.9658 31.2129C37.0564 31.4847 36.999 31.6937 36.9365 31.9687C36.7508 32.0306 36.5652 32.0925 36.374 32.1562C35.9052 31.6875 35.9052 31.6875 35.7353 31.4882C35.471 31.2414 35.471 31.2414 34.7802 31.0312C34.7802 31.619 34.7802 32.2068 34.7802 32.8125C35.0587 32.8743 35.3371 32.9362 35.624 33C36.2068 33.2348 36.584 33.5056 36.9365 34.0312C37.0927 34.5 37.0842 34.9018 36.8896 35.3554C36.5934 35.8955 36.1216 36.1105 35.5595 36.3105C35.2874 36.367 35.0566 36.3917 34.7802 36.375C34.7841 36.4929 34.788 36.6109 34.7919 36.7324C34.8026 37.0585 34.7858 37.1166 34.5927 37.4062C34.3049 37.443 34.1133 37.4505 33.8544 37.3125C33.6829 37.0075 33.732 36.7205 33.749 36.375C33.6968 36.3658 33.6446 36.3566 33.5908 36.3471C32.6427 36.1614 32.1061 35.8604 31.5576 35.0625C31.4738 34.7943 31.5314 34.5822 31.5927 34.3125C31.7783 34.2506 31.964 34.1887 32.1552 34.125C32.3922 34.3619 32.6273 34.5974 32.8525 34.8457C33.1149 35.1116 33.1149 35.1116 33.6552 35.25C33.6552 34.724 33.6552 34.1981 33.6552 33.6562C33.4831 33.6059 33.311 33.5557 33.1337 33.5039C32.5437 33.3049 32.0945 33.0891 31.7689 32.5422C31.5711 32.0939 31.537 31.6867 31.6865 31.2187C31.9307 30.6712 32.3234 30.4248 32.8569 30.1812C33.1603 30.0686 33.4267 30.021 33.749 30C33.7432 29.882 33.7374 29.7641 33.7314 29.6425C33.7333 29.2778 33.7333 29.2778 33.8544 29.0625C34.1133 28.9244 34.3049 28.932 34.5927 28.9687ZM32.8115 31.4062C32.6642 31.6479 32.6642 31.6479 32.624 31.875C32.9958 32.2746 32.9958 32.2746 33.4677 32.5312C33.5605 32.5312 33.6533 32.5312 33.749 32.5312C33.749 32.0362 33.749 31.5412 33.749 31.0312C33.4032 31.0312 33.0949 31.2183 32.8115 31.4062ZM34.7802 33.8437C34.7802 34.3387 34.7802 34.8337 34.7802 35.3437C35.4133 35.2745 35.4133 35.2745 35.9052 34.9687C35.9883 34.7258 35.9883 34.7258 35.999 34.5C35.6165 34.1533 35.2617 34.0069 34.7802 33.8437Z" fill="#FF7705"></path>
  <path d="M21.762 13.7169C22.0315 13.7813 22.0315 13.7813 22.1253 13.8751C22.132 14.0332 22.1332 14.1915 22.1311 14.3497C22.1303 14.4359 22.1295 14.522 22.1286 14.6108C22.1275 14.6774 22.1264 14.744 22.1253 14.8126C22.2105 14.813 22.2105 14.813 22.2974 14.8133C22.9779 14.8447 23.4696 15.0387 24.0003 15.4688C24.2036 15.6927 24.2668 15.8306 24.3753 16.1251C24.3519 16.4942 24.3519 16.4942 24.2815 16.7813C23.9769 16.8575 23.9769 16.8575 23.6253 16.8751C23.4144 16.6642 23.4144 16.6642 23.2503 16.4063C22.9367 16.054 22.9367 16.054 22.219 15.8438C22.219 16.4317 22.219 17.0195 22.219 17.6251C22.4356 17.656 22.6522 17.687 22.8753 17.7188C23.5468 17.9631 24.0495 18.286 24.3753 18.9376C24.4468 19.5792 24.3932 20.0143 24.0003 20.5313C23.5229 20.961 22.7696 21.1876 22.1253 21.1876C22.1286 21.2463 22.1318 21.3051 22.1352 21.3656C22.1377 21.4422 22.1403 21.5188 22.1429 21.5977C22.1478 21.7119 22.1478 21.7119 22.1528 21.8285C22.1437 21.8954 22.1346 21.9624 22.1253 22.0313C21.844 22.2188 21.844 22.2188 21.5511 22.1895C21.2815 22.1251 21.2815 22.1251 21.1878 22.0313C21.181 21.8733 21.1799 21.7149 21.1819 21.5567C21.1828 21.4706 21.1836 21.3844 21.1845 21.2956C21.1856 21.229 21.1867 21.1624 21.1878 21.0938C21.066 21.088 20.9442 21.0822 20.8186 21.0763C20.1773 21.0035 19.6395 20.7255 19.219 20.2325C18.9357 19.8341 18.9114 19.6168 18.9378 19.1251C19.1253 18.9376 19.1253 18.9376 19.3831 18.879C19.6878 18.9376 19.6878 18.9376 19.8167 19.0921C19.8592 19.1571 19.9018 19.2222 19.9456 19.2892C20.2704 19.7789 20.6389 19.8846 21.1878 20.0626C21.1878 19.5057 21.1878 18.9488 21.1878 18.3751C20.8629 18.3287 20.8629 18.3287 20.5315 18.2813C19.86 18.0371 19.3573 17.7142 19.0315 17.0626C18.9722 16.5308 18.9788 16.0661 19.2817 15.6124C19.6433 15.1967 20.0895 14.938 20.6253 14.8126C20.9417 14.8009 20.9417 14.8009 21.1878 14.8126C21.1845 14.7471 21.1813 14.6816 21.1779 14.6141C21.1754 14.5288 21.1728 14.4435 21.1702 14.3556C21.1653 14.2283 21.1653 14.2283 21.1603 14.0985C21.1694 14.0248 21.1785 13.951 21.1878 13.8751C21.469 13.6876 21.469 13.6876 21.762 13.7169ZM20.1565 16.2188C20.0579 16.512 20.0579 16.512 20.0628 16.7813C20.4524 17.1355 20.6376 17.1866 21.1878 17.3438C21.1878 16.8488 21.1878 16.3538 21.1878 15.8438C20.7516 15.8438 20.4863 15.9325 20.1565 16.2188ZM22.1253 18.6563C22.1253 19.1513 22.1253 19.6463 22.1253 20.1563C22.7042 20.0616 22.7042 20.0616 23.2151 19.7989C23.3653 19.6003 23.3653 19.6003 23.344 19.3536C23.1969 18.995 22.9775 18.8912 22.6351 18.7325C22.4022 18.6415 22.4022 18.6415 22.1253 18.6563Z" fill="#FF7705"></path>
</svg>
