<?xml version="1.0" encoding="UTF-8"?>
<svg xmlns="http://www.w3.org/2000/svg" width="48" height="48" viewBox="0 0 48 48" fill="none">
  <path d="M23.3478 14.4406C24.493 15.367 25.276 16.5041 25.4998 17.9878C25.6527 19.6073 25.2932 20.9713 24.2893 22.262C24.3645 22.3172 24.4398 22.3724 24.5173 22.4292C26.7574 24.0819 26.7574 24.0819 27.1137 25.1589C27.6027 24.7485 28.051 24.3004 28.4987 23.8462C29.6077 22.7217 29.6077 22.7217 29.9653 22.6423C30.3475 22.7213 30.5381 22.931 30.8072 23.2035C30.8604 23.2566 30.9136 23.3098 30.9684 23.3645C31.073 23.4693 31.177 23.5747 31.2802 23.681C31.4181 23.8155 31.5566 23.9396 31.703 24.0642C32.135 24.4413 32.5402 24.8463 32.9478 25.2494C32.9903 25.2914 33.0329 25.3335 33.0767 25.3768C33.301 25.5988 33.525 25.821 33.7489 26.0435C33.9335 26.2268 34.1188 26.4095 34.3046 26.5917C34.5302 26.813 34.7547 27.0353 34.9785 27.2584C35.0636 27.3428 35.149 27.4269 35.2348 27.5106C35.3546 27.6276 35.4729 27.7458 35.591 27.8645C35.6586 27.9313 35.7261 27.9981 35.7958 28.067C35.978 28.3119 36.0094 28.4775 36.0215 28.7799C35.8729 29.1622 35.5199 29.4458 35.233 29.7299C35.1768 29.786 35.1207 29.8422 35.0628 29.9C34.9439 30.0187 34.8249 30.1371 34.7057 30.2554C34.5248 30.435 34.3444 30.6152 34.1641 30.7955C34.0482 30.9111 33.9323 31.0266 33.8163 31.1421C33.7629 31.1954 33.7096 31.2486 33.6546 31.3035C33.3646 31.5909 33.0676 31.8646 32.7586 32.1312C32.5206 32.3421 32.2983 32.568 32.0751 32.7942C32.0264 32.8431 31.9777 32.8921 31.9276 32.9425C31.7742 33.0967 31.6211 33.2512 31.468 33.4058C31.2647 33.611 31.0612 33.816 30.8575 34.0208C30.7877 34.0915 30.7877 34.0915 30.7165 34.1637C30.6734 34.207 30.6303 34.2503 30.586 34.2949C30.5482 34.3331 30.5103 34.3713 30.4714 34.4106C30.3297 34.5405 30.2275 34.5736 30.0377 34.6098C29.3848 34.5131 28.7948 33.6518 28.3497 33.1996C28.2921 33.1414 28.2345 33.0832 28.1751 33.0233C28.0987 32.9457 28.0987 32.9457 28.0208 32.8665C27.875 32.7263 27.7273 32.5943 27.5741 32.4627C27.2019 32.1393 26.8556 31.7911 26.5075 31.4422C26.437 31.3718 26.3666 31.3015 26.2961 31.2311C26.1498 31.0849 26.0035 30.9385 25.8574 30.792C25.67 30.6041 25.4822 30.4166 25.2944 30.2292C25.1494 30.0845 25.0046 29.9397 24.8599 29.7948C24.7571 29.6919 24.6542 29.5892 24.5512 29.4864C24.4583 29.3932 24.4583 29.3932 24.3636 29.2981C24.3089 29.2433 24.2542 29.1886 24.1978 29.1322C24.0467 28.97 24.0049 28.8803 23.9634 28.6622C24.0606 28.0063 24.9083 27.4284 25.3711 26.9694C25.449 26.8918 25.527 26.8142 25.6049 26.7366C25.7938 26.5484 25.9829 26.3605 26.1722 26.1728C25.738 25.0616 24.7878 24.1643 23.805 23.5204C23.7285 23.4701 23.6521 23.4199 23.5733 23.3682C23.3528 23.2537 23.3528 23.2537 23.1263 23.3201C22.9213 23.417 22.7224 23.5193 22.524 23.629C21.2842 24.2504 19.8902 24.3283 18.5607 23.9588C18.1917 23.834 17.8462 23.6514 17.5108 23.4546C17.2857 23.3284 17.1573 23.2698 16.899 23.3121C15.273 24.138 14.1361 25.622 13.571 27.3315C13.3734 28.019 13.2786 28.702 13.2584 29.4159C13.2569 29.4665 13.2554 29.5171 13.2538 29.5693C13.2492 29.7286 13.2449 29.8879 13.2406 30.0473C13.2374 30.1563 13.2343 30.2653 13.2311 30.3743C13.2234 30.6395 13.2161 30.9046 13.2089 31.1698C13.2639 31.1696 13.3188 31.1694 13.3755 31.1692C14.7124 31.1644 16.0494 31.1608 17.3864 31.1585C18.0329 31.1574 18.6794 31.1559 19.326 31.1534C19.8894 31.1512 20.4529 31.1498 21.0163 31.1494C21.3148 31.1491 21.6132 31.1484 21.9116 31.1468C22.1924 31.1454 22.4732 31.1449 22.754 31.1452C22.8571 31.1452 22.9602 31.1447 23.0633 31.1439C23.204 31.1428 23.3447 31.1432 23.4854 31.1437C23.5642 31.1435 23.643 31.1433 23.7241 31.1431C23.9552 31.1735 24.0535 31.2226 24.2169 31.3871C24.2943 31.666 24.3161 31.827 24.2078 32.0977C24.0037 32.3358 23.8029 32.3931 23.4933 32.4192C23.372 32.4193 23.372 32.4193 23.2482 32.4193C23.1083 32.42 23.1083 32.42 22.9657 32.4206C22.8629 32.4203 22.7602 32.42 22.6574 32.4197C22.5488 32.4199 22.4401 32.4202 22.3315 32.4205C22.0369 32.4211 21.7423 32.4209 21.4477 32.4204C21.1392 32.42 20.8308 32.4204 20.5223 32.4206C20.0044 32.4209 19.4864 32.4205 18.9684 32.4198C18.3698 32.4191 17.7711 32.4193 17.1724 32.4201C16.6582 32.4208 16.144 32.4209 15.6299 32.4205C15.3228 32.4202 15.0158 32.4202 14.7088 32.4207C14.4201 32.4211 14.1315 32.4208 13.8428 32.42C13.7369 32.4198 13.6311 32.4199 13.5252 32.4202C13.3805 32.4206 13.2359 32.42 13.0913 32.4193C13.0104 32.4193 12.9295 32.4192 12.8461 32.4192C12.5343 32.3929 12.3355 32.3168 12.1022 32.1089C11.9267 31.8059 11.9374 31.5519 11.9418 31.2074C11.9417 31.1403 11.9416 31.0732 11.9415 31.004C11.9416 30.8616 11.9425 30.7193 11.944 30.5769C11.946 30.3636 11.9455 30.1504 11.9445 29.9371C11.9457 28.8565 12.0224 27.7752 12.3851 26.7476C12.4033 26.6949 12.4214 26.6422 12.4402 26.5879C12.7652 25.6868 13.2212 24.8601 13.8607 24.145C13.9103 24.0859 13.96 24.0268 14.0112 23.9659C14.5932 23.2887 15.2755 22.7328 16.0333 22.262C16.0018 22.2259 15.9702 22.1898 15.9377 22.1526C14.9744 20.9911 14.6651 19.537 14.8022 18.0616C14.9427 17.0114 15.3984 16.026 16.1057 15.2372C16.1548 15.1822 16.2039 15.1272 16.2545 15.0706C16.6434 14.6588 17.0636 14.359 17.5541 14.0785C17.6253 14.0362 17.6253 14.0362 17.6979 13.9931C19.4629 13.02 21.7385 13.3025 23.3478 14.4406ZM16.9748 16.1063C16.2164 17.078 15.9562 18.155 16.0333 19.3652C16.179 20.4796 16.8206 21.4344 17.6809 22.1353C18.6855 22.8411 19.7764 23.0416 20.9755 22.8827C22.0626 22.6491 23.0183 21.9911 23.633 21.0671C24.2782 19.9712 24.4569 18.8549 24.1378 17.6192C23.8284 16.5432 23.1179 15.7358 22.1746 15.1638C20.4004 14.1911 18.319 14.6501 16.9748 16.1063ZM29.8311 24.3075C29.7894 24.3497 29.7478 24.3919 29.7048 24.4354C29.6337 24.5069 29.6337 24.5069 29.5611 24.5798C29.5098 24.6321 29.4585 24.6844 29.4057 24.7382C29.3526 24.7917 29.2995 24.8451 29.2449 24.9002C29.0743 25.0721 28.9042 25.2444 28.7341 25.4169C28.5656 25.5874 28.3969 25.7579 28.228 25.9281C28.1228 26.0342 28.0179 26.1404 27.9131 26.2469C27.6277 26.5351 27.3343 26.8078 27.027 27.0726C26.8573 27.2208 26.6976 27.3773 26.5389 27.5372C26.4786 27.5976 26.4184 27.6581 26.3564 27.7203C26.2956 27.7817 26.2348 27.8431 26.1722 27.9063C26.1092 27.9697 26.0462 28.033 25.9813 28.0983C25.8275 28.2529 25.6739 28.4077 25.5204 28.5627C25.628 28.8219 25.7716 28.9624 25.9835 29.1438C26.4193 29.5266 26.8277 29.9331 27.2365 30.344C27.315 30.4227 27.3935 30.5013 27.472 30.5799C27.6763 30.7844 27.8803 30.9891 28.0842 31.1939C28.2934 31.4038 28.5027 31.6135 28.712 31.8231C29.1209 32.2328 29.5296 32.6427 29.9381 33.0527C30.2348 32.9352 30.4331 32.722 30.6529 32.4992C30.6946 32.4575 30.7363 32.4158 30.7793 32.3729C30.9168 32.2353 31.0538 32.0972 31.1908 31.9591C31.2861 31.8635 31.3815 31.7679 31.4769 31.6723C31.7277 31.4209 31.9781 31.1691 32.2284 30.9172C32.484 30.6602 32.74 30.4035 32.9959 30.1469C33.4979 29.6433 33.9994 29.1393 34.5006 28.6351C34.431 28.5535 34.3613 28.472 34.2917 28.3905C34.2335 28.3224 34.2335 28.3224 34.1741 28.2529C33.9048 27.9418 33.6088 27.6612 33.2959 27.3946C32.9457 27.0894 32.6207 26.7616 32.2946 26.431C32.1651 26.3007 32.0357 26.1703 31.9062 26.0399C31.7039 25.8358 31.5017 25.6316 31.2997 25.4272C31.1036 25.2289 30.907 25.0311 30.7104 24.8333C30.6496 24.7715 30.5888 24.7097 30.5262 24.6461C30.47 24.5897 30.4139 24.5333 30.3561 24.4753C30.3067 24.4253 30.2573 24.3754 30.2064 24.324C30.0497 24.1887 29.9919 24.1721 29.8311 24.3075Z" fill="#FF7705"></path>
  <path d="M6.90083 5.99967C7.54256 6.1686 8.19399 7.0993 8.65537 7.56256C8.75357 7.6609 8.85179 7.75922 8.95002 7.85752C9.20687 8.11464 9.46349 8.37198 9.72007 8.62936C9.98259 8.89263 10.2453 9.15569 10.508 9.41877C11.0223 9.93376 11.5363 10.449 12.0501 10.9644C12.0424 10.907 12.0347 10.8497 12.0267 10.7906C11.9924 10.5303 11.9601 10.2698 11.9279 10.0093C11.9157 9.91908 11.9035 9.82885 11.891 9.73589C11.8805 9.64884 11.87 9.56179 11.8591 9.47209C11.8489 9.39207 11.8387 9.31205 11.8281 9.2296C11.8337 8.9682 11.8921 8.85252 12.0501 8.64689C12.3045 8.47731 12.4024 8.46611 12.7019 8.50205C12.9204 8.6158 13.0391 8.71411 13.1155 8.9526C13.1562 9.164 13.1863 9.37477 13.2134 9.58836C13.2246 9.66718 13.2358 9.74601 13.2474 9.82721C13.2713 9.99642 13.2946 10.1657 13.3174 10.3351C13.3547 10.6096 13.395 10.8836 13.436 11.1576C13.4629 11.3391 13.4898 11.5206 13.5166 11.7021C13.5293 11.7881 13.542 11.874 13.5551 11.9626C13.5667 12.0434 13.5782 12.1243 13.5902 12.2077C13.6056 12.3144 13.6056 12.3144 13.6214 12.4233C13.6822 12.9947 13.6822 12.9947 13.5302 13.2682C13.2624 13.5086 12.9991 13.5066 12.6528 13.4896C12.4195 13.4695 12.1871 13.4449 11.9545 13.4187C11.8693 13.4095 11.784 13.4003 11.6962 13.3908C11.5166 13.3711 11.3371 13.3511 11.1575 13.3308C10.8829 13.3 10.6081 13.2708 10.3332 13.2417C10.1585 13.2223 9.98373 13.2029 9.80901 13.1834C9.72693 13.1748 9.64484 13.1662 9.56027 13.1573C9.44533 13.1439 9.44533 13.1439 9.32806 13.1303C9.26091 13.1228 9.19377 13.1154 9.1246 13.1077C8.85446 13.0459 8.64318 12.9386 8.47432 12.716C8.41016 12.4915 8.43634 12.3464 8.50147 12.1231C8.60105 11.9511 8.60105 11.9511 8.79116 11.8334C9.33653 11.7865 9.89141 11.8517 10.4342 11.9058C10.5066 11.9127 10.579 11.9196 10.6536 11.9268C10.8294 11.9436 11.0053 11.9608 11.181 11.9783C11.1195 11.9169 11.058 11.8555 10.9946 11.7923C10.4157 11.2149 9.83702 10.6373 9.25853 10.0595C8.96109 9.76242 8.66358 9.46543 8.36592 9.16858C8.07885 8.88231 7.79196 8.59585 7.5052 8.30928C7.39557 8.19978 7.28587 8.09034 7.17611 7.98097C7.02281 7.82819 6.86973 7.6752 6.71672 7.52214C6.67093 7.47661 6.62514 7.43109 6.57796 7.38418C6.19107 6.99636 6.19107 6.99636 6.16138 6.62816C6.16566 6.41418 6.17925 6.33735 6.29264 6.14837C6.49775 6.02531 6.66093 5.98469 6.90083 5.99967Z" fill="#FF7705"></path>
  <path d="M41.6702 6.18484C41.8512 6.29347 41.8512 6.29347 41.9599 6.47452C42.011 6.75322 42.0392 6.93419 41.8798 7.17472C41.4155 7.68471 40.9257 8.16959 40.4371 8.6562C40.3387 8.7544 40.2404 8.85262 40.1421 8.95085C39.885 9.2077 39.6276 9.46432 39.3703 9.7209C39.107 9.98343 38.8439 10.2462 38.5808 10.5089C38.0659 11.0231 37.5506 11.5371 37.0353 12.0509C37.0926 12.0432 37.1499 12.0355 37.209 12.0275C37.4693 11.9933 37.7298 11.961 37.9903 11.9287C38.0805 11.9165 38.1708 11.9044 38.2637 11.8918C38.3508 11.8813 38.4378 11.8708 38.5275 11.86C38.6075 11.8497 38.6876 11.8395 38.77 11.8289C39.0314 11.8345 39.1471 11.8929 39.3527 12.0509C39.5226 12.3057 39.5396 12.4027 39.4976 12.7027C39.2323 13.0385 38.9904 13.1306 38.5796 13.1839C38.4991 13.1962 38.4991 13.1962 38.4169 13.2087C38.3035 13.2259 38.19 13.2423 38.0763 13.2581C37.9085 13.2815 37.741 13.3067 37.5735 13.3325C37.3 13.3744 37.0263 13.4143 36.7523 13.4532C36.5844 13.4771 36.4165 13.5016 36.2487 13.5261C36.1402 13.5416 36.0317 13.5571 35.9232 13.5726C35.8739 13.5799 35.8245 13.5871 35.7737 13.5945C35.0326 13.6984 35.0326 13.6984 34.7314 13.531C34.491 13.2632 34.493 12.9999 34.51 12.6536C34.5302 12.4204 34.5547 12.188 34.5809 11.9553C34.5947 11.8275 34.5947 11.8275 34.6088 11.697C34.6285 11.5174 34.6485 11.3379 34.6688 11.1584C34.6996 10.8837 34.7288 10.6089 34.758 10.334C34.7773 10.1593 34.7967 9.98456 34.8162 9.80984C34.8248 9.72776 34.8335 9.64568 34.8423 9.5611C34.8512 9.48447 34.8602 9.40784 34.8694 9.32889C34.8805 9.22818 34.8805 9.22818 34.8919 9.12543C34.9537 8.8553 35.061 8.64401 35.2836 8.47515C35.5081 8.41099 35.6532 8.43717 35.8765 8.50231C36.0485 8.60188 36.0485 8.60188 36.1662 8.79199C36.2132 9.33736 36.1479 9.89224 36.0938 10.435C36.0869 10.5074 36.08 10.5798 36.0729 10.6544C36.056 10.8303 36.0389 11.0061 36.0214 11.1819C36.0827 11.1203 36.1441 11.0588 36.2073 10.9954C36.7848 10.4165 37.3623 9.83785 37.9401 9.25936C38.2372 8.96192 38.5342 8.66441 38.831 8.36675C39.1173 8.07968 39.4038 7.7928 39.6903 7.50603C39.7998 7.3964 39.9093 7.2867 40.0186 7.17694C40.1714 7.02364 40.3244 6.87057 40.4775 6.71755C40.523 6.67176 40.5685 6.62597 40.6154 6.57879C40.9615 6.23354 41.1738 6.11716 41.6702 6.18484Z" fill="#FF7705"></path>
  <path d="M35.5099 34.5512C35.5773 34.5578 35.6447 34.5643 35.7141 34.571C35.8698 34.5864 36.0255 34.6022 36.1811 34.6181C36.3809 34.6386 36.5806 34.6587 36.7804 34.6784C37.0736 34.7074 37.3667 34.7375 37.6597 34.7682C37.7771 34.7804 37.8947 34.7924 38.0122 34.804C38.1794 34.8206 38.3464 34.8384 38.5134 34.8565C38.5635 34.8612 38.6136 34.866 38.6652 34.8709C38.968 34.9051 39.1788 34.973 39.4252 35.1532C39.5648 35.3373 39.5706 35.4272 39.5609 35.6602C39.483 35.9274 39.4466 36.0193 39.2079 36.1671C38.6625 36.2141 38.1076 36.1488 37.5648 36.0947C37.4924 36.0878 37.42 36.0809 37.3455 36.0738C37.1696 36.0569 36.9938 36.0398 36.818 36.0223C36.8795 36.0836 36.9411 36.145 37.0045 36.2083C37.5833 36.7857 38.162 37.3633 38.7405 37.941C39.038 38.2381 39.3355 38.5351 39.6331 38.8319C39.9202 39.1182 40.2071 39.4047 40.4938 39.6912C40.6035 39.8007 40.7132 39.9102 40.8229 40.0196C40.9762 40.1723 41.1293 40.3253 41.2823 40.4784C41.3281 40.5239 41.3739 40.5694 41.4211 40.6163C41.808 41.0042 41.808 41.0042 41.8377 41.3724C41.8334 41.5863 41.8198 41.6632 41.7064 41.8521C41.5013 41.9752 41.3381 42.0158 41.0982 42.0009C40.4565 41.8319 39.8051 40.9012 39.3437 40.438C39.2455 40.3396 39.1473 40.2413 39.049 40.143C38.7922 39.8859 38.5356 39.6285 38.279 39.3712C38.0165 39.1079 37.7537 38.8448 37.491 38.5818C36.9768 38.0668 36.4628 37.5515 35.949 37.0362C35.9605 37.1222 35.9605 37.1222 35.9723 37.2099C36.0066 37.4702 36.0389 37.7307 36.0712 37.9912C36.0833 38.0814 36.0955 38.1717 36.1081 38.2646C36.1186 38.3517 36.1291 38.4387 36.1399 38.5284C36.1501 38.6085 36.1604 38.6885 36.1709 38.7709C36.1653 39.0323 36.107 39.148 35.949 39.3536C35.6946 39.5232 35.5966 39.5344 35.2972 39.4985C35.0787 39.3847 34.9599 39.2864 34.8836 39.0479C34.8428 38.8365 34.8128 38.6258 34.7857 38.4122C34.7745 38.3333 34.7632 38.2545 34.7517 38.1733C34.7277 38.0041 34.7044 37.8348 34.6817 37.6654C34.6444 37.3909 34.6041 37.1169 34.5631 36.8429C34.5361 36.6614 34.5092 36.4799 34.4824 36.2984C34.4634 36.1695 34.4634 36.1695 34.4439 36.038C34.4324 35.9571 34.4208 35.8762 34.4089 35.7928C34.3986 35.7217 34.3883 35.6505 34.3777 35.5772C34.316 34.9975 34.316 34.9975 34.487 34.7323C34.793 34.4263 35.1118 34.5114 35.5099 34.5512Z" fill="#FF7705"></path>
  <path d="M13.2676 34.4694C13.508 34.7372 13.506 35.0005 13.489 35.3468C13.4688 35.5801 13.4443 35.8125 13.4181 36.0451C13.4089 36.1303 13.3997 36.2156 13.3902 36.3034C13.3705 36.483 13.3505 36.6625 13.3302 36.8421C13.2994 37.1167 13.2702 37.3915 13.241 37.6664C13.2217 37.8411 13.2023 38.0159 13.1828 38.1906C13.1742 38.2727 13.1655 38.3547 13.1567 38.4393C13.1478 38.5159 13.1388 38.5926 13.1297 38.6715C13.1222 38.7387 13.1147 38.8058 13.1071 38.875C13.0453 39.1451 12.938 39.3564 12.7154 39.5253C12.4909 39.5894 12.3458 39.5633 12.1225 39.4981C11.9505 39.3985 11.9505 39.3985 11.8328 39.2084C11.7858 38.6631 11.8511 38.1082 11.9052 37.5654C11.9121 37.493 11.919 37.4206 11.9262 37.346C11.943 37.1701 11.9601 36.9943 11.9776 36.8185C11.8856 36.9108 11.8856 36.9108 11.7917 37.005C11.2143 37.5839 10.6367 38.1626 10.0589 38.7411C9.76181 39.0385 9.46482 39.336 9.16797 39.6337C8.8817 39.9207 8.59524 40.2076 8.30867 40.4944C8.19917 40.604 8.08973 40.7137 7.98036 40.8235C7.82758 40.9768 7.67459 41.1299 7.52153 41.2829C7.476 41.3287 7.43048 41.3744 7.38357 41.4216C6.99575 41.8085 6.99575 41.8085 6.62755 41.8382C6.41357 41.8339 6.33674 41.8203 6.14776 41.7069C6.0247 41.5018 5.98408 41.3387 5.99906 41.0988C6.16799 40.457 7.09869 39.8056 7.56195 39.3442C7.66029 39.246 7.75861 39.1478 7.85691 39.0496C8.11403 38.7927 8.37137 38.5361 8.62875 38.2795C8.89202 38.017 9.15508 37.7543 9.41816 37.4915C9.93315 36.9773 10.4484 36.4633 10.9637 35.9495C10.9064 35.9572 10.8491 35.9649 10.79 35.9729C10.5297 36.0072 10.2692 36.0394 10.0087 36.0717C9.91847 36.0839 9.82824 36.0961 9.73528 36.1086C9.64823 36.1191 9.56118 36.1296 9.47148 36.1404C9.39146 36.1507 9.31144 36.1609 9.22899 36.1715C8.96759 36.1659 8.85191 36.1075 8.64628 35.9495C8.4767 35.6951 8.4655 35.5972 8.50144 35.2977C8.59469 35.1126 8.59469 35.1126 8.79112 34.9356C9.07028 34.8479 9.35427 34.8121 9.64377 34.7735C9.72752 34.7612 9.81128 34.7488 9.89757 34.7361C10.1653 34.697 10.4332 34.6602 10.7012 34.6233C10.8812 34.5972 11.0611 34.5709 11.241 34.5445C11.5713 34.4968 11.9017 34.4491 12.2324 34.4037C12.2987 34.3945 12.365 34.3853 12.4334 34.3758C12.9978 34.3195 12.9978 34.3195 13.2676 34.4694Z" fill="#FF7705"></path>
  <path d="M29.5034 25.7382C29.838 25.7382 30.1726 25.7382 30.5173 25.7382C30.545 28.4809 30.545 28.4809 30.3724 29.7213C30.1335 29.7213 29.8945 29.7213 29.6482 29.7213C29.519 28.8223 29.4851 27.9447 29.4943 27.0372C29.4951 26.9102 29.4957 26.7833 29.4963 26.6563C29.4979 26.3502 29.5004 26.0442 29.5034 25.7382Z" fill="#FF7705"></path>
  <path d="M25.6924 31.147C25.7751 31.1443 25.8578 31.1416 25.943 31.1388C26.1722 31.1696 26.1722 31.1696 26.3448 31.2978C26.5017 31.5143 26.5035 31.6415 26.4904 31.9009C26.4464 32.1134 26.3452 32.2048 26.1722 32.3284C25.8299 32.4424 25.5513 32.4339 25.2081 32.3238C25.0135 32.1835 25.0135 32.1835 24.9003 31.9436C24.8631 31.63 24.9127 31.5019 25.0859 31.2421C25.2895 31.1402 25.4654 31.1518 25.6924 31.147Z" fill="#FF7705"></path>
  <path d="M30.3726 30.3003C30.587 30.4879 30.6518 30.5993 30.6985 30.8797C30.6539 31.1471 30.5597 31.2664 30.3726 31.4591C30.166 31.5624 30.0225 31.554 29.7932 31.5315C29.5977 31.4011 29.4643 31.3082 29.3587 31.097C29.3276 30.8165 29.3358 30.6968 29.4945 30.4588C29.7648 30.1805 30.0115 30.1969 30.3726 30.3003Z" fill="#FF7705"></path>
</svg>
