<?xml version="1.0" encoding="UTF-8"?>
<svg xmlns="http://www.w3.org/2000/svg" width="48" height="48" viewBox="0 0 48 48" fill="none">
  <path d="M21.6207 12.0644C21.7072 12.0646 21.7938 12.0648 21.8829 12.065C23.199 12.0699 24.4877 12.1081 25.7809 12.3749C25.8723 12.3935 25.9637 12.4122 26.0578 12.4313C28.0652 12.8555 30.1121 13.5449 31.6871 14.9062C31.7587 14.9666 31.8302 15.027 31.9039 15.0893C32.5966 15.7211 33.1442 16.5891 33.2809 17.5312C33.2939 17.8473 33.2927 18.163 33.2915 18.4794C33.2915 18.5746 33.2916 18.6697 33.2916 18.7678C33.2915 19.0818 33.2908 19.3957 33.29 19.7097C33.2899 19.9277 33.2897 20.1456 33.2896 20.3635C33.2893 20.9367 33.2884 21.5099 33.2873 22.0831C33.2864 22.6681 33.2859 23.2532 33.2855 23.8382C33.2845 24.9859 33.2829 26.1335 33.2809 27.2812C33.3482 27.2809 33.4155 27.2807 33.4849 27.2805C33.7929 27.2796 34.101 27.2791 34.409 27.2785C34.5149 27.2782 34.6208 27.2778 34.73 27.2775C35.457 27.2765 36.168 27.2981 36.8903 27.3866C36.9939 27.3989 37.0975 27.4112 37.2043 27.4239C39.9388 27.7759 43.1377 28.6185 45.0146 30.7975C45.62 31.6176 45.9008 32.4144 45.8919 33.4311C45.8929 33.5728 45.8929 33.5728 45.8939 33.7174C45.8955 34.027 45.8945 34.3365 45.8932 34.646C45.8934 34.8629 45.8938 35.0798 45.8943 35.2967C45.8948 35.7502 45.894 36.2037 45.8923 36.6572C45.8901 37.2364 45.8914 37.8155 45.8936 38.3946C45.895 38.8422 45.8945 39.2898 45.8936 39.7374C45.8933 39.9508 45.8936 40.1643 45.8945 40.3778C45.8955 40.677 45.894 40.9761 45.8919 41.2753C45.8927 41.3622 45.8934 41.4491 45.8942 41.5386C45.8809 42.5844 45.5012 43.3847 44.8121 44.1562C44.7652 44.2117 44.7184 44.2673 44.67 44.3246C42.6679 46.529 38.9418 47.2696 36.1109 47.4546C35.5055 47.4812 34.9005 47.4825 34.2946 47.4784C34.2032 47.4781 34.1119 47.4778 34.0179 47.4776C30.8398 47.4629 27.6573 46.9235 24.9371 45.1874C24.843 45.0898 24.843 45.0898 24.747 44.9903C24.3311 44.7248 23.9591 44.771 23.4763 44.7857C23.3783 44.7869 23.2802 44.7881 23.1792 44.7893C22.8647 44.7933 22.5504 44.7996 22.236 44.8065C20.246 44.8483 18.2876 44.7878 16.3531 44.2675C16.2138 44.2311 16.2138 44.2311 16.0716 44.194C14.4845 43.767 12.8651 43.1031 11.6246 41.9999C11.5536 41.9397 11.4825 41.8795 11.4093 41.8175C10.714 41.1852 10.1704 40.3181 10.0309 39.3749C10.0172 39.0818 10.0174 38.789 10.0177 38.4956C10.0174 38.4066 10.0172 38.3177 10.0169 38.2261C10.0161 37.9278 10.0159 37.6296 10.0158 37.3314C10.0153 37.1176 10.0149 36.9039 10.0144 36.6901C10.0131 36.1092 10.0125 35.5283 10.0121 34.9474C10.0118 34.5843 10.0115 34.2213 10.011 33.8583C10.0099 32.8525 10.0089 31.8466 10.0086 30.8408C10.0086 30.7764 10.0086 30.7121 10.0085 30.6458C10.0085 30.5813 10.0085 30.5168 10.0085 30.4504C10.0084 30.3197 10.0084 30.189 10.0084 30.0584C10.0083 29.9936 10.0083 29.9288 10.0083 29.862C10.0079 28.8123 10.0063 27.7627 10.0041 26.713C10.0019 25.6344 10.0007 24.5557 10.0006 23.477C10.0005 22.8718 9.99996 22.2665 9.99828 21.6613C9.99673 21.0918 9.99653 20.5223 9.99736 19.9528C9.99743 19.7441 9.99702 19.5354 9.99609 19.3268C9.9949 19.0412 9.99545 18.7556 9.99643 18.47C9.99567 18.3881 9.99492 18.3061 9.99414 18.2217C10.004 16.9849 10.5093 16.0152 11.3492 15.1288C12.8931 13.6106 15.1438 12.8938 17.2145 12.4452C17.2792 12.4311 17.3438 12.4169 17.4105 12.4023C18.8069 12.1193 20.2003 12.0584 21.6207 12.0644ZM11.9059 16.1249C11.8567 16.173 11.8075 16.2211 11.7568 16.2707C11.326 16.7342 11.1035 17.3352 11.0153 17.953C11.1648 19.0001 11.7315 19.8101 12.5621 20.4433C14.8732 22.0216 17.7579 22.7767 20.5452 22.8035C20.6248 22.8044 20.7044 22.8053 20.7865 22.8063C24.3517 22.8389 28.4573 22.5629 31.2004 19.9829C31.2682 19.9163 31.336 19.8498 31.4059 19.7812C31.4553 19.7329 31.5047 19.6847 31.5557 19.635C31.9857 19.1708 32.2082 18.5709 32.2965 17.953C32.1769 17.1159 31.8128 16.5236 31.2184 15.9374C31.1588 15.8758 31.0992 15.8141 31.0378 15.7506C29.6149 14.3733 27.4801 13.7996 25.5934 13.4062C25.5194 13.3905 25.4454 13.3749 25.3692 13.3588C21.1218 12.5121 15.1232 12.9135 11.9059 16.1249ZM11.0621 20.4374C11.0538 20.7479 11.0489 21.0584 11.0446 21.369C11.0422 21.4559 11.0398 21.5427 11.0374 21.6322C11.026 22.719 11.3627 23.4317 12.1047 24.2079C14.7615 26.7556 19.0484 27.0874 22.5319 27.0266C25.5416 26.9577 29.1336 26.2695 31.352 24.0761C31.9475 23.4255 32.2642 22.8159 32.2588 21.9297C32.2585 21.8424 32.2582 21.7551 32.2579 21.6651C32.2571 21.5752 32.2563 21.4852 32.2555 21.3925C32.2549 21.2548 32.2549 21.2548 32.2542 21.1143C32.2531 20.8887 32.2516 20.663 32.2496 20.4374C32.2074 20.4739 32.1652 20.5103 32.1217 20.5479C30.1379 22.2559 27.7879 23.1288 25.2184 23.5312C25.1123 23.5478 25.0062 23.5645 24.8969 23.5817C23.8378 23.7318 22.789 23.7561 21.7203 23.7538C21.6298 23.7538 21.5393 23.7537 21.446 23.7537C18.6907 23.7465 15.9925 23.3546 13.4996 22.1249C13.4034 22.0775 13.3072 22.0302 13.2081 21.9813C12.6294 21.6808 12.1246 21.3232 11.6246 20.9062C11.5753 20.8651 11.5259 20.824 11.4751 20.7817C11.3373 20.667 11.1997 20.5522 11.0621 20.4374ZM11.0621 24.6562C10.9779 26.5515 10.9779 26.5515 11.8473 28.1835C14.026 30.4195 17.7785 31.1798 20.7827 31.2305C21.1031 31.2345 21.4234 31.2359 21.7438 31.2362C21.8064 31.2363 21.8691 31.2364 21.9337 31.2365C22.822 31.3045 22.822 31.3045 23.5909 30.9748C23.6407 30.9122 23.6905 30.8496 23.7418 30.7851C25.5101 28.6929 28.556 27.8907 31.1801 27.5612C31.2546 27.5516 31.3291 27.5419 31.4059 27.532C31.4716 27.5242 31.5374 27.5164 31.6051 27.5083C31.8108 27.4729 31.8108 27.4729 32.0621 27.2812C32.2849 26.7258 32.2719 26.1913 32.2614 25.5995C32.2605 25.5086 32.2597 25.4176 32.2588 25.3239C32.2566 25.1013 32.2535 24.8787 32.2496 24.6562C32.2086 24.692 32.1677 24.7278 32.1254 24.7648C30.3616 26.2943 28.3283 27.1179 26.0563 27.5858C25.9879 27.6 25.9195 27.6142 25.8491 27.6288C24.4727 27.892 23.0895 27.9732 21.691 27.9667C21.6139 27.9665 21.5367 27.9664 21.4572 27.9662C18.0157 27.9534 14.2172 27.356 11.5309 25.0312C11.3751 24.9056 11.2189 24.7805 11.0621 24.6562ZM24.5621 31.3124C24.5056 31.3693 24.449 31.4262 24.3907 31.4849C23.9229 31.9856 23.7102 32.4964 23.6774 33.1815C23.7128 34.1468 24.2654 34.7747 24.9258 35.4228C27.6016 37.8877 32.0912 38.1927 35.5309 38.0624C38.4892 37.8747 41.865 37.2157 44.0621 35.0624C44.6082 34.3888 44.8637 33.7897 44.8477 32.9186C44.7901 32.4425 44.6033 32.0849 44.3434 31.6874C44.3059 31.6299 44.2685 31.5724 44.2299 31.5131C42.6759 29.4599 39.3548 28.7682 36.9606 28.4358C33.0571 27.948 27.4766 28.2454 24.5621 31.3124ZM11.0621 28.8749C11.0538 29.1854 11.0489 29.4959 11.0446 29.8065C11.0422 29.8934 11.0398 29.9802 11.0374 30.0697C11.0267 31.0839 11.3045 31.7925 11.9996 32.5312C12.7443 33.2584 13.5885 33.7109 14.5309 34.1249C14.5904 34.1511 14.65 34.1773 14.7114 34.2044C16.1897 34.8391 17.8107 35.172 19.4059 35.3437C19.4976 35.354 19.5893 35.3644 19.6838 35.3751C20.6824 35.4702 21.6853 35.4435 22.6871 35.4374C22.7181 34.3855 22.749 33.3337 22.7809 32.2499C22.2124 32.2325 22.2124 32.2325 21.6324 32.2147C17.7733 32.0753 14.0812 31.4326 11.0621 28.8749ZM11.0621 33.0937C10.956 34.6064 10.956 34.6064 11.4371 35.9999C11.4805 36.0701 11.5239 36.1403 11.5686 36.2127C12.9866 38.2478 15.8809 38.929 18.1728 39.3558C19.0381 39.51 19.8874 39.5857 20.7653 39.621C20.9184 39.6282 20.9184 39.6282 21.0747 39.6356C21.1746 39.6398 21.2746 39.6439 21.3776 39.6481C21.4671 39.6519 21.5565 39.6557 21.6487 39.6597C21.9964 39.6554 22.3422 39.6055 22.6871 39.5624C22.6871 38.5415 22.6871 37.5205 22.6871 36.4687C21.9272 36.4338 21.9272 36.4338 21.152 36.3983C18.4516 36.2558 15.8578 35.882 13.4059 34.6874C13.2647 34.6196 13.2647 34.6196 13.1206 34.5504C12.5406 34.2543 12.0548 33.887 11.5602 33.4643C11.3397 33.271 11.3397 33.271 11.0621 33.0937ZM23.7184 35.7187C23.6186 37.7162 23.6186 37.7162 24.609 39.3925C26.8455 41.4341 30.3416 42.2026 33.2809 42.2812C33.35 42.2831 33.419 42.285 33.4902 42.287C36.8401 42.367 41.058 41.9592 43.6578 39.6093C44.1688 39.1095 44.7878 38.4949 44.8228 37.7388C44.8223 37.6499 44.8218 37.5611 44.8213 37.4695C44.821 37.3731 44.8207 37.2768 44.8204 37.1775C44.8196 37.077 44.8188 36.9765 44.818 36.8729C44.8174 36.7206 44.8174 36.7206 44.8167 36.5651C44.8156 36.3142 44.8141 36.0633 44.8121 35.8124C44.7649 35.8482 44.7177 35.8841 44.6691 35.921C40.7768 38.861 35.7721 39.4529 31.0265 38.8036C28.279 38.3963 25.8604 37.5161 23.7184 35.7187ZM11.0621 37.2187C11.0538 37.5292 11.0489 37.8397 11.0446 38.1503C11.0422 38.2371 11.0398 38.324 11.0374 38.4134C11.0272 39.3795 11.2773 40.0536 11.9059 40.7812C11.9717 40.8618 11.9717 40.8618 12.0388 40.9441C13.4252 42.4944 15.8529 43.1222 17.8121 43.4999C17.888 43.5152 17.9639 43.5306 18.0422 43.5464C19.818 43.8925 21.6368 43.8085 23.4371 43.7812C23.3976 43.6964 23.3581 43.6117 23.3174 43.5244C23.2403 43.3586 23.2403 43.3586 23.1617 43.1894C23.1106 43.0795 23.0595 42.9697 23.0068 42.8565C22.8554 42.5197 22.7694 42.2502 22.7512 41.8845C22.7473 41.8093 22.7434 41.7341 22.7393 41.6566C22.7356 41.5784 22.7319 41.5003 22.7281 41.4198C22.7221 41.301 22.7221 41.301 22.7159 41.1798C22.7059 40.9844 22.6965 40.789 22.6871 40.5937C22.622 40.5947 22.5569 40.5958 22.4897 40.5969C18.7729 40.6299 14.2453 40.2115 11.3826 37.5384C11.2756 37.432 11.1688 37.3253 11.0621 37.2187ZM23.7184 39.9374C23.7046 40.2772 23.6964 40.6169 23.6891 40.9569C23.6852 41.0519 23.6812 41.1469 23.6772 41.2448C23.6614 42.229 24.0291 42.9511 24.6995 43.6603C25.6469 44.5158 26.7448 45.0431 27.9371 45.4687C27.9976 45.4907 28.0581 45.5128 28.1204 45.5356C32.363 47.0607 37.6903 46.8749 41.787 45.0163C43.0269 44.4233 44.1232 43.6439 44.7184 42.3749C44.814 42.0881 44.8229 41.8945 44.8213 41.5945C44.821 41.4981 44.8207 41.4018 44.8204 41.3025C44.8196 41.202 44.8188 41.1015 44.818 40.9979C44.8174 40.8456 44.8174 40.8456 44.8167 40.6901C44.8156 40.4392 44.8141 40.1883 44.8121 39.9374C44.7483 39.9928 44.7483 39.9928 44.6832 40.0493C41.3903 42.8927 36.6958 43.4524 32.4949 43.1751C29.5327 42.9448 26.526 42.2179 24.1871 40.3124C24.0995 40.2423 24.0119 40.1722 23.9216 40.1C23.8546 40.0463 23.7875 39.9927 23.7184 39.9374Z" fill="#FF7705"></path>
  <path d="M36.4453 9.23453C36.5488 9.23433 36.5488 9.23433 36.6543 9.23412C36.7996 9.23427 36.9449 9.23535 37.0902 9.2373C37.3118 9.24001 37.5332 9.23923 37.7549 9.23801C37.8965 9.23859 38.0381 9.23938 38.1797 9.24039C38.2455 9.24011 38.3114 9.23984 38.3792 9.23956C38.788 9.24736 39.0543 9.30418 39.375 9.56229C39.5764 9.87443 39.5853 10.1293 39.5838 10.4962C39.5838 10.6088 39.5838 10.7214 39.5837 10.8374C39.5828 10.9585 39.5818 11.0796 39.5808 11.2044C39.5805 11.33 39.5802 11.4555 39.58 11.5811C39.5793 11.9109 39.5775 12.2408 39.5754 12.5706C39.5735 12.9074 39.5726 13.2442 39.5717 13.5811C39.5696 14.2415 39.5664 14.9019 39.5625 15.5623C39.6591 15.5601 39.6591 15.5601 39.7577 15.558C39.8422 15.5569 39.9266 15.5557 40.0137 15.5546C40.1393 15.5525 40.1393 15.5525 40.2675 15.5503C40.5694 15.5659 40.7388 15.6495 40.9688 15.8435C41.1596 16.1298 41.2258 16.3112 41.2134 16.6551C41.0812 17.1633 40.6625 17.5314 40.3125 17.906C40.2573 17.9657 40.202 18.0253 40.1451 18.0867C39.8481 18.4067 39.5492 18.7247 39.2483 19.0409C38.905 19.4037 38.5764 19.7782 38.25 20.156C37.8635 20.5991 37.8635 20.5991 37.5 20.7127C37.1107 20.7208 36.8946 20.6572 36.598 20.3985C36.2545 20.0634 35.9396 19.7037 35.6265 19.3405C35.3958 19.0772 35.1591 18.8197 34.9219 18.5623C33.5025 17.0173 33.5025 17.0173 33.4219 16.4529C33.4809 16.04 33.6185 15.9143 33.9375 15.656C34.1742 15.5377 34.3418 15.553 34.6055 15.5564C34.7334 15.5577 34.7334 15.5577 34.864 15.559C34.9295 15.5601 34.995 15.5612 35.0625 15.5623C35.0621 15.4952 35.0617 15.4281 35.0612 15.359C35.0575 14.7259 35.0546 14.0928 35.0528 13.4597C35.0518 13.1342 35.0505 12.8088 35.0484 12.4833C35.0459 12.1089 35.045 11.7345 35.0442 11.36C35.0427 11.1852 35.0427 11.1852 35.0413 11.0069C35.0412 10.8981 35.0412 10.7893 35.0412 10.6771C35.0408 10.5816 35.0404 10.486 35.04 10.3876C35.0743 9.98753 35.1763 9.73464 35.4507 9.44215C35.7866 9.24023 36.0646 9.22844 36.4453 9.23453ZM36.0938 10.3123C36.0914 10.4964 36.0891 10.6805 36.0866 10.8702C36.0788 11.4771 36.0705 12.0841 36.0619 12.691C36.0568 13.0591 36.0517 13.4273 36.0471 13.7954C36.0427 14.1504 36.0378 14.5054 36.0325 14.8604C36.0306 14.9961 36.0289 15.1319 36.0273 15.2676C36.025 15.4571 36.0222 15.6465 36.0192 15.836C36.0178 15.9441 36.0163 16.0521 36.0148 16.1634C36 16.406 36 16.406 35.9062 16.4998C35.7016 16.5218 35.4964 16.5386 35.291 16.5525C35.1787 16.5604 35.0665 16.5682 34.9508 16.5763C34.8639 16.582 34.777 16.5877 34.6875 16.5935C35.0074 17.0447 35.3418 17.4483 35.7389 17.8332C36.0305 18.1235 36.2943 18.438 36.5625 18.7498C36.6854 18.8905 36.8085 19.0311 36.9316 19.1717C37.0273 19.281 37.123 19.3904 37.2188 19.4998C37.4903 19.3779 37.6736 19.2527 37.8739 19.0332C37.9244 18.9784 37.9748 18.9236 38.0268 18.8672C38.1054 18.7801 38.1054 18.7801 38.1855 18.6912C38.2397 18.6319 38.2939 18.5725 38.3498 18.5114C38.5046 18.3414 38.6587 18.1707 38.8125 17.9998C38.916 17.8858 38.916 17.8858 39.0216 17.7694C39.3561 17.395 39.653 17.0073 39.9375 16.5935C39.8506 16.5879 39.7637 16.5822 39.6742 16.5763C39.5058 16.5645 39.5058 16.5645 39.334 16.5525C39.1659 16.5411 39.1659 16.5411 38.9945 16.5295C38.7188 16.4998 38.7188 16.4998 38.625 16.406C38.6134 16.2163 38.6083 16.0261 38.6058 15.836C38.6029 15.653 38.6029 15.653 38.6001 15.4663C38.5985 15.3322 38.5969 15.198 38.5953 15.0639C38.5934 14.9274 38.5914 14.7909 38.5894 14.6544C38.5842 14.2945 38.5796 13.9347 38.5751 13.5748C38.5704 13.2078 38.5652 12.8408 38.56 12.4738C38.5499 11.7533 38.5404 11.0328 38.5312 10.3123C37.7269 10.3123 36.9225 10.3123 36.0938 10.3123Z" fill="#FF7705"></path>
  <path d="M5.12036 9.24627C5.18925 9.24543 5.25813 9.24458 5.3291 9.24371C5.47456 9.24235 5.62002 9.24151 5.76549 9.24117C5.98695 9.24005 6.20816 9.23544 6.42957 9.23071C6.57129 9.22982 6.71301 9.22914 6.85474 9.22869C6.92038 9.22686 6.98602 9.22503 7.05365 9.22314C7.40768 9.22637 7.63959 9.28122 7.91533 9.49527C8.27231 9.87243 8.26175 10.1595 8.26064 10.6665C8.26063 10.8298 8.26063 10.8298 8.26062 10.9963C8.26014 11.1133 8.25965 11.2303 8.25916 11.3509C8.25902 11.471 8.25889 11.5912 8.25875 11.715C8.2584 12.0337 8.25748 12.3525 8.25644 12.6712C8.25548 12.9967 8.25505 13.3222 8.25458 13.6478C8.25357 14.2859 8.25197 14.9241 8.25 15.5623C8.3138 15.5603 8.3776 15.5582 8.44334 15.5561C8.56933 15.5538 8.56933 15.5538 8.69788 15.5513C8.78101 15.5493 8.86415 15.5472 8.94981 15.5451C9.31387 15.5714 9.47793 15.7001 9.75 15.9373C9.89576 16.2288 9.8706 16.4588 9.84375 16.7811C9.56931 17.2586 9.20945 17.6387 8.83008 18.035C8.71159 18.1603 8.59318 18.2856 8.47485 18.4111C8.41899 18.4702 8.36313 18.5293 8.30557 18.5903C8.13648 18.7709 7.97222 18.9551 7.81055 19.1424C7.73894 19.2243 7.73894 19.2243 7.66589 19.3079C7.57126 19.4174 7.47703 19.5272 7.38405 19.6381C7.25233 19.7945 7.11848 19.9489 6.98438 20.1033C6.9432 20.1533 6.90203 20.2033 6.85961 20.2548C6.63022 20.5153 6.47307 20.6235 6.1377 20.7219C5.58423 20.7162 5.30641 20.425 4.93359 20.0447C4.61933 19.7232 4.31852 19.3937 4.02612 19.0523C3.84252 18.8422 3.65379 18.6373 3.46369 18.4331C3.24451 18.1968 3.0284 17.9579 2.8125 17.7186C2.74253 17.6416 2.67256 17.5646 2.60046 17.4853C2.32535 17.1622 2.1177 16.9103 2.0918 16.4764C2.1626 16.0902 2.24759 15.9235 2.53125 15.6561C2.8139 15.5618 3.00392 15.5526 3.29883 15.5565C3.42554 15.5577 3.42554 15.5577 3.55481 15.559C3.61922 15.5601 3.68364 15.5612 3.75 15.5623C3.74938 15.4929 3.74875 15.4235 3.74811 15.3519C3.74247 14.6967 3.73819 14.0416 3.73543 13.3864C3.73396 13.0495 3.73197 12.7127 3.72878 12.3759C3.72572 12.0507 3.72404 11.7255 3.72332 11.4003C3.72255 11.2162 3.72035 11.0321 3.71814 10.848C3.71811 10.7355 3.71809 10.6229 3.71807 10.5069C3.71745 10.408 3.71682 10.3091 3.71618 10.2072C3.75515 9.89625 3.84922 9.72121 4.03125 9.46856C4.35594 9.22396 4.72934 9.24925 5.12036 9.24627ZM4.78125 10.3123C4.7789 10.4964 4.77655 10.6805 4.77413 10.8702C4.76628 11.4772 4.758 12.0841 4.74944 12.691C4.74426 13.0592 4.73925 13.4273 4.73463 13.7955C4.73017 14.1505 4.72526 14.5054 4.72004 14.8604C4.71812 14.9962 4.71637 15.1319 4.71477 15.2676C4.71253 15.4571 4.70965 15.6466 4.70675 15.836C4.70529 15.9441 4.70383 16.0521 4.70233 16.1634C4.6875 16.4061 4.6875 16.4061 4.59375 16.4998C4.3891 16.5218 4.18387 16.5386 3.97852 16.5525C3.86625 16.5604 3.75398 16.5683 3.63831 16.5763C3.55141 16.582 3.46452 16.5877 3.375 16.5936C3.74775 17.112 4.14684 17.5854 4.58789 18.0467C4.70333 18.1688 4.81869 18.291 4.93396 18.4133C4.98848 18.471 5.043 18.5288 5.09917 18.5884C5.37635 18.8851 5.64334 19.1904 5.90625 19.4998C6.2854 19.3524 6.51617 19.0825 6.7793 18.785C6.82483 18.7344 6.87036 18.6838 6.91727 18.6316C7.04967 18.4841 7.18124 18.3359 7.3125 18.1873C7.37522 18.1165 7.43794 18.0457 7.50256 17.9727C7.60723 17.8536 7.7115 17.7341 7.81531 17.6142C7.92753 17.4848 8.04071 17.3563 8.15442 17.2282C8.21496 17.1599 8.27551 17.0916 8.33789 17.0213C8.39288 16.9595 8.44786 16.8978 8.50452 16.8342C8.63491 16.7069 8.63491 16.7069 8.625 16.5936C8.53811 16.5879 8.45122 16.5822 8.36169 16.5763C8.19329 16.5646 8.19329 16.5646 8.02148 16.5525C7.85344 16.5411 7.85344 16.5411 7.68201 16.5295C7.40625 16.4998 7.40625 16.4998 7.3125 16.4061C7.3009 16.2163 7.29581 16.0261 7.29325 15.836C7.29045 15.653 7.29045 15.653 7.28758 15.4664C7.28599 15.3322 7.28441 15.198 7.28284 15.0639C7.28091 14.9274 7.27894 14.7909 7.27693 14.6544C7.27175 14.2946 7.26712 13.9347 7.2626 13.5748C7.2579 13.2078 7.25268 12.8408 7.2475 12.4739C7.2374 11.7534 7.22794 11.0328 7.21875 10.3123C6.41437 10.3123 5.61 10.3123 4.78125 10.3123Z" fill="#FF7705"></path>
  <path d="M21.3991 0.529527C21.5583 0.527975 21.7175 0.525418 21.8767 0.521836C22.1066 0.516692 22.3363 0.51465 22.5663 0.513276C22.6371 0.511151 22.7079 0.509026 22.7809 0.506836C23.16 0.508349 23.323 0.545456 23.6209 0.788072C23.9001 1.14214 23.9178 1.31031 23.9169 1.75624C23.9169 1.92515 23.9169 1.92515 23.9169 2.09746C23.9164 2.21953 23.9159 2.34161 23.9154 2.46738C23.9152 2.59322 23.9151 2.71907 23.915 2.84492C23.9146 3.17628 23.9137 3.50764 23.9127 3.83901C23.9117 4.17709 23.9113 4.51516 23.9108 4.85324C23.9098 5.5167 23.9082 6.18015 23.9062 6.8436C23.9839 6.84142 24.0616 6.83925 24.1416 6.83701C24.2941 6.83447 24.2941 6.83447 24.4497 6.83188C24.5506 6.8297 24.6515 6.82753 24.7554 6.82529C25.0312 6.8436 25.0312 6.8436 25.3359 7.0311C25.5029 7.31727 25.581 7.52711 25.5549 7.8613C25.3321 8.67678 24.4095 9.38045 23.8414 9.98203C23.5096 10.334 23.1894 10.6947 22.875 11.0623C22.7561 11.2013 22.637 11.3399 22.5176 11.4784C22.4648 11.5401 22.412 11.6019 22.3575 11.6655C22.1313 11.9048 22.019 11.9073 21.6797 11.9413C21.3204 11.9348 21.1223 11.8417 20.8572 11.5871C20.6518 11.3649 20.4511 11.1399 20.2548 10.9096C20.0242 10.643 19.7859 10.3839 19.5469 10.1248C19.1497 9.69277 18.7537 9.26077 18.375 8.81235C18.3206 8.75096 18.2662 8.68956 18.2102 8.62631C17.9541 8.31895 17.7756 8.07704 17.748 7.66977C17.8125 7.31235 17.8125 7.31235 17.9766 7.0311C18.3221 6.81844 18.4657 6.82332 18.8628 6.83188C18.9645 6.83357 19.0661 6.83526 19.1709 6.83701C19.2485 6.83918 19.3262 6.84136 19.4062 6.8436C19.4054 6.77438 19.4046 6.70516 19.4037 6.63384C19.3962 5.98007 19.3905 5.32631 19.3868 4.67252C19.3849 4.33642 19.3822 4.00037 19.378 3.66429C19.3739 3.33969 19.3716 3.01512 19.3707 2.69049C19.3696 2.50696 19.3667 2.32345 19.3638 2.13995C19.3635 1.09473 19.3635 1.09473 19.7812 0.656098C20.2279 0.432752 20.9026 0.533074 21.3991 0.529527ZM20.4375 1.49985C20.4066 3.57266 20.3756 5.64547 20.3438 7.7811C19.9106 7.81204 19.4775 7.84297 19.0312 7.87485C19.379 8.28838 19.7375 8.69036 20.1035 9.08774C21.1646 10.2405 21.1646 10.2405 21.4277 10.6141C21.4722 10.6692 21.5167 10.7243 21.5625 10.7811C21.7573 10.8031 21.7573 10.8031 21.8756 10.6566C21.9498 10.5674 21.9498 10.5674 22.0254 10.4764C22.3168 10.1333 22.6165 9.79924 22.9219 9.4686C23.6438 8.70582 23.6438 8.70582 24.2812 7.87485C23.6316 7.82844 23.6316 7.82844 22.9688 7.7811C22.9378 5.70829 22.9069 3.63547 22.875 1.49985C22.0706 1.49985 21.2663 1.49985 20.4375 1.49985Z" fill="#FF7705"></path>
  <path d="M34.5937 28.9687C34.8449 29.3455 34.7958 29.5539 34.7812 30C34.9378 30.0087 34.9378 30.0087 35.0976 30.0175C35.7119 30.0951 36.271 30.3598 36.7031 30.8027C36.7495 30.8781 36.7959 30.9535 36.8437 31.0312C36.8843 31.0912 36.9249 31.1511 36.9667 31.2129C37.0574 31.4847 36.9999 31.6937 36.9374 31.9687C36.7518 32.0306 36.5662 32.0925 36.3749 32.1562C35.9062 31.6875 35.9062 31.6875 35.7363 31.4882C35.472 31.2414 35.472 31.2414 34.7812 31.0312C34.7812 31.619 34.7812 32.2068 34.7812 32.8125C35.0596 32.8743 35.3381 32.9362 35.6249 33C36.2078 33.2348 36.585 33.5056 36.9374 34.0312C37.0937 34.5 37.0852 34.9018 36.8906 35.3554C36.5944 35.8955 36.1226 36.1105 35.5605 36.3105C35.2883 36.367 35.0576 36.3917 34.7812 36.375C34.7851 36.4929 34.7889 36.6109 34.7929 36.7324C34.8036 37.0585 34.7868 37.1166 34.5937 37.4062C34.3059 37.443 34.1143 37.4505 33.8554 37.3125C33.6839 37.0075 33.733 36.7205 33.7499 36.375C33.6977 36.3658 33.6455 36.3566 33.5917 36.3471C32.6436 36.1614 32.1071 35.8604 31.5585 35.0625C31.4747 34.7943 31.5324 34.5822 31.5937 34.3125C31.7793 34.2506 31.9649 34.1887 32.1562 34.125C32.3931 34.3619 32.6283 34.5974 32.8535 34.8457C33.1159 35.1116 33.1159 35.1116 33.6562 35.25C33.6562 34.724 33.6562 34.1981 33.6562 33.6562C33.4841 33.6059 33.312 33.5557 33.1347 33.5039C32.5447 33.3049 32.0955 33.0891 31.7698 32.5422C31.5721 32.0939 31.538 31.6867 31.6874 31.2187C31.9317 30.6712 32.3244 30.4248 32.8579 30.1812C33.1613 30.0686 33.4277 30.021 33.7499 30C33.7441 29.882 33.7383 29.7641 33.7324 29.6425C33.7343 29.2778 33.7343 29.2778 33.8554 29.0625C34.1143 28.9244 34.3059 28.932 34.5937 28.9687ZM32.8124 31.4062C32.6652 31.6479 32.6652 31.6479 32.6249 31.875C32.9967 32.2746 32.9967 32.2746 33.4687 32.5312C33.5615 32.5312 33.6543 32.5312 33.7499 32.5312C33.7499 32.0362 33.7499 31.5412 33.7499 31.0312C33.4042 31.0312 33.0959 31.2183 32.8124 31.4062ZM34.7812 33.8437C34.7812 34.3387 34.7812 34.8337 34.7812 35.3437C35.4142 35.2745 35.4142 35.2745 35.9062 34.9687C35.9893 34.7258 35.9893 34.7258 35.9999 34.5C35.6174 34.1533 35.2627 34.0069 34.7812 33.8437Z" fill="#FF7705"></path>
  <path d="M21.762 13.7169C22.0315 13.7813 22.0315 13.7813 22.1253 13.8751C22.132 14.0332 22.1332 14.1915 22.1311 14.3497C22.1303 14.4359 22.1295 14.522 22.1286 14.6108C22.1275 14.6774 22.1264 14.744 22.1253 14.8126C22.2105 14.813 22.2105 14.813 22.2974 14.8133C22.9779 14.8447 23.4696 15.0387 24.0003 15.4688C24.2036 15.6927 24.2668 15.8306 24.3753 16.1251C24.3519 16.4942 24.3519 16.4942 24.2815 16.7813C23.9769 16.8575 23.9769 16.8575 23.6253 16.8751C23.4144 16.6642 23.4144 16.6642 23.2503 16.4063C22.9367 16.054 22.9367 16.054 22.219 15.8438C22.219 16.4317 22.219 17.0195 22.219 17.6251C22.4356 17.656 22.6522 17.687 22.8753 17.7188C23.5468 17.9631 24.0495 18.286 24.3753 18.9376C24.4468 19.5792 24.3932 20.0143 24.0003 20.5313C23.5229 20.961 22.7696 21.1876 22.1253 21.1876C22.1286 21.2463 22.1318 21.3051 22.1352 21.3656C22.1377 21.4422 22.1403 21.5188 22.1429 21.5977C22.1478 21.7119 22.1478 21.7119 22.1528 21.8285C22.1437 21.8954 22.1346 21.9624 22.1253 22.0313C21.844 22.2188 21.844 22.2188 21.5511 22.1895C21.2815 22.1251 21.2815 22.1251 21.1878 22.0313C21.181 21.8733 21.1799 21.7149 21.1819 21.5567C21.1828 21.4706 21.1836 21.3844 21.1845 21.2956C21.1856 21.229 21.1867 21.1624 21.1878 21.0938C21.066 21.088 20.9442 21.0822 20.8186 21.0763C20.1773 21.0035 19.6395 20.7255 19.219 20.2325C18.9357 19.8341 18.9114 19.6168 18.9378 19.1251C19.1253 18.9376 19.1253 18.9376 19.3831 18.879C19.6878 18.9376 19.6878 18.9376 19.8167 19.0921C19.8592 19.1571 19.9018 19.2222 19.9456 19.2892C20.2704 19.7789 20.6389 19.8846 21.1878 20.0626C21.1878 19.5057 21.1878 18.9488 21.1878 18.3751C20.8629 18.3287 20.8629 18.3287 20.5315 18.2813C19.86 18.0371 19.3573 17.7142 19.0315 17.0626C18.9722 16.5308 18.9788 16.0661 19.2817 15.6124C19.6433 15.1967 20.0895 14.938 20.6253 14.8126C20.9417 14.8009 20.9417 14.8009 21.1878 14.8126C21.1845 14.7471 21.1813 14.6816 21.1779 14.6141C21.1754 14.5288 21.1728 14.4435 21.1702 14.3556C21.1653 14.2283 21.1653 14.2283 21.1603 14.0985C21.1694 14.0248 21.1785 13.951 21.1878 13.8751C21.469 13.6876 21.469 13.6876 21.762 13.7169ZM20.1565 16.2188C20.0579 16.512 20.0579 16.512 20.0628 16.7813C20.4524 17.1355 20.6376 17.1866 21.1878 17.3438C21.1878 16.8488 21.1878 16.3538 21.1878 15.8438C20.7516 15.8438 20.4863 15.9325 20.1565 16.2188ZM22.1253 18.6563C22.1253 19.1513 22.1253 19.6463 22.1253 20.1563C22.7042 20.0616 22.7042 20.0616 23.2151 19.7989C23.3653 19.6003 23.3653 19.6003 23.344 19.3536C23.1969 18.995 22.9775 18.8912 22.6351 18.7325C22.4022 18.6415 22.4022 18.6415 22.1253 18.6563Z" fill="#FF7705"></path>
</svg>
