<?xml version="1.0" encoding="UTF-8"?>
<svg xmlns="http://www.w3.org/2000/svg" width="41" height="40" viewBox="0 0 41 40" fill="none">
  <g clip-path="url(#clip0_5230_117)">
    <path d="M-1.32504 -2.69508C-1.23419 -2.69546 -1.14334 -2.69583 -1.04974 -2.69621C-0.949132 -2.69619 -0.848526 -2.69618 -0.744871 -2.69616C-0.585482 -2.69662 -0.585482 -2.69662 -0.422873 -2.69709C-0.126958 -2.69793 0.168956 -2.69823 0.464873 -2.69846C0.783656 -2.69878 1.10244 -2.69958 1.42122 -2.70031C2.1916 -2.70195 2.96199 -2.70279 3.73237 -2.70353C4.095 -2.7039 4.45763 -2.70434 4.82026 -2.70478C6.02549 -2.7062 7.23072 -2.7074 8.43594 -2.70801C8.74883 -2.70817 9.06172 -2.70833 9.37461 -2.70849C9.45237 -2.70853 9.53014 -2.70857 9.61027 -2.70861C10.8702 -2.7093 12.1301 -2.71141 13.39 -2.71412C14.683 -2.71687 15.976 -2.71837 17.269 -2.71864C17.9952 -2.71882 18.7214 -2.71955 19.4475 -2.72167C20.066 -2.72348 20.6844 -2.72415 21.3029 -2.72334C21.6184 -2.72296 21.9339 -2.72312 22.2495 -2.72474C22.5916 -2.72647 22.9337 -2.72563 23.2759 -2.72453C23.3756 -2.72544 23.4752 -2.72635 23.5779 -2.72729C24.134 -2.72297 24.4847 -2.681 24.9338 -2.35078C25.3041 -1.88426 25.3725 -1.53671 25.3654 -0.961005C25.365 -0.90255 25.3646 -0.844095 25.3642 -0.783868C25.3632 -0.63991 25.3617 -0.495956 25.36 -0.352004C25.4506 -0.356835 25.5412 -0.361666 25.6345 -0.366643C26.8338 -0.411927 26.8338 -0.411927 27.2797 -0.0621428C27.7217 0.379862 27.7726 0.702384 27.7686 1.30843C27.7642 1.50477 27.7566 1.70041 27.7473 1.89662C27.8953 1.89082 27.8953 1.89082 28.0463 1.8849C28.1775 1.88178 28.3087 1.87875 28.44 1.87579C28.5048 1.873 28.5697 1.87021 28.6365 1.86734C29.0942 1.85963 29.3441 1.93472 29.7082 2.22974C30.0071 2.5612 30.1453 2.75177 30.1441 3.19095C30.1441 3.2693 30.1441 3.34765 30.1441 3.42838C30.1437 3.51314 30.1432 3.5979 30.1428 3.68523C30.1426 3.8152 30.1426 3.8152 30.1424 3.94779C30.1419 4.22529 30.1409 4.50277 30.1398 4.78026C30.1394 4.96808 30.139 5.1559 30.1386 5.34372C30.1377 5.80481 30.1362 6.2659 30.1345 6.72698C30.1919 6.7267 30.2493 6.72641 30.3085 6.72611C30.3844 6.72589 30.4603 6.72567 30.5385 6.72544C30.651 6.72501 30.651 6.72501 30.7658 6.72457C33.5928 6.75543 36.2222 8.0354 38.181 9.97174C39.2216 11.0383 39.9989 12.3399 40.4826 13.7331C40.5115 13.8164 40.5115 13.8164 40.5411 13.9014C40.8762 14.9344 41.0098 15.9474 40.9994 17.028C40.9991 17.1146 40.9991 17.1146 40.9987 17.2029C40.9827 19.6154 40.2072 21.7528 38.6602 23.6333C38.6 23.7095 38.5397 23.7857 38.4777 23.8643C38.2828 24.0922 38.2091 24.1251 37.9089 24.1642C37.6371 24.133 37.6371 24.133 37.392 23.9612C37.2108 23.7166 37.2108 23.7166 37.1415 23.4511C37.2297 23.047 37.4197 22.8546 37.6914 22.5454C38.204 21.923 39.0012 20.8767 39.0012 20.0521C38.9096 20.0285 38.818 20.0049 38.7236 19.9805C37.8594 19.7576 36.9951 19.5346 36.1308 19.3115C35.6865 19.1968 35.2422 19.0822 34.7979 18.9676C34.3689 18.857 33.9399 18.7462 33.511 18.6355C33.3475 18.5933 33.1841 18.5511 33.0206 18.509C32.7912 18.4499 32.5618 18.3906 32.3325 18.3314C32.2653 18.3141 32.1981 18.2968 32.1288 18.2789C32.034 18.2544 32.034 18.2544 31.9372 18.2294C31.8773 18.214 31.8174 18.1985 31.7557 18.1826C31.5913 18.1386 31.4282 18.09 31.2653 18.0412C30.914 17.9427 30.914 17.9427 30.5607 17.9701C30.337 18.1293 30.1494 18.3194 29.9567 18.5129C29.8976 18.5706 29.8385 18.6282 29.7776 18.6877C29.5823 18.8787 29.3887 19.0711 29.195 19.2636C29.0599 19.3962 28.9248 19.5288 28.7896 19.6613C28.4339 20.0103 28.0795 20.3606 27.7254 20.7111C27.3638 21.0686 27.0011 21.4249 26.6384 21.7812C25.9269 22.4807 25.2168 23.1815 24.5075 23.8831C26.0051 25.3794 28.3383 26.0174 30.4329 26.0693C31.9628 26.0314 33.358 25.681 34.7154 24.9954C35.0073 24.8772 35.1934 24.8492 35.5057 24.8825C35.7793 25.0631 35.8394 25.1927 35.9373 25.5019C35.932 25.7986 35.932 25.7986 35.7531 26.0075C34.34 27.1928 32.011 27.4709 30.2197 27.4643C30.2201 27.5405 30.2205 27.6168 30.2209 27.6954C30.2243 28.4147 30.2269 29.134 30.2285 29.8533C30.2294 30.2231 30.2306 30.5929 30.2326 30.9627C30.2344 31.3196 30.2355 31.6765 30.2359 32.0335C30.2362 32.1696 30.2368 32.3057 30.2377 32.4418C30.239 32.6326 30.2392 32.8233 30.2391 33.0141C30.2394 33.1227 30.2398 33.2313 30.2402 33.3431C30.1968 33.9442 29.9062 34.2188 29.4847 34.6247C29.4267 34.6814 29.3688 34.7382 29.3091 34.7967C29.1177 34.984 28.9254 35.1703 28.733 35.3565C28.5998 35.4864 28.4667 35.6163 28.3336 35.7463C28.0547 36.0183 27.7755 36.2899 27.4959 36.5611C27.1369 36.9094 26.7787 37.2584 26.4208 37.6077C26.1459 37.8758 25.8709 38.1437 25.5957 38.4115C25.4635 38.5401 25.3314 38.6688 25.1993 38.7976C25.015 38.977 24.8304 39.1562 24.6457 39.3353C24.5908 39.3889 24.5358 39.4424 24.4792 39.4976C23.9943 39.9668 23.9943 39.9668 23.5665 39.9678C23.494 39.9681 23.4216 39.9685 23.347 39.9689C23.2269 39.9689 23.2269 39.9689 23.1044 39.9688C22.9774 39.9693 22.9774 39.9693 22.8478 39.9698C22.5623 39.9707 22.2767 39.971 21.9912 39.9713C21.7871 39.9718 21.5831 39.9724 21.3791 39.973C20.7655 39.9746 20.152 39.9755 19.5384 39.9762C19.2495 39.9766 18.9606 39.977 18.6716 39.9775C17.7113 39.9789 16.7509 39.9801 15.7905 39.9807C15.5413 39.9808 15.292 39.981 15.0427 39.9812C14.9807 39.9812 14.9188 39.9812 14.8549 39.9813C13.8514 39.982 12.8478 39.9841 11.8443 39.9868C10.8141 39.9896 9.78393 39.9911 8.75373 39.9913C8.17527 39.9915 7.59682 39.9922 7.01836 39.9944C6.47414 39.9963 5.92994 39.9966 5.38571 39.9958C5.18592 39.9957 4.98613 39.9963 4.78635 39.9974C4.51362 39.9989 4.24098 39.9983 3.96825 39.9972C3.88917 39.9981 3.81008 39.999 3.72859 40C3.22235 39.9951 2.92519 39.9131 2.51108 39.6235C2.15832 39.1791 2.07384 38.8718 2.07946 38.317C2.08023 38.2187 2.081 38.1205 2.08179 38.0193C2.08278 37.944 2.08377 37.8688 2.08479 37.7912C2.01269 37.7941 1.9406 37.797 1.86632 37.8C0.612071 37.8293 0.612071 37.8293 0.142521 37.4038C-0.265229 36.9595 -0.314603 36.6169 -0.307744 36.0267C-0.307359 35.9643 -0.306975 35.9019 -0.306578 35.8375C-0.305575 35.6837 -0.304046 35.5299 -0.302415 35.3761C-0.401107 35.3799 -0.499799 35.3838 -0.601482 35.3878C-0.732696 35.3909 -0.863913 35.3939 -0.995131 35.3969C-1.05997 35.3997 -1.12482 35.4025 -1.19162 35.4053C-1.64935 35.4131 -1.89926 35.338 -2.26333 35.0429C-2.63688 34.6287 -2.7003 34.4253 -2.70106 33.8751C-2.70126 33.8139 -2.70147 33.7527 -2.70167 33.6896C-2.70224 33.4824 -2.7022 33.2752 -2.70217 33.0679C-2.70245 32.9187 -2.70277 32.7695 -2.70312 32.6203C-2.70397 32.2086 -2.70429 31.7969 -2.70452 31.3852C-2.70485 30.9418 -2.70566 30.4984 -2.70641 30.055C-2.7081 28.9834 -2.70895 27.9118 -2.70971 26.8402C-2.71008 26.336 -2.71054 25.8318 -2.71099 25.3276C-2.71244 23.6523 -2.71368 21.977 -2.71429 20.3016C-2.71446 19.8666 -2.71462 19.4317 -2.71479 18.9967C-2.71483 18.8886 -2.71487 18.7804 -2.71491 18.669C-2.71562 16.9167 -2.71778 15.1643 -2.72055 13.412C-2.72336 11.6143 -2.7249 9.8166 -2.72518 8.0189C-2.72536 7.00899 -2.72611 5.99908 -2.72828 4.98917C-2.73013 4.12927 -2.73082 3.26938 -2.72999 2.40948C-2.7296 1.97053 -2.72977 1.5316 -2.73142 1.09266C-2.73292 0.691027 -2.73285 0.289425 -2.73151 -0.112209C-2.73131 -0.257704 -2.73169 -0.403201 -2.73269 -0.548692C-2.73398 -0.746165 -2.73316 -0.943528 -2.73182 -1.141C-2.73191 -1.25077 -2.73199 -1.36054 -2.73207 -1.47364C-2.66819 -1.91627 -2.4625 -2.16947 -2.12479 -2.46009C-1.8309 -2.66406 -1.68194 -2.69441 -1.32504 -2.69508ZM-1.3255 -1.35139C-1.3255 10.3289 -1.3255 22.0093 -1.3255 34.0435C-0.987884 34.0435 -0.650265 34.0435 -0.302415 34.0435C-0.302364 33.9731 -0.302314 33.9027 -0.302261 33.8301C-0.299202 29.6567 -0.294375 25.4833 -0.287246 21.3099C-0.286392 20.809 -0.285553 20.3081 -0.284723 19.8072C-0.284475 19.6576 -0.284474 19.6576 -0.284221 19.505C-0.281575 17.8895 -0.280128 16.274 -0.279124 14.6585C-0.278066 13.0013 -0.275723 11.3441 -0.272182 9.6869C-0.270037 8.66401 -0.268899 7.64112 -0.269043 6.61823C-0.269046 5.91716 -0.267801 5.21611 -0.26557 4.51504C-0.264319 4.11033 -0.263624 3.70563 -0.264407 3.30092C-0.265112 2.93045 -0.264253 2.56002 -0.262145 2.18956C-0.261659 2.05549 -0.261749 1.92142 -0.262471 1.78735C-0.268628 0.537023 -0.268628 0.537023 0.123871 0.0644069C0.660845 -0.375594 1.25116 -0.317039 1.92626 -0.312965C2.04331 -0.31319 2.16036 -0.313514 2.2774 -0.313931C2.52164 -0.31442 2.76582 -0.313715 3.01005 -0.312152C3.32304 -0.310247 3.63594 -0.311353 3.94893 -0.313342C4.19016 -0.314545 4.43135 -0.314163 4.67258 -0.3133C4.84406 -0.31297 5.01555 -0.313981 5.18703 -0.315009C5.34286 -0.313434 5.34286 -0.313434 5.50183 -0.311827C5.59336 -0.311562 5.6849 -0.311297 5.77921 -0.311024C6.00663 -0.268722 6.00663 -0.268722 6.16492 -0.11024C6.33598 0.196239 6.25987 0.396634 6.17714 0.730664C5.91512 0.913724 5.67478 0.919616 5.35912 0.923783C5.21578 0.926265 5.21578 0.926265 5.06954 0.928798C4.96687 0.92976 4.86419 0.930722 4.75841 0.931713C4.65292 0.933326 4.54743 0.934939 4.43874 0.9366C4.15898 0.940734 3.87923 0.944172 3.59946 0.947272C3.3137 0.950611 3.02795 0.954878 2.7422 0.95904C2.18205 0.96704 1.62188 0.974123 1.0617 0.980511C1.05975 5.4882 1.05825 9.99589 1.05735 14.5036C1.05724 15.0351 1.05713 15.5667 1.05702 16.0983C1.05699 16.257 1.05699 16.257 1.05695 16.419C1.05658 18.135 1.05591 19.851 1.05512 21.5671C1.05433 23.3264 1.05385 25.0858 1.05368 26.8452C1.05356 27.9318 1.05319 29.0184 1.0525 30.1049C1.05205 30.849 1.05191 31.593 1.05203 32.337C1.05208 32.7669 1.05199 33.1969 1.05154 33.6268C1.05113 34.0198 1.0511 34.4127 1.05139 34.8056C1.05143 34.9484 1.05132 35.0912 1.05105 35.234C1.05072 35.4268 1.05089 35.6196 1.05121 35.8124C1.05118 35.9199 1.05115 36.0274 1.05111 36.1382C1.03392 36.3671 1.03392 36.3671 1.14696 36.4587C1.30493 36.4648 1.46312 36.4657 1.6212 36.4639C1.75061 36.4628 1.75061 36.4628 1.88264 36.4617C1.94935 36.4607 2.01606 36.4597 2.08479 36.4587C2.08487 36.3529 2.08487 36.3529 2.08494 36.2448C2.088 32.0624 2.09283 27.8799 2.09996 23.6975C2.10081 23.1955 2.10165 22.6934 2.10248 22.1914C2.10265 22.0914 2.10281 21.9915 2.10298 21.8885C2.10563 20.2695 2.10708 18.6506 2.10808 17.0316C2.10914 15.3708 2.11148 13.7099 2.11502 12.049C2.11717 11.024 2.11831 9.99892 2.11816 8.97385C2.11816 8.27119 2.11941 7.56854 2.12164 6.86588C2.12289 6.46031 2.12358 6.05476 2.1228 5.64919C2.12209 5.27785 2.12295 4.90654 2.12506 4.5352C2.12555 4.40091 2.12546 4.26661 2.12473 4.13232C2.11794 2.75081 2.11794 2.75081 2.51108 2.31303C3.00029 1.92635 3.45076 1.93222 4.06326 1.93668C4.2066 1.93574 4.2066 1.93574 4.35283 1.93478C4.67264 1.93309 4.99241 1.93377 5.31223 1.93443C5.54163 1.93371 5.77102 1.93285 6.00042 1.93183C6.4941 1.92989 6.98777 1.92915 7.48146 1.92925C8.19524 1.92939 8.90901 1.9277 9.62278 1.92556C10.7809 1.92214 11.939 1.9202 13.0972 1.91918C14.222 1.9182 15.3468 1.91652 16.4717 1.9139C16.541 1.91374 16.6104 1.91358 16.6819 1.91341C17.0299 1.9126 17.3779 1.91177 17.7259 1.91094C20.6116 1.90404 23.4974 1.89957 26.3831 1.89662C26.3831 1.5943 26.3831 1.29199 26.3831 0.980511C26.2943 0.980235 26.2054 0.97996 26.1138 0.979676C23.9529 0.972936 21.792 0.965249 19.6311 0.956565C18.5861 0.952388 17.5411 0.94852 16.4961 0.945376C15.5854 0.942636 14.6748 0.93932 13.7642 0.935306C13.2819 0.933201 12.7995 0.931387 12.3172 0.930263C11.8634 0.929197 11.4097 0.927362 10.956 0.92493C10.7892 0.924173 10.6225 0.9237 10.4557 0.923528C10.2284 0.923253 10.0012 0.921966 9.77395 0.920421C9.7076 0.920582 9.64126 0.920743 9.5729 0.920909C8.97292 0.91479 8.97292 0.91479 8.73486 0.730664C8.59549 0.167923 8.59549 0.167923 8.74091 -0.110232C8.98492 -0.345367 9.17072 -0.311008 9.50903 -0.311944C9.57087 -0.312569 9.63272 -0.313193 9.69643 -0.313837C9.90421 -0.315531 10.1119 -0.31485 10.3197 -0.314185C10.4684 -0.314913 10.6171 -0.315786 10.7658 -0.316794C11.1701 -0.319121 11.5743 -0.319398 11.9785 -0.319316C12.4008 -0.319576 12.8231 -0.321709 13.2453 -0.323645C14.0452 -0.327028 14.845 -0.328718 15.6449 -0.329806C16.5554 -0.331126 17.4659 -0.334325 18.3764 -0.337684C20.2496 -0.344552 22.1227 -0.349053 23.9959 -0.352004C23.9959 -0.681802 23.9959 -1.0116 23.9959 -1.35139C23.7861 -1.4539 23.6495 -1.44511 23.4148 -1.44515C23.3275 -1.44537 23.2403 -1.44559 23.1504 -1.44581C23.0055 -1.44553 23.0055 -1.44553 22.8577 -1.44525C22.7557 -1.44538 22.6536 -1.44551 22.5485 -1.44564C22.2644 -1.44592 21.9803 -1.44582 21.6962 -1.44556C21.3902 -1.44537 21.0841 -1.44566 20.7781 -1.44589C20.1782 -1.44626 19.5783 -1.44618 18.9784 -1.44594C18.491 -1.44575 18.0036 -1.44573 17.5163 -1.44582C17.447 -1.44583 17.3778 -1.44584 17.3064 -1.44586C17.1657 -1.44588 17.025 -1.44591 16.8844 -1.44594C15.564 -1.44617 14.2436 -1.4459 12.9232 -1.44545C11.7892 -1.44508 10.6553 -1.44515 9.52129 -1.44553C8.20575 -1.44598 6.89021 -1.44615 5.57467 -1.4459C5.4345 -1.44587 5.29433 -1.44584 5.15416 -1.44582C5.0507 -1.4458 5.0507 -1.4458 4.94515 -1.44578C4.45813 -1.44571 3.97111 -1.44583 3.4841 -1.44602C2.89092 -1.44626 2.29774 -1.4462 1.70456 -1.44575C1.40168 -1.44553 1.0988 -1.44545 0.795912 -1.44572C0.468181 -1.44601 0.140452 -1.44567 -0.187279 -1.44525C-0.283863 -1.44543 -0.380447 -1.44562 -0.479959 -1.44581C-0.610835 -1.44549 -0.610835 -1.44549 -0.744355 -1.44515C-0.857947 -1.44513 -0.857946 -1.44513 -0.973832 -1.44511C-1.15965 -1.44606 -1.15965 -1.44606 -1.3255 -1.35139ZM3.44891 3.31241C3.44054 3.49951 3.43836 3.68686 3.43842 3.87414C3.43832 3.93385 3.43822 3.99357 3.43812 4.05509C3.43789 4.25773 3.43828 4.46036 3.43865 4.663C3.43862 4.80872 3.43854 4.95445 3.43843 5.10017C3.43824 5.50259 3.43859 5.90501 3.43901 6.30743C3.43938 6.74065 3.43926 7.17387 3.43919 7.60709C3.43915 8.35832 3.43941 9.10956 3.43989 9.86079C3.44059 10.947 3.44081 12.0331 3.44092 13.1193C3.4411 14.8814 3.44167 16.6434 3.44248 18.4055C3.44326 20.1176 3.44386 21.8297 3.44422 23.5419C3.44425 23.6473 3.44427 23.7528 3.44429 23.8614C3.4444 24.3904 3.44451 24.9194 3.44462 25.4485C3.4455 29.8403 3.447 34.2322 3.44891 38.6241C3.73474 38.7637 4.05713 38.7184 4.37142 38.7174C4.45025 38.7174 4.52908 38.7175 4.61029 38.7176C4.87604 38.7177 5.14179 38.7173 5.40754 38.7168C5.59739 38.7168 5.78725 38.7168 5.97711 38.7168C6.49391 38.7169 7.01071 38.7164 7.52751 38.7158C8.06709 38.7153 8.60667 38.7152 9.14624 38.7151C10.0523 38.7149 10.9584 38.7144 11.8645 38.7136C12.7979 38.7129 13.7313 38.7123 14.6647 38.7119C14.751 38.7119 14.751 38.7119 14.839 38.7119C15.1275 38.7118 15.416 38.7116 15.7045 38.7115C18.0988 38.7107 20.4932 38.7092 22.8876 38.7074C22.8879 38.6504 22.8882 38.5935 22.8885 38.5348C22.8921 37.9403 22.898 37.3458 22.9053 36.7514C22.9079 36.5297 22.9095 36.3081 22.9107 36.0864C22.9125 35.7672 22.9165 35.448 22.9209 35.1288C22.921 35.0302 22.9211 34.9317 22.9212 34.8301C22.9316 34.2526 22.9946 33.8679 23.3139 33.3773C23.686 33.0315 23.9668 32.9514 24.4711 32.9438C24.5697 32.9421 24.6683 32.9404 24.77 32.9387C24.8736 32.9373 24.9772 32.9359 25.084 32.9345C25.1792 32.933 25.2745 32.9314 25.3727 32.9298C25.729 32.9241 26.0854 32.9191 26.4417 32.914C27.2383 32.902 28.0349 32.89 28.8556 32.8776C28.8556 31.0362 28.8556 29.1949 28.8556 27.2977C28.2648 27.1603 27.6739 27.0229 27.0652 26.8813C25.7157 26.3927 24.5728 25.8134 23.4844 24.8825C23.3876 24.806 23.3876 24.806 23.2889 24.728C21.2806 23.0995 20.1407 20.4639 19.9036 17.9701C19.7155 15.0884 20.5939 12.4006 22.5236 10.2016C24.1696 8.37619 26.406 7.27222 28.8556 6.89355C28.8577 6.39845 28.8592 5.90335 28.8603 5.40825C28.8607 5.23974 28.8613 5.07122 28.862 4.90271C28.8631 4.66084 28.8635 4.41898 28.8639 4.17712C28.8644 4.10147 28.8648 4.02581 28.8653 3.94787C28.8653 3.87785 28.8653 3.80784 28.8653 3.7357C28.8655 3.67393 28.8657 3.61216 28.8659 3.54852C28.8652 3.38755 28.8652 3.38755 28.7703 3.22913C25.5569 3.22723 22.3434 3.22576 19.1299 3.22488C18.7509 3.22477 18.3719 3.22467 17.993 3.22456C17.8798 3.22452 17.8798 3.22452 17.7643 3.22449C16.541 3.22413 15.3177 3.22347 14.0944 3.22271C12.8401 3.22193 11.5858 3.22146 10.3315 3.22129C9.55695 3.22118 8.78236 3.22082 8.00776 3.22014C7.47733 3.2197 6.94691 3.21957 6.41648 3.21968C6.10998 3.21973 5.80349 3.21965 5.49699 3.2192C5.16548 3.21873 4.83398 3.21889 4.50248 3.21912C4.40454 3.21887 4.30659 3.21863 4.20568 3.21838C4.1176 3.21855 4.02953 3.21871 3.93878 3.21888C3.86215 3.21885 3.78552 3.21882 3.70657 3.21879C3.53446 3.21045 3.53446 3.21045 3.44891 3.31241ZM24.5075 10.1416C24.4278 10.2058 24.3481 10.27 24.266 10.3361C22.48 11.844 21.3955 14.0172 21.1824 16.3044C21.0147 18.6707 21.7013 21.0076 23.2769 22.8317C23.3374 22.8987 23.3374 22.8987 23.3991 22.967C23.8082 22.6313 24.2015 22.2836 24.5861 21.9214C24.6418 21.8692 24.6975 21.8169 24.7549 21.7631C25.2691 21.2796 25.7794 20.7923 26.2886 20.3037C26.6287 19.9774 26.9699 19.6525 27.3145 19.3308C28.8679 17.8782 30.193 16.599 30.8881 14.5773C31.0668 14.0865 31.2965 13.6175 31.5199 13.1449C31.57 13.0359 31.62 12.9269 31.6697 12.8177C31.9075 12.2983 32.1467 11.7795 32.3877 11.2614C32.5236 10.9691 32.659 10.6766 32.7943 10.384C32.861 10.2401 32.928 10.0963 32.9952 9.95267C33.0891 9.75184 33.1821 9.55067 33.275 9.3494C33.3036 9.2887 33.3322 9.22801 33.3617 9.16547C33.4279 9.02105 33.4871 8.8736 33.5448 8.72576C33.4711 8.53471 33.4711 8.53471 33.232 8.47591C30.1716 7.62651 26.9811 8.12628 24.5075 10.1416ZM34.7384 9.22545C33.8079 11.2439 33.8079 11.2439 32.879 13.263C32.8547 13.3159 32.8304 13.3688 32.8053 13.4234C32.6478 13.7663 32.4908 14.1095 32.3338 14.4527C32.1821 14.7841 32.0286 15.1146 31.8729 15.4443C31.8398 15.5149 31.8068 15.5856 31.7727 15.6584C31.7131 15.7857 31.6528 15.9126 31.5918 16.0393C31.4291 16.3692 31.4291 16.3692 31.4986 16.7208C31.7389 16.8049 31.9697 16.8716 32.2164 16.9327C32.2917 16.9522 32.3669 16.9718 32.4445 16.9919C32.6944 17.0564 32.9447 17.1195 33.1951 17.1825C33.3683 17.2269 33.5415 17.2713 33.7147 17.3158C34.0782 17.4091 34.4419 17.5017 34.8057 17.5937C35.2726 17.7118 35.7392 17.831 36.2057 17.9507C36.6496 18.0646 37.0937 18.1779 37.5379 18.2912C37.6655 18.3238 37.6655 18.3238 37.7957 18.3571C38.0361 18.4184 38.2766 18.4793 38.5171 18.5401C38.5886 18.5584 38.6601 18.5767 38.7338 18.5956C38.9997 18.6624 39.237 18.7196 39.5128 18.7196C39.7747 17.3306 39.691 15.8185 39.257 14.4722C39.2392 14.4155 39.2214 14.3589 39.203 14.3005C38.532 12.2266 37.1016 10.5691 35.2499 9.39201C35.1655 9.33705 35.0811 9.28208 34.9941 9.22545C34.9097 9.22545 34.8253 9.22545 34.7384 9.22545ZM24.2517 34.2934C24.2441 34.5457 24.2419 34.7961 24.2434 35.0485C24.2435 35.1241 24.2436 35.1998 24.2437 35.2778C24.2442 35.5205 24.2453 35.7632 24.2464 36.0059C24.2468 36.17 24.2472 36.3341 24.2475 36.4983C24.2485 36.9015 24.25 37.3047 24.2517 37.708C24.7198 37.3209 24.7198 37.3209 25.1656 36.9096C25.2183 36.8583 25.271 36.807 25.3253 36.7541C25.379 36.7013 25.4326 36.6485 25.4879 36.5941C25.5445 36.5386 25.6011 36.4832 25.6594 36.4261C25.9753 36.1148 26.2795 35.7989 26.5683 35.4632C26.8365 35.1699 27.1261 34.8969 27.4139 34.6221C27.5265 34.5139 27.6371 34.4038 27.7473 34.2934C27.7473 34.2659 27.7473 34.2384 27.7473 34.2101C27.2631 34.2081 26.779 34.2065 26.2949 34.2055C26.1301 34.2051 25.9652 34.2046 25.8004 34.2038C25.564 34.2028 25.3277 34.2024 25.0913 34.202C25.0171 34.2015 24.943 34.2011 24.8666 34.2007C24.5324 34.1679 24.5324 34.1678 24.2517 34.2934Z" fill="#FF7705"></path>
    <path d="M12.1405 23.3685C12.2112 23.3679 12.2819 23.3674 12.3547 23.3668C12.4308 23.3668 12.5069 23.3667 12.5853 23.3666C12.703 23.3661 12.703 23.3661 12.823 23.3657C12.9889 23.3653 13.1549 23.3651 13.3208 23.3651C13.5746 23.3649 13.8284 23.3633 14.0822 23.3617C14.2435 23.3615 14.4047 23.3613 14.5659 23.3612C14.6797 23.3603 14.6797 23.3603 14.7959 23.3594C14.8669 23.3596 14.9378 23.3599 15.011 23.3602C15.0732 23.36 15.1354 23.3599 15.1994 23.3598C15.4044 23.3844 15.5405 23.4453 15.7167 23.5513C15.9222 23.8359 15.9073 24.105 15.9042 24.4475C15.9036 24.5541 15.9031 24.6607 15.9025 24.7705C15.9004 24.9369 15.9004 24.9369 15.8982 25.1067C15.8974 25.219 15.8966 25.3313 15.8958 25.447C15.8938 25.7242 15.891 26.0014 15.8875 26.2786C15.9681 26.2768 16.0486 26.275 16.1316 26.2732C16.4317 26.2674 16.7317 26.2631 17.0318 26.2599C17.1615 26.2582 17.2912 26.2558 17.4208 26.2529C17.6076 26.2487 17.7944 26.2468 17.9812 26.2453C18.1496 26.2426 18.1496 26.2426 18.3214 26.2399C18.6809 26.2864 18.7998 26.3585 19.0479 26.6195C19.0889 26.8513 19.1023 27.0295 19.0964 27.2606C19.0965 27.3567 19.0965 27.3567 19.0966 27.4547C19.0963 27.666 19.093 27.8771 19.0896 28.0883C19.0888 28.235 19.0882 28.3816 19.0878 28.5283C19.0862 28.9139 19.082 29.2995 19.0772 29.685C19.0729 30.0786 19.0709 30.4723 19.0688 30.8659C19.0642 31.638 19.0569 32.41 19.0479 33.182C19.1564 33.1801 19.2648 33.1783 19.3766 33.1763C19.6081 33.1724 19.7233 33.1786 19.9395 33.2726C20.1379 33.518 20.1474 33.7237 20.1583 34.0343C20.0911 34.26 20.0394 34.3424 19.8408 34.468C19.5986 34.5644 19.408 34.5673 19.1471 34.5679C18.9943 34.5688 18.9943 34.5688 18.8383 34.5697C18.6711 34.5694 18.6711 34.5694 18.5004 34.5691C18.3815 34.5694 18.2627 34.5699 18.1438 34.5704C17.8212 34.5715 17.4986 34.5716 17.176 34.5713C16.9067 34.5713 16.6373 34.5717 16.3679 34.5721C15.7324 34.573 15.0969 34.5731 14.4614 34.5725C13.8059 34.572 13.1504 34.5731 12.4949 34.5749C11.9319 34.5764 11.369 34.5769 10.8061 34.5766C10.4699 34.5765 10.1338 34.5767 9.79765 34.5779C9.48152 34.579 9.16541 34.5788 8.84928 34.5777C8.6781 34.5774 8.50692 34.5784 8.33574 34.5794C8.23359 34.5788 8.13144 34.5782 8.0262 34.5775C7.93759 34.5776 7.84898 34.5776 7.75769 34.5776C7.47764 34.5405 7.31637 34.4555 7.08958 34.29C6.96621 34.0438 6.97197 33.8812 7.00417 33.6081C7.175 33.3631 7.175 33.3631 7.43125 33.182C7.66169 33.1587 7.88222 33.1739 8.11458 33.182C8.11363 33.1208 8.11269 33.0597 8.11171 32.9966C8.10315 32.4198 8.09665 31.843 8.09245 31.2661C8.09023 30.9696 8.08721 30.673 8.08236 30.3765C8.07683 30.0355 8.07476 29.6945 8.07288 29.3534C8.07067 29.2471 8.06847 29.1407 8.0662 29.0311C8.06615 28.8827 8.06615 28.8827 8.0661 28.7313C8.06515 28.6442 8.0642 28.5572 8.06322 28.4675C8.11458 28.2388 8.11458 28.2388 8.31244 28.04C8.6167 27.8514 8.82483 27.859 9.18129 27.8646C9.24135 27.8651 9.30142 27.8656 9.3633 27.8661C9.55394 27.868 9.74443 27.8723 9.93503 27.8766C10.0648 27.8783 10.1945 27.8799 10.3242 27.8813C10.6412 27.885 10.9581 27.8909 11.275 27.8979C11.2744 27.8487 11.2739 27.7994 11.2733 27.7487C11.2676 27.2358 11.2637 26.7229 11.2609 26.2099C11.2596 26.0185 11.2579 25.8272 11.2557 25.6358C11.2526 25.3606 11.2511 25.0853 11.25 24.8101C11.2487 24.7247 11.2473 24.6393 11.246 24.5512C11.2458 23.7885 11.2458 23.7885 11.5312 23.4661C11.7638 23.3888 11.9013 23.3697 12.1405 23.3685ZM12.6417 24.7445C12.6417 27.5289 12.6417 30.3133 12.6417 33.182C13.2618 33.182 13.8819 33.182 14.5208 33.182C14.5208 30.3976 14.5208 27.6133 14.5208 24.7445C13.9007 24.7445 13.2806 24.7445 12.6417 24.7445ZM15.8875 27.6422C15.8875 29.4704 15.8875 31.2985 15.8875 33.182C16.4794 33.182 17.0714 33.182 17.6812 33.182C17.6812 31.3539 17.6812 29.5258 17.6812 27.6422C17.0893 27.6422 16.4974 27.6422 15.8875 27.6422ZM9.48125 29.2616C9.48125 30.5553 9.48125 31.8491 9.48125 33.182C10.0732 33.182 10.6651 33.182 11.275 33.182C11.275 31.8883 11.275 30.5945 11.275 29.2616C10.6831 29.2616 10.0911 29.2616 9.48125 29.2616Z" fill="#FF7705"></path>
    <path d="M7.97644 6.80318C8.14153 6.80174 8.14153 6.80174 8.30994 6.80027C8.43129 6.80093 8.55263 6.80163 8.67398 6.80236C8.80224 6.8019 8.9305 6.80129 9.05876 6.80055C9.40661 6.799 9.75441 6.7996 10.1023 6.80068C10.4663 6.80154 10.8304 6.80074 11.1945 6.80021C11.8057 6.79959 12.417 6.8004 13.0283 6.80203C13.7351 6.80388 14.4418 6.80328 15.1486 6.8014C15.7555 6.79986 16.3624 6.79964 16.9693 6.80053C17.3317 6.80106 17.6942 6.80113 18.0566 6.80001C18.3973 6.79902 18.738 6.7997 19.0786 6.80168C19.2037 6.80213 19.3288 6.802 19.4538 6.80124C19.6244 6.80031 19.795 6.80169 19.9656 6.80318C20.1089 6.80337 20.1089 6.80337 20.255 6.80357C20.5554 6.85617 20.6558 6.95104 20.8417 7.18738C20.887 7.35783 20.887 7.35783 20.8844 7.52829C20.8857 7.61266 20.8857 7.61266 20.887 7.69874C20.8202 7.94985 20.7013 8.04785 20.5 8.21011C20.2535 8.25301 20.2535 8.25301 19.9618 8.2534C19.7958 8.25484 19.7958 8.25484 19.6265 8.25631C19.504 8.25565 19.3816 8.25495 19.2591 8.25422C19.13 8.25468 19.0009 8.25529 18.8718 8.25603C18.5213 8.25758 18.1709 8.25698 17.8204 8.2559C17.4537 8.25504 17.087 8.25584 16.7203 8.25637C16.1045 8.25699 15.4887 8.25618 14.8729 8.25455C14.1608 8.2527 13.4488 8.2533 12.7367 8.25517C12.1254 8.25672 11.5142 8.25694 10.903 8.25605C10.5378 8.25552 10.1727 8.25545 9.8076 8.25657C9.46433 8.25756 9.12111 8.25687 8.77784 8.2549C8.65182 8.25445 8.52579 8.25458 8.39976 8.25533C8.22784 8.25626 8.05591 8.25489 7.884 8.2534C7.78775 8.25327 7.69151 8.25314 7.59235 8.25301C7.29083 8.20054 7.19062 8.10644 7.00416 7.8692C6.95578 7.69874 6.95578 7.69874 6.95611 7.52829C6.95424 7.47204 6.95237 7.41579 6.95044 7.35783C7.10023 6.88255 7.53373 6.80378 7.97644 6.80318Z" fill="#FF7705"></path>
    <path d="M8.39954 11.4925C8.49736 11.4922 8.59518 11.4919 8.69597 11.4915C9.01926 11.4909 9.34248 11.4927 9.66576 11.4946C9.8903 11.4948 10.1149 11.4949 10.3394 11.4949C10.8099 11.495 11.2804 11.4965 11.751 11.4988C12.2947 11.5015 12.8385 11.5024 13.3823 11.5023C13.9058 11.5022 14.4293 11.5031 14.9528 11.5045C15.1755 11.505 15.3981 11.5053 15.6207 11.5055C15.9315 11.5058 16.2423 11.5073 16.5532 11.5092C16.6455 11.5091 16.7379 11.509 16.833 11.5089C16.9177 11.5096 17.0023 11.5104 17.0896 11.5111C17.163 11.5114 17.2365 11.5117 17.3122 11.512C17.5298 11.5361 17.6675 11.588 17.8521 11.7044C17.9857 11.9711 17.997 12.2678 17.9375 12.5566C17.7667 12.7653 17.6625 12.8833 17.3947 12.9405C17.2824 12.9406 17.2824 12.9406 17.1679 12.9408C17.0817 12.9418 16.9955 12.9428 16.9066 12.9438C16.8126 12.9431 16.7185 12.9424 16.6215 12.9417C16.5221 12.9423 16.4226 12.9429 16.3201 12.9435C15.9908 12.945 15.6616 12.944 15.3323 12.9428C15.1038 12.9431 14.8753 12.9434 14.6468 12.9438C14.1677 12.9444 13.6886 12.9436 13.2095 12.942C12.6558 12.9401 12.1021 12.9407 11.5484 12.9426C11.0728 12.9442 10.5973 12.9444 10.1217 12.9435C9.83769 12.943 9.55374 12.943 9.26976 12.944C8.95318 12.9449 8.63668 12.9436 8.32011 12.9417C8.22603 12.9424 8.13195 12.943 8.03502 12.9438C7.90569 12.9423 7.90569 12.9423 7.77374 12.9408C7.69891 12.9407 7.62409 12.9406 7.54699 12.9405C7.2793 12.8834 7.17559 12.7645 7.00416 12.5566C6.95578 12.3862 6.95578 12.3862 6.95611 12.2157C6.95424 12.1595 6.95237 12.1032 6.95044 12.0453C7.15458 11.3975 7.85076 11.4868 8.39954 11.4925Z" fill="#FF7705"></path>
    <path d="M8.27409 16.1806C8.35858 16.1802 8.44307 16.1799 8.53012 16.1796C8.80904 16.179 9.08788 16.1808 9.3668 16.1827C9.5607 16.1829 9.75461 16.183 9.94852 16.1829C10.3547 16.1832 10.7609 16.1846 11.1671 16.1869C11.688 16.1898 12.2089 16.1904 12.7299 16.1903C13.1302 16.1904 13.5305 16.1913 13.9308 16.1925C14.1229 16.1931 14.315 16.1934 14.5072 16.1935C14.7754 16.1939 15.0437 16.1954 15.312 16.1972C15.3915 16.1971 15.4711 16.1971 15.5531 16.197C15.6628 16.1981 15.6628 16.1981 15.7748 16.1992C15.8698 16.1996 15.8698 16.1996 15.9668 16.2C16.1727 16.2256 16.3095 16.2839 16.4854 16.3924C16.6191 16.6591 16.6304 16.9559 16.5708 17.2447C16.4508 17.4234 16.4508 17.4234 16.2292 17.5856C15.9467 17.6376 15.6668 17.6322 15.3803 17.6297C15.2942 17.6303 15.208 17.6309 15.1193 17.6315C14.8344 17.633 14.5495 17.632 14.2646 17.6309C14.0667 17.6311 13.8689 17.6314 13.671 17.6319C13.2562 17.6324 12.8415 17.6316 12.4268 17.6301C11.8948 17.6281 11.3629 17.6292 10.8309 17.6313C10.4223 17.6325 10.0137 17.6321 9.60515 17.6312C9.40899 17.631 9.21283 17.6313 9.01666 17.6321C8.74263 17.6329 8.46868 17.6316 8.19465 17.6297C8.11335 17.6304 8.03205 17.6311 7.94829 17.6318C7.399 17.6247 7.399 17.6247 7.12496 17.4231C6.99527 17.2316 6.95566 17.133 6.95611 16.9038C6.95424 16.8475 6.95237 16.7913 6.95044 16.7333C7.14168 16.1265 7.75314 16.1743 8.27409 16.1806Z" fill="#FF7705"></path>
  </g>
  <defs>
    <clipPath id="clip0_5230_117">
      <rect width="41" height="40" fill="white"></rect>
    </clipPath>
  </defs>
</svg>
