<?xml version="1.0" encoding="UTF-8"?>
<svg xmlns="http://www.w3.org/2000/svg" width="48" height="48" viewBox="0 0 48 48" fill="none">
  <path d="M14.1127 3.9907C14.2118 3.99026 14.3109 3.98982 14.4131 3.98937C14.6862 3.98821 14.9593 3.98901 15.2324 3.99014C15.5278 3.99102 15.8231 3.99007 16.1184 3.98936C16.6962 3.98827 17.2739 3.98886 17.8516 3.99005C18.5249 3.99138 19.1982 3.99113 19.8714 3.99083C21.073 3.99037 22.2744 3.99148 23.4759 3.99343C24.641 3.99532 25.806 3.99588 26.9711 3.99505C28.2408 3.99415 29.5105 3.994 30.7803 3.99514C30.9157 3.99526 31.0512 3.99538 31.1867 3.9955C31.2866 3.99559 31.2866 3.99559 31.3886 3.99568C31.8576 3.99605 32.3266 3.99591 32.7955 3.99557C33.3672 3.99518 33.9389 3.99566 34.5106 3.99722C34.8021 3.998 35.0936 3.9984 35.3851 3.99778C35.7014 3.99712 36.0177 3.9983 36.334 3.99966C36.4257 3.99918 36.5174 3.99871 36.6118 3.99822C37.4323 4.00462 37.9998 4.15512 38.601 4.72582C39.0705 5.25279 39.16 5.80559 39.1572 6.49569C39.1571 6.55237 39.1569 6.60904 39.1568 6.66743C39.1564 6.8569 39.1554 7.04635 39.1544 7.23581C39.154 7.37184 39.1536 7.50786 39.1533 7.64388C39.1526 7.93662 39.1517 8.22935 39.1507 8.52208C39.1493 8.98512 39.1491 9.44814 39.1493 9.91118C39.1493 9.98936 39.1494 10.0675 39.1494 10.1481C39.1495 10.3888 39.1496 10.6296 39.1498 10.8703C39.1503 11.8672 39.1499 12.8641 39.1454 13.8611C39.1421 14.5884 39.1414 15.3156 39.1435 16.043C39.1446 16.4277 39.1443 16.8124 39.1411 17.1972C39.138 17.5591 39.1383 17.9209 39.1411 18.2828C39.1415 18.4155 39.1407 18.5481 39.1387 18.6808C39.1071 19.389 39.1071 19.389 39.3835 20.013C39.5625 20.1534 39.7392 20.2607 39.9388 20.3687C41.3503 21.5264 42.2365 23.2943 42.4483 25.0943C42.632 27.0007 42.2125 28.9279 41.0438 30.4717C40.5065 31.1111 39.9264 31.7428 39.2284 32.2082C39.2832 32.5952 39.4359 32.9321 39.5885 33.2885C39.6398 33.4088 39.6909 33.5291 39.7417 33.6496C39.7644 33.7024 39.787 33.7553 39.8104 33.8098C39.8598 33.9446 39.8598 33.9446 39.8598 34.1025C39.9184 34.109 39.977 34.1155 40.0374 34.1222C40.3094 34.1964 40.3887 34.2814 40.5702 34.4971C40.6706 34.698 40.7596 34.8935 40.844 35.1008C40.869 35.1606 40.8941 35.2203 40.9199 35.2819C41.0014 35.4771 41.0818 35.6728 41.1622 35.8685C41.2182 36.0037 41.2744 36.1389 41.3305 36.274C41.4993 36.681 41.6663 37.0887 41.8331 37.4965C41.8827 37.6174 41.9323 37.7384 41.9819 37.8594C42.1141 38.182 42.2451 38.5051 42.3757 38.8284C42.4146 38.9243 42.4535 39.0202 42.4936 39.119C42.8109 39.913 43.0792 40.6107 42.8024 41.459C42.5871 41.9453 42.2464 42.2624 41.7739 42.4986C41.1353 42.6214 40.6353 42.5884 40.0482 42.3013C39.5249 41.8902 39.2657 41.3089 39.0163 40.7079C38.9836 40.631 38.9509 40.5541 38.9172 40.4748C38.5105 39.5128 38.1192 38.5441 37.7287 37.5754C37.1036 37.5754 36.4785 37.5754 35.8344 37.5754C35.8417 37.8635 35.8417 37.8635 35.8492 38.1575C35.8539 38.9375 35.7573 39.5415 35.2005 40.1255C34.6835 40.5697 34.1505 40.6667 33.4862 40.6586C33.4312 40.6582 33.3762 40.6579 33.3194 40.6575C33.1843 40.6566 33.0492 40.6552 32.914 40.6537C32.9168 40.7537 32.9195 40.8537 32.9223 40.9567C32.9246 41.0909 32.9267 41.225 32.9288 41.3591C32.9318 41.4575 32.9318 41.4575 32.9348 41.5578C32.9426 42.223 32.7905 42.8156 32.3615 43.3373C31.6876 43.9508 31.0719 43.9921 30.19 43.9893C30.0904 43.9896 29.9908 43.9899 29.8883 43.9902C29.6128 43.991 29.3374 43.9908 29.0619 43.9905C28.7645 43.9903 28.467 43.991 28.1696 43.9916C27.5872 43.9926 27.0049 43.9928 26.4225 43.9926C25.9491 43.9924 25.4757 43.9926 25.0023 43.9929C24.9011 43.993 24.9011 43.993 24.798 43.993C24.661 43.9931 24.5241 43.9932 24.3871 43.9933C23.1031 43.9942 21.8191 43.994 20.5352 43.9935C19.361 43.9931 18.1868 43.994 17.0126 43.9955C15.8065 43.9971 14.6003 43.9977 13.3942 43.9974C12.7172 43.9973 12.0402 43.9974 11.3633 43.9986C10.787 43.9995 10.2107 43.9996 9.63435 43.9987C9.34044 43.9982 9.04655 43.9981 8.75264 43.9991C8.43371 44.0001 8.11481 43.9992 7.79588 43.9982C7.70343 43.9988 7.61098 43.9994 7.51573 44C6.80065 43.9953 6.18752 43.903 5.64933 43.4011C5.1861 42.8676 5.0422 42.3347 5.04144 41.6398C5.04128 41.5891 5.04111 41.5383 5.04095 41.4861C5.0405 41.3159 5.04061 41.1457 5.04073 40.9755C5.04052 40.8523 5.04029 40.7292 5.04002 40.606C5.03938 40.2673 5.03924 39.9287 5.03918 39.59C5.03903 39.2249 5.03844 38.8597 5.03791 38.4945C5.03683 37.6959 5.03636 36.8973 5.03601 36.0987C5.03579 35.6001 5.03546 35.1014 5.0351 34.6027C5.03414 33.2221 5.03333 31.8414 5.03306 30.4608C5.03304 30.3724 5.03303 30.284 5.03301 30.193C5.03299 30.1044 5.03297 30.0158 5.03296 29.9246C5.03292 29.7451 5.03289 29.5656 5.03285 29.3861C5.03283 29.2971 5.03282 29.208 5.0328 29.1163C5.03249 27.6737 5.03111 26.2311 5.02927 24.7885C5.0274 23.3074 5.02641 21.8262 5.02632 20.3451C5.02625 19.5135 5.0258 18.6819 5.02436 17.8504C5.02315 17.1422 5.02274 16.4341 5.0234 15.726C5.0237 15.3648 5.02363 15.0036 5.02252 14.6424C5.02152 14.3114 5.02161 13.9805 5.02257 13.6496C5.02272 13.5301 5.02248 13.4106 5.02179 13.2912C5.01675 12.3571 5.06593 11.5828 5.74584 10.8907C6.40895 10.3144 7.14041 10.3892 7.97221 10.4236C7.97038 10.3292 7.96855 10.2349 7.96666 10.1378C7.94198 8.38524 7.94198 8.38524 8.60365 7.66102C9.17076 7.123 9.70538 7.07473 10.4536 7.09372C10.5339 7.09479 10.6142 7.09585 10.697 7.09695C10.8938 7.09973 11.0905 7.10361 11.2873 7.10852C11.2854 7.04269 11.2836 6.97686 11.2817 6.90903C11.2672 6.00121 11.3385 5.3829 11.9187 4.66169C12.5119 4.05204 13.3071 3.98402 14.1127 3.9907ZM12.6439 5.68778C12.4584 6.00015 12.4612 6.29798 12.4608 6.65599C12.4605 6.75828 12.4602 6.86057 12.4599 6.96596C12.46 7.07974 12.46 7.19352 12.4601 7.3073C12.4599 7.42797 12.4597 7.54863 12.4594 7.6693C12.4588 8.00139 12.4586 8.33348 12.4586 8.66557C12.4584 9.02353 12.4578 9.3815 12.4573 9.73946C12.4562 10.5224 12.4558 11.3053 12.4554 12.0883C12.4552 12.577 12.4549 13.0657 12.4545 13.5544C12.4535 14.9072 12.4527 16.26 12.4525 17.6127C12.4524 17.6993 12.4524 17.7859 12.4524 17.8751C12.4524 17.9619 12.4524 18.0487 12.4524 18.1382C12.4523 18.3141 12.4523 18.4899 12.4522 18.6658C12.4522 18.7531 12.4522 18.8403 12.4522 18.9302C12.4519 20.3444 12.4505 21.7586 12.4487 23.1728C12.4468 24.6242 12.4458 26.0756 12.4457 27.5271C12.4456 28.3422 12.4452 29.1573 12.4438 29.9724C12.4425 30.6665 12.4421 31.3605 12.4428 32.0545C12.4431 32.4086 12.443 32.7628 12.4419 33.1169C12.4409 33.4411 12.441 33.7653 12.442 34.0895C12.4421 34.2068 12.4419 34.3241 12.4412 34.4414C12.4247 35.3852 12.4247 35.3852 12.8708 36.1843C13.1169 36.3906 13.2614 36.4013 13.577 36.4012C13.6611 36.4013 13.7453 36.4015 13.832 36.4016C13.9718 36.4013 13.9718 36.4013 14.1145 36.4009C14.2621 36.401 14.2621 36.401 14.4128 36.4011C14.6869 36.4013 14.961 36.401 15.2351 36.4006C15.5304 36.4003 15.8257 36.4004 16.121 36.4004C16.6328 36.4005 17.1447 36.4002 17.6566 36.3998C18.3967 36.3992 19.1368 36.3989 19.8769 36.3988C21.0775 36.3987 22.2782 36.3982 23.4788 36.3974C24.6454 36.3967 25.8119 36.3961 26.9785 36.3958C27.0863 36.3958 27.0863 36.3958 27.1963 36.3957C27.5568 36.3956 27.9173 36.3955 28.2778 36.3954C31.2703 36.3946 34.2627 36.3932 37.2551 36.3914C37.242 36.3303 37.2288 36.2692 37.2153 36.2063C37.1752 35.9916 37.1815 35.8153 37.1959 35.5981C37.201 35.0594 37.0093 34.6464 36.7816 34.1666C36.7439 34.0839 36.7063 34.0013 36.6675 33.9161C36.5754 33.7144 36.4819 33.5135 36.3869 33.3132C36.232 33.3321 36.232 33.3321 36.074 33.3514C34.1316 33.5654 32.0668 33.1776 30.4967 31.95C30.2082 31.7089 29.9421 31.4493 29.6779 31.1821C29.6137 31.1187 29.5495 31.0553 29.4833 30.99C28.0862 29.5355 27.5851 27.5787 27.6088 25.6129C27.6566 23.9135 28.3453 22.3624 29.4411 21.0791C29.5134 20.9832 29.5134 20.9832 29.5872 20.8855C30.4754 19.8326 31.9085 19.1003 33.2297 18.7901C33.3008 18.7725 33.372 18.7549 33.4452 18.7368C34.8445 18.4467 36.4084 18.5622 37.7287 19.1058C37.8069 19.1058 37.885 19.1058 37.9655 19.1058C37.971 17.416 37.9752 15.7261 37.9778 14.0362C37.979 13.2516 37.9807 12.467 37.9834 11.6824C37.9857 10.9985 37.9873 10.3146 37.9878 9.63071C37.9881 9.2686 37.9888 8.90649 37.9905 8.54438C37.9922 8.20349 37.9926 7.86261 37.9923 7.5217C37.9924 7.39666 37.9928 7.27162 37.9937 7.14657C37.9949 6.97563 37.9946 6.80475 37.994 6.6338C37.9942 6.5382 37.9944 6.44259 37.9946 6.34409C37.9505 5.94762 37.8216 5.69267 37.5265 5.42633C37.2521 5.23638 37.1151 5.20425 36.7846 5.20361C36.7013 5.20326 36.618 5.2029 36.5321 5.20254C36.3937 5.20256 36.3937 5.20256 36.2525 5.20259C36.1063 5.20215 36.1063 5.20215 35.9571 5.20171C35.6857 5.20099 35.4143 5.20062 35.1429 5.20041C34.8505 5.20011 34.5582 5.19935 34.2658 5.19866C33.5593 5.1971 32.8527 5.19631 32.1462 5.1956C31.8136 5.19526 31.4811 5.19483 31.1486 5.19442C30.0434 5.19308 28.9383 5.19193 27.8331 5.19136C27.5462 5.19121 27.2593 5.19106 26.9724 5.1909C26.9011 5.19087 26.8298 5.19083 26.7563 5.19079C25.6009 5.19013 24.4454 5.18813 23.2899 5.18557C22.1042 5.18296 20.9185 5.18154 19.7328 5.18129C19.0668 5.18112 18.4008 5.18042 17.7348 5.17841C17.1677 5.1767 16.6006 5.17606 16.0335 5.17683C15.7441 5.17719 15.4547 5.17703 15.1653 5.1755C14.8516 5.17386 14.538 5.17466 14.2243 5.1757C14.087 5.17441 14.087 5.17441 13.9468 5.17308C13.3564 5.17783 13.0487 5.24103 12.6439 5.68778ZM9.31402 8.68711C9.17448 9.02585 9.13635 9.3125 9.13607 9.67721C9.13561 9.78036 9.13515 9.88352 9.13468 9.9898C9.13496 10.1037 9.13527 10.2177 9.13558 10.3316C9.13534 10.4531 9.13504 10.5745 9.13467 10.696C9.13385 11.0295 9.13403 11.363 9.13436 11.6966C9.13456 12.0564 9.13385 12.4161 9.13326 12.7759C9.13225 13.4807 9.13211 14.1855 9.13229 14.8902C9.13243 15.463 9.1323 16.0358 9.13196 16.6085C9.13191 16.69 9.13187 16.7715 9.13182 16.8555C9.13172 17.021 9.13163 17.1865 9.13153 17.3521C9.13067 18.9047 9.13084 20.4574 9.13132 22.0101C9.13173 23.4309 9.13084 24.8517 9.12934 26.2725C9.12781 27.7311 9.12716 29.1896 9.12746 30.6482C9.12761 31.4672 9.12741 32.2862 9.1263 33.1052C9.12536 33.8024 9.12524 34.4996 9.1262 35.1968C9.12667 35.5525 9.12675 35.9083 9.12581 36.264C9.12495 36.5897 9.12519 36.9153 9.1263 37.241C9.12651 37.3588 9.12632 37.4766 9.12569 37.5944C9.10071 38.4138 9.10071 38.4138 9.39295 39.154C9.74513 39.504 10.0842 39.5072 10.5559 39.5116C10.6479 39.5108 10.7399 39.5101 10.8347 39.5093C10.9332 39.5097 11.0316 39.5101 11.133 39.5106C11.4057 39.5118 11.6783 39.511 11.951 39.5098C12.2452 39.5089 12.5395 39.5099 12.8337 39.5106C13.4099 39.5117 13.9861 39.5111 14.5623 39.5099C15.2332 39.5086 15.9041 39.5088 16.575 39.5091C17.772 39.5096 18.9689 39.5085 20.1659 39.5065C21.3276 39.5046 22.4893 39.5041 23.651 39.5049C24.9159 39.5058 26.1808 39.506 27.4456 39.5048C27.5805 39.5047 27.7153 39.5046 27.8502 39.5045C27.9165 39.5044 27.9829 39.5043 28.0512 39.5043C28.519 39.5039 28.9867 39.5041 29.4545 39.5044C30.0244 39.5048 30.5943 39.5043 31.1642 39.5027C31.4551 39.502 31.7459 39.5016 32.0367 39.5022C32.3518 39.5028 32.6668 39.5017 32.9819 39.5003C33.1202 39.501 33.1202 39.501 33.2613 39.5017C33.3456 39.5011 33.43 39.5004 33.5169 39.4997C33.5896 39.4996 33.6623 39.4996 33.7373 39.4995C34.0892 39.4478 34.2892 39.2863 34.516 39.0202C34.6734 38.7149 34.687 38.472 34.6702 38.1378C34.6688 38.0834 34.6673 38.0291 34.6659 37.9731C34.6622 37.8405 34.6565 37.7079 34.6505 37.5754C34.605 37.5753 34.5595 37.5753 34.5127 37.5753C31.8169 37.5724 29.1212 37.5679 26.4254 37.5614C26.1016 37.5606 25.7777 37.5598 25.4539 37.559C25.3894 37.5589 25.3249 37.5587 25.2585 37.5586C24.2153 37.5561 23.172 37.5548 22.1288 37.5538C21.058 37.5529 19.9871 37.5507 18.9163 37.5474C18.2558 37.5454 17.5953 37.5444 16.9348 37.5445C16.4815 37.5445 16.0283 37.5433 15.5751 37.5413C15.3138 37.5401 15.0525 37.5396 14.7912 37.5402C14.5073 37.5407 14.2235 37.5393 13.9397 37.5374C13.8169 37.5383 13.8169 37.5383 13.6916 37.5393C13.0833 37.5321 12.5314 37.415 12.0448 37.0312C11.5681 36.4357 11.3572 35.8975 11.3552 35.1271C11.3548 35.0312 11.3544 34.9353 11.3539 34.8364C11.3539 34.7303 11.3538 34.6241 11.3537 34.5179C11.3533 34.4049 11.3529 34.2919 11.3525 34.1789C11.3514 33.8685 11.3509 33.558 11.3504 33.2475C11.3497 32.9127 11.3486 32.5779 11.3476 32.2431C11.3459 31.663 11.3445 31.0829 11.3432 30.5028C11.3414 29.6641 11.3392 28.8253 11.3369 27.9866C11.3331 26.6259 11.3297 25.2652 11.3265 23.9044C11.3234 22.5825 11.3201 21.2606 11.3166 19.9387C11.3164 19.8573 11.3162 19.7758 11.316 19.6919C11.3149 19.2832 11.3138 18.8744 11.3127 18.4657C11.3038 15.0746 11.2953 11.6836 11.2873 8.29246C11.0471 8.28176 10.8073 8.27396 10.567 8.2678C10.4995 8.26449 10.4319 8.26118 10.3623 8.25778C9.87093 8.24833 9.6426 8.31297 9.31402 8.68711ZM6.47255 11.8443C6.13129 12.3685 6.20276 12.9792 6.20569 13.5837C6.20542 13.706 6.20504 13.8282 6.20457 13.9504C6.20358 14.2857 6.20407 14.621 6.2048 14.9564C6.20534 15.3182 6.20451 15.68 6.20386 16.0418C6.20281 16.7504 6.20304 17.459 6.20372 18.1676C6.20426 18.7434 6.20433 19.3192 6.20407 19.895C6.20404 19.977 6.204 20.0589 6.20396 20.1433C6.20389 20.3098 6.20381 20.4762 6.20373 20.6427C6.20306 22.2035 6.20383 23.7644 6.2051 25.3253C6.20616 26.6649 6.20598 28.0045 6.20489 29.3442C6.20362 30.8996 6.20312 32.455 6.20385 34.0104C6.20392 34.1762 6.204 34.342 6.20407 34.5078C6.20411 34.5894 6.20414 34.671 6.20418 34.755C6.20439 35.3303 6.20404 35.9055 6.20348 36.4807C6.20282 37.1816 6.203 37.8824 6.20426 38.5833C6.20488 38.9409 6.20513 39.2986 6.20434 39.6562C6.20364 39.9836 6.20403 40.3108 6.20529 40.6382C6.20555 40.7567 6.20542 40.8751 6.20484 40.9936C6.20412 41.1546 6.205 41.3155 6.20596 41.4765C6.206 41.5659 6.20604 41.6553 6.20608 41.7475C6.25193 42.1305 6.38796 42.3872 6.66365 42.654C7.07959 42.8465 7.4606 42.8283 7.91381 42.8248C8.01219 42.8253 8.11057 42.8258 8.21192 42.8263C8.48444 42.8274 8.75689 42.827 9.0294 42.826C9.3235 42.8253 9.61759 42.8264 9.91168 42.8273C10.4876 42.8287 11.0635 42.8284 11.6394 42.8275C12.1074 42.8268 12.5755 42.8267 13.0435 42.827C13.1435 42.8271 13.1435 42.8271 13.2454 42.8272C13.3807 42.8273 13.516 42.8274 13.6514 42.8275C14.9203 42.8284 16.1892 42.8273 17.4582 42.8256C18.547 42.8242 19.6358 42.8245 20.7246 42.8259C21.989 42.8276 23.2534 42.8283 24.5178 42.8273C24.6526 42.8272 24.7875 42.8271 24.9223 42.827C24.9886 42.827 25.055 42.8269 25.1233 42.8269C25.5908 42.8266 26.0583 42.827 26.5258 42.8278C27.0955 42.8287 27.6652 42.8284 28.2349 42.8268C28.5256 42.8259 28.8162 42.8256 29.1069 42.8266C29.422 42.8278 29.737 42.8264 30.052 42.8248C30.144 42.8256 30.2359 42.8263 30.3307 42.827C30.8042 42.8224 31.1357 42.8151 31.4933 42.469C31.7596 42.0838 31.7597 41.7452 31.7449 41.295C31.7433 41.2022 31.7433 41.2022 31.7416 41.1075C31.7389 40.9562 31.7346 40.8049 31.7301 40.6537C31.6837 40.6536 31.6374 40.6535 31.5897 40.6534C28.8432 40.6488 26.0967 40.643 23.3501 40.6356C23.0203 40.6347 22.6904 40.6338 22.3605 40.6329C22.2949 40.6328 22.2292 40.6326 22.1615 40.6324C21.0986 40.6296 20.0356 40.6277 18.9727 40.626C17.8818 40.6243 16.7909 40.6217 15.7 40.6182C15.027 40.6161 14.354 40.6147 13.681 40.6142C13.2193 40.6138 12.7577 40.6125 12.296 40.6106C12.0297 40.6095 11.7635 40.6089 11.4973 40.6091C11.2082 40.6092 10.9192 40.6079 10.6301 40.6062C10.5465 40.6066 10.4629 40.607 10.3767 40.6074C9.74505 40.6013 9.11602 40.5192 8.63109 40.0734C8.17694 39.5179 8.04199 38.9019 8.0402 38.1993C8.03976 38.1041 8.03933 38.0088 8.03889 37.9107C8.03881 37.8067 8.03873 37.7028 8.03865 37.5957C8.03829 37.4836 8.0379 37.3715 8.03747 37.2594C8.0364 36.9518 8.03582 36.6442 8.03531 36.3366C8.03468 36.0048 8.03359 35.6729 8.03257 35.3411C8.03085 34.7662 8.02942 34.1914 8.02818 33.6166C8.02639 32.7854 8.02416 31.9543 8.02184 31.1232C8.01808 29.7748 8.01466 28.4263 8.01146 27.0779C8.00836 25.768 8.00509 24.4582 8.0016 23.1483C8.00138 23.0675 8.00117 22.9868 8.00095 22.9036C7.99987 22.4986 7.99878 22.0935 7.9977 21.6884C7.98871 18.3281 7.98028 14.9678 7.97221 11.6075C7.79631 11.6011 7.62034 11.5965 7.44437 11.5927C7.34639 11.59 7.24841 11.5872 7.14746 11.5844C6.84835 11.6091 6.70801 11.6629 6.47255 11.8443ZM30.2304 21.8684C29.0993 23.3035 28.5744 24.9306 28.7307 26.762C28.9248 28.3382 29.7604 29.8636 30.9839 30.8796C32.4552 31.9784 34.1372 32.4926 35.9722 32.2476C37.6607 31.9163 39.1747 31.0464 40.1706 29.6257C41.1342 28.0926 41.5321 26.4771 41.1868 24.6753C40.7613 22.9712 39.7664 21.5439 38.2812 20.6055C35.6936 19.1054 32.2044 19.5138 30.2304 21.8684ZM37.7139 32.9136C37.6667 32.9413 37.6195 32.969 37.5709 32.9975C37.7504 33.5644 37.9683 34.1085 38.2023 34.655C38.3586 34.6029 38.5149 34.5508 38.6759 34.4971C38.6285 34.1208 38.5193 33.7927 38.37 33.4464C38.3498 33.3965 38.3295 33.3466 38.3087 33.2952C38.2538 33.1665 38.1891 33.042 38.1234 32.9185C37.8951 32.8133 37.8951 32.8133 37.7139 32.9136ZM38.9472 35.6022C38.8425 35.6444 38.7378 35.6866 38.633 35.7289C38.498 35.7834 38.498 35.7834 38.3602 35.8389C38.684 36.7199 39.0266 37.592 39.383 38.4602C39.4655 38.6614 39.5473 38.8628 39.6292 39.0643C40.0586 40.3685 40.0586 40.3685 40.8859 41.364C41.1588 41.3544 41.3566 41.3396 41.5864 41.1864C41.706 41.0004 41.7328 40.8758 41.7541 40.6537C41.698 40.4429 41.6364 40.2505 41.5593 40.0478C41.5378 39.9892 41.5163 39.9307 41.4941 39.8703C41.2441 39.1982 40.9675 38.5369 40.6886 37.8763C40.6377 37.7549 40.5868 37.6335 40.536 37.512C40.2353 36.7949 39.9305 36.0796 39.623 35.3654C39.4056 35.3654 39.151 35.5197 38.9472 35.6022Z" fill="#FF7705"></path>
  <path d="M33.7821 8.10801C34.2492 8.41819 34.5661 8.77398 34.7293 9.31785C34.8666 10.0235 34.7708 10.5199 34.4382 11.148C34.0708 11.5949 33.6508 11.9065 33.0718 12.0015C32.9596 11.9796 32.9596 11.9796 32.8451 11.9574C32.5337 11.9091 32.3477 11.9031 32.0457 12.0015C31.6663 12.365 31.4148 12.8494 31.1469 13.2966C30.9522 13.6095 30.7313 13.9001 30.5065 14.1918C30.3613 14.3821 30.2167 14.573 30.0724 14.764C30.0344 14.8134 29.9964 14.8628 29.9572 14.9137C29.7269 15.2046 29.7269 15.2046 29.6926 15.5632C29.7243 15.7146 29.7243 15.7146 29.7567 15.869C29.8177 16.5632 29.7768 17.1078 29.3621 17.6844C28.987 18.1049 28.5659 18.3609 28.0042 18.4225C27.374 18.4484 26.8734 18.3885 26.3627 18.0001C25.9879 17.6269 25.6543 17.1063 25.6514 16.5618C25.6517 16.5025 25.652 16.4432 25.6524 16.3821C25.6316 16.1158 25.5873 16.0405 25.3924 15.8499C25.0231 15.5778 24.6445 15.3581 24.2316 15.1587C24.1588 15.2086 24.1588 15.2086 24.0846 15.2595C24.0208 15.3027 23.957 15.346 23.8912 15.3905C23.7965 15.4551 23.7965 15.4551 23.6998 15.5209C23.3843 15.7176 23.1217 15.7262 22.7566 15.7309C22.617 15.7339 22.617 15.7339 22.4745 15.7371C22.1242 15.7063 21.8713 15.6098 21.548 15.4744C21.272 15.7249 20.9997 15.9787 20.73 16.236C20.6379 16.3229 20.545 16.4089 20.4511 16.4938C19.8921 16.9651 19.8921 16.9651 19.6307 17.6092C19.6731 17.829 19.7352 18.0269 19.8116 18.2369C19.8347 18.8689 19.7103 19.4196 19.2751 19.8898C18.7215 20.4037 18.2214 20.5782 17.4665 20.5582C16.9308 20.4914 16.5107 20.2606 16.1463 19.8648C15.6823 19.2484 15.6179 18.6861 15.7072 17.9212C15.8701 17.3804 16.1696 16.9532 16.6544 16.6583C17.1115 16.4381 17.5714 16.3593 18.0751 16.4215C18.1727 16.4567 18.2702 16.4919 18.3707 16.5282C18.5385 16.5759 18.5385 16.5759 18.7065 16.5794C18.9217 16.4442 19.0503 16.3398 19.2199 16.1598C19.2647 16.1149 19.3096 16.0701 19.3558 16.0239C19.4499 15.9289 19.5431 15.833 19.6353 15.7362C19.7769 15.588 19.9215 15.4435 20.067 15.2991C20.1581 15.2063 20.249 15.1134 20.3397 15.0202C20.383 14.9769 20.4263 14.9335 20.471 14.8889C20.6056 14.751 20.6056 14.751 20.7587 14.5272C20.7575 14.3143 20.7575 14.3143 20.6798 14.1326C20.6137 13.4647 20.6797 12.95 21.0744 12.3961C21.4892 11.9182 21.9514 11.6703 22.5766 11.5849C23.1774 11.5551 23.6746 11.7488 24.1379 12.1248C24.4863 12.4568 24.674 12.7971 24.7841 13.2643C24.7849 13.3192 24.7856 13.3741 24.7864 13.4307C24.7954 13.8045 24.7954 13.8045 24.9875 14.1132C25.1529 14.2385 25.3211 14.3471 25.4994 14.4532C25.5593 14.4914 25.6192 14.5296 25.6809 14.569C25.8281 14.6625 25.9762 14.7536 26.1259 14.8429C26.2843 14.7639 26.4424 14.6847 26.5995 14.6034C26.6516 14.5766 26.7037 14.5499 26.7574 14.5223C26.8095 14.4953 26.8616 14.4684 26.9152 14.4406C27.5632 14.1482 28.1682 14.3064 28.8095 14.5272C28.8277 14.4731 28.8458 14.419 28.8644 14.3632C28.9912 14.0794 29.1654 13.8458 29.3522 13.5998C29.4302 13.4954 29.5081 13.3908 29.5859 13.2862C29.6266 13.2316 29.6672 13.1769 29.7091 13.1206C29.9682 12.7684 30.2181 12.4096 30.4692 12.0516C30.5255 11.9714 30.5255 11.9714 30.583 11.8895C30.6177 11.8398 30.6525 11.7901 30.6883 11.7389C30.7659 11.6304 30.8481 11.5251 30.9314 11.4209C30.9605 11.3781 30.9896 11.3352 31.0196 11.2911C30.971 11.1094 30.971 11.1094 30.8617 10.8964C30.6071 10.2383 30.5413 9.65517 30.8223 8.99227C31.0735 8.54109 31.482 8.15802 31.9584 7.96001C32.5683 7.80353 33.218 7.8135 33.7821 8.10801ZM32.0457 9.31785C31.858 9.63257 31.7976 9.79675 31.8533 10.1614C31.9718 10.4346 32.0374 10.5709 32.2825 10.7386C32.597 10.8342 32.8307 10.8526 33.1359 10.7238C33.3704 10.5295 33.5063 10.3682 33.6144 10.0825C33.6287 9.77427 33.5361 9.58538 33.3875 9.31785C33.157 9.11941 33.0198 9.08395 32.7166 9.05146C32.4134 9.08395 32.2761 9.11941 32.0457 9.31785ZM22.0216 13.1065C21.8656 13.3031 21.8619 13.4364 21.8292 13.6886C21.875 14.0683 21.9911 14.181 22.2584 14.4483C22.5145 14.5763 22.7709 14.5709 23.0477 14.5272C23.3178 14.375 23.4789 14.2643 23.5761 13.9621C23.6217 13.6718 23.6188 13.4725 23.5163 13.1953C23.3258 12.9863 23.1528 12.8927 22.8898 12.7908C22.5118 12.7908 22.3214 12.8883 22.0216 13.1065ZM27.152 15.7112C27.1064 15.7421 27.0609 15.773 27.0139 15.8049C26.8498 16.0428 26.8177 16.2975 26.8363 16.5794C26.9916 16.879 27.1081 17.0237 27.3888 17.2108C27.7937 17.2624 27.7937 17.2624 28.1639 17.1279C28.3352 16.9877 28.4731 16.8576 28.5728 16.6583C28.6125 16.2059 28.6125 16.2059 28.4396 15.8C28.0162 15.4109 27.6236 15.3847 27.152 15.7112ZM17.049 17.9212C16.8549 18.2123 16.8268 18.4515 16.8912 18.7894C17.0289 19.028 17.1937 19.2169 17.4437 19.3419C17.7748 19.3738 17.9587 19.361 18.2576 19.2087C18.4851 19.013 18.5667 18.9228 18.6276 18.6316C18.6216 18.2965 18.582 18.1256 18.3859 17.8521C17.8987 17.4997 17.5101 17.5259 17.049 17.9212Z" fill="#FF7705"></path>
  <path d="M38.518 21.5521C39.7813 22.6163 40.4911 24.0089 40.6491 25.6565C40.6548 25.7142 40.6604 25.7719 40.6663 25.8313C40.7367 27.3601 40.1113 28.7565 39.1275 29.8888C38.1125 30.9696 36.7578 31.568 35.2818 31.6551C33.7473 31.6729 32.2891 31.2445 31.1739 30.16C31.0688 30.0543 30.9652 29.947 30.8618 29.8398C30.8094 29.7898 30.757 29.7398 30.703 29.6884C29.8991 28.87 29.4302 27.5731 29.3621 26.4458C29.3579 26.3772 29.3538 26.3086 29.3495 26.238C29.3001 24.6269 29.9114 23.1316 31.0024 21.9566C33.059 19.9869 36.2554 19.8275 38.518 21.5521ZM31.5721 23.1307C30.866 24.0529 30.432 25.1932 30.546 26.3668C30.709 27.5725 31.1966 28.6962 32.1688 29.4633C33.1797 30.2148 34.3135 30.5748 35.5815 30.4391C36.8529 30.2212 37.8938 29.6072 38.6659 28.567C39.3268 27.5859 39.5728 26.424 39.4158 25.252C39.1813 24.0966 38.5731 23.1058 37.6226 22.4003C35.6357 21.0942 33.1938 21.3301 31.5721 23.1307Z" fill="#FF7705"></path>
  <path d="M16.512 30.5107C16.6124 30.5099 16.7128 30.5091 16.8162 30.5083C16.9272 30.5091 17.0383 30.5099 17.1493 30.5107C17.2664 30.5104 17.3835 30.5099 17.5006 30.5094C17.8184 30.5083 18.1362 30.5091 18.4541 30.5104C18.7865 30.5115 19.119 30.511 19.4514 30.5108C20.0096 30.5105 20.5678 30.5116 21.1261 30.5134C21.7718 30.5155 22.4175 30.5157 23.0632 30.5147C23.6841 30.5139 24.3049 30.5144 24.9258 30.5155C25.1902 30.516 25.4546 30.5159 25.7189 30.5156C26.0301 30.5152 26.3413 30.516 26.6524 30.5177C26.7667 30.5181 26.8811 30.5182 26.9954 30.5178C27.1512 30.5173 27.307 30.5184 27.4627 30.5197C27.5936 30.5199 27.5936 30.5199 27.7272 30.5202C27.9416 30.5503 27.9416 30.5503 28.0856 30.6536C28.2391 30.8745 28.248 31.0752 28.2573 31.3396C28.1237 31.5934 28.059 31.6424 27.7837 31.7342C27.6284 31.7419 27.4729 31.7449 27.3174 31.7453C27.1713 31.746 27.1713 31.746 27.0223 31.7467C26.9142 31.7468 26.8061 31.7468 26.698 31.7469C26.5843 31.7473 26.4706 31.7477 26.3569 31.7481C26.0478 31.7491 25.7388 31.7497 25.4298 31.75C25.2367 31.7502 25.0437 31.7506 24.8506 31.7509C24.2467 31.752 23.6427 31.7528 23.0387 31.7531C22.3414 31.7534 21.6442 31.7548 20.9469 31.7571C20.4079 31.7588 19.869 31.7596 19.33 31.7597C19.0081 31.7598 18.6862 31.7602 18.3643 31.7617C18.0615 31.763 17.7587 31.7631 17.4559 31.7624C17.3448 31.7624 17.2337 31.7627 17.1227 31.7635C16.9709 31.7645 16.8191 31.7639 16.6674 31.7632C16.5825 31.7633 16.4976 31.7634 16.4101 31.7636C16.1474 31.7299 15.9986 31.6536 15.7864 31.4974C15.6743 31.2732 15.6826 31.1142 15.7075 30.866C15.9476 30.5477 16.1218 30.5108 16.512 30.5107Z" fill="#FF7705"></path>
  <path d="M16.5761 22.2236C16.7187 22.2226 16.7187 22.2226 16.8641 22.2216C16.9678 22.2224 17.0714 22.2233 17.1782 22.2242C17.2889 22.2241 17.3997 22.2238 17.5104 22.2233C17.8106 22.2226 18.1108 22.2238 18.411 22.2254C18.7253 22.2268 19.0396 22.2265 19.3539 22.2264C19.8816 22.2266 20.4093 22.2279 20.937 22.2301C21.5471 22.2326 22.1571 22.2334 22.7672 22.2333C23.4168 22.2332 24.0665 22.2343 24.7161 22.2357C24.9033 22.2361 25.0904 22.2362 25.2776 22.2363C25.5717 22.2364 25.8657 22.2374 26.1598 22.239C26.3192 22.2396 26.4786 22.2396 26.638 22.2394C26.7329 22.2401 26.8277 22.2408 26.9254 22.2415C27.0491 22.2419 27.0491 22.2419 27.1752 22.2423C27.3932 22.263 27.5226 22.3012 27.7049 22.4205C27.8276 22.6659 27.8413 22.9438 27.7839 23.2097C27.531 23.4542 27.343 23.4763 26.9978 23.4771C26.8534 23.4783 26.8534 23.4783 26.7061 23.4795C26.5996 23.4792 26.4932 23.4788 26.3867 23.4784C26.2744 23.4789 26.1621 23.4794 26.0498 23.4801C25.7451 23.4815 25.4403 23.4814 25.1355 23.4809C24.8811 23.4807 24.6267 23.4812 24.3722 23.4817C23.7721 23.4828 23.172 23.4826 22.5719 23.4817C21.9526 23.4808 21.3334 23.482 20.7141 23.4841C20.1825 23.4858 19.6509 23.4863 19.1192 23.4859C18.8017 23.4856 18.4841 23.4858 18.1666 23.4872C17.8681 23.4884 17.5696 23.4881 17.271 23.4866C17.1614 23.4863 17.0518 23.4865 16.9423 23.4874C16.7927 23.4884 16.6432 23.4873 16.4937 23.4861C16.41 23.4861 16.3263 23.4861 16.24 23.486C15.967 23.4363 15.8739 23.3496 15.7076 23.1308C15.6632 22.8546 15.6632 22.8546 15.7076 22.5783C15.9891 22.2932 16.1798 22.2232 16.5761 22.2236Z" fill="#FF7705"></path>
  <path d="M16.4727 27.7475C16.5643 27.7466 16.6559 27.7457 16.7503 27.7448C16.8506 27.7455 16.9508 27.7461 17.054 27.7468C17.1609 27.7463 17.2677 27.7458 17.3746 27.7451C17.6645 27.7436 17.9545 27.7442 18.2444 27.7452C18.5479 27.746 18.8513 27.7453 19.1548 27.7448C19.6643 27.7442 20.1739 27.745 20.6835 27.7465C21.2726 27.7482 21.8618 27.7476 22.4509 27.7459C22.9567 27.7444 23.4626 27.7442 23.9684 27.7451C24.2705 27.7456 24.5726 27.7456 24.8747 27.7446C25.1587 27.7437 25.4427 27.7443 25.7267 27.7461C25.8807 27.7467 26.0347 27.7458 26.1886 27.7448C26.3261 27.7462 26.3261 27.7462 26.4663 27.7475C26.5459 27.7476 26.6255 27.7478 26.7076 27.7479C26.9732 27.7986 27.0668 27.8925 27.2314 28.1033C27.2889 28.404 27.2623 28.5293 27.0953 28.7862C26.7521 29.1079 26.2522 29.0255 25.8128 29.0214C25.7087 29.0219 25.6045 29.0225 25.4973 29.0231C25.2122 29.0245 24.9272 29.0235 24.6421 29.022C24.3435 29.0207 24.045 29.0214 23.7464 29.0218C23.245 29.0221 22.7437 29.0209 22.2424 29.0187C21.663 29.0161 21.0838 29.0161 20.5044 29.0175C19.9467 29.0188 19.3891 29.0182 18.8314 29.0169C18.5942 29.0163 18.3571 29.0164 18.1199 29.017C17.7886 29.0177 17.4574 29.0158 17.1262 29.0137C17.0279 29.0142 16.9295 29.0147 16.8282 29.0152C16.7379 29.0142 16.6476 29.0132 16.5546 29.0122C16.4763 29.012 16.398 29.0117 16.3174 29.0115C16.0392 28.9599 15.9057 28.8548 15.7076 28.6558C15.6632 28.3796 15.6632 28.3796 15.7076 28.1033C15.9397 27.8011 16.0974 27.7481 16.4727 27.7475Z" fill="#FF7705"></path>
  <path d="M16.4576 24.9849C16.5459 24.984 16.6342 24.9832 16.7252 24.9822C16.87 24.9832 16.87 24.9832 17.0177 24.9842C17.1706 24.9833 17.1706 24.9833 17.3266 24.9825C17.6059 24.9811 17.8852 24.9816 18.1646 24.9826C18.457 24.9834 18.7494 24.9827 19.0418 24.9822C19.5328 24.9816 20.0238 24.9824 20.5148 24.9839C21.0824 24.9856 21.65 24.985 22.2176 24.9833C22.705 24.9819 23.1924 24.9817 23.6798 24.9825C23.9709 24.983 24.2619 24.983 24.553 24.982C24.8775 24.9809 25.2019 24.9824 25.5264 24.9842C25.6229 24.9835 25.7194 24.9829 25.8189 24.9822C25.9513 24.9836 25.9513 24.9836 26.0865 24.9849C26.1632 24.9851 26.2399 24.9852 26.3189 24.9853C26.5811 25.0369 26.6748 25.1316 26.8366 25.3407C26.881 25.617 26.881 25.617 26.8366 25.8933C26.6629 26.1098 26.5172 26.1981 26.2416 26.2379C25.9787 26.2503 25.7175 26.2516 25.4542 26.2498C25.354 26.2504 25.2537 26.2509 25.1504 26.2515C24.8759 26.2529 24.6015 26.2524 24.327 26.2514C24.0395 26.2506 23.752 26.2513 23.4645 26.2518C22.9817 26.2524 22.499 26.2516 22.0162 26.2501C21.4584 26.2484 20.9006 26.249 20.3428 26.2507C19.8635 26.2521 19.3843 26.2523 18.905 26.2515C18.6189 26.251 18.3328 26.251 18.0467 26.252C17.7277 26.2531 17.4088 26.2516 17.0898 26.2498C16.9952 26.2505 16.9005 26.2511 16.803 26.2518C16.1671 26.2453 16.1671 26.2453 15.8459 26.0658C15.7075 25.8933 15.7075 25.8933 15.6631 25.617C15.7408 25.1336 15.9852 24.9857 16.4576 24.9849Z" fill="#FF7705"></path>
</svg>
