<?xml version="1.0" encoding="UTF-8"?>
<svg xmlns="http://www.w3.org/2000/svg" width="48" height="48" viewBox="0 0 48 48" fill="none">
  <g clip-path="url(#clip0_3791_79)">
    <path d="M29.9498 13.0756C30.6357 13.5591 31.1248 14.2695 31.3121 15.0938C31.3239 15.4102 31.3239 15.4102 31.3121 15.6563C31.3711 15.6689 31.4301 15.6816 31.4909 15.6947C32.3473 15.9101 32.8674 16.3644 33.3739 17.0746C33.6297 17.5494 33.6777 17.9695 33.6676 18.5039C33.6659 18.6206 33.6642 18.7374 33.6625 18.8577C33.6603 18.9459 33.6581 19.0341 33.6559 19.125C33.8299 19.1511 33.8299 19.1511 34.0075 19.1777C35.044 19.4141 35.8516 20.0595 36.4684 20.9063C37.1392 22.0078 37.3217 23.1405 37.1173 24.4058C36.9368 25.1246 36.6247 25.8892 36.0407 26.3672C35.7882 26.5923 35.7882 26.5923 35.8191 26.8231C35.8548 26.9817 35.8943 27.1394 35.937 27.2963C36.1856 28.3532 35.9637 29.334 35.4254 30.252C34.9322 30.9872 34.1442 31.6445 33.2549 31.8245C33.0768 31.8476 32.8976 31.8622 32.7184 31.875C32.7079 31.9586 32.7079 31.9586 32.6971 32.0438C32.5248 33.1302 31.9899 34.0075 31.1246 34.6875C30.111 35.3173 29.0436 35.6093 27.8562 35.3873C26.6901 35.0922 25.7519 34.5161 25.0836 33.4863C24.5409 32.4593 24.5212 31.3976 24.5257 30.2647C24.5254 30.1054 24.5249 29.946 24.5243 29.7867C24.523 29.357 24.5235 28.9275 24.5244 28.4978C24.5251 28.0466 24.5244 27.5954 24.524 27.1441C24.5235 26.3868 24.5241 25.6295 24.5255 24.8722C24.527 23.9984 24.5265 23.1246 24.525 22.2508C24.5237 21.4984 24.5235 20.746 24.5242 19.9936C24.5247 19.5451 24.5247 19.0967 24.5238 18.6482C24.523 18.2267 24.5236 17.8052 24.5252 17.3836C24.5256 17.2295 24.5255 17.0754 24.5248 16.9213C24.5201 15.6247 24.6733 14.4959 25.5795 13.496C26.7925 12.3627 28.533 12.2304 29.9498 13.0756ZM26.3434 14.4375C25.8846 15.0022 25.7566 15.5345 25.7626 16.2532C25.7628 16.3169 25.7631 16.3806 25.7634 16.4462C25.7644 16.6478 25.7668 16.8493 25.7692 17.0508C25.7701 17.1882 25.771 17.3257 25.7717 17.4631C25.7738 17.7984 25.777 18.1336 25.7809 18.4688C25.9114 18.4229 25.9114 18.4229 26.0446 18.3761C26.3485 18.2796 26.5773 18.2618 26.8942 18.2695C27.0301 18.2721 27.0301 18.2721 27.1688 18.2747C27.2367 18.2768 27.3047 18.279 27.3746 18.2813C27.3746 18.5597 27.3746 18.8381 27.3746 19.125C27.247 19.1637 27.1194 19.2023 26.9879 19.2422C26.5522 19.3883 26.1137 19.5461 25.8618 19.9537C25.5841 20.6489 25.6834 21.7222 25.8563 22.4366C26.148 23.0774 26.6827 23.6376 27.3333 23.9147C27.5646 23.9855 27.7946 24.0424 28.0309 24.0938C28.6718 24.2659 28.6718 24.2659 28.7809 24.375C28.7985 24.6504 28.7985 24.6504 28.7809 24.9375C28.5366 25.1818 28.4241 25.1557 28.0836 25.1602C27.1889 25.1451 26.5494 24.8142 25.7809 24.375C25.7809 25.7363 25.7809 27.0975 25.7809 28.5C25.9665 28.4691 26.1521 28.4381 26.3434 28.4063C26.5269 28.4003 26.7106 28.3982 26.8942 28.4004C26.9848 28.4012 27.0754 28.4021 27.1688 28.403C27.2707 28.4046 27.2707 28.4046 27.3746 28.4063C27.3746 28.7156 27.3746 29.025 27.3746 29.3438C27.2296 29.367 27.0846 29.3902 26.9352 29.4141C26.4605 29.5094 26.1484 29.6458 25.8651 30.0557C25.6077 30.745 25.679 31.8167 25.9332 32.502C26.324 33.2971 26.9134 33.8152 27.7365 34.1356C28.4837 34.3466 29.2706 34.2957 29.9736 33.9664C30.7706 33.5085 31.1597 32.9111 31.4996 32.0625C31.4996 32.0006 31.4996 31.9388 31.4996 31.875C31.4125 31.8409 31.3254 31.8068 31.2356 31.7717C29.8972 31.2338 29.8972 31.2338 29.5309 30.75C29.4254 30.4512 29.4254 30.4512 29.4371 30.1875C29.5309 30.0059 29.5309 30.0059 29.7184 29.9063C30.2701 29.8952 30.5778 30.1177 31.0199 30.4281C31.5437 30.7828 32.1035 30.8235 32.7184 30.75C33.5243 30.5276 34.1768 30.006 34.5934 29.2852C34.8454 28.7336 34.8632 28.1586 34.7809 27.5625C34.719 27.5006 34.6571 27.4388 34.5934 27.375C34.4252 27.4446 34.4252 27.4446 34.2535 27.5156C33.6618 27.716 33.0551 27.7004 32.4371 27.6563C32.3434 27.5625 32.3434 27.5625 32.3342 27.3688C32.3353 27.2916 32.3364 27.2143 32.3375 27.1348C32.3384 27.0573 32.3392 26.9798 32.3401 26.9C32.3412 26.8402 32.3423 26.7804 32.3434 26.7188C32.4294 26.7096 32.5155 26.7004 32.6041 26.6909C33.2732 26.6094 33.8388 26.5298 34.4059 26.1563C34.4692 26.1167 34.5325 26.0772 34.5978 26.0365C35.3195 25.5468 35.7379 24.8839 35.9557 24.0439C36.1352 23.0986 35.9172 22.2866 35.3844 21.4922C34.8977 20.8584 34.2521 20.4323 33.4684 20.25C33.2105 20.2342 33.2105 20.2342 32.9996 20.25C32.9532 20.3892 32.9532 20.3892 32.9059 20.5313C32.7535 20.6191 32.7535 20.6191 32.5309 20.7188C32.3669 20.8141 32.2041 20.9113 32.0416 21.0092C31.6877 21.1885 31.3594 21.2003 30.9664 21.1992C30.8752 21.1995 30.784 21.1997 30.6899 21.2C30.4684 21.1875 30.4684 21.1875 30.3746 21.0938C30.3679 20.9513 30.3668 20.8086 30.3688 20.666C30.3696 20.5886 30.3705 20.5111 30.3713 20.4313C30.3724 20.3715 30.3735 20.3116 30.3746 20.25C30.4426 20.2408 30.5105 20.2316 30.5805 20.2222C31.2588 20.1172 31.6959 19.9751 32.1793 19.4648C32.4841 19.0076 32.5758 18.6261 32.4877 18.0894C32.3496 17.5889 32.0148 17.2497 31.5934 16.9688C31.1391 16.7568 30.7577 16.7434 30.2809 16.875C29.721 17.1765 29.3414 17.574 29.1559 18.1875C29.1153 18.4374 29.0878 18.6853 29.0621 18.9375C28.9235 18.94 28.7848 18.9418 28.6461 18.9434C28.5303 18.945 28.5303 18.945 28.4121 18.9467C28.2184 18.9375 28.2184 18.9375 28.1246 18.8438C28.0327 18.0466 28.1476 17.4487 28.5934 16.7813C28.9966 16.2908 29.557 15.8791 30.1871 15.75C30.0211 14.9473 29.7188 14.4612 29.0621 13.9688C28.1463 13.3779 27.0968 13.8021 26.3434 14.4375Z" fill="#FF7705"></path>
    <path d="M22.0605 13.1953C22.7946 13.7942 23.284 14.6272 23.4375 15.5625C23.4464 15.7851 23.4501 16.0078 23.4507 16.2306C23.4509 16.2968 23.4512 16.363 23.4515 16.4313C23.4523 16.6526 23.4525 16.8739 23.4526 17.0953C23.453 17.2543 23.4535 17.4132 23.454 17.5722C23.4552 18.0038 23.4559 18.4354 23.4563 18.8669C23.4565 19.1369 23.4569 19.4069 23.4573 19.6769C23.4586 20.5225 23.4595 21.3682 23.4599 22.2139C23.4603 23.1882 23.462 24.1625 23.4647 25.1369C23.4667 25.8911 23.4677 26.6454 23.4678 27.3996C23.4679 27.8495 23.4684 28.2995 23.4701 28.7494C23.4717 29.1731 23.4718 29.5969 23.471 30.0207C23.471 30.1754 23.4714 30.3302 23.4723 30.485C23.4805 31.9287 23.3162 33.1439 22.3026 34.2458C21.3985 35.1004 20.3514 35.4899 19.1147 35.4606C17.9696 35.3631 17.001 34.9115 16.2085 34.0756C15.711 33.4249 15.3635 32.6927 15.2812 31.875C15.1768 31.8692 15.0724 31.8634 14.9648 31.8574C14.1937 31.7592 13.4538 31.3258 12.9375 30.75C12.1779 29.7487 11.8934 28.8168 12 27.5625C12.0445 27.3978 12.0912 27.2336 12.1406 27.0703C12.2031 26.8464 12.2031 26.8464 12.1875 26.625C12.0291 26.3851 11.8456 26.2012 11.6415 25.9991C10.9707 25.2826 10.8195 24.2922 10.7812 23.3438C10.8539 22.0166 11.3298 20.9549 12.2988 20.0449C12.888 19.5677 13.5912 19.22 14.3438 19.125C14.3394 19.04 14.335 18.9551 14.3306 18.8676C14.299 17.8006 14.4763 17.1613 15.2076 16.3802C15.6642 15.9397 16.0811 15.7817 16.6875 15.6563C16.6962 15.4764 16.6962 15.4764 16.7051 15.293C16.7896 14.5372 17.1786 13.8406 17.7188 13.3125C19.0636 12.3594 20.673 12.2353 22.0605 13.1953ZM18.3105 14.5078C18.0499 14.8741 17.8125 15.2864 17.8125 15.75C17.8747 15.7727 17.937 15.7954 18.0011 15.8188C18.919 16.1673 19.3236 16.5699 19.7812 17.4375C19.883 17.7426 19.8875 17.9724 19.8867 18.293C19.8871 18.4442 19.8871 18.4442 19.8875 18.5984C19.875 18.8438 19.875 18.8438 19.7812 18.9375C19.6388 18.9442 19.4961 18.9454 19.3535 18.9434C19.2761 18.9425 19.1986 18.9417 19.1188 18.9408C19.059 18.9397 18.9991 18.9386 18.9375 18.9375C18.9283 18.8696 18.9191 18.8017 18.9097 18.7317C18.8047 18.0533 18.6626 17.6162 18.1523 17.1328C17.6951 16.828 17.3136 16.7364 16.7769 16.8245C16.2764 16.9626 15.9372 17.2973 15.6562 17.7188C15.4442 18.173 15.4309 18.5545 15.5625 19.0312C15.864 19.5912 16.2615 19.9708 16.875 20.1562C17.1249 20.1968 17.3728 20.2244 17.625 20.25C17.6275 20.3887 17.6293 20.5273 17.6309 20.666C17.6319 20.7432 17.633 20.8205 17.6342 20.9C17.625 21.0938 17.625 21.0938 17.5312 21.1875C16.8135 21.267 16.1952 21.1654 15.5625 20.8125C15.4682 20.7193 15.3743 20.6257 15.2812 20.5312C15.2194 20.5312 15.1575 20.5312 15.0938 20.5312C15.0628 20.4384 15.0319 20.3456 15 20.25C14.1606 20.2966 13.4718 20.6291 12.8438 21.1875C12.2194 21.9933 11.891 22.7858 12 23.8125C12.1806 24.7198 12.5569 25.4206 13.3125 25.9688C13.363 26.0092 13.4135 26.0497 13.4656 26.0914C14.0648 26.5285 14.918 26.7188 15.6562 26.7188C15.6588 26.8574 15.6606 26.9961 15.6621 27.1348C15.6632 27.212 15.6643 27.2892 15.6654 27.3688C15.6562 27.5625 15.6562 27.5625 15.5625 27.6562C14.7659 27.7139 14.0589 27.6639 13.3125 27.375C13.0734 27.8532 13.1509 28.5441 13.2938 29.0438C13.617 29.7579 14.1763 30.3411 14.9004 30.6562C15.7042 30.8998 16.4246 30.7631 17.1562 30.375C17.2733 30.2896 17.3887 30.2018 17.502 30.1113C17.8125 29.9062 17.8125 29.9062 18.1816 29.9238C18.2764 29.949 18.3711 29.9741 18.4688 30C18.5449 30.2461 18.5449 30.2461 18.5625 30.5625C18.1451 31.3045 17.2589 31.5792 16.5 31.875C16.7454 32.805 17.1592 33.3919 17.9678 33.9163C18.6627 34.2799 19.4487 34.3583 20.209 34.1543C21.128 33.7714 21.7553 33.1998 22.1353 32.2793C22.2404 31.8882 22.2532 31.5281 22.2539 31.125C22.2574 31.0151 22.2574 31.0151 22.2609 30.9031C22.2634 30.4013 22.1782 30.1151 21.8438 29.7188C21.4482 29.4639 21.0902 29.3903 20.625 29.3438C20.625 29.0344 20.625 28.725 20.625 28.4062C20.7851 28.4037 20.9453 28.4019 21.1055 28.4004C21.1947 28.3993 21.2838 28.3982 21.3757 28.3971C21.6562 28.4062 21.6562 28.4062 22.2188 28.5C22.2188 27.1388 22.2188 25.7775 22.2188 24.375C21.8475 24.5606 21.4762 24.7463 21.0938 24.9375C20.5482 25.1481 19.9868 25.1905 19.4062 25.125C19.2188 24.9375 19.2188 24.9375 19.1953 24.6562C19.2188 24.375 19.2188 24.375 19.4062 24.1875C19.6122 24.1432 19.8195 24.105 20.0273 24.0703C20.6358 23.9464 21.0296 23.7808 21.4688 23.3438C21.5147 23.2981 21.5606 23.2524 21.6079 23.2053C22.1855 22.5699 22.2661 21.9571 22.2598 21.1348C22.2616 21.0485 22.2635 20.9623 22.2654 20.8735C22.2651 20.3395 22.2129 20.0092 21.8438 19.5938C21.5303 19.4215 21.5303 19.4215 21.1875 19.3125C21.0812 19.2758 20.9748 19.239 20.8652 19.2012C20.786 19.176 20.7067 19.1509 20.625 19.125C20.625 18.8466 20.625 18.5681 20.625 18.2813C20.7851 18.2761 20.9453 18.2725 21.1055 18.2695C21.2392 18.2663 21.2392 18.2663 21.3757 18.2629C21.6836 18.283 21.9288 18.3669 22.2188 18.4688C22.2281 18.0703 22.2349 17.6719 22.2393 17.2734C22.2412 17.1382 22.2438 17.003 22.247 16.8678C22.2687 15.9475 22.2391 15.202 21.6328 14.4609C20.5106 13.5428 19.3931 13.4001 18.3105 14.5078Z" fill="#FF7705"></path>
    <path d="M25.4295 1.32422C25.8534 1.76745 26.0788 2.24774 26.1033 2.86523C26.0714 3.49555 25.8553 4.05072 25.406 4.5C24.8577 4.875 24.8577 4.875 24.5623 4.875C24.5627 4.97069 24.5631 5.06637 24.5635 5.16495C24.5673 6.06577 24.5701 6.96658 24.572 7.8674C24.573 8.33055 24.5743 8.79369 24.5764 9.25683C24.5784 9.70361 24.5796 10.1504 24.5801 10.5972C24.5804 10.7678 24.5811 10.9384 24.5821 11.1091C24.5834 11.3477 24.5836 11.5863 24.5836 11.8249C24.5842 11.8958 24.5849 11.9666 24.5856 12.0396C24.5842 12.3909 24.5748 12.5437 24.3748 12.8438C24.199 12.8811 24.199 12.8811 23.9998 12.8789C23.934 12.8796 23.8683 12.8804 23.8005 12.8811C23.6248 12.8438 23.6248 12.8438 23.4373 12.5625C23.4173 12.3135 23.4081 12.074 23.4074 11.8249C23.4064 11.7499 23.4055 11.6748 23.4045 11.5975C23.4016 11.3495 23.4 11.1015 23.3985 10.8534C23.3967 10.6814 23.3949 10.5095 23.3929 10.3375C23.3881 9.88488 23.3844 9.43222 23.3809 8.97956C23.3772 8.51767 23.3724 8.05581 23.3677 7.59393C23.3586 6.68763 23.3507 5.78132 23.3435 4.875C23.2547 4.83207 23.1658 4.78914 23.0743 4.7449C22.5474 4.47332 22.2104 4.05598 21.99 3.50977C21.8638 2.73868 21.9664 2.17751 22.3826 1.52344C23.2777 0.628354 24.419 0.663541 25.4295 1.32422ZM23.2498 2.4375C23.116 2.70499 23.1269 2.89074 23.156 3.1875C23.3248 3.44062 23.4451 3.6133 23.7185 3.75C24.0815 3.79034 24.2365 3.77969 24.5447 3.57422C24.7866 3.33924 24.8358 3.25738 24.8728 2.92383C24.8368 2.55649 24.7223 2.41754 24.4685 2.15625C23.9718 1.9079 23.624 2.07399 23.2498 2.4375Z" fill="#FF7705"></path>
    <path d="M23.8013 35.1189C23.8999 35.12 23.8999 35.12 24.0005 35.1211C24.0663 35.1204 24.132 35.1196 24.1997 35.1189C24.3755 35.1562 24.3755 35.1562 24.563 35.4375C24.5791 35.6843 24.5845 35.921 24.581 36.1677C24.5806 36.2791 24.5806 36.2791 24.5802 36.3927C24.5796 36.554 24.5786 36.7153 24.5773 36.8766C24.5755 37.132 24.5753 37.3873 24.5756 37.6426C24.5765 38.3686 24.5765 39.0946 24.5704 39.8206C24.5668 40.2647 24.5669 40.7087 24.5693 41.1528C24.5695 41.322 24.5684 41.4912 24.5659 41.6603C24.5104 42.5444 24.5104 42.5444 24.8201 43.3256C25.0132 43.4454 25.1943 43.5161 25.4068 43.5938C25.7951 43.9263 25.9796 44.3121 26.063 44.8125C26.0619 45.5056 25.9337 46.0177 25.483 46.5586C24.9562 47.0034 24.4745 47.229 23.7749 47.1987C23.2262 47.1029 22.7626 46.8515 22.3658 46.4648C21.9967 45.8448 21.8266 45.3507 21.938 44.625C22.1428 43.9534 22.4693 43.577 23.0641 43.2151C23.2505 43.125 23.2505 43.125 23.438 43.125C23.4376 43.0293 23.4372 42.9336 23.4368 42.835C23.433 41.9342 23.4302 41.0334 23.4283 40.1326C23.4273 39.6695 23.426 39.2063 23.4239 38.7432C23.4219 38.2964 23.4207 37.8496 23.4202 37.4028C23.4199 37.2322 23.4192 37.0616 23.4182 36.8909C23.4168 36.6523 23.4167 36.4137 23.4167 36.1751C23.4161 36.1042 23.4154 36.0334 23.4147 35.9604C23.4177 35.2004 23.4177 35.2004 23.8013 35.1189ZM23.2505 44.625C23.1034 44.9193 23.1238 45.1442 23.1568 45.4688C23.3365 45.7578 23.3365 45.7578 23.6255 45.9375C24.0289 46.0023 24.2077 45.9858 24.5513 45.7617C24.7868 45.5262 24.8369 45.4412 24.8736 45.1113C24.8376 44.744 24.7231 44.605 24.4693 44.3438C23.9726 44.0954 23.6247 44.2615 23.2505 44.625Z" fill="#FF7705"></path>
    <path d="M10.2191 7.31251C10.773 7.6709 10.9868 8.08432 11.1566 8.71876C11.2038 9.08972 11.1749 9.41024 11.0625 9.76948C11.0629 10.1737 11.1013 10.2194 11.3605 10.5063C11.5014 10.6464 11.6442 10.7845 11.7887 10.9208C11.8635 10.9943 11.9383 11.0679 12.0154 11.1436C12.2548 11.3782 12.4966 11.61 12.7386 11.8418C12.9794 12.0758 13.2197 12.3103 13.4598 12.545C13.6095 12.6908 13.7596 12.8362 13.9102 12.981C13.9781 13.0465 14.046 13.1119 14.1159 13.1793C14.1759 13.2369 14.236 13.2944 14.2978 13.3537C14.499 13.5639 14.53 13.6687 14.555 13.9629C14.5316 14.25 14.5316 14.25 14.4261 14.4258C14.1473 14.5931 14.0101 14.592 13.6878 14.5313C13.1662 14.1504 12.7262 13.6645 12.2889 13.1924C12.1685 13.0658 12.0479 12.9393 11.9271 12.813C11.7399 12.6171 11.5539 12.4206 11.3706 12.221C10.6988 11.4302 10.6988 11.4302 9.79974 11.0011C9.51905 11.0266 9.27203 11.0848 9.00035 11.1563C8.3486 11.1061 7.87704 10.7873 7.43003 10.3301C7.07237 9.82339 6.97777 9.33235 7.0316 8.71876C7.17814 8.13031 7.44059 7.62369 7.96653 7.28834C8.72471 6.90591 9.471 6.8953 10.2191 7.31251ZM8.25035 8.81251C8.18442 9.17146 8.21981 9.32004 8.39683 9.63868C8.69617 9.90732 8.88233 9.93751 9.2816 9.93751C9.61665 9.78859 9.73262 9.68285 9.93785 9.37501C9.99039 8.96968 9.98272 8.78466 9.75035 8.44336C9.43927 8.2295 9.27121 8.17381 8.90074 8.19837C8.55533 8.29656 8.42631 8.51557 8.25035 8.81251Z" fill="#FF7705"></path>
    <path d="M34.3125 33.4688C34.8441 33.8584 35.3011 34.3557 35.7583 34.8281C35.8865 34.9589 36.0148 35.0897 36.1432 35.2203C36.3427 35.4239 36.5418 35.6278 36.74 35.8327C36.9332 36.0321 37.1278 36.23 37.3228 36.4277C37.382 36.4897 37.4413 36.5517 37.5024 36.6156C37.5581 36.6717 37.6139 36.7277 37.6713 36.7855C37.7198 36.8354 37.7684 36.8852 37.8184 36.9366C37.9666 37.053 37.9666 37.053 38.1588 37.0011C38.2504 36.9696 38.2504 36.9696 38.3438 36.9375C39.0325 36.8775 39.6589 36.8663 40.2188 37.3125C40.6747 37.7817 40.9571 38.274 40.9746 38.9418C40.946 39.5273 40.7931 39.9622 40.4062 40.4063C39.8218 40.9215 39.3193 41.0077 38.5594 41.001C37.9786 40.9405 37.6146 40.6454 37.2305 40.2246C36.8487 39.6744 36.799 39.1823 36.8438 38.5312C36.8745 38.4347 36.9053 38.3381 36.937 38.2386C36.9376 37.8278 36.9028 37.7839 36.6398 37.4937C36.499 37.3536 36.3561 37.2155 36.2117 37.0792C36.1368 37.0057 36.062 36.9321 35.9849 36.8564C35.7456 36.6218 35.5038 36.39 35.2617 36.1582C35.0209 35.9242 34.7807 35.6897 34.5405 35.455C34.3909 35.3092 34.2407 35.1638 34.0901 35.019C34.0222 34.9535 33.9544 34.8881 33.8844 34.8207C33.8244 34.7631 33.7644 34.7056 33.7025 34.6463C33.5013 34.4361 33.4703 34.3313 33.4453 34.0371C33.4688 33.75 33.4688 33.75 33.5742 33.5742C33.8531 33.4069 33.9903 33.408 34.3125 33.4688ZM38.25 38.3438C38.0164 38.6941 38.0196 38.8662 38.0625 39.2812C38.1946 39.5616 38.1946 39.5616 38.4375 39.75C38.8049 39.8569 39.003 39.8821 39.3574 39.7324C39.5784 39.5494 39.6734 39.4631 39.75 39.1875C39.737 38.8236 39.7098 38.604 39.4922 38.3086C39.0224 37.9693 38.7301 38.045 38.25 38.3438Z" fill="#FF7705"></path>
    <path d="M14.2494 33.4687C14.4252 33.5742 14.4252 33.5742 14.5306 33.75C14.5892 34.0019 14.5892 34.0019 14.5306 34.3125C14.1409 34.8441 13.6437 35.3011 13.1713 35.7583C13.0405 35.8865 12.9097 36.0148 12.779 36.1432C12.5755 36.3427 12.3716 36.5418 12.1667 36.74C11.9673 36.9332 11.7694 37.1278 11.5716 37.3227C11.5096 37.382 11.4477 37.4413 11.3838 37.5024C11.3277 37.5581 11.2716 37.6139 11.2139 37.6713C11.164 37.7198 11.1141 37.7684 11.0628 37.8184C10.9464 37.9666 10.9464 37.9666 10.9983 38.1588C11.0297 38.2504 11.0297 38.2504 11.0619 38.3437C11.122 39.0332 11.1325 39.658 10.6869 40.2187C10.1909 40.7103 9.67483 40.955 8.9785 40.9746C8.42709 40.9443 8.01256 40.7645 7.59313 40.4062C7.07732 39.8226 6.99165 39.3187 6.9984 38.5594C7.05889 37.9786 7.354 37.6146 7.77477 37.2305C8.32497 36.8487 8.81708 36.799 9.46813 36.8437C9.56472 36.8745 9.66131 36.9053 9.76082 36.937C10.1715 36.9376 10.2155 36.9028 10.5057 36.6398C10.6458 36.499 10.7838 36.3561 10.9202 36.2117C10.9937 36.1368 11.0672 36.062 11.143 35.9849C11.3776 35.7456 11.6094 35.5038 11.8412 35.2617C12.0752 35.0209 12.3097 34.7807 12.5444 34.5405C12.6902 34.3909 12.8356 34.2407 12.9804 34.0901C13.0458 34.0222 13.1113 33.9544 13.1787 33.8844C13.2363 33.8244 13.2938 33.7644 13.3531 33.7025C13.6351 33.4325 13.8689 33.4377 14.2494 33.4687ZM8.4486 38.2617C8.22657 38.5621 8.15563 38.7214 8.15563 39.0937C8.27019 39.3591 8.37417 39.5132 8.60094 39.6914C8.91886 39.7797 9.15031 39.7357 9.46813 39.6562C9.71575 39.4738 9.81854 39.3435 9.93102 39.0586C9.93902 38.7226 9.83146 38.5326 9.65563 38.25C9.21889 37.9588 8.87555 37.9461 8.4486 38.2617Z" fill="#FF7705"></path>
    <path d="M40.1136 7.37695C40.5498 7.69751 40.7963 8.01281 40.9691 8.53125C41.032 9.227 41.0289 9.83497 40.5941 10.4063C40.1915 10.8429 39.7843 11.1285 39.1758 11.1698C38.837 11.1761 38.5651 11.1669 38.2389 11.063C37.8282 11.0624 37.7843 11.0972 37.494 11.3602C37.3539 11.501 37.2159 11.6439 37.0796 11.7883C37.006 11.8632 36.9325 11.938 36.8567 12.0151C36.6222 12.2544 36.3903 12.4962 36.1586 12.7383C35.9245 12.9791 35.69 13.2193 35.4554 13.4595C35.3095 13.6091 35.1642 13.7593 35.0193 13.9099C34.9212 14.0117 34.9212 14.0117 34.821 14.1156C34.7635 14.1756 34.7059 14.2356 34.6466 14.2975C34.4364 14.4987 34.3316 14.5297 34.0375 14.5547C33.7504 14.5313 33.7504 14.5313 33.5746 14.4258C33.4073 14.147 33.4083 14.0097 33.4691 13.6875C33.8588 13.1559 34.356 12.6989 34.8285 12.2417C34.9593 12.1135 35.09 11.9852 35.2207 11.8568C35.4243 11.6573 35.6282 11.4582 35.833 11.26C36.0325 11.0668 36.2304 10.8722 36.4281 10.6772C36.4901 10.618 36.5521 10.5587 36.616 10.4976C36.672 10.4419 36.7281 10.3861 36.7859 10.3287C36.8357 10.2802 36.8856 10.2316 36.937 10.1816C37.0533 10.0334 37.0533 10.0334 37.0015 9.84118C36.9805 9.78016 36.9595 9.71913 36.9379 9.65625C36.8769 8.95704 36.8818 8.35868 37.3129 7.78125C38.079 6.97946 39.1617 6.78394 40.1136 7.37695ZM38.2504 8.53125C38.0726 8.76555 38.0624 8.88559 38.0687 9.18164C38.1823 9.55269 38.3137 9.70716 38.6254 9.9375C38.9535 10.0156 38.9535 10.0156 39.2816 9.9375C39.5597 9.72594 39.7115 9.56355 39.8441 9.24024C39.8441 8.90669 39.7422 8.71582 39.5629 8.4375C39.1093 8.1049 38.6773 8.20817 38.2504 8.53125Z" fill="#FF7705"></path>
    <path d="M3.86719 22.1191C4.35264 22.3856 4.63587 22.7552 4.875 23.25C4.875 23.3119 4.875 23.3737 4.875 23.4375C4.97096 23.4366 4.97096 23.4366 5.06886 23.4356C5.73341 23.4294 6.39796 23.4251 7.06254 23.422C7.31071 23.4206 7.55888 23.4187 7.80704 23.4163C8.16332 23.4129 8.51957 23.4113 8.87585 23.41C9.04286 23.4079 9.04286 23.4079 9.21323 23.4056C9.31644 23.4056 9.41965 23.4056 9.52599 23.4056C9.61697 23.4049 9.70794 23.4043 9.80168 23.4037C10.0312 23.4375 10.0312 23.4375 10.2013 23.5625C10.3742 23.8053 10.3486 23.9922 10.3125 24.2812C10.2013 24.4369 10.2013 24.4369 10.0312 24.5625C9.80168 24.5999 9.80168 24.5999 9.52599 24.603C9.42278 24.6049 9.31957 24.6067 9.21323 24.6087C9.04623 24.6096 9.04623 24.6096 8.87585 24.6105C8.7618 24.6122 8.64775 24.6138 8.53025 24.6156C8.16535 24.6207 7.80047 24.6238 7.43555 24.627C7.18841 24.6301 6.94128 24.6333 6.69415 24.6367C6.08778 24.6446 5.4814 24.651 4.875 24.6562C4.83207 24.7451 4.78914 24.834 4.7449 24.9255C4.47607 25.447 4.05958 25.7791 3.52734 26.0156C2.87917 26.105 2.23808 26.0668 1.6875 25.6875C1.15468 25.1783 0.874664 24.7583 0.814453 24.0117C0.831908 23.4031 1.05649 22.827 1.5 22.4062C2.28048 21.8878 2.99394 21.744 3.86719 22.1191ZM2.25586 23.4023C2.04507 23.7473 1.98705 23.8872 2.0625 24.2812C2.23124 24.5344 2.3516 24.7071 2.625 24.8437C2.97308 24.8824 3.14496 24.8683 3.45117 24.6914C3.70149 24.4196 3.74251 24.2732 3.75 23.9062C3.67892 23.6284 3.59922 23.4769 3.4043 23.2676C2.94566 23.0321 2.63785 23.061 2.25586 23.4023Z" fill="#FF7705"></path>
    <path d="M46.3134 22.3125C46.7919 22.6989 47.0533 23.2105 47.1572 23.8125C47.1701 24.3329 47.0757 24.7832 46.7822 25.2187C46.2737 25.7519 45.8525 26.0316 45.1064 26.0918C44.4172 26.0707 43.8881 25.7934 43.4072 25.3125C43.1259 24.8344 43.1259 24.8344 43.1259 24.5625C43.0299 24.5634 43.0299 24.5634 42.932 24.5644C42.2675 24.5706 41.6029 24.5748 40.9384 24.5779C40.6902 24.5794 40.442 24.5813 40.1939 24.5837C39.8376 24.5871 39.4813 24.5887 39.1251 24.59C38.958 24.5921 38.958 24.5921 38.7877 24.5944C38.6845 24.5944 38.5813 24.5944 38.4749 24.5944C38.3385 24.5954 38.3385 24.5954 38.1992 24.5963C37.9697 24.5625 37.9697 24.5625 37.7997 24.4375C37.6267 24.1947 37.6523 24.0078 37.6884 23.7187C37.7997 23.5625 37.7997 23.5625 37.9697 23.4375C38.1992 23.4037 38.1992 23.4037 38.4749 23.4056C38.5781 23.4056 38.6813 23.4056 38.7877 23.4056C38.899 23.4071 39.0103 23.4085 39.1251 23.41C39.2391 23.4104 39.3532 23.4108 39.4707 23.4112C39.8356 23.4128 40.2005 23.4163 40.5654 23.4199C40.8125 23.4213 41.0596 23.4226 41.3068 23.4238C41.9132 23.4269 42.5195 23.4316 43.1259 23.4375C43.1536 23.3498 43.1813 23.262 43.2098 23.1716C43.4234 22.5603 43.7885 22.3093 44.3447 22.0312C45.026 21.7758 45.7026 21.9718 46.3134 22.3125ZM44.2509 23.625C44.1749 23.8925 44.1795 24.1068 44.2509 24.375C44.4287 24.67 44.4287 24.67 44.7197 24.8437C45.1067 24.9059 45.3008 24.8845 45.6454 24.6973C45.9071 24.3971 45.9384 24.208 45.9384 23.8125C45.7895 23.4774 45.6838 23.3615 45.3759 23.1562C44.8512 23.0746 44.5958 23.2309 44.2509 23.625Z" fill="#FF7705"></path>
  </g>
  <defs>
    <clipPath id="clip0_3791_79">
      <rect width="48" height="48" fill="white"></rect>
    </clipPath>
  </defs>
</svg>
