<?xml version="1.0" encoding="UTF-8"?>
<svg xmlns="http://www.w3.org/2000/svg" width="48" height="48" viewBox="0 0 48 48" fill="none">
  <g clip-path="url(#clip0_5230_54)">
    <path d="M47.0651 24.0454C47.1261 24.0923 47.1871 24.1392 47.25 24.1875C47.3343 24.252 47.3343 24.252 47.4203 24.3179C47.7064 24.5467 47.9499 24.7505 48.048 25.1166C48.0782 25.4872 48.0513 25.7063 47.8378 26.0185C47.6192 26.2623 47.392 26.4915 47.1562 26.7187C47.0914 26.7857 47.0265 26.8526 46.9596 26.9216C46.6752 27.2145 46.3824 27.4897 46.0725 27.7552C45.6248 28.1463 45.2071 28.564 44.7891 28.9863C44.6685 29.1074 44.6685 29.1074 44.5454 29.231C44.2905 29.4871 44.0358 29.7435 43.7812 30C43.4456 30.3381 43.1096 30.676 42.7734 31.0137C42.6976 31.0902 42.6218 31.1668 42.5437 31.2457C42.2152 31.5756 41.8856 31.8982 41.5325 32.2018C41.0889 32.5835 40.6801 32.9974 40.2686 33.4131C40.1448 33.5373 40.1448 33.5373 40.0186 33.6641C39.757 33.9269 39.4956 34.1899 39.2344 34.4531C38.8899 34.8001 38.5452 35.1467 38.2002 35.4931C38.1223 35.5718 38.0445 35.6504 37.9643 35.7314C37.5667 36.1307 37.1617 36.5122 36.7345 36.8795C36.4686 37.1141 36.2239 37.3671 35.9784 37.6227C35.8711 37.7325 35.7637 37.8423 35.6563 37.9521C35.4914 38.121 35.3269 38.2902 35.1635 38.4605C34.4363 39.2164 33.738 39.8114 32.8125 40.3125C32.7155 40.3674 32.7155 40.3674 32.6166 40.4234C30.9255 41.3639 29.0259 41.8325 27.0971 41.8286C27.0082 41.8284 26.9193 41.8283 26.8277 41.8281C25.7389 41.8193 24.6565 41.7335 23.5715 41.6484C23.3481 41.6315 23.1246 41.6147 22.9011 41.598C22.3193 41.5542 21.7375 41.5097 21.1557 41.4648C20.2217 41.3929 19.2876 41.322 18.3534 41.2516C18.0298 41.2271 17.7062 41.202 17.3826 41.1768C17.1827 41.1616 16.9829 41.1465 16.783 41.1313C16.6506 41.1208 16.6506 41.1208 16.5156 41.1101C15.1912 41.0112 14.1012 40.9687 13.0067 41.8066C12.8133 41.9523 12.6255 42.079 12.42 42.2051C12.0786 42.4244 11.8001 42.63 11.5313 42.9375C11.4619 43.3005 11.4731 43.5852 11.525 43.9501C11.5313 44.25 11.5313 44.25 11.3763 44.5118C10.9934 44.8719 10.5644 44.9411 10.0568 45.0308C9.99533 45.0418 9.93383 45.0528 9.87046 45.0641C9.66804 45.1002 9.4655 45.1354 9.26294 45.1706C9.12105 45.1956 8.97916 45.2205 8.83727 45.2455C8.53992 45.2977 8.2425 45.3495 7.94504 45.401C7.56633 45.4667 7.18785 45.5336 6.80942 45.6009C6.51627 45.6528 6.22298 45.7039 5.92964 45.7548C5.79019 45.7791 5.65079 45.8037 5.51144 45.8286C3.4416 46.1972 3.4416 46.1972 2.90039 45.8437C2.45724 45.1576 2.41691 44.2103 2.2776 43.4184C2.25266 43.2777 2.22769 43.137 2.2027 42.9964C2.13523 42.616 2.06811 42.2355 2.00111 41.855C1.95916 41.6169 1.91715 41.3787 1.87513 41.1406C1.74342 40.3942 1.61194 39.6477 1.48078 38.9011C1.3298 38.0418 1.17807 37.1826 1.02568 36.3235C0.907622 35.6577 0.79024 34.9917 0.673365 34.3257C0.603684 33.9287 0.53372 33.5317 0.463046 33.1349C0.396554 32.7614 0.330912 32.3878 0.265898 32.0141C0.242017 31.8776 0.217842 31.7413 0.193334 31.6049C-0.150179 29.6913 -0.150179 29.6913 0.12275 29.0596C0.5175 28.7707 0.934872 28.7199 1.41101 28.6395C1.56628 28.611 1.56628 28.611 1.72468 28.5819C2.05574 28.5215 2.3872 28.4638 2.71875 28.4062C2.93208 28.3677 3.14539 28.3291 3.35866 28.2903C3.88786 28.1946 4.41752 28.1018 4.94749 28.0104C5.27371 27.954 5.59977 27.8968 5.92584 27.8395C6.13549 27.8032 6.34515 27.7668 6.55481 27.7306C6.69938 27.7051 6.69938 27.7051 6.84687 27.6791C7.98105 27.4853 7.98105 27.4853 8.45874 27.6958C8.81771 28.0295 8.86118 28.3336 8.94141 28.8047C8.96443 28.9229 8.96443 28.9229 8.98792 29.0434C9.02529 29.2369 9.05981 29.4309 9.09375 29.625C9.48707 29.4033 9.87059 29.1757 10.248 28.9277C12.6651 27.3854 15.658 26.8229 18.4874 27.2962C18.7829 27.3615 19.0744 27.4332 19.3671 27.5094C19.4631 27.5343 19.5591 27.5591 19.658 27.5848C19.846 27.6343 20.0335 27.6855 20.2205 27.7387C21.6098 28.1132 22.8909 28.0511 24.2871 27.7969C24.436 27.7713 24.5849 27.7459 24.7339 27.7206C25.4571 27.597 26.1789 27.465 26.9003 27.331C27.2305 27.2699 27.5609 27.2098 27.8913 27.1497C28.1225 27.107 28.3533 27.0623 28.5841 27.0174C30.4833 26.6606 32.3317 26.6164 34.0312 27.6562C34.4979 28.0009 34.9357 28.369 35.3438 28.7812C35.3855 28.7483 35.4273 28.7155 35.4704 28.6816C36.3452 27.9943 37.227 27.319 38.1253 26.6627C38.6109 26.3073 39.0903 25.9448 39.5671 25.5777C41.7952 23.8632 44.3456 22.0909 47.0651 24.0454ZM42.1113 25.9922C42.036 26.0489 41.9607 26.1057 41.8831 26.1642C41.64 26.3479 41.398 26.5332 41.1562 26.7187C40.9873 26.8477 40.8184 26.9766 40.6494 27.1055C40.3962 27.2986 40.1431 27.4918 39.8902 27.6854C39.4348 28.0334 38.9764 28.3751 38.5078 28.7051C37.7491 29.2398 37.0156 29.8073 36.2812 30.375C36.2959 30.4396 36.3105 30.5043 36.3256 30.5709C36.574 31.7701 36.574 31.7701 36.375 32.25C35.9456 32.586 35.4584 32.6369 34.9355 32.7252C34.8379 32.7425 34.7403 32.7597 34.6397 32.7775C34.3173 32.8343 33.9946 32.8897 33.672 32.9451C33.4474 32.9843 33.2229 33.0236 32.9984 33.063C32.4071 33.1665 31.8157 33.2687 31.2242 33.3708C30.7424 33.4542 30.2607 33.5384 29.779 33.6226C29.2037 33.7232 28.6283 33.8234 28.0529 33.9236C27.9435 33.9426 27.834 33.9617 27.7213 33.9813C27.4104 34.0353 27.0994 34.0891 26.7884 34.1428C26.6972 34.1587 26.6059 34.1745 26.5119 34.1909C25.0205 34.4474 25.0205 34.4474 24.375 34.2187C24.3541 34.0705 24.3349 33.922 24.3164 33.7734C24.3055 33.6908 24.2947 33.6081 24.2834 33.5229C24.281 33.249 24.3215 33.1346 24.4688 32.9062C24.9997 32.619 25.6626 32.5455 26.2517 32.4468C26.3414 32.4312 26.4311 32.4156 26.5236 32.3995C26.8172 32.3487 27.1109 32.2988 27.4047 32.2489C27.6095 32.2136 27.8142 32.1783 28.019 32.1429C28.5557 32.0503 29.0925 31.9585 29.6294 31.8669C30.1781 31.7731 30.7267 31.6785 31.2753 31.584C32.3501 31.399 33.425 31.2149 34.5 31.0312C34.4414 30.9111 34.3825 30.7912 34.3234 30.6713C34.2742 30.5711 34.2742 30.5711 34.2241 30.4689C33.7896 29.6458 33.0475 29.1043 32.1855 28.8047C32.0512 28.7642 31.9165 28.725 31.7812 28.6875C31.6681 28.6556 31.6681 28.6556 31.5527 28.623C30.6484 28.5127 29.7825 28.6757 28.8948 28.8365C28.7529 28.8616 28.611 28.8866 28.4691 28.9115C28.0978 28.9769 27.7267 29.0432 27.3557 29.1098C26.7614 29.2162 26.1668 29.321 25.5722 29.4261C25.3659 29.4627 25.1597 29.4996 24.9534 29.5366C23.0212 29.8817 21.3064 29.8986 19.4 29.4115C16.5729 28.69 13.9136 28.9389 11.3438 30.375C10.9799 30.6041 10.6462 30.8545 10.3125 31.125C10.2289 31.1836 10.1452 31.2422 10.0591 31.3026C9.98029 31.3619 9.90149 31.4213 9.82031 31.4824C9.75022 31.5333 9.68013 31.5842 9.60791 31.6366C9.17478 32.3786 9.73196 33.9281 9.87927 34.7501C9.91071 34.9273 9.9421 35.1045 9.97346 35.2817C10.0555 35.7449 10.1381 36.208 10.2208 36.6711C10.3053 37.1449 10.3894 37.6188 10.4735 38.0927C10.6381 39.0202 10.8032 39.9476 10.9688 40.875C11.3052 40.7466 11.5444 40.6171 11.8184 40.3828C12.8203 39.5843 13.87 39.2437 15.1366 39.2593C15.2633 39.2601 15.2633 39.2601 15.3926 39.261C16.4736 39.2754 17.5499 39.3619 18.6273 39.4453C18.853 39.4622 19.0787 39.479 19.3044 39.4957C19.8926 39.5395 20.4807 39.5841 21.0688 39.6289C22.0127 39.7008 22.9566 39.7718 23.9005 39.8421C24.2277 39.8666 24.5549 39.8917 24.882 39.9169C25.084 39.9321 25.2861 39.9472 25.4881 39.9624C25.6221 39.9729 25.6221 39.9729 25.7587 39.9836C26.6716 40.051 27.5783 40.0803 28.4824 39.9199C28.5541 39.9074 28.6257 39.8948 28.6995 39.8819C29.6989 39.6957 30.6227 39.3619 31.5352 38.918C31.5942 38.8895 31.6533 38.8611 31.7141 38.8318C32.6665 38.3474 33.3916 37.6003 34.1309 36.8437C34.3074 36.6637 34.4844 36.4841 34.6615 36.3047C34.7386 36.2259 34.8157 36.1471 34.8952 36.0659C35.0949 35.872 35.2959 35.6899 35.5067 35.5087C35.957 35.1181 36.3747 34.6978 36.7939 34.2744C36.9177 34.1501 36.9177 34.1501 37.0439 34.0234C37.3055 33.7606 37.5669 33.4975 37.8281 33.2344C38.1726 32.8874 38.5173 32.5408 38.8623 32.1943C38.9402 32.1157 39.018 32.0371 39.0982 31.956C39.4898 31.5628 39.8886 31.1876 40.3093 30.8258C40.6847 30.4919 41.0343 30.1313 41.3877 29.7744C41.5114 29.6501 41.5114 29.6501 41.6376 29.5234C41.8993 29.2606 42.1606 28.9975 42.4219 28.7344C42.7663 28.3874 43.1111 28.0408 43.4561 27.6943C43.5339 27.6157 43.6118 27.5371 43.692 27.456C44.0954 27.051 44.5052 26.6607 44.9397 26.2891C45.1245 26.1297 45.298 25.9614 45.4688 25.7871C45.5229 25.7321 45.577 25.6771 45.6328 25.6205C45.6715 25.5807 45.7102 25.5409 45.75 25.5C45.3021 25.0248 44.7959 25.0088 44.1724 24.988C43.3718 25.1044 42.7402 25.5066 42.1113 25.9922ZM6.45955 29.6072C6.36227 29.6238 6.265 29.6404 6.16477 29.6575C6.05988 29.6756 5.95499 29.6938 5.84692 29.7125C5.73934 29.731 5.63175 29.7495 5.52091 29.7686C5.29345 29.8078 5.06602 29.8471 4.83861 29.8866C4.48912 29.9471 4.13952 30.007 3.78992 30.0668C3.56933 30.1049 3.34875 30.1431 3.12817 30.1813C2.97027 30.2082 2.97027 30.2082 2.80918 30.2357C2.71249 30.2526 2.61581 30.2695 2.51619 30.2869C2.38787 30.3091 2.38787 30.3091 2.25696 30.3317C2.06441 30.3563 2.06441 30.3563 1.96875 30.4687C1.9853 31.2344 2.13642 31.9964 2.26811 32.7486C2.28885 32.869 2.30959 32.9894 2.33096 33.1134C2.38733 33.4404 2.44421 33.7673 2.50124 34.0942C2.54892 34.3677 2.59636 34.6413 2.6438 34.9149C2.75565 35.5598 2.86795 36.2047 2.98052 36.8495C3.09659 37.5144 3.21184 38.1794 3.32672 38.8445C3.4256 39.4168 3.525 39.989 3.62482 40.5612C3.68434 40.9024 3.74365 41.2436 3.80246 41.585C3.86789 41.9646 3.9344 42.344 4.00102 42.7234C4.02036 42.8365 4.0397 42.9496 4.05962 43.0661C4.07789 43.1691 4.09616 43.2722 4.11498 43.3783C4.13058 43.468 4.14619 43.5576 4.16227 43.65C4.21102 43.8975 4.21102 43.8975 4.40625 44.1562C5.08034 44.038 5.75439 43.9195 6.42842 43.8009C6.65775 43.7606 6.88709 43.7203 7.11644 43.68C7.44598 43.6222 7.77548 43.5642 8.10498 43.5062C8.25895 43.4792 8.25895 43.4792 8.41604 43.4517C8.51173 43.4349 8.60743 43.418 8.70603 43.4006C8.79013 43.3858 8.87424 43.371 8.96089 43.3558C9.16392 43.317 9.36228 43.2698 9.5625 43.2187C9.44285 42.3496 9.30749 41.4853 9.15578 40.6212C9.13472 40.5004 9.11366 40.3795 9.09196 40.2549C9.03501 39.928 8.97782 39.6011 8.92058 39.2743C8.8605 38.931 8.80066 38.5876 8.74078 38.2443C8.62773 37.5962 8.51447 36.9481 8.40114 36.3001C8.27197 35.5614 8.14304 34.8228 8.01412 34.0841C7.74925 32.5664 7.4841 31.0488 7.21875 29.5312C6.95228 29.5312 6.72165 29.5622 6.45955 29.6072Z" fill="#FF7705"></path>
    <path d="M34.4571 5.43942C35.1785 6.14413 35.7566 6.92198 36.2813 7.78123C36.3168 7.83934 36.3523 7.89746 36.3889 7.95733C37.9944 10.6423 38.315 13.9096 37.5889 16.925C37.2482 18.1896 36.6883 19.479 35.9063 20.5312C35.8688 20.582 35.8314 20.6328 35.7928 20.6851C34.8596 21.9411 33.8186 22.9267 32.5313 23.8125C32.4545 23.8665 32.3778 23.9205 32.2987 23.9762C29.9075 25.5378 26.561 26.0111 23.797 25.4507C23.6133 25.4086 23.4318 25.3618 23.25 25.3125C23.1839 25.2949 23.1177 25.2772 23.0495 25.2591C20.0185 24.42 17.4297 22.3888 15.8467 19.6747C15.105 18.3348 14.6087 16.8027 14.4375 15.2812C14.4249 15.1713 14.4124 15.0613 14.3994 14.948C14.1284 11.887 15.0375 8.77908 16.9896 6.39549C17.8911 5.33504 18.8743 4.47548 20.0625 3.74998C20.1206 3.71446 20.1787 3.67895 20.2386 3.64236C24.8193 0.903224 30.6547 1.86296 34.4571 5.43942ZM23.625 4.21873C23.5101 4.25063 23.3951 4.28254 23.2767 4.31541C20.6911 5.10523 18.594 6.88636 17.3238 9.26216C16.1281 11.5868 15.8364 14.2659 16.5938 16.7812C16.934 17.7831 17.3716 18.7387 18 19.5937C18.0566 19.671 18.1131 19.7482 18.1714 19.8277C18.8938 20.7689 19.715 21.5837 20.7188 22.2187C20.7905 22.2666 20.8623 22.3144 20.9363 22.3637C23.0874 23.741 25.8091 24.1393 28.2859 23.6094C30.8143 23.0214 33.0457 21.5427 34.4879 19.3601C35.9431 17.0097 36.4742 14.3528 35.8913 11.6314C35.3275 9.24389 33.8317 6.93207 31.7505 5.58543C30.7552 4.99756 29.8072 4.52957 28.6875 4.21873C28.5813 4.18876 28.475 4.15879 28.3656 4.12791C26.8392 3.76034 25.1343 3.79289 23.625 4.21873Z" fill="#FF7705"></path>
    <path d="M25.9688 7.59374C26.2378 7.80612 26.3287 7.92348 26.4375 8.24999C26.4458 8.4326 26.4485 8.61548 26.4481 8.79828C26.4481 8.91087 26.4481 9.02347 26.4481 9.13948C26.4476 9.26106 26.4472 9.38265 26.4467 9.50793C26.4465 9.63364 26.4464 9.75935 26.4463 9.88506C26.4459 10.2157 26.445 10.5462 26.4439 10.8768C26.443 11.2143 26.4426 11.5518 26.4421 11.8892C26.4411 12.5511 26.4395 13.2131 26.4375 13.875C26.5572 13.874 26.6768 13.873 26.8001 13.872C27.2448 13.8686 27.6894 13.8665 28.1341 13.8647C28.3264 13.8637 28.5187 13.8625 28.7111 13.8608C28.9878 13.8586 29.2644 13.8575 29.5411 13.8567C29.6269 13.8557 29.7127 13.8547 29.801 13.8537C30.3011 13.8537 30.677 13.8857 31.1016 14.1738C31.2878 14.4438 31.3013 14.6762 31.3125 15C31.1846 15.2741 31.0568 15.4432 30.8438 15.6562C30.5525 15.7562 30.2767 15.7629 29.9704 15.7651C29.8709 15.766 29.7714 15.7669 29.6688 15.7678C29.5618 15.7682 29.4548 15.7686 29.3445 15.769C29.234 15.7696 29.1235 15.7701 29.0096 15.7707C28.7759 15.7715 28.5422 15.7722 28.3084 15.7725C27.9512 15.7734 27.5941 15.7763 27.2369 15.7793C27.0098 15.7799 26.7826 15.7804 26.5554 15.7808C26.4488 15.7819 26.3421 15.7831 26.2322 15.7843C25.2388 15.7815 25.2388 15.7815 24.8438 15.4687C24.609 15.0104 24.5273 14.6733 24.5276 14.1516C24.5273 14.0892 24.5269 14.0267 24.5266 13.9624C24.5258 13.7582 24.5271 13.5541 24.5284 13.3498C24.5285 13.2069 24.5284 13.0639 24.5283 12.9209C24.5283 12.6223 24.5293 12.3236 24.531 12.025C24.5331 11.6428 24.5332 11.2607 24.5325 10.8785C24.5322 10.5837 24.5328 10.2888 24.5338 9.99396C24.5341 9.85305 24.5342 9.71214 24.5341 9.57123C24.534 9.37425 24.5352 9.17732 24.5368 8.98035C24.5372 8.86846 24.5376 8.75656 24.5381 8.64127C24.5684 8.27202 24.6487 7.99838 24.8848 7.71093C25.2358 7.43007 25.555 7.49939 25.9688 7.59374Z" fill="#FF7705"></path>
  </g>
  <defs>
    <clipPath id="clip0_5230_54">
      <rect width="48" height="48" fill="white"></rect>
    </clipPath>
  </defs>
</svg>
