<?xml version="1.0" encoding="UTF-8"?>
<svg xmlns="http://www.w3.org/2000/svg" width="48" height="48" viewBox="0 0 48 48" fill="none">
  <g clip-path="url(#clip0_3750_1288)">
    <path d="M15.5667 4.81611C15.7041 4.81563 15.8414 4.81496 15.9787 4.81409C16.3563 4.81231 16.7337 4.81347 17.1112 4.8151C17.5183 4.81635 17.9254 4.8149 18.3325 4.8138C19.13 4.81208 19.9275 4.81288 20.725 4.81456C21.3731 4.81587 22.0211 4.81624 22.6692 4.81592C22.7613 4.81588 22.8535 4.81583 22.9485 4.81579C23.1357 4.81569 23.3229 4.81559 23.5101 4.81549C25.1664 4.81469 26.8226 4.81625 28.4789 4.81904C30.0867 4.82174 31.6945 4.82241 33.3024 4.82096C35.0524 4.81939 36.8024 4.81901 38.5525 4.82065C38.739 4.82082 38.9255 4.821 39.1121 4.82117C39.2498 4.8213 39.2498 4.8213 39.3902 4.82143C40.0377 4.82195 40.6851 4.82164 41.3325 4.82102C42.1212 4.8203 42.91 4.82093 43.6988 4.82329C44.1014 4.82446 44.5039 4.82503 44.9065 4.82399C45.2749 4.82305 45.6432 4.82384 46.0116 4.82601C46.145 4.8265 46.2785 4.82635 46.4119 4.82551C46.593 4.82446 46.774 4.82594 46.9551 4.82755C47.0558 4.82766 47.1565 4.82777 47.2602 4.82789C47.6083 4.88839 47.7616 4.99031 48 5.25C48.0585 5.51074 48.0585 5.51074 48.0585 5.81779C48.0596 5.93489 48.0607 6.05199 48.0618 6.17264C48.0607 6.30282 48.0595 6.433 48.0583 6.56317C48.0587 6.70128 48.0593 6.83939 48.0601 6.9775C48.0617 7.35754 48.0603 7.73753 48.0585 8.11757C48.0571 8.52722 48.0583 8.93685 48.0593 9.3465C48.0606 10.1492 48.0595 10.9519 48.0575 11.7546C48.0552 12.6888 48.0554 13.623 48.0556 14.5573C48.056 16.2239 48.054 17.8905 48.0508 19.5571C48.0477 21.1753 48.0464 22.7935 48.047 24.4117C48.0476 26.1726 48.0474 27.9336 48.0455 29.6945C48.0454 29.7876 48.0453 29.8807 48.0452 29.9766C48.045 30.1635 48.0448 30.3505 48.0446 30.5374C48.044 31.189 48.0439 31.8407 48.0441 32.4923C48.0442 33.2861 48.0433 34.0799 48.0411 34.8737C48.04 35.279 48.0393 35.6842 48.0398 36.0894C48.0403 36.4601 48.0395 36.8308 48.0377 37.2014C48.0372 37.3358 48.0372 37.4702 48.0378 37.6046C48.0385 37.7867 48.0372 37.9688 48.0359 38.151C48.0358 38.2523 48.0356 38.3536 48.0355 38.458C47.9951 38.7547 47.9278 38.8821 47.7188 39.0938C47.3773 39.2076 47.065 39.2001 46.7097 39.1988C46.5973 39.1989 46.5973 39.1989 46.4827 39.199C46.2309 39.1992 45.9792 39.1987 45.7274 39.1981C45.5473 39.1981 45.3671 39.1981 45.187 39.1982C44.6971 39.1982 44.2073 39.1977 43.7175 39.197C43.2058 39.1964 42.6942 39.1964 42.1826 39.1963C41.2134 39.196 40.2443 39.1952 39.2751 39.1942C38.1719 39.1932 37.0687 39.1927 35.9654 39.1922C33.6957 39.1912 31.426 39.1896 29.1562 39.1875C29.1587 39.2479 29.1612 39.3083 29.1637 39.3706C29.1735 39.6494 29.1796 39.9281 29.1855 40.207C29.1895 40.302 29.1934 40.397 29.1974 40.4949C29.2097 41.2587 29.0498 41.8862 28.5228 42.4608C27.8611 43.0831 27.2041 43.1664 26.3295 43.1607C26.2249 43.1611 26.1204 43.1616 26.0127 43.162C25.6628 43.1632 25.3129 43.1623 24.963 43.1614C24.7119 43.1618 24.4609 43.1623 24.2099 43.1629C23.599 43.1641 22.9882 43.1639 22.3774 43.163C21.8808 43.1624 21.3842 43.1623 20.8877 43.1626C20.7816 43.1627 20.7816 43.1627 20.6733 43.1628C20.5296 43.1629 20.386 43.1629 20.2423 43.163C18.8954 43.1638 17.5485 43.1629 16.2016 43.1614C15.0466 43.1601 13.8916 43.1604 12.7366 43.1617C11.3946 43.1632 10.0527 43.1638 8.71069 43.1629C8.5675 43.1628 8.42432 43.1627 8.28114 43.1626C8.21069 43.1626 8.14025 43.1625 8.06767 43.1625C7.57189 43.1623 7.07612 43.1627 6.58035 43.1633C5.97587 43.1641 5.37139 43.1639 4.76691 43.1624C4.45865 43.1617 4.15041 43.1615 3.84215 43.1623C3.50764 43.1631 3.17317 43.1621 2.83866 43.1607C2.74171 43.1613 2.64476 43.162 2.54487 43.1626C1.80776 43.1566 1.16142 43.0428 0.597358 42.5191C-0.0541719 41.7889 -0.0686656 41.0445 -0.0589597 40.1012C-0.0590375 39.9634 -0.0592687 39.8255 -0.0596449 39.6877C-0.0599116 39.4002 -0.0585471 39.1127 -0.0559613 38.8252C-0.0527633 38.4583 -0.0533323 38.0916 -0.0550859 37.7248C-0.056081 37.4406 -0.0552354 37.1565 -0.0538313 36.8723C-0.0533487 36.7371 -0.0533864 36.6019 -0.0539758 36.4668C-0.0563484 35.596 -0.0189978 34.986 0.542725 34.2931C1.43099 33.5163 2.15774 33.5625 3.375 33.5625C3.375 32.5416 3.375 31.5206 3.375 30.4687C3.11397 30.4765 2.85293 30.4842 2.58398 30.4922C1.81901 30.4985 1.23682 30.4586 0.654785 29.9183C0.169785 29.3969 -0.0224837 28.9772 -0.0272367 28.2571C-0.0284329 28.1338 -0.0296291 28.0105 -0.0308616 27.8835C-0.0311483 27.7495 -0.0313571 27.6155 -0.0314939 27.4816C-0.032097 27.3432 -0.0327278 27.2048 -0.033385 27.0665C-0.0345061 26.7767 -0.0348552 26.487 -0.034744 26.1972C-0.034725 25.8274 -0.0372821 25.4577 -0.0405132 25.088C-0.042607 24.8022 -0.0429782 24.5165 -0.0428793 24.2307C-0.0430994 24.0944 -0.0439225 23.9582 -0.0453798 23.822C-0.0535395 22.9804 -0.0335943 22.3285 0.532105 21.6573C0.582741 21.6164 0.633377 21.5754 0.685547 21.5332C0.760413 21.4699 0.760413 21.4699 0.836792 21.4054C1.51439 20.9728 2.08174 20.9609 2.87217 20.9681C2.99022 20.968 3.10828 20.968 3.22991 20.9679C3.55199 20.9679 3.87404 20.9695 4.19612 20.9715C4.53332 20.9732 4.87051 20.9734 5.20772 20.9737C5.84552 20.9746 6.48331 20.9769 7.12111 20.9797C7.84753 20.9829 8.57395 20.9844 9.30037 20.9858C10.794 20.9888 12.2876 20.9937 13.7813 21C13.7806 20.8796 13.7806 20.8796 13.7799 20.7568C13.7696 18.8046 13.7618 16.8525 13.757 14.9003C13.7545 13.9563 13.7512 13.0122 13.7459 12.0682C13.7412 11.2454 13.7382 10.4227 13.7371 9.5999C13.7365 9.16418 13.7351 8.72849 13.7317 8.29278C13.7285 7.88271 13.7275 7.4727 13.7282 7.06262C13.7281 6.91209 13.7272 6.76155 13.7254 6.61104C13.723 6.40545 13.7236 6.20008 13.7249 5.99449C13.7242 5.82196 13.7242 5.82196 13.7236 5.64594C13.7812 5.34375 13.7813 5.34375 13.9369 5.07238C14.4456 4.75168 14.9805 4.81083 15.5667 4.81611ZM15.375 6.46875C15.375 11.2641 15.375 16.0594 15.375 21C19.3213 21.016 19.3213 21.016 23.2676 21.0279C24.0319 21.0322 24.0319 21.0322 24.39 21.0346C24.6394 21.036 24.8888 21.0368 25.1382 21.0367C25.5167 21.0366 25.895 21.0395 26.2734 21.0426C26.4393 21.0419 26.4393 21.0419 26.6086 21.0411C27.2555 21.0494 27.6627 21.1361 28.2188 21.4687C28.3116 21.4997 28.4044 21.5306 28.5 21.5625C28.5991 21.7333 28.5991 21.7333 28.6875 21.9375C28.7363 22.0236 28.7363 22.0236 28.7861 22.1114C29.128 22.7683 29.1168 23.3977 29.1123 24.126C29.1126 24.2552 29.1129 24.3844 29.1134 24.5136C29.1139 24.783 29.1132 25.0525 29.1114 25.322C29.1093 25.6652 29.1105 26.0084 29.1127 26.3517C29.1141 26.6181 29.1136 26.8844 29.1127 27.1509C29.1123 27.3382 29.1134 27.5256 29.1146 27.713C29.1062 28.5376 28.9973 29.144 28.4766 29.7949C27.859 30.2862 27.3125 30.4319 26.5312 30.4453C26.2528 30.453 25.9744 30.4608 25.6875 30.4687C25.6875 31.4897 25.6875 32.5106 25.6875 33.5625C26.2707 33.609 26.2707 33.609 26.8541 33.6521C27.4947 33.7097 28.028 33.8536 28.5022 34.3059C28.544 34.3661 28.5858 34.4263 28.6289 34.4883C28.6722 34.548 28.7154 34.6077 28.76 34.6692C29.2841 35.6071 29.1065 36.4502 29.1562 37.5938C34.8797 37.5938 40.6031 37.5938 46.5 37.5938C46.5 27.3225 46.5 17.0512 46.5 6.46875C36.2288 6.46875 25.9575 6.46875 15.375 6.46875ZM1.72335 22.7729C1.49605 23.1164 1.48813 23.4128 1.48638 23.8178C1.48578 23.912 1.48519 24.0062 1.48457 24.1032C1.48447 24.2044 1.48436 24.3055 1.48425 24.4098C1.48394 24.5143 1.48363 24.6188 1.48331 24.7264C1.48283 24.9473 1.48261 25.1682 1.48263 25.3891C1.48242 25.7269 1.48072 26.0647 1.47894 26.4025C1.47867 26.6172 1.47848 26.8318 1.47839 27.0465C1.47772 27.1475 1.47705 27.2485 1.47635 27.3525C1.47664 27.447 1.47693 27.5415 1.47723 27.6388C1.47709 27.7216 1.47696 27.8044 1.47682 27.8896C1.5097 28.2235 1.59879 28.482 1.80839 28.746C2.01562 28.9127 2.1303 28.9104 2.39443 28.9109C2.48223 28.9118 2.57002 28.9126 2.66047 28.9135C2.8054 28.9127 2.8054 28.9127 2.95326 28.912C3.10702 28.9128 3.10702 28.9128 3.26389 28.9137C3.60915 28.9153 3.95438 28.9148 4.29964 28.9144C4.54645 28.9151 4.79327 28.9159 5.04008 28.9168C5.64198 28.9187 6.24386 28.9192 6.84576 28.919C7.33493 28.9189 7.82409 28.9192 8.31325 28.9199C8.45404 28.9201 8.59482 28.9203 8.7356 28.9205C8.8407 28.9207 8.8407 28.9207 8.94792 28.9208C10.2738 28.9226 11.5997 28.9225 12.9256 28.9219C14.139 28.9213 15.3523 28.9233 16.5657 28.9264C17.811 28.9296 19.0563 28.931 20.3016 28.9305C21.001 28.9303 21.7004 28.9308 22.3997 28.9332C22.9952 28.9351 23.5906 28.9355 24.1861 28.9337C24.4899 28.9328 24.7937 28.933 25.0976 28.9347C25.4269 28.9364 25.7561 28.9352 26.0854 28.9333C26.1816 28.9344 26.2778 28.9356 26.377 28.9368C26.8193 28.9313 27.0259 28.9263 27.3874 28.653C27.5913 28.3657 27.6217 28.2194 27.6232 27.8699C27.6246 27.7645 27.6261 27.6591 27.6276 27.5504C27.6267 27.4374 27.6257 27.3244 27.6248 27.208C27.6254 27.0328 27.6254 27.0328 27.6261 26.854C27.6265 26.544 27.6246 26.2342 27.622 25.9242C27.6211 25.7345 27.622 25.5449 27.6236 25.3552C27.6265 24.9903 27.6262 24.6256 27.6248 24.2607C27.6262 24.0912 27.6262 24.0912 27.6276 23.9183C27.6262 23.8129 27.6247 23.7074 27.6232 23.5988C27.6226 23.4601 27.6226 23.4601 27.622 23.3186C27.5352 22.9449 27.4002 22.8255 27.0938 22.5937C26.7582 22.524 26.4277 22.5309 26.0861 22.5349C25.932 22.5339 25.932 22.5339 25.7747 22.5328C25.4298 22.5312 25.085 22.5329 24.7401 22.5346C24.4931 22.5341 24.2461 22.5334 23.9991 22.5325C23.3975 22.5308 22.7959 22.5316 22.1943 22.5333C21.7055 22.5346 21.2167 22.535 20.7278 22.5347C20.6235 22.5346 20.6235 22.5346 20.517 22.5345C20.3757 22.5344 20.2344 22.5343 20.0931 22.5342C18.8435 22.5334 17.594 22.535 16.3444 22.5378C15.1316 22.5405 13.9187 22.5412 12.7058 22.5397C11.3854 22.5381 10.0649 22.5378 8.74442 22.5394C8.60366 22.5396 8.46291 22.5397 8.32215 22.5399C8.21826 22.54 8.21826 22.54 8.11228 22.5402C7.62389 22.5407 7.13551 22.5404 6.64712 22.5398C5.99004 22.539 5.333 22.5402 4.67593 22.5428C4.43435 22.5434 4.19278 22.5434 3.9512 22.5427C3.62228 22.5419 3.29345 22.5434 2.96453 22.5455C2.82001 22.5443 2.82001 22.5443 2.67257 22.5432C2.16289 22.5418 2.16289 22.5418 1.72335 22.7729ZM4.96875 30.4687C4.96875 31.4897 4.96875 32.5106 4.96875 33.5625C11.28 33.5625 17.5913 33.5625 24.0938 33.5625C24.0938 32.5416 24.0938 31.5206 24.0938 30.4687C17.7825 30.4687 11.4713 30.4687 4.96875 30.4687ZM1.6875 35.4375C1.51006 35.7603 1.47639 36.0348 1.47574 36.3995C1.47515 36.4956 1.47456 36.5916 1.47395 36.6906C1.47433 36.7933 1.47471 36.8961 1.4751 37.002C1.47492 37.1084 1.47474 37.2148 1.47455 37.3245C1.47443 37.5492 1.47477 37.7739 1.47556 37.9987C1.47656 38.3425 1.47556 38.6862 1.47437 39.03C1.47449 39.2485 1.47473 39.467 1.4751 39.6855C1.47472 39.7883 1.47434 39.891 1.47395 39.9969C1.47454 40.0929 1.47513 40.189 1.47574 40.288C1.47589 40.3721 1.47604 40.4563 1.47619 40.543C1.51195 40.9008 1.58455 41.1564 1.85499 41.4022C2.09353 41.5505 2.21981 41.5666 2.49826 41.5672C2.62973 41.5684 2.62973 41.5684 2.76387 41.5697C2.85985 41.5692 2.95583 41.5687 3.05472 41.5682C3.20803 41.5691 3.20803 41.5691 3.36444 41.57C3.70811 41.5715 4.05175 41.5711 4.39542 41.5706C4.64133 41.5713 4.88723 41.5721 5.13314 41.573C5.73245 41.575 6.33176 41.5754 6.93107 41.5753C7.41814 41.5751 7.9052 41.5755 8.39226 41.5762C8.53249 41.5764 8.67272 41.5766 8.81295 41.5768C8.88274 41.5769 8.95254 41.577 9.02445 41.5771C10.3448 41.5788 11.6651 41.5787 12.9854 41.5781C14.1936 41.5776 15.4018 41.5795 16.61 41.5826C17.8502 41.5858 19.0904 41.5872 20.3307 41.5868C21.0271 41.5866 21.7235 41.5871 22.42 41.5894C23.0747 41.5916 23.7295 41.5913 24.3842 41.5894C24.6249 41.5891 24.8655 41.5896 25.1061 41.5909C25.434 41.5926 25.7617 41.5914 26.0896 41.5895C26.2333 41.5913 26.2333 41.5913 26.3798 41.5931C26.8213 41.5875 27.0264 41.5822 27.3872 41.3092C27.5916 41.0216 27.6213 40.8762 27.6217 40.5262C27.6228 40.4207 27.624 40.3153 27.6252 40.2067C27.624 40.0937 27.6227 39.9807 27.6215 39.8643C27.6218 39.689 27.6218 39.689 27.6221 39.5102C27.622 39.2003 27.6197 38.8904 27.6165 38.5805C27.6152 38.3908 27.6156 38.2012 27.6165 38.0115C27.6183 37.6466 27.6174 37.2818 27.6156 36.917C27.6163 36.7475 27.6163 36.7475 27.617 36.5746C27.6133 35.9676 27.6133 35.9676 27.3893 35.4153C27.0936 35.1731 26.8557 35.1445 26.4864 35.1439C26.3567 35.1434 26.3567 35.1434 26.2243 35.1428C26.1292 35.1429 26.034 35.143 25.936 35.1431C25.835 35.1428 25.734 35.1425 25.63 35.1422C25.2899 35.1414 24.9499 35.1413 24.6098 35.1411C24.3667 35.1407 24.1235 35.1402 23.8804 35.1397C23.2188 35.1385 22.5571 35.1379 21.8954 35.1375C21.4824 35.1372 21.0694 35.1368 20.6563 35.1364C19.513 35.1353 18.3697 35.1343 17.2264 35.134C17.1533 35.134 17.0801 35.1339 17.0047 35.1339C16.9313 35.1339 16.858 35.1339 16.7824 35.1339C16.6337 35.1338 16.4851 35.1338 16.3364 35.1337C16.2627 35.1337 16.189 35.1337 16.113 35.1337C14.9178 35.1333 13.7227 35.1317 12.5275 35.1295C11.3008 35.1273 10.0742 35.1261 8.84748 35.126C8.15859 35.1259 7.4697 35.1253 6.78081 35.1236C6.13306 35.1221 5.48532 35.1219 4.83756 35.1227C4.5995 35.1228 4.36144 35.1224 4.12338 35.1215C3.79902 35.1203 3.4747 35.1208 3.15033 35.1218C3.05559 35.121 2.96085 35.1203 2.86323 35.1195C2.22867 35.1231 2.22867 35.1231 1.6875 35.4375Z" fill="#FF7705"></path>
    <path d="M33.018 9.9237C33.1416 9.9227 33.1416 9.9227 33.2678 9.92167C33.3584 9.92142 33.449 9.92117 33.5424 9.92091C33.6853 9.91998 33.6853 9.91998 33.8312 9.91904C34.1475 9.91719 34.4638 9.9161 34.7801 9.91516C34.9419 9.91459 34.9419 9.91459 35.1069 9.914C35.6776 9.91205 36.2483 9.91071 36.819 9.90983C37.4092 9.90879 37.9993 9.90556 38.5895 9.90184C39.0427 9.8994 39.4959 9.89861 39.9491 9.89827C40.1667 9.89781 40.3843 9.89672 40.6018 9.89499C40.9062 9.89271 41.2105 9.89279 41.5148 9.89344C41.6049 9.89224 41.695 9.89104 41.7878 9.8898C42.1584 9.8927 42.4179 9.91476 42.759 10.0674C43.0383 10.4511 43.0021 10.8153 42.9966 11.2786C42.9973 11.3768 42.9979 11.475 42.9986 11.5762C43.0002 11.9011 42.9984 12.2259 42.9964 12.5508C42.9965 12.7764 42.9967 13.0019 42.9971 13.2275C42.9974 13.7004 42.996 14.1732 42.9934 14.6461C42.9902 15.2526 42.9908 15.8591 42.9925 16.4657C42.9935 16.9315 42.9927 17.3974 42.9913 17.8632C42.9908 18.0869 42.9908 18.3105 42.9914 18.5342C42.9919 18.8467 42.99 19.159 42.9874 19.4714C42.9881 19.5642 42.9887 19.6569 42.9893 19.7525C42.9805 20.3785 42.9805 20.3785 42.7585 20.6823C42.4853 20.8637 42.3103 20.8658 41.9908 20.8491C41.7124 20.7919 41.5966 20.6667 41.4374 20.4375C41.3146 20.0866 41.3274 19.7247 41.3244 19.3573C41.3235 19.2868 41.3226 19.2163 41.3216 19.1437C41.3187 18.9114 41.3163 18.6791 41.314 18.4468C41.3121 18.2855 41.3101 18.1242 41.3081 17.9628C41.303 17.5387 41.2983 17.1146 41.2938 16.6904C41.2891 16.2574 41.2839 15.8245 41.2787 15.3915C41.2686 14.5422 41.2591 13.693 41.2499 12.8438C41.2061 12.8876 41.1623 12.9315 41.1172 12.9767C40.0526 14.0434 38.9878 15.1098 37.9226 16.1759C37.4076 16.6915 36.8926 17.2071 36.3778 17.723C35.9292 18.1725 35.4805 18.6218 35.0315 19.071C34.7937 19.3089 34.556 19.5469 34.3185 19.7851C34.0536 20.0507 33.7884 20.316 33.5231 20.5812C33.4045 20.7004 33.4045 20.7004 33.2834 20.8219C33.2114 20.8938 33.1393 20.9658 33.0651 21.0398C33.0024 21.1027 32.9396 21.1655 32.875 21.2302C32.641 21.447 32.5419 21.468 32.2148 21.4922C31.8749 21.4688 31.8749 21.4688 31.6523 21.375C31.4653 21.1449 31.3958 20.9354 31.373 20.6398C31.4154 20.3811 31.5069 20.2801 31.6845 20.0888C31.7447 20.0236 31.8048 19.9583 31.8668 19.8911C32.1999 19.5444 32.5363 19.2015 32.8771 18.8622C32.9558 18.7835 33.0345 18.7047 33.1156 18.6236C33.3736 18.3657 33.6319 18.1081 33.8902 17.8506C34.0701 17.6709 34.2499 17.4912 34.4297 17.3115C34.8531 16.8883 35.2768 16.4654 35.7006 16.0426C36.1835 15.5608 36.6661 15.0786 37.1487 14.5965C38.1405 13.6057 39.1326 12.6152 40.1249 11.625C39.9856 11.6245 39.9856 11.6245 39.8434 11.624C38.9674 11.6205 38.0915 11.6151 37.2156 11.6078C36.7653 11.6041 36.315 11.601 35.8646 11.5996C35.43 11.5982 34.9954 11.5949 34.5608 11.5905C34.395 11.5891 34.2292 11.5883 34.0635 11.5883C33.8311 11.588 33.5989 11.5855 33.3666 11.5824C33.2982 11.5829 33.2297 11.5834 33.1592 11.5839C32.8267 11.5771 32.6352 11.5377 32.3504 11.3607C32.0808 11.0769 32.0556 10.8876 32.0624 10.5C32.3333 10.0704 32.5208 9.92648 33.018 9.9237Z" fill="#FF7705"></path>
    <path d="M5.32086 24.9118C5.43337 24.9109 5.54589 24.9099 5.66181 24.909C5.78542 24.9089 5.90903 24.9089 6.03638 24.9088C6.16775 24.9081 6.29911 24.9073 6.43047 24.9064C6.78746 24.9044 7.14444 24.9035 7.50143 24.9031C7.72445 24.9027 7.94747 24.9021 8.17049 24.9015C8.94849 24.8992 9.72648 24.8979 10.5045 24.8976C11.2298 24.8973 11.955 24.8945 12.6802 24.8905C13.3029 24.8873 13.9255 24.8858 14.5481 24.8858C14.92 24.8857 15.2919 24.8849 15.6637 24.8822C16.0136 24.8798 16.3633 24.8796 16.7132 24.8811C16.9026 24.8813 17.0921 24.8792 17.2815 24.8771C18.2073 24.8846 18.2073 24.8846 18.4982 25.1549C18.709 25.4901 18.7257 25.6735 18.6562 26.0625C18.5015 26.3081 18.436 26.398 18.1875 26.5313C17.7627 26.6027 17.3409 26.5943 16.9111 26.5904C16.7797 26.5909 16.6483 26.5916 16.5169 26.5925C16.1607 26.5942 15.8045 26.593 15.4483 26.5911C15.0753 26.5896 14.7023 26.5904 14.3292 26.5909C13.7029 26.5913 13.0765 26.5898 12.4501 26.5872C11.7262 26.5842 11.0024 26.5842 10.2785 26.5858C9.58174 26.5873 8.88502 26.5867 8.18828 26.5851C7.89193 26.5844 7.5956 26.5845 7.29926 26.5852C6.95019 26.586 6.60119 26.5848 6.25213 26.5823C6.06313 26.5813 5.87413 26.5822 5.68514 26.5831C5.57237 26.5819 5.4596 26.5807 5.34341 26.5795C5.19668 26.5791 5.19668 26.5791 5.04698 26.5787C4.71103 26.5187 4.55378 26.3935 4.31249 26.1563C4.19655 25.8157 4.18644 25.6648 4.33593 25.3359C4.63359 24.9532 4.8577 24.9139 5.32086 24.9118Z" fill="#FF7705"></path>
    <path d="M5.24199 37.5455C5.41213 37.5437 5.41213 37.5437 5.58571 37.5419C5.71112 37.5425 5.83652 37.5431 5.96192 37.5437C6.09422 37.5431 6.22652 37.5423 6.35882 37.5413C6.71795 37.5392 7.07703 37.5395 7.43616 37.5403C7.73601 37.5408 8.03585 37.5401 8.3357 37.5394C9.0431 37.5378 9.75049 37.5381 10.4579 37.5397C11.1876 37.5413 11.9172 37.5398 12.6469 37.5368C13.2735 37.5343 13.9001 37.5336 14.5267 37.5344C14.9009 37.5349 15.2751 37.5347 15.6493 37.5327C16.0012 37.531 16.353 37.5316 16.705 37.5339C16.834 37.5343 16.9631 37.534 17.0921 37.5328C18.1889 37.5235 18.1889 37.5235 18.499 37.811C18.7063 38.1425 18.7191 38.3346 18.6563 38.7188C18.4812 38.9405 18.345 39.0619 18.0938 39.1875C17.9202 39.1969 17.7464 39.2002 17.5726 39.2007C17.4618 39.2012 17.3509 39.2017 17.2368 39.2023C17.1146 39.2024 16.9924 39.2025 16.8665 39.2026C16.737 39.203 16.6075 39.2035 16.478 39.204C16.1257 39.2053 15.7733 39.2059 15.421 39.2063C15.2009 39.2065 14.9808 39.2069 14.7607 39.2073C14.0723 39.2086 13.3839 39.2095 12.6954 39.2099C11.9005 39.2103 11.1055 39.212 10.3106 39.2147C9.69631 39.2167 9.08205 39.2177 8.46779 39.2178C8.10083 39.2179 7.73388 39.2184 7.36692 39.2201C7.02165 39.2216 6.6764 39.2219 6.33112 39.221C6.14413 39.2209 5.95714 39.2222 5.77015 39.2235C5.65855 39.223 5.54696 39.2225 5.43198 39.222C5.33517 39.2221 5.23837 39.2222 5.13863 39.2224C4.83193 39.1818 4.65605 39.0856 4.40628 38.9063C4.22547 38.6679 4.21794 38.5516 4.2305 38.25C4.39266 37.694 4.68353 37.547 5.24199 37.5455Z" fill="#FF7705"></path>
    <path d="M23.3848 24.8906C23.473 24.888 23.5613 24.8853 23.6523 24.8826C24.0911 24.8813 24.3067 24.8869 24.6676 25.1543C24.8438 25.4063 24.8438 25.4063 24.9023 25.7344C24.826 26.1617 24.7229 26.2727 24.375 26.5313C24.0453 26.5977 23.7259 26.5925 23.3906 26.584C23.2588 26.5855 23.2588 26.5855 23.1244 26.5871C22.7153 26.5828 22.4709 26.5705 22.1158 26.3547C21.9058 26.121 21.8514 26.0009 21.8438 25.6875C22.0594 24.864 22.6558 24.8886 23.3848 24.8906Z" fill="#FF7705"></path>
    <path d="M23.3317 37.5527C23.4248 37.5497 23.518 37.5466 23.614 37.5434C24.2987 37.5384 24.2987 37.5384 24.6709 37.8098C24.8969 38.1409 24.9077 38.3257 24.8434 38.7188C24.6683 38.9405 24.5321 39.0619 24.2809 39.1875C23.9905 39.2122 23.6992 39.2092 23.4078 39.2109C23.3276 39.2129 23.2475 39.2148 23.1648 39.2168C22.7135 39.2196 22.3898 39.2129 22.0309 38.9063C21.8843 38.5622 21.8183 38.3525 21.9078 37.9863C22.2313 37.4472 22.7768 37.556 23.3317 37.5527Z" fill="#FF7705"></path>
  </g>
  <defs>
    <clipPath id="clip0_3750_1288">
      <rect width="48" height="48" fill="white"></rect>
    </clipPath>
  </defs>
</svg>
