<?xml version="1.0" encoding="UTF-8"?>
<svg xmlns="http://www.w3.org/2000/svg" width="48" height="48" viewBox="0 0 48 48" fill="none">
  <path d="M32.3146 9.12305C32.5151 9.29734 32.7114 9.4757 32.9064 9.65625C32.9577 9.7035 33.0091 9.75076 33.062 9.79944C35.4301 12.0027 36.9949 15.1991 37.1365 18.448C37.2552 22.1522 36.1984 25.5252 33.6794 28.2799C33.476 28.4926 33.2657 28.6953 33.0528 28.8984C31.6017 30.3419 30.6044 32.3924 30.5275 34.4531C30.5309 34.9628 30.6721 35.1636 31.0314 35.5313C31.3805 36.1213 31.4037 36.732 31.3126 37.4063C31.2041 37.6716 31.082 37.9034 30.9281 38.1449C30.8182 38.3415 30.8182 38.3415 30.9142 38.5367C30.9528 38.5968 30.9915 38.6569 31.0314 38.7188C31.352 39.4093 31.4341 40.0777 31.2577 40.827C31.0349 41.4187 30.613 41.8372 30.0939 42.1875C29.6252 42.3957 29.2017 42.3978 28.6993 42.3867C28.6259 42.3859 28.5524 42.385 28.4767 42.3842C28.297 42.382 28.1173 42.3786 27.9376 42.375C27.9352 42.4318 27.9328 42.4886 27.9303 42.5471C27.8547 43.6632 27.4261 44.507 26.6189 45.2791C25.743 46.0155 24.6612 46.3022 23.5314 46.2188C22.4565 46.0625 21.5459 45.586 20.8591 44.7345C20.3634 44.0161 20.0459 43.2559 20.0626 42.375C19.9573 42.3794 19.8521 42.3837 19.7436 42.3882C18.1009 42.4368 18.1009 42.4368 17.4149 41.807C16.7846 41.1419 16.6451 40.5822 16.6565 39.6753C16.7007 39.2489 16.8403 38.9888 17.0626 38.625C17.1893 38.3547 17.1893 38.3547 17.063 38.1541C16.9961 38.0449 16.9961 38.0449 16.9278 37.9336C16.6258 37.3532 16.5878 36.8306 16.6876 36.1875C16.8275 35.7865 16.9909 35.3997 17.3102 35.1108C17.5365 34.8585 17.48 34.583 17.4706 34.2587C17.3618 33.1986 17.0561 32.1771 16.5939 31.2188C16.5547 31.1345 16.5155 31.0503 16.4752 30.9635C16.0121 30.0386 15.3259 29.2746 14.5835 28.564C12.296 26.3703 10.9388 23.1562 10.8561 19.9988C10.8192 17.1004 11.4247 14.3066 13.1251 11.9063C13.19 11.8136 13.2549 11.7209 13.3218 11.6254C14.7219 9.7157 16.4952 8.27265 18.6564 7.3125C18.7146 7.28619 18.7728 7.25987 18.8327 7.23276C23.201 5.28236 28.6524 6.04775 32.3146 9.12305ZM15.2405 11.6029C13.38 13.7805 12.3314 16.4568 12.3458 19.3301C12.3463 19.441 12.3469 19.5519 12.3474 19.6662C12.3595 20.5437 12.4299 21.3705 12.6564 22.2188C12.674 22.2852 12.6916 22.3516 12.7098 22.42C13.2784 24.4732 14.3388 26.1828 15.8536 27.6623C17.8111 29.5919 18.5169 31.7056 19.0314 34.4063C22.3107 34.4063 25.5901 34.4063 28.9689 34.4063C29.2009 33.2461 29.2009 33.2461 29.4376 32.0625C29.6118 31.5659 29.774 31.123 30.0001 30.6563C30.065 30.5205 30.065 30.5205 30.1312 30.382C30.6552 29.3587 31.3641 28.5209 32.1842 27.7236C32.5842 27.3213 32.9357 26.8867 33.2814 26.4375C33.337 26.3658 33.3925 26.2942 33.4498 26.2203C35.2857 23.7319 36.0065 20.6182 35.557 17.5638C35.4774 17.1093 35.3715 16.6639 35.2501 16.2188C35.2253 16.1247 35.2253 16.1247 35.1999 16.0287C34.3918 13.0589 32.2271 10.5984 29.6003 9.07549C24.8816 6.47042 18.8098 7.59244 15.2405 11.6029ZM18.1876 36.375C18.0909 36.6367 18.1135 36.8573 18.1876 37.125C18.3916 37.3773 18.5542 37.5427 18.8439 37.6875C18.9804 37.6969 19.1173 37.7006 19.2541 37.7013C19.3403 37.702 19.4266 37.7026 19.5154 37.7033C19.6577 37.7037 19.6577 37.7037 19.8029 37.7041C19.9026 37.7047 20.0023 37.7053 20.105 37.706C20.4361 37.7078 20.7672 37.7089 21.0983 37.7098C21.2112 37.7102 21.3241 37.7106 21.4404 37.711C22.0379 37.713 22.6355 37.7143 23.2331 37.7152C23.8508 37.7162 24.4684 37.7194 25.0861 37.7232C25.5606 37.7256 26.0351 37.7264 26.5097 37.7267C26.7374 37.7272 26.9651 37.7283 27.1928 37.73C27.5115 37.7323 27.8301 37.7322 28.1488 37.7316C28.29 37.7334 28.29 37.7334 28.434 37.7352C28.9843 37.7311 29.2998 37.6798 29.7189 37.3125C29.8676 37.015 29.9034 36.6918 29.8126 36.375C29.4878 36.0178 29.2727 35.8779 28.7876 35.8467C28.6022 35.844 28.4167 35.8438 28.2313 35.8456C28.1297 35.8448 28.0281 35.844 27.9235 35.8431C27.5883 35.841 27.2532 35.8424 26.9181 35.844C26.6848 35.8437 26.4516 35.8432 26.2183 35.8426C25.6671 35.8419 25.116 35.8435 24.5649 35.846C24.1258 35.8477 23.6868 35.8471 23.2477 35.8451C22.6416 35.8424 22.0356 35.842 21.4295 35.8435C21.1986 35.8438 20.9678 35.8435 20.7369 35.8424C20.4142 35.8412 20.0916 35.843 19.7689 35.8456C19.6736 35.8447 19.5784 35.8437 19.4802 35.8427C18.884 35.8516 18.5951 35.9297 18.1876 36.375ZM18.3751 39.375C18.1771 39.672 18.1565 39.8561 18.1352 40.2063C18.2233 40.5426 18.3812 40.6647 18.6564 40.875C18.9981 40.9455 19.3352 40.939 19.6832 40.9357C19.7868 40.9365 19.8903 40.9373 19.997 40.9381C20.3392 40.9402 20.6813 40.9388 21.0235 40.9373C21.2614 40.9376 21.4992 40.938 21.737 40.9386C22.2354 40.9393 22.7338 40.9383 23.2322 40.9361C23.8078 40.9336 24.3834 40.9344 24.959 40.937C25.5135 40.9394 26.068 40.9391 26.6224 40.9377C26.8581 40.9374 27.0937 40.9378 27.3293 40.9389C27.6586 40.9401 27.9877 40.9383 28.317 40.9357C28.4633 40.9371 28.4633 40.9371 28.6125 40.9385C29.1675 40.9305 29.1675 40.9305 29.6385 40.6489C29.8561 40.3457 29.8819 40.1983 29.8588 39.8375C29.7787 39.5231 29.5963 39.3769 29.3439 39.1875C29.0761 39.0998 28.8315 39.0817 28.5509 39.0806C28.4261 39.0798 28.4261 39.0798 28.2988 39.079C28.2083 39.0789 28.1178 39.0788 28.0245 39.0786C27.9285 39.0782 27.8326 39.0777 27.7338 39.0772C27.4163 39.0759 27.0989 39.0752 26.7815 39.0747C26.5608 39.0742 26.3401 39.0736 26.1194 39.0731C25.6566 39.0721 25.1937 39.0716 24.7309 39.0712C24.1382 39.0707 23.5456 39.0685 22.9529 39.0658C22.497 39.064 22.041 39.0636 21.5851 39.0634C21.3666 39.0631 21.1481 39.0624 20.9297 39.0611C20.6238 39.0595 20.318 39.0597 20.0121 39.0603C19.9222 39.0595 19.8322 39.0586 19.7395 39.0577C19.2136 39.061 18.8372 39.116 18.3751 39.375ZM21.5626 42.375C21.6737 43.264 21.9043 43.7652 22.6056 44.3199C23.1817 44.7052 23.784 44.8125 24.4689 44.7188C25.1659 44.5245 25.8129 44.0976 26.1926 43.474C26.3857 43.0669 26.4376 42.8413 26.4376 42.375C24.8289 42.375 23.2201 42.375 21.5626 42.375Z" fill="#FF7705"></path>
  <path d="M24.4685 1.875C24.7217 2.13801 24.7852 2.32256 24.7838 2.68359C24.7837 2.76528 24.7837 2.84698 24.7836 2.93115C24.7821 3.01574 24.7806 3.10034 24.779 3.1875C24.7795 3.31439 24.7795 3.31439 24.78 3.44384C24.774 4.17982 24.774 4.17982 24.5622 4.5C24.2231 4.64077 24.0039 4.70925 23.6423 4.6289C23.4018 4.47774 23.354 4.38533 23.2497 4.125C23.2113 3.81339 23.2193 3.50124 23.2205 3.1875C23.2189 3.1029 23.2174 3.01831 23.2159 2.93115C23.2158 2.84945 23.2158 2.76776 23.2157 2.68359C23.2154 2.60939 23.2151 2.53519 23.2148 2.45874C23.2588 2.19566 23.3496 2.06828 23.531 1.875C23.8868 1.75641 24.1051 1.79063 24.4685 1.875Z" fill="#FF7705"></path>
  <path d="M37.6871 26.3438C37.9492 26.4519 38.1813 26.5952 38.4195 26.748C38.4821 26.7859 38.5446 26.8238 38.609 26.8629C38.9016 27.0444 39.0877 27.179 39.2808 27.4688C39.3219 27.791 39.3219 27.791 39.2808 28.125C39.0511 28.3886 38.9066 28.4871 38.5594 28.5344C38.1429 28.4882 37.8724 28.3171 37.523 28.0957C37.4286 28.0389 37.4286 28.0389 37.3322 27.9809C37.0377 27.7994 36.85 27.6662 36.6558 27.375C36.6162 27.0119 36.6027 26.8016 36.8023 26.4902C37.1212 26.2858 37.311 26.3078 37.6871 26.3438Z" fill="#FF7705"></path>
  <path d="M10.9688 26.3437C11.1973 26.4902 11.1973 26.4902 11.3438 26.7187C11.4062 27.1002 11.4033 27.2899 11.1797 27.6094C10.703 28.0178 10.0819 28.4692 9.45007 28.5278C9.09401 28.4901 8.95329 28.394 8.71875 28.125C8.66016 27.8027 8.66016 27.8027 8.71875 27.4687C9.16516 26.831 10.1778 26.1625 10.9688 26.3437Z" fill="#FF7705"></path>
  <path d="M38.9062 10.2188C39.1347 10.3652 39.1347 10.3652 39.2812 10.5938C39.3339 10.916 39.3339 10.916 39.2812 11.25C38.8805 11.7976 38.1429 12.2619 37.4706 12.3867C37.1249 12.375 37.1249 12.375 36.8437 12.2402C36.6353 11.9733 36.5704 11.7805 36.5932 11.4393C36.7223 11.0513 37.0695 10.886 37.4062 10.6875C37.477 10.6417 37.5478 10.5959 37.6208 10.5487C38.0544 10.2827 38.3847 10.1267 38.9062 10.2188Z" fill="#FF7705"></path>
  <path d="M9.75015 10.2187C9.99519 10.3271 10.2039 10.4324 10.4298 10.5703C10.4871 10.6029 10.5444 10.6356 10.6034 10.6692C10.9183 10.8548 11.1618 11.0232 11.3439 11.3437C11.3908 11.6719 11.3908 11.6719 11.3439 12C11.1564 12.2344 11.1564 12.2344 10.8752 12.375C10.1197 12.429 9.4964 11.9608 8.9064 11.5312C8.67387 11.1824 8.67546 11.0064 8.7189 10.5937C8.9956 10.1621 9.26379 10.1763 9.75015 10.2187Z" fill="#FF7705"></path>
  <path d="M32.813 4.125C33.0288 4.26889 33.0802 4.36663 33.1664 4.60987C33.196 4.97359 33.0565 5.21985 32.8892 5.53125C32.8606 5.58781 32.832 5.64437 32.8026 5.70264C32.3406 6.59367 32.3406 6.59367 31.8813 6.75C31.5421 6.75 31.3947 6.66873 31.1255 6.46875C31.0317 6.375 31.0317 6.375 31.0039 6.03699C31.0098 5.5972 31.1555 5.30743 31.3833 4.93946C31.4159 4.8826 31.4486 4.82574 31.4822 4.76716C31.85 4.14799 32.0929 3.94171 32.813 4.125Z" fill="#FF7705"></path>
  <path d="M15.6973 4.0371C16.1145 4.14691 16.1803 4.22933 16.4062 4.59374C16.4793 4.70958 16.4793 4.70958 16.5538 4.82775C16.8733 5.36465 17.0695 5.74808 16.9688 6.37499C16.8197 6.63176 16.703 6.65152 16.418 6.73827C16.0536 6.75285 15.9459 6.68709 15.6562 6.46874C15.5074 6.25394 15.3811 6.05229 15.2578 5.82421C15.2249 5.76681 15.1921 5.7094 15.1582 5.65026C14.9824 5.33445 14.8431 5.05008 14.8125 4.68749C15.0144 4.25348 15.1945 4.02796 15.6973 4.0371Z" fill="#FF7705"></path>
  <path d="M40.125 18.6094C40.2185 18.6079 40.3121 18.6065 40.4085 18.605C41.0864 18.6086 41.0864 18.6086 41.4053 18.8262C41.5919 19.1299 41.5811 19.3387 41.5313 19.6875C41.4053 19.8926 41.4053 19.8926 41.1563 20.0625C40.8118 20.1189 40.4733 20.1148 40.125 20.1094C40.0315 20.1108 39.9379 20.1123 39.8416 20.1138C39.1636 20.1101 39.1636 20.1101 38.8447 19.8926C38.6581 19.5888 38.6689 19.38 38.7188 19.0313C39.041 18.5066 39.5758 18.6009 40.125 18.6094Z" fill="#FF7705"></path>
  <path d="M7.87501 18.6094C7.96854 18.6079 8.06208 18.6065 8.15845 18.605C8.83645 18.6086 8.83645 18.6086 9.15528 18.8262C9.34186 19.1299 9.33108 19.3387 9.28125 19.6875C9.15528 19.8926 9.15528 19.8926 8.90625 20.0625C8.56184 20.1189 8.22327 20.1148 7.87501 20.1094C7.78147 20.1108 7.68793 20.1123 7.59156 20.1138C6.91356 20.1101 6.91356 20.1101 6.59473 19.8926C6.40815 19.5888 6.41893 19.38 6.46876 19.0313C6.79102 18.5066 7.32583 18.6009 7.87501 18.6094Z" fill="#FF7705"></path>
  <path d="M23.1562 15.1875C23.7441 15.1875 24.3319 15.1875 24.9375 15.1875C24.9375 15.6206 24.9375 16.0537 24.9375 16.5C25.0264 16.5019 25.1154 16.5039 25.207 16.5059C25.815 16.5959 26.3214 17.0059 26.7129 17.4613C26.9945 17.8614 27.1249 18.166 27.1875 18.6562C26.9948 18.7378 26.8012 18.8175 26.6074 18.8965C26.4997 18.9411 26.3921 18.9857 26.2811 19.0316C25.9582 19.1281 25.8118 19.1506 25.5 19.0312C25.3444 18.8851 25.3444 18.8851 25.2129 18.709C24.9222 18.3233 24.6834 18.2137 24.2109 18.1113C23.7798 18.0662 23.4393 18.1662 23.0625 18.375C22.8009 18.6039 22.7845 18.7242 22.7402 19.0723C22.7889 19.4686 22.8866 19.5871 23.1562 19.875C23.3891 20.0305 23.3891 20.0305 23.6543 20.1504C23.7533 20.1978 23.8522 20.2451 23.9542 20.2939C24.239 20.419 24.5246 20.5333 24.8151 20.6438C25.872 21.047 26.8921 21.6026 27.4047 22.6611C27.7683 23.624 27.8025 24.5893 27.4054 25.5465C26.9992 26.3145 26.3871 26.7499 25.623 27.123C25.4062 27.1875 25.4062 27.1875 24.9375 27.1875C24.9375 27.6206 24.9375 28.0538 24.9375 28.5C24.3497 28.5 23.7619 28.5 23.1562 28.5C23.1562 28.0669 23.1562 27.6337 23.1562 27.1875C22.9706 27.1566 22.785 27.1256 22.5938 27.0938C21.6448 26.7183 20.9073 26.056 20.4785 25.125C20.396 24.9197 20.3438 24.7834 20.3438 24.5625C20.57 24.4679 20.7966 24.3743 21.0234 24.2812C21.0874 24.2544 21.1513 24.2276 21.2172 24.2C21.5451 24.0662 21.7658 24 22.125 24C22.2616 24.1681 22.2616 24.1681 22.3887 24.3926C22.7047 24.902 23.0444 25.2127 23.625 25.4062C24.2817 25.471 24.8723 25.454 25.4062 25.0312C25.6917 24.6299 25.7472 24.2987 25.6875 23.8125C25.3152 22.8479 24.3204 22.5637 23.4375 22.1719C21.2823 21.2153 21.2823 21.2153 20.8242 20.0332C20.5795 19.1804 20.6681 18.4007 21.0938 17.625C21.4684 17.0408 22.0198 16.6187 22.7 16.4506C22.8809 16.4238 22.8809 16.4238 23.1562 16.4062C23.1562 16.0041 23.1562 15.6019 23.1562 15.1875Z" fill="#FF7705"></path>
</svg>
