<?xml version="1.0" encoding="UTF-8"?>
<svg xmlns="http://www.w3.org/2000/svg" width="48" height="48" viewBox="0 0 48 48" fill="none">
  <g clip-path="url(#clip0_3750_1216)">
    <path d="M2.43729 0C2.83948 0 3.24167 0 3.65604 0C3.68698 2.50594 3.71792 5.01188 3.74979 7.59375C4.52166 7.58698 5.29352 7.58021 6.08878 7.57324C6.64916 7.56841 7.20953 7.56359 7.76991 7.5588C8.49047 7.55263 9.21103 7.54643 9.93159 7.54005C12.7773 7.51491 15.6227 7.49062 18.4685 7.5C18.4655 7.42497 18.4624 7.34994 18.4592 7.27264C18.3605 4.84836 18.3652 2.42598 18.3748 0C18.777 0 19.1792 0 19.5935 0C19.6214 1.49692 19.6477 2.99385 19.6708 4.49085C19.6801 5.09256 19.6902 5.69423 19.7025 6.29589C19.7087 6.61717 19.7126 6.93846 19.7166 7.25977C19.7194 7.36915 19.7221 7.47853 19.725 7.59123C19.7257 7.68862 19.7265 7.78601 19.7272 7.88635C19.7293 8.00734 19.7293 8.00734 19.7313 8.13078C19.6699 8.42764 19.5519 8.53817 19.3123 8.71875C19.0911 8.75537 19.0911 8.75537 18.867 8.74219C18.7921 8.7388 18.7171 8.73542 18.6399 8.73193C18.5834 8.72758 18.5268 8.72323 18.4685 8.71875C18.4714 8.77201 18.4742 8.82526 18.4771 8.88013C18.5088 9.48246 18.537 10.0849 18.5623 10.6875C18.5667 10.7884 18.5667 10.7884 18.5713 10.8913C18.6148 11.9809 18.6148 11.9809 18.281 12.4688C18.2192 12.5616 18.1573 12.6544 18.0935 12.75C18.3101 13.1831 18.5267 13.6163 18.7498 14.0625C20.3476 13.4372 21.928 12.7756 23.505 12.1C24.4153 11.7104 25.3283 11.3311 26.2498 10.9688C26.1398 10.8587 26.1398 10.8587 26.0275 10.7465C24.9576 9.67636 24.4416 8.74317 24.4388 7.21841C24.4574 6.07404 24.9428 5.18269 25.699 4.3418C26.5566 3.52417 27.6827 3.23062 28.8334 3.25195C29.7339 3.33372 30.5187 3.6509 31.2185 4.21875C31.3065 4.28927 31.3065 4.28927 31.3962 4.36121C32.1978 5.07906 32.5387 6.07603 32.6248 7.125C32.6658 7.93949 32.6658 7.93949 32.531 8.34375C32.6365 8.2995 32.7419 8.25526 32.8505 8.20967C33.8121 7.80621 34.774 7.40354 35.7363 7.00169C36.2576 6.78389 36.7786 6.5653 37.2992 6.34575C37.5938 6.22173 37.8886 6.09842 38.1835 5.97531C38.3212 5.91765 38.4587 5.85968 38.5962 5.80139C38.786 5.7209 38.9763 5.64151 39.1668 5.56238C39.3264 5.49527 39.3264 5.49527 39.4892 5.42681C39.7498 5.34375 39.7498 5.34375 40.031 5.4375C40.1211 5.58537 40.1211 5.58537 40.1997 5.78004C40.2451 5.89027 40.2451 5.89027 40.2914 6.00272C40.3236 6.08376 40.3557 6.1648 40.3888 6.24829C40.4406 6.37516 40.4406 6.37516 40.4935 6.50459C40.6078 6.78524 40.7208 7.06645 40.8338 7.34766C40.9137 7.54434 40.9938 7.74097 41.074 7.93755C41.1978 8.24118 41.3216 8.54483 41.445 8.84863C41.81 9.74713 42.1827 10.6423 42.5583 11.5365C42.6629 11.7856 42.7674 12.0347 42.8718 12.2839C43.0115 12.6173 43.1513 12.9506 43.2912 13.2839C43.6384 14.1117 43.9852 14.9396 44.3318 15.7676C44.366 15.8492 44.4002 15.9308 44.4354 16.0149C45.0213 17.4143 45.6056 18.8144 46.1892 20.2148C46.2285 20.3089 46.2677 20.4029 46.3081 20.4998C46.3462 20.5914 46.3844 20.683 46.4238 20.7774C46.4798 20.9118 46.4798 20.9118 46.5369 21.0489C46.6097 21.2238 46.6824 21.3987 46.7549 21.5737C46.9209 21.9743 47.0883 22.3742 47.2602 22.7723C47.2908 22.8442 47.3215 22.9161 47.353 22.9901C47.4092 23.1218 47.4661 23.2532 47.524 23.3841C47.8091 24.0575 47.8614 24.7436 47.649 25.4502C47.351 26.1101 46.8486 26.4917 46.2185 26.8125C46.0943 26.8467 45.9694 26.8787 45.8435 26.9062C45.8852 27.0194 45.9269 27.1325 45.9699 27.249C46.0236 27.4004 46.0771 27.5517 46.1306 27.7031C46.1583 27.7773 46.1859 27.8515 46.2143 27.928C46.2528 28.0386 46.2528 28.0386 46.2921 28.1514C46.3162 28.2181 46.3403 28.2849 46.365 28.3537C46.4919 29.0963 46.1811 29.8886 45.9882 30.5973C45.9556 30.7182 45.923 30.8391 45.8904 30.96C45.8223 31.2125 45.7537 31.4649 45.6849 31.7172C45.5975 32.0382 45.5111 32.3596 45.425 32.681C45.358 32.9306 45.2903 33.1799 45.2225 33.4293C45.175 33.6045 45.128 33.7799 45.0811 33.9553C44.8853 34.6687 44.6815 35.3606 44.2615 35.9766C44.126 36.1886 44.126 36.1886 44.2264 36.4395C44.265 36.511 44.3037 36.5825 44.3435 36.6562C44.4923 36.9537 44.4486 37.2739 44.4464 37.6003C44.4462 37.7123 44.4462 37.7123 44.446 37.8265C44.4455 38.0654 44.4443 38.3042 44.4431 38.543C44.4427 38.7047 44.4423 38.8665 44.4419 39.0282C44.4408 39.4251 44.4392 39.8219 44.4373 40.2188C44.5017 40.2155 44.5661 40.2122 44.6325 40.2089C44.717 40.2063 44.8014 40.2038 44.8885 40.2012C44.9722 40.1979 45.056 40.1946 45.1422 40.1913C45.3748 40.2188 45.3748 40.2188 45.527 40.336C45.6861 40.5383 45.6951 40.6467 45.7038 40.9021C45.7071 40.9842 45.7104 41.0664 45.7138 41.151C45.7169 41.2857 45.7169 41.2857 45.7201 41.4232C45.7232 41.5179 45.7264 41.6126 45.7296 41.7102C45.7656 42.9451 45.7599 44.1807 45.7556 45.416C45.7552 45.6591 45.7547 45.9022 45.7544 46.1453C45.7533 46.7323 45.7517 47.3193 45.7498 47.9062C45.3476 47.9062 44.9454 47.9062 44.531 47.9062C44.4846 44.7042 44.4846 44.7042 44.4373 41.4375C43.6104 41.4443 42.7836 41.451 41.9317 41.458C41.3343 41.4628 40.7369 41.4677 40.1395 41.4725C39.3697 41.4786 38.5999 41.4849 37.8301 41.4912C37.2197 41.4962 36.6093 41.5012 35.9988 41.506C35.677 41.5086 35.3552 41.5112 35.0334 41.5139C33.2617 41.5286 31.4903 41.534 29.7185 41.5312C29.7218 41.6048 29.725 41.6783 29.7283 41.754C29.7325 41.8507 29.7367 41.9474 29.7411 42.0471C29.7452 42.1428 29.7494 42.2386 29.7537 42.3372C29.8334 44.1931 29.8214 46.0491 29.8123 47.9062C29.4101 47.9062 29.0079 47.9062 28.5935 47.9062C28.5799 47.2398 28.5666 46.5734 28.5535 45.907C28.549 45.6814 28.5445 45.4557 28.5398 45.2301C28.5264 44.5742 28.5146 43.9183 28.5049 43.2623C28.5015 43.0444 28.4976 42.8265 28.4932 42.6087C28.4872 42.2964 28.483 41.9842 28.4793 41.6719C28.4771 41.5778 28.4749 41.4838 28.4727 41.3869C28.472 41.3002 28.4714 41.2134 28.4707 41.124C28.4689 41.0106 28.4689 41.0106 28.4671 40.895C28.5084 40.6327 28.6001 40.5042 28.781 40.3125C29.0136 40.2759 29.0136 40.2759 29.2674 40.2891C29.3518 40.2924 29.4363 40.2958 29.5233 40.2993C29.5878 40.3037 29.6522 40.308 29.7185 40.3125C29.7118 40.2327 29.705 40.153 29.698 40.0708C29.6429 39.3508 29.6104 38.6322 29.6014 37.9102C29.5994 37.8302 29.5974 37.7503 29.5953 37.668C29.5928 37.2159 29.6215 36.934 29.906 36.5625C29.9679 36.4697 30.0298 36.3769 30.0935 36.2812C30.0257 36.1571 30.0257 36.1571 29.9566 36.0304C29.5901 35.3407 29.3287 34.7262 29.2498 33.9375C29.1027 33.9886 28.9564 34.0418 28.8103 34.0957C28.7288 34.1251 28.6472 34.1544 28.5631 34.1847C28.2982 34.3029 28.2982 34.3029 28.0911 34.5381C27.8015 34.8226 27.4996 34.9748 27.1346 35.1387C27.0606 35.1728 26.9867 35.2069 26.9105 35.2421C26.6285 35.3713 26.3455 35.4983 26.0623 35.625C25.9692 35.6667 25.9692 35.6667 25.8742 35.7093C25.0179 36.0932 24.1614 36.4766 23.3019 36.8534C22.9579 37.0043 22.6156 37.1577 22.2754 37.3172C22.2089 37.3478 22.1423 37.3784 22.0737 37.41C21.9492 37.4673 21.825 37.5258 21.7016 37.5855C21.2534 37.7896 20.9196 37.8191 20.4373 37.7812C20.1585 37.5954 20.0819 37.4639 19.9744 37.1484C19.9678 36.8057 20.0492 36.6044 20.1765 36.2926C20.4487 35.5537 20.3351 34.8505 20.0623 34.125C19.652 33.3937 19.0688 32.9114 18.281 32.625C17.5647 32.428 16.8944 32.529 16.2185 32.8125C15.4336 33.2811 14.9554 33.8962 14.7185 34.7812C14.5944 35.7109 14.7823 36.351 15.3074 37.1115C15.6612 37.5608 16.1111 37.9038 16.5569 38.2577C16.781 38.4375 16.781 38.4375 16.9685 38.625C17.0324 39.2744 17.0324 39.2744 16.8266 39.5984C16.5253 39.9156 16.2182 40.0515 15.8208 40.2231C15.7436 40.2577 15.6663 40.2923 15.5866 40.328C15.3329 40.4412 15.0785 40.5526 14.824 40.6641C14.6478 40.7422 14.4716 40.8205 14.2955 40.8989C13.9316 41.0608 13.5675 41.2219 13.2031 41.3827C12.6739 41.6165 12.1464 41.8543 11.6193 42.093C11.3766 42.2027 11.1339 42.3123 10.8912 42.4219C10.7364 42.4919 10.5816 42.562 10.4269 42.6322C10.2115 42.7298 9.9959 42.8268 9.78019 42.9236C9.71718 42.9523 9.65416 42.981 9.58924 43.0106C9.26987 43.1532 8.97138 43.261 8.62479 43.3125C8.58573 43.2245 8.54668 43.1365 8.50644 43.0458C7.72343 41.2818 6.93829 39.5188 6.14797 37.7581C5.80886 37.0024 5.47078 36.2463 5.1326 35.4902C5.06501 35.3391 4.99743 35.188 4.92984 35.0369C4.68947 34.4996 4.44913 33.9622 4.20879 33.4248C4.03743 33.0417 3.86606 32.6586 3.69468 32.2754C3.56001 31.9744 3.42537 31.6733 3.29075 31.3722C2.96551 30.6449 2.63977 29.9179 2.31243 29.1916C2.13925 28.8071 1.96744 28.422 1.79606 28.0367C1.61456 27.629 1.4299 27.223 1.24169 26.8183C1.12544 26.5672 1.01122 26.3152 0.897339 26.063C0.843114 25.9442 0.788043 25.8257 0.732018 25.7076C0.320334 24.8389 0.0770468 23.9707 0.347508 23.0152C0.60218 22.393 1.17534 21.925 1.78104 21.6621C1.87385 21.6292 1.96667 21.5964 2.06229 21.5625C2.04984 21.5092 2.0374 21.4559 2.02457 21.401C2.00801 21.3286 1.99146 21.2562 1.9744 21.1816C1.95809 21.1109 1.94177 21.0402 1.92496 20.9674C1.81547 20.4247 1.76201 20.0075 1.90628 19.4667C1.93608 19.3527 1.96588 19.2387 1.99658 19.1213C2.03013 18.9984 2.06376 18.8755 2.09745 18.7526C2.13181 18.6242 2.1661 18.4959 2.20033 18.3676C2.27234 18.0987 2.34527 17.8301 2.41884 17.5617C2.51194 17.2217 2.60265 16.8811 2.69264 16.5403C2.76305 16.2748 2.83482 16.0097 2.90696 15.7447C2.94086 15.6195 2.97435 15.4942 3.00738 15.3688C3.22294 14.554 3.50429 13.8554 3.92042 13.1275C4.06049 12.851 4.06049 12.851 3.9613 12.5837C3.92244 12.5148 3.88358 12.446 3.84354 12.375C3.69481 12.0775 3.73847 11.7574 3.74064 11.4309C3.74077 11.3563 3.7409 11.2816 3.74104 11.2047C3.74156 10.9659 3.74274 10.7271 3.74393 10.4883C3.7444 10.3265 3.74483 10.1648 3.74521 10.0031C3.74625 9.6062 3.74787 9.20935 3.74979 8.8125C3.65317 8.81739 3.65317 8.81739 3.5546 8.82239C3.47013 8.82493 3.38565 8.82746 3.29862 8.83008C3.173 8.83497 3.173 8.83497 3.04483 8.83997C2.81229 8.8125 2.81229 8.8125 2.66012 8.69543C2.50046 8.49235 2.49189 8.38338 2.48327 8.12695C2.47832 8.00151 2.47832 8.00151 2.47327 7.87354C2.47014 7.73504 2.47014 7.73504 2.46695 7.59375C2.46384 7.49562 2.46072 7.39749 2.45751 7.29639C2.41976 5.93639 2.42679 4.57538 2.43085 3.21501C2.43183 2.85098 2.43224 2.48695 2.43271 2.12292C2.4337 1.41528 2.43534 0.707642 2.43729 0ZM26.2498 5.53125C25.6923 6.3543 25.611 7.07418 25.6873 8.0625C25.88 8.84612 26.4284 9.49011 27.0994 9.91992C27.3267 10.0536 27.539 10.1537 27.7849 10.2539C28.031 10.4062 28.031 10.4062 28.1717 10.7227C28.2239 11.1016 28.2334 11.2117 28.031 11.5312C27.7562 11.7054 27.4592 11.8202 27.158 11.9414C27.0188 11.9997 27.0188 11.9997 26.8768 12.0591C26.6059 12.1718 26.3344 12.2827 26.0624 12.3928C25.8621 12.4739 25.6619 12.5554 25.4618 12.637C24.7884 12.9114 24.1146 13.1847 23.4402 13.4566C22.4977 13.8366 21.559 14.225 20.6248 14.625C20.6248 15.0203 20.7986 15.3255 20.961 15.6782C20.9959 15.7553 21.0309 15.8324 21.0669 15.9119C21.142 16.0772 21.2172 16.2424 21.2927 16.4075C21.4876 16.8339 21.6808 17.261 21.8743 17.688C21.9124 17.7719 21.9504 17.8557 21.9896 17.9421C22.4211 18.894 22.8379 19.852 23.2498 20.8125C23.5044 20.4963 23.5044 20.4963 23.7515 20.1742C24.3431 19.4174 25.2238 18.9994 26.1443 18.7793C27.4752 18.6462 28.5876 18.9155 29.6424 19.7574C30.4868 20.5267 30.8388 21.4895 30.9263 22.6033C30.9623 23.8018 30.6046 24.8433 29.8317 25.7567C28.9882 26.6211 27.9538 26.8952 26.783 26.959C26.7136 26.963 26.6441 26.9671 26.5726 26.9713C26.4025 26.9811 26.2324 26.9906 26.0623 27C26.6393 28.3604 27.2323 29.7134 27.8302 31.0647C27.8599 31.1319 27.8897 31.1992 27.9203 31.2684C27.976 31.3944 28.0318 31.5203 28.0876 31.6462C28.2591 32.0338 28.4272 32.4227 28.5935 32.8125C29.1843 32.6254 29.7544 32.4073 30.3239 32.1636C30.4072 32.1283 30.4904 32.0929 30.5762 32.0565C30.7545 31.9809 30.9328 31.9051 31.1109 31.8292C31.5849 31.6272 32.0593 31.4264 32.5336 31.2253C32.6291 31.1849 32.7245 31.1444 32.8228 31.1026C33.6205 30.7645 34.4196 30.4299 35.2196 30.0974C35.4245 30.0122 35.6294 29.9268 35.8342 29.8414C36.4424 29.588 37.0509 29.3353 37.6605 29.085C37.9315 28.9736 38.2023 28.8616 38.4731 28.7495C38.5997 28.6972 38.7265 28.6452 38.8534 28.5935C39.0274 28.5226 39.2009 28.4507 39.3744 28.3788C39.4722 28.3386 39.5701 28.2985 39.6708 28.2571C39.9599 28.1138 40.1794 27.9807 40.406 27.75C40.4515 27.5124 40.4515 27.5124 40.4035 27.2534C40.3907 27.1538 40.3779 27.0541 40.3647 26.9515C40.3474 26.8437 40.3301 26.736 40.3123 26.625C40.2946 26.5129 40.277 26.4008 40.2588 26.2853C40.2092 25.9844 40.1575 25.684 40.1047 25.3836C39.5288 22.0657 39.5288 22.0657 40.4386 20.7023C40.9431 20.1453 41.582 19.9144 42.3103 19.8457C42.8229 19.8891 43.2126 20.0601 43.581 20.4218C43.8784 20.8633 44.0052 21.3417 44.1597 21.8481C44.2113 22.0122 44.2113 22.0122 44.2639 22.1797C44.3735 22.5283 44.4817 22.8774 44.5896 23.2266C44.6984 23.577 44.8074 23.9274 44.9173 24.2775C44.9857 24.4952 45.0533 24.7132 45.1202 24.9313C45.1509 25.0293 45.1815 25.1273 45.2132 25.2282C45.2533 25.3582 45.2533 25.3582 45.2943 25.4907C45.3563 25.704 45.3563 25.704 45.5623 25.7812C45.7464 25.6983 45.7464 25.6983 45.9373 25.5703C46.003 25.5292 46.0688 25.4881 46.1365 25.4458C46.3569 25.2787 46.4856 25.1245 46.528 24.8461C46.531 24.3113 46.4321 23.9092 46.2171 23.4225C46.1717 23.3148 46.1717 23.3148 46.1254 23.2049C46.025 22.9674 45.9226 22.7308 45.8201 22.4941C45.748 22.3245 45.676 22.1547 45.6042 21.9849C45.4514 21.6239 45.2979 21.2633 45.1438 20.9028C44.7875 20.0672 44.4403 19.2277 44.092 18.3886C43.8945 17.9131 43.6962 17.4378 43.498 16.9625C43.4589 16.8688 43.4198 16.7751 43.3795 16.6785C42.8079 15.3087 42.2347 13.9397 41.6611 12.5708C41.4386 12.0396 41.2164 11.5084 40.9943 10.9771C40.8395 10.6065 40.6846 10.2359 40.5296 9.86535C40.456 9.68918 40.3824 9.513 40.3089 9.33681C40.2068 9.09242 40.1047 8.84809 40.0025 8.60376C39.9729 8.53275 39.9432 8.46173 39.9127 8.38857C39.709 7.90178 39.4971 7.41895 39.281 6.9375C38.6632 7.13322 38.0655 7.36334 37.4676 7.61279C37.3768 7.65038 37.2861 7.68796 37.1926 7.72668C36.9042 7.84616 36.6161 7.96604 36.3279 8.08594C36.1375 8.16494 35.9471 8.24392 35.7566 8.32288C35.6634 8.36157 35.5701 8.40026 35.474 8.44012C35.2882 8.51715 35.1023 8.59405 34.9164 8.67081C34.4954 8.84485 34.0755 9.02057 33.6582 9.20343C33.5866 9.23434 33.5149 9.26524 33.4411 9.29708C33.3107 9.35342 33.1808 9.41078 33.0515 9.46944C32.5999 9.66285 32.2632 9.71119 31.781 9.65625C31.5485 9.49995 31.5485 9.49995 31.406 9.28125C31.3664 9.04552 31.3664 9.04552 31.376 8.7821C31.3791 8.63736 31.3791 8.63736 31.3822 8.48969C31.3862 8.38932 31.3902 8.28895 31.3943 8.18555C31.4304 7.0948 31.4105 6.19423 30.656 5.34375C29.9363 4.72127 29.2561 4.44885 28.3031 4.47107C27.4789 4.5587 26.7909 4.90297 26.2498 5.53125ZM15.48 8.72168C15.286 8.72303 15.0919 8.72443 14.8979 8.72587C14.7374 8.72701 14.7374 8.72701 14.5737 8.72818C13.6001 8.73521 12.6266 8.74279 11.6531 8.75056C10.9346 8.75629 10.2161 8.76171 9.49763 8.76675C8.92958 8.77076 8.36154 8.77527 7.7935 8.77996C7.55206 8.78188 7.31062 8.78363 7.06918 8.78523C6.73344 8.78747 6.39771 8.79029 6.06198 8.79325C5.91129 8.79406 5.91129 8.79406 5.75755 8.79489C5.62136 8.79626 5.62136 8.79626 5.48241 8.79767C5.40307 8.79827 5.32373 8.79888 5.24199 8.7995C5.06148 8.79286 5.06148 8.79286 4.96854 8.90625C4.95915 9.11311 4.95628 9.32027 4.95609 9.52734C4.956 9.58942 4.95591 9.65149 4.95582 9.71544C4.95575 9.84689 4.95593 9.97835 4.95632 10.1098C4.95682 10.3117 4.95632 10.5135 4.95572 10.7153C4.95579 10.8428 4.95591 10.9702 4.95609 11.0977C4.9562 11.2144 4.9563 11.3311 4.95641 11.4514C4.938 11.7093 4.938 11.7093 5.06229 11.8125C5.28732 11.8222 5.50955 11.8256 5.73465 11.825C5.80865 11.8251 5.88264 11.8252 5.95888 11.8253C6.21471 11.8255 6.47053 11.8249 6.72635 11.8242C6.8599 11.8241 6.8599 11.8241 6.99614 11.824C10.4454 11.8203 13.8947 11.7635 17.3435 11.7188C17.3435 10.7597 17.3435 9.80062 17.3435 8.8125C17.1001 8.69076 16.9249 8.70942 16.6526 8.71245C16.5511 8.7133 16.4495 8.71414 16.3448 8.71502C16.0565 8.71845 15.7683 8.72027 15.48 8.72168ZM7.48487 12.9194C6.20633 12.833 6.20633 12.833 5.03512 13.231C4.7913 13.5943 4.70015 13.9233 4.59354 14.3438C4.53044 14.5493 4.46653 14.7546 4.40201 14.9597C4.19961 15.6222 4.02115 16.2894 3.8467 16.9597C3.77962 17.2154 3.71054 17.4704 3.64141 17.7255C3.55842 18.0325 3.47687 18.3398 3.3953 18.6471C3.34961 18.8173 3.34961 18.8173 3.303 18.991C3.27539 19.0974 3.24778 19.2039 3.21933 19.3136C3.19495 19.4064 3.17056 19.4993 3.14544 19.5949C3.03686 20.1809 3.10298 20.6422 3.28701 21.2049C3.30759 21.2687 3.32817 21.3325 3.34938 21.3982C3.41711 21.6075 3.4862 21.8162 3.55533 22.025C3.60308 22.1715 3.65075 22.318 3.69834 22.4645C3.8236 22.8494 3.95004 23.2338 4.0767 23.6182C4.17947 23.9307 4.28139 24.2435 4.38327 24.5563C4.50545 24.9314 4.62799 25.3063 4.75065 25.6813C4.77377 25.752 4.7969 25.8227 4.82073 25.8955C4.96199 26.3268 5.1051 26.7574 5.24979 27.1875C5.29145 27.3142 5.29145 27.3142 5.33396 27.4435C5.40764 27.6659 5.40764 27.6659 5.53104 27.9375C5.8762 28.0832 6.03636 28.0518 6.38651 27.9258C6.87161 27.6094 7.06444 27.2677 7.21854 26.7188C7.35608 25.413 7.06553 24.1088 6.84354 22.8281C6.8073 22.6137 6.77116 22.3992 6.73514 22.1847C6.64755 21.6646 6.5586 21.1447 6.46854 20.625C6.54425 20.5827 6.61995 20.5403 6.69795 20.4967C6.84815 20.4112 6.84815 20.4112 7.00138 20.324C7.10029 20.2681 7.19919 20.2122 7.3011 20.1546C7.78685 19.8459 8.29449 19.4325 8.54127 18.9011C8.79282 18.5536 9.08949 18.4462 9.47733 18.2809C9.5533 18.2471 9.62927 18.2134 9.70755 18.1786C9.95543 18.0689 10.2041 17.9612 10.4529 17.8535C10.6249 17.7778 10.7968 17.702 10.9686 17.6261C11.3108 17.475 11.6534 17.3247 11.9963 17.1752C12.5017 16.9546 13.0055 16.7305 13.509 16.5056C13.8058 16.3731 14.1028 16.2413 14.3999 16.1096C15.017 15.8362 15.6338 15.5621 16.2506 15.2879C16.5225 15.167 16.7944 15.0461 17.0663 14.9253C17.1563 14.8853 17.2462 14.8454 17.3388 14.8042C17.434 14.7619 17.434 14.7619 17.531 14.7188C17.4871 14.2292 17.3839 13.9182 17.1092 13.5117C17.0502 13.423 16.9912 13.3343 16.9305 13.2429C16.7988 13.0437 16.7988 13.0437 16.6873 12.9375C16.4368 12.9281 16.1887 12.9247 15.9381 12.9254C15.8594 12.9252 15.7807 12.925 15.6996 12.9249C15.4367 12.9245 15.1737 12.9247 14.9108 12.925C14.7264 12.925 14.542 12.9249 14.3576 12.9248C13.9683 12.9246 13.579 12.9248 13.1898 12.9253C12.7958 12.9257 12.4019 12.9257 12.008 12.9253C10.9774 12.9242 9.94693 12.9267 8.91633 12.9357C8.43865 12.939 7.96233 12.9344 7.48487 12.9194ZM18.6702 15.4254C18.6 15.4572 18.5299 15.489 18.4576 15.5217C18.3821 15.5568 18.3065 15.5919 18.2287 15.6281C18.1492 15.6643 18.0697 15.7005 17.9878 15.7378C17.7278 15.8565 17.4683 15.9761 17.2088 16.0957C17.0288 16.178 16.8488 16.2602 16.6687 16.3424C16.3093 16.5064 15.95 16.6708 15.5908 16.8353C14.9481 17.1294 14.3033 17.4186 13.658 17.707C13.4996 17.7782 13.4996 17.7782 13.3379 17.8508C12.8307 18.0786 12.3227 18.3045 11.8129 18.5264C11.5607 18.6363 11.3088 18.747 11.057 18.8578C10.9373 18.9102 10.8174 18.9621 10.6973 19.0137C10.5314 19.085 10.3662 19.1577 10.201 19.2305C10.1068 19.2713 10.0127 19.3122 9.91568 19.3542C9.48141 19.598 9.18706 19.9618 8.87674 20.3438C8.55622 20.7165 8.20726 20.9504 7.78104 21.1875C7.83825 22.2116 7.99929 23.2075 8.18149 24.2153C8.42414 25.633 8.55019 27.1067 7.71659 28.3652C7.30468 28.8558 6.75897 29.0468 6.14042 29.1504C5.68938 29.1819 5.26538 29.1081 4.87479 28.875C4.33995 28.3646 4.18506 27.7405 3.97062 27.0476C3.93146 26.9244 3.8922 26.8012 3.85282 26.678C3.7501 26.3556 3.64895 26.0328 3.54813 25.7098C3.44474 25.3796 3.33985 25.0498 3.23508 24.72C3.03019 24.0742 2.82696 23.4279 2.62479 22.7812C2.11799 22.8485 2.11799 22.8485 1.75174 23.1797C1.68268 23.2616 1.68268 23.2616 1.61222 23.3452C1.47518 23.572 1.43589 23.7361 1.40604 24C1.65863 24.9785 2.18787 25.9314 2.60697 26.8485C2.80783 27.2881 3.00753 27.7282 3.20743 28.1682C3.24679 28.2548 3.28614 28.3413 3.32669 28.4305C3.6313 29.1006 3.93231 29.7722 4.23026 30.4453C4.66757 31.4326 5.10746 32.4187 5.54862 33.4043C5.58221 33.4794 5.61581 33.5544 5.65042 33.6317C5.78768 33.9384 5.92495 34.2451 6.06223 34.5517C6.33855 35.169 6.61472 35.7863 6.8908 36.4036C7.05846 36.7785 7.22617 37.1534 7.39405 37.5282C7.67831 38.163 7.96235 38.7978 8.24415 39.4337C8.35788 39.6902 8.4719 39.9466 8.58596 40.203C8.63866 40.3217 8.69121 40.4404 8.74359 40.5593C8.81481 40.7208 8.8866 40.8822 8.95841 41.0435C8.99834 41.1337 9.03828 41.2239 9.07942 41.3169C9.17888 41.5424 9.17888 41.5424 9.37479 41.7188C10.8219 41.0769 12.2678 40.4326 13.7121 39.7844C14.2971 39.5218 14.8823 39.2598 15.4685 39C15.4067 38.9381 15.3448 38.8763 15.281 38.8125C15.2384 38.7694 15.1957 38.7262 15.1518 38.6818C15.0436 38.5746 14.9332 38.4696 14.8214 38.3661C14.0664 37.6516 13.5575 36.8708 13.4683 35.8143C13.4395 34.4872 13.7048 33.4449 14.6248 32.4375C15.6135 31.5554 16.6591 31.323 17.9493 31.3704C18.9534 31.4361 19.8771 31.9097 20.5545 32.6543C21.2297 33.5058 21.4826 34.366 21.5271 35.4375C21.5308 35.5101 21.5344 35.5828 21.5381 35.6576C21.5468 35.8342 21.5547 36.0108 21.5623 36.1875C22.1673 35.9994 22.7409 35.7689 23.3168 35.5056C23.4008 35.4676 23.4848 35.4296 23.5713 35.3904C23.7478 35.3104 23.9242 35.2302 24.1005 35.1497C24.3677 35.0279 24.6351 34.9067 24.9027 34.7856C25.0752 34.7073 25.2478 34.6289 25.4203 34.5505C25.499 34.5149 25.5776 34.4792 25.6586 34.4425C25.8876 34.3379 26.1157 34.2319 26.3435 34.125C26.4291 34.0851 26.5147 34.0452 26.6029 34.0041C26.6872 33.9637 26.7714 33.9233 26.8583 33.8816C26.9348 33.8452 27.0113 33.8088 27.0901 33.7713C27.3087 33.6581 27.3087 33.6581 27.4685 33.375C27.4413 32.8761 27.236 32.4594 27.0295 32.0131C26.9946 31.9364 26.9598 31.8597 26.9239 31.7807C26.8495 31.6171 26.7748 31.4536 26.6999 31.2902C26.5832 31.0359 26.4675 30.7813 26.352 30.5265C26.2 30.1911 26.0478 29.8559 25.8954 29.5207C25.6339 28.9453 25.3743 28.3692 25.1189 27.791C25.0816 27.7083 25.0443 27.6256 25.0058 27.5404C24.8169 27.1103 24.6819 26.7257 24.656 26.25C24.7626 26.0272 24.8571 25.8615 25.031 25.6875C25.2017 25.6761 25.3727 25.6707 25.5437 25.6677C25.6496 25.6651 25.7555 25.6624 25.8645 25.6597C26.0872 25.6548 26.3098 25.6507 26.5325 25.6472C27.4801 25.6215 28.1928 25.5037 28.8946 24.8397C29.4449 24.2377 29.7737 23.542 29.7478 22.7095C29.6335 21.8918 29.2539 21.0895 28.5979 20.5752C27.8502 20.0843 27.1345 19.9774 26.2498 20.0625C25.9379 20.1462 25.6812 20.2701 25.406 20.4375C25.3078 20.4955 25.3078 20.4955 25.2076 20.5547C24.5796 20.9717 24.2184 21.5631 23.9822 22.2715C23.9445 22.3846 23.9445 22.3846 23.906 22.5C23.5718 22.6114 23.3196 22.6184 22.9685 22.5938C22.6187 22.3938 22.5025 22.1711 22.3496 21.8049C22.2819 21.6454 22.2819 21.6454 22.2128 21.4826C22.189 21.4252 22.1652 21.3677 22.1407 21.3086C22.0649 21.1258 21.9879 20.9437 21.9104 20.7616C21.8258 20.5628 21.7413 20.3638 21.6571 20.1648C21.3063 19.3355 20.9468 18.5101 20.5858 17.6853C20.4735 17.4282 20.3619 17.1709 20.2503 16.9136C20.1806 16.754 20.1108 16.5944 20.041 16.4348C20.0095 16.3616 19.9779 16.2884 19.9453 16.2129C19.7342 15.7094 19.7342 15.7094 19.406 15.2812C19.0673 15.2812 18.9583 15.2932 18.6702 15.4254ZM41.2264 21.6094C40.782 22.498 40.8751 23.392 41.041 24.3413C41.06 24.4583 41.079 24.5753 41.0986 24.6959C41.1488 25.0031 41.2005 25.3101 41.253 25.6169C41.3065 25.9316 41.3579 26.2466 41.4095 26.5616C41.5106 27.1768 41.6138 27.7917 41.7185 28.4062C41.6137 28.4622 41.6137 28.4622 41.5068 28.5192C41.4146 28.5688 41.3224 28.6184 41.2275 28.6696C41.1363 28.7184 41.0451 28.7673 40.9512 28.8177C39.9217 29.407 39.414 30.3669 38.906 31.4062C38.5261 31.2914 38.2082 31.1532 37.8748 30.9375C37.9212 30.8486 37.9676 30.7596 38.0154 30.668C38.1696 30.401 38.1696 30.401 38.156 30.1875C37.5924 30.368 37.0437 30.5703 36.4978 30.7987C36.422 30.8302 36.3462 30.8616 36.268 30.894C36.0222 30.9961 35.7766 31.0986 35.531 31.2012C35.3606 31.2721 35.1901 31.343 35.0196 31.4139C33.4681 32.06 31.9205 32.7152 30.3748 33.375C30.468 34.0027 30.5836 34.5345 30.8787 35.0977C30.9336 35.2047 30.9884 35.3118 31.045 35.4221C31.1022 35.52 31.1595 35.6179 31.2185 35.7188C31.2624 35.8008 31.3062 35.8829 31.3514 35.9674C31.7365 36.3174 32.138 36.2566 32.6412 36.2556C32.7481 36.2572 32.855 36.2587 32.9651 36.2604C33.3191 36.2648 33.673 36.2657 34.027 36.2662C34.2729 36.2677 34.5188 36.2693 34.7648 36.271C35.2806 36.274 35.7964 36.2747 36.3122 36.2744C36.9075 36.2741 37.5027 36.279 38.098 36.2864C38.6715 36.2933 39.245 36.295 39.8186 36.2947C40.0622 36.2953 40.3058 36.2973 40.5494 36.3009C40.8904 36.3055 41.2309 36.3042 41.572 36.3014C41.7227 36.3053 41.7227 36.3053 41.8765 36.3093C42.2984 36.3005 42.5527 36.2892 42.8615 35.9854C43.0321 35.7466 43.1765 35.51 43.3123 35.25C43.3503 35.1774 43.3883 35.1049 43.4275 35.0302C43.7147 34.451 43.8662 33.8205 44.0315 33.1985C44.0622 33.0847 44.0929 32.9709 44.1245 32.8537C44.2052 32.5536 44.2852 32.2532 44.3649 31.9529C44.4302 31.7084 44.4965 31.4642 44.5629 31.22C44.6424 30.9266 44.7207 30.6328 44.7991 30.3391C44.8287 30.2303 44.8583 30.1215 44.8888 30.0094C44.9157 29.9071 44.9426 29.8047 44.9704 29.6993C44.9943 29.61 45.0181 29.5208 45.0427 29.4288C45.1491 28.8585 45.0885 28.4026 44.9087 27.8552C44.889 27.7944 44.8693 27.7336 44.8491 27.671C44.7844 27.4718 44.7183 27.2731 44.6523 27.0743C44.6066 26.9346 44.561 26.7949 44.5155 26.6551C44.3958 26.2879 44.275 25.9211 44.1538 25.5544C44.0076 25.111 43.8627 24.6672 43.7176 24.2234C43.6045 23.8776 43.4913 23.5319 43.3774 23.1864C43.3459 23.0908 43.3459 23.0908 43.3139 22.9934C43.2544 22.8126 43.1948 22.6318 43.1351 22.451C43.0198 22.0899 42.9168 21.7265 42.822 21.3595C42.7538 21.1528 42.7538 21.1528 42.4685 21C41.9183 20.9108 41.5788 21.2178 41.2264 21.6094ZM30.8435 37.4062C30.7984 38.8216 30.7984 38.8216 30.9373 40.2188C32.2878 40.221 33.6383 40.2226 34.9888 40.2236C35.616 40.2241 36.2433 40.2248 36.8705 40.2258C37.4772 40.2268 38.0838 40.2274 38.6905 40.2276C38.9206 40.2278 39.1507 40.2282 39.3808 40.2287C40.6956 40.2315 41.9999 40.2077 43.3123 40.125C43.2814 39.2278 43.2504 38.3306 43.2185 37.4062C39.1348 37.4062 35.051 37.4062 30.8435 37.4062Z" fill="#FF7705"></path>
  </g>
  <defs>
    <clipPath id="clip0_3750_1216">
      <rect width="48" height="48" fill="white"></rect>
    </clipPath>
  </defs>
</svg>
