<?xml version="1.0" encoding="UTF-8"?>
<svg xmlns="http://www.w3.org/2000/svg" width="53" height="53" viewBox="0 0 53 53" fill="none">
  <path d="M27.684 49.5323C28.2869 49.1679 28.7755 48.6017 28.9844 47.9278C29.0677 47.1168 29.1009 46.3108 28.5703 45.6505C28.1803 45.2412 27.8837 44.9612 27.3281 44.8223C27.3281 43.1485 27.3281 41.4746 27.3281 39.7501C28.6945 39.7501 30.0609 39.7501 31.4688 39.7501C31.464 40.1338 31.4592 40.5176 31.4542 40.913C31.451 41.2844 31.4485 41.6557 31.446 42.0271C31.4439 42.2854 31.4411 42.5436 31.4375 42.8018C31.4325 43.1729 31.4302 43.5439 31.4283 43.9149C31.4262 44.0306 31.4241 44.1462 31.4219 44.2653C31.4218 44.373 31.4218 44.4807 31.4218 44.5917C31.4208 44.6864 31.4199 44.7812 31.419 44.8787C31.4848 45.215 31.6166 45.3378 31.8828 45.5469C32.2054 45.5939 32.2054 45.5939 32.5799 45.5874C32.7811 45.5854 32.7811 45.5854 32.9863 45.5833C33.1274 45.5799 33.2686 45.5764 33.4097 45.5728C33.5524 45.5707 33.6952 45.5688 33.8379 45.5672C34.1869 45.5623 34.5358 45.5555 34.8848 45.5469C34.9158 45.6451 34.9468 45.7433 34.9787 45.8445C35.1835 46.4305 35.6193 46.7679 36.1334 47.0932C36.8281 47.3447 37.7722 47.3456 38.4496 47.0479C39.0526 46.6835 39.5411 46.1173 39.75 45.4434C39.8334 44.6323 39.8664 43.8266 39.3359 43.1661C38.8386 42.6438 38.3876 42.2753 37.6518 42.1997C36.7668 42.1899 36.1587 42.2236 35.5059 42.8458C35.1767 43.2015 35.0047 43.4111 34.8848 43.8907C34.3041 43.8907 33.7233 43.8907 33.125 43.8907C33.125 42.5243 33.125 41.1579 33.125 39.7501C34.198 39.7663 34.198 39.7663 35.2709 39.7874C36.6039 39.7975 37.6261 39.552 38.6113 38.6114C39.7016 37.4693 39.8099 36.2778 39.7759 34.7619C39.7673 34.2217 39.7588 33.6816 39.75 33.1251C41.1164 33.1251 42.4828 33.1251 43.8906 33.1251C43.8906 33.7058 43.8906 34.2865 43.8906 34.8848C43.6857 34.9531 43.4807 35.0215 43.2695 35.0919C42.7799 35.4522 42.3545 35.9339 42.2344 36.5411C42.1564 37.3578 42.1135 38.1523 42.6484 38.8184C43.1458 39.3407 43.5968 39.7092 44.3326 39.7848C45.2142 39.7946 45.8239 39.7622 46.4749 39.1423C47.1355 38.4277 47.2529 37.8659 47.2347 36.8977C47.1622 36.0781 46.7773 35.6502 46.168 35.1278C45.9555 34.9846 45.7941 34.9396 45.5469 34.8848C45.5491 34.7961 45.5512 34.7073 45.5535 34.6158C45.5605 34.2856 45.5657 33.9553 45.5696 33.625C45.5717 33.4822 45.5745 33.3394 45.5781 33.1967C45.5832 32.9912 45.5853 32.7856 45.5873 32.58C45.5895 32.4564 45.5917 32.3328 45.5939 32.2054C45.5363 31.8099 45.4411 31.7147 45.1328 31.4688C44.8787 31.419 44.8787 31.419 44.5917 31.4218C44.484 31.4218 44.3762 31.4219 44.2652 31.4219C44.0918 31.4251 44.0918 31.4251 43.9149 31.4284C43.796 31.429 43.6771 31.4295 43.5546 31.4301C43.1749 31.4325 42.7952 31.4377 42.4155 31.4429C42.1581 31.445 41.9007 31.4469 41.6432 31.4486C41.0121 31.4528 40.3812 31.4609 39.75 31.4688C39.75 30.1024 39.75 28.736 39.75 27.3282C41.4239 27.3282 43.0977 27.3282 44.8223 27.3282C44.8906 27.5331 44.9589 27.7381 45.0293 27.9493C45.3897 28.439 45.8713 28.8643 46.4785 28.9844C47.2952 29.0624 48.0898 29.1053 48.7559 28.5704C49.2781 28.073 49.6467 27.622 49.7223 26.8862C49.732 26.0047 49.6997 25.3949 49.0798 24.7439C48.3651 24.0833 47.8034 23.966 46.8352 23.9841C46.0156 24.0566 45.5877 24.4416 45.0653 25.0508C44.9258 25.2579 44.9258 25.2579 44.8223 25.6719C43.1484 25.6719 41.4746 25.6719 39.75 25.6719C39.75 24.3055 39.75 22.9391 39.75 21.5313C40.3257 21.5385 40.3257 21.5385 40.9129 21.5459C41.2843 21.5491 41.6557 21.5516 42.0271 21.5541C42.2853 21.5561 42.5436 21.559 42.8018 21.5625C43.1728 21.5676 43.5438 21.5699 43.9149 21.5717C44.0305 21.5739 44.1461 21.576 44.2652 21.5782C44.373 21.5783 44.4807 21.5783 44.5917 21.5783C44.6864 21.5792 44.7811 21.5802 44.8787 21.5811C45.2149 21.5152 45.3378 21.3834 45.5469 21.1172C45.5939 20.7947 45.5939 20.7947 45.5873 20.4201C45.586 20.286 45.5847 20.1519 45.5833 20.0138C45.5798 19.8726 45.5763 19.7315 45.5728 19.5904C45.5707 19.4477 45.5688 19.3049 45.5671 19.1622C45.5622 18.8131 45.5554 18.4643 45.5469 18.1153C45.6451 18.0843 45.7433 18.0533 45.8444 18.0214C46.4305 17.8165 46.7679 17.3808 47.0932 16.8666C47.3446 16.172 47.3456 15.2279 47.0479 14.5505C46.6835 13.9475 46.1173 13.4589 45.4434 13.2501C44.6322 13.1667 43.8265 13.1336 43.166 13.6641C42.6438 14.1615 42.2752 14.6125 42.1996 15.3483C42.1899 16.2333 42.2235 16.8413 42.8458 17.4942C43.2015 17.8233 43.4111 17.9954 43.8906 18.1153C43.8906 18.696 43.8906 19.2767 43.8906 19.8751C42.5242 19.8751 41.1578 19.8751 39.75 19.8751C39.7663 18.8021 39.7663 18.8021 39.7873 17.7292C39.7975 16.3962 39.5519 15.374 38.6113 14.3887C37.4693 13.2985 36.2778 13.1902 34.7619 13.2242C34.2217 13.2327 33.6815 13.2413 33.125 13.2501C33.125 11.8837 33.125 10.5172 33.125 9.10943C33.7057 9.10943 34.2865 9.10943 34.8848 9.10943C34.9531 9.31439 35.0214 9.51935 35.0918 9.73053C35.4522 10.2202 35.9338 10.6455 36.541 10.7657C37.3577 10.8437 38.1523 10.8866 38.8184 10.3516C39.3406 9.85428 39.7092 9.40323 39.7848 8.66747C39.7945 7.7859 39.7622 7.17618 39.1423 6.52518C38.4276 5.86456 37.8659 5.7472 36.8977 5.76539C36.0781 5.83787 35.6502 6.22282 35.1278 6.83209C34.9846 7.0446 34.9396 7.20596 34.8848 7.45318C34.796 7.45101 34.7072 7.44884 34.6158 7.44661C34.2855 7.43954 33.9553 7.43436 33.625 7.43044C33.4822 7.42836 33.3394 7.42553 33.1966 7.42194C32.9911 7.41691 32.7855 7.41479 32.5799 7.41275C32.4563 7.41058 32.3327 7.40841 32.2054 7.40617C31.8099 7.46381 31.7147 7.55898 31.4688 7.86724C31.419 8.12139 31.419 8.12139 31.4218 8.40837C31.4218 8.56998 31.4218 8.56998 31.4219 8.73485C31.424 8.85046 31.4261 8.96606 31.4283 9.08517C31.4289 9.20406 31.4295 9.32295 31.4301 9.44545C31.4324 9.82518 31.4376 10.2048 31.4429 10.5845C31.445 10.842 31.4468 11.0994 31.4485 11.3569C31.4528 11.988 31.4609 12.6189 31.4688 13.2501C30.1024 13.2501 28.7359 13.2501 27.3281 13.2501C27.3281 11.5762 27.3281 9.90236 27.3281 8.17779C27.5331 8.10947 27.7381 8.04115 27.9492 7.97076C28.4389 7.61039 28.8642 7.12873 28.9844 6.52154C29.0624 5.70483 29.1053 4.91028 28.5703 4.2442C28.073 3.72194 27.6219 3.35338 26.8862 3.27778C26.0046 3.26806 25.3949 3.30037 24.7439 3.92031C24.0833 4.63496 23.9659 5.19672 23.9841 6.1649C24.0566 6.98447 24.4415 7.41237 25.0508 7.93477C25.2578 8.07428 25.2578 8.07428 25.6719 8.17779C25.6719 9.85164 25.6719 11.5255 25.6719 13.2501C24.3055 13.2501 22.9391 13.2501 21.5313 13.2501C21.5361 12.8663 21.5409 12.4825 21.5458 12.0871C21.549 11.7158 21.5516 11.3444 21.554 10.973C21.5561 10.7148 21.5589 10.4565 21.5625 10.1983C21.5675 9.82722 21.5699 9.45624 21.5717 9.08517C21.5738 8.96957 21.576 8.85396 21.5782 8.73485C21.5782 8.62711 21.5782 8.51938 21.5783 8.40837C21.5792 8.31367 21.5801 8.21896 21.5811 8.12139C21.5152 7.78514 21.3834 7.66227 21.1172 7.45318C20.7946 7.40617 20.7946 7.40617 20.4201 7.41275C20.286 7.41408 20.1519 7.41541 20.0137 7.41679C19.8726 7.42025 19.7315 7.42375 19.5903 7.4273C19.4476 7.42938 19.3049 7.43127 19.1621 7.43296C18.8131 7.43784 18.4642 7.44466 18.1152 7.45318C18.0842 7.355 18.0532 7.25681 18.0213 7.15565C17.8165 6.56962 17.3807 6.23218 16.8666 5.90692C16.1719 5.65546 15.2279 5.6545 14.5504 5.95221C13.9475 6.31658 13.4589 6.88277 13.25 7.5567C13.1667 8.36786 13.1336 9.17353 13.6641 9.83404C14.1614 10.3563 14.6125 10.7249 15.3482 10.8005C16.2332 10.8102 16.8413 10.7766 17.4942 10.1543C17.8233 9.7986 17.9954 9.58899 18.1152 9.10943C18.696 9.10943 19.2767 9.10943 19.875 9.10943C19.875 10.4758 19.875 11.8422 19.875 13.2501C18.802 13.2338 18.802 13.2338 17.7292 13.2128C16.3962 13.2026 15.374 13.4482 14.3887 14.3887C13.1797 15.6552 13.1946 16.9991 13.2241 18.6523C13.2327 19.3291 13.2412 20.0059 13.25 20.7032C11.8836 20.7032 10.5172 20.7032 9.10939 20.7032C9.10939 20.1225 9.10939 19.5417 9.10939 18.9434C9.31435 18.8751 9.51931 18.8068 9.73048 18.7364C10.2202 18.376 10.6455 17.8944 10.7656 17.2872C10.8436 16.4705 10.8865 15.6759 10.3516 15.0098C9.85424 14.4876 9.40319 14.119 8.66742 14.0434C7.78586 14.0337 7.17613 14.066 6.52514 14.6859C5.86452 15.4006 5.74716 15.9623 5.76535 16.9305C5.83783 17.7501 6.22277 18.178 6.83204 18.7004C7.04456 18.8436 7.20592 18.8886 7.45314 18.9434C7.45097 19.0322 7.4488 19.121 7.44657 19.2124C7.4395 19.5427 7.43431 19.8729 7.43039 20.2032C7.42831 20.346 7.42549 20.4888 7.4219 20.6316C7.41686 20.8371 7.41475 21.0427 7.4127 21.2483C7.41053 21.3719 7.40837 21.4955 7.40613 21.6228C7.46377 22.0183 7.55894 22.1135 7.8672 22.3594C8.12135 22.4092 8.12135 22.4092 8.40833 22.4064C8.56994 22.4064 8.56994 22.4064 8.73481 22.4063C8.90822 22.4031 8.90822 22.4031 9.08513 22.3999C9.20402 22.3993 9.32291 22.3987 9.4454 22.3981C9.82514 22.3958 10.2048 22.3906 10.5845 22.3853C10.8419 22.3832 11.0994 22.3813 11.3568 22.3797C11.9879 22.3754 12.6189 22.3673 13.25 22.3594C13.25 23.7258 13.25 25.0922 13.25 26.5001C11.5762 26.5001 9.90232 26.5001 8.17775 26.5001C8.10943 26.2951 8.04111 26.0901 7.97072 25.879C7.61034 25.3893 7.12869 24.964 6.5215 24.8438C5.70478 24.7658 4.91024 24.7229 4.24415 25.2579C3.72189 25.7552 3.35334 26.2063 3.27774 26.942C3.26802 27.8236 3.30033 28.4333 3.92026 29.0843C4.63492 29.7449 5.19667 29.8623 6.16485 29.8441C6.98443 29.7716 7.41232 29.3867 7.93473 28.7774C8.07423 28.5704 8.07423 28.5704 8.17775 28.1563C9.85159 28.1563 11.5254 28.1563 13.25 28.1563C13.25 29.5227 13.25 30.8891 13.25 32.2969C12.6744 32.2897 12.6744 32.2897 12.0871 32.2824C11.7157 32.2791 11.3443 32.2766 10.973 32.2742C10.7147 32.2721 10.4565 32.2693 10.1982 32.2657C9.82718 32.2607 9.4562 32.2583 9.08513 32.2565C8.96952 32.2544 8.85392 32.2522 8.73481 32.25C8.5732 32.25 8.5732 32.25 8.40833 32.2499C8.31363 32.249 8.21892 32.2481 8.12135 32.2471C7.7851 32.313 7.66222 32.4448 7.45314 32.711C7.40613 33.0336 7.40613 33.0336 7.4127 33.4081C7.41404 33.5422 7.41537 33.6763 7.41675 33.8145C7.4202 33.9556 7.42371 34.0967 7.42726 34.2379C7.42934 34.3806 7.43123 34.5233 7.43292 34.6661C7.4378 35.0151 7.44461 35.364 7.45314 35.7129C7.35495 35.7439 7.25677 35.7749 7.15561 35.8069C6.56957 36.0117 6.23214 36.4475 5.90687 36.9616C5.65542 37.6563 5.65446 38.6003 5.95216 39.2778C6.31653 39.8807 6.88273 40.3693 7.55665 40.5782C8.36781 40.6615 9.17349 40.6946 9.834 40.1641C10.3563 39.6668 10.7248 39.2157 10.8004 38.48C10.8102 37.595 10.7765 36.9869 10.1542 36.334C9.79856 36.0049 9.58895 35.8328 9.10939 35.7129C9.10939 35.1322 9.10939 34.5515 9.10939 33.9532C10.4758 33.9532 11.8422 33.9532 13.25 33.9532C13.2338 34.7536 13.2338 34.7536 13.2127 35.554C13.2004 36.7705 13.5448 37.7274 14.3887 38.6114C15.5307 39.7016 16.7222 39.81 18.2382 39.7759C18.7783 39.7674 19.3185 39.7589 19.875 39.7501C19.875 41.1165 19.875 42.4829 19.875 43.8907C19.2943 43.8907 18.7136 43.8907 18.1152 43.8907C18.0128 43.5832 18.0128 43.5832 17.9082 43.2696C17.5478 42.7799 17.0662 42.3546 16.459 42.2344C15.6423 42.1565 14.8477 42.1135 14.1817 42.6485C13.6594 43.1458 13.2908 43.5969 13.2152 44.3326C13.2055 45.2142 13.2378 45.8239 13.8578 46.4749C14.5724 47.1356 15.1342 47.2529 16.1024 47.2347C16.9219 47.1622 17.3498 46.7773 17.8722 46.168C18.0154 45.9555 18.0604 45.7942 18.1152 45.5469C18.204 45.5491 18.2928 45.5513 18.3842 45.5535C18.7145 45.5606 19.0448 45.5658 19.3751 45.5697C19.5179 45.5718 19.6606 45.5746 19.8034 45.5782C20.0089 45.5832 20.2145 45.5853 20.4201 45.5874C20.5437 45.5895 20.6673 45.5917 20.7946 45.5939C21.1901 45.5363 21.2853 45.4411 21.5313 45.1329C21.5811 44.8787 21.5811 44.8787 21.5783 44.5917C21.5782 44.484 21.5782 44.3763 21.5782 44.2653C21.576 44.1497 21.5739 44.0341 21.5717 43.9149C21.5711 43.7961 21.5705 43.6772 21.5699 43.5547C21.5676 43.1749 21.5624 42.7953 21.5571 42.4156C21.5551 42.1581 21.5532 41.9007 21.5515 41.6433C21.5473 41.0121 21.5392 40.3812 21.5313 39.7501C22.8977 39.7501 24.2641 39.7501 25.6719 39.7501C25.6719 41.4239 25.6719 43.0978 25.6719 44.8223C25.3644 44.9248 25.3644 44.9248 25.0508 45.0294C24.5611 45.3897 24.1358 45.8714 24.0156 46.4786C23.9377 47.2953 23.8947 48.0898 24.4297 48.7559C25.2891 49.6583 26.4707 50.07 27.684 49.5323ZM25.9436 47.7596C25.725 47.44 25.7121 47.2727 25.7754 46.8926C25.9307 46.6338 25.9307 46.6338 26.1895 46.4786C26.5695 46.4152 26.7369 46.4282 27.0564 46.6468C27.275 46.9663 27.288 47.1337 27.2246 47.5137C27.0693 47.7725 27.0693 47.7725 26.8106 47.9278C26.4305 47.9911 26.2632 47.9782 25.9436 47.7596ZM15.178 45.2752C14.9594 44.9557 14.9464 44.7883 15.0098 44.4083C15.1651 44.1495 15.1651 44.1495 15.4238 43.9942C15.8039 43.9309 15.9712 43.9438 16.2908 44.1624C16.5094 44.482 16.5223 44.6493 16.459 45.0294C16.3037 45.2881 16.3037 45.2881 16.0449 45.4434C15.6649 45.5068 15.4975 45.4938 15.178 45.2752ZM36.7092 45.2752C36.4906 44.9557 36.4777 44.7883 36.541 44.4083C36.6963 44.1495 36.6963 44.1495 36.9551 43.9942C37.3352 43.9309 37.5025 43.9438 37.822 44.1624C38.0407 44.482 38.0536 44.6493 37.9902 45.0294C37.835 45.2881 37.835 45.2881 37.5762 45.4434C37.1961 45.5068 37.0288 45.4938 36.7092 45.2752ZM7.72487 38.6502C7.50623 38.3307 7.49331 38.1633 7.55665 37.7833C7.71193 37.5245 7.71193 37.5245 7.97072 37.3692C8.35079 37.3059 8.51812 37.3188 8.83766 37.5374C9.05629 37.857 9.06922 38.0243 9.00587 38.4044C8.8506 38.6631 8.8506 38.6631 8.59181 38.8184C8.21173 38.8818 8.0444 38.8688 7.72487 38.6502ZM15.6309 37.3692C14.774 36.3731 14.8762 35.0806 14.8795 33.846C14.8792 33.6679 14.8788 33.4898 14.8784 33.3117C14.8774 32.83 14.8778 32.3484 14.8785 31.8668C14.879 31.3615 14.8785 30.8563 14.8782 30.3511C14.8778 29.5029 14.8783 28.6547 14.8793 27.8064C14.8804 26.8272 14.88 25.848 14.8789 24.8688C14.878 24.0265 14.8778 23.1842 14.8784 22.3419C14.8787 21.8395 14.8787 21.3371 14.878 20.8347C14.8774 20.3623 14.8779 19.8899 14.8791 19.4175C14.8793 19.2446 14.8793 19.0718 14.8788 18.8989C14.8524 17.15 14.8524 17.15 15.6309 15.6309C16.6269 14.774 17.9195 14.8762 19.154 14.8795C19.3322 14.8792 19.5103 14.8789 19.6884 14.8784C20.17 14.8775 20.6517 14.8778 21.1333 14.8785C21.6385 14.879 22.1437 14.8785 22.6489 14.8782C23.4972 14.8778 24.3454 14.8783 25.1936 14.8793C26.1728 14.8804 27.152 14.8801 28.1313 14.8789C28.9736 14.878 29.8159 14.8779 30.6582 14.8784C31.1606 14.8787 31.6629 14.8788 32.1653 14.8781C32.6377 14.8775 33.1101 14.8779 33.5826 14.8791C33.7554 14.8794 33.9283 14.8793 34.1012 14.8788C35.731 14.8385 35.731 14.8385 37.1621 15.5274C37.9444 16.3153 38.1062 17.0496 38.1076 18.1508C38.108 18.2622 38.108 18.2622 38.1083 18.3758C38.109 18.6235 38.1089 18.8712 38.1088 19.1188C38.1091 19.2969 38.1095 19.475 38.1099 19.653C38.1108 20.136 38.111 20.6189 38.1111 21.1019C38.1111 21.4038 38.1114 21.7058 38.1116 22.0078C38.1126 23.0619 38.113 24.1161 38.1129 25.1703C38.1129 26.1518 38.114 27.1332 38.1156 28.1147C38.117 28.9584 38.1175 29.802 38.1175 30.6456C38.1174 31.149 38.1177 31.6524 38.1188 32.1559C38.1198 32.6296 38.1198 33.1032 38.1191 33.5769C38.119 33.7503 38.1192 33.9237 38.1198 34.0971C38.1559 35.8536 38.1559 35.8536 37.3692 37.3692C36.5653 37.9959 35.8436 38.1063 34.8369 38.1077C34.7625 38.1079 34.6881 38.1081 34.6115 38.1084C34.3642 38.109 34.1168 38.1089 33.8695 38.1088C33.6914 38.1092 33.5133 38.1095 33.3352 38.1099C32.8527 38.1108 32.3702 38.1111 31.8877 38.1111C31.586 38.1112 31.2842 38.1114 30.9825 38.1117C29.929 38.1126 28.8755 38.1131 27.822 38.113C26.8413 38.1129 25.8605 38.114 24.8798 38.1157C24.0366 38.117 23.1934 38.1176 22.3503 38.1175C21.8472 38.1175 21.3441 38.1178 20.841 38.1189C20.3678 38.1199 19.8945 38.1199 19.4213 38.1191C19.248 38.119 19.0748 38.1193 18.9016 38.1199C17.1513 38.148 17.1513 38.148 15.6309 37.3692ZM44.1624 37.8221C43.9437 37.5025 43.9308 37.3352 43.9942 36.9551C44.1494 36.6963 44.1494 36.6963 44.4082 36.5411C44.7883 36.4777 44.9556 36.4907 45.2752 36.7093C45.4938 37.0288 45.5067 37.1962 45.4434 37.5762C45.2881 37.835 45.2881 37.835 45.0293 37.9903C44.6492 38.0536 44.4819 38.0407 44.1624 37.8221ZM5.24049 27.8846C5.02186 27.565 5.00893 27.3977 5.07228 27.0176C5.22755 26.7588 5.22755 26.7588 5.48634 26.6036C5.86642 26.5402 6.03375 26.5532 6.35328 26.7718C6.57192 27.0913 6.58484 27.2586 6.5215 27.6387C6.36622 27.8975 6.36622 27.8975 6.10743 28.0528C5.72736 28.1161 5.56003 28.1032 5.24049 27.8846ZM46.6467 27.0565C46.4281 26.7369 46.4152 26.5696 46.4785 26.1895C46.6338 25.9307 46.6338 25.9307 46.8926 25.7754C47.2727 25.7121 47.44 25.725 47.7595 25.9437C47.9782 26.2632 47.9911 26.4305 47.9277 26.8106C47.7725 27.0694 47.7725 27.0694 47.5137 27.2247C47.1336 27.288 46.9663 27.2751 46.6467 27.0565ZM7.72487 17.119C7.50623 16.7994 7.49331 16.6321 7.55665 16.252C7.71193 15.9932 7.71193 15.9932 7.97072 15.8379C8.35079 15.7746 8.51812 15.7875 8.83766 16.0062C9.05629 16.3257 9.06922 16.493 9.00587 16.8731C8.8506 17.1319 8.8506 17.1319 8.59181 17.2872C8.21173 17.3505 8.0444 17.3376 7.72487 17.119ZM44.1624 16.2908C43.9437 15.9713 43.9308 15.804 43.9942 15.4239C44.1494 15.1651 44.1494 15.1651 44.4082 15.0098C44.7883 14.9465 44.9556 14.9594 45.2752 15.178C45.4938 15.4976 45.5067 15.6649 45.4434 16.045C45.2881 16.3038 45.2881 16.3038 45.0293 16.459C44.6492 16.5224 44.4819 16.5095 44.1624 16.2908ZM15.178 8.8377C14.9594 8.51817 14.9464 8.35084 15.0098 7.97076C15.1651 7.71197 15.1651 7.71197 15.4238 7.5567C15.8039 7.49335 15.9712 7.50628 16.2908 7.72491C16.5094 8.04445 16.5223 8.21177 16.459 8.59185C16.3037 8.85064 16.3037 8.85064 16.0449 9.00592C15.6649 9.06926 15.4975 9.05634 15.178 8.8377ZM36.7092 8.8377C36.4906 8.51817 36.4777 8.35084 36.541 7.97076C36.6963 7.71197 36.6963 7.71197 36.9551 7.5567C37.3352 7.49335 37.5025 7.50628 37.822 7.72491C38.0407 8.04445 38.0536 8.21177 37.9902 8.59185C37.835 8.85064 37.835 8.85064 37.5762 9.00592C37.1961 9.06926 37.0288 9.05634 36.7092 8.8377ZM25.9436 6.35333C25.725 6.03379 25.7121 5.86646 25.7754 5.48639C25.9307 5.2276 25.9307 5.2276 26.1895 5.07232C26.5695 5.00898 26.7369 5.0219 27.0564 5.24054C27.275 5.56007 27.288 5.7274 27.2246 6.10748C27.0693 6.36627 27.0693 6.36627 26.8106 6.52154C26.4305 6.58489 26.2632 6.57196 25.9436 6.35333Z" fill="#FF7705"></path>
  <path d="M18.2346 37.2933C18.308 37.2938 18.3814 37.2942 18.4571 37.2947C18.7024 37.296 18.9478 37.2959 19.1932 37.2957C19.3694 37.2963 19.5456 37.297 19.7217 37.2978C20.2 37.2996 20.6782 37.3001 21.1564 37.3003C21.4554 37.3004 21.7543 37.3008 22.0532 37.3014C23.0965 37.3033 24.1398 37.3041 25.1831 37.304C26.1549 37.3039 27.1267 37.306 28.0985 37.3093C28.9334 37.312 29.7683 37.3131 30.6032 37.313C31.1017 37.3129 31.6 37.3135 32.0984 37.3157C32.5674 37.3177 33.0363 37.3177 33.5052 37.3162C33.6769 37.316 33.8487 37.3165 34.0204 37.3178C35.7882 37.3298 35.7882 37.3298 36.5661 36.6482C36.6219 36.5808 36.6776 36.5134 36.7351 36.444C36.7925 36.3768 36.8499 36.3097 36.909 36.2406C37.2413 35.7582 37.2918 35.3457 37.2933 34.7654C37.2938 34.692 37.2942 34.6186 37.2947 34.5429C37.296 34.2976 37.2959 34.0522 37.2957 33.8068C37.2963 33.6306 37.297 33.4544 37.2978 33.2783C37.2996 32.8 37.3001 32.3218 37.3003 31.8436C37.3004 31.5446 37.3008 31.2457 37.3014 30.9468C37.3033 29.9035 37.3042 28.8602 37.304 27.8169C37.3039 26.8451 37.3061 25.8733 37.3093 24.9015C37.312 24.0666 37.3131 23.2317 37.313 22.3968C37.313 21.8983 37.3135 21.4 37.3157 20.9016C37.3177 20.4326 37.3178 19.9637 37.3162 19.4948C37.316 19.3231 37.3165 19.1513 37.3178 18.9796C37.3298 17.2118 37.3298 17.2118 36.6482 16.4339C36.5808 16.3781 36.5134 16.3224 36.444 16.2649C36.3769 16.2075 36.3097 16.1501 36.2406 16.091C35.7582 15.7587 35.3457 15.7082 34.7654 15.7067C34.692 15.7062 34.6186 15.7058 34.5429 15.7053C34.2976 15.704 34.0522 15.7041 33.8068 15.7043C33.6306 15.7037 33.4545 15.703 33.2783 15.7022C32.8 15.7004 32.3218 15.6999 31.8436 15.6997C31.5446 15.6996 31.2457 15.6992 30.9468 15.6986C29.9035 15.6967 28.8602 15.6958 27.8169 15.696C26.8451 15.6961 25.8733 15.6939 24.9015 15.6907C24.0666 15.688 23.2317 15.6869 22.3968 15.687C21.8984 15.687 21.4 15.6865 20.9016 15.6843C20.4326 15.6823 19.9638 15.6822 19.4948 15.6838C19.3231 15.684 19.1513 15.6835 18.9796 15.6822C17.2118 15.6702 17.2118 15.6702 16.4339 16.3518C16.3503 16.4529 16.3503 16.4529 16.2649 16.556C16.2075 16.6231 16.1501 16.6903 16.091 16.7594C15.7587 17.2418 15.7082 17.6543 15.7067 18.2346C15.7062 18.308 15.7058 18.3814 15.7053 18.4571C15.704 18.7024 15.7041 18.9478 15.7043 19.1932C15.7037 19.3694 15.703 19.5455 15.7022 19.7217C15.7004 20.2 15.6999 20.6782 15.6997 21.1564C15.6996 21.4554 15.6992 21.7543 15.6986 22.0532C15.6967 23.0965 15.6959 24.1398 15.696 25.1831C15.6961 26.1549 15.694 27.1267 15.6907 28.0985C15.688 28.9334 15.6869 29.7683 15.687 30.6032C15.6871 31.1016 15.6865 31.6 15.6843 32.0984C15.6823 32.5674 15.6823 33.0362 15.6838 33.5052C15.684 33.6769 15.6835 33.8487 15.6822 34.0204C15.6702 35.7882 15.6702 35.7882 16.3518 36.5661C16.4192 36.6219 16.4866 36.6776 16.556 36.7351C16.6232 36.7925 16.6903 36.8499 16.7594 36.909C17.2418 37.2413 17.6543 37.2918 18.2346 37.2933ZM17.5977 35.2988C17.3641 34.9082 17.3644 34.5427 17.3636 34.0944C17.3632 34.0268 17.3628 33.9591 17.3624 33.8894C17.3614 33.6636 17.3618 33.4378 17.3622 33.212C17.3617 33.0497 17.3612 32.8875 17.3606 32.7252C17.3592 32.2851 17.3591 31.8449 17.3594 31.4048C17.3595 31.0372 17.359 30.6696 17.3585 30.302C17.3574 29.4347 17.3573 28.5674 17.358 27.7001C17.3586 26.8056 17.3573 25.9112 17.3551 25.0168C17.3533 24.2485 17.3527 23.4803 17.353 22.712C17.3532 22.2533 17.3529 21.7946 17.3515 21.3359C17.3502 20.9045 17.3504 20.4732 17.3517 20.0418C17.352 19.8837 17.3517 19.7255 17.3508 19.5673C17.3497 19.3511 17.3506 19.135 17.3519 18.9187C17.3519 18.7978 17.3519 18.6769 17.3518 18.5524C17.3969 18.1651 17.486 17.9227 17.7012 17.5977C18.0918 17.3641 18.4573 17.3644 18.9056 17.3636C18.9732 17.3632 19.0409 17.3628 19.1106 17.3624C19.3364 17.3614 19.5622 17.3618 19.788 17.3622C19.9503 17.3617 20.1125 17.3612 20.2748 17.3606C20.7149 17.3592 21.1551 17.3591 21.5952 17.3594C21.9628 17.3595 22.3304 17.359 22.698 17.3585C23.5653 17.3574 24.4326 17.3573 25.2999 17.3579C26.1944 17.3586 27.0888 17.3573 27.9832 17.3551C28.7515 17.3533 29.5197 17.3526 30.288 17.353C30.7467 17.3532 31.2054 17.3529 31.6641 17.3515C32.0955 17.3502 32.5268 17.3504 32.9582 17.3517C33.1163 17.352 33.2745 17.3517 33.4327 17.3508C33.6489 17.3497 33.865 17.3506 34.0813 17.3519C34.2626 17.3519 34.2626 17.3519 34.4476 17.3518C34.8349 17.3969 35.0773 17.486 35.4023 17.7012C35.6359 18.0918 35.6356 18.4573 35.6364 18.9056C35.6368 18.9732 35.6372 19.0409 35.6376 19.1105C35.6386 19.3364 35.6382 19.5622 35.6378 19.788C35.6383 19.9503 35.6388 20.1125 35.6394 20.2748C35.6408 20.7149 35.6409 21.1551 35.6406 21.5952C35.6405 21.9628 35.641 22.3304 35.6415 22.698C35.6426 23.5653 35.6427 24.4326 35.6421 25.2999C35.6414 26.1944 35.6427 27.0888 35.6449 27.9832C35.6467 28.7515 35.6474 29.5197 35.647 30.288C35.6468 30.7467 35.6471 31.2054 35.6485 31.6641C35.6498 32.0955 35.6496 32.5268 35.6483 32.9582C35.648 33.1163 35.6483 33.2745 35.6492 33.4326C35.6503 33.6489 35.6494 33.865 35.6481 34.0813C35.6481 34.2022 35.6481 34.3231 35.6482 34.4476C35.6031 34.8349 35.514 35.0773 35.2988 35.4023C34.9082 35.6359 34.5427 35.6356 34.0944 35.6364C34.0268 35.6368 33.9591 35.6372 33.8895 35.6376C33.6636 35.6386 33.4378 35.6382 33.212 35.6378C33.0497 35.6383 32.8875 35.6388 32.7252 35.6394C32.2851 35.6408 31.8449 35.6409 31.4048 35.6406C31.0372 35.6405 30.6696 35.641 30.302 35.6415C29.4347 35.6426 28.5674 35.6427 27.7001 35.642C26.8056 35.6414 25.9112 35.6427 25.0168 35.6449C24.2485 35.6467 23.4803 35.6473 22.712 35.647C22.2533 35.6468 21.7946 35.6471 21.3359 35.6485C20.9045 35.6498 20.4732 35.6496 20.0418 35.6483C19.8837 35.648 19.7255 35.6483 19.5674 35.6492C19.3511 35.6503 19.135 35.6494 18.9187 35.6481C18.7978 35.6481 18.6769 35.6481 18.5524 35.6482C18.1651 35.6031 17.9227 35.514 17.5977 35.2988Z" fill="#FF7705"></path>
</svg>
