<?xml version="1.0" encoding="UTF-8"?>
<svg xmlns="http://www.w3.org/2000/svg" width="53" height="53" viewBox="0 0 53 53" fill="none">
  <path d="M13.6289 3.68734C13.709 3.67945 13.7891 3.67155 13.8717 3.66341C14.1418 3.63743 14.4121 3.61353 14.6825 3.58996C14.7772 3.58143 14.8719 3.5729 14.9695 3.56411C17.5509 3.33342 20.1367 3.195 22.7259 3.10414C22.9118 3.09757 23.0978 3.09076 23.2837 3.08393C27.5457 2.92941 31.6754 2.79962 35.3379 4.51939C36.5566 5.09165 37.7236 5.8687 38.8265 6.91778C39.5643 7.63757 40.2415 8.4085 40.9039 9.2003C40.9582 9.26484 41.0124 9.32939 41.0684 9.39589C44.9759 14.0553 44.9759 14.0553 44.9775 15.3893C44.9779 15.4903 44.9782 15.5914 44.9785 15.6955C44.9785 15.807 44.9784 15.9185 44.9783 16.0333C44.9785 16.1526 44.9788 16.2718 44.9791 16.3911C44.9798 16.7195 44.9799 17.0479 44.98 17.3763C44.9801 17.7302 44.9808 18.0842 44.9814 18.4381C44.9826 19.2122 44.9831 19.9864 44.9835 20.7606C44.9837 21.2437 44.9841 21.7269 44.9844 22.2101C44.9855 23.5473 44.9864 24.8844 44.9867 26.2216C44.9867 26.3072 44.9867 26.3928 44.9867 26.481C44.9868 26.5669 44.9868 26.6527 44.9868 26.7411C44.9868 26.915 44.9869 27.0889 44.9869 27.2628C44.9869 27.349 44.9869 27.4353 44.987 27.5241C44.9873 28.9224 44.9888 30.3207 44.9908 31.719C44.9929 33.1538 44.9939 34.5886 44.994 36.0234C44.9941 36.8293 44.9946 37.6352 44.9962 38.4411C44.9975 39.1273 44.998 39.8134 44.9972 40.4995C44.9969 40.8497 44.997 41.1999 44.9982 41.5501C44.9993 41.8706 44.9992 42.191 44.9982 42.5115C44.9979 42.6826 44.9989 42.8537 45 43.0248C44.9991 43.177 44.9991 43.177 44.9983 43.3323C44.9983 43.4199 44.9984 43.5075 44.9984 43.5977C44.949 43.9651 44.7876 44.1966 44.5346 44.4551C44.3631 44.4763 44.3631 44.4763 44.1505 44.4752C44.071 44.4751 43.9915 44.4751 43.9097 44.4751C43.8237 44.4742 43.7377 44.4733 43.6492 44.4724C43.5613 44.4721 43.4734 44.4719 43.3829 44.4716C43.1014 44.4706 42.82 44.4684 42.5385 44.4662C42.348 44.4653 42.1575 44.4645 41.967 44.4637C41.4994 44.4618 41.0317 44.4588 40.564 44.4551C40.5649 44.5677 40.5658 44.6803 40.5668 44.7963C40.5699 45.2147 40.5719 45.633 40.5735 46.0514C40.5744 46.2323 40.5756 46.4133 40.5771 46.5942C40.5792 46.8546 40.5801 47.1149 40.5809 47.3752C40.5818 47.4559 40.5827 47.5366 40.5836 47.6197C40.5837 48.0848 40.5689 48.4449 40.2884 48.8306C40.0618 49.0094 39.8911 48.9869 39.6068 48.9872C39.4962 48.9879 39.3855 48.9887 39.2715 48.9894C39.148 48.9889 39.0245 48.9884 38.901 48.9878C38.7704 48.9882 38.6397 48.9887 38.5091 48.9893C38.1492 48.9906 37.7892 48.9902 37.4293 48.9895C37.0415 48.9891 36.6537 48.9902 36.2659 48.9911C35.5058 48.9926 34.7456 48.9927 33.9855 48.9922C33.3679 48.9919 32.7503 48.992 32.1327 48.9925C32.0449 48.9925 31.9571 48.9926 31.8667 48.9927C31.6884 48.9928 31.5101 48.993 31.3317 48.9931C29.6582 48.9943 27.9847 48.9938 26.3112 48.9928C24.779 48.9919 23.2468 48.9931 21.7146 48.9952C20.1427 48.9973 18.5707 48.9982 16.9988 48.9976C16.1157 48.9973 15.2327 48.9975 14.3496 48.999C13.5979 49.0003 12.8462 49.0004 12.0944 48.9988C11.7107 48.9981 11.3269 48.9979 10.9431 48.9993C10.5921 49.0005 10.2411 49.0001 9.89007 48.9983C9.76281 48.998 9.63554 48.9983 9.50828 48.9992C9.33581 49.0004 9.16332 48.9991 8.99085 48.9978C8.89489 48.9978 8.79894 48.9978 8.70007 48.9978C8.39584 48.9431 8.29635 48.8473 8.1091 48.6008C8.00568 48.2838 8.01078 47.9956 8.01168 47.6657C8.01153 47.5964 8.01138 47.5271 8.01122 47.4558C8.01082 47.2217 8.01103 46.9876 8.01124 46.7536C8.01108 46.5848 8.01088 46.4161 8.01065 46.2474C8.01012 45.7822 8.01013 45.317 8.01023 44.8518C8.01025 44.3507 8.00978 43.8496 8.00937 43.3485C8.00865 42.3662 8.00841 41.3839 8.00836 40.4015C8.00832 39.6034 8.00815 38.8052 8.00787 38.0071C8.00723 36.1142 8.0067 34.2213 8.00675 32.3284C8.00675 32.2679 8.00675 32.2073 8.00675 32.1449C8.00676 31.8379 8.00677 31.5309 8.00678 31.224C8.00678 31.163 8.00678 31.102 8.00678 31.0392C8.00679 30.9159 8.00679 30.7926 8.00679 30.6693C8.00685 28.7507 8.0062 26.8321 8.00502 24.9135C8.00369 22.7591 8.00295 20.6046 8.00303 18.4502C8.00306 17.3091 8.00282 16.1679 8.00189 15.0268C8.00111 14.0553 8.00092 13.0838 8.0015 12.1123C8.00179 11.6163 8.00179 11.1204 8.00104 10.6244C8.00037 10.1708 8.00048 9.71712 8.00124 9.26346C8.00137 9.09898 8.00121 8.9345 8.00073 8.77002C8.00013 8.54711 8.00058 8.32423 8.0013 8.10132C8.00087 8.0369 8.00044 7.97247 8 7.90609C8.00241 7.55585 8.02914 7.27702 8.19542 6.96759C8.46981 6.78065 8.53462 6.76939 8.84825 6.77115C8.92772 6.77116 9.00719 6.77117 9.08908 6.77119C9.21735 6.77255 9.21735 6.77255 9.34821 6.77395C9.47986 6.77432 9.47986 6.77432 9.61416 6.7747C9.89473 6.77569 10.1753 6.7779 10.4558 6.78015C10.6459 6.78103 10.836 6.78184 11.0262 6.78256C11.4924 6.78451 11.9587 6.78746 12.4249 6.79117C12.4236 6.69043 12.4236 6.69043 12.4222 6.58765C12.4186 6.28246 12.4163 5.97727 12.4141 5.67206C12.4127 5.56637 12.4112 5.46069 12.4097 5.3518C12.4089 5.19872 12.4089 5.19872 12.4081 5.04256C12.4067 4.9019 12.4067 4.9019 12.4053 4.75841C12.4305 4.42333 12.5004 4.17613 12.7123 3.91572C12.9678 3.69675 13.3075 3.71564 13.6289 3.68734ZM13.9786 5.37988C13.9786 17.7508 13.9786 30.1217 13.9786 42.8674C23.6918 42.8674 33.405 42.8674 43.4125 42.8674C43.4125 33.9604 43.4125 25.0533 43.4125 15.8764C40.1653 15.8473 36.918 15.8182 33.5724 15.7882C33.203 15.4107 33.1311 15.2686 33.1272 14.7672C33.1263 14.6846 33.1255 14.6021 33.1246 14.517C33.1241 14.4262 33.1236 14.3355 33.1231 14.2419C33.1222 14.1448 33.1214 14.0478 33.1205 13.9477C33.1178 13.6329 33.1156 13.318 33.1135 13.0031C33.1119 12.809 33.1103 12.6149 33.1086 12.4207C33.1027 11.7001 33.0976 10.9794 33.0923 10.2588C33.0798 8.64874 33.0674 7.0387 33.0545 5.37988C26.7595 5.37988 20.4644 5.37988 13.9786 5.37988ZM34.6082 6.52656C34.6082 9.08806 34.6082 11.6496 34.6082 14.2887C37.1148 14.2887 39.6215 14.2887 42.204 14.2887C41.792 13.794 41.792 13.794 41.359 13.3257C41.2996 13.2648 41.2402 13.2038 41.179 13.141C41.1156 13.0764 41.0522 13.0118 40.9869 12.9453C40.9188 12.8755 40.8507 12.8057 40.7805 12.7338C40.5569 12.505 40.3331 12.2765 40.1092 12.048C39.9534 11.8888 39.7976 11.7294 39.6418 11.5701C39.3162 11.2373 38.9905 10.9047 38.6647 10.5721C38.2877 10.1873 37.9109 9.80221 37.5344 9.41693C37.1717 9.04584 36.8088 8.67501 36.4457 8.30427C36.2913 8.14653 36.1369 7.98872 35.9826 7.83085C35.7679 7.61123 35.553 7.39188 35.3379 7.17262C35.2737 7.10678 35.2094 7.04094 35.1432 6.97311C35.085 6.91388 35.0268 6.85466 34.9669 6.79364C34.916 6.74176 34.8652 6.68987 34.8129 6.63641C34.7105 6.51667 34.7105 6.51667 34.6082 6.52656ZM9.57648 8.37888C9.57648 21.2446 9.57648 34.1103 9.57648 47.3659C19.2897 47.3659 29.0028 47.3659 39.0103 47.3659C39.0103 46.4054 39.0103 45.4448 39.0103 44.4551C38.6845 44.4546 38.3587 44.4541 38.023 44.4536C35.0372 44.4487 32.0513 44.4425 29.0654 44.4349C28.6743 44.4339 28.2832 44.433 27.8921 44.432C27.7753 44.4317 27.7753 44.4317 27.6561 44.4314C26.3943 44.4283 25.1325 44.4261 23.8708 44.4242C22.5766 44.4223 21.2825 44.4194 19.9883 44.4156C19.1894 44.4132 18.3905 44.4116 17.5915 44.4111C17.0441 44.4106 16.4967 44.4092 15.9493 44.407C15.6332 44.4058 15.3171 44.405 15.001 44.4053C14.6586 44.4056 14.3163 44.404 13.974 44.4021C13.8233 44.4027 13.8233 44.4027 13.6697 44.4034C13.5782 44.4026 13.4867 44.4017 13.3924 44.4009C13.3133 44.4007 13.2343 44.4005 13.1528 44.4004C12.8968 44.3596 12.7807 44.2883 12.5975 44.1023C12.4739 43.8014 12.5 43.4758 12.4993 43.1537C12.499 43.0935 12.4988 43.0334 12.4985 42.9715C12.4978 42.7691 12.4977 42.5667 12.4976 42.3642C12.4972 42.218 12.4967 42.0718 12.4963 41.9256C12.4951 41.5232 12.4945 41.1207 12.4939 40.7182C12.4932 40.2844 12.492 39.8507 12.4909 39.4169C12.489 38.6652 12.4875 37.9134 12.4861 37.1617C12.4842 36.0748 12.4817 34.9879 12.4792 33.9009C12.4751 32.1376 12.4713 30.3743 12.4678 28.6109C12.4644 26.8978 12.4609 25.1846 12.4571 23.4715C12.4568 23.3659 12.4566 23.2603 12.4563 23.1516C12.4552 22.622 12.454 22.0925 12.4528 21.5629C12.443 17.1683 12.4338 12.7736 12.4249 8.37888C11.4849 8.37888 10.5449 8.37888 9.57648 8.37888Z" fill="#FF7705"></path>
  <path d="M22.629 31.5647C22.7021 31.5644 22.7753 31.5641 22.8507 31.5639C23.0968 31.5631 23.3429 31.563 23.589 31.5628C23.7651 31.5624 23.9412 31.562 24.1172 31.5615C24.5963 31.5604 25.0753 31.5598 25.5543 31.5594C25.8535 31.5591 26.1526 31.5588 26.4517 31.5584C27.3873 31.5572 28.3229 31.5563 29.2585 31.556C30.3392 31.5556 31.4198 31.554 32.5005 31.5515C33.3354 31.5496 34.1703 31.5487 35.0052 31.5486C35.504 31.5485 36.0028 31.548 36.5017 31.5464C36.9709 31.5449 37.4401 31.5447 37.9094 31.5455C38.0816 31.5456 38.2538 31.5452 38.4261 31.5443C38.6612 31.5432 38.8963 31.5437 39.1314 31.5446C39.2336 31.5436 39.2336 31.5436 39.338 31.5425C39.7521 31.5463 40.044 31.6073 40.3914 31.8417C40.5307 32.162 40.5866 32.3579 40.5101 32.7017C40.3696 32.9366 40.2817 33.0285 40.0461 33.1648C39.7955 33.1907 39.5634 33.2012 39.3128 33.1996C39.2008 33.2004 39.2008 33.2004 39.0864 33.2012C38.8356 33.2027 38.5848 33.2022 38.334 33.2018C38.1544 33.2024 37.9747 33.2032 37.7951 33.2041C37.3068 33.206 36.8185 33.2063 36.3302 33.2061C35.9229 33.2061 35.5155 33.2069 35.1082 33.2076C34.1473 33.2093 33.1865 33.2095 32.2256 33.209C31.2337 33.2084 30.2418 33.2104 29.2499 33.2137C28.3988 33.2164 27.5478 33.2174 26.6967 33.217C26.1881 33.2168 25.6796 33.2173 25.1711 33.2195C24.6929 33.2214 24.2148 33.2213 23.7366 33.2195C23.561 33.2192 23.3854 33.2196 23.2098 33.2209C22.9703 33.2225 22.7309 33.2214 22.4914 33.2196C22.4217 33.2207 22.3519 33.2218 22.2801 33.2229C21.9269 33.2172 21.7673 33.1814 21.4882 32.9524C21.3186 32.7279 21.2578 32.6424 21.2669 32.3654C21.3155 32.0181 21.3155 32.0181 21.4719 31.8031C21.838 31.5359 22.1977 31.5642 22.629 31.5647Z" fill="#FF7705"></path>
  <path d="M22.5394 27.0662C22.6502 27.0658 22.6502 27.0658 22.7632 27.0654C23.0122 27.0646 23.2611 27.0645 23.5101 27.0643C23.688 27.0639 23.8659 27.0635 24.0438 27.063C24.5282 27.0618 25.0126 27.0613 25.4969 27.0609C25.7993 27.0606 26.1017 27.0603 26.4041 27.0599C27.3496 27.0587 28.2951 27.0578 29.2406 27.0575C30.3332 27.0571 31.4258 27.0555 32.5184 27.053C33.3622 27.0511 34.2059 27.0502 35.0496 27.0501C35.5539 27.05 36.0582 27.0494 36.5625 27.0479C37.0369 27.0464 37.5112 27.0462 37.9855 27.047C38.1597 27.0471 38.3339 27.0467 38.5082 27.0458C38.7458 27.0447 38.9833 27.0452 39.2209 27.0461C39.2901 27.0454 39.3592 27.0447 39.4305 27.044C39.8223 27.0475 40.0844 27.0865 40.3914 27.3432C40.5518 27.7052 40.5939 27.8754 40.4615 28.2528C40.3051 28.4898 40.3051 28.4898 40.0461 28.6663C39.8024 28.6839 39.5671 28.6912 39.3232 28.6904C39.2486 28.6909 39.1739 28.6914 39.097 28.6918C38.8459 28.6932 38.5949 28.6932 38.3438 28.6933C38.1642 28.694 37.9846 28.6947 37.8049 28.6955C37.3163 28.6974 36.8276 28.6982 36.339 28.6987C36.0339 28.699 35.7288 28.6995 35.4237 28.7002C34.3598 28.7023 33.296 28.7035 32.2321 28.7038C31.2396 28.7041 30.2471 28.7068 29.2545 28.7104C28.4031 28.7135 27.5517 28.7149 26.7002 28.7149C26.1914 28.715 25.6825 28.7158 25.1737 28.7183C24.6952 28.7206 24.2167 28.7208 23.7382 28.7194C23.5624 28.7192 23.3867 28.7198 23.2109 28.7212C22.9712 28.723 22.7317 28.7221 22.4919 28.7205C22.4222 28.7216 22.3524 28.7228 22.2805 28.724C21.9271 28.7186 21.7675 28.683 21.4881 28.4539C21.3186 28.2294 21.2578 28.1438 21.2669 27.8669C21.3155 27.5196 21.3155 27.5196 21.4773 27.3046C21.826 27.0426 22.1202 27.0657 22.5394 27.0662Z" fill="#FF7705"></path>
  <path d="M22.4908 22.5246C22.5656 22.524 22.6404 22.5234 22.7174 22.5227C22.968 22.5212 23.2184 22.5228 23.469 22.5244C23.6487 22.5239 23.8283 22.5233 24.008 22.5225C24.4959 22.5208 24.9838 22.522 25.4717 22.5237C25.9821 22.5252 26.4925 22.5244 27.0028 22.5239C27.8599 22.5235 28.717 22.5249 29.5741 22.5274C30.5654 22.5302 31.5566 22.5302 32.5479 22.5287C33.501 22.5273 34.4542 22.5279 35.4073 22.5294C35.8131 22.53 36.219 22.5299 36.6248 22.5293C37.1026 22.5286 37.5804 22.5297 38.0582 22.5321C38.2337 22.5327 38.4091 22.5327 38.5846 22.5321C38.8239 22.5313 39.0631 22.5327 39.3024 22.5346C39.3721 22.5339 39.4417 22.5332 39.5135 22.5324C39.8354 22.5373 40.0272 22.568 40.303 22.7434C40.5292 22.9887 40.564 23.1263 40.564 23.4621C40.4684 23.7296 40.3969 23.9232 40.1679 24.0933C39.8606 24.2033 39.558 24.1923 39.2363 24.1907C39.1627 24.1911 39.089 24.1914 39.0131 24.1918C38.7659 24.1927 38.5187 24.1923 38.2715 24.192C38.0944 24.1924 37.9173 24.1928 37.7402 24.1933C37.2589 24.1945 36.7775 24.1946 36.2962 24.1944C35.8946 24.1943 35.4931 24.1947 35.0915 24.1951C34.1443 24.1961 33.1971 24.1961 32.2499 24.1956C31.2721 24.1951 30.2944 24.1961 29.3166 24.198C28.4776 24.1996 27.6386 24.2001 26.7997 24.1998C26.2984 24.1997 25.7971 24.1999 25.2957 24.2011C24.8244 24.2022 24.3531 24.2021 23.8817 24.2009C23.7086 24.2007 23.5355 24.2009 23.3624 24.2017C23.1263 24.2026 22.8903 24.2019 22.6542 24.2008C22.5511 24.2017 22.5511 24.2017 22.446 24.2027C21.9448 24.1977 21.6666 24.0855 21.3155 23.7267C21.2465 23.1127 21.2465 23.1127 21.4878 22.7921C21.8207 22.5198 22.0822 22.5185 22.4908 22.5246Z" fill="#FF7705"></path>
  <path d="M22.4946 18.0261C22.6074 18.0252 22.6074 18.0252 22.7225 18.0242C22.9745 18.0227 23.2263 18.0243 23.4783 18.0259C23.659 18.0254 23.8396 18.0248 24.0202 18.024C24.5108 18.0223 25.0014 18.0235 25.492 18.0252C26.0051 18.0266 26.5181 18.0259 27.0312 18.0254C27.8927 18.025 28.7542 18.0264 29.6158 18.0289C30.6124 18.0317 31.609 18.0317 32.6057 18.0302C33.5638 18.0288 34.5219 18.0294 35.48 18.0309C35.8881 18.0315 36.2962 18.0314 36.7042 18.0308C37.1845 18.0301 37.6648 18.0311 38.1451 18.0336C38.3216 18.0342 38.498 18.0342 38.6745 18.0335C38.915 18.0328 39.1554 18.0342 39.3959 18.0361C39.4661 18.0354 39.5363 18.0347 39.6087 18.0339C39.9165 18.0386 40.0961 18.0537 40.3461 18.2449C40.5196 18.4946 40.558 18.6573 40.564 18.9636C40.4632 19.2614 40.3992 19.4397 40.1246 19.5948C39.7969 19.6919 39.4843 19.6936 39.1462 19.6916C39.0732 19.6919 39.0001 19.6922 38.9249 19.6925C38.6803 19.6932 38.4358 19.6926 38.1912 19.6921C38.0158 19.6923 37.8404 19.6926 37.665 19.693C37.1887 19.6938 36.7123 19.6935 36.236 19.6929C35.7377 19.6925 35.2395 19.6929 34.7412 19.6932C33.9044 19.6935 33.0676 19.6931 32.2308 19.6922C31.2631 19.6913 30.2954 19.6916 29.3277 19.6926C28.4971 19.6934 27.6666 19.6935 26.836 19.693C26.3398 19.6927 25.8436 19.6927 25.3475 19.6933C24.881 19.6938 24.4145 19.6934 23.9481 19.6924C23.7768 19.6922 23.6055 19.6923 23.4342 19.6927C23.2006 19.6931 22.967 19.6925 22.7333 19.6916C22.6654 19.692 22.5974 19.6924 22.5274 19.6928C22.0885 19.6896 21.7465 19.6565 21.418 19.344C21.2693 19.048 21.2704 18.8507 21.3155 18.5226C21.6514 18.0598 21.9609 18.0182 22.4946 18.0261Z" fill="#FF7705"></path>
  <path d="M22.7197 36.0638C22.7923 36.0636 22.8649 36.0634 22.9397 36.0632C23.1833 36.0626 23.427 36.0627 23.6706 36.0627C23.8452 36.0625 24.0197 36.0622 24.1942 36.0619C24.6686 36.0611 25.143 36.0609 25.6174 36.0608C26.0131 36.0607 26.4089 36.0604 26.8047 36.0601C27.7382 36.0594 28.6718 36.0592 29.6053 36.0592C30.569 36.0593 31.5326 36.0583 32.4963 36.0569C33.3231 36.0558 34.15 36.0553 34.9769 36.0554C35.471 36.0554 35.965 36.0551 36.4591 36.0542C36.9237 36.0534 37.3882 36.0534 37.8528 36.054C38.0234 36.0541 38.194 36.0539 38.3646 36.0533C38.5972 36.0527 38.8299 36.0531 39.0626 36.0538C39.1303 36.0533 39.198 36.0528 39.2677 36.0524C39.6965 36.0552 40.0232 36.1021 40.3698 36.3677C40.5147 36.5676 40.5467 36.7097 40.564 36.9576C40.4791 37.2613 40.3862 37.48 40.1325 37.6633C39.8842 37.6897 39.6546 37.6997 39.4062 37.6981C39.3312 37.6986 39.2563 37.6991 39.179 37.6997C38.9267 37.7012 38.6745 37.7007 38.4222 37.7003C38.2417 37.701 38.0612 37.7017 37.8808 37.7026C37.3898 37.7045 36.8988 37.7048 36.4079 37.7046C35.9984 37.7046 35.5889 37.7054 35.1794 37.7061C34.2134 37.7078 33.2475 37.7081 32.2815 37.7075C31.2843 37.7069 30.2871 37.7089 29.2898 37.7122C28.4344 37.7149 27.5789 37.7159 26.7234 37.7155C26.2122 37.7153 25.7009 37.7158 25.1897 37.718C24.7089 37.7199 24.2282 37.7198 23.7474 37.718C23.5708 37.7177 23.3942 37.7181 23.2176 37.7194C22.9768 37.721 22.7361 37.7199 22.4952 37.7181C22.3901 37.7197 22.3901 37.7197 22.2828 37.7214C21.934 37.7158 21.767 37.679 21.4876 37.4586C21.3155 37.2222 21.3155 37.2222 21.2669 36.9135C21.3231 36.5568 21.4053 36.4103 21.6608 36.1638C22.0079 36.0477 22.3583 36.063 22.7197 36.0638Z" fill="#FF7705"></path>
  <path d="M17.9666 10.4816C18.0583 10.4808 18.1499 10.4799 18.2443 10.479C18.3433 10.4787 18.4423 10.4783 18.5443 10.4779C18.6971 10.4772 18.6971 10.4772 18.8529 10.4764C19.0687 10.4756 19.2844 10.475 19.5001 10.4746C19.8297 10.4738 20.1593 10.471 20.4889 10.4683C20.6985 10.4677 20.908 10.4672 21.1176 10.4669C21.216 10.4658 21.3145 10.4647 21.416 10.4636C22.3041 10.4661 22.3041 10.4661 22.6966 10.7604C22.871 11.0396 22.8913 11.2625 22.8929 11.5903C22.8937 11.6857 22.8945 11.781 22.8954 11.8793C22.8953 11.982 22.8952 12.0846 22.8952 12.1903C22.8955 12.2963 22.8959 12.4022 22.8963 12.5113C22.8968 12.7354 22.8968 12.9595 22.8964 13.1835C22.8962 13.526 22.8982 13.8684 22.9004 14.2108C22.9006 14.4286 22.9006 14.6463 22.9005 14.8641C22.9013 14.9664 22.9021 15.0686 22.903 15.174C22.8976 16.122 22.8976 16.122 22.6102 16.4938C22.1482 16.7555 21.5897 16.6956 21.0751 16.6937C20.9772 16.6938 20.8794 16.694 20.7785 16.6942C20.5721 16.6943 20.3657 16.694 20.1593 16.6932C19.8435 16.6923 19.5278 16.6932 19.212 16.6944C19.0113 16.6942 18.8105 16.694 18.6097 16.6937C18.5154 16.694 18.421 16.6944 18.3238 16.6948C18.2357 16.6942 18.1475 16.6936 18.0567 16.6931C17.9795 16.6929 17.9023 16.6928 17.8227 16.6926C17.5097 16.6606 17.2746 16.5677 17.018 16.3824C16.8661 16.16 16.8799 15.9885 16.8785 15.719C16.8774 15.6142 16.8763 15.5094 16.8752 15.4014C16.8754 15.2881 16.8757 15.1748 16.8759 15.0581C16.8755 14.9418 16.875 14.8256 16.8746 14.7058C16.8738 14.4597 16.874 14.2136 16.8749 13.9675C16.8759 13.6524 16.8741 13.3373 16.8716 13.0222C16.8696 12.7214 16.8702 12.4206 16.8705 12.1197C16.8696 12.0066 16.8686 11.8935 16.8676 11.7769C16.8684 11.6719 16.8692 11.5668 16.8701 11.4585C16.8701 11.3661 16.8701 11.2737 16.8701 11.1784C16.9245 10.8745 17.0236 10.7726 17.2586 10.584C17.5185 10.4955 17.6949 10.4836 17.9666 10.4816ZM18.4671 12.0835C18.4671 13.0732 18.4671 14.0629 18.4671 15.0825C19.407 15.0825 20.347 15.0825 21.3155 15.0825C21.3155 14.0929 21.3155 13.1032 21.3155 12.0835C20.3755 12.0835 19.4355 12.0835 18.4671 12.0835Z" fill="#FF7705"></path>
  <path d="M18.3646 27.0565C18.4507 27.0547 18.5369 27.0529 18.6257 27.051C19.4381 27.0466 19.4381 27.0466 19.7618 27.3432C19.8948 27.6621 19.9563 27.8625 19.8805 28.2032C19.7452 28.4294 19.6371 28.5275 19.4165 28.6663C19.0751 28.7231 18.7316 28.7112 18.3861 28.7104C18.2925 28.7129 18.1989 28.7154 18.1024 28.7179C17.4188 28.7197 17.4188 28.7197 17.0671 28.4654C16.8338 28.101 16.8534 27.9484 16.9134 27.5196C17.3156 26.9853 17.7537 27.0597 18.3646 27.0565Z" fill="#FF7705"></path>
  <path d="M18.3646 31.555C18.4414 31.5532 18.5182 31.5514 18.5974 31.5495C19.0505 31.5467 19.3722 31.5773 19.7618 31.8417C19.919 32.1 19.9358 32.249 19.9236 32.5528C19.8345 32.8587 19.7447 32.9659 19.5029 33.1648C19.1484 33.2371 18.79 33.2179 18.4293 33.2144C18.3315 33.2165 18.2338 33.2186 18.1331 33.2208C17.4212 33.2195 17.4212 33.2195 17.0644 32.9635C16.8347 32.5989 16.8536 32.4455 16.9134 32.0181C17.2938 31.4953 17.783 31.5584 18.3646 31.555Z" fill="#FF7705"></path>
  <path d="M18.3807 22.5304C18.474 22.5295 18.5672 22.5285 18.6633 22.5275C19.339 22.5339 19.339 22.5339 19.6917 22.7437C19.8967 22.9916 19.9344 23.1378 19.9344 23.4621C19.7666 23.9315 19.7666 23.9315 19.5204 24.0932C19.2996 24.1798 19.1295 24.1906 18.8932 24.1912C18.7687 24.1915 18.7687 24.1915 18.6417 24.1919C18.5556 24.1912 18.4695 24.1905 18.3807 24.1898C18.2516 24.1908 18.2516 24.1908 18.1198 24.1919C18.0368 24.1916 17.9538 24.1914 17.8682 24.1912C17.7927 24.191 17.7171 24.1908 17.6393 24.1906C17.4126 24.1657 17.2769 24.1176 17.086 23.9913C16.9037 23.7119 16.8847 23.5387 16.8651 23.2092C17.0624 22.4397 17.7485 22.5162 18.3807 22.5304Z" fill="#FF7705"></path>
  <path d="M18.4293 18.0319C18.5764 18.0305 18.5764 18.0305 18.7265 18.029C19.4471 18.0355 19.4471 18.0355 19.7011 18.2452C19.8935 18.4928 19.9283 18.648 19.9344 18.9636C19.8355 19.2558 19.77 19.4369 19.5035 19.5945C19.1284 19.7025 18.7686 19.6982 18.3807 19.6968C18.2656 19.6989 18.2656 19.6989 18.1481 19.7011C17.7223 19.7014 17.4312 19.6878 17.086 19.4046C16.8678 19.1817 16.8831 19.019 16.8651 18.7138C17.0641 17.9246 17.7846 18.0181 18.4293 18.0319Z" fill="#FF7705"></path>
  <path d="M18.3753 36.059C18.4443 36.0579 18.5132 36.0569 18.5842 36.0558C19.0283 36.0546 19.3685 36.0909 19.7402 36.3622C19.8997 36.5905 19.9235 36.7672 19.9344 37.0458C19.8158 37.2998 19.6971 37.4648 19.5029 37.6633C19.1341 37.7062 18.7624 37.6959 18.3915 37.6964C18.2882 37.6985 18.1848 37.7007 18.0783 37.7029C17.9789 37.7032 17.8796 37.7036 17.7772 37.7039C17.6405 37.705 17.6405 37.705 17.5011 37.7061C17.2001 37.6529 17.0997 37.5528 16.9134 37.3104C16.85 37.0401 16.8643 36.7893 16.9134 36.5166C17.2734 35.991 17.8052 36.0595 18.3753 36.059Z" fill="#FF7705"></path>
</svg>
