<?xml version="1.0" encoding="UTF-8"?>
<svg xmlns="http://www.w3.org/2000/svg" width="53" height="53" viewBox="0 0 53 53" fill="none">
  <path d="M24.2447 28.5012C25.7645 29.0533 27.274 29.5433 28.8479 29.9178C30.1629 30.2359 31.1928 30.5049 32.0011 31.6622C32.5238 32.5974 32.5217 33.5064 32.24 34.5169C33.1168 34.0944 33.9557 33.6281 34.7891 33.1259C35.036 32.9782 35.2832 32.8309 35.5303 32.6836C35.5926 32.6464 35.6549 32.6092 35.7191 32.5709C36.4621 32.1282 37.2114 31.6964 37.9617 31.2661C38.5369 30.9363 39.1104 30.6039 39.681 30.2663C42.0048 28.8965 42.0048 28.8966 43.2127 28.513C43.2937 28.4862 43.3747 28.4594 43.4581 28.4317C44.4436 28.1587 45.7112 28.1264 46.6287 28.6165C47.4666 29.1267 47.8641 29.723 48.2138 30.6221C48.3966 31.5862 48.3391 32.5338 47.8446 33.3981C47.2144 34.303 46.2213 34.8222 45.296 35.3839C45.1774 35.4562 45.0589 35.5287 44.9404 35.6011C44.6946 35.7515 44.4486 35.9016 44.2025 36.0516C43.6192 36.4074 43.0375 36.7659 42.4557 37.1242C42.3435 37.1933 42.2313 37.2623 42.1157 37.3334C41.4283 37.7565 40.7416 38.1806 40.0555 38.6058C39.0292 39.2417 38.0011 39.8747 36.9727 40.5071C36.4431 40.8327 35.9139 41.1588 35.3848 41.4851C34.8818 41.7952 34.3783 42.1044 33.8746 42.4134C33.621 42.5694 33.3681 42.7264 33.1155 42.8839C31.3187 43.9966 29.5762 44.5273 27.4682 44.055C27.0699 43.9587 26.6745 43.8523 26.2795 43.7437C26.0078 43.6693 25.7357 43.597 25.4634 43.525C24.4883 43.2661 23.516 42.9983 22.5457 42.722C21.9845 42.5623 21.4227 42.4051 20.8605 42.2493C20.4442 42.1336 20.0291 42.0146 19.6145 41.8932C19.2907 41.7993 18.9656 41.7104 18.6407 41.6207C18.4656 41.5677 18.4656 41.5677 18.287 41.5137C17.6761 41.3501 17.3124 41.3044 16.7345 41.5908C16.587 41.6791 16.4408 41.7698 16.2986 41.8665C16.2986 42.2502 16.4205 42.4144 16.6092 42.7464C16.9285 43.3699 17.0322 43.865 16.9197 44.5579C16.5711 45.5489 15.7001 45.9545 14.8365 46.4471C14.7229 46.513 14.6094 46.5789 14.4924 46.6468C13.8618 47.0105 13.4004 47.2659 12.6627 47.2946C12.5514 47.3009 12.4401 47.3072 12.3254 47.3136C11.6617 47.1997 11.2117 46.8907 10.8133 46.3471C10.6049 46.0046 10.412 45.6557 10.2236 45.302C10.1522 45.1721 10.0805 45.0423 10.0087 44.9127C9.86228 44.6477 9.71707 44.3821 9.57291 44.1159C9.26291 43.544 8.94383 42.9773 8.62555 42.41C8.56676 42.3046 8.50797 42.1991 8.4474 42.0905C8.03289 41.3482 7.60714 40.6132 7.17633 39.8803C6.65472 38.993 6.15313 38.097 5.66544 37.1906C5.29958 36.5131 4.91618 35.8482 4.51029 35.1938C4.04656 34.4296 3.88436 33.7399 4.0838 32.8607C4.55239 31.9408 5.4549 31.507 6.32232 31.0233C6.42961 30.9623 6.53689 30.9013 6.64743 30.8385C7.34999 30.4436 7.91377 30.1549 8.742 30.2728C9.56415 30.5134 9.95349 30.9523 10.3797 31.6779C10.5018 31.929 10.5018 31.929 10.5018 32.1361C10.5692 32.0972 10.6366 32.0582 10.7061 32.0182C10.9115 31.8997 11.1168 31.7812 11.3222 31.6627C11.5627 31.524 11.8031 31.3853 12.0436 31.2465C12.6131 30.9179 13.1826 30.5893 13.7524 30.2613C13.9331 30.1573 14.1138 30.0532 14.2945 29.9491C14.5206 29.8189 14.7467 29.6887 14.9729 29.5587C15.4638 29.2758 15.9523 28.9904 16.4361 28.6958C19.1802 27.0442 21.4168 27.4713 24.2447 28.5012ZM15.4584 31.3197C14.7112 31.7636 13.9559 32.1939 13.2019 32.6262C12.6048 32.9694 12.0144 33.319 11.4334 33.6888C12.0711 34.9084 12.7458 36.1059 13.4257 37.3023C13.6129 37.6324 13.7994 37.963 13.9857 38.2936C14.0469 38.4022 14.1082 38.5109 14.1712 38.6228C14.2891 38.8319 14.4069 39.0411 14.5246 39.2503C14.5777 39.3445 14.6309 39.4387 14.6857 39.5358C14.7324 39.6188 14.7791 39.7017 14.8273 39.7872C14.9317 39.9667 15.0448 40.141 15.16 40.3138C15.635 40.1832 15.9907 39.985 16.3892 39.7052C16.9569 39.4057 17.4615 39.5088 18.0534 39.6731C18.1336 39.6943 18.2138 39.7155 18.2965 39.7374C18.5614 39.8077 18.8259 39.8798 19.0903 39.9519C19.2766 40.0017 19.4629 40.0514 19.6492 40.1011C20.1408 40.2323 20.6319 40.365 21.123 40.4981C21.6145 40.6309 22.1063 40.7623 22.5981 40.8938C23.9265 41.2496 25.2549 41.6056 26.5803 41.972C26.7399 42.016 26.7399 42.016 26.9026 42.0609C27.086 42.1117 27.2692 42.1628 27.4524 42.2145C28.9772 42.6375 30.1836 42.4789 31.5651 41.7267C31.8393 41.5691 32.1112 41.4081 32.3824 41.2454C32.4818 41.1862 32.5812 41.1271 32.6837 41.0661C33.397 40.6393 34.1017 40.2001 34.8025 39.7533C35.4335 39.3515 36.0708 38.9609 36.7106 38.5734C37.5364 38.0731 38.3577 37.5663 39.1756 37.0531C40.087 36.4813 41.0031 35.9181 41.9229 35.36C42.7846 34.8369 43.6432 34.3093 44.4982 33.7753C44.7784 33.6006 45.0597 33.4296 45.3465 33.2658C45.8702 32.9592 46.2439 32.7123 46.4718 32.1336C46.5939 31.6657 46.5701 31.325 46.4023 30.8745C46.1608 30.4997 45.888 30.2647 45.49 30.0657C43.1739 29.8084 40.947 31.5549 39.0601 32.683C38.4501 33.046 37.836 33.4022 37.2224 33.759C36.6832 34.0727 36.1448 34.3877 35.6079 34.7053C35.4429 34.8026 35.4429 34.8026 35.2745 34.9019C35.066 35.0248 34.8578 35.1482 34.6499 35.272C32.7254 36.4041 30.9942 36.7757 28.7933 36.3106C28.7051 36.2925 28.6168 36.2743 28.5259 36.2556C27.5902 36.0578 26.6667 35.8153 25.7443 35.5633C25.4612 35.486 25.1778 35.4098 24.8943 35.3337C24.712 35.2845 24.5297 35.2351 24.3474 35.1857C24.2637 35.1632 24.18 35.1406 24.0938 35.1174C22.9771 34.8114 22.9771 34.8114 22.7813 34.491C22.7017 34.1408 22.7086 33.9274 22.8201 33.5853C23.0142 33.3782 23.0142 33.3782 23.3377 33.2747C24.3827 33.3574 25.4298 33.7284 26.4367 34.0058C26.698 34.0773 26.9593 34.1486 27.2206 34.22C27.382 34.2641 27.5434 34.3083 27.7048 34.3527C28.9117 34.7022 28.9117 34.7022 30.1115 34.4587C30.4374 34.1487 30.5628 33.9139 30.6873 33.4818C30.6873 32.9805 30.5806 32.6404 30.2342 32.267C29.7054 31.8547 28.8966 31.7625 28.2585 31.6089C25.9573 31.0505 23.715 30.2558 21.5015 29.4188C19.3337 28.6993 17.237 30.2602 15.4584 31.3197ZM7.97225 32.1394C7.87479 32.1943 7.77733 32.2493 7.67692 32.3059C7.57097 32.3655 7.46502 32.4252 7.35586 32.4866C7.24537 32.5503 7.13489 32.6139 7.02105 32.6795C6.85412 32.7726 6.85412 32.7726 6.68382 32.8675C6.08016 33.1609 6.08016 33.1609 5.74005 33.6888C5.85145 33.9597 5.85145 33.9597 6.02593 34.2541C6.12193 34.425 6.12193 34.425 6.21987 34.5993C6.29066 34.7228 6.36147 34.8463 6.43231 34.9698C6.50429 35.097 6.57618 35.2243 6.64798 35.3516C6.82838 35.6709 7.01 35.9894 7.19213 36.3077C7.33702 36.5611 7.48126 36.8148 7.62557 37.0684C7.82608 37.4203 8.02726 37.7717 8.22887 38.123C8.55541 38.6923 8.87862 39.2635 9.20135 39.835C9.25713 39.9338 9.31291 40.0325 9.37037 40.1343C9.71266 40.7404 10.0545 41.3468 10.3963 41.9533C10.5638 42.25 10.7321 42.5464 10.9005 42.8426C11.1189 43.2274 11.3336 43.6141 11.5458 44.0023C11.6463 44.1832 11.7469 44.3641 11.8475 44.545C11.8923 44.6288 11.937 44.7125 11.9832 44.7988C12.0473 44.913 12.0473 44.913 12.1127 45.0294C12.1492 45.0961 12.1856 45.1628 12.2231 45.2315C12.4297 45.4565 12.581 45.4742 12.8826 45.4896C13.1474 45.3987 13.1474 45.3987 13.4051 45.2425C13.501 45.188 13.5969 45.1335 13.6958 45.0773C13.7947 45.0191 13.8935 44.9608 13.9954 44.9008C14.0959 44.8446 14.1964 44.7883 14.2999 44.7304C14.8065 44.4729 14.8065 44.4729 15.151 44.0495C15.1628 43.7636 15.0821 43.6201 14.942 43.3711C14.8921 43.2809 14.8421 43.1908 14.7906 43.0978C14.7076 42.9527 14.7076 42.9527 14.623 42.8046C14.5664 42.7034 14.5098 42.6022 14.4515 42.4979C14.275 42.1831 14.0966 41.8694 13.9178 41.556C13.8651 41.4632 13.8125 41.3705 13.7583 41.275C13.5043 40.8276 13.249 40.3809 12.9926 39.9349C12.6621 39.3597 12.3354 38.7824 12.0092 38.2047C11.9252 38.056 11.9252 38.056 11.8396 37.9044C11.5582 37.4062 11.2772 36.9077 10.9967 36.4089C10.7195 35.9163 10.4412 35.4243 10.1619 34.933C10.0374 34.7141 9.9132 34.4951 9.78914 34.276C9.59206 33.9287 9.39365 33.5822 9.19488 33.2359C9.13357 33.1275 9.07227 33.0191 9.0091 32.9074C8.95165 32.8079 8.8942 32.7084 8.835 32.6059C8.78448 32.5175 8.73396 32.4291 8.6819 32.3381C8.46354 32.0378 8.31315 31.9949 7.97225 32.1394Z" fill="#FF7705"></path>
  <path d="M34.1705 6.26443C35.3823 7.30887 36.336 8.65939 36.4842 10.2943C36.5834 11.9092 36.3502 13.515 35.2663 14.7814C34.9259 15.1619 34.5678 15.5232 34.2068 15.8841C34.3132 15.9355 34.4195 15.9869 34.5291 16.0398C35.8506 16.6846 37.0265 17.3982 38.1404 18.3685C38.204 18.4232 38.2675 18.4779 38.3329 18.5343C40.1237 20.1971 41.3936 22.8572 41.4853 25.2976C41.478 25.59 41.4563 25.7117 41.3171 25.9769C40.9387 26.3132 40.4834 26.2505 40.0074 26.2495C39.88 26.2499 39.88 26.2499 39.75 26.2502C39.4644 26.2509 39.1788 26.2508 38.8932 26.2507C38.6888 26.251 38.4844 26.2514 38.2801 26.2518C37.7242 26.2527 37.1684 26.2529 36.6125 26.253C36.1489 26.2531 35.6854 26.2535 35.2218 26.2538C34.1284 26.2547 33.035 26.2549 31.9416 26.2548C30.8126 26.2548 29.6835 26.2559 28.5545 26.2575C27.5861 26.2589 26.6176 26.2594 25.6492 26.2594C25.0704 26.2593 24.4916 26.2596 23.9128 26.2607C23.3686 26.2617 22.8244 26.2617 22.2802 26.261C22.0802 26.2609 21.8803 26.2611 21.6803 26.2617C21.4078 26.2625 21.1353 26.2621 20.8628 26.2613C20.7833 26.2618 20.7037 26.2623 20.6218 26.2629C20.2362 26.2604 19.9336 26.2531 19.6111 26.0286C19.2443 25.5148 19.4232 24.8549 19.5076 24.2689C20.0542 21.5124 21.6508 18.96 23.9588 17.3333C24.8418 16.7628 25.7858 16.2922 26.7537 15.8841C26.7035 15.845 26.6534 15.8059 26.6017 15.7656C25.3174 14.7111 24.5449 13.2939 24.3729 11.64C24.2363 9.99106 24.7382 8.36099 25.8077 7.09645C27.9513 4.71053 31.6089 4.26206 34.1705 6.26443ZM27.2713 8.12043C26.4862 9.11017 26.0244 10.2656 26.1326 11.5364C26.3526 12.7384 26.896 13.8355 27.9118 14.5513C28.9605 15.2184 30.094 15.5504 31.3278 15.2994C32.5282 14.9682 33.5071 14.3405 34.145 13.2566C34.7406 12.1274 34.9046 11.0695 34.5627 9.82197C34.1658 8.64517 33.4418 7.79061 32.35 7.21467C30.5964 6.3921 28.6637 6.75899 27.2713 8.12043ZM23.2706 20.3743C22.3632 21.4633 21.3709 23.0327 21.3709 24.4759C27.3831 24.4759 33.3953 24.4759 39.5897 24.4759C39.2648 23.281 39.2648 23.281 38.7874 22.1727C38.7337 22.0684 38.7337 22.0684 38.6789 21.9621C38.3584 21.3585 37.9839 20.8378 37.5193 20.3353C37.4278 20.2343 37.3363 20.1333 37.242 20.0292C35.535 18.2023 33.2061 17.1624 30.7046 17.0773C27.8022 17.0479 25.2005 18.2038 23.2706 20.3743Z" fill="#FF7705"></path>
  <path d="M8.13061 33.4393C8.32794 33.4818 8.32794 33.4818 8.58673 33.637C8.80607 34.0026 8.82465 34.3082 8.742 34.724C8.58026 34.9827 8.58026 34.9827 8.32794 35.138C7.9721 35.1962 7.9721 35.1962 7.60333 35.138C7.25274 34.8844 7.1078 34.738 7.02752 34.3099C7.15305 33.6404 7.47127 33.3913 8.13061 33.4393Z" fill="#FF7705"></path>
</svg>
