<?xml version="1.0" encoding="UTF-8"?>
<svg xmlns="http://www.w3.org/2000/svg" width="53" height="53" viewBox="0 0 53 53" fill="none">
  <path d="M26.8294 14.4924C27.1694 14.6356 27.4845 14.8131 27.8036 14.9972C27.8991 15.0509 27.9945 15.1045 28.0928 15.1598C28.4045 15.3358 28.7148 15.5141 29.0249 15.6931C29.1284 15.7526 29.2319 15.8122 29.3386 15.8735C29.8831 16.1872 30.4264 16.5028 30.9691 16.8195C31.5609 17.1646 32.1551 17.5056 32.7499 17.8454C33.76 18.4226 34.7682 19.0027 35.7693 19.5952C35.8603 19.6486 35.9512 19.7021 36.0449 19.7571C36.1282 19.8067 36.2114 19.8563 36.2972 19.9073C36.3693 19.9501 36.4414 19.9928 36.5156 20.0368C36.7235 20.1779 36.8776 20.3027 37.0386 20.4957C37.081 20.722 37.081 20.722 37.0826 20.9873C37.084 21.0879 37.0854 21.1886 37.0869 21.2924C37.0867 21.4026 37.0866 21.5128 37.0864 21.6264C37.0875 21.7427 37.0886 21.859 37.0898 21.9788C37.0929 22.3642 37.0936 22.7496 37.0939 23.135C37.095 23.4024 37.0961 23.6698 37.0972 23.9372C37.0992 24.4983 37.0998 25.0592 37.0996 25.6203C37.0996 26.3396 37.1041 27.0588 37.1098 27.7781C37.1134 28.3306 37.1141 28.883 37.1139 29.4355C37.1143 29.7007 37.1158 29.9659 37.1183 30.2311C37.1215 30.602 37.1206 30.9726 37.1186 31.3435C37.1214 31.5082 37.1214 31.5082 37.1242 31.6762C37.1143 32.4031 37.1143 32.4031 36.8969 32.6884C36.7225 32.8361 36.7225 32.8361 36.3799 33.0482C36.2837 33.1096 36.1875 33.1711 36.0884 33.2344C35.9905 33.2898 35.8925 33.3451 35.7916 33.4021C35.6797 33.4657 35.5677 33.5294 35.4524 33.595C35.3328 33.6622 35.2133 33.7294 35.0901 33.7986C34.8979 33.9076 34.7058 34.0167 34.5137 34.1258C34.3152 34.2385 34.1166 34.3508 33.9179 34.4632C33.3099 34.8074 32.7044 35.156 32.0986 35.5041C31.8632 35.6391 31.6278 35.7741 31.3924 35.9091C30.9577 36.1585 30.5231 36.408 30.0886 36.6577C29.8939 36.7695 29.6992 36.8814 29.5045 36.9932C29.2609 37.1331 29.0173 37.2731 28.7738 37.4132C28.5555 37.5386 28.3368 37.6635 28.1179 37.7878C27.9238 37.899 27.7309 38.0122 27.5395 38.1279C26.716 38.6148 26.716 38.6148 26.1707 38.5058C25.8306 38.3625 25.5156 38.1851 25.1964 38.0009C25.101 37.9473 25.0056 37.8936 24.9072 37.8384C24.5955 37.6623 24.2852 37.484 23.9752 37.3051C23.8199 37.2158 23.8199 37.2158 23.6615 37.1246C23.117 36.8109 22.5736 36.4954 22.0309 36.1786C21.4391 35.8335 20.845 35.4926 20.2501 35.1528C19.24 34.5756 18.2318 33.9954 17.2307 33.4029C17.1398 33.3495 17.0488 33.2961 16.9551 33.2411C16.8719 33.1915 16.7886 33.1419 16.7029 33.0908C16.6308 33.0481 16.5587 33.0053 16.4844 32.9613C16.2766 32.8202 16.1225 32.6955 15.9615 32.5024C15.9191 32.2761 15.9191 32.2761 15.9174 32.0109C15.916 31.9102 15.9146 31.8095 15.9132 31.7058C15.9133 31.5955 15.9135 31.4853 15.9136 31.3717C15.912 31.1973 15.912 31.1973 15.9103 31.0194C15.9071 30.634 15.9065 30.2486 15.9061 29.8632C15.9051 29.5957 15.904 29.3283 15.9028 29.0609C15.9008 28.4999 15.9002 27.9389 15.9004 27.3779C15.9005 26.6586 15.896 25.9393 15.8903 25.22C15.8866 24.6676 15.886 24.1151 15.8861 23.5626C15.8857 23.2974 15.8843 23.0322 15.8817 22.767C15.8785 22.3962 15.8795 22.0255 15.8815 21.6547C15.8787 21.49 15.8787 21.49 15.8758 21.322C15.8858 20.5951 15.8858 20.5951 16.1032 20.3097C16.2776 20.1621 16.2776 20.1621 16.6201 19.95C16.7163 19.8885 16.8125 19.827 16.9116 19.7637C17.0096 19.7084 17.1075 19.6531 17.2084 19.5961C17.3204 19.5324 17.4323 19.4687 17.5476 19.4032C17.6672 19.336 17.7868 19.2688 17.91 19.1996C18.1021 19.0905 18.2942 18.9815 18.4863 18.8724C18.6848 18.7597 18.8835 18.6473 19.0822 18.5349C19.6902 18.1908 20.2957 17.8422 20.9014 17.4941C21.1368 17.359 21.3722 17.224 21.6077 17.089C22.0424 16.8397 22.477 16.5902 22.9114 16.3405C23.1061 16.2286 23.3008 16.1168 23.4955 16.005C23.7391 15.865 23.9827 15.725 24.2262 15.585C24.4446 15.4596 24.6632 15.3347 24.8822 15.2103C25.0762 15.0991 25.2691 14.9859 25.4605 14.8703C26.284 14.3834 26.284 14.3834 26.8294 14.4924ZM25.7136 16.8669C25.6008 16.9323 25.4881 16.9978 25.3719 17.0653C25.2506 17.137 25.1293 17.2087 25.0043 17.2826C24.8772 17.3568 24.75 17.431 24.6227 17.505C24.3574 17.6595 24.0922 17.8144 23.8273 17.9696C23.3165 18.2683 22.8026 18.5614 22.2886 18.8547C21.8198 19.1225 21.352 19.3919 20.8842 19.6614C20.599 19.8253 20.3131 19.988 20.0271 20.1504C19.8748 20.2381 19.7225 20.3259 19.5704 20.4139C19.5028 20.4517 19.4352 20.4895 19.3655 20.5285C19.1671 20.6405 19.1671 20.6405 18.9254 20.8232C18.9254 20.9312 18.9254 21.0393 18.9254 21.1506C19.0054 21.1945 19.0855 21.2384 19.1679 21.2836C21.8485 22.7552 21.8485 22.7552 22.8431 23.3405C22.9476 23.4016 22.9476 23.4016 23.0541 23.464C23.5173 23.736 23.9766 24.014 24.4353 24.2934C24.6753 24.4374 24.9152 24.5814 25.1553 24.7254C25.2691 24.7959 25.383 24.8664 25.5003 24.939C25.6078 25.003 25.7152 25.067 25.8259 25.133C25.9215 25.1912 26.0172 25.2494 26.1157 25.3094C26.3873 25.4357 26.3873 25.4357 26.6619 25.3359C26.7534 25.2875 26.8449 25.2391 26.9391 25.1893C27.084 25.1146 27.084 25.1146 27.2317 25.0384C27.3362 24.9807 27.4408 24.923 27.5485 24.8635C27.6669 24.7982 27.7854 24.7328 27.9075 24.6655C28.034 24.5952 28.1604 24.5249 28.2908 24.4525C28.3559 24.4164 28.421 24.3803 28.4882 24.3431C29.5403 23.7603 30.5833 23.163 31.6219 22.5567C32.5065 22.0404 33.3977 21.537 34.2942 21.0415C34.0204 20.7363 33.7176 20.5577 33.3606 20.3576C33.2376 20.2882 33.1146 20.2188 32.9878 20.1474C32.8538 20.0725 32.7198 19.9976 32.5858 19.9227C32.3776 19.8055 32.1695 19.6882 31.9614 19.5708C31.8185 19.4903 31.6756 19.4098 31.5327 19.3294C30.8042 18.9194 30.079 18.504 29.3542 18.0876C29.2412 18.0227 29.1282 17.9579 29.0118 17.8911C28.9029 17.8286 28.794 17.7661 28.6818 17.7017C28.5763 17.6413 28.4707 17.5809 28.3619 17.5187C28.1325 17.3858 27.9045 17.2504 27.6775 17.1134C27.5607 17.0433 27.4438 16.9732 27.3233 16.901C27.2181 16.8369 27.1128 16.7728 27.0043 16.7068C26.4817 16.4489 26.1815 16.5922 25.7136 16.8669ZM17.7179 22.5696C17.7179 25.5233 17.7179 28.4769 17.7179 31.5201C19.2394 32.3845 19.2394 32.3845 20.7916 33.2665C23.783 34.9778 23.783 34.9778 24.9842 35.6906C25.284 35.9018 25.284 35.9018 25.6218 35.9953C25.6218 33.0416 25.6218 30.088 25.6218 27.0448C24.209 26.2344 24.209 26.2344 22.7676 25.4076C21.416 24.623 21.416 24.623 20.7719 24.2491C20.1235 23.8734 19.4736 23.5003 18.8225 23.129C18.7236 23.0724 18.6247 23.0158 18.5228 22.9575C18.4328 22.9063 18.3428 22.8552 18.25 22.8024C18.1708 22.7573 18.0916 22.7121 18.0099 22.6656C17.8459 22.5611 17.8459 22.5611 17.7179 22.5696ZM34.6741 22.854C34.5686 22.9156 34.4631 22.9773 34.3544 23.0408C34.2394 23.1082 34.1245 23.1756 34.006 23.245C33.2078 23.7107 32.4092 24.175 31.6013 24.6239C31.3954 24.7397 31.1907 24.8574 30.9875 24.9778C30.4417 25.2976 29.9203 25.5589 29.3191 25.7596C28.5435 26.0507 27.8773 26.3657 27.3782 27.0448C26.8913 28.3412 27.1207 29.948 27.1973 31.2988C27.2245 31.8284 27.2364 32.3583 27.2496 32.8883C27.2777 33.9248 27.3225 34.9599 27.3782 35.9953C29.9728 34.6234 29.9728 34.6234 32.4929 33.1248C32.9016 32.8691 33.2674 32.6906 33.7352 32.5667C34.3921 32.3585 34.9012 32.1107 35.2822 31.5201C35.6939 30.2067 35.4857 28.641 35.4254 27.2885C35.4039 26.7567 35.3945 26.2247 35.384 25.6926C35.3617 24.6511 35.3262 23.6104 35.2822 22.5696C35.0634 22.5696 34.8556 22.7476 34.6741 22.854Z" fill="#FF7705"></path>
  <path d="M43.5154 12.746C43.8285 12.8038 44.1329 12.8843 44.4395 12.9694C44.5679 13.0042 44.5679 13.0042 44.6989 13.0397C44.8786 13.0887 45.0583 13.1383 45.2377 13.1883C45.5119 13.2644 45.7866 13.3378 46.0615 13.4111C46.2367 13.4593 46.4119 13.5076 46.587 13.5561C46.7097 13.5885 46.7097 13.5885 46.8348 13.6216C47.3006 13.7543 47.6181 13.8789 47.9065 14.2741C48.1094 14.7852 47.9389 15.2557 47.8023 15.7651C47.7671 15.9005 47.7671 15.9005 47.7311 16.0386C47.6812 16.229 47.6307 16.4191 47.5797 16.6092C47.502 16.8995 47.4272 17.1904 47.3527 17.4815C47.3038 17.6666 47.2547 17.8518 47.2054 18.0368C47.1722 18.167 47.1722 18.167 47.1384 18.2998C47.0072 18.7779 46.8904 19.0916 46.4794 19.4042C46.1511 19.5214 45.9802 19.5263 45.6423 19.4383C45.3298 19.2666 45.2031 19.1833 45.0523 18.8585C45.0447 18.3312 45.1728 17.8115 45.2774 17.2971C45.297 17.2006 45.3166 17.1041 45.3367 17.0046C45.3516 16.932 45.3664 16.8594 45.3816 16.7846C45.2843 16.8412 45.2843 16.8412 45.1851 16.8989C45.0929 16.9525 45.0006 17.0061 44.9056 17.0613C44.8014 17.1219 44.6971 17.1825 44.5896 17.245C44.3559 17.3806 44.1219 17.516 43.8878 17.651C43.3107 17.9841 42.7348 18.3186 42.1642 18.6626C41.9729 18.7777 41.7811 18.8919 41.5891 19.0057C41.3454 19.1505 41.1027 19.297 40.8611 19.4452C40.1742 19.8499 39.7074 20.072 38.9048 19.95C38.6138 19.723 38.5761 19.6251 38.4794 19.2541C38.4636 18.7985 38.5277 18.6729 38.795 18.3127C39.0526 18.1247 39.0526 18.1247 39.3589 17.955C39.4733 17.8906 39.5876 17.8263 39.7054 17.76C39.8284 17.6925 39.9514 17.625 40.078 17.5555C40.2701 17.4478 40.4621 17.3401 40.654 17.2323C40.8525 17.1209 41.0513 17.01 41.2501 16.8992C41.8835 16.5452 42.5106 16.1803 43.1381 15.8159C43.2516 15.7503 43.3651 15.6847 43.4821 15.6172C43.586 15.557 43.69 15.4967 43.7972 15.4347C43.8888 15.3817 43.9804 15.3286 44.0748 15.274C44.2771 15.1626 44.2771 15.1626 44.3936 15.0382C44.2627 15.0038 44.1318 14.9695 43.997 14.9341C43.825 14.887 43.653 14.8398 43.4811 14.7926C43.3949 14.7702 43.3086 14.7478 43.2198 14.7248C42.5842 14.5473 42.5842 14.5473 42.3066 14.2788C42.1354 13.9269 42.1438 13.6761 42.1981 13.2917C42.5903 12.7364 42.8584 12.7023 43.5154 12.746Z" fill="#FF7705"></path>
  <path d="M10.2531 12.746C10.6583 13.0289 10.7832 13.1871 10.8706 13.6738C10.7828 14.1626 10.636 14.2884 10.2531 14.6015C9.9737 14.7199 9.69139 14.7889 9.39543 14.854C9.31937 14.8723 9.24331 14.8907 9.16494 14.9096C8.97918 14.9542 8.79284 14.9964 8.60641 15.0382C9.75359 15.7327 10.9142 16.403 12.0791 17.0677C12.312 17.2008 12.5446 17.3342 12.7769 17.4682C12.9925 17.592 13.2092 17.714 13.4269 17.8342C13.5733 17.9168 13.5733 17.9168 13.7226 18.001C13.8509 18.0719 13.8509 18.0719 13.9817 18.1442C14.2571 18.352 14.3854 18.5496 14.5344 18.8585C14.5273 19.2629 14.5116 19.5152 14.2531 19.834C13.855 20.0065 13.528 20.0301 13.1073 19.95C12.6039 19.7282 12.1372 19.4477 11.6664 19.1655C11.531 19.0861 11.3955 19.007 11.2598 18.928C10.9164 18.7274 10.5742 18.5247 10.2324 18.3214C9.9208 18.1367 9.60793 17.9542 9.29509 17.7716C8.73509 17.4444 8.17626 17.1154 7.61842 16.7846C7.64219 16.8794 7.66597 16.9742 7.69046 17.072C7.72103 17.1977 7.75159 17.3235 7.78308 17.4531C7.81365 17.5772 7.84422 17.7013 7.87571 17.8292C7.97424 18.3412 8.03623 18.7062 7.76936 19.1655C7.45024 19.4577 7.28202 19.5134 6.84998 19.5134C6.53396 19.3634 6.32855 19.2132 6.08154 18.9676C5.98299 18.6675 5.89456 18.3704 5.81225 18.0658C5.77538 17.9309 5.77538 17.9309 5.73778 17.7933C5.68607 17.6026 5.63479 17.4119 5.5839 17.221C5.50589 16.9303 5.425 16.6406 5.34398 16.3507C5.29406 16.1652 5.24431 15.9797 5.19475 15.7941C5.15807 15.665 5.15807 15.665 5.12064 15.5332C4.97713 14.9785 4.96369 14.599 5.20333 14.0558C5.38252 13.902 5.38252 13.902 5.60727 13.8187C5.69568 13.7857 5.78409 13.7527 5.87518 13.7187C6.45665 13.5356 7.04082 13.3671 7.63069 13.2132C7.85239 13.1551 8.07352 13.0952 8.29466 13.035C8.43771 12.9971 8.58079 12.9593 8.72391 12.9216C8.85156 12.8878 8.97922 12.854 9.11075 12.8192C9.50565 12.7419 9.85166 12.7178 10.2531 12.746Z" fill="#FF7705"></path>
  <path d="M13.9855 33.0482C14.2599 33.2119 14.2599 33.2119 14.4246 33.4848C14.5096 34.0762 14.5096 34.0762 14.4246 34.358C13.9771 34.9185 13.3748 35.2081 12.7505 35.545C11.7622 36.0885 10.7878 36.6501 9.82082 37.23C9.69986 37.3026 9.57891 37.3751 9.45429 37.4498C9.1715 37.6196 8.88886 37.7896 8.60641 37.96C8.72938 37.9956 8.85235 38.0312 8.97905 38.0679C9.14073 38.116 9.30239 38.1642 9.46404 38.2124C9.58556 38.2473 9.58556 38.2473 9.70954 38.283C9.78772 38.3065 9.86591 38.3301 9.94646 38.3544C10.0183 38.3755 10.0902 38.3967 10.1642 38.4185C10.3982 38.5213 10.5287 38.6387 10.6922 38.8332C10.7667 39.1685 10.7545 39.4786 10.6922 39.8156C10.4863 40.1021 10.4863 40.1021 10.1433 40.2522C9.24215 40.2836 8.34439 39.9811 7.48597 39.7391C7.24655 39.6719 7.00652 39.6074 6.76636 39.5429C6.61266 39.5002 6.459 39.4574 6.30539 39.4144C6.09856 39.3571 6.09856 39.3571 5.88756 39.2987C5.51398 39.1534 5.33273 39.0417 5.09355 38.7241C4.89194 38.2144 5.05907 37.7453 5.1939 37.2369C5.21712 37.1469 5.24034 37.0569 5.26426 36.9641C5.31368 36.7743 5.36373 36.5846 5.41436 36.395C5.49109 36.1059 5.5645 35.8162 5.63772 35.5263C5.68626 35.3414 5.735 35.1567 5.78395 34.972C5.80547 34.8858 5.82699 34.7996 5.84917 34.7108C5.99782 34.169 6.17134 33.8429 6.63043 33.4848C7.01465 33.4166 7.01465 33.4166 7.39887 33.4848C7.72134 33.7099 7.72134 33.7099 7.94775 34.0305C8.03662 34.5607 7.90262 35.0111 7.77965 35.5314C7.74958 35.6591 7.71951 35.7869 7.68853 35.9185C7.66539 36.0159 7.64226 36.1133 7.61842 36.2136C7.68328 36.1759 7.74815 36.1381 7.81498 36.0993C7.90719 36.0457 7.9994 35.9921 8.09441 35.9369C8.1987 35.8762 8.30299 35.8156 8.41044 35.7531C8.64413 35.6175 8.87798 35.4822 9.11198 35.3471C9.68978 35.0135 10.2665 34.6786 10.8387 34.3355C11.0308 34.2205 11.2235 34.1063 11.4163 33.9924C11.6613 33.8474 11.9054 33.701 12.1486 33.553C12.7928 33.1746 13.2324 32.9365 13.9855 33.0482Z" fill="#FF7705"></path>
  <path d="M39.8928 33.0482C40.3937 33.2704 40.8581 33.5509 41.3267 33.8327C41.4619 33.9121 41.5971 33.9912 41.7325 34.0702C42.0086 34.2314 42.2842 34.3934 42.5594 34.556C43.1745 34.918 43.7979 35.2653 44.4211 35.6132C44.6298 35.7303 44.8385 35.8474 45.0472 35.9646C45.1952 36.0476 45.3433 36.1306 45.4914 36.2136C45.4584 36.1109 45.4255 36.0081 45.3915 35.9023C45.3497 35.7664 45.308 35.6305 45.265 35.4904C45.223 35.3562 45.1809 35.222 45.1376 35.0837C45.0506 34.6777 45.0545 34.4282 45.1621 34.0305C45.3405 33.7713 45.3405 33.7713 45.6012 33.5939C45.9785 33.5325 45.9785 33.5325 46.3696 33.5939C46.9026 34.0123 47.055 34.4224 47.22 35.0496C47.2441 35.1366 47.2682 35.2237 47.293 35.3134C47.3433 35.4968 47.3926 35.6805 47.441 35.8644C47.5152 36.1445 47.5934 36.4233 47.6721 36.7022C47.7206 36.8812 47.7689 37.0603 47.8169 37.2394C47.8403 37.3221 47.8637 37.4048 47.8879 37.49C48.0273 38.035 48.0292 38.4091 47.7967 38.9424C47.6178 39.0962 47.6178 39.0962 47.3932 39.1794C47.3048 39.2124 47.2164 39.2454 47.1254 39.2794C46.5418 39.4629 45.9553 39.631 45.3633 39.785C45.1404 39.8431 44.9181 39.903 44.6957 39.9631C44.5523 40.001 44.4089 40.0388 44.2654 40.0765C44.1372 40.1103 44.009 40.1441 43.8768 40.179C43.3634 40.283 43.0053 40.3408 42.548 40.068C42.2776 39.7838 42.2076 39.6579 42.1981 39.2698C42.3153 38.825 42.4698 38.6381 42.8568 38.3966C43.3624 38.2266 43.8783 38.0976 44.3936 37.96C43.3499 37.3115 42.2907 36.6972 41.2187 36.0962C38.7538 34.7126 38.7538 34.7126 38.5755 34.358C38.513 33.5882 38.513 33.5882 38.7401 33.2119C39.134 32.9769 39.4522 32.9614 39.8928 33.0482Z" fill="#FF7705"></path>
  <path d="M26.5 40.4159C26.5725 40.4148 26.6449 40.4137 26.7196 40.4125C27.0423 40.4977 27.1691 40.651 27.3782 40.9071C27.4352 41.2165 27.4352 41.2165 27.4382 41.5779C27.4403 41.7133 27.4425 41.8488 27.4447 41.9884C27.4449 42.1356 27.445 42.2828 27.4451 42.4301C27.4468 42.5812 27.4486 42.7323 27.4506 42.8834C27.4554 43.2803 27.4576 43.6772 27.4593 44.0742C27.4614 44.4795 27.466 44.8849 27.4704 45.2902C27.4787 46.085 27.4842 46.8797 27.488 47.6745C27.5726 47.5891 27.6573 47.5037 27.7444 47.4157C27.8556 47.3041 27.9668 47.1925 28.0781 47.081C28.1338 47.0246 28.1896 46.9683 28.247 46.9102C28.7765 46.3803 28.7765 46.3803 29.2787 46.3237C29.6835 46.3647 29.6835 46.3647 30.006 46.5898C30.2324 46.9104 30.2324 46.9104 30.3148 47.272C30.1138 48.2542 28.9666 49.0587 28.277 49.7416C28.1713 49.8471 28.0656 49.9526 27.9599 50.0581C27.8102 50.2068 27.8102 50.2068 27.6574 50.3585C27.5669 50.4484 27.4763 50.5383 27.383 50.6309C27.0421 50.9485 26.7716 51.0078 26.3008 50.9992C26.0076 50.9379 25.8864 50.8385 25.6668 50.6374C25.553 50.5333 25.553 50.5333 25.4368 50.4272C24.9457 49.959 24.4621 49.4841 23.982 49.0048C23.8759 48.8997 23.7698 48.7946 23.6636 48.6895C23.5639 48.5902 23.4642 48.4909 23.3615 48.3887C23.2711 48.2986 23.1807 48.2086 23.0875 48.1159C22.8124 47.8238 22.7724 47.7169 22.7264 47.3129C22.7676 46.9104 22.7676 46.9104 22.994 46.5898C23.3165 46.3647 23.3165 46.3647 23.6801 46.2828C24.2595 46.4 24.5568 46.7191 24.9631 47.1287C25.146 47.3107 25.329 47.4926 25.512 47.6745C25.5124 47.5907 25.5128 47.5069 25.5132 47.4205C25.5174 46.6303 25.5236 45.8402 25.5322 45.05C25.5366 44.6438 25.5401 44.2376 25.5418 43.8314C25.5434 43.4393 25.5472 43.0472 25.5525 42.6551C25.5541 42.5056 25.555 42.3561 25.5551 42.2066C25.5553 41.997 25.5585 41.7874 25.5619 41.5779C25.5629 41.4586 25.5638 41.3394 25.5648 41.2165C25.6597 40.7014 25.968 40.4076 26.5 40.4159Z" fill="#FF7705"></path>
  <path d="M26.9391 2.04911C27.1359 2.18009 27.1359 2.18009 27.3332 2.36079C27.4091 2.43014 27.4851 2.49949 27.5633 2.57094C28.0543 3.03911 28.538 3.51406 29.018 3.99337C29.1241 4.09849 29.2303 4.20359 29.3364 4.30868C29.4361 4.40794 29.5358 4.50721 29.6385 4.60948C29.7289 4.69951 29.8194 4.78953 29.9125 4.88228C30.1877 5.17436 30.2276 5.28122 30.2736 5.68522C30.2324 6.08772 30.2324 6.08772 30.006 6.40835C29.6835 6.63348 29.6835 6.63348 29.3199 6.71534C28.7405 6.59818 28.4433 6.279 28.0369 5.86942C27.854 5.68744 27.671 5.50551 27.488 5.32366C27.4876 5.40747 27.4872 5.49128 27.4868 5.57764C27.4826 6.36783 27.4764 7.15796 27.4678 7.94811C27.4635 8.35434 27.46 8.76053 27.4583 9.16678C27.4566 9.55889 27.4528 9.95093 27.4476 10.343C27.446 10.4925 27.4451 10.6421 27.445 10.7916C27.4447 11.0012 27.4415 11.2107 27.4382 11.4203C27.4367 11.5991 27.4367 11.5991 27.4352 11.7816C27.3652 12.1619 27.2406 12.2912 26.9391 12.5277C26.7196 12.5857 26.7196 12.5857 26.5 12.5822C26.3913 12.5839 26.3913 12.5839 26.2805 12.5857C25.9577 12.5004 25.831 12.3471 25.6218 12.0911C25.5648 11.7816 25.5648 11.7816 25.5619 11.4203C25.5597 11.2848 25.5576 11.1494 25.5553 11.0098C25.5551 10.8625 25.555 10.7153 25.5549 10.5681C25.5533 10.4169 25.5514 10.2658 25.5494 10.1147C25.5446 9.71782 25.5424 9.32092 25.5408 8.92397C25.5386 8.51861 25.534 8.11328 25.5296 7.70794C25.5213 6.91319 25.5158 6.11845 25.512 5.32366C25.4274 5.40906 25.3428 5.49447 25.2556 5.58247C25.1444 5.69405 25.0332 5.80562 24.922 5.91717C24.8662 5.97352 24.8105 6.02987 24.753 6.08793C24.2235 6.61788 24.2235 6.61788 23.7213 6.67441C23.3165 6.63348 23.3165 6.63348 22.994 6.40835C22.7676 6.08772 22.7676 6.08772 22.6853 5.72615C22.8862 4.74392 24.0334 3.93943 24.723 3.2566C24.8287 3.15109 24.9344 3.04556 25.0401 2.94002C25.14 2.84089 25.2398 2.74177 25.3426 2.63964C25.4332 2.54974 25.5237 2.45983 25.617 2.36721C26.0114 1.99991 26.4153 1.93954 26.9391 2.04911Z" fill="#FF7705"></path>
</svg>
