<?xml version="1.0" encoding="UTF-8"?>
<svg xmlns="http://www.w3.org/2000/svg" width="48" height="48" viewBox="0 0 48 48" fill="none">
  <path d="M33.1836 5.31265C37.8971 7.73637 41.3929 12.0148 43.0237 17.0701C44.5318 21.945 44.2223 27.5267 41.8566 32.0875C41.7484 32.2901 41.6381 32.4913 41.5276 32.6927C41.4569 32.8267 41.3863 32.9608 41.3158 33.0949C40.8133 34.0336 40.22 34.8641 39.5514 35.6856C39.4999 35.7497 39.4483 35.8137 39.3952 35.8797C36.0788 39.9807 31.2485 42.5056 26.0437 43.0552C20.6529 43.5402 15.4094 41.8816 11.2581 38.3841C10.9494 38.1183 10.6469 37.8462 10.3473 37.5701C10.2574 37.4873 10.1676 37.4046 10.075 37.3194C6.43118 33.7967 4.46945 28.6651 4.2947 23.6393C4.24941 20.6029 4.84254 17.6231 6.0655 14.8458C6.0014 14.8726 5.93731 14.8995 5.87127 14.9272C5.5754 15.0499 5.27841 15.1695 4.98132 15.2892C4.88055 15.3315 4.77979 15.3738 4.67597 15.4173C4.0035 15.6851 3.38767 15.8458 2.66201 15.7326C2.33986 15.5334 2.17102 15.4062 2.00327 15.0675C1.97325 14.851 1.97325 14.851 1.9621 14.5964C1.95403 14.472 1.95403 14.472 1.9458 14.3452C2.03207 13.9318 2.24311 13.6754 2.55222 13.4047C2.9532 13.1821 3.37277 13.0194 3.79979 12.8548C3.98193 12.7824 3.98193 12.7824 4.16774 12.7085C4.42402 12.6072 4.68067 12.5068 4.93766 12.4073C5.32974 12.2552 5.72026 12.0995 6.11074 11.9433C6.36047 11.8451 6.61028 11.7471 6.86019 11.6493C6.97641 11.6029 7.09263 11.5565 7.21237 11.5087C7.9803 11.2145 8.57881 11.0476 9.38664 11.2986C10.0932 11.8174 10.2485 12.7775 10.4348 13.5944C10.4741 13.762 10.4741 13.762 10.5141 13.933C10.5689 14.1682 10.6231 14.4036 10.6768 14.639C10.7587 14.9967 10.843 15.3538 10.9276 15.7109C10.9807 15.9407 11.0338 16.1705 11.0867 16.4003C11.1117 16.5057 11.1367 16.6112 11.1625 16.7198C11.5176 18.3012 11.5176 18.3012 11.2444 18.9375C11.0038 19.2799 10.7517 19.4344 10.3542 19.5084C9.90951 19.5313 9.61861 19.429 9.2494 19.1689C8.85473 18.6532 8.76206 18.0388 8.62497 17.4161C8.60028 17.3076 8.57558 17.1991 8.55014 17.0872C8.48959 16.8206 8.42994 16.5538 8.37108 16.2868C8.07681 16.7325 7.94012 17.2008 7.7741 17.7071C7.73976 17.8116 7.70543 17.9161 7.67005 18.0237C6.77876 20.7902 6.54826 24.0856 7.27318 26.9284C7.30678 27.0611 7.30678 27.0611 7.34105 27.1964C7.6787 28.489 8.12009 29.7179 8.70045 30.9191C8.7347 30.9903 8.76895 31.0616 8.80424 31.1351C9.29521 32.1429 9.86395 33.0373 10.5669 33.912C10.6126 33.97 10.6583 34.028 10.7054 34.0877C11.9281 35.635 13.3096 36.8359 14.9585 37.9026C15.0677 37.9744 15.177 38.0461 15.2896 38.12C19.0323 40.4528 23.7501 41.1001 28.0029 40.0919C30.8782 39.3629 33.5138 38.0817 35.6886 36.019C35.9284 35.7965 35.9284 35.7965 36.2114 35.57C39.1498 33.1727 40.8524 28.7662 41.2863 25.0918C41.4389 23.204 41.3991 21.2392 40.9787 19.3906C40.961 19.3103 40.9433 19.2299 40.9251 19.1472C40.1892 15.9053 38.5303 13.1212 36.2577 10.7443C36.1986 10.6819 36.1395 10.6196 36.0785 10.5553C35.6383 10.0995 35.1781 9.6972 34.6726 9.31711C34.5591 9.23166 34.5591 9.23166 34.4432 9.14448C33.66 8.56718 32.8377 8.08696 31.9759 7.6405C31.9088 7.60524 31.8416 7.56998 31.7724 7.53366C29.9983 6.61304 28.1729 6.14396 26.2044 5.84736C26.0149 5.81716 26.0149 5.81716 25.8217 5.78636C25.709 5.76969 25.5964 5.75303 25.4804 5.73586C25.11 5.62803 24.9001 5.46584 24.62 5.2018C24.4286 4.81526 24.4464 4.40413 24.5102 3.98244C25.6797 1.77595 31.5567 4.49737 33.1836 5.31265Z" fill="#FF7705"></path>
  <path d="M24.7844 15.1875C25.0991 15.4359 25.2764 15.6219 25.453 15.9814C25.4632 16.205 25.4661 16.4289 25.4657 16.6527C25.4657 16.7934 25.4657 16.9342 25.4657 17.0792C25.4651 17.2334 25.4645 17.3876 25.4639 17.5418C25.4637 17.6991 25.4636 17.8564 25.4634 18.0138C25.463 18.4281 25.4619 18.8424 25.4607 19.2567C25.4596 19.6794 25.459 20.102 25.4585 20.5247C25.4573 21.3542 25.4554 22.1837 25.453 23.0133C25.5225 23.047 25.5919 23.0807 25.6634 23.1154C25.9281 23.2556 26.0934 23.414 26.3011 23.6313C26.3761 23.7088 26.4511 23.7864 26.5283 23.8663C26.6056 23.9474 26.6829 24.0285 26.7626 24.112C27.2801 24.6522 27.8035 25.1714 28.3657 25.6636C28.6684 25.9331 28.9513 26.218 29.2353 26.5079C29.2888 26.5619 29.3423 26.6159 29.3975 26.6716C29.7769 27.0588 29.9287 27.2671 29.9458 27.8122C29.9394 28.1801 29.9124 28.3409 29.7438 28.677C29.3846 28.9786 29.0448 29.1443 28.5736 29.1378C27.892 28.9196 27.5031 28.5551 27.0203 28.0319C26.8829 27.8875 26.7454 27.7432 26.6076 27.5991C26.5426 27.5308 26.4776 27.4625 26.4106 27.3921C26.2047 27.1804 25.99 26.9837 25.7665 26.7914C25.4013 26.4771 25.0643 26.1383 24.7286 25.792C24.3023 25.3521 23.8688 24.938 23.3978 24.5484C23.0968 24.2467 23.0079 23.9993 22.9714 23.5692C22.9705 23.4312 22.9697 23.2933 22.9688 23.1511C22.9681 23.0747 22.9673 22.9983 22.9665 22.9196C22.9644 22.6675 22.964 22.4155 22.9637 22.1635C22.963 21.9878 22.9623 21.8121 22.9615 21.6364C22.9602 21.2682 22.9597 20.9 22.9599 20.5318C22.9599 20.0609 22.9569 19.5901 22.953 19.1192C22.9505 18.7563 22.9501 18.3934 22.9502 18.0304C22.9499 17.8569 22.949 17.6833 22.9472 17.5098C22.945 17.2666 22.9457 17.0235 22.947 16.7803C22.9467 16.6421 22.9464 16.5039 22.9461 16.3616C23.0122 15.9056 23.1663 15.6584 23.447 15.3009C23.8609 15.0903 24.3336 15.1212 24.7844 15.1875Z" fill="#FF7705"></path>
</svg>
