<?xml version="1.0" encoding="UTF-8"?>
<svg xmlns="http://www.w3.org/2000/svg" width="48" height="48" viewBox="0 0 48 48" fill="none">
  <g clip-path="url(#clip0_3796_144)">
    <path d="M23.745 -0.0244374C24.0309 -0.0234258 24.3167 -0.0244371 24.6026 -0.0256275C26.9429 -0.0274485 26.9429 -0.0274485 27.5863 0.380867C27.8121 0.759928 27.837 1.06921 27.7503 1.50001C27.5822 1.7691 27.4707 1.92107 27.1878 2.06251C26.5468 2.09425 25.9042 2.0574 25.2642 2.01952C20.2348 1.73858 15.1172 3.16395 11.0628 6.18751C11.0062 6.22955 10.9496 6.27159 10.8913 6.3149C10.0565 6.94005 9.28332 7.6217 8.53159 8.34376C8.44748 8.424 8.36337 8.50425 8.27671 8.58692C4.34296 12.4235 2.07108 18.0583 1.96616 23.5221C1.95018 29.5629 4.16719 35.1202 8.34409 39.4688C8.42433 39.5529 8.50458 39.637 8.58725 39.7236C12.5091 43.7447 18.1737 45.9193 23.7367 46.0283C28.8012 46.0746 33.8619 44.3865 37.7816 41.1563C37.8336 41.1138 37.8856 41.0713 37.9392 41.0275C39.1562 40.0278 40.2941 38.9428 41.2503 37.6875C41.291 37.6342 41.3317 37.5809 41.3737 37.5261C44.9502 32.8195 46.5982 26.9783 45.8256 21.1011C45.3283 17.5945 44.0749 14.3752 42.0941 11.4375C42.0322 11.3447 41.9703 11.2519 41.9066 11.1563C41.8944 11.2699 41.8944 11.2699 41.8821 11.3859C41.8222 11.8409 41.774 12.1947 41.5257 12.5859C41.1467 12.8118 40.8374 12.8366 40.4066 12.75C40.1375 12.5818 39.9855 12.4704 39.8441 12.1875C39.8334 12.0517 39.8282 11.9155 39.826 11.7793C39.8237 11.6525 39.8237 11.6525 39.8214 11.5232C39.8173 11.136 39.8134 10.7489 39.8113 10.3618C39.8097 10.1577 39.8072 9.95367 39.8036 9.74964C39.7984 9.4553 39.7964 9.16108 39.795 8.86671C39.7929 8.77587 39.7908 8.68503 39.7886 8.59144C39.7899 8.18025 39.7979 7.87297 40.0522 7.53764C40.5154 7.1375 41.0188 7.2028 41.6041 7.19971C41.683 7.19918 41.762 7.19865 41.8433 7.1981C42.0099 7.19721 42.1764 7.1966 42.343 7.19624C42.5965 7.19533 42.8499 7.19241 43.1034 7.18946C43.2657 7.18885 43.4281 7.18836 43.5904 7.188C43.6655 7.18684 43.7407 7.18568 43.8181 7.18449C44.3124 7.18643 44.6568 7.26404 45.0941 7.50001C45.3264 7.81946 45.3753 8.00162 45.3753 8.39649C45.2583 8.79867 45.1473 8.93485 44.8128 9.18751C44.5039 9.24382 44.2056 9.23196 43.8929 9.2168C43.8101 9.21469 43.7272 9.21257 43.6419 9.2104C43.4384 9.2049 43.235 9.19649 43.0316 9.18751C43.1387 9.33561 43.1387 9.33561 43.248 9.4867C43.8775 10.3633 44.4685 11.2483 45.0003 12.1875C45.0512 12.2757 45.0512 12.2757 45.1031 12.3658C46.5033 14.8118 47.3917 17.5621 47.8128 20.3438C47.8295 20.4486 47.8461 20.5535 47.8632 20.6616C48.0209 21.7605 48.0338 22.8502 48.0296 23.959C48.0294 24.0547 48.0292 24.1504 48.029 24.249C48.0244 25.6217 47.9953 26.9634 47.7191 28.3125C47.701 28.4059 47.6828 28.4994 47.6642 28.5956C46.903 32.4477 45.2746 35.9253 42.8441 39C42.768 39.0973 42.6918 39.1946 42.6134 39.2948C41.426 40.7537 40.0619 42.1221 38.5316 43.2188C38.4055 43.3115 38.2794 43.4043 38.1533 43.4971C35.2183 45.6346 31.8847 47.0614 28.3128 47.7188C28.2378 47.7338 28.1627 47.7489 28.0854 47.7644C25.4541 48.2791 22.3127 48.2578 19.6878 47.7188C19.5929 47.7001 19.498 47.6815 19.4002 47.6623C15.5477 46.8919 12.0851 45.2569 9.00034 42.8438C8.94979 42.8045 8.89925 42.7652 8.84717 42.7247C7.32467 41.5282 5.91178 40.104 4.78159 38.5313C4.70061 38.4216 4.61956 38.312 4.53843 38.2024C3.11874 36.2687 1.98604 34.1491 1.21909 31.875C1.18037 31.7604 1.18037 31.7604 1.14086 31.6435C0.837288 30.7275 0.599885 29.8011 0.398778 28.8574C0.380144 28.7707 0.36151 28.6841 0.342312 28.5947C0.0336222 27.0754 -0.0348446 25.5815 -0.0289569 24.0352C-0.0287548 23.9397 -0.0285528 23.8442 -0.0283446 23.7459C-0.0236849 22.3749 0.00577001 21.0349 0.28159 19.6875C0.308781 19.5474 0.308781 19.5474 0.336522 19.4044C1.05171 15.7849 2.52479 12.3955 4.78159 9.46876C4.84189 9.39045 4.9022 9.31214 4.96433 9.23145C6.28647 7.54826 7.81966 5.93686 9.56284 4.68751C9.61363 4.65077 9.66441 4.61403 9.71674 4.57618C11.6874 3.15571 13.8215 1.99573 16.1253 1.21876C16.24 1.18003 16.24 1.18003 16.3569 1.14053C17.2729 0.836955 18.1993 0.599552 19.1429 0.398445C19.2296 0.379811 19.3163 0.361178 19.4056 0.34198C20.8529 0.0479384 22.2714 -0.0306386 23.745 -0.0244374Z" fill="#FF7705"></path>
    <path d="M27.5627 6.37499C27.647 6.39362 27.7313 6.41224 27.8181 6.43143C30.4538 7.02772 32.8151 8.12064 34.969 9.74999C35.0589 9.81694 35.1488 9.88389 35.2414 9.95287C39.0104 12.8932 41.2468 17.2643 41.8706 21.958C42.3416 26.685 41.0667 31.4896 38.0781 35.2104C34.9708 38.976 30.6743 41.395 25.7921 41.8895C25.2056 41.939 24.6177 41.9387 24.0295 41.9355C23.9602 41.9353 23.891 41.9351 23.8196 41.9349C18.7992 41.9116 14.3709 39.8224 10.8594 36.3C7.70587 33.0521 6.04304 28.5185 6.06466 24.0293C6.06483 23.9553 6.065 23.8813 6.06518 23.8051C6.06962 22.6609 6.12683 21.5579 6.37521 20.4375C6.39859 20.3255 6.39859 20.3255 6.42245 20.2112C6.77196 18.5617 7.35125 17.0171 8.12716 15.5215C8.16947 15.4399 8.21179 15.3583 8.25538 15.2743C8.83557 14.1917 8.83557 14.1917 9.28146 13.9687C9.93317 13.9153 9.93317 13.9153 10.301 14.1152C10.5597 14.412 10.6356 14.6088 10.6877 15C10.5217 15.5206 10.2956 15.9589 10.0139 16.4238C9.15626 17.9032 8.67451 19.5181 8.34396 21.1875C8.32088 21.2999 8.29779 21.4123 8.27401 21.5281C7.59152 25.5854 8.71663 29.9342 11.0568 33.2812C11.5666 33.9905 12.14 34.6267 12.7502 35.25C12.8144 35.3189 12.8786 35.3878 12.9447 35.4587C14.8305 37.4434 17.5505 38.7816 20.174 39.4512C20.2451 39.4694 20.3162 39.4877 20.3895 39.5065C21.5706 39.7901 22.7591 39.8799 23.9709 39.873C24.0686 39.8727 24.0686 39.8727 24.1683 39.8724C28.4227 39.8514 32.193 38.1617 35.2502 35.25C35.3175 35.1876 35.3848 35.1253 35.4542 35.061C38.1428 32.4963 39.7641 28.468 39.8755 24.7947C39.8783 24.5493 39.8794 24.3039 39.8791 24.0586C39.8791 23.9616 39.8791 23.9616 39.8791 23.8627C39.8753 22.6325 39.7462 21.4496 39.469 20.25C39.4524 20.178 39.4358 20.1061 39.4188 20.0319C38.741 17.2178 37.2225 14.8245 35.2502 12.75C35.1922 12.6859 35.1342 12.6219 35.0744 12.5559C32.3499 9.64887 28.2677 8.26279 24.3836 8.04162C21.3425 7.96928 18.1538 8.82616 15.5913 10.4751C15.2431 10.6663 14.9173 10.6706 14.5315 10.5937C14.2731 10.3892 14.1156 10.2308 13.969 9.93749C13.912 9.43612 14.0341 9.20324 14.344 8.81249C14.5595 8.64768 14.7894 8.52213 15.0295 8.39647C15.0961 8.3606 15.1626 8.32472 15.2312 8.28776C15.4345 8.17943 15.6389 8.07371 15.844 7.96874C15.9019 7.9386 15.9599 7.90847 16.0196 7.87742C19.4344 6.12119 23.8024 5.51788 27.5627 6.37499Z" fill="#FF7705"></path>
    <path d="M32.9062 14.4375C33.1709 14.5551 33.3246 14.6516 33.498 14.8828C33.5954 15.2013 33.6069 15.4167 33.5625 15.75C33.2483 16.2717 32.8164 16.7103 32.3854 17.1359C32.3268 17.1945 32.2682 17.2532 32.2078 17.3136C32.0165 17.5047 31.8245 17.6952 31.6326 17.8857C31.4988 18.0191 31.3651 18.1526 31.2314 18.2861C30.8814 18.6354 30.5307 18.9842 30.18 19.3329C29.8214 19.6895 29.4634 20.0467 29.1053 20.4038C28.4041 21.1031 27.7022 21.8017 27 22.5C27.0199 22.5689 27.0398 22.6379 27.0603 22.7089C27.0861 22.8003 27.1119 22.8917 27.1384 22.986C27.1641 23.0762 27.1898 23.1664 27.2163 23.2593C27.4139 24.0867 27.2773 24.8861 26.8792 25.6329C26.3414 26.4913 25.6719 26.9615 24.709 27.2578C23.5703 27.3689 22.6502 27.1719 21.75 26.4375C21.1542 25.8841 20.7619 25.1284 20.6997 24.3127C20.6983 24.2211 20.6968 24.1295 20.6953 24.0351C20.6929 23.945 20.6905 23.8548 20.688 23.762C20.716 23.4665 20.7741 23.2303 20.8613 22.9485C20.9 22.8223 20.9 22.8223 20.9396 22.6937C20.9595 22.6297 20.9794 22.5658 21 22.5C20.9619 22.4625 20.9237 22.425 20.8844 22.3863C20.4867 21.9948 20.0899 21.6022 19.6937 21.2091C19.5458 21.0626 19.3976 20.9164 19.2493 20.7705C19.0357 20.5603 18.823 20.3492 18.6105 20.1379C18.5443 20.0732 18.478 20.0084 18.4098 19.9417C18.0693 19.6013 17.798 19.3028 17.625 18.8437C17.625 18.4372 17.6757 18.2457 17.918 17.918C18.2492 17.6731 18.4319 17.6179 18.8438 17.625C19.4021 17.8902 19.7913 18.2538 20.2203 18.6929C20.286 18.7589 20.3517 18.825 20.4193 18.893C20.6272 19.1025 20.8341 19.3129 21.041 19.5234C21.1825 19.6663 21.324 19.8091 21.4656 19.9519C21.8112 20.3005 22.1559 20.6499 22.5 21C22.569 20.9801 22.638 20.9602 22.7091 20.9397C22.8463 20.901 22.8463 20.901 22.9863 20.8616C23.0766 20.8359 23.1669 20.8102 23.2599 20.7837C23.8757 20.6363 24.4086 20.6893 25.0137 20.8616C25.1052 20.8873 25.1966 20.9131 25.2909 20.9397C25.3599 20.9596 25.4289 20.9795 25.5 21C25.5777 20.9219 25.6553 20.8439 25.7353 20.7634C26.4673 20.0277 27.1997 19.2924 27.9326 18.5576C28.3094 18.1799 28.686 17.8019 29.0622 17.4236C29.4253 17.0585 29.7889 16.6938 30.1528 16.3294C30.2915 16.1904 30.43 16.0511 30.5684 15.9117C30.7623 15.7165 30.9568 15.5218 31.1514 15.3273C31.2085 15.2695 31.2655 15.2118 31.3243 15.1523C31.8163 14.6628 32.1756 14.3592 32.9062 14.4375ZM22.9395 23.168C22.7241 23.5348 22.6688 23.8577 22.6875 24.2812C22.8369 24.7213 23.0361 24.9832 23.4375 25.2187C23.8563 25.3318 24.1791 25.3472 24.5918 25.207C24.9314 24.9701 25.1612 24.7758 25.2722 24.3644C25.3484 23.8822 25.319 23.5687 25.0312 23.1562C24.7014 22.7973 24.3978 22.7105 23.926 22.6783C23.4986 22.6972 23.2451 22.8871 22.9395 23.168Z" fill="#FF7705"></path>
    <path d="M24.4697 9.74999C24.7621 9.99155 24.912 10.1395 25.0322 10.5C25.0461 10.7455 25.0538 10.9869 25.0556 11.2324C25.0575 11.298 25.0595 11.3635 25.0615 11.4311C25.0648 11.8799 24.9946 12.1851 24.7509 12.5625C24.3795 12.791 24.1828 12.8557 23.749 12.7969C23.3825 12.6309 23.2694 12.5326 23.0634 12.1875C23.0064 11.8584 23.0068 11.5365 23.0107 11.2031C23.0073 11.0713 23.0073 11.0713 23.0039 10.9369C23.0048 10.4986 23.0122 10.2862 23.2835 9.9287C23.7035 9.62686 23.9739 9.63033 24.4697 9.74999Z" fill="#FF7705"></path>
    <path d="M24.5632 35.3438C24.8832 35.6293 24.9645 35.8573 24.9913 36.2725C24.9931 36.4473 24.993 36.6221 24.9909 36.7969C24.9931 36.8847 24.9954 36.9726 24.9977 37.0631C24.9968 37.4976 24.988 37.714 24.7236 38.0709C24.3819 38.3117 24.1347 38.3852 23.7194 38.3438C23.4023 38.1911 23.2162 38.0802 23.0496 37.767C22.9478 37.428 22.9385 37.1065 22.9401 36.7559C22.9386 36.6912 22.9371 36.6264 22.9355 36.5598C22.9351 36.1159 23.0108 35.8109 23.2507 35.4375C23.7392 35.1369 24.0398 35.1068 24.5632 35.3438Z" fill="#FF7705"></path>
    <path d="M36.7978 23.0098C36.8857 23.0075 36.9736 23.0053 37.0641 23.003C37.4985 23.0039 37.715 23.0127 38.0719 23.2771C38.3127 23.6188 38.3862 23.8659 38.3447 24.2813C38.192 24.5984 38.0812 24.7845 37.7679 24.951C37.429 25.0529 37.1074 25.0622 36.7568 25.0605C36.6598 25.0628 36.6598 25.0628 36.5607 25.0651C36.1169 25.0655 35.8119 24.9899 35.4385 24.75C35.2099 24.3786 35.1453 24.1819 35.2041 23.748C35.542 23.0018 36.0602 23.0011 36.7978 23.0098Z" fill="#FF7705"></path>
    <path d="M11.2433 22.9395C11.3081 22.9379 11.3728 22.9364 11.4394 22.9349C11.8833 22.9345 12.1883 23.0101 12.5617 23.25C12.7902 23.6214 12.8549 23.8181 12.7961 24.252C12.6301 24.6184 12.5318 24.7315 12.1867 24.9375C11.8576 24.9945 11.5357 24.9941 11.2023 24.9902C11.0705 24.9936 11.0705 24.9936 10.9361 24.997C10.5017 24.9961 10.2852 24.9873 9.92828 24.7229C9.6875 24.3812 9.614 24.1341 9.65545 23.7188C9.80814 23.4016 9.91897 23.2155 10.2322 23.049C10.5712 22.9471 10.8927 22.9378 11.2433 22.9395Z" fill="#FF7705"></path>
    <path d="M31.2013 1.1367C31.4505 1.46425 31.5001 1.65227 31.5001 2.06249C31.3581 2.43891 31.2746 2.58783 30.9376 2.81249C30.5071 2.88183 30.1853 2.86964 29.8126 2.6367C29.5278 2.33412 29.4939 2.11455 29.4984 1.69737C29.5579 1.34087 29.7386 1.18115 30.0001 0.937485C30.4258 0.731503 30.8404 0.864019 31.2013 1.1367Z" fill="#FF7705"></path>
    <path d="M12.4682 11.0625C12.7821 11.2848 12.9049 11.4389 13.0307 11.8008C13.0307 12.1915 12.9516 12.4152 12.7495 12.75C12.3764 12.9868 12.1857 13.0453 11.7475 12.9785C11.2505 12.7628 11.2505 12.7628 11.062 12.4687C10.9826 12.0315 11.0005 11.7234 11.2378 11.3437C11.6062 10.997 11.9799 10.9883 12.4682 11.0625Z" fill="#FF7705"></path>
  </g>
  <defs>
    <clipPath id="clip0_3796_144">
      <rect width="48" height="48" fill="white"></rect>
    </clipPath>
  </defs>
</svg>
