<?xml version="1.0" encoding="UTF-8"?>
<svg xmlns="http://www.w3.org/2000/svg" width="48" height="48" viewBox="0 0 48 48" fill="none">
  <path d="M7.20192 23.9364C7.42494 23.938 7.64775 23.9364 7.87076 23.9344C8.75155 23.933 9.50344 23.9466 10.1911 24.5353C10.498 24.8578 10.7644 25.2264 10.7644 25.6722C10.863 25.6377 10.9617 25.6032 11.0633 25.5677C12.9522 24.925 15.4168 24.2249 17.383 24.9538C17.9675 25.2238 18.4822 25.5031 18.956 25.9323C19.391 26.3222 19.8705 26.5958 20.3848 26.8758C20.607 26.997 20.8282 27.1197 21.0494 27.2425C21.4979 27.4913 21.947 27.7391 22.3963 27.9865C22.6638 28.134 22.9312 28.2816 23.1985 28.4293C23.2844 28.4768 23.3703 28.5243 23.4588 28.5732C23.6314 28.6686 23.804 28.7642 23.9765 28.8599C24.3794 29.0833 24.7829 29.3055 25.1891 29.5231C25.3314 29.5994 25.4734 29.6761 25.6154 29.753C25.7924 29.8486 25.9698 29.9435 26.1478 30.0375C26.8529 30.4202 27.5799 30.8753 27.9471 31.5923C27.9837 31.6612 28.0203 31.73 28.058 31.801C28.225 32.1758 28.236 32.512 28.2337 32.917C28.234 32.9719 28.2343 33.0267 28.2346 33.0832C28.2341 33.3494 28.2176 33.5859 28.1432 33.8419C28.2089 33.8253 28.2746 33.8086 28.3423 33.7914C29.4247 33.5243 30.5177 33.3061 31.6111 33.0847C31.8928 33.0276 32.1745 32.9702 32.4561 32.9129C32.9278 32.817 33.3994 32.7212 33.8711 32.6255C34.5359 32.4907 35.2006 32.3556 35.8652 32.2204C36.8052 32.0293 37.7453 31.8383 38.6853 31.6475C38.7774 31.6288 38.8695 31.6101 38.9644 31.5909C39.049 31.5737 39.1337 31.5565 39.2209 31.5388C39.2942 31.524 39.3676 31.5091 39.4431 31.4938C39.5109 31.4802 39.5787 31.4666 39.6486 31.4526C39.7172 31.4386 39.7858 31.4245 39.8565 31.41C40.7696 31.2481 41.7343 31.3136 42.545 31.7609C43.2552 32.2416 43.7671 32.8778 43.9933 33.6878C44.1035 34.6427 44.009 35.5006 43.41 36.2938C42.6397 37.173 41.6206 37.4362 40.5009 37.7178C40.3754 37.7499 40.25 37.7819 40.1245 37.8141C39.8538 37.8833 39.583 37.9521 39.3121 38.0207C38.8773 38.1308 38.4427 38.2416 38.0081 38.3526C37.5441 38.471 37.0801 38.5894 36.6161 38.7075C35.4427 39.0061 34.2699 39.3065 33.0973 39.6079C33.012 39.6299 32.9267 39.6518 32.8389 39.6744C32.4112 39.7843 31.9835 39.8942 31.5558 40.0042C31.1484 40.1089 30.7409 40.2137 30.3335 40.3183C30.1766 40.3586 30.0198 40.3989 29.863 40.4392C29.4793 40.5378 29.0956 40.6361 28.7117 40.7339C28.0062 40.914 27.3014 41.0958 26.5985 41.2851C26.2716 41.373 25.9443 41.4596 25.6169 41.5461C25.463 41.5871 25.3092 41.6287 25.1557 41.671C22.2781 42.4628 20.1511 41.3328 17.6554 40.0192C17.2878 39.8242 16.9239 39.6236 16.5607 39.4211C14.7079 38.3901 12.928 37.5778 10.7644 37.4643C10.7614 37.5091 10.7584 37.5538 10.7553 37.5998C10.7057 38.1646 10.5414 38.5923 10.1207 39.0058C9.70857 39.2602 9.31938 39.4762 8.82048 39.4807C8.75331 39.4814 8.68614 39.4822 8.61694 39.4829C8.54452 39.4832 8.47211 39.4836 8.39751 39.4839C8.32259 39.4843 8.24766 39.4848 8.17047 39.4852C8.01174 39.486 7.85301 39.4865 7.69427 39.4868C7.45288 39.4875 7.21155 39.4899 6.97018 39.4923C6.81571 39.4928 6.66123 39.4932 6.50676 39.4935C6.43516 39.4945 6.36357 39.4954 6.2898 39.4964C5.65254 39.4943 5.0971 39.3568 4.6276 38.9211C4.03215 38.293 4.02875 37.5763 4.03567 36.7729C4.03525 36.65 4.03467 36.5271 4.03392 36.4043C4.03244 36.0726 4.03347 35.7409 4.03505 35.4092C4.03638 35.0611 4.03566 34.713 4.03525 34.3649C4.03489 33.7806 4.03616 33.1964 4.03842 32.6121C4.041 31.9376 4.04099 31.2632 4.03961 30.5887C4.03833 29.9383 4.03887 29.2879 4.04024 28.6376C4.0408 28.3614 4.04071 28.0853 4.04012 27.8092C4.0395 27.4839 4.04048 27.1586 4.04268 26.8333C4.04323 26.7142 4.04325 26.5952 4.04266 26.4761C4.03939 25.7177 4.07318 25.1056 4.6597 24.5353C5.4067 23.8995 6.25355 23.928 7.20192 23.9364ZM5.61513 25.518C5.29791 26.0333 5.33963 26.5672 5.34253 27.1502C5.3422 27.2611 5.34177 27.3719 5.34125 27.4827C5.34015 27.7826 5.34057 28.0824 5.34134 28.3823C5.34195 28.6967 5.34138 29.0111 5.341 29.3255C5.34056 29.8534 5.34114 30.3813 5.34229 30.9092C5.3436 31.5187 5.34318 32.1283 5.34185 32.7378C5.34075 33.262 5.3406 33.7862 5.34123 34.3104C5.34161 34.6231 5.34166 34.9358 5.34086 35.2485C5.34016 35.5425 5.34065 35.8366 5.34204 36.1306C5.34236 36.2383 5.34227 36.3459 5.34174 36.4536C5.32547 37.3278 5.32547 37.3278 5.74935 38.074C6.02889 38.1992 6.30289 38.1925 6.60545 38.1914C6.67011 38.1918 6.73478 38.1922 6.80141 38.1926C6.93794 38.1931 7.07448 38.193 7.21102 38.1924C7.41942 38.1917 7.62765 38.1939 7.83604 38.1964C7.96893 38.1965 8.10182 38.1965 8.23471 38.1962C8.32775 38.1975 8.32775 38.1975 8.42268 38.1989C8.72385 38.1951 8.89667 38.1686 9.15244 38.0111C9.41934 37.748 9.40716 37.5861 9.40901 37.2261C9.4097 37.1259 9.41039 37.0257 9.4111 36.9225C9.41146 36.8109 9.41181 36.6992 9.41214 36.5875C9.41278 36.4705 9.41344 36.3534 9.41414 36.2363C9.41625 35.8511 9.41748 35.466 9.41862 35.0808C9.41906 34.9483 9.41949 34.8158 9.41992 34.6833C9.42166 34.1322 9.42317 33.5811 9.42408 33.03C9.42538 32.2398 9.42805 31.4496 9.43264 30.6593C9.43575 30.104 9.43732 29.5486 9.43775 28.9932C9.43804 28.6613 9.43901 28.3295 9.44162 27.9977C9.44403 27.6855 9.44455 27.3733 9.4436 27.0611C9.44358 26.9465 9.44425 26.832 9.44566 26.7174C9.44748 26.561 9.44658 26.4045 9.44554 26.2481C9.44581 26.1605 9.44608 26.073 9.44635 25.9828C9.38106 25.6761 9.24142 25.5613 8.99434 25.3639C8.74718 25.2455 8.48716 25.2726 8.21585 25.2711C8.15453 25.2707 8.09321 25.2703 8.03003 25.2698C7.9001 25.2691 7.77018 25.2686 7.64025 25.2683C7.44212 25.2675 7.24404 25.2651 7.04592 25.2627C6.91963 25.2622 6.79334 25.2618 6.66705 25.2615C6.60803 25.2605 6.54902 25.2596 6.48821 25.2586C6.12857 25.2601 5.88877 25.2878 5.61513 25.518ZM10.7644 27.0595C10.7644 30.0607 10.7644 33.0619 10.7644 36.1541C11.1892 36.1795 11.614 36.205 12.0517 36.2312C13.395 36.4389 14.6259 36.9324 15.8243 37.5333C15.9991 37.621 16.1744 37.7075 16.3499 37.794C17.058 38.1452 17.7551 38.5124 18.4481 38.8902C21.1188 40.462 21.1188 40.462 24.1333 40.5645C24.2097 40.5441 24.2861 40.5237 24.3648 40.5027C24.4489 40.4813 24.5329 40.4599 24.6195 40.4378C24.8993 40.3662 25.1786 40.293 25.4579 40.2197C25.6609 40.1674 25.8639 40.1152 26.0669 40.0631C26.561 39.9361 27.0548 39.8079 27.5485 39.6792C28.177 39.5155 28.8058 39.3529 29.4346 39.1904C30.1602 39.0028 30.8857 38.8149 31.611 38.6262C32.9832 38.2695 34.3565 37.9167 35.7312 37.5689C35.9824 37.5053 36.2337 37.4416 36.4849 37.3779C36.5673 37.357 36.6497 37.3361 36.7346 37.3146C36.9003 37.2726 37.066 37.2306 37.2317 37.1885C37.7189 37.0651 38.2062 36.9422 38.6937 36.8198C38.9976 36.7433 39.3015 36.6663 39.6052 36.5891C39.7467 36.5533 39.8882 36.5177 40.0298 36.4824C40.2249 36.4337 40.4197 36.3842 40.6144 36.3344C40.6705 36.3207 40.7265 36.3069 40.7843 36.2927C41.323 36.1534 41.8495 35.9632 42.2132 35.5423C42.2577 35.4924 42.3023 35.4424 42.3483 35.3909C42.6802 34.9294 42.683 34.4624 42.6255 33.919C42.4838 33.4028 42.1303 33.1034 41.66 32.84C40.8828 32.4904 39.9701 32.704 39.1666 32.8741C39.0678 32.8942 38.969 32.9142 38.8672 32.9349C38.5985 32.9896 38.3302 33.0453 38.0618 33.1013C37.7767 33.1606 37.4914 33.2187 37.206 33.2769C36.6636 33.3878 36.1213 33.4998 35.5792 33.6121C34.9144 33.7498 34.2493 33.8862 33.5843 34.0226C32.885 34.166 32.1858 34.3095 31.4868 34.4539C30.5235 34.6527 29.5602 34.8513 28.5954 35.0432C28.4858 35.065 28.4858 35.065 28.374 35.0873C28.0521 35.1514 27.7301 35.215 27.4079 35.2778C26.8605 35.3856 26.3373 35.5142 25.8099 35.6917C25.5239 35.7251 25.5239 35.7251 25.2568 35.7254C25.1252 35.7276 25.1252 35.7276 24.9909 35.7299C24.1561 35.6261 23.4522 35.2172 22.7375 34.815C22.6384 34.7599 22.5393 34.7048 22.4401 34.6499C22.1892 34.5106 21.9388 34.3705 21.6886 34.2302C21.47 34.1078 21.2509 33.9862 21.0318 33.8645C20.7147 33.6882 20.3983 33.5109 20.0824 33.3328C19.7591 33.1509 19.4338 32.9732 19.1068 32.7975C19.0249 32.7529 18.943 32.7082 18.8586 32.6622C18.703 32.5774 18.5468 32.4937 18.3898 32.4112C17.8767 32.129 17.8767 32.129 17.7139 31.8254C17.68 31.5798 17.7045 31.3846 17.7642 31.1444C18.1673 31.0156 18.4743 30.9939 18.8638 31.1573C19.1153 31.2896 19.3601 31.4295 19.6046 31.5731C19.7439 31.6525 19.8832 31.7319 20.0225 31.8112C20.1668 31.8934 20.3107 31.9763 20.4545 32.0592C20.9035 32.3173 21.3581 32.5661 21.8122 32.8159C21.9847 32.9112 22.1573 33.0065 22.3298 33.1019C22.8157 33.37 23.3018 33.6377 23.7884 33.9045C23.8583 33.9429 23.9281 33.9813 24 34.0208C24.0644 34.0561 24.1288 34.0913 24.1951 34.1276C24.2788 34.1735 24.2788 34.1735 24.3642 34.2203C24.8121 34.4579 25.1344 34.5178 25.649 34.4585C26.1843 34.3021 26.5005 34 26.7842 33.5445C26.9443 33.1758 26.9135 32.7361 26.8062 32.3555C26.4852 31.6493 25.6641 31.3143 24.9988 30.9569C24.8504 30.8772 24.7024 30.797 24.5544 30.7167C24.4004 30.6331 24.2464 30.5496 24.0923 30.4662C23.5009 30.146 22.9129 29.8202 22.3248 29.4944C21.9255 29.2732 21.526 29.0523 21.1254 28.8332C20.9844 28.756 20.8434 28.6787 20.7025 28.6014C20.5271 28.5052 20.3516 28.4093 20.176 28.3137C19.4109 27.8934 18.6569 27.4586 18.0005 26.8909C15.925 25.1927 13.0034 26.3445 10.7644 27.0595Z" fill="#FF7705"></path>
  <path d="M31.9802 5.94581C32.0832 5.9452 32.1861 5.94458 32.2922 5.94395C33.9475 5.9473 33.9475 5.9473 34.5125 6.48791C34.6886 6.69167 34.7039 6.84556 34.7161 7.10772C34.7211 7.20927 34.7211 7.20927 34.7262 7.31287C34.7294 7.38365 34.7325 7.45443 34.7357 7.52735C34.7391 7.59874 34.7426 7.67014 34.7461 7.74369C34.7546 7.92023 34.7627 8.09679 34.7705 8.27336C34.8608 8.30413 34.9511 8.3349 35.0441 8.36661C35.1651 8.40845 35.2861 8.45031 35.4072 8.49219C35.4664 8.51229 35.5255 8.5324 35.5865 8.55311C35.9518 8.68016 36.2819 8.82638 36.6149 9.02411C36.7643 9.08652 36.7643 9.08652 36.9252 9.00843C37.2094 8.82567 37.4425 8.58325 37.688 8.35262C37.9346 8.14224 38.136 8.09981 38.4511 8.08934C38.509 8.08637 38.5668 8.08339 38.6264 8.08033C39.1334 8.16507 39.5139 8.52203 39.8736 8.86519C39.9332 8.92066 39.9332 8.92066 39.9939 8.97725C40.3939 9.35158 40.7764 9.73999 41.1469 10.1434C41.2144 10.2164 41.2819 10.2894 41.3515 10.3647C41.7197 10.799 41.8195 11.0794 41.8007 11.6441C41.7275 12.2126 41.2132 12.5909 40.8186 12.9682C40.9608 13.4179 41.1485 13.8406 41.3409 14.2706C41.4627 14.5786 41.5408 14.874 41.6144 15.1963C41.7123 15.1926 41.8102 15.1889 41.911 15.1851C42.0409 15.1821 42.1709 15.1792 42.3008 15.1764C42.3651 15.1738 42.4295 15.1711 42.4957 15.1683C42.9335 15.1612 43.1779 15.2216 43.5244 15.5146C44.218 16.3769 44.0279 17.9137 43.9472 18.9612C43.9393 19.0772 43.9393 19.0772 43.9314 19.1955C43.8828 19.7365 43.7784 20.0658 43.3602 20.4333C43.1204 20.5803 42.9231 20.6172 42.6481 20.6151C42.5878 20.6149 42.5275 20.6146 42.4654 20.6144C42.4029 20.6137 42.3404 20.613 42.276 20.6123C42.2125 20.612 42.1491 20.6116 42.0837 20.6112C41.9273 20.6103 41.7709 20.6089 41.6144 20.6074C41.5955 20.6794 41.5955 20.6794 41.5761 20.753C41.4857 21.0906 41.376 21.4106 41.2302 21.7282C41.2044 21.7846 41.1785 21.8409 41.1519 21.8989C41.0993 22.0117 41.0455 22.1241 40.9907 22.2358C40.846 22.5318 40.846 22.5318 40.8597 22.8504C41.0099 23.0338 41.1698 23.1984 41.3409 23.3626C41.6724 23.6819 41.7864 23.8202 41.7985 24.2827C41.8015 24.356 41.8044 24.4294 41.8075 24.5049C41.7312 25.0457 41.3671 25.4291 41.0027 25.8095C40.9605 25.8542 40.9184 25.8988 40.8749 25.9448C40.79 26.0344 40.7048 26.1237 40.6193 26.2127C40.5143 26.3221 40.4104 26.4325 40.3067 26.5431C39.8131 27.0569 39.2281 27.6534 38.4859 27.7094C37.953 27.6732 37.6481 27.4134 37.2873 27.038C37.2177 26.9663 37.1482 26.8946 37.0765 26.8207C37.0246 26.766 36.9727 26.7113 36.9192 26.655C36.8715 26.6763 36.8238 26.6976 36.7746 26.7195C36.5562 26.8164 36.3373 26.9123 36.1184 27.0081C36.0434 27.0416 35.9683 27.0751 35.891 27.1096C35.4864 27.2858 35.1321 27.4171 34.6909 27.4507C34.6946 27.5543 34.6983 27.658 34.7021 27.7647C34.7051 27.9021 34.708 28.0395 34.7108 28.1769C34.7135 28.245 34.7162 28.3131 34.7189 28.3833C34.7258 28.83 34.6787 29.0902 34.3726 29.4401C33.452 30.1737 31.5669 29.9044 30.4732 29.7882C30.0845 29.7216 29.825 29.6171 29.5369 29.3469C29.2628 28.941 29.2585 28.5276 29.2695 28.0575C29.2702 27.9989 29.271 27.9404 29.2717 27.88C29.2736 27.7369 29.2764 27.5938 29.2795 27.4507C29.1342 27.4261 29.1342 27.4261 28.986 27.401C28.5507 27.3058 28.1684 27.1216 27.7687 26.9285C27.5585 26.8284 27.348 26.7387 27.1308 26.655C27.0429 26.747 27.0429 26.747 26.9533 26.8409C26.8749 26.9215 26.7964 27.0021 26.718 27.0827C26.6795 27.1231 26.6411 27.1635 26.6015 27.2052C26.2836 27.5295 26.0424 27.6685 25.5939 27.7193C24.8337 27.642 24.3537 27.1212 23.8313 26.6146C23.7126 26.4995 23.5927 26.3857 23.4726 26.2721C22.3076 25.1456 22.3076 25.1456 22.1869 24.4916C22.2065 23.8909 22.4611 23.5703 22.8558 23.1453C22.9918 22.9955 23.1124 22.8399 23.2313 22.6763C23.1939 22.6003 23.1565 22.5243 23.1179 22.446C22.8262 21.8439 22.5791 21.2649 22.4355 20.6074C22.3434 20.6101 22.2513 20.6129 22.1564 20.6158C22.0339 20.618 21.9114 20.6202 21.7889 20.6223C21.7284 20.6243 21.6679 20.6263 21.6055 20.6283C21.2105 20.6335 20.9488 20.585 20.6052 20.3686C19.9794 19.7429 20.0454 18.7536 20.0332 17.9267C20.0351 16.1599 20.0351 16.1599 20.446 15.5942C20.7476 15.3294 20.9313 15.1857 21.332 15.1885C21.3961 15.1888 21.4602 15.1891 21.5263 15.1893C21.6268 15.1903 21.6268 15.1903 21.7293 15.1913C21.7969 15.1917 21.8645 15.1921 21.9341 15.1924C22.1013 15.1934 22.2684 15.1948 22.4355 15.1963C22.452 15.1011 22.4684 15.0059 22.4853 14.9079C22.6042 14.365 22.8475 13.8715 23.0722 13.3661C23.126 13.2338 23.1793 13.1013 23.2313 12.9682C23.17 12.9106 23.1087 12.8529 23.0455 12.7935C22.9648 12.7159 22.8842 12.6382 22.8036 12.5604C22.7632 12.5227 22.7228 12.4849 22.6811 12.446C22.4155 12.1874 22.2785 11.9771 22.1968 11.6155C22.1968 10.6112 23.0493 9.88432 23.7146 9.21582C24.9044 8.07764 24.9044 8.07764 25.7568 8.09276C26.26 8.15262 26.5751 8.59025 26.8899 8.94881C27.0434 9.08994 27.0434 9.08994 27.2433 9.05946C27.461 8.98549 27.6644 8.89961 27.8719 8.80054C28.8346 8.35293 28.8346 8.35293 29.2795 8.35293C29.2767 8.26749 29.2739 8.18204 29.2711 8.09401C29.2688 7.97972 29.2667 7.86544 29.2645 7.75115C29.2625 7.69509 29.2605 7.63904 29.2585 7.58128C29.2513 7.0601 29.3624 6.69375 29.7221 6.29892C30.3376 5.84084 31.2571 5.9415 31.9802 5.94581ZM30.6323 7.39804C30.6312 7.44982 30.63 7.5016 30.6288 7.55496C30.6229 7.7895 30.6152 8.02395 30.6075 8.25844C30.6057 8.33993 30.6039 8.42143 30.602 8.5054C30.5978 8.62272 30.5978 8.62272 30.5935 8.74241C30.5914 8.8145 30.5893 8.88659 30.5872 8.96087C30.5459 9.18617 30.4972 9.25293 30.314 9.3874C30.1512 9.45679 30.1512 9.45679 29.9643 9.51298C29.8608 9.54526 29.8608 9.54526 29.7552 9.57819C29.6819 9.60057 29.6086 9.62295 29.5331 9.64601C28.7752 9.88691 28.0449 10.1646 27.3748 10.6018C27.1028 10.699 26.9297 10.6587 26.6533 10.581C26.4454 10.4282 26.2753 10.2485 26.1012 10.0588C26.0544 10.0098 26.0076 9.96084 25.9593 9.91038C25.8447 9.79016 25.7316 9.66849 25.6188 9.54655C24.8211 9.91101 24.0914 10.7309 23.6292 11.4563C23.703 11.5292 23.7768 11.602 23.8528 11.677C23.949 11.7725 24.0453 11.8681 24.1415 11.9636C24.1902 12.0116 24.2389 12.0596 24.2891 12.1091C24.3355 12.1552 24.3819 12.2014 24.4297 12.249C24.4726 12.2915 24.5156 12.334 24.5598 12.3778C24.7267 12.5592 24.7438 12.6546 24.7658 12.9061C24.7398 13.2554 24.6458 13.4263 24.4648 13.7242C24.1151 14.3258 23.8993 14.9569 23.6922 15.6195C23.6677 15.6953 23.6433 15.771 23.6181 15.8491C23.5971 15.9169 23.5762 15.9847 23.5546 16.0546C23.451 16.2705 23.36 16.3527 23.1518 16.4695C22.9622 16.5039 22.9622 16.5039 22.7551 16.5102C22.6807 16.513 22.6064 16.5159 22.5297 16.5188C22.4527 16.5206 22.3756 16.5224 22.2963 16.5242C22.218 16.5269 22.1397 16.5296 22.0591 16.5324C21.8663 16.539 21.6735 16.5445 21.4806 16.5491C21.3832 17.4621 21.3832 18.3416 21.4806 19.2546C21.5576 19.2557 21.5576 19.2557 21.6362 19.2569C21.8696 19.2611 22.1028 19.2678 22.3361 19.2745C22.4169 19.2756 22.4977 19.2768 22.581 19.2779C23.1709 19.2973 23.1709 19.2973 23.4353 19.4585C23.5875 19.7167 23.6586 19.9808 23.7287 20.2692C23.9213 20.9922 24.2313 21.6218 24.5842 22.2784C24.7529 22.5933 24.798 22.7896 24.7434 23.1537C24.5468 23.4466 24.2982 23.6868 24.0402 23.9255C23.924 24.0338 23.8156 24.1503 23.7088 24.2678C23.7153 24.6001 23.9655 24.8109 24.1813 25.0387C24.2394 25.101 24.2394 25.101 24.2986 25.1646C24.6648 25.5526 25.0549 25.9095 25.4596 26.2571C25.7812 26.1299 25.9911 25.9001 26.2256 25.6554C26.7097 25.1541 26.7097 25.1541 27.0273 25.1201C27.3471 25.1481 27.5627 25.2705 27.8321 25.4316C28.4247 25.7674 29.032 25.9899 29.6767 26.2036C30.458 26.4655 30.458 26.4655 30.5528 26.655C30.5649 26.7875 30.5726 26.9205 30.5779 27.0535C30.5813 27.132 30.5846 27.2104 30.588 27.2913C30.5912 27.3735 30.5943 27.4556 30.5975 27.5403C30.601 27.623 30.6044 27.7058 30.6079 27.7911C30.6164 27.9959 30.6245 28.2008 30.6323 28.4056C31.1005 28.4868 31.5554 28.4972 32.03 28.4952C32.1032 28.4955 32.1764 28.4958 32.2518 28.4961C32.6229 28.4956 32.9731 28.4822 33.3381 28.4056C33.3439 28.2489 33.3439 28.2489 33.3499 28.0889C33.3559 27.9508 33.3619 27.8127 33.3679 27.6746C33.3704 27.6058 33.3728 27.537 33.3754 27.4661C33.409 26.734 33.409 26.734 33.5768 26.4959C33.7926 26.3981 33.9887 26.3254 34.2135 26.2571C34.3325 26.2158 34.4514 26.174 34.57 26.1316C34.6614 26.0993 34.6614 26.0993 34.7546 26.0663C35.3877 25.8404 35.9642 25.5953 36.5403 25.2454C36.798 25.1254 36.9564 25.1059 37.2375 25.1431C37.4038 25.2454 37.4038 25.2454 37.5509 25.3868C37.6307 25.4622 37.6307 25.4622 37.7122 25.5391C37.7656 25.5922 37.8191 25.6454 37.8742 25.7001C37.9284 25.7533 37.9827 25.8064 38.0386 25.8611C38.1708 25.9919 38.3016 26.1238 38.4312 26.2571C38.7553 26.0779 39.0257 25.8607 39.2967 25.6106C39.3383 25.5724 39.3799 25.5342 39.4228 25.4949C39.7705 25.1692 40.0674 24.8173 40.3412 24.4269C40.1999 24.0618 39.9028 23.8367 39.61 23.5919C39.3713 23.3718 39.2752 23.2018 39.2597 22.8849C39.2846 22.4964 39.4292 22.2267 39.6299 21.9004C39.9757 21.3012 40.2 20.695 40.3971 20.0329C40.4282 19.9309 40.4282 19.9309 40.4599 19.8269C40.4774 19.7663 40.495 19.7057 40.513 19.6433C40.5799 19.4933 40.5799 19.4933 40.8186 19.3342C40.9979 19.3101 40.9979 19.3101 41.2047 19.304C41.279 19.3013 41.3533 19.2986 41.4298 19.2958C41.5071 19.2937 41.5845 19.2916 41.6642 19.2894C41.8178 19.2847 41.9713 19.2796 42.1249 19.2742C42.193 19.2723 42.261 19.2704 42.3312 19.2684C42.4897 19.2717 42.4897 19.2717 42.5694 19.175C42.5774 18.9869 42.5805 18.8012 42.58 18.613C42.5801 18.5568 42.5801 18.5006 42.5802 18.4427C42.5803 18.3236 42.5801 18.2045 42.5798 18.0855C42.5794 17.9026 42.5798 17.7198 42.5803 17.5369C42.5802 17.4215 42.5801 17.3061 42.58 17.1906C42.5802 17.1081 42.5802 17.1081 42.5805 17.0239C42.6014 16.7641 42.6014 16.7641 42.4898 16.5491C42.3752 16.5385 42.2601 16.5329 42.1451 16.5295C42.075 16.5269 42.0049 16.5243 41.9326 16.5216C41.7844 16.5167 41.6363 16.5122 41.4881 16.5079C41.4177 16.5052 41.3472 16.5025 41.2747 16.4997C41.2102 16.4977 41.1457 16.4957 41.0792 16.4936C40.8754 16.4665 40.7497 16.4269 40.5799 16.3104C40.5027 16.1591 40.5027 16.1591 40.4493 15.974C40.4285 15.9056 40.4076 15.8371 40.3861 15.7666C40.3647 15.6933 40.3433 15.62 40.3213 15.5445C39.9741 14.3331 39.9741 14.3331 39.3066 13.2865C39.246 12.9693 39.2331 12.685 39.4114 12.4071C39.5553 12.2513 39.705 12.1094 39.8637 11.9686C39.9168 11.9187 39.97 11.8688 40.0247 11.8174C40.1552 11.6952 40.2871 11.5751 40.4207 11.4563C40.133 11.0407 39.8175 10.6787 39.4608 10.3224C39.4004 10.2619 39.4004 10.2619 39.3387 10.2002C39.1008 9.96568 38.8549 9.7504 38.5904 9.54655C38.2845 9.67117 38.1002 9.86651 37.8742 10.1036C37.4151 10.5849 37.4151 10.5849 37.1579 10.6606C36.6919 10.6439 36.3841 10.4819 35.9941 10.2528C35.3921 9.91244 34.7818 9.69057 34.1164 9.50454C33.6118 9.35467 33.6118 9.35467 33.4528 9.14153C33.4016 8.80417 33.3801 8.46995 33.3679 8.12913C33.3648 8.05881 33.3618 7.9885 33.3586 7.91605C33.3511 7.74341 33.3445 7.57073 33.3381 7.39804C33.0794 7.31184 32.8892 7.30818 32.6172 7.3079C32.4751 7.30774 32.4751 7.30774 32.3301 7.30759C32.2311 7.3079 32.132 7.3082 32.03 7.30852C31.9312 7.30821 31.8325 7.3079 31.7308 7.30759C31.5885 7.30774 31.5885 7.30774 31.4434 7.3079C31.3565 7.30799 31.2697 7.30808 31.1802 7.30817C30.9832 7.31701 30.8201 7.34082 30.6323 7.39804Z" fill="#FF7705"></path>
  <path d="M31.2836 10.9374C32.9424 10.88 34.6238 11.4641 35.8534 12.581C37.1388 13.7982 37.9237 15.283 38.0304 17.0694C38.0793 18.9597 37.4965 20.5707 36.2464 21.9989C35.2574 23.0402 33.7763 23.8312 32.3289 23.9294C30.3543 23.9729 28.6493 23.6861 27.1469 22.3046C27.0901 22.2534 27.0334 22.2021 26.9749 22.1492C25.8467 21.0784 25.095 19.5311 25.0353 17.9694C24.9964 16.0296 25.4915 14.3587 26.8396 12.9127C28.0298 11.6812 29.5917 11.0503 31.2836 10.9374ZM27.6499 14.0556C26.6916 15.1766 26.3198 16.5661 26.4056 18.0177C26.5334 19.3698 27.2457 20.6044 28.2786 21.4742C28.6072 21.7134 28.959 21.9028 29.3197 22.0882C29.3722 22.1154 29.4247 22.1427 29.4788 22.1707C30.6106 22.7276 32.0753 22.7253 33.2574 22.3254C34.5903 21.779 35.6275 20.8705 36.2357 19.5456C36.7967 18.0987 36.7955 16.8096 36.2178 15.3617C35.6274 14.0847 34.6357 13.1759 33.3436 12.6414C31.2488 11.9334 29.1945 12.4808 27.6499 14.0556Z" fill="#FF7705"></path>
  <path d="M34.5972 14.9668C34.8417 15.142 34.8417 15.142 35.0133 15.3914C35.05 15.7295 35.0517 15.9203 34.8787 16.2152C34.8167 16.2865 34.7547 16.3579 34.6908 16.4314C34.5881 16.5516 34.5881 16.5516 34.4834 16.6741C34.4111 16.7551 34.3387 16.8361 34.2642 16.9196C34.1954 16.997 34.1265 17.0745 34.0555 17.1544C33.9164 17.31 33.7769 17.4654 33.6371 17.6203C33.438 17.8466 33.2494 18.0783 33.0626 18.3151C32.7813 18.6701 32.4902 19.0128 32.1887 19.3498C32.1493 19.3941 32.1099 19.4384 32.0694 19.484C31.8249 19.7547 31.7013 19.8747 31.3407 19.9335C30.869 19.8714 30.6802 19.6333 30.3524 19.2968C30.2539 19.1993 30.1554 19.1019 30.0568 19.0046C29.9506 18.8987 29.8445 18.7927 29.7385 18.6866C29.687 18.6351 29.6354 18.5837 29.5823 18.5306C29.5336 18.4811 29.485 18.4315 29.4349 18.3804C29.3912 18.3362 29.3474 18.292 29.3024 18.2464C29.079 17.9786 29.0179 17.8218 29.0363 17.4661C29.1039 17.1743 29.1039 17.1743 29.1975 17.0151C29.4481 16.8617 29.6453 16.8397 29.9362 16.8347C30.4714 17.0894 30.863 17.5955 31.2679 18.0233C31.9836 17.301 32.6326 16.5286 33.2655 15.731C33.946 14.8867 33.946 14.8867 34.5972 14.9668Z" fill="#FF7705"></path>
  <path d="M8.43747 25.9699C8.72781 26.129 8.90801 26.3015 9.01303 26.6157C9.05225 26.9523 9.04529 27.1972 8.89162 27.5037C8.68247 27.7405 8.53402 27.8821 8.21376 27.93C7.82215 27.9504 7.58897 27.8862 7.28635 27.6203C7.04657 27.3493 7.02591 27.0739 7.03482 26.7242C7.0944 26.4233 7.27213 26.236 7.50218 26.0416C7.78978 25.8982 8.12564 25.9237 8.43747 25.9699Z" fill="#FF7705"></path>
</svg>
