<?xml version="1.0" encoding="UTF-8"?>
<svg xmlns="http://www.w3.org/2000/svg" width="48" height="48" viewBox="0 0 48 48" fill="none">
  <path d="M7.21948 16.8824C7.84542 17.2282 8.16316 17.7525 8.52773 18.3519C8.65633 18.5629 8.78645 18.773 8.91666 18.9831C9.36752 19.7118 9.81497 20.4424 10.2581 21.1758C10.2885 21.2259 10.3188 21.2761 10.3501 21.3278C10.4977 21.5719 10.6452 21.8162 10.7921 22.0608C10.8451 22.1484 10.898 22.236 10.9525 22.3263C10.9993 22.404 11.046 22.4818 11.0942 22.5619C11.2076 22.7526 11.2076 22.7526 11.3697 22.9037C11.4225 22.8787 11.4752 22.8537 11.5296 22.8279C12.0862 22.634 12.8082 22.6542 13.348 22.894C13.787 23.152 14.0943 23.5243 14.4102 23.9172C14.4586 23.9766 14.5071 24.036 14.557 24.0972C14.6573 24.2216 14.7568 24.3466 14.8557 24.4721C15.0765 24.7506 15.3013 25.0257 15.526 25.301C15.8531 25.7025 16.1767 26.1064 16.4957 26.5143C16.5998 26.6471 16.7041 26.7798 16.8083 26.9125C16.8987 27.0276 16.9886 27.1431 17.0785 27.2586C17.8916 28.2815 18.8097 29.0836 19.8675 29.8423C22.8825 32.0165 22.8825 32.0165 23.7972 33.6267C23.8587 33.7216 23.8587 33.7216 23.9215 33.8183C23.9729 33.8183 24.0244 33.8183 24.0774 33.8183C24.1836 33.6594 24.282 33.5001 24.3795 33.3359C25.3926 31.7031 27.0035 30.6247 28.5404 29.528C29.6468 28.7303 30.5525 27.7977 31.3731 26.7118C31.5782 26.4449 31.7921 26.1852 32.0051 25.9247C32.0915 25.8187 32.1779 25.7128 32.2642 25.6068C32.3046 25.5573 32.3449 25.5078 32.3865 25.4568C32.5283 25.2822 32.6689 25.1066 32.809 24.9307C32.8562 24.8718 32.9033 24.8129 32.9519 24.7522C33.0478 24.6323 33.1436 24.5123 33.2392 24.3921C33.3731 24.2237 33.5077 24.0558 33.6423 23.888C33.6849 23.8341 33.7276 23.7802 33.7715 23.7247C34.123 23.288 34.5031 22.8766 35.0699 22.7478C35.6428 22.7071 36.166 22.6944 36.7071 22.9037C36.7698 22.7955 36.7698 22.7955 36.8338 22.6851C37.2945 21.894 37.7701 21.1127 38.2517 20.3343C38.5165 19.906 38.7796 19.477 39.0377 19.0446C39.0859 18.9642 39.1342 18.8838 39.1838 18.8009C39.274 18.6501 39.3638 18.4991 39.4529 18.3477C39.7838 17.796 40.1451 17.2041 40.7367 16.9056C40.7933 16.8759 40.8499 16.8463 40.9082 16.8157C41.4925 16.5641 42.1882 16.5895 42.7777 16.8145C43.294 17.0821 43.6345 17.4727 43.8796 17.9922C44.2189 19.116 43.7788 20.0024 43.3174 21.0157C43.0273 21.6551 42.7592 22.3039 42.4879 22.9514C42.3283 23.3317 42.1676 23.7116 42.007 24.0914C41.9747 24.1677 41.9424 24.244 41.9092 24.3226C38.7813 31.7142 38.7813 31.7142 37.4867 33.2726C37.4435 33.3267 37.4003 33.3809 37.3558 33.4367C37.1192 33.7263 36.8569 33.9652 36.5722 34.2069C36.3616 34.3939 36.164 34.5923 35.9665 34.7928C35.6829 35.0798 35.3938 35.3544 35.087 35.6166C34.8144 35.8541 34.5506 36.1011 34.2858 36.3473C33.9533 36.656 33.6144 36.9567 33.271 37.2535C33.124 37.4014 33.0448 37.5251 32.965 37.7163C33.0167 37.7118 33.0685 37.7073 33.1218 37.7026C33.1906 37.6991 33.2595 37.6956 33.3304 37.692C33.3983 37.6875 33.4661 37.6829 33.536 37.6783C33.8383 37.7335 33.942 37.871 34.1344 38.1062C34.1839 38.3576 34.1839 38.3576 34.1848 38.6452C34.1859 38.7242 34.1859 38.7242 34.1869 38.8048C34.1886 38.978 34.1875 39.1511 34.1862 39.3243C34.1864 39.4452 34.1868 39.566 34.1873 39.6869C34.1879 39.9399 34.187 40.1928 34.1852 40.4458C34.183 40.7695 34.1843 41.0932 34.1866 41.417C34.188 41.6665 34.1876 41.9159 34.1866 42.1654C34.1863 42.2848 34.1866 42.4041 34.1875 42.5235C34.1885 42.6905 34.187 42.8574 34.1848 43.0244C34.1845 43.1193 34.1842 43.2142 34.1839 43.312C34.1174 43.6497 34.0188 43.7457 33.7446 43.9532C33.4833 44.0106 33.227 44.0059 32.9604 44.0027C32.8808 44.0034 32.8011 44.004 32.719 44.0046C32.4518 44.0061 32.1846 44.0049 31.9174 44.0037C31.7259 44.0042 31.5345 44.0049 31.343 44.0058C30.8768 44.0074 30.4106 44.0071 29.9444 44.006C29.5655 44.0051 29.1866 44.005 28.8077 44.0054C28.7537 44.0055 28.6998 44.0055 28.6443 44.0056C28.5347 44.0057 28.4252 44.0058 28.3156 44.006C27.2883 44.0071 26.2611 44.0058 25.2338 44.0037C24.3523 44.002 23.4709 44.0023 22.5894 44.0041C21.5658 44.0062 20.5422 44.007 19.5186 44.0058C19.4095 44.0057 19.3003 44.0055 19.1912 44.0054C19.1375 44.0054 19.0838 44.0053 19.0284 44.0052C18.65 44.0049 18.2715 44.0055 17.8931 44.0064C17.3837 44.0076 16.8744 44.0067 16.365 44.0045C16.1779 44.004 15.9907 44.0041 15.8036 44.005C15.5485 44.006 15.2935 44.0047 15.0384 44.0027C14.964 44.0036 14.8896 44.0045 14.8129 44.0054C14.4591 44.0001 14.3031 43.9902 14.0134 43.771C13.8234 43.5062 13.8151 43.3488 13.814 43.0244C13.8133 42.9718 13.8127 42.9191 13.812 42.8648C13.8102 42.6916 13.8114 42.5185 13.8127 42.3453C13.8124 42.2244 13.812 42.1036 13.8116 41.9827C13.811 41.7297 13.8118 41.4768 13.8136 41.2238C13.8159 40.9001 13.8146 40.5764 13.8123 40.2526C13.8108 40.0031 13.8113 39.7537 13.8123 39.5042C13.8126 39.3848 13.8122 39.2655 13.8113 39.1461C13.8103 38.9791 13.8119 38.8122 13.814 38.6452C13.8145 38.5028 13.8145 38.5028 13.815 38.3576C13.8784 38.0356 14.0011 37.9186 14.2543 37.7163C14.4629 37.6783 14.4629 37.6783 14.6684 37.692C14.7717 37.6973 14.7717 37.6973 14.877 37.7026C14.9288 37.7072 14.9806 37.7117 15.0339 37.7163C14.8288 37.2997 14.4981 37.0221 14.1617 36.7126C14.1048 36.6594 14.0478 36.6063 13.9892 36.5515C13.6636 36.2487 13.3325 35.953 12.997 35.6612C12.7778 35.4694 12.563 35.2731 12.3491 35.0754C12.3058 35.0355 12.2626 34.9955 12.218 34.9543C11.8479 34.6108 11.4899 34.2563 11.1358 33.8962C11.0715 33.8335 11.0072 33.7708 10.9409 33.7062C10.8766 33.6403 10.8123 33.5744 10.746 33.5064C10.6941 33.4533 10.6421 33.4001 10.5886 33.3453C10.1165 32.8444 9.75712 32.3119 9.42067 31.7133C9.39332 31.6656 9.36597 31.6178 9.3378 31.5686C8.04056 29.2836 7.10806 26.7683 6.09403 24.3501C5.91748 23.9291 5.74039 23.5083 5.56311 23.0876C5.53517 23.0214 5.50724 22.9551 5.47846 22.8867C5.42361 22.7566 5.36877 22.6264 5.31392 22.4963C5.23859 22.3175 5.1633 22.1387 5.08803 21.9598C5.05276 21.8761 5.05276 21.8761 5.01677 21.7906C4.97047 21.6805 4.92429 21.5704 4.87823 21.4602C4.7526 21.16 4.62429 20.8613 4.49284 20.5636C4.46417 20.4979 4.43551 20.4321 4.40598 20.3643C4.35101 20.2383 4.29533 20.1126 4.23879 19.9872C3.95355 19.3286 3.91401 18.6532 4.12418 17.958C4.39933 17.3679 4.84362 16.976 5.44464 16.7448C6.03423 16.5482 6.66249 16.6234 7.21948 16.8824ZM5.81009 18.4258C5.63675 18.6762 5.63264 18.8695 5.67853 19.1616C5.77488 19.4456 5.90212 19.7137 6.02935 19.985C6.10939 20.1612 6.18916 20.3376 6.26872 20.514C6.30083 20.5849 6.30083 20.5849 6.3336 20.6573C6.57751 21.1979 6.80597 21.7449 7.03466 22.2922C7.52494 23.4649 8.02095 24.6352 8.52069 25.804C8.58973 25.9655 8.65868 26.1271 8.72754 26.2887C9.09965 27.1618 9.47927 28.0309 9.87412 28.8939C9.92585 29.0071 9.92585 29.0071 9.97861 29.1225C10.6742 30.633 11.421 31.8885 12.622 33.063C12.6962 33.1367 12.7703 33.2105 12.8444 33.2843C13.2061 33.642 13.5726 33.9897 13.9585 34.3212C14.1757 34.5088 14.3853 34.7044 14.5953 34.9C15.1874 35.4487 15.7837 35.9917 16.3985 36.515C16.7533 36.8494 16.6239 37.1499 16.6711 37.7163C18.8322 37.7163 20.9932 37.7163 23.2198 37.7163C23.2198 35.9569 22.6008 34.3863 21.3713 33.1285C20.9995 32.7635 20.5917 32.4491 20.1745 32.1383C20.0117 32.0164 19.8506 31.8927 19.6896 31.7685C19.2098 31.3985 18.7292 31.0313 18.2352 30.6803C17.8785 30.4239 17.5548 30.1415 17.2326 29.8432C17.0543 29.6761 17.0543 29.6761 16.8221 29.5012C16.4675 29.1843 16.1869 28.8104 15.8915 28.439C15.7812 28.304 15.6708 28.1692 15.5601 28.0345C15.4366 27.8835 15.3132 27.7325 15.1898 27.5814C15.1516 27.5346 15.1134 27.4879 15.074 27.4397C14.6207 26.8847 14.1697 26.3282 13.728 25.7639C13.6757 25.6976 13.6757 25.6976 13.6223 25.6299C13.4541 25.4166 13.2881 25.2021 13.126 24.984C13.0658 24.9053 13.0056 24.8266 12.9435 24.7455C12.8916 24.6758 12.8396 24.6061 12.7861 24.5342C12.6241 24.3633 12.6241 24.3633 12.3774 24.3527C12.1349 24.3702 12.1349 24.3702 11.9154 24.5409C11.8562 25.0066 11.9923 25.3583 12.1688 25.7785C12.1961 25.8451 12.2235 25.9117 12.2516 25.9803C12.8086 27.3124 13.4264 28.6707 14.1837 29.9032C14.3458 30.1704 14.4508 30.3651 14.4346 30.6803C14.4317 30.7666 14.4317 30.7666 14.4288 30.8545C14.4102 31.0117 14.4102 31.0117 14.3322 31.2456C14.1903 31.3107 14.1903 31.3107 14.0106 31.3528C13.9526 31.3678 13.8945 31.3829 13.8346 31.3984C13.5347 31.4029 13.3211 31.3484 13.0848 31.1676C12.8757 30.8931 12.7188 30.5955 12.5586 30.2905C12.5115 30.2034 12.4644 30.1162 12.4159 30.0264C10.4433 26.3392 10.4433 26.3392 10.3806 25.0087C10.3109 24.1678 9.79859 23.5243 9.34568 22.8359C9.07619 22.422 8.82062 21.9997 8.5631 21.5784C8.45867 21.4091 8.35422 21.2399 8.24973 21.0707C8.04141 20.7324 7.83553 20.3927 7.63152 20.0517C7.55788 19.9291 7.55788 19.9291 7.48275 19.804C7.3903 19.6498 7.2983 19.4953 7.20684 19.3405C6.98685 18.9742 6.77816 18.6662 6.45814 18.382C6.43241 18.3562 6.40669 18.3305 6.38018 18.304C6.12996 18.2702 6.02156 18.2829 5.81009 18.4258ZM41.0327 18.9792C40.9611 19.0932 40.8901 19.2076 40.8196 19.3224C40.78 19.3859 40.7405 19.4493 40.6997 19.5148C40.1993 20.3209 39.7089 21.1333 39.2178 21.9451C38.929 22.4226 38.6392 22.8996 38.3492 23.3764C38.3036 23.4514 38.2579 23.5265 38.211 23.6039C38.169 23.6728 38.1271 23.7417 38.0839 23.8128C38.0474 23.8728 38.011 23.9328 37.9734 23.9946C37.8918 24.1264 37.8066 24.256 37.7206 24.385C37.704 24.5568 37.6918 24.7291 37.6816 24.9015C37.489 26.8491 36.2377 28.9269 35.2648 30.5878C35.2274 30.6527 35.19 30.7177 35.1514 30.7846C34.8921 31.2124 34.8921 31.2124 34.632 31.3662C34.2934 31.4305 33.9887 31.3529 33.6666 31.2456C33.5364 30.8549 33.513 30.5001 33.6677 30.1115C33.7827 29.8909 33.9055 29.6765 34.0321 29.4622C34.1255 29.297 34.2184 29.1315 34.311 28.9658C34.3591 28.8799 34.4072 28.794 34.4567 28.7055C35.6417 26.7284 35.6417 26.7284 36.0834 24.5409C35.8084 24.3576 35.7055 24.3358 35.3818 24.385C35.2216 24.5295 35.1062 24.6547 34.9773 24.8235C34.9407 24.8692 34.904 24.9149 34.8662 24.962C34.7507 25.1064 34.6374 25.2523 34.5242 25.3985C34.4541 25.4874 34.384 25.5762 34.3138 25.6649C34.1721 25.8443 34.0313 26.0243 33.8908 26.2046C33.5289 26.6673 33.1558 27.121 32.7844 27.5761C32.6501 27.741 32.5163 27.9063 32.3827 28.0717C32.1709 28.3338 31.9583 28.5952 31.7448 28.8559C31.6577 28.9625 31.5713 29.0696 31.4849 29.1769C31.1196 29.6162 30.6852 29.9597 30.2363 30.31C30.124 30.3984 30.0116 30.4869 29.8992 30.5753C29.3285 31.0228 28.7542 31.4627 28.1655 31.8863C26.3908 33.1832 25.2112 34.5693 24.8034 36.7565C24.7733 37.0751 24.779 37.3963 24.779 37.7163C26.9401 37.7163 29.1012 37.7163 31.3278 37.7163C31.3535 37.4076 31.3792 37.0989 31.4057 36.7808C31.621 36.4351 31.9221 36.1942 32.2298 35.9318C32.4633 35.7291 32.6897 35.5196 32.9162 35.3093C33.2181 35.0295 33.521 34.7509 33.8274 34.4761C33.89 34.4198 33.9526 34.3635 34.0171 34.3055C34.1529 34.1836 34.2887 34.0618 34.4246 33.9401C34.668 33.72 34.9087 33.4973 35.1479 33.2726C35.1976 33.226 35.2474 33.1794 35.2986 33.1314C36.0374 32.4344 36.6762 31.7436 37.1749 30.8558C37.2069 30.799 37.2388 30.7422 37.2718 30.6838C38.1625 29.0652 38.8329 27.3242 39.5521 25.6256C39.7233 25.2215 39.8957 24.818 40.0692 24.4148C40.0937 24.358 40.1181 24.3011 40.1433 24.2426C40.1911 24.1314 40.239 24.0202 40.2868 23.9091C40.7866 22.7472 41.2782 21.5818 41.7668 20.4151C41.7922 20.3544 41.8177 20.2937 41.8439 20.2312C41.8915 20.1178 41.939 20.0043 41.9864 19.8908C42.0708 19.6898 42.155 19.4914 42.256 19.2981C42.3658 19.065 42.3473 18.8678 42.3203 18.6158C42.1685 18.3965 42.0783 18.3201 41.8185 18.2601C41.4423 18.3427 41.2357 18.6704 41.0327 18.9792ZM15.4237 39.2756C15.4237 40.3047 15.4237 41.3338 15.4237 42.394C17.9964 42.394 20.5691 42.394 23.2198 42.394C23.2198 41.3649 23.2198 40.3358 23.2198 39.2756C20.6471 39.2756 18.0744 39.2756 15.4237 39.2756ZM24.779 39.2756C24.779 40.3047 24.779 41.3338 24.779 42.394C27.3518 42.394 29.9245 42.394 32.5752 42.394C32.5752 41.3649 32.5752 40.3358 32.5752 39.2756C30.0024 39.2756 27.4297 39.2756 24.779 39.2756Z" fill="#FF7705"></path>
  <path d="M30.6012 6.39877C30.7945 6.57003 30.9836 6.74487 31.1716 6.92196C31.2233 6.9687 31.2751 7.01543 31.3284 7.06357C32.6502 8.30493 33.4118 9.96104 33.9002 11.6776C33.9285 11.7745 33.9567 11.8714 33.9858 11.9712C34.5795 14.4784 34.0439 17.3066 32.7354 19.4979C32.3134 20.1715 31.7932 20.7677 31.2495 21.3448C31.2028 21.3966 31.1561 21.4483 31.1079 21.5016C29.8666 22.8234 28.2105 23.585 26.4939 24.0734C26.397 24.1017 26.3001 24.1299 26.2003 24.159C23.6931 24.7527 20.8649 24.2171 18.6736 22.9086C18 22.4866 17.4038 21.9664 16.8267 21.4228C16.7749 21.376 16.7232 21.3293 16.6699 21.2811C15.3481 20.0398 14.5865 18.3837 14.0981 16.6671C14.0698 16.5702 14.0416 16.4734 14.0125 16.3735C13.4188 13.8663 13.9544 11.0382 15.2629 8.84686C15.6849 8.17322 16.2051 7.57699 16.7487 6.99993C16.7955 6.94817 16.8422 6.89641 16.8903 6.84309C18.1317 5.5213 19.7878 4.75969 21.5044 4.27128C21.6013 4.24304 21.6981 4.2148 21.7979 4.18571C24.8646 3.45956 28.2337 4.37932 30.6012 6.39877ZM18.6198 7.54565C18.5572 7.59912 18.4946 7.65258 18.4301 7.70767C17.6382 8.39708 17.0303 9.1242 16.5149 10.0404C16.4509 10.1536 16.4509 10.1536 16.3857 10.2691C15.3974 12.1273 15.1479 14.494 15.7635 16.5106C15.7799 16.5623 15.7963 16.6139 15.8132 16.6671C15.8376 16.7465 15.8376 16.7465 15.8626 16.8276C16.2629 18.0945 16.9516 19.1213 17.8402 20.0974C17.8846 20.1483 17.929 20.1991 17.9748 20.2515C19.4651 21.8641 21.7175 22.6574 23.8651 22.7451C24.8467 22.759 25.7956 22.5799 26.7278 22.2803C26.8547 22.2396 26.8547 22.2396 26.9842 22.1981C28.1168 21.7985 29.0437 21.1329 29.9242 20.3313C29.975 20.2869 30.0259 20.2425 30.0783 20.1967C31.4639 18.9161 32.3847 16.881 32.5143 15.0128C32.5528 13.8696 32.5341 12.7731 32.1851 11.6776C32.1568 11.5888 32.1286 11.4999 32.0995 11.4084C31.3282 9.24357 29.7626 7.43987 27.6883 6.43236C24.776 5.09991 21.0698 5.34411 18.6198 7.54565Z" fill="#FF7705"></path>
  <path d="M22.708 8.66316C22.8103 8.66279 22.9127 8.66241 23.0181 8.66203C23.2344 8.66146 23.4506 8.66229 23.6669 8.66411C23.9435 8.66633 24.22 8.66505 24.4966 8.66272C24.7612 8.66097 25.0258 8.6622 25.2905 8.66316C25.3895 8.66237 25.4886 8.66158 25.5907 8.66077C26.2669 8.66976 26.2669 8.66976 26.5961 8.87871C26.7594 9.15871 26.7728 9.33114 26.7659 9.65443C26.7654 9.70579 26.7648 9.75715 26.7643 9.81007C26.7621 9.97298 26.7572 10.1357 26.7522 10.2985C26.7503 10.4094 26.7485 10.5203 26.7469 10.6312C26.7426 10.9021 26.7359 11.1728 26.7279 11.4436C26.8311 11.4405 26.8311 11.4405 26.9364 11.4374C27.1928 11.4307 27.4492 11.4259 27.7057 11.4222C27.8165 11.4202 27.9273 11.4176 28.038 11.4142C28.1977 11.4094 28.3573 11.4072 28.517 11.4055C28.613 11.4035 28.7089 11.4014 28.8078 11.3993C29.0667 11.4436 29.0667 11.4436 29.2927 11.5754C29.5547 11.9881 29.5121 12.4021 29.5083 12.881C29.5087 12.9833 29.509 13.0857 29.5094 13.1911C29.51 13.4074 29.5092 13.6236 29.5073 13.8399C29.5051 14.1165 29.5064 14.393 29.5087 14.6696C29.5105 14.9342 29.5093 15.1988 29.5083 15.4635C29.5091 15.5625 29.5099 15.6616 29.5107 15.7637C29.5017 16.4399 29.5017 16.4399 29.2927 16.7691C29.0127 16.9323 28.8403 16.9458 28.517 16.9389C28.44 16.9381 28.44 16.9381 28.3614 16.9373C28.1985 16.9351 28.0358 16.9302 27.8729 16.9252C27.762 16.9233 27.6511 16.9215 27.5402 16.9199C27.2694 16.9156 26.9986 16.9089 26.7279 16.9009C26.7309 17.0041 26.7309 17.0041 26.7341 17.1094C26.7407 17.3658 26.7456 17.6222 26.7493 17.8787C26.7512 17.9895 26.7539 18.1003 26.7573 18.211C26.762 18.3707 26.7642 18.5303 26.7659 18.69C26.768 18.786 26.77 18.8819 26.7721 18.9808C26.7279 19.2397 26.7279 19.2397 26.5961 19.4657C26.1834 19.7277 25.7694 19.6851 25.2905 19.6813C25.1369 19.6818 25.1369 19.6818 24.9803 19.6824C24.764 19.683 24.5478 19.6822 24.3316 19.6803C24.055 19.6781 23.7785 19.6794 23.5019 19.6817C23.2372 19.6835 22.9726 19.6822 22.708 19.6813C22.6089 19.6821 22.5098 19.6829 22.4077 19.6837C21.7315 19.6747 21.7315 19.6747 21.4024 19.4657C21.2391 19.1857 21.2256 19.0133 21.2325 18.69C21.2331 18.6387 21.2336 18.5873 21.2342 18.5344C21.2364 18.3715 21.2412 18.2088 21.2462 18.0459C21.2482 17.935 21.25 17.8241 21.2516 17.7132C21.2558 17.4424 21.2626 17.1716 21.2706 16.9009C21.1674 16.9039 21.1674 16.9039 21.0621 16.9071C20.8056 16.9137 20.5493 16.9186 20.2927 16.9223C20.1819 16.9242 20.0712 16.9269 19.9604 16.9303C19.8007 16.935 19.6412 16.9372 19.4814 16.9389C19.3375 16.942 19.3375 16.942 19.1907 16.9451C18.9317 16.9009 18.9317 16.9009 18.7057 16.7691C18.4437 16.3563 18.4864 15.9423 18.4902 15.4635C18.4898 15.3611 18.4894 15.2588 18.489 15.1533C18.4885 14.937 18.4893 14.7208 18.4911 14.5045C18.4933 14.2279 18.4921 13.9515 18.4897 13.6749C18.488 13.4102 18.4892 13.1456 18.4902 12.881C18.4894 12.7819 18.4886 12.6828 18.4878 12.5807C18.4968 11.9045 18.4968 11.9045 18.7057 11.5754C18.9857 11.4121 19.1582 11.3986 19.4814 11.4055C19.5328 11.4061 19.5842 11.4066 19.6371 11.4072C19.8 11.4093 19.9627 11.4142 20.1255 11.4192C20.2364 11.4212 20.3473 11.4229 20.4582 11.4245C20.7291 11.4288 20.9998 11.4355 21.2706 11.4436C21.2685 11.3748 21.2665 11.306 21.2644 11.2351C21.2577 10.9786 21.2529 10.7222 21.2492 10.4657C21.2472 10.3549 21.2446 10.2442 21.2412 10.1334C21.2364 9.97372 21.2342 9.81417 21.2325 9.65443C21.2305 9.55848 21.2284 9.46254 21.2263 9.36369C21.2706 9.10474 21.2706 9.10474 21.4024 8.87871C21.8151 8.61671 22.2291 8.65935 22.708 8.66316ZM22.8298 10.2742C22.8073 11.0333 22.8073 11.0333 22.7855 11.7925C22.7825 11.8869 22.7796 11.9813 22.7765 12.0785C22.7737 12.1753 22.7708 12.2721 22.7679 12.3717C22.7519 12.613 22.7519 12.613 22.6739 12.8469C22.4066 12.936 22.1873 12.9412 21.9055 12.9495C21.8112 12.9525 21.7168 12.9554 21.6195 12.9585C21.4396 12.9636 21.4396 12.9636 21.256 12.9687C20.6843 12.9856 20.6843 12.9856 20.1012 13.0028C20.1012 13.7746 20.1012 14.5464 20.1012 15.3416C20.8603 15.3642 20.8603 15.3642 21.6195 15.3859C21.7139 15.3889 21.8083 15.3919 21.9055 15.3949C22.0023 15.3978 22.0991 15.4006 22.1988 15.4036C22.44 15.4196 22.44 15.4196 22.6739 15.4976C22.763 15.7649 22.7682 15.9841 22.7765 16.2659C22.781 16.4075 22.781 16.4075 22.7855 16.5519C22.7889 16.6719 22.7922 16.7919 22.7957 16.9155C22.807 17.2966 22.8182 17.6777 22.8298 18.0703C23.6016 18.0703 24.3734 18.0703 25.1687 18.0703C25.1912 17.3111 25.1912 17.3111 25.2129 16.5519C25.2159 16.4575 25.2189 16.3632 25.2219 16.2659C25.2248 16.1691 25.2277 16.0724 25.2306 15.9727C25.2466 15.7314 25.2466 15.7314 25.3246 15.4976C25.5919 15.4085 25.8111 15.4033 26.0929 15.3949C26.1873 15.392 26.2817 15.389 26.3789 15.3859C26.4989 15.3826 26.6189 15.3792 26.7425 15.3757C27.3141 15.3589 27.3141 15.3589 27.8973 15.3416C27.8973 14.5698 27.8973 13.798 27.8973 13.0028C27.1381 12.9803 27.1381 12.9803 26.3789 12.9585C26.2845 12.9555 26.1902 12.9526 26.0929 12.9495C25.9962 12.9466 25.8994 12.9438 25.7997 12.9408C25.5585 12.9248 25.5585 12.9248 25.3246 12.8469C25.2355 12.5796 25.2303 12.3603 25.2219 12.0785C25.219 11.9841 25.216 11.8898 25.2129 11.7925C25.2079 11.6126 25.2079 11.6126 25.2028 11.429C25.1859 10.8573 25.1859 10.8573 25.1687 10.2742C24.3968 10.2742 23.625 10.2742 22.8298 10.2742Z" fill="#FF7705"></path>
</svg>
