<?xml version="1.0" encoding="UTF-8"?>
<svg xmlns="http://www.w3.org/2000/svg" width="48" height="48" viewBox="0 0 48 48" fill="none">
  <path d="M26.5702 1.25207C27.3545 1.74125 27.9363 2.33592 28.3127 3.18749C28.3127 3.24937 28.3127 3.31124 28.3127 3.37499C28.3647 3.37437 28.4167 3.37374 28.4703 3.3731C29.0117 3.36688 29.5531 3.36264 30.0945 3.35954C30.2966 3.35813 30.4986 3.35621 30.7007 3.35378C30.9911 3.35036 31.2815 3.34877 31.5719 3.34753C31.6623 3.34608 31.7526 3.34462 31.8457 3.34313C31.9301 3.34311 32.0146 3.34309 32.1016 3.34306C32.1757 3.34244 32.2498 3.34181 32.3262 3.34117C32.5875 3.38424 32.7145 3.47615 32.9064 3.65624C33.015 3.98186 33.0066 4.25256 33.0002 4.59374C33.094 4.59249 33.1878 4.59124 33.2844 4.58996C34.1726 4.57851 35.0607 4.5701 35.9489 4.5646C36.4054 4.56167 36.8618 4.55771 37.3183 4.55131C37.7597 4.54515 38.2009 4.54182 38.6423 4.54037C38.8099 4.53934 38.9775 4.53733 39.145 4.53427C40.1431 4.51679 40.971 4.54048 41.8127 5.15624C42.6117 5.95805 42.7856 6.74159 42.7882 7.84601C42.7877 7.99386 42.7871 8.1417 42.7865 8.28955C42.7869 8.44769 42.7874 8.60583 42.788 8.76397C42.7894 9.19765 42.789 9.63131 42.7883 10.065C42.7879 10.5331 42.789 11.0011 42.79 11.4692C42.7916 12.3858 42.7917 13.3024 42.7912 14.219C42.7908 14.9641 42.791 15.7092 42.7915 16.4542C42.7915 16.5603 42.7916 16.6663 42.7917 16.7756C42.7918 16.991 42.792 17.2065 42.7921 17.4219C42.7934 19.4422 42.7929 21.4625 42.7918 23.4827C42.7909 25.3308 42.7921 27.1788 42.7943 29.0269C42.7966 30.9247 42.7975 32.8225 42.7969 34.7203C42.7966 35.7857 42.7968 36.8511 42.7984 37.9164C42.7998 38.8234 42.7999 39.7303 42.7982 40.6373C42.7974 41.0999 42.7972 41.5626 42.7987 42.0252C42.7999 42.449 42.7995 42.8727 42.7977 43.2965C42.7973 43.4496 42.7976 43.6026 42.7986 43.7557C42.8047 44.7853 42.7393 45.751 41.9932 46.5386C41.179 47.21 40.3468 47.3317 39.323 47.3202C39.1885 47.3207 39.0539 47.3214 38.9194 47.3224C38.5526 47.3244 38.1859 47.3229 37.8192 47.3208C37.4225 47.3191 37.0258 47.3207 36.6292 47.3219C35.8534 47.3236 35.0776 47.3224 34.3018 47.3201C33.3978 47.3176 32.4937 47.3179 31.5897 47.3183C29.9766 47.3189 28.3634 47.3167 26.7503 47.313C25.1859 47.3095 23.6215 47.3081 22.0571 47.3092C20.3521 47.3103 18.6471 47.3103 16.942 47.3081C16.7602 47.3079 16.5783 47.3077 16.3965 47.3075C16.2623 47.3073 16.2623 47.3073 16.1253 47.3071C15.4955 47.3064 14.8657 47.3065 14.2359 47.3068C13.4683 47.3072 12.7008 47.3062 11.9333 47.3035C11.5418 47.3022 11.1504 47.3014 10.759 47.3023C10.4004 47.303 10.0418 47.3021 9.68324 47.2997C9.49267 47.2989 9.3021 47.2999 9.11153 47.301C8.21309 47.2924 7.47946 47.1191 6.80859 46.4928C6.11475 45.6708 6.00966 44.7996 6.0225 43.7611C6.02236 43.6272 6.02204 43.4933 6.02155 43.3594C6.02114 43.0812 6.0227 42.8031 6.02573 42.5248C6.02948 42.169 6.02858 41.8134 6.02627 41.4575C6.02494 41.182 6.02589 40.9066 6.02754 40.6311C6.02808 40.4999 6.02797 40.3687 6.02716 40.2375C6.02641 40.0545 6.02902 39.8715 6.03177 39.6885C6.03243 39.5847 6.03309 39.4809 6.03376 39.3739C6.11339 39.003 6.27153 38.8603 6.56267 38.625C6.9317 38.5558 7.0726 38.5911 7.38884 38.7949C7.71002 39.1161 7.69928 39.386 7.69948 39.8206C7.70001 39.9868 7.70001 39.9868 7.70056 40.1563C7.70065 40.2761 7.70075 40.3959 7.70085 40.5194C7.70213 40.7075 7.70341 40.8956 7.70485 41.0838C7.70841 41.5478 7.71135 42.0119 7.71115 42.476C7.71109 42.7363 7.71226 42.9965 7.7148 43.2568C7.71718 43.5019 7.71778 43.747 7.71642 43.9921C7.71045 44.662 7.71045 44.662 7.97871 45.2555C8.62328 45.7619 9.37505 45.6828 10.159 45.68C10.2871 45.6803 10.4152 45.6806 10.5433 45.6809C10.8943 45.6817 11.2454 45.6813 11.5964 45.6808C11.9754 45.6803 12.3544 45.681 12.7333 45.6815C13.4754 45.6823 14.2174 45.6821 14.9594 45.6816C15.5625 45.6812 16.1656 45.6811 16.7686 45.6813C16.8974 45.6814 16.8974 45.6814 17.0288 45.6814C17.2032 45.6815 17.3776 45.6815 17.552 45.6816C19.1871 45.6821 20.8223 45.6815 22.4574 45.6805C23.8604 45.6797 25.2633 45.6798 26.6662 45.6807C28.2955 45.6817 29.9249 45.6821 31.5542 45.6815C31.7279 45.6814 31.9017 45.6814 32.0754 45.6813C32.1609 45.6813 32.2464 45.6813 32.3345 45.6812C32.9368 45.6811 33.5391 45.6814 34.1415 45.6818C34.8756 45.6823 35.6096 45.6822 36.3437 45.6812C36.7182 45.6807 37.0927 45.6805 37.4672 45.6811C37.8101 45.6817 38.153 45.6814 38.496 45.6804C38.6786 45.6801 38.8612 45.6807 39.0438 45.6813C39.5928 45.6789 40.0813 45.6765 40.5939 45.4687C41.0027 45.0384 41.0744 44.7845 41.0752 44.2009C41.0755 44.1371 41.0757 44.0733 41.0759 44.0075C41.0765 43.7915 41.0765 43.5754 41.0765 43.3594C41.0768 43.2038 41.0771 43.0482 41.0775 42.8926C41.0784 42.4633 41.0788 42.0341 41.079 41.6048C41.0794 41.1425 41.0803 40.6802 41.0811 40.2179C41.083 39.1006 41.0839 37.9833 41.0848 36.8661C41.0852 36.3403 41.0857 35.8146 41.0862 35.2889C41.0878 33.5419 41.0891 31.795 41.0898 30.048C41.09 29.5945 41.0902 29.1409 41.0903 28.6874C41.0904 28.5746 41.0904 28.4619 41.0905 28.3457C41.0913 26.5186 41.0936 24.6915 41.0967 22.8644C41.0998 20.9899 41.1015 19.1154 41.1018 17.2409C41.102 16.1879 41.1028 15.1349 41.1052 14.0819C41.1072 13.1853 41.108 12.2887 41.1071 11.3921C41.1066 10.9344 41.1068 10.4768 41.1086 10.0191C41.1103 9.6003 41.1102 9.18153 41.1087 8.76272C41.1085 8.61105 41.1089 8.45938 41.11 8.30772C41.1114 8.10176 41.1105 7.89593 41.1091 7.68998C41.1092 7.51829 41.1092 7.51829 41.1093 7.34314C41.0529 6.96573 40.9251 6.7644 40.6877 6.46874C40.2256 6.16068 39.7941 6.17476 39.2476 6.16824C39.1799 6.16732 39.1121 6.16639 39.0424 6.16543C38.8197 6.16248 38.597 6.16015 38.3743 6.15783C38.2194 6.1559 38.0646 6.15393 37.9097 6.15193C37.503 6.14676 37.0962 6.14212 36.6895 6.1376C36.2741 6.13288 35.8587 6.12766 35.4433 6.12249C34.629 6.11242 33.8146 6.10291 33.0002 6.09374C33.0002 6.49593 33.0002 6.89812 33.0002 7.31249C33.188 7.31102 33.3758 7.30955 33.5693 7.30803C34.1905 7.30336 34.8116 7.30026 35.4328 7.29792C35.8093 7.29645 36.1859 7.29446 36.5624 7.29127C36.9259 7.28821 37.2894 7.28654 37.6529 7.28581C37.7915 7.28529 37.93 7.28428 38.0686 7.28276C38.2629 7.28071 38.4572 7.28043 38.6516 7.28056C38.7621 7.27994 38.8727 7.27931 38.9866 7.27867C39.4042 7.32658 39.6446 7.48819 39.9377 7.78124C39.9614 8.03673 39.9614 8.03673 39.9618 8.36988C39.9621 8.43124 39.9624 8.4926 39.9628 8.55582C39.9637 8.76344 39.9632 8.97103 39.9627 9.17864C39.9631 9.32819 39.9635 9.47774 39.964 9.62729C39.9652 10.0398 39.9651 10.4523 39.9649 10.8648C39.9649 11.3091 39.9659 11.7534 39.9668 12.1977C39.9684 13.0687 39.9689 13.9397 39.969 14.8107C39.9691 15.5185 39.9695 16.2262 39.9701 16.9339C39.9717 18.9386 39.9726 20.9433 39.9724 22.948C39.9724 23.0562 39.9724 23.1644 39.9724 23.2758C39.9724 23.3841 39.9724 23.4924 39.9724 23.604C39.9723 25.3597 39.9741 27.1154 39.9767 28.8711C39.9794 30.6721 39.9807 32.473 39.9806 34.274C39.9805 35.2858 39.981 36.2976 39.983 37.3094C39.9847 38.1709 39.9852 39.0323 39.9839 39.8937C39.9833 40.3335 39.9833 40.7732 39.9849 41.213C39.9864 41.6153 39.9861 42.0175 39.9845 42.4198C39.9842 42.5656 39.9845 42.7115 39.9856 42.8574C39.9869 43.055 39.9859 43.2526 39.9843 43.4503C39.9844 43.6152 39.9844 43.6152 39.9845 43.7835C39.9272 44.1246 39.8374 44.2327 39.5627 44.4375C39.2729 44.5499 38.989 44.5432 38.6804 44.5436C38.5768 44.5439 38.4732 44.5443 38.3665 44.5447C38.2527 44.5446 38.1389 44.5445 38.0217 44.5444C37.9008 44.5447 37.7799 44.545 37.6553 44.5452C37.3195 44.546 36.9836 44.5462 36.6478 44.5462C36.2857 44.5464 35.9236 44.5471 35.5615 44.5478C34.7697 44.549 33.9778 44.5496 33.186 44.55C32.6917 44.5503 32.1974 44.5507 31.7031 44.5511C30.3348 44.5522 28.9665 44.5532 27.5981 44.5535C27.4668 44.5535 27.4668 44.5535 27.3328 44.5536C27.2011 44.5536 27.2011 44.5536 27.0668 44.5536C26.8889 44.5537 26.711 44.5537 26.5331 44.5538C26.4449 44.5538 26.3566 44.5538 26.2657 44.5538C24.8354 44.5542 23.4051 44.5558 21.9748 44.558C20.5067 44.5602 19.0386 44.5614 17.5704 44.5615C16.746 44.5616 15.9216 44.5621 15.0971 44.5638C14.3952 44.5653 13.6933 44.5658 12.9914 44.565C12.6332 44.5646 12.2751 44.5647 11.9169 44.566C11.5288 44.5674 11.1406 44.5667 10.7525 44.5657C10.5824 44.5668 10.5824 44.5668 10.4089 44.568C9.44248 44.5622 9.44248 44.5622 9.00017 44.25C8.88718 44.024 8.89273 43.8779 8.88982 43.6255C8.88862 43.5347 8.88741 43.444 8.88617 43.3505C8.88548 43.2521 8.88479 43.1538 8.88408 43.0525C8.88332 42.9517 8.88256 42.8509 8.88178 42.747C8.88049 42.5334 8.87948 42.3199 8.87874 42.1063C8.87713 41.7793 8.87301 41.4524 8.86888 41.1255C8.86793 40.9182 8.86713 40.7109 8.8665 40.5037C8.86486 40.4057 8.86322 40.3077 8.86152 40.2068C8.86356 39.5286 8.86356 39.5286 9.08469 39.2197C9.40028 39.0177 9.66979 39.0187 10.0314 39.0937C10.3097 39.3007 10.3904 39.4206 10.5002 39.75C10.5002 40.8019 10.5002 41.8537 10.5002 42.9375C19.6886 42.9375 28.877 42.9375 38.3439 42.9375C38.3439 31.7072 38.3439 20.4769 38.3439 8.90624C36.5805 8.90624 34.817 8.90624 33.0002 8.90624C33.0002 9.1228 33.0002 9.33937 33.0002 9.56249C32.7939 9.99374 32.7939 9.99374 32.5314 10.125C32.3185 10.1349 32.1053 10.1385 31.8921 10.1394C31.8256 10.1398 31.7591 10.1402 31.6906 10.1407C31.4666 10.1419 31.2426 10.1425 31.0186 10.1431C30.8585 10.1438 30.6984 10.1446 30.5382 10.1454C30.0115 10.1479 29.4847 10.1493 28.9579 10.1506C28.7768 10.1511 28.5956 10.1516 28.4145 10.1521C27.6613 10.1542 26.908 10.1559 26.1548 10.157C25.0741 10.1585 23.9935 10.1616 22.9129 10.167C22.1537 10.1706 21.3944 10.1724 20.6352 10.1729C20.1814 10.1733 19.7276 10.1744 19.2738 10.1774C18.8471 10.1802 18.4204 10.1808 17.9936 10.1797C17.8368 10.1797 17.68 10.1805 17.5233 10.1821C17.3095 10.1842 17.0958 10.1835 16.882 10.182C16.7623 10.1823 16.6426 10.1826 16.5193 10.1829C16.2189 10.125 16.2189 10.125 15.99 9.93393C15.8439 9.65624 15.8439 9.65624 15.8439 8.90624C14.0805 8.90624 12.317 8.90624 10.5002 8.90624C10.5002 9.33937 10.5002 40.1475 10.5002 40.5937C10.2189 41.1562 10.2189 41.1562 10.0314 41.25C9.3525 41.3047 9.3525 41.3047 9.0849 41.0986C8.85053 40.805 8.85805 40.6297 8.85661 40.2568C8.85613 40.1371 8.85564 9.6423 8.85515 9.51891C8.85593 9.45681 8.85672 9.39471 8.85753 9.33073C8.85953 9.14114 8.85754 8.95189 8.85515 8.76232C8.85563 8.64256 8.85611 8.5228 8.85661 8.39941C8.85703 8.28986 8.85746 8.18031 8.85789 8.06744C8.91616 7.72377 9.00797 7.61573 9.28142 7.40624C9.59827 7.30062 9.83718 7.30122 10.1712 7.30185C10.2325 7.30184 10.2938 7.30182 10.357 7.30181C10.5594 7.30187 10.7618 7.3026 10.9642 7.30334C11.1046 7.30351 11.245 7.30365 11.3854 7.30374C11.7549 7.3041 12.1243 7.30502 12.4937 7.30605C12.8708 7.30701 13.2478 7.30744 13.6249 7.30791C14.3645 7.30892 15.1042 7.31057 15.8439 7.31249C15.8439 6.9103 15.8439 6.50812 15.8439 6.09374C14.9507 6.10167 14.0575 6.11057 13.1643 6.1207C12.7495 6.12537 12.3347 6.12972 11.9199 6.13329C11.5193 6.13676 11.1188 6.14111 10.7182 6.14606C10.5657 6.14779 10.4131 6.14921 10.2606 6.15031C10.0463 6.1519 9.83204 6.15462 9.61776 6.1576C9.43508 6.15947 9.43508 6.15947 9.24871 6.16139C8.73464 6.20059 8.36563 6.27119 7.9783 6.61942C7.74528 6.99587 7.71728 7.2848 7.72502 7.71423C7.72427 7.78723 7.72352 7.86023 7.72274 7.93545C7.72059 8.1673 7.72146 8.399 7.72282 8.63085C7.72318 8.86301 7.72285 9.0951 7.72089 9.32726C7.71976 9.47125 7.72 39.9903 7.7218 40.1342C7.719 40.6708 7.59442 40.9682 7.21892 41.3437C6.85636 41.3848 6.6344 41.3822 6.31037 41.2083C5.99273 40.8568 6.02796 40.5595 6.03496 40.1005C6.03473 40.0156 6.0345 9.55573 6.03427 9.46829C6.03436 9.28869 6.03562 9.1091 6.03795 8.92952C6.04115 8.65684 6.0399 8.38444 6.03807 8.11175C6.03872 7.93676 6.03962 7.76177 6.04081 7.58678C6.04035 7.50619 6.03988 7.42559 6.03941 7.34255C6.0556 6.49679 6.37338 5.84119 6.94352 5.22436C7.51505 4.71505 8.14807 4.57955 8.89403 4.5831C8.96905 4.58309 9.04408 4.58307 9.12137 4.58306C9.36942 4.58312 9.61747 4.58385 9.86552 4.58459C10.0375 4.58476 10.2094 4.5849 10.3814 4.58499C10.834 4.58535 11.2867 4.58627 11.7394 4.58731C12.2012 4.58826 12.6631 4.58869 13.125 4.58916C14.0313 4.59017 14.9376 4.59177 15.8439 4.59374C15.8413 4.47573 15.8387 4.35773 15.836 4.23614C15.8297 3.94974 15.8473 3.83633 15.9702 3.56535C16.3575 3.26897 16.7246 3.3168 17.1989 3.32922C17.2941 3.32988 17.3893 3.33054 17.4874 3.33123C17.7912 3.33385 18.0948 3.33973 18.3986 3.3457C18.6047 3.34805 18.8107 3.35019 19.0168 3.3521C19.5217 3.35727 20.0265 3.36511 20.5314 3.37499C20.5501 3.26676 20.5501 3.26676 20.5691 3.15634C20.727 2.45194 21.3541 1.82168 21.9373 1.42565C23.3701 0.562603 25.0884 0.420051 26.5702 1.25207ZM22.4295 3.17394C22.1235 3.5582 21.9179 3.96178 21.737 4.41723C21.6564 4.59374 21.6564 4.59374 21.4689 4.78124C21.2933 4.80735 21.2933 4.80735 21.0776 4.81113C20.9969 4.813 20.9162 4.81486 20.833 4.81678C20.7022 4.8184 20.7022 4.8184 20.5688 4.82006C20.4796 4.82188 20.3903 4.82369 20.2984 4.82556C20.0128 4.83118 19.7272 4.83552 19.4416 4.83984C19.2482 4.84341 19.0549 4.84708 18.8615 4.85082C18.3869 4.85999 17.9123 4.86745 17.4377 4.87499C17.4377 6.08155 17.4377 7.28812 17.4377 8.53124C22.0474 8.53124 26.657 8.53124 31.4064 8.53124C31.4064 7.32468 31.4064 6.11812 31.4064 4.87499C31.1187 4.87149 30.8309 4.86798 30.5345 4.86437C30.2561 4.86004 29.9778 4.85524 29.6995 4.85039C29.5059 4.84727 29.3123 4.84464 29.1187 4.84251C28.8406 4.83937 28.5626 4.83447 28.2845 4.82922C28.1977 4.82862 28.111 4.82802 28.0217 4.8274C27.941 4.82554 27.8603 4.82369 27.7772 4.82178C27.6707 4.82022 27.6707 4.82022 27.562 4.81862C27.3253 4.77126 27.2431 4.68627 27.0939 4.49999C27.0075 4.29382 27.0075 4.29382 26.9299 4.06054C26.62 3.26134 26.1386 2.77767 25.357 2.4287C24.2839 2.03541 23.2092 2.34913 22.4295 3.17394Z" fill="#FF7705"></path>
  <path d="M22.4952 10.9551C22.5897 10.9545 22.6842 10.9539 22.7816 10.9533C22.9345 10.9532 22.9345 10.9532 23.0905 10.953C23.1954 10.9527 23.3002 10.9524 23.4082 10.9521C23.6301 10.9516 23.8519 10.9514 24.0738 10.9514C24.4134 10.9512 24.7531 10.9495 25.0928 10.9477C25.3082 10.9474 25.5236 10.9472 25.739 10.9471C25.8407 10.9465 25.9425 10.9458 26.0474 10.9451C26.1422 10.9454 26.2369 10.9457 26.3346 10.946C26.4179 10.9458 26.5011 10.9457 26.5869 10.9456C26.833 10.971 26.9796 11.0219 27.1866 11.1562C27.4049 11.4837 27.3962 11.6119 27.3924 11.9982C27.3918 12.1072 27.3912 12.2163 27.3906 12.3287C27.3882 12.4995 27.3882 12.4995 27.3858 12.6738C27.385 12.7888 27.3841 12.9038 27.3833 13.0223C27.3811 13.3065 27.378 13.5908 27.3741 13.875C27.446 13.873 27.5179 13.8711 27.5919 13.869C27.9177 13.8612 28.2435 13.8564 28.5694 13.8516C28.6825 13.8484 28.7957 13.8453 28.9122 13.842C29.0753 13.8402 29.0753 13.8402 29.2418 13.8384C29.3419 13.8364 29.4421 13.8344 29.5453 13.8324C29.884 13.8866 29.974 13.9852 30.1866 14.25C30.2349 14.4883 30.2349 14.4883 30.2366 14.7599C30.2381 14.8619 30.2396 14.9639 30.2411 15.069C30.2407 15.1787 30.2402 15.2884 30.2397 15.4014C30.2403 15.5144 30.2409 15.6274 30.2415 15.7439C30.2421 15.9828 30.2418 16.2217 30.2407 16.4607C30.2394 16.8268 30.2425 17.1926 30.2461 17.5587C30.2462 17.7908 30.246 18.0228 30.2456 18.2549C30.2468 18.3646 30.2481 18.4742 30.2493 18.5872C30.2407 19.3378 30.2407 19.3378 29.9835 19.6634C29.6844 19.7961 29.4859 19.8246 29.1594 19.8179C29.0552 19.8167 28.9509 19.8155 28.8435 19.8142C28.7357 19.8111 28.6278 19.8079 28.5167 19.8047C28.407 19.803 28.2973 19.8013 28.1844 19.7996C27.9142 19.7951 27.6442 19.789 27.3741 19.7812C27.3771 19.8841 27.3771 19.8841 27.3801 19.989C27.3879 20.3006 27.3927 20.6122 27.3976 20.9238C27.4007 21.0317 27.4038 21.1395 27.4071 21.2507C27.4089 21.407 27.4089 21.407 27.4107 21.5665C27.4137 21.7101 27.4137 21.7101 27.4167 21.8566C27.3576 22.2292 27.2989 22.3569 26.9991 22.5937C26.6157 22.664 26.2366 22.6571 25.8477 22.6527C25.7347 22.6529 25.6217 22.6532 25.5052 22.6534C25.2663 22.6533 25.0274 22.652 24.7884 22.6497C24.4224 22.6465 24.0565 22.6478 23.6904 22.6496C23.4583 22.6489 23.2263 22.648 22.9942 22.6468C22.8846 22.6473 22.7749 22.6478 22.6619 22.6483C22.5599 22.6468 22.4579 22.6453 22.3528 22.6438C22.2184 22.6429 22.2184 22.6429 22.0812 22.642C21.773 22.5796 21.6602 22.463 21.4679 22.2187C21.4253 21.9524 21.4253 21.9524 21.4312 21.6489C21.4331 21.4858 21.4331 21.4858 21.4349 21.3193C21.438 21.2062 21.4412 21.0931 21.4444 20.9766C21.4461 20.862 21.4478 20.7474 21.4496 20.6294C21.454 20.3466 21.4601 20.064 21.4679 19.7812C21.365 19.7842 21.365 19.7842 21.2602 19.7872C20.9485 19.795 20.637 19.7999 20.3253 19.8047C20.2174 19.8078 20.1096 19.811 19.9984 19.8142C19.8942 19.8154 19.79 19.8166 19.6826 19.8179C19.5868 19.8198 19.4911 19.8218 19.3925 19.8238C19.0539 19.7701 18.9001 19.641 18.6554 19.4062C18.5403 19.1761 18.5485 19.0233 18.5465 18.766C18.5456 18.6718 18.5447 18.5776 18.5438 18.4805C18.5434 18.3784 18.543 18.2763 18.5426 18.171C18.542 18.0663 18.5415 17.9615 18.541 17.8536C18.5401 17.6316 18.5395 17.4096 18.5391 17.1876C18.5382 16.8481 18.5353 16.5086 18.5323 16.1691C18.5317 15.9536 18.5312 15.7381 18.5309 15.5226C18.5297 15.421 18.5285 15.3194 18.5273 15.2148C18.53 14.3274 18.53 14.3274 18.8429 13.9687C19.0973 13.8415 19.2974 13.8645 19.5819 13.8658C19.6912 13.8661 19.8006 13.8664 19.9133 13.8668C20.028 13.8675 20.1427 13.8683 20.2608 13.8691C20.3762 13.8696 20.4917 13.87 20.6106 13.8704C20.8963 13.8715 21.1821 13.8731 21.4679 13.875C21.4664 13.8031 21.4649 13.7312 21.4634 13.6572C21.4576 13.3314 21.4539 13.0055 21.4503 12.6797C21.4479 12.5666 21.4456 12.4535 21.4431 12.3369C21.4422 12.2281 21.4413 12.1194 21.4404 12.0073C21.4389 11.9072 21.4375 11.807 21.4359 11.7038C21.4722 11.4015 21.5363 11.2771 21.7491 11.0625C22.0256 10.9703 22.2069 10.9564 22.4952 10.9551ZM23.0616 12.5625C23.042 13.2818 23.042 13.2818 23.0252 14.0012C23.0221 14.0914 23.019 14.1816 23.0158 14.2745C23.0134 14.3663 23.0109 14.4581 23.0084 14.5527C22.9606 14.8588 22.8768 15.0373 22.6866 15.2812C22.4062 15.4015 22.1061 15.3929 21.8033 15.4047C21.7167 15.4082 21.6301 15.4118 21.5408 15.4155C21.3771 15.4215 21.3771 15.4215 21.2101 15.4277C20.688 15.448 20.688 15.448 20.1554 15.4687C20.1554 16.3659 20.1554 17.2631 20.1554 18.1875C20.9056 18.1998 20.9056 18.1998 21.6558 18.207C22.0947 18.2193 22.415 18.2351 22.8038 18.4482C23.0597 18.919 23.0411 19.377 23.044 19.9043C23.0498 20.2659 23.0556 20.6275 23.0616 21C23.9588 21 24.856 21 25.7804 21C25.8037 20.2764 25.8037 20.2764 25.8252 19.5528C25.8285 19.4624 25.8319 19.372 25.8353 19.2788C25.8382 19.1865 25.8412 19.0942 25.8442 18.9991C25.8746 18.7461 25.9244 18.5884 26.0616 18.375C26.3079 18.2518 26.5047 18.2613 26.7801 18.2516C26.9222 18.2462 26.9222 18.2462 27.0671 18.2408C27.2481 18.2347 27.2481 18.2347 27.4327 18.2285C27.8156 18.215 28.1984 18.2014 28.5929 18.1875C28.5929 17.2903 28.5929 16.3931 28.5929 15.4687C27.9044 15.4491 27.9044 15.4491 27.2158 15.4324C27.0863 15.4277 27.0863 15.4277 26.9541 15.423C26.8222 15.4193 26.8222 15.4193 26.6878 15.4155C26.3916 15.3677 26.2103 15.2679 25.9679 15.0937C25.8447 14.8474 25.8542 14.6507 25.8445 14.3752C25.8391 14.2332 25.8391 14.2332 25.8336 14.0883C25.8296 13.9676 25.8255 13.847 25.8214 13.7227C25.8078 13.3398 25.7943 12.9569 25.7804 12.5625C24.8832 12.5625 23.986 12.5625 23.0616 12.5625Z" fill="#FF7705"></path>
  <path d="M15.1148 33.3252C15.2447 33.3249 15.3747 33.3246 15.5046 33.3241C15.776 33.3236 16.0473 33.3244 16.3187 33.3261C16.6652 33.3283 17.0115 33.327 17.3579 33.3248C17.6259 33.3234 17.8939 33.3239 18.1619 33.3248C18.3513 33.3252 18.5407 33.3241 18.7301 33.3229C19.8362 33.3342 19.8362 33.3342 20.3443 33.75C20.6605 34.1531 20.7664 34.4161 20.7679 34.9268C20.769 35.047 20.7702 35.1671 20.7714 35.2909C20.7708 35.4208 20.77 35.5507 20.7691 35.6807C20.7694 35.8151 20.7698 35.9496 20.7702 36.0841C20.7708 36.3653 20.77 36.6464 20.7682 36.9276C20.7661 37.287 20.7673 37.6462 20.7696 38.0056C20.7709 38.2831 20.7705 38.5606 20.7695 38.8381C20.7693 38.9705 20.7696 39.103 20.7704 39.2354C20.7714 39.4209 20.7697 39.6064 20.7679 39.7919C20.7676 39.8972 20.7673 40.0026 20.7669 40.1111C20.6875 40.6033 20.4567 40.876 20.078 41.1884C19.7451 41.363 19.5413 41.3912 19.1675 41.3923C19.0474 41.3935 18.9272 41.3946 18.8034 41.3959C18.6735 41.3952 18.5436 41.3944 18.4137 41.3936C18.2792 41.3938 18.1447 41.3942 18.0103 41.3946C17.7291 41.3952 17.4479 41.3944 17.1668 41.3926C16.8074 41.3905 16.4481 41.3917 16.0887 41.394C15.8112 41.3953 15.5338 41.3949 15.2563 41.3939C15.1238 41.3937 14.9914 41.394 14.8589 41.3949C14.6734 41.3958 14.4879 41.3941 14.3024 41.3923C14.1971 41.392 14.0918 41.3917 13.9833 41.3914C13.5431 41.3204 13.2471 41.1071 12.9557 40.7754C12.7451 40.4319 12.7375 40.1427 12.734 39.7488C12.7322 39.5747 12.7322 39.5747 12.7303 39.397C12.7296 39.27 12.7289 39.1431 12.7282 39.0161C12.7279 38.952 12.7275 38.888 12.7271 38.8219C12.7251 38.4826 12.7238 38.1433 12.7229 37.8039C12.7219 37.4545 12.7186 37.1052 12.7149 36.7558C12.7125 36.4862 12.7117 36.2166 12.7114 35.947C12.7109 35.8183 12.7098 35.6896 12.7081 35.5609C12.6916 34.2635 12.6916 34.2635 13.1256 33.75C13.7171 33.2529 14.3709 33.3206 15.1148 33.3252ZM14.3443 34.9688C14.3443 36.5466 14.3443 38.1244 14.3443 39.75C15.9221 39.75 17.5 39.75 19.1256 39.75C19.1256 38.1722 19.1256 36.5944 19.1256 34.9688C17.5478 34.9688 15.97 34.9688 14.3443 34.9688Z" fill="#FF7705"></path>
  <path d="M14.508 23.0474C14.6165 23.0465 14.7251 23.0456 14.837 23.0447C14.954 23.0443 15.071 23.0439 15.1916 23.0435C15.3122 23.0429 15.4329 23.0424 15.5573 23.0418C15.8127 23.0409 16.0681 23.0403 16.3235 23.04C16.6494 23.0395 16.9753 23.0372 17.3013 23.0345C17.6137 23.0324 17.926 23.0322 18.2384 23.0317C18.3549 23.0306 18.4713 23.0294 18.5912 23.0282C19.2494 23.0299 19.8028 23.0329 20.3189 23.4877C20.6401 23.9207 20.7299 24.1185 20.7346 24.6554C20.7364 24.8324 20.7364 24.8324 20.7383 25.013C20.7391 25.1425 20.7397 25.272 20.7404 25.4015C20.7408 25.4667 20.7411 25.5319 20.7415 25.5991C20.7435 25.9445 20.7448 26.2899 20.7457 26.6353C20.7468 26.9911 20.75 27.3469 20.7537 27.7027C20.7562 27.977 20.7569 28.2513 20.7573 28.5257C20.7577 28.6568 20.7588 28.7879 20.7606 28.9189C20.7765 30.1996 20.7765 30.1996 20.343 30.75C19.8985 31.0834 19.5044 31.1364 18.9594 31.1401C18.8508 31.141 18.7422 31.1419 18.6303 31.1428C18.5133 31.1432 18.3963 31.1436 18.2758 31.144C18.1551 31.1446 18.0344 31.1451 17.9101 31.1457C17.6547 31.1466 17.3993 31.1472 17.1439 31.1475C16.8179 31.148 16.492 31.1503 16.1661 31.153C15.8537 31.1551 15.5413 31.1553 15.2289 31.1558C15.1125 31.1569 14.9961 31.1581 14.8761 31.1593C14.2165 31.1576 13.6696 31.1518 13.1485 30.7031C12.8178 30.2653 12.7376 29.9846 12.7342 29.4434C12.7333 29.3289 12.7324 29.2144 12.7315 29.0964C12.731 28.9712 12.7306 28.846 12.7303 28.7208C12.7297 28.5923 12.7292 28.4637 12.7286 28.3351C12.7276 28.0655 12.7271 27.7959 12.7268 27.5263C12.7263 27.1818 12.724 26.8372 12.7213 26.4927C12.7196 26.227 12.7191 25.9614 12.719 25.6957C12.7185 25.5072 12.7168 25.3187 12.715 25.1302C12.7153 25.0148 12.7156 24.8994 12.7159 24.7805C12.7155 24.6793 12.7152 24.5781 12.7148 24.4739C12.7689 24.0244 12.9482 23.645 13.3059 23.3613C13.7154 23.0689 14.0112 23.0507 14.508 23.0474ZM14.343 24.6562C14.343 26.265 14.343 27.8737 14.343 29.5312C15.9209 29.5312 17.4987 29.5312 19.1243 29.5312C19.1243 27.9225 19.1243 26.3137 19.1243 24.6562C17.5465 24.6562 15.9687 24.6562 14.343 24.6562Z" fill="#FF7705"></path>
  <path d="M24.1113 38.4131C24.2122 38.4124 24.313 38.4117 24.4168 38.411C24.5274 38.4113 24.6381 38.4115 24.752 38.4117C24.9267 38.411 24.9267 38.411 25.105 38.4103C25.4246 38.4092 25.7442 38.409 26.0638 38.4092C26.3306 38.4093 26.5973 38.4089 26.8641 38.4084C27.4934 38.4074 28.1227 38.4073 28.752 38.4079C29.4014 38.4085 30.0507 38.4073 30.7 38.4053C31.2574 38.4037 31.8148 38.4031 32.3722 38.4034C32.7052 38.4036 33.0381 38.4033 33.3711 38.402C33.7423 38.4006 34.1136 38.4015 34.4848 38.4026C34.5952 38.4019 34.7056 38.4012 34.8194 38.4004C34.9205 38.4011 35.0216 38.4017 35.1257 38.4024C35.2574 38.4024 35.2574 38.4024 35.3917 38.4024C35.6681 38.4441 35.7964 38.53 35.9995 38.7187C36.0992 38.9671 36.116 39.2028 36.0932 39.4687C35.8988 39.7951 35.7984 39.9108 35.437 40.0312C35.2798 40.0403 35.1224 40.0439 34.965 40.0444C34.8187 40.0452 34.8187 40.0452 34.6695 40.046C34.509 40.0462 34.509 40.0462 34.3453 40.0464C34.1763 40.0471 34.1763 40.0471 34.0039 40.0478C33.6948 40.0489 33.3856 40.0496 33.0765 40.05C32.8833 40.0503 32.6901 40.0507 32.4969 40.0511C31.8924 40.0524 31.2879 40.0533 30.6833 40.0536C29.9857 40.0541 29.2881 40.0557 28.5904 40.0584C28.051 40.0605 27.5116 40.0614 26.9722 40.0615C26.65 40.0616 26.3279 40.0622 26.0058 40.0638C25.6465 40.0657 25.2872 40.0653 24.9279 40.0647C24.768 40.066 24.768 40.066 24.6049 40.0673C24.4578 40.0665 24.4578 40.0665 24.3078 40.0657C24.1804 40.0659 24.1804 40.0659 24.0504 40.0661C23.7569 40.0232 23.5816 39.9244 23.3432 39.75C23.173 39.4169 23.1425 39.2502 23.2202 38.8828C23.4272 38.449 23.6654 38.414 24.1113 38.4131Z" fill="#FF7705"></path>
  <path d="M24.1113 34.7568C24.2122 34.7561 24.313 34.7555 24.4168 34.7548C24.5274 34.755 24.6381 34.7553 24.752 34.7555C24.9267 34.7548 24.9267 34.7548 25.105 34.754C25.4246 34.753 25.7442 34.7527 26.0638 34.753C26.3306 34.7531 26.5973 34.7526 26.8641 34.7522C27.4934 34.7511 28.1227 34.7511 28.752 34.7517C29.4014 34.7522 30.0507 34.7511 30.7 34.7491C31.2574 34.7474 31.8148 34.7469 32.3722 34.7472C32.7052 34.7473 33.0381 34.7471 33.3711 34.7458C33.7423 34.7444 34.1136 34.7453 34.4848 34.7463C34.5952 34.7456 34.7056 34.7449 34.8194 34.7442C34.9205 34.7448 35.0216 34.7455 35.1257 34.7462C35.2574 34.7461 35.2574 34.7461 35.3917 34.7461C35.6681 34.7878 35.7964 34.8737 35.9995 35.0625C36.0992 35.3109 36.116 35.5465 36.0932 35.8125C35.8988 36.1389 35.7984 36.2545 35.437 36.375C35.2798 36.384 35.1224 36.3876 34.965 36.3882C34.8187 36.389 34.8187 36.389 34.6695 36.3898C34.509 36.3899 34.509 36.3899 34.3453 36.3901C34.1763 36.3908 34.1763 36.3908 34.0039 36.3915C33.6948 36.3926 33.3856 36.3933 33.0765 36.3938C32.8833 36.394 32.6901 36.3944 32.4969 36.3948C31.8924 36.3961 31.2879 36.397 30.6833 36.3974C29.9857 36.3978 29.2881 36.3995 28.5904 36.4022C28.051 36.4042 27.5116 36.4051 26.9722 36.4053C26.65 36.4054 26.3279 36.4059 26.0058 36.4076C25.6465 36.4094 25.2872 36.409 24.9279 36.4084C24.768 36.4097 24.768 36.4097 24.6049 36.411C24.4578 36.4102 24.4578 36.4102 24.3078 36.4094C24.1804 36.4097 24.1804 36.4097 24.0504 36.4099C23.7569 36.3669 23.5816 36.2681 23.3432 36.0937C23.173 35.7607 23.1425 35.5939 23.2202 35.2266C23.4272 34.7928 23.6654 34.7578 24.1113 34.7568Z" fill="#FF7705"></path>
  <path d="M24.2091 28.0887C24.3084 28.0877 24.4076 28.0868 24.5098 28.0858C24.6182 28.0863 24.7266 28.0867 24.8382 28.0871C24.9527 28.0865 25.0673 28.0858 25.1853 28.0852C25.4991 28.0838 25.8128 28.0836 26.1266 28.0841C26.3887 28.0844 26.6508 28.0839 26.9129 28.0833C27.5313 28.082 28.1497 28.0821 28.7681 28.0832C29.4058 28.0843 30.0434 28.0829 30.6811 28.0804C31.2289 28.0784 31.7767 28.0777 32.3244 28.0783C32.6515 28.0786 32.9785 28.0784 33.3055 28.0768C33.6702 28.075 34.0349 28.0764 34.3996 28.078C34.5619 28.0766 34.5619 28.0766 34.7275 28.0752C35.4554 28.082 35.4554 28.082 35.8309 28.2949C36.0653 28.5792 36.0872 28.7918 36.0938 29.1563C36.0193 29.4067 35.963 29.496 35.7417 29.6333C35.4938 29.734 35.3082 29.7429 35.0409 29.7438C34.9416 29.7446 34.8424 29.7454 34.7402 29.7463C34.6318 29.7462 34.5234 29.7461 34.4118 29.746C34.24 29.7469 34.24 29.7469 34.0647 29.7479C33.751 29.7494 33.4372 29.75 33.1234 29.7501C32.9273 29.7503 32.7311 29.7507 32.535 29.7511C31.8506 29.7529 31.1663 29.7536 30.4819 29.7535C29.8442 29.7534 29.2066 29.7554 28.5689 29.7583C28.0211 29.7608 27.4733 29.7618 26.9256 29.7617C26.5985 29.7616 26.2715 29.7622 25.9445 29.7641C25.5798 29.7663 25.2151 29.7654 24.8504 29.7643C24.6881 29.7659 24.6881 29.7659 24.5225 29.7675C23.7919 29.7617 23.7919 29.7617 23.4191 29.5427C23.2195 29.3079 23.1638 29.1828 23.1562 28.875C23.3076 28.2971 23.6253 28.0902 24.2091 28.0887Z" fill="#FF7705"></path>
  <path d="M24.2091 24.4324C24.3084 24.4315 24.4076 24.4306 24.5098 24.4296C24.6182 24.43 24.7266 24.4304 24.8382 24.4309C24.9527 24.4302 25.0673 24.4296 25.1853 24.4289C25.4991 24.4275 25.8128 24.4274 26.1266 24.4279C26.3887 24.4282 26.6508 24.4276 26.9129 24.427C27.5313 24.4257 28.1497 24.4259 28.7681 24.4269C29.4058 24.428 30.0434 24.4267 30.6811 24.4242C31.2289 24.4221 31.7767 24.4215 32.3244 24.422C32.6515 24.4224 32.9785 24.4221 33.3055 24.4205C33.6702 24.4188 34.0349 24.4201 34.3996 24.4217C34.5619 24.4204 34.5619 24.4204 34.7275 24.419C35.4554 24.4257 35.4554 24.4257 35.8309 24.6387C36.0653 24.9229 36.0872 25.1356 36.0938 25.5C36.0193 25.7504 35.963 25.8398 35.7417 25.9771C35.4938 26.0777 35.3082 26.0866 35.0409 26.0876C34.9416 26.0884 34.8424 26.0892 34.7402 26.09C34.6318 26.0899 34.5234 26.0898 34.4118 26.0897C34.24 26.0907 34.24 26.0907 34.0647 26.0917C33.751 26.0931 33.4372 26.0937 33.1234 26.0939C32.9273 26.094 32.7311 26.0944 32.535 26.0949C31.8506 26.0966 31.1663 26.0974 30.4819 26.0973C29.8442 26.0971 29.2066 26.0991 28.5689 26.1021C28.0211 26.1045 27.4733 26.1055 26.9256 26.1054C26.5985 26.1054 26.2715 26.1059 25.9445 26.1079C25.5798 26.11 25.2151 26.1092 24.8504 26.1081C24.6881 26.1096 24.6881 26.1096 24.5225 26.1112C23.7919 26.1055 23.7919 26.1055 23.4191 25.8864C23.2195 25.6516 23.1638 25.5266 23.1562 25.2188C23.3076 24.6408 23.6253 24.434 24.2091 24.4324Z" fill="#FF7705"></path>
  <path d="M18.2904 35.5887C18.5725 35.6461 18.6852 35.7654 18.8438 36C18.9801 36.3798 18.916 36.5794 18.75 36.9375C18.6157 37.1281 18.6157 37.1281 18.4611 37.3121C18.4046 37.38 18.3481 37.4478 18.2899 37.5178C18.2309 37.5873 18.172 37.6569 18.1113 37.7285C18.0535 37.7977 17.9957 37.8669 17.9361 37.9382C17.8228 38.0736 17.7091 38.2087 17.5949 38.3434C17.4957 38.4618 17.3979 38.5816 17.3022 38.703C17.085 38.9777 16.9892 39.0871 16.6465 39.1992C16.0241 39.1774 15.6189 38.7097 15.2051 38.2852C15.1592 38.2392 15.1134 38.1933 15.0661 38.146C14.7473 37.8232 14.6343 37.6898 14.5898 37.2305C14.5949 36.9194 14.6103 36.8616 14.8184 36.6094C15.1747 36.4274 15.3536 36.4016 15.75 36.4687C16.021 36.6333 16.2614 36.823 16.5 37.0312C16.5566 36.9612 16.6131 36.8911 16.6714 36.8188C16.7463 36.7265 16.8212 36.6342 16.8984 36.5391C16.9724 36.4477 17.0464 36.3563 17.1226 36.2622C17.7168 35.5578 17.7168 35.5578 18.2904 35.5887Z" fill="#FF7705"></path>
  <path d="M18.375 25.3125C18.688 25.4934 18.8152 25.612 18.9434 25.9512C18.9312 26.573 18.4522 27.0663 18.0586 27.5156C18.0132 27.5683 17.9677 27.6209 17.9209 27.6752C17.8316 27.7787 17.742 27.8821 17.6522 27.9853C17.4984 28.1629 17.348 28.3433 17.1973 28.5234C16.9538 28.7981 16.8845 28.8553 16.5352 28.9219C16.0512 28.8502 15.8076 28.5551 15.4688 28.2187C15.399 28.1514 15.3293 28.0841 15.2574 28.0148C14.6342 27.4049 14.6342 27.4049 14.6016 26.9648C14.625 26.625 14.625 26.625 14.7188 26.4023C14.947 26.2169 15.1566 26.1475 15.4493 26.1204C15.861 26.1918 16.13 26.5179 16.4062 26.8125C16.9255 26.2347 16.9255 26.2347 17.4258 25.6406C17.7254 25.2882 17.9198 25.2679 18.375 25.3125Z" fill="#FF7705"></path>
  <path d="M24.75 3.37501C25.0066 3.50248 25.1142 3.62133 25.3125 3.84376C25.4163 4.15522 25.4233 4.33453 25.3477 4.65235C25.1818 4.93881 25.0346 5.07925 24.75 5.25001C24.3858 5.29553 24.1658 5.28202 23.8301 5.13282C23.5211 4.88565 23.4531 4.71349 23.4023 4.32423C23.4467 3.95422 23.5834 3.75845 23.8125 3.46876C24.116 3.317 24.4219 3.32145 24.75 3.37501Z" fill="#FF7705"></path>
</svg>
