<?xml version="1.0" encoding="UTF-8"?>
<svg xmlns="http://www.w3.org/2000/svg" width="48" height="48" viewBox="0 0 48 48" fill="none">
  <path d="M5.7217 4.01978C5.84973 4.01942 5.97776 4.01894 6.10579 4.01836C6.45611 4.01711 6.80642 4.01747 7.15674 4.01812C7.53512 4.01853 7.9135 4.01744 8.29189 4.01655C9.03252 4.01505 9.77315 4.01498 10.5138 4.01543C11.1158 4.01578 11.7177 4.01566 12.3197 4.01519C12.4054 4.01513 12.4911 4.01506 12.5794 4.015C12.7536 4.01486 12.9277 4.01473 13.1019 4.01459C14.7342 4.0134 16.3665 4.01387 17.9989 4.01487C19.4921 4.01574 20.9854 4.01461 22.4787 4.01252C24.0124 4.0104 25.5462 4.00956 27.08 4.01014C27.9409 4.01045 28.8018 4.01025 29.6627 4.00873C30.3954 4.00745 31.1281 4.00739 31.8608 4.00891C32.2346 4.00965 32.6083 4.00983 32.9821 4.0085C33.3244 4.0073 33.6667 4.00771 34.009 4.00939C34.1326 4.00972 34.2563 4.00947 34.38 4.00856C35.1839 4.00308 35.7226 4.05074 36.3565 4.58299C36.415 4.64542 36.4735 4.70785 36.5337 4.77217C36.5987 4.841 36.6636 4.90983 36.7305 4.98074C36.9445 5.21771 37.1557 5.45652 37.3624 5.70004C37.5407 5.90881 37.7231 6.11358 37.9059 6.31828C38.1359 6.57599 38.3642 6.83474 38.5893 7.09678C38.8313 7.37796 39.0782 7.65424 39.3266 7.92972C39.6239 8.25955 39.9173 8.59213 40.2067 8.92904C40.385 9.1348 40.566 9.33802 40.7472 9.54115C41.0282 9.85619 41.3058 10.1739 41.5813 10.4939C41.7608 10.7005 41.9426 10.9048 42.1248 11.109C42.4058 11.4241 42.6834 11.7418 42.9589 12.0617C43.2038 12.3438 43.4532 12.6218 43.7018 12.9005C43.9137 13.1394 44.122 13.3812 44.3301 13.6235C44.5281 13.85 44.7311 14.0715 44.9338 14.2938C45.593 15.0277 45.9834 15.5841 45.9792 16.6077C45.9796 16.6775 45.98 16.7473 45.9804 16.8193C45.9815 17.0526 45.9813 17.2858 45.9812 17.5191C45.9817 17.6867 45.9823 17.8543 45.983 18.0219C45.9845 18.4767 45.9849 18.9315 45.985 19.3863C45.9851 19.6707 45.9855 19.955 45.9859 20.2394C45.9875 21.2323 45.9882 22.2251 45.9881 23.218C45.988 24.1423 45.9898 25.0665 45.9925 25.9908C45.9948 26.7852 45.9957 27.5796 45.9956 28.374C45.9956 28.8481 45.996 29.3222 45.9979 29.7962C45.9995 30.2424 45.9995 30.6886 45.9983 31.1348C45.9981 31.2981 45.9985 31.4613 45.9996 31.6245C46.0063 32.7572 45.9425 33.7126 45.1914 34.6209C44.4154 35.39 43.6025 35.607 42.5475 35.6008C42.4507 35.5993 42.3538 35.5979 42.2539 35.5964C42.1544 35.5956 42.0548 35.5948 41.9523 35.594C41.7084 35.592 41.4646 35.5891 41.2207 35.5855C41.2445 35.6429 41.2682 35.7002 41.2927 35.7594C41.5169 36.3021 41.7399 36.8454 41.9617 37.3892C42.0757 37.6687 42.1901 37.9481 42.3056 38.227C42.4386 38.5481 42.5696 38.8701 42.7006 39.1922C42.742 39.2915 42.7834 39.3907 42.8261 39.493C43.0356 40.0128 43.1846 40.4231 43.1149 40.986C42.9427 41.2473 42.9427 41.2473 42.6844 41.4215C42.1957 41.453 41.7751 41.3907 41.3031 41.2691C41.2402 41.2536 41.1772 41.2381 41.1123 41.2222C40.9133 41.1732 40.7145 41.1233 40.5158 41.0731C40.3161 41.023 40.1164 40.9732 39.9166 40.924C39.7928 40.8935 39.6692 40.8625 39.5457 40.8309C39.0961 40.7186 39.0961 40.7186 38.6378 40.7247C38.483 40.9239 38.3663 41.1045 38.2449 41.3235C38.1705 41.4508 38.0958 41.5779 38.021 41.7049C37.9817 41.7721 37.9425 41.8393 37.9021 41.9084C37.686 42.2703 37.4545 42.6215 37.2225 42.9731C37.1788 43.0401 37.135 43.1072 37.09 43.1763C37.0486 43.2392 37.0072 43.302 36.9646 43.3667C36.9281 43.4222 36.8917 43.4776 36.8541 43.5348C36.5676 43.9274 36.5676 43.9274 36.3057 43.9914C36.2081 43.994 36.2081 43.994 36.1086 43.9965C36.0117 44.0021 36.0117 44.0021 35.9129 44.0078C35.6011 43.915 35.4528 43.6897 35.2799 43.4249C35.1284 43.1113 35.0057 42.7884 34.883 42.4623C34.8475 42.3705 34.8121 42.2786 34.7755 42.184C34.6629 41.8921 34.5516 41.5997 34.4404 41.3072C34.3278 41.0133 34.2148 40.7194 34.1017 40.4257C34.0315 40.2432 33.9617 40.0606 33.8922 39.8778C33.8608 39.7958 33.8294 39.7138 33.7971 39.6293C33.7696 39.5568 33.742 39.4843 33.7136 39.4096C33.6571 39.2462 33.6571 39.2462 33.5579 39.1568C33.5373 39.2104 33.5167 39.264 33.4955 39.3192C33.2803 39.8779 33.0635 40.4359 32.8459 40.9936C32.7649 41.2017 32.6843 41.41 32.6041 41.6184C32.4887 41.9183 32.3718 42.2176 32.2547 42.5168C32.2192 42.6098 32.1838 42.7028 32.1473 42.7987C31.9602 43.2721 31.8059 43.6291 31.4054 43.9475C31.2279 44.0054 31.2279 44.0054 31.0611 44.002C31.006 44.0031 30.951 44.0042 30.8942 44.0054C30.4541 43.862 30.1899 43.3893 29.9549 43.0115C29.8957 42.917 29.8365 42.8225 29.7755 42.7252C29.7143 42.6264 29.6531 42.5275 29.592 42.4287C29.5305 42.3301 29.4691 42.2316 29.4075 42.1331C29.2938 41.9512 29.1804 41.7691 29.0673 41.5867C28.9538 41.4062 28.8363 41.2282 28.7164 41.052C28.5642 40.8118 28.5642 40.8118 28.5642 40.6376C28.417 40.6732 28.417 40.6732 28.2669 40.7095C27.9006 40.798 27.534 40.8854 27.1674 40.9725C27.0092 41.0102 26.851 41.0483 26.6929 41.0866C26.4648 41.1418 26.2365 41.196 26.0081 41.25C25.9382 41.2672 25.8683 41.2843 25.7963 41.302C24.7435 41.548 24.7435 41.548 24.2646 41.28C24.045 41.0242 24.0249 40.8863 24.0009 40.5505C24.0723 40.2778 24.0723 40.2778 24.1883 39.9853C24.2093 39.9313 24.2303 39.8772 24.2519 39.8216C24.3196 39.6485 24.3889 39.4761 24.4583 39.3038C24.5013 39.1945 24.5442 39.0853 24.587 38.9759C24.6765 38.7478 24.7668 38.52 24.8578 38.2925C25.0678 37.7663 25.276 37.2393 25.4842 36.7123C25.5238 36.612 25.5635 36.5117 25.6043 36.4083C25.7013 36.1631 25.7982 35.9178 25.8951 35.6726C25.7863 35.6724 25.6775 35.6722 25.5654 35.672C22.9807 35.667 20.3961 35.6606 17.8114 35.6526C17.4931 35.6517 17.1747 35.6507 16.8564 35.6497C16.793 35.6495 16.7296 35.6493 16.6643 35.6491C15.6391 35.6461 14.6138 35.6439 13.5886 35.6421C12.5361 35.6402 11.4835 35.6373 10.431 35.6335C9.78191 35.6312 9.1328 35.6297 8.48368 35.6291C7.98538 35.6286 7.48709 35.6267 6.9888 35.6243C6.78479 35.6235 6.58078 35.6232 6.37677 35.6234C6.09767 35.6235 5.81862 35.6221 5.53953 35.6202C5.41917 35.6208 5.41917 35.6208 5.29638 35.6215C4.36943 35.6114 3.60182 35.3434 2.90665 34.7144C2.17597 33.8738 2.00662 33.0617 2.01228 31.9663C2.01182 31.8582 2.01135 31.7501 2.01088 31.6387C2.00986 31.3404 2.00999 31.0421 2.01063 30.7438C2.01104 30.4214 2.00996 30.099 2.00908 29.7766C2.0076 29.1456 2.00753 28.5147 2.00798 27.8837C2.00833 27.3707 2.0082 26.8577 2.00774 26.3446C2.00768 26.2715 2.00761 26.1984 2.00755 26.1231C2.00742 25.9746 2.00728 25.826 2.00715 25.6775C2.00597 24.2855 2.00644 22.8936 2.00742 21.5017C2.00828 20.2294 2.00717 18.9571 2.00511 17.6848C2.003 16.3771 2.00218 15.0695 2.00275 13.7618C2.00305 13.0282 2.00286 12.2945 2.00135 11.5609C2.00008 10.9363 2.00003 10.3118 2.00153 9.68725C2.00226 9.36888 2.00245 9.05052 2.00113 8.73215C1.99971 8.38636 2.00099 8.04061 2.00251 7.69482C2.00168 7.59511 2.00085 7.4954 2 7.39268C2.0085 6.4504 2.25527 5.61727 2.90665 4.9246C3.76657 4.10881 4.5716 4.01445 5.7217 4.01978ZM3.91293 6.18218C3.6728 6.55108 3.57398 6.85655 3.57329 7.29793C3.57274 7.38879 3.57218 7.47965 3.57161 7.57326C3.57188 7.67251 3.57214 7.77176 3.57242 7.87403C3.57203 7.97991 3.57164 8.08578 3.57124 8.19487C3.57033 8.4885 3.57021 8.78211 3.57041 9.07574C3.57044 9.39252 3.56949 9.7093 3.56868 10.0261C3.56725 10.6466 3.56677 11.2672 3.56668 11.8877C3.56659 12.3922 3.56624 12.8966 3.56569 13.401C3.56418 14.8313 3.56338 16.2616 3.56351 17.692C3.56352 17.7691 3.56353 17.8462 3.56353 17.9256C3.56354 18.0028 3.56355 18.08 3.56356 18.1595C3.56363 19.4106 3.56198 20.6617 3.55955 21.9128C3.55708 23.1975 3.55589 24.4822 3.55604 25.7669C3.55609 26.4882 3.55562 27.2094 3.55377 27.9306C3.5522 28.5447 3.55182 29.1587 3.55299 29.7728C3.55356 30.086 3.55357 30.3993 3.55207 30.7125C3.55047 31.0523 3.55154 31.392 3.55287 31.7318C3.55198 31.8305 3.5511 31.9292 3.55018 32.0308C3.55572 32.6709 3.63199 33.1795 4.09623 33.6552C4.14584 33.6868 4.19545 33.7183 4.24657 33.7508C4.2964 33.784 4.34623 33.8171 4.39758 33.8512C4.66172 33.9957 4.88007 34.0285 5.17415 34.0283C5.25085 34.0285 5.32754 34.0287 5.40656 34.0288C5.53306 34.0285 5.53306 34.0285 5.66213 34.0281C5.79642 34.0282 5.79642 34.0282 5.93342 34.0283C6.23484 34.0284 6.53625 34.028 6.83767 34.0275C7.05317 34.0275 7.26867 34.0275 7.48416 34.0275C7.94885 34.0275 8.41353 34.0273 8.87822 34.0268C9.55008 34.0261 10.2219 34.0259 10.8938 34.0258C11.9838 34.0256 13.0738 34.025 14.1638 34.0242C15.2228 34.0234 16.2817 34.0228 17.3407 34.0224C17.4059 34.0224 17.4712 34.0223 17.5384 34.0223C17.8658 34.0222 18.1931 34.0221 18.5205 34.022C21.237 34.0211 23.9535 34.0195 26.67 34.0176C26.7557 33.8089 26.8407 33.6 26.9253 33.3909C26.9495 33.3321 26.9737 33.2733 26.9987 33.2128C27.1489 32.8391 27.2796 32.5095 27.199 32.1064C26.9659 31.6821 26.5359 31.4196 26.1534 31.1431C25.7717 30.8536 25.6113 30.6536 25.4646 30.185C25.426 29.7086 25.4909 29.298 25.5991 28.8342C25.6883 28.3203 25.6227 28.0117 25.3839 27.5501C25.1289 27.0115 24.9233 26.5149 25.0799 25.9162C25.2043 25.6283 25.3562 25.4178 25.5712 25.1901C26.161 24.5582 26.2265 24.1263 26.2324 23.2959C26.2435 22.7625 26.3425 22.4368 26.6969 22.0298C27.0628 21.7505 27.5154 21.6047 27.9406 21.4418C28.5012 21.1576 28.7093 20.6088 28.9883 20.0669C29.2061 19.7652 29.4195 19.5837 29.7696 19.4711C30.0767 19.4482 30.3775 19.4716 30.6844 19.4929C31.6103 19.5288 32.0566 19.333 32.783 18.7743C33.1915 18.5771 33.542 18.5298 33.9884 18.6001C34.348 18.7363 34.6889 18.9123 34.9954 19.1477C35.4958 19.513 35.8979 19.5173 36.5014 19.482C37.5099 19.4319 37.5099 19.4319 37.8629 19.7324C38.1004 19.9791 38.262 20.1868 38.406 20.5C38.7394 21.2007 39.0729 21.456 39.7765 21.7081C40.2329 21.8719 40.5452 22.0731 40.8002 22.5102C40.8832 22.7106 40.8977 22.853 40.9006 23.0693C40.9377 24.0297 41.0581 24.6331 41.7104 25.3479C42.0706 25.7468 42.1316 26.056 42.1288 26.5872C42.07 26.9467 41.9273 27.2176 41.7642 27.5392C41.424 28.2246 41.4974 28.6864 41.6684 29.4126C41.7563 29.8421 41.7604 30.2224 41.5651 30.6205C41.2151 31.0129 40.807 31.3255 40.3964 31.6498C40.1539 31.8707 40.028 32.0254 40.0022 32.3572C40.0457 32.7795 40.156 33.1315 40.3217 33.5222C40.361 33.6153 40.4002 33.7084 40.4406 33.8043C40.4708 33.8747 40.5009 33.9451 40.532 34.0176C40.8995 34.0263 41.2669 34.0326 41.6345 34.0367C41.7592 34.0385 41.884 34.0408 42.0087 34.0439C42.9999 34.0734 42.9999 34.0734 43.8898 33.6692C44.0495 33.5217 44.0495 33.5217 44.1427 33.3589C44.1755 33.3085 44.2082 33.258 44.2419 33.2061C44.4258 32.862 44.4183 32.5409 44.4168 32.1616C44.4168 32.0962 44.4169 32.0309 44.417 31.9636C44.4171 31.7442 44.4167 31.5247 44.4162 31.3052C44.4162 31.1481 44.4162 30.991 44.4162 30.834C44.4162 30.4069 44.4157 29.9799 44.4151 29.5528C44.4146 29.1068 44.4146 28.6607 44.4145 28.2147C44.4142 27.3697 44.4135 26.5248 44.4126 25.6798C44.4116 24.718 44.4112 23.7562 44.4107 22.7944C44.4098 20.8156 44.4083 18.8368 44.4064 16.858C44.333 16.8578 44.333 16.8578 44.2581 16.8576C43.0674 16.8543 41.8767 16.8492 40.686 16.8419C40.1102 16.8385 39.5344 16.8356 38.9586 16.8344C38.4031 16.833 37.8477 16.83 37.2922 16.8259C37.08 16.8246 36.8679 16.8239 36.6557 16.8238C36.3591 16.8236 36.0625 16.8213 35.7658 16.8184C35.6777 16.8188 35.5896 16.8193 35.4988 16.8197C34.9051 16.8108 34.9051 16.8108 34.6253 16.61C34.4347 16.3128 34.4078 16.0753 34.4053 15.7296C34.404 15.596 34.404 15.596 34.4027 15.4597C34.4022 15.3621 34.4018 15.2645 34.4012 15.1639C34.4004 15.0611 34.3995 14.9583 34.3987 14.8523C34.3964 14.5703 34.3945 14.2883 34.3928 14.0064C34.3909 13.7117 34.3886 13.417 34.3863 13.1223C34.382 12.5642 34.3781 12.0062 34.3744 11.4481C34.3701 10.8128 34.3654 10.1775 34.3606 9.54214C34.3508 8.23525 34.3416 6.92834 34.3328 5.62144C30.5699 5.61347 26.807 5.60733 23.0441 5.60365C22.6 5.60321 22.1558 5.60276 21.7117 5.6023C21.6233 5.60221 21.5349 5.60212 21.4438 5.60202C20.0116 5.60051 18.5795 5.59776 17.1474 5.59456C15.6781 5.5913 14.2089 5.58936 12.7397 5.58866C11.8329 5.58818 10.9261 5.58667 10.0193 5.58384C9.39775 5.582 8.77617 5.58144 8.15457 5.58189C7.7958 5.58212 7.43705 5.58177 7.07829 5.57991C6.74978 5.57821 6.42131 5.57812 6.0928 5.57932C5.91777 5.57953 5.74275 5.57803 5.56772 5.57646C4.85047 5.58123 4.42145 5.63991 3.91293 6.18218ZM35.9687 6.6667C35.9036 9.54198 35.8738 12.4139 35.8826 15.2901C38.4113 15.2901 40.9401 15.2901 43.5454 15.2901C43.4101 15.0162 43.3303 14.8755 43.1327 14.6654C43.0859 14.615 43.039 14.5647 42.9907 14.5128C42.9412 14.4603 42.8916 14.4078 42.8405 14.3537C42.7383 14.244 42.6362 14.1342 42.5341 14.0243C42.4853 13.9719 42.4365 13.9195 42.3862 13.8654C42.1836 13.646 41.9891 13.42 41.7952 13.1927C41.6205 12.9895 41.4422 12.7897 41.2638 12.5898C40.9828 12.2748 40.7052 11.9571 40.4297 11.6371C40.2502 11.4305 40.0684 11.2261 39.8862 11.0219C39.6052 10.7069 39.3276 10.3892 39.0521 10.0692C38.8726 9.8626 38.6908 9.65826 38.5086 9.45405C38.2276 9.13901 37.95 8.82133 37.6745 8.50134C37.4305 8.22042 37.1822 7.94342 36.9343 7.66602C36.7064 7.40868 36.4836 7.1472 36.2623 6.88412C36.1453 6.74353 36.1453 6.74353 35.9687 6.6667ZM32.8777 20.5147C32.1865 20.9552 31.6684 20.9716 30.8803 20.8991C30.6636 20.8898 30.4946 20.8901 30.2862 20.9519C30.0884 21.1591 29.9761 21.3898 29.8557 21.6487C29.3645 22.419 28.8012 22.7437 27.9618 23.0601C27.7923 23.115 27.7923 23.115 27.7032 23.2166C27.6856 23.5184 27.6734 23.8195 27.6662 24.1217C27.64 24.7553 27.4496 25.2303 27.0521 25.7263C26.9746 25.8242 26.9746 25.8242 26.8957 25.924C26.7561 26.0911 26.7561 26.0911 26.5839 26.2653C26.5933 26.6371 26.7265 26.9053 26.8906 27.2289C27.2815 28.0711 27.1236 28.9563 26.9283 29.8366C27.0435 29.9233 27.0435 29.9233 27.161 30.0118C27.2628 30.0895 27.3646 30.1672 27.4664 30.2449C27.5169 30.2828 27.5674 30.3207 27.6194 30.3597C28.1943 30.8008 28.4418 31.2049 28.6234 31.9053C28.7068 32.3424 28.7068 32.3424 28.9086 32.711C29.2063 32.7628 29.5041 32.8106 29.8032 32.8531C30.4062 32.9503 30.8664 33.1664 31.2924 33.6256C31.3389 33.675 31.3855 33.7244 31.4334 33.7753C31.481 33.8265 31.5286 33.8777 31.5776 33.9305C31.6921 34.0469 31.8069 34.1632 31.922 34.2789C32.0238 34.2412 32.0238 34.2412 32.1275 34.2027C33.0205 33.8948 33.8711 33.7538 34.7633 34.1346C34.9921 34.2106 35.126 34.2343 35.366 34.1918C35.5487 34.0273 35.7048 33.8688 35.8665 33.6855C36.5236 32.9862 37.0236 32.8736 37.9698 32.757C38.2187 32.7321 38.2187 32.7321 38.3795 32.5368C38.457 32.3104 38.528 32.0859 38.5947 31.8563C38.9231 30.7439 38.9231 30.7439 39.1365 30.6127C39.1992 30.5865 39.262 30.5604 39.3266 30.5334C39.6475 30.331 39.9346 30.1226 40.1876 29.8366C40.2483 29.5556 40.1733 29.3267 40.1015 29.0526C39.9567 28.1616 40.0891 27.542 40.5212 26.7552C40.638 26.5355 40.638 26.5355 40.5858 26.3197C40.4168 26.0435 40.2151 25.8174 39.9942 25.5824C39.589 25.0776 39.5308 24.5949 39.4826 23.9679C39.4756 23.8872 39.4685 23.8064 39.4613 23.7232C39.4441 23.5254 39.428 23.3275 39.4127 23.1295C39.3182 23.0905 39.2238 23.0516 39.1264 23.0114C39.0012 22.9583 38.876 22.9051 38.7508 22.8519C38.6887 22.8264 38.6266 22.801 38.5626 22.7748C37.9233 22.5001 37.5888 22.1014 37.244 21.4963C37.0533 21.1225 37.0533 21.1225 36.7436 20.8648C36.5795 20.877 36.4155 20.8897 36.2517 20.9059C35.2338 21.0028 34.6266 20.7827 33.7917 20.1829C33.4751 19.964 33.1598 20.3305 32.8777 20.5147ZM28.2198 34.1047C28.1924 34.174 28.1924 34.174 28.1644 34.2447C27.2663 36.5162 27.2663 36.5162 27.1623 36.7792C27.094 36.952 27.0257 37.1248 26.9575 37.2976C26.8073 37.6779 26.6568 38.0581 26.5043 38.4374C26.4676 38.5291 26.4676 38.5291 26.4301 38.6226C26.3663 38.7818 26.3022 38.9409 26.238 39.0999C26.1434 39.3171 26.1434 39.3171 26.1534 39.5052C26.7922 39.3991 27.4192 39.2594 28.0462 39.0977C28.3983 39.01 28.7193 38.9346 29.0808 38.9826C29.4045 39.2092 29.604 39.4396 29.8079 39.7781C29.8597 39.8626 29.9116 39.9472 29.965 40.0343C30.0177 40.122 30.0704 40.2097 30.1247 40.3C30.2303 40.4748 30.3363 40.6492 30.4429 40.8233C30.5125 40.9391 30.5125 40.9391 30.5835 41.0571C30.7146 41.2685 30.7146 41.2685 30.975 41.4215C31.2274 40.7908 31.4797 40.16 31.7317 39.5291C31.8488 39.2361 31.9659 38.943 32.0832 38.6501C32.1967 38.3666 32.31 38.0831 32.4232 37.7995C32.4868 37.6403 32.5505 37.4812 32.6143 37.3221C32.8551 36.7184 33.0846 36.112 33.2996 35.4984C33.2435 35.5109 33.1874 35.5234 33.1295 35.5363C32.9956 35.5662 32.8618 35.5961 32.7279 35.626C32.5997 35.6554 32.4719 35.6867 32.3448 35.7206C31.8301 35.843 31.4362 35.7407 30.975 35.4984C30.8189 35.3514 30.8189 35.3514 30.7167 35.2371C30.6598 35.2371 30.603 35.2371 30.5445 35.2371C30.5208 35.1851 30.4972 35.1331 30.4728 35.0795C30.2996 34.7507 30.0909 34.5493 29.7696 34.366C29.2646 34.2206 28.7467 34.1047 28.2198 34.1047ZM37.1865 34.4857C36.9816 34.6749 36.7937 34.8735 36.6124 35.0859C36.2607 35.4966 35.9494 35.7234 35.3959 35.7852C35.331 35.7822 35.2661 35.7791 35.1992 35.776C35.0995 35.7725 35.0995 35.7725 34.9977 35.7689C34.9488 35.7658 34.8998 35.7628 34.8494 35.7597C34.7692 35.916 34.6928 36.0743 34.618 36.2333C34.5751 36.3212 34.5321 36.4092 34.4879 36.4997C34.3901 36.9327 34.513 37.1869 34.6772 37.5889C34.7137 37.6839 34.7502 37.7788 34.7878 37.8767C34.8936 38.151 35.0011 38.4244 35.1097 38.6975C35.1769 38.8663 35.2436 39.0353 35.3103 39.2042C35.6049 39.9483 35.9117 40.6862 36.227 41.4215C36.4854 41.1767 36.6728 40.9316 36.8566 40.626C36.9083 40.5414 36.96 40.4569 37.0133 40.3698C37.1208 40.1921 37.228 40.0143 37.3349 39.8363C37.3866 39.7519 37.4383 39.6676 37.4916 39.5807C37.5381 39.5036 37.5846 39.4264 37.6325 39.3469C37.7879 39.1422 37.8803 39.0626 38.1212 38.9826C38.8124 38.9606 39.5045 39.1879 40.1669 39.3623C40.2437 39.3818 40.3206 39.4014 40.3998 39.4215C40.5032 39.4487 40.5032 39.4487 40.6086 39.4765C40.806 39.5221 40.806 39.5221 41.0485 39.4181C40.9946 39.2817 40.9407 39.1453 40.8868 39.0089C40.8382 38.8861 40.7896 38.7632 40.7411 38.6403C40.6057 38.2977 40.4701 37.9552 40.3341 37.6128C40.0797 36.9718 39.827 36.3305 39.5835 35.6852C39.5452 35.5846 39.5068 35.4841 39.4673 35.3805C39.3963 35.1938 39.3263 35.0068 39.2575 34.8193C39.2259 34.7368 39.1943 34.6544 39.1618 34.5695C39.1352 34.4981 39.1086 34.4268 39.0812 34.3532C38.9955 34.178 38.9955 34.178 38.816 34.1241C38.2757 34.0653 37.6321 34.152 37.1865 34.4857Z" fill="#FF7705"></path>
  <path d="M35.8321 23.6187C36.9135 24.3247 37.6046 25.2903 37.9319 26.5481C38.1237 27.8603 37.9232 29.0622 37.1666 30.1678C36.4255 31.1383 35.4778 31.7398 34.2727 31.9714C32.8234 32.1338 31.5793 31.7513 30.4311 30.8497C29.4695 29.9783 29.0832 28.8332 29.0019 27.5701C28.968 26.4383 29.3895 25.3726 30.1203 24.5212C31.5723 23.0072 33.9774 22.4873 35.8321 23.6187ZM31.195 25.7251C30.6963 26.5289 30.5995 27.2569 30.6674 28.1884C30.7425 28.4858 30.8563 28.7215 31.0192 28.9802C31.0554 29.0414 31.0917 29.1027 31.1291 29.1658C31.5597 29.8168 32.2123 30.1792 32.9537 30.3878C33.8636 30.5001 34.6393 30.3293 35.3784 29.7795C35.9725 29.2392 36.3159 28.6083 36.4216 27.8097C36.4546 26.9317 36.2067 26.2181 35.6594 25.5333C35.169 25.0286 34.5787 24.707 33.8756 24.6398C32.7469 24.628 31.9514 24.849 31.195 25.7251Z" fill="#FF7705"></path>
  <path d="M6.9702 14.0608C7.09029 14.06 7.09029 14.06 7.21281 14.0592C7.30085 14.0592 7.38889 14.0591 7.4796 14.0591C7.57306 14.0586 7.66652 14.0582 7.76282 14.0577C8.07751 14.0563 8.39221 14.0557 8.7069 14.0551C8.93191 14.0542 9.15692 14.0534 9.38193 14.0525C10.0581 14.05 10.7344 14.0484 11.4106 14.0471C11.6015 14.0467 11.7925 14.0463 11.9834 14.0459C13.169 14.0433 14.3545 14.041 15.54 14.0397C15.8146 14.0394 16.0892 14.0391 16.3637 14.0388C16.4319 14.0387 16.5002 14.0386 16.5705 14.0386C17.6766 14.0372 18.7826 14.0338 19.8887 14.0295C21.024 14.0251 22.1592 14.0227 23.2945 14.0221C23.9321 14.0218 24.5696 14.0206 25.2071 14.0172C25.8066 14.014 26.4061 14.0134 27.0056 14.0146C27.2259 14.0146 27.4462 14.0138 27.6665 14.012C27.9667 14.0096 28.2668 14.0105 28.567 14.0121C28.6547 14.0107 28.7423 14.0092 28.8326 14.0078C29.2501 14.0134 29.4297 14.022 29.7685 14.3241C29.9341 14.5826 30.002 14.6915 29.9965 15.0058C29.9976 15.0719 29.9988 15.138 30 15.2062C29.9 15.5623 29.7462 15.7073 29.4891 15.9366C29.1814 16.0135 28.8788 16.0063 28.5648 16.0022C28.4708 16.003 28.3769 16.0038 28.28 16.0047C27.9646 16.0067 27.6493 16.0051 27.3339 16.0035C27.108 16.0042 26.882 16.0051 26.6561 16.0062C26.1059 16.0083 25.5557 16.008 25.0055 16.0065C24.5583 16.0054 24.1112 16.0052 23.664 16.0058C23.5685 16.0059 23.5685 16.0059 23.4712 16.006C23.3419 16.0062 23.2126 16.0063 23.0833 16.0065C21.871 16.008 20.6587 16.0063 19.4464 16.0035C18.4061 16.0012 17.3659 16.0016 16.3257 16.004C15.1177 16.0067 13.9097 16.0078 12.7018 16.0062C12.573 16.0061 12.4442 16.0059 12.3153 16.0058C12.2203 16.0056 12.2203 16.0056 12.1233 16.0055C11.6767 16.0051 11.23 16.0058 10.7834 16.007C10.1823 16.0086 9.5812 16.0075 8.98008 16.0045C8.7592 16.0038 8.53832 16.004 8.31744 16.0052C8.01642 16.0066 7.71553 16.0048 7.41452 16.0022C7.32666 16.0034 7.23879 16.0045 7.14826 16.0057C6.73054 15.9987 6.5495 15.9893 6.21029 15.6875C5.9483 15.277 5.98402 15.0907 6.03924 14.5921C6.26065 14.1206 6.52598 14.0624 6.9702 14.0608Z" fill="#FF7705"></path>
  <path d="M7.41665 9.01331C7.51062 9.0125 7.6046 9.01169 7.70142 9.01086C8.01681 9.0088 8.33209 9.01044 8.64748 9.01206C8.87338 9.01136 9.09928 9.01044 9.32518 9.00932C9.87535 9.0072 10.4255 9.00751 10.9757 9.00901C11.4228 9.01018 11.8699 9.01034 12.317 9.00977C12.4125 9.00966 12.4125 9.00966 12.5098 9.00953C12.6391 9.00937 12.7684 9.0092 12.8976 9.00903C14.1098 9.00756 15.322 9.00925 16.5342 9.01203C17.5744 9.01434 18.6145 9.01394 19.6547 9.01156C20.8625 9.00879 22.0704 9.0077 23.2782 9.00929C23.407 9.00945 23.5358 9.00961 23.6646 9.00977C23.7596 9.00989 23.7596 9.00989 23.8566 9.01002C24.3032 9.01046 24.7498 9.00971 25.1964 9.00849C25.7975 9.00689 26.3985 9.00803 26.9995 9.01102C27.2204 9.01171 27.4413 9.01151 27.6621 9.01037C27.9631 9.00896 28.264 9.01072 28.565 9.01331C28.6528 9.01215 28.7407 9.011 28.8312 9.00981C29.2489 9.01679 29.4298 9.02596 29.7687 9.32834C29.9341 9.58677 30.002 9.69565 29.9965 10.0099C29.9976 10.076 29.9988 10.1422 30 10.2103C29.9 10.5664 29.746 10.7116 29.4892 10.9408C29.1826 11.0174 28.8812 11.0097 28.5684 11.0051C28.428 11.0061 28.428 11.0061 28.2847 11.0071C27.9706 11.0087 27.6565 11.0065 27.3424 11.0044C27.1174 11.0048 26.8924 11.0054 26.6674 11.0062C26.1194 11.0075 25.5714 11.0064 25.0234 11.0042C24.3853 11.0017 23.7471 11.0019 23.109 11.0022C21.9704 11.0025 20.8318 11.0004 19.6932 10.9969C18.5883 10.9934 17.4835 10.992 16.3786 10.9926C15.1755 10.9933 13.9724 10.9931 12.7693 10.991C12.6739 10.9909 12.6739 10.9909 12.5765 10.9907C12.4487 10.9905 12.321 10.9903 12.1932 10.99C11.7484 10.9893 11.3035 10.9893 10.8587 10.9894C10.26 10.9896 9.66133 10.988 9.06264 10.9854C8.84266 10.9846 8.62267 10.9844 8.40269 10.9847C8.10291 10.9851 7.80318 10.9836 7.50341 10.9816C7.37215 10.9824 7.37215 10.9824 7.23823 10.9833C6.79829 10.9781 6.48513 10.9676 6.13168 10.6305C5.98928 10.3039 5.96761 9.94713 6.04149 9.59615C6.43234 8.98119 6.80303 9.00525 7.41665 9.01331Z" fill="#FF7705"></path>
  <path d="M7.25461 20.0146C7.32314 20.0145 7.39168 20.0143 7.46228 20.0142C7.69314 20.0139 7.92399 20.0139 8.15484 20.014C8.31986 20.0138 8.48488 20.0136 8.64991 20.0134C9.09908 20.013 9.54825 20.0128 9.99743 20.0128C10.372 20.0128 10.7465 20.0126 11.1211 20.0124C12.0046 20.0119 12.8881 20.0118 13.7716 20.0119C14.6839 20.0119 15.5962 20.0113 16.5085 20.0105C17.2909 20.0098 18.0733 20.0095 18.8557 20.0096C19.3234 20.0096 19.791 20.0094 20.2587 20.0089C20.6985 20.0084 21.1383 20.0083 21.5781 20.0087C21.7397 20.0088 21.9013 20.0087 22.0628 20.0083C22.2831 20.0079 22.5034 20.0082 22.7236 20.0086C22.7878 20.0083 22.852 20.008 22.9182 20.0078C23.2452 20.0091 23.4963 20.0157 23.7676 20.1272C23.9594 20.2944 23.9794 20.398 24 20.5951C23.9179 20.7771 23.7426 20.8539 23.495 20.9715C23.244 20.9975 23.0489 21.0073 22.7985 21.005C22.6943 21.0056 22.6943 21.0056 22.5881 21.0062C22.3557 21.0073 22.1235 21.0064 21.8911 21.0056C21.7244 21.006 21.5577 21.0064 21.391 21.007C20.9385 21.0082 20.486 21.0077 20.0334 21.0069C19.5599 21.0062 19.0864 21.0069 18.6129 21.0073C17.8177 21.0077 17.0225 21.0071 16.2273 21.0059C15.3079 21.0044 14.3884 21.0049 13.469 21.0063C12.6797 21.0075 11.8904 21.0077 11.1011 21.007C10.6296 21.0066 10.1582 21.0066 9.68668 21.0074C9.24343 21.0082 8.80024 21.0077 8.35699 21.0061C8.19428 21.0058 8.03156 21.0059 7.86884 21.0065C7.64677 21.0072 7.42489 21.0063 7.20283 21.005C7.13836 21.0056 7.07389 21.0061 7.00747 21.0067C6.65587 21.0027 6.51509 20.9756 6.23922 20.8444C6.05508 20.7098 5.99121 20.6608 6.00096 20.4933C6.05206 20.2855 6.05206 20.2855 6.2224 20.1569C6.56826 20.0091 6.83854 20.0141 7.25461 20.0146Z" fill="#FF7705"></path>
</svg>
