<?xml version="1.0" encoding="UTF-8"?>
<svg xmlns="http://www.w3.org/2000/svg" width="48" height="48" viewBox="0 0 48 48" fill="none">
  <path d="M6.12911 4.02748C6.25773 4.02707 6.38635 4.02665 6.51887 4.02622C6.66344 4.02631 6.80802 4.0264 6.95259 4.02651C7.10474 4.02623 7.2569 4.0259 7.40905 4.02553C7.82914 4.02466 8.24923 4.02447 8.66932 4.02439C9.12161 4.02419 9.5739 4.02337 10.0262 4.02264C11.0161 4.02117 12.006 4.02052 12.9958 4.02004C13.6134 4.01974 14.231 4.01928 14.8486 4.01879C16.557 4.01747 18.2654 4.01636 19.9738 4.01599C20.0833 4.01597 20.1927 4.01595 20.3054 4.01592C20.4151 4.0159 20.5248 4.01587 20.6379 4.01585C20.8602 4.0158 21.0825 4.01575 21.3048 4.01571C21.4702 4.01567 21.4702 4.01567 21.6389 4.01563C23.4265 4.0152 25.2141 4.01332 27.0017 4.0108C28.8351 4.00823 30.6685 4.00688 32.5019 4.00675C33.5321 4.00665 34.5623 4.00603 35.5924 4.00407C36.4695 4.0024 37.3465 4.00184 38.2236 4.00274C38.6714 4.00316 39.1192 4.00305 39.5671 4.00154C39.9766 4.00017 40.3861 4.00028 40.7956 4.00161C40.9442 4.00182 41.0928 4.00148 41.2413 4.00054C41.4425 3.99935 41.6436 4.00034 41.8448 4.00145C41.9568 4.00138 42.0687 4.00132 42.1841 4.00125C42.46 4.04171 42.46 4.04171 42.6501 4.1863C42.9547 4.62056 42.8973 5.10833 42.8968 5.61837C42.8972 5.76209 42.8972 5.76209 42.8977 5.90872C42.8986 6.23107 42.8988 6.55341 42.899 6.87576C42.8994 7.10635 42.9 8.38822 42.9005 8.61882C42.9019 9.24616 42.9026 9.8735 42.9031 10.5008C42.9034 10.8925 42.9038 11.2842 42.9043 11.6759C42.9057 12.9007 42.9068 14.1255 42.9072 15.3502C42.9076 16.7654 42.9095 18.1806 42.9125 19.5958C42.9148 20.6889 42.9159 21.7819 42.916 22.875C42.9161 23.5282 42.9168 24.1815 42.9186 24.8347C42.9204 25.449 42.9206 26.0633 42.9197 26.6776C42.9196 26.9032 42.9201 27.1289 42.9211 27.3545C42.9224 27.6622 42.9218 27.9699 42.9207 28.2775C42.922 28.4119 42.922 28.4119 42.9233 28.5491C42.9191 29.0457 42.879 29.3696 42.5655 29.7734C42.212 29.9548 41.814 29.8883 41.4258 29.8816C41.2262 29.8791 41.0267 29.8767 40.8271 29.8744C40.721 29.873 40.6148 29.8716 40.5054 29.8702C39.8258 29.8626 39.1462 29.8619 38.4667 29.86C37.8693 29.858 37.2722 29.8535 36.675 29.8435C36.0974 29.834 35.5201 29.8313 34.9425 29.8333C34.7227 29.8329 34.503 29.8299 34.2833 29.8244C33.1663 29.7536 33.1663 29.7536 32.1464 30.1251C31.6292 30.658 31.3581 31.3017 31.2787 32.0466C31.2792 32.2204 31.2834 32.3941 31.2918 32.5676C31.298 33.2642 31.1323 33.8264 30.771 34.4146C30.506 34.6788 30.2451 34.8197 29.9074 34.9693C30.1525 35.7676 30.4559 36.5298 30.778 37.2983C30.8309 37.4254 30.8838 37.5525 30.9383 37.6834C31.0779 38.0186 31.2178 38.3536 31.3579 38.6886C31.5556 39.1615 31.7526 39.6347 31.9498 40.1078C32.0545 40.3591 32.1593 40.6102 32.2643 40.8614C32.3118 40.9752 32.3593 41.0891 32.4083 41.2064C32.45 41.3061 32.4917 41.4058 32.5346 41.5085C32.9325 42.4759 32.9325 42.4759 32.8609 42.9797C32.6368 43.2909 32.6368 43.2909 32.3335 43.5209C31.9512 43.5706 31.7613 43.5592 31.4303 43.3505C31.303 43.2373 31.303 43.2373 31.1732 43.1217C31.0829 43.0432 30.9926 42.9646 30.8996 42.8837C30.8158 42.8082 30.7321 42.7327 30.6458 42.6549C30.2716 42.2696 30.2715 42.2696 29.8019 42.1137C29.7956 42.2127 29.7956 42.2127 29.7892 42.3138C29.769 42.6148 29.7459 42.9156 29.7228 43.2164C29.7162 43.3203 29.7097 43.4242 29.703 43.5313C29.6222 44.5291 29.6222 44.5291 29.169 44.9281C28.958 45 28.958 45 28.747 44.9958C28.6774 44.9972 28.6078 44.9986 28.5361 45C28.1404 44.8652 27.9472 44.4749 27.7639 44.1086C27.7233 44.0099 27.6827 43.9112 27.6409 43.8095C27.5941 43.6967 27.5472 43.5839 27.499 43.4677C27.4251 43.2862 27.4251 43.2862 27.3498 43.101C27.2978 42.9751 27.2458 42.8492 27.1922 42.7195C27.0543 42.3852 26.9171 42.0505 26.7803 41.7157C26.6425 41.3793 26.5038 41.0432 26.3652 40.7071C26.1606 40.2106 25.9564 39.7139 25.7529 39.217C25.7067 39.1058 25.6605 38.9945 25.613 38.88C25.5193 38.6467 25.4308 38.4111 25.3467 38.174C25.304 38.0568 25.2614 37.9396 25.2174 37.8189C25.1627 37.6606 25.1627 37.6606 25.1068 37.4991C24.9638 37.2128 24.9638 37.2128 24.6325 37.0983C24.3317 37.0295 24.1246 37.0149 23.8222 37.0599C23.7435 37.0706 23.6648 37.0814 23.5836 37.0924C23.3475 37.133 23.3475 37.133 23.0509 37.2425C22.9149 37.4744 22.9149 37.4744 22.8023 37.7674C22.7558 37.8795 22.7093 37.9916 22.6613 38.1071C22.6119 38.2297 22.5624 38.3522 22.5115 38.4785C22.4596 38.6045 22.4077 38.7305 22.3542 38.8603C22.2158 39.197 22.0783 39.534 21.9414 39.8713C21.8041 40.2086 21.6657 40.5454 21.5273 40.8821C20.9691 42.241 20.9691 42.241 20.4177 43.6028C20.3621 43.7397 20.3066 43.8766 20.251 44.0135C20.207 44.1232 20.1631 44.2329 20.1178 44.346C19.9927 44.6015 19.8979 44.7574 19.6754 44.9281C19.0874 45.0047 19.0874 45.0047 18.8315 44.9281C18.3761 44.5296 18.3443 44.1104 18.2975 43.5313C18.2909 43.4274 18.2844 43.3235 18.2777 43.2164C18.2654 43.0575 18.2654 43.0575 18.253 42.8953C18.2332 42.6348 18.2151 42.3744 18.1986 42.1137C17.9105 42.2514 17.6761 42.4002 17.4346 42.6118C17.3722 42.6648 17.3098 42.7178 17.2455 42.7725C17.1162 42.8835 16.9876 42.9954 16.8598 43.1082C16.5453 43.3729 16.3661 43.5111 15.9554 43.5716C15.5376 43.4981 15.3881 43.3247 15.1395 42.9797C15.0973 42.5059 15.1712 42.1738 15.3539 41.7405C15.4007 41.6277 15.4476 41.5149 15.4959 41.3987C15.5473 41.2783 15.5987 41.1578 15.6517 41.0337C15.7043 40.908 15.7569 40.7822 15.8111 40.6527C15.9511 40.3186 16.092 39.985 16.2334 39.6516C16.3754 39.3164 16.5161 38.9808 16.6569 38.6451C16.8162 38.2654 16.9757 37.8858 17.136 37.5065C17.3813 36.9261 17.6253 36.345 17.8658 35.7624C17.9313 35.6041 17.9313 35.6041 17.9982 35.4425C18.1056 35.1978 18.1056 35.1978 18.0931 34.9693C17.9172 34.8489 17.9172 34.8489 17.6975 34.7325C17.1785 34.4139 16.9629 34.0686 16.7622 33.4792C16.7048 33.1356 16.7371 32.8071 16.7548 32.4593C16.7745 31.6671 16.5773 31.236 16.0889 30.6394C16.0354 30.5293 15.9819 30.4192 15.9268 30.3058C15.7092 29.9825 15.7092 29.9825 15.4698 29.9304C15.2133 29.9085 14.9633 29.9075 14.7058 29.9131C14.6087 29.9127 14.5116 29.9122 14.4115 29.9118C14.0904 29.9109 13.7695 29.9146 13.4485 29.9181C13.2254 29.9179 13.0024 29.9175 12.7793 29.9167C12.1919 29.9152 11.6046 29.9173 11.0172 29.9204C10.077 29.9253 9.13684 29.927 8.19664 29.9248C7.86798 29.9248 7.53941 29.9276 7.21076 29.9306C7.00951 29.9307 6.80826 29.9306 6.60702 29.9305C6.46973 29.9328 6.46973 29.9328 6.32967 29.9352C5.70926 29.931 5.70926 29.931 5.38147 29.6757C5.07273 29.2307 5.10314 28.8479 5.10367 28.3181C5.10336 28.2223 5.10305 28.1266 5.10272 28.028C5.10181 27.7053 5.10165 27.3826 5.10149 27.0599C5.101 26.8294 5.10047 26.5988 5.0999 26.3682C5.09852 25.7404 5.09784 25.1126 5.09737 24.4848C5.09706 24.0929 5.09663 23.701 5.09616 23.3091C5.09472 22.0837 5.0937 20.8583 5.09329 19.633C5.09282 18.2169 5.09096 16.8008 5.08791 15.3846C5.08563 14.2911 5.08456 13.1976 5.08442 12.1041C5.08431 11.4505 5.08369 10.7969 5.08181 10.1433C5.08007 9.52854 5.07984 8.91382 5.08077 8.29908C5.08085 8.07325 5.08039 6.79615 5.07935 6.57033C5.07801 6.26239 5.07862 5.95452 5.07972 5.64659C5.07887 5.55691 5.07802 5.46724 5.07715 5.37485C5.08422 4.53286 5.26511 4.02852 6.12911 4.02748ZM6.80624 5.66542C6.80624 12.7383 6.80624 20.8625 6.80624 28.1497C9.76508 28.1497 12.7239 28.1497 15.7724 28.1497C16.6425 27.0001 16.6425 27.0001 16.8273 25.6803C16.8153 24.9507 16.8179 24.3199 17.297 23.7437C17.6879 23.3984 18.0747 23.2439 18.5696 23.1019C19.5181 22.8292 19.9063 22.4101 20.4137 21.5466C20.7625 21.1014 21.1073 20.8386 21.6684 20.7614C22.1792 20.7321 22.5715 20.8311 23.0509 21.0122C23.8226 21.2952 24.3502 21.2238 25.1078 20.9445C25.7287 20.7207 26.321 20.6745 26.9472 20.9107C27.3222 21.1181 27.4965 21.3953 27.7193 21.7616C28.2809 22.6838 28.7905 22.9719 29.8068 23.2452C30.3223 23.3947 30.6964 23.6679 30.9878 24.1408C31.1899 24.7876 31.1889 25.3807 31.1534 26.0571C31.1997 26.9011 31.7614 27.4657 32.228 28.1497C35.1869 28.1497 38.1457 28.1497 41.1942 28.1497C41.1942 21.0768 41.1942 12.9527 41.1942 5.66542C29.8462 5.66542 18.4981 5.66542 6.80624 5.66542ZM21.5481 22.6777C21.4718 22.7934 21.3956 22.9091 21.317 23.0283C20.7845 23.8288 20.2845 24.2799 19.3853 24.5437C18.852 24.6891 18.852 24.6891 18.4095 25.0106C18.3775 25.2164 18.3775 25.2164 18.3807 25.4512C18.3785 25.5393 18.3763 25.6275 18.3741 25.7184C18.3714 25.9025 18.3695 26.0865 18.3683 26.2706C18.3447 27.129 18.0687 27.7339 17.5459 28.4001C17.346 28.6561 17.2467 28.8068 17.1437 29.124C17.2876 29.3668 17.4333 29.5875 17.5986 29.814C18.2413 30.707 18.34 31.3086 18.336 32.3959C18.342 32.6502 18.3534 32.8813 18.4095 33.1291C18.8117 33.5025 19.3697 33.6044 19.8826 33.7613C20.5798 34.0347 20.957 34.4265 21.3499 35.0505C21.3923 35.1157 21.4348 35.1808 21.4785 35.248C21.5818 35.4069 21.6836 35.5669 21.785 35.7271C22.2057 35.6733 22.5849 35.612 22.9783 35.4497C23.8931 35.1294 24.6181 35.2832 25.5021 35.6429C25.8411 35.7408 25.9954 35.7593 26.3209 35.6188C26.4874 35.3943 26.6241 35.1834 26.7626 34.9423C27.1854 34.2659 27.5746 33.9385 28.3251 33.6704C28.431 33.6298 28.5369 33.5892 28.6461 33.5473C28.8493 33.4704 29.0534 33.3956 29.2584 33.3236C29.4802 33.2578 29.4802 33.2578 29.5909 33.1291C29.5989 32.9005 29.6064 32.6719 29.6108 32.4432C29.6323 31.5127 29.6858 30.7713 30.2238 29.9899C30.2817 29.9052 30.3397 29.8205 30.3993 29.7333C30.5472 29.5258 30.6987 29.3234 30.8567 29.124C30.643 28.6367 30.3792 28.2416 30.0553 27.8279C29.6147 27.1744 29.6617 26.5101 29.6645 25.7438C29.6585 25.4895 29.6471 25.2584 29.5909 25.0106C29.2599 24.7026 28.8759 24.6177 28.4504 24.4964C27.3595 24.1315 26.8206 23.3771 26.2154 22.4126C25.7626 22.4642 25.3582 22.5565 24.9232 22.6968C23.9744 22.9692 23.2043 22.7755 22.3125 22.4126C21.9133 22.3381 21.828 22.3646 21.5481 22.6777ZM19.6754 35.8353C19.4813 36.2876 19.288 36.7402 19.0953 37.193C19.0297 37.3469 18.9639 37.5007 18.8979 37.6545C18.8029 37.8759 18.7085 38.0977 18.6143 38.3195C18.5849 38.3878 18.5554 38.456 18.5251 38.5263C18.3715 38.8898 18.2572 39.232 18.1986 39.624C18.2725 39.586 18.3465 39.5481 18.4227 39.509C18.8419 39.3687 19.177 39.4224 19.5699 39.624C19.6366 39.824 19.6366 39.824 19.6885 40.0637C19.7062 40.1431 19.7239 40.2225 19.7421 40.3043C19.7549 40.3656 19.7677 40.4268 19.7808 40.49C20.1968 40.0631 20.3649 39.4226 20.5918 38.873C20.647 38.7425 20.7023 38.6119 20.7593 38.4774C20.811 38.3525 20.8627 38.2275 20.916 38.0988C20.9878 37.9265 20.9878 37.9265 21.061 37.7508C21.1849 37.4532 21.1849 37.4532 21.0467 37.1343C20.8883 36.9774 20.8883 36.9774 20.6972 36.8298C20.437 36.6115 20.2424 36.4122 20.0643 36.1195C20.0056 36.0257 19.9468 35.9319 19.8863 35.8353C19.8167 35.8353 19.7471 35.8353 19.6754 35.8353ZM28.1141 35.8353C27.9413 36.0394 27.9413 36.0394 27.7647 36.2954C27.4895 36.6706 27.2271 36.9716 26.8483 37.2425C27.0783 37.9872 27.3549 38.6985 27.6592 39.4143C27.7031 39.5183 27.7469 39.6223 27.7921 39.7295C27.8991 39.9831 28.0064 40.2366 28.1141 40.49C28.1489 40.49 28.1837 40.49 28.2196 40.49C28.2457 40.3515 28.2718 40.2131 28.2987 40.0705C28.4034 39.6488 28.4034 39.6488 28.6152 39.4548C29.0382 39.3704 29.4001 39.4866 29.8019 39.624C29.732 39.1567 29.5714 38.7487 29.3861 38.3195C29.3558 38.2482 29.3255 38.1769 29.2943 38.1034C29.1981 37.8771 29.1011 37.6512 29.0042 37.4252C28.9385 37.2712 28.8729 37.1173 28.8074 36.9632C28.6472 36.587 28.4863 36.2111 28.3251 35.8353C28.2555 35.8353 28.1859 35.8353 28.1141 35.8353Z" fill="#FF7705"></path>
  <path d="M12.9594 15.5547C13.1067 15.5538 13.1067 15.5538 13.257 15.5529C13.5861 15.5515 13.9152 15.5526 14.2444 15.5538C14.4803 15.5533 14.7162 15.5526 14.9522 15.5518C15.5931 15.5501 16.234 15.5508 16.875 15.552C17.5453 15.5529 18.2156 15.552 18.8859 15.5514C20.0837 15.5507 21.2816 15.5519 22.4794 15.5538C23.5654 15.5554 24.6513 15.5551 25.7373 15.5534C26.9985 15.5514 28.2598 15.5507 29.5211 15.5518C30.1887 15.5524 30.8562 15.5525 31.5238 15.5512C32.1514 15.5502 32.779 15.5509 33.4065 15.553C33.6371 15.5535 33.8676 15.5534 34.0981 15.5526C34.4124 15.5516 34.7266 15.5528 35.0409 15.5547C35.1325 15.5538 35.224 15.553 35.3184 15.5522C35.7492 15.5571 35.9623 15.5736 36.3355 15.7773C36.5602 15.9844 36.6177 16.0596 36.6114 16.3392C36.6128 16.4001 36.6141 16.4609 36.6155 16.5236C36.5018 16.8207 36.3164 16.9115 36.0134 17.0769C35.6891 17.1306 35.3702 17.1267 35.0409 17.1238C34.8936 17.1246 34.8936 17.1246 34.7433 17.1255C34.4142 17.127 34.0851 17.1258 33.7559 17.1246C33.52 17.1251 33.2841 17.1258 33.0481 17.1266C32.4072 17.1283 31.7663 17.1276 31.1253 17.1265C30.455 17.1255 29.7847 17.1264 29.1144 17.127C27.9166 17.1277 26.7187 17.1265 25.5209 17.1247C24.4349 17.123 23.349 17.1233 22.263 17.125C21.0018 17.127 19.7405 17.1277 18.4792 17.1266C17.8116 17.126 17.1441 17.126 16.4765 17.1272C15.8489 17.1283 15.2213 17.1275 14.5938 17.1254C14.3632 17.1249 14.1327 17.125 13.9022 17.1259C13.5879 17.1269 13.2737 17.1256 12.9594 17.1238C12.8678 17.1246 12.7763 17.1254 12.6819 17.1262C12.2511 17.1213 12.038 17.1048 11.6648 16.9011C11.4401 16.694 11.3826 16.6189 11.3889 16.3392C11.3875 16.2784 11.3862 16.2175 11.3848 16.1548C11.6259 15.5247 12.324 15.549 12.9594 15.5547Z" fill="#FF7705"></path>
  <path d="M12.8188 10.3119C12.9678 10.3109 12.9678 10.3109 13.1197 10.31C13.4533 10.3084 13.7868 10.3097 14.1204 10.3109C14.3593 10.3104 14.5981 10.3097 14.8369 10.3088C15.4862 10.307 16.1354 10.3077 16.7847 10.309C17.4635 10.31 18.1422 10.3091 18.8209 10.3084C20.0339 10.3077 21.2468 10.3089 22.4598 10.3109C23.5598 10.3126 24.6597 10.3123 25.7597 10.3105C27.0368 10.3084 28.3139 10.3077 29.591 10.3088C30.2672 10.3094 30.9433 10.3095 31.6194 10.3082C32.255 10.3071 32.8905 10.3079 33.5261 10.3101C33.7597 10.3106 33.9933 10.3105 34.2269 10.3096C34.5452 10.3086 34.8633 10.3099 35.1815 10.3119C35.2746 10.311 35.3676 10.3101 35.4634 10.3092C35.8716 10.3141 36.0844 10.3168 36.4232 10.5392C36.6526 10.8544 36.6366 11.0688 36.579 11.4389C36.4232 11.6531 36.4232 11.6531 36.1526 11.8307C35.8292 11.8889 35.5102 11.8835 35.1815 11.8805C35.0822 11.8811 34.9829 11.8817 34.8806 11.8823C34.547 11.8839 34.2135 11.8826 33.8799 11.8814C33.6411 11.8819 33.4022 11.8826 33.1634 11.8835C32.5141 11.8853 31.8649 11.8846 31.2156 11.8833C30.5368 11.8823 29.8581 11.8833 29.1794 11.8839C27.9664 11.8846 26.7535 11.8834 25.5405 11.8814C24.4405 11.8797 23.3406 11.88 22.2406 11.8818C20.9635 11.8839 19.6864 11.8847 18.4093 11.8835C17.7331 11.8829 17.057 11.8828 16.3809 11.8841C15.7453 11.8852 15.1098 11.8845 14.4742 11.8822C14.2406 11.8817 14.007 11.8818 13.7734 11.8827C13.4551 11.8837 13.137 11.8824 12.8188 11.8805C12.7257 11.8813 12.6327 11.8822 12.5369 11.8831C12.1287 11.8782 11.9159 11.8755 11.5771 11.6531C11.3477 11.3379 11.3637 11.1236 11.4213 10.7534C11.7836 10.2553 12.2245 10.3063 12.8188 10.3119Z" fill="#FF7705"></path>
  <path d="M26.8981 25.9895C27.699 26.6308 28.0927 27.463 28.2015 28.4017C28.2496 29.5929 27.8237 30.5406 26.9122 31.4181C26.0233 32.1801 25.0014 32.3857 23.8033 32.3846C22.6213 32.3631 21.8231 32.0239 20.9736 31.2988C20.0947 30.4539 19.7601 29.548 19.7978 28.4079C19.8948 27.4218 20.3518 26.6116 21.1716 25.9268C22.9647 24.673 25.1377 24.7588 26.8981 25.9895ZM21.9694 27.4954C21.5763 28.0647 21.539 28.6311 21.6315 29.2801C21.839 29.9488 22.3223 30.3217 22.9833 30.6683C23.5758 30.929 24.1541 30.9104 24.7858 30.7674C25.4458 30.4892 25.9066 30.1447 26.2503 29.5776C26.4713 28.9939 26.4775 28.328 26.1869 27.7619C25.8524 27.2552 25.3922 26.9119 24.7928 26.665C23.6481 26.4594 22.7579 26.7369 21.9694 27.4954Z" fill="#FF7705"></path>
</svg>
