<?xml version="1.0" encoding="UTF-8"?>
<svg xmlns="http://www.w3.org/2000/svg" width="48" height="48" viewBox="0 0 48 48" fill="none">
  <path d="M19.6062 4.00493C19.7096 4.00514 19.7096 4.00514 19.8152 4.00536C20.812 4.00882 21.7763 4.04077 22.7515 4.26339C22.8132 4.27636 22.8749 4.28934 22.9385 4.3027C24.9853 4.73605 26.9938 5.59351 28.6814 6.8382C28.7597 6.89442 28.8379 6.95064 28.9185 7.00857C31.9418 9.24845 34.0212 12.4604 34.9087 16.1085C34.924 16.1708 34.9392 16.2331 34.9548 16.2973C35.2023 17.3756 35.2674 18.4401 35.2647 19.5416C35.2647 19.6412 35.2647 19.6412 35.2646 19.7428C35.2562 22.6015 34.555 25.5767 32.9039 27.9609C32.7953 28.1298 32.7953 28.1298 32.8639 28.2797C33.008 28.5065 33.1883 28.6865 33.3788 28.8738C33.4206 28.9155 33.4625 28.9572 33.5055 29.0002C33.6457 29.1399 33.7865 29.2791 33.9272 29.4183C34.0279 29.5183 34.1285 29.6185 34.2291 29.7186C34.4458 29.9343 34.6628 30.1498 34.8799 30.3652C35.2237 30.7061 35.5669 31.0477 35.9099 31.3895C36.8854 32.3613 37.8619 33.3322 38.8391 34.3023C39.3787 34.8381 39.9177 35.3744 40.4561 35.9114C40.7965 36.2507 41.1375 36.5893 41.4791 36.9274C41.6923 37.1388 41.9048 37.3508 42.1172 37.563C42.2152 37.6607 42.3135 37.7581 42.4121 37.8552C43.2307 38.6622 43.9842 39.4523 44 40.6664C43.9922 41.6957 43.8097 42.3205 43.116 43.1196C42.9194 43.2977 42.7157 43.4462 42.4918 43.5878C42.3928 43.6554 42.3928 43.6554 42.2918 43.7243C41.573 44.0929 40.5385 44.1172 39.7658 43.8999C38.886 43.5065 38.2142 42.7761 37.5476 42.1033C37.4461 42.0017 37.3445 41.9002 37.2429 41.7986C36.9693 41.5252 36.6965 41.251 36.4238 40.9766C36.1378 40.6892 35.8512 40.4025 35.5647 40.1157C35.0232 39.5734 34.4823 39.0306 33.9416 38.4876C33.3256 37.8689 32.7089 37.251 32.0922 36.6331C30.8245 35.3629 29.5576 34.0919 28.2913 32.8204C28.0025 32.9136 27.7591 33.0039 27.5062 33.1715C26.4148 33.8411 25.2279 34.3387 23.9999 34.693C23.923 34.7155 23.923 34.7155 23.8445 34.7386C23.4831 34.8426 23.1197 34.9284 22.7515 35.0051C22.6972 35.0169 22.6428 35.0286 22.5868 35.0408C20.6776 35.4362 18.4117 35.4361 16.5096 35.0051C16.4478 34.9921 16.386 34.9791 16.3223 34.9658C14.2757 34.5324 12.2672 33.6749 10.5797 32.4303C10.5014 32.374 10.4232 32.3178 10.3426 32.2599C7.3193 30.02 5.23986 26.8081 4.35236 23.16C4.33715 23.0977 4.32194 23.0354 4.30626 22.9712C4.0531 21.8681 3.99643 20.7848 4.00125 19.6586C4.00139 19.5896 4.00154 19.5207 4.00168 19.4496C4.00515 18.4528 4.03709 17.4885 4.25971 16.5132C4.27268 16.4516 4.28566 16.3899 4.29903 16.3263C4.73238 14.2795 5.58984 12.271 6.83452 10.5834C6.89074 10.5051 6.94697 10.4269 7.00489 10.3463C9.24477 7.32298 12.4567 5.24354 16.1048 4.35604C16.1671 4.34083 16.2294 4.32562 16.2936 4.30994C17.3967 4.05678 18.4799 4.00011 19.6062 4.00493ZM16.5994 5.93794C16.4453 5.97649 16.2899 6.00986 16.1344 6.04271C12.6033 6.8549 9.61395 9.29586 7.69279 12.2999C7.66203 12.348 7.63126 12.3961 7.59956 12.4457C6.70699 13.87 6.12293 15.4884 5.8202 17.1374C5.80596 17.2108 5.79171 17.2842 5.77704 17.3598C5.64579 18.1035 5.63322 18.8375 5.63489 19.5903C5.63488 19.6556 5.63487 19.7209 5.63486 19.7882C5.63688 20.7701 5.69477 21.7088 5.93427 22.6653C5.97281 22.8195 6.00619 22.9749 6.03903 23.1304C6.85122 26.6615 9.29219 29.6508 12.2962 31.572C12.3443 31.6028 12.3924 31.6335 12.442 31.6652C13.8662 32.5577 15.4848 33.1421 17.1338 33.4446C17.2447 33.4659 17.2447 33.4659 17.3578 33.4877C18.0854 33.6154 18.8015 33.6317 19.5379 33.6299C19.6328 33.6299 19.6328 33.6299 19.7295 33.6298C20.813 33.627 21.8506 33.5407 22.9076 33.2885C22.9669 33.2748 23.0262 33.261 23.0874 33.2468C26.5892 32.4043 29.7062 30.0021 31.5907 26.9627C32.4284 25.5629 32.994 24.1084 33.3629 22.5211C33.3769 22.4638 33.3909 22.4065 33.4053 22.3474C33.8272 20.5544 33.7686 18.3832 33.3268 16.6044C33.2884 16.4497 33.255 16.2937 33.2221 16.1378C32.409 12.6067 29.9692 9.61784 26.9649 7.69647C26.9168 7.6657 26.8687 7.63494 26.8191 7.60324C25.3948 6.71067 23.7764 6.12661 22.1273 5.82388C22.054 5.80963 21.9806 5.79539 21.905 5.78071C21.1613 5.64946 20.4273 5.6369 19.6744 5.63857C19.6092 5.63856 19.5439 5.63855 19.4766 5.63854C18.4947 5.64056 17.556 5.69844 16.5994 5.93794ZM31.5264 29.732C31.4799 29.7831 31.4334 29.8342 31.3854 29.8868C31.3335 29.9432 31.2816 29.9995 31.2282 30.0575C31.1455 30.1482 31.1455 30.1482 31.0612 30.2407C30.6008 30.7387 30.1366 31.2122 29.6177 31.65C29.7428 31.9625 29.9627 32.171 30.1986 32.4022C30.24 32.4433 30.2813 32.4845 30.3239 32.5268C30.4555 32.6576 30.5876 32.7877 30.7198 32.9179C30.8093 33.0067 30.8988 33.0955 30.9883 33.1843C31.2072 33.4015 31.4267 33.6182 31.6463 33.8347C31.881 33.7226 32.0379 33.6148 32.2169 33.4251C32.3965 33.2393 32.5779 33.0671 32.7777 32.9033C33.0378 32.6854 33.2552 32.442 33.4738 32.1831C33.5877 32.0509 33.706 31.9277 33.831 31.8061C33.7059 31.4955 33.4891 31.2855 33.2556 31.0539C33.2146 31.0127 33.1736 30.9716 33.1314 30.9292C33.0451 30.8428 32.9585 30.7565 32.8717 30.6704C32.7386 30.5381 32.6063 30.405 32.4741 30.2718C32.3901 30.1878 32.3059 30.1039 32.2218 30.02C32.1821 29.9801 32.1424 29.9401 32.1016 29.8989C31.8379 29.599 31.8379 29.599 31.5264 29.732ZM34.8764 33.013C34.6156 33.2748 34.3615 33.5371 34.1236 33.8201C33.7523 34.2537 33.3197 34.6255 32.8947 35.0051C33.2453 35.4247 33.6156 35.816 34.0018 36.2028C34.0642 36.2655 34.1265 36.3283 34.1908 36.3929C34.3957 36.5989 34.6008 36.8046 34.806 37.0102C34.9492 37.1539 35.0925 37.2976 35.2357 37.4412C35.4971 37.7034 35.7587 37.9655 36.0204 38.2274C36.4044 38.6118 36.788 38.9967 37.1711 39.3821C37.5043 39.7172 37.8381 40.0516 38.1722 40.3858C38.3137 40.5275 38.455 40.6695 38.5961 40.8116C38.7935 41.0103 38.9916 41.2083 39.1899 41.406C39.2477 41.4646 39.3056 41.5232 39.3652 41.5835C39.796 42.0109 40.2049 42.383 40.8435 42.3881C41.4041 42.3678 41.7577 42.1545 42.1361 41.7515C42.3737 41.4145 42.3782 41.0441 42.3924 40.643C42.2415 39.9663 41.6693 39.4549 41.1925 38.9837C41.1264 38.9174 41.0602 38.8511 40.9921 38.7828C40.8124 38.6029 40.6323 38.4237 40.4519 38.2446C40.2628 38.0566 40.0743 37.868 39.8857 37.6795C39.5696 37.3637 39.2531 37.0484 38.9363 36.7334C38.5292 36.3285 38.1229 35.923 37.7168 35.5172C37.3673 35.1681 37.0176 34.8193 36.6678 34.4706C36.5553 34.3585 36.4429 34.2463 36.3305 34.1341C36.1219 33.926 35.913 33.7181 35.704 33.5104C35.6415 33.448 35.5791 33.3857 35.5147 33.3214C35.4582 33.2653 35.4016 33.2092 35.3434 33.1514C35.294 33.1022 35.2446 33.0531 35.1937 33.0025C35.0338 32.8569 35.0375 32.8653 34.8764 33.013Z" fill="#FF7705"></path>
  <path d="M19.4297 7.12566C19.6096 7.12591 19.7894 7.12407 19.9693 7.1221C21.0224 7.11761 22.0393 7.26652 23.0537 7.55505C23.1393 7.5793 23.1393 7.5793 23.2266 7.60404C26.3147 8.51821 28.9993 10.6433 30.5782 13.4557C31.5869 15.3144 32.145 17.318 32.1389 19.4335C32.1387 19.6134 32.1405 19.7932 32.1425 19.9731C32.147 21.0262 31.9981 22.0431 31.7096 23.0576C31.6853 23.1432 31.6853 23.1432 31.6606 23.2305C30.7464 26.3186 28.6213 29.0032 25.809 30.582C23.9502 31.5907 21.9466 32.1488 19.8311 32.1428C19.6512 32.1425 19.4714 32.1444 19.2915 32.1463C18.2384 32.1508 17.2215 32.0019 16.2071 31.7134C16.1215 31.6892 16.1215 31.6892 16.0341 31.6644C12.946 30.7502 10.2614 28.6252 8.68256 25.8128C7.67386 23.954 7.11581 21.9504 7.12182 19.8349C7.12207 19.655 7.12024 19.4752 7.11826 19.2953C7.11377 18.2422 7.26268 17.2253 7.55121 16.2109C7.56738 16.1538 7.58354 16.0968 7.6002 16.038C8.51437 12.9499 10.6395 10.2653 13.4518 8.6864C15.3106 7.6777 17.3142 7.11965 19.4297 7.12566ZM16.8215 9.10091C16.7352 9.12412 16.7352 9.12412 16.6471 9.14781C13.8602 9.9122 11.5683 11.8167 10.1364 14.2969C9.68215 15.1082 9.34116 15.9287 9.09707 16.8253C9.07263 16.9109 9.07263 16.9109 9.04769 16.9983C8.572 18.7193 8.60958 20.7307 9.09707 22.4431C9.11255 22.5007 9.12802 22.5582 9.14397 22.6175C9.90837 25.4045 11.8129 27.6963 14.293 29.1282C15.1043 29.5825 15.9249 29.9234 16.8215 30.1675C16.8786 30.1838 16.9356 30.2001 16.9944 30.2169C18.7154 30.6926 20.7268 30.655 22.4393 30.1675C22.5256 30.1443 22.5256 30.1443 22.6136 30.1206C25.4006 29.3562 27.6925 27.4517 29.1244 24.9716C29.5786 24.1603 29.9196 23.3397 30.1637 22.4431C30.18 22.386 30.1963 22.329 30.2131 22.2702C30.6888 20.5492 30.6512 18.5378 30.1637 16.8253C30.1405 16.739 30.1405 16.739 30.1168 16.651C29.3524 13.864 27.4479 11.5721 24.9678 10.1402C24.1564 9.68599 23.3359 9.345 22.4393 9.10091C22.3537 9.07647 22.3537 9.07647 22.2663 9.05153C20.5453 8.57584 18.534 8.61342 16.8215 9.10091Z" fill="#FF7705"></path>
  <path d="M19.9669 10.2323C20.0362 10.2338 20.1054 10.2353 20.1768 10.2368C22.7245 10.3213 25.0023 11.5618 26.7236 13.3968C27.4877 14.242 28.3487 15.4207 28.4813 16.5766C28.4438 16.8498 28.3808 16.9981 28.2131 17.2155C27.9677 17.3791 27.8181 17.3972 27.5289 17.4151C27.2546 17.3464 27.0708 17.1878 26.8867 16.9814C26.7662 16.78 26.6783 16.5692 26.5892 16.3523C26.3164 15.7342 25.9971 15.2381 25.5603 14.7187C25.5049 14.6507 25.4496 14.5827 25.3926 14.5126C24.132 13.029 22.2217 12.1171 20.2939 11.9582C20.1999 11.9498 20.1999 11.9498 20.104 11.9411C19.9796 11.9302 19.8549 11.9209 19.7302 11.9135C19.413 11.8863 19.2676 11.8524 19.0062 11.6553C18.8403 11.4281 18.7971 11.3286 18.8014 11.0515C18.8004 10.9871 18.7994 10.9228 18.7983 10.8565C18.9626 10.2379 19.4233 10.2126 19.9669 10.2323Z" fill="#FF7705"></path>
  <path d="M28.6039 18.854C28.8477 19.0003 28.8477 19.0003 28.994 19.2441C29.0712 19.6363 29.0547 19.9233 28.8477 20.2682C28.5029 20.4751 28.2158 20.4916 27.8237 20.4145C27.5798 20.2682 27.5798 20.2682 27.4335 20.0243C27.3564 19.6322 27.3729 19.3451 27.5798 19.0003C27.9247 18.7934 28.2117 18.7768 28.6039 18.854Z" fill="#FF7705"></path>
</svg>
