<?xml version="1.0" encoding="UTF-8"?>
<svg xmlns="http://www.w3.org/2000/svg" width="48" height="48" viewBox="0 0 48 48" fill="none">
  <path d="M15.727 6.46424C15.9711 6.74126 16.033 7.0638 16.0716 7.42136C16.129 7.90141 16.3102 8.25898 16.672 8.57342C16.9946 8.81033 17.3826 8.91471 17.7764 8.86612C18.01 8.82634 18.2273 8.73414 18.4372 8.62355C18.7045 8.49188 19.0255 8.49414 19.3106 8.56435C20.05 8.84925 20.4807 9.86708 20.793 10.5553C20.9547 10.9259 21.0713 11.3342 20.9241 11.7338C20.7844 12.0282 20.5782 12.2196 20.3156 12.3984C19.9917 12.6281 19.7615 12.9679 19.6847 13.3668C19.6227 13.7864 19.6861 14.1821 19.9124 14.5436C20.0667 14.7556 20.2515 14.9144 20.4654 15.0609C20.7118 15.2339 20.9163 15.473 20.9727 15.781C21.0133 16.328 20.8302 16.7431 20.5833 17.2172C20.5717 17.2398 20.5601 17.2624 20.5481 17.2856C20.3815 17.6068 20.1997 17.9059 19.9843 18.1951C19.9632 18.2241 19.9422 18.2531 19.9206 18.283C19.7328 18.5345 19.515 18.7349 19.2054 18.8063C18.8717 18.8476 18.6082 18.8077 18.3068 18.6535C18.0164 18.5266 18.0164 18.5266 17.7077 18.4702C17.6725 18.4676 17.6373 18.4651 17.601 18.4625C17.1933 18.4714 16.812 18.6196 16.5133 18.9037C16.2174 19.23 16.101 19.5781 16.064 20.0096C16.0299 20.3902 15.9243 20.6833 15.6409 20.9455C15.1989 21.3074 14.522 21.263 13.9859 21.2606C13.959 21.2605 13.9321 21.2605 13.9043 21.2604C12.6758 21.2556 12.6758 21.2556 12.2598 20.8805C12.0157 20.6035 11.9537 20.281 11.9152 19.9234C11.8578 19.4434 11.6765 19.0858 11.3148 18.7713C10.9921 18.5344 10.6042 18.43 10.2103 18.4786C9.97679 18.5184 9.75941 18.6106 9.5496 18.7212C9.28227 18.8529 8.96121 18.8506 8.67612 18.7804C7.98335 18.5135 7.5422 17.5704 7.25154 16.9268C7.07352 16.5188 6.92981 16.1375 7.03659 15.6853C7.15577 15.373 7.35002 15.1451 7.62807 14.9711C7.96287 14.7598 8.18799 14.4495 8.28719 14.056C8.37169 13.6121 8.31597 13.1872 8.07435 12.8012C7.92003 12.5891 7.73526 12.4303 7.52136 12.2838C7.26826 12.1062 7.08188 11.8738 7.01401 11.5638C6.98369 11.1828 7.02681 10.8984 7.19373 10.5553C7.21237 10.5154 7.23097 10.4754 7.24955 10.4354C7.30823 10.311 7.37011 10.1884 7.43337 10.0664C7.44399 10.0459 7.45462 10.0253 7.46556 10.0042C7.62325 9.70218 7.80053 9.42259 8.0025 9.14963C8.02355 9.12055 8.04459 9.09148 8.06627 9.06153C8.2542 8.81016 8.47177 8.60981 8.78132 8.53844C9.11506 8.4972 9.37851 8.53706 9.67995 8.69124C9.9704 8.81815 9.9704 8.81815 10.279 8.87459C10.3142 8.87711 10.3495 8.87964 10.3857 8.88223C10.7934 8.8734 11.1748 8.72512 11.4735 8.44104C11.7693 8.11477 11.8857 7.76671 11.9228 7.33518C11.9586 6.93866 12.0733 6.63517 12.3758 6.36874C13.065 5.84419 15.0813 5.88217 15.727 6.46424ZM12.6211 6.86915C12.4683 7.0562 12.4486 7.23089 12.4264 7.46505C12.3766 7.90805 12.267 8.27909 11.9864 8.63012C11.9712 8.65096 11.9559 8.6718 11.9402 8.69327C11.5972 9.1348 11.0777 9.32142 10.5486 9.3941C10.1171 9.44094 9.66185 9.30086 9.28972 9.08361C9.12581 9.01242 8.92269 9.03835 8.76072 9.09997C8.45122 9.32137 8.25468 9.68206 8.06241 10.0053C8.05035 10.0255 8.0383 10.0458 8.02587 10.0667C7.60798 10.7287 7.60798 10.7287 7.52323 11.4721C7.58241 11.6954 7.73313 11.8028 7.91264 11.9305C8.05272 12.0346 8.18372 12.1364 8.30205 12.2667C8.32985 12.295 8.35765 12.3234 8.38629 12.3526C8.72627 12.7632 8.86421 13.3221 8.83479 13.8487C8.78469 14.3214 8.59262 14.8401 8.24214 15.1698C8.10243 15.2839 7.95885 15.3925 7.81037 15.4945C7.63446 15.6181 7.55327 15.7348 7.50673 15.9483C7.47646 16.2756 7.65101 16.5684 7.79282 16.8505C7.80498 16.8748 7.81715 16.899 7.82968 16.924C8.22392 17.7301 8.22392 17.7301 8.87118 18.2868C9.14098 18.3421 9.33821 18.2471 9.5716 18.1265C10.0555 17.8789 10.6244 17.9111 11.1281 18.0749C11.3357 18.1576 11.5118 18.2691 11.6869 18.409C11.7082 18.4257 11.7294 18.4424 11.7514 18.4595C12.1692 18.8073 12.3761 19.3441 12.4309 19.8792C12.4353 19.9268 12.4392 19.9744 12.4426 20.0221C12.4574 20.2043 12.5043 20.3327 12.6211 20.4756C12.9713 20.7773 13.4658 20.7418 13.901 20.7395C13.9763 20.7392 14.0517 20.7395 14.1271 20.7399C14.7749 20.7594 14.7749 20.7594 15.34 20.4955C15.5135 20.3143 15.5389 20.156 15.5622 19.9107C15.6165 19.3513 15.7986 18.862 16.21 18.4702C16.6371 18.1214 17.1802 17.8901 17.7377 17.9507C18.0694 17.9962 18.3761 18.0717 18.6663 18.2505C18.8303 18.3168 19.0163 18.3228 19.1837 18.2621C19.7745 17.9178 20.2531 16.8752 20.4635 16.2393C20.5007 16.0424 20.4881 15.8587 20.3873 15.6832C20.2996 15.5726 20.1877 15.4951 20.0741 15.4143C19.934 15.3101 19.803 15.2083 19.6847 15.0781C19.6706 15.0632 19.6565 15.0482 19.642 15.0329C19.2959 14.6488 19.1494 14.1373 19.1445 13.6242C19.1695 13.069 19.3741 12.5301 19.7746 12.1444C19.8778 12.0577 19.9869 11.9803 20.0981 11.9047C20.3072 11.7609 20.424 11.6502 20.4804 11.3962C20.5094 11.0687 20.3359 10.7767 20.1939 10.4942C20.1818 10.47 20.1696 10.4458 20.1571 10.4208C19.7628 9.61463 19.7628 9.61463 19.1156 9.05795C18.8457 9.00265 18.6485 9.09769 18.415 9.21826C18.1933 9.33171 17.9539 9.37905 17.7077 9.3941C17.688 9.39571 17.6683 9.39733 17.6479 9.39899C17.156 9.42081 16.6827 9.24167 16.2999 8.93571C16.2786 8.91905 16.2573 8.90239 16.2354 8.88522C15.8141 8.53464 15.6128 8.00793 15.558 7.47002C15.5534 7.42199 15.5493 7.37391 15.5457 7.32579C15.5261 7.10017 15.454 6.94527 15.2814 6.79657C14.9587 6.56047 14.4652 6.60329 14.0858 6.60525C14.0104 6.60557 13.9351 6.60525 13.8597 6.60486C13.1985 6.59071 13.1985 6.59071 12.6211 6.86915Z" fill="#FF7705" stroke="#FF7705" stroke-width="0.7"></path>
  <path d="M15.9513 11.1882C16.6193 11.7251 17.0492 12.4681 17.1561 13.3218C17.2338 14.2305 17.0063 15.0812 16.4173 15.7842C15.9309 16.3414 15.3074 16.6891 14.5879 16.8396C14.5556 16.8463 14.5234 16.8531 14.4902 16.8601C13.6015 16.9753 12.7745 16.7675 12.0549 16.2416C11.4096 15.7234 10.9378 15.0054 10.831 14.1733C10.7454 13.2786 10.9302 12.4533 11.4854 11.7366C12.5927 10.4025 14.5553 10.1114 15.9513 11.1882ZM11.9955 12.0576C11.5529 12.6271 11.3502 13.3081 11.4216 14.0254C11.5149 14.7204 11.885 15.35 12.437 15.7796C13.043 16.1916 13.7264 16.3764 14.4543 16.2548C15.1366 16.1167 15.7433 15.7275 16.1359 15.151C16.5176 14.5277 16.6751 13.8262 16.5053 13.1063C16.3323 12.4585 15.9465 11.8779 15.3691 11.5243C14.2315 10.8682 12.8738 11.0599 11.9955 12.0576Z" fill="#FF7705" stroke="#FF7705" stroke-width="0.7"></path>
  <path d="M32.3276 18.0771C32.719 18.5213 32.8183 19.0386 32.8802 19.612C32.9722 20.3818 33.2628 20.9552 33.8429 21.4595C34.3604 21.8394 34.9825 22.0068 35.6141 21.9289C35.9886 21.8651 36.3372 21.7172 36.6737 21.5399C37.1024 21.3287 37.6173 21.3324 38.0745 21.4449C39.2601 21.9018 39.9508 23.5341 40.4517 24.6378C40.7109 25.232 40.898 25.8867 40.6619 26.5276C40.4379 26.9998 40.1072 27.3066 39.6861 27.5935C39.1667 27.9618 38.7975 28.5067 38.6744 29.1464C38.5749 29.8192 38.6767 30.4538 39.0395 31.0335C39.287 31.3736 39.5833 31.6283 39.9263 31.8632C40.3215 32.1406 40.6495 32.524 40.7399 33.0179C40.8049 33.895 40.5113 34.5608 40.1154 35.3212C40.0968 35.3573 40.0781 35.3935 40.0589 35.4308C39.7918 35.9458 39.5003 36.4255 39.1547 36.8894C39.121 36.9358 39.0873 36.9823 39.0526 37.0302C38.7514 37.4336 38.4023 37.755 37.9058 37.8695C37.3706 37.9356 36.9481 37.8717 36.4647 37.6244C35.9989 37.4209 35.9989 37.4209 35.504 37.3304C35.4475 37.3264 35.391 37.3223 35.3328 37.3182C34.6791 37.3323 34.0675 37.5701 33.5885 38.0257C33.1141 38.5489 32.9273 39.1071 32.868 39.7991C32.8134 40.4094 32.6439 40.8794 32.1894 41.2999C31.4808 41.8804 30.3952 41.8091 29.5354 41.8053C29.4923 41.8052 29.4491 41.8051 29.4047 41.805C27.4346 41.7972 27.4346 41.7972 26.7673 41.1958C26.3759 40.7515 26.2766 40.2343 26.2147 39.6609C26.1227 38.8911 25.8321 38.3176 25.252 37.8134C24.7345 37.4335 24.1124 37.2661 23.4808 37.344C23.1063 37.4078 22.7577 37.5557 22.4212 37.733C21.9925 37.9442 21.4776 37.9405 21.0204 37.8279C19.9095 37.3998 19.202 35.8875 18.7359 34.8554C18.4504 34.2011 18.22 33.5896 18.3912 32.8645C18.5823 32.3637 18.8938 31.9981 19.3397 31.7192C19.8766 31.3802 20.2376 30.8827 20.3967 30.2517C20.5322 29.5397 20.4429 28.8584 20.0554 28.2394C19.8079 27.8993 19.5116 27.6446 19.1686 27.4097C18.7627 27.1248 18.4638 26.7521 18.355 26.255C18.3064 25.644 18.3755 25.1879 18.6432 24.6378C18.6731 24.5737 18.7029 24.5096 18.7327 24.4454C18.8268 24.2459 18.926 24.0494 19.0275 23.8537C19.0445 23.8208 19.0616 23.7878 19.0791 23.7539C19.332 23.2696 19.6163 22.8213 19.9402 22.3835C19.9739 22.3369 20.0077 22.2903 20.0424 22.2422C20.3438 21.8391 20.6927 21.5178 21.1891 21.4034C21.7243 21.3373 22.1468 21.4012 22.6302 21.6484C23.096 21.8519 23.096 21.8519 23.5909 21.9425C23.6474 21.9465 23.7039 21.9505 23.7621 21.9547C24.4158 21.9405 25.0274 21.7028 25.5064 21.2472C25.9809 20.724 26.1676 20.1658 26.2269 19.4738C26.2843 18.8379 26.4683 18.3512 26.9535 17.924C28.0587 17.0828 31.2921 17.1437 32.3276 18.0771ZM27.3468 18.7264C27.1018 19.0264 27.0701 19.3065 27.0345 19.682C26.9546 20.3925 26.779 20.9875 26.329 21.5504C26.3046 21.5838 26.2801 21.6172 26.2549 21.6517C25.7048 22.3597 24.8716 22.659 24.0233 22.7756C23.3313 22.8507 22.6012 22.626 22.0044 22.2777C21.7416 22.1635 21.4158 22.2051 21.1561 22.3039C20.6598 22.6589 20.3446 23.2373 20.0363 23.7557C20.0169 23.7882 19.9976 23.8207 19.9777 23.8542C19.3075 24.9158 19.3075 24.9158 19.1716 26.108C19.2665 26.4661 19.5082 26.6383 19.7961 26.8431C20.0207 27.0101 20.2308 27.1733 20.4205 27.3821C20.4651 27.4276 20.5097 27.4731 20.5556 27.52C21.1009 28.1785 21.3221 29.0747 21.2749 29.9192C21.1945 30.6772 20.8865 31.509 20.3245 32.0377C20.1004 32.2207 19.8702 32.3949 19.6321 32.5584C19.35 32.7568 19.2198 32.9439 19.1451 33.2862C19.0966 33.811 19.3765 34.2807 19.6039 34.7331C19.6234 34.7719 19.6429 34.8108 19.663 34.8509C20.2953 36.1436 20.2953 36.1436 21.3332 37.0364C21.7659 37.125 22.0822 36.9728 22.4565 36.7793C23.2324 36.3822 24.1448 36.4338 24.9525 36.6966C25.2854 36.8292 25.5679 37.008 25.8487 37.2324C25.8828 37.2591 25.9169 37.2858 25.952 37.3134C26.6221 37.871 26.9538 38.7319 27.0418 39.59C27.0488 39.6663 27.0551 39.7427 27.0606 39.8191C27.0843 40.1113 27.1595 40.3172 27.3468 40.5464C27.9084 41.0303 28.7014 40.9732 29.3993 40.9696C29.5201 40.9691 29.641 40.9696 29.7618 40.9703C30.8008 41.0015 30.8008 41.0015 31.707 40.5784C31.9851 40.2878 32.0259 40.0339 32.0634 39.6406C32.1504 38.7434 32.4424 37.9587 33.1021 37.3304C33.7871 36.771 34.6581 36.4003 35.552 36.4973C36.084 36.5704 36.5758 36.6914 37.0411 36.9782C37.3042 37.0844 37.6025 37.0941 37.8709 36.9967C38.8184 36.4447 39.5858 34.7726 39.9233 33.753C39.9828 33.437 39.9628 33.1425 39.8011 32.8611C39.6605 32.6837 39.481 32.5594 39.2988 32.4298C39.0742 32.2628 38.8641 32.0996 38.6744 31.8907C38.6518 31.8668 38.6292 31.8428 38.6059 31.8182C38.0508 31.2022 37.8159 30.3821 37.808 29.5591C37.8481 28.6688 38.1763 27.8046 38.8185 27.1861C38.9841 27.0471 39.1589 26.923 39.3373 26.8017C39.6727 26.5711 39.8599 26.3936 39.9503 25.9862C39.9969 25.461 39.7187 24.9928 39.491 24.5398C39.4715 24.5009 39.452 24.4621 39.4319 24.422C38.7996 23.1292 38.7996 23.1292 37.7617 22.2365C37.3289 22.1478 37.0126 22.3002 36.6383 22.4936C36.2826 22.6755 35.8988 22.7514 35.504 22.7756C35.4723 22.7782 35.4407 22.7807 35.4081 22.7834C34.6192 22.8184 33.8601 22.5311 33.2462 22.0405C33.2121 22.0138 33.178 21.987 33.1429 21.9595C32.4673 21.3973 32.1444 20.5526 32.0566 19.69C32.0492 19.613 32.0426 19.5359 32.0368 19.4587C32.0053 19.0969 31.8898 18.8485 31.613 18.61C31.0955 18.2314 30.3041 18.3001 29.6956 18.3032C29.5748 18.3037 29.4539 18.3032 29.3331 18.3026C28.2727 18.2799 28.2727 18.2799 27.3468 18.7264Z" fill="#FF7705" stroke="#FF7705" stroke-width="0.7"></path>
  <path d="M32.687 25.6527C33.7583 26.5137 34.4477 27.7052 34.6191 29.0742C34.7438 30.5315 34.3789 31.8957 33.4343 33.0231C32.6544 33.9166 31.6545 34.4741 30.5006 34.7155C30.4489 34.7263 30.3972 34.7372 30.3439 34.7483C28.9188 34.9332 27.5926 34.5999 26.4385 33.7565C25.4037 32.9255 24.6471 31.7742 24.4758 30.4398C24.3386 29.0049 24.635 27.6815 25.5253 26.5321C27.3011 24.3927 30.4484 23.9259 32.687 25.6527ZM26.3433 27.0469C25.6335 27.9602 25.3084 29.0523 25.423 30.2025C25.5727 31.3171 26.1661 32.3267 27.0514 33.0156C28.0231 33.6763 29.1191 33.9727 30.2864 33.7776C31.3805 33.5563 32.3536 32.9322 32.983 32.0077C33.5952 31.0081 33.8478 29.8831 33.5754 28.7287C33.298 27.6898 32.6794 26.7586 31.7534 26.1916C29.9291 25.1394 27.7518 25.4469 26.3433 27.0469Z" fill="#FF7705" stroke="#FF7705" stroke-width="0.7"></path>
</svg>
